<svg version="1.1" baseProfile="full" xmlns="http://www.w3.org/2000/svg" width="548.4333333333333" height="160">
	<g>
		<line x1="10" y1="40.0" x2="300.73333333333335" y2="40.0" style="stroke:rgb(70,70,70); stroke-width:3 "/>
		<g>
			<title>
flavin-dependent halogenase</title>
			<polygon class="
flavin-dependent halogenase" points="10,25 33,25 33,10 63,40 33,70 33,55 10,55" fill="rgb(255,255,255)" fill-opacity="1.0" stroke="rgb(0,0,0)" stroke-width="2"  />
			<g>
				<title>FMO-like (PF00743)
"Flavin-binding monooxygenase-like"</title>
				<polygon class="PF00743" points="10,28 46,28 58,40 46,52 10,52" stroke-linejoin="round" width="50" height="24" fill="rgb(203,74,151)" stroke="rgb(162,59,120)" stroke-width="1" opacity="0.75" />
			</g>
		</g>
		<g>
			<title>
cytochrome p450</title>
			<polygon class="
cytochrome p450" points="82,25 101,25 101,10 131,40 101,70 101,55 82,55" fill="rgb(255,255,255)" fill-opacity="1.0" stroke="rgb(0,0,0)" stroke-width="2"  />
			<g>
				<title>p450 (PF00067)
"Cytochrome P450"</title>
				<polygon class="PF00067" points="83,28 114,28 126,40 114,52 83,52" stroke-linejoin="round" width="46" height="24" fill="rgb(85,216,107)" stroke="rgb(68,172,85)" stroke-width="1" opacity="0.75" />
			</g>
		</g>
		<g>
			<title>
iron-sulfur cluster enzyme family protein, amino terminus</title>
			<polygon class="
iron-sulfur cluster enzyme family protein, amino terminus" points="138,10 148,40 138,70" fill="rgb(255,255,255)" fill-opacity="1.0" stroke="rgb(0,0,0)" stroke-width="2"  />
		</g>
		<g>
			<title>
iron-sulfur cluster enzyme family protein, carboxy terminus</title>
			<polygon class="
iron-sulfur cluster enzyme family protein, carboxy terminus" points="150,10 169,40 150,70" fill="rgb(255,255,255)" fill-opacity="1.0" stroke="rgb(0,0,0)" stroke-width="2"  />
		</g>
		<g>
			<title>
FAD-binding domain protein</title>
			<polygon class="
FAD-binding domain protein" points="166,25 170,25 170,10 200,40 170,70 170,55 166,55" fill="rgb(255,255,255)" fill-opacity="1.0" stroke="rgb(0,0,0)" stroke-width="2"  />
			<g>
				<title>FMO-like (PF00743)
"Flavin-binding monooxygenase-like"</title>
				<polygon class="PF00743" points="166,28 183,28 195,40 183,52 166,52" stroke-linejoin="round" width="33" height="24" fill="rgb(203,74,151)" stroke="rgb(162,59,120)" stroke-width="1" opacity="0.75" />
			</g>
		</g>
		<g>
			<title>
FAD-binding domain protein</title>
			<polygon class="
FAD-binding domain protein" points="200,10 216,40 200,70" fill="rgb(255,255,255)" fill-opacity="1.0" stroke="rgb(0,0,0)" stroke-width="2"  />
			<g>
				<title>FMO-like (PF00743)
"Flavin-binding monooxygenase-like"</title>
				<polygon class="PF00743" points="200,28 206,28 212,40 206,52 200,52" stroke-linejoin="round" width="14" height="24" fill="rgb(203,74,151)" stroke="rgb(162,59,120)" stroke-width="1" opacity="0.75" />
			</g>
		</g>
		<g>
			<title>
hypothetical protein</title>
			<polygon class="
hypothetical protein" points="218,10 234,40 218,70" fill="rgb(255,255,255)" fill-opacity="1.0" stroke="rgb(0,0,0)" stroke-width="2"  />
		</g>
		<g>
			<title>
chorismate lyase</title>
			<polygon class="
chorismate lyase" points="280,10 298,40 280,70" fill="rgb(255,255,255)" fill-opacity="1.0" stroke="rgb(0,0,0)" stroke-width="2"  />
			<g>
				<title>DUF98 (PF01947)
"p-hydroxybenzoic acid synthase"</title>
				<polygon class="PF01947" points="282,28 287,28 295,40 287,52 282,52" stroke-linejoin="round" width="15" height="24" fill="rgb(200,80,201)" stroke="rgb(160,64,160)" stroke-width="1" opacity="0.75" />
			</g>
		</g>
	</g>
	<g>
		<line x1="10" y1="120.0" x2="538.4333333333333" y2="120.0" style="stroke:rgb(70,70,70); stroke-width:3 "/>
		<g>
			<title>
flavin-dependent halogenase</title>
			<polygon class="
flavin-dependent halogenase" points="41,105 64,105 64,90 94,120 64,150 64,135 41,135" fill="rgb(255,255,255)" fill-opacity="1.0" stroke="rgb(0,0,0)" stroke-width="2"  />
		</g>
		<g>
			<title>
cytochrome p450</title>
			<polygon class="
cytochrome p450" points="103,105 125,105 125,90 155,120 125,150 125,135 103,135" fill="rgb(255,255,255)" fill-opacity="1.0" stroke="rgb(0,0,0)" stroke-width="2"  />
		</g>
		<g>
			<title>
FAD binding domain-containing protein</title>
			<polygon class="
FAD binding domain-containing protein" points="160,90 170,120 160,150" fill="rgb(255,255,255)" fill-opacity="1.0" stroke="rgb(0,0,0)" stroke-width="2"  />
		</g>
		<g>
			<title>
cytochrome p450</title>
			<polygon class="
cytochrome p450" points="173,105 188,105 188,90 218,120 188,150 188,135 173,135" fill="rgb(255,255,255)" fill-opacity="1.0" stroke="rgb(0,0,0)" stroke-width="2"  />
		</g>
		<g>
			<title>
chorismate lyase</title>
			<polygon class="
chorismate lyase" points="251,90 270,120 251,150" fill="rgb(255,255,255)" fill-opacity="1.0" stroke="rgb(0,0,0)" stroke-width="2"  />
		</g>
		<g>
			<title>
TetR family transcriptional regulator</title>
			<polygon class="
TetR family transcriptional regulator" points="277,120 286,90 286,150" fill="rgb(255,255,255)" fill-opacity="1.0" stroke="rgb(0,0,0)" stroke-width="2"  />
		</g>
		<g>
			<title>
TetR family transcriptional regulator</title>
			<polygon class="
TetR family transcriptional regulator" points="286,120 298,90 298,150" fill="rgb(255,255,255)" fill-opacity="1.0" stroke="rgb(0,0,0)" stroke-width="2"  />
		</g>
		<g>
			<title>
DevB family ABC transporter membrane fusion protein</title>
			<polygon class="
DevB family ABC transporter membrane fusion protein" points="306,105 319,105 319,90 349,120 319,150 319,135 306,135" fill="rgb(255,255,255)" fill-opacity="1.0" stroke="rgb(0,0,0)" stroke-width="2"  />
		</g>
		<g>
			<title>
DevC ABC transport system permease</title>
			<polygon class="
DevC ABC transport system permease" points="349,105 358,105 358,90 388,120 358,150 358,135 349,135" fill="rgb(255,255,255)" fill-opacity="1.0" stroke="rgb(0,0,0)" stroke-width="2"  />
		</g>
		<g>
			<title>
DevA ABC transport system ATP-binding protein</title>
			<polygon class="
DevA ABC transport system ATP-binding protein" points="392,90 415,120 392,150" fill="rgb(255,255,255)" fill-opacity="1.0" stroke="rgb(0,0,0)" stroke-width="2"  />
		</g>
		<g>
			<title>
type I restriction endonuclease subunit R</title>
			<polygon class="
type I restriction endonuclease subunit R" points="417,120 437,90 437,150" fill="rgb(255,255,255)" fill-opacity="1.0" stroke="rgb(0,0,0)" stroke-width="2"  />
		</g>
		<g>
			<title>
recombination protein RecR</title>
			<polygon class="
recombination protein RecR" points="450,90 461,120 450,150" fill="rgb(255,255,255)" fill-opacity="1.0" stroke="rgb(0,0,0)" stroke-width="2"  />
		</g>
		<g>
			<title>
two-component system response regulator</title>
			<polygon class="
two-component system response regulator" points="494,120 504,90 504,150" fill="rgb(255,255,255)" fill-opacity="1.0" stroke="rgb(0,0,0)" stroke-width="2"  />
		</g>
		<g>
			<title>
DNA (cytosine-5)-methyltransferase 1</title>
			<polygon class="
DNA (cytosine-5)-methyltransferase 1" points="507,90 519,120 507,150" fill="rgb(255,255,255)" fill-opacity="1.0" stroke="rgb(0,0,0)" stroke-width="2"  />
		</g>
	</g>
</svg>
