<svg version="1.1" baseProfile="full" xmlns="http://www.w3.org/2000/svg" width="820.6666666666666" height="80">
	<g>
		<line x1="10" y1="40.0" x2="810.6666666666666" y2="40.0" style="stroke:rgb(70,70,70); stroke-width:3 "/>
		<g>
			<title>plmA
GMc oxidoreductase</title>
			<polygon class="plmA
GMc oxidoreductase" points="10,25 43,25 43,10 73,40 43,70 43,55 10,55" fill="rgb(255,255,255)" fill-opacity="1.0" stroke="rgb(0,0,0)" stroke-width="2"  />
			<g>
				<title>GMC_oxred_N (PF00732)
"GMC oxidoreductase"</title>
				<rect class="PF00732" x="11" y="28" stroke-linejoin="round" width="30" height="24" fill="rgb(180,89,214)" stroke="rgb(143,71,171)" stroke-width="1" opacity="0.75" />
			</g>
			<g>
				<title>GMC_oxred_C (PF05199)
"GMC oxidoreductase"</title>
				<polygon class="PF05199" points="53,28 56,28 66,38 66,42 56,52 53,52" stroke-linejoin="round" width="13" height="24" fill="rgb(186,52,106)" stroke="rgb(148,41,84)" stroke-width="1" opacity="0.75" />
			</g>
		</g>
		<g>
			<title>plmB
GTP cyclohydrolase I</title>
			<polygon class="plmB
GTP cyclohydrolase I" points="77,40 106,10 106,70" fill="rgb(255,255,255)" fill-opacity="1.0" stroke="rgb(0,0,0)" stroke-width="2"  />
			<g>
				<title>GTP_cyclohydroI (PF01227)
"GTP cyclohydrolase I"</title>
				<polygon class="PF01227" points="81,40 93,28 98,28 98,52 93,52 81,40" stroke-linejoin="round" width="17" height="24" fill="rgb(48,180,84)" stroke="rgb(38,144,67)" stroke-width="1" opacity="0.75" />
			</g>
		</g>
		<g>
			<title>plmC
cytidine and deoxycytidylate deaminase</title>
			<polygon class="plmC
cytidine and deoxycytidylate deaminase" points="114,25 119,25 119,10 149,40 119,70 119,55 114,55" fill="rgb(255,255,255)" fill-opacity="1.0" stroke="rgb(0,0,0)" stroke-width="2"  />
			<g>
				<title>dCMP_cyt_deam_1 (PF00383)
"Cytidine and deoxycytidylate deaminase zinc-binding region"</title>
				<polygon class="PF00383" points="121,28 132,28 133,29 133,51 132,52 121,52" stroke-linejoin="round" width="12" height="24" fill="rgb(91,149,216)" stroke="rgb(72,119,172)" stroke-width="1" opacity="0.75" />
			</g>
		</g>
		<g>
			<title>plmD
aldehyde dehydrogenase</title>
			<polygon class="plmD
aldehyde dehydrogenase" points="155,25 177,25 177,10 207,40 177,70 177,55 155,55" fill="rgb(255,255,255)" fill-opacity="1.0" stroke="rgb(0,0,0)" stroke-width="2"  />
			<g>
				<title>Aldedh (PF00171)
"Aldehyde dehydrogenase family"</title>
				<polygon class="PF00171" points="157,28 191,28 203,40 203,40 191,52 157,52" stroke-linejoin="round" width="46" height="24" fill="rgb(105,213,139)" stroke="rgb(84,170,111)" stroke-width="1" opacity="0.75" />
			</g>
		</g>
		<g>
			<title>plmE
FAD/FMn containing dehydrogenase</title>
			<polygon class="plmE
FAD/FMn containing dehydrogenase" points="258,25 242,25 242,10 212,40 242,70 242,55 258,55" fill="rgb(255,255,255)" fill-opacity="1.0" stroke="rgb(0,0,0)" stroke-width="2"  />
			<g>
				<title>FAD_binding_4 (PF01565)
"FAD binding domain"</title>
				<rect class="PF01565" x="241" y="28" stroke-linejoin="round" width="13" height="24" fill="rgb(226,88,136)" stroke="rgb(180,70,108)" stroke-width="1" opacity="0.75" />
			</g>
		</g>
		<g>
			<title>plmF
dihydroneopterin aldolase</title>
			<polygon class="plmF
dihydroneopterin aldolase" points="272,25 277,25 277,10 307,40 277,70 277,55 272,55" fill="rgb(255,255,255)" fill-opacity="1.0" stroke="rgb(0,0,0)" stroke-width="2"  />
			<g>
				<title>FolB (PF02152)
"Dihydroneopterin aldolase"</title>
				<polygon class="PF02152" points="291,28 291,28 303,40 303,40 291,52 291,52" stroke-linejoin="round" width="12" height="24" fill="rgb(113,204,65)" stroke="rgb(90,163,52)" stroke-width="1" opacity="0.75" />
			</g>
		</g>
		<g>
			<title>plmG
S-adenosyl-L-methionine-dependent methyltransferase</title>
			<polygon class="plmG
S-adenosyl-L-methionine-dependent methyltransferase" points="318,10 342,40 318,70" fill="rgb(255,255,255)" fill-opacity="1.0" stroke="rgb(0,0,0)" stroke-width="2"  />
			<g>
				<title>Methyltransf_25 (PF13649)
"Methyltransferase domain"</title>
				<polygon class="PF13649" points="322,28 329,28 331,31 331,49 329,52 322,52" stroke-linejoin="round" width="9" height="24" fill="rgb(227,135,74)" stroke="rgb(181,108,59)" stroke-width="1" opacity="0.75" />
			</g>
		</g>
		<g>
			<title>plmH
S-adenosyl-L-methionine-dependent methyltransferase</title>
			<polygon class="plmH
S-adenosyl-L-methionine-dependent methyltransferase" points="372,10 397,40 372,70" fill="rgb(255,255,255)" fill-opacity="1.0" stroke="rgb(0,0,0)" stroke-width="2"  />
			<g>
				<title>Methyltransf_25 (PF13649)
"Methyltransferase domain"</title>
				<polygon class="PF13649" points="377,28 383,28 386,31 386,49 383,52 377,52" stroke-linejoin="round" width="9" height="24" fill="rgb(227,135,74)" stroke="rgb(181,108,59)" stroke-width="1" opacity="0.75" />
			</g>
		</g>
		<g>
			<title>plmI
nonribosomal peptide synthetase</title>
			<polygon class="plmI
nonribosomal peptide synthetase" points="663,25 454,25 454,10 424,40 454,70 454,55 663,55" fill="rgb(255,255,255)" fill-opacity="1.0" stroke="rgb(0,0,0)" stroke-width="2"  />
			<g>
				<title>Condensation (PF00668)
"Condensation domain"</title>
				<polygon class="PF00668" points="428,40 440,28 464,28 464,52 440,52" stroke-linejoin="round" width="38" height="24" fill="rgb(224,184,98)" stroke="rgb(179,147,78)" stroke-width="1" opacity="0.75" />
			</g>
			<g>
				<title>PP-binding (PF00550)
"Phosphopantetheine attachment site"</title>
				<rect class="PF00550" x="471" y="28" stroke-linejoin="round" width="6" height="24" fill="rgb(103,191,88)" stroke="rgb(82,152,70)" stroke-width="1" opacity="0.75" />
			</g>
			<g>
				<title>AMP-binding (PF00501)
"AMP-binding enzyme"</title>
				<rect class="PF00501" x="491" y="28" stroke-linejoin="round" width="40" height="24" fill="rgb(60,217,223)" stroke="rgb(48,173,178)" stroke-width="1" opacity="0.75" />
			</g>
			<g>
				<title>Condensation (PF00668)
"Condensation domain"</title>
				<rect class="PF00668" x="533" y="28" stroke-linejoin="round" width="41" height="24" fill="rgb(224,184,98)" stroke="rgb(179,147,78)" stroke-width="1" opacity="0.75" />
			</g>
			<g>
				<title>PP-binding (PF00550)
"Phosphopantetheine attachment site"</title>
				<rect class="PF00550" x="579" y="28" stroke-linejoin="round" width="6" height="24" fill="rgb(103,191,88)" stroke="rgb(82,152,70)" stroke-width="1" opacity="0.75" />
			</g>
			<g>
				<title>AMP-binding (PF00501)
"AMP-binding enzyme"</title>
				<rect class="PF00501" x="599" y="28" stroke-linejoin="round" width="39" height="24" fill="rgb(60,217,223)" stroke="rgb(48,173,178)" stroke-width="1" opacity="0.75" />
			</g>
		</g>
		<g>
			<title>plmJ
nonribosomal peptide synthetase</title>
			<polygon class="plmJ
nonribosomal peptide synthetase" points="677,25 780,25 780,10 810,40 780,70 780,55 677,55" fill="rgb(255,255,255)" fill-opacity="1.0" stroke="rgb(0,0,0)" stroke-width="2"  />
			<g>
				<title>AMP-binding (PF00501)
"AMP-binding enzyme"</title>
				<rect class="PF00501" x="700" y="28" stroke-linejoin="round" width="39" height="24" fill="rgb(60,217,223)" stroke="rgb(48,173,178)" stroke-width="1" opacity="0.75" />
			</g>
			<g>
				<title>PP-binding (PF00550)
"Phosphopantetheine attachment site"</title>
				<rect class="PF00550" x="754" y="28" stroke-linejoin="round" width="6" height="24" fill="rgb(103,191,88)" stroke="rgb(82,152,70)" stroke-width="1" opacity="0.75" />
			</g>
			<g>
				<title>Condensation (PF00668)
"Condensation domain"</title>
				<polygon class="PF00668" points="767,28 794,28 806,40 794,52 767,52" stroke-linejoin="round" width="40" height="24" fill="rgb(224,184,98)" stroke="rgb(179,147,78)" stroke-width="1" opacity="0.75" />
			</g>
		</g>
	</g>
</svg>
