<svg version="1.1" baseProfile="full" xmlns="http://www.w3.org/2000/svg" width="1062.7333333333333" height="80">
	<g>
		<line x1="10" y1="40.0" x2="1052.7333333333333" y2="40.0" style="stroke:rgb(70,70,70); stroke-width:3 "/>
		<g>
			<title> (QU43_RS61010)
putative polysaccharide export outer membrane protein EpsA</title>
			<polygon class=" (QU43_RS61010)
putative polysaccharide export outer membrane protein EpsA" points="50,25 40,25 40,10 10,40 40,70 40,55 50,55" fill="rgb(255,255,255)" fill-opacity="1.0" stroke="rgb(0,0,0)" stroke-width="2"  />
			<g>
				<title>SLBB (PF10531)
"SLBB domain"</title>
				<polygon class="PF10531" points="16,38 21,33 21,47 16,42" stroke-linejoin="round" width="5" height="24" fill="rgb(92,145,209)" stroke="rgb(73,116,167)" stroke-width="1" opacity="0.75" />
			</g>
			<g>
				<title>SLBB (PF10531)
"SLBB domain"</title>
				<polygon class="PF10531" points="24,30 26,28 29,28 29,52 26,52 24,50" stroke-linejoin="round" width="5" height="24" fill="rgb(92,145,209)" stroke="rgb(73,116,167)" stroke-width="1" opacity="0.75" />
			</g>
			<g>
				<title>Poly_export (PF02563)
"Polysaccharide biosynthesis/export protein"</title>
				<rect class="PF02563" x="30" y="28" stroke-linejoin="round" width="9" height="24" fill="rgb(125,185,59)" stroke="rgb(100,148,47)" stroke-width="1" opacity="0.75" />
			</g>
		</g>
		<g>
			<title> (QU43_RS61015)
LPS biosynthesis protein</title>
			<polygon class=" (QU43_RS61015)
LPS biosynthesis protein" points="71,25 118,25 118,10 148,40 118,70 118,55 71,55" fill="rgb(255,255,255)" fill-opacity="1.0" stroke="rgb(0,0,0)" stroke-width="2"  />
			<g>
				<title>Wzz (PF02706)
"Chain length determinant protein"</title>
				<rect class="PF02706" x="73" y="28" stroke-linejoin="round" width="9" height="24" fill="rgb(184,132,90)" stroke="rgb(147,105,72)" stroke-width="1" opacity="0.75" />
			</g>
			<g>
				<title>GNVR (PF13807)
"G-rich domain on putative tyrosine kinase"</title>
				<rect class="PF13807" x="110" y="28" stroke-linejoin="round" width="7" height="24" fill="rgb(77,110,190)" stroke="rgb(61,87,152)" stroke-width="1" opacity="0.75" />
			</g>
			<g>
				<title>AAA_31 (PF13614)
"AAA domain"</title>
				<polygon class="PF13614" points="126,28 131,28 142,39 142,41 131,52 126,52" stroke-linejoin="round" width="16" height="24" fill="rgb(144,187,62)" stroke="rgb(115,149,49)" stroke-width="1" opacity="0.75" />
			</g>
		</g>
		<g>
			<title> (QU43_RS61020)
hypothetical protein</title>
			<polygon class=" (QU43_RS61020)
hypothetical protein" points="155,25 172,25 172,10 202,40 172,70 172,55 155,55" fill="rgb(255,255,255)" fill-opacity="1.0" stroke="rgb(0,0,0)" stroke-width="2"  />
		</g>
		<g>
			<title> (QU43_RS61025)
acyltransferase</title>
			<polygon class=" (QU43_RS61025)
acyltransferase" points="208,25 216,25 216,10 246,40 216,70 216,55 208,55" fill="rgb(255,255,255)" fill-opacity="1.0" stroke="rgb(0,0,0)" stroke-width="2"  />
			<g>
				<title>Acyl_transf_3 (PF01757)
"Acyltransferase family"</title>
				<polygon class="PF01757" points="209,28 229,28 241,40 229,52 209,52" stroke-linejoin="round" width="34" height="24" fill="rgb(50,152,200)" stroke="rgb(40,121,160)" stroke-width="1" opacity="0.75" />
			</g>
		</g>
		<g>
			<title> (QU43_RS61030)
alpha/beta hydrolase</title>
			<polygon class=" (QU43_RS61030)
alpha/beta hydrolase" points="254,25 284,25 284,10 314,40 284,70 284,55 254,55" fill="rgb(255,255,255)" fill-opacity="1.0" stroke="rgb(0,0,0)" stroke-width="2"  />
			<g>
				<title>Hydrolase_4 (PF12146)
"Serine aminopeptidase, S33"</title>
				<rect class="PF12146" x="256" y="28" stroke-linejoin="round" width="16" height="24" fill="rgb(140,98,205)" stroke="rgb(112,78,164)" stroke-width="1" opacity="0.75" />
			</g>
		</g>
		<g>
			<title> (QU43_RS61035)
glycosyltransferase</title>
			<polygon class=" (QU43_RS61035)
glycosyltransferase" points="324,25 333,25 333,10 363,40 333,70 333,55 324,55" fill="rgb(255,255,255)" fill-opacity="1.0" stroke="rgb(0,0,0)" stroke-width="2"  />
			<g>
				<title>Glycos_transf_1 (PF00534)
"Glycosyl transferases group 1"</title>
				<polygon class="PF00534" points="344,28 347,28 359,40 347,52 344,52" stroke-linejoin="round" width="16" height="24" fill="rgb(228,92,150)" stroke="rgb(182,73,119)" stroke-width="1" opacity="0.75" />
			</g>
		</g>
		<g>
			<title> (QU43_RS61040)
polysaccharide biosynthesis protein</title>
			<polygon class=" (QU43_RS61040)
polysaccharide biosynthesis protein" points="365,25 376,25 376,10 406,40 376,70 376,55 365,55" fill="rgb(255,255,255)" fill-opacity="1.0" stroke="rgb(0,0,0)" stroke-width="2"  />
			<g>
				<title>Polysacc_synt (PF01943)
"Polysaccharide biosynthesis protein"</title>
				<polygon class="PF01943" points="365,28 390,28 392,30 392,50 390,52 365,52" stroke-linejoin="round" width="27" height="24" fill="rgb(71,213,101)" stroke="rgb(56,170,80)" stroke-width="1" opacity="0.75" />
			</g>
		</g>
		<g>
			<title> (QU43_RS61045)
glycosyltransferase family 1 protein</title>
			<polygon class=" (QU43_RS61045)
glycosyltransferase family 1 protein" points="448,25 442,25 442,10 412,40 442,70 442,55 448,55" fill="rgb(255,255,255)" fill-opacity="1.0" stroke="rgb(0,0,0)" stroke-width="2"  />
			<g>
				<title>Glycos_transf_1 (PF00534)
"Glycosyl transferases group 1"</title>
				<polygon class="PF00534" points="416,40 428,28 429,28 429,52 428,52" stroke-linejoin="round" width="15" height="24" fill="rgb(228,92,150)" stroke="rgb(182,73,119)" stroke-width="1" opacity="0.75" />
			</g>
		</g>
		<g>
			<title> (QU43_RS61050)
glycosyltransferase family 1 protein</title>
			<polygon class=" (QU43_RS61050)
glycosyltransferase family 1 protein" points="487,25 479,25 479,10 449,40 479,70 479,55 487,55" fill="rgb(255,255,255)" fill-opacity="1.0" stroke="rgb(0,0,0)" stroke-width="2"  />
			<g>
				<title>Glycos_transf_1 (PF00534)
"Glycosyl transferases group 1"</title>
				<polygon class="PF00534" points="453,40 465,28 469,28 469,52 465,52 453,40" stroke-linejoin="round" width="16" height="24" fill="rgb(228,92,150)" stroke="rgb(182,73,119)" stroke-width="1" opacity="0.75" />
			</g>
			<g>
				<title>Glyco_transf_4 (PF13439)
"Glycosyltransferase Family 4"</title>
				<rect class="PF13439" x="469" y="28" stroke-linejoin="round" width="16" height="24" fill="rgb(162,57,186)" stroke="rgb(129,45,148)" stroke-width="1" opacity="0.75" />
			</g>
		</g>
		<g>
			<title> (QU43_RS61055)
right-handed parallel beta-helix repeat-containing protein</title>
			<polygon class=" (QU43_RS61055)
right-handed parallel beta-helix repeat-containing protein" points="504,25 522,25 522,10 552,40 522,70 522,55 504,55" fill="rgb(255,255,255)" fill-opacity="1.0" stroke="rgb(0,0,0)" stroke-width="2"  />
			<g>
				<title>Beta_helix (PF13229)
"Right handed beta helix region"</title>
				<polygon class="PF13229" points="521,28 535,28 536,29 536,51 535,52 521,52" stroke-linejoin="round" width="15" height="24" fill="rgb(197,72,157)" stroke="rgb(157,57,125)" stroke-width="1" opacity="0.75" />
			</g>
		</g>
		<g>
			<title> (QU43_RS61060)
mannose-1-phosphate guanylyltransferase/mannose-6-phosphate isomerase</title>
			<polygon class=" (QU43_RS61060)
mannose-1-phosphate guanylyltransferase/mannose-6-phosphate isomerase" points="606,25 586,25 586,10 556,40 586,70 586,55 606,55" fill="rgb(255,255,255)" fill-opacity="1.0" stroke="rgb(0,0,0)" stroke-width="2"  />
			<g>
				<title>MannoseP_isomer (PF01050)
"Mannose-6-phosphate isomerase"</title>
				<polygon class="PF01050" points="560,40 572,28 572,28 572,52 572,52" stroke-linejoin="round" width="15" height="24" fill="rgb(53,184,51)" stroke="rgb(42,147,40)" stroke-width="1" opacity="0.75" />
			</g>
			<g>
				<title>NTP_transferase (PF00483)
"Nucleotidyl transferase"</title>
				<rect class="PF00483" x="575" y="28" stroke-linejoin="round" width="29" height="24" fill="rgb(198,101,87)" stroke="rgb(158,80,69)" stroke-width="1" opacity="0.75" />
			</g>
		</g>
		<g>
			<title> (QU43_RS61065)
drug:proton antiporter</title>
			<polygon class=" (QU43_RS61065)
drug:proton antiporter" points="606,40 625,10 625,70" fill="rgb(255,255,255)" fill-opacity="1.0" stroke="rgb(0,0,0)" stroke-width="2"  />
		</g>
		<g>
			<title> (QU43_RS61070)
sigma-54-dependent Fis family transcriptional regulator</title>
			<polygon class=" (QU43_RS61070)
sigma-54-dependent Fis family transcriptional regulator" points="670,25 686,25 686,10 716,40 686,70 686,55 670,55" fill="rgb(255,255,255)" fill-opacity="1.0" stroke="rgb(0,0,0)" stroke-width="2"  />
			<g>
				<title>Sigma54_activat (PF00158)
"Sigma-54 interaction domain"</title>
				<polygon class="PF00158" points="685,28 699,28 701,30 701,50 699,52 685,52" stroke-linejoin="round" width="16" height="24" fill="rgb(101,145,216)" stroke="rgb(80,115,172)" stroke-width="1" opacity="0.75" />
			</g>
			<g>
				<title>HTH_8 (PF02954)
"Bacterial regulatory protein, Fis family"</title>
				<polygon class="PF02954" points="710,39 711,40 710,41" stroke-linejoin="round" width="4" height="24" fill="rgb(168,63,200)" stroke="rgb(134,50,160)" stroke-width="1" opacity="0.75" />
			</g>
		</g>
		<g>
			<title> (QU43_RS61075)
glycoside hydrolase family 2 protein</title>
			<polygon class=" (QU43_RS61075)
glycoside hydrolase family 2 protein" points="800,25 748,25 748,10 718,40 748,70 748,55 800,55" fill="rgb(255,255,255)" fill-opacity="1.0" stroke="rgb(0,0,0)" stroke-width="2"  />
		</g>
		<g>
			<title> (QU43_RS61080)
DUF1839 family protein</title>
			<polygon class=" (QU43_RS61080)
DUF1839 family protein" points="836,25 831,25 831,10 801,40 831,70 831,55 836,55" fill="rgb(255,255,255)" fill-opacity="1.0" stroke="rgb(0,0,0)" stroke-width="2"  />
			<g>
				<title>DUF1839 (PF08893)
"Domain of unknown function (DUF1839)"</title>
				<polygon class="PF08893" points="805,40 817,28 834,28 834,52 817,52" stroke-linejoin="round" width="31" height="24" fill="rgb(104,221,180)" stroke="rgb(83,176,144)" stroke-width="1" opacity="0.75" />
			</g>
		</g>
		<g>
			<title> (QU43_RS61085)
amino acid--[acyl-carrier-protein] ligase</title>
			<polygon class=" (QU43_RS61085)
amino acid--[acyl-carrier-protein] ligase" points="868,25 866,25 866,10 836,40 866,70 866,55 868,55" fill="rgb(255,255,255)" fill-opacity="1.0" stroke="rgb(0,0,0)" stroke-width="2"  />
		</g>
		<g>
			<title> (QU43_RS61090)
acyl-CoA dehydrogenase</title>
			<polygon class=" (QU43_RS61090)
acyl-CoA dehydrogenase" points="907,25 898,25 898,10 868,40 898,70 898,55 907,55" fill="rgb(255,255,255)" fill-opacity="1.0" stroke="rgb(0,0,0)" stroke-width="2"  />
			<g>
				<title>Acyl-CoA_dh_1 (PF00441)
"Acyl-CoA dehydrogenase, C-terminal domain"</title>
				<polygon class="PF00441" points="872,40 884,28 884,28 884,52 884,52" stroke-linejoin="round" width="14" height="24" fill="rgb(85,191,117)" stroke="rgb(68,152,93)" stroke-width="1" opacity="0.75" />
			</g>
			<g>
				<title>Acyl-CoA_dh_N (PF02771)
"Acyl-CoA dehydrogenase, N-terminal domain"</title>
				<rect class="PF02771" x="895" y="28" stroke-linejoin="round" width="11" height="24" fill="rgb(105,135,218)" stroke="rgb(84,108,174)" stroke-width="1" opacity="0.75" />
			</g>
		</g>
		<g>
			<title> (QU43_RS61095)
acyl carrier protein</title>
			<polygon class=" (QU43_RS61095)
acyl carrier protein" points="908,40 918,10 918,70" fill="rgb(255,255,255)" fill-opacity="1.0" stroke="rgb(0,0,0)" stroke-width="2"  />
			<g>
				<title>PP-binding (PF00550)
"Phosphopantetheine attachment site"</title>
				<polygon class="PF00550" points="911,40 915,28 916,28 916,52 915,52" stroke-linejoin="round" width="7" height="24" fill="rgb(103,191,88)" stroke="rgb(82,152,70)" stroke-width="1" opacity="0.75" />
			</g>
		</g>
		<g>
			<title> (QU43_RS61100)
Crp/Fnr family transcriptional regulator</title>
			<polygon class=" (QU43_RS61100)
Crp/Fnr family transcriptional regulator" points="922,40 946,10 946,70" fill="rgb(255,255,255)" fill-opacity="1.0" stroke="rgb(0,0,0)" stroke-width="2"  />
			<g>
				<title>HTH_Crp_2 (PF13545)
"Crp-like helix-turn-helix domain"</title>
				<polygon class="PF13545" points="926,40 930,35 930,45" stroke-linejoin="round" width="6" height="24" fill="rgb(87,137,202)" stroke="rgb(69,109,161)" stroke-width="1" opacity="0.75" />
			</g>
		</g>
		<g>
			<title> (QU43_RS61105)
Crp/Fnr family transcriptional regulator</title>
			<polygon class=" (QU43_RS61105)
Crp/Fnr family transcriptional regulator" points="979,10 1005,40 979,70" fill="rgb(255,255,255)" fill-opacity="1.0" stroke="rgb(0,0,0)" stroke-width="2"  />
			<g>
				<title>HTH_Crp_2 (PF13545)
"Crp-like helix-turn-helix domain"</title>
				<polygon class="PF13545" points="994,32 1000,39 1000,41 994,48" stroke-linejoin="round" width="6" height="24" fill="rgb(87,137,202)" stroke="rgb(69,109,161)" stroke-width="1" opacity="0.75" />
			</g>
		</g>
		<g>
			<title> (QU43_RS61110)
undecaprenyl-phosphate glucose phosphotransferase</title>
			<polygon class=" (QU43_RS61110)
undecaprenyl-phosphate glucose phosphotransferase" points="1005,25 1021,25 1021,10 1051,40 1021,70 1021,55 1005,55" fill="rgb(255,255,255)" fill-opacity="1.0" stroke="rgb(0,0,0)" stroke-width="2"  />
			<g>
				<title>CoA_binding_3 (PF13727)
"CoA-binding domain"</title>
				<rect class="PF13727" x="1012" y="28" stroke-linejoin="round" width="17" height="24" fill="rgb(153,200,97)" stroke="rgb(122,160,77)" stroke-width="1" opacity="0.75" />
			</g>
			<g>
				<title>Bac_transf (PF02397)
"Bacterial sugar transferase"</title>
				<polygon class="PF02397" points="1032,28 1035,28 1047,40 1035,52 1032,52" stroke-linejoin="round" width="18" height="24" fill="rgb(57,165,209)" stroke="rgb(45,131,167)" stroke-width="1" opacity="0.75" />
			</g>
		</g>
	</g>
</svg>
