<svg version="1.1" baseProfile="full" xmlns="http://www.w3.org/2000/svg" width="420.0" height="80">
	<g>
		<line x1="10" y1="40.0" x2="410.0" y2="40.0" style="stroke:rgb(70,70,70); stroke-width:3 "/>
		<g>
			<title>
esterase</title>
			<polygon class="
esterase" points="238,25 100,25 100,10 70,40 100,70 100,55 238,55" fill="rgb(255,255,255)" fill-opacity="1.0" stroke="rgb(0,0,0)" stroke-width="2"  />
			<g>
				<title>Lipase_GDSL_2 (PF13472)
"GDSL-like Lipase/Acylhydrolase family"</title>
				<rect class="PF13472" x="95" y="28" stroke-linejoin="round" width="25" height="24" fill="rgb(116,68,184)" stroke="rgb(92,54,147)" stroke-width="1" opacity="0.75" />
			</g>
			<g>
				<title>VCBS (PF13517)
"Repeat domain in Vibrio, Colwellia, Bradyrhizobium and Shewanella"</title>
				<rect class="PF13517" x="161" y="28" stroke-linejoin="round" width="7" height="24" fill="rgb(77,199,76)" stroke="rgb(61,159,60)" stroke-width="1" opacity="0.75" />
			</g>
			<g>
				<title>VCBS (PF13517)
"Repeat domain in Vibrio, Colwellia, Bradyrhizobium and Shewanella"</title>
				<rect class="PF13517" x="192" y="28" stroke-linejoin="round" width="6" height="24" fill="rgb(77,199,76)" stroke="rgb(61,159,60)" stroke-width="1" opacity="0.75" />
			</g>
			<g>
				<title>Lipase_GDSL_2 (PF13472)
"GDSL-like Lipase/Acylhydrolase family"</title>
				<rect class="PF13472" x="214" y="28" stroke-linejoin="round" width="17" height="24" fill="rgb(116,68,184)" stroke="rgb(92,54,147)" stroke-width="1" opacity="0.75" />
			</g>
		</g>
		<g>
			<title>
unknown</title>
			<polygon class="
unknown" points="263,25 265,25 265,10 295,40 265,70 265,55 263,55" fill="rgb(255,255,255)" fill-opacity="1.0" stroke="rgb(0,0,0)" stroke-width="2"  />
			<g>
				<title>PQ-loop (PF04193)
"PQ loop repeat"</title>
				<rect class="PF04193" x="267" y="28" stroke-linejoin="round" width="5" height="24" fill="rgb(174,105,218)" stroke="rgb(139,84,174)" stroke-width="1" opacity="0.75" />
			</g>
		</g>
		<g>
			<title>lovA
cytochrome P450 monooxygenase</title>
			<polygon class="lovA
cytochrome P450 monooxygenase" points="399,25 372,25 372,10 342,40 372,70 372,55 399,55" fill="rgb(255,255,255)" fill-opacity="1.0" stroke="rgb(0,0,0)" stroke-width="2"  />
			<g>
				<title>p450 (PF00067)
"Cytochrome P450"</title>
				<polygon class="PF00067" points="348,38 358,28 387,28 387,52 358,52 348,42" stroke-linejoin="round" width="39" height="24" fill="rgb(85,216,107)" stroke="rgb(68,172,85)" stroke-width="1" opacity="0.75" />
			</g>
		</g>
	</g>
</svg>
