<svg version="1.1" baseProfile="full" xmlns="http://www.w3.org/2000/svg" width="302.8666666666667" height="80">
	<g>
		<line x1="10" y1="40.0" x2="292.8666666666667" y2="40.0" style="stroke:rgb(70,70,70); stroke-width:3 "/>
		<g>
			<title> (CLOSPO_RS15755)
bacteriocin</title>
			<polygon class=" (CLOSPO_RS15755)
bacteriocin" points="10,10 15,40 10,70" fill="rgb(255,255,255)" fill-opacity="1.0" stroke="rgb(0,0,0)" stroke-width="2"  />
		</g>
		<g>
			<title> (CLOSPO_RS15760)
streptolysin associated protein SagB</title>
			<polygon class=" (CLOSPO_RS15760)
streptolysin associated protein SagB" points="21,25 22,25 22,10 52,40 22,70 22,55 21,55" fill="rgb(255,255,255)" fill-opacity="1.0" stroke="rgb(0,0,0)" stroke-width="2"  />
			<g>
				<title>Nitroreductase (PF00881)
"Nitroreductase family"</title>
				<polygon class="PF00881" points="33,28 36,28 48,40 36,52 33,52" stroke-linejoin="round" width="19" height="24" fill="rgb(79,118,187)" stroke="rgb(63,94,149)" stroke-width="1" opacity="0.75" />
			</g>
		</g>
		<g>
			<title> (CLOSPO_RS15765)
streptolysin associated protein SagC</title>
			<polygon class=" (CLOSPO_RS15765)
streptolysin associated protein SagC" points="53,25 59,25 59,10 89,40 59,70 59,55 53,55" fill="rgb(255,255,255)" fill-opacity="1.0" stroke="rgb(0,0,0)" stroke-width="2"  />
		</g>
		<g>
			<title> (CLOSPO_RS15770)
streptolysin associated protein SagD</title>
			<polygon class=" (CLOSPO_RS15770)
streptolysin associated protein SagD" points="90,25 105,25 105,10 135,40 105,70 105,55 90,55" fill="rgb(255,255,255)" fill-opacity="1.0" stroke="rgb(0,0,0)" stroke-width="2"  />
			<g>
				<title>YcaO (PF02624)
"YcaO cyclodehydratase, ATP-ad Mg2+-binding"</title>
				<polygon class="PF02624" points="96,28 119,28 131,40 131,40 119,52 96,52" stroke-linejoin="round" width="35" height="24" fill="rgb(76,84,185)" stroke="rgb(60,67,148)" stroke-width="1" opacity="0.75" />
			</g>
		</g>
		<g>
			<title> (CLOSPO_RS15775)
CAAX protease</title>
			<polygon class=" (CLOSPO_RS15775)
CAAX protease" points="134,10 155,40 134,70" fill="rgb(255,255,255)" fill-opacity="1.0" stroke="rgb(0,0,0)" stroke-width="2"  />
			<g>
				<title>CPBP (PF02517)
"CPBP intramembrane metalloprotease"</title>
				<polygon class="PF02517" points="145,31 151,40 145,49" stroke-linejoin="round" width="9" height="24" fill="rgb(150,86,216)" stroke="rgb(120,68,172)" stroke-width="1" opacity="0.75" />
			</g>
		</g>
		<g>
			<title> (CLOSPO_RS15780)
membrane protein</title>
			<polygon class=" (CLOSPO_RS15780)
membrane protein" points="156,10 180,40 156,70" fill="rgb(255,255,255)" fill-opacity="1.0" stroke="rgb(0,0,0)" stroke-width="2"  />
		</g>
		<g>
			<title> (CLOSPO_RS15785)
antibiotic ABC transporter ATP-binding protein</title>
			<polygon class=" (CLOSPO_RS15785)
antibiotic ABC transporter ATP-binding protein" points="185,25 186,25 186,10 216,40 186,70 186,55 185,55" fill="rgb(255,255,255)" fill-opacity="1.0" stroke="rgb(0,0,0)" stroke-width="2"  />
			<g>
				<title>ABC_tran (PF00005)
"ABC transporter"</title>
				<polygon class="PF00005" points="186,28 199,28 200,29 200,51 199,52 186,52" stroke-linejoin="round" width="14" height="24" fill="rgb(129,201,63)" stroke="rgb(103,160,50)" stroke-width="1" opacity="0.75" />
			</g>
		</g>
		<g>
			<title> (CLOSPO_RS15790)
ABC transporter permease</title>
			<polygon class=" (CLOSPO_RS15790)
ABC transporter permease" points="217,25 224,25 224,10 254,40 224,70 224,55 217,55" fill="rgb(255,255,255)" fill-opacity="1.0" stroke="rgb(0,0,0)" stroke-width="2"  />
			<g>
				<title>ABC2_membrane_3 (PF12698)
"ABC-2 family transporter protein"</title>
				<polygon class="PF12698" points="218,28 238,28 250,40 238,52 218,52" stroke-linejoin="round" width="34" height="24" fill="rgb(151,189,55)" stroke="rgb(120,151,44)" stroke-width="1" opacity="0.75" />
			</g>
		</g>
		<g>
			<title> (CLOSPO_RS15795)
multidrug ABC transporter ATP-binding protein</title>
			<polygon class=" (CLOSPO_RS15795)
multidrug ABC transporter ATP-binding protein" points="254,25 262,25 262,10 292,40 262,70 262,55 254,55" fill="rgb(255,255,255)" fill-opacity="1.0" stroke="rgb(0,0,0)" stroke-width="2"  />
			<g>
				<title>ABC2_membrane_3 (PF12698)
"ABC-2 family transporter protein"</title>
				<polygon class="PF12698" points="255,28 275,28 287,40 275,52 255,52" stroke-linejoin="round" width="34" height="24" fill="rgb(151,189,55)" stroke="rgb(120,151,44)" stroke-width="1" opacity="0.75" />
			</g>
		</g>
	</g>
</svg>
