<svg version="1.1" baseProfile="full" xmlns="http://www.w3.org/2000/svg" width="198.4" height="880">
	<g>
		<line x1="10" y1="40.0" x2="104.56666666666666" y2="40.0" style="stroke:rgb(70,70,70); stroke-width:3 "/>
		<g>
			<title>
MacR</title>
			<polygon class="
MacR" points="10,25 74,25 74,10 104,40 74,70 74,55 10,55" fill="rgb(255,255,255)" fill-opacity="1.0" stroke="rgb(0,0,0)" stroke-width="2"  />
			<g>
				<title>Zn_clus (PF00172)
"Fungal Zn(2)-Cys(6) binuclear cluster domain"</title>
				<rect class="PF00172" x="11" y="28" stroke-linejoin="round" width="3" height="24" fill="rgb(121,178,76)" stroke="rgb(96,142,60)" stroke-width="1" opacity="0.75" />
			</g>
			<g>
				<title>Fungal_trans (PF04082)
"Fungal specific transcription factor domain"</title>
				<rect class="PF04082" x="34" y="28" stroke-linejoin="round" width="18" height="24" fill="rgb(51,172,200)" stroke="rgb(40,137,160)" stroke-width="1" opacity="0.75" />
			</g>
		</g>
	</g>
	<g>
		<line x1="10" y1="120.0" x2="67.5" y2="120.0" style="stroke:rgb(70,70,70); stroke-width:3 "/>
		<g>
			<title>
MacC</title>
			<polygon class="
MacC" points="10,105 37,105 37,90 67,120 37,150 37,135 10,135" fill="rgb(255,255,255)" fill-opacity="1.0" stroke="rgb(0,0,0)" stroke-width="2"  />
		</g>
	</g>
	<g>
		<line x1="10" y1="200.0" x2="45.733333333333334" y2="200.0" style="stroke:rgb(70,70,70); stroke-width:3 "/>
		<g>
			<title>
MacB</title>
			<polygon class="
MacB" points="10,185 15,185 15,170 45,200 15,230 15,215 10,215" fill="rgb(255,255,255)" fill-opacity="1.0" stroke="rgb(0,0,0)" stroke-width="2"  />
		</g>
	</g>
	<g>
		<line x1="10" y1="280.0" x2="43.766666666666666" y2="280.0" style="stroke:rgb(70,70,70); stroke-width:3 "/>
		<g>
			<title>
MacG</title>
			<polygon class="
MacG" points="10,265 13,265 13,250 43,280 13,310 13,295 10,295" fill="rgb(255,255,255)" fill-opacity="1.0" stroke="rgb(0,0,0)" stroke-width="2"  />
		</g>
	</g>
	<g>
		<line x1="10" y1="360.0" x2="188.4" y2="360.0" style="stroke:rgb(70,70,70); stroke-width:3 "/>
		<g>
			<title>
MacA</title>
			<polygon class="
MacA" points="10,345 158,345 158,330 188,360 158,390 158,375 10,375" fill="rgb(255,255,255)" fill-opacity="1.0" stroke="rgb(0,0,0)" stroke-width="2"  />
		</g>
	</g>
	<g>
		<line x1="10" y1="440.0" x2="71.66666666666666" y2="440.0" style="stroke:rgb(70,70,70); stroke-width:3 "/>
		<g>
			<title>
MacH</title>
			<polygon class="
MacH" points="10,425 41,425 41,410 71,440 41,470 41,455 10,455" fill="rgb(255,255,255)" fill-opacity="1.0" stroke="rgb(0,0,0)" stroke-width="2"  />
		</g>
	</g>
	<g>
		<line x1="10" y1="520.0" x2="53.2" y2="520.0" style="stroke:rgb(70,70,70); stroke-width:3 "/>
		<g>
			<title>
MacI</title>
			<polygon class="
MacI" points="10,505 23,505 23,490 53,520 23,550 23,535 10,535" fill="rgb(255,255,255)" fill-opacity="1.0" stroke="rgb(0,0,0)" stroke-width="2"  />
		</g>
	</g>
	<g>
		<line x1="10" y1="600.0" x2="45.3" y2="600.0" style="stroke:rgb(70,70,70); stroke-width:3 "/>
		<g>
			<title>
MacD</title>
			<polygon class="
MacD" points="10,585 15,585 15,570 45,600 15,630 15,615 10,615" fill="rgb(255,255,255)" fill-opacity="1.0" stroke="rgb(0,0,0)" stroke-width="2"  />
		</g>
	</g>
	<g>
		<line x1="10" y1="680.0" x2="37.83333333333333" y2="680.0" style="stroke:rgb(70,70,70); stroke-width:3 "/>
		<g>
			<title>
MacE</title>
			<polygon class="
MacE" points="10,650 37,680 10,710" fill="rgb(255,255,255)" fill-opacity="1.0" stroke="rgb(0,0,0)" stroke-width="2"  />
		</g>
	</g>
	<g>
		<line x1="10" y1="760.0" x2="37.766666666666666" y2="760.0" style="stroke:rgb(70,70,70); stroke-width:3 "/>
		<g>
			<title>
MacJ</title>
			<polygon class="
MacJ" points="10,730 37,760 10,790" fill="rgb(255,255,255)" fill-opacity="1.0" stroke="rgb(0,0,0)" stroke-width="2"  />
		</g>
	</g>
	<g>
		<line x1="10" y1="840.0" x2="67.36666666666667" y2="840.0" style="stroke:rgb(70,70,70); stroke-width:3 "/>
		<g>
			<title>
MacF</title>
			<polygon class="
MacF" points="10,825 37,825 37,810 67,840 37,870 37,855 10,855" fill="rgb(255,255,255)" fill-opacity="1.0" stroke="rgb(0,0,0)" stroke-width="2"  />
		</g>
	</g>
</svg>
