<svg version="1.1" baseProfile="full" xmlns="http://www.w3.org/2000/svg" width="1464.2666666666667" height="80">
	<g>
		<line x1="10" y1="40.0" x2="1454.2666666666667" y2="40.0" style="stroke:rgb(70,70,70); stroke-width:3 "/>
		<g>
			<title>
unknown</title>
			<polygon class="
unknown" points="42,40 67,10 67,70" fill="rgb(255,255,255)" fill-opacity="1.0" stroke="rgb(0,0,0)" stroke-width="2"  />
			<g>
				<title>FSH1 (PF03959)
"Serine hydrolase (FSH1)"</title>
				<polygon class="PF03959" points="46,40 56,28 66,28 66,52 56,52" stroke-linejoin="round" width="23" height="24" fill="rgb(54,166,181)" stroke="rgb(43,132,144)" stroke-width="1" opacity="0.75" />
			</g>
		</g>
		<g>
			<title>lovC
enoyl reductase</title>
			<polygon class="lovC
enoyl reductase" points="81,25 92,25 92,10 122,40 92,70 92,55 81,55" fill="rgb(255,255,255)" fill-opacity="1.0" stroke="rgb(0,0,0)" stroke-width="2"  />
			<g>
				<title>ADH_N (PF08240)
"Alcohol dehydrogenase GroES-like domain"</title>
				<rect class="PF08240" x="84" y="28" stroke-linejoin="round" width="8" height="24" fill="rgb(211,65,138)" stroke="rgb(168,51,110)" stroke-width="1" opacity="0.75" />
			</g>
		</g>
		<g>
			<title>lovD
transesterase</title>
			<polygon class="lovD
transesterase" points="182,25 166,25 166,10 136,40 166,70 166,55 182,55" fill="rgb(255,255,255)" fill-opacity="1.0" stroke="rgb(0,0,0)" stroke-width="2"  />
			<g>
				<title>Beta-lactamase (PF00144)
"Beta-lactamase"</title>
				<polygon class="PF00144" points="141,39 152,28 179,28 179,52 152,52 141,41" stroke-linejoin="round" width="38" height="24" fill="rgb(92,159,200)" stroke="rgb(73,127,160)" stroke-width="1" opacity="0.75" />
			</g>
		</g>
		<g>
			<title>
hydroxymethylglutaryl-coenzyme A reductase</title>
			<polygon class="
hydroxymethylglutaryl-coenzyme A reductase" points="311,25 225,25 225,10 195,40 225,70 225,55 311,55" fill="rgb(255,255,255)" fill-opacity="1.0" stroke="rgb(0,0,0)" stroke-width="2"  />
			<g>
				<title>HMG-CoA_red (PF00368)
"Hydroxymethylglutaryl-coenzyme A reductase"</title>
				<polygon class="PF00368" points="210,29 211,28 248,28 248,52 211,52 210,51" stroke-linejoin="round" width="38" height="24" fill="rgb(67,203,137)" stroke="rgb(53,162,109)" stroke-width="1" opacity="0.75" />
			</g>
			<g>
				<title>Sterol-sensing (PF12349)
"Sterol-sensing domain of SREBP cleavage-activation"</title>
				<rect class="PF12349" x="273" y="28" stroke-linejoin="round" width="8" height="24" fill="rgb(126,60,182)" stroke="rgb(100,48,145)" stroke-width="1" opacity="0.75" />
			</g>
			<g>
				<title>HPIH (PF13323)
"N-terminal domain with HPIH motif"</title>
				<rect class="PF13323" x="305" y="28" stroke-linejoin="round" width="4" height="24" fill="rgb(109,62,205)" stroke="rgb(87,49,164)" stroke-width="1" opacity="0.75" />
			</g>
		</g>
		<g>
			<title>lovE
regulatory protein</title>
			<polygon class="lovE
regulatory protein" points="355,25 375,25 375,10 405,40 375,70 375,55 355,55" fill="rgb(255,255,255)" fill-opacity="1.0" stroke="rgb(0,0,0)" stroke-width="2"  />
			<g>
				<title>Zn_clus (PF00172)
"Fungal Zn(2)-Cys(6) binuclear cluster domain"</title>
				<rect class="PF00172" x="358" y="28" stroke-linejoin="round" width="4" height="24" fill="rgb(121,178,76)" stroke="rgb(96,142,60)" stroke-width="1" opacity="0.75" />
			</g>
		</g>
		<g>
			<title>
unknown</title>
			<polygon class="
unknown" points="456,25 498,25 498,10 528,40 498,70 498,55 456,55" fill="rgb(255,255,255)" fill-opacity="1.0" stroke="rgb(0,0,0)" stroke-width="2"  />
			<g>
				<title>MFS_1 (PF07690)
"Major Facilitator Superfamily"</title>
				<rect class="PF07690" x="459" y="28" stroke-linejoin="round" width="41" height="24" fill="rgb(193,224,74)" stroke="rgb(154,179,59)" stroke-width="1" opacity="0.75" />
			</g>
		</g>
		<g>
			<title>lovF
polyketide synthase</title>
			<polygon class="lovF
polyketide synthase" points="557,25 794,25 794,10 824,40 794,70 794,55 557,55" fill="rgb(255,255,255)" fill-opacity="1.0" stroke="rgb(0,0,0)" stroke-width="2"  />
			<g>
				<title>ketoacyl-synt (PF00109)
"Beta-ketoacyl synthase, N-terminal domain"</title>
				<rect class="PF00109" x="558" y="28" stroke-linejoin="round" width="25" height="24" fill="rgb(112,116,228)" stroke="rgb(89,92,182)" stroke-width="1" opacity="0.75" />
			</g>
			<g>
				<title>Ketoacyl-synt_C (PF02801)
"Beta-ketoacyl synthase, C-terminal domain"</title>
				<rect class="PF02801" x="584" y="28" stroke-linejoin="round" width="11" height="24" fill="rgb(215,78,102)" stroke="rgb(172,62,81)" stroke-width="1" opacity="0.75" />
			</g>
			<g>
				<title>KAsynt_C_assoc (PF16197)
"Ketoacyl-synthetase C-terminal extension"</title>
				<rect class="PF16197" x="595" y="28" stroke-linejoin="round" width="12" height="24" fill="rgb(240,150,172)" stroke="rgb(192,120,137)" stroke-width="1" opacity="0.75" />
			</g>
			<g>
				<title>Acyl_transf_1 (PF00698)
"Acyl transferase domain"</title>
				<rect class="PF00698" x="611" y="28" stroke-linejoin="round" width="31" height="24" fill="rgb(59,176,209)" stroke="rgb(47,140,167)" stroke-width="1" opacity="0.75" />
			</g>
			<g>
				<title>PS-DH (PF14765)
"Polyketide synthase dehydratase"</title>
				<rect class="PF14765" x="651" y="28" stroke-linejoin="round" width="30" height="24" fill="rgb(173,56,182)" stroke="rgb(138,44,145)" stroke-width="1" opacity="0.75" />
			</g>
			<g>
				<title>Methyltransf_12 (PF08242)
"Methyltransferase domain"</title>
				<rect class="PF08242" x="700" y="28" stroke-linejoin="round" width="10" height="24" fill="rgb(187,59,115)" stroke="rgb(149,47,92)" stroke-width="1" opacity="0.75" />
			</g>
			<g>
				<title>ADH_zinc_N_2 (PF13602)
"Zinc-binding dehydrogenase"</title>
				<rect class="PF13602" x="757" y="28" stroke-linejoin="round" width="14" height="24" fill="rgb(101,131,226)" stroke="rgb(80,104,180)" stroke-width="1" opacity="0.75" />
			</g>
			<g>
				<title>KR (PF08659)
"KR domain"</title>
				<rect class="PF08659" x="773" y="28" stroke-linejoin="round" width="17" height="24" fill="rgb(66,209,188)" stroke="rgb(52,167,150)" stroke-width="1" opacity="0.75" />
			</g>
			<g>
				<title>PP-binding (PF00550)
"Phosphopantetheine attachment site"</title>
				<polygon class="PF00550" points="803,28 808,28 809,29 809,51 808,52 803,52" stroke-linejoin="round" width="6" height="24" fill="rgb(103,191,88)" stroke="rgb(82,152,70)" stroke-width="1" opacity="0.75" />
			</g>
		</g>
		<g>
			<title>
unknown</title>
			<polygon class="
unknown" points="833,40 862,10 862,70" fill="rgb(255,255,255)" fill-opacity="1.0" stroke="rgb(0,0,0)" stroke-width="2"  />
		</g>
		<g>
			<title>
regulatory protein</title>
			<polygon class="
regulatory protein" points="963,25 911,25 911,10 881,40 911,70 911,55 963,55" fill="rgb(255,255,255)" fill-opacity="1.0" stroke="rgb(0,0,0)" stroke-width="2"  />
			<g>
				<title>Fungal_trans (PF04082)
"Fungal specific transcription factor domain"</title>
				<rect class="PF04082" x="918" y="28" stroke-linejoin="round" width="24" height="24" fill="rgb(51,172,200)" stroke="rgb(40,137,160)" stroke-width="1" opacity="0.75" />
			</g>
			<g>
				<title>Zn_clus (PF00172)
"Fungal Zn(2)-Cys(6) binuclear cluster domain"</title>
				<rect class="PF00172" x="958" y="28" stroke-linejoin="round" width="3" height="24" fill="rgb(121,178,76)" stroke="rgb(96,142,60)" stroke-width="1" opacity="0.75" />
			</g>
		</g>
		<g>
			<title>
unknown</title>
			<polygon class="
unknown" points="1064,25 1051,25 1051,10 1021,40 1051,70 1051,55 1064,55" fill="rgb(255,255,255)" fill-opacity="1.0" stroke="rgb(0,0,0)" stroke-width="2"  />
			<g>
				<title>Mito_carr (PF00153)
"Mitochondrial carrier protein"</title>
				<polygon class="PF00153" points="1034,31 1037,28 1043,28 1043,52 1037,52 1034,49" stroke-linejoin="round" width="9" height="24" fill="rgb(159,187,84)" stroke="rgb(127,149,67)" stroke-width="1" opacity="0.75" />
			</g>
			<g>
				<title>Mito_carr (PF00153)
"Mitochondrial carrier protein"</title>
				<rect class="PF00153" x="1044" y="28" stroke-linejoin="round" width="9" height="24" fill="rgb(159,187,84)" stroke="rgb(127,149,67)" stroke-width="1" opacity="0.75" />
			</g>
			<g>
				<title>Mito_carr (PF00153)
"Mitochondrial carrier protein"</title>
				<rect class="PF00153" x="1053" y="28" stroke-linejoin="round" width="8" height="24" fill="rgb(159,187,84)" stroke="rgb(127,149,67)" stroke-width="1" opacity="0.75" />
			</g>
		</g>
		<g>
			<title>
unknown</title>
			<polygon class="
unknown" points="1087,25 1107,25 1107,10 1137,40 1107,70 1107,55 1087,55" fill="rgb(255,255,255)" fill-opacity="1.0" stroke="rgb(0,0,0)" stroke-width="2"  />
			<g>
				<title>MmgE_PrpD (PF03972)
"MmgE/PrpD family"</title>
				<polygon class="PF03972" points="1088,28 1121,28 1133,40 1133,40 1121,52 1088,52" stroke-linejoin="round" width="45" height="24" fill="rgb(166,220,102)" stroke="rgb(132,176,81)" stroke-width="1" opacity="0.75" />
			</g>
		</g>
		<g>
			<title>
unknown</title>
			<polygon class="
unknown" points="1226,25 1200,25 1200,10 1170,40 1200,70 1200,55 1226,55" fill="rgb(255,255,255)" fill-opacity="1.0" stroke="rgb(0,0,0)" stroke-width="2"  />
			<g>
				<title>MFS_1 (PF07690)
"Major Facilitator Superfamily"</title>
				<polygon class="PF07690" points="1183,31 1186,28 1222,28 1222,52 1186,52 1183,49" stroke-linejoin="round" width="39" height="24" fill="rgb(193,224,74)" stroke="rgb(154,179,59)" stroke-width="1" opacity="0.75" />
			</g>
		</g>
		<g>
			<title>
cytochrome P450 monooxygenase</title>
			<polygon class="
cytochrome P450 monooxygenase" points="1360,25 1334,25 1334,10 1304,40 1334,70 1334,55 1360,55" fill="rgb(255,255,255)" fill-opacity="1.0" stroke="rgb(0,0,0)" stroke-width="2"  />
			<g>
				<title>p450 (PF00067)
"Cytochrome P450"</title>
				<polygon class="PF00067" points="1310,38 1320,28 1356,28 1356,52 1320,52 1310,42" stroke-linejoin="round" width="46" height="24" fill="rgb(85,216,107)" stroke="rgb(68,172,85)" stroke-width="1" opacity="0.75" />
			</g>
		</g>
		<g>
			<title>
unknown</title>
			<polygon class="
unknown" points="1404,25 1424,25 1424,10 1454,40 1424,70 1424,55 1404,55" fill="rgb(255,255,255)" fill-opacity="1.0" stroke="rgb(0,0,0)" stroke-width="2"  />
			<g>
				<title>Glyco_hydro_115 (PF15979)
"Glycosyl hydrolase family 115"</title>
				<polygon class="PF15979" points="1422,28 1437,28 1449,40 1437,52 1422,52" stroke-linejoin="round" width="29" height="24" fill="rgb(103,191,95)" stroke="rgb(82,152,76)" stroke-width="1" opacity="0.75" />
			</g>
		</g>
	</g>
</svg>
