<svg version="1.1" baseProfile="full" xmlns="http://www.w3.org/2000/svg" width="414.03333333333336" height="80">
	<g>
		<line x1="10" y1="40.0" x2="404.03333333333336" y2="40.0" style="stroke:rgb(70,70,70); stroke-width:3 "/>
		<g>
			<title>tenA
TenA</title>
			<polygon class="tenA
TenA" points="10,25 46,25 46,10 76,40 46,70 46,55 10,55" fill="rgb(255,255,255)" fill-opacity="1.0" stroke="rgb(0,0,0)" stroke-width="2"  />
			<g>
				<title>Peptidase_S8 (PF00082)
"Subtilase family"</title>
				<rect class="PF00082" x="11" y="28" stroke-linejoin="round" width="28" height="24" fill="rgb(193,159,94)" stroke="rgb(154,127,75)" stroke-width="1" opacity="0.75" />
			</g>
			<g>
				<title>PatG_D (PF18047)
"PatG Domain"</title>
				<rect class="PF18047" x="48" y="28" stroke-linejoin="round" width="11" height="24" fill="rgb(225,105,167)" stroke="rgb(180,84,133)" stroke-width="1" opacity="0.75" />
			</g>
			<g>
				<title>PatG_C (PF18065)
"PatG C-terminal"</title>
				<polygon class="PF18065" points="64,32 72,40 64,48" stroke-linejoin="round" width="11" height="24" fill="rgb(73,227,207)" stroke="rgb(58,181,165)" stroke-width="1" opacity="0.75" />
			</g>
		</g>
		<g>
			<title>tenB
TenB</title>
			<polygon class="tenB
TenB" points="79,10 87,40 79,70" fill="rgb(255,255,255)" fill-opacity="1.0" stroke="rgb(0,0,0)" stroke-width="2"  />
		</g>
		<g>
			<title>tenC
TenC</title>
			<polygon class="tenC
TenC" points="88,10 112,40 88,70" fill="rgb(255,255,255)" fill-opacity="1.0" stroke="rgb(0,0,0)" stroke-width="2"  />
		</g>
		<g>
			<title>tenD
TenD</title>
			<polygon class="tenD
TenD" points="126,25 173,25 173,10 203,40 173,70 173,55 126,55" fill="rgb(255,255,255)" fill-opacity="1.0" stroke="rgb(0,0,0)" stroke-width="2"  />
			<g>
				<title>YcaO (PF02624)
"YcaO cyclodehydratase, ATP-ad Mg2+-binding"</title>
				<polygon class="PF02624" points="166,28 187,28 199,40 199,40 187,52 166,52" stroke-linejoin="round" width="33" height="24" fill="rgb(76,84,185)" stroke="rgb(60,67,148)" stroke-width="1" opacity="0.75" />
			</g>
		</g>
		<g>
			<title>tenE
TenE</title>
			<polygon class="tenE
TenE" points="208,10 217,40 208,70" fill="rgb(255,255,255)" fill-opacity="1.0" stroke="rgb(0,0,0)" stroke-width="2"  />
		</g>
		<g>
			<title>tenF
TenF</title>
			<polygon class="tenF
TenF" points="230,25 232,25 232,10 262,40 232,70 232,55 230,55" fill="rgb(255,255,255)" fill-opacity="1.0" stroke="rgb(0,0,0)" stroke-width="2"  />
		</g>
		<g>
			<title>tenG
TenG</title>
			<polygon class="tenG
TenG" points="273,25 373,25 373,10 403,40 373,70 373,55 273,55" fill="rgb(255,255,255)" fill-opacity="1.0" stroke="rgb(0,0,0)" stroke-width="2"  />
			<g>
				<title>HTH_57 (PF18679)
"ThcOx helix turn helix domain"</title>
				<rect class="PF18679" x="273" y="28" stroke-linejoin="round" width="10" height="24" fill="rgb(223,96,145)" stroke="rgb(178,76,116)" stroke-width="1" opacity="0.75" />
			</g>
			<g>
				<title>Nitroreductase (PF00881)
"Nitroreductase family"</title>
				<rect class="PF00881" x="300" y="28" stroke-linejoin="round" width="20" height="24" fill="rgb(79,118,187)" stroke="rgb(63,94,149)" stroke-width="1" opacity="0.75" />
			</g>
			<g>
				<title>Peptidase_S8 (PF00082)
"Subtilase family"</title>
				<rect class="PF00082" x="328" y="28" stroke-linejoin="round" width="39" height="24" fill="rgb(193,159,94)" stroke="rgb(154,127,75)" stroke-width="1" opacity="0.75" />
			</g>
			<g>
				<title>PatG_D (PF18047)
"PatG Domain"</title>
				<rect class="PF18047" x="375" y="28" stroke-linejoin="round" width="11" height="24" fill="rgb(225,105,167)" stroke="rgb(180,84,133)" stroke-width="1" opacity="0.75" />
			</g>
			<g>
				<title>PatG_C (PF18065)
"PatG C-terminal"</title>
				<polygon class="PF18065" points="390,32 398,40 390,48" stroke-linejoin="round" width="11" height="24" fill="rgb(73,227,207)" stroke="rgb(58,181,165)" stroke-width="1" opacity="0.75" />
			</g>
		</g>
	</g>
</svg>
