<svg version="1.1" baseProfile="full" xmlns="http://www.w3.org/2000/svg" width="389.1" height="80">
	<g>
		<line x1="10" y1="40.0" x2="379.1" y2="40.0" style="stroke:rgb(70,70,70); stroke-width:3 "/>
		<g>
			<title>truA
TruA</title>
			<polygon class="truA
TruA" points="10,25 47,25 47,10 77,40 47,70 47,55 10,55" fill="rgb(255,255,255)" fill-opacity="1.0" stroke="rgb(0,0,0)" stroke-width="2"  />
			<g>
				<title>Peptidase_S8 (PF00082)
"Subtilase family"</title>
				<rect class="PF00082" x="11" y="28" stroke-linejoin="round" width="25" height="24" fill="rgb(193,159,94)" stroke="rgb(154,127,75)" stroke-width="1" opacity="0.75" />
			</g>
			<g>
				<title>PatG_D (PF18047)
"PatG Domain"</title>
				<rect class="PF18047" x="49" y="28" stroke-linejoin="round" width="11" height="24" fill="rgb(225,105,167)" stroke="rgb(180,84,133)" stroke-width="1" opacity="0.75" />
			</g>
			<g>
				<title>PatG_C (PF18065)
"PatG C-terminal"</title>
				<polygon class="PF18065" points="65,33 72,40 65,47" stroke-linejoin="round" width="11" height="24" fill="rgb(73,227,207)" stroke="rgb(58,181,165)" stroke-width="1" opacity="0.75" />
			</g>
		</g>
		<g>
			<title>truB
TruB</title>
			<polygon class="truB
TruB" points="85,10 92,40 85,70" fill="rgb(255,255,255)" fill-opacity="1.0" stroke="rgb(0,0,0)" stroke-width="2"  />
		</g>
		<g>
			<title>truC
TruC</title>
			<polygon class="truC
TruC" points="98,10 104,40 98,70" fill="rgb(255,255,255)" fill-opacity="1.0" stroke="rgb(0,0,0)" stroke-width="2"  />
		</g>
		<g>
			<title>truD
TruD</title>
			<polygon class="truD
TruD" points="108,25 156,25 156,10 186,40 156,70 156,55 108,55" fill="rgb(255,255,255)" fill-opacity="1.0" stroke="rgb(0,0,0)" stroke-width="2"  />
			<g>
				<title>YcaO (PF02624)
"YcaO cyclodehydratase, ATP-ad Mg2+-binding"</title>
				<polygon class="PF02624" points="149,28 169,28 181,40 169,52 149,52" stroke-linejoin="round" width="33" height="24" fill="rgb(76,84,185)" stroke="rgb(60,67,148)" stroke-width="1" opacity="0.75" />
			</g>
		</g>
		<g>
			<title>truE1
TruE1</title>
			<polygon class="truE1
TruE1" points="191,10 197,40 191,70" fill="rgb(255,255,255)" fill-opacity="1.0" stroke="rgb(0,0,0)" stroke-width="2"  />
		</g>
		<g>
			<title>truF1
TruF1</title>
			<polygon class="truF1
TruF1" points="208,25 208,25 208,10 238,40 208,70 208,55 208,55" fill="rgb(255,255,255)" fill-opacity="1.0" stroke="rgb(0,0,0)" stroke-width="2"  />
		</g>
		<g>
			<title>truF2
TruF2</title>
			<polygon class="truF2
TruF2" points="241,25 242,25 242,10 272,40 242,70 242,55 241,55" fill="rgb(255,255,255)" fill-opacity="1.0" stroke="rgb(0,0,0)" stroke-width="2"  />
		</g>
		<g>
			<title>truG
TruG</title>
			<polygon class="truG
TruG" points="278,25 348,25 348,10 378,40 348,70 348,55 278,55" fill="rgb(255,255,255)" fill-opacity="1.0" stroke="rgb(0,0,0)" stroke-width="2"  />
			<g>
				<title>HTH_57 (PF18679)
"ThcOx helix turn helix domain"</title>
				<rect class="PF18679" x="278" y="28" stroke-linejoin="round" width="10" height="24" fill="rgb(223,96,145)" stroke="rgb(178,76,116)" stroke-width="1" opacity="0.75" />
			</g>
			<g>
				<title>Peptidase_S8 (PF00082)
"Subtilase family"</title>
				<rect class="PF00082" x="301" y="28" stroke-linejoin="round" width="43" height="24" fill="rgb(193,159,94)" stroke="rgb(154,127,75)" stroke-width="1" opacity="0.75" />
			</g>
			<g>
				<title>PatG_D (PF18047)
"PatG Domain"</title>
				<rect class="PF18047" x="351" y="28" stroke-linejoin="round" width="10" height="24" fill="rgb(225,105,167)" stroke="rgb(180,84,133)" stroke-width="1" opacity="0.75" />
			</g>
			<g>
				<title>PatG_C (PF18065)
"PatG C-terminal"</title>
				<polygon class="PF18065" points="365,31 374,40 365,49" stroke-linejoin="round" width="11" height="24" fill="rgb(73,227,207)" stroke="rgb(58,181,165)" stroke-width="1" opacity="0.75" />
			</g>
		</g>
	</g>
</svg>
