<svg version="1.1" baseProfile="full" xmlns="http://www.w3.org/2000/svg" width="1096.6666666666667" height="240">
	<g>
		<line x1="10" y1="40.0" x2="544.0" y2="40.0" style="stroke:rgb(70,70,70); stroke-width:3 "/>
		<g>
			<title>
hypothetical protein</title>
			<polygon class="
hypothetical protein" points="216,40 220,10 220,70" fill="rgb(255,255,255)" fill-opacity="1.0" stroke="rgb(0,0,0)" stroke-width="2"  />
		</g>
		<g>
			<title>myeQ
kynureninase</title>
			<polygon class="myeQ
kynureninase" points="273,25 264,25 264,10 234,40 264,70 264,55 273,55" fill="rgb(255,255,255)" fill-opacity="1.0" stroke="rgb(0,0,0)" stroke-width="2"  />
			<g>
				<title>Aminotran_5 (PF00266)
"Aminotransferase class-V"</title>
				<polygon class="PF00266" points="238,40 250,28 269,28 269,52 250,52" stroke-linejoin="round" width="32" height="24" fill="rgb(214,54,122)" stroke="rgb(171,43,97)" stroke-width="1" opacity="0.75" />
			</g>
		</g>
		<g>
			<title>myeC
tryptophan 2, 3-dioxygenase</title>
			<polygon class="myeC
tryptophan 2, 3-dioxygenase" points="274,40 302,10 302,70" fill="rgb(255,255,255)" fill-opacity="1.0" stroke="rgb(0,0,0)" stroke-width="2"  />
			<g>
				<title>Trp_dioxygenase (PF03301)
"Tryptophan 2,3-dioxygenase"</title>
				<polygon class="PF03301" points="278,40 289,28 301,28 301,52 289,52" stroke-linejoin="round" width="27" height="24" fill="rgb(50,195,197)" stroke="rgb(40,155,157)" stroke-width="1" opacity="0.75" />
			</g>
		</g>
		<g>
			<title>
DUF3151 domain-containing protein</title>
			<polygon class="
DUF3151 domain-containing protein" points="306,10 320,40 306,70" fill="rgb(255,255,255)" fill-opacity="1.0" stroke="rgb(0,0,0)" stroke-width="2"  />
			<g>
				<title>DUF3151 (PF11349)
"Protein of unknown function (DUF3151)"</title>
				<polygon class="PF11349" points="306,28 310,28 316,40 310,52 306,52" stroke-linejoin="round" width="12" height="24" fill="rgb(97,204,228)" stroke="rgb(77,163,182)" stroke-width="1" opacity="0.75" />
			</g>
		</g>
		<g>
			<title>
MFS transporter</title>
			<polygon class="
MFS transporter" points="374,25 355,25 355,10 325,40 355,70 355,55 374,55" fill="rgb(255,255,255)" fill-opacity="1.0" stroke="rgb(0,0,0)" stroke-width="2"  />
			<g>
				<title>MFS_1 (PF07690)
"Major Facilitator Superfamily"</title>
				<polygon class="PF07690" points="333,36 341,28 372,28 372,52 341,52 333,44" stroke-linejoin="round" width="39" height="24" fill="rgb(193,224,74)" stroke="rgb(154,179,59)" stroke-width="1" opacity="0.75" />
			</g>
		</g>
	</g>
	<g>
		<line x1="10" y1="120.0" x2="1020.0" y2="120.0" style="stroke:rgb(70,70,70); stroke-width:3 "/>
		<g>
			<title>
hypothetical protein</title>
			<polygon class="
hypothetical protein" points="178,90 180,120 178,150" fill="rgb(255,255,255)" fill-opacity="1.0" stroke="rgb(0,0,0)" stroke-width="2"  />
		</g>
		<g>
			<title>myeR4
LuxR family transcriptional regulator</title>
			<polygon class="myeR4
LuxR family transcriptional regulator" points="186,90 206,120 186,150" fill="rgb(255,255,255)" fill-opacity="1.0" stroke="rgb(0,0,0)" stroke-width="2"  />
		</g>
		<g>
			<title>myeJ
SAM-dependent methyltransferase</title>
			<polygon class="myeJ
SAM-dependent methyltransferase" points="220,120 248,90 248,150" fill="rgb(255,255,255)" fill-opacity="1.0" stroke="rgb(0,0,0)" stroke-width="2"  />
		</g>
		<g>
			<title>myeR1
Lrp/AsnC family transcriptional regulator</title>
			<polygon class="myeR1
Lrp/AsnC family transcriptional regulator" points="254,105 257,105 257,90 287,120 257,150 257,135 254,135" fill="rgb(255,255,255)" fill-opacity="1.0" stroke="rgb(0,0,0)" stroke-width="2"  />
		</g>
		<g>
			<title>myeK
multidrug MFS transporter</title>
			<polygon class="myeK
multidrug MFS transporter" points="292,105 313,105 313,90 343,120 313,150 313,135 292,135" fill="rgb(255,255,255)" fill-opacity="1.0" stroke="rgb(0,0,0)" stroke-width="2"  />
		</g>
		<g>
			<title>myeR3
SARP family transcriptional regulator</title>
			<polygon class="myeR3
SARP family transcriptional regulator" points="429,105 392,105 392,90 362,120 392,150 392,135 429,135" fill="rgb(255,255,255)" fill-opacity="1.0" stroke="rgb(0,0,0)" stroke-width="2"  />
		</g>
		<g>
			<title>myeR5
TetR family transcriptional regulator</title>
			<polygon class="myeR5
TetR family transcriptional regulator" points="455,90 477,120 455,150" fill="rgb(255,255,255)" fill-opacity="1.0" stroke="rgb(0,0,0)" stroke-width="2"  />
		</g>
		<g>
			<title>myeP
tryptophan halogenase</title>
			<polygon class="myeP
tryptophan halogenase" points="484,105 505,105 505,90 535,120 505,150 505,135 484,135" fill="rgb(255,255,255)" fill-opacity="1.0" stroke="rgb(0,0,0)" stroke-width="2"  />
		</g>
		<g>
			<title>myeO
flavin reductase</title>
			<polygon class="myeO
flavin reductase" points="536,90 554,120 536,150" fill="rgb(255,255,255)" fill-opacity="1.0" stroke="rgb(0,0,0)" stroke-width="2"  />
		</g>
		<g>
			<title>myeN
sodium/hydrogen exchanger family</title>
			<polygon class="myeN
sodium/hydrogen exchanger family" points="555,90 577,120 555,150" fill="rgb(255,255,255)" fill-opacity="1.0" stroke="rgb(0,0,0)" stroke-width="2"  />
		</g>
		<g>
			<title>myeA
salicylate synthase</title>
			<polygon class="myeA
salicylate synthase" points="579,105 594,105 594,90 624,120 594,150 594,135 579,135" fill="rgb(255,255,255)" fill-opacity="1.0" stroke="rgb(0,0,0)" stroke-width="2"  />
		</g>
		<g>
			<title>myeG
3-oxoacyl-ACP synthase</title>
			<polygon class="myeG
3-oxoacyl-ACP synthase" points="624,105 629,105 629,90 659,120 629,150 629,135 624,135" fill="rgb(255,255,255)" fill-opacity="1.0" stroke="rgb(0,0,0)" stroke-width="2"  />
		</g>
		<g>
			<title>myeF
2,3-dihydroxybenzoate-AMP ligase</title>
			<polygon class="myeF
2,3-dihydroxybenzoate-AMP ligase" points="662,105 684,105 684,90 714,120 684,150 684,135 662,135" fill="rgb(255,255,255)" fill-opacity="1.0" stroke="rgb(0,0,0)" stroke-width="2"  />
		</g>
		<g>
			<title>myeS
hypothetical protein</title>
			<polygon class="myeS
hypothetical protein" points="717,90 726,120 717,150" fill="rgb(255,255,255)" fill-opacity="1.0" stroke="rgb(0,0,0)" stroke-width="2"  />
		</g>
		<g>
			<title>myeD
amidohydrolase</title>
			<polygon class="myeD
amidohydrolase" points="728,105 749,105 749,90 779,120 749,150 749,135 728,135" fill="rgb(255,255,255)" fill-opacity="1.0" stroke="rgb(0,0,0)" stroke-width="2"  />
		</g>
		<g>
			<title>
phospho-2-dehydro-3-deoxyheptonate aldolase</title>
			<polygon class="
phospho-2-dehydro-3-deoxyheptonate aldolase" points="782,105 793,105 793,90 823,120 793,150 793,135 782,135" fill="rgb(255,255,255)" fill-opacity="1.0" stroke="rgb(0,0,0)" stroke-width="2"  />
		</g>
		<g>
			<title>
2,3-dihydro-2,3-dihydroxybenzoate dehydrogenase</title>
			<polygon class="
2,3-dihydro-2,3-dihydroxybenzoate dehydrogenase" points="825,90 850,120 825,150" fill="rgb(255,255,255)" fill-opacity="1.0" stroke="rgb(0,0,0)" stroke-width="2"  />
		</g>
	</g>
	<g>
		<line x1="10" y1="200.0" x2="1086.6666666666667" y2="200.0" style="stroke:rgb(70,70,70); stroke-width:3 "/>
		<g>
			<title>
hypothetical protein</title>
			<polygon class="
hypothetical protein" points="100,200 123,170 123,230" fill="rgb(255,255,255)" fill-opacity="1.0" stroke="rgb(0,0,0)" stroke-width="2"  />
		</g>
		<g>
			<title>
hypothetical protein</title>
			<polygon class="
hypothetical protein" points="123,200 130,170 130,230" fill="rgb(255,255,255)" fill-opacity="1.0" stroke="rgb(0,0,0)" stroke-width="2"  />
		</g>
		<g>
			<title>mymA
salicylate synthase</title>
			<polygon class="mymA
salicylate synthase" points="133,185 148,185 148,170 178,200 148,230 148,215 133,215" fill="rgb(255,255,255)" fill-opacity="1.0" stroke="rgb(0,0,0)" stroke-width="2"  />
		</g>
		<g>
			<title>mymB
methyltransferase</title>
			<polygon class="mymB
methyltransferase" points="217,185 212,185 212,170 182,200 212,230 212,215 217,215" fill="rgb(255,255,255)" fill-opacity="1.0" stroke="rgb(0,0,0)" stroke-width="2"  />
		</g>
		<g>
			<title>mymC
tryptophan 2, 3-dioxygenase</title>
			<polygon class="mymC
tryptophan 2, 3-dioxygenase" points="219,200 246,170 246,230" fill="rgb(255,255,255)" fill-opacity="1.0" stroke="rgb(0,0,0)" stroke-width="2"  />
		</g>
		<g>
			<title>mymD
amidohydrolase</title>
			<polygon class="mymD
amidohydrolase" points="298,185 277,185 277,170 247,200 277,230 277,215 298,215" fill="rgb(255,255,255)" fill-opacity="1.0" stroke="rgb(0,0,0)" stroke-width="2"  />
		</g>
		<g>
			<title>mymE
phosphopantetheine-binding protein</title>
			<polygon class="mymE
phosphopantetheine-binding protein" points="298,200 306,170 306,230" fill="rgb(255,255,255)" fill-opacity="1.0" stroke="rgb(0,0,0)" stroke-width="2"  />
		</g>
		<g>
			<title>mymF
AMP-dependent synthetase</title>
			<polygon class="mymF
AMP-dependent synthetase" points="360,185 336,185 336,170 306,200 336,230 336,215 360,215" fill="rgb(255,255,255)" fill-opacity="1.0" stroke="rgb(0,0,0)" stroke-width="2"  />
		</g>
		<g>
			<title>mymG
3-oxoacyl-ACP synthase</title>
			<polygon class="mymG
3-oxoacyl-ACP synthase" points="396,185 392,185 392,170 362,200 392,230 392,215 396,215" fill="rgb(255,255,255)" fill-opacity="1.0" stroke="rgb(0,0,0)" stroke-width="2"  />
		</g>
		<g>
			<title>mymH
hypothetical protein</title>
			<polygon class="mymH
hypothetical protein" points="398,200 420,170 420,230" fill="rgb(255,255,255)" fill-opacity="1.0" stroke="rgb(0,0,0)" stroke-width="2"  />
		</g>
		<g>
			<title>mymI
3-deoxy-7-phosphoheptulonate synthase</title>
			<polygon class="mymI
3-deoxy-7-phosphoheptulonate synthase" points="458,185 453,185 453,170 423,200 453,230 453,215 458,215" fill="rgb(255,255,255)" fill-opacity="1.0" stroke="rgb(0,0,0)" stroke-width="2"  />
		</g>
		<g>
			<title>mymJ
SAM-dependent methyltransferase</title>
			<polygon class="mymJ
SAM-dependent methyltransferase" points="462,200 490,170 490,230" fill="rgb(255,255,255)" fill-opacity="1.0" stroke="rgb(0,0,0)" stroke-width="2"  />
		</g>
		<g>
			<title>mymR1
Lrp/AsnC family transcriptional regulator</title>
			<polygon class="mymR1
Lrp/AsnC family transcriptional regulator" points="498,185 501,185 501,170 531,200 501,230 501,215 498,215" fill="rgb(255,255,255)" fill-opacity="1.0" stroke="rgb(0,0,0)" stroke-width="2"  />
		</g>
		<g>
			<title>mymK
multidrug MFS transporter</title>
			<polygon class="mymK
multidrug MFS transporter" points="530,185 556,185 556,170 586,200 556,230 556,215 530,215" fill="rgb(255,255,255)" fill-opacity="1.0" stroke="rgb(0,0,0)" stroke-width="2"  />
		</g>
		<g>
			<title>mymL
alpha/beta hydrolase</title>
			<polygon class="mymL
alpha/beta hydrolase" points="591,200 620,170 620,230" fill="rgb(255,255,255)" fill-opacity="1.0" stroke="rgb(0,0,0)" stroke-width="2"  />
		</g>
		<g>
			<title>mymR2
SARP family transcriptional regulator</title>
			<polygon class="mymR2
SARP family transcriptional regulator" points="729,185 652,185 652,170 622,200 652,230 652,215 729,215" fill="rgb(255,255,255)" fill-opacity="1.0" stroke="rgb(0,0,0)" stroke-width="2"  />
		</g>
		<g>
			<title>mymM
tryptophan halogenase</title>
			<polygon class="mymM
tryptophan halogenase" points="781,185 760,185 760,170 730,200 760,230 760,215 781,215" fill="rgb(255,255,255)" fill-opacity="1.0" stroke="rgb(0,0,0)" stroke-width="2"  />
		</g>
		<g>
			<title>mymN
sodium/hydrogen exchanger family</title>
			<polygon class="mymN
sodium/hydrogen exchanger family" points="827,185 811,185 811,170 781,200 811,230 811,215 827,215" fill="rgb(255,255,255)" fill-opacity="1.0" stroke="rgb(0,0,0)" stroke-width="2"  />
		</g>
		<g>
			<title>mymO
flavin reductase</title>
			<polygon class="mymO
flavin reductase" points="829,200 846,170 846,230" fill="rgb(255,255,255)" fill-opacity="1.0" stroke="rgb(0,0,0)" stroke-width="2"  />
		</g>
		<g>
			<title>mymP
tryptophan halogenase</title>
			<polygon class="mymP
tryptophan halogenase" points="901,185 878,185 878,170 848,200 878,230 878,215 901,215" fill="rgb(255,255,255)" fill-opacity="1.0" stroke="rgb(0,0,0)" stroke-width="2"  />
		</g>
		<g>
			<title>mymQ
kynureninase</title>
			<polygon class="mymQ
kynureninase" points="948,185 937,185 937,170 907,200 937,230 937,215 948,215" fill="rgb(255,255,255)" fill-opacity="1.0" stroke="rgb(0,0,0)" stroke-width="2"  />
		</g>
		<g>
			<title>mymR3
SARP family transcriptional regulator</title>
			<polygon class="mymR3
SARP family transcriptional regulator" points="1019,185 980,185 980,170 950,200 980,230 980,215 1019,215" fill="rgb(255,255,255)" fill-opacity="1.0" stroke="rgb(0,0,0)" stroke-width="2"  />
		</g>
		<g>
			<title>
hypothetical protein</title>
			<polygon class="
hypothetical protein" points="1021,200 1024,170 1024,230" fill="rgb(255,255,255)" fill-opacity="1.0" stroke="rgb(0,0,0)" stroke-width="2"  />
		</g>
	</g>
</svg>
