<svg version="1.1" baseProfile="full" xmlns="http://www.w3.org/2000/svg" width="321.6" height="80">
	<g>
		<line x1="10" y1="40.0" x2="311.6" y2="40.0" style="stroke:rgb(70,70,70); stroke-width:3 "/>
		<g>
			<title> (ctg8224_1)</title>
			<polygon class=" (ctg8224_1)" points="10,40 14,10 14,70" fill="rgb(255,255,255)" fill-opacity="1.0" stroke="rgb(0,0,0)" stroke-width="2"  />
		</g>
		<g>
			<title> (ctg8224_2)</title>
			<polygon class=" (ctg8224_2)" points="48,25 47,25 47,10 17,40 47,70 47,55 48,55" fill="rgb(255,255,255)" fill-opacity="1.0" stroke="rgb(0,0,0)" stroke-width="2"  />
			<g>
				<title>LYTB (PF02401)
"LytB protein"</title>
				<polygon class="PF02401" points="21,40 33,28 47,28 47,52 33,52" stroke-linejoin="round" width="27" height="24" fill="rgb(155,62,193)" stroke="rgb(124,49,154)" stroke-width="1" opacity="0.75" />
			</g>
		</g>
		<g>
			<title> (ctg8224_3)</title>
			<polygon class=" (ctg8224_3)" points="86,25 79,25 79,10 49,40 79,70 79,55 86,55" fill="rgb(255,255,255)" fill-opacity="1.0" stroke="rgb(0,0,0)" stroke-width="2"  />
			<g>
				<title>SQS_PSY (PF00494)
"Squalene/phytoene synthase"</title>
				<polygon class="PF00494" points="55,38 65,28 84,28 84,52 65,52 55,42" stroke-linejoin="round" width="29" height="24" fill="rgb(178,91,49)" stroke="rgb(142,72,39)" stroke-width="1" opacity="0.75" />
			</g>
		</g>
		<g>
			<title> (ctg8224_4)</title>
			<polygon class=" (ctg8224_4)" points="129,25 116,25 116,10 86,40 116,70 116,55 129,55" fill="rgb(255,255,255)" fill-opacity="1.0" stroke="rgb(0,0,0)" stroke-width="2"  />
			<g>
				<title>MFS_1 (PF07690)
"Major Facilitator Superfamily"</title>
				<polygon class="PF07690" points="92,38 102,28 128,28 128,52 102,52 92,42" stroke-linejoin="round" width="36" height="24" fill="rgb(193,224,74)" stroke="rgb(154,179,59)" stroke-width="1" opacity="0.75" />
			</g>
		</g>
		<g>
			<title> (ctg8224_5)</title>
			<polygon class=" (ctg8224_5)" points="130,40 154,10 154,70" fill="rgb(255,255,255)" fill-opacity="1.0" stroke="rgb(0,0,0)" stroke-width="2"  />
			<g>
				<title>sCache_3_2 (PF17203)
"Single cache domain 3"</title>
				<polygon class="PF17203" points="138,35 144,28 150,28 150,52 144,52 138,45" stroke-linejoin="round" width="12" height="24" fill="rgb(209,153,67)" stroke="rgb(167,122,53)" stroke-width="1" opacity="0.75" />
			</g>
		</g>
		<g>
			<title> (ctg8224_6)</title>
			<polygon class=" (ctg8224_6)" points="199,25 185,25 185,10 155,40 185,70 185,55 199,55" fill="rgb(255,255,255)" fill-opacity="1.0" stroke="rgb(0,0,0)" stroke-width="2"  />
			<g>
				<title>Peripla_BP_6 (PF13458)
"Periplasmic binding protein"</title>
				<polygon class="PF13458" points="159,40 171,28 193,28 193,52 171,52" stroke-linejoin="round" width="37" height="24" fill="rgb(94,183,81)" stroke="rgb(75,146,64)" stroke-width="1" opacity="0.75" />
			</g>
		</g>
		<g>
			<title> (ctg8224_7)</title>
			<polygon class=" (ctg8224_7)" points="237,25 230,25 230,10 200,40 230,70 230,55 237,55" fill="rgb(255,255,255)" fill-opacity="1.0" stroke="rgb(0,0,0)" stroke-width="2"  />
		</g>
		<g>
			<title> (ctg8224_8)</title>
			<polygon class=" (ctg8224_8)" points="243,40 249,10 249,70" fill="rgb(255,255,255)" fill-opacity="1.0" stroke="rgb(0,0,0)" stroke-width="2"  />
			<g>
				<title>YtxH (PF12732)
"YtxH-like protein"</title>
				<polygon class="PF12732" points="246,40 248,31 248,49" stroke-linejoin="round" width="5" height="24" fill="rgb(215,106,152)" stroke="rgb(172,84,121)" stroke-width="1" opacity="0.75" />
			</g>
		</g>
		<g>
			<title> (ctg8224_9)</title>
			<polygon class=" (ctg8224_9)" points="254,40 279,10 279,70" fill="rgb(255,255,255)" fill-opacity="1.0" stroke="rgb(0,0,0)" stroke-width="2"  />
			<g>
				<title>PhyH (PF05721)
"Phytanoyl-CoA dioxygenase (PhyH)"</title>
				<polygon class="PF05721" points="258,40 268,28 276,28 276,52 268,52 258,40" stroke-linejoin="round" width="18" height="24" fill="rgb(72,132,214)" stroke="rgb(57,105,171)" stroke-width="1" opacity="0.75" />
			</g>
		</g>
		<g>
			<title> (ctg8224_10)</title>
			<polygon class=" (ctg8224_10)" points="281,10 310,40 281,70" fill="rgb(255,255,255)" fill-opacity="1.0" stroke="rgb(0,0,0)" stroke-width="2"  />
			<g>
				<title>NicO (PF03824)
"High-affinity nickel-transport protein"</title>
				<polygon class="PF03824" points="286,28 294,28 306,40 294,52 286,52" stroke-linejoin="round" width="24" height="24" fill="rgb(179,63,179)" stroke="rgb(143,50,143)" stroke-width="1" opacity="0.75" />
			</g>
		</g>
	</g>
</svg>
