<svg version="1.1" baseProfile="full" xmlns="http://www.w3.org/2000/svg" width="721.4666666666667" height="80">
	<g>
		<line x1="10" y1="40.0" x2="711.4666666666667" y2="40.0" style="stroke:rgb(70,70,70); stroke-width:3 "/>
		<g>
			<title> (ctg1434_18)</title>
			<polygon class=" (ctg1434_18)" points="15,40 31,10 31,70" fill="rgb(255,255,255)" fill-opacity="1.0" stroke="rgb(0,0,0)" stroke-width="2"  />
		</g>
		<g>
			<title> (ctg1434_19)</title>
			<polygon class=" (ctg1434_19)" points="32,40 37,10 37,70" fill="rgb(255,255,255)" fill-opacity="1.0" stroke="rgb(0,0,0)" stroke-width="2"  />
		</g>
		<g>
			<title> (ctg1434_20)</title>
			<polygon class=" (ctg1434_20)" points="41,40 47,10 47,70" fill="rgb(255,255,255)" fill-opacity="1.0" stroke="rgb(0,0,0)" stroke-width="2"  />
		</g>
		<g>
			<title> (ctg1434_21)</title>
			<polygon class=" (ctg1434_21)" points="49,10 72,40 49,70" fill="rgb(255,255,255)" fill-opacity="1.0" stroke="rgb(0,0,0)" stroke-width="2"  />
			<g>
				<title>DeoC (PF01791)
"DeoC/LacD family aldolase"</title>
				<polygon class="PF01791" points="49,28 59,28 69,40 59,52 49,52" stroke-linejoin="round" width="21" height="24" fill="rgb(151,59,198)" stroke="rgb(120,47,158)" stroke-width="1" opacity="0.75" />
			</g>
		</g>
		<g>
			<title> (ctg1434_22)</title>
			<polygon class=" (ctg1434_22)" points="119,25 110,25 110,10 80,40 110,70 110,55 119,55" fill="rgb(255,255,255)" fill-opacity="1.0" stroke="rgb(0,0,0)" stroke-width="2"  />
			<g>
				<title>ELFV_dehydrog (PF00208)
"Glutamate/Leucine/Phenylalanine/Valine dehydrogenase"</title>
				<polygon class="PF00208" points="84,40 96,28 103,28 103,52 96,52" stroke-linejoin="round" width="23" height="24" fill="rgb(181,160,45)" stroke="rgb(144,128,36)" stroke-width="1" opacity="0.75" />
			</g>
			<g>
				<title>ELFV_dehydrog_N (PF02812)
"Glu/Leu/Phe/Val dehydrogenase, dimerisation domain"</title>
				<rect class="PF02812" x="105" y="28" stroke-linejoin="round" width="12" height="24" fill="rgb(157,52,200)" stroke="rgb(125,41,160)" stroke-width="1" opacity="0.75" />
			</g>
		</g>
		<g>
			<title> (ctg1434_23)</title>
			<polygon class=" (ctg1434_23)" points="122,10 129,40 122,70" fill="rgb(255,255,255)" fill-opacity="1.0" stroke="rgb(0,0,0)" stroke-width="2"  />
		</g>
		<g>
			<title> (ctg1434_24)</title>
			<polygon class=" (ctg1434_24)" points="130,10 142,40 130,70" fill="rgb(255,255,255)" fill-opacity="1.0" stroke="rgb(0,0,0)" stroke-width="2"  />
			<g>
				<title>Copper-bind (PF00127)
"Copper binding proteins, plastocyanin/azurin family"</title>
				<polygon class="PF00127" points="133,28 134,28 139,40 134,52 133,52" stroke-linejoin="round" width="8" height="24" fill="rgb(203,169,70)" stroke="rgb(162,135,56)" stroke-width="1" opacity="0.75" />
			</g>
		</g>
		<g>
			<title> (ctg1434_25)</title>
			<polygon class=" (ctg1434_25)" points="149,40 174,10 174,70" fill="rgb(255,255,255)" fill-opacity="1.0" stroke="rgb(0,0,0)" stroke-width="2"  />
			<g>
				<title>PseudoU_synth_1 (PF01416)
"tRNA pseudouridine synthase"</title>
				<polygon class="PF01416" points="153,40 159,33 159,47" stroke-linejoin="round" width="10" height="24" fill="rgb(202,60,168)" stroke="rgb(161,47,134)" stroke-width="1" opacity="0.75" />
			</g>
			<g>
				<title>PseudoU_synth_1 (PF01416)
"tRNA pseudouridine synthase"</title>
				<polygon class="PF01416" points="163,28 163,28 172,28 172,52 163,52 163,52" stroke-linejoin="round" width="9" height="24" fill="rgb(202,60,168)" stroke="rgb(161,47,134)" stroke-width="1" opacity="0.75" />
			</g>
		</g>
		<g>
			<title> (ctg1434_26)</title>
			<polygon class=" (ctg1434_26)" points="177,40 197,10 197,70" fill="rgb(255,255,255)" fill-opacity="1.0" stroke="rgb(0,0,0)" stroke-width="2"  />
			<g>
				<title>Amidase_3 (PF01520)
"N-acetylmuramoyl-L-alanine amidase"</title>
				<polygon class="PF01520" points="181,40 189,28 196,28 196,52 189,52" stroke-linejoin="round" width="19" height="24" fill="rgb(174,223,57)" stroke="rgb(139,178,45)" stroke-width="1" opacity="0.75" />
			</g>
		</g>
		<g>
			<title> (ctg1434_27)</title>
			<polygon class=" (ctg1434_27)" points="205,40 208,10 208,70" fill="rgb(255,255,255)" fill-opacity="1.0" stroke="rgb(0,0,0)" stroke-width="2"  />
		</g>
		<g>
			<title> (ctg1434_28)</title>
			<polygon class=" (ctg1434_28)" points="209,10 217,40 209,70" fill="rgb(255,255,255)" fill-opacity="1.0" stroke="rgb(0,0,0)" stroke-width="2"  />
		</g>
		<g>
			<title> (ctg1434_29)</title>
			<polygon class=" (ctg1434_29)" points="216,10 222,40 216,70" fill="rgb(255,255,255)" fill-opacity="1.0" stroke="rgb(0,0,0)" stroke-width="2"  />
		</g>
		<g>
			<title> (ctg1434_30)</title>
			<polygon class=" (ctg1434_30)" points="224,10 242,40 224,70" fill="rgb(255,255,255)" fill-opacity="1.0" stroke="rgb(0,0,0)" stroke-width="2"  />
			<g>
				<title>NYN_YacP (PF05991)
"YacP-like NYN domain"</title>
				<polygon class="PF05991" points="224,28 231,28 238,40 231,52 224,52" stroke-linejoin="round" width="16" height="24" fill="rgb(72,229,139)" stroke="rgb(57,183,111)" stroke-width="1" opacity="0.75" />
			</g>
		</g>
		<g>
			<title> (ctg1434_31)</title>
			<polygon class=" (ctg1434_31)" points="242,40 267,10 267,70" fill="rgb(255,255,255)" fill-opacity="1.0" stroke="rgb(0,0,0)" stroke-width="2"  />
			<g>
				<title>TatD_DNase (PF01026)
"TatD related DNase"</title>
				<polygon class="PF01026" points="246,40 256,28 267,28 267,52 256,52" stroke-linejoin="round" width="25" height="24" fill="rgb(91,81,210)" stroke="rgb(72,64,168)" stroke-width="1" opacity="0.75" />
			</g>
		</g>
		<g>
			<title> (ctg1434_32)</title>
			<polygon class=" (ctg1434_32)" points="270,10 288,40 270,70" fill="rgb(255,255,255)" fill-opacity="1.0" stroke="rgb(0,0,0)" stroke-width="2"  />
			<g>
				<title>PAP2 (PF01569)
"PAP2 superfamily"</title>
				<polygon class="PF01569" points="275,28 277,28 284,40 277,52 275,52" stroke-linejoin="round" width="11" height="24" fill="rgb(133,203,94)" stroke="rgb(106,162,75)" stroke-width="1" opacity="0.75" />
			</g>
		</g>
		<g>
			<title> (ctg1434_33)</title>
			<polygon class=" (ctg1434_33)" points="324,25 320,25 320,10 290,40 320,70 320,55 324,55" fill="rgb(255,255,255)" fill-opacity="1.0" stroke="rgb(0,0,0)" stroke-width="2"  />
			<g>
				<title>Peptidase_M48 (PF01435)
"Peptidase family M48"</title>
				<polygon class="PF01435" points="294,40 306,28 310,28 310,52 306,52" stroke-linejoin="round" width="20" height="24" fill="rgb(70,152,228)" stroke="rgb(56,121,182)" stroke-width="1" opacity="0.75" />
			</g>
		</g>
		<g>
			<title> (ctg1434_34)</title>
			<polygon class=" (ctg1434_34)" points="328,40 334,10 334,70" fill="rgb(255,255,255)" fill-opacity="1.0" stroke="rgb(0,0,0)" stroke-width="2"  />
		</g>
		<g>
			<title> (ctg1434_35)</title>
			<polygon class=" (ctg1434_35)" points="343,25 347,25 347,10 377,40 347,70 347,55 343,55" fill="rgb(255,255,255)" fill-opacity="1.0" stroke="rgb(0,0,0)" stroke-width="2"  />
			<g>
				<title>SQS_PSY (PF00494)
"Squalene/phytoene synthase"</title>
				<polygon class="PF00494" points="344,28 361,28 373,40 361,52 344,52" stroke-linejoin="round" width="30" height="24" fill="rgb(178,91,49)" stroke="rgb(142,72,39)" stroke-width="1" opacity="0.75" />
			</g>
		</g>
		<g>
			<title> (ctg1434_36)</title>
			<polygon class=" (ctg1434_36)" points="378,40 387,10 387,70" fill="rgb(255,255,255)" fill-opacity="1.0" stroke="rgb(0,0,0)" stroke-width="2"  />
		</g>
		<g>
			<title> (ctg1434_37)</title>
			<polygon class=" (ctg1434_37)" points="388,40 401,10 401,70" fill="rgb(255,255,255)" fill-opacity="1.0" stroke="rgb(0,0,0)" stroke-width="2"  />
		</g>
		<g>
			<title> (ctg1434_38)</title>
			<polygon class=" (ctg1434_38)" points="403,10 416,40 403,70" fill="rgb(255,255,255)" fill-opacity="1.0" stroke="rgb(0,0,0)" stroke-width="2"  />
		</g>
		<g>
			<title> (ctg1434_39)</title>
			<polygon class=" (ctg1434_39)" points="419,25 426,25 426,10 456,40 426,70 426,55 419,55" fill="rgb(255,255,255)" fill-opacity="1.0" stroke="rgb(0,0,0)" stroke-width="2"  />
			<g>
				<title>AlaDh_PNT_N (PF05222)
"Alanine dehydrogenase/PNT, N-terminal domain"</title>
				<rect class="PF05222" x="419" y="28" stroke-linejoin="round" width="13" height="24" fill="rgb(60,217,133)" stroke="rgb(47,173,106)" stroke-width="1" opacity="0.75" />
			</g>
			<g>
				<title>AlaDh_PNT_C (PF01262)
"Alanine dehydrogenase/PNT, C-terminal domain"</title>
				<polygon class="PF01262" points="433,28 439,28 451,40 439,52 433,52" stroke-linejoin="round" width="21" height="24" fill="rgb(96,211,180)" stroke="rgb(76,168,144)" stroke-width="1" opacity="0.75" />
			</g>
		</g>
		<g>
			<title> (ctg1434_40)</title>
			<polygon class=" (ctg1434_40)" points="466,40 472,10 472,70" fill="rgb(255,255,255)" fill-opacity="1.0" stroke="rgb(0,0,0)" stroke-width="2"  />
		</g>
		<g>
			<title> (ctg1434_41)</title>
			<polygon class=" (ctg1434_41)" points="481,10 494,40 481,70" fill="rgb(255,255,255)" fill-opacity="1.0" stroke="rgb(0,0,0)" stroke-width="2"  />
		</g>
		<g>
			<title> (ctg1434_42)</title>
			<polygon class=" (ctg1434_42)" points="494,40 503,10 503,70" fill="rgb(255,255,255)" fill-opacity="1.0" stroke="rgb(0,0,0)" stroke-width="2"  />
		</g>
		<g>
			<title> (ctg1434_43)</title>
			<polygon class=" (ctg1434_43)" points="504,40 525,10 525,70" fill="rgb(255,255,255)" fill-opacity="1.0" stroke="rgb(0,0,0)" stroke-width="2"  />
		</g>
		<g>
			<title> (ctg1434_44)</title>
			<polygon class=" (ctg1434_44)" points="533,10 538,40 533,70" fill="rgb(255,255,255)" fill-opacity="1.0" stroke="rgb(0,0,0)" stroke-width="2"  />
		</g>
		<g>
			<title> (ctg1434_45)</title>
			<polygon class=" (ctg1434_45)" points="551,10 555,40 551,70" fill="rgb(255,255,255)" fill-opacity="1.0" stroke="rgb(0,0,0)" stroke-width="2"  />
		</g>
		<g>
			<title> (ctg1434_46)</title>
			<polygon class=" (ctg1434_46)" points="562,40 569,10 569,70" fill="rgb(255,255,255)" fill-opacity="1.0" stroke="rgb(0,0,0)" stroke-width="2"  />
		</g>
		<g>
			<title> (ctg1434_47)</title>
			<polygon class=" (ctg1434_47)" points="577,25 623,25 623,10 653,40 623,70 623,55 577,55" fill="rgb(255,255,255)" fill-opacity="1.0" stroke="rgb(0,0,0)" stroke-width="2"  />
			<g>
				<title>HAMP (PF00672)
"HAMP domain"</title>
				<rect class="PF00672" x="611" y="28" stroke-linejoin="round" width="5" height="24" fill="rgb(124,89,195)" stroke="rgb(99,71,156)" stroke-width="1" opacity="0.75" />
			</g>
			<g>
				<title>PAS (PF00989)
"PAS fold"</title>
				<rect class="PF00989" x="619" y="28" stroke-linejoin="round" width="11" height="24" fill="rgb(205,221,64)" stroke="rgb(164,176,51)" stroke-width="1" opacity="0.75" />
			</g>
			<g>
				<title>HisKA (PF00512)
"His Kinase A (phospho-acceptor) domain"</title>
				<polygon class="PF00512" points="631,28 637,28 638,29 638,51 637,52 631,52" stroke-linejoin="round" width="7" height="24" fill="rgb(193,125,62)" stroke="rgb(154,100,49)" stroke-width="1" opacity="0.75" />
			</g>
			<g>
				<title>HATPase_c (PF02518)
"Histidine kinase-, DNA gyrase B-, and HSP90-like ATPase"</title>
				<polygon class="PF02518" points="642,33 649,40 642,47" stroke-linejoin="round" width="10" height="24" fill="rgb(80,94,225)" stroke="rgb(64,75,180)" stroke-width="1" opacity="0.75" />
			</g>
		</g>
		<g>
			<title> (ctg1434_48)</title>
			<polygon class=" (ctg1434_48)" points="657,25 672,25 672,10 702,40 672,70 672,55 657,55" fill="rgb(255,255,255)" fill-opacity="1.0" stroke="rgb(0,0,0)" stroke-width="2"  />
			<g>
				<title>Response_reg (PF00072)
"Response regulator receiver domain"</title>
				<rect class="PF00072" x="657" y="28" stroke-linejoin="round" width="11" height="24" fill="rgb(100,107,203)" stroke="rgb(80,85,162)" stroke-width="1" opacity="0.75" />
			</g>
			<g>
				<title>Sigma54_activat (PF00158)
"Sigma-54 interaction domain"</title>
				<polygon class="PF00158" points="671,28 686,28 687,29 687,51 686,52 671,52" stroke-linejoin="round" width="16" height="24" fill="rgb(101,145,216)" stroke="rgb(80,115,172)" stroke-width="1" opacity="0.75" />
			</g>
			<g>
				<title>HTH_8 (PF02954)
"Bacterial regulatory protein, Fis family"</title>
				<polygon class="PF02954" points="697,39 698,40 697,41" stroke-linejoin="round" width="4" height="24" fill="rgb(168,63,200)" stroke="rgb(134,50,160)" stroke-width="1" opacity="0.75" />
			</g>
		</g>
	</g>
</svg>
