<svg version="1.1" baseProfile="full" xmlns="http://www.w3.org/2000/svg" width="780.9" height="80">
	<g>
		<line x1="10" y1="40.0" x2="770.9" y2="40.0" style="stroke:rgb(70,70,70); stroke-width:3 "/>
		<g>
			<title> (ctg1708_1)</title>
			<polygon class=" (ctg1708_1)" points="10,10 15,40 10,70" fill="rgb(255,255,255)" fill-opacity="1.0" stroke="rgb(0,0,0)" stroke-width="2"  />
		</g>
		<g>
			<title> (ctg1708_2)</title>
			<polygon class=" (ctg1708_2)" points="103,25 47,25 47,10 17,40 47,70 47,55 103,55" fill="rgb(255,255,255)" fill-opacity="1.0" stroke="rgb(0,0,0)" stroke-width="2"  />
			<g>
				<title>Acyltransferase (PF01553)
"Acyltransferase"</title>
				<polygon class="PF01553" points="22,39 33,28 36,28 36,52 33,52 22,41" stroke-linejoin="round" width="14" height="24" fill="rgb(87,176,216)" stroke="rgb(69,140,172)" stroke-width="1" opacity="0.75" />
			</g>
			<g>
				<title>PP-binding (PF00550)
"Phosphopantetheine attachment site"</title>
				<rect class="PF00550" x="44" y="28" stroke-linejoin="round" width="6" height="24" fill="rgb(103,191,88)" stroke="rgb(82,152,70)" stroke-width="1" opacity="0.75" />
			</g>
			<g>
				<title>AMP-binding (PF00501)
"AMP-binding enzyme"</title>
				<rect class="PF00501" x="61" y="28" stroke-linejoin="round" width="41" height="24" fill="rgb(60,217,223)" stroke="rgb(48,173,178)" stroke-width="1" opacity="0.75" />
			</g>
		</g>
		<g>
			<title> (ctg1708_3)</title>
			<polygon class=" (ctg1708_3)" points="106,40 110,10 110,70" fill="rgb(255,255,255)" fill-opacity="1.0" stroke="rgb(0,0,0)" stroke-width="2"  />
		</g>
		<g>
			<title> (ctg1708_4)</title>
			<polygon class=" (ctg1708_4)" points="112,40 118,10 118,70" fill="rgb(255,255,255)" fill-opacity="1.0" stroke="rgb(0,0,0)" stroke-width="2"  />
		</g>
		<g>
			<title> (ctg1708_5)</title>
			<polygon class=" (ctg1708_5)" points="166,25 149,25 149,10 119,40 149,70 149,55 166,55" fill="rgb(255,255,255)" fill-opacity="1.0" stroke="rgb(0,0,0)" stroke-width="2"  />
			<g>
				<title>Sulfatase (PF00884)
"Sulfatase"</title>
				<polygon class="PF00884" points="128,35 135,28 160,28 160,52 135,52 128,45" stroke-linejoin="round" width="32" height="24" fill="rgb(61,103,198)" stroke="rgb(48,82,158)" stroke-width="1" opacity="0.75" />
			</g>
		</g>
		<g>
			<title> (ctg1708_6)</title>
			<polygon class=" (ctg1708_6)" points="216,25 199,25 199,10 169,40 199,70 199,55 216,55" fill="rgb(255,255,255)" fill-opacity="1.0" stroke="rgb(0,0,0)" stroke-width="2"  />
			<g>
				<title>Gln-synt_C (PF00120)
"Glutamine synthetase, catalytic domain"</title>
				<polygon class="PF00120" points="173,40 185,28 205,28 205,52 185,52" stroke-linejoin="round" width="36" height="24" fill="rgb(195,227,89)" stroke="rgb(155,181,71)" stroke-width="1" opacity="0.75" />
			</g>
			<g>
				<title>Gln-synt_N (PF03951)
"Glutamine synthetase, beta-Grasp domain"</title>
				<rect class="PF03951" x="206" y="28" stroke-linejoin="round" width="8" height="24" fill="rgb(125,91,194)" stroke="rgb(100,72,155)" stroke-width="1" opacity="0.75" />
			</g>
		</g>
		<g>
			<title> (ctg1708_7)</title>
			<polygon class=" (ctg1708_7)" points="290,25 260,25 260,10 230,40 260,70 260,55 290,55" fill="rgb(255,255,255)" fill-opacity="1.0" stroke="rgb(0,0,0)" stroke-width="2"  />
			<g>
				<title>PD40 (PF07676)
"WD40-like Beta Propeller Repeat"</title>
				<polygon class="PF07676" points="241,33 243,31 243,49 241,47" stroke-linejoin="round" width="2" height="24" fill="rgb(49,78,191)" stroke="rgb(39,62,152)" stroke-width="1" opacity="0.75" />
			</g>
			<g>
				<title>PD40 (PF07676)
"WD40-like Beta Propeller Repeat"</title>
				<rect class="PF07676" x="255" y="28" stroke-linejoin="round" width="2" height="24" fill="rgb(49,78,191)" stroke="rgb(39,62,152)" stroke-width="1" opacity="0.75" />
			</g>
			<g>
				<title>PD40 (PF07676)
"WD40-like Beta Propeller Repeat"</title>
				<rect class="PF07676" x="264" y="28" stroke-linejoin="round" width="3" height="24" fill="rgb(49,78,191)" stroke="rgb(39,62,152)" stroke-width="1" opacity="0.75" />
			</g>
		</g>
		<g>
			<title> (ctg1708_8)</title>
			<polygon class=" (ctg1708_8)" points="298,25 304,25 304,10 334,40 304,70 304,55 298,55" fill="rgb(255,255,255)" fill-opacity="1.0" stroke="rgb(0,0,0)" stroke-width="2"  />
		</g>
		<g>
			<title> (ctg1708_9)</title>
			<polygon class=" (ctg1708_9)" points="345,40 363,10 363,70" fill="rgb(255,255,255)" fill-opacity="1.0" stroke="rgb(0,0,0)" stroke-width="2"  />
			<g>
				<title>CDP-OH_P_transf (PF01066)
"CDP-alcohol phosphatidyltransferase"</title>
				<rect class="PF01066" x="358" y="28" stroke-linejoin="round" width="4" height="24" fill="rgb(100,201,161)" stroke="rgb(80,160,128)" stroke-width="1" opacity="0.75" />
			</g>
		</g>
		<g>
			<title> (ctg1708_10)</title>
			<polygon class=" (ctg1708_10)" points="369,10 374,40 369,70" fill="rgb(255,255,255)" fill-opacity="1.0" stroke="rgb(0,0,0)" stroke-width="2"  />
		</g>
		<g>
			<title> (ctg1708_11)</title>
			<polygon class=" (ctg1708_11)" points="374,40 387,10 387,70" fill="rgb(255,255,255)" fill-opacity="1.0" stroke="rgb(0,0,0)" stroke-width="2"  />
		</g>
		<g>
			<title> (ctg1708_12)</title>
			<polygon class=" (ctg1708_12)" points="394,10 421,40 394,70" fill="rgb(255,255,255)" fill-opacity="1.0" stroke="rgb(0,0,0)" stroke-width="2"  />
			<g>
				<title>GHMP_kinases_N (PF00288)
"GHMP kinases N terminal domain"</title>
				<rect class="PF00288" x="398" y="28" stroke-linejoin="round" width="6" height="24" fill="rgb(190,54,91)" stroke="rgb(152,43,72)" stroke-width="1" opacity="0.75" />
			</g>
			<g>
				<title>GHMP_kinases_C (PF08544)
"GHMP kinases C terminal"</title>
				<polygon class="PF08544" points="413,35 417,40 413,45" stroke-linejoin="round" width="7" height="24" fill="rgb(95,112,219)" stroke="rgb(76,89,175)" stroke-width="1" opacity="0.75" />
			</g>
		</g>
		<g>
			<title> (ctg1708_13)</title>
			<polygon class=" (ctg1708_13)" points="422,40 426,10 426,70" fill="rgb(255,255,255)" fill-opacity="1.0" stroke="rgb(0,0,0)" stroke-width="2"  />
		</g>
		<g>
			<title> (ctg1708_14)</title>
			<polygon class=" (ctg1708_14)" points="428,40 446,10 446,70" fill="rgb(255,255,255)" fill-opacity="1.0" stroke="rgb(0,0,0)" stroke-width="2"  />
			<g>
				<title>Pro_isomerase (PF00160)
"Cyclophilin type peptidyl-prolyl cis-trans isomerase/CLD"</title>
				<polygon class="PF00160" points="432,40 440,28 444,28 444,52 440,52" stroke-linejoin="round" width="16" height="24" fill="rgb(130,221,72)" stroke="rgb(103,176,57)" stroke-width="1" opacity="0.75" />
			</g>
		</g>
		<g>
			<title> (ctg1708_15)</title>
			<polygon class=" (ctg1708_15)" points="452,10 458,40 452,70" fill="rgb(255,255,255)" fill-opacity="1.0" stroke="rgb(0,0,0)" stroke-width="2"  />
		</g>
		<g>
			<title> (ctg1708_16)</title>
			<polygon class=" (ctg1708_16)" points="458,25 478,25 478,10 508,40 478,70 478,55 458,55" fill="rgb(255,255,255)" fill-opacity="1.0" stroke="rgb(0,0,0)" stroke-width="2"  />
		</g>
		<g>
			<title> (ctg1708_17)</title>
			<polygon class=" (ctg1708_17)" points="508,40 520,10 520,70" fill="rgb(255,255,255)" fill-opacity="1.0" stroke="rgb(0,0,0)" stroke-width="2"  />
		</g>
		<g>
			<title> (ctg1708_18)</title>
			<polygon class=" (ctg1708_18)" points="521,40 528,10 528,70" fill="rgb(255,255,255)" fill-opacity="1.0" stroke="rgb(0,0,0)" stroke-width="2"  />
		</g>
		<g>
			<title> (ctg1708_19)</title>
			<polygon class=" (ctg1708_19)" points="527,40 553,10 553,70" fill="rgb(255,255,255)" fill-opacity="1.0" stroke="rgb(0,0,0)" stroke-width="2"  />
			<g>
				<title>Phos_pyr_kin (PF08543)
"Phosphomethylpyrimidine kinase"</title>
				<polygon class="PF08543" points="531,40 542,28 552,28 552,52 542,52" stroke-linejoin="round" width="24" height="24" fill="rgb(91,84,223)" stroke="rgb(72,67,178)" stroke-width="1" opacity="0.75" />
			</g>
		</g>
		<g>
			<title> (ctg1708_20)</title>
			<polygon class=" (ctg1708_20)" points="556,10 565,40 556,70" fill="rgb(255,255,255)" fill-opacity="1.0" stroke="rgb(0,0,0)" stroke-width="2"  />
		</g>
		<g>
			<title> (ctg1708_21)</title>
			<polygon class=" (ctg1708_21)" points="566,10 574,40 566,70" fill="rgb(255,255,255)" fill-opacity="1.0" stroke="rgb(0,0,0)" stroke-width="2"  />
			<g>
				<title>Ribosomal_L35p (PF01632)
"Ribosomal protein L35"</title>
				<polygon class="PF01632" points="567,28 567,28 570,40 567,52 567,52" stroke-linejoin="round" width="6" height="24" fill="rgb(87,201,54)" stroke="rgb(69,160,43)" stroke-width="1" opacity="0.75" />
			</g>
		</g>
		<g>
			<title> (ctg1708_22)</title>
			<polygon class=" (ctg1708_22)" points="577,10 590,40 577,70" fill="rgb(255,255,255)" fill-opacity="1.0" stroke="rgb(0,0,0)" stroke-width="2"  />
			<g>
				<title>Ribosomal_L20 (PF00453)
"Ribosomal protein L20"</title>
				<polygon class="PF00453" points="577,28 581,28 586,40 581,52 577,52" stroke-linejoin="round" width="10" height="24" fill="rgb(221,85,111)" stroke="rgb(176,67,88)" stroke-width="1" opacity="0.75" />
			</g>
		</g>
		<g>
			<title> (ctg1708_23)</title>
			<polygon class=" (ctg1708_23)" points="592,25 596,25 596,10 626,40 596,70 596,55 592,55" fill="rgb(255,255,255)" fill-opacity="1.0" stroke="rgb(0,0,0)" stroke-width="2"  />
			<g>
				<title>Phe_tRNA-synt_N (PF02912)
"Aminoacyl tRNA synthetase class II, N-terminal domain"</title>
				<rect class="PF02912" x="596" y="28" stroke-linejoin="round" width="6" height="24" fill="rgb(185,106,54)" stroke="rgb(148,84,43)" stroke-width="1" opacity="0.75" />
			</g>
			<g>
				<title>tRNA-synt_2d (PF01409)
"tRNA synthetases class II core domain (F)"</title>
				<polygon class="PF01409" points="603,28 610,28 622,40 610,52 603,52" stroke-linejoin="round" width="23" height="24" fill="rgb(88,202,82)" stroke="rgb(70,161,65)" stroke-width="1" opacity="0.75" />
			</g>
		</g>
		<g>
			<title> (ctg1708_24)</title>
			<polygon class=" (ctg1708_24)" points="627,25 664,25 664,10 694,40 664,70 664,55 627,55" fill="rgb(255,255,255)" fill-opacity="1.0" stroke="rgb(0,0,0)" stroke-width="2"  />
			<g>
				<title>B3_4 (PF03483)
"B3/4 domain"</title>
				<rect class="PF03483" x="637" y="28" stroke-linejoin="round" width="17" height="24" fill="rgb(97,63,226)" stroke="rgb(77,50,180)" stroke-width="1" opacity="0.75" />
			</g>
			<g>
				<title>B5 (PF03484)
"tRNA synthetase B5 domain"</title>
				<rect class="PF03484" x="656" y="28" stroke-linejoin="round" width="6" height="24" fill="rgb(94,91,186)" stroke="rgb(75,72,148)" stroke-width="1" opacity="0.75" />
			</g>
			<g>
				<title>tRNA_synthFbeta (PF17759)
"Phenylalanyl tRNA synthetase beta chain CLM domain"</title>
				<polygon class="PF17759" points="663,28 678,28 683,33 683,47 678,52 663,52" stroke-linejoin="round" width="20" height="24" fill="rgb(61,193,115)" stroke="rgb(48,154,92)" stroke-width="1" opacity="0.75" />
			</g>
			<g>
				<title>FDX-ACB (PF03147)
"Ferredoxin-fold anticodon binding domain"</title>
				<polygon class="PF03147" points="685,35 690,40 685,45" stroke-linejoin="round" width="9" height="24" fill="rgb(152,84,215)" stroke="rgb(121,67,172)" stroke-width="1" opacity="0.75" />
			</g>
		</g>
		<g>
			<title> (ctg1708_25)</title>
			<polygon class=" (ctg1708_25)" points="699,40 724,10 724,70" fill="rgb(255,255,255)" fill-opacity="1.0" stroke="rgb(0,0,0)" stroke-width="2"  />
			<g>
				<title>OmpA (PF00691)
"OmpA family"</title>
				<polygon class="PF00691" points="703,40 708,34 708,46" stroke-linejoin="round" width="9" height="24" fill="rgb(121,200,70)" stroke="rgb(96,160,56)" stroke-width="1" opacity="0.75" />
			</g>
		</g>
		<g>
			<title> (ctg1708_26)</title>
			<polygon class=" (ctg1708_26)" points="731,10 735,40 731,70" fill="rgb(255,255,255)" fill-opacity="1.0" stroke="rgb(0,0,0)" stroke-width="2"  />
		</g>
	</g>
</svg>
