<svg version="1.1" baseProfile="full" xmlns="http://www.w3.org/2000/svg" width="1268.8666666666666" height="80">
	<g>
		<line x1="10" y1="40.0" x2="1258.8666666666666" y2="40.0" style="stroke:rgb(70,70,70); stroke-width:3 "/>
		<g>
			<title> (ctg512_1)</title>
			<polygon class=" (ctg512_1)" points="10,25 69,25 69,10 99,40 69,70 69,55 10,55" fill="rgb(255,255,255)" fill-opacity="1.0" stroke="rgb(0,0,0)" stroke-width="2"  />
			<g>
				<title>SWI2_SNF2 (PF18766)
"SWI2/SNF2 ATPase"</title>
				<rect class="PF18766" x="21" y="28" stroke-linejoin="round" width="25" height="24" fill="rgb(70,199,93)" stroke="rgb(56,159,74)" stroke-width="1" opacity="0.75" />
			</g>
			<g>
				<title>DUF3387 (PF11867)
"Domain of unknown function (DUF3387)"</title>
				<polygon class="PF11867" points="65,28 83,28 95,40 83,52 65,52" stroke-linejoin="round" width="32" height="24" fill="rgb(56,51,205)" stroke="rgb(44,40,164)" stroke-width="1" opacity="0.75" />
			</g>
		</g>
		<g>
			<title> (ctg512_2)</title>
			<polygon class=" (ctg512_2)" points="112,10 123,40 112,70" fill="rgb(255,255,255)" fill-opacity="1.0" stroke="rgb(0,0,0)" stroke-width="2"  />
		</g>
		<g>
			<title> (ctg512_3)</title>
			<polygon class=" (ctg512_3)" points="128,10 141,40 128,70" fill="rgb(255,255,255)" fill-opacity="1.0" stroke="rgb(0,0,0)" stroke-width="2"  />
		</g>
		<g>
			<title> (ctg512_4)</title>
			<polygon class=" (ctg512_4)" points="142,25 167,25 167,10 197,40 167,70 167,55 142,55" fill="rgb(255,255,255)" fill-opacity="1.0" stroke="rgb(0,0,0)" stroke-width="2"  />
		</g>
		<g>
			<title> (ctg512_5)</title>
			<polygon class=" (ctg512_5)" points="271,25 229,25 229,10 199,40 229,70 229,55 271,55" fill="rgb(255,255,255)" fill-opacity="1.0" stroke="rgb(0,0,0)" stroke-width="2"  />
			<g>
				<title>BNR_2 (PF13088)
"BNR repeat-like domain"</title>
				<polygon class="PF13088" points="203,40 215,28 221,28 221,52 215,52" stroke-linejoin="round" width="19" height="24" fill="rgb(196,211,74)" stroke="rgb(156,168,59)" stroke-width="1" opacity="0.75" />
			</g>
			<g>
				<title>BNR_2 (PF13088)
"BNR repeat-like domain"</title>
				<rect class="PF13088" x="239" y="28" stroke-linejoin="round" width="27" height="24" fill="rgb(196,211,74)" stroke="rgb(156,168,59)" stroke-width="1" opacity="0.75" />
			</g>
		</g>
		<g>
			<title> (ctg512_6)</title>
			<polygon class=" (ctg512_6)" points="347,25 304,25 304,10 274,40 304,70 304,55 347,55" fill="rgb(255,255,255)" fill-opacity="1.0" stroke="rgb(0,0,0)" stroke-width="2"  />
		</g>
		<g>
			<title> (ctg512_7)</title>
			<polygon class=" (ctg512_7)" points="405,25 377,25 377,10 347,40 377,70 377,55 405,55" fill="rgb(255,255,255)" fill-opacity="1.0" stroke="rgb(0,0,0)" stroke-width="2"  />
		</g>
		<g>
			<title> (ctg512_8)</title>
			<polygon class=" (ctg512_8)" points="416,25 423,25 423,10 453,40 423,70 423,55 416,55" fill="rgb(255,255,255)" fill-opacity="1.0" stroke="rgb(0,0,0)" stroke-width="2"  />
			<g>
				<title>DAO (PF01266)
"FAD dependent oxidoreductase"</title>
				<polygon class="PF01266" points="416,28 437,28 449,40 437,52 416,52" stroke-linejoin="round" width="34" height="24" fill="rgb(123,179,59)" stroke="rgb(98,143,47)" stroke-width="1" opacity="0.75" />
			</g>
		</g>
		<g>
			<title> (ctg512_9)</title>
			<polygon class=" (ctg512_9)" points="462,25 469,25 469,10 499,40 469,70 469,55 462,55" fill="rgb(255,255,255)" fill-opacity="1.0" stroke="rgb(0,0,0)" stroke-width="2"  />
			<g>
				<title>Iso_dh (PF00180)
"Isocitrate/isopropylmalate dehydrogenase"</title>
				<polygon class="PF00180" points="462,28 483,28 495,40 483,52 462,52" stroke-linejoin="round" width="36" height="24" fill="rgb(109,54,206)" stroke="rgb(87,43,164)" stroke-width="1" opacity="0.75" />
			</g>
		</g>
		<g>
			<title> (ctg512_10)</title>
			<polygon class=" (ctg512_10)" points="591,25 531,25 531,10 501,40 531,70 531,55 591,55" fill="rgb(255,255,255)" fill-opacity="1.0" stroke="rgb(0,0,0)" stroke-width="2"  />
			<g>
				<title>Acyltransferase (PF01553)
"Acyltransferase"</title>
				<polygon class="PF01553" points="507,38 517,28 521,28 521,52 517,52 507,42" stroke-linejoin="round" width="14" height="24" fill="rgb(87,176,216)" stroke="rgb(69,140,172)" stroke-width="1" opacity="0.75" />
			</g>
			<g>
				<title>PP-binding (PF00550)
"Phosphopantetheine attachment site"</title>
				<rect class="PF00550" x="530" y="28" stroke-linejoin="round" width="6" height="24" fill="rgb(103,191,88)" stroke="rgb(82,152,70)" stroke-width="1" opacity="0.75" />
			</g>
			<g>
				<title>AMP-binding (PF00501)
"AMP-binding enzyme"</title>
				<rect class="PF00501" x="548" y="28" stroke-linejoin="round" width="41" height="24" fill="rgb(60,217,223)" stroke="rgb(48,173,178)" stroke-width="1" opacity="0.75" />
			</g>
		</g>
		<g>
			<title> (ctg512_11)</title>
			<polygon class=" (ctg512_11)" points="594,40 620,10 620,70" fill="rgb(255,255,255)" fill-opacity="1.0" stroke="rgb(0,0,0)" stroke-width="2"  />
			<g>
				<title>Hydrolase_like (PF13242)
"HAD-hyrolase-like"</title>
				<polygon class="PF13242" points="598,40 601,37 601,43" stroke-linejoin="round" width="7" height="24" fill="rgb(202,89,70)" stroke="rgb(161,71,56)" stroke-width="1" opacity="0.75" />
			</g>
			<g>
				<title>Hydrolase_6 (PF13344)
"Haloacid dehalogenase-like hydrolase"</title>
				<rect class="PF13344" x="609" y="28" stroke-linejoin="round" width="9" height="24" fill="rgb(78,107,184)" stroke="rgb(62,85,147)" stroke-width="1" opacity="0.75" />
			</g>
		</g>
		<g>
			<title> (ctg512_12)</title>
			<polygon class=" (ctg512_12)" points="628,10 645,40 628,70" fill="rgb(255,255,255)" fill-opacity="1.0" stroke="rgb(0,0,0)" stroke-width="2"  />
		</g>
		<g>
			<title> (ctg512_13)</title>
			<polygon class=" (ctg512_13)" points="646,40 671,10 671,70" fill="rgb(255,255,255)" fill-opacity="1.0" stroke="rgb(0,0,0)" stroke-width="2"  />
			<g>
				<title>Metallophos_2 (PF12850)
"Calcineurin-like phosphoesterase superfamily domain"</title>
				<polygon class="PF12850" points="650,40 660,28 670,28 670,52 660,52" stroke-linejoin="round" width="21" height="24" fill="rgb(143,76,212)" stroke="rgb(114,60,169)" stroke-width="1" opacity="0.75" />
			</g>
		</g>
		<g>
			<title> (ctg512_14)</title>
			<polygon class=" (ctg512_14)" points="672,40 692,10 692,70" fill="rgb(255,255,255)" fill-opacity="1.0" stroke="rgb(0,0,0)" stroke-width="2"  />
			<g>
				<title>HAD_2 (PF13419)
"Haloacid dehalogenase-like hydrolase"</title>
				<polygon class="PF13419" points="676,40 682,31 682,49" stroke-linejoin="round" width="9" height="24" fill="rgb(60,223,188)" stroke="rgb(48,178,150)" stroke-width="1" opacity="0.75" />
			</g>
		</g>
		<g>
			<title> (ctg512_15)</title>
			<polygon class=" (ctg512_15)" points="725,25 724,25 724,10 694,40 724,70 724,55 725,55" fill="rgb(255,255,255)" fill-opacity="1.0" stroke="rgb(0,0,0)" stroke-width="2"  />
			<g>
				<title>UxuA (PF03786)
"D-mannonate dehydratase (UxuA)"</title>
				<polygon class="PF03786" points="698,40 710,28 711,28 711,52 710,52" stroke-linejoin="round" width="17" height="24" fill="rgb(193,50,168)" stroke="rgb(154,39,134)" stroke-width="1" opacity="0.75" />
			</g>
			<g>
				<title>UxuA (PF03786)
"D-mannonate dehydratase (UxuA)"</title>
				<rect class="PF03786" x="711" y="28" stroke-linejoin="round" width="12" height="24" fill="rgb(193,50,168)" stroke="rgb(154,39,134)" stroke-width="1" opacity="0.75" />
			</g>
		</g>
		<g>
			<title> (ctg512_16)</title>
			<polygon class=" (ctg512_16)" points="735,25 759,25 759,10 789,40 759,70 759,55 735,55" fill="rgb(255,255,255)" fill-opacity="1.0" stroke="rgb(0,0,0)" stroke-width="2"  />
			<g>
				<title>SSF (PF00474)
"Sodium:solute symporter family"</title>
				<polygon class="PF00474" points="739,28 772,28 780,36 780,44 772,52 739,52" stroke-linejoin="round" width="41" height="24" fill="rgb(49,186,178)" stroke="rgb(39,148,142)" stroke-width="1" opacity="0.75" />
			</g>
		</g>
		<g>
			<title> (ctg512_17)</title>
			<polygon class=" (ctg512_17)" points="805,40 822,10 822,70" fill="rgb(255,255,255)" fill-opacity="1.0" stroke="rgb(0,0,0)" stroke-width="2"  />
			<g>
				<title>Pur_DNA_glyco (PF02245)
"Methylpurine-DNA glycosylase (MPG)"</title>
				<polygon class="PF02245" points="808,40 815,28 822,28 822,52 815,52" stroke-linejoin="round" width="17" height="24" fill="rgb(224,94,125)" stroke="rgb(179,75,100)" stroke-width="1" opacity="0.75" />
			</g>
		</g>
		<g>
			<title> (ctg512_18)</title>
			<polygon class=" (ctg512_18)" points="860,25 856,25 856,10 826,40 856,70 856,55 860,55" fill="rgb(255,255,255)" fill-opacity="1.0" stroke="rgb(0,0,0)" stroke-width="2"  />
			<g>
				<title>PD40 (PF07676)
"WD40-like Beta Propeller Repeat"</title>
				<polygon class="PF07676" points="830,40 830,40 830,40" stroke-linejoin="round" width="4" height="24" fill="rgb(49,78,191)" stroke="rgb(39,62,152)" stroke-width="1" opacity="0.75" />
			</g>
			<g>
				<title>PD40 (PF07676)
"WD40-like Beta Propeller Repeat"</title>
				<polygon class="PF07676" points="831,39 835,35 835,45 831,41" stroke-linejoin="round" width="4" height="24" fill="rgb(49,78,191)" stroke="rgb(39,62,152)" stroke-width="1" opacity="0.75" />
			</g>
			<g>
				<title>PD40 (PF07676)
"WD40-like Beta Propeller Repeat"</title>
				<polygon class="PF07676" points="838,32 841,29 841,51 838,48" stroke-linejoin="round" width="3" height="24" fill="rgb(49,78,191)" stroke="rgb(39,62,152)" stroke-width="1" opacity="0.75" />
			</g>
			<g>
				<title>PD40 (PF07676)
"WD40-like Beta Propeller Repeat"</title>
				<polygon class="PF07676" points="842,28 842,28 845,28 845,52 842,52 842,52" stroke-linejoin="round" width="3" height="24" fill="rgb(49,78,191)" stroke="rgb(39,62,152)" stroke-width="1" opacity="0.75" />
			</g>
			<g>
				<title>PD40 (PF07676)
"WD40-like Beta Propeller Repeat"</title>
				<rect class="PF07676" x="853" y="28" stroke-linejoin="round" width="3" height="24" fill="rgb(49,78,191)" stroke="rgb(39,62,152)" stroke-width="1" opacity="0.75" />
			</g>
		</g>
		<g>
			<title> (ctg512_19)</title>
			<polygon class=" (ctg512_19)" points="908,25 892,25 892,10 862,40 892,70 892,55 908,55" fill="rgb(255,255,255)" fill-opacity="1.0" stroke="rgb(0,0,0)" stroke-width="2"  />
			<g>
				<title>Aminotran_3 (PF00202)
"Aminotransferase class-III"</title>
				<polygon class="PF00202" points="866,40 878,28 904,28 904,52 878,52" stroke-linejoin="round" width="42" height="24" fill="rgb(49,163,189)" stroke="rgb(39,130,151)" stroke-width="1" opacity="0.75" />
			</g>
		</g>
		<g>
			<title> (ctg512_20)</title>
			<polygon class=" (ctg512_20)" points="913,40 939,10 939,70" fill="rgb(255,255,255)" fill-opacity="1.0" stroke="rgb(0,0,0)" stroke-width="2"  />
			<g>
				<title>Methyltransf_11 (PF08241)
"Methyltransferase domain"</title>
				<polygon class="PF08241" points="925,31 927,28 934,28 934,52 927,52 925,49" stroke-linejoin="round" width="9" height="24" fill="rgb(106,219,159)" stroke="rgb(84,175,127)" stroke-width="1" opacity="0.75" />
			</g>
		</g>
		<g>
			<title> (ctg512_21)</title>
			<polygon class=" (ctg512_21)" points="940,10 947,40 940,70" fill="rgb(255,255,255)" fill-opacity="1.0" stroke="rgb(0,0,0)" stroke-width="2"  />
		</g>
		<g>
			<title> (ctg512_22)</title>
			<polygon class=" (ctg512_22)" points="949,40 968,10 968,70" fill="rgb(255,255,255)" fill-opacity="1.0" stroke="rgb(0,0,0)" stroke-width="2"  />
			<g>
				<title>DUF1080 (PF06439)
"Domain of Unknown Function (DUF1080)"</title>
				<polygon class="PF06439" points="953,40 961,28 967,28 967,52 961,52" stroke-linejoin="round" width="18" height="24" fill="rgb(136,84,203)" stroke="rgb(108,67,162)" stroke-width="1" opacity="0.75" />
			</g>
		</g>
		<g>
			<title> (ctg512_23)</title>
			<polygon class=" (ctg512_23)" points="972,40 999,10 999,70" fill="rgb(255,255,255)" fill-opacity="1.0" stroke="rgb(0,0,0)" stroke-width="2"  />
			<g>
				<title>Hexapep (PF00132)
"Bacterial transferase hexapeptide (six repeats)"</title>
				<polygon class="PF00132" points="976,40 979,37 979,43 976,40" stroke-linejoin="round" width="3" height="24" fill="rgb(89,131,202)" stroke="rgb(71,104,161)" stroke-width="1" opacity="0.75" />
			</g>
			<g>
				<title>SATase_N (PF06426)
"Serine acetyltransferase, N-terminal"</title>
				<polygon class="PF06426" points="987,28 987,28 997,28 997,52 987,52 987,52" stroke-linejoin="round" width="10" height="24" fill="rgb(66,167,178)" stroke="rgb(52,133,142)" stroke-width="1" opacity="0.75" />
			</g>
		</g>
		<g>
			<title> (ctg512_24)</title>
			<polygon class=" (ctg512_24)" points="1017,10 1039,40 1017,70" fill="rgb(255,255,255)" fill-opacity="1.0" stroke="rgb(0,0,0)" stroke-width="2"  />
		</g>
		<g>
			<title> (ctg512_25)</title>
			<polygon class=" (ctg512_25)" points="1076,25 1071,25 1071,10 1041,40 1071,70 1071,55 1076,55" fill="rgb(255,255,255)" fill-opacity="1.0" stroke="rgb(0,0,0)" stroke-width="2"  />
			<g>
				<title>TPR_1 (PF00515)
"Tetratricopeptide repeat"</title>
				<polygon class="PF00515" points="1047,38 1050,35 1050,45 1047,42" stroke-linejoin="round" width="3" height="24" fill="rgb(193,73,189)" stroke="rgb(154,58,151)" stroke-width="1" opacity="0.75" />
			</g>
			<g>
				<title>TPR_12 (PF13424)
"Tetratricopeptide repeat"</title>
				<polygon class="PF13424" points="1051,34 1057,28 1058,28 1058,52 1057,52 1051,46" stroke-linejoin="round" width="7" height="24" fill="rgb(147,215,101)" stroke="rgb(117,172,80)" stroke-width="1" opacity="0.75" />
			</g>
			<g>
				<title>CarboxypepD_reg (PF13620)
"Carboxypeptidase regulatory-like domain"</title>
				<rect class="PF13620" x="1065" y="28" stroke-linejoin="round" width="8" height="24" fill="rgb(201,63,96)" stroke="rgb(160,50,76)" stroke-width="1" opacity="0.75" />
			</g>
		</g>
		<g>
			<title> (ctg512_26)</title>
			<polygon class=" (ctg512_26)" points="1088,40 1110,10 1110,70" fill="rgb(255,255,255)" fill-opacity="1.0" stroke="rgb(0,0,0)" stroke-width="2"  />
			<g>
				<title>QueC (PF06508)
"Queuosine biosynthesis protein QueC"</title>
				<polygon class="PF06508" points="1092,40 1101,28 1109,28 1109,52 1101,52" stroke-linejoin="round" width="20" height="24" fill="rgb(217,93,123)" stroke="rgb(173,74,98)" stroke-width="1" opacity="0.75" />
			</g>
		</g>
		<g>
			<title> (ctg512_27)</title>
			<polygon class=" (ctg512_27)" points="1111,40 1129,10 1129,70" fill="rgb(255,255,255)" fill-opacity="1.0" stroke="rgb(0,0,0)" stroke-width="2"  />
			<g>
				<title>Methyltransf_23 (PF13489)
"Methyltransferase domain"</title>
				<polygon class="PF13489" points="1115,40 1122,28 1128,28 1128,52 1122,52" stroke-linejoin="round" width="14" height="24" fill="rgb(188,189,66)" stroke="rgb(150,151,52)" stroke-width="1" opacity="0.75" />
			</g>
		</g>
		<g>
			<title> (ctg512_28)</title>
			<polygon class=" (ctg512_28)" points="1135,25 1149,25 1149,10 1179,40 1149,70 1149,55 1135,55" fill="rgb(255,255,255)" fill-opacity="1.0" stroke="rgb(0,0,0)" stroke-width="2"  />
			<g>
				<title>MMR_HSR1 (PF01926)
"50S ribosome-binding GTPase"</title>
				<rect class="PF01926" x="1135" y="28" stroke-linejoin="round" width="11" height="24" fill="rgb(105,180,226)" stroke="rgb(83,143,180)" stroke-width="1" opacity="0.75" />
			</g>
			<g>
				<title>MMR_HSR1 (PF01926)
"50S ribosome-binding GTPase"</title>
				<polygon class="PF01926" points="1152,28 1162,28 1163,29 1163,51 1162,52 1152,52" stroke-linejoin="round" width="11" height="24" fill="rgb(105,180,226)" stroke="rgb(83,143,180)" stroke-width="1" opacity="0.75" />
			</g>
			<g>
				<title>KH_dom-like (PF14714)
"KH-domain-like of EngA bacterial GTPase enzymes, C-terminal"</title>
				<polygon class="PF14714" points="1170,36 1174,40 1170,44" stroke-linejoin="round" width="7" height="24" fill="rgb(178,119,50)" stroke="rgb(142,95,40)" stroke-width="1" opacity="0.75" />
			</g>
		</g>
		<g>
			<title> (ctg512_29)</title>
			<polygon class=" (ctg512_29)" points="1185,10 1200,40 1185,70" fill="rgb(255,255,255)" fill-opacity="1.0" stroke="rgb(0,0,0)" stroke-width="2"  />
			<g>
				<title>MerR_1 (PF13411)
"MerR HTH family regulatory protein"</title>
				<polygon class="PF13411" points="1188,28 1190,28 1195,36 1195,44 1190,52 1188,52" stroke-linejoin="round" width="7" height="24" fill="rgb(100,202,107)" stroke="rgb(80,161,85)" stroke-width="1" opacity="0.75" />
			</g>
		</g>
		<g>
			<title> (ctg512_30)</title>
			<polygon class=" (ctg512_30)" points="1205,10 1230,40 1205,70" fill="rgb(255,255,255)" fill-opacity="1.0" stroke="rgb(0,0,0)" stroke-width="2"  />
			<g>
				<title>SurE (PF01975)
"Survival protein SurE"</title>
				<polygon class="PF01975" points="1205,28 1216,28 1222,35 1222,45 1216,52 1205,52" stroke-linejoin="round" width="17" height="24" fill="rgb(55,201,204)" stroke="rgb(44,160,163)" stroke-width="1" opacity="0.75" />
			</g>
		</g>
	</g>
</svg>
