<svg version="1.1" baseProfile="full" xmlns="http://www.w3.org/2000/svg" width="636.3666666666667" height="80">
	<g>
		<line x1="10" y1="40.0" x2="626.3666666666667" y2="40.0" style="stroke:rgb(70,70,70); stroke-width:3 "/>
		<g>
			<title> (ctg3509_1)</title>
			<polygon class=" (ctg3509_1)" points="59,25 40,25 40,10 10,40 40,70 40,55 59,55" fill="rgb(255,255,255)" fill-opacity="1.0" stroke="rgb(0,0,0)" stroke-width="2"  />
			<g>
				<title>HisKA (PF00512)
"His Kinase A (phospho-acceptor) domain"</title>
				<polygon class="PF00512" points="14,40 19,35 19,45" stroke-linejoin="round" width="6" height="24" fill="rgb(193,125,62)" stroke="rgb(154,100,49)" stroke-width="1" opacity="0.75" />
			</g>
			<g>
				<title>PAS_3 (PF08447)
"PAS fold"</title>
				<polygon class="PF08447" points="23,31 26,28 31,28 31,52 26,52 23,49" stroke-linejoin="round" width="8" height="24" fill="rgb(222,97,193)" stroke="rgb(177,77,154)" stroke-width="1" opacity="0.75" />
			</g>
			<g>
				<title>PAS (PF00989)
"PAS fold"</title>
				<rect class="PF00989" x="35" y="28" stroke-linejoin="round" width="11" height="24" fill="rgb(205,221,64)" stroke="rgb(164,176,51)" stroke-width="1" opacity="0.75" />
			</g>
			<g>
				<title>PAS_3 (PF08447)
"PAS fold"</title>
				<rect class="PF08447" x="48" y="28" stroke-linejoin="round" width="8" height="24" fill="rgb(222,97,193)" stroke="rgb(177,77,154)" stroke-width="1" opacity="0.75" />
			</g>
		</g>
		<g>
			<title> (ctg3509_2)</title>
			<polygon class=" (ctg3509_2)" points="125,25 95,25 95,10 65,40 95,70 95,55 125,55" fill="rgb(255,255,255)" fill-opacity="1.0" stroke="rgb(0,0,0)" stroke-width="2"  />
			<g>
				<title>SpoIIE (PF07228)
"Stage II sporulation protein E (SpoIIE)"</title>
				<polygon class="PF07228" points="69,40 81,28 84,28 84,52 81,52" stroke-linejoin="round" width="19" height="24" fill="rgb(85,195,217)" stroke="rgb(68,155,173)" stroke-width="1" opacity="0.75" />
			</g>
			<g>
				<title>GAF_2 (PF13185)
"GAF domain"</title>
				<rect class="PF13185" x="91" y="28" stroke-linejoin="round" width="14" height="24" fill="rgb(158,189,90)" stroke="rgb(126,151,72)" stroke-width="1" opacity="0.75" />
			</g>
		</g>
		<g>
			<title> (ctg3509_3)</title>
			<polygon class=" (ctg3509_3)" points="137,40 148,10 148,70" fill="rgb(255,255,255)" fill-opacity="1.0" stroke="rgb(0,0,0)" stroke-width="2"  />
			<g>
				<title>STAS (PF01740)
"STAS domain"</title>
				<polygon class="PF01740" points="140,40 145,28 147,28 147,52 145,52" stroke-linejoin="round" width="10" height="24" fill="rgb(219,58,116)" stroke="rgb(175,46,92)" stroke-width="1" opacity="0.75" />
			</g>
		</g>
		<g>
			<title> (ctg3509_4)</title>
			<polygon class=" (ctg3509_4)" points="165,10 172,40 165,70" fill="rgb(255,255,255)" fill-opacity="1.0" stroke="rgb(0,0,0)" stroke-width="2"  />
		</g>
		<g>
			<title> (ctg3509_5)</title>
			<polygon class=" (ctg3509_5)" points="177,10 199,40 177,70" fill="rgb(255,255,255)" fill-opacity="1.0" stroke="rgb(0,0,0)" stroke-width="2"  />
			<g>
				<title>cNMP_binding (PF00027)
"Cyclic nucleotide-binding domain"</title>
				<polygon class="PF00027" points="182,28 187,28 190,33 190,47 187,52 182,52" stroke-linejoin="round" width="8" height="24" fill="rgb(138,95,204)" stroke="rgb(110,76,163)" stroke-width="1" opacity="0.75" />
			</g>
		</g>
		<g>
			<title> (ctg3509_6)</title>
			<polygon class=" (ctg3509_6)" points="200,25 224,25 224,10 254,40 224,70 224,55 200,55" fill="rgb(255,255,255)" fill-opacity="1.0" stroke="rgb(0,0,0)" stroke-width="2"  />
			<g>
				<title>AI-2E_transport (PF01594)
"AI-2E family transporter"</title>
				<rect class="PF01594" x="208" y="28" stroke-linejoin="round" width="9" height="24" fill="rgb(226,96,145)" stroke="rgb(180,76,116)" stroke-width="1" opacity="0.75" />
			</g>
			<g>
				<title>AI-2E_transport (PF01594)
"AI-2E family transporter"</title>
				<polygon class="PF01594" points="225,28 237,28 249,40 237,52 225,52" stroke-linejoin="round" width="27" height="24" fill="rgb(226,96,145)" stroke="rgb(180,76,116)" stroke-width="1" opacity="0.75" />
			</g>
		</g>
		<g>
			<title> (ctg3509_7)</title>
			<polygon class=" (ctg3509_7)" points="257,25 284,25 284,10 314,40 284,70 284,55 257,55" fill="rgb(255,255,255)" fill-opacity="1.0" stroke="rgb(0,0,0)" stroke-width="2"  />
			<g>
				<title>Prenyltrans (PF00432)
"Prenyltransferase and squalene oxidase repeat"</title>
				<rect class="PF00432" x="262" y="28" stroke-linejoin="round" width="3" height="24" fill="rgb(218,215,79)" stroke="rgb(174,172,63)" stroke-width="1" opacity="0.75" />
			</g>
			<g>
				<title>SQHop_cyclase_C (PF13243)
"Squalene-hopene cyclase C-terminal domain"</title>
				<rect class="PF13243" x="282" y="28" stroke-linejoin="round" width="13" height="24" fill="rgb(191,58,201)" stroke="rgb(152,46,160)" stroke-width="1" opacity="0.75" />
			</g>
			<g>
				<title>SQHop_cyclase_C (PF13243)
"Squalene-hopene cyclase C-terminal domain"</title>
				<polygon class="PF13243" points="296,28 298,28 310,40 298,52 296,52" stroke-linejoin="round" width="17" height="24" fill="rgb(191,58,201)" stroke="rgb(152,46,160)" stroke-width="1" opacity="0.75" />
			</g>
		</g>
		<g>
			<title> (ctg3509_8)</title>
			<polygon class=" (ctg3509_8)" points="317,10 339,40 317,70" fill="rgb(255,255,255)" fill-opacity="1.0" stroke="rgb(0,0,0)" stroke-width="2"  />
			<g>
				<title>Glycos_transf_2 (PF00535)
"Glycosyl transferase family 2"</title>
				<polygon class="PF00535" points="317,28 326,28 331,34 331,46 326,52 317,52" stroke-linejoin="round" width="14" height="24" fill="rgb(224,122,96)" stroke="rgb(179,97,76)" stroke-width="1" opacity="0.75" />
			</g>
		</g>
		<g>
			<title> (ctg3509_9)</title>
			<polygon class=" (ctg3509_9)" points="385,25 374,25 374,10 344,40 374,70 374,55 385,55" fill="rgb(255,255,255)" fill-opacity="1.0" stroke="rgb(0,0,0)" stroke-width="2"  />
			<g>
				<title>GFO_IDH_MocA (PF01408)
"Oxidoreductase family, NAD-binding Rossmann fold"</title>
				<rect class="PF01408" x="373" y="28" stroke-linejoin="round" width="11" height="24" fill="rgb(76,117,190)" stroke="rgb(60,93,152)" stroke-width="1" opacity="0.75" />
			</g>
		</g>
		<g>
			<title> (ctg3509_10)</title>
			<polygon class=" (ctg3509_10)" points="459,25 424,25 424,10 394,40 424,70 424,55 459,55" fill="rgb(255,255,255)" fill-opacity="1.0" stroke="rgb(0,0,0)" stroke-width="2"  />
			<g>
				<title>HSP70 (PF00012)
"Hsp70 protein"</title>
				<polygon class="PF00012" points="399,39 410,28 458,28 458,52 410,52 399,41" stroke-linejoin="round" width="59" height="24" fill="rgb(60,173,201)" stroke="rgb(48,138,160)" stroke-width="1" opacity="0.75" />
			</g>
		</g>
		<g>
			<title> (ctg3509_11)</title>
			<polygon class=" (ctg3509_11)" points="462,40 478,10 478,70" fill="rgb(255,255,255)" fill-opacity="1.0" stroke="rgb(0,0,0)" stroke-width="2"  />
			<g>
				<title>Response_reg (PF00072)
"Response regulator receiver domain"</title>
				<polygon class="PF00072" points="466,38 472,28 477,28 477,52 472,52 466,42" stroke-linejoin="round" width="11" height="24" fill="rgb(100,107,203)" stroke="rgb(80,85,162)" stroke-width="1" opacity="0.75" />
			</g>
		</g>
		<g>
			<title> (ctg3509_12)</title>
			<polygon class=" (ctg3509_12)" points="584,25 524,25 524,10 494,40 524,70 524,55 584,55" fill="rgb(255,255,255)" fill-opacity="1.0" stroke="rgb(0,0,0)" stroke-width="2"  />
			<g>
				<title>DNA_pol_A (PF00476)
"DNA polymerase family A"</title>
				<polygon class="PF00476" points="498,40 510,28 531,28 531,52 510,52" stroke-linejoin="round" width="37" height="24" fill="rgb(170,75,203)" stroke="rgb(136,60,162)" stroke-width="1" opacity="0.75" />
			</g>
			<g>
				<title>DNA_pol_A_exo1 (PF01612)
"3'-5' exonuclease"</title>
				<rect class="PF01612" x="535" y="28" stroke-linejoin="round" width="18" height="24" fill="rgb(222,60,61)" stroke="rgb(177,48,48)" stroke-width="1" opacity="0.75" />
			</g>
			<g>
				<title>5_3_exonuc (PF01367)
"5'-3' exonuclease, C-terminal SAM fold"</title>
				<rect class="PF01367" x="557" y="28" stroke-linejoin="round" width="9" height="24" fill="rgb(81,184,187)" stroke="rgb(64,147,149)" stroke-width="1" opacity="0.75" />
			</g>
			<g>
				<title>5_3_exonuc_N (PF02739)
"5'-3' exonuclease, N-terminal resolvase-like domain"</title>
				<rect class="PF02739" x="566" y="28" stroke-linejoin="round" width="16" height="24" fill="rgb(118,228,108)" stroke="rgb(94,182,86)" stroke-width="1" opacity="0.75" />
			</g>
		</g>
		<g>
			<title> (ctg3509_13)</title>
			<polygon class=" (ctg3509_13)" points="588,40 609,10 609,70" fill="rgb(255,255,255)" fill-opacity="1.0" stroke="rgb(0,0,0)" stroke-width="2"  />
		</g>
		<g>
			<title> (ctg3509_14)</title>
			<polygon class=" (ctg3509_14)" points="609,40 621,10 621,70" fill="rgb(255,255,255)" fill-opacity="1.0" stroke="rgb(0,0,0)" stroke-width="2"  />
		</g>
	</g>
</svg>
