<svg version="1.1" baseProfile="full" xmlns="http://www.w3.org/2000/svg" width="752.6" height="80">
	<g>
		<line x1="10" y1="40.0" x2="742.6" y2="40.0" style="stroke:rgb(70,70,70); stroke-width:3 "/>
		<g>
			<title> (ctg2341_5)</title>
			<polygon class=" (ctg2341_5)" points="14,10 40,40 14,70" fill="rgb(255,255,255)" fill-opacity="1.0" stroke="rgb(0,0,0)" stroke-width="2"  />
		</g>
		<g>
			<title> (ctg2341_6)</title>
			<polygon class=" (ctg2341_6)" points="42,10 68,40 42,70" fill="rgb(255,255,255)" fill-opacity="1.0" stroke="rgb(0,0,0)" stroke-width="2"  />
			<g>
				<title>FAD_syn (PF06574)
"FAD synthetase"</title>
				<rect class="PF06574" x="42" y="28" stroke-linejoin="round" width="10" height="24" fill="rgb(96,110,204)" stroke="rgb(76,88,163)" stroke-width="1" opacity="0.75" />
			</g>
			<g>
				<title>Flavokinase (PF01687)
"Riboflavin kinase"</title>
				<polygon class="PF01687" points="54,28 54,28 64,40 54,52 54,52" stroke-linejoin="round" width="12" height="24" fill="rgb(57,209,217)" stroke="rgb(45,167,173)" stroke-width="1" opacity="0.75" />
			</g>
		</g>
		<g>
			<title> (ctg2341_7)</title>
			<polygon class=" (ctg2341_7)" points="68,25 131,25 131,10 161,40 131,70 131,55 68,55" fill="rgb(255,255,255)" fill-opacity="1.0" stroke="rgb(0,0,0)" stroke-width="2"  />
			<g>
				<title>tRNA-synt_1 (PF00133)
"tRNA synthetases class I (I, L, M and V)"</title>
				<rect class="PF00133" x="71" y="28" stroke-linejoin="round" width="62" height="24" fill="rgb(209,58,146)" stroke="rgb(167,46,116)" stroke-width="1" opacity="0.75" />
			</g>
			<g>
				<title>Anticodon_1 (PF08264)
"Anticodon-binding domain of tRNA"</title>
				<polygon class="PF08264" points="137,28 144,28 152,36 152,44 144,52 137,52" stroke-linejoin="round" width="15" height="24" fill="rgb(85,52,208)" stroke="rgb(68,41,166)" stroke-width="1" opacity="0.75" />
			</g>
		</g>
		<g>
			<title> (ctg2341_8)</title>
			<polygon class=" (ctg2341_8)" points="202,25 186,25 186,10 156,40 186,70 186,55 202,55" fill="rgb(255,255,255)" fill-opacity="1.0" stroke="rgb(0,0,0)" stroke-width="2"  />
		</g>
		<g>
			<title> (ctg2341_9)</title>
			<polygon class=" (ctg2341_9)" points="213,10 238,40 213,70" fill="rgb(255,255,255)" fill-opacity="1.0" stroke="rgb(0,0,0)" stroke-width="2"  />
			<g>
				<title>LolA_like (PF17131)
"Outer membrane lipoprotein-sorting protein"</title>
				<polygon class="PF17131" points="220,28 224,28 234,40 224,52 220,52" stroke-linejoin="round" width="18" height="24" fill="rgb(189,100,83)" stroke="rgb(151,80,66)" stroke-width="1" opacity="0.75" />
			</g>
		</g>
		<g>
			<title> (ctg2341_10)</title>
			<polygon class=" (ctg2341_10)" points="243,40 251,10 251,70" fill="rgb(255,255,255)" fill-opacity="1.0" stroke="rgb(0,0,0)" stroke-width="2"  />
		</g>
		<g>
			<title> (ctg2341_11)</title>
			<polygon class=" (ctg2341_11)" points="251,10 280,40 251,70" fill="rgb(255,255,255)" fill-opacity="1.0" stroke="rgb(0,0,0)" stroke-width="2"  />
		</g>
		<g>
			<title> (ctg2341_12)</title>
			<polygon class=" (ctg2341_12)" points="294,40 309,10 309,70" fill="rgb(255,255,255)" fill-opacity="1.0" stroke="rgb(0,0,0)" stroke-width="2"  />
		</g>
		<g>
			<title> (ctg2341_13)</title>
			<polygon class=" (ctg2341_13)" points="312,10 330,40 312,70" fill="rgb(255,255,255)" fill-opacity="1.0" stroke="rgb(0,0,0)" stroke-width="2"  />
			<g>
				<title>polyprenyl_synt (PF00348)
"Polyprenyl synthetase"</title>
				<polygon class="PF00348" points="312,28 319,28 326,40 319,52 312,52" stroke-linejoin="round" width="16" height="24" fill="rgb(61,206,65)" stroke="rgb(48,164,52)" stroke-width="1" opacity="0.75" />
			</g>
		</g>
		<g>
			<title> (ctg2341_14)</title>
			<polygon class=" (ctg2341_14)" points="343,10 372,40 343,70" fill="rgb(255,255,255)" fill-opacity="1.0" stroke="rgb(0,0,0)" stroke-width="2"  />
			<g>
				<title>SQS_PSY (PF00494)
"Squalene/phytoene synthase"</title>
				<polygon class="PF00494" points="343,28 356,28 368,40 368,40 356,52 343,52" stroke-linejoin="round" width="25" height="24" fill="rgb(178,91,49)" stroke="rgb(142,72,39)" stroke-width="1" opacity="0.75" />
			</g>
		</g>
		<g>
			<title> (ctg2341_15)</title>
			<polygon class=" (ctg2341_15)" points="380,10 408,40 380,70" fill="rgb(255,255,255)" fill-opacity="1.0" stroke="rgb(0,0,0)" stroke-width="2"  />
			<g>
				<title>SQS_PSY (PF00494)
"Squalene/phytoene synthase"</title>
				<polygon class="PF00494" points="381,28 392,28 404,40 392,52 381,52" stroke-linejoin="round" width="25" height="24" fill="rgb(178,91,49)" stroke="rgb(142,72,39)" stroke-width="1" opacity="0.75" />
			</g>
		</g>
		<g>
			<title> (ctg2341_16)</title>
			<polygon class=" (ctg2341_16)" points="408,25 421,25 421,10 451,40 421,70 421,55 408,55" fill="rgb(255,255,255)" fill-opacity="1.0" stroke="rgb(0,0,0)" stroke-width="2"  />
			<g>
				<title>Amino_oxidase (PF01593)
"Flavin containing amine oxidoreductase"</title>
				<polygon class="PF01593" points="410,28 434,28 446,40 434,52 410,52" stroke-linejoin="round" width="40" height="24" fill="rgb(184,74,52)" stroke="rgb(147,59,41)" stroke-width="1" opacity="0.75" />
			</g>
		</g>
		<g>
			<title> (ctg2341_17)</title>
			<polygon class=" (ctg2341_17)" points="569,25 483,25 483,10 453,40 483,70 483,55 569,55" fill="rgb(255,255,255)" fill-opacity="1.0" stroke="rgb(0,0,0)" stroke-width="2"  />
			<g>
				<title>POR (PF01558)
"Pyruvate ferredoxin/flavodoxin oxidoreductase"</title>
				<rect class="PF01558" x="478" y="28" stroke-linejoin="round" width="18" height="24" fill="rgb(89,196,208)" stroke="rgb(71,156,166)" stroke-width="1" opacity="0.75" />
			</g>
			<g>
				<title>TPP_enzyme_C (PF02775)
"Thiamine pyrophosphate enzyme, C-terminal TPP binding domain"</title>
				<rect class="PF02775" x="509" y="28" stroke-linejoin="round" width="14" height="24" fill="rgb(156,179,45)" stroke="rgb(124,143,36)" stroke-width="1" opacity="0.75" />
			</g>
		</g>
		<g>
			<title> (ctg2341_18)</title>
			<polygon class=" (ctg2341_18)" points="582,10 598,40 582,70" fill="rgb(255,255,255)" fill-opacity="1.0" stroke="rgb(0,0,0)" stroke-width="2"  />
		</g>
		<g>
			<title> (ctg2341_19)</title>
			<polygon class=" (ctg2341_19)" points="598,10 601,40 598,70" fill="rgb(255,255,255)" fill-opacity="1.0" stroke="rgb(0,0,0)" stroke-width="2"  />
		</g>
		<g>
			<title> (ctg2341_20)</title>
			<polygon class=" (ctg2341_20)" points="601,25 613,25 613,10 643,40 613,70 613,55 601,55" fill="rgb(255,255,255)" fill-opacity="1.0" stroke="rgb(0,0,0)" stroke-width="2"  />
			<g>
				<title>DUF4147 (PF13660)
"Domain of unknown function (DUF4147)"</title>
				<rect class="PF13660" x="602" y="28" stroke-linejoin="round" width="22" height="24" fill="rgb(74,207,91)" stroke="rgb(59,165,72)" stroke-width="1" opacity="0.75" />
			</g>
			<g>
				<title>MOFRL (PF05161)
"MOFRL family"</title>
				<polygon class="PF05161" points="632,33 639,40 632,47" stroke-linejoin="round" width="10" height="24" fill="rgb(224,222,98)" stroke="rgb(179,177,78)" stroke-width="1" opacity="0.75" />
			</g>
		</g>
		<g>
			<title> (ctg2341_21)</title>
			<polygon class=" (ctg2341_21)" points="645,40 656,10 656,70" fill="rgb(255,255,255)" fill-opacity="1.0" stroke="rgb(0,0,0)" stroke-width="2"  />
			<g>
				<title>TPR_16 (PF13432)
"Tetratricopeptide repeat"</title>
				<polygon class="PF13432" points="650,35 652,28 655,28 655,52 652,52 650,45" stroke-linejoin="round" width="5" height="24" fill="rgb(154,205,86)" stroke="rgb(123,164,68)" stroke-width="1" opacity="0.75" />
			</g>
		</g>
		<g>
			<title> (ctg2341_22)</title>
			<polygon class=" (ctg2341_22)" points="706,25 693,25 693,10 663,40 693,70 693,55 706,55" fill="rgb(255,255,255)" fill-opacity="1.0" stroke="rgb(0,0,0)" stroke-width="2"  />
			<g>
				<title>Aldedh (PF00171)
"Aldehyde dehydrogenase family"</title>
				<polygon class="PF00171" points="667,40 679,28 705,28 705,52 679,52" stroke-linejoin="round" width="42" height="24" fill="rgb(105,213,139)" stroke="rgb(84,170,111)" stroke-width="1" opacity="0.75" />
			</g>
		</g>
		<g>
			<title> (ctg2341_23)</title>
			<polygon class=" (ctg2341_23)" points="718,10 723,40 718,70" fill="rgb(255,255,255)" fill-opacity="1.0" stroke="rgb(0,0,0)" stroke-width="2"  />
			<g>
				<title>Ribosomal_L35p (PF01632)
"Ribosomal protein L35"</title>
				<polygon class="PF01632" points="718,27 720,40 718,53" stroke-linejoin="round" width="5" height="24" fill="rgb(87,201,54)" stroke="rgb(69,160,43)" stroke-width="1" opacity="0.75" />
			</g>
		</g>
		<g>
			<title> (ctg2341_24)</title>
			<polygon class=" (ctg2341_24)" points="724,10 736,40 724,70" fill="rgb(255,255,255)" fill-opacity="1.0" stroke="rgb(0,0,0)" stroke-width="2"  />
			<g>
				<title>Ribosomal_L20 (PF00453)
"Ribosomal protein L20"</title>
				<polygon class="PF00453" points="724,28 727,28 732,40 727,52 724,52" stroke-linejoin="round" width="10" height="24" fill="rgb(221,85,111)" stroke="rgb(176,67,88)" stroke-width="1" opacity="0.75" />
			</g>
		</g>
	</g>
</svg>
