<svg version="1.1" baseProfile="full" xmlns="http://www.w3.org/2000/svg" width="757.5666666666667" height="80">
	<g>
		<line x1="10" y1="40.0" x2="747.5666666666667" y2="40.0" style="stroke:rgb(70,70,70); stroke-width:3 "/>
		<g>
			<title> (ctg1452_6)</title>
			<polygon class=" (ctg1452_6)" points="64,25 57,25 57,10 27,40 57,70 57,55 64,55" fill="rgb(255,255,255)" fill-opacity="1.0" stroke="rgb(0,0,0)" stroke-width="2"  />
			<g>
				<title>QRPTase_N (PF02749)
"Quinolinate phosphoribosyl transferase, N-terminal domain"</title>
				<rect class="PF02749" x="50" y="28" stroke-linejoin="round" width="8" height="24" fill="rgb(75,204,226)" stroke="rgb(60,163,180)" stroke-width="1" opacity="0.75" />
			</g>
		</g>
		<g>
			<title> (ctg1452_7)</title>
			<polygon class=" (ctg1452_7)" points="68,25 72,25 72,10 102,40 72,70 72,55 68,55" fill="rgb(255,255,255)" fill-opacity="1.0" stroke="rgb(0,0,0)" stroke-width="2"  />
		</g>
		<g>
			<title> (ctg1452_8)</title>
			<polygon class=" (ctg1452_8)" points="102,25 110,25 110,10 140,40 110,70 110,55 102,55" fill="rgb(255,255,255)" fill-opacity="1.0" stroke="rgb(0,0,0)" stroke-width="2"  />
		</g>
		<g>
			<title> (ctg1452_9)</title>
			<polygon class=" (ctg1452_9)" points="143,25 151,25 151,10 181,40 151,70 151,55 143,55" fill="rgb(255,255,255)" fill-opacity="1.0" stroke="rgb(0,0,0)" stroke-width="2"  />
		</g>
		<g>
			<title> (ctg1452_10)</title>
			<polygon class=" (ctg1452_10)" points="183,25 196,25 196,10 226,40 196,70 196,55 183,55" fill="rgb(255,255,255)" fill-opacity="1.0" stroke="rgb(0,0,0)" stroke-width="2"  />
		</g>
		<g>
			<title> (ctg1452_11)</title>
			<polygon class=" (ctg1452_11)" points="228,10 231,40 228,70" fill="rgb(255,255,255)" fill-opacity="1.0" stroke="rgb(0,0,0)" stroke-width="2"  />
		</g>
		<g>
			<title> (ctg1452_12)</title>
			<polygon class=" (ctg1452_12)" points="231,25 239,25 239,10 269,40 239,70 239,55 231,55" fill="rgb(255,255,255)" fill-opacity="1.0" stroke="rgb(0,0,0)" stroke-width="2"  />
			<g>
				<title>NHL (PF01436)
"NHL repeat"</title>
				<polygon class="PF01436" points="255,31 257,33 257,47 255,49" stroke-linejoin="round" width="2" height="24" fill="rgb(186,63,63)" stroke="rgb(148,50,50)" stroke-width="1" opacity="0.75" />
			</g>
		</g>
		<g>
			<title> (ctg1452_13)</title>
			<polygon class=" (ctg1452_13)" points="279,25 286,25 286,10 316,40 286,70 286,55 279,55" fill="rgb(255,255,255)" fill-opacity="1.0" stroke="rgb(0,0,0)" stroke-width="2"  />
		</g>
		<g>
			<title> (ctg1452_14)</title>
			<polygon class=" (ctg1452_14)" points="323,10 343,40 323,70" fill="rgb(255,255,255)" fill-opacity="1.0" stroke="rgb(0,0,0)" stroke-width="2"  />
			<g>
				<title>Caroten_synth (PF04240)
"Carotenoid biosynthesis protein"</title>
				<polygon class="PF04240" points="323,28 331,28 339,40 331,52 323,52" stroke-linejoin="round" width="19" height="24" fill="rgb(65,214,190)" stroke="rgb(52,171,152)" stroke-width="1" opacity="0.75" />
			</g>
		</g>
		<g>
			<title> (ctg1452_15)</title>
			<polygon class=" (ctg1452_15)" points="343,25 383,25 383,10 413,40 383,70 383,55 343,55" fill="rgb(255,255,255)" fill-opacity="1.0" stroke="rgb(0,0,0)" stroke-width="2"  />
			<g>
				<title>polyprenyl_synt (PF00348)
"Polyprenyl synthetase"</title>
				<rect class="PF00348" x="351" y="28" stroke-linejoin="round" width="21" height="24" fill="rgb(61,206,65)" stroke="rgb(48,164,52)" stroke-width="1" opacity="0.75" />
			</g>
			<g>
				<title>SQS_PSY (PF00494)
"Squalene/phytoene synthase"</title>
				<polygon class="PF00494" points="384,28 397,28 409,40 397,52 384,52" stroke-linejoin="round" width="26" height="24" fill="rgb(178,91,49)" stroke="rgb(142,72,39)" stroke-width="1" opacity="0.75" />
			</g>
		</g>
		<g>
			<title> (ctg1452_16)</title>
			<polygon class=" (ctg1452_16)" points="413,25 438,25 438,10 468,40 438,70 438,55 413,55" fill="rgb(255,255,255)" fill-opacity="1.0" stroke="rgb(0,0,0)" stroke-width="2"  />
			<g>
				<title>Amino_oxidase (PF01593)
"Flavin containing amine oxidoreductase"</title>
				<rect class="PF01593" x="414" y="28" stroke-linejoin="round" width="26" height="24" fill="rgb(184,74,52)" stroke="rgb(147,59,41)" stroke-width="1" opacity="0.75" />
			</g>
		</g>
		<g>
			<title> (ctg1452_17)</title>
			<polygon class=" (ctg1452_17)" points="468,40 482,10 482,70" fill="rgb(255,255,255)" fill-opacity="1.0" stroke="rgb(0,0,0)" stroke-width="2"  />
		</g>
		<g>
			<title> (ctg1452_18)</title>
			<polygon class=" (ctg1452_18)" points="505,10 510,40 505,70" fill="rgb(255,255,255)" fill-opacity="1.0" stroke="rgb(0,0,0)" stroke-width="2"  />
		</g>
		<g>
			<title> (ctg1452_19)</title>
			<polygon class=" (ctg1452_19)" points="517,25 544,25 544,10 574,40 544,70 544,55 517,55" fill="rgb(255,255,255)" fill-opacity="1.0" stroke="rgb(0,0,0)" stroke-width="2"  />
			<g>
				<title>Amidohydro_3 (PF07969)
"Amidohydrolase family"</title>
				<rect class="PF07969" x="524" y="28" stroke-linejoin="round" width="16" height="24" fill="rgb(228,157,101)" stroke="rgb(182,125,80)" stroke-width="1" opacity="0.75" />
			</g>
			<g>
				<title>Amidohydro_3 (PF07969)
"Amidohydrolase family"</title>
				<polygon class="PF07969" points="552,28 558,28 570,40 558,52 552,52" stroke-linejoin="round" width="19" height="24" fill="rgb(228,157,101)" stroke="rgb(182,125,80)" stroke-width="1" opacity="0.75" />
			</g>
		</g>
		<g>
			<title> (ctg1452_20)</title>
			<polygon class=" (ctg1452_20)" points="575,10 590,40 575,70" fill="rgb(255,255,255)" fill-opacity="1.0" stroke="rgb(0,0,0)" stroke-width="2"  />
		</g>
		<g>
			<title> (ctg1452_21)</title>
			<polygon class=" (ctg1452_21)" points="596,40 618,10 618,70" fill="rgb(255,255,255)" fill-opacity="1.0" stroke="rgb(0,0,0)" stroke-width="2"  />
		</g>
		<g>
			<title> (ctg1452_22)</title>
			<polygon class=" (ctg1452_22)" points="635,25 652,25 652,10 682,40 652,70 652,55 635,55" fill="rgb(255,255,255)" fill-opacity="1.0" stroke="rgb(0,0,0)" stroke-width="2"  />
			<g>
				<title>Aconitase (PF00330)
"Aconitase family (aconitate hydratase)"</title>
				<polygon class="PF00330" points="635,28 665,28 677,40 665,52 635,52" stroke-linejoin="round" width="45" height="24" fill="rgb(180,189,85)" stroke="rgb(144,151,68)" stroke-width="1" opacity="0.75" />
			</g>
		</g>
		<g>
			<title> (ctg1452_23)</title>
			<polygon class=" (ctg1452_23)" points="682,10 701,40 682,70" fill="rgb(255,255,255)" fill-opacity="1.0" stroke="rgb(0,0,0)" stroke-width="2"  />
			<g>
				<title>Aconitase_C (PF00694)
"Aconitase C-terminal domain"</title>
				<polygon class="PF00694" points="682,28 690,28 693,33 693,47 690,52 682,52" stroke-linejoin="round" width="11" height="24" fill="rgb(63,185,92)" stroke="rgb(50,148,73)" stroke-width="1" opacity="0.75" />
			</g>
		</g>
		<g>
			<title> (ctg1452_24)</title>
			<polygon class=" (ctg1452_24)" points="704,25 715,25 715,10 745,40 715,70 715,55 704,55" fill="rgb(255,255,255)" fill-opacity="1.0" stroke="rgb(0,0,0)" stroke-width="2"  />
			<g>
				<title>HMGL-like (PF00682)
"HMGL-like"</title>
				<polygon class="PF00682" points="704,28 729,28 730,29 730,51 729,52 704,52" stroke-linejoin="round" width="26" height="24" fill="rgb(84,228,141)" stroke="rgb(67,182,112)" stroke-width="1" opacity="0.75" />
			</g>
		</g>
	</g>
</svg>
