<svg version="1.1" baseProfile="full" xmlns="http://www.w3.org/2000/svg" width="380.3333333333333" height="80">
	<g>
		<line x1="10" y1="40.0" x2="370.3333333333333" y2="40.0" style="stroke:rgb(70,70,70); stroke-width:3 "/>
		<g>
			<title> (ctg400_66)</title>
			<polygon class=" (ctg400_66)" points="91,25 91,25 91,10 61,40 91,70 91,55 91,55" fill="rgb(255,255,255)" fill-opacity="1.0" stroke="rgb(0,0,0)" stroke-width="2"  />
			<g>
				<title>LpxC (PF03331)
"UDP-3-O-acyl N-acetylglycosamine deacetylase"</title>
				<polygon class="PF03331" points="65,40 77,28 90,28 90,52 77,52" stroke-linejoin="round" width="27" height="24" fill="rgb(189,181,50)" stroke="rgb(151,144,40)" stroke-width="1" opacity="0.75" />
			</g>
		</g>
		<g>
			<title> (ctg400_67)</title>
			<polygon class=" (ctg400_67)" points="96,10 111,40 96,70" fill="rgb(255,255,255)" fill-opacity="1.0" stroke="rgb(0,0,0)" stroke-width="2"  />
			<g>
				<title>TerB (PF05099)
"Tellurite resistance protein TerB"</title>
				<polygon class="PF05099" points="96,28 101,28 107,40 101,52 96,52" stroke-linejoin="round" width="14" height="24" fill="rgb(81,192,110)" stroke="rgb(64,153,88)" stroke-width="1" opacity="0.75" />
			</g>
		</g>
		<g>
			<title> (ctg400_68)</title>
			<polygon class=" (ctg400_68)" points="114,25 120,25 120,10 150,40 120,70 120,55 114,55" fill="rgb(255,255,255)" fill-opacity="1.0" stroke="rgb(0,0,0)" stroke-width="2"  />
			<g>
				<title>Epimerase (PF01370)
"NAD dependent epimerase/dehydratase family"</title>
				<polygon class="PF01370" points="115,28 133,28 141,36 141,44 133,52 115,52" stroke-linejoin="round" width="26" height="24" fill="rgb(98,102,214)" stroke="rgb(78,81,171)" stroke-width="1" opacity="0.75" />
			</g>
		</g>
		<g>
			<title> (ctg400_69)</title>
			<polygon class=" (ctg400_69)" points="151,40 177,10 177,70" fill="rgb(255,255,255)" fill-opacity="1.0" stroke="rgb(0,0,0)" stroke-width="2"  />
			<g>
				<title>DUF2063 (PF09836)
"Putative DNA-binding domain"</title>
				<polygon class="PF09836" points="166,28 166,28 174,28 174,52 166,52 166,52" stroke-linejoin="round" width="8" height="24" fill="rgb(88,194,190)" stroke="rgb(70,155,152)" stroke-width="1" opacity="0.75" />
			</g>
		</g>
		<g>
			<title> (ctg400_70)</title>
			<polygon class=" (ctg400_70)" points="176,40 203,10 203,70" fill="rgb(255,255,255)" fill-opacity="1.0" stroke="rgb(0,0,0)" stroke-width="2"  />
			<g>
				<title>DUF692 (PF05114)
"Protein of unknown function (DUF692)"</title>
				<polygon class="PF05114" points="180,40 191,28 202,28 202,52 191,52" stroke-linejoin="round" width="25" height="24" fill="rgb(63,196,127)" stroke="rgb(50,156,101)" stroke-width="1" opacity="0.75" />
			</g>
		</g>
		<g>
			<title> (ctg400_71)</title>
			<polygon class=" (ctg400_71)" points="207,40 218,10 218,70" fill="rgb(255,255,255)" fill-opacity="1.0" stroke="rgb(0,0,0)" stroke-width="2"  />
		</g>
		<g>
			<title> (ctg400_72)</title>
			<polygon class=" (ctg400_72)" points="358,25 258,25 258,10 228,40 258,70 258,55 358,55" fill="rgb(255,255,255)" fill-opacity="1.0" stroke="rgb(0,0,0)" stroke-width="2"  />
			<g>
				<title>DUF3418 (PF11898)
"Domain of unknown function (DUF3418)"</title>
				<polygon class="PF11898" points="232,40 244,28 287,28 287,52 244,52" stroke-linejoin="round" width="58" height="24" fill="rgb(111,68,209)" stroke="rgb(88,54,167)" stroke-width="1" opacity="0.75" />
			</g>
			<g>
				<title>OB_NTP_bind (PF07717)
"Oligonucleotide/oligosaccharide-binding (OB)-fold"</title>
				<rect class="PF07717" x="289" y="28" stroke-linejoin="round" width="7" height="24" fill="rgb(144,74,228)" stroke="rgb(115,59,182)" stroke-width="1" opacity="0.75" />
			</g>
			<g>
				<title>HA2 (PF04408)
"Helicase associated domain (HA2)"</title>
				<rect class="PF04408" x="300" y="28" stroke-linejoin="round" width="11" height="24" fill="rgb(142,68,179)" stroke="rgb(113,54,143)" stroke-width="1" opacity="0.75" />
			</g>
			<g>
				<title>Helicase_C (PF00271)
"Helicase conserved C-terminal domain"</title>
				<rect class="PF00271" x="318" y="28" stroke-linejoin="round" width="13" height="24" fill="rgb(104,224,158)" stroke="rgb(83,179,126)" stroke-width="1" opacity="0.75" />
			</g>
			<g>
				<title>DEAD (PF00270)
"DEAD/DEAH box helicase"</title>
				<rect class="PF00270" x="334" y="28" stroke-linejoin="round" width="15" height="24" fill="rgb(195,100,62)" stroke="rgb(156,80,49)" stroke-width="1" opacity="0.75" />
			</g>
		</g>
	</g>
</svg>
