<svg version="1.1" baseProfile="full" xmlns="http://www.w3.org/2000/svg" width="1101.2333333333333" height="80">
	<g>
		<line x1="10" y1="40.0" x2="1091.2333333333333" y2="40.0" style="stroke:rgb(70,70,70); stroke-width:3 "/>
		<g>
			<title> (ctg687_31)</title>
			<polygon class=" (ctg687_31)" points="28,40 45,10 45,70" fill="rgb(255,255,255)" fill-opacity="1.0" stroke="rgb(0,0,0)" stroke-width="2"  />
			<g>
				<title>Cytochrom_C (PF00034)
"Cytochrome c"</title>
				<polygon class="PF00034" points="33,37 38,28 41,28 41,52 38,52 33,43" stroke-linejoin="round" width="8" height="24" fill="rgb(130,184,61)" stroke="rgb(104,147,48)" stroke-width="1" opacity="0.75" />
			</g>
		</g>
		<g>
			<title> (ctg687_32)</title>
			<polygon class=" (ctg687_32)" points="163,25 77,25 77,10 47,40 77,70 77,55 163,55" fill="rgb(255,255,255)" fill-opacity="1.0" stroke="rgb(0,0,0)" stroke-width="2"  />
			<g>
				<title>PKD (PF00801)
"PKD domain"</title>
				<polygon class="PF00801" points="51,40 53,38 53,42" stroke-linejoin="round" width="6" height="24" fill="rgb(197,85,172)" stroke="rgb(157,68,137)" stroke-width="1" opacity="0.75" />
			</g>
			<g>
				<title>GSDH (PF07995)
"Glucose / Sorbosone dehydrogenase"</title>
				<rect class="PF07995" x="64" y="28" stroke-linejoin="round" width="31" height="24" fill="rgb(199,57,124)" stroke="rgb(159,45,99)" stroke-width="1" opacity="0.75" />
			</g>
			<g>
				<title>ThuA (PF06283)
"Trehalose utilisation"</title>
				<rect class="PF06283" x="97" y="28" stroke-linejoin="round" width="16" height="24" fill="rgb(186,137,92)" stroke="rgb(148,109,73)" stroke-width="1" opacity="0.75" />
			</g>
			<g>
				<title>DUF1080 (PF06439)
"Domain of Unknown Function (DUF1080)"</title>
				<rect class="PF06439" x="143" y="28" stroke-linejoin="round" width="17" height="24" fill="rgb(136,84,203)" stroke="rgb(108,67,162)" stroke-width="1" opacity="0.75" />
			</g>
		</g>
		<g>
			<title> (ctg687_33)</title>
			<polygon class=" (ctg687_33)" points="163,40 189,10 189,70" fill="rgb(255,255,255)" fill-opacity="1.0" stroke="rgb(0,0,0)" stroke-width="2"  />
		</g>
		<g>
			<title> (ctg687_34)</title>
			<polygon class=" (ctg687_34)" points="191,40 216,10 216,70" fill="rgb(255,255,255)" fill-opacity="1.0" stroke="rgb(0,0,0)" stroke-width="2"  />
			<g>
				<title>Creatininase (PF02633)
"Creatinine amidohydrolase"</title>
				<polygon class="PF02633" points="195,40 205,28 215,28 215,52 205,52" stroke-linejoin="round" width="23" height="24" fill="rgb(216,60,128)" stroke="rgb(172,47,102)" stroke-width="1" opacity="0.75" />
			</g>
		</g>
		<g>
			<title> (ctg687_35)</title>
			<polygon class=" (ctg687_35)" points="217,40 232,10 232,70" fill="rgb(255,255,255)" fill-opacity="1.0" stroke="rgb(0,0,0)" stroke-width="2"  />
		</g>
		<g>
			<title> (ctg687_36)</title>
			<polygon class=" (ctg687_36)" points="296,25 287,25 287,10 257,40 287,70 287,55 296,55" fill="rgb(255,255,255)" fill-opacity="1.0" stroke="rgb(0,0,0)" stroke-width="2"  />
		</g>
		<g>
			<title> (ctg687_37)</title>
			<polygon class=" (ctg687_37)" points="377,25 326,25 326,10 296,40 326,70 326,55 377,55" fill="rgb(255,255,255)" fill-opacity="1.0" stroke="rgb(0,0,0)" stroke-width="2"  />
			<g>
				<title>HATPase_c_3 (PF13589)
"Histidine kinase-, DNA gyrase B-, and HSP90-like ATPase"</title>
				<rect class="PF13589" x="360" y="28" stroke-linejoin="round" width="13" height="24" fill="rgb(220,68,225)" stroke="rgb(176,54,180)" stroke-width="1" opacity="0.75" />
			</g>
		</g>
		<g>
			<title> (ctg687_38)</title>
			<polygon class=" (ctg687_38)" points="406,25 416,25 416,10 446,40 416,70 416,55 406,55" fill="rgb(255,255,255)" fill-opacity="1.0" stroke="rgb(0,0,0)" stroke-width="2"  />
			<g>
				<title>Mrr_cat (PF04471)
"Restriction endonuclease"</title>
				<polygon class="PF04471" points="431,29 442,40 442,40 431,51" stroke-linejoin="round" width="11" height="24" fill="rgb(58,187,128)" stroke="rgb(46,149,102)" stroke-width="1" opacity="0.75" />
			</g>
		</g>
		<g>
			<title> (ctg687_39)</title>
			<polygon class=" (ctg687_39)" points="462,25 477,25 477,10 507,40 477,70 477,55 462,55" fill="rgb(255,255,255)" fill-opacity="1.0" stroke="rgb(0,0,0)" stroke-width="2"  />
			<g>
				<title>Sugar_tr (PF00083)
"Sugar (and other) transporter"</title>
				<polygon class="PF00083" points="462,28 491,28 503,40 491,52 462,52" stroke-linejoin="round" width="44" height="24" fill="rgb(48,186,105)" stroke="rgb(38,148,84)" stroke-width="1" opacity="0.75" />
			</g>
		</g>
		<g>
			<title> (ctg687_40)</title>
			<polygon class=" (ctg687_40)" points="507,25 528,25 528,10 558,40 528,70 528,55 507,55" fill="rgb(255,255,255)" fill-opacity="1.0" stroke="rgb(0,0,0)" stroke-width="2"  />
			<g>
				<title>SSF (PF00474)
"Sodium:solute symporter family"</title>
				<polygon class="PF00474" points="510,28 542,28 551,37 551,43 542,52 510,52" stroke-linejoin="round" width="41" height="24" fill="rgb(49,186,178)" stroke="rgb(39,148,142)" stroke-width="1" opacity="0.75" />
			</g>
		</g>
		<g>
			<title> (ctg687_41)</title>
			<polygon class=" (ctg687_41)" points="559,25 607,25 607,10 637,40 607,70 607,55 559,55" fill="rgb(255,255,255)" fill-opacity="1.0" stroke="rgb(0,0,0)" stroke-width="2"  />
			<g>
				<title>7TMR-HDED (PF07697)
"7TM-HD extracellular"</title>
				<rect class="PF07697" x="564" y="28" stroke-linejoin="round" width="28" height="24" fill="rgb(93,227,169)" stroke="rgb(74,181,135)" stroke-width="1" opacity="0.75" />
			</g>
			<g>
				<title>7TM-7TMR_HD (PF07698)
"7TM receptor with intracellular HD hydrolase"</title>
				<rect class="PF07698" x="594" y="28" stroke-linejoin="round" width="18" height="24" fill="rgb(202,90,177)" stroke="rgb(161,72,141)" stroke-width="1" opacity="0.75" />
			</g>
			<g>
				<title>HD (PF01966)
"HD domain"</title>
				<polygon class="PF01966" points="615,28 620,28 629,37 629,43 620,52 615,52" stroke-linejoin="round" width="14" height="24" fill="rgb(92,193,119)" stroke="rgb(73,154,95)" stroke-width="1" opacity="0.75" />
			</g>
		</g>
		<g>
			<title> (ctg687_42)</title>
			<polygon class=" (ctg687_42)" points="650,10 661,40 650,70" fill="rgb(255,255,255)" fill-opacity="1.0" stroke="rgb(0,0,0)" stroke-width="2"  />
			<g>
				<title>STAS (PF01740)
"STAS domain"</title>
				<polygon class="PF01740" points="650,28 653,28 658,40 653,52 650,52" stroke-linejoin="round" width="10" height="24" fill="rgb(219,58,116)" stroke="rgb(175,46,92)" stroke-width="1" opacity="0.75" />
			</g>
		</g>
		<g>
			<title> (ctg687_43)</title>
			<polygon class=" (ctg687_43)" points="663,10 672,40 663,70" fill="rgb(255,255,255)" fill-opacity="1.0" stroke="rgb(0,0,0)" stroke-width="2"  />
		</g>
		<g>
			<title> (ctg687_44)</title>
			<polygon class=" (ctg687_44)" points="676,25 882,25 882,10 912,40 882,70 882,55 676,55" fill="rgb(255,255,255)" fill-opacity="1.0" stroke="rgb(0,0,0)" stroke-width="2"  />
			<g>
				<title>ketoacyl-synt (PF00109)
"Beta-ketoacyl synthase, N-terminal domain"</title>
				<rect class="PF00109" x="676" y="28" stroke-linejoin="round" width="24" height="24" fill="rgb(112,116,228)" stroke="rgb(89,92,182)" stroke-width="1" opacity="0.75" />
			</g>
			<g>
				<title>Ketoacyl-synt_C (PF02801)
"Beta-ketoacyl synthase, C-terminal domain"</title>
				<rect class="PF02801" x="702" y="28" stroke-linejoin="round" width="12" height="24" fill="rgb(215,78,102)" stroke="rgb(172,62,81)" stroke-width="1" opacity="0.75" />
			</g>
			<g>
				<title>KAsynt_C_assoc (PF16197)
"Ketoacyl-synthetase C-terminal extension"</title>
				<rect class="PF16197" x="715" y="28" stroke-linejoin="round" width="11" height="24" fill="rgb(240,150,172)" stroke="rgb(192,120,137)" stroke-width="1" opacity="0.75" />
			</g>
			<g>
				<title>Acyl_transf_1 (PF00698)
"Acyl transferase domain"</title>
				<rect class="PF00698" x="730" y="28" stroke-linejoin="round" width="32" height="24" fill="rgb(59,176,209)" stroke="rgb(47,140,167)" stroke-width="1" opacity="0.75" />
			</g>
			<g>
				<title>PS-DH (PF14765)
"Polyketide synthase dehydratase"</title>
				<rect class="PF14765" x="767" y="28" stroke-linejoin="round" width="29" height="24" fill="rgb(173,56,182)" stroke="rgb(138,44,145)" stroke-width="1" opacity="0.75" />
			</g>
			<g>
				<title>ADH_N (PF08240)
"Alcohol dehydrogenase GroES-like domain"</title>
				<rect class="PF08240" x="839" y="28" stroke-linejoin="round" width="7" height="24" fill="rgb(211,65,138)" stroke="rgb(168,51,110)" stroke-width="1" opacity="0.75" />
			</g>
			<g>
				<title>ADH_zinc_N (PF00107)
"Zinc-binding dehydrogenase"</title>
				<rect class="PF00107" x="852" y="28" stroke-linejoin="round" width="12" height="24" fill="rgb(81,108,215)" stroke="rgb(64,86,172)" stroke-width="1" opacity="0.75" />
			</g>
			<g>
				<title>KR (PF08659)
"KR domain"</title>
				<rect class="PF08659" x="871" y="28" stroke-linejoin="round" width="18" height="24" fill="rgb(66,209,188)" stroke="rgb(52,167,150)" stroke-width="1" opacity="0.75" />
			</g>
			<g>
				<title>PP-binding (PF00550)
"Phosphopantetheine attachment site"</title>
				<polygon class="PF00550" points="898,30 904,36 904,44 898,50" stroke-linejoin="round" width="6" height="24" fill="rgb(103,191,88)" stroke="rgb(82,152,70)" stroke-width="1" opacity="0.75" />
			</g>
		</g>
		<g>
			<title> (ctg687_45)</title>
			<polygon class=" (ctg687_45)" points="913,25 940,25 940,10 970,40 940,70 940,55 913,55" fill="rgb(255,255,255)" fill-opacity="1.0" stroke="rgb(0,0,0)" stroke-width="2"  />
			<g>
				<title>B12-binding (PF02310)
"B12 binding domain"</title>
				<rect class="PF02310" x="915" y="28" stroke-linejoin="round" width="10" height="24" fill="rgb(145,190,60)" stroke="rgb(115,152,48)" stroke-width="1" opacity="0.75" />
			</g>
			<g>
				<title>Radical_SAM (PF04055)
"Radical SAM superfamily"</title>
				<rect class="PF04055" x="930" y="28" stroke-linejoin="round" width="17" height="24" fill="rgb(149,56,222)" stroke="rgb(119,44,177)" stroke-width="1" opacity="0.75" />
			</g>
			<g>
				<title>DUF4070 (PF13282)
"Domain of unknown function (DUF4070)"</title>
				<polygon class="PF13282" points="949,28 954,28 962,36 962,44 954,52 949,52" stroke-linejoin="round" width="13" height="24" fill="rgb(104,216,68)" stroke="rgb(83,172,54)" stroke-width="1" opacity="0.75" />
			</g>
		</g>
		<g>
			<title> (ctg687_46)</title>
			<polygon class=" (ctg687_46)" points="972,25 1025,25 1025,10 1055,40 1025,70 1025,55 972,55" fill="rgb(255,255,255)" fill-opacity="1.0" stroke="rgb(0,0,0)" stroke-width="2"  />
			<g>
				<title>NAD_binding_4 (PF07993)
"Male sterility protein"</title>
				<rect class="PF07993" x="977" y="28" stroke-linejoin="round" width="25" height="24" fill="rgb(100,212,204)" stroke="rgb(80,169,163)" stroke-width="1" opacity="0.75" />
			</g>
			<g>
				<title>Sulfotransfer_3 (PF13469)
"Sulfotransferase family"</title>
				<polygon class="PF13469" points="1023,28 1039,28 1048,37 1048,43 1039,52 1023,52" stroke-linejoin="round" width="25" height="24" fill="rgb(59,182,84)" stroke="rgb(47,145,67)" stroke-width="1" opacity="0.75" />
			</g>
		</g>
		<g>
			<title> (ctg687_47)</title>
			<polygon class=" (ctg687_47)" points="1063,40 1070,10 1070,70" fill="rgb(255,255,255)" fill-opacity="1.0" stroke="rgb(0,0,0)" stroke-width="2"  />
		</g>
		<g>
			<title> (ctg687_48)</title>
			<polygon class=" (ctg687_48)" points="1070,40 1082,10 1082,70" fill="rgb(255,255,255)" fill-opacity="1.0" stroke="rgb(0,0,0)" stroke-width="2"  />
			<g>
				<title>DUF262 (PF03235)
"Protein of unknown function DUF262"</title>
				<polygon class="PF03235" points="1073,40 1078,28 1081,28 1081,52 1078,52" stroke-linejoin="round" width="11" height="24" fill="rgb(101,154,211)" stroke="rgb(80,123,168)" stroke-width="1" opacity="0.75" />
			</g>
		</g>
		<g>
			<title> (ctg687_49)</title>
			<polygon class=" (ctg687_49)" points="1084,40 1091,10 1091,70" fill="rgb(255,255,255)" fill-opacity="1.0" stroke="rgb(0,0,0)" stroke-width="2"  />
		</g>
	</g>
</svg>
