<svg version="1.1" baseProfile="full" xmlns="http://www.w3.org/2000/svg" width="1223.5666666666666" height="80">
	<g>
		<line x1="10" y1="40.0" x2="1213.5666666666666" y2="40.0" style="stroke:rgb(70,70,70); stroke-width:3 "/>
		<g>
			<title> (ctg240_51)</title>
			<polygon class=" (ctg240_51)" points="90,10 115,40 90,70" fill="rgb(255,255,255)" fill-opacity="1.0" stroke="rgb(0,0,0)" stroke-width="2"  />
		</g>
		<g>
			<title> (ctg240_52)</title>
			<polygon class=" (ctg240_52)" points="116,10 139,40 116,70" fill="rgb(255,255,255)" fill-opacity="1.0" stroke="rgb(0,0,0)" stroke-width="2"  />
		</g>
		<g>
			<title> (ctg240_53)</title>
			<polygon class=" (ctg240_53)" points="139,10 156,40 139,70" fill="rgb(255,255,255)" fill-opacity="1.0" stroke="rgb(0,0,0)" stroke-width="2"  />
		</g>
		<g>
			<title> (ctg240_54)</title>
			<polygon class=" (ctg240_54)" points="159,10 165,40 159,70" fill="rgb(255,255,255)" fill-opacity="1.0" stroke="rgb(0,0,0)" stroke-width="2"  />
		</g>
		<g>
			<title> (ctg240_55)</title>
			<polygon class=" (ctg240_55)" points="177,10 200,40 177,70" fill="rgb(255,255,255)" fill-opacity="1.0" stroke="rgb(0,0,0)" stroke-width="2"  />
		</g>
		<g>
			<title> (ctg240_56)</title>
			<polygon class=" (ctg240_56)" points="376,25 237,25 237,10 207,40 237,70 237,55 376,55" fill="rgb(255,255,255)" fill-opacity="1.0" stroke="rgb(0,0,0)" stroke-width="2"  />
			<g>
				<title>Sigma54_activat (PF00158)
"Sigma-54 interaction domain"</title>
				<rect class="PF00158" x="225" y="28" stroke-linejoin="round" width="16" height="24" fill="rgb(101,145,216)" stroke="rgb(80,115,172)" stroke-width="1" opacity="0.75" />
			</g>
			<g>
				<title>TPR_MalT (PF17874)
"MalT-like TPR region"</title>
				<rect class="PF17874" x="259" y="28" stroke-linejoin="round" width="17" height="24" fill="rgb(90,134,202)" stroke="rgb(72,107,161)" stroke-width="1" opacity="0.75" />
			</g>
			<g>
				<title>AAA_16 (PF13191)
"AAA ATPase domain"</title>
				<rect class="PF13191" x="335" y="28" stroke-linejoin="round" width="14" height="24" fill="rgb(186,102,77)" stroke="rgb(148,81,61)" stroke-width="1" opacity="0.75" />
			</g>
			<g>
				<title>Pkinase (PF00069)
"Protein kinase domain"</title>
				<rect class="PF00069" x="351" y="28" stroke-linejoin="round" width="19" height="24" fill="rgb(104,187,65)" stroke="rgb(83,149,51)" stroke-width="1" opacity="0.75" />
			</g>
		</g>
		<g>
			<title> (ctg240_57)</title>
			<polygon class=" (ctg240_57)" points="387,10 415,40 387,70" fill="rgb(255,255,255)" fill-opacity="1.0" stroke="rgb(0,0,0)" stroke-width="2"  />
			<g>
				<title>Glycos_transf_2 (PF00535)
"Glycosyl transferase family 2"</title>
				<polygon class="PF00535" points="387,28 399,28 402,30 402,50 399,52 387,52" stroke-linejoin="round" width="15" height="24" fill="rgb(224,122,96)" stroke="rgb(179,97,76)" stroke-width="1" opacity="0.75" />
			</g>
		</g>
		<g>
			<title> (ctg240_58)</title>
			<polygon class=" (ctg240_58)" points="450,25 446,25 446,10 416,40 446,70 446,55 450,55" fill="rgb(255,255,255)" fill-opacity="1.0" stroke="rgb(0,0,0)" stroke-width="2"  />
			<g>
				<title>VWA_2 (PF13519)
"von Willebrand factor type A domain"</title>
				<polygon class="PF13519" points="431,29 432,28 441,28 441,52 432,52 431,51" stroke-linejoin="round" width="10" height="24" fill="rgb(58,213,93)" stroke="rgb(46,170,74)" stroke-width="1" opacity="0.75" />
			</g>
		</g>
		<g>
			<title> (ctg240_59)</title>
			<polygon class=" (ctg240_59)" points="482,25 480,25 480,10 450,40 480,70 480,55 482,55" fill="rgb(255,255,255)" fill-opacity="1.0" stroke="rgb(0,0,0)" stroke-width="2"  />
			<g>
				<title>PseudoU_synth_2 (PF00849)
"RNA pseudouridylate synthase"</title>
				<polygon class="PF00849" points="457,37 466,28 472,28 472,52 466,52 457,43" stroke-linejoin="round" width="15" height="24" fill="rgb(226,76,228)" stroke="rgb(180,60,182)" stroke-width="1" opacity="0.75" />
			</g>
			<g>
				<title>S4 (PF01479)
"S4 domain"</title>
				<rect class="PF01479" x="475" y="28" stroke-linejoin="round" width="4" height="24" fill="rgb(93,184,76)" stroke="rgb(74,147,60)" stroke-width="1" opacity="0.75" />
			</g>
		</g>
		<g>
			<title> (ctg240_60)</title>
			<polygon class=" (ctg240_60)" points="482,40 508,10 508,70" fill="rgb(255,255,255)" fill-opacity="1.0" stroke="rgb(0,0,0)" stroke-width="2"  />
			<g>
				<title>LGT (PF01790)
"Prolipoprotein diacylglyceryl transferase"</title>
				<polygon class="PF01790" points="486,40 497,28 508,28 508,52 497,52" stroke-linejoin="round" width="25" height="24" fill="rgb(140,56,206)" stroke="rgb(112,44,164)" stroke-width="1" opacity="0.75" />
			</g>
		</g>
		<g>
			<title> (ctg240_61)</title>
			<polygon class=" (ctg240_61)" points="585,25 546,25 546,10 516,40 546,70 546,55 585,55" fill="rgb(255,255,255)" fill-opacity="1.0" stroke="rgb(0,0,0)" stroke-width="2"  />
			<g>
				<title>EFG_C (PF00679)
"Elongation factor G C-terminus"</title>
				<polygon class="PF00679" points="520,40 525,35 525,45" stroke-linejoin="round" width="8" height="24" fill="rgb(136,208,97)" stroke="rgb(108,166,77)" stroke-width="1" opacity="0.75" />
			</g>
			<g>
				<title>EFG_IV (PF03764)
"Elongation factor G, domain IV"</title>
				<polygon class="PF03764" points="525,35 532,28 536,28 536,52 532,52 525,45" stroke-linejoin="round" width="11" height="24" fill="rgb(175,56,200)" stroke="rgb(140,44,160)" stroke-width="1" opacity="0.75" />
			</g>
			<g>
				<title>EFG_II (PF14492)
"Elongation Factor G, domain II"</title>
				<rect class="PF14492" x="537" y="28" stroke-linejoin="round" width="7" height="24" fill="rgb(217,213,86)" stroke="rgb(173,170,68)" stroke-width="1" opacity="0.75" />
			</g>
			<g>
				<title>GTP_EFTU (PF00009)
"Elongation factor Tu GTP binding domain"</title>
				<rect class="PF00009" x="557" y="28" stroke-linejoin="round" width="27" height="24" fill="rgb(196,118,83)" stroke="rgb(156,94,66)" stroke-width="1" opacity="0.75" />
			</g>
		</g>
		<g>
			<title> (ctg240_62)</title>
			<polygon class=" (ctg240_62)" points="590,10 619,40 590,70" fill="rgb(255,255,255)" fill-opacity="1.0" stroke="rgb(0,0,0)" stroke-width="2"  />
			<g>
				<title>Peptidase_M28 (PF04389)
"Peptidase family M28"</title>
				<polygon class="PF04389" points="598,28 603,28 615,40 603,52 598,52" stroke-linejoin="round" width="20" height="24" fill="rgb(190,82,105)" stroke="rgb(152,65,84)" stroke-width="1" opacity="0.75" />
			</g>
		</g>
		<g>
			<title> (ctg240_63)</title>
			<polygon class=" (ctg240_63)" points="620,10 634,40 620,70" fill="rgb(255,255,255)" fill-opacity="1.0" stroke="rgb(0,0,0)" stroke-width="2"  />
			<g>
				<title>FGE-sulfatase (PF03781)
"Sulfatase-modifying factor enzyme 1"</title>
				<polygon class="PF03781" points="622,28 625,28 628,34 628,46 625,52 622,52" stroke-linejoin="round" width="6" height="24" fill="rgb(206,81,170)" stroke="rgb(164,64,136)" stroke-width="1" opacity="0.75" />
			</g>
		</g>
		<g>
			<title> (ctg240_64)</title>
			<polygon class=" (ctg240_64)" points="675,25 666,25 666,10 636,40 666,70 666,55 675,55" fill="rgb(255,255,255)" fill-opacity="1.0" stroke="rgb(0,0,0)" stroke-width="2"  />
			<g>
				<title>Acetyltransf_9 (PF13527)
"Acetyltransferase (GNAT) domain"</title>
				<rect class="PF13527" x="661" y="28" stroke-linejoin="round" width="13" height="24" fill="rgb(157,184,47)" stroke="rgb(125,147,37)" stroke-width="1" opacity="0.75" />
			</g>
		</g>
		<g>
			<title> (ctg240_65)</title>
			<polygon class=" (ctg240_65)" points="761,25 706,25 706,10 676,40 706,70 706,55 761,55" fill="rgb(255,255,255)" fill-opacity="1.0" stroke="rgb(0,0,0)" stroke-width="2"  />
			<g>
				<title>Acyltransferase (PF01553)
"Acyltransferase"</title>
				<polygon class="PF01553" points="681,39 692,28 695,28 695,52 692,52 681,41" stroke-linejoin="round" width="14" height="24" fill="rgb(87,176,216)" stroke="rgb(69,140,172)" stroke-width="1" opacity="0.75" />
			</g>
			<g>
				<title>PP-binding (PF00550)
"Phosphopantetheine attachment site"</title>
				<rect class="PF00550" x="702" y="28" stroke-linejoin="round" width="6" height="24" fill="rgb(103,191,88)" stroke="rgb(82,152,70)" stroke-width="1" opacity="0.75" />
			</g>
			<g>
				<title>AMP-binding (PF00501)
"AMP-binding enzyme"</title>
				<rect class="PF00501" x="720" y="28" stroke-linejoin="round" width="40" height="24" fill="rgb(60,217,223)" stroke="rgb(48,173,178)" stroke-width="1" opacity="0.75" />
			</g>
		</g>
		<g>
			<title> (ctg240_66)</title>
			<polygon class=" (ctg240_66)" points="764,40 780,10 780,70" fill="rgb(255,255,255)" fill-opacity="1.0" stroke="rgb(0,0,0)" stroke-width="2"  />
		</g>
		<g>
			<title> (ctg240_67)</title>
			<polygon class=" (ctg240_67)" points="783,10 790,40 783,70" fill="rgb(255,255,255)" fill-opacity="1.0" stroke="rgb(0,0,0)" stroke-width="2"  />
		</g>
		<g>
			<title> (ctg240_68)</title>
			<polygon class=" (ctg240_68)" points="790,25 792,25 792,10 822,40 792,70 792,55 790,55" fill="rgb(255,255,255)" fill-opacity="1.0" stroke="rgb(0,0,0)" stroke-width="2"  />
			<g>
				<title>ADH_N (PF08240)
"Alcohol dehydrogenase GroES-like domain"</title>
				<rect class="PF08240" x="792" y="28" stroke-linejoin="round" width="10" height="24" fill="rgb(211,65,138)" stroke="rgb(168,51,110)" stroke-width="1" opacity="0.75" />
			</g>
			<g>
				<title>ADH_zinc_N (PF00107)
"Zinc-binding dehydrogenase"</title>
				<polygon class="PF00107" points="804,28 806,28 816,38 816,42 806,52 804,52" stroke-linejoin="round" width="12" height="24" fill="rgb(81,108,215)" stroke="rgb(64,86,172)" stroke-width="1" opacity="0.75" />
			</g>
		</g>
		<g>
			<title> (ctg240_69)</title>
			<polygon class=" (ctg240_69)" points="824,25 825,25 825,10 855,40 825,70 825,55 824,55" fill="rgb(255,255,255)" fill-opacity="1.0" stroke="rgb(0,0,0)" stroke-width="2"  />
			<g>
				<title>Polysacc_deac_1 (PF01522)
"Polysaccharide deacetylase"</title>
				<polygon class="PF01522" points="826,28 838,28 840,30 840,50 838,52 826,52" stroke-linejoin="round" width="14" height="24" fill="rgb(56,221,58)" stroke="rgb(44,176,46)" stroke-width="1" opacity="0.75" />
			</g>
		</g>
		<g>
			<title> (ctg240_70)</title>
			<polygon class=" (ctg240_70)" points="856,40 885,10 885,70" fill="rgb(255,255,255)" fill-opacity="1.0" stroke="rgb(0,0,0)" stroke-width="2"  />
			<g>
				<title>DHDPS (PF00701)
"Dihydrodipicolinate synthetase family"</title>
				<polygon class="PF00701" points="860,40 872,28 884,28 884,52 872,52" stroke-linejoin="round" width="28" height="24" fill="rgb(80,204,82)" stroke="rgb(64,163,65)" stroke-width="1" opacity="0.75" />
			</g>
		</g>
		<g>
			<title> (ctg240_71)</title>
			<polygon class=" (ctg240_71)" points="896,25 899,25 899,10 929,40 899,70 899,55 896,55" fill="rgb(255,255,255)" fill-opacity="1.0" stroke="rgb(0,0,0)" stroke-width="2"  />
			<g>
				<title>HTH_1 (PF00126)
"Bacterial regulatory helix-turn-helix protein, lysR family"</title>
				<rect class="PF00126" x="896" y="28" stroke-linejoin="round" width="5" height="24" fill="rgb(125,227,79)" stroke="rgb(99,181,63)" stroke-width="1" opacity="0.75" />
			</g>
			<g>
				<title>LysR_substrate (PF03466)
"LysR substrate binding domain"</title>
				<polygon class="PF03466" points="904,28 913,28 924,39 924,41 913,52 904,52" stroke-linejoin="round" width="20" height="24" fill="rgb(55,136,195)" stroke="rgb(44,108,156)" stroke-width="1" opacity="0.75" />
			</g>
		</g>
		<g>
			<title> (ctg240_72)</title>
			<polygon class=" (ctg240_72)" points="929,25 1052,25 1052,10 1082,40 1052,70 1052,55 929,55" fill="rgb(255,255,255)" fill-opacity="1.0" stroke="rgb(0,0,0)" stroke-width="2"  />
			<g>
				<title>GATase_2 (PF00310)
"Glutamine amidotransferases class-II"</title>
				<rect class="PF00310" x="931" y="28" stroke-linejoin="round" width="42" height="24" fill="rgb(195,63,68)" stroke="rgb(156,50,54)" stroke-width="1" opacity="0.75" />
			</g>
			<g>
				<title>Glu_syn_central (PF04898)
"Glutamate synthase central domain"</title>
				<rect class="PF04898" x="976" y="28" stroke-linejoin="round" width="28" height="24" fill="rgb(119,210,66)" stroke="rgb(95,168,52)" stroke-width="1" opacity="0.75" />
			</g>
			<g>
				<title>Glu_synthase (PF01645)
"Conserved region in glutamate synthase"</title>
				<rect class="PF01645" x="1010" y="28" stroke-linejoin="round" width="37" height="24" fill="rgb(97,123,226)" stroke="rgb(77,98,180)" stroke-width="1" opacity="0.75" />
			</g>
			<g>
				<title>GXGXG (PF01493)
"GXGXG motif"</title>
				<polygon class="PF01493" points="1055,28 1066,28 1073,35 1073,45 1066,52 1055,52" stroke-linejoin="round" width="18" height="24" fill="rgb(197,218,88)" stroke="rgb(157,174,70)" stroke-width="1" opacity="0.75" />
			</g>
		</g>
		<g>
			<title> (ctg240_73)</title>
			<polygon class=" (ctg240_73)" points="1084,25 1103,25 1103,10 1133,40 1103,70 1103,55 1084,55" fill="rgb(255,255,255)" fill-opacity="1.0" stroke="rgb(0,0,0)" stroke-width="2"  />
			<g>
				<title>Fer4_20 (PF14691)
"Dihydroprymidine dehydrogenase domain II, 4Fe-4S cluster"</title>
				<rect class="PF14691" x="1086" y="28" stroke-linejoin="round" width="11" height="24" fill="rgb(180,85,207)" stroke="rgb(144,67,165)" stroke-width="1" opacity="0.75" />
			</g>
			<g>
				<title>Pyr_redox_2 (PF07992)
"Pyridine nucleotide-disulphide oxidoreductase"</title>
				<polygon class="PF07992" points="1099,28 1117,28 1129,40 1117,52 1099,52" stroke-linejoin="round" width="32" height="24" fill="rgb(83,223,167)" stroke="rgb(66,178,133)" stroke-width="1" opacity="0.75" />
			</g>
		</g>
		<g>
			<title> (ctg240_74)</title>
			<polygon class=" (ctg240_74)" points="1135,10 1159,40 1135,70" fill="rgb(255,255,255)" fill-opacity="1.0" stroke="rgb(0,0,0)" stroke-width="2"  />
			<g>
				<title>DDE_Tnp_1 (PF01609)
"Transposase DDE domain"</title>
				<polygon class="PF01609" points="1135,28 1145,28 1148,32 1148,48 1145,52 1135,52" stroke-linejoin="round" width="13" height="24" fill="rgb(229,102,99)" stroke="rgb(183,81,79)" stroke-width="1" opacity="0.75" />
			</g>
		</g>
		<g>
			<title> (ctg240_75)</title>
			<polygon class=" (ctg240_75)" points="1161,10 1164,40 1161,70" fill="rgb(255,255,255)" fill-opacity="1.0" stroke="rgb(0,0,0)" stroke-width="2"  />
		</g>
		<g>
			<title> (ctg240_76)</title>
			<polygon class=" (ctg240_76)" points="1171,40 1197,10 1197,70" fill="rgb(255,255,255)" fill-opacity="1.0" stroke="rgb(0,0,0)" stroke-width="2"  />
			<g>
				<title>PIG-L (PF02585)
"GlcNAc-PI de-N-acetylase"</title>
				<polygon class="PF02585" points="1182,32 1186,28 1195,28 1195,52 1186,52 1182,48" stroke-linejoin="round" width="13" height="24" fill="rgb(97,215,95)" stroke="rgb(77,172,76)" stroke-width="1" opacity="0.75" />
			</g>
		</g>
		<g>
			<title> (ctg240_77)</title>
			<polygon class=" (ctg240_77)" points="1206,10 1212,40 1206,70" fill="rgb(255,255,255)" fill-opacity="1.0" stroke="rgb(0,0,0)" stroke-width="2"  />
		</g>
	</g>
</svg>
