<svg version="1.1" baseProfile="full" xmlns="http://www.w3.org/2000/svg" width="257.66666666666663" height="80">
	<g>
		<line x1="10" y1="40.0" x2="247.66666666666666" y2="40.0" style="stroke:rgb(70,70,70); stroke-width:3 "/>
		<g>
			<title> (ctg10454_1)</title>
			<polygon class=" (ctg10454_1)" points="22,40 34,10 34,70" fill="rgb(255,255,255)" fill-opacity="1.0" stroke="rgb(0,0,0)" stroke-width="2"  />
			<g>
				<title>FolB (PF02152)
"Dihydroneopterin aldolase"</title>
				<polygon class="PF02152" points="25,40 30,28 33,28 33,52 30,52" stroke-linejoin="round" width="11" height="24" fill="rgb(113,204,65)" stroke="rgb(90,163,52)" stroke-width="1" opacity="0.75" />
			</g>
		</g>
		<g>
			<title> (ctg10454_2)</title>
			<polygon class=" (ctg10454_2)" points="49,25 165,25 165,10 195,40 165,70 165,55 49,55" fill="rgb(255,255,255)" fill-opacity="1.0" stroke="rgb(0,0,0)" stroke-width="2"  />
			<g>
				<title>NAD_binding_4 (PF07993)
"Male sterility protein"</title>
				<rect class="PF07993" x="50" y="28" stroke-linejoin="round" width="34" height="24" fill="rgb(100,212,204)" stroke="rgb(80,169,163)" stroke-width="1" opacity="0.75" />
			</g>
			<g>
				<title>Sterile (PF03015)
"Male sterility protein"</title>
				<rect class="PF03015" x="93" y="28" stroke-linejoin="round" width="8" height="24" fill="rgb(157,58,225)" stroke="rgb(125,46,180)" stroke-width="1" opacity="0.75" />
			</g>
			<g>
				<title>AMP-binding (PF00501)
"AMP-binding enzyme"</title>
				<rect class="PF00501" x="106" y="28" stroke-linejoin="round" width="43" height="24" fill="rgb(60,217,223)" stroke="rgb(48,173,178)" stroke-width="1" opacity="0.75" />
			</g>
			<g>
				<title>AMP-binding_C (PF13193)
"AMP-binding enzyme C-terminal domain"</title>
				<rect class="PF13193" x="150" y="28" stroke-linejoin="round" width="8" height="24" fill="rgb(182,50,118)" stroke="rgb(145,39,94)" stroke-width="1" opacity="0.75" />
			</g>
			<g>
				<title>PP-binding (PF00550)
"Phosphopantetheine attachment site"</title>
				<rect class="PF00550" x="163" y="28" stroke-linejoin="round" width="6" height="24" fill="rgb(103,191,88)" stroke="rgb(82,152,70)" stroke-width="1" opacity="0.75" />
			</g>
			<g>
				<title>Acyltransferase (PF01553)
"Acyltransferase"</title>
				<polygon class="PF01553" points="175,28 179,28 188,37 188,43 179,52 175,52" stroke-linejoin="round" width="13" height="24" fill="rgb(87,176,216)" stroke="rgb(69,140,172)" stroke-width="1" opacity="0.75" />
			</g>
		</g>
		<g>
			<title> (ctg10454_3)</title>
			<polygon class=" (ctg10454_3)" points="197,10 220,40 197,70" fill="rgb(255,255,255)" fill-opacity="1.0" stroke="rgb(0,0,0)" stroke-width="2"  />
			<g>
				<title>HAD (PF12710)
"haloacid dehalogenase-like hydrolase"</title>
				<polygon class="PF12710" points="198,28 207,28 216,40 216,40 207,52 198,52" stroke-linejoin="round" width="18" height="24" fill="rgb(181,59,119)" stroke="rgb(144,47,95)" stroke-width="1" opacity="0.75" />
			</g>
		</g>
		<g>
			<title> (ctg10454_4)</title>
			<polygon class=" (ctg10454_4)" points="222,10 229,40 222,70" fill="rgb(255,255,255)" fill-opacity="1.0" stroke="rgb(0,0,0)" stroke-width="2"  />
		</g>
		<g>
			<title> (ctg10454_5)</title>
			<polygon class=" (ctg10454_5)" points="243,40 247,10 247,70" fill="rgb(255,255,255)" fill-opacity="1.0" stroke="rgb(0,0,0)" stroke-width="2"  />
		</g>
	</g>
</svg>
