<svg version="1.1" baseProfile="full" xmlns="http://www.w3.org/2000/svg" width="195.13333333333333" height="80">
	<g>
		<line x1="10" y1="40.0" x2="185.13333333333333" y2="40.0" style="stroke:rgb(70,70,70); stroke-width:3 "/>
		<g>
			<title> (ctg16632_1)</title>
			<polygon class=" (ctg16632_1)" points="10,40 35,10 35,70" fill="rgb(255,255,255)" fill-opacity="1.0" stroke="rgb(0,0,0)" stroke-width="2"  />
			<g>
				<title>SQHop_cyclase_N (PF13249)
"Squalene-hopene cyclase N-terminal domain"</title>
				<polygon class="PF13249" points="18,35 24,28 32,28 32,52 24,52 18,45" stroke-linejoin="round" width="14" height="24" fill="rgb(88,190,89)" stroke="rgb(70,152,71)" stroke-width="1" opacity="0.75" />
			</g>
		</g>
		<g>
			<title> (ctg16632_2)</title>
			<polygon class=" (ctg16632_2)" points="35,40 63,10 63,70" fill="rgb(255,255,255)" fill-opacity="1.0" stroke="rgb(0,0,0)" stroke-width="2"  />
			<g>
				<title>Prenyltrans (PF00432)
"Prenyltransferase and squalene oxidase repeat"</title>
				<polygon class="PF00432" points="39,40 39,40 39,40" stroke-linejoin="round" width="4" height="24" fill="rgb(218,215,79)" stroke="rgb(174,172,63)" stroke-width="1" opacity="0.75" />
			</g>
			<g>
				<title>Prenyltrans (PF00432)
"Prenyltransferase and squalene oxidase repeat"</title>
				<polygon class="PF00432" points="40,39 44,35 44,45 40,41" stroke-linejoin="round" width="4" height="24" fill="rgb(218,215,79)" stroke="rgb(174,172,63)" stroke-width="1" opacity="0.75" />
			</g>
			<g>
				<title>Prenyltrans (PF00432)
"Prenyltransferase and squalene oxidase repeat"</title>
				<rect class="PF00432" x="58" y="28" stroke-linejoin="round" width="4" height="24" fill="rgb(218,215,79)" stroke="rgb(174,172,63)" stroke-width="1" opacity="0.75" />
			</g>
		</g>
		<g>
			<title> (ctg16632_3)</title>
			<polygon class=" (ctg16632_3)" points="120,25 92,25 92,10 62,40 92,70 92,55 120,55" fill="rgb(255,255,255)" fill-opacity="1.0" stroke="rgb(0,0,0)" stroke-width="2"  />
			<g>
				<title>polyprenyl_synt (PF00348)
"Polyprenyl synthetase"</title>
				<polygon class="PF00348" points="69,37 78,28 94,28 94,52 78,52 69,43" stroke-linejoin="round" width="25" height="24" fill="rgb(61,206,65)" stroke="rgb(48,164,52)" stroke-width="1" opacity="0.75" />
			</g>
			<g>
				<title>DUF116 (PF01976)
"Protein of unknown function DUF116"</title>
				<rect class="PF01976" x="98" y="28" stroke-linejoin="round" width="15" height="24" fill="rgb(103,188,75)" stroke="rgb(82,150,60)" stroke-width="1" opacity="0.75" />
			</g>
		</g>
		<g>
			<title> (ctg16632_4)</title>
			<polygon class=" (ctg16632_4)" points="160,25 151,25 151,10 121,40 151,70 151,55 160,55" fill="rgb(255,255,255)" fill-opacity="1.0" stroke="rgb(0,0,0)" stroke-width="2"  />
			<g>
				<title>Radical_SAM (PF04055)
"Radical SAM superfamily"</title>
				<rect class="PF04055" x="140" y="28" stroke-linejoin="round" width="15" height="24" fill="rgb(149,56,222)" stroke="rgb(119,44,177)" stroke-width="1" opacity="0.75" />
			</g>
		</g>
		<g>
			<title> (ctg16632_5)</title>
			<polygon class=" (ctg16632_5)" points="161,40 184,10 184,70" fill="rgb(255,255,255)" fill-opacity="1.0" stroke="rgb(0,0,0)" stroke-width="2"  />
		</g>
	</g>
</svg>
