<svg version="1.1" baseProfile="full" xmlns="http://www.w3.org/2000/svg" width="1225.0333333333333" height="80">
	<g>
		<line x1="10" y1="40.0" x2="1215.0333333333333" y2="40.0" style="stroke:rgb(70,70,70); stroke-width:3 "/>
		<g>
			<title> (ctg543_38)</title>
			<polygon class=" (ctg543_38)" points="90,25 52,25 52,10 22,40 52,70 52,55 90,55" fill="rgb(255,255,255)" fill-opacity="1.0" stroke="rgb(0,0,0)" stroke-width="2"  />
			<g>
				<title>NADH_dhqG_C (PF09326)
"NADH-ubiquinone oxidoreductase subunit G, C-terminal"</title>
				<polygon class="PF09326" points="26,40 26,40 26,40" stroke-linejoin="round" width="3" height="24" fill="rgb(178,76,178)" stroke="rgb(142,60,142)" stroke-width="1" opacity="0.75" />
			</g>
			<g>
				<title>Molybdopterin (PF00384)
"Molybdopterin oxidoreductase"</title>
				<polygon class="PF00384" points="30,36 38,28 62,28 62,52 38,52 30,44" stroke-linejoin="round" width="32" height="24" fill="rgb(65,194,78)" stroke="rgb(52,155,62)" stroke-width="1" opacity="0.75" />
			</g>
			<g>
				<title>NADH-G_4Fe-4S_3 (PF10588)
"NADH-ubiquinone oxidoreductase-G iron-sulfur binding region"</title>
				<rect class="PF10588" x="78" y="28" stroke-linejoin="round" width="3" height="24" fill="rgb(70,129,200)" stroke="rgb(56,103,160)" stroke-width="1" opacity="0.75" />
			</g>
			<g>
				<title>Fer2_4 (PF13510)
"2Fe-2S iron-sulfur cluster binding domain"</title>
				<rect class="PF13510" x="83" y="28" stroke-linejoin="round" width="7" height="24" fill="rgb(73,181,142)" stroke="rgb(58,144,113)" stroke-width="1" opacity="0.75" />
			</g>
		</g>
		<g>
			<title> (ctg543_39)</title>
			<polygon class=" (ctg543_39)" points="134,25 121,25 121,10 91,40 121,70 121,55 134,55" fill="rgb(255,255,255)" fill-opacity="1.0" stroke="rgb(0,0,0)" stroke-width="2"  />
			<g>
				<title>NADH_4Fe-4S (PF10589)
"NADH-ubiquinone oxidoreductase-F iron-sulfur binding region"</title>
				<polygon class="PF10589" points="95,40 100,35 100,45" stroke-linejoin="round" width="8" height="24" fill="rgb(95,196,140)" stroke="rgb(76,156,112)" stroke-width="1" opacity="0.75" />
			</g>
			<g>
				<title>SLBB (PF10531)
"SLBB domain"</title>
				<polygon class="PF10531" points="105,30 107,28 110,28 110,52 107,52 105,50" stroke-linejoin="round" width="5" height="24" fill="rgb(92,145,209)" stroke="rgb(73,116,167)" stroke-width="1" opacity="0.75" />
			</g>
			<g>
				<title>Complex1_51K (PF01512)
"Respiratory-chain NADH dehydrogenase 51 Kd subunit"</title>
				<rect class="PF01512" x="112" y="28" stroke-linejoin="round" width="17" height="24" fill="rgb(84,180,118)" stroke="rgb(67,144,94)" stroke-width="1" opacity="0.75" />
			</g>
		</g>
		<g>
			<title> (ctg543_40)</title>
			<polygon class=" (ctg543_40)" points="135,40 154,10 154,70" fill="rgb(255,255,255)" fill-opacity="1.0" stroke="rgb(0,0,0)" stroke-width="2"  />
			<g>
				<title>2Fe-2S_thioredx (PF01257)
"Thioredoxin-like [2Fe-2S] ferredoxin"</title>
				<polygon class="PF01257" points="139,40 147,28 152,28 152,52 147,52" stroke-linejoin="round" width="14" height="24" fill="rgb(162,204,87)" stroke="rgb(129,163,69)" stroke-width="1" opacity="0.75" />
			</g>
		</g>
		<g>
			<title> (ctg543_41)</title>
			<polygon class=" (ctg543_41)" points="193,25 184,25 184,10 154,40 184,70 184,55 193,55" fill="rgb(255,255,255)" fill-opacity="1.0" stroke="rgb(0,0,0)" stroke-width="2"  />
			<g>
				<title>Complex1_49kDa (PF00346)
"Respiratory-chain NADH dehydrogenase, 49 Kd subunit"</title>
				<polygon class="PF00346" points="158,40 170,28 181,28 181,52 170,52" stroke-linejoin="round" width="27" height="24" fill="rgb(130,223,85)" stroke="rgb(104,178,67)" stroke-width="1" opacity="0.75" />
			</g>
		</g>
		<g>
			<title> (ctg543_42)</title>
			<polygon class=" (ctg543_42)" points="194,40 214,10 214,70" fill="rgb(255,255,255)" fill-opacity="1.0" stroke="rgb(0,0,0)" stroke-width="2"  />
			<g>
				<title>Complex1_30kDa (PF00329)
"Respiratory-chain NADH dehydrogenase, 30 Kd subunit"</title>
				<polygon class="PF00329" points="198,40 206,28 210,28 210,52 206,52 198,40" stroke-linejoin="round" width="12" height="24" fill="rgb(202,97,148)" stroke="rgb(161,77,118)" stroke-width="1" opacity="0.75" />
			</g>
		</g>
		<g>
			<title> (ctg543_43)</title>
			<polygon class=" (ctg543_43)" points="215,40 232,10 232,70" fill="rgb(255,255,255)" fill-opacity="1.0" stroke="rgb(0,0,0)" stroke-width="2"  />
			<g>
				<title>Oxidored_q6 (PF01058)
"NADH ubiquinone oxidoreductase, 20 Kd subunit"</title>
				<polygon class="PF01058" points="218,40 225,28 227,28 227,52 225,52" stroke-linejoin="round" width="11" height="24" fill="rgb(112,224,109)" stroke="rgb(89,179,87)" stroke-width="1" opacity="0.75" />
			</g>
		</g>
		<g>
			<title> (ctg543_44)</title>
			<polygon class=" (ctg543_44)" points="233,40 245,10 245,70" fill="rgb(255,255,255)" fill-opacity="1.0" stroke="rgb(0,0,0)" stroke-width="2"  />
			<g>
				<title>Oxidored_q4 (PF00507)
"NADH-ubiquinone/plastoquinone oxidoreductase, chain 3"</title>
				<polygon class="PF00507" points="236,40 241,28 242,28 242,52 241,52" stroke-linejoin="round" width="9" height="24" fill="rgb(111,226,192)" stroke="rgb(88,180,153)" stroke-width="1" opacity="0.75" />
			</g>
		</g>
		<g>
			<title> (ctg543_45)</title>
			<polygon class=" (ctg543_45)" points="361,25 311,25 311,10 281,40 311,70 311,55 361,55" fill="rgb(255,255,255)" fill-opacity="1.0" stroke="rgb(0,0,0)" stroke-width="2"  />
			<g>
				<title>Lon_C (PF05362)
"Lon protease (S16) C-terminal proteolytic domain"</title>
				<polygon class="PF05362" points="285,40 297,28 304,28 304,52 297,52" stroke-linejoin="round" width="20" height="24" fill="rgb(172,181,60)" stroke="rgb(137,144,47)" stroke-width="1" opacity="0.75" />
			</g>
			<g>
				<title>AAA (PF00004)
"ATPase family associated with various cellular activities (AAA)"</title>
				<rect class="PF00004" x="312" y="28" stroke-linejoin="round" width="14" height="24" fill="rgb(57,194,204)" stroke="rgb(45,155,163)" stroke-width="1" opacity="0.75" />
			</g>
			<g>
				<title>LON_substr_bdg (PF02190)
"ATP-dependent protease La (LON) substrate-binding domain"</title>
				<rect class="PF02190" x="341" y="28" stroke-linejoin="round" width="19" height="24" fill="rgb(177,104,226)" stroke="rgb(141,83,180)" stroke-width="1" opacity="0.75" />
			</g>
		</g>
		<g>
			<title> (ctg543_46)</title>
			<polygon class=" (ctg543_46)" points="408,25 396,25 396,10 366,40 396,70 396,55 408,55" fill="rgb(255,255,255)" fill-opacity="1.0" stroke="rgb(0,0,0)" stroke-width="2"  />
			<g>
				<title>ClpB_D2-small (PF10431)
"C-terminal, D2-small domain, of ClpB protein"</title>
				<polygon class="PF10431" points="370,40 376,34 376,46" stroke-linejoin="round" width="8" height="24" fill="rgb(190,198,67)" stroke="rgb(152,158,53)" stroke-width="1" opacity="0.75" />
			</g>
			<g>
				<title>AAA_2 (PF07724)
"AAA domain (Cdc48 subfamily)"</title>
				<polygon class="PF07724" points="377,33 382,28 396,28 396,52 382,52 377,47" stroke-linejoin="round" width="19" height="24" fill="rgb(132,215,72)" stroke="rgb(105,172,57)" stroke-width="1" opacity="0.75" />
			</g>
			<g>
				<title>zf-C4_ClpX (PF06689)
"ClpX C4-type zinc finger"</title>
				<rect class="PF06689" x="403" y="28" stroke-linejoin="round" width="3" height="24" fill="rgb(218,113,96)" stroke="rgb(174,90,76)" stroke-width="1" opacity="0.75" />
			</g>
		</g>
		<g>
			<title> (ctg543_47)</title>
			<polygon class=" (ctg543_47)" points="416,40 437,10 437,70" fill="rgb(255,255,255)" fill-opacity="1.0" stroke="rgb(0,0,0)" stroke-width="2"  />
			<g>
				<title>CLP_protease (PF00574)
"Clp protease"</title>
				<polygon class="PF00574" points="420,40 429,28 435,28 435,52 429,52" stroke-linejoin="round" width="18" height="24" fill="rgb(196,111,59)" stroke="rgb(156,88,47)" stroke-width="1" opacity="0.75" />
			</g>
		</g>
		<g>
			<title> (ctg543_48)</title>
			<polygon class=" (ctg543_48)" points="486,25 471,25 471,10 441,40 471,70 471,55 486,55" fill="rgb(255,255,255)" fill-opacity="1.0" stroke="rgb(0,0,0)" stroke-width="2"  />
			<g>
				<title>Trigger_C (PF05698)
"Bacterial trigger factor protein (TF) C-terminus"</title>
				<polygon class="PF05698" points="445,40 457,28 459,28 459,52 457,52" stroke-linejoin="round" width="16" height="24" fill="rgb(173,55,194)" stroke="rgb(138,44,155)" stroke-width="1" opacity="0.75" />
			</g>
			<g>
				<title>FKBP_C (PF00254)
"FKBP-type peptidyl-prolyl cis-trans isomerase"</title>
				<rect class="PF00254" x="462" y="28" stroke-linejoin="round" width="8" height="24" fill="rgb(137,65,200)" stroke="rgb(109,51,160)" stroke-width="1" opacity="0.75" />
			</g>
			<g>
				<title>Trigger_N (PF05697)
"Bacterial trigger factor protein (TF)"</title>
				<rect class="PF05697" x="471" y="28" stroke-linejoin="round" width="14" height="24" fill="rgb(181,113,81)" stroke="rgb(144,90,64)" stroke-width="1" opacity="0.75" />
			</g>
		</g>
		<g>
			<title> (ctg543_49)</title>
			<polygon class=" (ctg543_49)" points="547,25 528,25 528,10 498,40 528,70 528,55 547,55" fill="rgb(255,255,255)" fill-opacity="1.0" stroke="rgb(0,0,0)" stroke-width="2"  />
			<g>
				<title>Carb_kinase (PF01256)
"Carbohydrate kinase"</title>
				<polygon class="PF01256" points="502,40 514,28 522,28 522,52 514,52" stroke-linejoin="round" width="23" height="24" fill="rgb(187,173,78)" stroke="rgb(149,138,62)" stroke-width="1" opacity="0.75" />
			</g>
			<g>
				<title>YjeF_N (PF03853)
"YjeF-related protein N-terminus"</title>
				<rect class="PF03853" x="528" y="28" stroke-linejoin="round" width="15" height="24" fill="rgb(201,202,97)" stroke="rgb(160,161,77)" stroke-width="1" opacity="0.75" />
			</g>
		</g>
		<g>
			<title> (ctg543_50)</title>
			<polygon class=" (ctg543_50)" points="549,40 574,10 574,70" fill="rgb(255,255,255)" fill-opacity="1.0" stroke="rgb(0,0,0)" stroke-width="2"  />
			<g>
				<title>Methyltransf_11 (PF08241)
"Methyltransferase domain"</title>
				<polygon class="PF08241" points="559,33 563,28 568,28 568,52 563,52 559,47" stroke-linejoin="round" width="9" height="24" fill="rgb(106,219,159)" stroke="rgb(84,175,127)" stroke-width="1" opacity="0.75" />
			</g>
		</g>
		<g>
			<title> (ctg543_51)</title>
			<polygon class=" (ctg543_51)" points="622,25 606,25 606,10 576,40 606,70 606,55 622,55" fill="rgb(255,255,255)" fill-opacity="1.0" stroke="rgb(0,0,0)" stroke-width="2"  />
			<g>
				<title>Amidase (PF01425)
"Amidase"</title>
				<polygon class="PF01425" points="580,40 592,28 620,28 620,52 592,52" stroke-linejoin="round" width="42" height="24" fill="rgb(195,142,64)" stroke="rgb(156,113,51)" stroke-width="1" opacity="0.75" />
			</g>
		</g>
		<g>
			<title> (ctg543_52)</title>
			<polygon class=" (ctg543_52)" points="626,25 637,25 637,10 667,40 637,70 637,55 626,55" fill="rgb(255,255,255)" fill-opacity="1.0" stroke="rgb(0,0,0)" stroke-width="2"  />
			<g>
				<title>DAO (PF01266)
"FAD dependent oxidoreductase"</title>
				<polygon class="PF01266" points="626,28 651,28 663,40 651,52 626,52" stroke-linejoin="round" width="39" height="24" fill="rgb(123,179,59)" stroke="rgb(98,143,47)" stroke-width="1" opacity="0.75" />
			</g>
		</g>
		<g>
			<title> (ctg543_53)</title>
			<polygon class=" (ctg543_53)" points="771,25 706,25 706,10 676,40 706,70 706,55 771,55" fill="rgb(255,255,255)" fill-opacity="1.0" stroke="rgb(0,0,0)" stroke-width="2"  />
			<g>
				<title>Acyltransferase (PF01553)
"Acyltransferase"</title>
				<polygon class="PF01553" points="683,37 692,28 695,28 695,52 692,52 683,43" stroke-linejoin="round" width="12" height="24" fill="rgb(87,176,216)" stroke="rgb(69,140,172)" stroke-width="1" opacity="0.75" />
			</g>
			<g>
				<title>AMP-binding (PF00501)
"AMP-binding enzyme"</title>
				<rect class="PF00501" x="714" y="28" stroke-linejoin="round" width="44" height="24" fill="rgb(60,217,223)" stroke="rgb(48,173,178)" stroke-width="1" opacity="0.75" />
			</g>
			<g>
				<title>PP-binding (PF00550)
"Phosphopantetheine attachment site"</title>
				<rect class="PF00550" x="762" y="28" stroke-linejoin="round" width="6" height="24" fill="rgb(103,191,88)" stroke="rgb(82,152,70)" stroke-width="1" opacity="0.75" />
			</g>
		</g>
		<g>
			<title> (ctg543_54)</title>
			<polygon class=" (ctg543_54)" points="776,25 780,25 780,10 810,40 780,70 780,55 776,55" fill="rgb(255,255,255)" fill-opacity="1.0" stroke="rgb(0,0,0)" stroke-width="2"  />
			<g>
				<title>Aldo_ket_red (PF00248)
"Aldo/keto reductase family"</title>
				<polygon class="PF00248" points="777,28 793,28 805,40 793,52 777,52" stroke-linejoin="round" width="30" height="24" fill="rgb(225,205,58)" stroke="rgb(180,164,46)" stroke-width="1" opacity="0.75" />
			</g>
		</g>
		<g>
			<title> (ctg543_55)</title>
			<polygon class=" (ctg543_55)" points="812,25 814,25 814,10 844,40 814,70 814,55 812,55" fill="rgb(255,255,255)" fill-opacity="1.0" stroke="rgb(0,0,0)" stroke-width="2"  />
			<g>
				<title>Peptidase_M19 (PF01244)
"Membrane dipeptidase (Peptidase family M19)"</title>
				<polygon class="PF01244" points="813,28 828,28 840,40 828,52 813,52" stroke-linejoin="round" width="31" height="24" fill="rgb(178,227,92)" stroke="rgb(142,181,73)" stroke-width="1" opacity="0.75" />
			</g>
		</g>
		<g>
			<title> (ctg543_56)</title>
			<polygon class=" (ctg543_56)" points="846,25 859,25 859,10 889,40 859,70 859,55 846,55" fill="rgb(255,255,255)" fill-opacity="1.0" stroke="rgb(0,0,0)" stroke-width="2"  />
			<g>
				<title>Peptidase_M20 (PF01546)
"Peptidase family M20/M25/M40"</title>
				<polygon class="PF01546" points="854,28 873,28 885,40 873,52 854,52" stroke-linejoin="round" width="34" height="24" fill="rgb(88,213,108)" stroke="rgb(70,170,86)" stroke-width="1" opacity="0.75" />
			</g>
		</g>
		<g>
			<title> (ctg543_57)</title>
			<polygon class=" (ctg543_57)" points="897,10 926,40 897,70" fill="rgb(255,255,255)" fill-opacity="1.0" stroke="rgb(0,0,0)" stroke-width="2"  />
		</g>
		<g>
			<title> (ctg543_58)</title>
			<polygon class=" (ctg543_58)" points="933,25 956,25 956,10 986,40 956,70 956,55 933,55" fill="rgb(255,255,255)" fill-opacity="1.0" stroke="rgb(0,0,0)" stroke-width="2"  />
			<g>
				<title>MFS_1 (PF07690)
"Major Facilitator Superfamily"</title>
				<polygon class="PF07690" points="937,28 970,28 976,34 976,46 970,52 937,52" stroke-linejoin="round" width="39" height="24" fill="rgb(193,224,74)" stroke="rgb(154,179,59)" stroke-width="1" opacity="0.75" />
			</g>
		</g>
		<g>
			<title> (ctg543_59)</title>
			<polygon class=" (ctg543_59)" points="987,25 1007,25 1007,10 1037,40 1007,70 1007,55 987,55" fill="rgb(255,255,255)" fill-opacity="1.0" stroke="rgb(0,0,0)" stroke-width="2"  />
			<g>
				<title>MFS_1 (PF07690)
"Major Facilitator Superfamily"</title>
				<polygon class="PF07690" points="988,28 1021,28 1027,34 1027,46 1021,52 988,52" stroke-linejoin="round" width="39" height="24" fill="rgb(193,224,74)" stroke="rgb(154,179,59)" stroke-width="1" opacity="0.75" />
			</g>
		</g>
		<g>
			<title> (ctg543_60)</title>
			<polygon class=" (ctg543_60)" points="1037,25 1058,25 1058,10 1088,40 1058,70 1058,55 1037,55" fill="rgb(255,255,255)" fill-opacity="1.0" stroke="rgb(0,0,0)" stroke-width="2"  />
			<g>
				<title>MFS_1 (PF07690)
"Major Facilitator Superfamily"</title>
				<polygon class="PF07690" points="1039,28 1071,28 1078,35 1078,45 1071,52 1039,52" stroke-linejoin="round" width="39" height="24" fill="rgb(193,224,74)" stroke="rgb(154,179,59)" stroke-width="1" opacity="0.75" />
			</g>
		</g>
		<g>
			<title> (ctg543_61)</title>
			<polygon class=" (ctg543_61)" points="1106,10 1132,40 1106,70" fill="rgb(255,255,255)" fill-opacity="1.0" stroke="rgb(0,0,0)" stroke-width="2"  />
			<g>
				<title>Abhydrolase_1 (PF00561)
"alpha/beta hydrolase fold"</title>
				<polygon class="PF00561" points="1108,28 1117,28 1123,34 1123,46 1117,52 1108,52" stroke-linejoin="round" width="15" height="24" fill="rgb(86,180,151)" stroke="rgb(68,144,120)" stroke-width="1" opacity="0.75" />
			</g>
		</g>
		<g>
			<title> (ctg543_62)</title>
			<polygon class=" (ctg543_62)" points="1132,25 1140,25 1140,10 1170,40 1140,70 1140,55 1132,55" fill="rgb(255,255,255)" fill-opacity="1.0" stroke="rgb(0,0,0)" stroke-width="2"  />
			<g>
				<title>TauD (PF02668)
"Taurine catabolism dioxygenase TauD, TfdA family"</title>
				<polygon class="PF02668" points="1137,28 1154,28 1163,37 1163,43 1154,52 1137,52" stroke-linejoin="round" width="26" height="24" fill="rgb(180,79,217)" stroke="rgb(144,63,173)" stroke-width="1" opacity="0.75" />
			</g>
		</g>
		<g>
			<title> (ctg543_63)</title>
			<polygon class=" (ctg543_63)" points="1178,10 1185,40 1178,70" fill="rgb(255,255,255)" fill-opacity="1.0" stroke="rgb(0,0,0)" stroke-width="2"  />
		</g>
		<g>
			<title> (ctg543_64)</title>
			<polygon class=" (ctg543_64)" points="1191,40 1196,10 1196,70" fill="rgb(255,255,255)" fill-opacity="1.0" stroke="rgb(0,0,0)" stroke-width="2"  />
		</g>
		<g>
			<title> (ctg543_65)</title>
			<polygon class=" (ctg543_65)" points="1199,40 1205,10 1205,70" fill="rgb(255,255,255)" fill-opacity="1.0" stroke="rgb(0,0,0)" stroke-width="2"  />
		</g>
	</g>
</svg>
