<svg version="1.1" baseProfile="full" xmlns="http://www.w3.org/2000/svg" width="213.56666666666666" height="80">
	<g>
		<line x1="10" y1="40.0" x2="203.56666666666666" y2="40.0" style="stroke:rgb(70,70,70); stroke-width:3 "/>
		<g>
			<title> (ctg14259_1)</title>
			<polygon class=" (ctg14259_1)" points="10,25 10,25 10,10 40,40 10,70 10,55 10,55" fill="rgb(255,255,255)" fill-opacity="1.0" stroke="rgb(0,0,0)" stroke-width="2"  />
			<g>
				<title>Peripla_BP_6 (PF13458)
"Periplasmic binding protein"</title>
				<polygon class="PF13458" points="10,28 24,28 36,40 24,52 10,52" stroke-linejoin="round" width="29" height="24" fill="rgb(94,183,81)" stroke="rgb(75,146,64)" stroke-width="1" opacity="0.75" />
			</g>
		</g>
		<g>
			<title> (ctg14259_2)</title>
			<polygon class=" (ctg14259_2)" points="40,10 64,40 40,70" fill="rgb(255,255,255)" fill-opacity="1.0" stroke="rgb(0,0,0)" stroke-width="2"  />
			<g>
				<title>sCache_3_2 (PF17203)
"Single cache domain 3"</title>
				<polygon class="PF17203" points="43,28 51,28 55,34 55,46 51,52 43,52" stroke-linejoin="round" width="12" height="24" fill="rgb(209,153,67)" stroke="rgb(167,122,53)" stroke-width="1" opacity="0.75" />
			</g>
		</g>
		<g>
			<title> (ctg14259_3)</title>
			<polygon class=" (ctg14259_3)" points="65,25 78,25 78,10 108,40 78,70 78,55 65,55" fill="rgb(255,255,255)" fill-opacity="1.0" stroke="rgb(0,0,0)" stroke-width="2"  />
			<g>
				<title>MFS_1 (PF07690)
"Major Facilitator Superfamily"</title>
				<polygon class="PF07690" points="66,28 92,28 102,38 102,42 92,52 66,52" stroke-linejoin="round" width="36" height="24" fill="rgb(193,224,74)" stroke="rgb(154,179,59)" stroke-width="1" opacity="0.75" />
			</g>
		</g>
		<g>
			<title> (ctg14259_4)</title>
			<polygon class=" (ctg14259_4)" points="108,25 115,25 115,10 145,40 115,70 115,55 108,55" fill="rgb(255,255,255)" fill-opacity="1.0" stroke="rgb(0,0,0)" stroke-width="2"  />
			<g>
				<title>SQS_PSY (PF00494)
"Squalene/phytoene synthase"</title>
				<polygon class="PF00494" points="110,28 129,28 139,38 139,42 129,52 110,52" stroke-linejoin="round" width="29" height="24" fill="rgb(178,91,49)" stroke="rgb(142,72,39)" stroke-width="1" opacity="0.75" />
			</g>
		</g>
		<g>
			<title> (ctg14259_5)</title>
			<polygon class=" (ctg14259_5)" points="146,25 147,25 147,10 177,40 147,70 147,55 146,55" fill="rgb(255,255,255)" fill-opacity="1.0" stroke="rgb(0,0,0)" stroke-width="2"  />
			<g>
				<title>LYTB (PF02401)
"LytB protein"</title>
				<polygon class="PF02401" points="146,28 161,28 173,40 173,40 161,52 146,52" stroke-linejoin="round" width="27" height="24" fill="rgb(155,62,193)" stroke="rgb(124,49,154)" stroke-width="1" opacity="0.75" />
			</g>
		</g>
		<g>
			<title> (ctg14259_6)</title>
			<polygon class=" (ctg14259_6)" points="180,10 202,40 180,70" fill="rgb(255,255,255)" fill-opacity="1.0" stroke="rgb(0,0,0)" stroke-width="2"  />
			<g>
				<title>AAA_23 (PF13476)
"AAA domain"</title>
				<polygon class="PF13476" points="181,28 190,28 195,35 195,45 190,52 181,52" stroke-linejoin="round" width="14" height="24" fill="rgb(57,185,214)" stroke="rgb(45,147,171)" stroke-width="1" opacity="0.75" />
			</g>
		</g>
	</g>
</svg>
