<svg version="1.1" baseProfile="full" xmlns="http://www.w3.org/2000/svg" width="361.73333333333335" height="80">
	<g>
		<line x1="10" y1="40.0" x2="351.73333333333335" y2="40.0" style="stroke:rgb(70,70,70); stroke-width:3 "/>
		<g>
			<title> (ctg545_1)</title>
			<polygon class=" (ctg545_1)" points="10,25 14,25 14,10 44,40 14,70 14,55 10,55" fill="rgb(255,255,255)" fill-opacity="1.0" stroke="rgb(0,0,0)" stroke-width="2"  />
			<g>
				<title>Fic_N (PF13784)
"Fic/DOC family N-terminal"</title>
				<rect class="PF13784" x="10" y="28" stroke-linejoin="round" width="8" height="24" fill="rgb(77,46,179)" stroke="rgb(61,36,143)" stroke-width="1" opacity="0.75" />
			</g>
			<g>
				<title>Fic (PF02661)
"Fic/DOC family"</title>
				<rect class="PF02661" x="18" y="28" stroke-linejoin="round" width="10" height="24" fill="rgb(225,135,106)" stroke="rgb(180,108,84)" stroke-width="1" opacity="0.75" />
			</g>
		</g>
		<g>
			<title> (ctg545_2)</title>
			<polygon class=" (ctg545_2)" points="50,25 51,25 51,10 81,40 51,70 51,55 50,55" fill="rgb(255,255,255)" fill-opacity="1.0" stroke="rgb(0,0,0)" stroke-width="2"  />
		</g>
		<g>
			<title> (ctg545_3)</title>
			<polygon class=" (ctg545_3)" points="85,40 92,10 92,70" fill="rgb(255,255,255)" fill-opacity="1.0" stroke="rgb(0,0,0)" stroke-width="2"  />
		</g>
		<g>
			<title> (ctg545_4)</title>
			<polygon class=" (ctg545_4)" points="94,40 100,10 100,70" fill="rgb(255,255,255)" fill-opacity="1.0" stroke="rgb(0,0,0)" stroke-width="2"  />
		</g>
		<g>
			<title> (ctg545_5)</title>
			<polygon class=" (ctg545_5)" points="115,10 139,40 115,70" fill="rgb(255,255,255)" fill-opacity="1.0" stroke="rgb(0,0,0)" stroke-width="2"  />
		</g>
		<g>
			<title> (ctg545_6)</title>
			<polygon class=" (ctg545_6)" points="142,40 168,10 168,70" fill="rgb(255,255,255)" fill-opacity="1.0" stroke="rgb(0,0,0)" stroke-width="2"  />
			<g>
				<title>TauD (PF02668)
"Taurine catabolism dioxygenase TauD, TfdA family"</title>
				<polygon class="PF02668" points="146,40 157,28 167,28 167,52 157,52" stroke-linejoin="round" width="25" height="24" fill="rgb(180,79,217)" stroke="rgb(144,63,173)" stroke-width="1" opacity="0.75" />
			</g>
		</g>
		<g>
			<title> (ctg545_7)</title>
			<polygon class=" (ctg545_7)" points="176,40 184,10 184,70" fill="rgb(255,255,255)" fill-opacity="1.0" stroke="rgb(0,0,0)" stroke-width="2"  />
		</g>
		<g>
			<title> (ctg545_8)</title>
			<polygon class=" (ctg545_8)" points="289,25 221,25 221,10 191,40 221,70 221,55 289,55" fill="rgb(255,255,255)" fill-opacity="1.0" stroke="rgb(0,0,0)" stroke-width="2"  />
			<g>
				<title>ABC_tran (PF00005)
"ABC transporter"</title>
				<polygon class="PF00005" points="198,37 207,28 212,28 212,52 207,52 198,43" stroke-linejoin="round" width="14" height="24" fill="rgb(129,201,63)" stroke="rgb(103,160,50)" stroke-width="1" opacity="0.75" />
			</g>
			<g>
				<title>ABC_membrane (PF00664)
"ABC transporter transmembrane region"</title>
				<rect class="PF00664" x="220" y="28" stroke-linejoin="round" width="26" height="24" fill="rgb(149,226,73)" stroke="rgb(119,180,58)" stroke-width="1" opacity="0.75" />
			</g>
		</g>
		<g>
			<title> (ctg545_9)</title>
			<polygon class=" (ctg545_9)" points="349,25 320,25 320,10 290,40 320,70 320,55 349,55" fill="rgb(255,255,255)" fill-opacity="1.0" stroke="rgb(0,0,0)" stroke-width="2"  />
			<g>
				<title>ABC_tran (PF00005)
"ABC transporter"</title>
				<polygon class="PF00005" points="297,37 306,28 311,28 311,52 306,52 297,43" stroke-linejoin="round" width="14" height="24" fill="rgb(129,201,63)" stroke="rgb(103,160,50)" stroke-width="1" opacity="0.75" />
			</g>
			<g>
				<title>ABC_membrane (PF00664)
"ABC transporter transmembrane region"</title>
				<rect class="PF00664" x="319" y="28" stroke-linejoin="round" width="27" height="24" fill="rgb(149,226,73)" stroke="rgb(119,180,58)" stroke-width="1" opacity="0.75" />
			</g>
		</g>
	</g>
</svg>
