<svg version="1.1" baseProfile="full" xmlns="http://www.w3.org/2000/svg" width="925.1333333333333" height="80">
	<g>
		<line x1="10" y1="40.0" x2="915.1333333333333" y2="40.0" style="stroke:rgb(70,70,70); stroke-width:3 "/>
		<g>
			<title> (ctg2397_1)</title>
			<polygon class=" (ctg2397_1)" points="47,25 40,25 40,10 10,40 40,70 40,55 47,55" fill="rgb(255,255,255)" fill-opacity="1.0" stroke="rgb(0,0,0)" stroke-width="2"  />
			<g>
				<title>MR_MLE_C (PF13378)
"Enolase C-terminal domain-like"</title>
				<polygon class="PF13378" points="14,40 26,28 30,28 30,52 26,52" stroke-linejoin="round" width="20" height="24" fill="rgb(191,184,94)" stroke="rgb(152,147,75)" stroke-width="1" opacity="0.75" />
			</g>
			<g>
				<title>MR_MLE_N (PF02746)
"Mandelate racemase / muconate lactonizing enzyme, N-terminal domain"</title>
				<rect class="PF02746" x="34" y="28" stroke-linejoin="round" width="11" height="24" fill="rgb(63,73,226)" stroke="rgb(50,58,180)" stroke-width="1" opacity="0.75" />
			</g>
		</g>
		<g>
			<title> (ctg2397_2)</title>
			<polygon class=" (ctg2397_2)" points="55,25 58,25 58,10 88,40 58,70 58,55 55,55" fill="rgb(255,255,255)" fill-opacity="1.0" stroke="rgb(0,0,0)" stroke-width="2"  />
			<g>
				<title>AXE1 (PF05448)
"Acetyl xylan esterase (AXE1)"</title>
				<polygon class="PF05448" points="56,28 71,28 80,37 80,43 71,52 56,52" stroke-linejoin="round" width="24" height="24" fill="rgb(208,104,113)" stroke="rgb(166,83,90)" stroke-width="1" opacity="0.75" />
			</g>
		</g>
		<g>
			<title> (ctg2397_3)</title>
			<polygon class=" (ctg2397_3)" points="90,40 107,10 107,70" fill="rgb(255,255,255)" fill-opacity="1.0" stroke="rgb(0,0,0)" stroke-width="2"  />
			<g>
				<title>PhyH (PF05721)
"Phytanoyl-CoA dioxygenase (PhyH)"</title>
				<polygon class="PF05721" points="94,38 100,28 106,28 106,52 100,52 94,42" stroke-linejoin="round" width="12" height="24" fill="rgb(72,132,214)" stroke="rgb(57,105,171)" stroke-width="1" opacity="0.75" />
			</g>
		</g>
		<g>
			<title> (ctg2397_4)</title>
			<polygon class=" (ctg2397_4)" points="110,10 120,40 110,70" fill="rgb(255,255,255)" fill-opacity="1.0" stroke="rgb(0,0,0)" stroke-width="2"  />
		</g>
		<g>
			<title> (ctg2397_5)</title>
			<polygon class=" (ctg2397_5)" points="117,40 144,10 144,70" fill="rgb(255,255,255)" fill-opacity="1.0" stroke="rgb(0,0,0)" stroke-width="2"  />
			<g>
				<title>PhyH (PF05721)
"Phytanoyl-CoA dioxygenase (PhyH)"</title>
				<polygon class="PF05721" points="121,40 132,28 141,28 141,52 132,52" stroke-linejoin="round" width="21" height="24" fill="rgb(72,132,214)" stroke="rgb(57,105,171)" stroke-width="1" opacity="0.75" />
			</g>
		</g>
		<g>
			<title> (ctg2397_6)</title>
			<polygon class=" (ctg2397_6)" points="147,40 169,10 169,70" fill="rgb(255,255,255)" fill-opacity="1.0" stroke="rgb(0,0,0)" stroke-width="2"  />
			<g>
				<title>TPK_B1_binding (PF04265)
"Thiamin pyrophosphokinase, vitamin B1 binding domain"</title>
				<polygon class="PF04265" points="151,40 154,36 154,44" stroke-linejoin="round" width="6" height="24" fill="rgb(182,83,211)" stroke="rgb(145,66,168)" stroke-width="1" opacity="0.75" />
			</g>
			<g>
				<title>TPK_catalytic (PF04263)
"Thiamin pyrophosphokinase, catalytic domain"</title>
				<polygon class="PF04263" points="156,33 160,28 166,28 166,52 160,52 156,47" stroke-linejoin="round" width="10" height="24" fill="rgb(78,186,106)" stroke="rgb(62,148,84)" stroke-width="1" opacity="0.75" />
			</g>
		</g>
		<g>
			<title> (ctg2397_7)</title>
			<polygon class=" (ctg2397_7)" points="172,10 180,40 172,70" fill="rgb(255,255,255)" fill-opacity="1.0" stroke="rgb(0,0,0)" stroke-width="2"  />
		</g>
		<g>
			<title> (ctg2397_8)</title>
			<polygon class=" (ctg2397_8)" points="186,10 201,40 186,70" fill="rgb(255,255,255)" fill-opacity="1.0" stroke="rgb(0,0,0)" stroke-width="2"  />
		</g>
		<g>
			<title> (ctg2397_9)</title>
			<polygon class=" (ctg2397_9)" points="202,40 212,10 212,70" fill="rgb(255,255,255)" fill-opacity="1.0" stroke="rgb(0,0,0)" stroke-width="2"  />
		</g>
		<g>
			<title> (ctg2397_10)</title>
			<polygon class=" (ctg2397_10)" points="211,40 216,10 216,70" fill="rgb(255,255,255)" fill-opacity="1.0" stroke="rgb(0,0,0)" stroke-width="2"  />
		</g>
		<g>
			<title> (ctg2397_11)</title>
			<polygon class=" (ctg2397_11)" points="219,25 223,25 223,10 253,40 223,70 223,55 219,55" fill="rgb(255,255,255)" fill-opacity="1.0" stroke="rgb(0,0,0)" stroke-width="2"  />
			<g>
				<title>Biotin_lipoyl_2 (PF13533)
"Biotin-lipoyl like"</title>
				<rect class="PF13533" x="220" y="28" stroke-linejoin="round" width="4" height="24" fill="rgb(229,122,112)" stroke="rgb(183,97,89)" stroke-width="1" opacity="0.75" />
			</g>
			<g>
				<title>HlyD_3 (PF13437)
"HlyD family secretion protein"</title>
				<polygon class="PF13437" points="237,28 237,28 248,39 248,41 237,52 237,52" stroke-linejoin="round" width="11" height="24" fill="rgb(82,200,102)" stroke="rgb(65,160,81)" stroke-width="1" opacity="0.75" />
			</g>
		</g>
		<g>
			<title> (ctg2397_12)</title>
			<polygon class=" (ctg2397_12)" points="254,10 258,40 254,70" fill="rgb(255,255,255)" fill-opacity="1.0" stroke="rgb(0,0,0)" stroke-width="2"  />
		</g>
		<g>
			<title> (ctg2397_13)</title>
			<polygon class=" (ctg2397_13)" points="257,25 258,25 258,10 288,40 258,70 258,55 257,55" fill="rgb(255,255,255)" fill-opacity="1.0" stroke="rgb(0,0,0)" stroke-width="2"  />
		</g>
		<g>
			<title> (ctg2397_14)</title>
			<polygon class=" (ctg2397_14)" points="372,25 320,25 320,10 290,40 320,70 320,55 372,55" fill="rgb(255,255,255)" fill-opacity="1.0" stroke="rgb(0,0,0)" stroke-width="2"  />
			<g>
				<title>NAD_binding_4 (PF07993)
"Male sterility protein"</title>
				<polygon class="PF07993" points="301,33 306,28 325,28 325,52 306,52 301,47" stroke-linejoin="round" width="24" height="24" fill="rgb(100,212,204)" stroke="rgb(80,169,163)" stroke-width="1" opacity="0.75" />
			</g>
			<g>
				<title>PP-binding (PF00550)
"Phosphopantetheine attachment site"</title>
				<rect class="PF00550" x="330" y="28" stroke-linejoin="round" width="6" height="24" fill="rgb(103,191,88)" stroke="rgb(82,152,70)" stroke-width="1" opacity="0.75" />
			</g>
			<g>
				<title>AMP-binding_C (PF13193)
"AMP-binding enzyme C-terminal domain"</title>
				<rect class="PF13193" x="339" y="28" stroke-linejoin="round" width="7" height="24" fill="rgb(182,50,118)" stroke="rgb(145,39,94)" stroke-width="1" opacity="0.75" />
			</g>
			<g>
				<title>AMP-binding (PF00501)
"AMP-binding enzyme"</title>
				<rect class="PF00501" x="347" y="28" stroke-linejoin="round" width="21" height="24" fill="rgb(60,217,223)" stroke="rgb(48,173,178)" stroke-width="1" opacity="0.75" />
			</g>
		</g>
		<g>
			<title> (ctg2397_15)</title>
			<polygon class=" (ctg2397_15)" points="376,10 392,40 376,70" fill="rgb(255,255,255)" fill-opacity="1.0" stroke="rgb(0,0,0)" stroke-width="2"  />
		</g>
		<g>
			<title> (ctg2397_16)</title>
			<polygon class=" (ctg2397_16)" points="404,25 450,25 450,10 480,40 450,70 450,55 404,55" fill="rgb(255,255,255)" fill-opacity="1.0" stroke="rgb(0,0,0)" stroke-width="2"  />
			<g>
				<title>CarbopepD_reg_2 (PF13715)
"CarboxypepD_reg-like domain"</title>
				<rect class="PF13715" x="404" y="28" stroke-linejoin="round" width="7" height="24" fill="rgb(198,51,128)" stroke="rgb(158,40,102)" stroke-width="1" opacity="0.75" />
			</g>
			<g>
				<title>Plug (PF07715)
"TonB-dependent Receptor Plug Domain"</title>
				<rect class="PF07715" x="412" y="28" stroke-linejoin="round" width="11" height="24" fill="rgb(99,133,214)" stroke="rgb(79,106,171)" stroke-width="1" opacity="0.75" />
			</g>
			<g>
				<title>TonB_dep_Rec (PF00593)
"TonB dependent receptor"</title>
				<polygon class="PF00593" points="428,28 464,28 476,40 464,52 428,52" stroke-linejoin="round" width="51" height="24" fill="rgb(171,200,51)" stroke="rgb(136,160,40)" stroke-width="1" opacity="0.75" />
			</g>
		</g>
		<g>
			<title> (ctg2397_17)</title>
			<polygon class=" (ctg2397_17)" points="486,40 510,10 510,70" fill="rgb(255,255,255)" fill-opacity="1.0" stroke="rgb(0,0,0)" stroke-width="2"  />
			<g>
				<title>Ank_2 (PF12796)
"Ankyrin repeats (3 copies)"</title>
				<polygon class="PF12796" points="492,38 499,29 499,51 492,42" stroke-linejoin="round" width="7" height="24" fill="rgb(151,90,191)" stroke="rgb(120,72,152)" stroke-width="1" opacity="0.75" />
			</g>
			<g>
				<title>Ank_4 (PF13637)
"Ankyrin repeats (many copies)"</title>
				<polygon class="PF13637" points="499,29 500,28 504,28 504,52 500,52 499,51" stroke-linejoin="round" width="5" height="24" fill="rgb(62,205,90)" stroke="rgb(49,164,72)" stroke-width="1" opacity="0.75" />
			</g>
		</g>
		<g>
			<title> (ctg2397_18)</title>
			<polygon class=" (ctg2397_18)" points="509,40 538,10 538,70" fill="rgb(255,255,255)" fill-opacity="1.0" stroke="rgb(0,0,0)" stroke-width="2"  />
			<g>
				<title>FGE-sulfatase (PF03781)
"Sulfatase-modifying factor enzyme 1"</title>
				<polygon class="PF03781" points="513,40 525,28 533,28 533,52 525,52" stroke-linejoin="round" width="24" height="24" fill="rgb(206,81,170)" stroke="rgb(164,64,136)" stroke-width="1" opacity="0.75" />
			</g>
		</g>
		<g>
			<title> (ctg2397_19)</title>
			<polygon class=" (ctg2397_19)" points="602,25 571,25 571,10 541,40 571,70 571,55 602,55" fill="rgb(255,255,255)" fill-opacity="1.0" stroke="rgb(0,0,0)" stroke-width="2"  />
			<g>
				<title>Redoxin (PF08534)
"Redoxin"</title>
				<polygon class="PF08534" points="545,40 554,31 554,49" stroke-linejoin="round" width="13" height="24" fill="rgb(145,195,92)" stroke="rgb(116,156,73)" stroke-width="1" opacity="0.75" />
			</g>
		</g>
		<g>
			<title> (ctg2397_20)</title>
			<polygon class=" (ctg2397_20)" points="606,40 611,10 611,70" fill="rgb(255,255,255)" fill-opacity="1.0" stroke="rgb(0,0,0)" stroke-width="2"  />
		</g>
		<g>
			<title> (ctg2397_21)</title>
			<polygon class=" (ctg2397_21)" points="612,40 616,10 616,70" fill="rgb(255,255,255)" fill-opacity="1.0" stroke="rgb(0,0,0)" stroke-width="2"  />
		</g>
		<g>
			<title> (ctg2397_22)</title>
			<polygon class=" (ctg2397_22)" points="629,40 642,10 642,70" fill="rgb(255,255,255)" fill-opacity="1.0" stroke="rgb(0,0,0)" stroke-width="2"  />
			<g>
				<title>CBS (PF00571)
"CBS domain"</title>
				<polygon class="PF00571" points="632,40 634,35 634,45" stroke-linejoin="round" width="5" height="24" fill="rgb(220,56,105)" stroke="rgb(176,44,84)" stroke-width="1" opacity="0.75" />
			</g>
			<g>
				<title>CBS (PF00571)
"CBS domain"</title>
				<polygon class="PF00571" points="635,33 637,28 640,28 640,52 637,52 635,47" stroke-linejoin="round" width="5" height="24" fill="rgb(220,56,105)" stroke="rgb(176,44,84)" stroke-width="1" opacity="0.75" />
			</g>
		</g>
		<g>
			<title> (ctg2397_23)</title>
			<polygon class=" (ctg2397_23)" points="642,40 653,10 653,70" fill="rgb(255,255,255)" fill-opacity="1.0" stroke="rgb(0,0,0)" stroke-width="2"  />
		</g>
		<g>
			<title> (ctg2397_24)</title>
			<polygon class=" (ctg2397_24)" points="654,40 680,10 680,70" fill="rgb(255,255,255)" fill-opacity="1.0" stroke="rgb(0,0,0)" stroke-width="2"  />
			<g>
				<title>DUF1538 (PF07556)
"Protein of unknown function (DUF1538)"</title>
				<polygon class="PF07556" points="658,40 669,28 677,28 677,52 669,52" stroke-linejoin="round" width="22" height="24" fill="rgb(69,211,119)" stroke="rgb(55,168,95)" stroke-width="1" opacity="0.75" />
			</g>
		</g>
		<g>
			<title> (ctg2397_25)</title>
			<polygon class=" (ctg2397_25)" points="680,40 704,10 704,70" fill="rgb(255,255,255)" fill-opacity="1.0" stroke="rgb(0,0,0)" stroke-width="2"  />
			<g>
				<title>DUF1538 (PF07556)
"Protein of unknown function (DUF1538)"</title>
				<polygon class="PF07556" points="684,40 694,28 702,28 702,52 694,52" stroke-linejoin="round" width="22" height="24" fill="rgb(69,211,119)" stroke="rgb(55,168,95)" stroke-width="1" opacity="0.75" />
			</g>
		</g>
		<g>
			<title> (ctg2397_26)</title>
			<polygon class=" (ctg2397_26)" points="747,25 738,25 738,10 708,40 738,70 738,55 747,55" fill="rgb(255,255,255)" fill-opacity="1.0" stroke="rgb(0,0,0)" stroke-width="2"  />
			<g>
				<title>BNR_2 (PF13088)
"BNR repeat-like domain"</title>
				<polygon class="PF13088" points="712,40 724,28 735,28 735,52 724,52" stroke-linejoin="round" width="25" height="24" fill="rgb(196,211,74)" stroke="rgb(156,168,59)" stroke-width="1" opacity="0.75" />
			</g>
		</g>
		<g>
			<title> (ctg2397_27)</title>
			<polygon class=" (ctg2397_27)" points="750,40 756,10 756,70" fill="rgb(255,255,255)" fill-opacity="1.0" stroke="rgb(0,0,0)" stroke-width="2"  />
		</g>
		<g>
			<title> (ctg2397_28)</title>
			<polygon class=" (ctg2397_28)" points="757,25 762,25 762,10 792,40 762,70 762,55 757,55" fill="rgb(255,255,255)" fill-opacity="1.0" stroke="rgb(0,0,0)" stroke-width="2"  />
		</g>
		<g>
			<title> (ctg2397_29)</title>
			<polygon class=" (ctg2397_29)" points="797,10 809,40 797,70" fill="rgb(255,255,255)" fill-opacity="1.0" stroke="rgb(0,0,0)" stroke-width="2"  />
			<g>
				<title>Glyoxalase (PF00903)
"Glyoxalase/Bleomycin resistance protein/Dioxygenase superfamily"</title>
				<polygon class="PF00903" points="797,28 800,28 805,40 800,52 797,52" stroke-linejoin="round" width="10" height="24" fill="rgb(50,162,189)" stroke="rgb(40,129,151)" stroke-width="1" opacity="0.75" />
			</g>
		</g>
		<g>
			<title> (ctg2397_30)</title>
			<polygon class=" (ctg2397_30)" points="813,40 837,10 837,70" fill="rgb(255,255,255)" fill-opacity="1.0" stroke="rgb(0,0,0)" stroke-width="2"  />
			<g>
				<title>PhyH (PF05721)
"Phytanoyl-CoA dioxygenase (PhyH)"</title>
				<polygon class="PF05721" points="820,36 827,28 837,28 837,52 827,52 820,44" stroke-linejoin="round" width="17" height="24" fill="rgb(72,132,214)" stroke="rgb(57,105,171)" stroke-width="1" opacity="0.75" />
			</g>
		</g>
		<g>
			<title> (ctg2397_31)</title>
			<polygon class=" (ctg2397_31)" points="887,25 874,25 874,10 844,40 874,70 874,55 887,55" fill="rgb(255,255,255)" fill-opacity="1.0" stroke="rgb(0,0,0)" stroke-width="2"  />
		</g>
		<g>
			<title> (ctg2397_32)</title>
			<polygon class=" (ctg2397_32)" points="893,10 902,40 893,70" fill="rgb(255,255,255)" fill-opacity="1.0" stroke="rgb(0,0,0)" stroke-width="2"  />
		</g>
		<g>
			<title> (ctg2397_33)</title>
			<polygon class=" (ctg2397_33)" points="903,40 909,10 909,70" fill="rgb(255,255,255)" fill-opacity="1.0" stroke="rgb(0,0,0)" stroke-width="2"  />
		</g>
		<g>
			<title> (ctg2397_34)</title>
			<polygon class=" (ctg2397_34)" points="910,40 914,10 914,70" fill="rgb(255,255,255)" fill-opacity="1.0" stroke="rgb(0,0,0)" stroke-width="2"  />
		</g>
	</g>
</svg>
