<svg version="1.1" baseProfile="full" xmlns="http://www.w3.org/2000/svg" width="522.2333333333333" height="80">
	<g>
		<line x1="10" y1="40.0" x2="512.2333333333333" y2="40.0" style="stroke:rgb(70,70,70); stroke-width:3 "/>
		<g>
			<title> (ctg3391_1)</title>
			<polygon class=" (ctg3391_1)" points="10,10 30,40 10,70" fill="rgb(255,255,255)" fill-opacity="1.0" stroke="rgb(0,0,0)" stroke-width="2"  />
			<g>
				<title>DUF1329 (PF07044)
"Protein of unknown function (DUF1329)"</title>
				<polygon class="PF07044" points="10,28 18,28 26,40 18,52 10,52" stroke-linejoin="round" width="19" height="24" fill="rgb(92,198,159)" stroke="rgb(73,158,127)" stroke-width="1" opacity="0.75" />
			</g>
		</g>
		<g>
			<title> (ctg3391_2)</title>
			<polygon class=" (ctg3391_2)" points="30,25 32,25 32,10 62,40 32,70 32,55 30,55" fill="rgb(255,255,255)" fill-opacity="1.0" stroke="rgb(0,0,0)" stroke-width="2"  />
			<g>
				<title>PSII_BNR (PF14870)
"Photosynthesis system II assembly factor YCF48"</title>
				<polygon class="PF14870" points="40,28 46,28 50,32 50,48 46,52 40,52" stroke-linejoin="round" width="10" height="24" fill="rgb(188,81,115)" stroke="rgb(150,64,92)" stroke-width="1" opacity="0.75" />
			</g>
		</g>
		<g>
			<title> (ctg3391_3)</title>
			<polygon class=" (ctg3391_3)" points="63,25 110,25 110,10 140,40 110,70 110,55 63,55" fill="rgb(255,255,255)" fill-opacity="1.0" stroke="rgb(0,0,0)" stroke-width="2"  />
			<g>
				<title>MMPL (PF03176)
"MMPL family"</title>
				<rect class="PF03176" x="76" y="28" stroke-linejoin="round" width="27" height="24" fill="rgb(228,109,193)" stroke="rgb(182,87,154)" stroke-width="1" opacity="0.75" />
			</g>
			<g>
				<title>MMPL (PF03176)
"MMPL family"</title>
				<polygon class="PF03176" points="114,28 124,28 136,40 124,52 114,52" stroke-linejoin="round" width="26" height="24" fill="rgb(228,109,193)" stroke="rgb(182,87,154)" stroke-width="1" opacity="0.75" />
			</g>
		</g>
		<g>
			<title> (ctg3391_4)</title>
			<polygon class=" (ctg3391_4)" points="143,40 164,10 164,70" fill="rgb(255,255,255)" fill-opacity="1.0" stroke="rgb(0,0,0)" stroke-width="2"  />
		</g>
		<g>
			<title> (ctg3391_5)</title>
			<polygon class=" (ctg3391_5)" points="168,40 192,10 192,70" fill="rgb(255,255,255)" fill-opacity="1.0" stroke="rgb(0,0,0)" stroke-width="2"  />
			<g>
				<title>UPF0014 (PF03649)
"Uncharacterised protein family (UPF0014)"</title>
				<polygon class="PF03649" points="172,40 182,28 191,28 191,52 182,52" stroke-linejoin="round" width="22" height="24" fill="rgb(208,153,93)" stroke="rgb(166,122,74)" stroke-width="1" opacity="0.75" />
			</g>
		</g>
		<g>
			<title> (ctg3391_6)</title>
			<polygon class=" (ctg3391_6)" points="194,25 194,25 194,10 224,40 194,70 194,55 194,55" fill="rgb(255,255,255)" fill-opacity="1.0" stroke="rgb(0,0,0)" stroke-width="2"  />
			<g>
				<title>Lip_A_acyltrans (PF03279)
"Bacterial lipid A biosynthesis acyltransferase"</title>
				<polygon class="PF03279" points="195,28 208,28 220,40 208,52 195,52" stroke-linejoin="round" width="28" height="24" fill="rgb(95,219,149)" stroke="rgb(76,175,119)" stroke-width="1" opacity="0.75" />
			</g>
		</g>
		<g>
			<title> (ctg3391_7)</title>
			<polygon class=" (ctg3391_7)" points="288,25 254,25 254,10 224,40 254,70 254,55 288,55" fill="rgb(255,255,255)" fill-opacity="1.0" stroke="rgb(0,0,0)" stroke-width="2"  />
			<g>
				<title>PP-binding (PF00550)
"Phosphopantetheine attachment site"</title>
				<polygon class="PF00550" points="228,40 230,38 230,42" stroke-linejoin="round" width="6" height="24" fill="rgb(103,191,88)" stroke="rgb(82,152,70)" stroke-width="1" opacity="0.75" />
			</g>
			<g>
				<title>AMP-binding (PF00501)
"AMP-binding enzyme"</title>
				<rect class="PF00501" x="244" y="28" stroke-linejoin="round" width="43" height="24" fill="rgb(60,217,223)" stroke="rgb(48,173,178)" stroke-width="1" opacity="0.75" />
			</g>
		</g>
		<g>
			<title> (ctg3391_8)</title>
			<polygon class=" (ctg3391_8)" points="295,40 315,10 315,70" fill="rgb(255,255,255)" fill-opacity="1.0" stroke="rgb(0,0,0)" stroke-width="2"  />
			<g>
				<title>SRAP (PF02586)
"SOS response associated peptidase (SRAP)"</title>
				<polygon class="PF02586" points="299,40 307,28 314,28 314,52 307,52" stroke-linejoin="round" width="19" height="24" fill="rgb(152,181,61)" stroke="rgb(121,144,48)" stroke-width="1" opacity="0.75" />
			</g>
		</g>
		<g>
			<title> (ctg3391_9)</title>
			<polygon class=" (ctg3391_9)" points="317,40 334,10 334,70" fill="rgb(255,255,255)" fill-opacity="1.0" stroke="rgb(0,0,0)" stroke-width="2"  />
			<g>
				<title>OsmC (PF02566)
"OsmC-like protein"</title>
				<polygon class="PF02566" points="320,40 327,28 328,28 328,52 327,52" stroke-linejoin="round" width="10" height="24" fill="rgb(161,56,212)" stroke="rgb(128,44,169)" stroke-width="1" opacity="0.75" />
			</g>
		</g>
		<g>
			<title> (ctg3391_10)</title>
			<polygon class=" (ctg3391_10)" points="396,25 380,25 380,10 350,40 380,70 380,55 396,55" fill="rgb(255,255,255)" fill-opacity="1.0" stroke="rgb(0,0,0)" stroke-width="2"  />
			<g>
				<title>Mur_ligase_C (PF02875)
"Mur ligase family, glutamate ligase domain"</title>
				<polygon class="PF02875" points="356,38 364,30 364,50 356,42" stroke-linejoin="round" width="8" height="24" fill="rgb(197,75,168)" stroke="rgb(157,60,134)" stroke-width="1" opacity="0.75" />
			</g>
			<g>
				<title>Mur_ligase_M (PF08245)
"Mur ligase middle domain"</title>
				<polygon class="PF08245" points="366,28 366,28 384,28 384,52 366,52 366,52" stroke-linejoin="round" width="18" height="24" fill="rgb(57,133,195)" stroke="rgb(45,106,156)" stroke-width="1" opacity="0.75" />
			</g>
			<g>
				<title>Mur_ligase (PF01225)
"Mur ligase family, catalytic domain"</title>
				<rect class="PF01225" x="385" y="28" stroke-linejoin="round" width="10" height="24" fill="rgb(64,188,155)" stroke="rgb(51,150,124)" stroke-width="1" opacity="0.75" />
			</g>
		</g>
		<g>
			<title> (ctg3391_11)</title>
			<polygon class=" (ctg3391_11)" points="396,40 413,10 413,70" fill="rgb(255,255,255)" fill-opacity="1.0" stroke="rgb(0,0,0)" stroke-width="2"  />
		</g>
		<g>
			<title> (ctg3391_12)</title>
			<polygon class=" (ctg3391_12)" points="415,40 440,10 440,70" fill="rgb(255,255,255)" fill-opacity="1.0" stroke="rgb(0,0,0)" stroke-width="2"  />
			<g>
				<title>Acetyltransf_11 (PF13720)
"Udp N-acetylglucosamine O-acyltransferase; Domain 2"</title>
				<polygon class="PF13720" points="419,40 422,36 422,44" stroke-linejoin="round" width="7" height="24" fill="rgb(71,125,196)" stroke="rgb(56,100,156)" stroke-width="1" opacity="0.75" />
			</g>
			<g>
				<title>Hexapep (PF00132)
"Bacterial transferase hexapeptide (six repeats)"</title>
				<polygon class="PF00132" points="426,32 429,28 429,28 429,52 429,52 426,48" stroke-linejoin="round" width="3" height="24" fill="rgb(89,131,202)" stroke="rgb(71,104,161)" stroke-width="1" opacity="0.75" />
			</g>
			<g>
				<title>Hexapep (PF00132)
"Bacterial transferase hexapeptide (six repeats)"</title>
				<rect class="PF00132" x="434" y="28" stroke-linejoin="round" width="3" height="24" fill="rgb(89,131,202)" stroke="rgb(71,104,161)" stroke-width="1" opacity="0.75" />
			</g>
			<g>
				<title>Hexapep (PF00132)
"Bacterial transferase hexapeptide (six repeats)"</title>
				<rect class="PF00132" x="437" y="28" stroke-linejoin="round" width="2" height="24" fill="rgb(89,131,202)" stroke="rgb(71,104,161)" stroke-width="1" opacity="0.75" />
			</g>
		</g>
		<g>
			<title> (ctg3391_13)</title>
			<polygon class=" (ctg3391_13)" points="511,25 474,25 474,10 444,40 474,70 474,55 511,55" fill="rgb(255,255,255)" fill-opacity="1.0" stroke="rgb(0,0,0)" stroke-width="2"  />
			<g>
				<title>BRCT (PF00533)
"BRCA1 C Terminus (BRCT) domain"</title>
				<polygon class="PF00533" points="448,40 451,37 451,43" stroke-linejoin="round" width="7" height="24" fill="rgb(69,217,144)" stroke="rgb(55,173,115)" stroke-width="1" opacity="0.75" />
			</g>
			<g>
				<title>HHH_2 (PF12826)
"Helix-hairpin-helix motif"</title>
				<polygon class="PF12826" points="453,35 459,29 459,51 453,45" stroke-linejoin="round" width="6" height="24" fill="rgb(223,81,103)" stroke="rgb(178,64,82)" stroke-width="1" opacity="0.75" />
			</g>
			<g>
				<title>HHH_5 (PF14520)
"Helix-hairpin-helix domain"</title>
				<rect class="PF14520" x="461" y="28" stroke-linejoin="round" width="5" height="24" fill="rgb(118,220,87)" stroke="rgb(94,176,69)" stroke-width="1" opacity="0.75" />
			</g>
			<g>
				<title>DNA_ligase_ZBD (PF03119)
"NAD-dependent DNA ligase C4 zinc finger domain"</title>
				<rect class="PF03119" x="467" y="28" stroke-linejoin="round" width="2" height="24" fill="rgb(72,96,228)" stroke="rgb(57,76,182)" stroke-width="1" opacity="0.75" />
			</g>
			<g>
				<title>DNA_ligase_OB (PF03120)
"NAD-dependent DNA ligase OB-fold domain"</title>
				<rect class="PF03120" x="471" y="28" stroke-linejoin="round" width="7" height="24" fill="rgb(67,220,154)" stroke="rgb(53,176,123)" stroke-width="1" opacity="0.75" />
			</g>
			<g>
				<title>DNA_ligase_aden (PF01653)
"NAD-dependent DNA ligase adenylation domain"</title>
				<rect class="PF01653" x="479" y="28" stroke-linejoin="round" width="31" height="24" fill="rgb(49,184,68)" stroke="rgb(39,147,54)" stroke-width="1" opacity="0.75" />
			</g>
		</g>
	</g>
</svg>
