<svg version="1.1" baseProfile="full" xmlns="http://www.w3.org/2000/svg" width="731.2" height="80">
	<g>
		<line x1="10" y1="40.0" x2="721.2" y2="40.0" style="stroke:rgb(70,70,70); stroke-width:3 "/>
		<g>
			<title> (ctg107_1)</title>
			<polygon class=" (ctg107_1)" points="65,25 40,25 40,10 10,40 40,70 40,55 65,55" fill="rgb(255,255,255)" fill-opacity="1.0" stroke="rgb(0,0,0)" stroke-width="2"  />
		</g>
		<g>
			<title> (ctg107_2)</title>
			<polygon class=" (ctg107_2)" points="99,25 99,25 99,10 69,40 99,70 99,55 99,55" fill="rgb(255,255,255)" fill-opacity="1.0" stroke="rgb(0,0,0)" stroke-width="2"  />
			<g>
				<title>GHMP_kinases_C (PF08544)
"GHMP kinases C terminal"</title>
				<polygon class="PF08544" points="73,40 78,35 78,45" stroke-linejoin="round" width="7" height="24" fill="rgb(95,112,219)" stroke="rgb(76,89,175)" stroke-width="1" opacity="0.75" />
			</g>
			<g>
				<title>GHMP_kinases_N (PF00288)
"GHMP kinases N terminal domain"</title>
				<polygon class="PF00288" points="85,28 85,28 90,28 90,52 85,52 85,52" stroke-linejoin="round" width="5" height="24" fill="rgb(190,54,91)" stroke="rgb(152,43,72)" stroke-width="1" opacity="0.75" />
			</g>
		</g>
		<g>
			<title> (ctg107_3)</title>
			<polygon class=" (ctg107_3)" points="102,10 118,40 102,70" fill="rgb(255,255,255)" fill-opacity="1.0" stroke="rgb(0,0,0)" stroke-width="2"  />
		</g>
		<g>
			<title> (ctg107_4)</title>
			<polygon class=" (ctg107_4)" points="119,10 133,40 119,70" fill="rgb(255,255,255)" fill-opacity="1.0" stroke="rgb(0,0,0)" stroke-width="2"  />
			<g>
				<title>Prok-JAB (PF14464)
"Prokaryotic homologs of the JAB domain"</title>
				<polygon class="PF14464" points="119,28 123,28 129,40 123,52 119,52" stroke-linejoin="round" width="11" height="24" fill="rgb(187,62,157)" stroke="rgb(149,49,125)" stroke-width="1" opacity="0.75" />
			</g>
		</g>
		<g>
			<title> (ctg107_5)</title>
			<polygon class=" (ctg107_5)" points="134,10 162,40 134,70" fill="rgb(255,255,255)" fill-opacity="1.0" stroke="rgb(0,0,0)" stroke-width="2"  />
			<g>
				<title>Pterin_bind (PF00809)
"Pterin binding enzyme"</title>
				<polygon class="PF00809" points="136,28 146,28 158,40 146,52 136,52" stroke-linejoin="round" width="23" height="24" fill="rgb(192,119,62)" stroke="rgb(153,95,49)" stroke-width="1" opacity="0.75" />
			</g>
		</g>
		<g>
			<title> (ctg107_6)</title>
			<polygon class=" (ctg107_6)" points="162,10 178,40 162,70" fill="rgb(255,255,255)" fill-opacity="1.0" stroke="rgb(0,0,0)" stroke-width="2"  />
			<g>
				<title>HPPK (PF01288)
"7,8-dihydro-6-hydroxymethylpterin-pyrophosphokinase (HPPK)"</title>
				<polygon class="PF01288" points="162,28 168,28 174,39 174,41 168,52 162,52" stroke-linejoin="round" width="12" height="24" fill="rgb(203,129,62)" stroke="rgb(162,103,49)" stroke-width="1" opacity="0.75" />
			</g>
		</g>
		<g>
			<title> (ctg107_7)</title>
			<polygon class=" (ctg107_7)" points="179,40 187,10 187,70" fill="rgb(255,255,255)" fill-opacity="1.0" stroke="rgb(0,0,0)" stroke-width="2"  />
		</g>
		<g>
			<title> (ctg107_8)</title>
			<polygon class=" (ctg107_8)" points="187,40 193,10 193,70" fill="rgb(255,255,255)" fill-opacity="1.0" stroke="rgb(0,0,0)" stroke-width="2"  />
			<g>
				<title>Trm112p (PF03966)
"Trm112p-like protein"</title>
				<polygon class="PF03966" points="190,40 192,28 192,28 192,52 192,52" stroke-linejoin="round" width="4" height="24" fill="rgb(223,142,75)" stroke="rgb(178,113,60)" stroke-width="1" opacity="0.75" />
			</g>
		</g>
		<g>
			<title> (ctg107_9)</title>
			<polygon class=" (ctg107_9)" points="196,10 214,40 196,70" fill="rgb(255,255,255)" fill-opacity="1.0" stroke="rgb(0,0,0)" stroke-width="2"  />
			<g>
				<title>Colicin_V (PF02674)
"Colicin V production protein"</title>
				<polygon class="PF02674" points="196,28 203,28 210,39 210,41 203,52 196,52" stroke-linejoin="round" width="14" height="24" fill="rgb(45,82,181)" stroke="rgb(36,65,144)" stroke-width="1" opacity="0.75" />
			</g>
		</g>
		<g>
			<title> (ctg107_10)</title>
			<polygon class=" (ctg107_10)" points="217,10 227,40 217,70" fill="rgb(255,255,255)" fill-opacity="1.0" stroke="rgb(0,0,0)" stroke-width="2"  />
			<g>
				<title>YbjQ_1 (PF01906)
"Putative heavy-metal-binding"</title>
				<polygon class="PF01906" points="217,28 219,28 224,40 219,52 217,52" stroke-linejoin="round" width="10" height="24" fill="rgb(61,192,177)" stroke="rgb(48,153,141)" stroke-width="1" opacity="0.75" />
			</g>
		</g>
		<g>
			<title> (ctg107_11)</title>
			<polygon class=" (ctg107_11)" points="230,25 231,25 231,10 261,40 231,70 231,55 230,55" fill="rgb(255,255,255)" fill-opacity="1.0" stroke="rgb(0,0,0)" stroke-width="2"  />
			<g>
				<title>LYTB (PF02401)
"LytB protein"</title>
				<polygon class="PF02401" points="230,28 244,28 256,40 244,52 230,52" stroke-linejoin="round" width="30" height="24" fill="rgb(155,62,193)" stroke="rgb(124,49,154)" stroke-width="1" opacity="0.75" />
			</g>
		</g>
		<g>
			<title> (ctg107_12)</title>
			<polygon class=" (ctg107_12)" points="261,25 296,25 296,10 326,40 296,70 296,55 261,55" fill="rgb(255,255,255)" fill-opacity="1.0" stroke="rgb(0,0,0)" stroke-width="2"  />
			<g>
				<title>SQHop_cyclase_N (PF13249)
"Squalene-hopene cyclase N-terminal domain"</title>
				<rect class="PF13249" x="263" y="28" stroke-linejoin="round" width="28" height="24" fill="rgb(88,190,89)" stroke="rgb(70,152,71)" stroke-width="1" opacity="0.75" />
			</g>
			<g>
				<title>SQHop_cyclase_C (PF13243)
"Squalene-hopene cyclase C-terminal domain"</title>
				<polygon class="PF13243" points="293,28 310,28 322,40 310,52 293,52" stroke-linejoin="round" width="31" height="24" fill="rgb(191,58,201)" stroke="rgb(152,46,160)" stroke-width="1" opacity="0.75" />
			</g>
		</g>
		<g>
			<title> (ctg107_13)</title>
			<polygon class=" (ctg107_13)" points="326,25 326,25 326,10 356,40 326,70 326,55 326,55" fill="rgb(255,255,255)" fill-opacity="1.0" stroke="rgb(0,0,0)" stroke-width="2"  />
			<g>
				<title>SQS_PSY (PF00494)
"Squalene/phytoene synthase"</title>
				<polygon class="PF00494" points="329,28 339,28 351,40 339,52 329,52" stroke-linejoin="round" width="25" height="24" fill="rgb(178,91,49)" stroke="rgb(142,72,39)" stroke-width="1" opacity="0.75" />
			</g>
		</g>
		<g>
			<title> (ctg107_14)</title>
			<polygon class=" (ctg107_14)" points="357,25 357,25 357,10 387,40 357,70 357,55 357,55" fill="rgb(255,255,255)" fill-opacity="1.0" stroke="rgb(0,0,0)" stroke-width="2"  />
			<g>
				<title>SQS_PSY (PF00494)
"Squalene/phytoene synthase"</title>
				<polygon class="PF00494" points="360,28 371,28 383,40 371,52 360,52" stroke-linejoin="round" width="25" height="24" fill="rgb(178,91,49)" stroke="rgb(142,72,39)" stroke-width="1" opacity="0.75" />
			</g>
		</g>
		<g>
			<title> (ctg107_15)</title>
			<polygon class=" (ctg107_15)" points="388,25 402,25 402,10 432,40 402,70 402,55 388,55" fill="rgb(255,255,255)" fill-opacity="1.0" stroke="rgb(0,0,0)" stroke-width="2"  />
			<g>
				<title>Amino_oxidase (PF01593)
"Flavin containing amine oxidoreductase"</title>
				<polygon class="PF01593" points="389,28 416,28 428,40 416,52 389,52" stroke-linejoin="round" width="43" height="24" fill="rgb(184,74,52)" stroke="rgb(147,59,41)" stroke-width="1" opacity="0.75" />
			</g>
		</g>
		<g>
			<title> (ctg107_16)</title>
			<polygon class=" (ctg107_16)" points="434,25 438,25 438,10 468,40 438,70 438,55 434,55" fill="rgb(255,255,255)" fill-opacity="1.0" stroke="rgb(0,0,0)" stroke-width="2"  />
			<g>
				<title>Radical_SAM (PF04055)
"Radical SAM superfamily"</title>
				<polygon class="PF04055" points="437,28 451,28 452,29 452,51 451,52 437,52" stroke-linejoin="round" width="15" height="24" fill="rgb(149,56,222)" stroke="rgb(119,44,177)" stroke-width="1" opacity="0.75" />
			</g>
			<g>
				<title>DUF3463 (PF11946)
"Domain of unknown function (DUF3463)"</title>
				<polygon class="PF11946" points="453,30 463,40 453,50" stroke-linejoin="round" width="13" height="24" fill="rgb(193,51,57)" stroke="rgb(154,40,45)" stroke-width="1" opacity="0.75" />
			</g>
		</g>
		<g>
			<title> (ctg107_17)</title>
			<polygon class=" (ctg107_17)" points="468,10 490,40 468,70" fill="rgb(255,255,255)" fill-opacity="1.0" stroke="rgb(0,0,0)" stroke-width="2"  />
			<g>
				<title>PNP_UDP_1 (PF01048)
"Phosphorylase superfamily"</title>
				<polygon class="PF01048" points="468,28 478,28 485,38 485,42 478,52 468,52" stroke-linejoin="round" width="17" height="24" fill="rgb(75,186,148)" stroke="rgb(60,148,118)" stroke-width="1" opacity="0.75" />
			</g>
		</g>
		<g>
			<title> (ctg107_18)</title>
			<polygon class=" (ctg107_18)" points="491,10 517,40 491,70" fill="rgb(255,255,255)" fill-opacity="1.0" stroke="rgb(0,0,0)" stroke-width="2"  />
			<g>
				<title>adh_short (PF00106)
"short chain dehydrogenase"</title>
				<polygon class="PF00106" points="491,28 502,28 510,37 510,43 502,52 491,52" stroke-linejoin="round" width="19" height="24" fill="rgb(182,219,73)" stroke="rgb(145,175,58)" stroke-width="1" opacity="0.75" />
			</g>
		</g>
		<g>
			<title> (ctg107_19)</title>
			<polygon class=" (ctg107_19)" points="520,10 537,40 520,70" fill="rgb(255,255,255)" fill-opacity="1.0" stroke="rgb(0,0,0)" stroke-width="2"  />
		</g>
		<g>
			<title> (ctg107_20)</title>
			<polygon class=" (ctg107_20)" points="599,25 575,25 575,10 545,40 575,70 575,55 599,55" fill="rgb(255,255,255)" fill-opacity="1.0" stroke="rgb(0,0,0)" stroke-width="2"  />
			<g>
				<title>Ring_hydroxyl_A (PF00848)
"Ring hydroxylating alpha subunit (catalytic domain)"</title>
				<polygon class="PF00848" points="549,40 561,28 579,28 579,52 561,52" stroke-linejoin="round" width="34" height="24" fill="rgb(76,134,184)" stroke="rgb(60,107,147)" stroke-width="1" opacity="0.75" />
			</g>
			<g>
				<title>Rieske (PF00355)
"Rieske [2Fe-2S] domain"</title>
				<rect class="PF00355" x="584" y="28" stroke-linejoin="round" width="8" height="24" fill="rgb(186,77,145)" stroke="rgb(148,61,115)" stroke-width="1" opacity="0.75" />
			</g>
		</g>
		<g>
			<title> (ctg107_21)</title>
			<polygon class=" (ctg107_21)" points="605,10 631,40 605,70" fill="rgb(255,255,255)" fill-opacity="1.0" stroke="rgb(0,0,0)" stroke-width="2"  />
			<g>
				<title>adh_short_C2 (PF13561)
"Enoyl-(Acyl carrier protein) reductase"</title>
				<polygon class="PF13561" points="606,28 617,28 627,40 617,52 606,52" stroke-linejoin="round" width="24" height="24" fill="rgb(73,205,127)" stroke="rgb(58,164,101)" stroke-width="1" opacity="0.75" />
			</g>
		</g>
		<g>
			<title> (ctg107_22)</title>
			<polygon class=" (ctg107_22)" points="631,10 637,40 631,70" fill="rgb(255,255,255)" fill-opacity="1.0" stroke="rgb(0,0,0)" stroke-width="2"  />
		</g>
		<g>
			<title> (ctg107_23)</title>
			<polygon class=" (ctg107_23)" points="673,25 667,25 667,10 637,40 667,70 667,55 673,55" fill="rgb(255,255,255)" fill-opacity="1.0" stroke="rgb(0,0,0)" stroke-width="2"  />
			<g>
				<title>Mrr_cat (PF04471)
"Restriction endonuclease"</title>
				<polygon class="PF04471" points="641,40 652,29 652,51 641,40" stroke-linejoin="round" width="11" height="24" fill="rgb(58,187,128)" stroke="rgb(46,149,102)" stroke-width="1" opacity="0.75" />
			</g>
			<g>
				<title>HARE-HTH (PF05066)
"HB1, ASXL, restriction endonuclease HTH domain"</title>
				<rect class="PF05066" x="655" y="28" stroke-linejoin="round" width="7" height="24" fill="rgb(197,83,163)" stroke="rgb(157,66,130)" stroke-width="1" opacity="0.75" />
			</g>
			<g>
				<title>HARE-HTH (PF05066)
"HB1, ASXL, restriction endonuclease HTH domain"</title>
				<rect class="PF05066" x="665" y="28" stroke-linejoin="round" width="7" height="24" fill="rgb(197,83,163)" stroke="rgb(157,66,130)" stroke-width="1" opacity="0.75" />
			</g>
		</g>
		<g>
			<title> (ctg107_24)</title>
			<polygon class=" (ctg107_24)" points="675,40 699,10 699,70" fill="rgb(255,255,255)" fill-opacity="1.0" stroke="rgb(0,0,0)" stroke-width="2"  />
			<g>
				<title>ThuA (PF06283)
"Trehalose utilisation"</title>
				<polygon class="PF06283" points="679,40 689,28 698,28 698,52 689,52" stroke-linejoin="round" width="20" height="24" fill="rgb(186,137,92)" stroke="rgb(148,109,73)" stroke-width="1" opacity="0.75" />
			</g>
		</g>
		<g>
			<title> (ctg107_25)</title>
			<polygon class=" (ctg107_25)" points="700,40 712,10 712,70" fill="rgb(255,255,255)" fill-opacity="1.0" stroke="rgb(0,0,0)" stroke-width="2"  />
			<g>
				<title>Glyoxalase (PF00903)
"Glyoxalase/Bleomycin resistance protein/Dioxygenase superfamily"</title>
				<polygon class="PF00903" points="703,40 708,28 711,28 711,52 708,52" stroke-linejoin="round" width="10" height="24" fill="rgb(50,162,189)" stroke="rgb(40,129,151)" stroke-width="1" opacity="0.75" />
			</g>
		</g>
	</g>
</svg>
