<svg version="1.1" baseProfile="full" xmlns="http://www.w3.org/2000/svg" width="250.53333333333333" height="80">
	<g>
		<line x1="10" y1="40.0" x2="240.53333333333333" y2="40.0" style="stroke:rgb(70,70,70); stroke-width:3 "/>
		<g>
			<title> (ctg8163_3)</title>
			<polygon class=" (ctg8163_3)" points="33,10 41,40 33,70" fill="rgb(255,255,255)" fill-opacity="1.0" stroke="rgb(0,0,0)" stroke-width="2"  />
			<g>
				<title>ABC_tran (PF00005)
"ABC transporter"</title>
				<polygon class="PF00005" points="33,28 34,28 37,35 37,45 34,52 33,52" stroke-linejoin="round" width="4" height="24" fill="rgb(129,201,63)" stroke="rgb(103,160,50)" stroke-width="1" opacity="0.75" />
			</g>
		</g>
		<g>
			<title> (ctg8163_4)</title>
			<polygon class=" (ctg8163_4)" points="42,25 63,25 63,10 93,40 63,70 63,55 42,55" fill="rgb(255,255,255)" fill-opacity="1.0" stroke="rgb(0,0,0)" stroke-width="2"  />
			<g>
				<title>Cupin_4 (PF08007)
"Cupin superfamily protein"</title>
				<polygon class="PF08007" points="52,28 76,28 84,36 84,44 76,52 52,52" stroke-linejoin="round" width="32" height="24" fill="rgb(100,90,217)" stroke="rgb(80,72,173)" stroke-width="1" opacity="0.75" />
			</g>
		</g>
		<g>
			<title> (ctg8163_5)</title>
			<polygon class=" (ctg8163_5)" points="93,25 113,25 113,10 143,40 113,70 113,55 93,55" fill="rgb(255,255,255)" fill-opacity="1.0" stroke="rgb(0,0,0)" stroke-width="2"  />
			<g>
				<title>Trp_halogenase (PF04820)
"Tryptophan halogenase"</title>
				<polygon class="PF04820" points="94,28 127,28 139,40 139,40 127,52 94,52" stroke-linejoin="round" width="45" height="24" fill="rgb(179,74,194)" stroke="rgb(143,59,155)" stroke-width="1" opacity="0.75" />
			</g>
		</g>
		<g>
			<title> (ctg8163_6)</title>
			<polygon class=" (ctg8163_6)" points="144,40 170,10 170,70" fill="rgb(255,255,255)" fill-opacity="1.0" stroke="rgb(0,0,0)" stroke-width="2"  />
		</g>
		<g>
			<title> (ctg8163_7)</title>
			<polygon class=" (ctg8163_7)" points="176,40 185,10 185,70" fill="rgb(255,255,255)" fill-opacity="1.0" stroke="rgb(0,0,0)" stroke-width="2"  />
		</g>
		<g>
			<title> (ctg8163_8)</title>
			<polygon class=" (ctg8163_8)" points="197,25 197,25 197,10 227,40 197,70 197,55 197,55" fill="rgb(255,255,255)" fill-opacity="1.0" stroke="rgb(0,0,0)" stroke-width="2"  />
		</g>
	</g>
</svg>
