<svg version="1.1" baseProfile="full" xmlns="http://www.w3.org/2000/svg" width="453.7" height="80">
	<g>
		<line x1="10" y1="40.0" x2="443.7" y2="40.0" style="stroke:rgb(70,70,70); stroke-width:3 "/>
		<g>
			<title> (ctg2622_14)</title>
			<polygon class=" (ctg2622_14)" points="34,10 47,40 34,70" fill="rgb(255,255,255)" fill-opacity="1.0" stroke="rgb(0,0,0)" stroke-width="2"  />
		</g>
		<g>
			<title> (ctg2622_15)</title>
			<polygon class=" (ctg2622_15)" points="48,25 73,25 73,10 103,40 73,70 73,55 48,55" fill="rgb(255,255,255)" fill-opacity="1.0" stroke="rgb(0,0,0)" stroke-width="2"  />
			<g>
				<title>Fumerase (PF05681)
"Fumarate hydratase (Fumerase)"</title>
				<rect class="PF05681" x="53" y="28" stroke-linejoin="round" width="27" height="24" fill="rgb(58,157,204)" stroke="rgb(46,125,163)" stroke-width="1" opacity="0.75" />
			</g>
			<g>
				<title>Fumerase_C (PF05683)
"Fumarase C-terminus"</title>
				<polygon class="PF05683" points="81,28 86,28 98,40 86,52 81,52" stroke-linejoin="round" width="20" height="24" fill="rgb(106,192,217)" stroke="rgb(84,153,173)" stroke-width="1" opacity="0.75" />
			</g>
		</g>
		<g>
			<title> (ctg2622_16)</title>
			<polygon class=" (ctg2622_16)" points="143,25 139,25 139,10 109,40 139,70 139,55 143,55" fill="rgb(255,255,255)" fill-opacity="1.0" stroke="rgb(0,0,0)" stroke-width="2"  />
			<g>
				<title>Gln-synt_C (PF00120)
"Glutamine synthetase, catalytic domain"</title>
				<polygon class="PF00120" points="116,37 125,28 134,28 134,52 125,52 116,43" stroke-linejoin="round" width="18" height="24" fill="rgb(195,227,89)" stroke="rgb(155,181,71)" stroke-width="1" opacity="0.75" />
			</g>
			<g>
				<title>Gln-synt_N (PF03951)
"Glutamine synthetase, beta-Grasp domain"</title>
				<rect class="PF03951" x="134" y="28" stroke-linejoin="round" width="7" height="24" fill="rgb(125,91,194)" stroke="rgb(100,72,155)" stroke-width="1" opacity="0.75" />
			</g>
		</g>
		<g>
			<title> (ctg2622_17)</title>
			<polygon class=" (ctg2622_17)" points="204,25 179,25 179,10 149,40 179,70 179,55 204,55" fill="rgb(255,255,255)" fill-opacity="1.0" stroke="rgb(0,0,0)" stroke-width="2"  />
			<g>
				<title>AMP-binding_C (PF13193)
"AMP-binding enzyme C-terminal domain"</title>
				<polygon class="PF13193" points="153,40 158,35 158,45" stroke-linejoin="round" width="7" height="24" fill="rgb(182,50,118)" stroke="rgb(145,39,94)" stroke-width="1" opacity="0.75" />
			</g>
			<g>
				<title>AMP-binding (PF00501)
"AMP-binding enzyme"</title>
				<polygon class="PF00501" points="159,34 165,28 198,28 198,52 165,52 159,46" stroke-linejoin="round" width="39" height="24" fill="rgb(60,217,223)" stroke="rgb(48,173,178)" stroke-width="1" opacity="0.75" />
			</g>
		</g>
		<g>
			<title> (ctg2622_18)</title>
			<polygon class=" (ctg2622_18)" points="204,25 204,25 204,10 234,40 204,70 204,55 204,55" fill="rgb(255,255,255)" fill-opacity="1.0" stroke="rgb(0,0,0)" stroke-width="2"  />
			<g>
				<title>2-Hacid_dh_C (PF02826)
"D-isomer specific 2-hydroxyacid dehydrogenase, NAD binding domain"</title>
				<polygon class="PF02826" points="213,28 217,28 229,40 217,52 213,52" stroke-linejoin="round" width="17" height="24" fill="rgb(192,197,93)" stroke="rgb(153,157,74)" stroke-width="1" opacity="0.75" />
			</g>
		</g>
		<g>
			<title> (ctg2622_19)</title>
			<polygon class=" (ctg2622_19)" points="286,25 271,25 271,10 241,40 271,70 271,55 286,55" fill="rgb(255,255,255)" fill-opacity="1.0" stroke="rgb(0,0,0)" stroke-width="2"  />
			<g>
				<title>Peripla_BP_6 (PF13458)
"Periplasmic binding protein"</title>
				<polygon class="PF13458" points="245,40 257,28 279,28 279,52 257,52" stroke-linejoin="round" width="37" height="24" fill="rgb(94,183,81)" stroke="rgb(75,146,64)" stroke-width="1" opacity="0.75" />
			</g>
		</g>
		<g>
			<title> (ctg2622_20)</title>
			<polygon class=" (ctg2622_20)" points="322,25 319,25 319,10 289,40 319,70 319,55 322,55" fill="rgb(255,255,255)" fill-opacity="1.0" stroke="rgb(0,0,0)" stroke-width="2"  />
			<g>
				<title>DUF3463 (PF11946)
"Domain of unknown function (DUF3463)"</title>
				<polygon class="PF11946" points="293,40 302,31 302,49" stroke-linejoin="round" width="13" height="24" fill="rgb(193,51,57)" stroke="rgb(154,40,45)" stroke-width="1" opacity="0.75" />
			</g>
			<g>
				<title>Radical_SAM (PF04055)
"Radical SAM superfamily"</title>
				<polygon class="PF04055" points="303,30 305,28 318,28 318,52 305,52 303,50" stroke-linejoin="round" width="15" height="24" fill="rgb(149,56,222)" stroke="rgb(119,44,177)" stroke-width="1" opacity="0.75" />
			</g>
		</g>
		<g>
			<title> (ctg2622_21)</title>
			<polygon class=" (ctg2622_21)" points="322,40 342,10 342,70" fill="rgb(255,255,255)" fill-opacity="1.0" stroke="rgb(0,0,0)" stroke-width="2"  />
			<g>
				<title>PNP_UDP_1 (PF01048)
"Phosphorylase superfamily"</title>
				<polygon class="PF01048" points="328,37 334,28 339,28 339,52 334,52 328,43" stroke-linejoin="round" width="11" height="24" fill="rgb(75,186,148)" stroke="rgb(60,148,118)" stroke-width="1" opacity="0.75" />
			</g>
		</g>
		<g>
			<title> (ctg2622_22)</title>
			<polygon class=" (ctg2622_22)" points="408,25 373,25 373,10 343,40 373,70 373,55 408,55" fill="rgb(255,255,255)" fill-opacity="1.0" stroke="rgb(0,0,0)" stroke-width="2"  />
			<g>
				<title>SQHop_cyclase_C (PF13243)
"Squalene-hopene cyclase C-terminal domain"</title>
				<polygon class="PF13243" points="347,40 359,28 376,28 376,52 359,52" stroke-linejoin="round" width="32" height="24" fill="rgb(191,58,201)" stroke="rgb(152,46,160)" stroke-width="1" opacity="0.75" />
			</g>
			<g>
				<title>SQHop_cyclase_N (PF13249)
"Squalene-hopene cyclase N-terminal domain"</title>
				<rect class="PF13249" x="376" y="28" stroke-linejoin="round" width="28" height="24" fill="rgb(88,190,89)" stroke="rgb(70,152,71)" stroke-width="1" opacity="0.75" />
			</g>
		</g>
		<g>
			<title> (ctg2622_23)</title>
			<polygon class=" (ctg2622_23)" points="442,25 439,25 439,10 409,40 439,70 439,55 442,55" fill="rgb(255,255,255)" fill-opacity="1.0" stroke="rgb(0,0,0)" stroke-width="2"  />
			<g>
				<title>polyprenyl_synt (PF00348)
"Polyprenyl synthetase"</title>
				<polygon class="PF00348" points="414,39 425,28 438,28 438,52 425,52 414,41" stroke-linejoin="round" width="24" height="24" fill="rgb(61,206,65)" stroke="rgb(48,164,52)" stroke-width="1" opacity="0.75" />
			</g>
		</g>
	</g>
</svg>
