<svg version="1.1" baseProfile="full" xmlns="http://www.w3.org/2000/svg" width="381.1333333333333" height="80">
	<g>
		<line x1="10" y1="40.0" x2="371.1333333333333" y2="40.0" style="stroke:rgb(70,70,70); stroke-width:3 "/>
		<g>
			<title> (ctg74_234)</title>
			<polygon class=" (ctg74_234)" points="30,10 58,40 30,70" fill="rgb(255,255,255)" fill-opacity="1.0" stroke="rgb(0,0,0)" stroke-width="2"  />
			<g>
				<title>Bac_luciferase (PF00296)
"Luciferase-like monooxygenase"</title>
				<polygon class="PF00296" points="30,28 42,28 53,40 42,52 30,52" stroke-linejoin="round" width="27" height="24" fill="rgb(180,112,78)" stroke="rgb(144,89,62)" stroke-width="1" opacity="0.75" />
			</g>
		</g>
		<g>
			<title> (ctg74_235)</title>
			<polygon class=" (ctg74_235)" points="65,40 78,10 78,70" fill="rgb(255,255,255)" fill-opacity="1.0" stroke="rgb(0,0,0)" stroke-width="2"  />
			<g>
				<title>Ribonuc_L-PSP (PF01042)
"Endoribonuclease L-PSP"</title>
				<polygon class="PF01042" points="68,40 73,28 76,28 76,52 73,52" stroke-linejoin="round" width="11" height="24" fill="rgb(93,120,208)" stroke="rgb(74,96,166)" stroke-width="1" opacity="0.75" />
			</g>
		</g>
		<g>
			<title> (ctg74_236)</title>
			<polygon class=" (ctg74_236)" points="127,25 114,25 114,10 84,40 114,70 114,55 127,55" fill="rgb(255,255,255)" fill-opacity="1.0" stroke="rgb(0,0,0)" stroke-width="2"  />
			<g>
				<title>DAO (PF01266)
"FAD dependent oxidoreductase"</title>
				<polygon class="PF01266" points="88,40 100,28 123,28 123,52 100,52 88,40" stroke-linejoin="round" width="35" height="24" fill="rgb(123,179,59)" stroke="rgb(98,143,47)" stroke-width="1" opacity="0.75" />
			</g>
		</g>
		<g>
			<title> (ctg74_237)</title>
			<polygon class=" (ctg74_237)" points="142,10 152,40 142,70" fill="rgb(255,255,255)" fill-opacity="1.0" stroke="rgb(0,0,0)" stroke-width="2"  />
			<g>
				<title>adh_short (PF00106)
"short chain dehydrogenase"</title>
				<polygon class="PF00106" points="142,28 144,28 148,37 148,43 144,52 142,52" stroke-linejoin="round" width="6" height="24" fill="rgb(182,219,73)" stroke="rgb(145,175,58)" stroke-width="1" opacity="0.75" />
			</g>
		</g>
		<g>
			<title> (ctg74_238)</title>
			<polygon class=" (ctg74_238)" points="153,10 171,40 153,70" fill="rgb(255,255,255)" fill-opacity="1.0" stroke="rgb(0,0,0)" stroke-width="2"  />
		</g>
		<g>
			<title> (ctg74_239)</title>
			<polygon class=" (ctg74_239)" points="176,40 203,10 203,70" fill="rgb(255,255,255)" fill-opacity="1.0" stroke="rgb(0,0,0)" stroke-width="2"  />
			<g>
				<title>Ectoine_synth (PF06339)
"Ectoine synthase"</title>
				<polygon class="PF06339" points="180,40 189,30 189,50" stroke-linejoin="round" width="12" height="24" fill="rgb(225,176,81)" stroke="rgb(180,140,64)" stroke-width="1" opacity="0.75" />
			</g>
			<g>
				<title>Ectoine_synth (PF06339)
"Ectoine synthase"</title>
				<polygon class="PF06339" points="190,29 191,28 203,28 203,52 191,52 190,51" stroke-linejoin="round" width="13" height="24" fill="rgb(225,176,81)" stroke="rgb(180,140,64)" stroke-width="1" opacity="0.75" />
			</g>
		</g>
		<g>
			<title> (ctg74_240)</title>
			<polygon class=" (ctg74_240)" points="211,25 236,25 236,10 266,40 236,70 236,55 211,55" fill="rgb(255,255,255)" fill-opacity="1.0" stroke="rgb(0,0,0)" stroke-width="2"  />
			<g>
				<title>FMO-like (PF00743)
"Flavin-binding monooxygenase-like"</title>
				<rect class="PF00743" x="212" y="28" stroke-linejoin="round" width="21" height="24" fill="rgb(203,74,151)" stroke="rgb(162,59,120)" stroke-width="1" opacity="0.75" />
			</g>
		</g>
		<g>
			<title> (ctg74_241)</title>
			<polygon class=" (ctg74_241)" points="269,40 290,10 290,70" fill="rgb(255,255,255)" fill-opacity="1.0" stroke="rgb(0,0,0)" stroke-width="2"  />
			<g>
				<title>GST_C (PF00043)
"Glutathione S-transferase, C-terminal domain"</title>
				<polygon class="PF00043" points="273,40 280,30 280,50" stroke-linejoin="round" width="11" height="24" fill="rgb(102,108,211)" stroke="rgb(81,86,168)" stroke-width="1" opacity="0.75" />
			</g>
			<g>
				<title>GST_N_3 (PF13417)
"Glutathione S-transferase, N-terminal domain"</title>
				<polygon class="PF13417" points="282,28 282,28 289,28 289,52 282,52 282,52" stroke-linejoin="round" width="7" height="24" fill="rgb(220,154,91)" stroke="rgb(176,123,72)" stroke-width="1" opacity="0.75" />
			</g>
		</g>
		<g>
			<title> (ctg74_242)</title>
			<polygon class=" (ctg74_242)" points="292,40 299,10 299,70" fill="rgb(255,255,255)" fill-opacity="1.0" stroke="rgb(0,0,0)" stroke-width="2"  />
		</g>
		<g>
			<title> (ctg74_243)</title>
			<polygon class=" (ctg74_243)" points="301,10 313,40 301,70" fill="rgb(255,255,255)" fill-opacity="1.0" stroke="rgb(0,0,0)" stroke-width="2"  />
			<g>
				<title>Ribonuc_L-PSP (PF01042)
"Endoribonuclease L-PSP"</title>
				<polygon class="PF01042" points="301,28 305,28 310,40 305,52 301,52" stroke-linejoin="round" width="11" height="24" fill="rgb(93,120,208)" stroke="rgb(74,96,166)" stroke-width="1" opacity="0.75" />
			</g>
		</g>
		<g>
			<title> (ctg74_244)</title>
			<polygon class=" (ctg74_244)" points="316,40 325,10 325,70" fill="rgb(255,255,255)" fill-opacity="1.0" stroke="rgb(0,0,0)" stroke-width="2"  />
			<g>
				<title>COX4_pro (PF03626)
"Prokaryotic Cytochrome C oxidase subunit IV"</title>
				<polygon class="PF03626" points="319,40 323,28 323,28 323,52 323,52" stroke-linejoin="round" width="7" height="24" fill="rgb(225,80,63)" stroke="rgb(180,64,50)" stroke-width="1" opacity="0.75" />
			</g>
		</g>
		<g>
			<title> (ctg74_245)</title>
			<polygon class=" (ctg74_245)" points="326,40 345,10 345,70" fill="rgb(255,255,255)" fill-opacity="1.0" stroke="rgb(0,0,0)" stroke-width="2"  />
			<g>
				<title>COX3 (PF00510)
"Cytochrome c oxidase subunit III"</title>
				<polygon class="PF00510" points="330,40 338,28 344,28 344,52 338,52" stroke-linejoin="round" width="18" height="24" fill="rgb(104,211,69)" stroke="rgb(83,168,55)" stroke-width="1" opacity="0.75" />
			</g>
		</g>
		<g>
			<title> (ctg74_246)</title>
			<polygon class=" (ctg74_246)" points="346,40 369,10 369,70" fill="rgb(255,255,255)" fill-opacity="1.0" stroke="rgb(0,0,0)" stroke-width="2"  />
		</g>
	</g>
</svg>
