<svg version="1.1" baseProfile="full" xmlns="http://www.w3.org/2000/svg" width="753.9" height="80">
	<g>
		<line x1="10" y1="40.0" x2="743.9" y2="40.0" style="stroke:rgb(70,70,70); stroke-width:3 "/>
		<g>
			<title> (ctg2176_5)</title>
			<polygon class=" (ctg2176_5)" points="46,40 62,10 62,70" fill="rgb(255,255,255)" fill-opacity="1.0" stroke="rgb(0,0,0)" stroke-width="2"  />
		</g>
		<g>
			<title> (ctg2176_6)</title>
			<polygon class=" (ctg2176_6)" points="69,25 132,25 132,10 162,40 132,70 132,55 69,55" fill="rgb(255,255,255)" fill-opacity="1.0" stroke="rgb(0,0,0)" stroke-width="2"  />
			<g>
				<title>tRNA-synt_1 (PF00133)
"tRNA synthetases class I (I, L, M and V)"</title>
				<rect class="PF00133" x="72" y="28" stroke-linejoin="round" width="62" height="24" fill="rgb(209,58,146)" stroke="rgb(167,46,116)" stroke-width="1" opacity="0.75" />
			</g>
			<g>
				<title>Anticodon_1 (PF08264)
"Anticodon-binding domain of tRNA"</title>
				<polygon class="PF08264" points="138,28 145,28 153,36 153,44 145,52 138,52" stroke-linejoin="round" width="15" height="24" fill="rgb(85,52,208)" stroke="rgb(68,41,166)" stroke-width="1" opacity="0.75" />
			</g>
		</g>
		<g>
			<title> (ctg2176_7)</title>
			<polygon class=" (ctg2176_7)" points="162,10 178,40 162,70" fill="rgb(255,255,255)" fill-opacity="1.0" stroke="rgb(0,0,0)" stroke-width="2"  />
			<g>
				<title>Peptidase_A8 (PF01252)
"Signal peptidase (SPase) II"</title>
				<polygon class="PF01252" points="163,28 168,28 175,40 168,52 163,52" stroke-linejoin="round" width="14" height="24" fill="rgb(79,62,214)" stroke="rgb(63,49,171)" stroke-width="1" opacity="0.75" />
			</g>
		</g>
		<g>
			<title> (ctg2176_8)</title>
			<polygon class=" (ctg2176_8)" points="179,10 198,40 179,70" fill="rgb(255,255,255)" fill-opacity="1.0" stroke="rgb(0,0,0)" stroke-width="2"  />
			<g>
				<title>DUF3035 (PF11233)
"Protein of unknown function (DUF3035)"</title>
				<polygon class="PF11233" points="181,28 187,28 194,39 194,41 187,52 181,52" stroke-linejoin="round" width="13" height="24" fill="rgb(228,107,182)" stroke="rgb(182,85,145)" stroke-width="1" opacity="0.75" />
			</g>
		</g>
		<g>
			<title> (ctg2176_9)</title>
			<polygon class=" (ctg2176_9)" points="216,10 239,40 216,70" fill="rgb(255,255,255)" fill-opacity="1.0" stroke="rgb(0,0,0)" stroke-width="2"  />
			<g>
				<title>LolA_like (PF17131)
"Outer membrane lipoprotein-sorting protein"</title>
				<polygon class="PF17131" points="220,28 226,28 235,40 226,52 220,52" stroke-linejoin="round" width="18" height="24" fill="rgb(189,100,83)" stroke="rgb(151,80,66)" stroke-width="1" opacity="0.75" />
			</g>
		</g>
		<g>
			<title> (ctg2176_10)</title>
			<polygon class=" (ctg2176_10)" points="237,40 245,10 245,70" fill="rgb(255,255,255)" fill-opacity="1.0" stroke="rgb(0,0,0)" stroke-width="2"  />
		</g>
		<g>
			<title> (ctg2176_11)</title>
			<polygon class=" (ctg2176_11)" points="246,40 249,10 249,70" fill="rgb(255,255,255)" fill-opacity="1.0" stroke="rgb(0,0,0)" stroke-width="2"  />
		</g>
		<g>
			<title> (ctg2176_12)</title>
			<polygon class=" (ctg2176_12)" points="252,10 281,40 252,70" fill="rgb(255,255,255)" fill-opacity="1.0" stroke="rgb(0,0,0)" stroke-width="2"  />
		</g>
		<g>
			<title> (ctg2176_13)</title>
			<polygon class=" (ctg2176_13)" points="306,10 332,40 306,70" fill="rgb(255,255,255)" fill-opacity="1.0" stroke="rgb(0,0,0)" stroke-width="2"  />
			<g>
				<title>polyprenyl_synt (PF00348)
"Polyprenyl synthetase"</title>
				<polygon class="PF00348" points="306,28 318,28 328,40 318,52 306,52" stroke-linejoin="round" width="23" height="24" fill="rgb(61,206,65)" stroke="rgb(48,164,52)" stroke-width="1" opacity="0.75" />
			</g>
		</g>
		<g>
			<title> (ctg2176_14)</title>
			<polygon class=" (ctg2176_14)" points="343,25 343,25 343,10 373,40 343,70 343,55 343,55" fill="rgb(255,255,255)" fill-opacity="1.0" stroke="rgb(0,0,0)" stroke-width="2"  />
			<g>
				<title>SQS_PSY (PF00494)
"Squalene/phytoene synthase"</title>
				<polygon class="PF00494" points="345,28 357,28 369,40 357,52 345,52" stroke-linejoin="round" width="25" height="24" fill="rgb(178,91,49)" stroke="rgb(142,72,39)" stroke-width="1" opacity="0.75" />
			</g>
		</g>
		<g>
			<title> (ctg2176_15)</title>
			<polygon class=" (ctg2176_15)" points="391,10 410,40 391,70" fill="rgb(255,255,255)" fill-opacity="1.0" stroke="rgb(0,0,0)" stroke-width="2"  />
			<g>
				<title>SQS_PSY (PF00494)
"Squalene/phytoene synthase"</title>
				<polygon class="PF00494" points="391,28 399,28 406,40 399,52 391,52" stroke-linejoin="round" width="18" height="24" fill="rgb(178,91,49)" stroke="rgb(142,72,39)" stroke-width="1" opacity="0.75" />
			</g>
		</g>
		<g>
			<title> (ctg2176_16)</title>
			<polygon class=" (ctg2176_16)" points="409,25 422,25 422,10 452,40 422,70 422,55 409,55" fill="rgb(255,255,255)" fill-opacity="1.0" stroke="rgb(0,0,0)" stroke-width="2"  />
			<g>
				<title>Amino_oxidase (PF01593)
"Flavin containing amine oxidoreductase"</title>
				<polygon class="PF01593" points="411,28 435,28 447,40 435,52 411,52" stroke-linejoin="round" width="40" height="24" fill="rgb(184,74,52)" stroke="rgb(147,59,41)" stroke-width="1" opacity="0.75" />
			</g>
		</g>
		<g>
			<title> (ctg2176_17)</title>
			<polygon class=" (ctg2176_17)" points="570,25 484,25 484,10 454,40 484,70 484,55 570,55" fill="rgb(255,255,255)" fill-opacity="1.0" stroke="rgb(0,0,0)" stroke-width="2"  />
			<g>
				<title>POR (PF01558)
"Pyruvate ferredoxin/flavodoxin oxidoreductase"</title>
				<rect class="PF01558" x="479" y="28" stroke-linejoin="round" width="18" height="24" fill="rgb(89,196,208)" stroke="rgb(71,156,166)" stroke-width="1" opacity="0.75" />
			</g>
			<g>
				<title>TPP_enzyme_C (PF02775)
"Thiamine pyrophosphate enzyme, C-terminal TPP binding domain"</title>
				<rect class="PF02775" x="510" y="28" stroke-linejoin="round" width="14" height="24" fill="rgb(156,179,45)" stroke="rgb(124,143,36)" stroke-width="1" opacity="0.75" />
			</g>
		</g>
		<g>
			<title> (ctg2176_18)</title>
			<polygon class=" (ctg2176_18)" points="583,10 591,40 583,70" fill="rgb(255,255,255)" fill-opacity="1.0" stroke="rgb(0,0,0)" stroke-width="2"  />
		</g>
		<g>
			<title> (ctg2176_19)</title>
			<polygon class=" (ctg2176_19)" points="591,10 602,40 591,70" fill="rgb(255,255,255)" fill-opacity="1.0" stroke="rgb(0,0,0)" stroke-width="2"  />
		</g>
		<g>
			<title> (ctg2176_20)</title>
			<polygon class=" (ctg2176_20)" points="604,25 615,25 615,10 645,40 615,70 615,55 604,55" fill="rgb(255,255,255)" fill-opacity="1.0" stroke="rgb(0,0,0)" stroke-width="2"  />
			<g>
				<title>DUF4147 (PF13660)
"Domain of unknown function (DUF4147)"</title>
				<rect class="PF13660" x="604" y="28" stroke-linejoin="round" width="21" height="24" fill="rgb(74,207,91)" stroke="rgb(59,165,72)" stroke-width="1" opacity="0.75" />
			</g>
			<g>
				<title>MOFRL (PF05161)
"MOFRL family"</title>
				<polygon class="PF05161" points="633,33 640,40 633,47" stroke-linejoin="round" width="10" height="24" fill="rgb(224,222,98)" stroke="rgb(179,177,78)" stroke-width="1" opacity="0.75" />
			</g>
		</g>
		<g>
			<title> (ctg2176_21)</title>
			<polygon class=" (ctg2176_21)" points="646,40 665,10 665,70" fill="rgb(255,255,255)" fill-opacity="1.0" stroke="rgb(0,0,0)" stroke-width="2"  />
			<g>
				<title>TPR_16 (PF13432)
"Tetratricopeptide repeat"</title>
				<polygon class="PF13432" points="651,38 656,31 656,49 651,42" stroke-linejoin="round" width="5" height="24" fill="rgb(154,205,86)" stroke="rgb(123,164,68)" stroke-width="1" opacity="0.75" />
			</g>
		</g>
		<g>
			<title> (ctg2176_22)</title>
			<polygon class=" (ctg2176_22)" points="712,25 695,25 695,10 665,40 695,70 695,55 712,55" fill="rgb(255,255,255)" fill-opacity="1.0" stroke="rgb(0,0,0)" stroke-width="2"  />
			<g>
				<title>Aldedh (PF00171)
"Aldehyde dehydrogenase family"</title>
				<polygon class="PF00171" points="669,40 681,28 711,28 711,52 681,52" stroke-linejoin="round" width="46" height="24" fill="rgb(105,213,139)" stroke="rgb(84,170,111)" stroke-width="1" opacity="0.75" />
			</g>
		</g>
		<g>
			<title> (ctg2176_23)</title>
			<polygon class=" (ctg2176_23)" points="718,10 724,40 718,70" fill="rgb(255,255,255)" fill-opacity="1.0" stroke="rgb(0,0,0)" stroke-width="2"  />
			<g>
				<title>Ribosomal_L35p (PF01632)
"Ribosomal protein L35"</title>
				<polygon class="PF01632" points="718,28 718,28 721,40 718,52 718,52" stroke-linejoin="round" width="6" height="24" fill="rgb(87,201,54)" stroke="rgb(69,160,43)" stroke-width="1" opacity="0.75" />
			</g>
		</g>
		<g>
			<title> (ctg2176_24)</title>
			<polygon class=" (ctg2176_24)" points="725,10 737,40 725,70" fill="rgb(255,255,255)" fill-opacity="1.0" stroke="rgb(0,0,0)" stroke-width="2"  />
			<g>
				<title>Ribosomal_L20 (PF00453)
"Ribosomal protein L20"</title>
				<polygon class="PF00453" points="725,28 728,28 733,40 728,52 725,52" stroke-linejoin="round" width="10" height="24" fill="rgb(221,85,111)" stroke="rgb(176,67,88)" stroke-width="1" opacity="0.75" />
			</g>
		</g>
	</g>
</svg>
