<svg version="1.1" baseProfile="full" xmlns="http://www.w3.org/2000/svg" width="721.3666666666667" height="80">
	<g>
		<line x1="10" y1="40.0" x2="711.3666666666667" y2="40.0" style="stroke:rgb(70,70,70); stroke-width:3 "/>
		<g>
			<title> (ctg6_440)</title>
			<polygon class=" (ctg6_440)" points="29,25 36,25 36,10 66,40 36,70 36,55 29,55" fill="rgb(255,255,255)" fill-opacity="1.0" stroke="rgb(0,0,0)" stroke-width="2"  />
		</g>
		<g>
			<title> (ctg6_441)</title>
			<polygon class=" (ctg6_441)" points="68,25 119,25 119,10 149,40 119,70 119,55 68,55" fill="rgb(255,255,255)" fill-opacity="1.0" stroke="rgb(0,0,0)" stroke-width="2"  />
			<g>
				<title>GSDH (PF07995)
"Glucose / Sorbosone dehydrogenase"</title>
				<rect class="PF07995" x="84" y="28" stroke-linejoin="round" width="22" height="24" fill="rgb(199,57,124)" stroke="rgb(159,45,99)" stroke-width="1" opacity="0.75" />
			</g>
			<g>
				<title>FlgD_ig (PF13860)
"FlgD Ig-like domain"</title>
				<polygon class="PF13860" points="142,37 145,40 142,43" stroke-linejoin="round" width="5" height="24" fill="rgb(135,90,185)" stroke="rgb(108,72,148)" stroke-width="1" opacity="0.75" />
			</g>
		</g>
		<g>
			<title> (ctg6_442)</title>
			<polygon class=" (ctg6_442)" points="150,10 164,40 150,70" fill="rgb(255,255,255)" fill-opacity="1.0" stroke="rgb(0,0,0)" stroke-width="2"  />
			<g>
				<title>HSDR_N_2 (PF13588)
"Type I restriction enzyme R protein N terminus (HSDR_N)"</title>
				<polygon class="PF13588" points="153,28 155,28 161,40 155,52 153,52" stroke-linejoin="round" width="10" height="24" fill="rgb(59,182,76)" stroke="rgb(47,145,60)" stroke-width="1" opacity="0.75" />
			</g>
		</g>
		<g>
			<title> (ctg6_443)</title>
			<polygon class=" (ctg6_443)" points="166,40 195,10 195,70" fill="rgb(255,255,255)" fill-opacity="1.0" stroke="rgb(0,0,0)" stroke-width="2"  />
		</g>
		<g>
			<title> (ctg6_444)</title>
			<polygon class=" (ctg6_444)" points="230,25 227,25 227,10 197,40 227,70 227,55 230,55" fill="rgb(255,255,255)" fill-opacity="1.0" stroke="rgb(0,0,0)" stroke-width="2"  />
			<g>
				<title>UxuA (PF03786)
"D-mannonate dehydratase (UxuA)"</title>
				<polygon class="PF03786" points="201,40 213,28 218,28 218,52 213,52" stroke-linejoin="round" width="20" height="24" fill="rgb(193,50,168)" stroke="rgb(154,39,134)" stroke-width="1" opacity="0.75" />
			</g>
		</g>
		<g>
			<title> (ctg6_445)</title>
			<polygon class=" (ctg6_445)" points="232,40 258,10 258,70" fill="rgb(255,255,255)" fill-opacity="1.0" stroke="rgb(0,0,0)" stroke-width="2"  />
			<g>
				<title>ABC2_membrane_6 (PF06182)
"ABC-2 family transporter protein"</title>
				<polygon class="PF06182" points="236,40 246,28 254,28 254,52 246,52" stroke-linejoin="round" width="22" height="24" fill="rgb(223,99,59)" stroke="rgb(178,79,47)" stroke-width="1" opacity="0.75" />
			</g>
		</g>
		<g>
			<title> (ctg6_446)</title>
			<polygon class=" (ctg6_446)" points="258,40 284,10 284,70" fill="rgb(255,255,255)" fill-opacity="1.0" stroke="rgb(0,0,0)" stroke-width="2"  />
			<g>
				<title>ABC2_membrane_6 (PF06182)
"ABC-2 family transporter protein"</title>
				<polygon class="PF06182" points="262,40 273,28 281,28 281,52 273,52" stroke-linejoin="round" width="23" height="24" fill="rgb(223,99,59)" stroke="rgb(178,79,47)" stroke-width="1" opacity="0.75" />
			</g>
		</g>
		<g>
			<title> (ctg6_447)</title>
			<polygon class=" (ctg6_447)" points="317,25 315,25 315,10 285,40 315,70 315,55 317,55" fill="rgb(255,255,255)" fill-opacity="1.0" stroke="rgb(0,0,0)" stroke-width="2"  />
			<g>
				<title>ABC_tran (PF00005)
"ABC transporter"</title>
				<polygon class="PF00005" points="298,31 301,28 312,28 312,52 301,52 298,49" stroke-linejoin="round" width="14" height="24" fill="rgb(129,201,63)" stroke="rgb(103,160,50)" stroke-width="1" opacity="0.75" />
			</g>
		</g>
		<g>
			<title> (ctg6_448)</title>
			<polygon class=" (ctg6_448)" points="319,40 340,10 340,70" fill="rgb(255,255,255)" fill-opacity="1.0" stroke="rgb(0,0,0)" stroke-width="2"  />
			<g>
				<title>Amidase_2 (PF01510)
"N-acetylmuramoyl-L-alanine amidase"</title>
				<polygon class="PF01510" points="323,40 331,28 336,28 336,52 331,52" stroke-linejoin="round" width="16" height="24" fill="rgb(122,192,71)" stroke="rgb(97,153,56)" stroke-width="1" opacity="0.75" />
			</g>
		</g>
		<g>
			<title> (ctg6_449)</title>
			<polygon class=" (ctg6_449)" points="343,25 347,25 347,10 377,40 347,70 347,55 343,55" fill="rgb(255,255,255)" fill-opacity="1.0" stroke="rgb(0,0,0)" stroke-width="2"  />
			<g>
				<title>SQS_PSY (PF00494)
"Squalene/phytoene synthase"</title>
				<polygon class="PF00494" points="344,28 361,28 373,40 373,40 361,52 344,52" stroke-linejoin="round" width="29" height="24" fill="rgb(178,91,49)" stroke="rgb(142,72,39)" stroke-width="1" opacity="0.75" />
			</g>
		</g>
		<g>
			<title> (ctg6_450)</title>
			<polygon class=" (ctg6_450)" points="380,25 390,25 390,10 420,40 390,70 390,55 380,55" fill="rgb(255,255,255)" fill-opacity="1.0" stroke="rgb(0,0,0)" stroke-width="2"  />
			<g>
				<title>Amidohydro_1 (PF01979)
"Amidohydrolase family"</title>
				<polygon class="PF01979" points="406,30 416,40 406,50" stroke-linejoin="round" width="11" height="24" fill="rgb(210,93,184)" stroke="rgb(168,74,147)" stroke-width="1" opacity="0.75" />
			</g>
		</g>
		<g>
			<title> (ctg6_451)</title>
			<polygon class=" (ctg6_451)" points="421,10 448,40 421,70" fill="rgb(255,255,255)" fill-opacity="1.0" stroke="rgb(0,0,0)" stroke-width="2"  />
			<g>
				<title>Methyltransf_11 (PF08241)
"Methyltransferase domain"</title>
				<polygon class="PF08241" points="425,28 432,28 434,29 434,51 432,52 425,52" stroke-linejoin="round" width="9" height="24" fill="rgb(106,219,159)" stroke="rgb(84,175,127)" stroke-width="1" opacity="0.75" />
			</g>
		</g>
		<g>
			<title> (ctg6_452)</title>
			<polygon class=" (ctg6_452)" points="449,10 463,40 449,70" fill="rgb(255,255,255)" fill-opacity="1.0" stroke="rgb(0,0,0)" stroke-width="2"  />
			<g>
				<title>PCuAC (PF04314)
"Copper chaperone PCu(A)C"</title>
				<polygon class="PF04314" points="451,28 454,28 460,40 454,52 451,52" stroke-linejoin="round" width="10" height="24" fill="rgb(55,206,196)" stroke="rgb(44,164,156)" stroke-width="1" opacity="0.75" />
			</g>
		</g>
		<g>
			<title> (ctg6_453)</title>
			<polygon class=" (ctg6_453)" points="463,10 483,40 463,70" fill="rgb(255,255,255)" fill-opacity="1.0" stroke="rgb(0,0,0)" stroke-width="2"  />
			<g>
				<title>SCO1-SenC (PF02630)
"SCO1/SenC"</title>
				<polygon class="PF02630" points="467,28 471,28 480,40 480,40 471,52 467,52" stroke-linejoin="round" width="13" height="24" fill="rgb(86,217,172)" stroke="rgb(68,173,137)" stroke-width="1" opacity="0.75" />
			</g>
		</g>
		<g>
			<title> (ctg6_454)</title>
			<polygon class=" (ctg6_454)" points="484,10 488,40 484,70" fill="rgb(255,255,255)" fill-opacity="1.0" stroke="rgb(0,0,0)" stroke-width="2"  />
		</g>
		<g>
			<title> (ctg6_455)</title>
			<polygon class=" (ctg6_455)" points="490,25 507,25 507,10 537,40 507,70 507,55 490,55" fill="rgb(255,255,255)" fill-opacity="1.0" stroke="rgb(0,0,0)" stroke-width="2"  />
			<g>
				<title>Sulfatase (PF00884)
"Sulfatase"</title>
				<polygon class="PF00884" points="490,28 520,28 526,34 526,46 520,52 490,52" stroke-linejoin="round" width="36" height="24" fill="rgb(61,103,198)" stroke="rgb(48,82,158)" stroke-width="1" opacity="0.75" />
			</g>
		</g>
		<g>
			<title> (ctg6_456)</title>
			<polygon class=" (ctg6_456)" points="541,10 556,40 541,70" fill="rgb(255,255,255)" fill-opacity="1.0" stroke="rgb(0,0,0)" stroke-width="2"  />
		</g>
		<g>
			<title> (ctg6_457)</title>
			<polygon class=" (ctg6_457)" points="558,40 576,10 576,70" fill="rgb(255,255,255)" fill-opacity="1.0" stroke="rgb(0,0,0)" stroke-width="2"  />
		</g>
		<g>
			<title> (ctg6_458)</title>
			<polygon class=" (ctg6_458)" points="585,25 608,25 608,10 638,40 608,70 608,55 585,55" fill="rgb(255,255,255)" fill-opacity="1.0" stroke="rgb(0,0,0)" stroke-width="2"  />
			<g>
				<title>Sulfatase (PF00884)
"Sulfatase"</title>
				<rect class="PF00884" x="585" y="28" stroke-linejoin="round" width="11" height="24" fill="rgb(61,103,198)" stroke="rgb(48,82,158)" stroke-width="1" opacity="0.75" />
			</g>
			<g>
				<title>Sulfatase (PF00884)
"Sulfatase"</title>
				<rect class="PF00884" x="596" y="28" stroke-linejoin="round" width="16" height="24" fill="rgb(61,103,198)" stroke="rgb(48,82,158)" stroke-width="1" opacity="0.75" />
			</g>
			<g>
				<title>CHB_HEX_C_1 (PF13290)
"Chitobiase/beta-hexosaminidase C-terminal domain"</title>
				<polygon class="PF13290" points="631,37 634,40 631,43" stroke-linejoin="round" width="6" height="24" fill="rgb(126,178,80)" stroke="rgb(100,142,64)" stroke-width="1" opacity="0.75" />
			</g>
		</g>
		<g>
			<title> (ctg6_459)</title>
			<polygon class=" (ctg6_459)" points="638,25 642,25 642,10 672,40 642,70 642,55 638,55" fill="rgb(255,255,255)" fill-opacity="1.0" stroke="rgb(0,0,0)" stroke-width="2"  />
			<g>
				<title>Ldh_2 (PF02615)
"Malate/L-lactate dehydrogenase"</title>
				<polygon class="PF02615" points="638,28 656,28 668,40 656,52 638,52" stroke-linejoin="round" width="33" height="24" fill="rgb(125,220,90)" stroke="rgb(100,176,72)" stroke-width="1" opacity="0.75" />
			</g>
		</g>
		<g>
			<title> (ctg6_460)</title>
			<polygon class=" (ctg6_460)" points="673,10 698,40 673,70" fill="rgb(255,255,255)" fill-opacity="1.0" stroke="rgb(0,0,0)" stroke-width="2"  />
			<g>
				<title>PhyH (PF05721)
"Phytanoyl-CoA dioxygenase (PhyH)"</title>
				<polygon class="PF05721" points="674,28 684,28 692,38 692,42 684,52 674,52" stroke-linejoin="round" width="18" height="24" fill="rgb(72,132,214)" stroke="rgb(57,105,171)" stroke-width="1" opacity="0.75" />
			</g>
		</g>
	</g>
</svg>
