<svg version="1.1" baseProfile="full" xmlns="http://www.w3.org/2000/svg" width="948.2" height="80">
	<g>
		<line x1="10" y1="40.0" x2="938.2" y2="40.0" style="stroke:rgb(70,70,70); stroke-width:3 "/>
		<g>
			<title> (ctg489_1)</title>
			<polygon class=" (ctg489_1)" points="35,10 42,40 35,70" fill="rgb(255,255,255)" fill-opacity="1.0" stroke="rgb(0,0,0)" stroke-width="2"  />
		</g>
		<g>
			<title> (ctg489_2)</title>
			<polygon class=" (ctg489_2)" points="54,25 125,25 125,10 155,40 125,70 125,55 54,55" fill="rgb(255,255,255)" fill-opacity="1.0" stroke="rgb(0,0,0)" stroke-width="2"  />
			<g>
				<title>Cytochrom_C (PF00034)
"Cytochrome c"</title>
				<polygon class="PF00034" points="142,31 151,40 142,49" stroke-linejoin="round" width="13" height="24" fill="rgb(130,184,61)" stroke="rgb(104,147,48)" stroke-width="1" opacity="0.75" />
			</g>
		</g>
		<g>
			<title> (ctg489_3)</title>
			<polygon class=" (ctg489_3)" points="213,25 195,25 195,10 165,40 195,70 195,55 213,55" fill="rgb(255,255,255)" fill-opacity="1.0" stroke="rgb(0,0,0)" stroke-width="2"  />
			<g>
				<title>DUF3179 (PF11376)
"Protein of unknown function (DUF3179)"</title>
				<polygon class="PF11376" points="169,40 181,28 194,28 194,52 181,52" stroke-linejoin="round" width="29" height="24" fill="rgb(221,178,92)" stroke="rgb(176,142,73)" stroke-width="1" opacity="0.75" />
			</g>
		</g>
		<g>
			<title> (ctg489_4)</title>
			<polygon class=" (ctg489_4)" points="229,10 254,40 229,70" fill="rgb(255,255,255)" fill-opacity="1.0" stroke="rgb(0,0,0)" stroke-width="2"  />
		</g>
		<g>
			<title> (ctg489_5)</title>
			<polygon class=" (ctg489_5)" points="254,10 270,40 254,70" fill="rgb(255,255,255)" fill-opacity="1.0" stroke="rgb(0,0,0)" stroke-width="2"  />
			<g>
				<title>Chal_sti_synt_C (PF02797)
"Chalcone and stilbene synthases, C-terminal domain"</title>
				<polygon class="PF02797" points="255,28 260,28 267,40 260,52 255,52" stroke-linejoin="round" width="13" height="24" fill="rgb(139,212,63)" stroke="rgb(111,169,50)" stroke-width="1" opacity="0.75" />
			</g>
		</g>
		<g>
			<title> (ctg489_6)</title>
			<polygon class=" (ctg489_6)" points="276,40 286,10 286,70" fill="rgb(255,255,255)" fill-opacity="1.0" stroke="rgb(0,0,0)" stroke-width="2"  />
		</g>
		<g>
			<title> (ctg489_7)</title>
			<polygon class=" (ctg489_7)" points="300,25 317,25 317,10 347,40 317,70 317,55 300,55" fill="rgb(255,255,255)" fill-opacity="1.0" stroke="rgb(0,0,0)" stroke-width="2"  />
			<g>
				<title>ABC_tran (PF00005)
"ABC transporter"</title>
				<rect class="PF00005" x="300" y="28" stroke-linejoin="round" width="15" height="24" fill="rgb(129,201,63)" stroke="rgb(103,160,50)" stroke-width="1" opacity="0.75" />
			</g>
			<g>
				<title>ABC_tran (PF00005)
"ABC transporter"</title>
				<polygon class="PF00005" points="325,28 331,28 340,37 340,43 331,52 325,52" stroke-linejoin="round" width="15" height="24" fill="rgb(129,201,63)" stroke="rgb(103,160,50)" stroke-width="1" opacity="0.75" />
			</g>
		</g>
		<g>
			<title> (ctg489_8)</title>
			<polygon class=" (ctg489_8)" points="352,25 390,25 390,10 420,40 390,70 390,55 352,55" fill="rgb(255,255,255)" fill-opacity="1.0" stroke="rgb(0,0,0)" stroke-width="2"  />
			<g>
				<title>Hydant_A_N (PF05378)
"Hydantoinase/oxoprolinase N-terminal region"</title>
				<rect class="PF05378" x="352" y="28" stroke-linejoin="round" width="18" height="24" fill="rgb(116,89,225)" stroke="rgb(92,71,180)" stroke-width="1" opacity="0.75" />
			</g>
			<g>
				<title>Hydantoinase_A (PF01968)
"Hydantoinase/oxoprolinase"</title>
				<rect class="PF01968" x="372" y="28" stroke-linejoin="round" width="28" height="24" fill="rgb(126,186,91)" stroke="rgb(100,148,72)" stroke-width="1" opacity="0.75" />
			</g>
		</g>
		<g>
			<title> (ctg489_9)</title>
			<polygon class=" (ctg489_9)" points="421,25 447,25 447,10 477,40 447,70 447,55 421,55" fill="rgb(255,255,255)" fill-opacity="1.0" stroke="rgb(0,0,0)" stroke-width="2"  />
			<g>
				<title>Hydantoinase_B (PF02538)
"Hydantoinase B/oxoprolinase"</title>
				<polygon class="PF02538" points="421,28 461,28 473,40 461,52 421,52" stroke-linejoin="round" width="53" height="24" fill="rgb(221,153,86)" stroke="rgb(176,122,68)" stroke-width="1" opacity="0.75" />
			</g>
		</g>
		<g>
			<title> (ctg489_10)</title>
			<polygon class=" (ctg489_10)" points="480,10 486,40 480,70" fill="rgb(255,255,255)" fill-opacity="1.0" stroke="rgb(0,0,0)" stroke-width="2"  />
		</g>
		<g>
			<title> (ctg489_11)</title>
			<polygon class=" (ctg489_11)" points="523,25 519,25 519,10 489,40 519,70 519,55 523,55" fill="rgb(255,255,255)" fill-opacity="1.0" stroke="rgb(0,0,0)" stroke-width="2"  />
			<g>
				<title>Peripla_BP_4 (PF13407)
"Periplasmic binding protein domain"</title>
				<polygon class="PF13407" points="493,40 505,28 518,28 518,52 505,52" stroke-linejoin="round" width="26" height="24" fill="rgb(124,182,50)" stroke="rgb(99,145,39)" stroke-width="1" opacity="0.75" />
			</g>
		</g>
		<g>
			<title> (ctg489_12)</title>
			<polygon class=" (ctg489_12)" points="558,25 558,25 558,10 528,40 558,70 558,55 558,55" fill="rgb(255,255,255)" fill-opacity="1.0" stroke="rgb(0,0,0)" stroke-width="2"  />
			<g>
				<title>BPD_transp_2 (PF02653)
"Branched-chain amino acid transport system / permease component"</title>
				<polygon class="PF02653" points="532,40 544,28 554,28 554,52 544,52" stroke-linejoin="round" width="26" height="24" fill="rgb(69,130,196)" stroke="rgb(55,104,156)" stroke-width="1" opacity="0.75" />
			</g>
		</g>
		<g>
			<title> (ctg489_13)</title>
			<polygon class=" (ctg489_13)" points="562,40 572,10 572,70" fill="rgb(255,255,255)" fill-opacity="1.0" stroke="rgb(0,0,0)" stroke-width="2"  />
		</g>
		<g>
			<title> (ctg489_14)</title>
			<polygon class=" (ctg489_14)" points="576,40 603,10 603,70" fill="rgb(255,255,255)" fill-opacity="1.0" stroke="rgb(0,0,0)" stroke-width="2"  />
		</g>
		<g>
			<title> (ctg489_15)</title>
			<polygon class=" (ctg489_15)" points="624,25 682,25 682,10 712,40 682,70 682,55 624,55" fill="rgb(255,255,255)" fill-opacity="1.0" stroke="rgb(0,0,0)" stroke-width="2"  />
			<g>
				<title>PPDK_N (PF01326)
"Pyruvate phosphate dikinase, PEP/pyruvate binding domain"</title>
				<rect class="PF01326" x="626" y="28" stroke-linejoin="round" width="27" height="24" fill="rgb(112,180,78)" stroke="rgb(89,144,62)" stroke-width="1" opacity="0.75" />
			</g>
			<g>
				<title>PPDK_N (PF01326)
"Pyruvate phosphate dikinase, PEP/pyruvate binding domain"</title>
				<rect class="PF01326" x="653" y="28" stroke-linejoin="round" width="6" height="24" fill="rgb(112,180,78)" stroke="rgb(89,144,62)" stroke-width="1" opacity="0.75" />
			</g>
			<g>
				<title>PEP-utilizers (PF00391)
"PEP-utilising enzyme, mobile domain"</title>
				<rect class="PF00391" x="666" y="28" stroke-linejoin="round" width="8" height="24" fill="rgb(206,59,219)" stroke="rgb(164,47,175)" stroke-width="1" opacity="0.75" />
			</g>
			<g>
				<title>PEP-utilizers_C (PF02896)
"PEP-utilising enzyme, TIM barrel domain"</title>
				<polygon class="PF02896" points="676,28 696,28 708,40 696,52 676,52" stroke-linejoin="round" width="36" height="24" fill="rgb(65,113,188)" stroke="rgb(52,90,150)" stroke-width="1" opacity="0.75" />
			</g>
		</g>
		<g>
			<title> (ctg489_16)</title>
			<polygon class=" (ctg489_16)" points="720,25 743,25 743,10 773,40 743,70 743,55 720,55" fill="rgb(255,255,255)" fill-opacity="1.0" stroke="rgb(0,0,0)" stroke-width="2"  />
		</g>
		<g>
			<title> (ctg489_17)</title>
			<polygon class=" (ctg489_17)" points="779,25 785,25 785,10 815,40 785,70 785,55 779,55" fill="rgb(255,255,255)" fill-opacity="1.0" stroke="rgb(0,0,0)" stroke-width="2"  />
			<g>
				<title>UxuA (PF03786)
"D-mannonate dehydratase (UxuA)"</title>
				<polygon class="PF03786" points="796,28 798,28 810,40 798,52 796,52" stroke-linejoin="round" width="18" height="24" fill="rgb(193,50,168)" stroke="rgb(154,39,134)" stroke-width="1" opacity="0.75" />
			</g>
		</g>
		<g>
			<title> (ctg489_18)</title>
			<polygon class=" (ctg489_18)" points="815,25 821,25 821,10 851,40 821,70 821,55 815,55" fill="rgb(255,255,255)" fill-opacity="1.0" stroke="rgb(0,0,0)" stroke-width="2"  />
			<g>
				<title>UxuA (PF03786)
"D-mannonate dehydratase (UxuA)"</title>
				<polygon class="PF03786" points="832,28 835,28 847,40 835,52 832,52" stroke-linejoin="round" width="19" height="24" fill="rgb(193,50,168)" stroke="rgb(154,39,134)" stroke-width="1" opacity="0.75" />
			</g>
		</g>
		<g>
			<title> (ctg489_19)</title>
			<polygon class=" (ctg489_19)" points="854,25 874,25 874,10 904,40 874,70 874,55 854,55" fill="rgb(255,255,255)" fill-opacity="1.0" stroke="rgb(0,0,0)" stroke-width="2"  />
			<g>
				<title>Ceramidase_alk (PF04734)
"Neutral/alkaline non-lysosomal ceramidase, N-terminal"</title>
				<rect class="PF04734" x="857" y="28" stroke-linejoin="round" width="29" height="24" fill="rgb(178,159,60)" stroke="rgb(142,127,48)" stroke-width="1" opacity="0.75" />
			</g>
		</g>
		<g>
			<title> (ctg489_20)</title>
			<polygon class=" (ctg489_20)" points="929,10 935,40 929,70" fill="rgb(255,255,255)" fill-opacity="1.0" stroke="rgb(0,0,0)" stroke-width="2"  />
		</g>
	</g>
</svg>
