<svg version="1.1" baseProfile="full" xmlns="http://www.w3.org/2000/svg" width="1379.5333333333333" height="80">
	<g>
		<line x1="10" y1="40.0" x2="1369.5333333333333" y2="40.0" style="stroke:rgb(70,70,70); stroke-width:3 "/>
		<g>
			<title> (ctg66_105)</title>
			<polygon class=" (ctg66_105)" points="65,25 75,25 75,10 105,40 75,70 75,55 65,55" fill="rgb(255,255,255)" fill-opacity="1.0" stroke="rgb(0,0,0)" stroke-width="2"  />
			<g>
				<title>PIN_8 (PF18476)
"PIN like domain"</title>
				<polygon class="PF18476" points="67,28 88,28 89,29 89,51 88,52 67,52" stroke-linejoin="round" width="22" height="24" fill="rgb(103,212,147)" stroke="rgb(82,169,117)" stroke-width="1" opacity="0.75" />
			</g>
		</g>
		<g>
			<title> (ctg66_106)</title>
			<polygon class=" (ctg66_106)" points="105,10 114,40 105,70" fill="rgb(255,255,255)" fill-opacity="1.0" stroke="rgb(0,0,0)" stroke-width="2"  />
		</g>
		<g>
			<title> (ctg66_107)</title>
			<polygon class=" (ctg66_107)" points="169,25 147,25 147,10 117,40 147,70 147,55 169,55" fill="rgb(255,255,255)" fill-opacity="1.0" stroke="rgb(0,0,0)" stroke-width="2"  />
			<g>
				<title>SBP_bac_5 (PF00496)
"Bacterial extracellular solute-binding proteins, family 5 Middle"</title>
				<polygon class="PF00496" points="125,36 133,28 161,28 161,52 133,52 125,44" stroke-linejoin="round" width="36" height="24" fill="rgb(199,94,116)" stroke="rgb(159,75,92)" stroke-width="1" opacity="0.75" />
			</g>
		</g>
		<g>
			<title> (ctg66_108)</title>
			<polygon class=" (ctg66_108)" points="209,25 205,25 205,10 175,40 205,70 205,55 209,55" fill="rgb(255,255,255)" fill-opacity="1.0" stroke="rgb(0,0,0)" stroke-width="2"  />
			<g>
				<title>GFO_IDH_MocA (PF01408)
"Oxidoreductase family, NAD-binding Rossmann fold"</title>
				<rect class="PF01408" x="197" y="28" stroke-linejoin="round" width="11" height="24" fill="rgb(76,117,190)" stroke="rgb(60,93,152)" stroke-width="1" opacity="0.75" />
			</g>
		</g>
		<g>
			<title> (ctg66_109)</title>
			<polygon class=" (ctg66_109)" points="210,40 223,10 223,70" fill="rgb(255,255,255)" fill-opacity="1.0" stroke="rgb(0,0,0)" stroke-width="2"  />
			<g>
				<title>Rieske (PF00355)
"Rieske [2Fe-2S] domain"</title>
				<polygon class="PF00355" points="213,40 218,28 222,28 222,52 218,52" stroke-linejoin="round" width="10" height="24" fill="rgb(186,77,145)" stroke="rgb(148,61,115)" stroke-width="1" opacity="0.75" />
			</g>
		</g>
		<g>
			<title> (ctg66_110)</title>
			<polygon class=" (ctg66_110)" points="262,25 253,25 253,10 223,40 253,70 253,55 262,55" fill="rgb(255,255,255)" fill-opacity="1.0" stroke="rgb(0,0,0)" stroke-width="2"  />
			<g>
				<title>Amidohydro_2 (PF04909)
"Amidohydrolase"</title>
				<polygon class="PF04909" points="227,40 239,28 258,28 258,52 239,52" stroke-linejoin="round" width="34" height="24" fill="rgb(95,225,123)" stroke="rgb(76,180,98)" stroke-width="1" opacity="0.75" />
			</g>
		</g>
		<g>
			<title> (ctg66_111)</title>
			<polygon class=" (ctg66_111)" points="310,25 295,25 295,10 265,40 295,70 295,55 310,55" fill="rgb(255,255,255)" fill-opacity="1.0" stroke="rgb(0,0,0)" stroke-width="2"  />
			<g>
				<title>HNH (PF01844)
"HNH endonuclease"</title>
				<polygon class="PF01844" points="269,40 270,39 270,41" stroke-linejoin="round" width="4" height="24" fill="rgb(118,184,79)" stroke="rgb(94,147,63)" stroke-width="1" opacity="0.75" />
			</g>
			<g>
				<title>N6_N4_Mtase (PF01555)
"DNA methylase"</title>
				<polygon class="PF01555" points="275,34 281,28 307,28 307,52 281,52 275,46" stroke-linejoin="round" width="32" height="24" fill="rgb(54,198,162)" stroke="rgb(43,158,129)" stroke-width="1" opacity="0.75" />
			</g>
		</g>
		<g>
			<title> (ctg66_112)</title>
			<polygon class=" (ctg66_112)" points="345,25 342,25 342,10 312,40 342,70 342,55 345,55" fill="rgb(255,255,255)" fill-opacity="1.0" stroke="rgb(0,0,0)" stroke-width="2"  />
			<g>
				<title>PhyH (PF05721)
"Phytanoyl-CoA dioxygenase (PhyH)"</title>
				<polygon class="PF05721" points="318,38 328,28 341,28 341,52 328,52 318,42" stroke-linejoin="round" width="23" height="24" fill="rgb(72,132,214)" stroke="rgb(57,105,171)" stroke-width="1" opacity="0.75" />
			</g>
		</g>
		<g>
			<title> (ctg66_113)</title>
			<polygon class=" (ctg66_113)" points="358,40 386,10 386,70" fill="rgb(255,255,255)" fill-opacity="1.0" stroke="rgb(0,0,0)" stroke-width="2"  />
			<g>
				<title>Aldo_ket_red (PF00248)
"Aldo/keto reductase family"</title>
				<polygon class="PF00248" points="364,38 373,28 384,28 384,52 373,52 364,42" stroke-linejoin="round" width="20" height="24" fill="rgb(225,205,58)" stroke="rgb(180,164,46)" stroke-width="1" opacity="0.75" />
			</g>
		</g>
		<g>
			<title> (ctg66_114)</title>
			<polygon class=" (ctg66_114)" points="391,40 411,10 411,70" fill="rgb(255,255,255)" fill-opacity="1.0" stroke="rgb(0,0,0)" stroke-width="2"  />
		</g>
		<g>
			<title> (ctg66_115)</title>
			<polygon class=" (ctg66_115)" points="413,40 438,10 438,70" fill="rgb(255,255,255)" fill-opacity="1.0" stroke="rgb(0,0,0)" stroke-width="2"  />
		</g>
		<g>
			<title> (ctg66_116)</title>
			<polygon class=" (ctg66_116)" points="439,40 467,10 467,70" fill="rgb(255,255,255)" fill-opacity="1.0" stroke="rgb(0,0,0)" stroke-width="2"  />
		</g>
		<g>
			<title> (ctg66_117)</title>
			<polygon class=" (ctg66_117)" points="468,40 496,10 496,70" fill="rgb(255,255,255)" fill-opacity="1.0" stroke="rgb(0,0,0)" stroke-width="2"  />
			<g>
				<title>AP_endonuc_2 (PF01261)
"Xylose isomerase-like TIM barrel"</title>
				<polygon class="PF01261" points="472,40 484,28 494,28 494,52 484,52 472,40" stroke-linejoin="round" width="22" height="24" fill="rgb(69,222,207)" stroke="rgb(55,177,165)" stroke-width="1" opacity="0.75" />
			</g>
		</g>
		<g>
			<title> (ctg66_118)</title>
			<polygon class=" (ctg66_118)" points="499,40 528,10 528,70" fill="rgb(255,255,255)" fill-opacity="1.0" stroke="rgb(0,0,0)" stroke-width="2"  />
			<g>
				<title>NAD_binding_11 (PF14833)
"NAD-binding of NADP-dependent 3-hydroxyisobutyrate dehydrogenase"</title>
				<polygon class="PF14833" points="503,40 512,31 512,49" stroke-linejoin="round" width="12" height="24" fill="rgb(141,199,89)" stroke="rgb(112,159,71)" stroke-width="1" opacity="0.75" />
			</g>
			<g>
				<title>NAD_binding_2 (PF03446)
"NAD binding domain of 6-phosphogluconate dehydrogenase"</title>
				<polygon class="PF03446" points="512,31 515,28 527,28 527,52 515,52 512,49" stroke-linejoin="round" width="15" height="24" fill="rgb(205,164,98)" stroke="rgb(164,131,78)" stroke-width="1" opacity="0.75" />
			</g>
		</g>
		<g>
			<title> (ctg66_119)</title>
			<polygon class=" (ctg66_119)" points="532,40 561,10 561,70" fill="rgb(255,255,255)" fill-opacity="1.0" stroke="rgb(0,0,0)" stroke-width="2"  />
			<g>
				<title>AP_endonuc_2 (PF01261)
"Xylose isomerase-like TIM barrel"</title>
				<polygon class="PF01261" points="537,39 548,28 558,28 558,52 548,52 537,41" stroke-linejoin="round" width="21" height="24" fill="rgb(69,222,207)" stroke="rgb(55,177,165)" stroke-width="1" opacity="0.75" />
			</g>
		</g>
		<g>
			<title> (ctg66_120)</title>
			<polygon class=" (ctg66_120)" points="603,25 600,25 600,10 570,40 600,70 600,55 603,55" fill="rgb(255,255,255)" fill-opacity="1.0" stroke="rgb(0,0,0)" stroke-width="2"  />
			<g>
				<title>GFO_IDH_MocA (PF01408)
"Oxidoreductase family, NAD-binding Rossmann fold"</title>
				<rect class="PF01408" x="590" y="28" stroke-linejoin="round" width="12" height="24" fill="rgb(76,117,190)" stroke="rgb(60,93,152)" stroke-width="1" opacity="0.75" />
			</g>
		</g>
		<g>
			<title> (ctg66_121)</title>
			<polygon class=" (ctg66_121)" points="623,10 645,40 623,70" fill="rgb(255,255,255)" fill-opacity="1.0" stroke="rgb(0,0,0)" stroke-width="2"  />
			<g>
				<title>Nitroreductase (PF00881)
"Nitroreductase family"</title>
				<polygon class="PF00881" points="626,28 633,28 642,40 633,52 626,52" stroke-linejoin="round" width="17" height="24" fill="rgb(79,118,187)" stroke="rgb(63,94,149)" stroke-width="1" opacity="0.75" />
			</g>
		</g>
		<g>
			<title> (ctg66_122)</title>
			<polygon class=" (ctg66_122)" points="650,10 676,40 650,70" fill="rgb(255,255,255)" fill-opacity="1.0" stroke="rgb(0,0,0)" stroke-width="2"  />
			<g>
				<title>AAA_31 (PF13614)
"AAA domain"</title>
				<polygon class="PF13614" points="650,28 661,28 667,34 667,46 661,52 650,52" stroke-linejoin="round" width="17" height="24" fill="rgb(144,187,62)" stroke="rgb(115,149,49)" stroke-width="1" opacity="0.75" />
			</g>
		</g>
		<g>
			<title> (ctg66_123)</title>
			<polygon class=" (ctg66_123)" points="676,10 702,40 676,70" fill="rgb(255,255,255)" fill-opacity="1.0" stroke="rgb(0,0,0)" stroke-width="2"  />
		</g>
		<g>
			<title> (ctg66_124)</title>
			<polygon class=" (ctg66_124)" points="717,10 744,40 717,70" fill="rgb(255,255,255)" fill-opacity="1.0" stroke="rgb(0,0,0)" stroke-width="2"  />
		</g>
		<g>
			<title> (ctg66_125)</title>
			<polygon class=" (ctg66_125)" points="744,25 750,25 750,10 780,40 750,70 750,55 744,55" fill="rgb(255,255,255)" fill-opacity="1.0" stroke="rgb(0,0,0)" stroke-width="2"  />
			<g>
				<title>MR_MLE_N (PF02746)
"Mandelate racemase / muconate lactonizing enzyme, N-terminal domain"</title>
				<rect class="PF02746" x="745" y="28" stroke-linejoin="round" width="11" height="24" fill="rgb(63,73,226)" stroke="rgb(50,58,180)" stroke-width="1" opacity="0.75" />
			</g>
			<g>
				<title>MR_MLE_C (PF13378)
"Enolase C-terminal domain-like"</title>
				<polygon class="PF13378" points="757,28 763,28 775,40 763,52 757,52" stroke-linejoin="round" width="21" height="24" fill="rgb(191,184,94)" stroke="rgb(152,147,75)" stroke-width="1" opacity="0.75" />
			</g>
		</g>
		<g>
			<title> (ctg66_126)</title>
			<polygon class=" (ctg66_126)" points="782,10 809,40 782,70" fill="rgb(255,255,255)" fill-opacity="1.0" stroke="rgb(0,0,0)" stroke-width="2"  />
			<g>
				<title>Peptidase_M55 (PF04951)
"D-aminopeptidase"</title>
				<polygon class="PF04951" points="782,28 793,28 805,40 793,52 782,52" stroke-linejoin="round" width="26" height="24" fill="rgb(94,138,195)" stroke="rgb(75,110,156)" stroke-width="1" opacity="0.75" />
			</g>
		</g>
		<g>
			<title> (ctg66_127)</title>
			<polygon class=" (ctg66_127)" points="842,25 842,25 842,10 812,40 842,70 842,55 842,55" fill="rgb(255,255,255)" fill-opacity="1.0" stroke="rgb(0,0,0)" stroke-width="2"  />
			<g>
				<title>UbiA (PF01040)
"UbiA prenyltransferase family"</title>
				<polygon class="PF01040" points="816,40 828,28 839,28 839,52 828,52" stroke-linejoin="round" width="25" height="24" fill="rgb(189,57,100)" stroke="rgb(151,45,80)" stroke-width="1" opacity="0.75" />
			</g>
		</g>
		<g>
			<title> (ctg66_128)</title>
			<polygon class=" (ctg66_128)" points="847,25 858,25 858,10 888,40 858,70 858,55 847,55" fill="rgb(255,255,255)" fill-opacity="1.0" stroke="rgb(0,0,0)" stroke-width="2"  />
			<g>
				<title>Glyco_transf_4 (PF13439)
"Glycosyltransferase Family 4"</title>
				<rect class="PF13439" x="848" y="28" stroke-linejoin="round" width="20" height="24" fill="rgb(162,57,186)" stroke="rgb(129,45,148)" stroke-width="1" opacity="0.75" />
			</g>
			<g>
				<title>Glyco_trans_1_4 (PF13692)
"Glycosyl transferases group 1"</title>
				<polygon class="PF13692" points="871,28 872,28 884,40 872,52 871,52" stroke-linejoin="round" width="14" height="24" fill="rgb(85,182,142)" stroke="rgb(68,145,113)" stroke-width="1" opacity="0.75" />
			</g>
		</g>
		<g>
			<title> (ctg66_129)</title>
			<polygon class=" (ctg66_129)" points="889,25 893,25 893,10 923,40 893,70 893,55 889,55" fill="rgb(255,255,255)" fill-opacity="1.0" stroke="rgb(0,0,0)" stroke-width="2"  />
		</g>
		<g>
			<title> (ctg66_130)</title>
			<polygon class=" (ctg66_130)" points="935,25 935,25 935,10 965,40 935,70 935,55 935,55" fill="rgb(255,255,255)" fill-opacity="1.0" stroke="rgb(0,0,0)" stroke-width="2"  />
			<g>
				<title>Bac_luciferase (PF00296)
"Luciferase-like monooxygenase"</title>
				<polygon class="PF00296" points="938,28 949,28 959,38 959,42 949,52 938,52" stroke-linejoin="round" width="21" height="24" fill="rgb(180,112,78)" stroke="rgb(144,89,62)" stroke-width="1" opacity="0.75" />
			</g>
		</g>
		<g>
			<title> (ctg66_131)</title>
			<polygon class=" (ctg66_131)" points="965,10 987,40 965,70" fill="rgb(255,255,255)" fill-opacity="1.0" stroke="rgb(0,0,0)" stroke-width="2"  />
			<g>
				<title>Lactamase_B_3 (PF13483)
"Beta-lactamase superfamily domain"</title>
				<polygon class="PF13483" points="965,28 975,28 981,37 981,43 975,52 965,52" stroke-linejoin="round" width="16" height="24" fill="rgb(89,224,69)" stroke="rgb(71,179,55)" stroke-width="1" opacity="0.75" />
			</g>
		</g>
		<g>
			<title> (ctg66_132)</title>
			<polygon class=" (ctg66_132)" points="1047,25 1033,25 1033,10 1003,40 1033,70 1033,55 1047,55" fill="rgb(255,255,255)" fill-opacity="1.0" stroke="rgb(0,0,0)" stroke-width="2"  />
			<g>
				<title>Aminotran_3 (PF00202)
"Aminotransferase class-III"</title>
				<polygon class="PF00202" points="1007,40 1019,28 1045,28 1045,52 1019,52" stroke-linejoin="round" width="42" height="24" fill="rgb(49,163,189)" stroke="rgb(39,130,151)" stroke-width="1" opacity="0.75" />
			</g>
		</g>
		<g>
			<title> (ctg66_133)</title>
			<polygon class=" (ctg66_133)" points="1053,25 1067,25 1067,10 1097,40 1067,70 1067,55 1053,55" fill="rgb(255,255,255)" fill-opacity="1.0" stroke="rgb(0,0,0)" stroke-width="2"  />
			<g>
				<title>GFO_IDH_MocA (PF01408)
"Oxidoreductase family, NAD-binding Rossmann fold"</title>
				<rect class="PF01408" x="1053" y="28" stroke-linejoin="round" width="12" height="24" fill="rgb(76,117,190)" stroke="rgb(60,93,152)" stroke-width="1" opacity="0.75" />
			</g>
			<g>
				<title>GFO_IDH_MocA_C (PF02894)
"Oxidoreductase family, C-terminal alpha/beta domain"</title>
				<rect class="PF02894" x="1067" y="28" stroke-linejoin="round" width="9" height="24" fill="rgb(195,223,82)" stroke="rgb(155,178,65)" stroke-width="1" opacity="0.75" />
			</g>
		</g>
		<g>
			<title> (ctg66_134)</title>
			<polygon class=" (ctg66_134)" points="1136,25 1133,25 1133,10 1103,40 1133,70 1133,55 1136,55" fill="rgb(255,255,255)" fill-opacity="1.0" stroke="rgb(0,0,0)" stroke-width="2"  />
			<g>
				<title>Aldo_ket_red (PF00248)
"Aldo/keto reductase family"</title>
				<polygon class="PF00248" points="1107,40 1119,28 1134,28 1134,52 1119,52" stroke-linejoin="round" width="29" height="24" fill="rgb(225,205,58)" stroke="rgb(180,164,46)" stroke-width="1" opacity="0.75" />
			</g>
		</g>
		<g>
			<title> (ctg66_135)</title>
			<polygon class=" (ctg66_135)" points="1146,25 1168,25 1168,10 1198,40 1168,70 1168,55 1146,55" fill="rgb(255,255,255)" fill-opacity="1.0" stroke="rgb(0,0,0)" stroke-width="2"  />
			<g>
				<title>UxaC (PF02614)
"Glucuronate isomerase"</title>
				<polygon class="PF02614" points="1151,28 1181,28 1193,40 1181,52 1151,52" stroke-linejoin="round" width="46" height="24" fill="rgb(47,180,176)" stroke="rgb(37,144,140)" stroke-width="1" opacity="0.75" />
			</g>
		</g>
		<g>
			<title> (ctg66_136)</title>
			<polygon class=" (ctg66_136)" points="1199,25 1216,25 1216,10 1246,40 1216,70 1216,55 1199,55" fill="rgb(255,255,255)" fill-opacity="1.0" stroke="rgb(0,0,0)" stroke-width="2"  />
			<g>
				<title>Mannitol_dh (PF01232)
"Mannitol dehydrogenase Rossmann domain"</title>
				<rect class="PF01232" x="1200" y="28" stroke-linejoin="round" width="15" height="24" fill="rgb(221,155,56)" stroke="rgb(176,124,44)" stroke-width="1" opacity="0.75" />
			</g>
			<g>
				<title>Mannitol_dh_C (PF08125)
"Mannitol dehydrogenase C-terminal domain"</title>
				<polygon class="PF08125" points="1219,28 1230,28 1242,40 1230,52 1219,52" stroke-linejoin="round" width="25" height="24" fill="rgb(196,64,94)" stroke="rgb(156,51,75)" stroke-width="1" opacity="0.75" />
			</g>
		</g>
		<g>
			<title> (ctg66_137)</title>
			<polygon class=" (ctg66_137)" points="1247,25 1250,25 1250,10 1280,40 1250,70 1250,55 1247,55" fill="rgb(255,255,255)" fill-opacity="1.0" stroke="rgb(0,0,0)" stroke-width="2"  />
			<g>
				<title>PfkB (PF00294)
"pfkB family carbohydrate kinase"</title>
				<polygon class="PF00294" points="1247,28 1264,28 1276,40 1264,52 1247,52" stroke-linejoin="round" width="31" height="24" fill="rgb(153,96,212)" stroke="rgb(122,76,169)" stroke-width="1" opacity="0.75" />
			</g>
		</g>
		<g>
			<title> (ctg66_138)</title>
			<polygon class=" (ctg66_138)" points="1280,10 1307,40 1280,70" fill="rgb(255,255,255)" fill-opacity="1.0" stroke="rgb(0,0,0)" stroke-width="2"  />
			<g>
				<title>KduI (PF04962)
"KduI/IolB family"</title>
				<polygon class="PF04962" points="1280,28 1292,28 1303,40 1292,52 1280,52" stroke-linejoin="round" width="25" height="24" fill="rgb(88,187,158)" stroke="rgb(70,149,126)" stroke-width="1" opacity="0.75" />
			</g>
		</g>
	</g>
</svg>
