<svg version="1.1" baseProfile="full" xmlns="http://www.w3.org/2000/svg" width="1019.0666666666667" height="80">
	<g>
		<line x1="10" y1="40.0" x2="1009.0666666666667" y2="40.0" style="stroke:rgb(70,70,70); stroke-width:3 "/>
		<g>
			<title> (ctg2091_1)</title>
			<polygon class=" (ctg2091_1)" points="10,10 24,40 10,70" fill="rgb(255,255,255)" fill-opacity="1.0" stroke="rgb(0,0,0)" stroke-width="2"  />
			<g>
				<title>His_biosynth (PF00977)
"Histidine biosynthesis protein"</title>
				<polygon class="PF00977" points="10,28 14,28 20,39 20,41 14,52 10,52" stroke-linejoin="round" width="10" height="24" fill="rgb(200,144,79)" stroke="rgb(160,115,63)" stroke-width="1" opacity="0.75" />
			</g>
		</g>
		<g>
			<title> (ctg2091_2)</title>
			<polygon class=" (ctg2091_2)" points="23,25 37,25 37,10 67,40 37,70 37,55 23,55" fill="rgb(255,255,255)" fill-opacity="1.0" stroke="rgb(0,0,0)" stroke-width="2"  />
			<g>
				<title>His_biosynth (PF00977)
"Histidine biosynthesis protein"</title>
				<rect class="PF00977" x="23" y="28" stroke-linejoin="round" width="21" height="24" fill="rgb(200,144,79)" stroke="rgb(160,115,63)" stroke-width="1" opacity="0.75" />
			</g>
			<g>
				<title>PRA-CH (PF01502)
"Phosphoribosyl-AMP cyclohydrolase"</title>
				<polygon class="PF01502" points="47,28 51,28 54,31 54,49 51,52 47,52" stroke-linejoin="round" width="7" height="24" fill="rgb(75,184,98)" stroke="rgb(60,147,78)" stroke-width="1" opacity="0.75" />
			</g>
			<g>
				<title>PRA-PH (PF01503)
"Phosphoribosyl-ATP pyrophosphohydrolase"</title>
				<polygon class="PF01503" points="55,32 63,40 55,48" stroke-linejoin="round" width="9" height="24" fill="rgb(228,187,59)" stroke="rgb(182,149,47)" stroke-width="1" opacity="0.75" />
			</g>
		</g>
		<g>
			<title> (ctg2091_3)</title>
			<polygon class=" (ctg2091_3)" points="68,25 81,25 81,10 111,40 81,70 81,55 68,55" fill="rgb(255,255,255)" fill-opacity="1.0" stroke="rgb(0,0,0)" stroke-width="2"  />
			<g>
				<title>Histidinol_dh (PF00815)
"Histidinol dehydrogenase"</title>
				<polygon class="PF00815" points="69,28 95,28 107,40 95,52 69,52" stroke-linejoin="round" width="40" height="24" fill="rgb(163,51,193)" stroke="rgb(130,40,154)" stroke-width="1" opacity="0.75" />
			</g>
		</g>
		<g>
			<title> (ctg2091_4)</title>
			<polygon class=" (ctg2091_4)" points="114,10 135,40 114,70" fill="rgb(255,255,255)" fill-opacity="1.0" stroke="rgb(0,0,0)" stroke-width="2"  />
		</g>
		<g>
			<title> (ctg2091_5)</title>
			<polygon class=" (ctg2091_5)" points="205,25 166,25 166,10 136,40 166,70 166,55 205,55" fill="rgb(255,255,255)" fill-opacity="1.0" stroke="rgb(0,0,0)" stroke-width="2"  />
			<g>
				<title>LRR_1 (PF00560)
"Leucine Rich Repeat"</title>
				<rect class="PF00560" x="170" y="28" stroke-linejoin="round" width="2" height="24" fill="rgb(169,107,227)" stroke="rgb(135,85,181)" stroke-width="1" opacity="0.75" />
			</g>
			<g>
				<title>Big_2 (PF02368)
"Bacterial Ig-like domain (group 2)"</title>
				<rect class="PF02368" x="186" y="28" stroke-linejoin="round" width="7" height="24" fill="rgb(76,217,178)" stroke="rgb(60,173,142)" stroke-width="1" opacity="0.75" />
			</g>
			<g>
				<title>Big_2 (PF02368)
"Bacterial Ig-like domain (group 2)"</title>
				<rect class="PF02368" x="194" y="28" stroke-linejoin="round" width="8" height="24" fill="rgb(76,217,178)" stroke="rgb(60,173,142)" stroke-width="1" opacity="0.75" />
			</g>
		</g>
		<g>
			<title> (ctg2091_6)</title>
			<polygon class=" (ctg2091_6)" points="269,25 240,25 240,10 210,40 240,70 240,55 269,55" fill="rgb(255,255,255)" fill-opacity="1.0" stroke="rgb(0,0,0)" stroke-width="2"  />
			<g>
				<title>Xan_ur_permease (PF00860)
"Permease family"</title>
				<rect class="PF00860" x="229" y="28" stroke-linejoin="round" width="38" height="24" fill="rgb(216,88,217)" stroke="rgb(172,70,173)" stroke-width="1" opacity="0.75" />
			</g>
		</g>
		<g>
			<title> (ctg2091_7)</title>
			<polygon class=" (ctg2091_7)" points="285,25 285,25 285,10 315,40 285,70 285,55 285,55" fill="rgb(255,255,255)" fill-opacity="1.0" stroke="rgb(0,0,0)" stroke-width="2"  />
			<g>
				<title>Abhydrolase_6 (PF12697)
"Alpha/beta hydrolase family"</title>
				<polygon class="PF12697" points="288,28 299,28 311,40 299,52 288,52" stroke-linejoin="round" width="25" height="24" fill="rgb(113,71,219)" stroke="rgb(90,56,175)" stroke-width="1" opacity="0.75" />
			</g>
		</g>
		<g>
			<title> (ctg2091_8)</title>
			<polygon class=" (ctg2091_8)" points="661,25 350,25 350,10 320,40 350,70 350,55 661,55" fill="rgb(255,255,255)" fill-opacity="1.0" stroke="rgb(0,0,0)" stroke-width="2"  />
			<g>
				<title>Acyl_transf_1 (PF00698)
"Acyl transferase domain"</title>
				<polygon class="PF00698" points="333,31 336,28 347,28 347,52 336,52 333,49" stroke-linejoin="round" width="14" height="24" fill="rgb(59,176,209)" stroke="rgb(47,140,167)" stroke-width="1" opacity="0.75" />
			</g>
			<g>
				<title>KAsynt_C_assoc (PF16197)
"Ketoacyl-synthetase C-terminal extension"</title>
				<rect class="PF16197" x="355" y="28" stroke-linejoin="round" width="12" height="24" fill="rgb(240,150,172)" stroke="rgb(192,120,137)" stroke-width="1" opacity="0.75" />
			</g>
			<g>
				<title>Ketoacyl-synt_C (PF02801)
"Beta-ketoacyl synthase, C-terminal domain"</title>
				<rect class="PF02801" x="368" y="28" stroke-linejoin="round" width="11" height="24" fill="rgb(215,78,102)" stroke="rgb(172,62,81)" stroke-width="1" opacity="0.75" />
			</g>
			<g>
				<title>ketoacyl-synt (PF00109)
"Beta-ketoacyl synthase, N-terminal domain"</title>
				<rect class="PF00109" x="380" y="28" stroke-linejoin="round" width="24" height="24" fill="rgb(112,116,228)" stroke="rgb(89,92,182)" stroke-width="1" opacity="0.75" />
			</g>
			<g>
				<title>PP-binding (PF00550)
"Phosphopantetheine attachment site"</title>
				<rect class="PF00550" x="408" y="28" stroke-linejoin="round" width="6" height="24" fill="rgb(103,191,88)" stroke="rgb(82,152,70)" stroke-width="1" opacity="0.75" />
			</g>
			<g>
				<title>KR (PF08659)
"KR domain"</title>
				<rect class="PF08659" x="425" y="28" stroke-linejoin="round" width="17" height="24" fill="rgb(66,209,188)" stroke="rgb(52,167,150)" stroke-width="1" opacity="0.75" />
			</g>
			<g>
				<title>ADH_zinc_N_2 (PF13602)
"Zinc-binding dehydrogenase"</title>
				<rect class="PF13602" x="444" y="28" stroke-linejoin="round" width="13" height="24" fill="rgb(101,131,226)" stroke="rgb(80,104,180)" stroke-width="1" opacity="0.75" />
			</g>
			<g>
				<title>Methyltransf_12 (PF08242)
"Methyltransferase domain"</title>
				<rect class="PF08242" x="505" y="28" stroke-linejoin="round" width="10" height="24" fill="rgb(187,59,115)" stroke="rgb(149,47,92)" stroke-width="1" opacity="0.75" />
			</g>
			<g>
				<title>PS-DH (PF14765)
"Polyketide synthase dehydratase"</title>
				<rect class="PF14765" x="539" y="28" stroke-linejoin="round" width="29" height="24" fill="rgb(173,56,182)" stroke="rgb(138,44,145)" stroke-width="1" opacity="0.75" />
			</g>
			<g>
				<title>Acyl_transf_1 (PF00698)
"Acyl transferase domain"</title>
				<rect class="PF00698" x="574" y="28" stroke-linejoin="round" width="31" height="24" fill="rgb(59,176,209)" stroke="rgb(47,140,167)" stroke-width="1" opacity="0.75" />
			</g>
			<g>
				<title>KAsynt_C_assoc (PF16197)
"Ketoacyl-synthetase C-terminal extension"</title>
				<rect class="PF16197" x="611" y="28" stroke-linejoin="round" width="12" height="24" fill="rgb(240,150,172)" stroke="rgb(192,120,137)" stroke-width="1" opacity="0.75" />
			</g>
			<g>
				<title>Ketoacyl-synt_C (PF02801)
"Beta-ketoacyl synthase, C-terminal domain"</title>
				<rect class="PF02801" x="623" y="28" stroke-linejoin="round" width="11" height="24" fill="rgb(215,78,102)" stroke="rgb(172,62,81)" stroke-width="1" opacity="0.75" />
			</g>
			<g>
				<title>ketoacyl-synt (PF00109)
"Beta-ketoacyl synthase, N-terminal domain"</title>
				<rect class="PF00109" x="635" y="28" stroke-linejoin="round" width="25" height="24" fill="rgb(112,116,228)" stroke="rgb(89,92,182)" stroke-width="1" opacity="0.75" />
			</g>
		</g>
		<g>
			<title> (ctg2091_9)</title>
			<polygon class=" (ctg2091_9)" points="666,25 693,25 693,10 723,40 693,70 693,55 666,55" fill="rgb(255,255,255)" fill-opacity="1.0" stroke="rgb(0,0,0)" stroke-width="2"  />
			<g>
				<title>ArsP_1 (PF03773)
"Predicted permease"</title>
				<polygon class="PF03773" points="689,28 707,28 717,38 717,42 707,52 689,52" stroke-linejoin="round" width="28" height="24" fill="rgb(103,196,76)" stroke="rgb(82,156,60)" stroke-width="1" opacity="0.75" />
			</g>
		</g>
		<g>
			<title> (ctg2091_10)</title>
			<polygon class=" (ctg2091_10)" points="724,40 749,10 749,70" fill="rgb(255,255,255)" fill-opacity="1.0" stroke="rgb(0,0,0)" stroke-width="2"  />
			<g>
				<title>CarbopepD_reg_2 (PF13715)
"CarboxypepD_reg-like domain"</title>
				<polygon class="PF13715" points="738,28 738,28 746,28 746,52 738,52 738,52" stroke-linejoin="round" width="8" height="24" fill="rgb(198,51,128)" stroke="rgb(158,40,102)" stroke-width="1" opacity="0.75" />
			</g>
		</g>
		<g>
			<title> (ctg2091_11)</title>
			<polygon class=" (ctg2091_11)" points="754,40 779,10 779,70" fill="rgb(255,255,255)" fill-opacity="1.0" stroke="rgb(0,0,0)" stroke-width="2"  />
			<g>
				<title>CarboxypepD_reg (PF13620)
"Carboxypeptidase regulatory-like domain"</title>
				<polygon class="PF13620" points="767,30 768,28 774,28 774,52 768,52 767,50" stroke-linejoin="round" width="7" height="24" fill="rgb(201,63,96)" stroke="rgb(160,50,76)" stroke-width="1" opacity="0.75" />
			</g>
		</g>
		<g>
			<title> (ctg2091_12)</title>
			<polygon class=" (ctg2091_12)" points="788,25 813,25 813,10 843,40 813,70 813,55 788,55" fill="rgb(255,255,255)" fill-opacity="1.0" stroke="rgb(0,0,0)" stroke-width="2"  />
		</g>
		<g>
			<title> (ctg2091_13)</title>
			<polygon class=" (ctg2091_13)" points="991,25 875,25 875,10 845,40 875,70 875,55 991,55" fill="rgb(255,255,255)" fill-opacity="1.0" stroke="rgb(0,0,0)" stroke-width="2"  />
			<g>
				<title>Peptidase_M66 (PF10462)
"Peptidase M66"</title>
				<rect class="PF10462" x="863" y="28" stroke-linejoin="round" width="8" height="24" fill="rgb(69,101,218)" stroke="rgb(55,80,174)" stroke-width="1" opacity="0.75" />
			</g>
			<g>
				<title>LRR_8 (PF13855)
"Leucine rich repeat"</title>
				<rect class="PF13855" x="958" y="28" stroke-linejoin="round" width="6" height="24" fill="rgb(206,99,148)" stroke="rgb(164,79,118)" stroke-width="1" opacity="0.75" />
			</g>
			<g>
				<title>Big_2 (PF02368)
"Bacterial Ig-like domain (group 2)"</title>
				<rect class="PF02368" x="977" y="28" stroke-linejoin="round" width="7" height="24" fill="rgb(76,217,178)" stroke="rgb(60,173,142)" stroke-width="1" opacity="0.75" />
			</g>
			<g>
				<title>Big_2 (PF02368)
"Bacterial Ig-like domain (group 2)"</title>
				<rect class="PF02368" x="986" y="28" stroke-linejoin="round" width="5" height="24" fill="rgb(76,217,178)" stroke="rgb(60,173,142)" stroke-width="1" opacity="0.75" />
			</g>
		</g>
	</g>
</svg>
