<svg version="1.1" baseProfile="full" xmlns="http://www.w3.org/2000/svg" width="265.7" height="80">
	<g>
		<line x1="10" y1="40.0" x2="255.7" y2="40.0" style="stroke:rgb(70,70,70); stroke-width:3 "/>
		<g>
			<title> (ctg11019_1)</title>
			<polygon class=" (ctg11019_1)" points="10,10 39,40 10,70" fill="rgb(255,255,255)" fill-opacity="1.0" stroke="rgb(0,0,0)" stroke-width="2"  />
			<g>
				<title>Peptidase_M16_C (PF05193)
"Peptidase M16 inactive domain"</title>
				<polygon class="PF05193" points="14,28 23,28 32,37 32,43 23,52 14,52" stroke-linejoin="round" width="18" height="24" fill="rgb(199,79,180)" stroke="rgb(159,63,144)" stroke-width="1" opacity="0.75" />
			</g>
		</g>
		<g>
			<title> (ctg11019_2)</title>
			<polygon class=" (ctg11019_2)" points="42,10 65,40 42,70" fill="rgb(255,255,255)" fill-opacity="1.0" stroke="rgb(0,0,0)" stroke-width="2"  />
			<g>
				<title>Fe_dep_repress (PF01325)
"Iron dependent repressor, N-terminal DNA binding domain"</title>
				<rect class="PF01325" x="43" y="28" stroke-linejoin="round" width="5" height="24" fill="rgb(56,220,176)" stroke="rgb(44,176,140)" stroke-width="1" opacity="0.75" />
			</g>
			<g>
				<title>Fe_dep_repr_C (PF02742)
"Iron dependent repressor, metal binding and dimerisation domain"</title>
				<polygon class="PF02742" points="49,28 52,28 55,32 55,48 52,52 49,52" stroke-linejoin="round" width="6" height="24" fill="rgb(217,122,64)" stroke="rgb(173,97,51)" stroke-width="1" opacity="0.75" />
			</g>
			<g>
				<title>FeoA (PF04023)
"FeoA domain"</title>
				<polygon class="PF04023" points="57,35 61,40 57,45" stroke-linejoin="round" width="7" height="24" fill="rgb(180,183,81)" stroke="rgb(144,146,64)" stroke-width="1" opacity="0.75" />
			</g>
		</g>
		<g>
			<title> (ctg11019_3)</title>
			<polygon class=" (ctg11019_3)" points="67,25 74,25 74,10 104,40 74,70 74,55 67,55" fill="rgb(255,255,255)" fill-opacity="1.0" stroke="rgb(0,0,0)" stroke-width="2"  />
			<g>
				<title>Meth_synt_2 (PF01717)
"Cobalamin-independent synthase, Catalytic domain"</title>
				<polygon class="PF01717" points="67,28 87,28 99,40 87,52 67,52" stroke-linejoin="round" width="36" height="24" fill="rgb(163,221,87)" stroke="rgb(130,176,69)" stroke-width="1" opacity="0.75" />
			</g>
		</g>
		<g>
			<title> (ctg11019_4)</title>
			<polygon class=" (ctg11019_4)" points="160,25 135,25 135,10 105,40 135,70 135,55 160,55" fill="rgb(255,255,255)" fill-opacity="1.0" stroke="rgb(0,0,0)" stroke-width="2"  />
			<g>
				<title>STAS (PF01740)
"STAS domain"</title>
				<polygon class="PF01740" points="109,40 116,33 116,47" stroke-linejoin="round" width="10" height="24" fill="rgb(219,58,116)" stroke="rgb(175,46,92)" stroke-width="1" opacity="0.75" />
			</g>
			<g>
				<title>Sulfate_transp (PF00916)
"Sulfate permease family"</title>
				<rect class="PF00916" x="122" y="28" stroke-linejoin="round" width="35" height="24" fill="rgb(189,61,212)" stroke="rgb(151,48,169)" stroke-width="1" opacity="0.75" />
			</g>
		</g>
		<g>
			<title> (ctg11019_5)</title>
			<polygon class=" (ctg11019_5)" points="165,25 225,25 225,10 255,40 225,70 225,55 165,55" fill="rgb(255,255,255)" fill-opacity="1.0" stroke="rgb(0,0,0)" stroke-width="2"  />
			<g>
				<title>ketoacyl-synt (PF00109)
"Beta-ketoacyl synthase, N-terminal domain"</title>
				<rect class="PF00109" x="165" y="28" stroke-linejoin="round" width="25" height="24" fill="rgb(112,116,228)" stroke="rgb(89,92,182)" stroke-width="1" opacity="0.75" />
			</g>
			<g>
				<title>Ketoacyl-synt_C (PF02801)
"Beta-ketoacyl synthase, C-terminal domain"</title>
				<rect class="PF02801" x="192" y="28" stroke-linejoin="round" width="11" height="24" fill="rgb(215,78,102)" stroke="rgb(172,62,81)" stroke-width="1" opacity="0.75" />
			</g>
			<g>
				<title>KAsynt_C_assoc (PF16197)
"Ketoacyl-synthetase C-terminal extension"</title>
				<rect class="PF16197" x="204" y="28" stroke-linejoin="round" width="13" height="24" fill="rgb(240,150,172)" stroke="rgb(192,120,137)" stroke-width="1" opacity="0.75" />
			</g>
			<g>
				<title>Acyl_transf_1 (PF00698)
"Acyl transferase domain"</title>
				<polygon class="PF00698" points="222,28 239,28 251,40 239,52 222,52" stroke-linejoin="round" width="31" height="24" fill="rgb(59,176,209)" stroke="rgb(47,140,167)" stroke-width="1" opacity="0.75" />
			</g>
		</g>
	</g>
</svg>
