<svg version="1.1" baseProfile="full" xmlns="http://www.w3.org/2000/svg" width="200.43333333333334" height="80">
	<g>
		<line x1="10" y1="40.0" x2="190.43333333333334" y2="40.0" style="stroke:rgb(70,70,70); stroke-width:3 "/>
		<g>
			<title> (ctg8619_1)</title>
			<polygon class=" (ctg8619_1)" points="15,10 23,40 15,70" fill="rgb(255,255,255)" fill-opacity="1.0" stroke="rgb(0,0,0)" stroke-width="2"  />
			<g>
				<title>NHase_alpha (PF02979)
"Nitrile hydratase, alpha chain"</title>
				<polygon class="PF02979" points="16,28 16,28 20,40 16,52 16,52" stroke-linejoin="round" width="6" height="24" fill="rgb(204,148,70)" stroke="rgb(163,118,56)" stroke-width="1" opacity="0.75" />
			</g>
		</g>
		<g>
			<title> (ctg8619_2)</title>
			<polygon class=" (ctg8619_2)" points="28,25 30,25 30,10 60,40 30,70 30,55 28,55" fill="rgb(255,255,255)" fill-opacity="1.0" stroke="rgb(0,0,0)" stroke-width="2"  />
		</g>
		<g>
			<title> (ctg8619_3)</title>
			<polygon class=" (ctg8619_3)" points="64,25 86,25 86,10 116,40 86,70 86,55 64,55" fill="rgb(255,255,255)" fill-opacity="1.0" stroke="rgb(0,0,0)" stroke-width="2"  />
			<g>
				<title>Hydant_A_N (PF05378)
"Hydantoinase/oxoprolinase N-terminal region"</title>
				<rect class="PF05378" x="64" y="28" stroke-linejoin="round" width="16" height="24" fill="rgb(116,89,225)" stroke="rgb(92,71,180)" stroke-width="1" opacity="0.75" />
			</g>
			<g>
				<title>Hydantoinase_A (PF01968)
"Hydantoinase/oxoprolinase"</title>
				<rect class="PF01968" x="83" y="28" stroke-linejoin="round" width="17" height="24" fill="rgb(126,186,91)" stroke="rgb(100,148,72)" stroke-width="1" opacity="0.75" />
			</g>
		</g>
		<g>
			<title> (ctg8619_4)</title>
			<polygon class=" (ctg8619_4)" points="158,25 145,25 145,10 115,40 145,70 145,55 158,55" fill="rgb(255,255,255)" fill-opacity="1.0" stroke="rgb(0,0,0)" stroke-width="2"  />
			<g>
				<title>Peptidase_M20 (PF01546)
"Peptidase family M20/M25/M40"</title>
				<polygon class="PF01546" points="119,40 131,28 147,28 147,52 131,52" stroke-linejoin="round" width="32" height="24" fill="rgb(88,213,108)" stroke="rgb(70,170,86)" stroke-width="1" opacity="0.75" />
			</g>
		</g>
		<g>
			<title> (ctg8619_5)</title>
			<polygon class=" (ctg8619_5)" points="160,40 174,10 174,70" fill="rgb(255,255,255)" fill-opacity="1.0" stroke="rgb(0,0,0)" stroke-width="2"  />
			<g>
				<title>EVE (PF01878)
"EVE domain"</title>
				<polygon class="PF01878" points="163,40 169,28 174,28 174,52 169,52" stroke-linejoin="round" width="14" height="24" fill="rgb(191,64,134)" stroke="rgb(152,51,107)" stroke-width="1" opacity="0.75" />
			</g>
		</g>
	</g>
</svg>
