<svg version="1.1" baseProfile="full" xmlns="http://www.w3.org/2000/svg" width="499.53333333333336" height="80">
	<g>
		<line x1="10" y1="40.0" x2="489.53333333333336" y2="40.0" style="stroke:rgb(70,70,70); stroke-width:3 "/>
		<g>
			<title> (ctg843_32)</title>
			<polygon class=" (ctg843_32)" points="10,25 16,25 16,10 46,40 16,70 16,55 10,55" fill="rgb(255,255,255)" fill-opacity="1.0" stroke="rgb(0,0,0)" stroke-width="2"  />
			<g>
				<title>Dala_Dala_lig_N (PF01820)
"D-ala D-ala ligase N-terminus"</title>
				<rect class="PF01820" x="10" y="28" stroke-linejoin="round" width="12" height="24" fill="rgb(55,160,179)" stroke="rgb(44,127,143)" stroke-width="1" opacity="0.75" />
			</g>
			<g>
				<title>Dala_Dala_lig_C (PF07478)
"D-ala D-ala ligase C-terminus"</title>
				<polygon class="PF07478" points="24,28 29,28 41,40 29,52 24,52" stroke-linejoin="round" width="20" height="24" fill="rgb(202,54,160)" stroke="rgb(161,43,127)" stroke-width="1" opacity="0.75" />
			</g>
		</g>
		<g>
			<title> (ctg843_33)</title>
			<polygon class=" (ctg843_33)" points="55,10 70,40 55,70" fill="rgb(255,255,255)" fill-opacity="1.0" stroke="rgb(0,0,0)" stroke-width="2"  />
		</g>
		<g>
			<title> (ctg843_34)</title>
			<polygon class=" (ctg843_34)" points="71,10 99,40 71,70" fill="rgb(255,255,255)" fill-opacity="1.0" stroke="rgb(0,0,0)" stroke-width="2"  />
			<g>
				<title>PhyH (PF05721)
"Phytanoyl-CoA dioxygenase (PhyH)"</title>
				<polygon class="PF05721" points="72,28 83,28 91,36 91,44 83,52 72,52" stroke-linejoin="round" width="19" height="24" fill="rgb(72,132,214)" stroke="rgb(57,105,171)" stroke-width="1" opacity="0.75" />
			</g>
		</g>
		<g>
			<title> (ctg843_35)</title>
			<polygon class=" (ctg843_35)" points="102,40 127,10 127,70" fill="rgb(255,255,255)" fill-opacity="1.0" stroke="rgb(0,0,0)" stroke-width="2"  />
			<g>
				<title>Rotamase (PF00639)
"PPIC-type PPIASE domain"</title>
				<polygon class="PF00639" points="106,40 113,32 113,48" stroke-linejoin="round" width="8" height="24" fill="rgb(179,171,54)" stroke="rgb(143,136,43)" stroke-width="1" opacity="0.75" />
			</g>
		</g>
		<g>
			<title> (ctg843_36)</title>
			<polygon class=" (ctg843_36)" points="174,25 158,25 158,10 128,40 158,70 158,55 174,55" fill="rgb(255,255,255)" fill-opacity="1.0" stroke="rgb(0,0,0)" stroke-width="2"  />
			<g>
				<title>HlyD_3 (PF13437)
"HlyD family secretion protein"</title>
				<polygon class="PF13437" points="132,40 142,30 142,50" stroke-linejoin="round" width="11" height="24" fill="rgb(82,200,102)" stroke="rgb(65,160,81)" stroke-width="1" opacity="0.75" />
			</g>
			<g>
				<title>Biotin_lipoyl_2 (PF13533)
"Biotin-lipoyl like"</title>
				<rect class="PF13533" x="162" y="28" stroke-linejoin="round" width="4" height="24" fill="rgb(229,122,112)" stroke="rgb(183,97,89)" stroke-width="1" opacity="0.75" />
			</g>
		</g>
		<g>
			<title> (ctg843_37)</title>
			<polygon class=" (ctg843_37)" points="278,25 206,25 206,10 176,40 206,70 206,55 278,55" fill="rgb(255,255,255)" fill-opacity="1.0" stroke="rgb(0,0,0)" stroke-width="2"  />
			<g>
				<title>ABC_tran (PF00005)
"ABC transporter"</title>
				<polygon class="PF00005" points="183,37 192,28 197,28 197,52 192,52 183,43" stroke-linejoin="round" width="14" height="24" fill="rgb(129,201,63)" stroke="rgb(103,160,50)" stroke-width="1" opacity="0.75" />
			</g>
			<g>
				<title>ABC_membrane (PF00664)
"ABC transporter transmembrane region"</title>
				<rect class="PF00664" x="205" y="28" stroke-linejoin="round" width="27" height="24" fill="rgb(149,226,73)" stroke="rgb(119,180,58)" stroke-width="1" opacity="0.75" />
			</g>
			<g>
				<title>Peptidase_C39 (PF03412)
"Peptidase C39 family"</title>
				<rect class="PF03412" x="234" y="28" stroke-linejoin="round" width="13" height="24" fill="rgb(214,226,77)" stroke="rgb(171,180,61)" stroke-width="1" opacity="0.75" />
			</g>
			<g>
				<title>cNMP_binding (PF00027)
"Cyclic nucleotide-binding domain"</title>
				<rect class="PF00027" x="255" y="28" stroke-linejoin="round" width="7" height="24" fill="rgb(138,95,204)" stroke="rgb(110,76,163)" stroke-width="1" opacity="0.75" />
			</g>
			<g>
				<title>cNMP_binding (PF00027)
"Cyclic nucleotide-binding domain"</title>
				<rect class="PF00027" x="267" y="28" stroke-linejoin="round" width="8" height="24" fill="rgb(138,95,204)" stroke="rgb(110,76,163)" stroke-width="1" opacity="0.75" />
			</g>
		</g>
		<g>
			<title> (ctg843_38)</title>
			<polygon class=" (ctg843_38)" points="285,40 297,10 297,70" fill="rgb(255,255,255)" fill-opacity="1.0" stroke="rgb(0,0,0)" stroke-width="2"  />
		</g>
		<g>
			<title> (ctg843_39)</title>
			<polygon class=" (ctg843_39)" points="301,40 308,10 308,70" fill="rgb(255,255,255)" fill-opacity="1.0" stroke="rgb(0,0,0)" stroke-width="2"  />
		</g>
		<g>
			<title> (ctg843_40)</title>
			<polygon class=" (ctg843_40)" points="312,40 322,10 322,70" fill="rgb(255,255,255)" fill-opacity="1.0" stroke="rgb(0,0,0)" stroke-width="2"  />
		</g>
		<g>
			<title> (ctg843_41)</title>
			<polygon class=" (ctg843_41)" points="370,25 354,25 354,10 324,40 354,70 354,55 370,55" fill="rgb(255,255,255)" fill-opacity="1.0" stroke="rgb(0,0,0)" stroke-width="2"  />
			<g>
				<title>Glycos_transf_1 (PF00534)
"Glycosyl transferases group 1"</title>
				<polygon class="PF00534" points="336,32 340,28 352,28 352,52 340,52 336,48" stroke-linejoin="round" width="16" height="24" fill="rgb(228,92,150)" stroke="rgb(182,73,119)" stroke-width="1" opacity="0.75" />
			</g>
		</g>
		<g>
			<title> (ctg843_42)</title>
			<polygon class=" (ctg843_42)" points="413,25 401,25 401,10 371,40 401,70 401,55 413,55" fill="rgb(255,255,255)" fill-opacity="1.0" stroke="rgb(0,0,0)" stroke-width="2"  />
			<g>
				<title>Glyco_tran_28_C (PF04101)
"Glycosyltransferase family 28 C-terminal domain"</title>
				<polygon class="PF04101" points="375,40 387,28 387,28 387,52 387,52" stroke-linejoin="round" width="16" height="24" fill="rgb(211,90,140)" stroke="rgb(168,72,112)" stroke-width="1" opacity="0.75" />
			</g>
		</g>
		<g>
			<title> (ctg843_43)</title>
			<polygon class=" (ctg843_43)" points="422,40 430,10 430,70" fill="rgb(255,255,255)" fill-opacity="1.0" stroke="rgb(0,0,0)" stroke-width="2"  />
		</g>
	</g>
</svg>
