<svg version="1.1" baseProfile="full" xmlns="http://www.w3.org/2000/svg" width="1478.3333333333333" height="80">
	<g>
		<line x1="10" y1="40.0" x2="1468.3333333333333" y2="40.0" style="stroke:rgb(70,70,70); stroke-width:3 "/>
		<g>
			<title> (ctg237_38)</title>
			<polygon class=" (ctg237_38)" points="95,10 111,40 95,70" fill="rgb(255,255,255)" fill-opacity="1.0" stroke="rgb(0,0,0)" stroke-width="2"  />
			<g>
				<title>HHH_3 (PF12836)
"Helix-hairpin-helix motif"</title>
				<polygon class="PF12836" points="104,33 107,40 104,47" stroke-linejoin="round" width="6" height="24" fill="rgb(58,214,96)" stroke="rgb(46,171,76)" stroke-width="1" opacity="0.75" />
			</g>
		</g>
		<g>
			<title> (ctg237_39)</title>
			<polygon class=" (ctg237_39)" points="117,10 137,40 117,70" fill="rgb(255,255,255)" fill-opacity="1.0" stroke="rgb(0,0,0)" stroke-width="2"  />
			<g>
				<title>Cons_hypoth95 (PF03602)
"Conserved hypothetical protein 95"</title>
				<polygon class="PF03602" points="117,28 125,28 134,40 134,40 125,52 117,52" stroke-linejoin="round" width="17" height="24" fill="rgb(220,198,67)" stroke="rgb(176,158,53)" stroke-width="1" opacity="0.75" />
			</g>
		</g>
		<g>
			<title> (ctg237_40)</title>
			<polygon class=" (ctg237_40)" points="137,10 153,40 137,70" fill="rgb(255,255,255)" fill-opacity="1.0" stroke="rgb(0,0,0)" stroke-width="2"  />
			<g>
				<title>CTP_transf_like (PF01467)
"Cytidylyltransferase-like"</title>
				<polygon class="PF01467" points="137,28 143,28 149,39 149,41 143,52 137,52" stroke-linejoin="round" width="12" height="24" fill="rgb(110,215,57)" stroke="rgb(88,172,45)" stroke-width="1" opacity="0.75" />
			</g>
		</g>
		<g>
			<title> (ctg237_41)</title>
			<polygon class=" (ctg237_41)" points="155,25 165,25 165,10 195,40 165,70 165,55 155,55" fill="rgb(255,255,255)" fill-opacity="1.0" stroke="rgb(0,0,0)" stroke-width="2"  />
			<g>
				<title>Aminotran_1_2 (PF00155)
"Aminotransferase class I and II"</title>
				<polygon class="PF00155" points="158,28 179,28 191,40 179,52 158,52" stroke-linejoin="round" width="36" height="24" fill="rgb(89,113,198)" stroke="rgb(71,90,158)" stroke-width="1" opacity="0.75" />
			</g>
		</g>
		<g>
			<title> (ctg237_42)</title>
			<polygon class=" (ctg237_42)" points="197,25 205,25 205,10 235,40 205,70 205,55 197,55" fill="rgb(255,255,255)" fill-opacity="1.0" stroke="rgb(0,0,0)" stroke-width="2"  />
			<g>
				<title>NYN (PF01936)
"NYN domain"</title>
				<polygon class="PF01936" points="219,28 219,28 231,40 219,52 219,52" stroke-linejoin="round" width="15" height="24" fill="rgb(215,71,199)" stroke="rgb(172,56,159)" stroke-width="1" opacity="0.75" />
			</g>
		</g>
		<g>
			<title> (ctg237_43)</title>
			<polygon class=" (ctg237_43)" points="237,25 237,25 237,10 267,40 237,70 237,55 237,55" fill="rgb(255,255,255)" fill-opacity="1.0" stroke="rgb(0,0,0)" stroke-width="2"  />
			<g>
				<title>Ldh_1_N (PF00056)
"lactate/malate dehydrogenase, NAD binding domain"</title>
				<rect class="PF00056" x="237" y="28" stroke-linejoin="round" width="13" height="24" fill="rgb(205,51,142)" stroke="rgb(164,40,113)" stroke-width="1" opacity="0.75" />
			</g>
			<g>
				<title>Ldh_1_C (PF02866)
"lactate/malate dehydrogenase, alpha/beta C-terminal domain"</title>
				<polygon class="PF02866" points="251,28 251,28 263,40 251,52 251,52" stroke-linejoin="round" width="16" height="24" fill="rgb(94,219,97)" stroke="rgb(75,175,77)" stroke-width="1" opacity="0.75" />
			</g>
		</g>
		<g>
			<title> (ctg237_44)</title>
			<polygon class=" (ctg237_44)" points="270,25 281,25 281,10 311,40 281,70 281,55 270,55" fill="rgb(255,255,255)" fill-opacity="1.0" stroke="rgb(0,0,0)" stroke-width="2"  />
			<g>
				<title>Iso_dh (PF00180)
"Isocitrate/isopropylmalate dehydrogenase"</title>
				<polygon class="PF00180" points="272,28 294,28 306,40 294,52 272,52" stroke-linejoin="round" width="37" height="24" fill="rgb(109,54,206)" stroke="rgb(87,43,164)" stroke-width="1" opacity="0.75" />
			</g>
		</g>
		<g>
			<title> (ctg237_45)</title>
			<polygon class=" (ctg237_45)" points="312,25 316,25 316,10 346,40 316,70 316,55 312,55" fill="rgb(255,255,255)" fill-opacity="1.0" stroke="rgb(0,0,0)" stroke-width="2"  />
			<g>
				<title>GTP1_OBG (PF01018)
"GTP1/OBG"</title>
				<rect class="PF01018" x="312" y="28" stroke-linejoin="round" width="15" height="24" fill="rgb(159,183,68)" stroke="rgb(127,146,54)" stroke-width="1" opacity="0.75" />
			</g>
			<g>
				<title>MMR_HSR1 (PF01926)
"50S ribosome-binding GTPase"</title>
				<polygon class="PF01926" points="328,28 329,28 340,39 340,41 329,52 328,52" stroke-linejoin="round" width="12" height="24" fill="rgb(105,180,226)" stroke="rgb(83,143,180)" stroke-width="1" opacity="0.75" />
			</g>
		</g>
		<g>
			<title> (ctg237_46)</title>
			<polygon class=" (ctg237_46)" points="350,25 356,25 356,10 386,40 356,70 356,55 350,55" fill="rgb(255,255,255)" fill-opacity="1.0" stroke="rgb(0,0,0)" stroke-width="2"  />
			<g>
				<title>HHH_5 (PF14520)
"Helix-hairpin-helix domain"</title>
				<rect class="PF14520" x="350" y="28" stroke-linejoin="round" width="5" height="24" fill="rgb(118,220,87)" stroke="rgb(94,176,69)" stroke-width="1" opacity="0.75" />
			</g>
			<g>
				<title>DNA_processg_A (PF02481)
"DNA recombination-mediator protein A"</title>
				<polygon class="PF02481" points="357,28 370,28 377,35 377,45 370,52 357,52" stroke-linejoin="round" width="20" height="24" fill="rgb(72,189,53)" stroke="rgb(57,151,42)" stroke-width="1" opacity="0.75" />
			</g>
			<g>
				<title>DprA_WH (PF17782)
"DprA winged helix domain"</title>
				<polygon class="PF17782" points="379,37 382,40 379,43" stroke-linejoin="round" width="6" height="24" fill="rgb(80,186,78)" stroke="rgb(64,148,62)" stroke-width="1" opacity="0.75" />
			</g>
		</g>
		<g>
			<title> (ctg237_47)</title>
			<polygon class=" (ctg237_47)" points="391,10 407,40 391,70" fill="rgb(255,255,255)" fill-opacity="1.0" stroke="rgb(0,0,0)" stroke-width="2"  />
			<g>
				<title>CTP_transf_like (PF01467)
"Cytidylyltransferase-like"</title>
				<polygon class="PF01467" points="394,28 397,28 404,40 404,40 397,52 394,52" stroke-linejoin="round" width="10" height="24" fill="rgb(110,215,57)" stroke="rgb(88,172,45)" stroke-width="1" opacity="0.75" />
			</g>
		</g>
		<g>
			<title> (ctg237_48)</title>
			<polygon class=" (ctg237_48)" points="407,10 417,40 407,70" fill="rgb(255,255,255)" fill-opacity="1.0" stroke="rgb(0,0,0)" stroke-width="2"  />
		</g>
		<g>
			<title> (ctg237_49)</title>
			<polygon class=" (ctg237_49)" points="417,10 443,40 417,70" fill="rgb(255,255,255)" fill-opacity="1.0" stroke="rgb(0,0,0)" stroke-width="2"  />
			<g>
				<title>PhyH (PF05721)
"Phytanoyl-CoA dioxygenase (PhyH)"</title>
				<polygon class="PF05721" points="418,28 428,28 435,35 435,45 428,52 418,52" stroke-linejoin="round" width="17" height="24" fill="rgb(72,132,214)" stroke="rgb(57,105,171)" stroke-width="1" opacity="0.75" />
			</g>
		</g>
		<g>
			<title> (ctg237_50)</title>
			<polygon class=" (ctg237_50)" points="445,25 459,25 459,10 489,40 459,70 459,55 445,55" fill="rgb(255,255,255)" fill-opacity="1.0" stroke="rgb(0,0,0)" stroke-width="2"  />
			<g>
				<title>AA_permease_2 (PF13520)
"Amino acid permease"</title>
				<polygon class="PF13520" points="446,28 473,28 485,40 473,52 446,52" stroke-linejoin="round" width="42" height="24" fill="rgb(180,217,107)" stroke="rgb(144,173,85)" stroke-width="1" opacity="0.75" />
			</g>
		</g>
		<g>
			<title> (ctg237_51)</title>
			<polygon class=" (ctg237_51)" points="490,10 499,40 490,70" fill="rgb(255,255,255)" fill-opacity="1.0" stroke="rgb(0,0,0)" stroke-width="2"  />
		</g>
		<g>
			<title> (ctg237_52)</title>
			<polygon class=" (ctg237_52)" points="503,10 509,40 503,70" fill="rgb(255,255,255)" fill-opacity="1.0" stroke="rgb(0,0,0)" stroke-width="2"  />
		</g>
		<g>
			<title> (ctg237_53)</title>
			<polygon class=" (ctg237_53)" points="517,10 529,40 517,70" fill="rgb(255,255,255)" fill-opacity="1.0" stroke="rgb(0,0,0)" stroke-width="2"  />
		</g>
		<g>
			<title> (ctg237_54)</title>
			<polygon class=" (ctg237_54)" points="530,10 537,40 530,70" fill="rgb(255,255,255)" fill-opacity="1.0" stroke="rgb(0,0,0)" stroke-width="2"  />
		</g>
		<g>
			<title> (ctg237_55)</title>
			<polygon class=" (ctg237_55)" points="544,25 549,25 549,10 579,40 549,70 549,55 544,55" fill="rgb(255,255,255)" fill-opacity="1.0" stroke="rgb(0,0,0)" stroke-width="2"  />
			<g>
				<title>GFO_IDH_MocA (PF01408)
"Oxidoreductase family, NAD-binding Rossmann fold"</title>
				<rect class="PF01408" x="544" y="28" stroke-linejoin="round" width="11" height="24" fill="rgb(76,117,190)" stroke="rgb(60,93,152)" stroke-width="1" opacity="0.75" />
			</g>
		</g>
		<g>
			<title> (ctg237_56)</title>
			<polygon class=" (ctg237_56)" points="633,25 609,25 609,10 579,40 609,70 609,55 633,55" fill="rgb(255,255,255)" fill-opacity="1.0" stroke="rgb(0,0,0)" stroke-width="2"  />
			<g>
				<title>SpoIIE (PF07228)
"Stage II sporulation protein E (SpoIIE)"</title>
				<polygon class="PF07228" points="583,40 595,28 598,28 598,52 595,52" stroke-linejoin="round" width="19" height="24" fill="rgb(85,195,217)" stroke="rgb(68,155,173)" stroke-width="1" opacity="0.75" />
			</g>
			<g>
				<title>GAF (PF01590)
"GAF domain"</title>
				<rect class="PF01590" x="604" y="28" stroke-linejoin="round" width="13" height="24" fill="rgb(86,203,59)" stroke="rgb(68,162,47)" stroke-width="1" opacity="0.75" />
			</g>
			<g>
				<title>FHA (PF00498)
"FHA domain"</title>
				<rect class="PF00498" x="624" y="28" stroke-linejoin="round" width="6" height="24" fill="rgb(57,178,90)" stroke="rgb(45,142,72)" stroke-width="1" opacity="0.75" />
			</g>
		</g>
		<g>
			<title> (ctg237_57)</title>
			<polygon class=" (ctg237_57)" points="676,25 665,25 665,10 635,40 665,70 665,55 676,55" fill="rgb(255,255,255)" fill-opacity="1.0" stroke="rgb(0,0,0)" stroke-width="2"  />
			<g>
				<title>ADH_zinc_N (PF00107)
"Zinc-binding dehydrogenase"</title>
				<polygon class="PF00107" points="639,40 651,28 654,28 654,52 651,52 639,40" stroke-linejoin="round" width="15" height="24" fill="rgb(81,108,215)" stroke="rgb(64,86,172)" stroke-width="1" opacity="0.75" />
			</g>
			<g>
				<title>ADH_N (PF08240)
"Alcohol dehydrogenase GroES-like domain"</title>
				<rect class="PF08240" x="658" y="28" stroke-linejoin="round" width="12" height="24" fill="rgb(211,65,138)" stroke="rgb(168,51,110)" stroke-width="1" opacity="0.75" />
			</g>
		</g>
		<g>
			<title> (ctg237_58)</title>
			<polygon class=" (ctg237_58)" points="801,25 706,25 706,10 676,40 706,70 706,55 801,55" fill="rgb(255,255,255)" fill-opacity="1.0" stroke="rgb(0,0,0)" stroke-width="2"  />
			<g>
				<title>HAD (PF12710)
"haloacid dehalogenase-like hydrolase"</title>
				<polygon class="PF12710" points="680,40 692,28 697,28 697,52 692,52" stroke-linejoin="round" width="18" height="24" fill="rgb(181,59,119)" stroke="rgb(144,47,95)" stroke-width="1" opacity="0.75" />
			</g>
			<g>
				<title>AMP-binding (PF00501)
"AMP-binding enzyme"</title>
				<rect class="PF00501" x="701" y="28" stroke-linejoin="round" width="43" height="24" fill="rgb(60,217,223)" stroke="rgb(48,173,178)" stroke-width="1" opacity="0.75" />
			</g>
			<g>
				<title>Sterile (PF03015)
"Male sterility protein"</title>
				<rect class="PF03015" x="748" y="28" stroke-linejoin="round" width="8" height="24" fill="rgb(157,58,225)" stroke="rgb(125,46,180)" stroke-width="1" opacity="0.75" />
			</g>
			<g>
				<title>NAD_binding_4 (PF07993)
"Male sterility protein"</title>
				<rect class="PF07993" x="765" y="28" stroke-linejoin="round" width="34" height="24" fill="rgb(100,212,204)" stroke="rgb(80,169,163)" stroke-width="1" opacity="0.75" />
			</g>
		</g>
		<g>
			<title> (ctg237_59)</title>
			<polygon class=" (ctg237_59)" points="840,25 836,25 836,10 806,40 836,70 836,55 840,55" fill="rgb(255,255,255)" fill-opacity="1.0" stroke="rgb(0,0,0)" stroke-width="2"  />
			<g>
				<title>bact-PGI_C (PF10432)
"Bacterial phospho-glucose isomerase C-terminal SIS domain"</title>
				<polygon class="PF10432" points="810,40 821,29 821,51" stroke-linejoin="round" width="15" height="24" fill="rgb(124,79,210)" stroke="rgb(99,63,168)" stroke-width="1" opacity="0.75" />
			</g>
		</g>
		<g>
			<title> (ctg237_60)</title>
			<polygon class=" (ctg237_60)" points="875,25 873,25 873,10 843,40 873,70 873,55 875,55" fill="rgb(255,255,255)" fill-opacity="1.0" stroke="rgb(0,0,0)" stroke-width="2"  />
			<g>
				<title>AP_endonuc_2 (PF01261)
"Xylose isomerase-like TIM barrel"</title>
				<polygon class="PF01261" points="854,33 859,28 873,28 873,52 859,52 854,47" stroke-linejoin="round" width="19" height="24" fill="rgb(69,222,207)" stroke="rgb(55,177,165)" stroke-width="1" opacity="0.75" />
			</g>
		</g>
		<g>
			<title> (ctg237_61)</title>
			<polygon class=" (ctg237_61)" points="877,40 903,10 903,70" fill="rgb(255,255,255)" fill-opacity="1.0" stroke="rgb(0,0,0)" stroke-width="2"  />
			<g>
				<title>adh_short_C2 (PF13561)
"Enoyl-(Acyl carrier protein) reductase"</title>
				<polygon class="PF13561" points="881,40 891,28 901,28 901,52 891,52" stroke-linejoin="round" width="24" height="24" fill="rgb(73,205,127)" stroke="rgb(58,164,101)" stroke-width="1" opacity="0.75" />
			</g>
		</g>
		<g>
			<title> (ctg237_62)</title>
			<polygon class=" (ctg237_62)" points="957,25 937,25 937,10 907,40 937,70 937,55 957,55" fill="rgb(255,255,255)" fill-opacity="1.0" stroke="rgb(0,0,0)" stroke-width="2"  />
			<g>
				<title>Sulfatase (PF00884)
"Sulfatase"</title>
				<polygon class="PF00884" points="919,32 923,28 956,28 956,52 923,52 919,48" stroke-linejoin="round" width="37" height="24" fill="rgb(61,103,198)" stroke="rgb(48,82,158)" stroke-width="1" opacity="0.75" />
			</g>
		</g>
		<g>
			<title> (ctg237_63)</title>
			<polygon class=" (ctg237_63)" points="965,10 992,40 965,70" fill="rgb(255,255,255)" fill-opacity="1.0" stroke="rgb(0,0,0)" stroke-width="2"  />
			<g>
				<title>Methyltransf_25 (PF13649)
"Methyltransferase domain"</title>
				<polygon class="PF13649" points="969,28 977,28 978,29 978,51 977,52 969,52" stroke-linejoin="round" width="9" height="24" fill="rgb(227,135,74)" stroke="rgb(181,108,59)" stroke-width="1" opacity="0.75" />
			</g>
		</g>
		<g>
			<title> (ctg237_64)</title>
			<polygon class=" (ctg237_64)" points="1025,25 1024,25 1024,10 994,40 1024,70 1024,55 1025,55" fill="rgb(255,255,255)" fill-opacity="1.0" stroke="rgb(0,0,0)" stroke-width="2"  />
			<g>
				<title>PhyH (PF05721)
"Phytanoyl-CoA dioxygenase (PhyH)"</title>
				<polygon class="PF05721" points="1000,38 1010,28 1021,28 1021,52 1010,52 1000,42" stroke-linejoin="round" width="21" height="24" fill="rgb(72,132,214)" stroke="rgb(57,105,171)" stroke-width="1" opacity="0.75" />
			</g>
		</g>
		<g>
			<title> (ctg237_65)</title>
			<polygon class=" (ctg237_65)" points="1036,25 1070,25 1070,10 1100,40 1070,70 1070,55 1036,55" fill="rgb(255,255,255)" fill-opacity="1.0" stroke="rgb(0,0,0)" stroke-width="2"  />
			<g>
				<title>AFOR_N (PF02730)
"Aldehyde ferredoxin oxidoreductase, N-terminal domain"</title>
				<rect class="PF02730" x="1038" y="28" stroke-linejoin="round" width="22" height="24" fill="rgb(220,87,59)" stroke="rgb(176,69,47)" stroke-width="1" opacity="0.75" />
			</g>
			<g>
				<title>AFOR_C (PF01314)
"Aldehyde ferredoxin oxidoreductase, domains 2 & 3"</title>
				<polygon class="PF01314" points="1062,28 1084,28 1096,40 1084,52 1062,52" stroke-linejoin="round" width="36" height="24" fill="rgb(218,96,225)" stroke="rgb(174,76,180)" stroke-width="1" opacity="0.75" />
			</g>
		</g>
		<g>
			<title> (ctg237_66)</title>
			<polygon class=" (ctg237_66)" points="1103,10 1109,40 1103,70" fill="rgb(255,255,255)" fill-opacity="1.0" stroke="rgb(0,0,0)" stroke-width="2"  />
		</g>
		<g>
			<title> (ctg237_67)</title>
			<polygon class=" (ctg237_67)" points="1146,25 1139,25 1139,10 1109,40 1139,70 1139,55 1146,55" fill="rgb(255,255,255)" fill-opacity="1.0" stroke="rgb(0,0,0)" stroke-width="2"  />
		</g>
		<g>
			<title> (ctg237_68)</title>
			<polygon class=" (ctg237_68)" points="1147,40 1169,10 1169,70" fill="rgb(255,255,255)" fill-opacity="1.0" stroke="rgb(0,0,0)" stroke-width="2"  />
			<g>
				<title>PTS_2-RNA (PF01885)
"RNA 2'-phosphotransferase, Tpt1 / KptA family"</title>
				<polygon class="PF01885" points="1151,40 1160,28 1166,28 1166,52 1160,52" stroke-linejoin="round" width="16" height="24" fill="rgb(183,64,169)" stroke="rgb(146,51,135)" stroke-width="1" opacity="0.75" />
			</g>
		</g>
		<g>
			<title> (ctg237_69)</title>
			<polygon class=" (ctg237_69)" points="1173,40 1199,10 1199,70" fill="rgb(255,255,255)" fill-opacity="1.0" stroke="rgb(0,0,0)" stroke-width="2"  />
			<g>
				<title>adh_short_C2 (PF13561)
"Enoyl-(Acyl carrier protein) reductase"</title>
				<polygon class="PF13561" points="1177,40 1188,28 1197,28 1197,52 1188,52" stroke-linejoin="round" width="24" height="24" fill="rgb(73,205,127)" stroke="rgb(58,164,101)" stroke-width="1" opacity="0.75" />
			</g>
		</g>
		<g>
			<title> (ctg237_70)</title>
			<polygon class=" (ctg237_70)" points="1234,25 1232,25 1232,10 1202,40 1232,70 1232,55 1234,55" fill="rgb(255,255,255)" fill-opacity="1.0" stroke="rgb(0,0,0)" stroke-width="2"  />
			<g>
				<title>GFO_IDH_MocA (PF01408)
"Oxidoreductase family, NAD-binding Rossmann fold"</title>
				<rect class="PF01408" x="1222" y="28" stroke-linejoin="round" width="12" height="24" fill="rgb(76,117,190)" stroke="rgb(60,93,152)" stroke-width="1" opacity="0.75" />
			</g>
		</g>
		<g>
			<title> (ctg237_71)</title>
			<polygon class=" (ctg237_71)" points="1239,40 1248,10 1248,70" fill="rgb(255,255,255)" fill-opacity="1.0" stroke="rgb(0,0,0)" stroke-width="2"  />
		</g>
		<g>
			<title> (ctg237_72)</title>
			<polygon class=" (ctg237_72)" points="1252,40 1269,10 1269,70" fill="rgb(255,255,255)" fill-opacity="1.0" stroke="rgb(0,0,0)" stroke-width="2"  />
			<g>
				<title>YdjM (PF04307)
"LexA-binding, inner membrane-associated putative hydrolase"</title>
				<polygon class="PF04307" points="1255,40 1262,28 1268,28 1268,52 1262,52" stroke-linejoin="round" width="16" height="24" fill="rgb(140,223,68)" stroke="rgb(112,178,54)" stroke-width="1" opacity="0.75" />
			</g>
		</g>
		<g>
			<title> (ctg237_73)</title>
			<polygon class=" (ctg237_73)" points="1272,40 1291,10 1291,70" fill="rgb(255,255,255)" fill-opacity="1.0" stroke="rgb(0,0,0)" stroke-width="2"  />
			<g>
				<title>Maf (PF02545)
"Maf-like protein"</title>
				<polygon class="PF02545" points="1276,40 1284,28 1290,28 1290,52 1284,52" stroke-linejoin="round" width="18" height="24" fill="rgb(116,184,91)" stroke="rgb(92,147,72)" stroke-width="1" opacity="0.75" />
			</g>
		</g>
		<g>
			<title> (ctg237_74)</title>
			<polygon class=" (ctg237_74)" points="1292,40 1306,10 1306,70" fill="rgb(255,255,255)" fill-opacity="1.0" stroke="rgb(0,0,0)" stroke-width="2"  />
			<g>
				<title>Tyr_Deacylase (PF02580)
"D-Tyr-tRNA(Tyr) deacylase"</title>
				<polygon class="PF02580" points="1295,40 1301,28 1306,28 1306,52 1301,52" stroke-linejoin="round" width="14" height="24" fill="rgb(187,129,75)" stroke="rgb(149,103,60)" stroke-width="1" opacity="0.75" />
			</g>
		</g>
		<g>
			<title> (ctg237_75)</title>
			<polygon class=" (ctg237_75)" points="1355,25 1341,25 1341,10 1311,40 1341,70 1341,55 1355,55" fill="rgb(255,255,255)" fill-opacity="1.0" stroke="rgb(0,0,0)" stroke-width="2"  />
			<g>
				<title>MatE (PF01554)
"MatE"</title>
				<polygon class="PF01554" points="1315,40 1327,28 1331,28 1331,52 1327,52 1315,40" stroke-linejoin="round" width="16" height="24" fill="rgb(187,69,173)" stroke="rgb(149,55,138)" stroke-width="1" opacity="0.75" />
			</g>
			<g>
				<title>MatE (PF01554)
"MatE"</title>
				<rect class="PF01554" x="1337" y="28" stroke-linejoin="round" width="16" height="24" fill="rgb(187,69,173)" stroke="rgb(149,55,138)" stroke-width="1" opacity="0.75" />
			</g>
		</g>
		<g>
			<title> (ctg237_76)</title>
			<polygon class=" (ctg237_76)" points="1363,25 1375,25 1375,10 1405,40 1375,70 1375,55 1363,55" fill="rgb(255,255,255)" fill-opacity="1.0" stroke="rgb(0,0,0)" stroke-width="2"  />
			<g>
				<title>AdoHcyase (PF05221)
"S-adenosyl-L-homocysteine hydrolase"</title>
				<rect class="PF05221" x="1363" y="28" stroke-linejoin="round" width="13" height="24" fill="rgb(55,203,152)" stroke="rgb(44,162,121)" stroke-width="1" opacity="0.75" />
			</g>
			<g>
				<title>AdoHcyase_NAD (PF00670)
"S-adenosyl-L-homocysteine hydrolase, NAD binding domain"</title>
				<polygon class="PF00670" points="1381,28 1388,28 1397,37 1397,43 1388,52 1381,52" stroke-linejoin="round" width="16" height="24" fill="rgb(104,215,163)" stroke="rgb(83,172,130)" stroke-width="1" opacity="0.75" />
			</g>
		</g>
		<g>
			<title> (ctg237_77)</title>
			<polygon class=" (ctg237_77)" points="1407,25 1410,25 1410,10 1440,40 1410,70 1410,55 1407,55" fill="rgb(255,255,255)" fill-opacity="1.0" stroke="rgb(0,0,0)" stroke-width="2"  />
			<g>
				<title>Pyridoxal_deC (PF00282)
"Pyridoxal-dependent decarboxylase conserved domain"</title>
				<polygon class="PF00282" points="1407,28 1424,28 1431,35 1431,45 1424,52 1407,52" stroke-linejoin="round" width="24" height="24" fill="rgb(100,218,166)" stroke="rgb(80,174,132)" stroke-width="1" opacity="0.75" />
			</g>
		</g>
	</g>
</svg>
