<svg version="1.1" baseProfile="full" xmlns="http://www.w3.org/2000/svg" width="459.23333333333335" height="80">
	<g>
		<line x1="10" y1="40.0" x2="449.23333333333335" y2="40.0" style="stroke:rgb(70,70,70); stroke-width:3 "/>
		<g>
			<title> (ctg5777_1)</title>
			<polygon class=" (ctg5777_1)" points="10,25 30,25 30,10 60,40 30,70 30,55 10,55" fill="rgb(255,255,255)" fill-opacity="1.0" stroke="rgb(0,0,0)" stroke-width="2"  />
			<g>
				<title>E1-E2_ATPase (PF00122)
"E1-E2 ATPase"</title>
				<rect class="PF00122" x="10" y="28" stroke-linejoin="round" width="16" height="24" fill="rgb(149,204,70)" stroke="rgb(119,163,56)" stroke-width="1" opacity="0.75" />
			</g>
			<g>
				<title>Hydrolase (PF00702)
"haloacid dehalogenase-like hydrolase"</title>
				<polygon class="PF00702" points="28,28 44,28 49,33 49,47 44,52 28,52" stroke-linejoin="round" width="21" height="24" fill="rgb(68,220,102)" stroke="rgb(54,176,81)" stroke-width="1" opacity="0.75" />
			</g>
		</g>
		<g>
			<title> (ctg5777_2)</title>
			<polygon class=" (ctg5777_2)" points="63,10 84,40 63,70" fill="rgb(255,255,255)" fill-opacity="1.0" stroke="rgb(0,0,0)" stroke-width="2"  />
			<g>
				<title>AhpC-TSA (PF00578)
"AhpC/TSA family"</title>
				<polygon class="PF00578" points="70,28 72,28 80,40 72,52 70,52" stroke-linejoin="round" width="11" height="24" fill="rgb(166,71,190)" stroke="rgb(132,56,152)" stroke-width="1" opacity="0.75" />
			</g>
		</g>
		<g>
			<title> (ctg5777_3)</title>
			<polygon class=" (ctg5777_3)" points="93,10 102,40 93,70" fill="rgb(255,255,255)" fill-opacity="1.0" stroke="rgb(0,0,0)" stroke-width="2"  />
			<g>
				<title>Thiamine_BP (PF01910)
"Thiamine-binding protein"</title>
				<polygon class="PF01910" points="93,28 95,28 99,40 95,52 93,52" stroke-linejoin="round" width="8" height="24" fill="rgb(201,146,71)" stroke="rgb(160,116,56)" stroke-width="1" opacity="0.75" />
			</g>
		</g>
		<g>
			<title> (ctg5777_4)</title>
			<polygon class=" (ctg5777_4)" points="105,10 132,40 105,70" fill="rgb(255,255,255)" fill-opacity="1.0" stroke="rgb(0,0,0)" stroke-width="2"  />
			<g>
				<title>BPD_transp_1 (PF00528)
"Binding-protein-dependent transport system inner membrane component"</title>
				<polygon class="PF00528" points="113,28 116,28 128,40 116,52 113,52" stroke-linejoin="round" width="18" height="24" fill="rgb(77,208,225)" stroke="rgb(61,166,180)" stroke-width="1" opacity="0.75" />
			</g>
		</g>
		<g>
			<title> (ctg5777_5)</title>
			<polygon class=" (ctg5777_5)" points="133,25 136,25 136,10 166,40 136,70 136,55 133,55" fill="rgb(255,255,255)" fill-opacity="1.0" stroke="rgb(0,0,0)" stroke-width="2"  />
			<g>
				<title>TAT_signal (PF10518)
"TAT (twin-arginine translocation) pathway signal sequence"</title>
				<rect class="PF10518" x="133" y="28" stroke-linejoin="round" width="2" height="24" fill="rgb(85,137,217)" stroke="rgb(68,109,173)" stroke-width="1" opacity="0.75" />
			</g>
			<g>
				<title>NMT1 (PF09084)
"NMT1/THI5 like"</title>
				<polygon class="PF09084" points="137,28 149,28 158,37 158,43 149,52 137,52" stroke-linejoin="round" width="21" height="24" fill="rgb(196,85,209)" stroke="rgb(156,68,167)" stroke-width="1" opacity="0.75" />
			</g>
		</g>
		<g>
			<title> (ctg5777_6)</title>
			<polygon class=" (ctg5777_6)" points="165,10 192,40 165,70" fill="rgb(255,255,255)" fill-opacity="1.0" stroke="rgb(0,0,0)" stroke-width="2"  />
			<g>
				<title>ABC_tran (PF00005)
"ABC transporter"</title>
				<polygon class="PF00005" points="169,28 177,28 183,34 183,46 177,52 169,52" stroke-linejoin="round" width="14" height="24" fill="rgb(129,201,63)" stroke="rgb(103,160,50)" stroke-width="1" opacity="0.75" />
			</g>
		</g>
		<g>
			<title> (ctg5777_7)</title>
			<polygon class=" (ctg5777_7)" points="201,10 215,40 201,70" fill="rgb(255,255,255)" fill-opacity="1.0" stroke="rgb(0,0,0)" stroke-width="2"  />
			<g>
				<title>HSP20 (PF00011)
"Hsp20/alpha crystallin family"</title>
				<polygon class="PF00011" points="205,28 206,28 212,40 206,52 205,52" stroke-linejoin="round" width="10" height="24" fill="rgb(148,223,75)" stroke="rgb(118,178,60)" stroke-width="1" opacity="0.75" />
			</g>
		</g>
		<g>
			<title> (ctg5777_8)</title>
			<polygon class=" (ctg5777_8)" points="219,10 223,40 219,70" fill="rgb(255,255,255)" fill-opacity="1.0" stroke="rgb(0,0,0)" stroke-width="2"  />
		</g>
		<g>
			<title> (ctg5777_9)</title>
			<polygon class=" (ctg5777_9)" points="224,10 241,40 224,70" fill="rgb(255,255,255)" fill-opacity="1.0" stroke="rgb(0,0,0)" stroke-width="2"  />
			<g>
				<title>Cupin_2 (PF07883)
"Cupin domain"</title>
				<polygon class="PF07883" points="230,28 230,28 237,39 237,41 230,52 230,52" stroke-linejoin="round" width="7" height="24" fill="rgb(211,192,74)" stroke="rgb(168,153,59)" stroke-width="1" opacity="0.75" />
			</g>
		</g>
		<g>
			<title> (ctg5777_10)</title>
			<polygon class=" (ctg5777_10)" points="244,25 260,25 260,10 290,40 260,70 260,55 244,55" fill="rgb(255,255,255)" fill-opacity="1.0" stroke="rgb(0,0,0)" stroke-width="2"  />
			<g>
				<title>Sulfatase (PF00884)
"Sulfatase"</title>
				<polygon class="PF00884" points="244,28 274,28 278,32 278,48 274,52 244,52" stroke-linejoin="round" width="34" height="24" fill="rgb(61,103,198)" stroke="rgb(48,82,158)" stroke-width="1" opacity="0.75" />
			</g>
		</g>
		<g>
			<title> (ctg5777_11)</title>
			<polygon class=" (ctg5777_11)" points="294,40 319,10 319,70" fill="rgb(255,255,255)" fill-opacity="1.0" stroke="rgb(0,0,0)" stroke-width="2"  />
			<g>
				<title>adh_short_C2 (PF13561)
"Enoyl-(Acyl carrier protein) reductase"</title>
				<polygon class="PF13561" points="298,40 308,28 317,28 317,52 308,52" stroke-linejoin="round" width="23" height="24" fill="rgb(73,205,127)" stroke="rgb(58,164,101)" stroke-width="1" opacity="0.75" />
			</g>
		</g>
		<g>
			<title> (ctg5777_12)</title>
			<polygon class=" (ctg5777_12)" points="330,10 358,40 330,70" fill="rgb(255,255,255)" fill-opacity="1.0" stroke="rgb(0,0,0)" stroke-width="2"  />
			<g>
				<title>SQS_PSY (PF00494)
"Squalene/phytoene synthase"</title>
				<polygon class="PF00494" points="331,28 342,28 354,40 342,52 331,52" stroke-linejoin="round" width="25" height="24" fill="rgb(178,91,49)" stroke="rgb(142,72,39)" stroke-width="1" opacity="0.75" />
			</g>
		</g>
		<g>
			<title> (ctg5777_13)</title>
			<polygon class=" (ctg5777_13)" points="359,10 387,40 359,70" fill="rgb(255,255,255)" fill-opacity="1.0" stroke="rgb(0,0,0)" stroke-width="2"  />
			<g>
				<title>SQS_PSY (PF00494)
"Squalene/phytoene synthase"</title>
				<polygon class="PF00494" points="360,28 371,28 382,40 371,52 360,52" stroke-linejoin="round" width="25" height="24" fill="rgb(178,91,49)" stroke="rgb(142,72,39)" stroke-width="1" opacity="0.75" />
			</g>
		</g>
		<g>
			<title> (ctg5777_14)</title>
			<polygon class=" (ctg5777_14)" points="387,25 402,25 402,10 432,40 402,70 402,55 387,55" fill="rgb(255,255,255)" fill-opacity="1.0" stroke="rgb(0,0,0)" stroke-width="2"  />
			<g>
				<title>Amino_oxidase (PF01593)
"Flavin containing amine oxidoreductase"</title>
				<polygon class="PF01593" points="388,28 415,28 427,40 415,52 388,52" stroke-linejoin="round" width="42" height="24" fill="rgb(184,74,52)" stroke="rgb(147,59,41)" stroke-width="1" opacity="0.75" />
			</g>
		</g>
		<g>
			<title> (ctg5777_15)</title>
			<polygon class=" (ctg5777_15)" points="433,10 449,40 433,70" fill="rgb(255,255,255)" fill-opacity="1.0" stroke="rgb(0,0,0)" stroke-width="2"  />
			<g>
				<title>SQHop_cyclase_N (PF13249)
"Squalene-hopene cyclase N-terminal domain"</title>
				<polygon class="PF13249" points="434,28 439,28 445,40 439,52 434,52" stroke-linejoin="round" width="14" height="24" fill="rgb(88,190,89)" stroke="rgb(70,152,71)" stroke-width="1" opacity="0.75" />
			</g>
		</g>
	</g>
</svg>
