<svg version="1.1" baseProfile="full" xmlns="http://www.w3.org/2000/svg" width="609.9666666666667" height="80">
	<g>
		<line x1="10" y1="40.0" x2="599.9666666666667" y2="40.0" style="stroke:rgb(70,70,70); stroke-width:3 "/>
		<g>
			<title> (ctg53_181)</title>
			<polygon class=" (ctg53_181)" points="76,25 61,25 61,10 31,40 61,70 61,55 76,55" fill="rgb(255,255,255)" fill-opacity="1.0" stroke="rgb(0,0,0)" stroke-width="2"  />
			<g>
				<title>Peptidase_M50 (PF02163)
"Peptidase family M50"</title>
				<polygon class="PF02163" points="35,40 47,28 74,28 74,52 47,52" stroke-linejoin="round" width="42" height="24" fill="rgb(105,96,203)" stroke="rgb(83,76,162)" stroke-width="1" opacity="0.75" />
			</g>
		</g>
		<g>
			<title> (ctg53_182)</title>
			<polygon class=" (ctg53_182)" points="115,25 107,25 107,10 77,40 107,70 107,55 115,55" fill="rgb(255,255,255)" fill-opacity="1.0" stroke="rgb(0,0,0)" stroke-width="2"  />
			<g>
				<title>DXPR_C (PF13288)
"DXP reductoisomerase C-terminal domain"</title>
				<polygon class="PF13288" points="81,40 89,32 89,48" stroke-linejoin="round" width="11" height="24" fill="rgb(184,95,48)" stroke="rgb(147,76,38)" stroke-width="1" opacity="0.75" />
			</g>
			<g>
				<title>DXP_redisom_C (PF08436)
"1-deoxy-D-xylulose 5-phosphate reductoisomerase C-terminal domain"</title>
				<polygon class="PF08436" points="92,29 93,28 100,28 100,52 93,52 92,51" stroke-linejoin="round" width="8" height="24" fill="rgb(160,186,55)" stroke="rgb(127,148,44)" stroke-width="1" opacity="0.75" />
			</g>
			<g>
				<title>DXP_reductoisom (PF02670)
"1-deoxy-D-xylulose 5-phosphate reductoisomerase"</title>
				<rect class="PF02670" x="102" y="28" stroke-linejoin="round" width="12" height="24" fill="rgb(106,225,169)" stroke="rgb(84,180,135)" stroke-width="1" opacity="0.75" />
			</g>
		</g>
		<g>
			<title> (ctg53_183)</title>
			<polygon class=" (ctg53_183)" points="118,40 147,10 147,70" fill="rgb(255,255,255)" fill-opacity="1.0" stroke="rgb(0,0,0)" stroke-width="2"  />
			<g>
				<title>CTP_transf_1 (PF01148)
"Cytidylyltransferase family"</title>
				<polygon class="PF01148" points="122,40 134,28 144,28 144,52 134,52" stroke-linejoin="round" width="26" height="24" fill="rgb(98,187,226)" stroke="rgb(78,149,180)" stroke-width="1" opacity="0.75" />
			</g>
		</g>
		<g>
			<title> (ctg53_184)</title>
			<polygon class=" (ctg53_184)" points="147,40 173,10 173,70" fill="rgb(255,255,255)" fill-opacity="1.0" stroke="rgb(0,0,0)" stroke-width="2"  />
			<g>
				<title>Prenyltransf (PF01255)
"Putative undecaprenyl diphosphate synthase"</title>
				<polygon class="PF01255" points="151,40 162,28 170,28 170,52 162,52" stroke-linejoin="round" width="22" height="24" fill="rgb(129,224,60)" stroke="rgb(103,179,48)" stroke-width="1" opacity="0.75" />
			</g>
		</g>
		<g>
			<title> (ctg53_185)</title>
			<polygon class=" (ctg53_185)" points="176,25 196,25 196,10 226,40 196,70 196,55 176,55" fill="rgb(255,255,255)" fill-opacity="1.0" stroke="rgb(0,0,0)" stroke-width="2"  />
			<g>
				<title>PmbA_TldD (PF01523)
"Putative modulator of DNA gyrase"</title>
				<polygon class="PF01523" points="181,28 209,28 210,29 210,51 209,52 181,52" stroke-linejoin="round" width="29" height="24" fill="rgb(83,181,55)" stroke="rgb(66,144,44)" stroke-width="1" opacity="0.75" />
			</g>
		</g>
		<g>
			<title> (ctg53_186)</title>
			<polygon class=" (ctg53_186)" points="231,25 246,25 246,10 276,40 246,70 246,55 231,55" fill="rgb(255,255,255)" fill-opacity="1.0" stroke="rgb(0,0,0)" stroke-width="2"  />
			<g>
				<title>PmbA_TldD (PF01523)
"Putative modulator of DNA gyrase"</title>
				<polygon class="PF01523" points="233,28 260,28 262,30 262,50 260,52 233,52" stroke-linejoin="round" width="29" height="24" fill="rgb(83,181,55)" stroke="rgb(66,144,44)" stroke-width="1" opacity="0.75" />
			</g>
		</g>
		<g>
			<title> (ctg53_187)</title>
			<polygon class=" (ctg53_187)" points="278,10 293,40 278,70" fill="rgb(255,255,255)" fill-opacity="1.0" stroke="rgb(0,0,0)" stroke-width="2"  />
		</g>
		<g>
			<title> (ctg53_188)</title>
			<polygon class=" (ctg53_188)" points="297,10 305,40 297,70" fill="rgb(255,255,255)" fill-opacity="1.0" stroke="rgb(0,0,0)" stroke-width="2"  />
			<g>
				<title>RHH_1 (PF01402)
"Ribbon-helix-helix protein, copG family"</title>
				<polygon class="PF01402" points="297,28 298,28 300,33 300,47 298,52 297,52" stroke-linejoin="round" width="3" height="24" fill="rgb(104,197,67)" stroke="rgb(83,157,53)" stroke-width="1" opacity="0.75" />
			</g>
		</g>
		<g>
			<title> (ctg53_189)</title>
			<polygon class=" (ctg53_189)" points="305,10 319,40 305,70" fill="rgb(255,255,255)" fill-opacity="1.0" stroke="rgb(0,0,0)" stroke-width="2"  />
			<g>
				<title>PIN (PF01850)
"PIN domain"</title>
				<polygon class="PF01850" points="305,28 310,28 316,40 310,52 305,52" stroke-linejoin="round" width="13" height="24" fill="rgb(91,217,126)" stroke="rgb(72,173,100)" stroke-width="1" opacity="0.75" />
			</g>
		</g>
		<g>
			<title> (ctg53_190)</title>
			<polygon class=" (ctg53_190)" points="322,40 342,10 342,70" fill="rgb(255,255,255)" fill-opacity="1.0" stroke="rgb(0,0,0)" stroke-width="2"  />
			<g>
				<title>UDG (PF03167)
"Uracil DNA glycosylase superfamily"</title>
				<polygon class="PF03167" points="326,40 334,28 339,28 339,52 334,52" stroke-linejoin="round" width="15" height="24" fill="rgb(64,224,60)" stroke="rgb(51,179,48)" stroke-width="1" opacity="0.75" />
			</g>
		</g>
		<g>
			<title> (ctg53_191)</title>
			<polygon class=" (ctg53_191)" points="343,40 372,10 372,70" fill="rgb(255,255,255)" fill-opacity="1.0" stroke="rgb(0,0,0)" stroke-width="2"  />
			<g>
				<title>SQS_PSY (PF00494)
"Squalene/phytoene synthase"</title>
				<polygon class="PF00494" points="347,40 359,28 370,28 370,52 359,52" stroke-linejoin="round" width="25" height="24" fill="rgb(178,91,49)" stroke="rgb(142,72,39)" stroke-width="1" opacity="0.75" />
			</g>
		</g>
		<g>
			<title> (ctg53_192)</title>
			<polygon class=" (ctg53_192)" points="373,40 397,10 397,70" fill="rgb(255,255,255)" fill-opacity="1.0" stroke="rgb(0,0,0)" stroke-width="2"  />
		</g>
		<g>
			<title> (ctg53_193)</title>
			<polygon class=" (ctg53_193)" points="400,25 403,25 403,10 433,40 403,70 403,55 400,55" fill="rgb(255,255,255)" fill-opacity="1.0" stroke="rgb(0,0,0)" stroke-width="2"  />
		</g>
		<g>
			<title> (ctg53_194)</title>
			<polygon class=" (ctg53_194)" points="437,40 447,10 447,70" fill="rgb(255,255,255)" fill-opacity="1.0" stroke="rgb(0,0,0)" stroke-width="2"  />
			<g>
				<title>HicB (PF05534)
"HicB family"</title>
				<polygon class="PF05534" points="440,40 441,37 441,43" stroke-linejoin="round" width="4" height="24" fill="rgb(211,104,205)" stroke="rgb(168,83,164)" stroke-width="1" opacity="0.75" />
			</g>
		</g>
		<g>
			<title> (ctg53_195)</title>
			<polygon class=" (ctg53_195)" points="447,40 455,10 455,70" fill="rgb(255,255,255)" fill-opacity="1.0" stroke="rgb(0,0,0)" stroke-width="2"  />
		</g>
		<g>
			<title> (ctg53_196)</title>
			<polygon class=" (ctg53_196)" points="464,40 470,10 470,70" fill="rgb(255,255,255)" fill-opacity="1.0" stroke="rgb(0,0,0)" stroke-width="2"  />
		</g>
		<g>
			<title> (ctg53_197)</title>
			<polygon class=" (ctg53_197)" points="470,40 487,10 487,70" fill="rgb(255,255,255)" fill-opacity="1.0" stroke="rgb(0,0,0)" stroke-width="2"  />
		</g>
		<g>
			<title> (ctg53_198)</title>
			<polygon class=" (ctg53_198)" points="501,40 514,10 514,70" fill="rgb(255,255,255)" fill-opacity="1.0" stroke="rgb(0,0,0)" stroke-width="2"  />
		</g>
		<g>
			<title> (ctg53_199)</title>
			<polygon class=" (ctg53_199)" points="515,40 530,10 530,70" fill="rgb(255,255,255)" fill-opacity="1.0" stroke="rgb(0,0,0)" stroke-width="2"  />
			<g>
				<title>P63C (PF10546)
"P63C domain"</title>
				<polygon class="PF10546" points="519,38 524,28 528,28 528,52 524,52 519,42" stroke-linejoin="round" width="9" height="24" fill="rgb(61,188,74)" stroke="rgb(48,150,59)" stroke-width="1" opacity="0.75" />
			</g>
		</g>
		<g>
			<title> (ctg53_200)</title>
			<polygon class=" (ctg53_200)" points="539,40 561,10 561,70" fill="rgb(255,255,255)" fill-opacity="1.0" stroke="rgb(0,0,0)" stroke-width="2"  />
			<g>
				<title>DDE_Tnp_IS1595 (PF12762)
"ISXO2-like transposase domain"</title>
				<polygon class="PF12762" points="543,40 552,28 554,28 554,52 552,52" stroke-linejoin="round" width="13" height="24" fill="rgb(211,88,85)" stroke="rgb(168,70,68)" stroke-width="1" opacity="0.75" />
			</g>
		</g>
		<g>
			<title> (ctg53_201)</title>
			<polygon class=" (ctg53_201)" points="563,10 567,40 563,70" fill="rgb(255,255,255)" fill-opacity="1.0" stroke="rgb(0,0,0)" stroke-width="2"  />
		</g>
		<g>
			<title> (ctg53_202)</title>
			<polygon class=" (ctg53_202)" points="568,10 592,40 568,70" fill="rgb(255,255,255)" fill-opacity="1.0" stroke="rgb(0,0,0)" stroke-width="2"  />
		</g>
		<g>
			<title> (ctg53_203)</title>
			<polygon class=" (ctg53_203)" points="595,40 599,10 599,70" fill="rgb(255,255,255)" fill-opacity="1.0" stroke="rgb(0,0,0)" stroke-width="2"  />
			<g>
				<title>rve_3 (PF13683)
"Integrase core domain"</title>
				<polygon class="PF13683" points="598,40 598,40 598,40" stroke-linejoin="round" width="2" height="24" fill="rgb(75,178,160)" stroke="rgb(60,142,128)" stroke-width="1" opacity="0.75" />
			</g>
		</g>
	</g>
</svg>
