<svg version="1.1" baseProfile="full" xmlns="http://www.w3.org/2000/svg" width="722.2666666666667" height="80">
	<g>
		<line x1="10" y1="40.0" x2="712.2666666666667" y2="40.0" style="stroke:rgb(70,70,70); stroke-width:3 "/>
		<g>
			<title> (ctg702_18)</title>
			<polygon class=" (ctg702_18)" points="77,10 105,40 77,70" fill="rgb(255,255,255)" fill-opacity="1.0" stroke="rgb(0,0,0)" stroke-width="2"  />
		</g>
		<g>
			<title> (ctg702_19)</title>
			<polygon class=" (ctg702_19)" points="106,25 128,25 128,10 158,40 128,70 128,55 106,55" fill="rgb(255,255,255)" fill-opacity="1.0" stroke="rgb(0,0,0)" stroke-width="2"  />
			<g>
				<title>Hydant_A_N (PF05378)
"Hydantoinase/oxoprolinase N-terminal region"</title>
				<rect class="PF05378" x="106" y="28" stroke-linejoin="round" width="14" height="24" fill="rgb(116,89,225)" stroke="rgb(92,71,180)" stroke-width="1" opacity="0.75" />
			</g>
			<g>
				<title>Hydantoinase_A (PF01968)
"Hydantoinase/oxoprolinase"</title>
				<polygon class="PF01968" points="125,28 142,28 153,39 153,41 142,52 125,52" stroke-linejoin="round" width="28" height="24" fill="rgb(126,186,91)" stroke="rgb(100,148,72)" stroke-width="1" opacity="0.75" />
			</g>
		</g>
		<g>
			<title> (ctg702_20)</title>
			<polygon class=" (ctg702_20)" points="158,25 166,25 166,10 196,40 166,70 166,55 158,55" fill="rgb(255,255,255)" fill-opacity="1.0" stroke="rgb(0,0,0)" stroke-width="2"  />
		</g>
		<g>
			<title> (ctg702_21)</title>
			<polygon class=" (ctg702_21)" points="197,10 210,40 197,70" fill="rgb(255,255,255)" fill-opacity="1.0" stroke="rgb(0,0,0)" stroke-width="2"  />
			<g>
				<title>DUF35_N (PF12172)
"Rubredoxin-like zinc ribbon domain (DUF35_N)"</title>
				<rect class="PF12172" x="198" y="28" stroke-linejoin="round" width="3" height="24" fill="rgb(189,90,191)" stroke="rgb(151,72,152)" stroke-width="1" opacity="0.75" />
			</g>
			<g>
				<title>OB_aCoA_assoc (PF01796)
"DUF35 OB-fold domain, acyl-CoA-associated"</title>
				<polygon class="PF01796" points="202,29 207,40 202,51" stroke-linejoin="round" width="6" height="24" fill="rgb(76,159,198)" stroke="rgb(60,127,158)" stroke-width="1" opacity="0.75" />
			</g>
		</g>
		<g>
			<title> (ctg702_22)</title>
			<polygon class=" (ctg702_22)" points="216,25 240,25 240,10 270,40 240,70 240,55 216,55" fill="rgb(255,255,255)" fill-opacity="1.0" stroke="rgb(0,0,0)" stroke-width="2"  />
			<g>
				<title>AMP-binding (PF00501)
"AMP-binding enzyme"</title>
				<polygon class="PF00501" points="217,28 254,28 259,33 259,47 254,52 217,52" stroke-linejoin="round" width="42" height="24" fill="rgb(60,217,223)" stroke="rgb(48,173,178)" stroke-width="1" opacity="0.75" />
			</g>
			<g>
				<title>AMP-binding_C (PF13193)
"AMP-binding enzyme C-terminal domain"</title>
				<polygon class="PF13193" points="260,34 266,40 260,46" stroke-linejoin="round" width="7" height="24" fill="rgb(182,50,118)" stroke="rgb(145,39,94)" stroke-width="1" opacity="0.75" />
			</g>
		</g>
		<g>
			<title> (ctg702_23)</title>
			<polygon class=" (ctg702_23)" points="271,40 277,10 277,70" fill="rgb(255,255,255)" fill-opacity="1.0" stroke="rgb(0,0,0)" stroke-width="2"  />
		</g>
		<g>
			<title> (ctg702_24)</title>
			<polygon class=" (ctg702_24)" points="290,40 294,10 294,70" fill="rgb(255,255,255)" fill-opacity="1.0" stroke="rgb(0,0,0)" stroke-width="2"  />
		</g>
		<g>
			<title> (ctg702_25)</title>
			<polygon class=" (ctg702_25)" points="338,25 332,25 332,10 302,40 332,70 332,55 338,55" fill="rgb(255,255,255)" fill-opacity="1.0" stroke="rgb(0,0,0)" stroke-width="2"  />
			<g>
				<title>ADH_zinc_N (PF00107)
"Zinc-binding dehydrogenase"</title>
				<polygon class="PF00107" points="306,40 318,28 319,28 319,52 318,52 306,40" stroke-linejoin="round" width="13" height="24" fill="rgb(81,108,215)" stroke="rgb(64,86,172)" stroke-width="1" opacity="0.75" />
			</g>
			<g>
				<title>ADH_N (PF08240)
"Alcohol dehydrogenase GroES-like domain"</title>
				<rect class="PF08240" x="323" y="28" stroke-linejoin="round" width="11" height="24" fill="rgb(211,65,138)" stroke="rgb(168,51,110)" stroke-width="1" opacity="0.75" />
			</g>
		</g>
		<g>
			<title> (ctg702_26)</title>
			<polygon class=" (ctg702_26)" points="378,25 373,25 373,10 343,40 373,70 373,55 378,55" fill="rgb(255,255,255)" fill-opacity="1.0" stroke="rgb(0,0,0)" stroke-width="2"  />
			<g>
				<title>polyprenyl_synt (PF00348)
"Polyprenyl synthetase"</title>
				<polygon class="PF00348" points="347,40 359,28 373,28 373,52 359,52 347,40" stroke-linejoin="round" width="26" height="24" fill="rgb(61,206,65)" stroke="rgb(48,164,52)" stroke-width="1" opacity="0.75" />
			</g>
		</g>
		<g>
			<title> (ctg702_27)</title>
			<polygon class=" (ctg702_27)" points="378,40 387,10 387,70" fill="rgb(255,255,255)" fill-opacity="1.0" stroke="rgb(0,0,0)" stroke-width="2"  />
			<g>
				<title>Exonuc_VII_S (PF02609)
"Exonuclease VII small subunit"</title>
				<polygon class="PF02609" points="381,40 384,31 384,49" stroke-linejoin="round" width="5" height="24" fill="rgb(127,67,194)" stroke="rgb(101,53,155)" stroke-width="1" opacity="0.75" />
			</g>
		</g>
		<g>
			<title> (ctg702_28)</title>
			<polygon class=" (ctg702_28)" points="437,25 419,25 419,10 389,40 419,70 419,55 437,55" fill="rgb(255,255,255)" fill-opacity="1.0" stroke="rgb(0,0,0)" stroke-width="2"  />
			<g>
				<title>Exonuc_VII_L (PF02601)
"Exonuclease VII, large subunit"</title>
				<polygon class="PF02601" points="393,40 405,28 422,28 422,52 405,52" stroke-linejoin="round" width="31" height="24" fill="rgb(182,69,65)" stroke="rgb(145,55,52)" stroke-width="1" opacity="0.75" />
			</g>
			<g>
				<title>tRNA_anti_2 (PF13742)
"OB-fold nucleic acid binding domain"</title>
				<rect class="PF13742" x="425" y="28" stroke-linejoin="round" width="11" height="24" fill="rgb(221,86,78)" stroke="rgb(176,68,62)" stroke-width="1" opacity="0.75" />
			</g>
		</g>
		<g>
			<title> (ctg702_29)</title>
			<polygon class=" (ctg702_29)" points="511,25 473,25 473,10 443,40 473,70 473,55 511,55" fill="rgb(255,255,255)" fill-opacity="1.0" stroke="rgb(0,0,0)" stroke-width="2"  />
			<g>
				<title>ABC_tran (PF00005)
"ABC transporter"</title>
				<polygon class="PF00005" points="451,36 459,28 465,28 465,52 459,52 451,44" stroke-linejoin="round" width="14" height="24" fill="rgb(129,201,63)" stroke="rgb(103,160,50)" stroke-width="1" opacity="0.75" />
			</g>
			<g>
				<title>ABC_membrane (PF00664)
"ABC transporter transmembrane region"</title>
				<rect class="PF00664" x="477" y="28" stroke-linejoin="round" width="27" height="24" fill="rgb(149,226,73)" stroke="rgb(119,180,58)" stroke-width="1" opacity="0.75" />
			</g>
		</g>
		<g>
			<title> (ctg702_30)</title>
			<polygon class=" (ctg702_30)" points="516,25 551,25 551,10 581,40 551,70 551,55 516,55" fill="rgb(255,255,255)" fill-opacity="1.0" stroke="rgb(0,0,0)" stroke-width="2"  />
			<g>
				<title>NAPRTase_N (PF17767)
"Nicotinate phosphoribosyltransferase (NAPRTase) N-terminal domain"</title>
				<rect class="PF17767" x="516" y="28" stroke-linejoin="round" width="12" height="24" fill="rgb(186,205,69)" stroke="rgb(148,164,55)" stroke-width="1" opacity="0.75" />
			</g>
			<g>
				<title>Isochorismatase (PF00857)
"Isochorismatase family"</title>
				<polygon class="PF00857" points="562,28 565,28 577,40 565,52 562,52" stroke-linejoin="round" width="18" height="24" fill="rgb(144,224,70)" stroke="rgb(115,179,56)" stroke-width="1" opacity="0.75" />
			</g>
		</g>
		<g>
			<title> (ctg702_31)</title>
			<polygon class=" (ctg702_31)" points="624,25 615,25 615,10 585,40 615,70 615,55 624,55" fill="rgb(255,255,255)" fill-opacity="1.0" stroke="rgb(0,0,0)" stroke-width="2"  />
			<g>
				<title>MR_MLE_C (PF13378)
"Enolase C-terminal domain-like"</title>
				<polygon class="PF13378" points="589,40 601,28 607,28 607,52 601,52" stroke-linejoin="round" width="22" height="24" fill="rgb(191,184,94)" stroke="rgb(152,147,75)" stroke-width="1" opacity="0.75" />
			</g>
			<g>
				<title>MR_MLE_N (PF02746)
"Mandelate racemase / muconate lactonizing enzyme, N-terminal domain"</title>
				<rect class="PF02746" x="609" y="28" stroke-linejoin="round" width="9" height="24" fill="rgb(63,73,226)" stroke="rgb(50,58,180)" stroke-width="1" opacity="0.75" />
			</g>
		</g>
		<g>
			<title> (ctg702_32)</title>
			<polygon class=" (ctg702_32)" points="625,10 635,40 625,70" fill="rgb(255,255,255)" fill-opacity="1.0" stroke="rgb(0,0,0)" stroke-width="2"  />
		</g>
		<g>
			<title> (ctg702_33)</title>
			<polygon class=" (ctg702_33)" points="636,40 658,10 658,70" fill="rgb(255,255,255)" fill-opacity="1.0" stroke="rgb(0,0,0)" stroke-width="2"  />
			<g>
				<title>1-cysPrx_C (PF10417)
"C-terminal domain of 1-Cys peroxiredoxin"</title>
				<polygon class="PF10417" points="640,40 640,40 640,40" stroke-linejoin="round" width="3" height="24" fill="rgb(80,189,172)" stroke="rgb(64,151,137)" stroke-width="1" opacity="0.75" />
			</g>
			<g>
				<title>AhpC-TSA (PF00578)
"AhpC/TSA family"</title>
				<polygon class="PF00578" points="643,36 649,28 657,28 657,52 649,52 643,44" stroke-linejoin="round" width="14" height="24" fill="rgb(166,71,190)" stroke="rgb(132,56,152)" stroke-width="1" opacity="0.75" />
			</g>
		</g>
	</g>
</svg>
