<svg version="1.1" baseProfile="full" xmlns="http://www.w3.org/2000/svg" width="216.83333333333334" height="80">
	<g>
		<line x1="10" y1="40.0" x2="206.83333333333334" y2="40.0" style="stroke:rgb(70,70,70); stroke-width:3 "/>
		<g>
			<title> (ctg14132_1)</title>
			<polygon class=" (ctg14132_1)" points="51,25 40,25 40,10 10,40 40,70 40,55 51,55" fill="rgb(255,255,255)" fill-opacity="1.0" stroke="rgb(0,0,0)" stroke-width="2"  />
			<g>
				<title>Amino_oxidase (PF01593)
"Flavin containing amine oxidoreductase"</title>
				<polygon class="PF01593" points="14,40 26,28 50,28 50,52 26,52" stroke-linejoin="round" width="40" height="24" fill="rgb(184,74,52)" stroke="rgb(147,59,41)" stroke-width="1" opacity="0.75" />
			</g>
		</g>
		<g>
			<title> (ctg14132_2)</title>
			<polygon class=" (ctg14132_2)" points="113,25 82,25 82,10 52,40 82,70 82,55 113,55" fill="rgb(255,255,255)" fill-opacity="1.0" stroke="rgb(0,0,0)" stroke-width="2"  />
			<g>
				<title>SQS_PSY (PF00494)
"Squalene/phytoene synthase"</title>
				<polygon class="PF00494" points="56,40 68,28 79,28 79,52 68,52" stroke-linejoin="round" width="25" height="24" fill="rgb(178,91,49)" stroke="rgb(142,72,39)" stroke-width="1" opacity="0.75" />
			</g>
			<g>
				<title>SQS_PSY (PF00494)
"Squalene/phytoene synthase"</title>
				<rect class="PF00494" x="84" y="28" stroke-linejoin="round" width="25" height="24" fill="rgb(178,91,49)" stroke="rgb(142,72,39)" stroke-width="1" opacity="0.75" />
			</g>
		</g>
		<g>
			<title> (ctg14132_3)</title>
			<polygon class=" (ctg14132_3)" points="170,25 143,25 143,10 113,40 143,70 143,55 170,55" fill="rgb(255,255,255)" fill-opacity="1.0" stroke="rgb(0,0,0)" stroke-width="2"  />
			<g>
				<title>G_glu_transpept (PF01019)
"Gamma-glutamyltranspeptidase"</title>
				<polygon class="PF01019" points="117,40 129,28 163,28 163,52 129,52" stroke-linejoin="round" width="50" height="24" fill="rgb(117,205,100)" stroke="rgb(93,164,80)" stroke-width="1" opacity="0.75" />
			</g>
		</g>
		<g>
			<title> (ctg14132_4)</title>
			<polygon class=" (ctg14132_4)" points="183,40 198,10 198,70" fill="rgb(255,255,255)" fill-opacity="1.0" stroke="rgb(0,0,0)" stroke-width="2"  />
		</g>
		<g>
			<title> (ctg14132_5)</title>
			<polygon class=" (ctg14132_5)" points="198,40 206,10 206,70" fill="rgb(255,255,255)" fill-opacity="1.0" stroke="rgb(0,0,0)" stroke-width="2"  />
		</g>
	</g>
</svg>
