<svg version="1.1" baseProfile="full" xmlns="http://www.w3.org/2000/svg" width="191.36666666666667" height="80">
	<g>
		<line x1="10" y1="40.0" x2="181.36666666666667" y2="40.0" style="stroke:rgb(70,70,70); stroke-width:3 "/>
		<g>
			<title> (ctg17063_1)</title>
			<polygon class=" (ctg17063_1)" points="10,10 14,40 10,70" fill="rgb(255,255,255)" fill-opacity="1.0" stroke="rgb(0,0,0)" stroke-width="2"  />
		</g>
		<g>
			<title> (ctg17063_2)</title>
			<polygon class=" (ctg17063_2)" points="14,25 33,25 33,10 63,40 33,70 33,55 14,55" fill="rgb(255,255,255)" fill-opacity="1.0" stroke="rgb(0,0,0)" stroke-width="2"  />
			<g>
				<title>Amino_oxidase (PF01593)
"Flavin containing amine oxidoreductase"</title>
				<polygon class="PF01593" points="15,28 47,28 59,40 47,52 15,52" stroke-linejoin="round" width="47" height="24" fill="rgb(184,74,52)" stroke="rgb(147,59,41)" stroke-width="1" opacity="0.75" />
			</g>
		</g>
		<g>
			<title> (ctg17063_3)</title>
			<polygon class=" (ctg17063_3)" points="64,10 92,40 64,70" fill="rgb(255,255,255)" fill-opacity="1.0" stroke="rgb(0,0,0)" stroke-width="2"  />
			<g>
				<title>SQS_PSY (PF00494)
"Squalene/phytoene synthase"</title>
				<polygon class="PF00494" points="65,28 76,28 87,40 76,52 65,52" stroke-linejoin="round" width="25" height="24" fill="rgb(178,91,49)" stroke="rgb(142,72,39)" stroke-width="1" opacity="0.75" />
			</g>
		</g>
		<g>
			<title> (ctg17063_4)</title>
			<polygon class=" (ctg17063_4)" points="105,10 115,40 105,70" fill="rgb(255,255,255)" fill-opacity="1.0" stroke="rgb(0,0,0)" stroke-width="2"  />
		</g>
		<g>
			<title> (ctg17063_5)</title>
			<polygon class=" (ctg17063_5)" points="130,40 146,10 146,70" fill="rgb(255,255,255)" fill-opacity="1.0" stroke="rgb(0,0,0)" stroke-width="2"  />
			<g>
				<title>SmpB (PF01668)
"SmpB protein"</title>
				<polygon class="PF01668" points="133,40 139,28 144,28 144,52 139,52" stroke-linejoin="round" width="14" height="24" fill="rgb(188,55,143)" stroke="rgb(150,43,114)" stroke-width="1" opacity="0.75" />
			</g>
		</g>
		<g>
			<title> (ctg17063_6)</title>
			<polygon class=" (ctg17063_6)" points="180,25 175,25 175,10 145,40 175,70 175,55 180,55" fill="rgb(255,255,255)" fill-opacity="1.0" stroke="rgb(0,0,0)" stroke-width="2"  />
			<g>
				<title>FGE-sulfatase (PF03781)
"Sulfatase-modifying factor enzyme 1"</title>
				<polygon class="PF03781" points="149,40 161,28 171,28 171,52 161,52" stroke-linejoin="round" width="26" height="24" fill="rgb(206,81,170)" stroke="rgb(164,64,136)" stroke-width="1" opacity="0.75" />
			</g>
		</g>
	</g>
</svg>
