<svg version="1.1" baseProfile="full" xmlns="http://www.w3.org/2000/svg" width="1331.6666666666667" height="80">
	<g>
		<line x1="10" y1="40.0" x2="1321.6666666666667" y2="40.0" style="stroke:rgb(70,70,70); stroke-width:3 "/>
		<g>
			<title> (ctg904_9)</title>
			<polygon class=" (ctg904_9)" points="63,40 67,10 67,70" fill="rgb(255,255,255)" fill-opacity="1.0" stroke="rgb(0,0,0)" stroke-width="2"  />
		</g>
		<g>
			<title> (ctg904_10)</title>
			<polygon class=" (ctg904_10)" points="74,25 76,25 76,10 106,40 76,70 76,55 74,55" fill="rgb(255,255,255)" fill-opacity="1.0" stroke="rgb(0,0,0)" stroke-width="2"  />
			<g>
				<title>AP_endonuc_2 (PF01261)
"Xylose isomerase-like TIM barrel"</title>
				<polygon class="PF01261" points="81,28 90,28 102,40 102,40 90,52 81,52" stroke-linejoin="round" width="21" height="24" fill="rgb(69,222,207)" stroke="rgb(55,177,165)" stroke-width="1" opacity="0.75" />
			</g>
		</g>
		<g>
			<title> (ctg904_11)</title>
			<polygon class=" (ctg904_11)" points="113,25 113,25 113,10 143,40 113,70 113,55 113,55" fill="rgb(255,255,255)" fill-opacity="1.0" stroke="rgb(0,0,0)" stroke-width="2"  />
			<g>
				<title>GFO_IDH_MocA (PF01408)
"Oxidoreductase family, NAD-binding Rossmann fold"</title>
				<rect class="PF01408" x="113" y="28" stroke-linejoin="round" width="10" height="24" fill="rgb(76,117,190)" stroke="rgb(60,93,152)" stroke-width="1" opacity="0.75" />
			</g>
		</g>
		<g>
			<title> (ctg904_12)</title>
			<polygon class=" (ctg904_12)" points="144,25 148,25 148,10 178,40 148,70 148,55 144,55" fill="rgb(255,255,255)" fill-opacity="1.0" stroke="rgb(0,0,0)" stroke-width="2"  />
			<g>
				<title>AP_endonuc_2 (PF01261)
"Xylose isomerase-like TIM barrel"</title>
				<polygon class="PF01261" points="154,28 162,28 173,39 173,41 162,52 154,52" stroke-linejoin="round" width="19" height="24" fill="rgb(69,222,207)" stroke="rgb(55,177,165)" stroke-width="1" opacity="0.75" />
			</g>
		</g>
		<g>
			<title> (ctg904_13)</title>
			<polygon class=" (ctg904_13)" points="183,25 199,25 199,10 229,40 199,70 199,55 183,55" fill="rgb(255,255,255)" fill-opacity="1.0" stroke="rgb(0,0,0)" stroke-width="2"  />
			<g>
				<title>DNA_photolyase (PF00875)
"DNA photolyase"</title>
				<rect class="PF00875" x="184" y="28" stroke-linejoin="round" width="16" height="24" fill="rgb(87,58,223)" stroke="rgb(69,46,178)" stroke-width="1" opacity="0.75" />
			</g>
			<g>
				<title>FAD_binding_7 (PF03441)
"FAD binding domain of DNA photolyase"</title>
				<polygon class="PF03441" points="211,28 213,28 225,40 213,52 211,52" stroke-linejoin="round" width="15" height="24" fill="rgb(206,143,93)" stroke="rgb(164,114,74)" stroke-width="1" opacity="0.75" />
			</g>
		</g>
		<g>
			<title> (ctg904_14)</title>
			<polygon class=" (ctg904_14)" points="239,25 270,25 270,10 300,40 270,70 270,55 239,55" fill="rgb(255,255,255)" fill-opacity="1.0" stroke="rgb(0,0,0)" stroke-width="2"  />
			<g>
				<title>GSDH (PF07995)
"Glucose / Sorbosone dehydrogenase"</title>
				<rect class="PF07995" x="240" y="28" stroke-linejoin="round" width="33" height="24" fill="rgb(199,57,124)" stroke="rgb(159,45,99)" stroke-width="1" opacity="0.75" />
			</g>
		</g>
		<g>
			<title> (ctg904_15)</title>
			<polygon class=" (ctg904_15)" points="305,10 315,40 305,70" fill="rgb(255,255,255)" fill-opacity="1.0" stroke="rgb(0,0,0)" stroke-width="2"  />
		</g>
		<g>
			<title> (ctg904_16)</title>
			<polygon class=" (ctg904_16)" points="329,10 332,40 329,70" fill="rgb(255,255,255)" fill-opacity="1.0" stroke="rgb(0,0,0)" stroke-width="2"  />
		</g>
		<g>
			<title> (ctg904_17)</title>
			<polygon class=" (ctg904_17)" points="398,25 378,25 378,10 348,40 378,70 378,55 398,55" fill="rgb(255,255,255)" fill-opacity="1.0" stroke="rgb(0,0,0)" stroke-width="2"  />
			<g>
				<title>Ceramidase_alk (PF04734)
"Neutral/alkaline non-lysosomal ceramidase, N-terminal"</title>
				<rect class="PF04734" x="369" y="28" stroke-linejoin="round" width="25" height="24" fill="rgb(178,159,60)" stroke="rgb(142,127,48)" stroke-width="1" opacity="0.75" />
			</g>
		</g>
		<g>
			<title> (ctg904_18)</title>
			<polygon class=" (ctg904_18)" points="437,25 431,25 431,10 401,40 431,70 431,55 437,55" fill="rgb(255,255,255)" fill-opacity="1.0" stroke="rgb(0,0,0)" stroke-width="2"  />
			<g>
				<title>UxuA (PF03786)
"D-mannonate dehydratase (UxuA)"</title>
				<polygon class="PF03786" points="405,40 417,28 420,28 420,52 417,52" stroke-linejoin="round" width="19" height="24" fill="rgb(193,50,168)" stroke="rgb(154,39,134)" stroke-width="1" opacity="0.75" />
			</g>
		</g>
		<g>
			<title> (ctg904_19)</title>
			<polygon class=" (ctg904_19)" points="476,25 468,25 468,10 438,40 468,70 468,55 476,55" fill="rgb(255,255,255)" fill-opacity="1.0" stroke="rgb(0,0,0)" stroke-width="2"  />
			<g>
				<title>UxuA (PF03786)
"D-mannonate dehydratase (UxuA)"</title>
				<polygon class="PF03786" points="442,40 454,28 456,28 456,52 454,52" stroke-linejoin="round" width="18" height="24" fill="rgb(193,50,168)" stroke="rgb(154,39,134)" stroke-width="1" opacity="0.75" />
			</g>
		</g>
		<g>
			<title> (ctg904_20)</title>
			<polygon class=" (ctg904_20)" points="530,25 509,25 509,10 479,40 509,70 509,55 530,55" fill="rgb(255,255,255)" fill-opacity="1.0" stroke="rgb(0,0,0)" stroke-width="2"  />
		</g>
		<g>
			<title> (ctg904_21)</title>
			<polygon class=" (ctg904_21)" points="628,25 570,25 570,10 540,40 570,70 570,55 628,55" fill="rgb(255,255,255)" fill-opacity="1.0" stroke="rgb(0,0,0)" stroke-width="2"  />
			<g>
				<title>PEP-utilizers_C (PF02896)
"PEP-utilising enzyme, TIM barrel domain"</title>
				<polygon class="PF02896" points="544,40 556,28 576,28 576,52 556,52" stroke-linejoin="round" width="36" height="24" fill="rgb(65,113,188)" stroke="rgb(52,90,150)" stroke-width="1" opacity="0.75" />
			</g>
			<g>
				<title>PEP-utilizers (PF00391)
"PEP-utilising enzyme, mobile domain"</title>
				<rect class="PF00391" x="578" y="28" stroke-linejoin="round" width="8" height="24" fill="rgb(206,59,219)" stroke="rgb(164,47,175)" stroke-width="1" opacity="0.75" />
			</g>
			<g>
				<title>PPDK_N (PF01326)
"Pyruvate phosphate dikinase, PEP/pyruvate binding domain"</title>
				<rect class="PF01326" x="592" y="28" stroke-linejoin="round" width="6" height="24" fill="rgb(112,180,78)" stroke="rgb(89,144,62)" stroke-width="1" opacity="0.75" />
			</g>
			<g>
				<title>PPDK_N (PF01326)
"Pyruvate phosphate dikinase, PEP/pyruvate binding domain"</title>
				<rect class="PF01326" x="598" y="28" stroke-linejoin="round" width="27" height="24" fill="rgb(112,180,78)" stroke="rgb(89,144,62)" stroke-width="1" opacity="0.75" />
			</g>
		</g>
		<g>
			<title> (ctg904_22)</title>
			<polygon class=" (ctg904_22)" points="637,10 657,40 637,70" fill="rgb(255,255,255)" fill-opacity="1.0" stroke="rgb(0,0,0)" stroke-width="2"  />
		</g>
		<g>
			<title> (ctg904_23)</title>
			<polygon class=" (ctg904_23)" points="657,40 676,10 676,70" fill="rgb(255,255,255)" fill-opacity="1.0" stroke="rgb(0,0,0)" stroke-width="2"  />
			<g>
				<title>ICMT (PF04140)
"Isoprenylcysteine carboxyl methyltransferase (ICMT) family"</title>
				<polygon class="PF04140" points="661,40 668,29 668,51" stroke-linejoin="round" width="9" height="24" fill="rgb(100,223,104)" stroke="rgb(80,178,83)" stroke-width="1" opacity="0.75" />
			</g>
		</g>
		<g>
			<title> (ctg904_24)</title>
			<polygon class=" (ctg904_24)" points="711,25 706,25 706,10 676,40 706,70 706,55 711,55" fill="rgb(255,255,255)" fill-opacity="1.0" stroke="rgb(0,0,0)" stroke-width="2"  />
			<g>
				<title>Chal_sti_synt_C (PF02797)
"Chalcone and stilbene synthases, C-terminal domain"</title>
				<polygon class="PF02797" points="680,40 689,31 689,49" stroke-linejoin="round" width="13" height="24" fill="rgb(139,212,63)" stroke="rgb(111,169,50)" stroke-width="1" opacity="0.75" />
			</g>
			<g>
				<title>Chal_sti_synt_N (PF00195)
"Chalcone and stilbene synthases, N-terminal domain"</title>
				<polygon class="PF00195" points="690,30 692,28 704,28 704,52 692,52 690,50" stroke-linejoin="round" width="14" height="24" fill="rgb(60,181,161)" stroke="rgb(47,144,128)" stroke-width="1" opacity="0.75" />
			</g>
		</g>
		<g>
			<title> (ctg904_25)</title>
			<polygon class=" (ctg904_25)" points="711,40 714,10 714,70" fill="rgb(255,255,255)" fill-opacity="1.0" stroke="rgb(0,0,0)" stroke-width="2"  />
		</g>
		<g>
			<title> (ctg904_26)</title>
			<polygon class=" (ctg904_26)" points="715,40 735,10 735,70" fill="rgb(255,255,255)" fill-opacity="1.0" stroke="rgb(0,0,0)" stroke-width="2"  />
		</g>
		<g>
			<title> (ctg904_27)</title>
			<polygon class=" (ctg904_27)" points="736,25 748,25 748,10 778,40 748,70 748,55 736,55" fill="rgb(255,255,255)" fill-opacity="1.0" stroke="rgb(0,0,0)" stroke-width="2"  />
			<g>
				<title>DUF3179 (PF11376)
"Protein of unknown function (DUF3179)"</title>
				<polygon class="PF11376" points="747,28 761,28 773,40 761,52 747,52" stroke-linejoin="round" width="29" height="24" fill="rgb(221,178,92)" stroke="rgb(176,142,73)" stroke-width="1" opacity="0.75" />
			</g>
		</g>
		<g>
			<title> (ctg904_28)</title>
			<polygon class=" (ctg904_28)" points="780,10 785,40 780,70" fill="rgb(255,255,255)" fill-opacity="1.0" stroke="rgb(0,0,0)" stroke-width="2"  />
		</g>
		<g>
			<title> (ctg904_29)</title>
			<polygon class=" (ctg904_29)" points="886,25 815,25 815,10 785,40 815,70 815,55 886,55" fill="rgb(255,255,255)" fill-opacity="1.0" stroke="rgb(0,0,0)" stroke-width="2"  />
			<g>
				<title>Cytochrom_C (PF00034)
"Cytochrome c"</title>
				<polygon class="PF00034" points="789,40 798,31 798,49" stroke-linejoin="round" width="13" height="24" fill="rgb(130,184,61)" stroke="rgb(104,147,48)" stroke-width="1" opacity="0.75" />
			</g>
		</g>
		<g>
			<title> (ctg904_30)</title>
			<polygon class=" (ctg904_30)" points="905,25 906,25 906,10 936,40 906,70 906,55 905,55" fill="rgb(255,255,255)" fill-opacity="1.0" stroke="rgb(0,0,0)" stroke-width="2"  />
			<g>
				<title>AP_endonuc_2 (PF01261)
"Xylose isomerase-like TIM barrel"</title>
				<polygon class="PF01261" points="906,28 919,28 930,39 930,41 919,52 906,52" stroke-linejoin="round" width="24" height="24" fill="rgb(69,222,207)" stroke="rgb(55,177,165)" stroke-width="1" opacity="0.75" />
			</g>
		</g>
		<g>
			<title> (ctg904_31)</title>
			<polygon class=" (ctg904_31)" points="1038,25 971,25 971,10 941,40 971,70 971,55 1038,55" fill="rgb(255,255,255)" fill-opacity="1.0" stroke="rgb(0,0,0)" stroke-width="2"  />
		</g>
		<g>
			<title> (ctg904_32)</title>
			<polygon class=" (ctg904_32)" points="1119,25 1080,25 1080,10 1050,40 1080,70 1080,55 1119,55" fill="rgb(255,255,255)" fill-opacity="1.0" stroke="rgb(0,0,0)" stroke-width="2"  />
			<g>
				<title>DALR_1 (PF05746)
"DALR anticodon binding domain"</title>
				<polygon class="PF05746" points="1054,40 1062,32 1062,48" stroke-linejoin="round" width="11" height="24" fill="rgb(90,223,221)" stroke="rgb(72,178,176)" stroke-width="1" opacity="0.75" />
			</g>
			<g>
				<title>tRNA_synt_2f (PF02092)
"Glycyl-tRNA synthetase beta subunit"</title>
				<polygon class="PF02092" points="1065,29 1066,28 1118,28 1118,52 1066,52 1065,51" stroke-linejoin="round" width="53" height="24" fill="rgb(101,213,145)" stroke="rgb(80,170,116)" stroke-width="1" opacity="0.75" />
			</g>
		</g>
		<g>
			<title> (ctg904_33)</title>
			<polygon class=" (ctg904_33)" points="1149,25 1149,25 1149,10 1119,40 1149,70 1149,55 1149,55" fill="rgb(255,255,255)" fill-opacity="1.0" stroke="rgb(0,0,0)" stroke-width="2"  />
			<g>
				<title>tRNA-synt_2e (PF02091)
"Glycyl-tRNA synthetase alpha subunit"</title>
				<polygon class="PF02091" points="1123,40 1135,28 1147,28 1147,52 1135,52" stroke-linejoin="round" width="28" height="24" fill="rgb(94,226,181)" stroke="rgb(75,180,144)" stroke-width="1" opacity="0.75" />
			</g>
		</g>
		<g>
			<title> (ctg904_34)</title>
			<polygon class=" (ctg904_34)" points="1158,40 1175,10 1175,70" fill="rgb(255,255,255)" fill-opacity="1.0" stroke="rgb(0,0,0)" stroke-width="2"  />
		</g>
		<g>
			<title> (ctg904_35)</title>
			<polygon class=" (ctg904_35)" points="1247,25 1206,25 1206,10 1176,40 1206,70 1206,55 1247,55" fill="rgb(255,255,255)" fill-opacity="1.0" stroke="rgb(0,0,0)" stroke-width="2"  />
			<g>
				<title>NIR_SIR (PF01077)
"Nitrite and sulphite reductase 4Fe-4S domain"</title>
				<polygon class="PF01077" points="1191,29 1192,28 1206,28 1206,52 1192,52 1191,51" stroke-linejoin="round" width="15" height="24" fill="rgb(96,208,89)" stroke="rgb(76,166,71)" stroke-width="1" opacity="0.75" />
			</g>
			<g>
				<title>NIR_SIR_ferr (PF03460)
"Nitrite/Sulfite reductase ferredoxin-like half domain"</title>
				<rect class="PF03460" x="1207" y="28" stroke-linejoin="round" width="6" height="24" fill="rgb(51,200,158)" stroke="rgb(40,160,126)" stroke-width="1" opacity="0.75" />
			</g>
			<g>
				<title>NIR_SIR (PF01077)
"Nitrite and sulphite reductase 4Fe-4S domain"</title>
				<rect class="PF01077" x="1218" y="28" stroke-linejoin="round" width="15" height="24" fill="rgb(96,208,89)" stroke="rgb(76,166,71)" stroke-width="1" opacity="0.75" />
			</g>
			<g>
				<title>NIR_SIR_ferr (PF03460)
"Nitrite/Sulfite reductase ferredoxin-like half domain"</title>
				<rect class="PF03460" x="1234" y="28" stroke-linejoin="round" width="6" height="24" fill="rgb(51,200,158)" stroke="rgb(40,160,126)" stroke-width="1" opacity="0.75" />
			</g>
		</g>
		<g>
			<title> (ctg904_36)</title>
			<polygon class=" (ctg904_36)" points="1259,25 1263,25 1263,10 1293,40 1263,70 1263,55 1259,55" fill="rgb(255,255,255)" fill-opacity="1.0" stroke="rgb(0,0,0)" stroke-width="2"  />
		</g>
		<g>
			<title> (ctg904_37)</title>
			<polygon class=" (ctg904_37)" points="1296,10 1321,40 1296,70" fill="rgb(255,255,255)" fill-opacity="1.0" stroke="rgb(0,0,0)" stroke-width="2"  />
			<g>
				<title>FAD_binding_4 (PF01565)
"FAD binding domain"</title>
				<polygon class="PF01565" points="1296,28 1307,28 1309,31 1309,49 1307,52 1296,52" stroke-linejoin="round" width="13" height="24" fill="rgb(226,88,136)" stroke="rgb(180,70,108)" stroke-width="1" opacity="0.75" />
			</g>
		</g>
	</g>
</svg>
