<svg version="1.1" baseProfile="full" xmlns="http://www.w3.org/2000/svg" width="764.1" height="80">
	<g>
		<line x1="10" y1="40.0" x2="754.1" y2="40.0" style="stroke:rgb(70,70,70); stroke-width:3 "/>
		<g>
			<title> (ctg1127_7)</title>
			<polygon class=" (ctg1127_7)" points="13,25 25,25 25,10 55,40 25,70 25,55 13,55" fill="rgb(255,255,255)" fill-opacity="1.0" stroke="rgb(0,0,0)" stroke-width="2"  />
			<g>
				<title>Aminotran_5 (PF00266)
"Aminotransferase class-V"</title>
				<polygon class="PF00266" points="19,28 38,28 50,40 38,52 19,52" stroke-linejoin="round" width="34" height="24" fill="rgb(214,54,122)" stroke="rgb(171,43,97)" stroke-width="1" opacity="0.75" />
			</g>
		</g>
		<g>
			<title> (ctg1127_8)</title>
			<polygon class=" (ctg1127_8)" points="60,25 101,25 101,10 131,40 101,70 101,55 60,55" fill="rgb(255,255,255)" fill-opacity="1.0" stroke="rgb(0,0,0)" stroke-width="2"  />
		</g>
		<g>
			<title> (ctg1127_9)</title>
			<polygon class=" (ctg1127_9)" points="136,25 160,25 160,10 190,40 160,70 160,55 136,55" fill="rgb(255,255,255)" fill-opacity="1.0" stroke="rgb(0,0,0)" stroke-width="2"  />
			<g>
				<title>Ank_2 (PF12796)
"Ankyrin repeats (3 copies)"</title>
				<rect class="PF12796" x="146" y="28" stroke-linejoin="round" width="9" height="24" fill="rgb(151,90,191)" stroke="rgb(120,72,152)" stroke-width="1" opacity="0.75" />
			</g>
			<g>
				<title>Ank_2 (PF12796)
"Ankyrin repeats (3 copies)"</title>
				<rect class="PF12796" x="156" y="28" stroke-linejoin="round" width="7" height="24" fill="rgb(151,90,191)" stroke="rgb(120,72,152)" stroke-width="1" opacity="0.75" />
			</g>
			<g>
				<title>Ank_2 (PF12796)
"Ankyrin repeats (3 copies)"</title>
				<rect class="PF12796" x="166" y="28" stroke-linejoin="round" width="8" height="24" fill="rgb(151,90,191)" stroke="rgb(120,72,152)" stroke-width="1" opacity="0.75" />
			</g>
		</g>
		<g>
			<title> (ctg1127_10)</title>
			<polygon class=" (ctg1127_10)" points="193,10 214,40 193,70" fill="rgb(255,255,255)" fill-opacity="1.0" stroke="rgb(0,0,0)" stroke-width="2"  />
		</g>
		<g>
			<title> (ctg1127_11)</title>
			<polygon class=" (ctg1127_11)" points="220,10 245,40 220,70" fill="rgb(255,255,255)" fill-opacity="1.0" stroke="rgb(0,0,0)" stroke-width="2"  />
			<g>
				<title>cNMP_binding (PF00027)
"Cyclic nucleotide-binding domain"</title>
				<rect class="PF00027" x="223" y="28" stroke-linejoin="round" width="8" height="24" fill="rgb(138,95,204)" stroke="rgb(110,76,163)" stroke-width="1" opacity="0.75" />
			</g>
			<g>
				<title>HTH_Crp_2 (PF13545)
"Crp-like helix-turn-helix domain"</title>
				<polygon class="PF13545" points="235,33 241,40 235,47" stroke-linejoin="round" width="7" height="24" fill="rgb(87,137,202)" stroke="rgb(69,109,161)" stroke-width="1" opacity="0.75" />
			</g>
		</g>
		<g>
			<title> (ctg1127_12)</title>
			<polygon class=" (ctg1127_12)" points="248,25 273,25 273,10 303,40 273,70 273,55 248,55" fill="rgb(255,255,255)" fill-opacity="1.0" stroke="rgb(0,0,0)" stroke-width="2"  />
			<g>
				<title>HisKA (PF00512)
"His Kinase A (phospho-acceptor) domain"</title>
				<rect class="PF00512" x="278" y="28" stroke-linejoin="round" width="6" height="24" fill="rgb(193,125,62)" stroke="rgb(154,100,49)" stroke-width="1" opacity="0.75" />
			</g>
			<g>
				<title>HATPase_c (PF02518)
"Histidine kinase-, DNA gyrase B-, and HSP90-like ATPase"</title>
				<polygon class="PF02518" points="290,31 299,40 290,49" stroke-linejoin="round" width="11" height="24" fill="rgb(80,94,225)" stroke="rgb(64,75,180)" stroke-width="1" opacity="0.75" />
			</g>
		</g>
		<g>
			<title> (ctg1127_13)</title>
			<polygon class=" (ctg1127_13)" points="304,10 326,40 304,70" fill="rgb(255,255,255)" fill-opacity="1.0" stroke="rgb(0,0,0)" stroke-width="2"  />
			<g>
				<title>Response_reg (PF00072)
"Response regulator receiver domain"</title>
				<polygon class="PF00072" points="304,28 314,28 315,30 315,50 314,52 304,52" stroke-linejoin="round" width="11" height="24" fill="rgb(100,107,203)" stroke="rgb(80,85,162)" stroke-width="1" opacity="0.75" />
			</g>
			<g>
				<title>Trans_reg_C (PF00486)
"Transcriptional regulatory protein, C terminal"</title>
				<polygon class="PF00486" points="318,34 323,40 318,46" stroke-linejoin="round" width="7" height="24" fill="rgb(204,153,57)" stroke="rgb(163,122,45)" stroke-width="1" opacity="0.75" />
			</g>
		</g>
		<g>
			<title> (ctg1127_14)</title>
			<polygon class=" (ctg1127_14)" points="335,10 339,40 335,70" fill="rgb(255,255,255)" fill-opacity="1.0" stroke="rgb(0,0,0)" stroke-width="2"  />
		</g>
		<g>
			<title> (ctg1127_15)</title>
			<polygon class=" (ctg1127_15)" points="343,10 357,40 343,70" fill="rgb(255,255,255)" fill-opacity="1.0" stroke="rgb(0,0,0)" stroke-width="2"  />
			<g>
				<title>Transglut_core3 (PF13471)
"Transglutaminase-like superfamily"</title>
				<polygon class="PF13471" points="345,28 347,28 353,40 347,52 345,52" stroke-linejoin="round" width="11" height="24" fill="rgb(63,111,179)" stroke="rgb(50,88,143)" stroke-width="1" opacity="0.75" />
			</g>
		</g>
		<g>
			<title> (ctg1127_16)</title>
			<polygon class=" (ctg1127_16)" points="360,25 390,25 390,10 420,40 390,70 390,55 360,55" fill="rgb(255,255,255)" fill-opacity="1.0" stroke="rgb(0,0,0)" stroke-width="2"  />
			<g>
				<title>GATase_7 (PF13537)
"Glutamine amidotransferase domain"</title>
				<rect class="PF13537" x="363" y="28" stroke-linejoin="round" width="11" height="24" fill="rgb(200,63,57)" stroke="rgb(160,50,45)" stroke-width="1" opacity="0.75" />
			</g>
			<g>
				<title>Asn_synthase (PF00733)
"Asparagine synthase"</title>
				<polygon class="PF00733" points="382,28 404,28 416,40 404,52 382,52" stroke-linejoin="round" width="37" height="24" fill="rgb(97,201,176)" stroke="rgb(77,160,140)" stroke-width="1" opacity="0.75" />
			</g>
		</g>
		<g>
			<title> (ctg1127_17)</title>
			<polygon class=" (ctg1127_17)" points="421,10 428,40 421,70" fill="rgb(255,255,255)" fill-opacity="1.0" stroke="rgb(0,0,0)" stroke-width="2"  />
			<g>
				<title>PqqD (PF05402)
"Coenzyme PQQ synthesis protein D (PqqD)"</title>
				<polygon class="PF05402" points="421,28 421,28 425,40 421,52 421,52" stroke-linejoin="round" width="6" height="24" fill="rgb(124,62,188)" stroke="rgb(99,49,150)" stroke-width="1" opacity="0.75" />
			</g>
		</g>
		<g>
			<title> (ctg1127_18)</title>
			<polygon class=" (ctg1127_18)" points="471,25 459,25 459,10 429,40 459,70 459,55 471,55" fill="rgb(255,255,255)" fill-opacity="1.0" stroke="rgb(0,0,0)" stroke-width="2"  />
			<g>
				<title>Beta-lactamase (PF00144)
"Beta-lactamase"</title>
				<polygon class="PF00144" points="433,40 445,28 465,28 465,52 445,52" stroke-linejoin="round" width="36" height="24" fill="rgb(92,159,200)" stroke="rgb(73,127,160)" stroke-width="1" opacity="0.75" />
			</g>
		</g>
		<g>
			<title> (ctg1127_19)</title>
			<polygon class=" (ctg1127_19)" points="478,25 488,25 488,10 518,40 488,70 488,55 478,55" fill="rgb(255,255,255)" fill-opacity="1.0" stroke="rgb(0,0,0)" stroke-width="2"  />
		</g>
		<g>
			<title> (ctg1127_20)</title>
			<polygon class=" (ctg1127_20)" points="526,10 541,40 526,70" fill="rgb(255,255,255)" fill-opacity="1.0" stroke="rgb(0,0,0)" stroke-width="2"  />
		</g>
		<g>
			<title> (ctg1127_21)</title>
			<polygon class=" (ctg1127_21)" points="546,40 562,10 562,70" fill="rgb(255,255,255)" fill-opacity="1.0" stroke="rgb(0,0,0)" stroke-width="2"  />
		</g>
		<g>
			<title> (ctg1127_22)</title>
			<polygon class=" (ctg1127_22)" points="564,10 593,40 564,70" fill="rgb(255,255,255)" fill-opacity="1.0" stroke="rgb(0,0,0)" stroke-width="2"  />
			<g>
				<title>Response_reg (PF00072)
"Response regulator receiver domain"</title>
				<polygon class="PF00072" points="571,28 577,28 582,33 582,47 577,52 571,52" stroke-linejoin="round" width="11" height="24" fill="rgb(100,107,203)" stroke="rgb(80,85,162)" stroke-width="1" opacity="0.75" />
			</g>
			<g>
				<title>Trans_reg_C (PF00486)
"Transcriptional regulatory protein, C terminal"</title>
				<polygon class="PF00486" points="585,36 589,40 585,44" stroke-linejoin="round" width="7" height="24" fill="rgb(204,153,57)" stroke="rgb(163,122,45)" stroke-width="1" opacity="0.75" />
			</g>
		</g>
		<g>
			<title> (ctg1127_23)</title>
			<polygon class=" (ctg1127_23)" points="593,25 610,25 610,10 640,40 610,70 610,55 593,55" fill="rgb(255,255,255)" fill-opacity="1.0" stroke="rgb(0,0,0)" stroke-width="2"  />
			<g>
				<title>HAMP (PF00672)
"HAMP domain"</title>
				<rect class="PF00672" x="611" y="28" stroke-linejoin="round" width="5" height="24" fill="rgb(124,89,195)" stroke="rgb(99,71,156)" stroke-width="1" opacity="0.75" />
			</g>
			<g>
				<title>HisKA (PF00512)
"His Kinase A (phospho-acceptor) domain"</title>
				<rect class="PF00512" x="616" y="28" stroke-linejoin="round" width="6" height="24" fill="rgb(193,125,62)" stroke="rgb(154,100,49)" stroke-width="1" opacity="0.75" />
			</g>
			<g>
				<title>HATPase_c (PF02518)
"Histidine kinase-, DNA gyrase B-, and HSP90-like ATPase"</title>
				<polygon class="PF02518" points="627,31 636,40 627,49" stroke-linejoin="round" width="11" height="24" fill="rgb(80,94,225)" stroke="rgb(64,75,180)" stroke-width="1" opacity="0.75" />
			</g>
		</g>
		<g>
			<title> (ctg1127_24)</title>
			<polygon class=" (ctg1127_24)" points="644,25 667,25 667,10 697,40 667,70 667,55 644,55" fill="rgb(255,255,255)" fill-opacity="1.0" stroke="rgb(0,0,0)" stroke-width="2"  />
			<g>
				<title>PepSY_TM (PF03929)
"PepSY-associated TM region"</title>
				<rect class="PF03929" x="644" y="28" stroke-linejoin="round" width="35" height="24" fill="rgb(68,227,157)" stroke="rgb(54,181,125)" stroke-width="1" opacity="0.75" />
			</g>
		</g>
		<g>
			<title> (ctg1127_25)</title>
			<polygon class=" (ctg1127_25)" points="701,40 715,10 715,70" fill="rgb(255,255,255)" fill-opacity="1.0" stroke="rgb(0,0,0)" stroke-width="2"  />
		</g>
	</g>
</svg>
