<svg version="1.1" baseProfile="full" xmlns="http://www.w3.org/2000/svg" width="1451.4333333333334" height="80">
	<g>
		<line x1="10" y1="40.0" x2="1441.4333333333334" y2="40.0" style="stroke:rgb(70,70,70); stroke-width:3 "/>
		<g>
			<title> (ctg2_116)</title>
			<polygon class=" (ctg2_116)" points="20,40 29,10 29,70" fill="rgb(255,255,255)" fill-opacity="1.0" stroke="rgb(0,0,0)" stroke-width="2"  />
			<g>
				<title>S4 (PF01479)
"S4 domain"</title>
				<polygon class="PF01479" points="24,37 27,28 28,28 28,52 27,52 24,43" stroke-linejoin="round" width="4" height="24" fill="rgb(93,184,76)" stroke="rgb(74,147,60)" stroke-width="1" opacity="0.75" />
			</g>
		</g>
		<g>
			<title> (ctg2_117)</title>
			<polygon class=" (ctg2_117)" points="66,25 60,25 60,10 30,40 60,70 60,55 66,55" fill="rgb(255,255,255)" fill-opacity="1.0" stroke="rgb(0,0,0)" stroke-width="2"  />
			<g>
				<title>Rotamase_3 (PF13616)
"PPIC-type PPIASE domain"</title>
				<polygon class="PF13616" points="38,36 46,28 49,28 49,52 46,52 38,44" stroke-linejoin="round" width="11" height="24" fill="rgb(212,56,169)" stroke="rgb(169,44,135)" stroke-width="1" opacity="0.75" />
			</g>
			<g>
				<title>SurA_N_3 (PF13624)
"SurA N-terminal domain"</title>
				<rect class="PF13624" x="51" y="28" stroke-linejoin="round" width="14" height="24" fill="rgb(84,156,193)" stroke="rgb(67,124,154)" stroke-width="1" opacity="0.75" />
			</g>
		</g>
		<g>
			<title> (ctg2_118)</title>
			<polygon class=" (ctg2_118)" points="183,25 101,25 101,10 71,40 101,70 101,55 183,55" fill="rgb(255,255,255)" fill-opacity="1.0" stroke="rgb(0,0,0)" stroke-width="2"  />
			<g>
				<title>TRCF (PF03461)
"TRCF domain"</title>
				<polygon class="PF03461" points="75,40 84,31 84,49 75,40" stroke-linejoin="round" width="9" height="24" fill="rgb(60,201,111)" stroke="rgb(48,160,88)" stroke-width="1" opacity="0.75" />
			</g>
			<g>
				<title>Helicase_C (PF00271)
"Helicase conserved C-terminal domain"</title>
				<rect class="PF00271" x="94" y="28" stroke-linejoin="round" width="11" height="24" fill="rgb(104,224,158)" stroke="rgb(83,179,126)" stroke-width="1" opacity="0.75" />
			</g>
			<g>
				<title>DEAD (PF00270)
"DEAD/DEAH box helicase"</title>
				<rect class="PF00270" x="108" y="28" stroke-linejoin="round" width="16" height="24" fill="rgb(195,100,62)" stroke="rgb(156,80,49)" stroke-width="1" opacity="0.75" />
			</g>
			<g>
				<title>CarD_CdnL_TRCF (PF02559)
"CarD-like/TRCF domain"</title>
				<rect class="PF02559" x="127" y="28" stroke-linejoin="round" width="9" height="24" fill="rgb(216,93,82)" stroke="rgb(172,74,65)" stroke-width="1" opacity="0.75" />
			</g>
			<g>
				<title>UvrB_inter (PF17757)
"UvrB interaction domain"</title>
				<rect class="PF17757" x="166" y="28" stroke-linejoin="round" width="8" height="24" fill="rgb(228,207,102)" stroke="rgb(182,165,81)" stroke-width="1" opacity="0.75" />
			</g>
		</g>
		<g>
			<title> (ctg2_119)</title>
			<polygon class=" (ctg2_119)" points="192,40 208,10 208,70" fill="rgb(255,255,255)" fill-opacity="1.0" stroke="rgb(0,0,0)" stroke-width="2"  />
			<g>
				<title>CTP_transf_like (PF01467)
"Cytidylyltransferase-like"</title>
				<polygon class="PF01467" points="195,40 202,28 205,28 205,52 202,52" stroke-linejoin="round" width="12" height="24" fill="rgb(110,215,57)" stroke="rgb(88,172,45)" stroke-width="1" opacity="0.75" />
			</g>
		</g>
		<g>
			<title> (ctg2_120)</title>
			<polygon class=" (ctg2_120)" points="214,10 223,40 214,70" fill="rgb(255,255,255)" fill-opacity="1.0" stroke="rgb(0,0,0)" stroke-width="2"  />
		</g>
		<g>
			<title> (ctg2_121)</title>
			<polygon class=" (ctg2_121)" points="255,25 252,25 252,10 222,40 252,70 252,55 255,55" fill="rgb(255,255,255)" fill-opacity="1.0" stroke="rgb(0,0,0)" stroke-width="2"  />
			<g>
				<title>BATS (PF06968)
"Biotin and Thiamin Synthesis associated domain"</title>
				<polygon class="PF06968" points="226,40 232,34 232,46" stroke-linejoin="round" width="9" height="24" fill="rgb(91,179,207)" stroke="rgb(72,143,165)" stroke-width="1" opacity="0.75" />
			</g>
			<g>
				<title>Radical_SAM (PF04055)
"Radical SAM superfamily"</title>
				<polygon class="PF04055" points="234,32 238,28 250,28 250,52 238,52 234,48" stroke-linejoin="round" width="16" height="24" fill="rgb(149,56,222)" stroke="rgb(119,44,177)" stroke-width="1" opacity="0.75" />
			</g>
		</g>
		<g>
			<title> (ctg2_122)</title>
			<polygon class=" (ctg2_122)" points="309,25 289,25 289,10 259,40 289,70 289,55 309,55" fill="rgb(255,255,255)" fill-opacity="1.0" stroke="rgb(0,0,0)" stroke-width="2"  />
			<g>
				<title>Peptidase_M32 (PF02074)
"Carboxypeptidase Taq (M32) metallopeptidase"</title>
				<polygon class="PF02074" points="263,40 275,28 307,28 307,52 275,52" stroke-linejoin="round" width="48" height="24" fill="rgb(213,142,93)" stroke="rgb(170,113,74)" stroke-width="1" opacity="0.75" />
			</g>
		</g>
		<g>
			<title> (ctg2_123)</title>
			<polygon class=" (ctg2_123)" points="320,25 324,25 324,10 354,40 324,70 324,55 320,55" fill="rgb(255,255,255)" fill-opacity="1.0" stroke="rgb(0,0,0)" stroke-width="2"  />
			<g>
				<title>LPG_synthase_TM (PF03706)
"Lysylphosphatidylglycerol synthase TM region"</title>
				<polygon class="PF03706" points="320,28 337,28 348,39 348,41 337,52 320,52" stroke-linejoin="round" width="28" height="24" fill="rgb(98,201,219)" stroke="rgb(78,160,175)" stroke-width="1" opacity="0.75" />
			</g>
		</g>
		<g>
			<title> (ctg2_124)</title>
			<polygon class=" (ctg2_124)" points="375,25 386,25 386,10 416,40 386,70 386,55 375,55" fill="rgb(255,255,255)" fill-opacity="1.0" stroke="rgb(0,0,0)" stroke-width="2"  />
			<g>
				<title>Arm-DNA-bind_3 (PF13356)
"Arm DNA-binding domain"</title>
				<rect class="PF13356" x="376" y="28" stroke-linejoin="round" width="9" height="24" fill="rgb(47,183,132)" stroke="rgb(37,146,105)" stroke-width="1" opacity="0.75" />
			</g>
			<g>
				<title>Phage_integrase (PF00589)
"Phage integrase family"</title>
				<polygon class="PF00589" points="396,28 399,28 411,40 399,52 396,52" stroke-linejoin="round" width="16" height="24" fill="rgb(91,96,195)" stroke="rgb(72,76,156)" stroke-width="1" opacity="0.75" />
			</g>
		</g>
		<g>
			<title> (ctg2_125)</title>
			<polygon class=" (ctg2_125)" points="420,40 423,10 423,70" fill="rgb(255,255,255)" fill-opacity="1.0" stroke="rgb(0,0,0)" stroke-width="2"  />
		</g>
		<g>
			<title> (ctg2_126)</title>
			<polygon class=" (ctg2_126)" points="432,40 443,10 443,70" fill="rgb(255,255,255)" fill-opacity="1.0" stroke="rgb(0,0,0)" stroke-width="2"  />
		</g>
		<g>
			<title> (ctg2_127)</title>
			<polygon class=" (ctg2_127)" points="453,10 460,40 453,70" fill="rgb(255,255,255)" fill-opacity="1.0" stroke="rgb(0,0,0)" stroke-width="2"  />
		</g>
		<g>
			<title> (ctg2_128)</title>
			<polygon class=" (ctg2_128)" points="479,10 508,40 479,70" fill="rgb(255,255,255)" fill-opacity="1.0" stroke="rgb(0,0,0)" stroke-width="2"  />
			<g>
				<title>OMP_b-brl (PF13505)
"Outer membrane protein beta-barrel domain"</title>
				<polygon class="PF13505" points="479,28 492,28 504,40 492,52 479,52" stroke-linejoin="round" width="29" height="24" fill="rgb(200,118,85)" stroke="rgb(160,94,67)" stroke-width="1" opacity="0.75" />
			</g>
		</g>
		<g>
			<title> (ctg2_129)</title>
			<polygon class=" (ctg2_129)" points="542,10 550,40 542,70" fill="rgb(255,255,255)" fill-opacity="1.0" stroke="rgb(0,0,0)" stroke-width="2"  />
		</g>
		<g>
			<title> (ctg2_130)</title>
			<polygon class=" (ctg2_130)" points="595,25 587,25 587,10 557,40 587,70 587,55 595,55" fill="rgb(255,255,255)" fill-opacity="1.0" stroke="rgb(0,0,0)" stroke-width="2"  />
			<g>
				<title>TAL_FSA (PF00923)
"Transaldolase/Fructose-6-phosphate aldolase"</title>
				<polygon class="PF00923" points="561,40 573,28 593,28 593,52 573,52" stroke-linejoin="round" width="35" height="24" fill="rgb(208,111,74)" stroke="rgb(166,88,59)" stroke-width="1" opacity="0.75" />
			</g>
		</g>
		<g>
			<title> (ctg2_131)</title>
			<polygon class=" (ctg2_131)" points="649,25 630,25 630,10 600,40 630,70 630,55 649,55" fill="rgb(255,255,255)" fill-opacity="1.0" stroke="rgb(0,0,0)" stroke-width="2"  />
			<g>
				<title>FGGY_C (PF02782)
"FGGY family of carbohydrate kinases, C-terminal domain"</title>
				<polygon class="PF02782" points="604,40 616,28 622,28 622,52 616,52 604,40" stroke-linejoin="round" width="18" height="24" fill="rgb(204,103,85)" stroke="rgb(163,82,68)" stroke-width="1" opacity="0.75" />
			</g>
			<g>
				<title>FGGY_N (PF00370)
"FGGY family of carbohydrate kinases, N-terminal domain"</title>
				<rect class="PF00370" x="624" y="28" stroke-linejoin="round" width="24" height="24" fill="rgb(83,186,105)" stroke="rgb(66,148,83)" stroke-width="1" opacity="0.75" />
			</g>
		</g>
		<g>
			<title> (ctg2_132)</title>
			<polygon class=" (ctg2_132)" points="650,40 673,10 673,70" fill="rgb(255,255,255)" fill-opacity="1.0" stroke="rgb(0,0,0)" stroke-width="2"  />
			<g>
				<title>Rhomboid (PF01694)
"Rhomboid family"</title>
				<polygon class="PF01694" points="654,40 663,28 666,28 666,52 663,52" stroke-linejoin="round" width="16" height="24" fill="rgb(210,72,145)" stroke="rgb(168,57,116)" stroke-width="1" opacity="0.75" />
			</g>
		</g>
		<g>
			<title> (ctg2_133)</title>
			<polygon class=" (ctg2_133)" points="774,25 706,25 706,10 676,40 706,70 706,55 774,55" fill="rgb(255,255,255)" fill-opacity="1.0" stroke="rgb(0,0,0)" stroke-width="2"  />
			<g>
				<title>Acyltransferase (PF01553)
"Acyltransferase"</title>
				<polygon class="PF01553" points="683,37 692,28 696,28 696,52 692,52 683,43" stroke-linejoin="round" width="13" height="24" fill="rgb(87,176,216)" stroke="rgb(69,140,172)" stroke-width="1" opacity="0.75" />
			</g>
			<g>
				<title>AMP-binding (PF00501)
"AMP-binding enzyme"</title>
				<rect class="PF00501" x="715" y="28" stroke-linejoin="round" width="44" height="24" fill="rgb(60,217,223)" stroke="rgb(48,173,178)" stroke-width="1" opacity="0.75" />
			</g>
			<g>
				<title>PP-binding (PF00550)
"Phosphopantetheine attachment site"</title>
				<rect class="PF00550" x="764" y="28" stroke-linejoin="round" width="7" height="24" fill="rgb(103,191,88)" stroke="rgb(82,152,70)" stroke-width="1" opacity="0.75" />
			</g>
		</g>
		<g>
			<title> (ctg2_134)</title>
			<polygon class=" (ctg2_134)" points="828,25 818,25 818,10 788,40 818,70 818,55 828,55" fill="rgb(255,255,255)" fill-opacity="1.0" stroke="rgb(0,0,0)" stroke-width="2"  />
			<g>
				<title>S-AdoMet_synt_C (PF02773)
"S-adenosylmethionine synthetase, C-terminal domain"</title>
				<polygon class="PF02773" points="792,40 804,28 804,28 804,52 804,52" stroke-linejoin="round" width="14" height="24" fill="rgb(192,53,113)" stroke="rgb(153,42,90)" stroke-width="1" opacity="0.75" />
			</g>
			<g>
				<title>S-AdoMet_synt_M (PF02772)
"S-adenosylmethionine synthetase, central domain"</title>
				<polygon class="PF02772" points="804,28 804,28 815,28 815,52 804,52 804,52" stroke-linejoin="round" width="11" height="24" fill="rgb(81,223,98)" stroke="rgb(64,178,78)" stroke-width="1" opacity="0.75" />
			</g>
			<g>
				<title>S-AdoMet_synt_N (PF00438)
"S-adenosylmethionine synthetase, N-terminal domain"</title>
				<rect class="PF00438" x="817" y="28" stroke-linejoin="round" width="10" height="24" fill="rgb(202,217,80)" stroke="rgb(161,173,64)" stroke-width="1" opacity="0.75" />
			</g>
		</g>
		<g>
			<title> (ctg2_135)</title>
			<polygon class=" (ctg2_135)" points="837,25 846,25 846,10 876,40 846,70 846,55 837,55" fill="rgb(255,255,255)" fill-opacity="1.0" stroke="rgb(0,0,0)" stroke-width="2"  />
			<g>
				<title>Peptidase_M24 (PF00557)
"Metallopeptidase family M24"</title>
				<polygon class="PF00557" points="852,28 859,28 871,40 859,52 852,52" stroke-linejoin="round" width="22" height="24" fill="rgb(217,177,88)" stroke="rgb(173,141,70)" stroke-width="1" opacity="0.75" />
			</g>
		</g>
		<g>
			<title> (ctg2_136)</title>
			<polygon class=" (ctg2_136)" points="908,25 907,25 907,10 877,40 907,70 907,55 908,55" fill="rgb(255,255,255)" fill-opacity="1.0" stroke="rgb(0,0,0)" stroke-width="2"  />
			<g>
				<title>PDH (PF02153)
"Prephenate dehydrogenase"</title>
				<polygon class="PF02153" points="881,40 893,28 899,28 899,52 893,52" stroke-linejoin="round" width="22" height="24" fill="rgb(90,185,212)" stroke="rgb(72,148,169)" stroke-width="1" opacity="0.75" />
			</g>
		</g>
		<g>
			<title> (ctg2_137)</title>
			<polygon class=" (ctg2_137)" points="949,25 946,25 946,10 916,40 946,70 946,55 949,55" fill="rgb(255,255,255)" fill-opacity="1.0" stroke="rgb(0,0,0)" stroke-width="2"  />
		</g>
		<g>
			<title> (ctg2_138)</title>
			<polygon class=" (ctg2_138)" points="959,10 971,40 959,70" fill="rgb(255,255,255)" fill-opacity="1.0" stroke="rgb(0,0,0)" stroke-width="2"  />
			<g>
				<title>CMD (PF02627)
"Carboxymuconolactone decarboxylase family"</title>
				<polygon class="PF02627" points="962,28 962,28 968,40 962,52 962,52" stroke-linejoin="round" width="8" height="24" fill="rgb(58,205,164)" stroke="rgb(46,164,131)" stroke-width="1" opacity="0.75" />
			</g>
		</g>
		<g>
			<title> (ctg2_139)</title>
			<polygon class=" (ctg2_139)" points="976,10 999,40 976,70" fill="rgb(255,255,255)" fill-opacity="1.0" stroke="rgb(0,0,0)" stroke-width="2"  />
			<g>
				<title>Methyltransf_25 (PF13649)
"Methyltransferase domain"</title>
				<polygon class="PF13649" points="983,28 986,28 992,36 992,44 986,52 983,52" stroke-linejoin="round" width="9" height="24" fill="rgb(227,135,74)" stroke="rgb(181,108,59)" stroke-width="1" opacity="0.75" />
			</g>
		</g>
		<g>
			<title> (ctg2_140)</title>
			<polygon class=" (ctg2_140)" points="1003,25 1004,25 1004,10 1034,40 1004,70 1004,55 1003,55" fill="rgb(255,255,255)" fill-opacity="1.0" stroke="rgb(0,0,0)" stroke-width="2"  />
			<g>
				<title>Amidohydro_2 (PF04909)
"Amidohydrolase"</title>
				<polygon class="PF04909" points="1003,28 1018,28 1030,40 1018,52 1003,52" stroke-linejoin="round" width="29" height="24" fill="rgb(95,225,123)" stroke="rgb(76,180,98)" stroke-width="1" opacity="0.75" />
			</g>
		</g>
		<g>
			<title> (ctg2_141)</title>
			<polygon class=" (ctg2_141)" points="1037,25 1049,25 1049,10 1079,40 1049,70 1049,55 1037,55" fill="rgb(255,255,255)" fill-opacity="1.0" stroke="rgb(0,0,0)" stroke-width="2"  />
			<g>
				<title>GFO_IDH_MocA (PF01408)
"Oxidoreductase family, NAD-binding Rossmann fold"</title>
				<rect class="PF01408" x="1041" y="28" stroke-linejoin="round" width="12" height="24" fill="rgb(76,117,190)" stroke="rgb(60,93,152)" stroke-width="1" opacity="0.75" />
			</g>
		</g>
		<g>
			<title> (ctg2_142)</title>
			<polygon class=" (ctg2_142)" points="1163,25 1111,25 1111,10 1081,40 1111,70 1111,55 1163,55" fill="rgb(255,255,255)" fill-opacity="1.0" stroke="rgb(0,0,0)" stroke-width="2"  />
			<g>
				<title>DNA_gyraseA_C (PF03989)
"DNA gyrase C-terminal domain, beta-propeller"</title>
				<polygon class="PF03989" points="1085,40 1086,39 1086,41" stroke-linejoin="round" width="4" height="24" fill="rgb(52,134,190)" stroke="rgb(41,107,152)" stroke-width="1" opacity="0.75" />
			</g>
			<g>
				<title>DNA_gyraseA_C (PF03989)
"DNA gyrase C-terminal domain, beta-propeller"</title>
				<polygon class="PF03989" points="1087,38 1091,34 1091,46 1087,42" stroke-linejoin="round" width="4" height="24" fill="rgb(52,134,190)" stroke="rgb(41,107,152)" stroke-width="1" opacity="0.75" />
			</g>
			<g>
				<title>DNA_gyraseA_C (PF03989)
"DNA gyrase C-terminal domain, beta-propeller"</title>
				<polygon class="PF03989" points="1092,33 1096,29 1096,51 1092,47" stroke-linejoin="round" width="4" height="24" fill="rgb(52,134,190)" stroke="rgb(41,107,152)" stroke-width="1" opacity="0.75" />
			</g>
			<g>
				<title>DNA_gyraseA_C (PF03989)
"DNA gyrase C-terminal domain, beta-propeller"</title>
				<polygon class="PF03989" points="1097,28 1097,28 1101,28 1101,52 1097,52 1097,52" stroke-linejoin="round" width="4" height="24" fill="rgb(52,134,190)" stroke="rgb(41,107,152)" stroke-width="1" opacity="0.75" />
			</g>
			<g>
				<title>DNA_gyraseA_C (PF03989)
"DNA gyrase C-terminal domain, beta-propeller"</title>
				<rect class="PF03989" x="1102" y="28" stroke-linejoin="round" width="5" height="24" fill="rgb(52,134,190)" stroke="rgb(41,107,152)" stroke-width="1" opacity="0.75" />
			</g>
			<g>
				<title>DNA_gyraseA_C (PF03989)
"DNA gyrase C-terminal domain, beta-propeller"</title>
				<rect class="PF03989" x="1108" y="28" stroke-linejoin="round" width="4" height="24" fill="rgb(52,134,190)" stroke="rgb(41,107,152)" stroke-width="1" opacity="0.75" />
			</g>
			<g>
				<title>DNA_topoisoIV (PF00521)
"DNA gyrase/topoisomerase IV, subunit A"</title>
				<rect class="PF00521" x="1115" y="28" stroke-linejoin="round" width="44" height="24" fill="rgb(196,204,77)" stroke="rgb(156,163,61)" stroke-width="1" opacity="0.75" />
			</g>
		</g>
		<g>
			<title> (ctg2_143)</title>
			<polygon class=" (ctg2_143)" points="1248,25 1196,25 1196,10 1166,40 1196,70 1196,55 1248,55" fill="rgb(255,255,255)" fill-opacity="1.0" stroke="rgb(0,0,0)" stroke-width="2"  />
			<g>
				<title>DNA_gyraseB_C (PF00986)
"DNA gyrase B subunit, carboxyl terminus"</title>
				<polygon class="PF00986" points="1170,40 1173,37 1173,43" stroke-linejoin="round" width="6" height="24" fill="rgb(184,59,116)" stroke="rgb(147,47,92)" stroke-width="1" opacity="0.75" />
			</g>
			<g>
				<title>Toprim (PF01751)
"Toprim domain"</title>
				<rect class="PF01751" x="1192" y="28" stroke-linejoin="round" width="11" height="24" fill="rgb(95,212,145)" stroke="rgb(76,169,116)" stroke-width="1" opacity="0.75" />
			</g>
			<g>
				<title>DNA_gyraseB (PF00204)
"DNA gyrase B"</title>
				<rect class="PF00204" x="1206" y="28" stroke-linejoin="round" width="17" height="24" fill="rgb(66,134,179)" stroke="rgb(52,107,143)" stroke-width="1" opacity="0.75" />
			</g>
			<g>
				<title>HATPase_c (PF02518)
"Histidine kinase-, DNA gyrase B-, and HSP90-like ATPase"</title>
				<rect class="PF02518" x="1228" y="28" stroke-linejoin="round" width="14" height="24" fill="rgb(80,94,225)" stroke="rgb(64,75,180)" stroke-width="1" opacity="0.75" />
			</g>
		</g>
		<g>
			<title> (ctg2_144)</title>
			<polygon class=" (ctg2_144)" points="1287,25 1280,25 1280,10 1250,40 1280,70 1280,55 1287,55" fill="rgb(255,255,255)" fill-opacity="1.0" stroke="rgb(0,0,0)" stroke-width="2"  />
			<g>
				<title>SMC_N (PF02463)
"RecF/RecN/SMC N terminal domain"</title>
				<polygon class="PF02463" points="1254,40 1266,28 1287,28 1287,52 1266,52" stroke-linejoin="round" width="36" height="24" fill="rgb(203,65,194)" stroke="rgb(162,52,155)" stroke-width="1" opacity="0.75" />
			</g>
		</g>
		<g>
			<title> (ctg2_145)</title>
			<polygon class=" (ctg2_145)" points="1326,25 1319,25 1319,10 1289,40 1319,70 1319,55 1326,55" fill="rgb(255,255,255)" fill-opacity="1.0" stroke="rgb(0,0,0)" stroke-width="2"  />
			<g>
				<title>DNA_pol3_beta_3 (PF02768)
"DNA polymerase III beta subunit, C-terminal domain"</title>
				<polygon class="PF02768" points="1293,40 1301,32 1301,48" stroke-linejoin="round" width="12" height="24" fill="rgb(51,193,80)" stroke="rgb(40,154,63)" stroke-width="1" opacity="0.75" />
			</g>
			<g>
				<title>DNA_pol3_beta_2 (PF02767)
"DNA polymerase III beta subunit, central domain"</title>
				<polygon class="PF02767" points="1301,32 1305,28 1312,28 1312,52 1305,52 1301,48" stroke-linejoin="round" width="11" height="24" fill="rgb(74,212,191)" stroke="rgb(59,169,152)" stroke-width="1" opacity="0.75" />
			</g>
			<g>
				<title>DNA_pol3_beta (PF00712)
"DNA polymerase III beta subunit, N-terminal domain"</title>
				<rect class="PF00712" x="1314" y="28" stroke-linejoin="round" width="11" height="24" fill="rgb(201,83,112)" stroke="rgb(160,66,89)" stroke-width="1" opacity="0.75" />
			</g>
		</g>
		<g>
			<title> (ctg2_146)</title>
			<polygon class=" (ctg2_146)" points="1328,40 1332,10 1332,70" fill="rgb(255,255,255)" fill-opacity="1.0" stroke="rgb(0,0,0)" stroke-width="2"  />
		</g>
		<g>
			<title> (ctg2_147)</title>
			<polygon class=" (ctg2_147)" points="1377,25 1363,25 1363,10 1333,40 1363,70 1363,55 1377,55" fill="rgb(255,255,255)" fill-opacity="1.0" stroke="rgb(0,0,0)" stroke-width="2"  />
			<g>
				<title>Bac_DnaA_C (PF08299)
"Bacterial dnaA protein helix-turn-helix"</title>
				<polygon class="PF08299" points="1337,40 1341,36 1341,44" stroke-linejoin="round" width="6" height="24" fill="rgb(223,151,101)" stroke="rgb(178,120,80)" stroke-width="1" opacity="0.75" />
			</g>
			<g>
				<title>Bac_DnaA (PF00308)
"Bacterial dnaA  protein"</title>
				<polygon class="PF00308" points="1344,33 1349,28 1365,28 1365,52 1349,52 1344,47" stroke-linejoin="round" width="21" height="24" fill="rgb(188,76,147)" stroke="rgb(150,60,117)" stroke-width="1" opacity="0.75" />
			</g>
			<g>
				<title>DnaA_N (PF11638)
"DnaA N-terminal domain"</title>
				<rect class="PF11638" x="1370" y="28" stroke-linejoin="round" width="6" height="24" fill="rgb(146,71,194)" stroke="rgb(116,56,155)" stroke-width="1" opacity="0.75" />
			</g>
		</g>
	</g>
</svg>
