<svg version="1.1" baseProfile="full" xmlns="http://www.w3.org/2000/svg" width="1459.5" height="80">
	<g>
		<line x1="10" y1="40.0" x2="1449.5" y2="40.0" style="stroke:rgb(70,70,70); stroke-width:3 "/>
		<g>
			<title> (ctg16_255)</title>
			<polygon class=" (ctg16_255)" points="65,40 80,10 80,70" fill="rgb(255,255,255)" fill-opacity="1.0" stroke="rgb(0,0,0)" stroke-width="2"  />
			<g>
				<title>Cytochrom_C (PF00034)
"Cytochrome c"</title>
				<polygon class="PF00034" points="68,40 74,28 77,28 77,52 74,52" stroke-linejoin="round" width="12" height="24" fill="rgb(130,184,61)" stroke="rgb(104,147,48)" stroke-width="1" opacity="0.75" />
			</g>
		</g>
		<g>
			<title> (ctg16_256)</title>
			<polygon class=" (ctg16_256)" points="82,40 111,10 111,70" fill="rgb(255,255,255)" fill-opacity="1.0" stroke="rgb(0,0,0)" stroke-width="2"  />
			<g>
				<title>NAD_binding_11 (PF14833)
"NAD-binding of NADP-dependent 3-hydroxyisobutyrate dehydrogenase"</title>
				<polygon class="PF14833" points="86,40 95,31 95,49" stroke-linejoin="round" width="12" height="24" fill="rgb(141,199,89)" stroke="rgb(112,159,71)" stroke-width="1" opacity="0.75" />
			</g>
			<g>
				<title>NAD_binding_2 (PF03446)
"NAD binding domain of 6-phosphogluconate dehydrogenase"</title>
				<polygon class="PF03446" points="95,31 98,28 110,28 110,52 98,52 95,49" stroke-linejoin="round" width="15" height="24" fill="rgb(205,164,98)" stroke="rgb(164,131,78)" stroke-width="1" opacity="0.75" />
			</g>
		</g>
		<g>
			<title> (ctg16_257)</title>
			<polygon class=" (ctg16_257)" points="156,25 147,25 147,10 117,40 147,70 147,55 156,55" fill="rgb(255,255,255)" fill-opacity="1.0" stroke="rgb(0,0,0)" stroke-width="2"  />
			<g>
				<title>ThiF (PF00899)
"ThiF family"</title>
				<polygon class="PF00899" points="121,40 133,28 142,28 142,52 133,52" stroke-linejoin="round" width="23" height="24" fill="rgb(82,50,180)" stroke="rgb(65,39,144)" stroke-width="1" opacity="0.75" />
			</g>
			<g>
				<title>Rhodanese (PF00581)
"Rhodanese-like domain"</title>
				<rect class="PF00581" x="144" y="28" stroke-linejoin="round" width="9" height="24" fill="rgb(145,191,76)" stroke="rgb(116,152,60)" stroke-width="1" opacity="0.75" />
			</g>
		</g>
		<g>
			<title> (ctg16_258)</title>
			<polygon class=" (ctg16_258)" points="189,25 186,25 186,10 156,40 186,70 186,55 189,55" fill="rgb(255,255,255)" fill-opacity="1.0" stroke="rgb(0,0,0)" stroke-width="2"  />
			<g>
				<title>Mob_synth_C (PF06463)
"Molybdenum Cofactor Synthesis C"</title>
				<polygon class="PF06463" points="160,40 169,31 169,49" stroke-linejoin="round" width="12" height="24" fill="rgb(149,103,225)" stroke="rgb(119,82,180)" stroke-width="1" opacity="0.75" />
			</g>
			<g>
				<title>Radical_SAM (PF04055)
"Radical SAM superfamily"</title>
				<polygon class="PF04055" points="171,29 172,28 187,28 187,52 172,52 171,51" stroke-linejoin="round" width="16" height="24" fill="rgb(149,56,222)" stroke="rgb(119,44,177)" stroke-width="1" opacity="0.75" />
			</g>
		</g>
		<g>
			<title> (ctg16_259)</title>
			<polygon class=" (ctg16_259)" points="240,25 226,25 226,10 196,40 226,70 226,55 240,55" fill="rgb(255,255,255)" fill-opacity="1.0" stroke="rgb(0,0,0)" stroke-width="2"  />
			<g>
				<title>AA_permease_2 (PF13520)
"Amino acid permease"</title>
				<polygon class="PF13520" points="200,40 212,28 238,28 238,52 212,52" stroke-linejoin="round" width="42" height="24" fill="rgb(180,217,107)" stroke="rgb(144,173,85)" stroke-width="1" opacity="0.75" />
			</g>
		</g>
		<g>
			<title> (ctg16_260)</title>
			<polygon class=" (ctg16_260)" points="251,25 278,25 278,10 308,40 278,70 278,55 251,55" fill="rgb(255,255,255)" fill-opacity="1.0" stroke="rgb(0,0,0)" stroke-width="2"  />
			<g>
				<title>SBP_bac_5 (PF00496)
"Bacterial extracellular solute-binding proteins, family 5 Middle"</title>
				<polygon class="PF00496" points="260,28 291,28 298,35 298,45 291,52 260,52" stroke-linejoin="round" width="38" height="24" fill="rgb(199,94,116)" stroke="rgb(159,75,92)" stroke-width="1" opacity="0.75" />
			</g>
		</g>
		<g>
			<title> (ctg16_261)</title>
			<polygon class=" (ctg16_261)" points="315,10 344,40 315,70" fill="rgb(255,255,255)" fill-opacity="1.0" stroke="rgb(0,0,0)" stroke-width="2"  />
			<g>
				<title>Sigma70_r1_2 (PF00140)
"Sigma-70 factor, region 1.2"</title>
				<rect class="PF00140" x="317" y="28" stroke-linejoin="round" width="3" height="24" fill="rgb(210,210,74)" stroke="rgb(168,168,59)" stroke-width="1" opacity="0.75" />
			</g>
			<g>
				<title>Sigma70_r2 (PF04542)
"Sigma-70 region 2"</title>
				<rect class="PF04542" x="321" y="28" stroke-linejoin="round" width="7" height="24" fill="rgb(184,59,197)" stroke="rgb(147,47,157)" stroke-width="1" opacity="0.75" />
			</g>
			<g>
				<title>Sigma70_r3 (PF04539)
"Sigma-70 region 3"</title>
				<polygon class="PF04539" points="329,29 336,36 336,44 329,51" stroke-linejoin="round" width="7" height="24" fill="rgb(66,187,131)" stroke="rgb(52,149,104)" stroke-width="1" opacity="0.75" />
			</g>
			<g>
				<title>Sigma70_r4 (PF04545)
"Sigma-70, region 4"</title>
				<polygon class="PF04545" points="337,37 340,40 337,43" stroke-linejoin="round" width="5" height="24" fill="rgb(75,207,224)" stroke="rgb(60,165,179)" stroke-width="1" opacity="0.75" />
			</g>
		</g>
		<g>
			<title> (ctg16_262)</title>
			<polygon class=" (ctg16_262)" points="353,25 374,25 374,10 404,40 374,70 374,55 353,55" fill="rgb(255,255,255)" fill-opacity="1.0" stroke="rgb(0,0,0)" stroke-width="2"  />
			<g>
				<title>FGGY_N (PF00370)
"FGGY family of carbohydrate kinases, N-terminal domain"</title>
				<rect class="PF00370" x="353" y="28" stroke-linejoin="round" width="24" height="24" fill="rgb(83,186,105)" stroke="rgb(66,148,83)" stroke-width="1" opacity="0.75" />
			</g>
			<g>
				<title>FGGY_C (PF02782)
"FGGY family of carbohydrate kinases, C-terminal domain"</title>
				<polygon class="PF02782" points="378,28 388,28 397,37 397,43 388,52 378,52" stroke-linejoin="round" width="19" height="24" fill="rgb(204,103,85)" stroke="rgb(163,82,68)" stroke-width="1" opacity="0.75" />
			</g>
		</g>
		<g>
			<title> (ctg16_263)</title>
			<polygon class=" (ctg16_263)" points="408,25 416,25 416,10 446,40 416,70 416,55 408,55" fill="rgb(255,255,255)" fill-opacity="1.0" stroke="rgb(0,0,0)" stroke-width="2"  />
			<g>
				<title>ATP-grasp_2 (PF08442)
"ATP-grasp domain"</title>
				<rect class="PF08442" x="408" y="28" stroke-linejoin="round" width="19" height="24" fill="rgb(76,220,127)" stroke="rgb(60,176,101)" stroke-width="1" opacity="0.75" />
			</g>
			<g>
				<title>Ligase_CoA (PF00549)
"CoA-ligase"</title>
				<polygon class="PF00549" points="433,31 442,40 433,49" stroke-linejoin="round" width="12" height="24" fill="rgb(184,103,76)" stroke="rgb(147,82,60)" stroke-width="1" opacity="0.75" />
			</g>
		</g>
		<g>
			<title> (ctg16_264)</title>
			<polygon class=" (ctg16_264)" points="447,10 476,40 447,70" fill="rgb(255,255,255)" fill-opacity="1.0" stroke="rgb(0,0,0)" stroke-width="2"  />
			<g>
				<title>CoA_binding (PF02629)
"CoA binding domain"</title>
				<rect class="PF02629" x="447" y="28" stroke-linejoin="round" width="9" height="24" fill="rgb(57,204,178)" stroke="rgb(45,163,142)" stroke-width="1" opacity="0.75" />
			</g>
			<g>
				<title>Ligase_CoA (PF00549)
"CoA-ligase"</title>
				<polygon class="PF00549" points="462,30 471,40 462,50" stroke-linejoin="round" width="12" height="24" fill="rgb(184,103,76)" stroke="rgb(147,82,60)" stroke-width="1" opacity="0.75" />
			</g>
		</g>
		<g>
			<title> (ctg16_265)</title>
			<polygon class=" (ctg16_265)" points="481,10 498,40 481,70" fill="rgb(255,255,255)" fill-opacity="1.0" stroke="rgb(0,0,0)" stroke-width="2"  />
			<g>
				<title>YceD (PF02620)
"Large ribosomal RNA subunit accumulation protein YceD"</title>
				<polygon class="PF02620" points="486,28 487,28 494,40 487,52 486,52" stroke-linejoin="round" width="11" height="24" fill="rgb(206,67,167)" stroke="rgb(164,53,133)" stroke-width="1" opacity="0.75" />
			</g>
		</g>
		<g>
			<title> (ctg16_266)</title>
			<polygon class=" (ctg16_266)" points="498,10 504,40 498,70" fill="rgb(255,255,255)" fill-opacity="1.0" stroke="rgb(0,0,0)" stroke-width="2"  />
			<g>
				<title>Ribosomal_L32p (PF01783)
"Ribosomal L32p protein family"</title>
				<polygon class="PF01783" points="498,28 498,28 501,40 498,52 498,52" stroke-linejoin="round" width="5" height="24" fill="rgb(54,205,64)" stroke="rgb(43,164,51)" stroke-width="1" opacity="0.75" />
			</g>
		</g>
		<g>
			<title> (ctg16_267)</title>
			<polygon class=" (ctg16_267)" points="506,25 507,25 507,10 537,40 507,70 507,55 506,55" fill="rgb(255,255,255)" fill-opacity="1.0" stroke="rgb(0,0,0)" stroke-width="2"  />
			<g>
				<title>Acyl_transf_1 (PF00698)
"Acyl transferase domain"</title>
				<polygon class="PF00698" points="506,28 521,28 533,40 521,52 506,52" stroke-linejoin="round" width="30" height="24" fill="rgb(59,176,209)" stroke="rgb(47,140,167)" stroke-width="1" opacity="0.75" />
			</g>
		</g>
		<g>
			<title> (ctg16_268)</title>
			<polygon class=" (ctg16_268)" points="538,10 562,40 538,70" fill="rgb(255,255,255)" fill-opacity="1.0" stroke="rgb(0,0,0)" stroke-width="2"  />
			<g>
				<title>adh_short_C2 (PF13561)
"Enoyl-(Acyl carrier protein) reductase"</title>
				<polygon class="PF13561" points="539,28 549,28 558,40 549,52 539,52" stroke-linejoin="round" width="23" height="24" fill="rgb(73,205,127)" stroke="rgb(58,164,101)" stroke-width="1" opacity="0.75" />
			</g>
		</g>
		<g>
			<title> (ctg16_269)</title>
			<polygon class=" (ctg16_269)" points="569,10 576,40 569,70" fill="rgb(255,255,255)" fill-opacity="1.0" stroke="rgb(0,0,0)" stroke-width="2"  />
			<g>
				<title>PP-binding (PF00550)
"Phosphopantetheine attachment site"</title>
				<polygon class="PF00550" points="569,28 570,28 573,40 570,52 569,52" stroke-linejoin="round" width="6" height="24" fill="rgb(103,191,88)" stroke="rgb(82,152,70)" stroke-width="1" opacity="0.75" />
			</g>
		</g>
		<g>
			<title> (ctg16_270)</title>
			<polygon class=" (ctg16_270)" points="579,25 590,25 590,10 620,40 590,70 590,55 579,55" fill="rgb(255,255,255)" fill-opacity="1.0" stroke="rgb(0,0,0)" stroke-width="2"  />
			<g>
				<title>ketoacyl-synt (PF00109)
"Beta-ketoacyl synthase, N-terminal domain"</title>
				<rect class="PF00109" x="579" y="28" stroke-linejoin="round" width="24" height="24" fill="rgb(112,116,228)" stroke="rgb(89,92,182)" stroke-width="1" opacity="0.75" />
			</g>
			<g>
				<title>Ketoacyl-synt_C (PF02801)
"Beta-ketoacyl synthase, C-terminal domain"</title>
				<polygon class="PF02801" points="604,28 604,28 615,39 615,41 604,52 604,52" stroke-linejoin="round" width="11" height="24" fill="rgb(215,78,102)" stroke="rgb(172,62,81)" stroke-width="1" opacity="0.75" />
			</g>
		</g>
		<g>
			<title> (ctg16_271)</title>
			<polygon class=" (ctg16_271)" points="621,10 648,40 621,70" fill="rgb(255,255,255)" fill-opacity="1.0" stroke="rgb(0,0,0)" stroke-width="2"  />
			<g>
				<title>Ribonucleas_3_3 (PF14622)
"Ribonuclease-III-like"</title>
				<polygon class="PF14622" points="626,28 633,28 639,34 639,46 633,52 626,52" stroke-linejoin="round" width="13" height="24" fill="rgb(134,211,63)" stroke="rgb(107,168,50)" stroke-width="1" opacity="0.75" />
			</g>
			<g>
				<title>dsrm (PF00035)
"Double-stranded RNA binding motif"</title>
				<polygon class="PF00035" points="641,37 644,40 641,43" stroke-linejoin="round" width="6" height="24" fill="rgb(223,106,84)" stroke="rgb(178,84,67)" stroke-width="1" opacity="0.75" />
			</g>
		</g>
		<g>
			<title> (ctg16_272)</title>
			<polygon class=" (ctg16_272)" points="649,10 676,40 649,70" fill="rgb(255,255,255)" fill-opacity="1.0" stroke="rgb(0,0,0)" stroke-width="2"  />
			<g>
				<title>BPL_LplA_LipB (PF03099)
"Biotin/lipoate A/B protein ligase family"</title>
				<polygon class="PF03099" points="653,28 661,28 666,33 666,47 661,52 653,52" stroke-linejoin="round" width="13" height="24" fill="rgb(228,147,105)" stroke="rgb(182,117,84)" stroke-width="1" opacity="0.75" />
			</g>
		</g>
		<g>
			<title> (ctg16_273)</title>
			<polygon class=" (ctg16_273)" points="676,25 860,25 860,10 890,40 860,70 860,55 676,55" fill="rgb(255,255,255)" fill-opacity="1.0" stroke="rgb(0,0,0)" stroke-width="2"  />
			<g>
				<title>ketoacyl-synt (PF00109)
"Beta-ketoacyl synthase, N-terminal domain"</title>
				<rect class="PF00109" x="676" y="28" stroke-linejoin="round" width="24" height="24" fill="rgb(112,116,228)" stroke="rgb(89,92,182)" stroke-width="1" opacity="0.75" />
			</g>
			<g>
				<title>Ketoacyl-synt_C (PF02801)
"Beta-ketoacyl synthase, C-terminal domain"</title>
				<rect class="PF02801" x="701" y="28" stroke-linejoin="round" width="11" height="24" fill="rgb(215,78,102)" stroke="rgb(172,62,81)" stroke-width="1" opacity="0.75" />
			</g>
			<g>
				<title>KAsynt_C_assoc (PF16197)
"Ketoacyl-synthetase C-terminal extension"</title>
				<rect class="PF16197" x="713" y="28" stroke-linejoin="round" width="17" height="24" fill="rgb(240,150,172)" stroke="rgb(192,120,137)" stroke-width="1" opacity="0.75" />
			</g>
			<g>
				<title>Acyl_transf_1 (PF00698)
"Acyl transferase domain"</title>
				<rect class="PF00698" x="733" y="28" stroke-linejoin="round" width="31" height="24" fill="rgb(59,176,209)" stroke="rgb(47,140,167)" stroke-width="1" opacity="0.75" />
			</g>
			<g>
				<title>PS-DH (PF14765)
"Polyketide synthase dehydratase"</title>
				<rect class="PF14765" x="769" y="28" stroke-linejoin="round" width="27" height="24" fill="rgb(173,56,182)" stroke="rgb(138,44,145)" stroke-width="1" opacity="0.75" />
			</g>
			<g>
				<title>ADH_N (PF08240)
"Alcohol dehydrogenase GroES-like domain"</title>
				<rect class="PF08240" x="824" y="28" stroke-linejoin="round" width="7" height="24" fill="rgb(211,65,138)" stroke="rgb(168,51,110)" stroke-width="1" opacity="0.75" />
			</g>
			<g>
				<title>ADH_zinc_N_2 (PF13602)
"Zinc-binding dehydrogenase"</title>
				<rect class="PF13602" x="839" y="28" stroke-linejoin="round" width="13" height="24" fill="rgb(101,131,226)" stroke="rgb(80,104,180)" stroke-width="1" opacity="0.75" />
			</g>
			<g>
				<title>KR (PF08659)
"KR domain"</title>
				<rect class="PF08659" x="855" y="28" stroke-linejoin="round" width="17" height="24" fill="rgb(66,209,188)" stroke="rgb(52,167,150)" stroke-width="1" opacity="0.75" />
			</g>
			<g>
				<title>PP-binding (PF00550)
"Phosphopantetheine attachment site"</title>
				<polygon class="PF00550" points="882,37 885,40 882,43" stroke-linejoin="round" width="7" height="24" fill="rgb(103,191,88)" stroke="rgb(82,152,70)" stroke-width="1" opacity="0.75" />
			</g>
		</g>
		<g>
			<title> (ctg16_274)</title>
			<polygon class=" (ctg16_274)" points="927,25 924,25 924,10 894,40 924,70 924,55 927,55" fill="rgb(255,255,255)" fill-opacity="1.0" stroke="rgb(0,0,0)" stroke-width="2"  />
			<g>
				<title>Peptidase_S66C (PF17676)
"LD-carboxypeptidase C-terminal domain"</title>
				<polygon class="PF17676" points="898,40 906,32 906,48" stroke-linejoin="round" width="11" height="24" fill="rgb(206,227,84)" stroke="rgb(164,181,67)" stroke-width="1" opacity="0.75" />
			</g>
			<g>
				<title>Peptidase_S66 (PF02016)
"LD-carboxypeptidase N-terminal domain"</title>
				<rect class="PF02016" x="914" y="28" stroke-linejoin="round" width="11" height="24" fill="rgb(187,63,139)" stroke="rgb(149,50,111)" stroke-width="1" opacity="0.75" />
			</g>
		</g>
		<g>
			<title> (ctg16_275)</title>
			<polygon class=" (ctg16_275)" points="982,25 969,25 969,10 939,40 969,70 969,55 982,55" fill="rgb(255,255,255)" fill-opacity="1.0" stroke="rgb(0,0,0)" stroke-width="2"  />
			<g>
				<title>Amidohydro_2 (PF04909)
"Amidohydrolase"</title>
				<polygon class="PF04909" points="943,40 955,28 963,28 963,52 955,52" stroke-linejoin="round" width="21" height="24" fill="rgb(95,225,123)" stroke="rgb(76,180,98)" stroke-width="1" opacity="0.75" />
			</g>
		</g>
		<g>
			<title> (ctg16_276)</title>
			<polygon class=" (ctg16_276)" points="994,25 998,25 998,10 1028,40 998,70 998,55 994,55" fill="rgb(255,255,255)" fill-opacity="1.0" stroke="rgb(0,0,0)" stroke-width="2"  />
			<g>
				<title>ADH_N (PF08240)
"Alcohol dehydrogenase GroES-like domain"</title>
				<rect class="PF08240" x="996" y="28" stroke-linejoin="round" width="10" height="24" fill="rgb(211,65,138)" stroke="rgb(168,51,110)" stroke-width="1" opacity="0.75" />
			</g>
			<g>
				<title>ADH_zinc_N (PF00107)
"Zinc-binding dehydrogenase"</title>
				<polygon class="PF00107" points="1011,28 1011,28 1023,40 1023,40 1011,52 1011,52" stroke-linejoin="round" width="12" height="24" fill="rgb(81,108,215)" stroke="rgb(64,86,172)" stroke-width="1" opacity="0.75" />
			</g>
		</g>
		<g>
			<title> (ctg16_277)</title>
			<polygon class=" (ctg16_277)" points="1030,10 1055,40 1030,70" fill="rgb(255,255,255)" fill-opacity="1.0" stroke="rgb(0,0,0)" stroke-width="2"  />
			<g>
				<title>adh_short_C2 (PF13561)
"Enoyl-(Acyl carrier protein) reductase"</title>
				<polygon class="PF13561" points="1031,28 1041,28 1051,40 1041,52 1031,52" stroke-linejoin="round" width="23" height="24" fill="rgb(73,205,127)" stroke="rgb(58,164,101)" stroke-width="1" opacity="0.75" />
			</g>
		</g>
		<g>
			<title> (ctg16_278)</title>
			<polygon class=" (ctg16_278)" points="1059,10 1069,40 1059,70" fill="rgb(255,255,255)" fill-opacity="1.0" stroke="rgb(0,0,0)" stroke-width="2"  />
			<g>
				<title>TPR_8 (PF13181)
"Tetratricopeptide repeat"</title>
				<polygon class="PF13181" points="1064,34 1066,40 1066,40 1064,46" stroke-linejoin="round" width="2" height="24" fill="rgb(182,172,47)" stroke="rgb(145,137,37)" stroke-width="1" opacity="0.75" />
			</g>
		</g>
		<g>
			<title> (ctg16_279)</title>
			<polygon class=" (ctg16_279)" points="1074,10 1082,40 1074,70" fill="rgb(255,255,255)" fill-opacity="1.0" stroke="rgb(0,0,0)" stroke-width="2"  />
		</g>
		<g>
			<title> (ctg16_280)</title>
			<polygon class=" (ctg16_280)" points="1085,40 1101,10 1101,70" fill="rgb(255,255,255)" fill-opacity="1.0" stroke="rgb(0,0,0)" stroke-width="2"  />
			<g>
				<title>DUF1854 (PF08909)
"Domain of unknown function (DUF1854)"</title>
				<polygon class="PF08909" points="1088,40 1094,28 1098,28 1098,52 1094,52" stroke-linejoin="round" width="13" height="24" fill="rgb(110,61,222)" stroke="rgb(88,48,177)" stroke-width="1" opacity="0.75" />
			</g>
		</g>
		<g>
			<title> (ctg16_281)</title>
			<polygon class=" (ctg16_281)" points="1174,25 1131,25 1131,10 1101,40 1131,70 1131,55 1174,55" fill="rgb(255,255,255)" fill-opacity="1.0" stroke="rgb(0,0,0)" stroke-width="2"  />
			<g>
				<title>ABC_tran (PF00005)
"ABC transporter"</title>
				<polygon class="PF00005" points="1109,36 1117,28 1123,28 1123,52 1117,52 1109,44" stroke-linejoin="round" width="14" height="24" fill="rgb(129,201,63)" stroke="rgb(103,160,50)" stroke-width="1" opacity="0.75" />
			</g>
			<g>
				<title>ABC_membrane (PF00664)
"ABC transporter transmembrane region"</title>
				<rect class="PF00664" x="1130" y="28" stroke-linejoin="round" width="27" height="24" fill="rgb(149,226,73)" stroke="rgb(119,180,58)" stroke-width="1" opacity="0.75" />
			</g>
		</g>
		<g>
			<title> (ctg16_282)</title>
			<polygon class=" (ctg16_282)" points="1210,25 1206,25 1206,10 1176,40 1206,70 1206,55 1210,55" fill="rgb(255,255,255)" fill-opacity="1.0" stroke="rgb(0,0,0)" stroke-width="2"  />
			<g>
				<title>Peripla_BP_2 (PF01497)
"Periplasmic binding protein"</title>
				<polygon class="PF01497" points="1180,40 1192,28 1201,28 1201,52 1192,52" stroke-linejoin="round" width="23" height="24" fill="rgb(183,226,104)" stroke="rgb(146,180,83)" stroke-width="1" opacity="0.75" />
			</g>
		</g>
		<g>
			<title> (ctg16_283)</title>
			<polygon class=" (ctg16_283)" points="1214,10 1241,40 1214,70" fill="rgb(255,255,255)" fill-opacity="1.0" stroke="rgb(0,0,0)" stroke-width="2"  />
			<g>
				<title>AP_endonuc_2 (PF01261)
"Xylose isomerase-like TIM barrel"</title>
				<polygon class="PF01261" points="1216,28 1226,28 1236,39 1236,41 1226,52 1216,52" stroke-linejoin="round" width="20" height="24" fill="rgb(69,222,207)" stroke="rgb(55,177,165)" stroke-width="1" opacity="0.75" />
			</g>
		</g>
		<g>
			<title> (ctg16_284)</title>
			<polygon class=" (ctg16_284)" points="1243,25 1279,25 1279,10 1309,40 1279,70 1279,55 1243,55" fill="rgb(255,255,255)" fill-opacity="1.0" stroke="rgb(0,0,0)" stroke-width="2"  />
		</g>
		<g>
			<title> (ctg16_285)</title>
			<polygon class=" (ctg16_285)" points="1316,25 1318,25 1318,10 1348,40 1318,70 1318,55 1316,55" fill="rgb(255,255,255)" fill-opacity="1.0" stroke="rgb(0,0,0)" stroke-width="2"  />
			<g>
				<title>Bac_luciferase (PF00296)
"Luciferase-like monooxygenase"</title>
				<polygon class="PF00296" points="1316,28 1332,28 1344,40 1332,52 1316,52" stroke-linejoin="round" width="29" height="24" fill="rgb(180,112,78)" stroke="rgb(144,89,62)" stroke-width="1" opacity="0.75" />
			</g>
		</g>
		<g>
			<title> (ctg16_286)</title>
			<polygon class=" (ctg16_286)" points="1352,10 1379,40 1352,70" fill="rgb(255,255,255)" fill-opacity="1.0" stroke="rgb(0,0,0)" stroke-width="2"  />
			<g>
				<title>PhyH (PF05721)
"Phytanoyl-CoA dioxygenase (PhyH)"</title>
				<polygon class="PF05721" points="1353,28 1363,28 1374,39 1374,41 1363,52 1353,52" stroke-linejoin="round" width="21" height="24" fill="rgb(72,132,214)" stroke="rgb(57,105,171)" stroke-width="1" opacity="0.75" />
			</g>
		</g>
		<g>
			<title> (ctg16_287)</title>
			<polygon class=" (ctg16_287)" points="1379,25 1419,25 1419,10 1449,40 1419,70 1419,55 1379,55" fill="rgb(255,255,255)" fill-opacity="1.0" stroke="rgb(0,0,0)" stroke-width="2"  />
		</g>
	</g>
</svg>
