<svg version="1.1" baseProfile="full" xmlns="http://www.w3.org/2000/svg" width="252.1" height="80">
	<g>
		<line x1="10" y1="40.0" x2="242.1" y2="40.0" style="stroke:rgb(70,70,70); stroke-width:3 "/>
		<g>
			<title> (ctg11683_1)</title>
			<polygon class=" (ctg11683_1)" points="58,25 40,25 40,10 10,40 40,70 40,55 58,55" fill="rgb(255,255,255)" fill-opacity="1.0" stroke="rgb(0,0,0)" stroke-width="2"  />
			<g>
				<title>AMP-binding (PF00501)
"AMP-binding enzyme"</title>
				<polygon class="PF00501" points="14,40 26,28 45,28 45,52 26,52" stroke-linejoin="round" width="34" height="24" fill="rgb(60,217,223)" stroke="rgb(48,173,178)" stroke-width="1" opacity="0.75" />
			</g>
			<g>
				<title>PP-binding (PF00550)
"Phosphopantetheine attachment site"</title>
				<rect class="PF00550" x="49" y="28" stroke-linejoin="round" width="7" height="24" fill="rgb(103,191,88)" stroke="rgb(82,152,70)" stroke-width="1" opacity="0.75" />
			</g>
		</g>
		<g>
			<title> (ctg11683_2)</title>
			<polygon class=" (ctg11683_2)" points="62,40 73,10 73,70" fill="rgb(255,255,255)" fill-opacity="1.0" stroke="rgb(0,0,0)" stroke-width="2"  />
		</g>
		<g>
			<title> (ctg11683_3)</title>
			<polygon class=" (ctg11683_3)" points="107,25 104,25 104,10 74,40 104,70 104,55 107,55" fill="rgb(255,255,255)" fill-opacity="1.0" stroke="rgb(0,0,0)" stroke-width="2"  />
			<g>
				<title>AbiEii (PF08843)
"Nucleotidyl transferase AbiEii toxin, Type IV TA system"</title>
				<polygon class="PF08843" points="78,40 90,28 104,28 104,52 90,52 78,40" stroke-linejoin="round" width="26" height="24" fill="rgb(179,218,98)" stroke="rgb(143,174,78)" stroke-width="1" opacity="0.75" />
			</g>
		</g>
		<g>
			<title> (ctg11683_4)</title>
			<polygon class=" (ctg11683_4)" points="107,40 133,10 133,70" fill="rgb(255,255,255)" fill-opacity="1.0" stroke="rgb(0,0,0)" stroke-width="2"  />
		</g>
		<g>
			<title> (ctg11683_5)</title>
			<polygon class=" (ctg11683_5)" points="141,10 148,40 141,70" fill="rgb(255,255,255)" fill-opacity="1.0" stroke="rgb(0,0,0)" stroke-width="2"  />
		</g>
		<g>
			<title> (ctg11683_6)</title>
			<polygon class=" (ctg11683_6)" points="150,10 168,40 150,70" fill="rgb(255,255,255)" fill-opacity="1.0" stroke="rgb(0,0,0)" stroke-width="2"  />
		</g>
		<g>
			<title> (ctg11683_7)</title>
			<polygon class=" (ctg11683_7)" points="172,40 181,10 181,70" fill="rgb(255,255,255)" fill-opacity="1.0" stroke="rgb(0,0,0)" stroke-width="2"  />
		</g>
		<g>
			<title> (ctg11683_8)</title>
			<polygon class=" (ctg11683_8)" points="184,40 188,10 188,70" fill="rgb(255,255,255)" fill-opacity="1.0" stroke="rgb(0,0,0)" stroke-width="2"  />
			<g>
				<title>Resolvase (PF00239)
"Resolvase, N terminal domain"</title>
				<polygon class="PF00239" points="187,40 187,40 187,40" stroke-linejoin="round" width="3" height="24" fill="rgb(99,177,201)" stroke="rgb(79,141,160)" stroke-width="1" opacity="0.75" />
			</g>
		</g>
		<g>
			<title> (ctg11683_9)</title>
			<polygon class=" (ctg11683_9)" points="189,40 196,10 196,70" fill="rgb(255,255,255)" fill-opacity="1.0" stroke="rgb(0,0,0)" stroke-width="2"  />
		</g>
		<g>
			<title> (ctg11683_10)</title>
			<polygon class=" (ctg11683_10)" points="202,40 215,10 215,70" fill="rgb(255,255,255)" fill-opacity="1.0" stroke="rgb(0,0,0)" stroke-width="2"  />
			<g>
				<title>PIN (PF01850)
"PIN domain"</title>
				<polygon class="PF01850" points="205,40 210,28 215,28 215,52 210,52" stroke-linejoin="round" width="12" height="24" fill="rgb(91,217,126)" stroke="rgb(72,173,100)" stroke-width="1" opacity="0.75" />
			</g>
		</g>
		<g>
			<title> (ctg11683_11)</title>
			<polygon class=" (ctg11683_11)" points="216,40 224,10 224,70" fill="rgb(255,255,255)" fill-opacity="1.0" stroke="rgb(0,0,0)" stroke-width="2"  />
			<g>
				<title>PhdYeFM_antitox (PF02604)
"Antitoxin Phd_YefM, type II toxin-antitoxin system"</title>
				<polygon class="PF02604" points="219,40 222,28 223,28 223,52 222,52" stroke-linejoin="round" width="5" height="24" fill="rgb(204,60,69)" stroke="rgb(163,48,55)" stroke-width="1" opacity="0.75" />
			</g>
		</g>
	</g>
</svg>
