<svg version="1.1" baseProfile="full" xmlns="http://www.w3.org/2000/svg" width="576.8333333333334" height="80">
	<g>
		<line x1="10" y1="40.0" x2="566.8333333333334" y2="40.0" style="stroke:rgb(70,70,70); stroke-width:3 "/>
		<g>
			<title> (ctg993_1)</title>
			<polygon class=" (ctg993_1)" points="10,10 28,40 10,70" fill="rgb(255,255,255)" fill-opacity="1.0" stroke="rgb(0,0,0)" stroke-width="2"  />
			<g>
				<title>DUF4143 (PF13635)
"Domain of unknown function (DUF4143)"</title>
				<polygon class="PF13635" points="10,28 17,28 21,34 21,46 17,52 10,52" stroke-linejoin="round" width="11" height="24" fill="rgb(119,89,210)" stroke="rgb(95,71,168)" stroke-width="1" opacity="0.75" />
			</g>
		</g>
		<g>
			<title> (ctg993_2)</title>
			<polygon class=" (ctg993_2)" points="27,40 32,10 32,70" fill="rgb(255,255,255)" fill-opacity="1.0" stroke="rgb(0,0,0)" stroke-width="2"  />
		</g>
		<g>
			<title> (ctg993_3)</title>
			<polygon class=" (ctg993_3)" points="38,40 46,10 46,70" fill="rgb(255,255,255)" fill-opacity="1.0" stroke="rgb(0,0,0)" stroke-width="2"  />
			<g>
				<title>PhdYeFM_antitox (PF02604)
"Antitoxin Phd_YefM, type II toxin-antitoxin system"</title>
				<polygon class="PF02604" points="41,40 44,28 45,28 45,52 44,52 41,40" stroke-linejoin="round" width="4" height="24" fill="rgb(204,60,69)" stroke="rgb(163,48,55)" stroke-width="1" opacity="0.75" />
			</g>
		</g>
		<g>
			<title> (ctg993_4)</title>
			<polygon class=" (ctg993_4)" points="51,40 60,10 60,70" fill="rgb(255,255,255)" fill-opacity="1.0" stroke="rgb(0,0,0)" stroke-width="2"  />
		</g>
		<g>
			<title> (ctg993_5)</title>
			<polygon class=" (ctg993_5)" points="92,25 91,25 91,10 61,40 91,70 91,55 92,55" fill="rgb(255,255,255)" fill-opacity="1.0" stroke="rgb(0,0,0)" stroke-width="2"  />
		</g>
		<g>
			<title> (ctg993_6)</title>
			<polygon class=" (ctg993_6)" points="97,25 112,25 112,10 142,40 112,70 112,55 97,55" fill="rgb(255,255,255)" fill-opacity="1.0" stroke="rgb(0,0,0)" stroke-width="2"  />
			<g>
				<title>Response_reg (PF00072)
"Response regulator receiver domain"</title>
				<rect class="PF00072" x="97" y="28" stroke-linejoin="round" width="11" height="24" fill="rgb(100,107,203)" stroke="rgb(80,85,162)" stroke-width="1" opacity="0.75" />
			</g>
			<g>
				<title>Sigma54_activat (PF00158)
"Sigma-54 interaction domain"</title>
				<polygon class="PF00158" points="111,28 126,28 127,29 127,51 126,52 111,52" stroke-linejoin="round" width="16" height="24" fill="rgb(101,145,216)" stroke="rgb(80,115,172)" stroke-width="1" opacity="0.75" />
			</g>
			<g>
				<title>HTH_8 (PF02954)
"Bacterial regulatory protein, Fis family"</title>
				<polygon class="PF02954" points="137,39 138,40 137,41" stroke-linejoin="round" width="4" height="24" fill="rgb(168,63,200)" stroke="rgb(134,50,160)" stroke-width="1" opacity="0.75" />
			</g>
		</g>
		<g>
			<title> (ctg993_7)</title>
			<polygon class=" (ctg993_7)" points="162,25 170,25 170,10 200,40 170,70 170,55 162,55" fill="rgb(255,255,255)" fill-opacity="1.0" stroke="rgb(0,0,0)" stroke-width="2"  />
			<g>
				<title>Amidohydro_2 (PF04909)
"Amidohydrolase"</title>
				<polygon class="PF04909" points="168,28 183,28 195,40 183,52 168,52" stroke-linejoin="round" width="30" height="24" fill="rgb(95,225,123)" stroke="rgb(76,180,98)" stroke-width="1" opacity="0.75" />
			</g>
		</g>
		<g>
			<title> (ctg993_8)</title>
			<polygon class=" (ctg993_8)" points="200,25 202,25 202,10 232,40 202,70 202,55 200,55" fill="rgb(255,255,255)" fill-opacity="1.0" stroke="rgb(0,0,0)" stroke-width="2"  />
			<g>
				<title>Epimerase (PF01370)
"NAD dependent epimerase/dehydratase family"</title>
				<polygon class="PF01370" points="200,28 216,28 223,35 223,45 216,52 200,52" stroke-linejoin="round" width="23" height="24" fill="rgb(98,102,214)" stroke="rgb(78,81,171)" stroke-width="1" opacity="0.75" />
			</g>
		</g>
		<g>
			<title> (ctg993_9)</title>
			<polygon class=" (ctg993_9)" points="234,40 248,10 248,70" fill="rgb(255,255,255)" fill-opacity="1.0" stroke="rgb(0,0,0)" stroke-width="2"  />
			<g>
				<title>NfeD (PF01957)
"NfeD-like C-terminal, partner-binding"</title>
				<polygon class="PF01957" points="237,40 243,28 245,28 245,52 243,52" stroke-linejoin="round" width="10" height="24" fill="rgb(90,229,87)" stroke="rgb(71,183,69)" stroke-width="1" opacity="0.75" />
			</g>
		</g>
		<g>
			<title> (ctg993_10)</title>
			<polygon class=" (ctg993_10)" points="250,25 257,25 257,10 287,40 257,70 257,55 250,55" fill="rgb(255,255,255)" fill-opacity="1.0" stroke="rgb(0,0,0)" stroke-width="2"  />
			<g>
				<title>GCS2 (PF04107)
"Glutamate-cysteine ligase family 2(GCS2)"</title>
				<polygon class="PF04107" points="251,28 271,28 278,35 278,45 271,52 251,52" stroke-linejoin="round" width="27" height="24" fill="rgb(67,145,225)" stroke="rgb(53,116,180)" stroke-width="1" opacity="0.75" />
			</g>
		</g>
		<g>
			<title> (ctg993_11)</title>
			<polygon class=" (ctg993_11)" points="287,40 313,10 313,70" fill="rgb(255,255,255)" fill-opacity="1.0" stroke="rgb(0,0,0)" stroke-width="2"  />
			<g>
				<title>ABC_tran (PF00005)
"ABC transporter"</title>
				<polygon class="PF00005" points="295,35 302,28 310,28 310,52 302,52 295,45" stroke-linejoin="round" width="15" height="24" fill="rgb(129,201,63)" stroke="rgb(103,160,50)" stroke-width="1" opacity="0.75" />
			</g>
		</g>
		<g>
			<title> (ctg993_12)</title>
			<polygon class=" (ctg993_12)" points="314,25 319,25 319,10 349,40 319,70 319,55 314,55" fill="rgb(255,255,255)" fill-opacity="1.0" stroke="rgb(0,0,0)" stroke-width="2"  />
			<g>
				<title>Glyco_transf_9 (PF01075)
"Glycosyltransferase family 9 (heptosyltransferase)"</title>
				<polygon class="PF01075" points="321,28 333,28 345,40 345,40 333,52 321,52" stroke-linejoin="round" width="24" height="24" fill="rgb(200,89,91)" stroke="rgb(160,71,72)" stroke-width="1" opacity="0.75" />
			</g>
		</g>
		<g>
			<title> (ctg993_13)</title>
			<polygon class=" (ctg993_13)" points="383,25 379,25 379,10 349,40 379,70 379,55 383,55" fill="rgb(255,255,255)" fill-opacity="1.0" stroke="rgb(0,0,0)" stroke-width="2"  />
			<g>
				<title>Hexapep (PF00132)
"Bacterial transferase hexapeptide (six repeats)"</title>
				<polygon class="PF00132" points="358,35 361,32 361,48 358,45" stroke-linejoin="round" width="3" height="24" fill="rgb(89,131,202)" stroke="rgb(71,104,161)" stroke-width="1" opacity="0.75" />
			</g>
			<g>
				<title>Hexapep (PF00132)
"Bacterial transferase hexapeptide (six repeats)"</title>
				<polygon class="PF00132" points="365,28 365,28 368,28 368,52 365,52 365,52" stroke-linejoin="round" width="3" height="24" fill="rgb(89,131,202)" stroke="rgb(71,104,161)" stroke-width="1" opacity="0.75" />
			</g>
			<g>
				<title>LpxD (PF04613)
"UDP-3-O-[3-hydroxymyristoyl] glucosamine N-acyltransferase, LpxD"</title>
				<rect class="PF04613" x="374" y="28" stroke-linejoin="round" width="6" height="24" fill="rgb(214,100,190)" stroke="rgb(171,79,151)" stroke-width="1" opacity="0.75" />
			</g>
		</g>
		<g>
			<title> (ctg993_14)</title>
			<polygon class=" (ctg993_14)" points="385,40 408,10 408,70" fill="rgb(255,255,255)" fill-opacity="1.0" stroke="rgb(0,0,0)" stroke-width="2"  />
			<g>
				<title>Copper-bind (PF00127)
"Copper binding proteins, plastocyanin/azurin family"</title>
				<polygon class="PF00127" points="390,39 398,28 398,28 398,52 398,52 390,41" stroke-linejoin="round" width="8" height="24" fill="rgb(203,169,70)" stroke="rgb(162,135,56)" stroke-width="1" opacity="0.75" />
			</g>
		</g>
		<g>
			<title> (ctg993_15)</title>
			<polygon class=" (ctg993_15)" points="408,25 424,25 424,10 454,40 424,70 424,55 408,55" fill="rgb(255,255,255)" fill-opacity="1.0" stroke="rgb(0,0,0)" stroke-width="2"  />
			<g>
				<title>Peptidase_M20 (PF01546)
"Peptidase family M20/M25/M40"</title>
				<polygon class="PF01546" points="420,28 437,28 449,40 437,52 420,52" stroke-linejoin="round" width="32" height="24" fill="rgb(88,213,108)" stroke="rgb(70,170,86)" stroke-width="1" opacity="0.75" />
			</g>
		</g>
		<g>
			<title> (ctg993_16)</title>
			<polygon class=" (ctg993_16)" points="458,25 469,25 469,10 499,40 469,70 469,55 458,55" fill="rgb(255,255,255)" fill-opacity="1.0" stroke="rgb(0,0,0)" stroke-width="2"  />
		</g>
		<g>
			<title> (ctg993_17)</title>
			<polygon class=" (ctg993_17)" points="503,25 507,25 507,10 537,40 507,70 507,55 503,55" fill="rgb(255,255,255)" fill-opacity="1.0" stroke="rgb(0,0,0)" stroke-width="2"  />
		</g>
	</g>
</svg>
