<svg version="1.1" baseProfile="full" xmlns="http://www.w3.org/2000/svg" width="541.0333333333333" height="80">
	<g>
		<line x1="10" y1="40.0" x2="531.0333333333333" y2="40.0" style="stroke:rgb(70,70,70); stroke-width:3 "/>
		<g>
			<title> (ctg2713_1)</title>
			<polygon class=" (ctg2713_1)" points="46,25 44,25 44,10 14,40 44,70 44,55 46,55" fill="rgb(255,255,255)" fill-opacity="1.0" stroke="rgb(0,0,0)" stroke-width="2"  />
			<g>
				<title>HlyD_D23 (PF16576)
"Barrel-sandwich domain of CusB or HlyD membrane-fusion"</title>
				<polygon class="PF16576" points="18,40 30,28 40,28 40,52 30,52 18,40" stroke-linejoin="round" width="22" height="24" fill="rgb(70,190,92)" stroke="rgb(56,152,73)" stroke-width="1" opacity="0.75" />
			</g>
		</g>
		<g>
			<title> (ctg2713_2)</title>
			<polygon class=" (ctg2713_2)" points="154,25 76,25 76,10 46,40 76,70 76,55 154,55" fill="rgb(255,255,255)" fill-opacity="1.0" stroke="rgb(0,0,0)" stroke-width="2"  />
			<g>
				<title>Lant_dehydr_C (PF14028)
"Lantibiotic biosynthesis dehydratase C-term"</title>
				<polygon class="PF14028" points="50,40 62,28 73,28 73,52 62,52" stroke-linejoin="round" width="27" height="24" fill="rgb(107,223,113)" stroke="rgb(85,178,90)" stroke-width="1" opacity="0.75" />
			</g>
			<g>
				<title>Lant_dehydr_N (PF04738)
"Lantibiotic dehydratase, N terminus"</title>
				<rect class="PF04738" x="81" y="28" stroke-linejoin="round" width="66" height="24" fill="rgb(219,60,229)" stroke="rgb(175,47,183)" stroke-width="1" opacity="0.75" />
			</g>
		</g>
		<g>
			<title> (ctg2713_3)</title>
			<polygon class=" (ctg2713_3)" points="197,25 186,25 186,10 156,40 186,70 186,55 197,55" fill="rgb(255,255,255)" fill-opacity="1.0" stroke="rgb(0,0,0)" stroke-width="2"  />
			<g>
				<title>LANC_like (PF05147)
"Lanthionine synthetase C-like protein"</title>
				<polygon class="PF05147" points="160,40 172,28 192,28 192,52 172,52" stroke-linejoin="round" width="36" height="24" fill="rgb(129,182,79)" stroke="rgb(103,145,63)" stroke-width="1" opacity="0.75" />
			</g>
		</g>
		<g>
			<title> (ctg2713_4)</title>
			<polygon class=" (ctg2713_4)" points="203,40 210,10 210,70" fill="rgb(255,255,255)" fill-opacity="1.0" stroke="rgb(0,0,0)" stroke-width="2"  />
		</g>
		<g>
			<title> (ctg2713_5)</title>
			<polygon class=" (ctg2713_5)" points="317,25 250,25 250,10 220,40 250,70 250,55 317,55" fill="rgb(255,255,255)" fill-opacity="1.0" stroke="rgb(0,0,0)" stroke-width="2"  />
			<g>
				<title>CarboxypepD_reg (PF13620)
"Carboxypeptidase regulatory-like domain"</title>
				<rect class="PF13620" x="307" y="28" stroke-linejoin="round" width="8" height="24" fill="rgb(201,63,96)" stroke="rgb(160,50,76)" stroke-width="1" opacity="0.75" />
			</g>
		</g>
		<g>
			<title> (ctg2713_6)</title>
			<polygon class=" (ctg2713_6)" points="330,40 338,10 338,70" fill="rgb(255,255,255)" fill-opacity="1.0" stroke="rgb(0,0,0)" stroke-width="2"  />
		</g>
		<g>
			<title> (ctg2713_7)</title>
			<polygon class=" (ctg2713_7)" points="344,40 358,10 358,70" fill="rgb(255,255,255)" fill-opacity="1.0" stroke="rgb(0,0,0)" stroke-width="2"  />
		</g>
		<g>
			<title> (ctg2713_8)</title>
			<polygon class=" (ctg2713_8)" points="362,25 375,25 375,10 405,40 375,70 375,55 362,55" fill="rgb(255,255,255)" fill-opacity="1.0" stroke="rgb(0,0,0)" stroke-width="2"  />
			<g>
				<title>MacB_PCD (PF12704)
"MacB-like periplasmic core domain"</title>
				<rect class="PF12704" x="362" y="28" stroke-linejoin="round" width="22" height="24" fill="rgb(79,76,190)" stroke="rgb(63,60,152)" stroke-width="1" opacity="0.75" />
			</g>
			<g>
				<title>FtsX (PF02687)
"FtsX-like permease family"</title>
				<polygon class="PF02687" points="395,34 401,40 395,46" stroke-linejoin="round" width="8" height="24" fill="rgb(126,55,214)" stroke="rgb(100,44,171)" stroke-width="1" opacity="0.75" />
			</g>
		</g>
		<g>
			<title> (ctg2713_9)</title>
			<polygon class=" (ctg2713_9)" points="411,40 428,10 428,70" fill="rgb(255,255,255)" fill-opacity="1.0" stroke="rgb(0,0,0)" stroke-width="2"  />
		</g>
		<g>
			<title> (ctg2713_10)</title>
			<polygon class=" (ctg2713_10)" points="471,25 459,25 459,10 429,40 459,70 459,55 471,55" fill="rgb(255,255,255)" fill-opacity="1.0" stroke="rgb(0,0,0)" stroke-width="2"  />
		</g>
	</g>
</svg>
