<svg version="1.1" baseProfile="full" xmlns="http://www.w3.org/2000/svg" width="1007.1333333333333" height="80">
	<g>
		<line x1="10" y1="40.0" x2="997.1333333333333" y2="40.0" style="stroke:rgb(70,70,70); stroke-width:3 "/>
		<g>
			<title> (ctg1358_1)</title>
			<polygon class=" (ctg1358_1)" points="10,10 16,40 10,70" fill="rgb(255,255,255)" fill-opacity="1.0" stroke="rgb(0,0,0)" stroke-width="2"  />
		</g>
		<g>
			<title> (ctg1358_2)</title>
			<polygon class=" (ctg1358_2)" points="15,10 21,40 15,70" fill="rgb(255,255,255)" fill-opacity="1.0" stroke="rgb(0,0,0)" stroke-width="2"  />
		</g>
		<g>
			<title> (ctg1358_3)</title>
			<polygon class=" (ctg1358_3)" points="60,25 48,25 48,10 18,40 48,70 48,55 60,55" fill="rgb(255,255,255)" fill-opacity="1.0" stroke="rgb(0,0,0)" stroke-width="2"  />
			<g>
				<title>Beta-lactamase (PF00144)
"Beta-lactamase"</title>
				<polygon class="PF00144" points="22,40 34,28 53,28 53,52 34,52" stroke-linejoin="round" width="35" height="24" fill="rgb(92,159,200)" stroke="rgb(73,127,160)" stroke-width="1" opacity="0.75" />
			</g>
		</g>
		<g>
			<title> (ctg1358_4)</title>
			<polygon class=" (ctg1358_4)" points="106,25 90,25 90,10 60,40 90,70 90,55 106,55" fill="rgb(255,255,255)" fill-opacity="1.0" stroke="rgb(0,0,0)" stroke-width="2"  />
			<g>
				<title>DUF2891 (PF11199)
"Protein of unknown function (DUF2891)"</title>
				<polygon class="PF11199" points="67,37 76,28 98,28 98,52 76,52 67,43" stroke-linejoin="round" width="31" height="24" fill="rgb(102,195,74)" stroke="rgb(81,156,59)" stroke-width="1" opacity="0.75" />
			</g>
		</g>
		<g>
			<title> (ctg1358_5)</title>
			<polygon class=" (ctg1358_5)" points="118,10 129,40 118,70" fill="rgb(255,255,255)" fill-opacity="1.0" stroke="rgb(0,0,0)" stroke-width="2"  />
		</g>
		<g>
			<title> (ctg1358_6)</title>
			<polygon class=" (ctg1358_6)" points="134,25 300,25 300,10 330,40 300,70 300,55 134,55" fill="rgb(255,255,255)" fill-opacity="1.0" stroke="rgb(0,0,0)" stroke-width="2"  />
			<g>
				<title>ketoacyl-synt (PF00109)
"Beta-ketoacyl synthase, N-terminal domain"</title>
				<rect class="PF00109" x="134" y="28" stroke-linejoin="round" width="23" height="24" fill="rgb(112,116,228)" stroke="rgb(89,92,182)" stroke-width="1" opacity="0.75" />
			</g>
			<g>
				<title>Ketoacyl-synt_C (PF02801)
"Beta-ketoacyl synthase, C-terminal domain"</title>
				<rect class="PF02801" x="158" y="28" stroke-linejoin="round" width="12" height="24" fill="rgb(215,78,102)" stroke="rgb(172,62,81)" stroke-width="1" opacity="0.75" />
			</g>
			<g>
				<title>KAsynt_C_assoc (PF16197)
"Ketoacyl-synthetase C-terminal extension"</title>
				<rect class="PF16197" x="171" y="28" stroke-linejoin="round" width="11" height="24" fill="rgb(240,150,172)" stroke="rgb(192,120,137)" stroke-width="1" opacity="0.75" />
			</g>
			<g>
				<title>Acyl_transf_1 (PF00698)
"Acyl transferase domain"</title>
				<rect class="PF00698" x="186" y="28" stroke-linejoin="round" width="32" height="24" fill="rgb(59,176,209)" stroke="rgb(47,140,167)" stroke-width="1" opacity="0.75" />
			</g>
			<g>
				<title>PS-DH (PF14765)
"Polyketide synthase dehydratase"</title>
				<rect class="PF14765" x="223" y="28" stroke-linejoin="round" width="29" height="24" fill="rgb(173,56,182)" stroke="rgb(138,44,145)" stroke-width="1" opacity="0.75" />
			</g>
			<g>
				<title>ADH_N (PF08240)
"Alcohol dehydrogenase GroES-like domain"</title>
				<rect class="PF08240" x="296" y="28" stroke-linejoin="round" width="7" height="24" fill="rgb(211,65,138)" stroke="rgb(168,51,110)" stroke-width="1" opacity="0.75" />
			</g>
			<g>
				<title>ADH_zinc_N (PF00107)
"Zinc-binding dehydrogenase"</title>
				<polygon class="PF00107" points="309,28 314,28 320,34 320,46 314,52 309,52" stroke-linejoin="round" width="11" height="24" fill="rgb(81,108,215)" stroke="rgb(64,86,172)" stroke-width="1" opacity="0.75" />
			</g>
		</g>
		<g>
			<title> (ctg1358_7)</title>
			<polygon class=" (ctg1358_7)" points="331,25 339,25 339,10 369,40 339,70 339,55 331,55" fill="rgb(255,255,255)" fill-opacity="1.0" stroke="rgb(0,0,0)" stroke-width="2"  />
			<g>
				<title>KR (PF08659)
"KR domain"</title>
				<rect class="PF08659" x="331" y="28" stroke-linejoin="round" width="14" height="24" fill="rgb(66,209,188)" stroke="rgb(52,167,150)" stroke-width="1" opacity="0.75" />
			</g>
			<g>
				<title>PP-binding (PF00550)
"Phosphopantetheine attachment site"</title>
				<polygon class="PF00550" points="355,31 361,37 361,43 355,49" stroke-linejoin="round" width="6" height="24" fill="rgb(103,191,88)" stroke="rgb(82,152,70)" stroke-width="1" opacity="0.75" />
			</g>
		</g>
		<g>
			<title> (ctg1358_8)</title>
			<polygon class=" (ctg1358_8)" points="369,25 419,25 419,10 449,40 419,70 419,55 369,55" fill="rgb(255,255,255)" fill-opacity="1.0" stroke="rgb(0,0,0)" stroke-width="2"  />
			<g>
				<title>NAD_binding_4 (PF07993)
"Male sterility protein"</title>
				<rect class="PF07993" x="374" y="28" stroke-linejoin="round" width="24" height="24" fill="rgb(100,212,204)" stroke="rgb(80,169,163)" stroke-width="1" opacity="0.75" />
			</g>
			<g>
				<title>Sulfotransfer_3 (PF13469)
"Sulfotransferase family"</title>
				<polygon class="PF13469" points="420,28 433,28 445,40 445,40 433,52 420,52" stroke-linejoin="round" width="25" height="24" fill="rgb(59,182,84)" stroke="rgb(47,145,67)" stroke-width="1" opacity="0.75" />
			</g>
		</g>
		<g>
			<title> (ctg1358_9)</title>
			<polygon class=" (ctg1358_9)" points="453,25 481,25 481,10 511,40 481,70 481,55 453,55" fill="rgb(255,255,255)" fill-opacity="1.0" stroke="rgb(0,0,0)" stroke-width="2"  />
			<g>
				<title>B12-binding (PF02310)
"B12 binding domain"</title>
				<rect class="PF02310" x="455" y="28" stroke-linejoin="round" width="10" height="24" fill="rgb(145,190,60)" stroke="rgb(115,152,48)" stroke-width="1" opacity="0.75" />
			</g>
			<g>
				<title>Radical_SAM (PF04055)
"Radical SAM superfamily"</title>
				<rect class="PF04055" x="470" y="28" stroke-linejoin="round" width="19" height="24" fill="rgb(149,56,222)" stroke="rgb(119,44,177)" stroke-width="1" opacity="0.75" />
			</g>
			<g>
				<title>DUF4070 (PF13282)
"Domain of unknown function (DUF4070)"</title>
				<polygon class="PF13282" points="489,28 495,28 502,35 502,45 495,52 489,52" stroke-linejoin="round" width="13" height="24" fill="rgb(104,216,68)" stroke="rgb(83,172,54)" stroke-width="1" opacity="0.75" />
			</g>
		</g>
		<g>
			<title> (ctg1358_10)</title>
			<polygon class=" (ctg1358_10)" points="571,25 544,25 544,10 514,40 544,70 544,55 571,55" fill="rgb(255,255,255)" fill-opacity="1.0" stroke="rgb(0,0,0)" stroke-width="2"  />
			<g>
				<title>Amidase (PF01425)
"Amidase"</title>
				<polygon class="PF01425" points="530,28 530,28 554,28 554,52 530,52 530,52" stroke-linejoin="round" width="24" height="24" fill="rgb(195,142,64)" stroke="rgb(156,113,51)" stroke-width="1" opacity="0.75" />
			</g>
		</g>
		<g>
			<title> (ctg1358_11)</title>
			<polygon class=" (ctg1358_11)" points="608,25 602,25 602,10 572,40 602,70 602,55 608,55" fill="rgb(255,255,255)" fill-opacity="1.0" stroke="rgb(0,0,0)" stroke-width="2"  />
		</g>
		<g>
			<title> (ctg1358_12)</title>
			<polygon class=" (ctg1358_12)" points="609,40 619,10 619,70" fill="rgb(255,255,255)" fill-opacity="1.0" stroke="rgb(0,0,0)" stroke-width="2"  />
		</g>
		<g>
			<title> (ctg1358_13)</title>
			<polygon class=" (ctg1358_13)" points="666,25 654,25 654,10 624,40 654,70 654,55 666,55" fill="rgb(255,255,255)" fill-opacity="1.0" stroke="rgb(0,0,0)" stroke-width="2"  />
		</g>
		<g>
			<title> (ctg1358_14)</title>
			<polygon class=" (ctg1358_14)" points="667,10 680,40 667,70" fill="rgb(255,255,255)" fill-opacity="1.0" stroke="rgb(0,0,0)" stroke-width="2"  />
			<g>
				<title>DUF393 (PF04134)
"Protein of unknown function, DUF393"</title>
				<polygon class="PF04134" points="667,28 671,28 677,40 671,52 667,52" stroke-linejoin="round" width="11" height="24" fill="rgb(151,216,64)" stroke="rgb(120,172,51)" stroke-width="1" opacity="0.75" />
			</g>
		</g>
		<g>
			<title> (ctg1358_15)</title>
			<polygon class=" (ctg1358_15)" points="682,10 702,40 682,70" fill="rgb(255,255,255)" fill-opacity="1.0" stroke="rgb(0,0,0)" stroke-width="2"  />
			<g>
				<title>DinB_2 (PF12867)
"DinB superfamily"</title>
				<polygon class="PF12867" points="688,28 690,28 698,40 690,52 688,52" stroke-linejoin="round" width="12" height="24" fill="rgb(184,90,185)" stroke="rgb(147,72,148)" stroke-width="1" opacity="0.75" />
			</g>
		</g>
		<g>
			<title> (ctg1358_16)</title>
			<polygon class=" (ctg1358_16)" points="743,25 732,25 732,10 702,40 732,70 732,55 743,55" fill="rgb(255,255,255)" fill-opacity="1.0" stroke="rgb(0,0,0)" stroke-width="2"  />
			<g>
				<title>DUF3179 (PF11376)
"Protein of unknown function (DUF3179)"</title>
				<polygon class="PF11376" points="706,40 718,28 731,28 731,52 718,52" stroke-linejoin="round" width="29" height="24" fill="rgb(221,178,92)" stroke="rgb(176,142,73)" stroke-width="1" opacity="0.75" />
			</g>
		</g>
		<g>
			<title> (ctg1358_17)</title>
			<polygon class=" (ctg1358_17)" points="748,40 764,10 764,70" fill="rgb(255,255,255)" fill-opacity="1.0" stroke="rgb(0,0,0)" stroke-width="2"  />
		</g>
		<g>
			<title> (ctg1358_18)</title>
			<polygon class=" (ctg1358_18)" points="774,10 780,40 774,70" fill="rgb(255,255,255)" fill-opacity="1.0" stroke="rgb(0,0,0)" stroke-width="2"  />
		</g>
		<g>
			<title> (ctg1358_19)</title>
			<polygon class=" (ctg1358_19)" points="819,25 813,25 813,10 783,40 813,70 813,55 819,55" fill="rgb(255,255,255)" fill-opacity="1.0" stroke="rgb(0,0,0)" stroke-width="2"  />
			<g>
				<title>Epimerase (PF01370)
"NAD dependent epimerase/dehydratase family"</title>
				<polygon class="PF01370" points="794,33 799,28 815,28 815,52 799,52 794,47" stroke-linejoin="round" width="21" height="24" fill="rgb(98,102,214)" stroke="rgb(78,81,171)" stroke-width="1" opacity="0.75" />
			</g>
		</g>
		<g>
			<title> (ctg1358_20)</title>
			<polygon class=" (ctg1358_20)" points="820,25 839,25 839,10 869,40 839,70 839,55 820,55" fill="rgb(255,255,255)" fill-opacity="1.0" stroke="rgb(0,0,0)" stroke-width="2"  />
			<g>
				<title>MatE (PF01554)
"MatE"</title>
				<rect class="PF01554" x="826" y="28" stroke-linejoin="round" width="16" height="24" fill="rgb(187,69,173)" stroke="rgb(149,55,138)" stroke-width="1" opacity="0.75" />
			</g>
			<g>
				<title>MatE (PF01554)
"MatE"</title>
				<polygon class="PF01554" points="849,28 853,28 864,39 864,41 853,52 849,52" stroke-linejoin="round" width="15" height="24" fill="rgb(187,69,173)" stroke="rgb(149,55,138)" stroke-width="1" opacity="0.75" />
			</g>
		</g>
		<g>
			<title> (ctg1358_21)</title>
			<polygon class=" (ctg1358_21)" points="902,25 900,25 900,10 870,40 900,70 900,55 902,55" fill="rgb(255,255,255)" fill-opacity="1.0" stroke="rgb(0,0,0)" stroke-width="2"  />
			<g>
				<title>DUF5128 (PF17170)
"6-bladed beta-propeller"</title>
				<polygon class="PF17170" points="882,32 886,28 899,28 899,52 886,52 882,48" stroke-linejoin="round" width="17" height="24" fill="rgb(67,171,188)" stroke="rgb(53,136,150)" stroke-width="1" opacity="0.75" />
			</g>
		</g>
		<g>
			<title> (ctg1358_22)</title>
			<polygon class=" (ctg1358_22)" points="910,25 917,25 917,10 947,40 917,70 917,55 910,55" fill="rgb(255,255,255)" fill-opacity="1.0" stroke="rgb(0,0,0)" stroke-width="2"  />
			<g>
				<title>Amidohydro_2 (PF04909)
"Amidohydrolase"</title>
				<polygon class="PF04909" points="923,28 930,28 942,40 930,52 923,52" stroke-linejoin="round" width="21" height="24" fill="rgb(95,225,123)" stroke="rgb(76,180,98)" stroke-width="1" opacity="0.75" />
			</g>
		</g>
	</g>
</svg>
