<svg version="1.1" baseProfile="full" xmlns="http://www.w3.org/2000/svg" width="716.1666666666666" height="80">
	<g>
		<line x1="10" y1="40.0" x2="706.1666666666666" y2="40.0" style="stroke:rgb(70,70,70); stroke-width:3 "/>
		<g>
			<title> (ctg90_20)</title>
			<polygon class=" (ctg90_20)" points="102,25 89,25 89,10 59,40 89,70 89,55 102,55" fill="rgb(255,255,255)" fill-opacity="1.0" stroke="rgb(0,0,0)" stroke-width="2"  />
			<g>
				<title>Mur_ligase_C (PF02875)
"Mur ligase family, glutamate ligase domain"</title>
				<polygon class="PF02875" points="65,38 73,30 73,50 65,42" stroke-linejoin="round" width="8" height="24" fill="rgb(197,75,168)" stroke="rgb(157,60,134)" stroke-width="1" opacity="0.75" />
			</g>
			<g>
				<title>Mur_ligase_M (PF08245)
"Mur ligase middle domain"</title>
				<rect class="PF08245" x="76" y="28" stroke-linejoin="round" width="21" height="24" fill="rgb(57,133,195)" stroke="rgb(45,106,156)" stroke-width="1" opacity="0.75" />
			</g>
		</g>
		<g>
			<title> (ctg90_21)</title>
			<polygon class=" (ctg90_21)" points="107,40 135,10 135,70" fill="rgb(255,255,255)" fill-opacity="1.0" stroke="rgb(0,0,0)" stroke-width="2"  />
			<g>
				<title>Carboxyl_trans (PF01039)
"Carboxyl transferase domain"</title>
				<polygon class="PF01039" points="111,40 122,28 129,28 129,52 122,52" stroke-linejoin="round" width="19" height="24" fill="rgb(180,136,60)" stroke="rgb(144,108,48)" stroke-width="1" opacity="0.75" />
			</g>
			<g>
				<title>zf-ACC (PF17848)
"Acetyl-coA carboxylase zinc finger domain"</title>
				<rect class="PF17848" x="130" y="28" stroke-linejoin="round" width="2" height="24" fill="rgb(198,192,54)" stroke="rgb(158,153,43)" stroke-width="1" opacity="0.75" />
			</g>
		</g>
		<g>
			<title> (ctg90_22)</title>
			<polygon class=" (ctg90_22)" points="171,25 166,25 166,10 136,40 166,70 166,55 171,55" fill="rgb(255,255,255)" fill-opacity="1.0" stroke="rgb(0,0,0)" stroke-width="2"  />
			<g>
				<title>Mob_synth_C (PF06463)
"Molybdenum Cofactor Synthesis C"</title>
				<polygon class="PF06463" points="140,40 151,29 151,51" stroke-linejoin="round" width="12" height="24" fill="rgb(149,103,225)" stroke="rgb(119,82,180)" stroke-width="1" opacity="0.75" />
			</g>
			<g>
				<title>Radical_SAM (PF04055)
"Radical SAM superfamily"</title>
				<polygon class="PF04055" points="152,28 152,28 168,28 168,52 152,52 152,52" stroke-linejoin="round" width="16" height="24" fill="rgb(149,56,222)" stroke="rgb(119,44,177)" stroke-width="1" opacity="0.75" />
			</g>
		</g>
		<g>
			<title> (ctg90_23)</title>
			<polygon class=" (ctg90_23)" points="171,40 185,10 185,70" fill="rgb(255,255,255)" fill-opacity="1.0" stroke="rgb(0,0,0)" stroke-width="2"  />
			<g>
				<title>MoaE (PF02391)
"MoaE protein"</title>
				<polygon class="PF02391" points="174,40 180,28 184,28 184,52 180,52" stroke-linejoin="round" width="11" height="24" fill="rgb(70,60,221)" stroke="rgb(56,48,176)" stroke-width="1" opacity="0.75" />
			</g>
		</g>
		<g>
			<title> (ctg90_24)</title>
			<polygon class=" (ctg90_24)" points="185,40 194,10 194,70" fill="rgb(255,255,255)" fill-opacity="1.0" stroke="rgb(0,0,0)" stroke-width="2"  />
			<g>
				<title>ThiS (PF02597)
"ThiS family"</title>
				<polygon class="PF02597" points="188,40 192,28 193,28 193,52 192,52" stroke-linejoin="round" width="7" height="24" fill="rgb(73,117,196)" stroke="rgb(58,93,156)" stroke-width="1" opacity="0.75" />
			</g>
		</g>
		<g>
			<title> (ctg90_25)</title>
			<polygon class=" (ctg90_25)" points="195,40 211,10 211,70" fill="rgb(255,255,255)" fill-opacity="1.0" stroke="rgb(0,0,0)" stroke-width="2"  />
			<g>
				<title>MoaC (PF01967)
"MoaC family"</title>
				<polygon class="PF01967" points="198,40 205,28 211,28 211,52 205,52" stroke-linejoin="round" width="14" height="24" fill="rgb(81,126,206)" stroke="rgb(64,100,164)" stroke-width="1" opacity="0.75" />
			</g>
		</g>
		<g>
			<title> (ctg90_26)</title>
			<polygon class=" (ctg90_26)" points="212,25 220,25 220,10 250,40 220,70 220,55 212,55" fill="rgb(255,255,255)" fill-opacity="1.0" stroke="rgb(0,0,0)" stroke-width="2"  />
			<g>
				<title>FolB (PF02152)
"Dihydroneopterin aldolase"</title>
				<rect class="PF02152" x="218" y="28" stroke-linejoin="round" width="11" height="24" fill="rgb(113,204,65)" stroke="rgb(90,163,52)" stroke-width="1" opacity="0.75" />
			</g>
			<g>
				<title>Methyltransf_25 (PF13649)
"Methyltransferase domain"</title>
				<polygon class="PF13649" points="232,28 233,28 241,36 241,44 233,52 232,52" stroke-linejoin="round" width="9" height="24" fill="rgb(227,135,74)" stroke="rgb(181,108,59)" stroke-width="1" opacity="0.75" />
			</g>
		</g>
		<g>
			<title> (ctg90_27)</title>
			<polygon class=" (ctg90_27)" points="251,10 279,40 251,70" fill="rgb(255,255,255)" fill-opacity="1.0" stroke="rgb(0,0,0)" stroke-width="2"  />
			<g>
				<title>PHP (PF02811)
"PHP domain"</title>
				<polygon class="PF02811" points="251,28 263,28 274,39 274,41 263,52 251,52" stroke-linejoin="round" width="23" height="24" fill="rgb(167,87,219)" stroke="rgb(133,69,175)" stroke-width="1" opacity="0.75" />
			</g>
		</g>
		<g>
			<title> (ctg90_28)</title>
			<polygon class=" (ctg90_28)" points="313,25 310,25 310,10 280,40 310,70 310,55 313,55" fill="rgb(255,255,255)" fill-opacity="1.0" stroke="rgb(0,0,0)" stroke-width="2"  />
		</g>
		<g>
			<title> (ctg90_29)</title>
			<polygon class=" (ctg90_29)" points="321,10 342,40 321,70" fill="rgb(255,255,255)" fill-opacity="1.0" stroke="rgb(0,0,0)" stroke-width="2"  />
		</g>
		<g>
			<title> (ctg90_30)</title>
			<polygon class=" (ctg90_30)" points="343,10 372,40 343,70" fill="rgb(255,255,255)" fill-opacity="1.0" stroke="rgb(0,0,0)" stroke-width="2"  />
			<g>
				<title>SQS_PSY (PF00494)
"Squalene/phytoene synthase"</title>
				<polygon class="PF00494" points="344,28 356,28 368,40 356,52 344,52" stroke-linejoin="round" width="25" height="24" fill="rgb(178,91,49)" stroke="rgb(142,72,39)" stroke-width="1" opacity="0.75" />
			</g>
		</g>
		<g>
			<title> (ctg90_31)</title>
			<polygon class=" (ctg90_31)" points="375,10 395,40 375,70" fill="rgb(255,255,255)" fill-opacity="1.0" stroke="rgb(0,0,0)" stroke-width="2"  />
			<g>
				<title>UDG (PF03167)
"Uracil DNA glycosylase superfamily"</title>
				<polygon class="PF03167" points="377,28 383,28 391,40 383,52 377,52" stroke-linejoin="round" width="15" height="24" fill="rgb(64,224,60)" stroke="rgb(51,179,48)" stroke-width="1" opacity="0.75" />
			</g>
		</g>
		<g>
			<title> (ctg90_32)</title>
			<polygon class=" (ctg90_32)" points="401,40 416,10 416,70" fill="rgb(255,255,255)" fill-opacity="1.0" stroke="rgb(0,0,0)" stroke-width="2"  />
		</g>
		<g>
			<title> (ctg90_33)</title>
			<polygon class=" (ctg90_33)" points="464,25 449,25 449,10 419,40 449,70 449,55 464,55" fill="rgb(255,255,255)" fill-opacity="1.0" stroke="rgb(0,0,0)" stroke-width="2"  />
			<g>
				<title>PmbA_TldD (PF01523)
"Putative modulator of DNA gyrase"</title>
				<polygon class="PF01523" points="432,31 435,28 461,28 461,52 435,52 432,49" stroke-linejoin="round" width="29" height="24" fill="rgb(83,181,55)" stroke="rgb(66,144,44)" stroke-width="1" opacity="0.75" />
			</g>
		</g>
		<g>
			<title> (ctg90_34)</title>
			<polygon class=" (ctg90_34)" points="514,25 497,25 497,10 467,40 497,70 497,55 514,55" fill="rgb(255,255,255)" fill-opacity="1.0" stroke="rgb(0,0,0)" stroke-width="2"  />
			<g>
				<title>PmbA_TldD (PF01523)
"Putative modulator of DNA gyrase"</title>
				<polygon class="PF01523" points="482,29 483,28 511,28 511,52 483,52 482,51" stroke-linejoin="round" width="29" height="24" fill="rgb(83,181,55)" stroke="rgb(66,144,44)" stroke-width="1" opacity="0.75" />
			</g>
		</g>
		<g>
			<title> (ctg90_35)</title>
			<polygon class=" (ctg90_35)" points="521,10 547,40 521,70" fill="rgb(255,255,255)" fill-opacity="1.0" stroke="rgb(0,0,0)" stroke-width="2"  />
			<g>
				<title>Prenyltransf (PF01255)
"Putative undecaprenyl diphosphate synthase"</title>
				<polygon class="PF01255" points="524,28 532,28 543,40 532,52 524,52" stroke-linejoin="round" width="21" height="24" fill="rgb(129,224,60)" stroke="rgb(103,179,48)" stroke-width="1" opacity="0.75" />
			</g>
		</g>
		<g>
			<title> (ctg90_36)</title>
			<polygon class=" (ctg90_36)" points="548,10 576,40 548,70" fill="rgb(255,255,255)" fill-opacity="1.0" stroke="rgb(0,0,0)" stroke-width="2"  />
			<g>
				<title>CTP_transf_1 (PF01148)
"Cytidylyltransferase family"</title>
				<polygon class="PF01148" points="550,28 560,28 572,40 560,52 550,52" stroke-linejoin="round" width="26" height="24" fill="rgb(98,187,226)" stroke="rgb(78,149,180)" stroke-width="1" opacity="0.75" />
			</g>
		</g>
		<g>
			<title> (ctg90_37)</title>
			<polygon class=" (ctg90_37)" points="577,25 585,25 585,10 615,40 585,70 585,55 577,55" fill="rgb(255,255,255)" fill-opacity="1.0" stroke="rgb(0,0,0)" stroke-width="2"  />
			<g>
				<title>DXP_reductoisom (PF02670)
"1-deoxy-D-xylulose 5-phosphate reductoisomerase"</title>
				<rect class="PF02670" x="577" y="28" stroke-linejoin="round" width="12" height="24" fill="rgb(106,225,169)" stroke="rgb(84,180,135)" stroke-width="1" opacity="0.75" />
			</g>
			<g>
				<title>DXP_redisom_C (PF08436)
"1-deoxy-D-xylulose 5-phosphate reductoisomerase C-terminal domain"</title>
				<rect class="PF08436" x="591" y="28" stroke-linejoin="round" width="8" height="24" fill="rgb(160,186,55)" stroke="rgb(127,148,44)" stroke-width="1" opacity="0.75" />
			</g>
			<g>
				<title>DXPR_C (PF13288)
"DXP reductoisomerase C-terminal domain"</title>
				<polygon class="PF13288" points="602,31 611,40 602,49" stroke-linejoin="round" width="11" height="24" fill="rgb(184,95,48)" stroke="rgb(147,76,38)" stroke-width="1" opacity="0.75" />
			</g>
		</g>
		<g>
			<title> (ctg90_38)</title>
			<polygon class=" (ctg90_38)" points="617,25 632,25 632,10 662,40 632,70 632,55 617,55" fill="rgb(255,255,255)" fill-opacity="1.0" stroke="rgb(0,0,0)" stroke-width="2"  />
			<g>
				<title>Peptidase_M50 (PF02163)
"Peptidase family M50"</title>
				<polygon class="PF02163" points="618,28 646,28 658,40 646,52 618,52" stroke-linejoin="round" width="42" height="24" fill="rgb(105,96,203)" stroke="rgb(83,76,162)" stroke-width="1" opacity="0.75" />
			</g>
		</g>
	</g>
</svg>
