<svg version="1.1" baseProfile="full" xmlns="http://www.w3.org/2000/svg" width="709.2333333333333" height="80">
	<g>
		<line x1="10" y1="40.0" x2="699.2333333333333" y2="40.0" style="stroke:rgb(70,70,70); stroke-width:3 "/>
		<g>
			<title> (ctg1867_1)</title>
			<polygon class=" (ctg1867_1)" points="13,40 29,10 29,70" fill="rgb(255,255,255)" fill-opacity="1.0" stroke="rgb(0,0,0)" stroke-width="2"  />
			<g>
				<title>MoaE (PF02391)
"MoaE protein"</title>
				<polygon class="PF02391" points="17,38 22,28 28,28 28,52 22,52 17,42" stroke-linejoin="round" width="11" height="24" fill="rgb(70,60,221)" stroke="rgb(56,48,176)" stroke-width="1" opacity="0.75" />
			</g>
		</g>
		<g>
			<title> (ctg1867_2)</title>
			<polygon class=" (ctg1867_2)" points="30,40 38,10 38,70" fill="rgb(255,255,255)" fill-opacity="1.0" stroke="rgb(0,0,0)" stroke-width="2"  />
			<g>
				<title>ThiS (PF02597)
"ThiS family"</title>
				<polygon class="PF02597" points="33,40 36,28 37,28 37,52 36,52" stroke-linejoin="round" width="7" height="24" fill="rgb(73,117,196)" stroke="rgb(58,93,156)" stroke-width="1" opacity="0.75" />
			</g>
		</g>
		<g>
			<title> (ctg1867_3)</title>
			<polygon class=" (ctg1867_3)" points="38,10 41,40 38,70" fill="rgb(255,255,255)" fill-opacity="1.0" stroke="rgb(0,0,0)" stroke-width="2"  />
		</g>
		<g>
			<title> (ctg1867_4)</title>
			<polygon class=" (ctg1867_4)" points="52,40 61,10 61,70" fill="rgb(255,255,255)" fill-opacity="1.0" stroke="rgb(0,0,0)" stroke-width="2"  />
		</g>
		<g>
			<title> (ctg1867_5)</title>
			<polygon class=" (ctg1867_5)" points="65,10 80,40 65,70" fill="rgb(255,255,255)" fill-opacity="1.0" stroke="rgb(0,0,0)" stroke-width="2"  />
			<g>
				<title>Peptidase_M20 (PF01546)
"Peptidase family M20/M25/M40"</title>
				<polygon class="PF01546" points="65,28 70,28 77,40 70,52 65,52" stroke-linejoin="round" width="15" height="24" fill="rgb(88,213,108)" stroke="rgb(70,170,86)" stroke-width="1" opacity="0.75" />
			</g>
		</g>
		<g>
			<title> (ctg1867_6)</title>
			<polygon class=" (ctg1867_6)" points="100,10 121,40 100,70" fill="rgb(255,255,255)" fill-opacity="1.0" stroke="rgb(0,0,0)" stroke-width="2"  />
			<g>
				<title>polyprenyl_synt (PF00348)
"Polyprenyl synthetase"</title>
				<polygon class="PF00348" points="100,28 109,28 116,38 116,42 109,52 100,52" stroke-linejoin="round" width="16" height="24" fill="rgb(61,206,65)" stroke="rgb(48,164,52)" stroke-width="1" opacity="0.75" />
			</g>
		</g>
		<g>
			<title> (ctg1867_7)</title>
			<polygon class=" (ctg1867_7)" points="123,25 129,25 129,10 159,40 129,70 129,55 123,55" fill="rgb(255,255,255)" fill-opacity="1.0" stroke="rgb(0,0,0)" stroke-width="2"  />
			<g>
				<title>Radical_SAM (PF04055)
"Radical SAM superfamily"</title>
				<rect class="PF04055" x="128" y="28" stroke-linejoin="round" width="15" height="24" fill="rgb(149,56,222)" stroke="rgb(119,44,177)" stroke-width="1" opacity="0.75" />
			</g>
			<g>
				<title>DUF3463 (PF11946)
"Domain of unknown function (DUF3463)"</title>
				<polygon class="PF11946" points="144,29 155,40 144,51" stroke-linejoin="round" width="13" height="24" fill="rgb(193,51,57)" stroke="rgb(154,40,45)" stroke-width="1" opacity="0.75" />
			</g>
		</g>
		<g>
			<title> (ctg1867_8)</title>
			<polygon class=" (ctg1867_8)" points="160,10 183,40 160,70" fill="rgb(255,255,255)" fill-opacity="1.0" stroke="rgb(0,0,0)" stroke-width="2"  />
			<g>
				<title>PNP_UDP_1 (PF01048)
"Phosphorylase superfamily"</title>
				<polygon class="PF01048" points="160,28 170,28 178,39 178,41 170,52 160,52" stroke-linejoin="round" width="18" height="24" fill="rgb(75,186,148)" stroke="rgb(60,148,118)" stroke-width="1" opacity="0.75" />
			</g>
		</g>
		<g>
			<title> (ctg1867_9)</title>
			<polygon class=" (ctg1867_9)" points="183,25 186,25 186,10 216,40 186,70 186,55 183,55" fill="rgb(255,255,255)" fill-opacity="1.0" stroke="rgb(0,0,0)" stroke-width="2"  />
			<g>
				<title>Epimerase (PF01370)
"NAD dependent epimerase/dehydratase family"</title>
				<polygon class="PF01370" points="183,28 200,28 206,34 206,46 200,52 183,52" stroke-linejoin="round" width="23" height="24" fill="rgb(98,102,214)" stroke="rgb(78,81,171)" stroke-width="1" opacity="0.75" />
			</g>
		</g>
		<g>
			<title> (ctg1867_10)</title>
			<polygon class=" (ctg1867_10)" points="218,25 257,25 257,10 287,40 257,70 257,55 218,55" fill="rgb(255,255,255)" fill-opacity="1.0" stroke="rgb(0,0,0)" stroke-width="2"  />
			<g>
				<title>SQHop_cyclase_N (PF13249)
"Squalene-hopene cyclase N-terminal domain"</title>
				<rect class="PF13249" x="220" y="28" stroke-linejoin="round" width="29" height="24" fill="rgb(88,190,89)" stroke="rgb(70,152,71)" stroke-width="1" opacity="0.75" />
			</g>
			<g>
				<title>SQHop_cyclase_C (PF13243)
"Squalene-hopene cyclase C-terminal domain"</title>
				<polygon class="PF13243" points="250,28 271,28 280,37 280,43 271,52 250,52" stroke-linejoin="round" width="30" height="24" fill="rgb(191,58,201)" stroke="rgb(152,46,160)" stroke-width="1" opacity="0.75" />
			</g>
		</g>
		<g>
			<title> (ctg1867_11)</title>
			<polygon class=" (ctg1867_11)" points="286,10 300,40 286,70" fill="rgb(255,255,255)" fill-opacity="1.0" stroke="rgb(0,0,0)" stroke-width="2"  />
			<g>
				<title>UPF0047 (PF01894)
"Uncharacterised protein family UPF0047"</title>
				<polygon class="PF01894" points="288,28 291,28 297,40 291,52 288,52" stroke-linejoin="round" width="12" height="24" fill="rgb(101,99,228)" stroke="rgb(80,79,182)" stroke-width="1" opacity="0.75" />
			</g>
		</g>
		<g>
			<title> (ctg1867_12)</title>
			<polygon class=" (ctg1867_12)" points="302,25 305,25 305,10 335,40 305,70 305,55 302,55" fill="rgb(255,255,255)" fill-opacity="1.0" stroke="rgb(0,0,0)" stroke-width="2"  />
			<g>
				<title>SQS_PSY (PF00494)
"Squalene/phytoene synthase"</title>
				<polygon class="PF00494" points="305,28 319,28 331,40 319,52 305,52" stroke-linejoin="round" width="27" height="24" fill="rgb(178,91,49)" stroke="rgb(142,72,39)" stroke-width="1" opacity="0.75" />
			</g>
		</g>
		<g>
			<title> (ctg1867_13)</title>
			<polygon class=" (ctg1867_13)" points="336,10 365,40 336,70" fill="rgb(255,255,255)" fill-opacity="1.0" stroke="rgb(0,0,0)" stroke-width="2"  />
			<g>
				<title>SQS_PSY (PF00494)
"Squalene/phytoene synthase"</title>
				<polygon class="PF00494" points="338,28 349,28 361,40 349,52 338,52" stroke-linejoin="round" width="25" height="24" fill="rgb(178,91,49)" stroke="rgb(142,72,39)" stroke-width="1" opacity="0.75" />
			</g>
		</g>
		<g>
			<title> (ctg1867_14)</title>
			<polygon class=" (ctg1867_14)" points="378,25 382,25 382,10 412,40 382,70 382,55 378,55" fill="rgb(255,255,255)" fill-opacity="1.0" stroke="rgb(0,0,0)" stroke-width="2"  />
			<g>
				<title>Amino_oxidase (PF01593)
"Flavin containing amine oxidoreductase"</title>
				<polygon class="PF01593" points="378,28 395,28 407,40 395,52 378,52" stroke-linejoin="round" width="32" height="24" fill="rgb(184,74,52)" stroke="rgb(147,59,41)" stroke-width="1" opacity="0.75" />
			</g>
		</g>
		<g>
			<title> (ctg1867_15)</title>
			<polygon class=" (ctg1867_15)" points="412,10 433,40 412,70" fill="rgb(255,255,255)" fill-opacity="1.0" stroke="rgb(0,0,0)" stroke-width="2"  />
			<g>
				<title>Aldolase_II (PF00596)
"Class II Aldolase and Adducin N-terminal domain"</title>
				<polygon class="PF00596" points="413,28 421,28 430,40 421,52 413,52" stroke-linejoin="round" width="18" height="24" fill="rgb(208,130,90)" stroke="rgb(166,104,72)" stroke-width="1" opacity="0.75" />
			</g>
		</g>
		<g>
			<title> (ctg1867_16)</title>
			<polygon class=" (ctg1867_16)" points="454,10 468,40 454,70" fill="rgb(255,255,255)" fill-opacity="1.0" stroke="rgb(0,0,0)" stroke-width="2"  />
		</g>
		<g>
			<title> (ctg1867_17)</title>
			<polygon class=" (ctg1867_17)" points="468,25 469,25 469,10 499,40 469,70 469,55 468,55" fill="rgb(255,255,255)" fill-opacity="1.0" stroke="rgb(0,0,0)" stroke-width="2"  />
			<g>
				<title>IU_nuc_hydro (PF01156)
"Inosine-uridine preferring nucleoside hydrolase"</title>
				<polygon class="PF01156" points="469,28 483,28 495,40 483,52 469,52" stroke-linejoin="round" width="29" height="24" fill="rgb(156,80,217)" stroke="rgb(124,64,173)" stroke-width="1" opacity="0.75" />
			</g>
		</g>
		<g>
			<title> (ctg1867_18)</title>
			<polygon class=" (ctg1867_18)" points="500,25 518,25 518,10 548,40 518,70 518,55 500,55" fill="rgb(255,255,255)" fill-opacity="1.0" stroke="rgb(0,0,0)" stroke-width="2"  />
			<g>
				<title>Phosphodiest (PF01663)
"Type I phosphodiesterase / nucleotide pyrophosphatase"</title>
				<polygon class="PF01663" points="500,28 531,28 537,34 537,46 531,52 500,52" stroke-linejoin="round" width="37" height="24" fill="rgb(178,65,158)" stroke="rgb(142,52,126)" stroke-width="1" opacity="0.75" />
			</g>
		</g>
		<g>
			<title> (ctg1867_19)</title>
			<polygon class=" (ctg1867_19)" points="601,25 583,25 583,10 553,40 583,70 583,55 601,55" fill="rgb(255,255,255)" fill-opacity="1.0" stroke="rgb(0,0,0)" stroke-width="2"  />
			<g>
				<title>Rieske (PF00355)
"Rieske [2Fe-2S] domain"</title>
				<rect class="PF00355" x="586" y="28" stroke-linejoin="round" width="9" height="24" fill="rgb(186,77,145)" stroke="rgb(148,61,115)" stroke-width="1" opacity="0.75" />
			</g>
		</g>
		<g>
			<title> (ctg1867_20)</title>
			<polygon class=" (ctg1867_20)" points="604,40 632,10 632,70" fill="rgb(255,255,255)" fill-opacity="1.0" stroke="rgb(0,0,0)" stroke-width="2"  />
			<g>
				<title>adh_short_C2 (PF13561)
"Enoyl-(Acyl carrier protein) reductase"</title>
				<polygon class="PF13561" points="608,40 619,28 629,28 629,52 619,52" stroke-linejoin="round" width="25" height="24" fill="rgb(73,205,127)" stroke="rgb(58,164,101)" stroke-width="1" opacity="0.75" />
			</g>
		</g>
		<g>
			<title> (ctg1867_21)</title>
			<polygon class=" (ctg1867_21)" points="633,40 643,10 643,70" fill="rgb(255,255,255)" fill-opacity="1.0" stroke="rgb(0,0,0)" stroke-width="2"  />
		</g>
		<g>
			<title> (ctg1867_22)</title>
			<polygon class=" (ctg1867_22)" points="683,25 678,25 678,10 648,40 678,70 678,55 683,55" fill="rgb(255,255,255)" fill-opacity="1.0" stroke="rgb(0,0,0)" stroke-width="2"  />
			<g>
				<title>NHL (PF01436)
"NHL repeat"</title>
				<polygon class="PF01436" points="662,30 664,28 664,28 664,52 664,52 662,50" stroke-linejoin="round" width="2" height="24" fill="rgb(186,63,63)" stroke="rgb(148,50,50)" stroke-width="1" opacity="0.75" />
			</g>
			<g>
				<title>NHL (PF01436)
"NHL repeat"</title>
				<rect class="PF01436" x="671" y="28" stroke-linejoin="round" width="2" height="24" fill="rgb(186,63,63)" stroke="rgb(148,50,50)" stroke-width="1" opacity="0.75" />
			</g>
		</g>
	</g>
</svg>
