<svg version="1.1" baseProfile="full" xmlns="http://www.w3.org/2000/svg" width="361.73333333333335" height="80">
	<g>
		<line x1="10" y1="40.0" x2="351.73333333333335" y2="40.0" style="stroke:rgb(70,70,70); stroke-width:3 "/>
		<g>
			<title> (ctg4674_5)</title>
			<polygon class=" (ctg4674_5)" points="17,25 42,25 42,10 72,40 42,70 42,55 17,55" fill="rgb(255,255,255)" fill-opacity="1.0" stroke="rgb(0,0,0)" stroke-width="2"  />
			<g>
				<title>Amidohydro_3 (PF07969)
"Amidohydrolase family"</title>
				<rect class="PF07969" x="21" y="28" stroke-linejoin="round" width="30" height="24" fill="rgb(228,157,101)" stroke="rgb(182,125,80)" stroke-width="1" opacity="0.75" />
			</g>
			<g>
				<title>Amidohydro_3 (PF07969)
"Amidohydrolase family"</title>
				<polygon class="PF07969" points="54,28 55,28 67,40 55,52 54,52" stroke-linejoin="round" width="16" height="24" fill="rgb(228,157,101)" stroke="rgb(182,125,80)" stroke-width="1" opacity="0.75" />
			</g>
		</g>
		<g>
			<title> (ctg4674_6)</title>
			<polygon class=" (ctg4674_6)" points="72,10 89,40 72,70" fill="rgb(255,255,255)" fill-opacity="1.0" stroke="rgb(0,0,0)" stroke-width="2"  />
			<g>
				<title>Pro_CA (PF00484)
"Carbonic anhydrase"</title>
				<polygon class="PF00484" points="76,28 79,28 86,40 79,52 76,52" stroke-linejoin="round" width="12" height="24" fill="rgb(215,92,126)" stroke="rgb(172,73,100)" stroke-width="1" opacity="0.75" />
			</g>
		</g>
		<g>
			<title> (ctg4674_7)</title>
			<polygon class=" (ctg4674_7)" points="96,10 125,40 96,70" fill="rgb(255,255,255)" fill-opacity="1.0" stroke="rgb(0,0,0)" stroke-width="2"  />
			<g>
				<title>PhzC-PhzF (PF02567)
"Phenazine biosynthesis-like protein"</title>
				<polygon class="PF02567" points="96,28 109,28 114,33 114,47 109,52 96,52" stroke-linejoin="round" width="18" height="24" fill="rgb(223,91,96)" stroke="rgb(178,72,76)" stroke-width="1" opacity="0.75" />
			</g>
		</g>
		<g>
			<title> (ctg4674_8)</title>
			<polygon class=" (ctg4674_8)" points="128,40 145,10 145,70" fill="rgb(255,255,255)" fill-opacity="1.0" stroke="rgb(0,0,0)" stroke-width="2"  />
			<g>
				<title>Trp_halogenase (PF04820)
"Tryptophan halogenase"</title>
				<polygon class="PF04820" points="132,38 138,28 144,28 144,52 138,52 132,42" stroke-linejoin="round" width="12" height="24" fill="rgb(179,74,194)" stroke="rgb(143,59,155)" stroke-width="1" opacity="0.75" />
			</g>
		</g>
		<g>
			<title> (ctg4674_9)</title>
			<polygon class=" (ctg4674_9)" points="153,10 170,40 153,70" fill="rgb(255,255,255)" fill-opacity="1.0" stroke="rgb(0,0,0)" stroke-width="2"  />
		</g>
		<g>
			<title> (ctg4674_10)</title>
			<polygon class=" (ctg4674_10)" points="176,10 184,40 176,70" fill="rgb(255,255,255)" fill-opacity="1.0" stroke="rgb(0,0,0)" stroke-width="2"  />
			<g>
				<title>NHase_alpha (PF02979)
"Nitrile hydratase, alpha chain"</title>
				<polygon class="PF02979" points="177,28 177,28 181,40 177,52 177,52" stroke-linejoin="round" width="6" height="24" fill="rgb(204,148,70)" stroke="rgb(163,118,56)" stroke-width="1" opacity="0.75" />
			</g>
		</g>
		<g>
			<title> (ctg4674_11)</title>
			<polygon class=" (ctg4674_11)" points="234,25 228,25 228,10 198,40 228,70 228,55 234,55" fill="rgb(255,255,255)" fill-opacity="1.0" stroke="rgb(0,0,0)" stroke-width="2"  />
		</g>
		<g>
			<title> (ctg4674_12)</title>
			<polygon class=" (ctg4674_12)" points="312,25 266,25 266,10 236,40 266,70 266,55 312,55" fill="rgb(255,255,255)" fill-opacity="1.0" stroke="rgb(0,0,0)" stroke-width="2"  />
			<g>
				<title>YcaO (PF02624)
"YcaO cyclodehydratase, ATP-ad Mg2+-binding"</title>
				<polygon class="PF02624" points="240,40 252,28 272,28 272,52 252,52" stroke-linejoin="round" width="33" height="24" fill="rgb(76,84,185)" stroke="rgb(60,67,148)" stroke-width="1" opacity="0.75" />
			</g>
		</g>
		<g>
			<title> (ctg4674_13)</title>
			<polygon class=" (ctg4674_13)" points="348,25 344,25 344,10 314,40 344,70 344,55 348,55" fill="rgb(255,255,255)" fill-opacity="1.0" stroke="rgb(0,0,0)" stroke-width="2"  />
			<g>
				<title>GlnE (PF03710)
"Glutamate-ammonia ligase adenylyltransferase"</title>
				<rect class="PF03710" x="334" y="28" stroke-linejoin="round" width="13" height="24" fill="rgb(81,188,126)" stroke="rgb(64,150,100)" stroke-width="1" opacity="0.75" />
			</g>
		</g>
	</g>
</svg>
