<svg version="1.1" baseProfile="full" xmlns="http://www.w3.org/2000/svg" width="820.4" height="80">
	<g>
		<line x1="10" y1="40.0" x2="810.4" y2="40.0" style="stroke:rgb(70,70,70); stroke-width:3 "/>
		<g>
			<title> (ctg138_111)</title>
			<polygon class=" (ctg138_111)" points="56,10 64,40 56,70" fill="rgb(255,255,255)" fill-opacity="1.0" stroke="rgb(0,0,0)" stroke-width="2"  />
			<g>
				<title>PSK_trans_fac (PF07704)
"Rv0623-like transcription factor"</title>
				<polygon class="PF07704" points="56,28 57,28 61,40 57,52 56,52" stroke-linejoin="round" width="8" height="24" fill="rgb(174,203,82)" stroke="rgb(139,162,65)" stroke-width="1" opacity="0.75" />
			</g>
		</g>
		<g>
			<title> (ctg138_112)</title>
			<polygon class=" (ctg138_112)" points="65,10 78,40 65,70" fill="rgb(255,255,255)" fill-opacity="1.0" stroke="rgb(0,0,0)" stroke-width="2"  />
			<g>
				<title>PIN (PF01850)
"PIN domain"</title>
				<polygon class="PF01850" points="65,28 69,28 74,40 69,52 65,52" stroke-linejoin="round" width="12" height="24" fill="rgb(91,217,126)" stroke="rgb(72,173,100)" stroke-width="1" opacity="0.75" />
			</g>
		</g>
		<g>
			<title> (ctg138_113)</title>
			<polygon class=" (ctg138_113)" points="115,25 111,25 111,10 81,40 111,70 111,55 115,55" fill="rgb(255,255,255)" fill-opacity="1.0" stroke="rgb(0,0,0)" stroke-width="2"  />
			<g>
				<title>McrBC (PF10117)
"McrBC 5-methylcytosine restriction system component"</title>
				<polygon class="PF10117" points="85,40 97,28 114,28 114,52 97,52 85,40" stroke-linejoin="round" width="29" height="24" fill="rgb(91,223,124)" stroke="rgb(72,178,99)" stroke-width="1" opacity="0.75" />
			</g>
		</g>
		<g>
			<title> (ctg138_114)</title>
			<polygon class=" (ctg138_114)" points="187,25 145,25 145,10 115,40 145,70 145,55 187,55" fill="rgb(255,255,255)" fill-opacity="1.0" stroke="rgb(0,0,0)" stroke-width="2"  />
			<g>
				<title>AAA_5 (PF07728)
"AAA domain (dynein-related subfamily)"</title>
				<polygon class="PF07728" points="125,34 131,28 140,28 140,52 131,52 125,46" stroke-linejoin="round" width="15" height="24" fill="rgb(216,227,88)" stroke="rgb(172,181,70)" stroke-width="1" opacity="0.75" />
			</g>
		</g>
		<g>
			<title> (ctg138_115)</title>
			<polygon class=" (ctg138_115)" points="198,10 217,40 198,70" fill="rgb(255,255,255)" fill-opacity="1.0" stroke="rgb(0,0,0)" stroke-width="2"  />
		</g>
		<g>
			<title> (ctg138_116)</title>
			<polygon class=" (ctg138_116)" points="222,10 242,40 222,70" fill="rgb(255,255,255)" fill-opacity="1.0" stroke="rgb(0,0,0)" stroke-width="2"  />
		</g>
		<g>
			<title> (ctg138_117)</title>
			<polygon class=" (ctg138_117)" points="248,10 269,40 248,70" fill="rgb(255,255,255)" fill-opacity="1.0" stroke="rgb(0,0,0)" stroke-width="2"  />
		</g>
		<g>
			<title> (ctg138_118)</title>
			<polygon class=" (ctg138_118)" points="315,25 303,25 303,10 273,40 303,70 303,55 315,55" fill="rgb(255,255,255)" fill-opacity="1.0" stroke="rgb(0,0,0)" stroke-width="2"  />
			<g>
				<title>HipA_C (PF07804)
"HipA-like C-terminal domain"</title>
				<polygon class="PF07804" points="277,40 289,28 298,28 298,52 289,52" stroke-linejoin="round" width="22" height="24" fill="rgb(52,106,179)" stroke="rgb(41,84,143)" stroke-width="1" opacity="0.75" />
			</g>
			<g>
				<title>Couple_hipA (PF13657)
"HipA N-terminal domain"</title>
				<rect class="PF13657" x="303" y="28" stroke-linejoin="round" width="10" height="24" fill="rgb(65,181,177)" stroke="rgb(52,144,141)" stroke-width="1" opacity="0.75" />
			</g>
		</g>
		<g>
			<title> (ctg138_119)</title>
			<polygon class=" (ctg138_119)" points="315,40 324,10 324,70" fill="rgb(255,255,255)" fill-opacity="1.0" stroke="rgb(0,0,0)" stroke-width="2"  />
		</g>
		<g>
			<title> (ctg138_120)</title>
			<polygon class=" (ctg138_120)" points="339,25 343,25 343,10 373,40 343,70 343,55 339,55" fill="rgb(255,255,255)" fill-opacity="1.0" stroke="rgb(0,0,0)" stroke-width="2"  />
		</g>
		<g>
			<title> (ctg138_121)</title>
			<polygon class=" (ctg138_121)" points="384,25 429,25 429,10 459,40 429,70 429,55 384,55" fill="rgb(255,255,255)" fill-opacity="1.0" stroke="rgb(0,0,0)" stroke-width="2"  />
		</g>
		<g>
			<title> (ctg138_122)</title>
			<polygon class=" (ctg138_122)" points="459,25 468,25 468,10 498,40 468,70 468,55 459,55" fill="rgb(255,255,255)" fill-opacity="1.0" stroke="rgb(0,0,0)" stroke-width="2"  />
		</g>
		<g>
			<title> (ctg138_123)</title>
			<polygon class=" (ctg138_123)" points="499,10 509,40 499,70" fill="rgb(255,255,255)" fill-opacity="1.0" stroke="rgb(0,0,0)" stroke-width="2"  />
		</g>
		<g>
			<title> (ctg138_124)</title>
			<polygon class=" (ctg138_124)" points="518,40 528,10 528,70" fill="rgb(255,255,255)" fill-opacity="1.0" stroke="rgb(0,0,0)" stroke-width="2"  />
		</g>
		<g>
			<title> (ctg138_125)</title>
			<polygon class=" (ctg138_125)" points="535,40 564,10 564,70" fill="rgb(255,255,255)" fill-opacity="1.0" stroke="rgb(0,0,0)" stroke-width="2"  />
			<g>
				<title>TauD (PF02668)
"Taurine catabolism dioxygenase TauD, TfdA family"</title>
				<polygon class="PF02668" points="539,40 551,28 563,28 563,52 551,52" stroke-linejoin="round" width="26" height="24" fill="rgb(180,79,217)" stroke="rgb(144,63,173)" stroke-width="1" opacity="0.75" />
			</g>
		</g>
		<g>
			<title> (ctg138_126)</title>
			<polygon class=" (ctg138_126)" points="573,10 602,40 573,70" fill="rgb(255,255,255)" fill-opacity="1.0" stroke="rgb(0,0,0)" stroke-width="2"  />
			<g>
				<title>Abhydrolase_6 (PF12697)
"Alpha/beta hydrolase family"</title>
				<polygon class="PF12697" points="576,28 586,28 598,40 586,52 576,52" stroke-linejoin="round" width="25" height="24" fill="rgb(113,71,219)" stroke="rgb(90,56,175)" stroke-width="1" opacity="0.75" />
			</g>
		</g>
		<g>
			<title> (ctg138_127)</title>
			<polygon class=" (ctg138_127)" points="605,40 612,10 612,70" fill="rgb(255,255,255)" fill-opacity="1.0" stroke="rgb(0,0,0)" stroke-width="2"  />
			<g>
				<title>PP-binding (PF00550)
"Phosphopantetheine attachment site"</title>
				<polygon class="PF00550" points="608,40 611,28 611,28 611,52 611,52" stroke-linejoin="round" width="6" height="24" fill="rgb(103,191,88)" stroke="rgb(82,152,70)" stroke-width="1" opacity="0.75" />
			</g>
		</g>
		<g>
			<title> (ctg138_128)</title>
			<polygon class=" (ctg138_128)" points="621,10 644,40 621,70" fill="rgb(255,255,255)" fill-opacity="1.0" stroke="rgb(0,0,0)" stroke-width="2"  />
			<g>
				<title>ACPS (PF01648)
"4'-phosphopantetheinyl transferase superfamily"</title>
				<polygon class="PF01648" points="632,30 640,40 632,50" stroke-linejoin="round" width="10" height="24" fill="rgb(85,184,135)" stroke="rgb(68,147,108)" stroke-width="1" opacity="0.75" />
			</g>
		</g>
		<g>
			<title> (ctg138_129)</title>
			<polygon class=" (ctg138_129)" points="645,25 645,25 645,10 675,40 645,70 645,55 645,55" fill="rgb(255,255,255)" fill-opacity="1.0" stroke="rgb(0,0,0)" stroke-width="2"  />
			<g>
				<title>Abhydrolase_6 (PF12697)
"Alpha/beta hydrolase family"</title>
				<polygon class="PF12697" points="648,28 659,28 671,40 659,52 648,52" stroke-linejoin="round" width="25" height="24" fill="rgb(113,71,219)" stroke="rgb(90,56,175)" stroke-width="1" opacity="0.75" />
			</g>
		</g>
		<g>
			<title> (ctg138_130)</title>
			<polygon class=" (ctg138_130)" points="809,25 706,25 706,10 676,40 706,70 706,55 809,55" fill="rgb(255,255,255)" fill-opacity="1.0" stroke="rgb(0,0,0)" stroke-width="2"  />
			<g>
				<title>Acyl_transf_1 (PF00698)
"Acyl transferase domain"</title>
				<polygon class="PF00698" points="687,33 692,28 703,28 703,52 692,52 687,47" stroke-linejoin="round" width="16" height="24" fill="rgb(59,176,209)" stroke="rgb(47,140,167)" stroke-width="1" opacity="0.75" />
			</g>
			<g>
				<title>KAsynt_C_assoc (PF16197)
"Ketoacyl-synthetase C-terminal extension"</title>
				<rect class="PF16197" x="709" y="28" stroke-linejoin="round" width="14" height="24" fill="rgb(240,150,172)" stroke="rgb(192,120,137)" stroke-width="1" opacity="0.75" />
			</g>
			<g>
				<title>Ketoacyl-synt_C (PF02801)
"Beta-ketoacyl synthase, C-terminal domain"</title>
				<rect class="PF02801" x="723" y="28" stroke-linejoin="round" width="11" height="24" fill="rgb(215,78,102)" stroke="rgb(172,62,81)" stroke-width="1" opacity="0.75" />
			</g>
			<g>
				<title>ketoacyl-synt (PF00109)
"Beta-ketoacyl synthase, N-terminal domain"</title>
				<rect class="PF00109" x="736" y="28" stroke-linejoin="round" width="24" height="24" fill="rgb(112,116,228)" stroke="rgb(89,92,182)" stroke-width="1" opacity="0.75" />
			</g>
			<g>
				<title>PP-binding (PF00550)
"Phosphopantetheine attachment site"</title>
				<rect class="PF00550" x="763" y="28" stroke-linejoin="round" width="6" height="24" fill="rgb(103,191,88)" stroke="rgb(82,152,70)" stroke-width="1" opacity="0.75" />
			</g>
			<g>
				<title>KR (PF08659)
"KR domain"</title>
				<rect class="PF08659" x="780" y="28" stroke-linejoin="round" width="17" height="24" fill="rgb(66,209,188)" stroke="rgb(52,167,150)" stroke-width="1" opacity="0.75" />
			</g>
			<g>
				<title>ADH_zinc_N_2 (PF13602)
"Zinc-binding dehydrogenase"</title>
				<rect class="PF13602" x="799" y="28" stroke-linejoin="round" width="10" height="24" fill="rgb(101,131,226)" stroke="rgb(80,104,180)" stroke-width="1" opacity="0.75" />
			</g>
		</g>
	</g>
</svg>
