<svg version="1.1" baseProfile="full" xmlns="http://www.w3.org/2000/svg" width="202.73333333333332" height="80">
	<g>
		<line x1="10" y1="40.0" x2="192.73333333333332" y2="40.0" style="stroke:rgb(70,70,70); stroke-width:3 "/>
		<g>
			<title> (ctg15170_1)</title>
			<polygon class=" (ctg15170_1)" points="41,25 40,25 40,10 10,40 40,70 40,55 41,55" fill="rgb(255,255,255)" fill-opacity="1.0" stroke="rgb(0,0,0)" stroke-width="2"  />
			<g>
				<title>DUF222 (PF02720)
"Domain of unknown function (DUF222)"</title>
				<polygon class="PF02720" points="16,38 26,28 38,28 38,52 26,52 16,42" stroke-linejoin="round" width="22" height="24" fill="rgb(190,119,92)" stroke="rgb(152,95,73)" stroke-width="1" opacity="0.75" />
			</g>
		</g>
		<g>
			<title> (ctg15170_2)</title>
			<polygon class=" (ctg15170_2)" points="44,10 71,40 44,70" fill="rgb(255,255,255)" fill-opacity="1.0" stroke="rgb(0,0,0)" stroke-width="2"  />
			<g>
				<title>Pribosyltran (PF00156)
"Phosphoribosyl transferase domain"</title>
				<polygon class="PF00156" points="56,28 67,40 56,52" stroke-linejoin="round" width="12" height="24" fill="rgb(210,210,74)" stroke="rgb(168,168,59)" stroke-width="1" opacity="0.75" />
			</g>
		</g>
		<g>
			<title> (ctg15170_3)</title>
			<polygon class=" (ctg15170_3)" points="73,10 81,40 73,70" fill="rgb(255,255,255)" fill-opacity="1.0" stroke="rgb(0,0,0)" stroke-width="2"  />
		</g>
		<g>
			<title> (ctg15170_4)</title>
			<polygon class=" (ctg15170_4)" points="154,25 116,25 116,10 86,40 116,70 116,55 154,55" fill="rgb(255,255,255)" fill-opacity="1.0" stroke="rgb(0,0,0)" stroke-width="2"  />
			<g>
				<title>SQHop_cyclase_C (PF13243)
"Squalene-hopene cyclase C-terminal domain"</title>
				<polygon class="PF13243" points="92,38 102,28 122,28 122,52 102,52 92,42" stroke-linejoin="round" width="30" height="24" fill="rgb(191,58,201)" stroke="rgb(152,46,160)" stroke-width="1" opacity="0.75" />
			</g>
			<g>
				<title>SQHop_cyclase_N (PF13249)
"Squalene-hopene cyclase N-terminal domain"</title>
				<rect class="PF13249" x="124" y="28" stroke-linejoin="round" width="28" height="24" fill="rgb(88,190,89)" stroke="rgb(70,152,71)" stroke-width="1" opacity="0.75" />
			</g>
		</g>
		<g>
			<title> (ctg15170_5)</title>
			<polygon class=" (ctg15170_5)" points="188,25 184,25 184,10 154,40 184,70 184,55 188,55" fill="rgb(255,255,255)" fill-opacity="1.0" stroke="rgb(0,0,0)" stroke-width="2"  />
			<g>
				<title>Epimerase (PF01370)
"NAD dependent epimerase/dehydratase family"</title>
				<polygon class="PF01370" points="165,33 170,28 187,28 187,52 170,52 165,47" stroke-linejoin="round" width="22" height="24" fill="rgb(98,102,214)" stroke="rgb(78,81,171)" stroke-width="1" opacity="0.75" />
			</g>
		</g>
	</g>
</svg>
