<svg version="1.1" baseProfile="full" xmlns="http://www.w3.org/2000/svg" width="300.6333333333333" height="80">
	<g>
		<line x1="10" y1="40.0" x2="290.6333333333333" y2="40.0" style="stroke:rgb(70,70,70); stroke-width:3 "/>
		<g>
			<title> (ctg832_47)</title>
			<polygon class=" (ctg832_47)" points="44,25 42,25 42,10 12,40 42,70 42,55 44,55" fill="rgb(255,255,255)" fill-opacity="1.0" stroke="rgb(0,0,0)" stroke-width="2"  />
			<g>
				<title>TauD (PF02668)
"Taurine catabolism dioxygenase TauD, TfdA family"</title>
				<polygon class="PF02668" points="16,40 28,28 40,28 40,52 28,52" stroke-linejoin="round" width="26" height="24" fill="rgb(180,79,217)" stroke="rgb(144,63,173)" stroke-width="1" opacity="0.75" />
			</g>
		</g>
		<g>
			<title> (ctg832_48)</title>
			<polygon class=" (ctg832_48)" points="88,25 75,25 75,10 45,40 75,70 75,55 88,55" fill="rgb(255,255,255)" fill-opacity="1.0" stroke="rgb(0,0,0)" stroke-width="2"  />
			<g>
				<title>HlyD_3 (PF13437)
"HlyD family secretion protein"</title>
				<polygon class="PF13437" points="49,40 61,28 61,28 61,52 61,52" stroke-linejoin="round" width="13" height="24" fill="rgb(82,200,102)" stroke="rgb(65,160,81)" stroke-width="1" opacity="0.75" />
			</g>
		</g>
		<g>
			<title> (ctg832_49)</title>
			<polygon class=" (ctg832_49)" points="151,25 119,25 119,10 89,40 119,70 119,55 151,55" fill="rgb(255,255,255)" fill-opacity="1.0" stroke="rgb(0,0,0)" stroke-width="2"  />
			<g>
				<title>ABC_tran (PF00005)
"ABC transporter"</title>
				<polygon class="PF00005" points="98,35 105,28 112,28 112,52 105,52 98,45" stroke-linejoin="round" width="14" height="24" fill="rgb(129,201,63)" stroke="rgb(103,160,50)" stroke-width="1" opacity="0.75" />
			</g>
			<g>
				<title>ABC_membrane (PF00664)
"ABC transporter transmembrane region"</title>
				<rect class="PF00664" x="119" y="28" stroke-linejoin="round" width="26" height="24" fill="rgb(149,226,73)" stroke="rgb(119,180,58)" stroke-width="1" opacity="0.75" />
			</g>
		</g>
		<g>
			<title> (ctg832_50)</title>
			<polygon class=" (ctg832_50)" points="151,40 176,10 176,70" fill="rgb(255,255,255)" fill-opacity="1.0" stroke="rgb(0,0,0)" stroke-width="2"  />
		</g>
		<g>
			<title> (ctg832_51)</title>
			<polygon class=" (ctg832_51)" points="176,40 205,10 205,70" fill="rgb(255,255,255)" fill-opacity="1.0" stroke="rgb(0,0,0)" stroke-width="2"  />
			<g>
				<title>DUF692 (PF05114)
"Protein of unknown function (DUF692)"</title>
				<polygon class="PF05114" points="180,40 192,28 203,28 203,52 192,52" stroke-linejoin="round" width="26" height="24" fill="rgb(63,196,127)" stroke="rgb(50,156,101)" stroke-width="1" opacity="0.75" />
			</g>
		</g>
		<g>
			<title> (ctg832_52)</title>
			<polygon class=" (ctg832_52)" points="246,25 243,25 243,10 213,40 243,70 243,55 246,55" fill="rgb(255,255,255)" fill-opacity="1.0" stroke="rgb(0,0,0)" stroke-width="2"  />
		</g>
		<g>
			<title> (ctg832_53)</title>
			<polygon class=" (ctg832_53)" points="251,25 255,25 255,10 285,40 255,70 255,55 251,55" fill="rgb(255,255,255)" fill-opacity="1.0" stroke="rgb(0,0,0)" stroke-width="2"  />
			<g>
				<title>Sulf_transp (PF04143)
"Sulphur transport"</title>
				<polygon class="PF04143" points="254,28 269,28 281,40 269,52 254,52" stroke-linejoin="round" width="30" height="24" fill="rgb(166,79,214)" stroke="rgb(132,63,171)" stroke-width="1" opacity="0.75" />
			</g>
		</g>
		<g>
			<title> (ctg832_54)</title>
			<polygon class=" (ctg832_54)" points="286,40 289,10 289,70" fill="rgb(255,255,255)" fill-opacity="1.0" stroke="rgb(0,0,0)" stroke-width="2"  />
		</g>
	</g>
</svg>
