<svg version="1.1" baseProfile="full" xmlns="http://www.w3.org/2000/svg" width="383.1333333333333" height="80">
	<g>
		<line x1="10" y1="40.0" x2="373.1333333333333" y2="40.0" style="stroke:rgb(70,70,70); stroke-width:3 "/>
		<g>
			<title> (ctg1_3789)</title>
			<polygon class=" (ctg1_3789)" points="90,25 54,25 54,10 24,40 54,70 54,55 90,55" fill="rgb(255,255,255)" fill-opacity="1.0" stroke="rgb(0,0,0)" stroke-width="2"  />
			<g>
				<title>DUF4838 (PF16126)
"Domain of unknown function (DUF4838)"</title>
				<polygon class="PF16126" points="38,30 40,28 66,28 66,52 40,52 38,50" stroke-linejoin="round" width="28" height="24" fill="rgb(86,135,227)" stroke="rgb(68,108,181)" stroke-width="1" opacity="0.75" />
			</g>
		</g>
		<g>
			<title> (ctg1_3790)</title>
			<polygon class=" (ctg1_3790)" points="92,40 110,10 110,70" fill="rgb(255,255,255)" fill-opacity="1.0" stroke="rgb(0,0,0)" stroke-width="2"  />
			<g>
				<title>Acetyltransf_3 (PF13302)
"Acetyltransferase (GNAT) domain"</title>
				<polygon class="PF13302" points="96,40 103,28 109,28 109,52 103,52" stroke-linejoin="round" width="14" height="24" fill="rgb(105,146,215)" stroke="rgb(84,116,172)" stroke-width="1" opacity="0.75" />
			</g>
		</g>
		<g>
			<title> (ctg1_3791)</title>
			<polygon class=" (ctg1_3791)" points="111,40 128,10 128,70" fill="rgb(255,255,255)" fill-opacity="1.0" stroke="rgb(0,0,0)" stroke-width="2"  />
			<g>
				<title>NUDIX (PF00293)
"NUDIX domain"</title>
				<polygon class="PF00293" points="114,40 121,28 124,28 124,52 121,52" stroke-linejoin="round" width="13" height="24" fill="rgb(92,56,187)" stroke="rgb(73,44,149)" stroke-width="1" opacity="0.75" />
			</g>
		</g>
		<g>
			<title> (ctg1_3792)</title>
			<polygon class=" (ctg1_3792)" points="173,25 159,25 159,10 129,40 159,70 159,55 173,55" fill="rgb(255,255,255)" fill-opacity="1.0" stroke="rgb(0,0,0)" stroke-width="2"  />
			<g>
				<title>Pyr_redox_dim (PF02852)
"Pyridine nucleotide-disulphide oxidoreductase, dimerisation domain"</title>
				<polygon class="PF02852" points="133,40 138,35 138,45" stroke-linejoin="round" width="9" height="24" fill="rgb(191,148,67)" stroke="rgb(152,118,53)" stroke-width="1" opacity="0.75" />
			</g>
			<g>
				<title>Pyr_redox_2 (PF07992)
"Pyridine nucleotide-disulphide oxidoreductase"</title>
				<polygon class="PF07992" points="141,32 145,28 172,28 172,52 145,52 141,48" stroke-linejoin="round" width="31" height="24" fill="rgb(83,223,167)" stroke="rgb(66,178,133)" stroke-width="1" opacity="0.75" />
			</g>
		</g>
		<g>
			<title> (ctg1_3793)</title>
			<polygon class=" (ctg1_3793)" points="176,40 205,10 205,70" fill="rgb(255,255,255)" fill-opacity="1.0" stroke="rgb(0,0,0)" stroke-width="2"  />
			<g>
				<title>DUF692 (PF05114)
"Protein of unknown function (DUF692)"</title>
				<polygon class="PF05114" points="182,38 192,28 203,28 203,52 192,52 182,42" stroke-linejoin="round" width="21" height="24" fill="rgb(63,196,127)" stroke="rgb(50,156,101)" stroke-width="1" opacity="0.75" />
			</g>
		</g>
		<g>
			<title> (ctg1_3794)</title>
			<polygon class=" (ctg1_3794)" points="253,25 242,25 242,10 212,40 242,70 242,55 253,55" fill="rgb(255,255,255)" fill-opacity="1.0" stroke="rgb(0,0,0)" stroke-width="2"  />
			<g>
				<title>MFS_3 (PF05977)
"Transmembrane secretion effector"</title>
				<polygon class="PF05977" points="216,40 228,28 252,28 252,52 228,52" stroke-linejoin="round" width="40" height="24" fill="rgb(80,62,217)" stroke="rgb(64,49,173)" stroke-width="1" opacity="0.75" />
			</g>
		</g>
		<g>
			<title> (ctg1_3795)</title>
			<polygon class=" (ctg1_3795)" points="254,40 277,10 277,70" fill="rgb(255,255,255)" fill-opacity="1.0" stroke="rgb(0,0,0)" stroke-width="2"  />
			<g>
				<title>PhyH (PF05721)
"Phytanoyl-CoA dioxygenase (PhyH)"</title>
				<polygon class="PF05721" points="258,40 267,28 275,28 275,52 267,52" stroke-linejoin="round" width="18" height="24" fill="rgb(72,132,214)" stroke="rgb(57,105,171)" stroke-width="1" opacity="0.75" />
			</g>
		</g>
		<g>
			<title> (ctg1_3796)</title>
			<polygon class=" (ctg1_3796)" points="279,40 295,10 295,70" fill="rgb(255,255,255)" fill-opacity="1.0" stroke="rgb(0,0,0)" stroke-width="2"  />
			<g>
				<title>DUF2441 (PF10386)
"Protein of unknown function (DUF2441)"</title>
				<polygon class="PF10386" points="282,40 289,28 292,28 292,52 289,52" stroke-linejoin="round" width="11" height="24" fill="rgb(88,62,193)" stroke="rgb(70,49,154)" stroke-width="1" opacity="0.75" />
			</g>
		</g>
		<g>
			<title> (ctg1_3797)</title>
			<polygon class=" (ctg1_3797)" points="297,40 323,10 323,70" fill="rgb(255,255,255)" fill-opacity="1.0" stroke="rgb(0,0,0)" stroke-width="2"  />
			<g>
				<title>Methyltransf_25 (PF13649)
"Methyltransferase domain"</title>
				<polygon class="PF13649" points="309,31 312,28 318,28 318,52 312,52 309,49" stroke-linejoin="round" width="9" height="24" fill="rgb(227,135,74)" stroke="rgb(181,108,59)" stroke-width="1" opacity="0.75" />
			</g>
		</g>
		<g>
			<title> (ctg1_3798)</title>
			<polygon class=" (ctg1_3798)" points="326,40 345,10 345,70" fill="rgb(255,255,255)" fill-opacity="1.0" stroke="rgb(0,0,0)" stroke-width="2"  />
			<g>
				<title>AAA_33 (PF13671)
"AAA domain"</title>
				<polygon class="PF13671" points="330,40 338,28 344,28 344,52 338,52 330,40" stroke-linejoin="round" width="14" height="24" fill="rgb(83,141,224)" stroke="rgb(66,112,179)" stroke-width="1" opacity="0.75" />
			</g>
		</g>
		<g>
			<title> (ctg1_3799)</title>
			<polygon class=" (ctg1_3799)" points="349,40 367,10 367,70" fill="rgb(255,255,255)" fill-opacity="1.0" stroke="rgb(0,0,0)" stroke-width="2"  />
			<g>
				<title>Acetyltransf_3 (PF13302)
"Acetyltransferase (GNAT) domain"</title>
				<polygon class="PF13302" points="353,40 360,28 365,28 365,52 360,52" stroke-linejoin="round" width="13" height="24" fill="rgb(105,146,215)" stroke="rgb(84,116,172)" stroke-width="1" opacity="0.75" />
			</g>
		</g>
	</g>
</svg>
