<svg version="1.1" baseProfile="full" xmlns="http://www.w3.org/2000/svg" width="285.56666666666666" height="80">
	<g>
		<line x1="10" y1="40.0" x2="275.56666666666666" y2="40.0" style="stroke:rgb(70,70,70); stroke-width:3 "/>
		<g>
			<title> (ctg1391_20)</title>
			<polygon class=" (ctg1391_20)" points="11,10 30,40 11,70" fill="rgb(255,255,255)" fill-opacity="1.0" stroke="rgb(0,0,0)" stroke-width="2"  />
			<g>
				<title>LptE (PF04390)
"Lipopolysaccharide-assembly"</title>
				<polygon class="PF04390" points="16,28 19,28 27,40 19,52 16,52" stroke-linejoin="round" width="13" height="24" fill="rgb(199,204,70)" stroke="rgb(159,163,56)" stroke-width="1" opacity="0.75" />
			</g>
		</g>
		<g>
			<title> (ctg1391_21)</title>
			<polygon class=" (ctg1391_21)" points="31,25 35,25 35,10 65,40 35,70 35,55 31,55" fill="rgb(255,255,255)" fill-opacity="1.0" stroke="rgb(0,0,0)" stroke-width="2"  />
			<g>
				<title>DNA_pol3_delta (PF06144)
"DNA polymerase III, delta subunit"</title>
				<rect class="PF06144" x="32" y="28" stroke-linejoin="round" width="16" height="24" fill="rgb(196,60,53)" stroke="rgb(156,47,42)" stroke-width="1" opacity="0.75" />
			</g>
		</g>
		<g>
			<title> (ctg1391_22)</title>
			<polygon class=" (ctg1391_22)" points="67,40 80,10 80,70" fill="rgb(255,255,255)" fill-opacity="1.0" stroke="rgb(0,0,0)" stroke-width="2"  />
			<g>
				<title>CMD (PF02627)
"Carboxymuconolactone decarboxylase family"</title>
				<polygon class="PF02627" points="70,40 75,28 76,28 76,52 75,52" stroke-linejoin="round" width="8" height="24" fill="rgb(58,205,164)" stroke="rgb(46,164,131)" stroke-width="1" opacity="0.75" />
			</g>
		</g>
		<g>
			<title> (ctg1391_23)</title>
			<polygon class=" (ctg1391_23)" points="96,10 119,40 96,70" fill="rgb(255,255,255)" fill-opacity="1.0" stroke="rgb(0,0,0)" stroke-width="2"  />
			<g>
				<title>Ferrochelatase (PF00762)
"Ferrochelatase"</title>
				<polygon class="PF00762" points="96,28 106,28 115,40 106,52 96,52" stroke-linejoin="round" width="22" height="24" fill="rgb(46,104,183)" stroke="rgb(36,83,146)" stroke-width="1" opacity="0.75" />
			</g>
		</g>
		<g>
			<title> (ctg1391_24)</title>
			<polygon class=" (ctg1391_24)" points="140,10 148,40 140,70" fill="rgb(255,255,255)" fill-opacity="1.0" stroke="rgb(0,0,0)" stroke-width="2"  />
		</g>
		<g>
			<title> (ctg1391_25)</title>
			<polygon class=" (ctg1391_25)" points="149,40 177,10 177,70" fill="rgb(255,255,255)" fill-opacity="1.0" stroke="rgb(0,0,0)" stroke-width="2"  />
			<g>
				<title>DUF2063 (PF09836)
"Putative DNA-binding domain"</title>
				<rect class="PF09836" x="165" y="28" stroke-linejoin="round" width="10" height="24" fill="rgb(88,194,190)" stroke="rgb(70,155,152)" stroke-width="1" opacity="0.75" />
			</g>
		</g>
		<g>
			<title> (ctg1391_26)</title>
			<polygon class=" (ctg1391_26)" points="176,40 204,10 204,70" fill="rgb(255,255,255)" fill-opacity="1.0" stroke="rgb(0,0,0)" stroke-width="2"  />
			<g>
				<title>DUF692 (PF05114)
"Protein of unknown function (DUF692)"</title>
				<polygon class="PF05114" points="180,40 191,28 203,28 203,52 191,52" stroke-linejoin="round" width="26" height="24" fill="rgb(63,196,127)" stroke="rgb(50,156,101)" stroke-width="1" opacity="0.75" />
			</g>
		</g>
		<g>
			<title> (ctg1391_27)</title>
			<polygon class=" (ctg1391_27)" points="209,40 221,10 221,70" fill="rgb(255,255,255)" fill-opacity="1.0" stroke="rgb(0,0,0)" stroke-width="2"  />
		</g>
		<g>
			<title> (ctg1391_28)</title>
			<polygon class=" (ctg1391_28)" points="232,25 237,25 237,10 267,40 237,70 237,55 232,55" fill="rgb(255,255,255)" fill-opacity="1.0" stroke="rgb(0,0,0)" stroke-width="2"  />
			<g>
				<title>IF-2B (PF01008)
"Initiation factor 2 subunit family"</title>
				<polygon class="PF01008" points="236,28 250,28 262,40 250,52 236,52" stroke-linejoin="round" width="29" height="24" fill="rgb(195,91,90)" stroke="rgb(156,72,72)" stroke-width="1" opacity="0.75" />
			</g>
		</g>
		<g>
			<title> (ctg1391_29)</title>
			<polygon class=" (ctg1391_29)" points="264,40 272,10 272,70" fill="rgb(255,255,255)" fill-opacity="1.0" stroke="rgb(0,0,0)" stroke-width="2"  />
		</g>
		<g>
			<title> (ctg1391_30)</title>
			<polygon class=" (ctg1391_30)" points="272,10 274,40 272,70" fill="rgb(255,255,255)" fill-opacity="1.0" stroke="rgb(0,0,0)" stroke-width="2"  />
		</g>
	</g>
</svg>
