<svg version="1.1" baseProfile="full" xmlns="http://www.w3.org/2000/svg" width="388.1333333333333" height="80">
	<g>
		<line x1="10" y1="40.0" x2="378.1333333333333" y2="40.0" style="stroke:rgb(70,70,70); stroke-width:3 "/>
		<g>
			<title> (ctg7122_1)</title>
			<polygon class=" (ctg7122_1)" points="15,40 44,10 44,70" fill="rgb(255,255,255)" fill-opacity="1.0" stroke="rgb(0,0,0)" stroke-width="2"  />
			<g>
				<title>SQS_PSY (PF00494)
"Squalene/phytoene synthase"</title>
				<polygon class="PF00494" points="19,40 31,28 42,28 42,52 31,52" stroke-linejoin="round" width="26" height="24" fill="rgb(178,91,49)" stroke="rgb(142,72,39)" stroke-width="1" opacity="0.75" />
			</g>
		</g>
		<g>
			<title> (ctg7122_2)</title>
			<polygon class=" (ctg7122_2)" points="52,25 94,25 94,10 124,40 94,70 94,55 52,55" fill="rgb(255,255,255)" fill-opacity="1.0" stroke="rgb(0,0,0)" stroke-width="2"  />
			<g>
				<title>MMPL (PF03176)
"MMPL family"</title>
				<rect class="PF03176" x="56" y="28" stroke-linejoin="round" width="33" height="24" fill="rgb(228,109,193)" stroke="rgb(182,87,154)" stroke-width="1" opacity="0.75" />
			</g>
			<g>
				<title>MMPL (PF03176)
"MMPL family"</title>
				<polygon class="PF03176" points="92,28 108,28 120,40 108,52 92,52" stroke-linejoin="round" width="31" height="24" fill="rgb(228,109,193)" stroke="rgb(182,87,154)" stroke-width="1" opacity="0.75" />
			</g>
		</g>
		<g>
			<title> (ctg7122_3)</title>
			<polygon class=" (ctg7122_3)" points="127,10 148,40 127,70" fill="rgb(255,255,255)" fill-opacity="1.0" stroke="rgb(0,0,0)" stroke-width="2"  />
		</g>
		<g>
			<title> (ctg7122_4)</title>
			<polygon class=" (ctg7122_4)" points="150,10 166,40 150,70" fill="rgb(255,255,255)" fill-opacity="1.0" stroke="rgb(0,0,0)" stroke-width="2"  />
			<g>
				<title>DUF2236 (PF09995)
"Uncharacterized protein conserved in bacteria (DUF2236)"</title>
				<polygon class="PF09995" points="150,28 156,28 161,38 161,42 156,52 150,52" stroke-linejoin="round" width="11" height="24" fill="rgb(194,179,92)" stroke="rgb(155,143,73)" stroke-width="1" opacity="0.75" />
			</g>
		</g>
		<g>
			<title> (ctg7122_5)</title>
			<polygon class=" (ctg7122_5)" points="171,40 197,10 197,70" fill="rgb(255,255,255)" fill-opacity="1.0" stroke="rgb(0,0,0)" stroke-width="2"  />
			<g>
				<title>SNARE_assoc (PF09335)
"SNARE associated Golgi protein"</title>
				<polygon class="PF09335" points="181,33 186,28 193,28 193,52 186,52 181,47" stroke-linejoin="round" width="12" height="24" fill="rgb(145,188,82)" stroke="rgb(116,150,65)" stroke-width="1" opacity="0.75" />
			</g>
		</g>
		<g>
			<title> (ctg7122_6)</title>
			<polygon class=" (ctg7122_6)" points="204,25 264,25 264,10 294,40 264,70 264,55 204,55" fill="rgb(255,255,255)" fill-opacity="1.0" stroke="rgb(0,0,0)" stroke-width="2"  />
		</g>
		<g>
			<title> (ctg7122_7)</title>
			<polygon class=" (ctg7122_7)" points="346,25 328,25 328,10 298,40 328,70 328,55 346,55" fill="rgb(255,255,255)" fill-opacity="1.0" stroke="rgb(0,0,0)" stroke-width="2"  />
			<g>
				<title>DUF4976 (PF16347)
"Domain of unknown function (DUF4976)"</title>
				<polygon class="PF16347" points="302,40 308,34 308,46" stroke-linejoin="round" width="9" height="24" fill="rgb(122,75,207)" stroke="rgb(97,60,165)" stroke-width="1" opacity="0.75" />
			</g>
			<g>
				<title>Sulfatase (PF00884)
"Sulfatase"</title>
				<polygon class="PF00884" points="309,33 314,28 345,28 345,52 314,52 309,47" stroke-linejoin="round" width="36" height="24" fill="rgb(61,103,198)" stroke="rgb(48,82,158)" stroke-width="1" opacity="0.75" />
			</g>
		</g>
		<g>
			<title> (ctg7122_8)</title>
			<polygon class=" (ctg7122_8)" points="351,10 372,40 351,70" fill="rgb(255,255,255)" fill-opacity="1.0" stroke="rgb(0,0,0)" stroke-width="2"  />
		</g>
	</g>
</svg>
