<svg version="1.1" baseProfile="full" xmlns="http://www.w3.org/2000/svg" width="1022.2333333333333" height="80">
	<g>
		<line x1="10" y1="40.0" x2="1012.2333333333333" y2="40.0" style="stroke:rgb(70,70,70); stroke-width:3 "/>
		<g>
			<title> (ctg816_32)</title>
			<polygon class=" (ctg816_32)" points="43,10 52,40 43,70" fill="rgb(255,255,255)" fill-opacity="1.0" stroke="rgb(0,0,0)" stroke-width="2"  />
		</g>
		<g>
			<title> (ctg816_33)</title>
			<polygon class=" (ctg816_33)" points="52,10 65,40 52,70" fill="rgb(255,255,255)" fill-opacity="1.0" stroke="rgb(0,0,0)" stroke-width="2"  />
			<g>
				<title>PIN (PF01850)
"PIN domain"</title>
				<polygon class="PF01850" points="52,28 56,28 61,40 56,52 52,52" stroke-linejoin="round" width="12" height="24" fill="rgb(91,217,126)" stroke="rgb(72,173,100)" stroke-width="1" opacity="0.75" />
			</g>
		</g>
		<g>
			<title> (ctg816_34)</title>
			<polygon class=" (ctg816_34)" points="75,25 114,25 114,10 144,40 114,70 114,55 75,55" fill="rgb(255,255,255)" fill-opacity="1.0" stroke="rgb(0,0,0)" stroke-width="2"  />
			<g>
				<title>PD40 (PF07676)
"WD40-like Beta Propeller Repeat"</title>
				<rect class="PF07676" x="84" y="28" stroke-linejoin="round" width="2" height="24" fill="rgb(49,78,191)" stroke="rgb(39,62,152)" stroke-width="1" opacity="0.75" />
			</g>
			<g>
				<title>PD40 (PF07676)
"WD40-like Beta Propeller Repeat"</title>
				<rect class="PF07676" x="88" y="28" stroke-linejoin="round" width="2" height="24" fill="rgb(49,78,191)" stroke="rgb(39,62,152)" stroke-width="1" opacity="0.75" />
			</g>
			<g>
				<title>DPPIV_N (PF00930)
"Dipeptidyl peptidase IV (DPP IV) N-terminal region"</title>
				<rect class="PF00930" x="92" y="28" stroke-linejoin="round" width="12" height="24" fill="rgb(212,154,99)" stroke="rgb(169,123,79)" stroke-width="1" opacity="0.75" />
			</g>
			<g>
				<title>Peptidase_S9 (PF00326)
"Prolyl oligopeptidase family"</title>
				<polygon class="PF00326" points="122,28 127,28 139,40 127,52 122,52" stroke-linejoin="round" width="20" height="24" fill="rgb(77,97,209)" stroke="rgb(61,77,167)" stroke-width="1" opacity="0.75" />
			</g>
		</g>
		<g>
			<title> (ctg816_35)</title>
			<polygon class=" (ctg816_35)" points="147,25 149,25 149,10 179,40 149,70 149,55 147,55" fill="rgb(255,255,255)" fill-opacity="1.0" stroke="rgb(0,0,0)" stroke-width="2"  />
			<g>
				<title>Lactamase_B (PF00753)
"Metallo-beta-lactamase superfamily"</title>
				<polygon class="PF00753" points="149,28 162,28 169,35 169,45 162,52 149,52" stroke-linejoin="round" width="20" height="24" fill="rgb(206,198,96)" stroke="rgb(164,158,76)" stroke-width="1" opacity="0.75" />
			</g>
		</g>
		<g>
			<title> (ctg816_36)</title>
			<polygon class=" (ctg816_36)" points="179,40 185,10 185,70" fill="rgb(255,255,255)" fill-opacity="1.0" stroke="rgb(0,0,0)" stroke-width="2"  />
		</g>
		<g>
			<title> (ctg816_37)</title>
			<polygon class=" (ctg816_37)" points="190,25 191,25 191,10 221,40 191,70 191,55 190,55" fill="rgb(255,255,255)" fill-opacity="1.0" stroke="rgb(0,0,0)" stroke-width="2"  />
		</g>
		<g>
			<title> (ctg816_38)</title>
			<polygon class=" (ctg816_38)" points="263,25 253,25 253,10 223,40 253,70 253,55 263,55" fill="rgb(255,255,255)" fill-opacity="1.0" stroke="rgb(0,0,0)" stroke-width="2"  />
			<g>
				<title>Beta-lactamase (PF00144)
"Beta-lactamase"</title>
				<polygon class="PF00144" points="227,40 239,28 257,28 257,52 239,52" stroke-linejoin="round" width="34" height="24" fill="rgb(92,159,200)" stroke="rgb(73,127,160)" stroke-width="1" opacity="0.75" />
			</g>
		</g>
		<g>
			<title> (ctg816_39)</title>
			<polygon class=" (ctg816_39)" points="316,25 296,25 296,10 266,40 296,70 296,55 316,55" fill="rgb(255,255,255)" fill-opacity="1.0" stroke="rgb(0,0,0)" stroke-width="2"  />
			<g>
				<title>DUF2891 (PF11199)
"Protein of unknown function (DUF2891)"</title>
				<polygon class="PF11199" points="270,40 275,35 275,45" stroke-linejoin="round" width="8" height="24" fill="rgb(102,195,74)" stroke="rgb(81,156,59)" stroke-width="1" opacity="0.75" />
			</g>
			<g>
				<title>DUF2891 (PF11199)
"Protein of unknown function (DUF2891)"</title>
				<polygon class="PF11199" points="277,33 282,28 302,28 302,52 282,52 277,47" stroke-linejoin="round" width="25" height="24" fill="rgb(102,195,74)" stroke="rgb(81,156,59)" stroke-width="1" opacity="0.75" />
			</g>
		</g>
		<g>
			<title> (ctg816_40)</title>
			<polygon class=" (ctg816_40)" points="321,25 330,25 330,10 360,40 330,70 330,55 321,55" fill="rgb(255,255,255)" fill-opacity="1.0" stroke="rgb(0,0,0)" stroke-width="2"  />
			<g>
				<title>GCV_T (PF01571)
"Aminomethyltransferase folate-binding domain"</title>
				<polygon class="PF01571" points="322,28 344,28 347,31 347,49 344,52 322,52" stroke-linejoin="round" width="25" height="24" fill="rgb(112,228,161)" stroke="rgb(89,182,128)" stroke-width="1" opacity="0.75" />
			</g>
			<g>
				<title>GCV_T_C (PF08669)
"Glycine cleavage T-protein C-terminal barrel domain"</title>
				<polygon class="PF08669" points="352,36 356,40 352,44" stroke-linejoin="round" width="8" height="24" fill="rgb(184,178,54)" stroke="rgb(147,142,43)" stroke-width="1" opacity="0.75" />
			</g>
		</g>
		<g>
			<title> (ctg816_41)</title>
			<polygon class=" (ctg816_41)" points="365,25 388,25 388,10 418,40 388,70 388,55 365,55" fill="rgb(255,255,255)" fill-opacity="1.0" stroke="rgb(0,0,0)" stroke-width="2"  />
			<g>
				<title>Amino_oxidase (PF01593)
"Flavin containing amine oxidoreductase"</title>
				<polygon class="PF01593" points="366,28 401,28 413,40 401,52 366,52" stroke-linejoin="round" width="50" height="24" fill="rgb(184,74,52)" stroke="rgb(147,59,41)" stroke-width="1" opacity="0.75" />
			</g>
		</g>
		<g>
			<title> (ctg816_42)</title>
			<polygon class=" (ctg816_42)" points="418,25 444,25 444,10 474,40 444,70 444,55 418,55" fill="rgb(255,255,255)" fill-opacity="1.0" stroke="rgb(0,0,0)" stroke-width="2"  />
			<g>
				<title>NAD_binding_8 (PF13450)
"NAD(P)-binding Rossmann-like domain"</title>
				<rect class="PF13450" x="418" y="28" stroke-linejoin="round" width="5" height="24" fill="rgb(91,180,227)" stroke="rgb(72,144,181)" stroke-width="1" opacity="0.75" />
			</g>
		</g>
		<g>
			<title> (ctg816_43)</title>
			<polygon class=" (ctg816_43)" points="476,25 486,25 486,10 516,40 486,70 486,55 476,55" fill="rgb(255,255,255)" fill-opacity="1.0" stroke="rgb(0,0,0)" stroke-width="2"  />
		</g>
		<g>
			<title> (ctg816_44)</title>
			<polygon class=" (ctg816_44)" points="522,25 530,25 530,10 560,40 530,70 530,55 522,55" fill="rgb(255,255,255)" fill-opacity="1.0" stroke="rgb(0,0,0)" stroke-width="2"  />
			<g>
				<title>GCV_T (PF01571)
"Aminomethyltransferase folate-binding domain"</title>
				<polygon class="PF01571" points="524,28 544,28 548,32 548,48 544,52 524,52" stroke-linejoin="round" width="24" height="24" fill="rgb(112,228,161)" stroke="rgb(89,182,128)" stroke-width="1" opacity="0.75" />
			</g>
			<g>
				<title>GCV_T_C (PF08669)
"Glycine cleavage T-protein C-terminal barrel domain"</title>
				<polygon class="PF08669" points="551,35 556,40 551,45" stroke-linejoin="round" width="8" height="24" fill="rgb(184,178,54)" stroke="rgb(147,142,43)" stroke-width="1" opacity="0.75" />
			</g>
		</g>
		<g>
			<title> (ctg816_45)</title>
			<polygon class=" (ctg816_45)" points="560,25 588,25 588,10 618,40 588,70 588,55 560,55" fill="rgb(255,255,255)" fill-opacity="1.0" stroke="rgb(0,0,0)" stroke-width="2"  />
			<g>
				<title>Xan_ur_permease (PF00860)
"Permease family"</title>
				<rect class="PF00860" x="562" y="28" stroke-linejoin="round" width="38" height="24" fill="rgb(216,88,217)" stroke="rgb(172,70,173)" stroke-width="1" opacity="0.75" />
			</g>
		</g>
		<g>
			<title> (ctg816_46)</title>
			<polygon class=" (ctg816_46)" points="657,25 651,25 651,10 621,40 651,70 651,55 657,55" fill="rgb(255,255,255)" fill-opacity="1.0" stroke="rgb(0,0,0)" stroke-width="2"  />
			<g>
				<title>Epimerase (PF01370)
"NAD dependent epimerase/dehydratase family"</title>
				<polygon class="PF01370" points="630,35 637,28 655,28 655,52 637,52 630,45" stroke-linejoin="round" width="25" height="24" fill="rgb(98,102,214)" stroke="rgb(78,81,171)" stroke-width="1" opacity="0.75" />
			</g>
		</g>
		<g>
			<title> (ctg816_47)</title>
			<polygon class=" (ctg816_47)" points="658,10 662,40 658,70" fill="rgb(255,255,255)" fill-opacity="1.0" stroke="rgb(0,0,0)" stroke-width="2"  />
		</g>
		<g>
			<title> (ctg816_48)</title>
			<polygon class=" (ctg816_48)" points="665,10 674,40 665,70" fill="rgb(255,255,255)" fill-opacity="1.0" stroke="rgb(0,0,0)" stroke-width="2"  />
		</g>
		<g>
			<title> (ctg816_49)</title>
			<polygon class=" (ctg816_49)" points="676,25 885,25 885,10 915,40 885,70 885,55 676,55" fill="rgb(255,255,255)" fill-opacity="1.0" stroke="rgb(0,0,0)" stroke-width="2"  />
			<g>
				<title>ketoacyl-synt (PF00109)
"Beta-ketoacyl synthase, N-terminal domain"</title>
				<rect class="PF00109" x="676" y="28" stroke-linejoin="round" width="24" height="24" fill="rgb(112,116,228)" stroke="rgb(89,92,182)" stroke-width="1" opacity="0.75" />
			</g>
			<g>
				<title>Ketoacyl-synt_C (PF02801)
"Beta-ketoacyl synthase, C-terminal domain"</title>
				<rect class="PF02801" x="702" y="28" stroke-linejoin="round" width="12" height="24" fill="rgb(215,78,102)" stroke="rgb(172,62,81)" stroke-width="1" opacity="0.75" />
			</g>
			<g>
				<title>KAsynt_C_assoc (PF16197)
"Ketoacyl-synthetase C-terminal extension"</title>
				<rect class="PF16197" x="715" y="28" stroke-linejoin="round" width="11" height="24" fill="rgb(240,150,172)" stroke="rgb(192,120,137)" stroke-width="1" opacity="0.75" />
			</g>
			<g>
				<title>Acyl_transf_1 (PF00698)
"Acyl transferase domain"</title>
				<rect class="PF00698" x="729" y="28" stroke-linejoin="round" width="32" height="24" fill="rgb(59,176,209)" stroke="rgb(47,140,167)" stroke-width="1" opacity="0.75" />
			</g>
			<g>
				<title>PS-DH (PF14765)
"Polyketide synthase dehydratase"</title>
				<rect class="PF14765" x="767" y="28" stroke-linejoin="round" width="29" height="24" fill="rgb(173,56,182)" stroke="rgb(138,44,145)" stroke-width="1" opacity="0.75" />
			</g>
			<g>
				<title>ADH_N (PF08240)
"Alcohol dehydrogenase GroES-like domain"</title>
				<rect class="PF08240" x="841" y="28" stroke-linejoin="round" width="7" height="24" fill="rgb(211,65,138)" stroke="rgb(168,51,110)" stroke-width="1" opacity="0.75" />
			</g>
			<g>
				<title>ADH_zinc_N (PF00107)
"Zinc-binding dehydrogenase"</title>
				<rect class="PF00107" x="854" y="28" stroke-linejoin="round" width="13" height="24" fill="rgb(81,108,215)" stroke="rgb(64,86,172)" stroke-width="1" opacity="0.75" />
			</g>
			<g>
				<title>KR (PF08659)
"KR domain"</title>
				<rect class="PF08659" x="874" y="28" stroke-linejoin="round" width="18" height="24" fill="rgb(66,209,188)" stroke="rgb(52,167,150)" stroke-width="1" opacity="0.75" />
			</g>
			<g>
				<title>PP-binding (PF00550)
"Phosphopantetheine attachment site"</title>
				<polygon class="PF00550" points="901,30 907,36 907,44 901,50" stroke-linejoin="round" width="6" height="24" fill="rgb(103,191,88)" stroke="rgb(82,152,70)" stroke-width="1" opacity="0.75" />
			</g>
		</g>
		<g>
			<title> (ctg816_50)</title>
			<polygon class=" (ctg816_50)" points="922,25 968,25 968,10 998,40 968,70 968,55 922,55" fill="rgb(255,255,255)" fill-opacity="1.0" stroke="rgb(0,0,0)" stroke-width="2"  />
			<g>
				<title>NAD_binding_4 (PF07993)
"Male sterility protein"</title>
				<rect class="PF07993" x="922" y="28" stroke-linejoin="round" width="23" height="24" fill="rgb(100,212,204)" stroke="rgb(80,169,163)" stroke-width="1" opacity="0.75" />
			</g>
			<g>
				<title>Sulfotransfer_3 (PF13469)
"Sulfotransferase family"</title>
				<polygon class="PF13469" points="967,28 982,28 992,38 992,42 982,52 967,52" stroke-linejoin="round" width="25" height="24" fill="rgb(59,182,84)" stroke="rgb(47,145,67)" stroke-width="1" opacity="0.75" />
			</g>
		</g>
		<g>
			<title> (ctg816_51)</title>
			<polygon class=" (ctg816_51)" points="1000,10 1009,40 1000,70" fill="rgb(255,255,255)" fill-opacity="1.0" stroke="rgb(0,0,0)" stroke-width="2"  />
		</g>
	</g>
</svg>
