<svg version="1.1" baseProfile="full" xmlns="http://www.w3.org/2000/svg" width="1472.9" height="80">
	<g>
		<line x1="10" y1="40.0" x2="1462.9" y2="40.0" style="stroke:rgb(70,70,70); stroke-width:3 "/>
		<g>
			<title> (ctg28_1)</title>
			<polygon class=" (ctg28_1)" points="17,25 19,25 19,10 49,40 19,70 19,55 17,55" fill="rgb(255,255,255)" fill-opacity="1.0" stroke="rgb(0,0,0)" stroke-width="2"  />
			<g>
				<title>GNAT_acetyltran (PF12746)
"GNAT acetyltransferase"</title>
				<polygon class="PF12746" points="38,33 45,40 38,47" stroke-linejoin="round" width="10" height="24" fill="rgb(199,158,93)" stroke="rgb(159,126,74)" stroke-width="1" opacity="0.75" />
			</g>
		</g>
		<g>
			<title> (ctg28_2)</title>
			<polygon class=" (ctg28_2)" points="55,10 78,40 55,70" fill="rgb(255,255,255)" fill-opacity="1.0" stroke="rgb(0,0,0)" stroke-width="2"  />
		</g>
		<g>
			<title> (ctg28_3)</title>
			<polygon class=" (ctg28_3)" points="83,40 92,10 92,70" fill="rgb(255,255,255)" fill-opacity="1.0" stroke="rgb(0,0,0)" stroke-width="2"  />
			<g>
				<title>Oxidored_molyb (PF00174)
"Oxidoreductase molybdopterin binding domain"</title>
				<polygon class="PF00174" points="86,40 90,28 91,28 91,52 90,52" stroke-linejoin="round" width="6" height="24" fill="rgb(152,193,93)" stroke="rgb(121,154,74)" stroke-width="1" opacity="0.75" />
			</g>
		</g>
		<g>
			<title> (ctg28_4)</title>
			<polygon class=" (ctg28_4)" points="152,25 130,25 130,10 100,40 130,70 130,55 152,55" fill="rgb(255,255,255)" fill-opacity="1.0" stroke="rgb(0,0,0)" stroke-width="2"  />
			<g>
				<title>fn3 (PF00041)
"Fibronectin type III domain"</title>
				<polygon class="PF00041" points="104,40 109,35 109,45" stroke-linejoin="round" width="8" height="24" fill="rgb(203,70,135)" stroke="rgb(162,56,107)" stroke-width="1" opacity="0.75" />
			</g>
		</g>
		<g>
			<title> (ctg28_5)</title>
			<polygon class=" (ctg28_5)" points="179,10 193,40 179,70" fill="rgb(255,255,255)" fill-opacity="1.0" stroke="rgb(0,0,0)" stroke-width="2"  />
		</g>
		<g>
			<title> (ctg28_6)</title>
			<polygon class=" (ctg28_6)" points="197,10 210,40 197,70" fill="rgb(255,255,255)" fill-opacity="1.0" stroke="rgb(0,0,0)" stroke-width="2"  />
			<g>
				<title>Nuc_deoxyrib_tr (PF05014)
"Nucleoside 2-deoxyribosyltransferase"</title>
				<polygon class="PF05014" points="197,28 201,28 207,40 201,52 197,52" stroke-linejoin="round" width="12" height="24" fill="rgb(142,182,49)" stroke="rgb(113,145,39)" stroke-width="1" opacity="0.75" />
			</g>
		</g>
		<g>
			<title> (ctg28_7)</title>
			<polygon class=" (ctg28_7)" points="214,25 226,25 226,10 256,40 226,70 226,55 214,55" fill="rgb(255,255,255)" fill-opacity="1.0" stroke="rgb(0,0,0)" stroke-width="2"  />
			<g>
				<title>Oxidored_molyb (PF00174)
"Oxidoreductase molybdopterin binding domain"</title>
				<polygon class="PF00174" points="224,28 239,28 241,30 241,50 239,52 224,52" stroke-linejoin="round" width="17" height="24" fill="rgb(152,193,93)" stroke="rgb(121,154,74)" stroke-width="1" opacity="0.75" />
			</g>
			<g>
				<title>Mo-co_dimer (PF03404)
"Mo-co oxidoreductase dimerisation domain"</title>
				<polygon class="PF03404" points="244,33 251,40 244,47" stroke-linejoin="round" width="11" height="24" fill="rgb(105,224,154)" stroke="rgb(84,179,123)" stroke-width="1" opacity="0.75" />
			</g>
		</g>
		<g>
			<title> (ctg28_8)</title>
			<polygon class=" (ctg28_8)" points="260,25 264,25 264,10 294,40 264,70 264,55 260,55" fill="rgb(255,255,255)" fill-opacity="1.0" stroke="rgb(0,0,0)" stroke-width="2"  />
			<g>
				<title>ABC_tran (PF00005)
"ABC transporter"</title>
				<rect class="PF00005" x="262" y="28" stroke-linejoin="round" width="14" height="24" fill="rgb(129,201,63)" stroke="rgb(103,160,50)" stroke-width="1" opacity="0.75" />
			</g>
		</g>
		<g>
			<title> (ctg28_9)</title>
			<polygon class=" (ctg28_9)" points="295,10 321,40 295,70" fill="rgb(255,255,255)" fill-opacity="1.0" stroke="rgb(0,0,0)" stroke-width="2"  />
			<g>
				<title>ABC2_membrane_3 (PF12698)
"ABC-2 family transporter protein"</title>
				<polygon class="PF12698" points="299,28 307,28 317,40 307,52 299,52" stroke-linejoin="round" width="20" height="24" fill="rgb(151,189,55)" stroke="rgb(120,151,44)" stroke-width="1" opacity="0.75" />
			</g>
		</g>
		<g>
			<title> (ctg28_10)</title>
			<polygon class=" (ctg28_10)" points="381,25 373,25 373,10 343,40 373,70 373,55 381,55" fill="rgb(255,255,255)" fill-opacity="1.0" stroke="rgb(0,0,0)" stroke-width="2"  />
			<g>
				<title>Fe-ADH (PF00465)
"Iron-containing alcohol dehydrogenase"</title>
				<polygon class="PF00465" points="347,40 359,28 379,28 379,52 359,52" stroke-linejoin="round" width="36" height="24" fill="rgb(73,179,216)" stroke="rgb(58,143,172)" stroke-width="1" opacity="0.75" />
			</g>
		</g>
		<g>
			<title> (ctg28_11)</title>
			<polygon class=" (ctg28_11)" points="392,25 408,25 408,10 438,40 408,70 408,55 392,55" fill="rgb(255,255,255)" fill-opacity="1.0" stroke="rgb(0,0,0)" stroke-width="2"  />
			<g>
				<title>SBP_bac_1 (PF01547)
"Bacterial extracellular solute-binding protein"</title>
				<polygon class="PF01547" points="398,28 422,28 427,33 427,47 422,52 398,52" stroke-linejoin="round" width="29" height="24" fill="rgb(195,119,75)" stroke="rgb(156,95,60)" stroke-width="1" opacity="0.75" />
			</g>
		</g>
		<g>
			<title> (ctg28_12)</title>
			<polygon class=" (ctg28_12)" points="448,25 766,25 766,10 796,40 766,70 766,55 448,55" fill="rgb(255,255,255)" fill-opacity="1.0" stroke="rgb(0,0,0)" stroke-width="2"  />
			<g>
				<title>ketoacyl-synt (PF00109)
"Beta-ketoacyl synthase, N-terminal domain"</title>
				<rect class="PF00109" x="450" y="28" stroke-linejoin="round" width="25" height="24" fill="rgb(112,116,228)" stroke="rgb(89,92,182)" stroke-width="1" opacity="0.75" />
			</g>
			<g>
				<title>Ketoacyl-synt_C (PF02801)
"Beta-ketoacyl synthase, C-terminal domain"</title>
				<rect class="PF02801" x="476" y="28" stroke-linejoin="round" width="11" height="24" fill="rgb(215,78,102)" stroke="rgb(172,62,81)" stroke-width="1" opacity="0.75" />
			</g>
			<g>
				<title>KAsynt_C_assoc (PF16197)
"Ketoacyl-synthetase C-terminal extension"</title>
				<rect class="PF16197" x="488" y="28" stroke-linejoin="round" width="13" height="24" fill="rgb(240,150,172)" stroke="rgb(192,120,137)" stroke-width="1" opacity="0.75" />
			</g>
			<g>
				<title>Acyl_transf_1 (PF00698)
"Acyl transferase domain"</title>
				<rect class="PF00698" x="507" y="28" stroke-linejoin="round" width="30" height="24" fill="rgb(59,176,209)" stroke="rgb(47,140,167)" stroke-width="1" opacity="0.75" />
			</g>
			<g>
				<title>PS-DH (PF14765)
"Polyketide synthase dehydratase"</title>
				<rect class="PF14765" x="545" y="28" stroke-linejoin="round" width="29" height="24" fill="rgb(173,56,182)" stroke="rgb(138,44,145)" stroke-width="1" opacity="0.75" />
			</g>
			<g>
				<title>Methyltransf_12 (PF08242)
"Methyltransferase domain"</title>
				<rect class="PF08242" x="598" y="28" stroke-linejoin="round" width="10" height="24" fill="rgb(187,59,115)" stroke="rgb(149,47,92)" stroke-width="1" opacity="0.75" />
			</g>
			<g>
				<title>ADH_zinc_N (PF00107)
"Zinc-binding dehydrogenase"</title>
				<rect class="PF00107" x="653" y="28" stroke-linejoin="round" width="10" height="24" fill="rgb(81,108,215)" stroke="rgb(64,86,172)" stroke-width="1" opacity="0.75" />
			</g>
			<g>
				<title>KR (PF08659)
"KR domain"</title>
				<rect class="PF08659" x="671" y="28" stroke-linejoin="round" width="17" height="24" fill="rgb(66,209,188)" stroke="rgb(52,167,150)" stroke-width="1" opacity="0.75" />
			</g>
			<g>
				<title>PP-binding (PF00550)
"Phosphopantetheine attachment site"</title>
				<rect class="PF00550" x="699" y="28" stroke-linejoin="round" width="6" height="24" fill="rgb(103,191,88)" stroke="rgb(82,152,70)" stroke-width="1" opacity="0.75" />
			</g>
			<g>
				<title>ketoacyl-synt (PF00109)
"Beta-ketoacyl synthase, N-terminal domain"</title>
				<rect class="PF00109" x="709" y="28" stroke-linejoin="round" width="24" height="24" fill="rgb(112,116,228)" stroke="rgb(89,92,182)" stroke-width="1" opacity="0.75" />
			</g>
			<g>
				<title>Ketoacyl-synt_C (PF02801)
"Beta-ketoacyl synthase, C-terminal domain"</title>
				<rect class="PF02801" x="735" y="28" stroke-linejoin="round" width="11" height="24" fill="rgb(215,78,102)" stroke="rgb(172,62,81)" stroke-width="1" opacity="0.75" />
			</g>
			<g>
				<title>KAsynt_C_assoc (PF16197)
"Ketoacyl-synthetase C-terminal extension"</title>
				<rect class="PF16197" x="747" y="28" stroke-linejoin="round" width="14" height="24" fill="rgb(240,150,172)" stroke="rgb(192,120,137)" stroke-width="1" opacity="0.75" />
			</g>
			<g>
				<title>Acyl_transf_1 (PF00698)
"Acyl transferase domain"</title>
				<polygon class="PF00698" points="766,28 779,28 781,30 781,50 779,52 766,52" stroke-linejoin="round" width="15" height="24" fill="rgb(59,176,209)" stroke="rgb(47,140,167)" stroke-width="1" opacity="0.75" />
			</g>
		</g>
		<g>
			<title> (ctg28_13)</title>
			<polygon class=" (ctg28_13)" points="807,10 815,40 807,70" fill="rgb(255,255,255)" fill-opacity="1.0" stroke="rgb(0,0,0)" stroke-width="2"  />
			<g>
				<title>PP-binding (PF00550)
"Phosphopantetheine attachment site"</title>
				<polygon class="PF00550" points="807,28 808,28 812,40 808,52 807,52" stroke-linejoin="round" width="7" height="24" fill="rgb(103,191,88)" stroke="rgb(82,152,70)" stroke-width="1" opacity="0.75" />
			</g>
		</g>
		<g>
			<title> (ctg28_14)</title>
			<polygon class=" (ctg28_14)" points="820,10 844,40 820,70" fill="rgb(255,255,255)" fill-opacity="1.0" stroke="rgb(0,0,0)" stroke-width="2"  />
			<g>
				<title>ACPS (PF01648)
"4'-phosphopantetheinyl transferase superfamily"</title>
				<polygon class="PF01648" points="832,30 840,40 832,50" stroke-linejoin="round" width="10" height="24" fill="rgb(85,184,135)" stroke="rgb(68,147,108)" stroke-width="1" opacity="0.75" />
			</g>
		</g>
		<g>
			<title> (ctg28_15)</title>
			<polygon class=" (ctg28_15)" points="844,25 844,25 844,10 874,40 844,70 844,55 844,55" fill="rgb(255,255,255)" fill-opacity="1.0" stroke="rgb(0,0,0)" stroke-width="2"  />
			<g>
				<title>Abhydrolase_6 (PF12697)
"Alpha/beta hydrolase family"</title>
				<polygon class="PF12697" points="848,28 858,28 870,40 858,52 848,52" stroke-linejoin="round" width="25" height="24" fill="rgb(113,71,219)" stroke="rgb(90,56,175)" stroke-width="1" opacity="0.75" />
			</g>
		</g>
		<g>
			<title> (ctg28_16)</title>
			<polygon class=" (ctg28_16)" points="938,25 911,25 911,10 881,40 911,70 911,55 938,55" fill="rgb(255,255,255)" fill-opacity="1.0" stroke="rgb(0,0,0)" stroke-width="2"  />
			<g>
				<title>Xan_ur_permease (PF00860)
"Permease family"</title>
				<rect class="PF00860" x="898" y="28" stroke-linejoin="round" width="38" height="24" fill="rgb(216,88,217)" stroke="rgb(172,70,173)" stroke-width="1" opacity="0.75" />
			</g>
		</g>
		<g>
			<title> (ctg28_17)</title>
			<polygon class=" (ctg28_17)" points="941,40 967,10 967,70" fill="rgb(255,255,255)" fill-opacity="1.0" stroke="rgb(0,0,0)" stroke-width="2"  />
			<g>
				<title>PhyH (PF05721)
"Phytanoyl-CoA dioxygenase (PhyH)"</title>
				<polygon class="PF05721" points="945,40 955,28 965,28 965,52 955,52" stroke-linejoin="round" width="21" height="24" fill="rgb(72,132,214)" stroke="rgb(57,105,171)" stroke-width="1" opacity="0.75" />
			</g>
		</g>
		<g>
			<title> (ctg28_18)</title>
			<polygon class=" (ctg28_18)" points="1007,25 1005,25 1005,10 975,40 1005,70 1005,55 1007,55" fill="rgb(255,255,255)" fill-opacity="1.0" stroke="rgb(0,0,0)" stroke-width="2"  />
		</g>
		<g>
			<title> (ctg28_19)</title>
			<polygon class=" (ctg28_19)" points="1061,25 1045,25 1045,10 1015,40 1045,70 1045,55 1061,55" fill="rgb(255,255,255)" fill-opacity="1.0" stroke="rgb(0,0,0)" stroke-width="2"  />
		</g>
		<g>
			<title> (ctg28_20)</title>
			<polygon class=" (ctg28_20)" points="1108,25 1093,25 1093,10 1063,40 1093,70 1093,55 1108,55" fill="rgb(255,255,255)" fill-opacity="1.0" stroke="rgb(0,0,0)" stroke-width="2"  />
			<g>
				<title>Ceramidase_alk (PF04734)
"Neutral/alkaline non-lysosomal ceramidase, N-terminal"</title>
				<polygon class="PF04734" points="1079,28 1079,28 1105,28 1105,52 1079,52 1079,52" stroke-linejoin="round" width="26" height="24" fill="rgb(178,159,60)" stroke="rgb(142,127,48)" stroke-width="1" opacity="0.75" />
			</g>
		</g>
		<g>
			<title> (ctg28_21)</title>
			<polygon class=" (ctg28_21)" points="1114,10 1140,40 1114,70" fill="rgb(255,255,255)" fill-opacity="1.0" stroke="rgb(0,0,0)" stroke-width="2"  />
			<g>
				<title>NIF3 (PF01784)
"NIF3 (NGG1p interacting factor 3)"</title>
				<polygon class="PF01784" points="1115,28 1126,28 1136,40 1126,52 1115,52" stroke-linejoin="round" width="23" height="24" fill="rgb(221,59,107)" stroke="rgb(176,47,85)" stroke-width="1" opacity="0.75" />
			</g>
		</g>
		<g>
			<title> (ctg28_22)</title>
			<polygon class=" (ctg28_22)" points="1142,10 1165,40 1142,70" fill="rgb(255,255,255)" fill-opacity="1.0" stroke="rgb(0,0,0)" stroke-width="2"  />
			<g>
				<title>HAD_2 (PF13419)
"Haloacid dehalogenase-like hydrolase"</title>
				<polygon class="PF13419" points="1149,28 1152,28 1161,40 1152,52 1149,52" stroke-linejoin="round" width="13" height="24" fill="rgb(60,223,188)" stroke="rgb(48,178,150)" stroke-width="1" opacity="0.75" />
			</g>
		</g>
		<g>
			<title> (ctg28_23)</title>
			<polygon class=" (ctg28_23)" points="1169,40 1196,10 1196,70" fill="rgb(255,255,255)" fill-opacity="1.0" stroke="rgb(0,0,0)" stroke-width="2"  />
			<g>
				<title>ComA (PF02679)
"(2R)-phospho-3-sulfolactate synthase (ComA)"</title>
				<polygon class="PF02679" points="1173,40 1184,28 1195,28 1195,52 1184,52" stroke-linejoin="round" width="24" height="24" fill="rgb(167,194,96)" stroke="rgb(133,155,76)" stroke-width="1" opacity="0.75" />
			</g>
		</g>
		<g>
			<title> (ctg28_24)</title>
			<polygon class=" (ctg28_24)" points="1196,40 1223,10 1223,70" fill="rgb(255,255,255)" fill-opacity="1.0" stroke="rgb(0,0,0)" stroke-width="2"  />
			<g>
				<title>Amidohydro_2 (PF04909)
"Amidohydrolase"</title>
				<polygon class="PF04909" points="1200,40 1211,28 1222,28 1222,52 1211,52" stroke-linejoin="round" width="26" height="24" fill="rgb(95,225,123)" stroke="rgb(76,180,98)" stroke-width="1" opacity="0.75" />
			</g>
		</g>
		<g>
			<title> (ctg28_25)</title>
			<polygon class=" (ctg28_25)" points="1223,40 1227,10 1227,70" fill="rgb(255,255,255)" fill-opacity="1.0" stroke="rgb(0,0,0)" stroke-width="2"  />
		</g>
		<g>
			<title> (ctg28_26)</title>
			<polygon class=" (ctg28_26)" points="1230,40 1259,10 1259,70" fill="rgb(255,255,255)" fill-opacity="1.0" stroke="rgb(0,0,0)" stroke-width="2"  />
			<g>
				<title>AP_endonuc_2 (PF01261)
"Xylose isomerase-like TIM barrel"</title>
				<polygon class="PF01261" points="1234,40 1246,28 1256,28 1256,52 1246,52 1234,40" stroke-linejoin="round" width="22" height="24" fill="rgb(69,222,207)" stroke="rgb(55,177,165)" stroke-width="1" opacity="0.75" />
			</g>
		</g>
		<g>
			<title> (ctg28_27)</title>
			<polygon class=" (ctg28_27)" points="1277,25 1292,25 1292,10 1322,40 1292,70 1292,55 1277,55" fill="rgb(255,255,255)" fill-opacity="1.0" stroke="rgb(0,0,0)" stroke-width="2"  />
			<g>
				<title>Sulfatase (PF00884)
"Sulfatase"</title>
				<polygon class="PF00884" points="1277,28 1306,28 1310,32 1310,48 1306,52 1277,52" stroke-linejoin="round" width="33" height="24" fill="rgb(61,103,198)" stroke="rgb(48,82,158)" stroke-width="1" opacity="0.75" />
			</g>
		</g>
		<g>
			<title> (ctg28_28)</title>
			<polygon class=" (ctg28_28)" points="1323,10 1329,40 1323,70" fill="rgb(255,255,255)" fill-opacity="1.0" stroke="rgb(0,0,0)" stroke-width="2"  />
		</g>
		<g>
			<title> (ctg28_29)</title>
			<polygon class=" (ctg28_29)" points="1373,25 1361,25 1361,10 1331,40 1361,70 1361,55 1373,55" fill="rgb(255,255,255)" fill-opacity="1.0" stroke="rgb(0,0,0)" stroke-width="2"  />
			<g>
				<title>tRNA-synt_2b (PF00587)
"tRNA synthetase class II core domain (G, H, P, S and T)"</title>
				<polygon class="PF00587" points="1335,40 1347,28 1351,28 1351,52 1347,52" stroke-linejoin="round" width="18" height="24" fill="rgb(228,96,220)" stroke="rgb(182,76,176)" stroke-width="1" opacity="0.75" />
			</g>
			<g>
				<title>Seryl_tRNA_N (PF02403)
"Seryl-tRNA synthetase N-terminal domain"</title>
				<rect class="PF02403" x="1363" y="28" stroke-linejoin="round" width="10" height="24" fill="rgb(220,109,118)" stroke="rgb(176,87,94)" stroke-width="1" opacity="0.75" />
			</g>
		</g>
		<g>
			<title> (ctg28_30)</title>
			<polygon class=" (ctg28_30)" points="1420,25 1403,25 1403,10 1373,40 1403,70 1403,55 1420,55" fill="rgb(255,255,255)" fill-opacity="1.0" stroke="rgb(0,0,0)" stroke-width="2"  />
			<g>
				<title>tRNA-synt_2 (PF00152)
"tRNA synthetases class II (D, K and N)"</title>
				<polygon class="PF00152" points="1377,40 1389,28 1406,28 1406,52 1389,52" stroke-linejoin="round" width="33" height="24" fill="rgb(90,71,190)" stroke="rgb(72,56,152)" stroke-width="1" opacity="0.75" />
			</g>
			<g>
				<title>tRNA_anti-codon (PF01336)
"OB-fold nucleic acid binding domain"</title>
				<rect class="PF01336" x="1409" y="28" stroke-linejoin="round" width="7" height="24" fill="rgb(215,103,173)" stroke="rgb(172,82,138)" stroke-width="1" opacity="0.75" />
			</g>
		</g>
		<g>
			<title> (ctg28_31)</title>
			<polygon class=" (ctg28_31)" points="1424,40 1439,10 1439,70" fill="rgb(255,255,255)" fill-opacity="1.0" stroke="rgb(0,0,0)" stroke-width="2"  />
			<g>
				<title>GreA_GreB (PF01272)
"Transcription elongation factor, GreA/GreB, C-term"</title>
				<polygon class="PF01272" points="1427,40 1431,32 1431,48" stroke-linejoin="round" width="7" height="24" fill="rgb(196,189,58)" stroke="rgb(156,151,46)" stroke-width="1" opacity="0.75" />
			</g>
			<g>
				<title>GreA_GreB_N (PF03449)
"Transcription elongation factor, N-terminal"</title>
				<polygon class="PF03449" points="1431,32 1433,28 1438,28 1438,52 1433,52 1431,48" stroke-linejoin="round" width="7" height="24" fill="rgb(109,94,217)" stroke="rgb(87,75,173)" stroke-width="1" opacity="0.75" />
			</g>
		</g>
	</g>
</svg>
