<svg version="1.1" baseProfile="full" xmlns="http://www.w3.org/2000/svg" width="629.7666666666667" height="80">
	<g>
		<line x1="10" y1="40.0" x2="619.7666666666667" y2="40.0" style="stroke:rgb(70,70,70); stroke-width:3 "/>
		<g>
			<title> (ctg1994_5)</title>
			<polygon class=" (ctg1994_5)" points="19,10 46,40 19,70" fill="rgb(255,255,255)" fill-opacity="1.0" stroke="rgb(0,0,0)" stroke-width="2"  />
			<g>
				<title>Methyltransf_25 (PF13649)
"Methyltransferase domain"</title>
				<polygon class="PF13649" points="25,28 31,28 34,31 34,49 31,52 25,52" stroke-linejoin="round" width="9" height="24" fill="rgb(227,135,74)" stroke="rgb(181,108,59)" stroke-width="1" opacity="0.75" />
			</g>
		</g>
		<g>
			<title> (ctg1994_6)</title>
			<polygon class=" (ctg1994_6)" points="54,10 71,40 54,70" fill="rgb(255,255,255)" fill-opacity="1.0" stroke="rgb(0,0,0)" stroke-width="2"  />
		</g>
		<g>
			<title> (ctg1994_7)</title>
			<polygon class=" (ctg1994_7)" points="76,10 97,40 76,70" fill="rgb(255,255,255)" fill-opacity="1.0" stroke="rgb(0,0,0)" stroke-width="2"  />
		</g>
		<g>
			<title> (ctg1994_8)</title>
			<polygon class=" (ctg1994_8)" points="98,25 115,25 115,10 145,40 115,70 115,55 98,55" fill="rgb(255,255,255)" fill-opacity="1.0" stroke="rgb(0,0,0)" stroke-width="2"  />
			<g>
				<title>Wzy_C (PF04932)
"O-Antigen ligase"</title>
				<polygon class="PF04932" points="109,28 129,28 137,36 137,44 129,52 109,52" stroke-linejoin="round" width="28" height="24" fill="rgb(106,219,107)" stroke="rgb(84,175,85)" stroke-width="1" opacity="0.75" />
			</g>
		</g>
		<g>
			<title> (ctg1994_9)</title>
			<polygon class=" (ctg1994_9)" points="145,10 167,40 145,70" fill="rgb(255,255,255)" fill-opacity="1.0" stroke="rgb(0,0,0)" stroke-width="2"  />
		</g>
		<g>
			<title> (ctg1994_10)</title>
			<polygon class=" (ctg1994_10)" points="199,25 198,25 198,10 168,40 198,70 198,55 199,55" fill="rgb(255,255,255)" fill-opacity="1.0" stroke="rgb(0,0,0)" stroke-width="2"  />
		</g>
		<g>
			<title> (ctg1994_11)</title>
			<polygon class=" (ctg1994_11)" points="206,40 215,10 215,70" fill="rgb(255,255,255)" fill-opacity="1.0" stroke="rgb(0,0,0)" stroke-width="2"  />
		</g>
		<g>
			<title> (ctg1994_12)</title>
			<polygon class=" (ctg1994_12)" points="251,25 245,25 245,10 215,40 245,70 245,55 251,55" fill="rgb(255,255,255)" fill-opacity="1.0" stroke="rgb(0,0,0)" stroke-width="2"  />
			<g>
				<title>Glycos_transf_2 (PF00535)
"Glycosyl transferase family 2"</title>
				<polygon class="PF00535" points="231,28 231,28 247,28 247,52 231,52 231,52" stroke-linejoin="round" width="16" height="24" fill="rgb(224,122,96)" stroke="rgb(179,97,76)" stroke-width="1" opacity="0.75" />
			</g>
		</g>
		<g>
			<title> (ctg1994_13)</title>
			<polygon class=" (ctg1994_13)" points="284,25 283,25 283,10 253,40 283,70 283,55 284,55" fill="rgb(255,255,255)" fill-opacity="1.0" stroke="rgb(0,0,0)" stroke-width="2"  />
			<g>
				<title>NTP_transf_5 (PF14907)
"Uncharacterised nucleotidyltransferase"</title>
				<polygon class="PF14907" points="263,34 269,28 284,28 284,52 269,52 263,46" stroke-linejoin="round" width="21" height="24" fill="rgb(191,137,74)" stroke="rgb(152,109,59)" stroke-width="1" opacity="0.75" />
			</g>
		</g>
		<g>
			<title> (ctg1994_14)</title>
			<polygon class=" (ctg1994_14)" points="343,25 324,25 324,10 294,40 324,70 324,55 343,55" fill="rgb(255,255,255)" fill-opacity="1.0" stroke="rgb(0,0,0)" stroke-width="2"  />
			<g>
				<title>Bac_transf (PF02397)
"Bacterial sugar transferase"</title>
				<polygon class="PF02397" points="298,40 310,28 312,28 312,52 310,52" stroke-linejoin="round" width="18" height="24" fill="rgb(57,165,209)" stroke="rgb(45,131,167)" stroke-width="1" opacity="0.75" />
			</g>
			<g>
				<title>CoA_binding_3 (PF13727)
"CoA-binding domain"</title>
				<rect class="PF13727" x="317" y="28" stroke-linejoin="round" width="14" height="24" fill="rgb(153,200,97)" stroke="rgb(122,160,77)" stroke-width="1" opacity="0.75" />
			</g>
		</g>
		<g>
			<title> (ctg1994_15)</title>
			<polygon class=" (ctg1994_15)" points="376,25 373,25 373,10 343,40 373,70 373,55 376,55" fill="rgb(255,255,255)" fill-opacity="1.0" stroke="rgb(0,0,0)" stroke-width="2"  />
			<g>
				<title>Epimerase (PF01370)
"NAD dependent epimerase/dehydratase family"</title>
				<polygon class="PF01370" points="353,34 359,28 376,28 376,52 359,52 353,46" stroke-linejoin="round" width="23" height="24" fill="rgb(98,102,214)" stroke="rgb(78,81,171)" stroke-width="1" opacity="0.75" />
			</g>
		</g>
		<g>
			<title> (ctg1994_16)</title>
			<polygon class=" (ctg1994_16)" points="378,40 384,10 384,70" fill="rgb(255,255,255)" fill-opacity="1.0" stroke="rgb(0,0,0)" stroke-width="2"  />
		</g>
		<g>
			<title> (ctg1994_17)</title>
			<polygon class=" (ctg1994_17)" points="384,10 405,40 384,70" fill="rgb(255,255,255)" fill-opacity="1.0" stroke="rgb(0,0,0)" stroke-width="2"  />
		</g>
		<g>
			<title> (ctg1994_18)</title>
			<polygon class=" (ctg1994_18)" points="466,25 438,25 438,10 408,40 438,70 438,55 466,55" fill="rgb(255,255,255)" fill-opacity="1.0" stroke="rgb(0,0,0)" stroke-width="2"  />
			<g>
				<title>APS_kinase (PF01583)
"Adenylylsulphate kinase"</title>
				<polygon class="PF01583" points="412,40 424,28 426,28 426,52 424,52" stroke-linejoin="round" width="15" height="24" fill="rgb(48,131,188)" stroke="rgb(38,104,150)" stroke-width="1" opacity="0.75" />
			</g>
			<g>
				<title>ATP-sulfurylase (PF01747)
"ATP-sulfurylase"</title>
				<rect class="PF01747" x="427" y="28" stroke-linejoin="round" width="21" height="24" fill="rgb(223,110,91)" stroke="rgb(178,88,72)" stroke-width="1" opacity="0.75" />
			</g>
			<g>
				<title>PUA_2 (PF14306)
"PUA-like domain"</title>
				<rect class="PF14306" x="450" y="28" stroke-linejoin="round" width="15" height="24" fill="rgb(216,166,86)" stroke="rgb(172,132,68)" stroke-width="1" opacity="0.75" />
			</g>
		</g>
		<g>
			<title> (ctg1994_19)</title>
			<polygon class=" (ctg1994_19)" points="475,25 531,25 531,10 561,40 531,70 531,55 475,55" fill="rgb(255,255,255)" fill-opacity="1.0" stroke="rgb(0,0,0)" stroke-width="2"  />
			<g>
				<title>GAF_2 (PF13185)
"GAF domain"</title>
				<rect class="PF13185" x="484" y="28" stroke-linejoin="round" width="14" height="24" fill="rgb(158,189,90)" stroke="rgb(126,151,72)" stroke-width="1" opacity="0.75" />
			</g>
			<g>
				<title>PAS (PF00989)
"PAS fold"</title>
				<rect class="PF00989" x="500" y="28" stroke-linejoin="round" width="11" height="24" fill="rgb(205,221,64)" stroke="rgb(164,176,51)" stroke-width="1" opacity="0.75" />
			</g>
			<g>
				<title>HisKA (PF00512)
"His Kinase A (phospho-acceptor) domain"</title>
				<rect class="PF00512" x="513" y="28" stroke-linejoin="round" width="6" height="24" fill="rgb(193,125,62)" stroke="rgb(154,100,49)" stroke-width="1" opacity="0.75" />
			</g>
			<g>
				<title>HATPase_c (PF02518)
"Histidine kinase-, DNA gyrase B-, and HSP90-like ATPase"</title>
				<rect class="PF02518" x="524" y="28" stroke-linejoin="round" width="11" height="24" fill="rgb(80,94,225)" stroke="rgb(64,75,180)" stroke-width="1" opacity="0.75" />
			</g>
			<g>
				<title>Response_reg (PF00072)
"Response regulator receiver domain"</title>
				<polygon class="PF00072" points="539,28 544,28 549,33 549,47 544,52 539,52" stroke-linejoin="round" width="10" height="24" fill="rgb(100,107,203)" stroke="rgb(80,85,162)" stroke-width="1" opacity="0.75" />
			</g>
			<g>
				<title>Trans_reg_C (PF00486)
"Transcriptional regulatory protein, C terminal"</title>
				<polygon class="PF00486" points="552,36 556,40 552,44" stroke-linejoin="round" width="7" height="24" fill="rgb(204,153,57)" stroke="rgb(163,122,45)" stroke-width="1" opacity="0.75" />
			</g>
		</g>
		<g>
			<title> (ctg1994_20)</title>
			<polygon class=" (ctg1994_20)" points="565,25 573,25 573,10 603,40 573,70 573,55 565,55" fill="rgb(255,255,255)" fill-opacity="1.0" stroke="rgb(0,0,0)" stroke-width="2"  />
			<g>
				<title>SDF (PF00375)
"Sodium:dicarboxylate symporter family"</title>
				<rect class="PF00375" x="575" y="28" stroke-linejoin="round" width="9" height="24" fill="rgb(141,207,101)" stroke="rgb(112,165,80)" stroke-width="1" opacity="0.75" />
			</g>
		</g>
		<g>
			<title> (ctg1994_21)</title>
			<polygon class=" (ctg1994_21)" points="602,40 606,10 606,70" fill="rgb(255,255,255)" fill-opacity="1.0" stroke="rgb(0,0,0)" stroke-width="2"  />
		</g>
		<g>
			<title> (ctg1994_22)</title>
			<polygon class=" (ctg1994_22)" points="611,10 617,40 611,70" fill="rgb(255,255,255)" fill-opacity="1.0" stroke="rgb(0,0,0)" stroke-width="2"  />
		</g>
	</g>
</svg>
