<svg version="1.1" baseProfile="full" xmlns="http://www.w3.org/2000/svg" width="216.16666666666666" height="80">
	<g>
		<line x1="10" y1="40.0" x2="206.16666666666666" y2="40.0" style="stroke:rgb(70,70,70); stroke-width:3 "/>
		<g>
			<title> (ctg10335_1)</title>
			<polygon class=" (ctg10335_1)" points="49,25 40,25 40,10 10,40 40,70 40,55 49,55" fill="rgb(255,255,255)" fill-opacity="1.0" stroke="rgb(0,0,0)" stroke-width="2"  />
			<g>
				<title>Amidase (PF01425)
"Amidase"</title>
				<polygon class="PF01425" points="14,40 26,28 46,28 46,52 26,52" stroke-linejoin="round" width="36" height="24" fill="rgb(195,142,64)" stroke="rgb(156,113,51)" stroke-width="1" opacity="0.75" />
			</g>
		</g>
		<g>
			<title> (ctg10335_2)</title>
			<polygon class=" (ctg10335_2)" points="53,25 124,25 124,10 154,40 124,70 124,55 53,55" fill="rgb(255,255,255)" fill-opacity="1.0" stroke="rgb(0,0,0)" stroke-width="2"  />
			<g>
				<title>UvrA_inter (PF17760)
"UvrA interaction domain"</title>
				<rect class="PF17760" x="69" y="28" stroke-linejoin="round" width="10" height="24" fill="rgb(188,103,56)" stroke="rgb(150,82,44)" stroke-width="1" opacity="0.75" />
			</g>
			<g>
				<title>UvrA_DNA-bind (PF17755)
"UvrA DNA-binding domain"</title>
				<rect class="PF17755" x="85" y="28" stroke-linejoin="round" width="10" height="24" fill="rgb(101,194,220)" stroke="rgb(80,155,176)" stroke-width="1" opacity="0.75" />
			</g>
		</g>
		<g>
			<title> (ctg10335_3)</title>
			<polygon class=" (ctg10335_3)" points="159,25 159,25 159,10 189,40 159,70 159,55 159,55" fill="rgb(255,255,255)" fill-opacity="1.0" stroke="rgb(0,0,0)" stroke-width="2"  />
			<g>
				<title>SQS_PSY (PF00494)
"Squalene/phytoene synthase"</title>
				<polygon class="PF00494" points="159,28 173,28 184,39 184,41 173,52 159,52" stroke-linejoin="round" width="25" height="24" fill="rgb(178,91,49)" stroke="rgb(142,72,39)" stroke-width="1" opacity="0.75" />
			</g>
		</g>
		<g>
			<title> (ctg10335_4)</title>
			<polygon class=" (ctg10335_4)" points="189,40 206,10 206,70" fill="rgb(255,255,255)" fill-opacity="1.0" stroke="rgb(0,0,0)" stroke-width="2"  />
		</g>
	</g>
</svg>
