<svg version="1.1" baseProfile="full" xmlns="http://www.w3.org/2000/svg" width="743.3" height="80">
	<g>
		<line x1="10" y1="40.0" x2="733.3" y2="40.0" style="stroke:rgb(70,70,70); stroke-width:3 "/>
		<g>
			<title> (ctg2025_1)</title>
			<polygon class=" (ctg2025_1)" points="10,10 15,40 10,70" fill="rgb(255,255,255)" fill-opacity="1.0" stroke="rgb(0,0,0)" stroke-width="2"  />
			<g>
				<title>Sigma70_r4 (PF04545)
"Sigma-70, region 4"</title>
				<polygon class="PF04545" points="10,27 12,40 10,53" stroke-linejoin="round" width="3" height="24" fill="rgb(75,207,224)" stroke="rgb(60,165,179)" stroke-width="1" opacity="0.75" />
			</g>
		</g>
		<g>
			<title> (ctg2025_2)</title>
			<polygon class=" (ctg2025_2)" points="24,40 39,10 39,70" fill="rgb(255,255,255)" fill-opacity="1.0" stroke="rgb(0,0,0)" stroke-width="2"  />
		</g>
		<g>
			<title> (ctg2025_3)</title>
			<polygon class=" (ctg2025_3)" points="40,40 44,10 44,70" fill="rgb(255,255,255)" fill-opacity="1.0" stroke="rgb(0,0,0)" stroke-width="2"  />
		</g>
		<g>
			<title> (ctg2025_4)</title>
			<polygon class=" (ctg2025_4)" points="44,40 48,10 48,70" fill="rgb(255,255,255)" fill-opacity="1.0" stroke="rgb(0,0,0)" stroke-width="2"  />
		</g>
		<g>
			<title> (ctg2025_5)</title>
			<polygon class=" (ctg2025_5)" points="51,40 55,10 55,70" fill="rgb(255,255,255)" fill-opacity="1.0" stroke="rgb(0,0,0)" stroke-width="2"  />
		</g>
		<g>
			<title> (ctg2025_6)</title>
			<polygon class=" (ctg2025_6)" points="64,25 70,25 70,10 100,40 70,70 70,55 64,55" fill="rgb(255,255,255)" fill-opacity="1.0" stroke="rgb(0,0,0)" stroke-width="2"  />
			<g>
				<title>Aminotran_5 (PF00266)
"Aminotransferase class-V"</title>
				<polygon class="PF00266" points="64,28 83,28 95,40 83,52 64,52" stroke-linejoin="round" width="34" height="24" fill="rgb(214,54,122)" stroke="rgb(171,43,97)" stroke-width="1" opacity="0.75" />
			</g>
		</g>
		<g>
			<title> (ctg2025_7)</title>
			<polygon class=" (ctg2025_7)" points="100,25 123,25 123,10 153,40 123,70 123,55 100,55" fill="rgb(255,255,255)" fill-opacity="1.0" stroke="rgb(0,0,0)" stroke-width="2"  />
			<g>
				<title>2-Hacid_dh_C (PF02826)
"D-isomer specific 2-hydroxyacid dehydrogenase, NAD binding domain"</title>
				<rect class="PF02826" x="110" y="28" stroke-linejoin="round" width="17" height="24" fill="rgb(192,197,93)" stroke="rgb(153,157,74)" stroke-width="1" opacity="0.75" />
			</g>
			<g>
				<title>ACT (PF01842)
"ACT domain"</title>
				<polygon class="PF01842" points="145,37 148,40 145,43" stroke-linejoin="round" width="6" height="24" fill="rgb(67,209,69)" stroke="rgb(53,167,55)" stroke-width="1" opacity="0.75" />
			</g>
		</g>
		<g>
			<title> (ctg2025_8)</title>
			<polygon class=" (ctg2025_8)" points="157,25 169,25 169,10 199,40 169,70 169,55 157,55" fill="rgb(255,255,255)" fill-opacity="1.0" stroke="rgb(0,0,0)" stroke-width="2"  />
			<g>
				<title>tRNA-synt_His (PF13393)
"Histidyl-tRNA synthetase"</title>
				<polygon class="PF13393" points="157,28 183,28 187,32 187,48 183,52 157,52" stroke-linejoin="round" width="30" height="24" fill="rgb(106,63,202)" stroke="rgb(84,50,161)" stroke-width="1" opacity="0.75" />
			</g>
		</g>
		<g>
			<title> (ctg2025_9)</title>
			<polygon class=" (ctg2025_9)" points="199,25 214,25 214,10 244,40 214,70 214,55 199,55" fill="rgb(255,255,255)" fill-opacity="1.0" stroke="rgb(0,0,0)" stroke-width="2"  />
			<g>
				<title>DnaB (PF00772)
"DnaB-like helicase N terminal domain"</title>
				<rect class="PF00772" x="200" y="28" stroke-linejoin="round" width="10" height="24" fill="rgb(199,202,74)" stroke="rgb(159,161,59)" stroke-width="1" opacity="0.75" />
			</g>
			<g>
				<title>DnaB_C (PF03796)
"DnaB-like helicase C terminal domain"</title>
				<polygon class="PF03796" points="218,28 228,28 240,40 228,52 218,52" stroke-linejoin="round" width="25" height="24" fill="rgb(79,89,193)" stroke="rgb(63,71,154)" stroke-width="1" opacity="0.75" />
			</g>
		</g>
		<g>
			<title> (ctg2025_10)</title>
			<polygon class=" (ctg2025_10)" points="249,25 275,25 275,10 305,40 275,70 275,55 249,55" fill="rgb(255,255,255)" fill-opacity="1.0" stroke="rgb(0,0,0)" stroke-width="2"  />
			<g>
				<title>TPR_16 (PF13432)
"Tetratricopeptide repeat"</title>
				<rect class="PF13432" x="258" y="28" stroke-linejoin="round" width="6" height="24" fill="rgb(154,205,86)" stroke="rgb(123,164,68)" stroke-width="1" opacity="0.75" />
			</g>
			<g>
				<title>TPR_16 (PF13432)
"Tetratricopeptide repeat"</title>
				<rect class="PF13432" x="279" y="28" stroke-linejoin="round" width="6" height="24" fill="rgb(154,205,86)" stroke="rgb(123,164,68)" stroke-width="1" opacity="0.75" />
			</g>
			<g>
				<title>TPR_16 (PF13432)
"Tetratricopeptide repeat"</title>
				<polygon class="PF13432" points="289,28 289,28 294,33 294,47 289,52 289,52" stroke-linejoin="round" width="5" height="24" fill="rgb(154,205,86)" stroke="rgb(123,164,68)" stroke-width="1" opacity="0.75" />
			</g>
			<g>
				<title>TPR_16 (PF13432)
"Tetratricopeptide repeat"</title>
				<polygon class="PF13432" points="296,35 301,40 296,45" stroke-linejoin="round" width="6" height="24" fill="rgb(154,205,86)" stroke="rgb(123,164,68)" stroke-width="1" opacity="0.75" />
			</g>
		</g>
		<g>
			<title> (ctg2025_11)</title>
			<polygon class=" (ctg2025_11)" points="306,10 320,40 306,70" fill="rgb(255,255,255)" fill-opacity="1.0" stroke="rgb(0,0,0)" stroke-width="2"  />
			<g>
				<title>N_methyl (PF07963)
"Prokaryotic N-terminal methylation motif"</title>
				<rect class="PF07963" x="306" y="28" stroke-linejoin="round" width="2" height="24" fill="rgb(116,101,204)" stroke="rgb(92,80,163)" stroke-width="1" opacity="0.75" />
			</g>
		</g>
		<g>
			<title> (ctg2025_12)</title>
			<polygon class=" (ctg2025_12)" points="327,40 330,10 330,70" fill="rgb(255,255,255)" fill-opacity="1.0" stroke="rgb(0,0,0)" stroke-width="2"  />
		</g>
		<g>
			<title> (ctg2025_13)</title>
			<polygon class=" (ctg2025_13)" points="336,25 369,25 369,10 399,40 369,70 369,55 336,55" fill="rgb(255,255,255)" fill-opacity="1.0" stroke="rgb(0,0,0)" stroke-width="2"  />
			<g>
				<title>SQHop_cyclase_N (PF13249)
"Squalene-hopene cyclase N-terminal domain"</title>
				<rect class="PF13249" x="336" y="28" stroke-linejoin="round" width="27" height="24" fill="rgb(88,190,89)" stroke="rgb(70,152,71)" stroke-width="1" opacity="0.75" />
			</g>
			<g>
				<title>SQHop_cyclase_C (PF13243)
"Squalene-hopene cyclase C-terminal domain"</title>
				<polygon class="PF13243" points="365,28 383,28 395,40 383,52 365,52" stroke-linejoin="round" width="31" height="24" fill="rgb(191,58,201)" stroke="rgb(152,46,160)" stroke-width="1" opacity="0.75" />
			</g>
		</g>
		<g>
			<title> (ctg2025_14)</title>
			<polygon class=" (ctg2025_14)" points="406,10 426,40 406,70" fill="rgb(255,255,255)" fill-opacity="1.0" stroke="rgb(0,0,0)" stroke-width="2"  />
			<g>
				<title>PNP_UDP_1 (PF01048)
"Phosphorylase superfamily"</title>
				<polygon class="PF01048" points="406,28 414,28 421,38 421,42 414,52 406,52" stroke-linejoin="round" width="15" height="24" fill="rgb(75,186,148)" stroke="rgb(60,148,118)" stroke-width="1" opacity="0.75" />
			</g>
		</g>
		<g>
			<title> (ctg2025_15)</title>
			<polygon class=" (ctg2025_15)" points="427,10 450,40 427,70" fill="rgb(255,255,255)" fill-opacity="1.0" stroke="rgb(0,0,0)" stroke-width="2"  />
			<g>
				<title>MlaC (PF05494)
"MlaC protein"</title>
				<polygon class="PF05494" points="433,28 437,28 446,40 437,52 433,52" stroke-linejoin="round" width="16" height="24" fill="rgb(74,203,58)" stroke="rgb(59,162,46)" stroke-width="1" opacity="0.75" />
			</g>
		</g>
		<g>
			<title> (ctg2025_16)</title>
			<polygon class=" (ctg2025_16)" points="450,40 454,10 454,70" fill="rgb(255,255,255)" fill-opacity="1.0" stroke="rgb(0,0,0)" stroke-width="2"  />
		</g>
		<g>
			<title> (ctg2025_17)</title>
			<polygon class=" (ctg2025_17)" points="453,40 456,10 456,70" fill="rgb(255,255,255)" fill-opacity="1.0" stroke="rgb(0,0,0)" stroke-width="2"  />
		</g>
		<g>
			<title> (ctg2025_18)</title>
			<polygon class=" (ctg2025_18)" points="456,40 461,10 461,70" fill="rgb(255,255,255)" fill-opacity="1.0" stroke="rgb(0,0,0)" stroke-width="2"  />
		</g>
		<g>
			<title> (ctg2025_19)</title>
			<polygon class=" (ctg2025_19)" points="471,25 490,25 490,10 520,40 490,70 490,55 471,55" fill="rgb(255,255,255)" fill-opacity="1.0" stroke="rgb(0,0,0)" stroke-width="2"  />
			<g>
				<title>DXP_synthase_N (PF13292)
"1-deoxy-D-xylulose-5-phosphate synthase"</title>
				<rect class="PF13292" x="471" y="28" stroke-linejoin="round" width="13" height="24" fill="rgb(46,179,173)" stroke="rgb(36,143,138)" stroke-width="1" opacity="0.75" />
			</g>
			<g>
				<title>Transket_pyr (PF02779)
"Transketolase, pyrimidine binding domain"</title>
				<polygon class="PF02779" points="488,28 503,28 504,29 504,51 503,52 488,52" stroke-linejoin="round" width="16" height="24" fill="rgb(189,186,84)" stroke="rgb(151,148,67)" stroke-width="1" opacity="0.75" />
			</g>
			<g>
				<title>Transketolase_C (PF02780)
"Transketolase, C-terminal domain"</title>
				<polygon class="PF02780" points="505,30 515,40 505,50" stroke-linejoin="round" width="12" height="24" fill="rgb(76,206,101)" stroke="rgb(60,164,80)" stroke-width="1" opacity="0.75" />
			</g>
		</g>
		<g>
			<title> (ctg2025_20)</title>
			<polygon class=" (ctg2025_20)" points="518,40 523,10 523,70" fill="rgb(255,255,255)" fill-opacity="1.0" stroke="rgb(0,0,0)" stroke-width="2"  />
		</g>
		<g>
			<title> (ctg2025_21)</title>
			<polygon class=" (ctg2025_21)" points="534,10 559,40 534,70" fill="rgb(255,255,255)" fill-opacity="1.0" stroke="rgb(0,0,0)" stroke-width="2"  />
			<g>
				<title>GcpE (PF04551)
"GcpE protein"</title>
				<polygon class="PF04551" points="534,28 545,28 555,40 555,40 545,52 534,52" stroke-linejoin="round" width="21" height="24" fill="rgb(61,170,205)" stroke="rgb(48,136,164)" stroke-width="1" opacity="0.75" />
			</g>
		</g>
		<g>
			<title> (ctg2025_22)</title>
			<polygon class=" (ctg2025_22)" points="566,25 569,25 569,10 599,40 569,70 569,55 566,55" fill="rgb(255,255,255)" fill-opacity="1.0" stroke="rgb(0,0,0)" stroke-width="2"  />
			<g>
				<title>Radical_SAM (PF04055)
"Radical SAM superfamily"</title>
				<polygon class="PF04055" points="569,28 583,28 584,29 584,51 583,52 569,52" stroke-linejoin="round" width="15" height="24" fill="rgb(149,56,222)" stroke="rgb(119,44,177)" stroke-width="1" opacity="0.75" />
			</g>
			<g>
				<title>DUF3463 (PF11946)
"Domain of unknown function (DUF3463)"</title>
				<polygon class="PF11946" points="585,30 595,40 585,50" stroke-linejoin="round" width="13" height="24" fill="rgb(193,51,57)" stroke="rgb(154,40,45)" stroke-width="1" opacity="0.75" />
			</g>
		</g>
		<g>
			<title> (ctg2025_23)</title>
			<polygon class=" (ctg2025_23)" points="600,10 603,40 600,70" fill="rgb(255,255,255)" fill-opacity="1.0" stroke="rgb(0,0,0)" stroke-width="2"  />
		</g>
		<g>
			<title> (ctg2025_24)</title>
			<polygon class=" (ctg2025_24)" points="610,10 616,40 610,70" fill="rgb(255,255,255)" fill-opacity="1.0" stroke="rgb(0,0,0)" stroke-width="2"  />
		</g>
		<g>
			<title> (ctg2025_25)</title>
			<polygon class=" (ctg2025_25)" points="636,10 643,40 636,70" fill="rgb(255,255,255)" fill-opacity="1.0" stroke="rgb(0,0,0)" stroke-width="2"  />
		</g>
		<g>
			<title> (ctg2025_26)</title>
			<polygon class=" (ctg2025_26)" points="643,25 670,25 670,10 700,40 670,70 670,55 643,55" fill="rgb(255,255,255)" fill-opacity="1.0" stroke="rgb(0,0,0)" stroke-width="2"  />
			<g>
				<title>Cyt_bd_oxida_I (PF01654)
"Cytochrome bd terminal oxidase subunit I"</title>
				<polygon class="PF01654" points="646,28 683,28 695,40 683,52 646,52" stroke-linejoin="round" width="51" height="24" fill="rgb(64,127,201)" stroke="rgb(51,101,160)" stroke-width="1" opacity="0.75" />
			</g>
		</g>
		<g>
			<title> (ctg2025_27)</title>
			<polygon class=" (ctg2025_27)" points="701,10 727,40 701,70" fill="rgb(255,255,255)" fill-opacity="1.0" stroke="rgb(0,0,0)" stroke-width="2"  />
			<g>
				<title>Cytochrom_C (PF00034)
"Cytochrome c"</title>
				<polygon class="PF00034" points="717,33 723,40 717,47" stroke-linejoin="round" width="9" height="24" fill="rgb(130,184,61)" stroke="rgb(104,147,48)" stroke-width="1" opacity="0.75" />
			</g>
		</g>
	</g>
</svg>
