<svg version="1.1" baseProfile="full" xmlns="http://www.w3.org/2000/svg" width="227.1" height="80">
	<g>
		<line x1="10" y1="40.0" x2="217.1" y2="40.0" style="stroke:rgb(70,70,70); stroke-width:3 "/>
		<g>
			<title> (ctg12749_1)</title>
			<polygon class=" (ctg12749_1)" points="59,25 40,25 40,10 10,40 40,70 40,55 59,55" fill="rgb(255,255,255)" fill-opacity="1.0" stroke="rgb(0,0,0)" stroke-width="2"  />
			<g>
				<title>Xan_ur_permease (PF00860)
"Permease family"</title>
				<polygon class="PF00860" points="19,35 26,28 57,28 57,52 26,52 19,45" stroke-linejoin="round" width="38" height="24" fill="rgb(216,88,217)" stroke="rgb(172,70,173)" stroke-width="1" opacity="0.75" />
			</g>
		</g>
		<g>
			<title> (ctg12749_2)</title>
			<polygon class=" (ctg12749_2)" points="61,25 68,25 68,10 98,40 68,70 68,55 61,55" fill="rgb(255,255,255)" fill-opacity="1.0" stroke="rgb(0,0,0)" stroke-width="2"  />
			<g>
				<title>Amidohydro_2 (PF04909)
"Amidohydrolase"</title>
				<polygon class="PF04909" points="68,28 82,28 94,40 82,52 68,52" stroke-linejoin="round" width="29" height="24" fill="rgb(95,225,123)" stroke="rgb(76,180,98)" stroke-width="1" opacity="0.75" />
			</g>
		</g>
		<g>
			<title> (ctg12749_3)</title>
			<polygon class=" (ctg12749_3)" points="101,40 108,10 108,70" fill="rgb(255,255,255)" fill-opacity="1.0" stroke="rgb(0,0,0)" stroke-width="2"  />
			<g>
				<title>PP-binding (PF00550)
"Phosphopantetheine attachment site"</title>
				<polygon class="PF00550" points="104,40 107,28 107,28 107,52 107,52" stroke-linejoin="round" width="6" height="24" fill="rgb(103,191,88)" stroke="rgb(82,152,70)" stroke-width="1" opacity="0.75" />
			</g>
		</g>
		<g>
			<title> (ctg12749_4)</title>
			<polygon class=" (ctg12749_4)" points="115,25 115,25 115,10 145,40 115,70 115,55 115,55" fill="rgb(255,255,255)" fill-opacity="1.0" stroke="rgb(0,0,0)" stroke-width="2"  />
			<g>
				<title>Abhydrolase_6 (PF12697)
"Alpha/beta hydrolase family"</title>
				<polygon class="PF12697" points="118,28 129,28 141,40 129,52 118,52" stroke-linejoin="round" width="25" height="24" fill="rgb(113,71,219)" stroke="rgb(90,56,175)" stroke-width="1" opacity="0.75" />
			</g>
		</g>
		<g>
			<title> (ctg12749_5)</title>
			<polygon class=" (ctg12749_5)" points="216,25 175,25 175,10 145,40 175,70 175,55 216,55" fill="rgb(255,255,255)" fill-opacity="1.0" stroke="rgb(0,0,0)" stroke-width="2"  />
			<g>
				<title>Acyl_transf_1 (PF00698)
"Acyl transferase domain"</title>
				<polygon class="PF00698" points="158,31 161,28 170,28 170,52 161,52 158,49" stroke-linejoin="round" width="12" height="24" fill="rgb(59,176,209)" stroke="rgb(47,140,167)" stroke-width="1" opacity="0.75" />
			</g>
			<g>
				<title>KAsynt_C_assoc (PF16197)
"Ketoacyl-synthetase C-terminal extension"</title>
				<rect class="PF16197" x="173" y="28" stroke-linejoin="round" width="12" height="24" fill="rgb(240,150,172)" stroke="rgb(192,120,137)" stroke-width="1" opacity="0.75" />
			</g>
			<g>
				<title>Ketoacyl-synt_C (PF02801)
"Beta-ketoacyl synthase, C-terminal domain"</title>
				<rect class="PF02801" x="186" y="28" stroke-linejoin="round" width="11" height="24" fill="rgb(215,78,102)" stroke="rgb(172,62,81)" stroke-width="1" opacity="0.75" />
			</g>
			<g>
				<title>ketoacyl-synt (PF00109)
"Beta-ketoacyl synthase, N-terminal domain"</title>
				<rect class="PF00109" x="199" y="28" stroke-linejoin="round" width="17" height="24" fill="rgb(112,116,228)" stroke="rgb(89,92,182)" stroke-width="1" opacity="0.75" />
			</g>
		</g>
	</g>
</svg>
