<svg version="1.1" baseProfile="full" xmlns="http://www.w3.org/2000/svg" width="379.6333333333333" height="80">
	<g>
		<line x1="10" y1="40.0" x2="369.6333333333333" y2="40.0" style="stroke:rgb(70,70,70); stroke-width:3 "/>
		<g>
			<title> (ctg52_194)</title>
			<polygon class=" (ctg52_194)" points="20,40 48,10 48,70" fill="rgb(255,255,255)" fill-opacity="1.0" stroke="rgb(0,0,0)" stroke-width="2"  />
			<g>
				<title>LpxC (PF03331)
"UDP-3-O-acyl N-acetylglycosamine deacetylase"</title>
				<polygon class="PF03331" points="24,40 35,28 48,28 48,52 35,52" stroke-linejoin="round" width="25" height="24" fill="rgb(189,181,50)" stroke="rgb(151,144,40)" stroke-width="1" opacity="0.75" />
			</g>
		</g>
		<g>
			<title> (ctg52_195)</title>
			<polygon class=" (ctg52_195)" points="56,25 62,25 62,10 92,40 62,70 62,55 56,55" fill="rgb(255,255,255)" fill-opacity="1.0" stroke="rgb(0,0,0)" stroke-width="2"  />
			<g>
				<title>Dus (PF01207)
"Dihydrouridine synthase (Dus)"</title>
				<polygon class="PF01207" points="58,28 76,28 88,40 76,52 58,52" stroke-linejoin="round" width="32" height="24" fill="rgb(178,84,152)" stroke="rgb(142,67,121)" stroke-width="1" opacity="0.75" />
			</g>
		</g>
		<g>
			<title> (ctg52_196)</title>
			<polygon class=" (ctg52_196)" points="93,40 109,10 109,70" fill="rgb(255,255,255)" fill-opacity="1.0" stroke="rgb(0,0,0)" stroke-width="2"  />
			<g>
				<title>STAS_2 (PF13466)
"STAS domain"</title>
				<polygon class="PF13466" points="99,34 102,28 107,28 107,52 102,52 99,46" stroke-linejoin="round" width="8" height="24" fill="rgb(206,83,63)" stroke="rgb(164,66,50)" stroke-width="1" opacity="0.75" />
			</g>
		</g>
		<g>
			<title> (ctg52_197)</title>
			<polygon class=" (ctg52_197)" points="146,25 140,25 140,10 110,40 140,70 140,55 146,55" fill="rgb(255,255,255)" fill-opacity="1.0" stroke="rgb(0,0,0)" stroke-width="2"  />
			<g>
				<title>SpoIIE (PF07228)
"Stage II sporulation protein E (SpoIIE)"</title>
				<polygon class="PF07228" points="114,40 126,28 128,28 128,52 126,52" stroke-linejoin="round" width="18" height="24" fill="rgb(85,195,217)" stroke="rgb(68,155,173)" stroke-width="1" opacity="0.75" />
			</g>
		</g>
		<g>
			<title> (ctg52_198)</title>
			<polygon class=" (ctg52_198)" points="149,40 174,10 174,70" fill="rgb(255,255,255)" fill-opacity="1.0" stroke="rgb(0,0,0)" stroke-width="2"  />
			<g>
				<title>DUF2063 (PF09836)
"Putative DNA-binding domain"</title>
				<rect class="PF09836" x="165" y="28" stroke-linejoin="round" width="8" height="24" fill="rgb(88,194,190)" stroke="rgb(70,155,152)" stroke-width="1" opacity="0.75" />
			</g>
		</g>
		<g>
			<title> (ctg52_199)</title>
			<polygon class=" (ctg52_199)" points="176,40 202,10 202,70" fill="rgb(255,255,255)" fill-opacity="1.0" stroke="rgb(0,0,0)" stroke-width="2"  />
			<g>
				<title>DUF692 (PF05114)
"Protein of unknown function (DUF692)"</title>
				<polygon class="PF05114" points="180,40 191,28 201,28 201,52 191,52" stroke-linejoin="round" width="25" height="24" fill="rgb(63,196,127)" stroke="rgb(50,156,101)" stroke-width="1" opacity="0.75" />
			</g>
		</g>
		<g>
			<title> (ctg52_200)</title>
			<polygon class=" (ctg52_200)" points="208,40 216,10 216,70" fill="rgb(255,255,255)" fill-opacity="1.0" stroke="rgb(0,0,0)" stroke-width="2"  />
		</g>
		<g>
			<title> (ctg52_201)</title>
			<polygon class=" (ctg52_201)" points="355,25 252,25 252,10 222,40 252,70 252,55 355,55" fill="rgb(255,255,255)" fill-opacity="1.0" stroke="rgb(0,0,0)" stroke-width="2"  />
			<g>
				<title>DUF3418 (PF11898)
"Domain of unknown function (DUF3418)"</title>
				<polygon class="PF11898" points="226,40 238,28 282,28 282,52 238,52" stroke-linejoin="round" width="58" height="24" fill="rgb(111,68,209)" stroke="rgb(88,54,167)" stroke-width="1" opacity="0.75" />
			</g>
			<g>
				<title>HA2 (PF04408)
"Helicase associated domain (HA2)"</title>
				<rect class="PF04408" x="298" y="28" stroke-linejoin="round" width="11" height="24" fill="rgb(142,68,179)" stroke="rgb(113,54,143)" stroke-width="1" opacity="0.75" />
			</g>
			<g>
				<title>Helicase_C (PF00271)
"Helicase conserved C-terminal domain"</title>
				<rect class="PF00271" x="316" y="28" stroke-linejoin="round" width="13" height="24" fill="rgb(104,224,158)" stroke="rgb(83,179,126)" stroke-width="1" opacity="0.75" />
			</g>
			<g>
				<title>DEAD (PF00270)
"DEAD/DEAH box helicase"</title>
				<rect class="PF00270" x="336" y="28" stroke-linejoin="round" width="15" height="24" fill="rgb(195,100,62)" stroke="rgb(156,80,49)" stroke-width="1" opacity="0.75" />
			</g>
		</g>
	</g>
</svg>
