<svg version="1.1" baseProfile="full" xmlns="http://www.w3.org/2000/svg" width="1408.6333333333334" height="80">
	<g>
		<line x1="10" y1="40.0" x2="1398.6333333333334" y2="40.0" style="stroke:rgb(70,70,70); stroke-width:3 "/>
		<g>
			<title> (ctg53_127)</title>
			<polygon class=" (ctg53_127)" points="46,10 57,40 46,70" fill="rgb(255,255,255)" fill-opacity="1.0" stroke="rgb(0,0,0)" stroke-width="2"  />
		</g>
		<g>
			<title> (ctg53_128)</title>
			<polygon class=" (ctg53_128)" points="60,25 72,25 72,10 102,40 72,70 72,55 60,55" fill="rgb(255,255,255)" fill-opacity="1.0" stroke="rgb(0,0,0)" stroke-width="2"  />
			<g>
				<title>MFS_1 (PF07690)
"Major Facilitator Superfamily"</title>
				<polygon class="PF07690" points="60,28 86,28 98,40 98,40 86,52 60,52" stroke-linejoin="round" width="38" height="24" fill="rgb(193,224,74)" stroke="rgb(154,179,59)" stroke-width="1" opacity="0.75" />
			</g>
		</g>
		<g>
			<title> (ctg53_129)</title>
			<polygon class=" (ctg53_129)" points="103,40 110,10 110,70" fill="rgb(255,255,255)" fill-opacity="1.0" stroke="rgb(0,0,0)" stroke-width="2"  />
		</g>
		<g>
			<title> (ctg53_130)</title>
			<polygon class=" (ctg53_130)" points="112,40 121,10 121,70" fill="rgb(255,255,255)" fill-opacity="1.0" stroke="rgb(0,0,0)" stroke-width="2"  />
		</g>
		<g>
			<title> (ctg53_131)</title>
			<polygon class=" (ctg53_131)" points="155,25 153,25 153,10 123,40 153,70 153,55 155,55" fill="rgb(255,255,255)" fill-opacity="1.0" stroke="rgb(0,0,0)" stroke-width="2"  />
		</g>
		<g>
			<title> (ctg53_132)</title>
			<polygon class=" (ctg53_132)" points="156,40 171,10 171,70" fill="rgb(255,255,255)" fill-opacity="1.0" stroke="rgb(0,0,0)" stroke-width="2"  />
			<g>
				<title>AsnC_trans_reg (PF01037)
"Lrp/AsnC ligand binding domain"</title>
				<polygon class="PF01037" points="159,40 164,30 164,50" stroke-linejoin="round" width="7" height="24" fill="rgb(134,72,182)" stroke="rgb(107,57,145)" stroke-width="1" opacity="0.75" />
			</g>
			<g>
				<title>HTH_24 (PF13412)
"Winged helix-turn-helix DNA-binding"</title>
				<rect class="PF13412" x="166" y="28" stroke-linejoin="round" width="4" height="24" fill="rgb(222,79,68)" stroke="rgb(177,63,54)" stroke-width="1" opacity="0.75" />
			</g>
		</g>
		<g>
			<title> (ctg53_133)</title>
			<polygon class=" (ctg53_133)" points="177,25 184,25 184,10 214,40 184,70 184,55 177,55" fill="rgb(255,255,255)" fill-opacity="1.0" stroke="rgb(0,0,0)" stroke-width="2"  />
			<g>
				<title>AlaDh_PNT_N (PF05222)
"Alanine dehydrogenase/PNT, N-terminal domain"</title>
				<rect class="PF05222" x="177" y="28" stroke-linejoin="round" width="13" height="24" fill="rgb(60,217,133)" stroke="rgb(47,173,106)" stroke-width="1" opacity="0.75" />
			</g>
			<g>
				<title>AlaDh_PNT_C (PF01262)
"Alanine dehydrogenase/PNT, C-terminal domain"</title>
				<polygon class="PF01262" points="191,28 198,28 210,40 198,52 191,52" stroke-linejoin="round" width="21" height="24" fill="rgb(96,211,180)" stroke="rgb(76,168,144)" stroke-width="1" opacity="0.75" />
			</g>
		</g>
		<g>
			<title> (ctg53_134)</title>
			<polygon class=" (ctg53_134)" points="266,25 246,25 246,10 216,40 246,70 246,55 266,55" fill="rgb(255,255,255)" fill-opacity="1.0" stroke="rgb(0,0,0)" stroke-width="2"  />
			<g>
				<title>GMC_oxred_C (PF05199)
"GMC oxidoreductase"</title>
				<polygon class="PF05199" points="220,40 229,31 229,49" stroke-linejoin="round" width="13" height="24" fill="rgb(186,52,106)" stroke="rgb(148,41,84)" stroke-width="1" opacity="0.75" />
			</g>
			<g>
				<title>GMC_oxred_N (PF00732)
"GMC oxidoreductase"</title>
				<rect class="PF00732" x="237" y="28" stroke-linejoin="round" width="28" height="24" fill="rgb(180,89,214)" stroke="rgb(143,71,171)" stroke-width="1" opacity="0.75" />
			</g>
		</g>
		<g>
			<title> (ctg53_135)</title>
			<polygon class=" (ctg53_135)" points="266,40 291,10 291,70" fill="rgb(255,255,255)" fill-opacity="1.0" stroke="rgb(0,0,0)" stroke-width="2"  />
			<g>
				<title>ECH_1 (PF00378)
"Enoyl-CoA hydratase/isomerase"</title>
				<polygon class="PF00378" points="270,40 280,28 290,28 290,52 280,52" stroke-linejoin="round" width="23" height="24" fill="rgb(218,72,181)" stroke="rgb(174,57,144)" stroke-width="1" opacity="0.75" />
			</g>
		</g>
		<g>
			<title> (ctg53_136)</title>
			<polygon class=" (ctg53_136)" points="296,25 302,25 302,10 332,40 302,70 302,55 296,55" fill="rgb(255,255,255)" fill-opacity="1.0" stroke="rgb(0,0,0)" stroke-width="2"  />
			<g>
				<title>Bac_luciferase (PF00296)
"Luciferase-like monooxygenase"</title>
				<polygon class="PF00296" points="296,28 315,28 327,40 327,40 315,52 296,52" stroke-linejoin="round" width="31" height="24" fill="rgb(180,112,78)" stroke="rgb(144,89,62)" stroke-width="1" opacity="0.75" />
			</g>
		</g>
		<g>
			<title> (ctg53_137)</title>
			<polygon class=" (ctg53_137)" points="332,10 347,40 332,70" fill="rgb(255,255,255)" fill-opacity="1.0" stroke="rgb(0,0,0)" stroke-width="2"  />
		</g>
		<g>
			<title> (ctg53_138)</title>
			<polygon class=" (ctg53_138)" points="347,10 360,40 347,70" fill="rgb(255,255,255)" fill-opacity="1.0" stroke="rgb(0,0,0)" stroke-width="2"  />
			<g>
				<title>MaoC_dehydratas (PF01575)
"MaoC like domain"</title>
				<polygon class="PF01575" points="347,28 351,28 357,40 357,40 351,52 347,52" stroke-linejoin="round" width="10" height="24" fill="rgb(218,129,86)" stroke="rgb(174,103,68)" stroke-width="1" opacity="0.75" />
			</g>
		</g>
		<g>
			<title> (ctg53_139)</title>
			<polygon class=" (ctg53_139)" points="361,40 389,10 389,70" fill="rgb(255,255,255)" fill-opacity="1.0" stroke="rgb(0,0,0)" stroke-width="2"  />
			<g>
				<title>ABC-3 (PF00950)
"ABC 3 transport family"</title>
				<polygon class="PF00950" points="365,40 377,28 387,28 387,52 377,52" stroke-linejoin="round" width="25" height="24" fill="rgb(190,102,215)" stroke="rgb(152,81,172)" stroke-width="1" opacity="0.75" />
			</g>
		</g>
		<g>
			<title> (ctg53_140)</title>
			<polygon class=" (ctg53_140)" points="427,25 421,25 421,10 391,40 421,70 421,55 427,55" fill="rgb(255,255,255)" fill-opacity="1.0" stroke="rgb(0,0,0)" stroke-width="2"  />
			<g>
				<title>ZnuA (PF01297)
"Zinc-uptake complex component A periplasmic"</title>
				<polygon class="PF01297" points="395,40 407,28 426,28 426,52 407,52" stroke-linejoin="round" width="35" height="24" fill="rgb(78,178,130)" stroke="rgb(62,142,104)" stroke-width="1" opacity="0.75" />
			</g>
		</g>
		<g>
			<title> (ctg53_141)</title>
			<polygon class=" (ctg53_141)" points="430,10 438,40 430,70" fill="rgb(255,255,255)" fill-opacity="1.0" stroke="rgb(0,0,0)" stroke-width="2"  />
		</g>
		<g>
			<title> (ctg53_142)</title>
			<polygon class=" (ctg53_142)" points="439,10 454,40 439,70" fill="rgb(255,255,255)" fill-opacity="1.0" stroke="rgb(0,0,0)" stroke-width="2"  />
			<g>
				<title>FUR (PF01475)
"Ferric uptake regulator family"</title>
				<polygon class="PF01475" points="441,28 444,28 451,40 444,52 441,52" stroke-linejoin="round" width="12" height="24" fill="rgb(167,195,50)" stroke="rgb(133,156,40)" stroke-width="1" opacity="0.75" />
			</g>
		</g>
		<g>
			<title> (ctg53_143)</title>
			<polygon class=" (ctg53_143)" points="456,25 478,25 478,10 508,40 478,70 478,55 456,55" fill="rgb(255,255,255)" fill-opacity="1.0" stroke="rgb(0,0,0)" stroke-width="2"  />
			<g>
				<title>Acyl-CoA_dh_N (PF02771)
"Acyl-CoA dehydrogenase, N-terminal domain"</title>
				<rect class="PF02771" x="456" y="28" stroke-linejoin="round" width="11" height="24" fill="rgb(105,135,218)" stroke="rgb(84,108,174)" stroke-width="1" opacity="0.75" />
			</g>
			<g>
				<title>Acyl-CoA_dh_M (PF02770)
"Acyl-CoA dehydrogenase, middle domain"</title>
				<rect class="PF02770" x="469" y="28" stroke-linejoin="round" width="9" height="24" fill="rgb(225,186,97)" stroke="rgb(180,148,77)" stroke-width="1" opacity="0.75" />
			</g>
			<g>
				<title>Acyl-CoA_dh_1 (PF00441)
"Acyl-CoA dehydrogenase, C-terminal domain"</title>
				<polygon class="PF00441" points="495,31 504,40 495,49" stroke-linejoin="round" width="13" height="24" fill="rgb(85,191,117)" stroke="rgb(68,152,93)" stroke-width="1" opacity="0.75" />
			</g>
		</g>
		<g>
			<title> (ctg53_144)</title>
			<polygon class=" (ctg53_144)" points="509,40 534,10 534,70" fill="rgb(255,255,255)" fill-opacity="1.0" stroke="rgb(0,0,0)" stroke-width="2"  />
			<g>
				<title>TauD (PF02668)
"Taurine catabolism dioxygenase TauD, TfdA family"</title>
				<polygon class="PF02668" points="513,40 523,28 534,28 534,52 523,52" stroke-linejoin="round" width="25" height="24" fill="rgb(180,79,217)" stroke="rgb(144,63,173)" stroke-width="1" opacity="0.75" />
			</g>
		</g>
		<g>
			<title> (ctg53_145)</title>
			<polygon class=" (ctg53_145)" points="584,25 566,25 566,10 536,40 566,70 566,55 584,55" fill="rgb(255,255,255)" fill-opacity="1.0" stroke="rgb(0,0,0)" stroke-width="2"  />
			<g>
				<title>Glyco_hydro_20 (PF00728)
"Glycosyl hydrolase family 20, catalytic domain"</title>
				<rect class="PF00728" x="562" y="28" stroke-linejoin="round" width="22" height="24" fill="rgb(83,201,133)" stroke="rgb(66,160,106)" stroke-width="1" opacity="0.75" />
			</g>
		</g>
		<g>
			<title> (ctg53_146)</title>
			<polygon class=" (ctg53_146)" points="587,10 608,40 587,70" fill="rgb(255,255,255)" fill-opacity="1.0" stroke="rgb(0,0,0)" stroke-width="2"  />
			<g>
				<title>TetR_N (PF00440)
"Bacterial regulatory proteins, tetR family"</title>
				<rect class="PF00440" x="589" y="28" stroke-linejoin="round" width="4" height="24" fill="rgb(73,212,190)" stroke="rgb(58,169,152)" stroke-width="1" opacity="0.75" />
			</g>
		</g>
		<g>
			<title> (ctg53_147)</title>
			<polygon class=" (ctg53_147)" points="649,25 641,25 641,10 611,40 641,70 641,55 649,55" fill="rgb(255,255,255)" fill-opacity="1.0" stroke="rgb(0,0,0)" stroke-width="2"  />
			<g>
				<title>Amidohydro_2 (PF04909)
"Amidohydrolase"</title>
				<polygon class="PF04909" points="615,40 627,28 648,28 648,52 627,52" stroke-linejoin="round" width="37" height="24" fill="rgb(95,225,123)" stroke="rgb(76,180,98)" stroke-width="1" opacity="0.75" />
			</g>
		</g>
		<g>
			<title> (ctg53_148)</title>
			<polygon class=" (ctg53_148)" points="651,40 676,10 676,70" fill="rgb(255,255,255)" fill-opacity="1.0" stroke="rgb(0,0,0)" stroke-width="2"  />
			<g>
				<title>adh_short_C2 (PF13561)
"Enoyl-(Acyl carrier protein) reductase"</title>
				<polygon class="PF13561" points="655,40 665,28 674,28 674,52 665,52" stroke-linejoin="round" width="23" height="24" fill="rgb(73,205,127)" stroke="rgb(58,164,101)" stroke-width="1" opacity="0.75" />
			</g>
		</g>
		<g>
			<title> (ctg53_149)</title>
			<polygon class=" (ctg53_149)" points="731,25 706,25 706,10 676,40 706,70 706,55 731,55" fill="rgb(255,255,255)" fill-opacity="1.0" stroke="rgb(0,0,0)" stroke-width="2"  />
			<g>
				<title>Neocarzinostat (PF00960)
"Neocarzinostatin family"</title>
				<polygon class="PF00960" points="680,40 686,34 686,46" stroke-linejoin="round" width="10" height="24" fill="rgb(223,193,87)" stroke="rgb(178,154,69)" stroke-width="1" opacity="0.75" />
			</g>
			<g>
				<title>Chlorophyllase2 (PF12740)
"Chlorophyllase enzyme"</title>
				<rect class="PF12740" x="696" y="28" stroke-linejoin="round" width="16" height="24" fill="rgb(225,187,68)" stroke="rgb(180,149,54)" stroke-width="1" opacity="0.75" />
			</g>
		</g>
		<g>
			<title> (ctg53_150)</title>
			<polygon class=" (ctg53_150)" points="769,25 763,25 763,10 733,40 763,70 763,55 769,55" fill="rgb(255,255,255)" fill-opacity="1.0" stroke="rgb(0,0,0)" stroke-width="2"  />
			<g>
				<title>ADH_zinc_N (PF00107)
"Zinc-binding dehydrogenase"</title>
				<polygon class="PF00107" points="737,40 749,28 749,28 749,52 749,52" stroke-linejoin="round" width="13" height="24" fill="rgb(81,108,215)" stroke="rgb(64,86,172)" stroke-width="1" opacity="0.75" />
			</g>
			<g>
				<title>ADH_N (PF08240)
"Alcohol dehydrogenase GroES-like domain"</title>
				<rect class="PF08240" x="754" y="28" stroke-linejoin="round" width="12" height="24" fill="rgb(211,65,138)" stroke="rgb(168,51,110)" stroke-width="1" opacity="0.75" />
			</g>
		</g>
		<g>
			<title> (ctg53_151)</title>
			<polygon class=" (ctg53_151)" points="810,25 800,25 800,10 770,40 800,70 800,55 810,55" fill="rgb(255,255,255)" fill-opacity="1.0" stroke="rgb(0,0,0)" stroke-width="2"  />
			<g>
				<title>CoA_transf_3 (PF02515)
"CoA-transferase family III"</title>
				<polygon class="PF02515" points="774,40 786,28 809,28 809,52 786,52" stroke-linejoin="round" width="37" height="24" fill="rgb(226,102,90)" stroke="rgb(180,81,72)" stroke-width="1" opacity="0.75" />
			</g>
		</g>
		<g>
			<title> (ctg53_152)</title>
			<polygon class=" (ctg53_152)" points="812,25 826,25 826,10 856,40 826,70 826,55 812,55" fill="rgb(255,255,255)" fill-opacity="1.0" stroke="rgb(0,0,0)" stroke-width="2"  />
			<g>
				<title>NTP_transf_9 (PF04248)
"Domain of unknown function (DUF427)"</title>
				<rect class="PF04248" x="815" y="28" stroke-linejoin="round" width="9" height="24" fill="rgb(184,123,83)" stroke="rgb(147,98,66)" stroke-width="1" opacity="0.75" />
			</g>
			<g>
				<title>4HBT_3 (PF13622)
"Thioesterase-like superfamily"</title>
				<polygon class="PF13622" points="830,28 840,28 852,40 840,52 830,52" stroke-linejoin="round" width="24" height="24" fill="rgb(136,87,203)" stroke="rgb(108,69,162)" stroke-width="1" opacity="0.75" />
			</g>
		</g>
		<g>
			<title> (ctg53_153)</title>
			<polygon class=" (ctg53_153)" points="903,25 887,25 887,10 857,40 887,70 887,55 903,55" fill="rgb(255,255,255)" fill-opacity="1.0" stroke="rgb(0,0,0)" stroke-width="2"  />
			<g>
				<title>Amidase (PF01425)
"Amidase"</title>
				<polygon class="PF01425" points="861,40 873,28 901,28 901,52 873,52" stroke-linejoin="round" width="42" height="24" fill="rgb(195,142,64)" stroke="rgb(156,113,51)" stroke-width="1" opacity="0.75" />
			</g>
		</g>
		<g>
			<title> (ctg53_154)</title>
			<polygon class=" (ctg53_154)" points="936,25 935,25 935,10 905,40 935,70 935,55 936,55" fill="rgb(255,255,255)" fill-opacity="1.0" stroke="rgb(0,0,0)" stroke-width="2"  />
			<g>
				<title>Bac_luciferase (PF00296)
"Luciferase-like monooxygenase"</title>
				<polygon class="PF00296" points="909,40 921,28 933,28 933,52 921,52" stroke-linejoin="round" width="25" height="24" fill="rgb(180,112,78)" stroke="rgb(144,89,62)" stroke-width="1" opacity="0.75" />
			</g>
		</g>
		<g>
			<title> (ctg53_155)</title>
			<polygon class=" (ctg53_155)" points="976,25 967,25 967,10 937,40 967,70 967,55 976,55" fill="rgb(255,255,255)" fill-opacity="1.0" stroke="rgb(0,0,0)" stroke-width="2"  />
			<g>
				<title>GCV_T (PF01571)
"Aminomethyltransferase folate-binding domain"</title>
				<polygon class="PF01571" points="948,33 953,28 973,28 973,52 953,52 948,47" stroke-linejoin="round" width="25" height="24" fill="rgb(112,228,161)" stroke="rgb(89,182,128)" stroke-width="1" opacity="0.75" />
			</g>
		</g>
		<g>
			<title> (ctg53_156)</title>
			<polygon class=" (ctg53_156)" points="979,10 996,40 979,70" fill="rgb(255,255,255)" fill-opacity="1.0" stroke="rgb(0,0,0)" stroke-width="2"  />
			<g>
				<title>Macro (PF01661)
"Macro domain"</title>
				<polygon class="PF01661" points="981,28 985,28 992,39 992,41 985,52 981,52" stroke-linejoin="round" width="11" height="24" fill="rgb(65,211,62)" stroke="rgb(51,168,49)" stroke-width="1" opacity="0.75" />
			</g>
		</g>
		<g>
			<title> (ctg53_157)</title>
			<polygon class=" (ctg53_157)" points="996,40 1024,10 1024,70" fill="rgb(255,255,255)" fill-opacity="1.0" stroke="rgb(0,0,0)" stroke-width="2"  />
			<g>
				<title>ECH_1 (PF00378)
"Enoyl-CoA hydratase/isomerase"</title>
				<polygon class="PF00378" points="1000,40 1011,28 1023,28 1023,52 1011,52 1000,40" stroke-linejoin="round" width="23" height="24" fill="rgb(218,72,181)" stroke="rgb(174,57,144)" stroke-width="1" opacity="0.75" />
			</g>
		</g>
		<g>
			<title> (ctg53_158)</title>
			<polygon class=" (ctg53_158)" points="1028,40 1053,10 1053,70" fill="rgb(255,255,255)" fill-opacity="1.0" stroke="rgb(0,0,0)" stroke-width="2"  />
		</g>
		<g>
			<title> (ctg53_159)</title>
			<polygon class=" (ctg53_159)" points="1095,25 1084,25 1084,10 1054,40 1084,70 1084,55 1095,55" fill="rgb(255,255,255)" fill-opacity="1.0" stroke="rgb(0,0,0)" stroke-width="2"  />
			<g>
				<title>p450 (PF00067)
"Cytochrome P450"</title>
				<polygon class="PF00067" points="1058,40 1070,28 1076,28 1076,52 1070,52" stroke-linejoin="round" width="22" height="24" fill="rgb(85,216,107)" stroke="rgb(68,172,85)" stroke-width="1" opacity="0.75" />
			</g>
		</g>
		<g>
			<title> (ctg53_160)</title>
			<polygon class=" (ctg53_160)" points="1096,40 1102,10 1102,70" fill="rgb(255,255,255)" fill-opacity="1.0" stroke="rgb(0,0,0)" stroke-width="2"  />
			<g>
				<title>Fer4_13 (PF13370)
"4Fe-4S single cluster domain of Ferredoxin I"</title>
				<polygon class="PF13370" points="1099,40 1101,31 1101,49" stroke-linejoin="round" width="5" height="24" fill="rgb(220,216,65)" stroke="rgb(176,172,52)" stroke-width="1" opacity="0.75" />
			</g>
		</g>
		<g>
			<title> (ctg53_161)</title>
			<polygon class=" (ctg53_161)" points="1143,25 1134,25 1134,10 1104,40 1134,70 1134,55 1143,55" fill="rgb(255,255,255)" fill-opacity="1.0" stroke="rgb(0,0,0)" stroke-width="2"  />
		</g>
		<g>
			<title> (ctg53_162)</title>
			<polygon class=" (ctg53_162)" points="1143,40 1157,10 1157,70" fill="rgb(255,255,255)" fill-opacity="1.0" stroke="rgb(0,0,0)" stroke-width="2"  />
			<g>
				<title>OB_aCoA_assoc (PF01796)
"DUF35 OB-fold domain, acyl-CoA-associated"</title>
				<polygon class="PF01796" points="1146,40 1150,31 1150,49" stroke-linejoin="round" width="6" height="24" fill="rgb(76,159,198)" stroke="rgb(60,127,158)" stroke-width="1" opacity="0.75" />
			</g>
			<g>
				<title>DUF35_N (PF12172)
"Rubredoxin-like zinc ribbon domain (DUF35_N)"</title>
				<polygon class="PF12172" points="1151,29 1152,28 1154,28 1154,52 1152,52 1151,51" stroke-linejoin="round" width="3" height="24" fill="rgb(189,90,191)" stroke="rgb(151,72,152)" stroke-width="1" opacity="0.75" />
			</g>
		</g>
		<g>
			<title> (ctg53_163)</title>
			<polygon class=" (ctg53_163)" points="1192,25 1188,25 1188,10 1158,40 1188,70 1188,55 1192,55" fill="rgb(255,255,255)" fill-opacity="1.0" stroke="rgb(0,0,0)" stroke-width="2"  />
			<g>
				<title>SnoaL_2 (PF12680)
"SnoaL-like domain"</title>
				<polygon class="PF12680" points="1162,40 1173,29 1173,51 1162,40" stroke-linejoin="round" width="11" height="24" fill="rgb(184,69,155)" stroke="rgb(147,55,124)" stroke-width="1" opacity="0.75" />
			</g>
			<g>
				<title>SnoaL (PF07366)
"SnoaL-like polyketide cyclase"</title>
				<rect class="PF07366" x="1178" y="28" stroke-linejoin="round" width="13" height="24" fill="rgb(206,89,111)" stroke="rgb(164,71,88)" stroke-width="1" opacity="0.75" />
			</g>
		</g>
		<g>
			<title> (ctg53_164)</title>
			<polygon class=" (ctg53_164)" points="1231,25 1223,25 1223,10 1193,40 1223,70 1223,55 1231,55" fill="rgb(255,255,255)" fill-opacity="1.0" stroke="rgb(0,0,0)" stroke-width="2"  />
			<g>
				<title>Meth_synt_2 (PF01717)
"Cobalamin-independent synthase, Catalytic domain"</title>
				<polygon class="PF01717" points="1197,40 1209,28 1221,28 1221,52 1209,52" stroke-linejoin="round" width="26" height="24" fill="rgb(163,221,87)" stroke="rgb(130,176,69)" stroke-width="1" opacity="0.75" />
			</g>
			<g>
				<title>Meth_synt_2 (PF01717)
"Cobalamin-independent synthase, Catalytic domain"</title>
				<rect class="PF01717" x="1222" y="28" stroke-linejoin="round" width="8" height="24" fill="rgb(163,221,87)" stroke="rgb(130,176,69)" stroke-width="1" opacity="0.75" />
			</g>
		</g>
		<g>
			<title> (ctg53_165)</title>
			<polygon class=" (ctg53_165)" points="1272,25 1263,25 1263,10 1233,40 1263,70 1263,55 1272,55" fill="rgb(255,255,255)" fill-opacity="1.0" stroke="rgb(0,0,0)" stroke-width="2"  />
			<g>
				<title>OB_MalK (PF17912)
"MalK OB fold domain"</title>
				<polygon class="PF17912" points="1242,35 1247,30 1247,50 1242,45" stroke-linejoin="round" width="5" height="24" fill="rgb(203,61,211)" stroke="rgb(162,48,168)" stroke-width="1" opacity="0.75" />
			</g>
			<g>
				<title>ABC_tran (PF00005)
"ABC transporter"</title>
				<rect class="PF00005" x="1255" y="28" stroke-linejoin="round" width="14" height="24" fill="rgb(129,201,63)" stroke="rgb(103,160,50)" stroke-width="1" opacity="0.75" />
			</g>
		</g>
		<g>
			<title> (ctg53_166)</title>
			<polygon class=" (ctg53_166)" points="1308,25 1302,25 1302,10 1272,40 1302,70 1302,55 1308,55" fill="rgb(255,255,255)" fill-opacity="1.0" stroke="rgb(0,0,0)" stroke-width="2"  />
		</g>
		<g>
			<title> (ctg53_167)</title>
			<polygon class=" (ctg53_167)" points="1344,25 1339,25 1339,10 1309,40 1339,70 1339,55 1344,55" fill="rgb(255,255,255)" fill-opacity="1.0" stroke="rgb(0,0,0)" stroke-width="2"  />
			<g>
				<title>BPD_transp_1 (PF00528)
"Binding-protein-dependent transport system inner membrane component"</title>
				<polygon class="PF00528" points="1313,40 1325,28 1334,28 1334,52 1325,52" stroke-linejoin="round" width="25" height="24" fill="rgb(77,208,225)" stroke="rgb(61,166,180)" stroke-width="1" opacity="0.75" />
			</g>
		</g>
		<g>
			<title> (ctg53_168)</title>
			<polygon class=" (ctg53_168)" points="1345,40 1373,10 1373,70" fill="rgb(255,255,255)" fill-opacity="1.0" stroke="rgb(0,0,0)" stroke-width="2"  />
		</g>
	</g>
</svg>
