<svg version="1.1" baseProfile="full" xmlns="http://www.w3.org/2000/svg" width="243.3" height="80">
	<g>
		<line x1="10" y1="40.0" x2="233.3" y2="40.0" style="stroke:rgb(70,70,70); stroke-width:3 "/>
		<g>
			<title> (ctg8655_1)</title>
			<polygon class=" (ctg8655_1)" points="10,10 20,40 10,70" fill="rgb(255,255,255)" fill-opacity="1.0" stroke="rgb(0,0,0)" stroke-width="2"  />
			<g>
				<title>Transglut_core3 (PF13471)
"Transglutaminase-like superfamily"</title>
				<polygon class="PF13471" points="10,28 12,28 17,40 12,52 10,52" stroke-linejoin="round" width="9" height="24" fill="rgb(63,111,179)" stroke="rgb(50,88,143)" stroke-width="1" opacity="0.75" />
			</g>
		</g>
		<g>
			<title> (ctg8655_2)</title>
			<polygon class=" (ctg8655_2)" points="23,25 56,25 56,10 86,40 56,70 56,55 23,55" fill="rgb(255,255,255)" fill-opacity="1.0" stroke="rgb(0,0,0)" stroke-width="2"  />
			<g>
				<title>GATase_7 (PF13537)
"Glutamine amidotransferase domain"</title>
				<rect class="PF13537" x="29" y="28" stroke-linejoin="round" width="10" height="24" fill="rgb(200,63,57)" stroke="rgb(160,50,45)" stroke-width="1" opacity="0.75" />
			</g>
			<g>
				<title>Asn_synthase (PF00733)
"Asparagine synthase"</title>
				<polygon class="PF00733" points="47,28 70,28 82,40 70,52 47,52" stroke-linejoin="round" width="37" height="24" fill="rgb(97,201,176)" stroke="rgb(77,160,140)" stroke-width="1" opacity="0.75" />
			</g>
		</g>
		<g>
			<title> (ctg8655_3)</title>
			<polygon class=" (ctg8655_3)" points="87,10 96,40 87,70" fill="rgb(255,255,255)" fill-opacity="1.0" stroke="rgb(0,0,0)" stroke-width="2"  />
			<g>
				<title>PqqD (PF05402)
"Coenzyme PQQ synthesis protein D (PqqD)"</title>
				<polygon class="PF05402" points="89,28 89,28 93,40 89,52 89,52" stroke-linejoin="round" width="6" height="24" fill="rgb(124,62,188)" stroke="rgb(99,49,150)" stroke-width="1" opacity="0.75" />
			</g>
		</g>
		<g>
			<title> (ctg8655_4)</title>
			<polygon class=" (ctg8655_4)" points="103,25 113,25 113,10 143,40 113,70 113,55 103,55" fill="rgb(255,255,255)" fill-opacity="1.0" stroke="rgb(0,0,0)" stroke-width="2"  />
			<g>
				<title>FMN_dh (PF01070)
"FMN-dependent dehydrogenase"</title>
				<polygon class="PF01070" points="109,28 126,28 138,40 126,52 109,52" stroke-linejoin="round" width="33" height="24" fill="rgb(59,82,204)" stroke="rgb(47,65,163)" stroke-width="1" opacity="0.75" />
			</g>
		</g>
		<g>
			<title> (ctg8655_5)</title>
			<polygon class=" (ctg8655_5)" points="149,25 186,25 186,10 216,40 186,70 186,55 149,55" fill="rgb(255,255,255)" fill-opacity="1.0" stroke="rgb(0,0,0)" stroke-width="2"  />
			<g>
				<title>PQQ_2 (PF13360)
"PQQ-like domain"</title>
				<rect class="PF13360" x="155" y="28" stroke-linejoin="round" width="18" height="24" fill="rgb(98,210,146)" stroke="rgb(78,168,116)" stroke-width="1" opacity="0.75" />
			</g>
			<g>
				<title>PQQ_3 (PF13570)
"PQQ-like domain"</title>
				<polygon class="PF13570" points="205,34 211,40 211,40 205,46" stroke-linejoin="round" width="6" height="24" fill="rgb(154,89,181)" stroke="rgb(123,71,144)" stroke-width="1" opacity="0.75" />
			</g>
		</g>
		<g>
			<title> (ctg8655_6)</title>
			<polygon class=" (ctg8655_6)" points="220,10 226,40 220,70" fill="rgb(255,255,255)" fill-opacity="1.0" stroke="rgb(0,0,0)" stroke-width="2"  />
		</g>
	</g>
</svg>
