<svg version="1.1" baseProfile="full" xmlns="http://www.w3.org/2000/svg" width="586.8" height="80">
	<g>
		<line x1="10" y1="40.0" x2="576.8" y2="40.0" style="stroke:rgb(70,70,70); stroke-width:3 "/>
		<g>
			<title> (ctg3883_1)</title>
			<polygon class=" (ctg3883_1)" points="10,10 18,40 10,70" fill="rgb(255,255,255)" fill-opacity="1.0" stroke="rgb(0,0,0)" stroke-width="2"  />
		</g>
		<g>
			<title> (ctg3883_2)</title>
			<polygon class=" (ctg3883_2)" points="29,25 116,25 116,10 146,40 116,70 116,55 29,55" fill="rgb(255,255,255)" fill-opacity="1.0" stroke="rgb(0,0,0)" stroke-width="2"  />
			<g>
				<title>CarboxypepD_reg (PF13620)
"Carboxypeptidase regulatory-like domain"</title>
				<rect class="PF13620" x="31" y="28" stroke-linejoin="round" width="8" height="24" fill="rgb(201,63,96)" stroke="rgb(160,50,76)" stroke-width="1" opacity="0.75" />
			</g>
		</g>
		<g>
			<title> (ctg3883_3)</title>
			<polygon class=" (ctg3883_3)" points="166,10 173,40 166,70" fill="rgb(255,255,255)" fill-opacity="1.0" stroke="rgb(0,0,0)" stroke-width="2"  />
		</g>
		<g>
			<title> (ctg3883_4)</title>
			<polygon class=" (ctg3883_4)" points="177,25 188,25 188,10 218,40 188,70 188,55 177,55" fill="rgb(255,255,255)" fill-opacity="1.0" stroke="rgb(0,0,0)" stroke-width="2"  />
			<g>
				<title>LANC_like (PF05147)
"Lanthionine synthetase C-like protein"</title>
				<polygon class="PF05147" points="181,28 202,28 214,40 202,52 181,52" stroke-linejoin="round" width="36" height="24" fill="rgb(129,182,79)" stroke="rgb(103,145,63)" stroke-width="1" opacity="0.75" />
			</g>
		</g>
		<g>
			<title> (ctg3883_5)</title>
			<polygon class=" (ctg3883_5)" points="220,25 298,25 298,10 328,40 298,70 298,55 220,55" fill="rgb(255,255,255)" fill-opacity="1.0" stroke="rgb(0,0,0)" stroke-width="2"  />
			<g>
				<title>Lant_dehydr_N (PF04738)
"Lantibiotic dehydratase, N terminus"</title>
				<rect class="PF04738" x="227" y="28" stroke-linejoin="round" width="66" height="24" fill="rgb(219,60,229)" stroke="rgb(175,47,183)" stroke-width="1" opacity="0.75" />
			</g>
			<g>
				<title>Lant_dehydr_C (PF14028)
"Lantibiotic biosynthesis dehydratase C-term"</title>
				<polygon class="PF14028" points="300,28 312,28 324,40 312,52 300,52" stroke-linejoin="round" width="27" height="24" fill="rgb(107,223,113)" stroke="rgb(85,178,90)" stroke-width="1" opacity="0.75" />
			</g>
		</g>
		<g>
			<title> (ctg3883_6)</title>
			<polygon class=" (ctg3883_6)" points="329,25 331,25 331,10 361,40 331,70 331,55 329,55" fill="rgb(255,255,255)" fill-opacity="1.0" stroke="rgb(0,0,0)" stroke-width="2"  />
			<g>
				<title>Biotin_lipoyl_2 (PF13533)
"Biotin-lipoyl like"</title>
				<rect class="PF13533" x="336" y="28" stroke-linejoin="round" width="5" height="24" fill="rgb(229,122,112)" stroke="rgb(183,97,89)" stroke-width="1" opacity="0.75" />
			</g>
		</g>
		<g>
			<title> (ctg3883_7)</title>
			<polygon class=" (ctg3883_7)" points="362,25 406,25 406,10 436,40 406,70 406,55 362,55" fill="rgb(255,255,255)" fill-opacity="1.0" stroke="rgb(0,0,0)" stroke-width="2"  />
			<g>
				<title>Peptidase_C39 (PF03412)
"Peptidase C39 family"</title>
				<rect class="PF03412" x="364" y="28" stroke-linejoin="round" width="13" height="24" fill="rgb(214,226,77)" stroke="rgb(171,180,61)" stroke-width="1" opacity="0.75" />
			</g>
			<g>
				<title>ABC_membrane (PF00664)
"ABC transporter transmembrane region"</title>
				<rect class="PF00664" x="380" y="28" stroke-linejoin="round" width="26" height="24" fill="rgb(149,226,73)" stroke="rgb(119,180,58)" stroke-width="1" opacity="0.75" />
			</g>
			<g>
				<title>ABC_tran (PF00005)
"ABC transporter"</title>
				<polygon class="PF00005" points="413,28 420,28 427,35 427,45 420,52 413,52" stroke-linejoin="round" width="14" height="24" fill="rgb(129,201,63)" stroke="rgb(103,160,50)" stroke-width="1" opacity="0.75" />
			</g>
		</g>
		<g>
			<title> (ctg3883_8)</title>
			<polygon class=" (ctg3883_8)" points="436,25 477,25 477,10 507,40 477,70 477,55 436,55" fill="rgb(255,255,255)" fill-opacity="1.0" stroke="rgb(0,0,0)" stroke-width="2"  />
			<g>
				<title>HlyD_3 (PF13437)
"HlyD family secretion protein"</title>
				<polygon class="PF13437" points="492,29 502,39 502,41 492,51" stroke-linejoin="round" width="10" height="24" fill="rgb(82,200,102)" stroke="rgb(65,160,81)" stroke-width="1" opacity="0.75" />
			</g>
		</g>
		<g>
			<title> (ctg3883_9)</title>
			<polygon class=" (ctg3883_9)" points="509,10 537,40 509,70" fill="rgb(255,255,255)" fill-opacity="1.0" stroke="rgb(0,0,0)" stroke-width="2"  />
			<g>
				<title>Peptidase_U49 (PF10463)
"Peptidase U49"</title>
				<polygon class="PF10463" points="514,28 521,28 533,40 521,52 514,52" stroke-linejoin="round" width="20" height="24" fill="rgb(73,219,187)" stroke="rgb(58,175,149)" stroke-width="1" opacity="0.75" />
			</g>
		</g>
		<g>
			<title> (ctg3883_10)</title>
			<polygon class=" (ctg3883_10)" points="551,10 576,40 551,70" fill="rgb(255,255,255)" fill-opacity="1.0" stroke="rgb(0,0,0)" stroke-width="2"  />
			<g>
				<title>TPR_16 (PF13432)
"Tetratricopeptide repeat"</title>
				<polygon class="PF13432" points="571,38 572,40 571,42" stroke-linejoin="round" width="5" height="24" fill="rgb(154,205,86)" stroke="rgb(123,164,68)" stroke-width="1" opacity="0.75" />
			</g>
		</g>
	</g>
</svg>
