<svg version="1.1" baseProfile="full" xmlns="http://www.w3.org/2000/svg" width="533.4666666666667" height="80">
	<g>
		<line x1="10" y1="40.0" x2="523.4666666666667" y2="40.0" style="stroke:rgb(70,70,70); stroke-width:3 "/>
		<g>
			<title> (ctg874_1)</title>
			<polygon class=" (ctg874_1)" points="10,40 13,10 13,70" fill="rgb(255,255,255)" fill-opacity="1.0" stroke="rgb(0,0,0)" stroke-width="2"  />
		</g>
		<g>
			<title> (ctg874_2)</title>
			<polygon class=" (ctg874_2)" points="21,10 30,40 21,70" fill="rgb(255,255,255)" fill-opacity="1.0" stroke="rgb(0,0,0)" stroke-width="2"  />
			<g>
				<title>DUF4212 (PF13937)
"Domain of unknown function (DUF4212)"</title>
				<polygon class="PF13937" points="21,28 23,28 27,40 23,52 21,52" stroke-linejoin="round" width="7" height="24" fill="rgb(93,193,79)" stroke="rgb(74,154,63)" stroke-width="1" opacity="0.75" />
			</g>
		</g>
		<g>
			<title> (ctg874_3)</title>
			<polygon class=" (ctg874_3)" points="31,25 59,25 59,10 89,40 59,70 59,55 31,55" fill="rgb(255,255,255)" fill-opacity="1.0" stroke="rgb(0,0,0)" stroke-width="2"  />
			<g>
				<title>SSF (PF00474)
"Sodium:solute symporter family"</title>
				<rect class="PF00474" x="34" y="28" stroke-linejoin="round" width="27" height="24" fill="rgb(49,186,178)" stroke="rgb(39,148,142)" stroke-width="1" opacity="0.75" />
			</g>
			<g>
				<title>SSF (PF00474)
"Sodium:solute symporter family"</title>
				<polygon class="PF00474" points="68,28 72,28 80,36 80,44 72,52 68,52" stroke-linejoin="round" width="12" height="24" fill="rgb(49,186,178)" stroke="rgb(39,148,142)" stroke-width="1" opacity="0.75" />
			</g>
		</g>
		<g>
			<title> (ctg874_4)</title>
			<polygon class=" (ctg874_4)" points="89,10 100,40 89,70" fill="rgb(255,255,255)" fill-opacity="1.0" stroke="rgb(0,0,0)" stroke-width="2"  />
			<g>
				<title>Pterin_4a (PF01329)
"Pterin 4 alpha carbinolamine dehydratase"</title>
				<polygon class="PF01329" points="91,28 92,28 97,40 92,52 91,52" stroke-linejoin="round" width="9" height="24" fill="rgb(109,209,90)" stroke="rgb(87,167,72)" stroke-width="1" opacity="0.75" />
			</g>
		</g>
		<g>
			<title> (ctg874_5)</title>
			<polygon class=" (ctg874_5)" points="101,10 117,40 101,70" fill="rgb(255,255,255)" fill-opacity="1.0" stroke="rgb(0,0,0)" stroke-width="2"  />
			<g>
				<title>GRDB (PF07355)
"Glycine/sarcosine/betaine reductase selenoprotein B (GRDB)"</title>
				<polygon class="PF07355" points="104,28 107,28 114,40 107,52 104,52" stroke-linejoin="round" width="13" height="24" fill="rgb(168,200,54)" stroke="rgb(134,160,43)" stroke-width="1" opacity="0.75" />
			</g>
		</g>
		<g>
			<title> (ctg874_6)</title>
			<polygon class=" (ctg874_6)" points="118,10 131,40 118,70" fill="rgb(255,255,255)" fill-opacity="1.0" stroke="rgb(0,0,0)" stroke-width="2"  />
		</g>
		<g>
			<title> (ctg874_7)</title>
			<polygon class=" (ctg874_7)" points="132,10 137,40 132,70" fill="rgb(255,255,255)" fill-opacity="1.0" stroke="rgb(0,0,0)" stroke-width="2"  />
		</g>
		<g>
			<title> (ctg874_8)</title>
			<polygon class=" (ctg874_8)" points="140,10 151,40 140,70" fill="rgb(255,255,255)" fill-opacity="1.0" stroke="rgb(0,0,0)" stroke-width="2"  />
			<g>
				<title>PIN (PF01850)
"PIN domain"</title>
				<polygon class="PF01850" points="140,28 143,28 148,40 143,52 140,52" stroke-linejoin="round" width="10" height="24" fill="rgb(91,217,126)" stroke="rgb(72,173,100)" stroke-width="1" opacity="0.75" />
			</g>
		</g>
		<g>
			<title> (ctg874_9)</title>
			<polygon class=" (ctg874_9)" points="158,25 159,25 159,10 189,40 159,70 159,55 158,55" fill="rgb(255,255,255)" fill-opacity="1.0" stroke="rgb(0,0,0)" stroke-width="2"  />
			<g>
				<title>SQS_PSY (PF00494)
"Squalene/phytoene synthase"</title>
				<polygon class="PF00494" points="158,28 173,28 185,40 173,52 158,52" stroke-linejoin="round" width="28" height="24" fill="rgb(178,91,49)" stroke="rgb(142,72,39)" stroke-width="1" opacity="0.75" />
			</g>
		</g>
		<g>
			<title> (ctg874_10)</title>
			<polygon class=" (ctg874_10)" points="192,10 219,40 192,70" fill="rgb(255,255,255)" fill-opacity="1.0" stroke="rgb(0,0,0)" stroke-width="2"  />
		</g>
		<g>
			<title> (ctg874_11)</title>
			<polygon class=" (ctg874_11)" points="263,25 258,25 258,10 228,40 258,70 258,55 263,55" fill="rgb(255,255,255)" fill-opacity="1.0" stroke="rgb(0,0,0)" stroke-width="2"  />
		</g>
		<g>
			<title> (ctg874_12)</title>
			<polygon class=" (ctg874_12)" points="265,10 280,40 265,70" fill="rgb(255,255,255)" fill-opacity="1.0" stroke="rgb(0,0,0)" stroke-width="2"  />
		</g>
		<g>
			<title> (ctg874_13)</title>
			<polygon class=" (ctg874_13)" points="290,40 317,10 317,70" fill="rgb(255,255,255)" fill-opacity="1.0" stroke="rgb(0,0,0)" stroke-width="2"  />
			<g>
				<title>LolA_like (PF17131)
"Outer membrane lipoprotein-sorting protein"</title>
				<polygon class="PF17131" points="294,40 305,28 308,28 308,52 305,52" stroke-linejoin="round" width="18" height="24" fill="rgb(189,100,83)" stroke="rgb(151,80,66)" stroke-width="1" opacity="0.75" />
			</g>
		</g>
		<g>
			<title> (ctg874_14)</title>
			<polygon class=" (ctg874_14)" points="394,25 347,25 347,10 317,40 347,70 347,55 394,55" fill="rgb(255,255,255)" fill-opacity="1.0" stroke="rgb(0,0,0)" stroke-width="2"  />
			<g>
				<title>MMPL (PF03176)
"MMPL family"</title>
				<polygon class="PF03176" points="321,40 333,28 338,28 338,52 333,52" stroke-linejoin="round" width="21" height="24" fill="rgb(228,109,193)" stroke="rgb(182,87,154)" stroke-width="1" opacity="0.75" />
			</g>
			<g>
				<title>MMPL (PF03176)
"MMPL family"</title>
				<rect class="PF03176" x="352" y="28" stroke-linejoin="round" width="36" height="24" fill="rgb(228,109,193)" stroke="rgb(182,87,154)" stroke-width="1" opacity="0.75" />
			</g>
		</g>
		<g>
			<title> (ctg874_15)</title>
			<polygon class=" (ctg874_15)" points="433,25 425,25 425,10 395,40 425,70 425,55 433,55" fill="rgb(255,255,255)" fill-opacity="1.0" stroke="rgb(0,0,0)" stroke-width="2"  />
			<g>
				<title>DUF2236 (PF09995)
"Uncharacterized protein conserved in bacteria (DUF2236)"</title>
				<polygon class="PF09995" points="399,40 411,28 423,28 423,52 411,52 399,40" stroke-linejoin="round" width="24" height="24" fill="rgb(194,179,92)" stroke="rgb(155,143,73)" stroke-width="1" opacity="0.75" />
			</g>
		</g>
		<g>
			<title> (ctg874_16)</title>
			<polygon class=" (ctg874_16)" points="436,40 455,10 455,70" fill="rgb(255,255,255)" fill-opacity="1.0" stroke="rgb(0,0,0)" stroke-width="2"  />
			<g>
				<title>NUDIX (PF00293)
"NUDIX domain"</title>
				<polygon class="PF00293" points="440,40 448,28 451,28 451,52 448,52" stroke-linejoin="round" width="13" height="24" fill="rgb(92,56,187)" stroke="rgb(73,44,149)" stroke-width="1" opacity="0.75" />
			</g>
		</g>
		<g>
			<title> (ctg874_17)</title>
			<polygon class=" (ctg874_17)" points="469,10 492,40 469,70" fill="rgb(255,255,255)" fill-opacity="1.0" stroke="rgb(0,0,0)" stroke-width="2"  />
			<g>
				<title>DUF1499 (PF07386)
"Protein of unknown function (DUF1499)"</title>
				<polygon class="PF07386" points="479,28 479,28 488,40 479,52 479,52" stroke-linejoin="round" width="13" height="24" fill="rgb(62,130,189)" stroke="rgb(49,104,151)" stroke-width="1" opacity="0.75" />
			</g>
		</g>
	</g>
</svg>
