<svg version="1.1" baseProfile="full" xmlns="http://www.w3.org/2000/svg" width="381.93333333333334" height="80">
	<g>
		<line x1="10" y1="40.0" x2="371.93333333333334" y2="40.0" style="stroke:rgb(70,70,70); stroke-width:3 "/>
		<g>
			<title> (ctg4819_3)</title>
			<polygon class=" (ctg4819_3)" points="25,25 37,25 37,10 67,40 37,70 37,55 25,55" fill="rgb(255,255,255)" fill-opacity="1.0" stroke="rgb(0,0,0)" stroke-width="2"  />
			<g>
				<title>Aminotran_1_2 (PF00155)
"Aminotransferase class I and II"</title>
				<polygon class="PF00155" points="40,28 51,28 63,40 51,52 40,52" stroke-linejoin="round" width="26" height="24" fill="rgb(89,113,198)" stroke="rgb(71,90,158)" stroke-width="1" opacity="0.75" />
			</g>
		</g>
		<g>
			<title> (ctg4819_4)</title>
			<polygon class=" (ctg4819_4)" points="89,10 111,40 89,70" fill="rgb(255,255,255)" fill-opacity="1.0" stroke="rgb(0,0,0)" stroke-width="2"  />
			<g>
				<title>GST_N_3 (PF13417)
"Glutathione S-transferase, N-terminal domain"</title>
				<rect class="PF13417" x="89" y="28" stroke-linejoin="round" width="7" height="24" fill="rgb(220,154,91)" stroke="rgb(176,123,72)" stroke-width="1" opacity="0.75" />
			</g>
		</g>
		<g>
			<title> (ctg4819_5)</title>
			<polygon class=" (ctg4819_5)" points="123,40 146,10 146,70" fill="rgb(255,255,255)" fill-opacity="1.0" stroke="rgb(0,0,0)" stroke-width="2"  />
			<g>
				<title>Ysc84 (PF04366)
"Las17-binding protein actin regulator"</title>
				<polygon class="PF04366" points="127,40 135,30 135,50" stroke-linejoin="round" width="11" height="24" fill="rgb(148,190,51)" stroke="rgb(118,152,40)" stroke-width="1" opacity="0.75" />
			</g>
		</g>
		<g>
			<title> (ctg4819_6)</title>
			<polygon class=" (ctg4819_6)" points="149,40 175,10 175,70" fill="rgb(255,255,255)" fill-opacity="1.0" stroke="rgb(0,0,0)" stroke-width="2"  />
			<g>
				<title>DUF2063 (PF09836)
"Putative DNA-binding domain"</title>
				<rect class="PF09836" x="165" y="28" stroke-linejoin="round" width="9" height="24" fill="rgb(88,194,190)" stroke="rgb(70,155,152)" stroke-width="1" opacity="0.75" />
			</g>
		</g>
		<g>
			<title> (ctg4819_7)</title>
			<polygon class=" (ctg4819_7)" points="176,40 204,10 204,70" fill="rgb(255,255,255)" fill-opacity="1.0" stroke="rgb(0,0,0)" stroke-width="2"  />
			<g>
				<title>DUF692 (PF05114)
"Protein of unknown function (DUF692)"</title>
				<polygon class="PF05114" points="180,40 191,28 202,28 202,52 191,52" stroke-linejoin="round" width="26" height="24" fill="rgb(63,196,127)" stroke="rgb(50,156,101)" stroke-width="1" opacity="0.75" />
			</g>
		</g>
		<g>
			<title> (ctg4819_8)</title>
			<polygon class=" (ctg4819_8)" points="205,40 214,10 214,70" fill="rgb(255,255,255)" fill-opacity="1.0" stroke="rgb(0,0,0)" stroke-width="2"  />
			<g>
				<title>DUF2282 (PF10048)
"Predicted integral membrane protein (DUF2282)"</title>
				<polygon class="PF10048" points="208,40 210,34 210,46" stroke-linejoin="round" width="5" height="24" fill="rgb(58,205,168)" stroke="rgb(46,164,134)" stroke-width="1" opacity="0.75" />
			</g>
		</g>
		<g>
			<title> (ctg4819_9)</title>
			<polygon class=" (ctg4819_9)" points="224,40 242,10 242,70" fill="rgb(255,255,255)" fill-opacity="1.0" stroke="rgb(0,0,0)" stroke-width="2"  />
			<g>
				<title>cpYpsA (PF12694)
"Circularly permutated YpsA SLOG family"</title>
				<polygon class="PF12694" points="228,40 235,28 239,28 239,52 235,52" stroke-linejoin="round" width="14" height="24" fill="rgb(74,130,216)" stroke="rgb(59,104,172)" stroke-width="1" opacity="0.75" />
			</g>
		</g>
		<g>
			<title> (ctg4819_10)</title>
			<polygon class=" (ctg4819_10)" points="302,25 274,25 274,10 244,40 274,70 274,55 302,55" fill="rgb(255,255,255)" fill-opacity="1.0" stroke="rgb(0,0,0)" stroke-width="2"  />
			<g>
				<title>PEPCK_GTP (PF00821)
"Phosphoenolpyruvate carboxykinase C-terminal P-loop domain"</title>
				<polygon class="PF00821" points="248,40 260,28 279,28 279,52 260,52" stroke-linejoin="round" width="35" height="24" fill="rgb(123,95,194)" stroke="rgb(98,76,155)" stroke-width="1" opacity="0.75" />
			</g>
			<g>
				<title>PEPCK_N (PF17297)
"Phosphoenolpyruvate carboxykinase N-terminal domain"</title>
				<rect class="PF17297" x="280" y="28" stroke-linejoin="round" width="20" height="24" fill="rgb(78,187,75)" stroke="rgb(62,149,60)" stroke-width="1" opacity="0.75" />
			</g>
		</g>
		<g>
			<title> (ctg4819_11)</title>
			<polygon class=" (ctg4819_11)" points="314,10 340,40 314,70" fill="rgb(255,255,255)" fill-opacity="1.0" stroke="rgb(0,0,0)" stroke-width="2"  />
			<g>
				<title>MazG (PF03819)
"MazG nucleotide pyrophosphohydrolase domain"</title>
				<rect class="PF03819" x="316" y="28" stroke-linejoin="round" width="7" height="24" fill="rgb(199,54,154)" stroke="rgb(159,43,123)" stroke-width="1" opacity="0.75" />
			</g>
			<g>
				<title>MazG (PF03819)
"MazG nucleotide pyrophosphohydrolase domain"</title>
				<polygon class="PF03819" points="330,33 336,40 330,47" stroke-linejoin="round" width="7" height="24" fill="rgb(199,54,154)" stroke="rgb(159,43,123)" stroke-width="1" opacity="0.75" />
			</g>
		</g>
		<g>
			<title> (ctg4819_12)</title>
			<polygon class=" (ctg4819_12)" points="341,40 369,10 369,70" fill="rgb(255,255,255)" fill-opacity="1.0" stroke="rgb(0,0,0)" stroke-width="2"  />
			<g>
				<title>QRPTase_C (PF01729)
"Quinolinate phosphoribosyl transferase, C-terminal domain"</title>
				<polygon class="PF01729" points="345,40 356,28 357,28 357,52 356,52" stroke-linejoin="round" width="16" height="24" fill="rgb(89,196,148)" stroke="rgb(71,156,118)" stroke-width="1" opacity="0.75" />
			</g>
			<g>
				<title>QRPTase_N (PF02749)
"Quinolinate phosphoribosyl transferase, N-terminal domain"</title>
				<rect class="PF02749" x="357" y="28" stroke-linejoin="round" width="8" height="24" fill="rgb(75,204,226)" stroke="rgb(60,163,180)" stroke-width="1" opacity="0.75" />
			</g>
		</g>
	</g>
</svg>
