<svg version="1.1" baseProfile="full" xmlns="http://www.w3.org/2000/svg" width="417.6333333333333" height="80">
	<g>
		<line x1="10" y1="40.0" x2="407.6333333333333" y2="40.0" style="stroke:rgb(70,70,70); stroke-width:3 "/>
		<g>
			<title> (ctg669_4)</title>
			<polygon class=" (ctg669_4)" points="22,40 25,10 25,70" fill="rgb(255,255,255)" fill-opacity="1.0" stroke="rgb(0,0,0)" stroke-width="2"  />
		</g>
		<g>
			<title> (ctg669_5)</title>
			<polygon class=" (ctg669_5)" points="37,40 46,10 46,70" fill="rgb(255,255,255)" fill-opacity="1.0" stroke="rgb(0,0,0)" stroke-width="2"  />
		</g>
		<g>
			<title> (ctg669_6)</title>
			<polygon class=" (ctg669_6)" points="63,40 66,10 66,70" fill="rgb(255,255,255)" fill-opacity="1.0" stroke="rgb(0,0,0)" stroke-width="2"  />
		</g>
		<g>
			<title> (ctg669_7)</title>
			<polygon class=" (ctg669_7)" points="79,25 107,25 107,10 137,40 107,70 107,55 79,55" fill="rgb(255,255,255)" fill-opacity="1.0" stroke="rgb(0,0,0)" stroke-width="2"  />
			<g>
				<title>Xan_ur_permease (PF00860)
"Permease family"</title>
				<rect class="PF00860" x="81" y="28" stroke-linejoin="round" width="38" height="24" fill="rgb(216,88,217)" stroke="rgb(172,70,173)" stroke-width="1" opacity="0.75" />
			</g>
		</g>
		<g>
			<title> (ctg669_8)</title>
			<polygon class=" (ctg669_8)" points="140,40 152,10 152,70" fill="rgb(255,255,255)" fill-opacity="1.0" stroke="rgb(0,0,0)" stroke-width="2"  />
		</g>
		<g>
			<title> (ctg669_9)</title>
			<polygon class=" (ctg669_9)" points="155,40 159,10 159,70" fill="rgb(255,255,255)" fill-opacity="1.0" stroke="rgb(0,0,0)" stroke-width="2"  />
		</g>
		<g>
			<title> (ctg669_10)</title>
			<polygon class=" (ctg669_10)" points="165,10 176,40 165,70" fill="rgb(255,255,255)" fill-opacity="1.0" stroke="rgb(0,0,0)" stroke-width="2"  />
			<g>
				<title>Pterin_4a (PF01329)
"Pterin 4 alpha carbinolamine dehydratase"</title>
				<polygon class="PF01329" points="166,28 168,28 173,40 168,52 166,52" stroke-linejoin="round" width="9" height="24" fill="rgb(109,209,90)" stroke="rgb(87,167,72)" stroke-width="1" opacity="0.75" />
			</g>
		</g>
		<g>
			<title> (ctg669_11)</title>
			<polygon class=" (ctg669_11)" points="176,25 210,25 210,10 240,40 210,70 210,55 176,55" fill="rgb(255,255,255)" fill-opacity="1.0" stroke="rgb(0,0,0)" stroke-width="2"  />
			<g>
				<title>B12-binding (PF02310)
"B12 binding domain"</title>
				<rect class="PF02310" x="188" y="28" stroke-linejoin="round" width="10" height="24" fill="rgb(145,190,60)" stroke="rgb(115,152,48)" stroke-width="1" opacity="0.75" />
			</g>
		</g>
		<g>
			<title> (ctg669_12)</title>
			<polygon class=" (ctg669_12)" points="242,40 250,10 250,70" fill="rgb(255,255,255)" fill-opacity="1.0" stroke="rgb(0,0,0)" stroke-width="2"  />
		</g>
		<g>
			<title> (ctg669_13)</title>
			<polygon class=" (ctg669_13)" points="252,10 258,40 252,70" fill="rgb(255,255,255)" fill-opacity="1.0" stroke="rgb(0,0,0)" stroke-width="2"  />
		</g>
		<g>
			<title> (ctg669_14)</title>
			<polygon class=" (ctg669_14)" points="263,10 284,40 263,70" fill="rgb(255,255,255)" fill-opacity="1.0" stroke="rgb(0,0,0)" stroke-width="2"  />
			<g>
				<title>DUF502 (PF04367)
"Protein of unknown function (DUF502)"</title>
				<polygon class="PF04367" points="267,28 272,28 277,36 277,44 272,52 267,52" stroke-linejoin="round" width="10" height="24" fill="rgb(56,223,87)" stroke="rgb(44,178,69)" stroke-width="1" opacity="0.75" />
			</g>
		</g>
		<g>
			<title> (ctg669_15)</title>
			<polygon class=" (ctg669_15)" points="325,25 318,25 318,10 288,40 318,70 318,55 325,55" fill="rgb(255,255,255)" fill-opacity="1.0" stroke="rgb(0,0,0)" stroke-width="2"  />
		</g>
	</g>
</svg>
