<svg version="1.1" baseProfile="full" xmlns="http://www.w3.org/2000/svg" width="1481.1333333333334" height="80">
	<g>
		<line x1="10" y1="40.0" x2="1471.1333333333334" y2="40.0" style="stroke:rgb(70,70,70); stroke-width:3 "/>
		<g>
			<title> (ctg336_6)</title>
			<polygon class=" (ctg336_6)" points="29,10 50,40 29,70" fill="rgb(255,255,255)" fill-opacity="1.0" stroke="rgb(0,0,0)" stroke-width="2"  />
			<g>
				<title>Cons_hypoth95 (PF03602)
"Conserved hypothetical protein 95"</title>
				<polygon class="PF03602" points="29,28 38,28 46,40 46,40 38,52 29,52" stroke-linejoin="round" width="17" height="24" fill="rgb(220,198,67)" stroke="rgb(176,158,53)" stroke-width="1" opacity="0.75" />
			</g>
		</g>
		<g>
			<title> (ctg336_7)</title>
			<polygon class=" (ctg336_7)" points="50,10 66,40 50,70" fill="rgb(255,255,255)" fill-opacity="1.0" stroke="rgb(0,0,0)" stroke-width="2"  />
			<g>
				<title>CTP_transf_like (PF01467)
"Cytidylyltransferase-like"</title>
				<polygon class="PF01467" points="50,28 56,28 62,39 62,41 56,52 50,52" stroke-linejoin="round" width="12" height="24" fill="rgb(110,215,57)" stroke="rgb(88,172,45)" stroke-width="1" opacity="0.75" />
			</g>
		</g>
		<g>
			<title> (ctg336_8)</title>
			<polygon class=" (ctg336_8)" points="68,25 78,25 78,10 108,40 78,70 78,55 68,55" fill="rgb(255,255,255)" fill-opacity="1.0" stroke="rgb(0,0,0)" stroke-width="2"  />
			<g>
				<title>Aminotran_1_2 (PF00155)
"Aminotransferase class I and II"</title>
				<polygon class="PF00155" points="71,28 92,28 104,40 92,52 71,52" stroke-linejoin="round" width="36" height="24" fill="rgb(89,113,198)" stroke="rgb(71,90,158)" stroke-width="1" opacity="0.75" />
			</g>
		</g>
		<g>
			<title> (ctg336_9)</title>
			<polygon class=" (ctg336_9)" points="110,25 119,25 119,10 149,40 119,70 119,55 110,55" fill="rgb(255,255,255)" fill-opacity="1.0" stroke="rgb(0,0,0)" stroke-width="2"  />
			<g>
				<title>NYN (PF01936)
"NYN domain"</title>
				<polygon class="PF01936" points="133,28 133,28 145,40 133,52 133,52" stroke-linejoin="round" width="15" height="24" fill="rgb(215,71,199)" stroke="rgb(172,56,159)" stroke-width="1" opacity="0.75" />
			</g>
		</g>
		<g>
			<title> (ctg336_10)</title>
			<polygon class=" (ctg336_10)" points="151,25 151,25 151,10 181,40 151,70 151,55 151,55" fill="rgb(255,255,255)" fill-opacity="1.0" stroke="rgb(0,0,0)" stroke-width="2"  />
			<g>
				<title>Ldh_1_N (PF00056)
"lactate/malate dehydrogenase, NAD binding domain"</title>
				<rect class="PF00056" x="151" y="28" stroke-linejoin="round" width="13" height="24" fill="rgb(205,51,142)" stroke="rgb(164,40,113)" stroke-width="1" opacity="0.75" />
			</g>
			<g>
				<title>Ldh_1_C (PF02866)
"lactate/malate dehydrogenase, alpha/beta C-terminal domain"</title>
				<polygon class="PF02866" points="165,28 165,28 177,40 165,52 165,52" stroke-linejoin="round" width="16" height="24" fill="rgb(94,219,97)" stroke="rgb(75,175,77)" stroke-width="1" opacity="0.75" />
			</g>
		</g>
		<g>
			<title> (ctg336_11)</title>
			<polygon class=" (ctg336_11)" points="183,25 194,25 194,10 224,40 194,70 194,55 183,55" fill="rgb(255,255,255)" fill-opacity="1.0" stroke="rgb(0,0,0)" stroke-width="2"  />
			<g>
				<title>Iso_dh (PF00180)
"Isocitrate/isopropylmalate dehydrogenase"</title>
				<polygon class="PF00180" points="185,28 207,28 219,40 207,52 185,52" stroke-linejoin="round" width="37" height="24" fill="rgb(109,54,206)" stroke="rgb(87,43,164)" stroke-width="1" opacity="0.75" />
			</g>
		</g>
		<g>
			<title> (ctg336_12)</title>
			<polygon class=" (ctg336_12)" points="228,25 232,25 232,10 262,40 232,70 232,55 228,55" fill="rgb(255,255,255)" fill-opacity="1.0" stroke="rgb(0,0,0)" stroke-width="2"  />
			<g>
				<title>GTP1_OBG (PF01018)
"GTP1/OBG"</title>
				<rect class="PF01018" x="228" y="28" stroke-linejoin="round" width="15" height="24" fill="rgb(159,183,68)" stroke="rgb(127,146,54)" stroke-width="1" opacity="0.75" />
			</g>
			<g>
				<title>MMR_HSR1 (PF01926)
"50S ribosome-binding GTPase"</title>
				<polygon class="PF01926" points="244,28 245,28 256,39 256,41 245,52 244,52" stroke-linejoin="round" width="12" height="24" fill="rgb(105,180,226)" stroke="rgb(83,143,180)" stroke-width="1" opacity="0.75" />
			</g>
		</g>
		<g>
			<title> (ctg336_13)</title>
			<polygon class=" (ctg336_13)" points="266,25 273,25 273,10 303,40 273,70 273,55 266,55" fill="rgb(255,255,255)" fill-opacity="1.0" stroke="rgb(0,0,0)" stroke-width="2"  />
			<g>
				<title>DNA_processg_A (PF02481)
"DNA recombination-mediator protein A"</title>
				<polygon class="PF02481" points="273,28 286,28 293,35 293,45 286,52 273,52" stroke-linejoin="round" width="20" height="24" fill="rgb(72,189,53)" stroke="rgb(57,151,42)" stroke-width="1" opacity="0.75" />
			</g>
			<g>
				<title>DprA_WH (PF17782)
"DprA winged helix domain"</title>
				<polygon class="PF17782" points="296,38 298,40 296,42" stroke-linejoin="round" width="6" height="24" fill="rgb(80,186,78)" stroke="rgb(64,148,62)" stroke-width="1" opacity="0.75" />
			</g>
		</g>
		<g>
			<title> (ctg336_14)</title>
			<polygon class=" (ctg336_14)" points="308,10 326,40 308,70" fill="rgb(255,255,255)" fill-opacity="1.0" stroke="rgb(0,0,0)" stroke-width="2"  />
			<g>
				<title>CTP_transf_like (PF01467)
"Cytidylyltransferase-like"</title>
				<polygon class="PF01467" points="312,28 315,28 322,40 315,52 312,52" stroke-linejoin="round" width="11" height="24" fill="rgb(110,215,57)" stroke="rgb(88,172,45)" stroke-width="1" opacity="0.75" />
			</g>
		</g>
		<g>
			<title> (ctg336_15)</title>
			<polygon class=" (ctg336_15)" points="326,10 336,40 326,70" fill="rgb(255,255,255)" fill-opacity="1.0" stroke="rgb(0,0,0)" stroke-width="2"  />
		</g>
		<g>
			<title> (ctg336_16)</title>
			<polygon class=" (ctg336_16)" points="336,10 362,40 336,70" fill="rgb(255,255,255)" fill-opacity="1.0" stroke="rgb(0,0,0)" stroke-width="2"  />
			<g>
				<title>PhyH (PF05721)
"Phytanoyl-CoA dioxygenase (PhyH)"</title>
				<polygon class="PF05721" points="337,28 347,28 354,35 354,45 347,52 337,52" stroke-linejoin="round" width="17" height="24" fill="rgb(72,132,214)" stroke="rgb(57,105,171)" stroke-width="1" opacity="0.75" />
			</g>
		</g>
		<g>
			<title> (ctg336_17)</title>
			<polygon class=" (ctg336_17)" points="363,25 378,25 378,10 408,40 378,70 378,55 363,55" fill="rgb(255,255,255)" fill-opacity="1.0" stroke="rgb(0,0,0)" stroke-width="2"  />
			<g>
				<title>AA_permease_2 (PF13520)
"Amino acid permease"</title>
				<polygon class="PF13520" points="364,28 391,28 403,40 391,52 364,52" stroke-linejoin="round" width="42" height="24" fill="rgb(180,217,107)" stroke="rgb(144,173,85)" stroke-width="1" opacity="0.75" />
			</g>
		</g>
		<g>
			<title> (ctg336_18)</title>
			<polygon class=" (ctg336_18)" points="408,10 417,40 408,70" fill="rgb(255,255,255)" fill-opacity="1.0" stroke="rgb(0,0,0)" stroke-width="2"  />
		</g>
		<g>
			<title> (ctg336_19)</title>
			<polygon class=" (ctg336_19)" points="418,10 426,40 418,70" fill="rgb(255,255,255)" fill-opacity="1.0" stroke="rgb(0,0,0)" stroke-width="2"  />
		</g>
		<g>
			<title> (ctg336_20)</title>
			<polygon class=" (ctg336_20)" points="490,25 461,25 461,10 431,40 461,70 461,55 490,55" fill="rgb(255,255,255)" fill-opacity="1.0" stroke="rgb(0,0,0)" stroke-width="2"  />
			<g>
				<title>Cyclase (PF04199)
"Putative cyclase"</title>
				<polygon class="PF04199" points="437,38 447,28 458,28 458,52 447,52 437,42" stroke-linejoin="round" width="21" height="24" fill="rgb(140,47,181)" stroke="rgb(112,37,144)" stroke-width="1" opacity="0.75" />
			</g>
			<g>
				<title>Cyclase (PF04199)
"Putative cyclase"</title>
				<rect class="PF04199" x="467" y="28" stroke-linejoin="round" width="18" height="24" fill="rgb(140,47,181)" stroke="rgb(112,37,144)" stroke-width="1" opacity="0.75" />
			</g>
		</g>
		<g>
			<title> (ctg336_21)</title>
			<polygon class=" (ctg336_21)" points="507,10 517,40 507,70" fill="rgb(255,255,255)" fill-opacity="1.0" stroke="rgb(0,0,0)" stroke-width="2"  />
			<g>
				<title>Polbeta (PF18765)
"Polymerase beta, Nucleotidyltransferase"</title>
				<polygon class="PF18765" points="508,28 509,28 514,40 509,52 508,52" stroke-linejoin="round" width="9" height="24" fill="rgb(76,177,228)" stroke="rgb(60,141,182)" stroke-width="1" opacity="0.75" />
			</g>
		</g>
		<g>
			<title> (ctg336_22)</title>
			<polygon class=" (ctg336_22)" points="517,10 535,40 517,70" fill="rgb(255,255,255)" fill-opacity="1.0" stroke="rgb(0,0,0)" stroke-width="2"  />
			<g>
				<title>DUF86 (PF01934)
"Protein of unknown function DUF86"</title>
				<polygon class="PF01934" points="518,28 524,28 527,32 527,48 524,52 518,52" stroke-linejoin="round" width="9" height="24" fill="rgb(66,222,169)" stroke="rgb(52,177,135)" stroke-width="1" opacity="0.75" />
			</g>
		</g>
		<g>
			<title> (ctg336_23)</title>
			<polygon class=" (ctg336_23)" points="540,25 545,25 545,10 575,40 545,70 545,55 540,55" fill="rgb(255,255,255)" fill-opacity="1.0" stroke="rgb(0,0,0)" stroke-width="2"  />
			<g>
				<title>GFO_IDH_MocA (PF01408)
"Oxidoreductase family, NAD-binding Rossmann fold"</title>
				<rect class="PF01408" x="540" y="28" stroke-linejoin="round" width="11" height="24" fill="rgb(76,117,190)" stroke="rgb(60,93,152)" stroke-width="1" opacity="0.75" />
			</g>
		</g>
		<g>
			<title> (ctg336_24)</title>
			<polygon class=" (ctg336_24)" points="632,25 606,25 606,10 576,40 606,70 606,55 632,55" fill="rgb(255,255,255)" fill-opacity="1.0" stroke="rgb(0,0,0)" stroke-width="2"  />
			<g>
				<title>SpoIIE (PF07228)
"Stage II sporulation protein E (SpoIIE)"</title>
				<polygon class="PF07228" points="580,40 592,28 595,28 595,52 592,52" stroke-linejoin="round" width="19" height="24" fill="rgb(85,195,217)" stroke="rgb(68,155,173)" stroke-width="1" opacity="0.75" />
			</g>
			<g>
				<title>GAF_2 (PF13185)
"GAF domain"</title>
				<rect class="PF13185" x="601" y="28" stroke-linejoin="round" width="13" height="24" fill="rgb(158,189,90)" stroke="rgb(126,151,72)" stroke-width="1" opacity="0.75" />
			</g>
			<g>
				<title>FHA (PF00498)
"FHA domain"</title>
				<rect class="PF00498" x="624" y="28" stroke-linejoin="round" width="6" height="24" fill="rgb(57,178,90)" stroke="rgb(45,142,72)" stroke-width="1" opacity="0.75" />
			</g>
		</g>
		<g>
			<title> (ctg336_25)</title>
			<polygon class=" (ctg336_25)" points="676,25 665,25 665,10 635,40 665,70 665,55 676,55" fill="rgb(255,255,255)" fill-opacity="1.0" stroke="rgb(0,0,0)" stroke-width="2"  />
			<g>
				<title>ADH_zinc_N (PF00107)
"Zinc-binding dehydrogenase"</title>
				<polygon class="PF00107" points="640,39 651,28 654,28 654,52 651,52 640,41" stroke-linejoin="round" width="14" height="24" fill="rgb(81,108,215)" stroke="rgb(64,86,172)" stroke-width="1" opacity="0.75" />
			</g>
			<g>
				<title>ADH_N (PF08240)
"Alcohol dehydrogenase GroES-like domain"</title>
				<rect class="PF08240" x="658" y="28" stroke-linejoin="round" width="12" height="24" fill="rgb(211,65,138)" stroke="rgb(168,51,110)" stroke-width="1" opacity="0.75" />
			</g>
		</g>
		<g>
			<title> (ctg336_26)</title>
			<polygon class=" (ctg336_26)" points="803,25 706,25 706,10 676,40 706,70 706,55 803,55" fill="rgb(255,255,255)" fill-opacity="1.0" stroke="rgb(0,0,0)" stroke-width="2"  />
			<g>
				<title>HAD (PF12710)
"haloacid dehalogenase-like hydrolase"</title>
				<polygon class="PF12710" points="680,40 692,28 697,28 697,52 692,52" stroke-linejoin="round" width="18" height="24" fill="rgb(181,59,119)" stroke="rgb(144,47,95)" stroke-width="1" opacity="0.75" />
			</g>
			<g>
				<title>AMP-binding (PF00501)
"AMP-binding enzyme"</title>
				<rect class="PF00501" x="702" y="28" stroke-linejoin="round" width="44" height="24" fill="rgb(60,217,223)" stroke="rgb(48,173,178)" stroke-width="1" opacity="0.75" />
			</g>
			<g>
				<title>Sterile (PF03015)
"Male sterility protein"</title>
				<rect class="PF03015" x="750" y="28" stroke-linejoin="round" width="8" height="24" fill="rgb(157,58,225)" stroke="rgb(125,46,180)" stroke-width="1" opacity="0.75" />
			</g>
			<g>
				<title>NAD_binding_4 (PF07993)
"Male sterility protein"</title>
				<rect class="PF07993" x="768" y="28" stroke-linejoin="round" width="34" height="24" fill="rgb(100,212,204)" stroke="rgb(80,169,163)" stroke-width="1" opacity="0.75" />
			</g>
		</g>
		<g>
			<title> (ctg336_27)</title>
			<polygon class=" (ctg336_27)" points="842,25 836,25 836,10 806,40 836,70 836,55 842,55" fill="rgb(255,255,255)" fill-opacity="1.0" stroke="rgb(0,0,0)" stroke-width="2"  />
			<g>
				<title>bact-PGI_C (PF10432)
"Bacterial phospho-glucose isomerase C-terminal SIS domain"</title>
				<polygon class="PF10432" points="810,40 821,29 821,51" stroke-linejoin="round" width="15" height="24" fill="rgb(124,79,210)" stroke="rgb(99,63,168)" stroke-width="1" opacity="0.75" />
			</g>
		</g>
		<g>
			<title> (ctg336_28)</title>
			<polygon class=" (ctg336_28)" points="877,25 873,25 873,10 843,40 873,70 873,55 877,55" fill="rgb(255,255,255)" fill-opacity="1.0" stroke="rgb(0,0,0)" stroke-width="2"  />
			<g>
				<title>AP_endonuc_2 (PF01261)
"Xylose isomerase-like TIM barrel"</title>
				<polygon class="PF01261" points="855,32 859,28 874,28 874,52 859,52 855,48" stroke-linejoin="round" width="19" height="24" fill="rgb(69,222,207)" stroke="rgb(55,177,165)" stroke-width="1" opacity="0.75" />
			</g>
		</g>
		<g>
			<title> (ctg336_29)</title>
			<polygon class=" (ctg336_29)" points="882,40 908,10 908,70" fill="rgb(255,255,255)" fill-opacity="1.0" stroke="rgb(0,0,0)" stroke-width="2"  />
			<g>
				<title>adh_short_C2 (PF13561)
"Enoyl-(Acyl carrier protein) reductase"</title>
				<polygon class="PF13561" points="886,40 896,28 906,28 906,52 896,52" stroke-linejoin="round" width="24" height="24" fill="rgb(73,205,127)" stroke="rgb(58,164,101)" stroke-width="1" opacity="0.75" />
			</g>
		</g>
		<g>
			<title> (ctg336_30)</title>
			<polygon class=" (ctg336_30)" points="964,25 943,25 943,10 913,40 943,70 943,55 964,55" fill="rgb(255,255,255)" fill-opacity="1.0" stroke="rgb(0,0,0)" stroke-width="2"  />
			<g>
				<title>Sulfatase (PF00884)
"Sulfatase"</title>
				<polygon class="PF00884" points="925,32 929,28 963,28 963,52 929,52 925,48" stroke-linejoin="round" width="38" height="24" fill="rgb(61,103,198)" stroke="rgb(48,82,158)" stroke-width="1" opacity="0.75" />
			</g>
		</g>
		<g>
			<title> (ctg336_31)</title>
			<polygon class=" (ctg336_31)" points="1026,25 1017,25 1017,10 987,40 1017,70 1017,55 1026,55" fill="rgb(255,255,255)" fill-opacity="1.0" stroke="rgb(0,0,0)" stroke-width="2"  />
			<g>
				<title>Peptidase_M78 (PF06114)
"IrrE N-terminal-like domain"</title>
				<polygon class="PF06114" points="995,36 1003,28 1008,28 1008,52 1003,52 995,44" stroke-linejoin="round" width="13" height="24" fill="rgb(182,213,77)" stroke="rgb(145,170,61)" stroke-width="1" opacity="0.75" />
			</g>
		</g>
		<g>
			<title> (ctg336_32)</title>
			<polygon class=" (ctg336_32)" points="1119,25 1061,25 1061,10 1031,40 1061,70 1061,55 1119,55" fill="rgb(255,255,255)" fill-opacity="1.0" stroke="rgb(0,0,0)" stroke-width="2"  />
			<g>
				<title>ResIII (PF04851)
"Type III restriction enzyme, res subunit"</title>
				<rect class="PF04851" x="1094" y="28" stroke-linejoin="round" width="24" height="24" fill="rgb(51,64,189)" stroke="rgb(40,51,151)" stroke-width="1" opacity="0.75" />
			</g>
		</g>
		<g>
			<title> (ctg336_33)</title>
			<polygon class=" (ctg336_33)" points="1119,40 1141,10 1141,70" fill="rgb(255,255,255)" fill-opacity="1.0" stroke="rgb(0,0,0)" stroke-width="2"  />
			<g>
				<title>N6_N4_Mtase (PF01555)
"DNA methylase"</title>
				<rect class="PF01555" x="1134" y="28" stroke-linejoin="round" width="6" height="24" fill="rgb(54,198,162)" stroke="rgb(43,158,129)" stroke-width="1" opacity="0.75" />
			</g>
		</g>
		<g>
			<title> (ctg336_34)</title>
			<polygon class=" (ctg336_34)" points="1143,40 1150,10 1150,70" fill="rgb(255,255,255)" fill-opacity="1.0" stroke="rgb(0,0,0)" stroke-width="2"  />
		</g>
		<g>
			<title> (ctg336_35)</title>
			<polygon class=" (ctg336_35)" points="1153,40 1156,10 1156,70" fill="rgb(255,255,255)" fill-opacity="1.0" stroke="rgb(0,0,0)" stroke-width="2"  />
		</g>
		<g>
			<title> (ctg336_36)</title>
			<polygon class=" (ctg336_36)" points="1229,25 1202,25 1202,10 1172,40 1202,70 1202,55 1229,55" fill="rgb(255,255,255)" fill-opacity="1.0" stroke="rgb(0,0,0)" stroke-width="2"  />
			<g>
				<title>AAA_21 (PF13304)
"AAA domain, putative AbiEii toxin, Type IV TA system"</title>
				<rect class="PF13304" x="1196" y="28" stroke-linejoin="round" width="30" height="24" fill="rgb(215,121,101)" stroke="rgb(172,96,80)" stroke-width="1" opacity="0.75" />
			</g>
		</g>
		<g>
			<title> (ctg336_37)</title>
			<polygon class=" (ctg336_37)" points="1275,25 1262,25 1262,10 1232,40 1262,70 1262,55 1275,55" fill="rgb(255,255,255)" fill-opacity="1.0" stroke="rgb(0,0,0)" stroke-width="2"  />
			<g>
				<title>Pentapeptide (PF00805)
"Pentapeptide repeats (8 copies)"</title>
				<polygon class="PF00805" points="1242,34 1245,31 1245,49 1242,46" stroke-linejoin="round" width="3" height="24" fill="rgb(186,52,164)" stroke="rgb(148,41,131)" stroke-width="1" opacity="0.75" />
			</g>
			<g>
				<title>Pentapeptide_4 (PF13599)
"Pentapeptide repeats (9 copies)"</title>
				<polygon class="PF13599" points="1246,30 1248,28 1254,28 1254,52 1248,52 1246,50" stroke-linejoin="round" width="8" height="24" fill="rgb(228,182,106)" stroke="rgb(182,145,84)" stroke-width="1" opacity="0.75" />
			</g>
		</g>
		<g>
			<title> (ctg336_38)</title>
			<polygon class=" (ctg336_38)" points="1328,25 1314,25 1314,10 1284,40 1314,70 1314,55 1328,55" fill="rgb(255,255,255)" fill-opacity="1.0" stroke="rgb(0,0,0)" stroke-width="2"  />
		</g>
		<g>
			<title> (ctg336_39)</title>
			<polygon class=" (ctg336_39)" points="1370,25 1360,25 1360,10 1330,40 1360,70 1360,55 1370,55" fill="rgb(255,255,255)" fill-opacity="1.0" stroke="rgb(0,0,0)" stroke-width="2"  />
			<g>
				<title>Peptidase_M78 (PF06114)
"IrrE N-terminal-like domain"</title>
				<polygon class="PF06114" points="1338,36 1346,28 1351,28 1351,52 1346,52 1338,44" stroke-linejoin="round" width="13" height="24" fill="rgb(182,213,77)" stroke="rgb(145,170,61)" stroke-width="1" opacity="0.75" />
			</g>
			<g>
				<title>HTH_3 (PF01381)
"Helix-turn-helix"</title>
				<rect class="PF01381" x="1364" y="28" stroke-linejoin="round" width="5" height="24" fill="rgb(105,79,202)" stroke="rgb(83,63,161)" stroke-width="1" opacity="0.75" />
			</g>
		</g>
		<g>
			<title> (ctg336_40)</title>
			<polygon class=" (ctg336_40)" points="1380,40 1392,10 1392,70" fill="rgb(255,255,255)" fill-opacity="1.0" stroke="rgb(0,0,0)" stroke-width="2"  />
		</g>
		<g>
			<title> (ctg336_41)</title>
			<polygon class=" (ctg336_41)" points="1429,25 1422,25 1422,10 1392,40 1422,70 1422,55 1429,55" fill="rgb(255,255,255)" fill-opacity="1.0" stroke="rgb(0,0,0)" stroke-width="2"  />
		</g>
	</g>
</svg>
