<svg version="1.1" baseProfile="full" xmlns="http://www.w3.org/2000/svg" width="719.2666666666667" height="80">
	<g>
		<line x1="10" y1="40.0" x2="709.2666666666667" y2="40.0" style="stroke:rgb(70,70,70); stroke-width:3 "/>
		<g>
			<title> (ctg1346_10)</title>
			<polygon class=" (ctg1346_10)" points="26,40 54,10 54,70" fill="rgb(255,255,255)" fill-opacity="1.0" stroke="rgb(0,0,0)" stroke-width="2"  />
			<g>
				<title>DUF4143 (PF13635)
"Domain of unknown function (DUF4143)"</title>
				<polygon class="PF13635" points="31,39 41,28 47,28 47,52 41,52 31,41" stroke-linejoin="round" width="16" height="24" fill="rgb(119,89,210)" stroke="rgb(95,71,168)" stroke-width="1" opacity="0.75" />
			</g>
		</g>
		<g>
			<title> (ctg1346_11)</title>
			<polygon class=" (ctg1346_11)" points="55,10 66,40 55,70" fill="rgb(255,255,255)" fill-opacity="1.0" stroke="rgb(0,0,0)" stroke-width="2"  />
		</g>
		<g>
			<title> (ctg1346_12)</title>
			<polygon class=" (ctg1346_12)" points="71,40 74,10 74,70" fill="rgb(255,255,255)" fill-opacity="1.0" stroke="rgb(0,0,0)" stroke-width="2"  />
		</g>
		<g>
			<title> (ctg1346_13)</title>
			<polygon class=" (ctg1346_13)" points="119,25 106,25 106,10 76,40 106,70 106,55 119,55" fill="rgb(255,255,255)" fill-opacity="1.0" stroke="rgb(0,0,0)" stroke-width="2"  />
		</g>
		<g>
			<title> (ctg1346_14)</title>
			<polygon class=" (ctg1346_14)" points="161,25 150,25 150,10 120,40 150,70 150,55 161,55" fill="rgb(255,255,255)" fill-opacity="1.0" stroke="rgb(0,0,0)" stroke-width="2"  />
			<g>
				<title>Amidohydro_1 (PF01979)
"Amidohydrolase family"</title>
				<polygon class="PF01979" points="124,40 136,28 151,28 151,52 136,52" stroke-linejoin="round" width="30" height="24" fill="rgb(210,93,184)" stroke="rgb(168,74,147)" stroke-width="1" opacity="0.75" />
			</g>
		</g>
		<g>
			<title> (ctg1346_15)</title>
			<polygon class=" (ctg1346_15)" points="213,25 198,25 198,10 168,40 198,70 198,55 213,55" fill="rgb(255,255,255)" fill-opacity="1.0" stroke="rgb(0,0,0)" stroke-width="2"  />
			<g>
				<title>SusD_RagB (PF07980)
"SusD family"</title>
				<polygon class="PF07980" points="172,40 184,28 192,28 192,52 184,52" stroke-linejoin="round" width="24" height="24" fill="rgb(226,135,61)" stroke="rgb(180,108,48)" stroke-width="1" opacity="0.75" />
			</g>
		</g>
		<g>
			<title> (ctg1346_16)</title>
			<polygon class=" (ctg1346_16)" points="311,25 244,25 244,10 214,40 244,70 244,55 311,55" fill="rgb(255,255,255)" fill-opacity="1.0" stroke="rgb(0,0,0)" stroke-width="2"  />
			<g>
				<title>TonB_dep_Rec (PF00593)
"TonB dependent receptor"</title>
				<rect class="PF00593" x="236" y="28" stroke-linejoin="round" width="34" height="24" fill="rgb(171,200,51)" stroke="rgb(136,160,40)" stroke-width="1" opacity="0.75" />
			</g>
			<g>
				<title>Plug (PF07715)
"TonB-dependent Receptor Plug Domain"</title>
				<rect class="PF07715" x="286" y="28" stroke-linejoin="round" width="12" height="24" fill="rgb(99,133,214)" stroke="rgb(79,106,171)" stroke-width="1" opacity="0.75" />
			</g>
			<g>
				<title>CarbopepD_reg_2 (PF13715)
"CarboxypepD_reg-like domain"</title>
				<rect class="PF13715" x="300" y="28" stroke-linejoin="round" width="8" height="24" fill="rgb(198,51,128)" stroke="rgb(158,40,102)" stroke-width="1" opacity="0.75" />
			</g>
		</g>
		<g>
			<title> (ctg1346_17)</title>
			<polygon class=" (ctg1346_17)" points="321,40 336,10 336,70" fill="rgb(255,255,255)" fill-opacity="1.0" stroke="rgb(0,0,0)" stroke-width="2"  />
		</g>
		<g>
			<title> (ctg1346_18)</title>
			<polygon class=" (ctg1346_18)" points="343,25 345,25 345,10 375,40 345,70 345,55 343,55" fill="rgb(255,255,255)" fill-opacity="1.0" stroke="rgb(0,0,0)" stroke-width="2"  />
			<g>
				<title>SQS_PSY (PF00494)
"Squalene/phytoene synthase"</title>
				<polygon class="PF00494" points="343,28 359,28 371,40 371,40 359,52 343,52" stroke-linejoin="round" width="28" height="24" fill="rgb(178,91,49)" stroke="rgb(142,72,39)" stroke-width="1" opacity="0.75" />
			</g>
		</g>
		<g>
			<title> (ctg1346_19)</title>
			<polygon class=" (ctg1346_19)" points="375,25 383,25 383,10 413,40 383,70 383,55 375,55" fill="rgb(255,255,255)" fill-opacity="1.0" stroke="rgb(0,0,0)" stroke-width="2"  />
			<g>
				<title>Aminotran_5 (PF00266)
"Aminotransferase class-V"</title>
				<polygon class="PF00266" points="376,28 397,28 409,40 397,52 376,52" stroke-linejoin="round" width="35" height="24" fill="rgb(214,54,122)" stroke="rgb(171,43,97)" stroke-width="1" opacity="0.75" />
			</g>
		</g>
		<g>
			<title> (ctg1346_20)</title>
			<polygon class=" (ctg1346_20)" points="414,25 475,25 475,10 505,40 475,70 475,55 414,55" fill="rgb(255,255,255)" fill-opacity="1.0" stroke="rgb(0,0,0)" stroke-width="2"  />
			<g>
				<title>DUF5117 (PF17148)
"Domain of unknown function (DUF5117)"</title>
				<rect class="PF17148" x="427" y="28" stroke-linejoin="round" width="20" height="24" fill="rgb(105,217,142)" stroke="rgb(84,173,113)" stroke-width="1" opacity="0.75" />
			</g>
			<g>
				<title>DUF4953 (PF16313)
"Met-zincin"</title>
				<polygon class="PF16313" points="460,28 488,28 490,30 490,50 488,52 460,52" stroke-linejoin="round" width="30" height="24" fill="rgb(147,83,182)" stroke="rgb(117,66,145)" stroke-width="1" opacity="0.75" />
			</g>
		</g>
		<g>
			<title> (ctg1346_21)</title>
			<polygon class=" (ctg1346_21)" points="554,25 536,25 536,10 506,40 536,70 536,55 554,55" fill="rgb(255,255,255)" fill-opacity="1.0" stroke="rgb(0,0,0)" stroke-width="2"  />
			<g>
				<title>Plug (PF07715)
"TonB-dependent Receptor Plug Domain"</title>
				<polygon class="PF07715" points="522,28 522,28 532,28 532,52 522,52 522,52" stroke-linejoin="round" width="10" height="24" fill="rgb(99,133,214)" stroke="rgb(79,106,171)" stroke-width="1" opacity="0.75" />
			</g>
			<g>
				<title>CarbopepD_reg_2 (PF13715)
"CarboxypepD_reg-like domain"</title>
				<rect class="PF13715" x="534" y="28" stroke-linejoin="round" width="8" height="24" fill="rgb(198,51,128)" stroke="rgb(158,40,102)" stroke-width="1" opacity="0.75" />
			</g>
		</g>
		<g>
			<title> (ctg1346_22)</title>
			<polygon class=" (ctg1346_22)" points="600,25 583,25 583,10 553,40 583,70 583,55 600,55" fill="rgb(255,255,255)" fill-opacity="1.0" stroke="rgb(0,0,0)" stroke-width="2"  />
			<g>
				<title>MatE (PF01554)
"MatE"</title>
				<polygon class="PF01554" points="558,39 569,28 574,28 574,52 569,52 558,41" stroke-linejoin="round" width="16" height="24" fill="rgb(187,69,173)" stroke="rgb(149,55,138)" stroke-width="1" opacity="0.75" />
			</g>
			<g>
				<title>MatE (PF01554)
"MatE"</title>
				<rect class="PF01554" x="581" y="28" stroke-linejoin="round" width="16" height="24" fill="rgb(187,69,173)" stroke="rgb(149,55,138)" stroke-width="1" opacity="0.75" />
			</g>
		</g>
		<g>
			<title> (ctg1346_23)</title>
			<polygon class=" (ctg1346_23)" points="602,40 627,10 627,70" fill="rgb(255,255,255)" fill-opacity="1.0" stroke="rgb(0,0,0)" stroke-width="2"  />
			<g>
				<title>Fer4_8 (PF13183)
"4Fe-4S dicluster domain"</title>
				<polygon class="PF13183" points="606,40 612,33 612,47" stroke-linejoin="round" width="7" height="24" fill="rgb(180,196,91)" stroke="rgb(144,156,72)" stroke-width="1" opacity="0.75" />
			</g>
			<g>
				<title>Fer2_3 (PF13085)
"2Fe-2S iron-sulfur cluster binding domain"</title>
				<polygon class="PF13085" points="616,28 616,28 626,28 626,52 616,52 616,52" stroke-linejoin="round" width="10" height="24" fill="rgb(214,154,54)" stroke="rgb(171,123,43)" stroke-width="1" opacity="0.75" />
			</g>
		</g>
		<g>
			<title> (ctg1346_24)</title>
			<polygon class=" (ctg1346_24)" points="687,25 657,25 657,10 627,40 657,70 657,55 687,55" fill="rgb(255,255,255)" fill-opacity="1.0" stroke="rgb(0,0,0)" stroke-width="2"  />
			<g>
				<title>Succ_DH_flav_C (PF02910)
"Fumarate reductase flavoprotein C-term"</title>
				<polygon class="PF02910" points="631,40 639,32 639,48" stroke-linejoin="round" width="11" height="24" fill="rgb(140,80,199)" stroke="rgb(112,64,159)" stroke-width="1" opacity="0.75" />
			</g>
			<g>
				<title>FAD_binding_2 (PF00890)
"FAD binding domain"</title>
				<rect class="PF00890" x="645" y="28" stroke-linejoin="round" width="41" height="24" fill="rgb(63,199,116)" stroke="rgb(50,159,92)" stroke-width="1" opacity="0.75" />
			</g>
		</g>
	</g>
</svg>
