<svg version="1.1" baseProfile="full" xmlns="http://www.w3.org/2000/svg" width="362.03333333333336" height="80">
	<g>
		<line x1="10" y1="40.0" x2="352.03333333333336" y2="40.0" style="stroke:rgb(70,70,70); stroke-width:3 "/>
		<g>
			<title> (ctg103_52)</title>
			<polygon class=" (ctg103_52)" points="12,25 14,25 14,10 44,40 14,70 14,55 12,55" fill="rgb(255,255,255)" fill-opacity="1.0" stroke="rgb(0,0,0)" stroke-width="2"  />
		</g>
		<g>
			<title> (ctg103_53)</title>
			<polygon class=" (ctg103_53)" points="49,10 55,40 49,70" fill="rgb(255,255,255)" fill-opacity="1.0" stroke="rgb(0,0,0)" stroke-width="2"  />
		</g>
		<g>
			<title> (ctg103_54)</title>
			<polygon class=" (ctg103_54)" points="100,25 95,25 95,10 65,40 95,70 95,55 100,55" fill="rgb(255,255,255)" fill-opacity="1.0" stroke="rgb(0,0,0)" stroke-width="2"  />
		</g>
		<g>
			<title> (ctg103_55)</title>
			<polygon class=" (ctg103_55)" points="102,40 106,10 106,70" fill="rgb(255,255,255)" fill-opacity="1.0" stroke="rgb(0,0,0)" stroke-width="2"  />
		</g>
		<g>
			<title> (ctg103_56)</title>
			<polygon class=" (ctg103_56)" points="159,25 142,25 142,10 112,40 142,70 142,55 159,55" fill="rgb(255,255,255)" fill-opacity="1.0" stroke="rgb(0,0,0)" stroke-width="2"  />
			<g>
				<title>Trp_halogenase (PF04820)
"Tryptophan halogenase"</title>
				<polygon class="PF04820" points="116,40 128,28 158,28 158,52 128,52" stroke-linejoin="round" width="43" height="24" fill="rgb(179,74,194)" stroke="rgb(143,59,155)" stroke-width="1" opacity="0.75" />
			</g>
		</g>
		<g>
			<title> (ctg103_57)</title>
			<polygon class=" (ctg103_57)" points="176,40 184,10 184,70" fill="rgb(255,255,255)" fill-opacity="1.0" stroke="rgb(0,0,0)" stroke-width="2"  />
		</g>
		<g>
			<title> (ctg103_58)</title>
			<polygon class=" (ctg103_58)" points="186,10 195,40 186,70" fill="rgb(255,255,255)" fill-opacity="1.0" stroke="rgb(0,0,0)" stroke-width="2"  />
		</g>
		<g>
			<title> (ctg103_59)</title>
			<polygon class=" (ctg103_59)" points="194,10 217,40 194,70" fill="rgb(255,255,255)" fill-opacity="1.0" stroke="rgb(0,0,0)" stroke-width="2"  />
		</g>
		<g>
			<title> (ctg103_60)</title>
			<polygon class=" (ctg103_60)" points="216,25 241,25 241,10 271,40 241,70 241,55 216,55" fill="rgb(255,255,255)" fill-opacity="1.0" stroke="rgb(0,0,0)" stroke-width="2"  />
			<g>
				<title>GFO_IDH_MocA (PF01408)
"Oxidoreductase family, NAD-binding Rossmann fold"</title>
				<rect class="PF01408" x="222" y="28" stroke-linejoin="round" width="11" height="24" fill="rgb(76,117,190)" stroke="rgb(60,93,152)" stroke-width="1" opacity="0.75" />
			</g>
		</g>
		<g>
			<title> (ctg103_61)</title>
			<polygon class=" (ctg103_61)" points="316,25 302,25 302,10 272,40 302,70 302,55 316,55" fill="rgb(255,255,255)" fill-opacity="1.0" stroke="rgb(0,0,0)" stroke-width="2"  />
			<g>
				<title>Acyltransferase (PF01553)
"Acyltransferase"</title>
				<rect class="PF01553" x="293" y="28" stroke-linejoin="round" width="13" height="24" fill="rgb(87,176,216)" stroke="rgb(69,140,172)" stroke-width="1" opacity="0.75" />
			</g>
		</g>
	</g>
</svg>
