<svg version="1.1" baseProfile="full" xmlns="http://www.w3.org/2000/svg" width="747.6666666666666" height="80">
	<g>
		<line x1="10" y1="40.0" x2="737.6666666666666" y2="40.0" style="stroke:rgb(70,70,70); stroke-width:3 "/>
		<g>
			<title> (ctg652_11)</title>
			<polygon class=" (ctg652_11)" points="89,25 105,25 105,10 135,40 105,70 105,55 89,55" fill="rgb(255,255,255)" fill-opacity="1.0" stroke="rgb(0,0,0)" stroke-width="2"  />
			<g>
				<title>DUF1501 (PF07394)
"Protein of unknown function (DUF1501)"</title>
				<polygon class="PF07394" points="94,28 118,28 130,40 118,52 94,52" stroke-linejoin="round" width="40" height="24" fill="rgb(199,225,81)" stroke="rgb(159,180,64)" stroke-width="1" opacity="0.75" />
			</g>
		</g>
		<g>
			<title> (ctg652_12)</title>
			<polygon class=" (ctg652_12)" points="173,25 171,25 171,10 141,40 171,70 171,55 173,55" fill="rgb(255,255,255)" fill-opacity="1.0" stroke="rgb(0,0,0)" stroke-width="2"  />
			<g>
				<title>PALP (PF00291)
"Pyridoxal-phosphate dependent enzyme"</title>
				<polygon class="PF00291" points="145,40 157,28 170,28 170,52 157,52" stroke-linejoin="round" width="28" height="24" fill="rgb(180,55,145)" stroke="rgb(144,44,116)" stroke-width="1" opacity="0.75" />
			</g>
		</g>
		<g>
			<title> (ctg652_13)</title>
			<polygon class=" (ctg652_13)" points="174,25 270,25 270,10 300,40 270,70 270,55 174,55" fill="rgb(255,255,255)" fill-opacity="1.0" stroke="rgb(0,0,0)" stroke-width="2"  />
			<g>
				<title>CarboxypepD_reg (PF13620)
"Carboxypeptidase regulatory-like domain"</title>
				<rect class="PF13620" x="198" y="28" stroke-linejoin="round" width="8" height="24" fill="rgb(201,63,96)" stroke="rgb(160,50,76)" stroke-width="1" opacity="0.75" />
			</g>
		</g>
		<g>
			<title> (ctg652_14)</title>
			<polygon class=" (ctg652_14)" points="342,25 331,25 331,10 301,40 331,70 331,55 342,55" fill="rgb(255,255,255)" fill-opacity="1.0" stroke="rgb(0,0,0)" stroke-width="2"  />
			<g>
				<title>Amino_oxidase (PF01593)
"Flavin containing amine oxidoreductase"</title>
				<polygon class="PF01593" points="305,40 317,28 341,28 341,52 317,52" stroke-linejoin="round" width="40" height="24" fill="rgb(184,74,52)" stroke="rgb(147,59,41)" stroke-width="1" opacity="0.75" />
			</g>
		</g>
		<g>
			<title> (ctg652_15)</title>
			<polygon class=" (ctg652_15)" points="404,25 373,25 373,10 343,40 373,70 373,55 404,55" fill="rgb(255,255,255)" fill-opacity="1.0" stroke="rgb(0,0,0)" stroke-width="2"  />
			<g>
				<title>SQS_PSY (PF00494)
"Squalene/phytoene synthase"</title>
				<polygon class="PF00494" points="347,40 359,28 370,28 370,52 359,52" stroke-linejoin="round" width="25" height="24" fill="rgb(178,91,49)" stroke="rgb(142,72,39)" stroke-width="1" opacity="0.75" />
			</g>
			<g>
				<title>SQS_PSY (PF00494)
"Squalene/phytoene synthase"</title>
				<rect class="PF00494" x="375" y="28" stroke-linejoin="round" width="25" height="24" fill="rgb(178,91,49)" stroke="rgb(142,72,39)" stroke-width="1" opacity="0.75" />
			</g>
		</g>
		<g>
			<title> (ctg652_16)</title>
			<polygon class=" (ctg652_16)" points="456,25 434,25 434,10 404,40 434,70 434,55 456,55" fill="rgb(255,255,255)" fill-opacity="1.0" stroke="rgb(0,0,0)" stroke-width="2"  />
			<g>
				<title>G_glu_transpept (PF01019)
"Gamma-glutamyltranspeptidase"</title>
				<polygon class="PF01019" points="408,40 420,28 454,28 454,52 420,52" stroke-linejoin="round" width="50" height="24" fill="rgb(117,205,100)" stroke="rgb(93,164,80)" stroke-width="1" opacity="0.75" />
			</g>
		</g>
		<g>
			<title> (ctg652_17)</title>
			<polygon class=" (ctg652_17)" points="474,40 489,10 489,70" fill="rgb(255,255,255)" fill-opacity="1.0" stroke="rgb(0,0,0)" stroke-width="2"  />
		</g>
		<g>
			<title> (ctg652_18)</title>
			<polygon class=" (ctg652_18)" points="531,25 519,25 519,10 489,40 519,70 519,55 531,55" fill="rgb(255,255,255)" fill-opacity="1.0" stroke="rgb(0,0,0)" stroke-width="2"  />
			<g>
				<title>HXXSHH (PF07586)
"Protein of unknown function (DUF1552)"</title>
				<polygon class="PF07586" points="498,35 505,28 528,28 528,52 505,52 498,45" stroke-linejoin="round" width="30" height="24" fill="rgb(223,99,133)" stroke="rgb(178,79,106)" stroke-width="1" opacity="0.75" />
			</g>
		</g>
		<g>
			<title> (ctg652_19)</title>
			<polygon class=" (ctg652_19)" points="546,40 558,10 558,70" fill="rgb(255,255,255)" fill-opacity="1.0" stroke="rgb(0,0,0)" stroke-width="2"  />
			<g>
				<title>DUF3500 (PF12006)
"Protein of unknown function (DUF3500)"</title>
				<polygon class="PF12006" points="549,40 554,28 558,28 558,52 554,52" stroke-linejoin="round" width="11" height="24" fill="rgb(85,197,158)" stroke="rgb(68,157,126)" stroke-width="1" opacity="0.75" />
			</g>
		</g>
		<g>
			<title> (ctg652_20)</title>
			<polygon class=" (ctg652_20)" points="559,40 562,10 562,70" fill="rgb(255,255,255)" fill-opacity="1.0" stroke="rgb(0,0,0)" stroke-width="2"  />
		</g>
		<g>
			<title> (ctg652_21)</title>
			<polygon class=" (ctg652_21)" points="563,25 565,25 565,10 595,40 565,70 565,55 563,55" fill="rgb(255,255,255)" fill-opacity="1.0" stroke="rgb(0,0,0)" stroke-width="2"  />
			<g>
				<title>Uma2 (PF05685)
"Putative restriction endonuclease"</title>
				<polygon class="PF05685" points="568,28 579,28 582,31 582,49 579,52 568,52" stroke-linejoin="round" width="14" height="24" fill="rgb(123,107,219)" stroke="rgb(98,85,175)" stroke-width="1" opacity="0.75" />
			</g>
		</g>
		<g>
			<title> (ctg652_22)</title>
			<polygon class=" (ctg652_22)" points="597,10 601,40 597,70" fill="rgb(255,255,255)" fill-opacity="1.0" stroke="rgb(0,0,0)" stroke-width="2"  />
		</g>
		<g>
			<title> (ctg652_23)</title>
			<polygon class=" (ctg652_23)" points="646,25 632,25 632,10 602,40 632,70 632,55 646,55" fill="rgb(255,255,255)" fill-opacity="1.0" stroke="rgb(0,0,0)" stroke-width="2"  />
			<g>
				<title>DUF4143 (PF13635)
"Domain of unknown function (DUF4143)"</title>
				<polygon class="PF13635" points="607,39 618,28 622,28 622,52 618,52 607,41" stroke-linejoin="round" width="15" height="24" fill="rgb(119,89,210)" stroke="rgb(95,71,168)" stroke-width="1" opacity="0.75" />
			</g>
			<g>
				<title>AAA_14 (PF13173)
"AAA domain"</title>
				<rect class="PF13173" x="626" y="28" stroke-linejoin="round" width="12" height="24" fill="rgb(77,222,177)" stroke="rgb(61,177,141)" stroke-width="1" opacity="0.75" />
			</g>
		</g>
	</g>
</svg>
