<svg version="1.1" baseProfile="full" xmlns="http://www.w3.org/2000/svg" width="381.93333333333334" height="80">
	<g>
		<line x1="10" y1="40.0" x2="371.93333333333334" y2="40.0" style="stroke:rgb(70,70,70); stroke-width:3 "/>
		<g>
			<title> (ctg1028_22)</title>
			<polygon class=" (ctg1028_22)" points="29,10 57,40 29,70" fill="rgb(255,255,255)" fill-opacity="1.0" stroke="rgb(0,0,0)" stroke-width="2"  />
			<g>
				<title>HTS (PF04204)
"Homoserine O-succinyltransferase"</title>
				<polygon class="PF04204" points="29,28 41,28 53,40 41,52 29,52" stroke-linejoin="round" width="28" height="24" fill="rgb(53,209,183)" stroke="rgb(42,167,146)" stroke-width="1" opacity="0.75" />
			</g>
		</g>
		<g>
			<title> (ctg1028_23)</title>
			<polygon class=" (ctg1028_23)" points="58,10 78,40 58,70" fill="rgb(255,255,255)" fill-opacity="1.0" stroke="rgb(0,0,0)" stroke-width="2"  />
			<g>
				<title>GST_N (PF02798)
"Glutathione S-transferase, N-terminal domain"</title>
				<rect class="PF02798" x="58" y="28" stroke-linejoin="round" width="7" height="24" fill="rgb(82,167,186)" stroke="rgb(65,133,148)" stroke-width="1" opacity="0.75" />
			</g>
			<g>
				<title>GST_C_2 (PF13410)
"Glutathione S-transferase, C-terminal domain"</title>
				<polygon class="PF13410" points="70,33 74,40 70,47" stroke-linejoin="round" width="6" height="24" fill="rgb(228,199,74)" stroke="rgb(182,159,59)" stroke-width="1" opacity="0.75" />
			</g>
		</g>
		<g>
			<title> (ctg1028_24)</title>
			<polygon class=" (ctg1028_24)" points="91,10 105,40 91,70" fill="rgb(255,255,255)" fill-opacity="1.0" stroke="rgb(0,0,0)" stroke-width="2"  />
			<g>
				<title>PIN (PF01850)
"PIN domain"</title>
				<polygon class="PF01850" points="91,28 95,28 101,40 95,52 91,52" stroke-linejoin="round" width="12" height="24" fill="rgb(91,217,126)" stroke="rgb(72,173,100)" stroke-width="1" opacity="0.75" />
			</g>
		</g>
		<g>
			<title> (ctg1028_25)</title>
			<polygon class=" (ctg1028_25)" points="106,40 116,10 116,70" fill="rgb(255,255,255)" fill-opacity="1.0" stroke="rgb(0,0,0)" stroke-width="2"  />
			<g>
				<title>ydhR (PF08803)
"Putative mono-oxygenase ydhR"</title>
				<polygon class="PF08803" points="109,40 113,28 115,28 115,52 113,52" stroke-linejoin="round" width="8" height="24" fill="rgb(96,198,74)" stroke="rgb(76,158,59)" stroke-width="1" opacity="0.75" />
			</g>
		</g>
		<g>
			<title> (ctg1028_26)</title>
			<polygon class=" (ctg1028_26)" points="119,40 128,10 128,70" fill="rgb(255,255,255)" fill-opacity="1.0" stroke="rgb(0,0,0)" stroke-width="2"  />
			<g>
				<title>DUF1330 (PF07045)
"Domain of unknown function (DUF1330)"</title>
				<polygon class="PF07045" points="122,40 126,28 128,28 128,52 126,52" stroke-linejoin="round" width="9" height="24" fill="rgb(195,84,105)" stroke="rgb(156,67,84)" stroke-width="1" opacity="0.75" />
			</g>
		</g>
		<g>
			<title> (ctg1028_27)</title>
			<polygon class=" (ctg1028_27)" points="132,40 150,10 150,70" fill="rgb(255,255,255)" fill-opacity="1.0" stroke="rgb(0,0,0)" stroke-width="2"  />
			<g>
				<title>DoxX (PF07681)
"DoxX"</title>
				<polygon class="PF07681" points="137,38 143,28 147,28 147,52 143,52 137,42" stroke-linejoin="round" width="10" height="24" fill="rgb(93,188,216)" stroke="rgb(74,150,172)" stroke-width="1" opacity="0.75" />
			</g>
		</g>
		<g>
			<title> (ctg1028_28)</title>
			<polygon class=" (ctg1028_28)" points="151,40 176,10 176,70" fill="rgb(255,255,255)" fill-opacity="1.0" stroke="rgb(0,0,0)" stroke-width="2"  />
			<g>
				<title>DUF2063 (PF09836)
"Putative DNA-binding domain"</title>
				<rect class="PF09836" x="166" y="28" stroke-linejoin="round" width="9" height="24" fill="rgb(88,194,190)" stroke="rgb(70,155,152)" stroke-width="1" opacity="0.75" />
			</g>
		</g>
		<g>
			<title> (ctg1028_29)</title>
			<polygon class=" (ctg1028_29)" points="176,40 204,10 204,70" fill="rgb(255,255,255)" fill-opacity="1.0" stroke="rgb(0,0,0)" stroke-width="2"  />
			<g>
				<title>DUF692 (PF05114)
"Protein of unknown function (DUF692)"</title>
				<polygon class="PF05114" points="180,40 191,28 202,28 202,52 191,52" stroke-linejoin="round" width="26" height="24" fill="rgb(63,196,127)" stroke="rgb(50,156,101)" stroke-width="1" opacity="0.75" />
			</g>
		</g>
		<g>
			<title> (ctg1028_30)</title>
			<polygon class=" (ctg1028_30)" points="207,40 216,10 216,70" fill="rgb(255,255,255)" fill-opacity="1.0" stroke="rgb(0,0,0)" stroke-width="2"  />
			<g>
				<title>DUF2282 (PF10048)
"Predicted integral membrane protein (DUF2282)"</title>
				<polygon class="PF10048" points="210,40 213,31 213,49" stroke-linejoin="round" width="5" height="24" fill="rgb(58,205,168)" stroke="rgb(46,164,134)" stroke-width="1" opacity="0.75" />
			</g>
		</g>
		<g>
			<title> (ctg1028_31)</title>
			<polygon class=" (ctg1028_31)" points="225,10 249,40 225,70" fill="rgb(255,255,255)" fill-opacity="1.0" stroke="rgb(0,0,0)" stroke-width="2"  />
			<g>
				<title>adh_short_C2 (PF13561)
"Enoyl-(Acyl carrier protein) reductase"</title>
				<polygon class="PF13561" points="226,28 236,28 246,40 236,52 226,52" stroke-linejoin="round" width="23" height="24" fill="rgb(73,205,127)" stroke="rgb(58,164,101)" stroke-width="1" opacity="0.75" />
			</g>
		</g>
		<g>
			<title> (ctg1028_32)</title>
			<polygon class=" (ctg1028_32)" points="294,25 281,25 281,10 251,40 281,70 281,55 294,55" fill="rgb(255,255,255)" fill-opacity="1.0" stroke="rgb(0,0,0)" stroke-width="2"  />
			<g>
				<title>Aminotran_3 (PF00202)
"Aminotransferase class-III"</title>
				<polygon class="PF00202" points="255,40 267,28 291,28 291,52 267,52" stroke-linejoin="round" width="40" height="24" fill="rgb(49,163,189)" stroke="rgb(39,130,151)" stroke-width="1" opacity="0.75" />
			</g>
		</g>
		<g>
			<title> (ctg1028_33)</title>
			<polygon class=" (ctg1028_33)" points="301,25 305,25 305,10 335,40 305,70 305,55 301,55" fill="rgb(255,255,255)" fill-opacity="1.0" stroke="rgb(0,0,0)" stroke-width="2"  />
			<g>
				<title>Meth_synt_2 (PF01717)
"Cobalamin-independent synthase, Catalytic domain"</title>
				<polygon class="PF01717" points="301,28 319,28 331,40 319,52 301,52" stroke-linejoin="round" width="33" height="24" fill="rgb(163,221,87)" stroke="rgb(130,176,69)" stroke-width="1" opacity="0.75" />
			</g>
		</g>
		<g>
			<title> (ctg1028_34)</title>
			<polygon class=" (ctg1028_34)" points="336,40 358,10 358,70" fill="rgb(255,255,255)" fill-opacity="1.0" stroke="rgb(0,0,0)" stroke-width="2"  />
			<g>
				<title>DUF1028 (PF06267)
"Family of unknown function (DUF1028)"</title>
				<polygon class="PF06267" points="340,40 349,28 357,28 357,52 349,52" stroke-linejoin="round" width="18" height="24" fill="rgb(136,84,207)" stroke="rgb(108,67,165)" stroke-width="1" opacity="0.75" />
			</g>
		</g>
	</g>
</svg>
