<svg version="1.1" baseProfile="full" xmlns="http://www.w3.org/2000/svg" width="223.8" height="80">
	<g>
		<line x1="10" y1="40.0" x2="213.8" y2="40.0" style="stroke:rgb(70,70,70); stroke-width:3 "/>
		<g>
			<title> (ctg9805_1)</title>
			<polygon class=" (ctg9805_1)" points="80,25 40,25 40,10 10,40 40,70 40,55 80,55" fill="rgb(255,255,255)" fill-opacity="1.0" stroke="rgb(0,0,0)" stroke-width="2"  />
			<g>
				<title>Acyl_transf_1 (PF00698)
"Acyl transferase domain"</title>
				<polygon class="PF00698" points="14,40 22,32 22,48" stroke-linejoin="round" width="12" height="24" fill="rgb(59,176,209)" stroke="rgb(47,140,167)" stroke-width="1" opacity="0.75" />
			</g>
			<g>
				<title>KAsynt_C_assoc (PF16197)
"Ketoacyl-synthetase C-terminal extension"</title>
				<polygon class="PF16197" points="25,29 26,28 39,28 39,52 26,52 25,51" stroke-linejoin="round" width="14" height="24" fill="rgb(240,150,172)" stroke="rgb(192,120,137)" stroke-width="1" opacity="0.75" />
			</g>
			<g>
				<title>Ketoacyl-synt_C (PF02801)
"Beta-ketoacyl synthase, C-terminal domain"</title>
				<rect class="PF02801" x="40" y="28" stroke-linejoin="round" width="11" height="24" fill="rgb(215,78,102)" stroke="rgb(172,62,81)" stroke-width="1" opacity="0.75" />
			</g>
			<g>
				<title>ketoacyl-synt (PF00109)
"Beta-ketoacyl synthase, N-terminal domain"</title>
				<rect class="PF00109" x="52" y="28" stroke-linejoin="round" width="25" height="24" fill="rgb(112,116,228)" stroke="rgb(89,92,182)" stroke-width="1" opacity="0.75" />
			</g>
		</g>
		<g>
			<title> (ctg9805_2)</title>
			<polygon class=" (ctg9805_2)" points="117,25 114,25 114,10 84,40 114,70 114,55 117,55" fill="rgb(255,255,255)" fill-opacity="1.0" stroke="rgb(0,0,0)" stroke-width="2"  />
			<g>
				<title>Xan_ur_permease (PF00860)
"Permease family"</title>
				<rect class="PF00860" x="102" y="28" stroke-linejoin="round" width="14" height="24" fill="rgb(216,88,217)" stroke="rgb(172,70,173)" stroke-width="1" opacity="0.75" />
			</g>
		</g>
		<g>
			<title> (ctg9805_3)</title>
			<polygon class=" (ctg9805_3)" points="116,40 142,10 142,70" fill="rgb(255,255,255)" fill-opacity="1.0" stroke="rgb(0,0,0)" stroke-width="2"  />
		</g>
		<g>
			<title> (ctg9805_4)</title>
			<polygon class=" (ctg9805_4)" points="147,40 157,10 157,70" fill="rgb(255,255,255)" fill-opacity="1.0" stroke="rgb(0,0,0)" stroke-width="2"  />
			<g>
				<title>NIPSNAP (PF07978)
"NIPSNAP"</title>
				<polygon class="PF07978" points="150,40 154,28 157,28 157,52 154,52" stroke-linejoin="round" width="10" height="24" fill="rgb(118,80,216)" stroke="rgb(94,64,172)" stroke-width="1" opacity="0.75" />
			</g>
		</g>
		<g>
			<title> (ctg9805_5)</title>
			<polygon class=" (ctg9805_5)" points="163,25 167,25 167,10 197,40 167,70 167,55 163,55" fill="rgb(255,255,255)" fill-opacity="1.0" stroke="rgb(0,0,0)" stroke-width="2"  />
			<g>
				<title>AstE_AspA (PF04952)
"Succinylglutamate desuccinylase / Aspartoacylase family"</title>
				<polygon class="PF04952" points="167,28 181,28 193,40 181,52 167,52" stroke-linejoin="round" width="28" height="24" fill="rgb(143,103,224)" stroke="rgb(114,82,179)" stroke-width="1" opacity="0.75" />
			</g>
		</g>
		<g>
			<title> (ctg9805_6)</title>
			<polygon class=" (ctg9805_6)" points="198,10 213,40 198,70" fill="rgb(255,255,255)" fill-opacity="1.0" stroke="rgb(0,0,0)" stroke-width="2"  />
			<g>
				<title>Putative_PNPOx (PF01243)
"Pyridoxamine 5'-phosphate oxidase"</title>
				<polygon class="PF01243" points="199,28 203,28 208,37 208,43 203,52 199,52" stroke-linejoin="round" width="9" height="24" fill="rgb(177,193,67)" stroke="rgb(141,154,53)" stroke-width="1" opacity="0.75" />
			</g>
		</g>
	</g>
</svg>
