<svg version="1.1" baseProfile="full" xmlns="http://www.w3.org/2000/svg" width="749.9333333333333" height="80">
	<g>
		<line x1="10" y1="40.0" x2="739.9333333333333" y2="40.0" style="stroke:rgb(70,70,70); stroke-width:3 "/>
		<g>
			<title> (ctg137_47)</title>
			<polygon class=" (ctg137_47)" points="58,25 65,25 65,10 95,40 65,70 65,55 58,55" fill="rgb(255,255,255)" fill-opacity="1.0" stroke="rgb(0,0,0)" stroke-width="2"  />
			<g>
				<title>DUF1730 (PF08331)
"Domain of unknown function (DUF1730)"</title>
				<rect class="PF08331" x="63" y="28" stroke-linejoin="round" width="7" height="24" fill="rgb(184,157,52)" stroke="rgb(147,125,41)" stroke-width="1" opacity="0.75" />
			</g>
			<g>
				<title>Fer4_16 (PF13484)
"4Fe-4S double cluster binding domain"</title>
				<polygon class="PF13484" points="76,28 79,28 82,31 82,49 79,52 76,52" stroke-linejoin="round" width="6" height="24" fill="rgb(155,190,93)" stroke="rgb(124,152,74)" stroke-width="1" opacity="0.75" />
			</g>
			<g>
				<title>HEAT_2 (PF13646)
"HEAT repeats"</title>
				<polygon class="PF13646" points="87,36 91,40 87,44" stroke-linejoin="round" width="7" height="24" fill="rgb(161,180,58)" stroke="rgb(128,144,46)" stroke-width="1" opacity="0.75" />
			</g>
		</g>
		<g>
			<title> (ctg137_48)</title>
			<polygon class=" (ctg137_48)" points="103,25 131,25 131,10 161,40 131,70 131,55 103,55" fill="rgb(255,255,255)" fill-opacity="1.0" stroke="rgb(0,0,0)" stroke-width="2"  />
			<g>
				<title>SLT (PF01464)
"Transglycosylase SLT domain"</title>
				<rect class="PF01464" x="121" y="28" stroke-linejoin="round" width="11" height="24" fill="rgb(181,60,156)" stroke="rgb(144,47,124)" stroke-width="1" opacity="0.75" />
			</g>
			<g>
				<title>LysM (PF01476)
"LysM domain"</title>
				<polygon class="PF01476" points="144,28 144,28 148,32 148,48 144,52 144,52" stroke-linejoin="round" width="4" height="24" fill="rgb(200,86,203)" stroke="rgb(160,68,162)" stroke-width="1" opacity="0.75" />
			</g>
			<g>
				<title>LysM (PF01476)
"LysM domain"</title>
				<polygon class="PF01476" points="150,34 154,38 154,42 150,46" stroke-linejoin="round" width="4" height="24" fill="rgb(200,86,203)" stroke="rgb(160,68,162)" stroke-width="1" opacity="0.75" />
			</g>
			<g>
				<title>LysM (PF01476)
"LysM domain"</title>
				<polygon class="PF01476" points="156,40 156,40 156,40" stroke-linejoin="round" width="4" height="24" fill="rgb(200,86,203)" stroke="rgb(160,68,162)" stroke-width="1" opacity="0.75" />
			</g>
		</g>
		<g>
			<title> (ctg137_49)</title>
			<polygon class=" (ctg137_49)" points="164,10 174,40 164,70" fill="rgb(255,255,255)" fill-opacity="1.0" stroke="rgb(0,0,0)" stroke-width="2"  />
			<g>
				<title>Rieske (PF00355)
"Rieske [2Fe-2S] domain"</title>
				<polygon class="PF00355" points="164,28 166,28 171,40 166,52 164,52" stroke-linejoin="round" width="8" height="24" fill="rgb(186,77,145)" stroke="rgb(148,61,115)" stroke-width="1" opacity="0.75" />
			</g>
		</g>
		<g>
			<title> (ctg137_50)</title>
			<polygon class=" (ctg137_50)" points="214,25 210,25 210,10 180,40 210,70 210,55 214,55" fill="rgb(255,255,255)" fill-opacity="1.0" stroke="rgb(0,0,0)" stroke-width="2"  />
			<g>
				<title>AIRS_C (PF02769)
"AIR synthase related protein, C-terminal domain"</title>
				<polygon class="PF02769" points="184,40 196,28 197,28 197,52 196,52" stroke-linejoin="round" width="16" height="24" fill="rgb(182,125,70)" stroke="rgb(145,100,56)" stroke-width="1" opacity="0.75" />
			</g>
			<g>
				<title>AIRS (PF00586)
"AIR synthase related protein, N-terminal domain"</title>
				<rect class="PF00586" x="199" y="28" stroke-linejoin="round" width="11" height="24" fill="rgb(215,196,78)" stroke="rgb(172,156,62)" stroke-width="1" opacity="0.75" />
			</g>
		</g>
		<g>
			<title> (ctg137_51)</title>
			<polygon class=" (ctg137_51)" points="308,25 246,25 246,10 216,40 246,70 246,55 308,55" fill="rgb(255,255,255)" fill-opacity="1.0" stroke="rgb(0,0,0)" stroke-width="2"  />
			<g>
				<title>Trans_reg_C (PF00486)
"Transcriptional regulatory protein, C terminal"</title>
				<rect class="PF00486" x="297" y="28" stroke-linejoin="round" width="7" height="24" fill="rgb(204,153,57)" stroke="rgb(163,122,45)" stroke-width="1" opacity="0.75" />
			</g>
		</g>
		<g>
			<title> (ctg137_52)</title>
			<polygon class=" (ctg137_52)" points="315,10 336,40 315,70" fill="rgb(255,255,255)" fill-opacity="1.0" stroke="rgb(0,0,0)" stroke-width="2"  />
			<g>
				<title>DHBP_synthase (PF00926)
"3,4-dihydroxy-2-butanone 4-phosphate synthase"</title>
				<polygon class="PF00926" points="315,28 324,28 332,40 324,52 315,52" stroke-linejoin="round" width="19" height="24" fill="rgb(84,51,187)" stroke="rgb(67,40,149)" stroke-width="1" opacity="0.75" />
			</g>
		</g>
		<g>
			<title> (ctg137_53)</title>
			<polygon class=" (ctg137_53)" points="343,25 344,25 344,10 374,40 344,70 344,55 343,55" fill="rgb(255,255,255)" fill-opacity="1.0" stroke="rgb(0,0,0)" stroke-width="2"  />
			<g>
				<title>SQS_PSY (PF00494)
"Squalene/phytoene synthase"</title>
				<polygon class="PF00494" points="347,28 357,28 369,40 357,52 347,52" stroke-linejoin="round" width="25" height="24" fill="rgb(178,91,49)" stroke="rgb(142,72,39)" stroke-width="1" opacity="0.75" />
			</g>
		</g>
		<g>
			<title> (ctg137_54)</title>
			<polygon class=" (ctg137_54)" points="376,10 405,40 376,70" fill="rgb(255,255,255)" fill-opacity="1.0" stroke="rgb(0,0,0)" stroke-width="2"  />
			<g>
				<title>SQS_PSY (PF00494)
"Squalene/phytoene synthase"</title>
				<polygon class="PF00494" points="378,28 389,28 401,40 389,52 378,52" stroke-linejoin="round" width="25" height="24" fill="rgb(178,91,49)" stroke="rgb(142,72,39)" stroke-width="1" opacity="0.75" />
			</g>
		</g>
		<g>
			<title> (ctg137_55)</title>
			<polygon class=" (ctg137_55)" points="406,25 424,25 424,10 454,40 424,70 424,55 406,55" fill="rgb(255,255,255)" fill-opacity="1.0" stroke="rgb(0,0,0)" stroke-width="2"  />
			<g>
				<title>Amino_oxidase (PF01593)
"Flavin containing amine oxidoreductase"</title>
				<polygon class="PF01593" points="407,28 438,28 450,40 438,52 407,52" stroke-linejoin="round" width="44" height="24" fill="rgb(184,74,52)" stroke="rgb(147,59,41)" stroke-width="1" opacity="0.75" />
			</g>
		</g>
		<g>
			<title> (ctg137_56)</title>
			<polygon class=" (ctg137_56)" points="459,10 484,40 459,70" fill="rgb(255,255,255)" fill-opacity="1.0" stroke="rgb(0,0,0)" stroke-width="2"  />
			<g>
				<title>AP_endonuc_2 (PF01261)
"Xylose isomerase-like TIM barrel"</title>
				<polygon class="PF01261" points="461,28 470,28 480,40 470,52 461,52" stroke-linejoin="round" width="20" height="24" fill="rgb(69,222,207)" stroke="rgb(55,177,165)" stroke-width="1" opacity="0.75" />
			</g>
		</g>
		<g>
			<title> (ctg137_57)</title>
			<polygon class=" (ctg137_57)" points="485,10 502,40 485,70" fill="rgb(255,255,255)" fill-opacity="1.0" stroke="rgb(0,0,0)" stroke-width="2"  />
			<g>
				<title>Acetyltransf_1 (PF00583)
"Acetyltransferase (GNAT) family"</title>
				<polygon class="PF00583" points="488,28 492,28 499,40 499,40 492,52 488,52" stroke-linejoin="round" width="11" height="24" fill="rgb(121,183,50)" stroke="rgb(96,146,39)" stroke-width="1" opacity="0.75" />
			</g>
		</g>
		<g>
			<title> (ctg137_58)</title>
			<polygon class=" (ctg137_58)" points="505,10 530,40 505,70" fill="rgb(255,255,255)" fill-opacity="1.0" stroke="rgb(0,0,0)" stroke-width="2"  />
		</g>
		<g>
			<title> (ctg137_59)</title>
			<polygon class=" (ctg137_59)" points="535,25 549,25 549,10 579,40 549,70 549,55 535,55" fill="rgb(255,255,255)" fill-opacity="1.0" stroke="rgb(0,0,0)" stroke-width="2"  />
			<g>
				<title>Aminotran_5 (PF00266)
"Aminotransferase class-V"</title>
				<polygon class="PF00266" points="543,28 563,28 575,40 563,52 543,52" stroke-linejoin="round" width="34" height="24" fill="rgb(214,54,122)" stroke="rgb(171,43,97)" stroke-width="1" opacity="0.75" />
			</g>
		</g>
		<g>
			<title> (ctg137_60)</title>
			<polygon class=" (ctg137_60)" points="580,25 598,25 598,10 628,40 598,70 598,55 580,55" fill="rgb(255,255,255)" fill-opacity="1.0" stroke="rgb(0,0,0)" stroke-width="2"  />
			<g>
				<title>Polysacc_synt_C (PF14667)
"Polysaccharide biosynthesis C-terminal domain"</title>
				<polygon class="PF14667" points="612,28 612,28 624,40 612,52 612,52" stroke-linejoin="round" width="13" height="24" fill="rgb(222,92,150)" stroke="rgb(177,73,120)" stroke-width="1" opacity="0.75" />
			</g>
		</g>
		<g>
			<title> (ctg137_61)</title>
			<polygon class=" (ctg137_61)" points="628,25 630,25 630,10 660,40 630,70 630,55 628,55" fill="rgb(255,255,255)" fill-opacity="1.0" stroke="rgb(0,0,0)" stroke-width="2"  />
			<g>
				<title>Glycos_transf_2 (PF00535)
"Glycosyl transferase family 2"</title>
				<polygon class="PF00535" points="630,28 643,28 647,32 647,48 643,52 630,52" stroke-linejoin="round" width="17" height="24" fill="rgb(224,122,96)" stroke="rgb(179,97,76)" stroke-width="1" opacity="0.75" />
			</g>
		</g>
		<g>
			<title> (ctg137_62)</title>
			<polygon class=" (ctg137_62)" points="662,40 678,10 678,70" fill="rgb(255,255,255)" fill-opacity="1.0" stroke="rgb(0,0,0)" stroke-width="2"  />
		</g>
	</g>
</svg>
