<svg version="1.1" baseProfile="full" xmlns="http://www.w3.org/2000/svg" width="490.4" height="80">
	<g>
		<line x1="10" y1="40.0" x2="480.4" y2="40.0" style="stroke:rgb(70,70,70); stroke-width:3 "/>
		<g>
			<title> (ctg4828_1)</title>
			<polygon class=" (ctg4828_1)" points="10,40 29,10 29,70" fill="rgb(255,255,255)" fill-opacity="1.0" stroke="rgb(0,0,0)" stroke-width="2"  />
			<g>
				<title>PhyH (PF05721)
"Phytanoyl-CoA dioxygenase (PhyH)"</title>
				<polygon class="PF05721" points="14,40 22,28 28,28 28,52 22,52" stroke-linejoin="round" width="18" height="24" fill="rgb(72,132,214)" stroke="rgb(57,105,171)" stroke-width="1" opacity="0.75" />
			</g>
		</g>
		<g>
			<title> (ctg4828_2)</title>
			<polygon class=" (ctg4828_2)" points="63,25 59,25 59,10 29,40 59,70 59,55 63,55" fill="rgb(255,255,255)" fill-opacity="1.0" stroke="rgb(0,0,0)" stroke-width="2"  />
			<g>
				<title>Ldh_2 (PF02615)
"Malate/L-lactate dehydrogenase"</title>
				<polygon class="PF02615" points="33,40 45,28 63,28 63,52 45,52" stroke-linejoin="round" width="33" height="24" fill="rgb(125,220,90)" stroke="rgb(100,176,72)" stroke-width="1" opacity="0.75" />
			</g>
		</g>
		<g>
			<title> (ctg4828_3)</title>
			<polygon class=" (ctg4828_3)" points="117,25 94,25 94,10 64,40 94,70 94,55 117,55" fill="rgb(255,255,255)" fill-opacity="1.0" stroke="rgb(0,0,0)" stroke-width="2"  />
			<g>
				<title>CHB_HEX_C_1 (PF13290)
"Chitobiase/beta-hexosaminidase C-terminal domain"</title>
				<polygon class="PF13290" points="68,40 70,38 70,42" stroke-linejoin="round" width="6" height="24" fill="rgb(126,178,80)" stroke="rgb(100,142,64)" stroke-width="1" opacity="0.75" />
			</g>
			<g>
				<title>Sulfatase (PF00884)
"Sulfatase"</title>
				<rect class="PF00884" x="89" y="28" stroke-linejoin="round" width="15" height="24" fill="rgb(61,103,198)" stroke="rgb(48,82,158)" stroke-width="1" opacity="0.75" />
			</g>
			<g>
				<title>Sulfatase (PF00884)
"Sulfatase"</title>
				<rect class="PF00884" x="104" y="28" stroke-linejoin="round" width="12" height="24" fill="rgb(61,103,198)" stroke="rgb(48,82,158)" stroke-width="1" opacity="0.75" />
			</g>
		</g>
		<g>
			<title> (ctg4828_4)</title>
			<polygon class=" (ctg4828_4)" points="123,10 128,40 123,70" fill="rgb(255,255,255)" fill-opacity="1.0" stroke="rgb(0,0,0)" stroke-width="2"  />
		</g>
		<g>
			<title> (ctg4828_5)</title>
			<polygon class=" (ctg4828_5)" points="129,10 147,40 129,70" fill="rgb(255,255,255)" fill-opacity="1.0" stroke="rgb(0,0,0)" stroke-width="2"  />
		</g>
		<g>
			<title> (ctg4828_6)</title>
			<polygon class=" (ctg4828_6)" points="150,40 165,10 165,70" fill="rgb(255,255,255)" fill-opacity="1.0" stroke="rgb(0,0,0)" stroke-width="2"  />
		</g>
		<g>
			<title> (ctg4828_7)</title>
			<polygon class=" (ctg4828_7)" points="216,25 199,25 199,10 169,40 199,70 199,55 216,55" fill="rgb(255,255,255)" fill-opacity="1.0" stroke="rgb(0,0,0)" stroke-width="2"  />
			<g>
				<title>Sulfatase (PF00884)
"Sulfatase"</title>
				<polygon class="PF00884" points="179,34 185,28 215,28 215,52 185,52 179,46" stroke-linejoin="round" width="36" height="24" fill="rgb(61,103,198)" stroke="rgb(48,82,158)" stroke-width="1" opacity="0.75" />
			</g>
		</g>
		<g>
			<title> (ctg4828_8)</title>
			<polygon class=" (ctg4828_8)" points="218,40 222,10 222,70" fill="rgb(255,255,255)" fill-opacity="1.0" stroke="rgb(0,0,0)" stroke-width="2"  />
		</g>
		<g>
			<title> (ctg4828_9)</title>
			<polygon class=" (ctg4828_9)" points="223,40 243,10 243,70" fill="rgb(255,255,255)" fill-opacity="1.0" stroke="rgb(0,0,0)" stroke-width="2"  />
			<g>
				<title>SCO1-SenC (PF02630)
"SCO1/SenC"</title>
				<polygon class="PF02630" points="227,40 235,28 238,28 238,52 235,52" stroke-linejoin="round" width="13" height="24" fill="rgb(86,217,172)" stroke="rgb(68,173,137)" stroke-width="1" opacity="0.75" />
			</g>
		</g>
		<g>
			<title> (ctg4828_10)</title>
			<polygon class=" (ctg4828_10)" points="243,40 257,10 257,70" fill="rgb(255,255,255)" fill-opacity="1.0" stroke="rgb(0,0,0)" stroke-width="2"  />
			<g>
				<title>PCuAC (PF04314)
"Copper chaperone PCu(A)C"</title>
				<polygon class="PF04314" points="246,40 252,28 254,28 254,52 252,52" stroke-linejoin="round" width="10" height="24" fill="rgb(55,206,196)" stroke="rgb(44,164,156)" stroke-width="1" opacity="0.75" />
			</g>
		</g>
		<g>
			<title> (ctg4828_11)</title>
			<polygon class=" (ctg4828_11)" points="259,40 286,10 286,70" fill="rgb(255,255,255)" fill-opacity="1.0" stroke="rgb(0,0,0)" stroke-width="2"  />
			<g>
				<title>Methyltransf_11 (PF08241)
"Methyltransferase domain"</title>
				<polygon class="PF08241" points="271,31 274,28 280,28 280,52 274,52 271,49" stroke-linejoin="round" width="9" height="24" fill="rgb(106,219,159)" stroke="rgb(84,175,127)" stroke-width="1" opacity="0.75" />
			</g>
		</g>
		<g>
			<title> (ctg4828_12)</title>
			<polygon class=" (ctg4828_12)" points="326,25 316,25 316,10 286,40 316,70 316,55 326,55" fill="rgb(255,255,255)" fill-opacity="1.0" stroke="rgb(0,0,0)" stroke-width="2"  />
			<g>
				<title>Amidohydro_1 (PF01979)
"Amidohydrolase family"</title>
				<polygon class="PF01979" points="290,40 300,30 300,50" stroke-linejoin="round" width="11" height="24" fill="rgb(210,93,184)" stroke="rgb(168,74,147)" stroke-width="1" opacity="0.75" />
			</g>
		</g>
		<g>
			<title> (ctg4828_13)</title>
			<polygon class=" (ctg4828_13)" points="363,25 359,25 359,10 329,40 359,70 359,55 363,55" fill="rgb(255,255,255)" fill-opacity="1.0" stroke="rgb(0,0,0)" stroke-width="2"  />
			<g>
				<title>SQS_PSY (PF00494)
"Squalene/phytoene synthase"</title>
				<polygon class="PF00494" points="333,40 345,28 361,28 361,52 345,52" stroke-linejoin="round" width="29" height="24" fill="rgb(178,91,49)" stroke="rgb(142,72,39)" stroke-width="1" opacity="0.75" />
			</g>
		</g>
		<g>
			<title> (ctg4828_14)</title>
			<polygon class=" (ctg4828_14)" points="367,10 388,40 367,70" fill="rgb(255,255,255)" fill-opacity="1.0" stroke="rgb(0,0,0)" stroke-width="2"  />
			<g>
				<title>Amidase_2 (PF01510)
"N-acetylmuramoyl-L-alanine amidase"</title>
				<polygon class="PF01510" points="369,28 376,28 384,40 376,52 369,52" stroke-linejoin="round" width="16" height="24" fill="rgb(122,192,71)" stroke="rgb(97,153,56)" stroke-width="1" opacity="0.75" />
			</g>
		</g>
		<g>
			<title> (ctg4828_15)</title>
			<polygon class=" (ctg4828_15)" points="390,25 392,25 392,10 422,40 392,70 392,55 390,55" fill="rgb(255,255,255)" fill-opacity="1.0" stroke="rgb(0,0,0)" stroke-width="2"  />
			<g>
				<title>ABC_tran (PF00005)
"ABC transporter"</title>
				<polygon class="PF00005" points="394,28 406,28 408,30 408,50 406,52 394,52" stroke-linejoin="round" width="14" height="24" fill="rgb(129,201,63)" stroke="rgb(103,160,50)" stroke-width="1" opacity="0.75" />
			</g>
		</g>
		<g>
			<title> (ctg4828_16)</title>
			<polygon class=" (ctg4828_16)" points="422,10 448,40 422,70" fill="rgb(255,255,255)" fill-opacity="1.0" stroke="rgb(0,0,0)" stroke-width="2"  />
			<g>
				<title>ABC2_membrane_6 (PF06182)
"ABC-2 family transporter protein"</title>
				<polygon class="PF06182" points="425,28 433,28 444,40 433,52 425,52" stroke-linejoin="round" width="23" height="24" fill="rgb(223,99,59)" stroke="rgb(178,79,47)" stroke-width="1" opacity="0.75" />
			</g>
		</g>
		<g>
			<title> (ctg4828_17)</title>
			<polygon class=" (ctg4828_17)" points="450,10 474,40 450,70" fill="rgb(255,255,255)" fill-opacity="1.0" stroke="rgb(0,0,0)" stroke-width="2"  />
			<g>
				<title>ABC2_membrane_6 (PF06182)
"ABC-2 family transporter protein"</title>
				<polygon class="PF06182" points="451,28 461,28 470,40 461,52 451,52" stroke-linejoin="round" width="22" height="24" fill="rgb(223,99,59)" stroke="rgb(178,79,47)" stroke-width="1" opacity="0.75" />
			</g>
		</g>
		<g>
			<title> (ctg4828_18)</title>
			<polygon class=" (ctg4828_18)" points="476,10 479,40 476,70" fill="rgb(255,255,255)" fill-opacity="1.0" stroke="rgb(0,0,0)" stroke-width="2"  />
		</g>
	</g>
</svg>
