<svg version="1.1" baseProfile="full" xmlns="http://www.w3.org/2000/svg" width="379.96666666666664" height="80">
	<g>
		<line x1="10" y1="40.0" x2="369.96666666666664" y2="40.0" style="stroke:rgb(70,70,70); stroke-width:3 "/>
		<g>
			<title> (ctg5786_1)</title>
			<polygon class=" (ctg5786_1)" points="10,10 17,40 10,70" fill="rgb(255,255,255)" fill-opacity="1.0" stroke="rgb(0,0,0)" stroke-width="2"  />
		</g>
		<g>
			<title> (ctg5786_2)</title>
			<polygon class=" (ctg5786_2)" points="104,25 100,25 100,10 70,40 100,70 100,55 104,55" fill="rgb(255,255,255)" fill-opacity="1.0" stroke="rgb(0,0,0)" stroke-width="2"  />
			<g>
				<title>SQS_PSY (PF00494)
"Squalene/phytoene synthase"</title>
				<polygon class="PF00494" points="74,40 86,28 101,28 101,52 86,52" stroke-linejoin="round" width="28" height="24" fill="rgb(178,91,49)" stroke="rgb(142,72,39)" stroke-width="1" opacity="0.75" />
			</g>
		</g>
		<g>
			<title> (ctg5786_3)</title>
			<polygon class=" (ctg5786_3)" points="110,25 189,25 189,10 219,40 189,70 189,55 110,55" fill="rgb(255,255,255)" fill-opacity="1.0" stroke="rgb(0,0,0)" stroke-width="2"  />
			<g>
				<title>ACR_tran (PF00873)
"AcrB/AcrD/AcrF family"</title>
				<polygon class="PF00873" points="113,28 203,28 215,40 203,52 113,52" stroke-linejoin="round" width="103" height="24" fill="rgb(63,191,60)" stroke="rgb(50,152,48)" stroke-width="1" opacity="0.75" />
			</g>
		</g>
		<g>
			<title> (ctg5786_4)</title>
			<polygon class=" (ctg5786_4)" points="261,25 251,25 251,10 221,40 251,70 251,55 261,55" fill="rgb(255,255,255)" fill-opacity="1.0" stroke="rgb(0,0,0)" stroke-width="2"  />
			<g>
				<title>DUF2236 (PF09995)
"Uncharacterized protein conserved in bacteria (DUF2236)"</title>
				<polygon class="PF09995" points="225,40 237,28 249,28 249,52 237,52 225,40" stroke-linejoin="round" width="24" height="24" fill="rgb(194,179,92)" stroke="rgb(155,143,73)" stroke-width="1" opacity="0.75" />
			</g>
		</g>
		<g>
			<title> (ctg5786_5)</title>
			<polygon class=" (ctg5786_5)" points="269,10 278,40 269,70" fill="rgb(255,255,255)" fill-opacity="1.0" stroke="rgb(0,0,0)" stroke-width="2"  />
			<g>
				<title>Pterin_4a (PF01329)
"Pterin 4 alpha carbinolamine dehydratase"</title>
				<polygon class="PF01329" points="269,28 271,28 275,40 271,52 269,52" stroke-linejoin="round" width="8" height="24" fill="rgb(109,209,90)" stroke="rgb(87,167,72)" stroke-width="1" opacity="0.75" />
			</g>
		</g>
		<g>
			<title> (ctg5786_6)</title>
			<polygon class=" (ctg5786_6)" points="321,25 308,25 308,10 278,40 308,70 308,55 321,55" fill="rgb(255,255,255)" fill-opacity="1.0" stroke="rgb(0,0,0)" stroke-width="2"  />
			<g>
				<title>Aminotran_3 (PF00202)
"Aminotransferase class-III"</title>
				<polygon class="PF00202" points="282,40 294,28 317,28 317,52 294,52" stroke-linejoin="round" width="39" height="24" fill="rgb(49,163,189)" stroke="rgb(39,130,151)" stroke-width="1" opacity="0.75" />
			</g>
		</g>
		<g>
			<title> (ctg5786_7)</title>
			<polygon class=" (ctg5786_7)" points="354,25 351,25 351,10 321,40 351,70 351,55 354,55" fill="rgb(255,255,255)" fill-opacity="1.0" stroke="rgb(0,0,0)" stroke-width="2"  />
			<g>
				<title>Na_Ca_ex (PF01699)
"Sodium/calcium exchanger protein"</title>
				<polygon class="PF01699" points="325,40 335,30 335,50" stroke-linejoin="round" width="14" height="24" fill="rgb(64,189,136)" stroke="rgb(51,151,108)" stroke-width="1" opacity="0.75" />
			</g>
			<g>
				<title>Na_Ca_ex (PF01699)
"Sodium/calcium exchanger protein"</title>
				<rect class="PF01699" x="338" y="28" stroke-linejoin="round" width="14" height="24" fill="rgb(64,189,136)" stroke="rgb(51,151,108)" stroke-width="1" opacity="0.75" />
			</g>
		</g>
		<g>
			<title> (ctg5786_8)</title>
			<polygon class=" (ctg5786_8)" points="354,40 369,10 369,70" fill="rgb(255,255,255)" fill-opacity="1.0" stroke="rgb(0,0,0)" stroke-width="2"  />
		</g>
	</g>
</svg>
