<svg version="1.1" baseProfile="full" xmlns="http://www.w3.org/2000/svg" width="374.76666666666665" height="80">
	<g>
		<line x1="10" y1="40.0" x2="364.76666666666665" y2="40.0" style="stroke:rgb(70,70,70); stroke-width:3 "/>
		<g>
			<title> (ctg4982_2)</title>
			<polygon class=" (ctg4982_2)" points="29,25 38,25 38,10 68,40 38,70 38,55 29,55" fill="rgb(255,255,255)" fill-opacity="1.0" stroke="rgb(0,0,0)" stroke-width="2"  />
			<g>
				<title>AAA_14 (PF13173)
"AAA domain"</title>
				<rect class="PF13173" x="30" y="28" stroke-linejoin="round" width="11" height="24" fill="rgb(77,222,177)" stroke="rgb(61,177,141)" stroke-width="1" opacity="0.75" />
			</g>
			<g>
				<title>DUF4143 (PF13635)
"Domain of unknown function (DUF4143)"</title>
				<polygon class="PF13635" points="46,28 51,28 61,38 61,42 51,52 46,52" stroke-linejoin="round" width="15" height="24" fill="rgb(119,89,210)" stroke="rgb(95,71,168)" stroke-width="1" opacity="0.75" />
			</g>
		</g>
		<g>
			<title> (ctg4982_3)</title>
			<polygon class=" (ctg4982_3)" points="66,40 87,10 87,70" fill="rgb(255,255,255)" fill-opacity="1.0" stroke="rgb(0,0,0)" stroke-width="2"  />
			<g>
				<title>LUD_dom (PF02589)
"LUD domain"</title>
				<polygon class="PF02589" points="70,40 77,30 77,50" stroke-linejoin="round" width="9" height="24" fill="rgb(102,213,153)" stroke="rgb(81,170,122)" stroke-width="1" opacity="0.75" />
			</g>
		</g>
		<g>
			<title> (ctg4982_4)</title>
			<polygon class=" (ctg4982_4)" points="134,25 118,25 118,10 88,40 118,70 118,55 134,55" fill="rgb(255,255,255)" fill-opacity="1.0" stroke="rgb(0,0,0)" stroke-width="2"  />
			<g>
				<title>DUF3390 (PF11870)
"Domain of unknown function (DUF3390)"</title>
				<polygon class="PF11870" points="92,40 95,37 95,43" stroke-linejoin="round" width="7" height="24" fill="rgb(127,211,86)" stroke="rgb(101,168,68)" stroke-width="1" opacity="0.75" />
			</g>
			<g>
				<title>Fer4_8 (PF13183)
"4Fe-4S dicluster domain"</title>
				<polygon class="PF13183" points="96,36 102,30 102,50 96,44" stroke-linejoin="round" width="6" height="24" fill="rgb(180,196,91)" stroke="rgb(144,156,72)" stroke-width="1" opacity="0.75" />
			</g>
			<g>
				<title>LUD_dom (PF02589)
"LUD domain"</title>
				<rect class="PF02589" x="105" y="28" stroke-linejoin="round" width="22" height="24" fill="rgb(102,213,153)" stroke="rgb(81,170,122)" stroke-width="1" opacity="0.75" />
			</g>
		</g>
		<g>
			<title> (ctg4982_5)</title>
			<polygon class=" (ctg4982_5)" points="134,40 159,10 159,70" fill="rgb(255,255,255)" fill-opacity="1.0" stroke="rgb(0,0,0)" stroke-width="2"  />
			<g>
				<title>CCG (PF02754)
"Cysteine-rich domain"</title>
				<polygon class="PF02754" points="138,40 144,33 144,47" stroke-linejoin="round" width="8" height="24" fill="rgb(80,212,217)" stroke="rgb(64,169,173)" stroke-width="1" opacity="0.75" />
			</g>
			<g>
				<title>CCG (PF02754)
"Cysteine-rich domain"</title>
				<rect class="PF02754" x="149" y="28" stroke-linejoin="round" width="8" height="24" fill="rgb(80,212,217)" stroke="rgb(64,169,173)" stroke-width="1" opacity="0.75" />
			</g>
		</g>
		<g>
			<title> (ctg4982_6)</title>
			<polygon class=" (ctg4982_6)" points="162,40 181,10 181,70" fill="rgb(255,255,255)" fill-opacity="1.0" stroke="rgb(0,0,0)" stroke-width="2"  />
			<g>
				<title>DUF2182 (PF09948)
"Predicted metal-binding integral membrane protein (DUF2182)"</title>
				<polygon class="PF09948" points="166,40 174,28 180,28 180,52 174,52" stroke-linejoin="round" width="18" height="24" fill="rgb(88,205,177)" stroke="rgb(70,164,141)" stroke-width="1" opacity="0.75" />
			</g>
		</g>
		<g>
			<title> (ctg4982_7)</title>
			<polygon class=" (ctg4982_7)" points="187,40 207,10 207,70" fill="rgb(255,255,255)" fill-opacity="1.0" stroke="rgb(0,0,0)" stroke-width="2"  />
			<g>
				<title>DUF1326 (PF07040)
"Protein of unknown function (DUF1326)"</title>
				<polygon class="PF07040" points="191,40 199,28 205,28 205,52 199,52" stroke-linejoin="round" width="17" height="24" fill="rgb(185,64,126)" stroke="rgb(148,51,100)" stroke-width="1" opacity="0.75" />
			</g>
		</g>
		<g>
			<title> (ctg4982_8)</title>
			<polygon class=" (ctg4982_8)" points="240,25 239,25 239,10 209,40 239,70 239,55 240,55" fill="rgb(255,255,255)" fill-opacity="1.0" stroke="rgb(0,0,0)" stroke-width="2"  />
			<g>
				<title>DUF4159 (PF13709)
"Domain of unknown function (DUF4159)"</title>
				<polygon class="PF13709" points="213,40 225,28 231,28 231,52 225,52" stroke-linejoin="round" width="22" height="24" fill="rgb(192,178,93)" stroke="rgb(153,142,74)" stroke-width="1" opacity="0.75" />
			</g>
		</g>
		<g>
			<title> (ctg4982_9)</title>
			<polygon class=" (ctg4982_9)" points="305,25 275,25 275,10 245,40 275,70 275,55 305,55" fill="rgb(255,255,255)" fill-opacity="1.0" stroke="rgb(0,0,0)" stroke-width="2"  />
			<g>
				<title>APS_kinase (PF01583)
"Adenylylsulphate kinase"</title>
				<polygon class="PF01583" points="249,40 261,28 261,28 261,52 261,52" stroke-linejoin="round" width="15" height="24" fill="rgb(48,131,188)" stroke="rgb(38,104,150)" stroke-width="1" opacity="0.75" />
			</g>
			<g>
				<title>GTP_EFTU (PF00009)
"Elongation factor Tu GTP binding domain"</title>
				<rect class="PF00009" x="282" y="28" stroke-linejoin="round" width="23" height="24" fill="rgb(196,118,83)" stroke="rgb(156,94,66)" stroke-width="1" opacity="0.75" />
			</g>
		</g>
		<g>
			<title> (ctg4982_10)</title>
			<polygon class=" (ctg4982_10)" points="335,25 335,25 335,10 305,40 335,70 335,55 335,55" fill="rgb(255,255,255)" fill-opacity="1.0" stroke="rgb(0,0,0)" stroke-width="2"  />
			<g>
				<title>PAPS_reduct (PF01507)
"Phosphoadenosine phosphosulfate reductase family"</title>
				<polygon class="PF01507" points="309,40 321,28 331,28 331,52 321,52 309,40" stroke-linejoin="round" width="22" height="24" fill="rgb(87,190,105)" stroke="rgb(69,152,83)" stroke-width="1" opacity="0.75" />
			</g>
		</g>
		<g>
			<title> (ctg4982_11)</title>
			<polygon class=" (ctg4982_11)" points="343,10 364,40 343,70" fill="rgb(255,255,255)" fill-opacity="1.0" stroke="rgb(0,0,0)" stroke-width="2"  />
			<g>
				<title>SQS_PSY (PF00494)
"Squalene/phytoene synthase"</title>
				<polygon class="PF00494" points="343,28 352,28 360,40 352,52 343,52" stroke-linejoin="round" width="20" height="24" fill="rgb(178,91,49)" stroke="rgb(142,72,39)" stroke-width="1" opacity="0.75" />
			</g>
		</g>
	</g>
</svg>
