<svg version="1.1" baseProfile="full" xmlns="http://www.w3.org/2000/svg" width="440.56666666666666" height="80">
	<g>
		<line x1="10" y1="40.0" x2="430.56666666666666" y2="40.0" style="stroke:rgb(70,70,70); stroke-width:3 "/>
		<g>
			<title> (ctg2643_1)</title>
			<polygon class=" (ctg2643_1)" points="10,25 29,25 29,10 59,40 29,70 29,55 10,55" fill="rgb(255,255,255)" fill-opacity="1.0" stroke="rgb(0,0,0)" stroke-width="2"  />
			<g>
				<title>Carboxyl_trans (PF01039)
"Carboxyl transferase domain"</title>
				<polygon class="PF01039" points="10,28 43,28 55,40 43,52 10,52" stroke-linejoin="round" width="48" height="24" fill="rgb(180,136,60)" stroke="rgb(144,108,48)" stroke-width="1" opacity="0.75" />
			</g>
		</g>
		<g>
			<title> (ctg2643_2)</title>
			<polygon class=" (ctg2643_2)" points="61,25 66,25 66,10 96,40 66,70 66,55 61,55" fill="rgb(255,255,255)" fill-opacity="1.0" stroke="rgb(0,0,0)" stroke-width="2"  />
			<g>
				<title>SQS_PSY (PF00494)
"Squalene/phytoene synthase"</title>
				<polygon class="PF00494" points="63,28 80,28 91,39 91,41 80,52 63,52" stroke-linejoin="round" width="28" height="24" fill="rgb(178,91,49)" stroke="rgb(142,72,39)" stroke-width="1" opacity="0.75" />
			</g>
		</g>
		<g>
			<title> (ctg2643_3)</title>
			<polygon class=" (ctg2643_3)" points="143,25 126,25 126,10 96,40 126,70 126,55 143,55" fill="rgb(255,255,255)" fill-opacity="1.0" stroke="rgb(0,0,0)" stroke-width="2"  />
			<g>
				<title>Aldedh (PF00171)
"Aldehyde dehydrogenase family"</title>
				<polygon class="PF00171" points="100,40 112,28 141,28 141,52 112,52" stroke-linejoin="round" width="45" height="24" fill="rgb(105,213,139)" stroke="rgb(84,170,111)" stroke-width="1" opacity="0.75" />
			</g>
		</g>
		<g>
			<title> (ctg2643_4)</title>
			<polygon class=" (ctg2643_4)" points="149,40 166,10 166,70" fill="rgb(255,255,255)" fill-opacity="1.0" stroke="rgb(0,0,0)" stroke-width="2"  />
			<g>
				<title>Glyoxalase (PF00903)
"Glyoxalase/Bleomycin resistance protein/Dioxygenase superfamily"</title>
				<polygon class="PF00903" points="154,37 159,28 165,28 165,52 159,52 154,43" stroke-linejoin="round" width="11" height="24" fill="rgb(50,162,189)" stroke="rgb(40,129,151)" stroke-width="1" opacity="0.75" />
			</g>
		</g>
		<g>
			<title> (ctg2643_5)</title>
			<polygon class=" (ctg2643_5)" points="204,25 197,25 197,10 167,40 197,70 197,55 204,55" fill="rgb(255,255,255)" fill-opacity="1.0" stroke="rgb(0,0,0)" stroke-width="2"  />
			<g>
				<title>Beta-lactamase (PF00144)
"Beta-lactamase"</title>
				<polygon class="PF00144" points="171,40 183,28 202,28 202,52 183,52" stroke-linejoin="round" width="35" height="24" fill="rgb(92,159,200)" stroke="rgb(73,127,160)" stroke-width="1" opacity="0.75" />
			</g>
		</g>
		<g>
			<title> (ctg2643_6)</title>
			<polygon class=" (ctg2643_6)" points="213,10 225,40 213,70" fill="rgb(255,255,255)" fill-opacity="1.0" stroke="rgb(0,0,0)" stroke-width="2"  />
		</g>
		<g>
			<title> (ctg2643_7)</title>
			<polygon class=" (ctg2643_7)" points="228,10 251,40 228,70" fill="rgb(255,255,255)" fill-opacity="1.0" stroke="rgb(0,0,0)" stroke-width="2"  />
			<g>
				<title>Uma2 (PF05685)
"Putative restriction endonuclease"</title>
				<polygon class="PF05685" points="228,28 238,28 245,37 245,43 238,52 228,52" stroke-linejoin="round" width="17" height="24" fill="rgb(123,107,219)" stroke="rgb(98,85,175)" stroke-width="1" opacity="0.75" />
			</g>
		</g>
		<g>
			<title> (ctg2643_8)</title>
			<polygon class=" (ctg2643_8)" points="252,40 272,10 272,70" fill="rgb(255,255,255)" fill-opacity="1.0" stroke="rgb(0,0,0)" stroke-width="2"  />
			<g>
				<title>DSBA (PF01323)
"DSBA-like thioredoxin domain"</title>
				<polygon class="PF01323" points="256,40 264,28 271,28 271,52 264,52" stroke-linejoin="round" width="19" height="24" fill="rgb(221,114,99)" stroke="rgb(176,91,79)" stroke-width="1" opacity="0.75" />
			</g>
		</g>
		<g>
			<title> (ctg2643_9)</title>
			<polygon class=" (ctg2643_9)" points="274,10 299,40 274,70" fill="rgb(255,255,255)" fill-opacity="1.0" stroke="rgb(0,0,0)" stroke-width="2"  />
			<g>
				<title>SIR2 (PF02146)
"Sir2 family"</title>
				<polygon class="PF02146" points="276,28 285,28 293,38 293,42 285,52 276,52" stroke-linejoin="round" width="17" height="24" fill="rgb(83,217,165)" stroke="rgb(66,173,132)" stroke-width="1" opacity="0.75" />
			</g>
		</g>
		<g>
			<title> (ctg2643_10)</title>
			<polygon class=" (ctg2643_10)" points="345,25 330,25 330,10 300,40 330,70 330,55 345,55" fill="rgb(255,255,255)" fill-opacity="1.0" stroke="rgb(0,0,0)" stroke-width="2"  />
			<g>
				<title>VWA_CoxE (PF05762)
"VWA domain containing CoxE-like protein"</title>
				<polygon class="PF05762" points="304,40 316,28 322,28 322,52 316,52" stroke-linejoin="round" width="21" height="24" fill="rgb(222,87,201)" stroke="rgb(177,69,160)" stroke-width="1" opacity="0.75" />
			</g>
		</g>
		<g>
			<title> (ctg2643_11)</title>
			<polygon class=" (ctg2643_11)" points="347,10 373,40 347,70" fill="rgb(255,255,255)" fill-opacity="1.0" stroke="rgb(0,0,0)" stroke-width="2"  />
			<g>
				<title>APH (PF01636)
"Phosphotransferase enzyme family"</title>
				<polygon class="PF01636" points="348,28 359,28 369,40 369,40 359,52 348,52" stroke-linejoin="round" width="21" height="24" fill="rgb(106,220,228)" stroke="rgb(84,176,182)" stroke-width="1" opacity="0.75" />
			</g>
		</g>
		<g>
			<title> (ctg2643_12)</title>
			<polygon class=" (ctg2643_12)" points="372,40 389,10 389,70" fill="rgb(255,255,255)" fill-opacity="1.0" stroke="rgb(0,0,0)" stroke-width="2"  />
			<g>
				<title>AAA_28 (PF13521)
"AAA domain"</title>
				<polygon class="PF13521" points="375,40 382,28 388,28 388,52 382,52" stroke-linejoin="round" width="15" height="24" fill="rgb(64,192,136)" stroke="rgb(51,153,108)" stroke-width="1" opacity="0.75" />
			</g>
		</g>
		<g>
			<title> (ctg2643_13)</title>
			<polygon class=" (ctg2643_13)" points="392,10 418,40 392,70" fill="rgb(255,255,255)" fill-opacity="1.0" stroke="rgb(0,0,0)" stroke-width="2"  />
		</g>
	</g>
</svg>
