<svg version="1.1" baseProfile="full" xmlns="http://www.w3.org/2000/svg" width="362.23333333333335" height="80">
	<g>
		<line x1="10" y1="40.0" x2="352.23333333333335" y2="40.0" style="stroke:rgb(70,70,70); stroke-width:3 "/>
		<g>
			<title> (ctg232_44)</title>
			<polygon class=" (ctg232_44)" points="23,40 38,10 38,70" fill="rgb(255,255,255)" fill-opacity="1.0" stroke="rgb(0,0,0)" stroke-width="2"  />
		</g>
		<g>
			<title> (ctg232_45)</title>
			<polygon class=" (ctg232_45)" points="44,40 69,10 69,70" fill="rgb(255,255,255)" fill-opacity="1.0" stroke="rgb(0,0,0)" stroke-width="2"  />
			<g>
				<title>adh_short_C2 (PF13561)
"Enoyl-(Acyl carrier protein) reductase"</title>
				<polygon class="PF13561" points="48,40 58,28 66,28 66,52 58,52" stroke-linejoin="round" width="22" height="24" fill="rgb(73,205,127)" stroke="rgb(58,164,101)" stroke-width="1" opacity="0.75" />
			</g>
		</g>
		<g>
			<title> (ctg232_46)</title>
			<polygon class=" (ctg232_46)" points="70,40 87,10 87,70" fill="rgb(255,255,255)" fill-opacity="1.0" stroke="rgb(0,0,0)" stroke-width="2"  />
		</g>
		<g>
			<title> (ctg232_47)</title>
			<polygon class=" (ctg232_47)" points="88,40 95,10 95,70" fill="rgb(255,255,255)" fill-opacity="1.0" stroke="rgb(0,0,0)" stroke-width="2"  />
		</g>
		<g>
			<title> (ctg232_48)</title>
			<polygon class=" (ctg232_48)" points="102,25 110,25 110,10 140,40 110,70 110,55 102,55" fill="rgb(255,255,255)" fill-opacity="1.0" stroke="rgb(0,0,0)" stroke-width="2"  />
			<g>
				<title>Beta-lactamase (PF00144)
"Beta-lactamase"</title>
				<polygon class="PF00144" points="103,28 123,28 135,40 123,52 103,52" stroke-linejoin="round" width="35" height="24" fill="rgb(92,159,200)" stroke="rgb(73,127,160)" stroke-width="1" opacity="0.75" />
			</g>
		</g>
		<g>
			<title> (ctg232_49)</title>
			<polygon class=" (ctg232_49)" points="144,40 164,10 164,70" fill="rgb(255,255,255)" fill-opacity="1.0" stroke="rgb(0,0,0)" stroke-width="2"  />
			<g>
				<title>Methyltransf_25 (PF13649)
"Methyltransferase domain"</title>
				<polygon class="PF13649" points="152,34 156,28 161,28 161,52 156,52 152,46" stroke-linejoin="round" width="9" height="24" fill="rgb(227,135,74)" stroke="rgb(181,108,59)" stroke-width="1" opacity="0.75" />
			</g>
		</g>
		<g>
			<title> (ctg232_50)</title>
			<polygon class=" (ctg232_50)" points="176,40 184,10 184,70" fill="rgb(255,255,255)" fill-opacity="1.0" stroke="rgb(0,0,0)" stroke-width="2"  />
		</g>
		<g>
			<title> (ctg232_51)</title>
			<polygon class=" (ctg232_51)" points="185,40 206,10 206,70" fill="rgb(255,255,255)" fill-opacity="1.0" stroke="rgb(0,0,0)" stroke-width="2"  />
			<g>
				<title>ABC_tran (PF00005)
"ABC transporter"</title>
				<polygon class="PF00005" points="189,40 192,36 192,44" stroke-linejoin="round" width="6" height="24" fill="rgb(129,201,63)" stroke="rgb(103,160,50)" stroke-width="1" opacity="0.75" />
			</g>
		</g>
		<g>
			<title> (ctg232_52)</title>
			<polygon class=" (ctg232_52)" points="206,40 228,10 228,70" fill="rgb(255,255,255)" fill-opacity="1.0" stroke="rgb(0,0,0)" stroke-width="2"  />
		</g>
		<g>
			<title> (ctg232_53)</title>
			<polygon class=" (ctg232_53)" points="243,25 248,25 248,10 278,40 248,70 248,55 243,55" fill="rgb(255,255,255)" fill-opacity="1.0" stroke="rgb(0,0,0)" stroke-width="2"  />
		</g>
	</g>
</svg>
