<svg version="1.1" baseProfile="full" xmlns="http://www.w3.org/2000/svg" width="525.7333333333333" height="80">
	<g>
		<line x1="10" y1="40.0" x2="515.7333333333333" y2="40.0" style="stroke:rgb(70,70,70); stroke-width:3 "/>
		<g>
			<title> (ctg3645_1)</title>
			<polygon class=" (ctg3645_1)" points="13,40 16,10 16,70" fill="rgb(255,255,255)" fill-opacity="1.0" stroke="rgb(0,0,0)" stroke-width="2"  />
		</g>
		<g>
			<title> (ctg3645_2)</title>
			<polygon class=" (ctg3645_2)" points="21,10 39,40 21,70" fill="rgb(255,255,255)" fill-opacity="1.0" stroke="rgb(0,0,0)" stroke-width="2"  />
			<g>
				<title>AbiEi_4 (PF13338)
"Transcriptional regulator, AbiEi antitoxin"</title>
				<rect class="PF13338" x="21" y="28" stroke-linejoin="round" width="3" height="24" fill="rgb(77,192,162)" stroke="rgb(61,153,129)" stroke-width="1" opacity="0.75" />
			</g>
		</g>
		<g>
			<title> (ctg3645_3)</title>
			<polygon class=" (ctg3645_3)" points="39,25 39,25 39,10 69,40 39,70 39,55 39,55" fill="rgb(255,255,255)" fill-opacity="1.0" stroke="rgb(0,0,0)" stroke-width="2"  />
			<g>
				<title>AbiEii (PF08843)
"Nucleotidyl transferase AbiEii toxin, Type IV TA system"</title>
				<polygon class="PF08843" points="42,28 53,28 65,40 53,52 42,52" stroke-linejoin="round" width="24" height="24" fill="rgb(179,218,98)" stroke="rgb(143,174,78)" stroke-width="1" opacity="0.75" />
			</g>
		</g>
		<g>
			<title> (ctg3645_4)</title>
			<polygon class=" (ctg3645_4)" points="75,25 141,25 141,10 171,40 141,70 141,55 75,55" fill="rgb(255,255,255)" fill-opacity="1.0" stroke="rgb(0,0,0)" stroke-width="2"  />
			<g>
				<title>PP-binding (PF00550)
"Phosphopantetheine attachment site"</title>
				<rect class="PF00550" x="77" y="28" stroke-linejoin="round" width="6" height="24" fill="rgb(103,191,88)" stroke="rgb(82,152,70)" stroke-width="1" opacity="0.75" />
			</g>
			<g>
				<title>AMP-binding (PF00501)
"AMP-binding enzyme"</title>
				<rect class="PF00501" x="87" y="28" stroke-linejoin="round" width="44" height="24" fill="rgb(60,217,223)" stroke="rgb(48,173,178)" stroke-width="1" opacity="0.75" />
			</g>
			<g>
				<title>Acyltransferase (PF01553)
"Acyltransferase"</title>
				<polygon class="PF01553" points="150,28 154,28 162,36 162,44 154,52 150,52" stroke-linejoin="round" width="12" height="24" fill="rgb(87,176,216)" stroke="rgb(69,140,172)" stroke-width="1" opacity="0.75" />
			</g>
		</g>
		<g>
			<title> (ctg3645_5)</title>
			<polygon class=" (ctg3645_5)" points="215,25 208,25 208,10 178,40 208,70 208,55 215,55" fill="rgb(255,255,255)" fill-opacity="1.0" stroke="rgb(0,0,0)" stroke-width="2"  />
			<g>
				<title>TOBE_2 (PF08402)
"TOBE domain"</title>
				<polygon class="PF08402" points="182,40 187,35 187,45" stroke-linejoin="round" width="7" height="24" fill="rgb(70,123,193)" stroke="rgb(56,98,154)" stroke-width="1" opacity="0.75" />
			</g>
			<g>
				<title>ABC_tran (PF00005)
"ABC transporter"</title>
				<rect class="PF00005" x="198" y="28" stroke-linejoin="round" width="14" height="24" fill="rgb(129,201,63)" stroke="rgb(103,160,50)" stroke-width="1" opacity="0.75" />
			</g>
		</g>
		<g>
			<title> (ctg3645_6)</title>
			<polygon class=" (ctg3645_6)" points="216,40 244,10 244,70" fill="rgb(255,255,255)" fill-opacity="1.0" stroke="rgb(0,0,0)" stroke-width="2"  />
			<g>
				<title>BPD_transp_1 (PF00528)
"Binding-protein-dependent transport system inner membrane component"</title>
				<polygon class="PF00528" points="220,40 231,28 234,28 234,52 231,52" stroke-linejoin="round" width="18" height="24" fill="rgb(77,208,225)" stroke="rgb(61,166,180)" stroke-width="1" opacity="0.75" />
			</g>
		</g>
		<g>
			<title> (ctg3645_7)</title>
			<polygon class=" (ctg3645_7)" points="244,40 273,10 273,70" fill="rgb(255,255,255)" fill-opacity="1.0" stroke="rgb(0,0,0)" stroke-width="2"  />
			<g>
				<title>BPD_transp_1 (PF00528)
"Binding-protein-dependent transport system inner membrane component"</title>
				<polygon class="PF00528" points="248,40 260,28 264,28 264,52 260,52" stroke-linejoin="round" width="20" height="24" fill="rgb(77,208,225)" stroke="rgb(61,166,180)" stroke-width="1" opacity="0.75" />
			</g>
		</g>
		<g>
			<title> (ctg3645_8)</title>
			<polygon class=" (ctg3645_8)" points="318,25 306,25 306,10 276,40 306,70 306,55 318,55" fill="rgb(255,255,255)" fill-opacity="1.0" stroke="rgb(0,0,0)" stroke-width="2"  />
			<g>
				<title>SBP_bac_1 (PF01547)
"Bacterial extracellular solute-binding protein"</title>
				<polygon class="PF01547" points="284,36 292,28 313,28 313,52 292,52 284,44" stroke-linejoin="round" width="29" height="24" fill="rgb(195,119,75)" stroke="rgb(156,95,60)" stroke-width="1" opacity="0.75" />
			</g>
		</g>
		<g>
			<title> (ctg3645_9)</title>
			<polygon class=" (ctg3645_9)" points="338,10 353,40 338,70" fill="rgb(255,255,255)" fill-opacity="1.0" stroke="rgb(0,0,0)" stroke-width="2"  />
			<g>
				<title>HTH_17 (PF12728)
"Helix-turn-helix domain"</title>
				<polygon class="PF12728" points="345,31 349,39 349,41 345,49" stroke-linejoin="round" width="4" height="24" fill="rgb(179,100,76)" stroke="rgb(143,80,60)" stroke-width="1" opacity="0.75" />
			</g>
		</g>
		<g>
			<title> (ctg3645_10)</title>
			<polygon class=" (ctg3645_10)" points="367,40 375,10 375,70" fill="rgb(255,255,255)" fill-opacity="1.0" stroke="rgb(0,0,0)" stroke-width="2"  />
		</g>
		<g>
			<title> (ctg3645_11)</title>
			<polygon class=" (ctg3645_11)" points="391,25 391,25 391,10 421,40 391,70 391,55 391,55" fill="rgb(255,255,255)" fill-opacity="1.0" stroke="rgb(0,0,0)" stroke-width="2"  />
		</g>
		<g>
			<title> (ctg3645_12)</title>
			<polygon class=" (ctg3645_12)" points="494,25 477,25 477,10 447,40 477,70 477,55 494,55" fill="rgb(255,255,255)" fill-opacity="1.0" stroke="rgb(0,0,0)" stroke-width="2"  />
			<g>
				<title>DNA_processg_A (PF02481)
"DNA recombination-mediator protein A"</title>
				<rect class="PF02481" x="465" y="28" stroke-linejoin="round" width="20" height="24" fill="rgb(72,189,53)" stroke="rgb(57,151,42)" stroke-width="1" opacity="0.75" />
			</g>
		</g>
		<g>
			<title> (ctg3645_13)</title>
			<polygon class=" (ctg3645_13)" points="494,40 512,10 512,70" fill="rgb(255,255,255)" fill-opacity="1.0" stroke="rgb(0,0,0)" stroke-width="2"  />
		</g>
	</g>
</svg>
