<svg version="1.1" baseProfile="full" xmlns="http://www.w3.org/2000/svg" width="1388.5333333333333" height="80">
	<g>
		<line x1="10" y1="40.0" x2="1378.5333333333333" y2="40.0" style="stroke:rgb(70,70,70); stroke-width:3 "/>
		<g>
			<title> (ctg426_24)</title>
			<polygon class=" (ctg426_24)" points="93,25 59,25 59,10 29,40 59,70 59,55 93,55" fill="rgb(255,255,255)" fill-opacity="1.0" stroke="rgb(0,0,0)" stroke-width="2"  />
			<g>
				<title>SelB-wing_3 (PF09107)
"Elongation factor SelB, winged helix"</title>
				<polygon class="PF09107" points="33,40 33,40 33,40" stroke-linejoin="round" width="4" height="24" fill="rgb(77,192,121)" stroke="rgb(61,153,96)" stroke-width="1" opacity="0.75" />
			</g>
			<g>
				<title>SelB-wing_2 (PF09106)
"Elongation factor SelB, winged helix"</title>
				<polygon class="PF09106" points="42,31 45,28 47,28 47,52 45,52 42,49" stroke-linejoin="round" width="5" height="24" fill="rgb(109,178,72)" stroke="rgb(87,142,57)" stroke-width="1" opacity="0.75" />
			</g>
			<g>
				<title>GTP_EFTU_D2 (PF03144)
"Elongation factor Tu domain 2"</title>
				<rect class="PF03144" x="66" y="28" stroke-linejoin="round" width="6" height="24" fill="rgb(69,184,189)" stroke="rgb(55,147,151)" stroke-width="1" opacity="0.75" />
			</g>
			<g>
				<title>GTP_EFTU (PF00009)
"Elongation factor Tu GTP binding domain"</title>
				<rect class="PF00009" x="76" y="28" stroke-linejoin="round" width="16" height="24" fill="rgb(196,118,83)" stroke="rgb(156,94,66)" stroke-width="1" opacity="0.75" />
			</g>
		</g>
		<g>
			<title> (ctg426_25)</title>
			<polygon class=" (ctg426_25)" points="103,25 117,25 117,10 147,40 117,70 117,55 103,55" fill="rgb(255,255,255)" fill-opacity="1.0" stroke="rgb(0,0,0)" stroke-width="2"  />
			<g>
				<title>SRP54_N (PF02881)
"SRP54-type protein, helical bundle domain"</title>
				<rect class="PF02881" x="103" y="28" stroke-linejoin="round" width="7" height="24" fill="rgb(179,66,186)" stroke="rgb(143,52,148)" stroke-width="1" opacity="0.75" />
			</g>
			<g>
				<title>SRP54 (PF00448)
"SRP54-type protein, GTPase domain"</title>
				<polygon class="PF00448" points="113,28 131,28 132,29 132,51 131,52 113,52" stroke-linejoin="round" width="19" height="24" fill="rgb(107,219,168)" stroke="rgb(85,175,134)" stroke-width="1" opacity="0.75" />
			</g>
			<g>
				<title>SRP_SPB (PF02978)
"Signal peptide binding domain"</title>
				<polygon class="PF02978" points="135,32 143,40 135,48" stroke-linejoin="round" width="9" height="24" fill="rgb(109,179,74)" stroke="rgb(87,143,59)" stroke-width="1" opacity="0.75" />
			</g>
		</g>
		<g>
			<title> (ctg426_26)</title>
			<polygon class=" (ctg426_26)" points="166,10 173,40 166,70" fill="rgb(255,255,255)" fill-opacity="1.0" stroke="rgb(0,0,0)" stroke-width="2"  />
			<g>
				<title>KH_4 (PF13083)
"KH domain"</title>
				<polygon class="PF13083" points="166,28 167,28 170,40 167,52 166,52" stroke-linejoin="round" width="7" height="24" fill="rgb(210,54,170)" stroke="rgb(168,43,136)" stroke-width="1" opacity="0.75" />
			</g>
		</g>
		<g>
			<title> (ctg426_27)</title>
			<polygon class=" (ctg426_27)" points="173,10 190,40 173,70" fill="rgb(255,255,255)" fill-opacity="1.0" stroke="rgb(0,0,0)" stroke-width="2"  />
			<g>
				<title>RimM (PF01782)
"RimM N-terminal domain"</title>
				<polygon class="PF01782" points="173,28 179,28 181,30 181,50 179,52 173,52" stroke-linejoin="round" width="8" height="24" fill="rgb(203,57,98)" stroke="rgb(162,45,78)" stroke-width="1" opacity="0.75" />
			</g>
		</g>
		<g>
			<title> (ctg426_28)</title>
			<polygon class=" (ctg426_28)" points="193,10 216,40 193,70" fill="rgb(255,255,255)" fill-opacity="1.0" stroke="rgb(0,0,0)" stroke-width="2"  />
			<g>
				<title>tRNA_m1G_MT (PF01746)
"tRNA (Guanine-1)-methyltransferase"</title>
				<polygon class="PF01746" points="195,28 203,28 212,40 203,52 195,52" stroke-linejoin="round" width="19" height="24" fill="rgb(69,212,172)" stroke="rgb(55,169,137)" stroke-width="1" opacity="0.75" />
			</g>
		</g>
		<g>
			<title> (ctg426_29)</title>
			<polygon class=" (ctg426_29)" points="216,10 227,40 216,70" fill="rgb(255,255,255)" fill-opacity="1.0" stroke="rgb(0,0,0)" stroke-width="2"  />
			<g>
				<title>Ribosomal_L19 (PF01245)
"Ribosomal protein L19"</title>
				<polygon class="PF01245" points="216,28 219,28 224,40 219,52 216,52" stroke-linejoin="round" width="11" height="24" fill="rgb(108,217,162)" stroke="rgb(86,173,129)" stroke-width="1" opacity="0.75" />
			</g>
		</g>
		<g>
			<title> (ctg426_30)</title>
			<polygon class=" (ctg426_30)" points="235,10 243,40 235,70" fill="rgb(255,255,255)" fill-opacity="1.0" stroke="rgb(0,0,0)" stroke-width="2"  />
		</g>
		<g>
			<title> (ctg426_31)</title>
			<polygon class=" (ctg426_31)" points="242,10 263,40 242,70" fill="rgb(255,255,255)" fill-opacity="1.0" stroke="rgb(0,0,0)" stroke-width="2"  />
			<g>
				<title>TMP-TENI (PF02581)
"Thiamine monophosphate synthase"</title>
				<polygon class="PF02581" points="243,28 251,28 259,40 251,52 243,52" stroke-linejoin="round" width="18" height="24" fill="rgb(198,51,163)" stroke="rgb(158,40,130)" stroke-width="1" opacity="0.75" />
			</g>
		</g>
		<g>
			<title> (ctg426_32)</title>
			<polygon class=" (ctg426_32)" points="300,25 295,25 295,10 265,40 295,70 295,55 300,55" fill="rgb(255,255,255)" fill-opacity="1.0" stroke="rgb(0,0,0)" stroke-width="2"  />
		</g>
		<g>
			<title> (ctg426_33)</title>
			<polygon class=" (ctg426_33)" points="368,25 331,25 331,10 301,40 331,70 331,55 368,55" fill="rgb(255,255,255)" fill-opacity="1.0" stroke="rgb(0,0,0)" stroke-width="2"  />
			<g>
				<title>DALR_1 (PF05746)
"DALR anticodon binding domain"</title>
				<polygon class="PF05746" points="305,40 312,33 312,47" stroke-linejoin="round" width="11" height="24" fill="rgb(90,223,221)" stroke="rgb(72,178,176)" stroke-width="1" opacity="0.75" />
			</g>
			<g>
				<title>tRNA-synt_1d (PF00750)
"tRNA synthetases class I (R)"</title>
				<rect class="PF00750" x="333" y="28" stroke-linejoin="round" width="25" height="24" fill="rgb(60,180,158)" stroke="rgb(48,144,126)" stroke-width="1" opacity="0.75" />
			</g>
			<g>
				<title>Arg_tRNA_synt_N (PF03485)
"Arginyl tRNA synthetase N terminal domain"</title>
				<rect class="PF03485" x="359" y="28" stroke-linejoin="round" width="8" height="24" fill="rgb(123,182,87)" stroke="rgb(98,145,69)" stroke-width="1" opacity="0.75" />
			</g>
		</g>
		<g>
			<title> (ctg426_34)</title>
			<polygon class=" (ctg426_34)" points="374,25 384,25 384,10 414,40 384,70 384,55 374,55" fill="rgb(255,255,255)" fill-opacity="1.0" stroke="rgb(0,0,0)" stroke-width="2"  />
			<g>
				<title>DUF111 (PF01969)
"Protein of unknown function DUF111"</title>
				<polygon class="PF01969" points="375,28 398,28 410,40 398,52 375,52" stroke-linejoin="round" width="38" height="24" fill="rgb(171,97,208)" stroke="rgb(136,77,166)" stroke-width="1" opacity="0.75" />
			</g>
		</g>
		<g>
			<title> (ctg426_35)</title>
			<polygon class=" (ctg426_35)" points="415,25 449,25 449,10 479,40 449,70 449,55 415,55" fill="rgb(255,255,255)" fill-opacity="1.0" stroke="rgb(0,0,0)" stroke-width="2"  />
			<g>
				<title>tRNA-synt_1g (PF09334)
"tRNA synthetases class I (M)"</title>
				<rect class="PF09334" x="415" y="28" stroke-linejoin="round" width="14" height="24" fill="rgb(105,223,202)" stroke="rgb(84,178,161)" stroke-width="1" opacity="0.75" />
			</g>
			<g>
				<title>tRNA-synt_1g (PF09334)
"tRNA synthetases class I (M)"</title>
				<rect class="PF09334" x="428" y="28" stroke-linejoin="round" width="22" height="24" fill="rgb(105,223,202)" stroke="rgb(84,178,161)" stroke-width="1" opacity="0.75" />
			</g>
			<g>
				<title>tRNA_bind (PF01588)
"Putative tRNA binding domain"</title>
				<polygon class="PF01588" points="469,34 475,40 469,46" stroke-linejoin="round" width="9" height="24" fill="rgb(192,51,118)" stroke="rgb(153,40,94)" stroke-width="1" opacity="0.75" />
			</g>
		</g>
		<g>
			<title> (ctg426_36)</title>
			<polygon class=" (ctg426_36)" points="480,10 507,40 480,70" fill="rgb(255,255,255)" fill-opacity="1.0" stroke="rgb(0,0,0)" stroke-width="2"  />
			<g>
				<title>TatD_DNase (PF01026)
"TatD related DNase"</title>
				<polygon class="PF01026" points="480,28 491,28 503,40 491,52 480,52" stroke-linejoin="round" width="25" height="24" fill="rgb(91,81,210)" stroke="rgb(72,64,168)" stroke-width="1" opacity="0.75" />
			</g>
		</g>
		<g>
			<title> (ctg426_37)</title>
			<polygon class=" (ctg426_37)" points="509,25 512,25 512,10 542,40 512,70 512,55 509,55" fill="rgb(255,255,255)" fill-opacity="1.0" stroke="rgb(0,0,0)" stroke-width="2"  />
			<g>
				<title>polyprenyl_synt (PF00348)
"Polyprenyl synthetase"</title>
				<polygon class="PF00348" points="512,28 526,28 536,38 536,42 526,52 512,52" stroke-linejoin="round" width="24" height="24" fill="rgb(61,206,65)" stroke="rgb(48,164,52)" stroke-width="1" opacity="0.75" />
			</g>
		</g>
		<g>
			<title> (ctg426_38)</title>
			<polygon class=" (ctg426_38)" points="625,25 577,25 577,10 547,40 577,70 577,55 625,55" fill="rgb(255,255,255)" fill-opacity="1.0" stroke="rgb(0,0,0)" stroke-width="2"  />
			<g>
				<title>Transpeptidase (PF00905)
"Penicillin binding protein transpeptidase domain"</title>
				<polygon class="PF00905" points="554,37 563,28 581,28 581,52 563,52 554,43" stroke-linejoin="round" width="27" height="24" fill="rgb(161,226,87)" stroke="rgb(128,180,69)" stroke-width="1" opacity="0.75" />
			</g>
			<g>
				<title>Transgly (PF00912)
"Transglycosylase"</title>
				<rect class="PF00912" x="600" y="28" stroke-linejoin="round" width="17" height="24" fill="rgb(172,107,216)" stroke="rgb(137,85,172)" stroke-width="1" opacity="0.75" />
			</g>
		</g>
		<g>
			<title> (ctg426_39)</title>
			<polygon class=" (ctg426_39)" points="636,25 645,25 645,10 675,40 645,70 645,55 636,55" fill="rgb(255,255,255)" fill-opacity="1.0" stroke="rgb(0,0,0)" stroke-width="2"  />
			<g>
				<title>BNR_2 (PF13088)
"BNR repeat-like domain"</title>
				<polygon class="PF13088" points="650,28 658,28 670,40 658,52 650,52" stroke-linejoin="round" width="21" height="24" fill="rgb(196,211,74)" stroke="rgb(156,168,59)" stroke-width="1" opacity="0.75" />
			</g>
		</g>
		<g>
			<title> (ctg426_40)</title>
			<polygon class=" (ctg426_40)" points="676,25 681,25 681,10 711,40 681,70 681,55 676,55" fill="rgb(255,255,255)" fill-opacity="1.0" stroke="rgb(0,0,0)" stroke-width="2"  />
			<g>
				<title>Chal_sti_synt_N (PF00195)
"Chalcone and stilbene synthases, N-terminal domain"</title>
				<polygon class="PF00195" points="676,28 694,28 696,30 696,50 694,52 676,52" stroke-linejoin="round" width="20" height="24" fill="rgb(60,181,161)" stroke="rgb(47,144,128)" stroke-width="1" opacity="0.75" />
			</g>
			<g>
				<title>Chal_sti_synt_C (PF02797)
"Chalcone and stilbene synthases, C-terminal domain"</title>
				<polygon class="PF02797" points="697,31 706,40 697,49" stroke-linejoin="round" width="13" height="24" fill="rgb(139,212,63)" stroke="rgb(111,169,50)" stroke-width="1" opacity="0.75" />
			</g>
		</g>
		<g>
			<title> (ctg426_41)</title>
			<polygon class=" (ctg426_41)" points="711,10 728,40 711,70" fill="rgb(255,255,255)" fill-opacity="1.0" stroke="rgb(0,0,0)" stroke-width="2"  />
			<g>
				<title>ICMT (PF04140)
"Isoprenylcysteine carboxyl methyltransferase (ICMT) family"</title>
				<polygon class="PF04140" points="718,28 725,40 718,52" stroke-linejoin="round" width="9" height="24" fill="rgb(100,223,104)" stroke="rgb(80,178,83)" stroke-width="1" opacity="0.75" />
			</g>
		</g>
		<g>
			<title> (ctg426_42)</title>
			<polygon class=" (ctg426_42)" points="734,25 757,25 757,10 787,40 757,70 757,55 734,55" fill="rgb(255,255,255)" fill-opacity="1.0" stroke="rgb(0,0,0)" stroke-width="2"  />
			<g>
				<title>Amino_oxidase (PF01593)
"Flavin containing amine oxidoreductase"</title>
				<polygon class="PF01593" points="740,28 771,28 783,40 771,52 740,52" stroke-linejoin="round" width="46" height="24" fill="rgb(184,74,52)" stroke="rgb(147,59,41)" stroke-width="1" opacity="0.75" />
			</g>
		</g>
		<g>
			<title> (ctg426_43)</title>
			<polygon class=" (ctg426_43)" points="789,40 804,10 804,70" fill="rgb(255,255,255)" fill-opacity="1.0" stroke="rgb(0,0,0)" stroke-width="2"  />
			<g>
				<title>GreA_GreB (PF01272)
"Transcription elongation factor, GreA/GreB, C-term"</title>
				<polygon class="PF01272" points="792,40 796,32 796,48" stroke-linejoin="round" width="7" height="24" fill="rgb(196,189,58)" stroke="rgb(156,151,46)" stroke-width="1" opacity="0.75" />
			</g>
			<g>
				<title>GreA_GreB_N (PF03449)
"Transcription elongation factor, N-terminal"</title>
				<polygon class="PF03449" points="797,30 798,28 803,28 803,52 798,52 797,50" stroke-linejoin="round" width="6" height="24" fill="rgb(109,94,217)" stroke="rgb(87,75,173)" stroke-width="1" opacity="0.75" />
			</g>
		</g>
		<g>
			<title> (ctg426_44)</title>
			<polygon class=" (ctg426_44)" points="852,25 835,25 835,10 805,40 835,70 835,55 852,55" fill="rgb(255,255,255)" fill-opacity="1.0" stroke="rgb(0,0,0)" stroke-width="2"  />
			<g>
				<title>Proton_antipo_M (PF00361)
"Proton-conducting membrane transporter"</title>
				<polygon class="PF00361" points="811,38 821,28 840,28 840,52 821,52 811,42" stroke-linejoin="round" width="29" height="24" fill="rgb(54,193,132)" stroke="rgb(43,154,105)" stroke-width="1" opacity="0.75" />
			</g>
		</g>
		<g>
			<title> (ctg426_45)</title>
			<polygon class=" (ctg426_45)" points="903,25 882,25 882,10 852,40 882,70 882,55 903,55" fill="rgb(255,255,255)" fill-opacity="1.0" stroke="rgb(0,0,0)" stroke-width="2"  />
			<g>
				<title>Proton_antipo_M (PF00361)
"Proton-conducting membrane transporter"</title>
				<polygon class="PF00361" points="860,36 868,28 889,28 889,52 868,52 860,44" stroke-linejoin="round" width="29" height="24" fill="rgb(54,193,132)" stroke="rgb(43,154,105)" stroke-width="1" opacity="0.75" />
			</g>
			<g>
				<title>Oxidored_q5_N (PF01059)
"NADH-ubiquinone oxidoreductase chain 4, amino terminus"</title>
				<rect class="PF01059" x="889" y="28" stroke-linejoin="round" width="12" height="24" fill="rgb(100,201,163)" stroke="rgb(80,160,130)" stroke-width="1" opacity="0.75" />
			</g>
		</g>
		<g>
			<title> (ctg426_46)</title>
			<polygon class=" (ctg426_46)" points="967,25 933,25 933,10 903,40 933,70 933,55 967,55" fill="rgb(255,255,255)" fill-opacity="1.0" stroke="rgb(0,0,0)" stroke-width="2"  />
			<g>
				<title>Proton_antipo_M (PF00361)
"Proton-conducting membrane transporter"</title>
				<rect class="PF00361" x="924" y="28" stroke-linejoin="round" width="29" height="24" fill="rgb(54,193,132)" stroke="rgb(43,154,105)" stroke-width="1" opacity="0.75" />
			</g>
			<g>
				<title>Proton_antipo_N (PF00662)
"NADH-Ubiquinone oxidoreductase (complex I), chain 5 N-terminus"</title>
				<rect class="PF00662" x="955" y="28" stroke-linejoin="round" width="5" height="24" fill="rgb(120,87,218)" stroke="rgb(96,69,174)" stroke-width="1" opacity="0.75" />
			</g>
		</g>
		<g>
			<title> (ctg426_47)</title>
			<polygon class=" (ctg426_47)" points="968,40 978,10 978,70" fill="rgb(255,255,255)" fill-opacity="1.0" stroke="rgb(0,0,0)" stroke-width="2"  />
			<g>
				<title>Oxidored_q2 (PF00420)
"NADH-ubiquinone/plastoquinone oxidoreductase chain 4L"</title>
				<polygon class="PF00420" points="971,40 975,28 977,28 977,52 975,52" stroke-linejoin="round" width="9" height="24" fill="rgb(73,55,194)" stroke="rgb(58,44,155)" stroke-width="1" opacity="0.75" />
			</g>
		</g>
		<g>
			<title> (ctg426_48)</title>
			<polygon class=" (ctg426_48)" points="978,40 994,10 994,70" fill="rgb(255,255,255)" fill-opacity="1.0" stroke="rgb(0,0,0)" stroke-width="2"  />
			<g>
				<title>Oxidored_q3 (PF00499)
"NADH-ubiquinone/plastoquinone oxidoreductase chain 6"</title>
				<polygon class="PF00499" points="981,40 988,28 992,28 992,52 988,52" stroke-linejoin="round" width="14" height="24" fill="rgb(189,145,91)" stroke="rgb(151,116,72)" stroke-width="1" opacity="0.75" />
			</g>
		</g>
		<g>
			<title> (ctg426_49)</title>
			<polygon class=" (ctg426_49)" points="1002,10 1020,40 1002,70" fill="rgb(255,255,255)" fill-opacity="1.0" stroke="rgb(0,0,0)" stroke-width="2"  />
		</g>
		<g>
			<title> (ctg426_50)</title>
			<polygon class=" (ctg426_50)" points="1020,10 1030,40 1020,70" fill="rgb(255,255,255)" fill-opacity="1.0" stroke="rgb(0,0,0)" stroke-width="2"  />
			<g>
				<title>UPF0175 (PF03683)
"Uncharacterised protein family (UPF0175)"</title>
				<polygon class="PF03683" points="1023,28 1023,28 1027,40 1023,52 1023,52" stroke-linejoin="round" width="6" height="24" fill="rgb(219,93,167)" stroke="rgb(175,74,133)" stroke-width="1" opacity="0.75" />
			</g>
		</g>
		<g>
			<title> (ctg426_51)</title>
			<polygon class=" (ctg426_51)" points="1030,25 1066,25 1066,10 1096,40 1066,70 1066,55 1030,55" fill="rgb(255,255,255)" fill-opacity="1.0" stroke="rgb(0,0,0)" stroke-width="2"  />
			<g>
				<title>Phosphodiest (PF01663)
"Type I phosphodiesterase / nucleotide pyrophosphatase"</title>
				<rect class="PF01663" x="1032" y="28" stroke-linejoin="round" width="16" height="24" fill="rgb(178,65,158)" stroke="rgb(142,52,126)" stroke-width="1" opacity="0.75" />
			</g>
			<g>
				<title>Phosphodiest (PF01663)
"Type I phosphodiesterase / nucleotide pyrophosphatase"</title>
				<polygon class="PF01663" points="1060,28 1079,28 1088,37 1088,43 1079,52 1060,52" stroke-linejoin="round" width="28" height="24" fill="rgb(178,65,158)" stroke="rgb(142,52,126)" stroke-width="1" opacity="0.75" />
			</g>
		</g>
		<g>
			<title> (ctg426_52)</title>
			<polygon class=" (ctg426_52)" points="1096,25 1096,25 1096,10 1126,40 1096,70 1096,55 1096,55" fill="rgb(255,255,255)" fill-opacity="1.0" stroke="rgb(0,0,0)" stroke-width="2"  />
			<g>
				<title>Epimerase (PF01370)
"NAD dependent epimerase/dehydratase family"</title>
				<polygon class="PF01370" points="1096,28 1110,28 1117,35 1117,45 1110,52 1096,52" stroke-linejoin="round" width="21" height="24" fill="rgb(98,102,214)" stroke="rgb(78,81,171)" stroke-width="1" opacity="0.75" />
			</g>
		</g>
		<g>
			<title> (ctg426_53)</title>
			<polygon class=" (ctg426_53)" points="1127,25 1141,25 1141,10 1171,40 1141,70 1141,55 1127,55" fill="rgb(255,255,255)" fill-opacity="1.0" stroke="rgb(0,0,0)" stroke-width="2"  />
			<g>
				<title>DUF92 (PF01940)
"Integral membrane protein DUF92"</title>
				<polygon class="PF01940" points="1148,28 1155,28 1167,40 1155,52 1148,52" stroke-linejoin="round" width="20" height="24" fill="rgb(192,172,87)" stroke="rgb(153,137,69)" stroke-width="1" opacity="0.75" />
			</g>
		</g>
		<g>
			<title> (ctg426_54)</title>
			<polygon class=" (ctg426_54)" points="1180,25 1180,25 1180,10 1210,40 1180,70 1180,55 1180,55" fill="rgb(255,255,255)" fill-opacity="1.0" stroke="rgb(0,0,0)" stroke-width="2"  />
			<g>
				<title>UbiA (PF01040)
"UbiA prenyltransferase family"</title>
				<polygon class="PF01040" points="1182,28 1194,28 1206,40 1194,52 1182,52" stroke-linejoin="round" width="25" height="24" fill="rgb(189,57,100)" stroke="rgb(151,45,80)" stroke-width="1" opacity="0.75" />
			</g>
		</g>
		<g>
			<title> (ctg426_55)</title>
			<polygon class=" (ctg426_55)" points="1218,25 1220,25 1220,10 1250,40 1220,70 1220,55 1218,55" fill="rgb(255,255,255)" fill-opacity="1.0" stroke="rgb(0,0,0)" stroke-width="2"  />
			<g>
				<title>ThiS (PF02597)
"ThiS family"</title>
				<rect class="PF02597" x="1218" y="28" stroke-linejoin="round" width="6" height="24" fill="rgb(73,117,196)" stroke="rgb(58,93,156)" stroke-width="1" opacity="0.75" />
			</g>
			<g>
				<title>ThiG (PF05690)
"Thiazole biosynthesis protein ThiG"</title>
				<polygon class="PF05690" points="1225,28 1234,28 1246,40 1234,52 1225,52" stroke-linejoin="round" width="24" height="24" fill="rgb(215,60,203)" stroke="rgb(172,47,162)" stroke-width="1" opacity="0.75" />
			</g>
		</g>
		<g>
			<title> (ctg426_56)</title>
			<polygon class=" (ctg426_56)" points="1254,25 1260,25 1260,10 1290,40 1260,70 1260,55 1254,55" fill="rgb(255,255,255)" fill-opacity="1.0" stroke="rgb(0,0,0)" stroke-width="2"  />
			<g>
				<title>DHQ_synthase (PF01761)
"3-dehydroquinate synthase"</title>
				<polygon class="PF01761" points="1260,28 1274,28 1285,39 1285,41 1274,52 1260,52" stroke-linejoin="round" width="25" height="24" fill="rgb(150,62,180)" stroke="rgb(120,49,144)" stroke-width="1" opacity="0.75" />
			</g>
		</g>
		<g>
			<title> (ctg426_57)</title>
			<polygon class=" (ctg426_57)" points="1292,10 1316,40 1292,70" fill="rgb(255,255,255)" fill-opacity="1.0" stroke="rgb(0,0,0)" stroke-width="2"  />
			<g>
				<title>Ubie_methyltran (PF01209)
"ubiE/COQ5 methyltransferase family"</title>
				<polygon class="PF01209" points="1292,28 1303,28 1312,40 1303,52 1292,52" stroke-linejoin="round" width="23" height="24" fill="rgb(90,83,226)" stroke="rgb(72,66,180)" stroke-width="1" opacity="0.75" />
			</g>
		</g>
		<g>
			<title> (ctg426_58)</title>
			<polygon class=" (ctg426_58)" points="1358,25 1347,25 1347,10 1317,40 1347,70 1347,55 1358,55" fill="rgb(255,255,255)" fill-opacity="1.0" stroke="rgb(0,0,0)" stroke-width="2"  />
		</g>
	</g>
</svg>
