<svg version="1.1" baseProfile="full" xmlns="http://www.w3.org/2000/svg" width="594.0" height="80">
	<g>
		<line x1="10" y1="40.0" x2="584.0" y2="40.0" style="stroke:rgb(70,70,70); stroke-width:3 "/>
		<g>
			<title> (ctg2946_1)</title>
			<polygon class=" (ctg2946_1)" points="10,10 26,40 10,70" fill="rgb(255,255,255)" fill-opacity="1.0" stroke="rgb(0,0,0)" stroke-width="2"  />
			<g>
				<title>FGGY_C (PF02782)
"FGGY family of carbohydrate kinases, C-terminal domain"</title>
				<polygon class="PF02782" points="10,28 16,28 22,38 22,42 16,52 10,52" stroke-linejoin="round" width="12" height="24" fill="rgb(204,103,85)" stroke="rgb(163,82,68)" stroke-width="1" opacity="0.75" />
			</g>
		</g>
		<g>
			<title> (ctg2946_2)</title>
			<polygon class=" (ctg2946_2)" points="56,25 56,25 56,10 26,40 56,70 56,55 56,55" fill="rgb(255,255,255)" fill-opacity="1.0" stroke="rgb(0,0,0)" stroke-width="2"  />
			<g>
				<title>polyprenyl_synt (PF00348)
"Polyprenyl synthetase"</title>
				<polygon class="PF00348" points="30,40 42,28 52,28 52,52 42,52" stroke-linejoin="round" width="24" height="24" fill="rgb(61,206,65)" stroke="rgb(48,164,52)" stroke-width="1" opacity="0.75" />
			</g>
		</g>
		<g>
			<title> (ctg2946_3)</title>
			<polygon class=" (ctg2946_3)" points="56,40 64,10 64,70" fill="rgb(255,255,255)" fill-opacity="1.0" stroke="rgb(0,0,0)" stroke-width="2"  />
			<g>
				<title>Exonuc_VII_S (PF02609)
"Exonuclease VII small subunit"</title>
				<polygon class="PF02609" points="59,40 62,28 63,28 63,52 62,52" stroke-linejoin="round" width="5" height="24" fill="rgb(127,67,194)" stroke="rgb(101,53,155)" stroke-width="1" opacity="0.75" />
			</g>
		</g>
		<g>
			<title> (ctg2946_4)</title>
			<polygon class=" (ctg2946_4)" points="67,40 75,10 75,70" fill="rgb(255,255,255)" fill-opacity="1.0" stroke="rgb(0,0,0)" stroke-width="2"  />
		</g>
		<g>
			<title> (ctg2946_5)</title>
			<polygon class=" (ctg2946_5)" points="77,10 99,40 77,70" fill="rgb(255,255,255)" fill-opacity="1.0" stroke="rgb(0,0,0)" stroke-width="2"  />
			<g>
				<title>Lysine_decarbox (PF03641)
"Possible lysine decarboxylase"</title>
				<polygon class="PF03641" points="85,28 86,28 95,40 86,52 85,52" stroke-linejoin="round" width="12" height="24" fill="rgb(87,108,220)" stroke="rgb(69,86,176)" stroke-width="1" opacity="0.75" />
			</g>
		</g>
		<g>
			<title> (ctg2946_6)</title>
			<polygon class=" (ctg2946_6)" points="147,25 130,25 130,10 100,40 130,70 130,55 147,55" fill="rgb(255,255,255)" fill-opacity="1.0" stroke="rgb(0,0,0)" stroke-width="2"  />
			<g>
				<title>Sel1 (PF08238)
"Sel1 repeat"</title>
				<polygon class="PF08238" points="109,35 112,32 112,48 109,45" stroke-linejoin="round" width="3" height="24" fill="rgb(190,55,164)" stroke="rgb(152,44,131)" stroke-width="1" opacity="0.75" />
			</g>
			<g>
				<title>Sel1 (PF08238)
"Sel1 repeat"</title>
				<polygon class="PF08238" points="113,31 116,28 116,28 116,52 116,52 113,49" stroke-linejoin="round" width="3" height="24" fill="rgb(190,55,164)" stroke="rgb(152,44,131)" stroke-width="1" opacity="0.75" />
			</g>
			<g>
				<title>Sel1 (PF08238)
"Sel1 repeat"</title>
				<polygon class="PF08238" points="116,28 116,28 119,28 119,52 116,52 116,52" stroke-linejoin="round" width="3" height="24" fill="rgb(190,55,164)" stroke="rgb(152,44,131)" stroke-width="1" opacity="0.75" />
			</g>
			<g>
				<title>Sel1 (PF08238)
"Sel1 repeat"</title>
				<rect class="PF08238" x="120" y="28" stroke-linejoin="round" width="3" height="24" fill="rgb(190,55,164)" stroke="rgb(152,44,131)" stroke-width="1" opacity="0.75" />
			</g>
			<g>
				<title>Sel1 (PF08238)
"Sel1 repeat"</title>
				<rect class="PF08238" x="123" y="28" stroke-linejoin="round" width="3" height="24" fill="rgb(190,55,164)" stroke="rgb(152,44,131)" stroke-width="1" opacity="0.75" />
			</g>
			<g>
				<title>Sel1 (PF08238)
"Sel1 repeat"</title>
				<rect class="PF08238" x="127" y="28" stroke-linejoin="round" width="2" height="24" fill="rgb(190,55,164)" stroke="rgb(152,44,131)" stroke-width="1" opacity="0.75" />
			</g>
			<g>
				<title>Sel1 (PF08238)
"Sel1 repeat"</title>
				<rect class="PF08238" x="130" y="28" stroke-linejoin="round" width="3" height="24" fill="rgb(190,55,164)" stroke="rgb(152,44,131)" stroke-width="1" opacity="0.75" />
			</g>
		</g>
		<g>
			<title> (ctg2946_7)</title>
			<polygon class=" (ctg2946_7)" points="150,10 154,40 150,70" fill="rgb(255,255,255)" fill-opacity="1.0" stroke="rgb(0,0,0)" stroke-width="2"  />
		</g>
		<g>
			<title> (ctg2946_8)</title>
			<polygon class=" (ctg2946_8)" points="160,10 176,40 160,70" fill="rgb(255,255,255)" fill-opacity="1.0" stroke="rgb(0,0,0)" stroke-width="2"  />
			<g>
				<title>NUDIX (PF00293)
"NUDIX domain"</title>
				<polygon class="PF00293" points="160,28 166,28 172,40 166,52 160,52" stroke-linejoin="round" width="13" height="24" fill="rgb(92,56,187)" stroke="rgb(73,44,149)" stroke-width="1" opacity="0.75" />
			</g>
		</g>
		<g>
			<title> (ctg2946_9)</title>
			<polygon class=" (ctg2946_9)" points="176,40 188,10 188,70" fill="rgb(255,255,255)" fill-opacity="1.0" stroke="rgb(0,0,0)" stroke-width="2"  />
			<g>
				<title>Glyoxalase (PF00903)
"Glyoxalase/Bleomycin resistance protein/Dioxygenase superfamily"</title>
				<polygon class="PF00903" points="179,40 184,28 186,28 186,52 184,52" stroke-linejoin="round" width="10" height="24" fill="rgb(50,162,189)" stroke="rgb(40,129,151)" stroke-width="1" opacity="0.75" />
			</g>
		</g>
		<g>
			<title> (ctg2946_10)</title>
			<polygon class=" (ctg2946_10)" points="188,40 213,10 213,70" fill="rgb(255,255,255)" fill-opacity="1.0" stroke="rgb(0,0,0)" stroke-width="2"  />
			<g>
				<title>SprT-like (PF10263)
"SprT-like family"</title>
				<polygon class="PF10263" points="195,36 202,28 205,28 205,52 202,52 195,44" stroke-linejoin="round" width="10" height="24" fill="rgb(211,76,66)" stroke="rgb(168,60,52)" stroke-width="1" opacity="0.75" />
			</g>
		</g>
		<g>
			<title> (ctg2946_11)</title>
			<polygon class=" (ctg2946_11)" points="214,40 232,10 232,70" fill="rgb(255,255,255)" fill-opacity="1.0" stroke="rgb(0,0,0)" stroke-width="2"  />
			<g>
				<title>HpcH_HpaI (PF03328)
"HpcH/HpaI aldolase/citrate lyase family"</title>
				<polygon class="PF03328" points="218,40 225,28 231,28 231,52 225,52" stroke-linejoin="round" width="16" height="24" fill="rgb(81,183,94)" stroke="rgb(64,146,75)" stroke-width="1" opacity="0.75" />
			</g>
		</g>
		<g>
			<title> (ctg2946_12)</title>
			<polygon class=" (ctg2946_12)" points="242,40 256,10 256,70" fill="rgb(255,255,255)" fill-opacity="1.0" stroke="rgb(0,0,0)" stroke-width="2"  />
			<g>
				<title>PIN (PF01850)
"PIN domain"</title>
				<polygon class="PF01850" points="245,40 251,28 256,28 256,52 251,52" stroke-linejoin="round" width="13" height="24" fill="rgb(91,217,126)" stroke="rgb(72,173,100)" stroke-width="1" opacity="0.75" />
			</g>
		</g>
		<g>
			<title> (ctg2946_13)</title>
			<polygon class=" (ctg2946_13)" points="256,40 264,10 264,70" fill="rgb(255,255,255)" fill-opacity="1.0" stroke="rgb(0,0,0)" stroke-width="2"  />
		</g>
		<g>
			<title> (ctg2946_14)</title>
			<polygon class=" (ctg2946_14)" points="272,25 278,25 278,10 308,40 278,70 278,55 272,55" fill="rgb(255,255,255)" fill-opacity="1.0" stroke="rgb(0,0,0)" stroke-width="2"  />
			<g>
				<title>SQS_PSY (PF00494)
"Squalene/phytoene synthase"</title>
				<polygon class="PF00494" points="276,28 291,28 303,40 303,40 291,52 276,52" stroke-linejoin="round" width="27" height="24" fill="rgb(178,91,49)" stroke="rgb(142,72,39)" stroke-width="1" opacity="0.75" />
			</g>
		</g>
		<g>
			<title> (ctg2946_15)</title>
			<polygon class=" (ctg2946_15)" points="308,10 332,40 308,70" fill="rgb(255,255,255)" fill-opacity="1.0" stroke="rgb(0,0,0)" stroke-width="2"  />
		</g>
		<g>
			<title> (ctg2946_16)</title>
			<polygon class=" (ctg2946_16)" points="414,25 368,25 368,10 338,40 368,70 368,55 414,55" fill="rgb(255,255,255)" fill-opacity="1.0" stroke="rgb(0,0,0)" stroke-width="2"  />
			<g>
				<title>TonB_dep_Rec (PF00593)
"TonB dependent receptor"</title>
				<polygon class="PF00593" points="342,40 354,28 381,28 381,52 354,52" stroke-linejoin="round" width="43" height="24" fill="rgb(171,200,51)" stroke="rgb(136,160,40)" stroke-width="1" opacity="0.75" />
			</g>
			<g>
				<title>Plug (PF07715)
"TonB-dependent Receptor Plug Domain"</title>
				<rect class="PF07715" x="399" y="28" stroke-linejoin="round" width="10" height="24" fill="rgb(99,133,214)" stroke="rgb(79,106,171)" stroke-width="1" opacity="0.75" />
			</g>
		</g>
		<g>
			<title> (ctg2946_17)</title>
			<polygon class=" (ctg2946_17)" points="417,40 424,10 424,70" fill="rgb(255,255,255)" fill-opacity="1.0" stroke="rgb(0,0,0)" stroke-width="2"  />
		</g>
		<g>
			<title> (ctg2946_18)</title>
			<polygon class=" (ctg2946_18)" points="434,10 448,40 434,70" fill="rgb(255,255,255)" fill-opacity="1.0" stroke="rgb(0,0,0)" stroke-width="2"  />
			<g>
				<title>MerC (PF03203)
"MerC mercury resistance protein"</title>
				<polygon class="PF03203" points="435,28 439,28 445,40 445,40 439,52 435,52" stroke-linejoin="round" width="10" height="24" fill="rgb(200,193,56)" stroke="rgb(160,154,44)" stroke-width="1" opacity="0.75" />
			</g>
		</g>
		<g>
			<title> (ctg2946_19)</title>
			<polygon class=" (ctg2946_19)" points="450,10 465,40 450,70" fill="rgb(255,255,255)" fill-opacity="1.0" stroke="rgb(0,0,0)" stroke-width="2"  />
			<g>
				<title>FUR (PF01475)
"Ferric uptake regulator family"</title>
				<polygon class="PF01475" points="452,28 456,28 462,40 456,52 452,52" stroke-linejoin="round" width="12" height="24" fill="rgb(167,195,50)" stroke="rgb(133,156,40)" stroke-width="1" opacity="0.75" />
			</g>
		</g>
		<g>
			<title> (ctg2946_20)</title>
			<polygon class=" (ctg2946_20)" points="512,25 497,25 497,10 467,40 497,70 497,55 512,55" fill="rgb(255,255,255)" fill-opacity="1.0" stroke="rgb(0,0,0)" stroke-width="2"  />
			<g>
				<title>Amino_oxidase (PF01593)
"Flavin containing amine oxidoreductase"</title>
				<polygon class="PF01593" points="479,32 483,28 510,28 510,52 483,52 479,48" stroke-linejoin="round" width="31" height="24" fill="rgb(184,74,52)" stroke="rgb(147,59,41)" stroke-width="1" opacity="0.75" />
			</g>
		</g>
		<g>
			<title> (ctg2946_21)</title>
			<polygon class=" (ctg2946_21)" points="583,25 544,25 544,10 514,40 544,70 544,55 583,55" fill="rgb(255,255,255)" fill-opacity="1.0" stroke="rgb(0,0,0)" stroke-width="2"  />
			<g>
				<title>SQHop_cyclase_C (PF13243)
"Squalene-hopene cyclase C-terminal domain"</title>
				<polygon class="PF13243" points="518,40 530,28 548,28 548,52 530,52" stroke-linejoin="round" width="32" height="24" fill="rgb(191,58,201)" stroke="rgb(152,46,160)" stroke-width="1" opacity="0.75" />
			</g>
			<g>
				<title>SQHop_cyclase_N (PF13249)
"Squalene-hopene cyclase N-terminal domain"</title>
				<rect class="PF13249" x="549" y="28" stroke-linejoin="round" width="29" height="24" fill="rgb(88,190,89)" stroke="rgb(70,152,71)" stroke-width="1" opacity="0.75" />
			</g>
		</g>
	</g>
</svg>
