<svg version="1.1" baseProfile="full" xmlns="http://www.w3.org/2000/svg" width="563.5333333333333" height="80">
	<g>
		<line x1="10" y1="40.0" x2="553.5333333333333" y2="40.0" style="stroke:rgb(70,70,70); stroke-width:3 "/>
		<g>
			<title> (ctg4086_1)</title>
			<polygon class=" (ctg4086_1)" points="10,25 16,25 16,10 46,40 16,70 16,55 10,55" fill="rgb(255,255,255)" fill-opacity="1.0" stroke="rgb(0,0,0)" stroke-width="2"  />
			<g>
				<title>ACR_tran (PF00873)
"AcrB/AcrD/AcrF family"</title>
				<polygon class="PF00873" points="10,28 30,28 42,40 30,52 10,52" stroke-linejoin="round" width="35" height="24" fill="rgb(63,191,60)" stroke="rgb(50,152,48)" stroke-width="1" opacity="0.75" />
			</g>
		</g>
		<g>
			<title> (ctg4086_2)</title>
			<polygon class=" (ctg4086_2)" points="52,25 67,25 67,10 97,40 67,70 67,55 52,55" fill="rgb(255,255,255)" fill-opacity="1.0" stroke="rgb(0,0,0)" stroke-width="2"  />
			<g>
				<title>OEP (PF02321)
"Outer membrane efflux protein"</title>
				<rect class="PF02321" x="55" y="28" stroke-linejoin="round" width="20" height="24" fill="rgb(205,57,201)" stroke="rgb(164,45,160)" stroke-width="1" opacity="0.75" />
			</g>
			<g>
				<title>OEP (PF02321)
"Outer membrane efflux protein"</title>
				<polygon class="PF02321" points="77,28 81,28 93,40 81,52 77,52" stroke-linejoin="round" width="19" height="24" fill="rgb(205,57,201)" stroke="rgb(164,45,160)" stroke-width="1" opacity="0.75" />
			</g>
		</g>
		<g>
			<title> (ctg4086_3)</title>
			<polygon class=" (ctg4086_3)" points="98,10 113,40 98,70" fill="rgb(255,255,255)" fill-opacity="1.0" stroke="rgb(0,0,0)" stroke-width="2"  />
		</g>
		<g>
			<title> (ctg4086_4)</title>
			<polygon class=" (ctg4086_4)" points="157,25 146,25 146,10 116,40 146,70 146,55 157,55" fill="rgb(255,255,255)" fill-opacity="1.0" stroke="rgb(0,0,0)" stroke-width="2"  />
			<g>
				<title>Glycos_transf_1 (PF00534)
"Glycosyl transferases group 1"</title>
				<polygon class="PF00534" points="120,40 132,28 134,28 134,52 132,52" stroke-linejoin="round" width="16" height="24" fill="rgb(228,92,150)" stroke="rgb(182,73,119)" stroke-width="1" opacity="0.75" />
			</g>
			<g>
				<title>Glyco_transf_4 (PF13439)
"Glycosyltransferase Family 4"</title>
				<rect class="PF13439" x="138" y="28" stroke-linejoin="round" width="17" height="24" fill="rgb(162,57,186)" stroke="rgb(129,45,148)" stroke-width="1" opacity="0.75" />
			</g>
		</g>
		<g>
			<title> (ctg4086_5)</title>
			<polygon class=" (ctg4086_5)" points="162,40 165,10 165,70" fill="rgb(255,255,255)" fill-opacity="1.0" stroke="rgb(0,0,0)" stroke-width="2"  />
		</g>
		<g>
			<title> (ctg4086_6)</title>
			<polygon class=" (ctg4086_6)" points="171,40 179,10 179,70" fill="rgb(255,255,255)" fill-opacity="1.0" stroke="rgb(0,0,0)" stroke-width="2"  />
			<g>
				<title>PqqD (PF05402)
"Coenzyme PQQ synthesis protein D (PqqD)"</title>
				<polygon class="PF05402" points="174,40 177,30 177,50" stroke-linejoin="round" width="6" height="24" fill="rgb(124,62,188)" stroke="rgb(99,49,150)" stroke-width="1" opacity="0.75" />
			</g>
		</g>
		<g>
			<title> (ctg4086_7)</title>
			<polygon class=" (ctg4086_7)" points="220,25 213,25 213,10 183,40 213,70 213,55 220,55" fill="rgb(255,255,255)" fill-opacity="1.0" stroke="rgb(0,0,0)" stroke-width="2"  />
			<g>
				<title>Epimerase (PF01370)
"NAD dependent epimerase/dehydratase family"</title>
				<polygon class="PF01370" points="190,37 199,28 215,28 215,52 199,52 190,43" stroke-linejoin="round" width="25" height="24" fill="rgb(98,102,214)" stroke="rgb(78,81,171)" stroke-width="1" opacity="0.75" />
			</g>
		</g>
		<g>
			<title> (ctg4086_8)</title>
			<polygon class=" (ctg4086_8)" points="220,40 236,10 236,70" fill="rgb(255,255,255)" fill-opacity="1.0" stroke="rgb(0,0,0)" stroke-width="2"  />
			<g>
				<title>Transglut_core3 (PF13471)
"Transglutaminase-like superfamily"</title>
				<polygon class="PF13471" points="223,40 230,28 232,28 232,52 230,52" stroke-linejoin="round" width="12" height="24" fill="rgb(63,111,179)" stroke="rgb(50,88,143)" stroke-width="1" opacity="0.75" />
			</g>
		</g>
		<g>
			<title> (ctg4086_9)</title>
			<polygon class=" (ctg4086_9)" points="300,25 268,25 268,10 238,40 268,70 268,55 300,55" fill="rgb(255,255,255)" fill-opacity="1.0" stroke="rgb(0,0,0)" stroke-width="2"  />
			<g>
				<title>Asn_synthase (PF00733)
"Asparagine synthase"</title>
				<rect class="PF00733" x="255" y="28" stroke-linejoin="round" width="20" height="24" fill="rgb(97,201,176)" stroke="rgb(77,160,140)" stroke-width="1" opacity="0.75" />
			</g>
		</g>
		<g>
			<title> (ctg4086_10)</title>
			<polygon class=" (ctg4086_10)" points="384,25 334,25 334,10 304,40 334,70 334,55 384,55" fill="rgb(255,255,255)" fill-opacity="1.0" stroke="rgb(0,0,0)" stroke-width="2"  />
			<g>
				<title>FtsX (PF02687)
"FtsX-like permease family"</title>
				<polygon class="PF02687" points="308,40 312,36 312,44" stroke-linejoin="round" width="8" height="24" fill="rgb(126,55,214)" stroke="rgb(100,44,171)" stroke-width="1" opacity="0.75" />
			</g>
			<g>
				<title>MacB_PCD (PF12704)
"MacB-like periplasmic core domain"</title>
				<polygon class="PF12704" points="319,29 320,28 339,28 339,52 320,52 319,51" stroke-linejoin="round" width="20" height="24" fill="rgb(79,76,190)" stroke="rgb(63,60,152)" stroke-width="1" opacity="0.75" />
			</g>
			<g>
				<title>FtsX (PF02687)
"FtsX-like permease family"</title>
				<rect class="PF02687" x="342" y="28" stroke-linejoin="round" width="9" height="24" fill="rgb(126,55,214)" stroke="rgb(100,44,171)" stroke-width="1" opacity="0.75" />
			</g>
			<g>
				<title>MacB_PCD (PF12704)
"MacB-like periplasmic core domain"</title>
				<rect class="PF12704" x="360" y="28" stroke-linejoin="round" width="22" height="24" fill="rgb(79,76,190)" stroke="rgb(63,60,152)" stroke-width="1" opacity="0.75" />
			</g>
		</g>
		<g>
			<title> (ctg4086_11)</title>
			<polygon class=" (ctg4086_11)" points="400,10 416,40 400,70" fill="rgb(255,255,255)" fill-opacity="1.0" stroke="rgb(0,0,0)" stroke-width="2"  />
			<g>
				<title>DUF2227 (PF09988)
"Uncharacterized metal-binding protein (DUF2227)"</title>
				<polygon class="PF09988" points="400,28 406,28 413,40 406,52 400,52" stroke-linejoin="round" width="16" height="24" fill="rgb(72,131,204)" stroke="rgb(57,104,163)" stroke-width="1" opacity="0.75" />
			</g>
		</g>
		<g>
			<title> (ctg4086_12)</title>
			<polygon class=" (ctg4086_12)" points="416,10 445,40 416,70" fill="rgb(255,255,255)" fill-opacity="1.0" stroke="rgb(0,0,0)" stroke-width="2"  />
			<g>
				<title>Peptidase_M23 (PF01551)
"Peptidase family M23"</title>
				<polygon class="PF01551" points="435,34 441,40 435,46" stroke-linejoin="round" width="9" height="24" fill="rgb(65,169,193)" stroke="rgb(51,135,154)" stroke-width="1" opacity="0.75" />
			</g>
		</g>
		<g>
			<title> (ctg4086_13)</title>
			<polygon class=" (ctg4086_13)" points="445,10 461,40 445,70" fill="rgb(255,255,255)" fill-opacity="1.0" stroke="rgb(0,0,0)" stroke-width="2"  />
			<g>
				<title>Bactofilin (PF04519)
"Polymer-forming cytoskeletal"</title>
				<polygon class="PF04519" points="447,28 451,28 456,37 456,43 451,52 447,52" stroke-linejoin="round" width="9" height="24" fill="rgb(59,104,178)" stroke="rgb(47,83,142)" stroke-width="1" opacity="0.75" />
			</g>
		</g>
		<g>
			<title> (ctg4086_14)</title>
			<polygon class=" (ctg4086_14)" points="508,25 495,25 495,10 465,40 495,70 495,55 508,55" fill="rgb(255,255,255)" fill-opacity="1.0" stroke="rgb(0,0,0)" stroke-width="2"  />
			<g>
				<title>MMR_HSR1 (PF01926)
"50S ribosome-binding GTPase"</title>
				<polygon class="PF01926" points="475,34 481,28 486,28 486,52 481,52 475,46" stroke-linejoin="round" width="11" height="24" fill="rgb(105,180,226)" stroke="rgb(83,143,180)" stroke-width="1" opacity="0.75" />
			</g>
			<g>
				<title>GTP-bdg_M (PF16360)
"GTP-binding GTPase Middle Region"</title>
				<rect class="PF16360" x="487" y="28" stroke-linejoin="round" width="8" height="24" fill="rgb(91,201,201)" stroke="rgb(72,160,160)" stroke-width="1" opacity="0.75" />
			</g>
			<g>
				<title>GTP-bdg_N (PF13167)
"GTP-binding GTPase N-terminal"</title>
				<rect class="PF13167" x="496" y="28" stroke-linejoin="round" width="8" height="24" fill="rgb(57,194,165)" stroke="rgb(45,155,132)" stroke-width="1" opacity="0.75" />
			</g>
		</g>
		<g>
			<title> (ctg4086_15)</title>
			<polygon class=" (ctg4086_15)" points="510,40 526,10 526,70" fill="rgb(255,255,255)" fill-opacity="1.0" stroke="rgb(0,0,0)" stroke-width="2"  />
			<g>
				<title>HIT (PF01230)
"HIT domain"</title>
				<polygon class="PF01230" points="514,38 520,28 523,28 523,52 520,52 514,42" stroke-linejoin="round" width="9" height="24" fill="rgb(77,81,180)" stroke="rgb(61,64,144)" stroke-width="1" opacity="0.75" />
			</g>
		</g>
		<g>
			<title> (ctg4086_16)</title>
			<polygon class=" (ctg4086_16)" points="527,40 542,10 542,70" fill="rgb(255,255,255)" fill-opacity="1.0" stroke="rgb(0,0,0)" stroke-width="2"  />
			<g>
				<title>Acetyltransf_10 (PF13673)
"Acetyltransferase (GNAT) domain"</title>
				<polygon class="PF13673" points="530,40 536,28 539,28 539,52 536,52" stroke-linejoin="round" width="12" height="24" fill="rgb(88,180,95)" stroke="rgb(70,144,76)" stroke-width="1" opacity="0.75" />
			</g>
		</g>
		<g>
			<title> (ctg4086_17)</title>
			<polygon class=" (ctg4086_17)" points="543,40 551,10 551,70" fill="rgb(255,255,255)" fill-opacity="1.0" stroke="rgb(0,0,0)" stroke-width="2"  />
			<g>
				<title>HTH_3 (PF01381)
"Helix-turn-helix"</title>
				<polygon class="PF01381" points="546,40 549,28 549,28 549,52 549,52" stroke-linejoin="round" width="5" height="24" fill="rgb(105,79,202)" stroke="rgb(83,63,161)" stroke-width="1" opacity="0.75" />
			</g>
		</g>
	</g>
</svg>
