<svg version="1.1" baseProfile="full" xmlns="http://www.w3.org/2000/svg" width="349.7" height="80">
	<g>
		<line x1="10" y1="40.0" x2="339.7" y2="40.0" style="stroke:rgb(70,70,70); stroke-width:3 "/>
		<g>
			<title> (ctg7403_1)</title>
			<polygon class=" (ctg7403_1)" points="10,40 18,10 18,70" fill="rgb(255,255,255)" fill-opacity="1.0" stroke="rgb(0,0,0)" stroke-width="2"  />
		</g>
		<g>
			<title> (ctg7403_2)</title>
			<polygon class=" (ctg7403_2)" points="54,25 50,25 50,10 20,40 50,70 50,55 54,55" fill="rgb(255,255,255)" fill-opacity="1.0" stroke="rgb(0,0,0)" stroke-width="2"  />
			<g>
				<title>Sterol_MT_C (PF08498)
"Sterol methyltransferase C-terminal"</title>
				<polygon class="PF08498" points="24,40 26,38 26,42" stroke-linejoin="round" width="6" height="24" fill="rgb(65,219,176)" stroke="rgb(52,175,140)" stroke-width="1" opacity="0.75" />
			</g>
			<g>
				<title>Methyltransf_25 (PF13649)
"Methyltransferase domain"</title>
				<polygon class="PF13649" points="35,29 36,28 44,28 44,52 36,52 35,51" stroke-linejoin="round" width="9" height="24" fill="rgb(227,135,74)" stroke="rgb(181,108,59)" stroke-width="1" opacity="0.75" />
			</g>
		</g>
		<g>
			<title> (ctg7403_3)</title>
			<polygon class=" (ctg7403_3)" points="167,25 85,25 85,10 55,40 85,70 85,55 167,55" fill="rgb(255,255,255)" fill-opacity="1.0" stroke="rgb(0,0,0)" stroke-width="2"  />
			<g>
				<title>SQHop_cyclase_C (PF13243)
"Squalene-hopene cyclase C-terminal domain"</title>
				<polygon class="PF13243" points="59,40 71,28 89,28 89,52 71,52" stroke-linejoin="round" width="32" height="24" fill="rgb(191,58,201)" stroke="rgb(152,46,160)" stroke-width="1" opacity="0.75" />
			</g>
			<g>
				<title>SQHop_cyclase_N (PF13249)
"Squalene-hopene cyclase N-terminal domain"</title>
				<rect class="PF13249" x="90" y="28" stroke-linejoin="round" width="29" height="24" fill="rgb(88,190,89)" stroke="rgb(70,152,71)" stroke-width="1" opacity="0.75" />
			</g>
			<g>
				<title>FAD_binding_3 (PF01494)
"FAD binding domain"</title>
				<rect class="PF01494" x="136" y="28" stroke-linejoin="round" width="30" height="24" fill="rgb(182,175,59)" stroke="rgb(145,140,47)" stroke-width="1" opacity="0.75" />
			</g>
		</g>
		<g>
			<title> (ctg7403_4)</title>
			<polygon class=" (ctg7403_4)" points="214,25 197,25 197,10 167,40 197,70 197,55 214,55" fill="rgb(255,255,255)" fill-opacity="1.0" stroke="rgb(0,0,0)" stroke-width="2"  />
			<g>
				<title>p450 (PF00067)
"Cytochrome P450"</title>
				<polygon class="PF00067" points="171,40 183,28 211,28 211,52 183,52" stroke-linejoin="round" width="43" height="24" fill="rgb(85,216,107)" stroke="rgb(68,172,85)" stroke-width="1" opacity="0.75" />
			</g>
		</g>
		<g>
			<title> (ctg7403_5)</title>
			<polygon class=" (ctg7403_5)" points="251,25 245,25 245,10 215,40 245,70 245,55 251,55" fill="rgb(255,255,255)" fill-opacity="1.0" stroke="rgb(0,0,0)" stroke-width="2"  />
			<g>
				<title>ERG4_ERG24 (PF01222)
"Ergosterol biosynthesis ERG4/ERG24 family"</title>
				<polygon class="PF01222" points="219,40 231,28 250,28 250,52 231,52" stroke-linejoin="round" width="35" height="24" fill="rgb(99,195,207)" stroke="rgb(79,155,165)" stroke-width="1" opacity="0.75" />
			</g>
		</g>
		<g>
			<title> (ctg7403_6)</title>
			<polygon class=" (ctg7403_6)" points="287,25 281,25 281,10 251,40 281,70 281,55 287,55" fill="rgb(255,255,255)" fill-opacity="1.0" stroke="rgb(0,0,0)" stroke-width="2"  />
			<g>
				<title>Rieske (PF00355)
"Rieske [2Fe-2S] domain"</title>
				<rect class="PF00355" x="275" y="28" stroke-linejoin="round" width="9" height="24" fill="rgb(186,77,145)" stroke="rgb(148,61,115)" stroke-width="1" opacity="0.75" />
			</g>
		</g>
		<g>
			<title> (ctg7403_7)</title>
			<polygon class=" (ctg7403_7)" points="324,25 317,25 317,10 287,40 317,70 317,55 324,55" fill="rgb(255,255,255)" fill-opacity="1.0" stroke="rgb(0,0,0)" stroke-width="2"  />
			<g>
				<title>Epimerase (PF01370)
"NAD dependent epimerase/dehydratase family"</title>
				<polygon class="PF01370" points="300,31 303,28 323,28 323,52 303,52 300,49" stroke-linejoin="round" width="23" height="24" fill="rgb(98,102,214)" stroke="rgb(78,81,171)" stroke-width="1" opacity="0.75" />
			</g>
		</g>
	</g>
</svg>
