<svg version="1.1" baseProfile="full" xmlns="http://www.w3.org/2000/svg" width="362.46666666666664" height="80">
	<g>
		<line x1="10" y1="40.0" x2="352.46666666666664" y2="40.0" style="stroke:rgb(70,70,70); stroke-width:3 "/>
		<g>
			<title> (ctg7053_1)</title>
			<polygon class=" (ctg7053_1)" points="56,25 40,25 40,10 10,40 40,70 40,55 56,55" fill="rgb(255,255,255)" fill-opacity="1.0" stroke="rgb(0,0,0)" stroke-width="2"  />
			<g>
				<title>Cpn60_TCP1 (PF00118)
"TCP-1/cpn60 chaperonin family"</title>
				<polygon class="PF00118" points="14,40 26,28 54,28 54,52 26,52" stroke-linejoin="round" width="44" height="24" fill="rgb(73,204,119)" stroke="rgb(58,163,95)" stroke-width="1" opacity="0.75" />
			</g>
		</g>
		<g>
			<title> (ctg7053_2)</title>
			<polygon class=" (ctg7053_2)" points="59,40 68,10 68,70" fill="rgb(255,255,255)" fill-opacity="1.0" stroke="rgb(0,0,0)" stroke-width="2"  />
			<g>
				<title>Cpn10 (PF00166)
"Chaperonin 10 Kd subunit"</title>
				<polygon class="PF00166" points="62,40 66,28 68,28 68,52 66,52" stroke-linejoin="round" width="9" height="24" fill="rgb(88,59,221)" stroke="rgb(70,47,176)" stroke-width="1" opacity="0.75" />
			</g>
		</g>
		<g>
			<title> (ctg7053_3)</title>
			<polygon class=" (ctg7053_3)" points="75,25 85,25 85,10 115,40 85,70 85,55 75,55" fill="rgb(255,255,255)" fill-opacity="1.0" stroke="rgb(0,0,0)" stroke-width="2"  />
			<g>
				<title>SQS_PSY (PF00494)
"Squalene/phytoene synthase"</title>
				<polygon class="PF00494" points="82,28 99,28 111,40 111,40 99,52 82,52" stroke-linejoin="round" width="29" height="24" fill="rgb(178,91,49)" stroke="rgb(142,72,39)" stroke-width="1" opacity="0.75" />
			</g>
		</g>
		<g>
			<title> (ctg7053_4)</title>
			<polygon class=" (ctg7053_4)" points="116,40 142,10 142,70" fill="rgb(255,255,255)" fill-opacity="1.0" stroke="rgb(0,0,0)" stroke-width="2"  />
			<g>
				<title>Pan_kinase (PF03309)
"Type III pantothenate kinase"</title>
				<polygon class="PF03309" points="121,39 131,28 141,28 141,52 131,52 121,41" stroke-linejoin="round" width="20" height="24" fill="rgb(184,180,48)" stroke="rgb(147,144,38)" stroke-width="1" opacity="0.75" />
			</g>
		</g>
		<g>
			<title> (ctg7053_5)</title>
			<polygon class=" (ctg7053_5)" points="143,40 172,10 172,70" fill="rgb(255,255,255)" fill-opacity="1.0" stroke="rgb(0,0,0)" stroke-width="2"  />
			<g>
				<title>BPL_LplA_LipB (PF03099)
"Biotin/lipoate A/B protein ligase family"</title>
				<polygon class="PF03099" points="156,31 159,28 168,28 168,52 159,52 156,49" stroke-linejoin="round" width="12" height="24" fill="rgb(228,147,105)" stroke="rgb(182,117,84)" stroke-width="1" opacity="0.75" />
			</g>
		</g>
		<g>
			<title> (ctg7053_6)</title>
			<polygon class=" (ctg7053_6)" points="202,25 202,25 202,10 172,40 202,70 202,55 202,55" fill="rgb(255,255,255)" fill-opacity="1.0" stroke="rgb(0,0,0)" stroke-width="2"  />
			<g>
				<title>QRPTase_C (PF01729)
"Quinolinate phosphoribosyl transferase, C-terminal domain"</title>
				<polygon class="PF01729" points="176,40 188,28 189,28 189,52 188,52" stroke-linejoin="round" width="16" height="24" fill="rgb(89,196,148)" stroke="rgb(71,156,118)" stroke-width="1" opacity="0.75" />
			</g>
			<g>
				<title>QRPTase_N (PF02749)
"Quinolinate phosphoribosyl transferase, N-terminal domain"</title>
				<rect class="PF02749" x="190" y="28" stroke-linejoin="round" width="8" height="24" fill="rgb(75,204,226)" stroke="rgb(60,163,180)" stroke-width="1" opacity="0.75" />
			</g>
		</g>
		<g>
			<title> (ctg7053_7)</title>
			<polygon class=" (ctg7053_7)" points="241,25 232,25 232,10 202,40 232,70 232,55 241,55" fill="rgb(255,255,255)" fill-opacity="1.0" stroke="rgb(0,0,0)" stroke-width="2"  />
			<g>
				<title>Glycos_transf_1 (PF00534)
"Glycosyl transferases group 1"</title>
				<polygon class="PF00534" points="206,40 218,28 220,28 220,52 218,52" stroke-linejoin="round" width="16" height="24" fill="rgb(228,92,150)" stroke="rgb(182,73,119)" stroke-width="1" opacity="0.75" />
			</g>
			<g>
				<title>Glyco_transf_4 (PF13439)
"Glycosyltransferase Family 4"</title>
				<rect class="PF13439" x="221" y="28" stroke-linejoin="round" width="16" height="24" fill="rgb(162,57,186)" stroke="rgb(129,45,148)" stroke-width="1" opacity="0.75" />
			</g>
		</g>
		<g>
			<title> (ctg7053_8)</title>
			<polygon class=" (ctg7053_8)" points="271,25 270,25 270,10 240,40 270,70 270,55 271,55" fill="rgb(255,255,255)" fill-opacity="1.0" stroke="rgb(0,0,0)" stroke-width="2"  />
			<g>
				<title>IPPT (PF01715)
"IPP transferase"</title>
				<polygon class="PF01715" points="244,40 256,28 267,28 267,52 256,52" stroke-linejoin="round" width="24" height="24" fill="rgb(211,87,157)" stroke="rgb(168,69,125)" stroke-width="1" opacity="0.75" />
			</g>
		</g>
		<g>
			<title> (ctg7053_9)</title>
			<polygon class=" (ctg7053_9)" points="331,25 301,25 301,10 271,40 301,70 301,55 331,55" fill="rgb(255,255,255)" fill-opacity="1.0" stroke="rgb(0,0,0)" stroke-width="2"  />
			<g>
				<title>MutL_C (PF08676)
"MutL C terminal dimerisation domain"</title>
				<polygon class="PF08676" points="275,40 287,28 289,28 289,52 287,52 275,40" stroke-linejoin="round" width="14" height="24" fill="rgb(206,165,100)" stroke="rgb(164,132,80)" stroke-width="1" opacity="0.75" />
			</g>
			<g>
				<title>DNA_mis_repair (PF01119)
"DNA mismatch repair protein, C-terminal domain"</title>
				<rect class="PF01119" x="298" y="28" stroke-linejoin="round" width="11" height="24" fill="rgb(124,63,207)" stroke="rgb(99,50,165)" stroke-width="1" opacity="0.75" />
			</g>
			<g>
				<title>HATPase_c_3 (PF13589)
"Histidine kinase-, DNA gyrase B-, and HSP90-like ATPase"</title>
				<rect class="PF13589" x="317" y="28" stroke-linejoin="round" width="11" height="24" fill="rgb(220,68,225)" stroke="rgb(176,54,180)" stroke-width="1" opacity="0.75" />
			</g>
		</g>
		<g>
			<title> (ctg7053_10)</title>
			<polygon class=" (ctg7053_10)" points="332,40 352,10 352,70" fill="rgb(255,255,255)" fill-opacity="1.0" stroke="rgb(0,0,0)" stroke-width="2"  />
			<g>
				<title>TatD_DNase (PF01026)
"TatD related DNase"</title>
				<polygon class="PF01026" points="336,40 344,28 351,28 351,52 344,52" stroke-linejoin="round" width="19" height="24" fill="rgb(91,81,210)" stroke="rgb(72,64,168)" stroke-width="1" opacity="0.75" />
			</g>
		</g>
	</g>
</svg>
