<svg version="1.1" baseProfile="full" xmlns="http://www.w3.org/2000/svg" width="638.9" height="80">
	<g>
		<line x1="10" y1="40.0" x2="628.9" y2="40.0" style="stroke:rgb(70,70,70); stroke-width:3 "/>
		<g>
			<title> (ctg3493_1)</title>
			<polygon class=" (ctg3493_1)" points="56,25 43,25 43,10 13,40 43,70 43,55 56,55" fill="rgb(255,255,255)" fill-opacity="1.0" stroke="rgb(0,0,0)" stroke-width="2"  />
			<g>
				<title>Peptidase_M20 (PF01546)
"Peptidase family M20/M25/M40"</title>
				<polygon class="PF01546" points="17,40 29,28 46,28 46,52 29,52" stroke-linejoin="round" width="33" height="24" fill="rgb(88,213,108)" stroke="rgb(70,170,86)" stroke-width="1" opacity="0.75" />
			</g>
		</g>
		<g>
			<title> (ctg3493_2)</title>
			<polygon class=" (ctg3493_2)" points="56,40 67,10 67,70" fill="rgb(255,255,255)" fill-opacity="1.0" stroke="rgb(0,0,0)" stroke-width="2"  />
		</g>
		<g>
			<title> (ctg3493_3)</title>
			<polygon class=" (ctg3493_3)" points="114,25 111,25 111,10 81,40 111,70 111,55 114,55" fill="rgb(255,255,255)" fill-opacity="1.0" stroke="rgb(0,0,0)" stroke-width="2"  />
			<g>
				<title>IlvC (PF01450)
"Acetohydroxy acid isomeroreductase, catalytic domain"</title>
				<polygon class="PF01450" points="85,40 95,30 95,50" stroke-linejoin="round" width="14" height="24" fill="rgb(54,198,169)" stroke="rgb(43,158,135)" stroke-width="1" opacity="0.75" />
			</g>
			<g>
				<title>IlvN (PF07991)
"Acetohydroxy acid isomeroreductase, NADPH-binding domain"</title>
				<polygon class="PF07991" points="96,29 97,28 112,28 112,52 97,52 96,51" stroke-linejoin="round" width="16" height="24" fill="rgb(108,60,227)" stroke="rgb(86,48,181)" stroke-width="1" opacity="0.75" />
			</g>
		</g>
		<g>
			<title> (ctg3493_4)</title>
			<polygon class=" (ctg3493_4)" points="120,40 133,10 133,70" fill="rgb(255,255,255)" fill-opacity="1.0" stroke="rgb(0,0,0)" stroke-width="2"  />
			<g>
				<title>Bac_rhamnosid_C (PF17390)
"Bacterial alpha-L-rhamnosidase C-terminal domain"</title>
				<polygon class="PF17390" points="123,40 127,31 127,49" stroke-linejoin="round" width="7" height="24" fill="rgb(205,58,114)" stroke="rgb(164,46,91)" stroke-width="1" opacity="0.75" />
			</g>
		</g>
		<g>
			<title> (ctg3493_5)</title>
			<polygon class=" (ctg3493_5)" points="144,40 171,10 171,70" fill="rgb(255,255,255)" fill-opacity="1.0" stroke="rgb(0,0,0)" stroke-width="2"  />
			<g>
				<title>Peptidase_M55 (PF04951)
"D-aminopeptidase"</title>
				<polygon class="PF04951" points="148,40 159,28 170,28 170,52 159,52" stroke-linejoin="round" width="26" height="24" fill="rgb(94,138,195)" stroke="rgb(75,110,156)" stroke-width="1" opacity="0.75" />
			</g>
		</g>
		<g>
			<title> (ctg3493_6)</title>
			<polygon class=" (ctg3493_6)" points="181,40 194,10 194,70" fill="rgb(255,255,255)" fill-opacity="1.0" stroke="rgb(0,0,0)" stroke-width="2"  />
		</g>
		<g>
			<title> (ctg3493_7)</title>
			<polygon class=" (ctg3493_7)" points="195,10 203,40 195,70" fill="rgb(255,255,255)" fill-opacity="1.0" stroke="rgb(0,0,0)" stroke-width="2"  />
		</g>
		<g>
			<title> (ctg3493_8)</title>
			<polygon class=" (ctg3493_8)" points="202,10 228,40 202,70" fill="rgb(255,255,255)" fill-opacity="1.0" stroke="rgb(0,0,0)" stroke-width="2"  />
			<g>
				<title>adh_short_C2 (PF13561)
"Enoyl-(Acyl carrier protein) reductase"</title>
				<polygon class="PF13561" points="204,28 213,28 224,40 213,52 204,52" stroke-linejoin="round" width="23" height="24" fill="rgb(73,205,127)" stroke="rgb(58,164,101)" stroke-width="1" opacity="0.75" />
			</g>
		</g>
		<g>
			<title> (ctg3493_9)</title>
			<polygon class=" (ctg3493_9)" points="229,10 256,40 229,70" fill="rgb(255,255,255)" fill-opacity="1.0" stroke="rgb(0,0,0)" stroke-width="2"  />
			<g>
				<title>PEP_hydrolase (PF09370)
"Phosphoenolpyruvate hydrolase-like"</title>
				<polygon class="PF09370" points="229,28 241,28 252,40 241,52 229,52" stroke-linejoin="round" width="26" height="24" fill="rgb(218,144,83)" stroke="rgb(174,115,66)" stroke-width="1" opacity="0.75" />
			</g>
		</g>
		<g>
			<title> (ctg3493_10)</title>
			<polygon class=" (ctg3493_10)" points="257,25 266,25 266,10 296,40 266,70 266,55 257,55" fill="rgb(255,255,255)" fill-opacity="1.0" stroke="rgb(0,0,0)" stroke-width="2"  />
			<g>
				<title>UPF0261 (PF06792)
"Uncharacterised protein family (UPF0261)"</title>
				<polygon class="PF06792" points="257,28 280,28 292,40 280,52 257,52" stroke-linejoin="round" width="39" height="24" fill="rgb(204,161,89)" stroke="rgb(163,128,71)" stroke-width="1" opacity="0.75" />
			</g>
		</g>
		<g>
			<title> (ctg3493_11)</title>
			<polygon class=" (ctg3493_11)" points="299,25 335,25 335,10 365,40 335,70 335,55 299,55" fill="rgb(255,255,255)" fill-opacity="1.0" stroke="rgb(0,0,0)" stroke-width="2"  />
			<g>
				<title>Oxidored_FMN (PF00724)
"NADH:flavin oxidoreductase / NADH oxidase family"</title>
				<rect class="PF00724" x="299" y="28" stroke-linejoin="round" width="33" height="24" fill="rgb(157,188,65)" stroke="rgb(125,150,52)" stroke-width="1" opacity="0.75" />
			</g>
			<g>
				<title>Pyr_redox_2 (PF07992)
"Pyridine nucleotide-disulphide oxidoreductase"</title>
				<polygon class="PF07992" points="337,28 348,28 360,40 348,52 337,52" stroke-linejoin="round" width="27" height="24" fill="rgb(83,223,167)" stroke="rgb(66,178,133)" stroke-width="1" opacity="0.75" />
			</g>
		</g>
		<g>
			<title> (ctg3493_12)</title>
			<polygon class=" (ctg3493_12)" points="371,10 395,40 371,70" fill="rgb(255,255,255)" fill-opacity="1.0" stroke="rgb(0,0,0)" stroke-width="2"  />
			<g>
				<title>adh_short_C2 (PF13561)
"Enoyl-(Acyl carrier protein) reductase"</title>
				<polygon class="PF13561" points="371,28 382,28 391,40 382,52 371,52" stroke-linejoin="round" width="23" height="24" fill="rgb(73,205,127)" stroke="rgb(58,164,101)" stroke-width="1" opacity="0.75" />
			</g>
		</g>
		<g>
			<title> (ctg3493_13)</title>
			<polygon class=" (ctg3493_13)" points="417,25 425,25 425,10 455,40 425,70 425,55 417,55" fill="rgb(255,255,255)" fill-opacity="1.0" stroke="rgb(0,0,0)" stroke-width="2"  />
			<g>
				<title>Chal_sti_synt_N (PF00195)
"Chalcone and stilbene synthases, N-terminal domain"</title>
				<rect class="PF00195" x="418" y="28" stroke-linejoin="round" width="21" height="24" fill="rgb(60,181,161)" stroke="rgb(47,144,128)" stroke-width="1" opacity="0.75" />
			</g>
			<g>
				<title>Chal_sti_synt_C (PF02797)
"Chalcone and stilbene synthases, C-terminal domain"</title>
				<polygon class="PF02797" points="441,30 451,40 441,50" stroke-linejoin="round" width="14" height="24" fill="rgb(139,212,63)" stroke="rgb(111,169,50)" stroke-width="1" opacity="0.75" />
			</g>
		</g>
		<g>
			<title> (ctg3493_14)</title>
			<polygon class=" (ctg3493_14)" points="455,25 464,25 464,10 494,40 464,70 464,55 455,55" fill="rgb(255,255,255)" fill-opacity="1.0" stroke="rgb(0,0,0)" stroke-width="2"  />
			<g>
				<title>FAD_binding_3 (PF01494)
"FAD binding domain"</title>
				<polygon class="PF01494" points="455,28 478,28 490,40 490,40 478,52 455,52" stroke-linejoin="round" width="35" height="24" fill="rgb(182,175,59)" stroke="rgb(145,140,47)" stroke-width="1" opacity="0.75" />
			</g>
		</g>
		<g>
			<title> (ctg3493_15)</title>
			<polygon class=" (ctg3493_15)" points="496,10 525,40 496,70" fill="rgb(255,255,255)" fill-opacity="1.0" stroke="rgb(0,0,0)" stroke-width="2"  />
			<g>
				<title>UbiA (PF01040)
"UbiA prenyltransferase family"</title>
				<polygon class="PF01040" points="498,28 509,28 521,40 509,52 498,52" stroke-linejoin="round" width="25" height="24" fill="rgb(189,57,100)" stroke="rgb(151,45,80)" stroke-width="1" opacity="0.75" />
			</g>
		</g>
		<g>
			<title> (ctg3493_16)</title>
			<polygon class=" (ctg3493_16)" points="539,25 543,25 543,10 573,40 543,70 543,55 539,55" fill="rgb(255,255,255)" fill-opacity="1.0" stroke="rgb(0,0,0)" stroke-width="2"  />
			<g>
				<title>E1_dh (PF00676)
"Dehydrogenase E1 component"</title>
				<polygon class="PF00676" points="541,28 556,28 568,40 556,52 541,52" stroke-linejoin="round" width="29" height="24" fill="rgb(180,115,48)" stroke="rgb(144,92,38)" stroke-width="1" opacity="0.75" />
			</g>
		</g>
		<g>
			<title> (ctg3493_17)</title>
			<polygon class=" (ctg3493_17)" points="571,25 576,25 576,10 606,40 576,70 576,55 571,55" fill="rgb(255,255,255)" fill-opacity="1.0" stroke="rgb(0,0,0)" stroke-width="2"  />
			<g>
				<title>Transket_pyr (PF02779)
"Transketolase, pyrimidine binding domain"</title>
				<rect class="PF02779" x="573" y="28" stroke-linejoin="round" width="17" height="24" fill="rgb(189,186,84)" stroke="rgb(151,148,67)" stroke-width="1" opacity="0.75" />
			</g>
			<g>
				<title>Transketolase_C (PF02780)
"Transketolase, C-terminal domain"</title>
				<polygon class="PF02780" points="593,31 602,40 593,49" stroke-linejoin="round" width="12" height="24" fill="rgb(76,206,101)" stroke="rgb(60,164,80)" stroke-width="1" opacity="0.75" />
			</g>
		</g>
		<g>
			<title> (ctg3493_18)</title>
			<polygon class=" (ctg3493_18)" points="607,40 616,10 616,70" fill="rgb(255,255,255)" fill-opacity="1.0" stroke="rgb(0,0,0)" stroke-width="2"  />
		</g>
		<g>
			<title> (ctg3493_19)</title>
			<polygon class=" (ctg3493_19)" points="624,10 628,40 624,70" fill="rgb(255,255,255)" fill-opacity="1.0" stroke="rgb(0,0,0)" stroke-width="2"  />
			<g>
				<title>RecA (PF00154)
"recA bacterial DNA recombination protein"</title>
				<polygon class="PF00154" points="624,30 625,40 624,50" stroke-linejoin="round" width="3" height="24" fill="rgb(191,79,162)" stroke="rgb(152,63,129)" stroke-width="1" opacity="0.75" />
			</g>
		</g>
	</g>
</svg>
