<svg version="1.1" baseProfile="full" xmlns="http://www.w3.org/2000/svg" width="780.8" height="80">
	<g>
		<line x1="10" y1="40.0" x2="770.8" y2="40.0" style="stroke:rgb(70,70,70); stroke-width:3 "/>
		<g>
			<title> (ctg1267_9)</title>
			<polygon class=" (ctg1267_9)" points="10,10 30,40 10,70" fill="rgb(255,255,255)" fill-opacity="1.0" stroke="rgb(0,0,0)" stroke-width="2"  />
		</g>
		<g>
			<title> (ctg1267_10)</title>
			<polygon class=" (ctg1267_10)" points="31,10 53,40 31,70" fill="rgb(255,255,255)" fill-opacity="1.0" stroke="rgb(0,0,0)" stroke-width="2"  />
		</g>
		<g>
			<title> (ctg1267_11)</title>
			<polygon class=" (ctg1267_11)" points="57,25 68,25 68,10 98,40 68,70 68,55 57,55" fill="rgb(255,255,255)" fill-opacity="1.0" stroke="rgb(0,0,0)" stroke-width="2"  />
			<g>
				<title>GCV_T (PF01571)
"Aminomethyltransferase folate-binding domain"</title>
				<polygon class="PF01571" points="62,28 82,28 86,32 86,48 82,52 62,52" stroke-linejoin="round" width="24" height="24" fill="rgb(112,228,161)" stroke="rgb(89,182,128)" stroke-width="1" opacity="0.75" />
			</g>
			<g>
				<title>GCV_T_C (PF08669)
"Glycine cleavage T-protein C-terminal barrel domain"</title>
				<polygon class="PF08669" points="89,35 94,40 89,45" stroke-linejoin="round" width="8" height="24" fill="rgb(184,178,54)" stroke="rgb(147,142,43)" stroke-width="1" opacity="0.75" />
			</g>
		</g>
		<g>
			<title> (ctg1267_12)</title>
			<polygon class=" (ctg1267_12)" points="100,40 113,10 113,70" fill="rgb(255,255,255)" fill-opacity="1.0" stroke="rgb(0,0,0)" stroke-width="2"  />
			<g>
				<title>PIN (PF01850)
"PIN domain"</title>
				<polygon class="PF01850" points="103,40 108,28 112,28 112,52 108,52" stroke-linejoin="round" width="11" height="24" fill="rgb(91,217,126)" stroke="rgb(72,173,100)" stroke-width="1" opacity="0.75" />
			</g>
		</g>
		<g>
			<title> (ctg1267_13)</title>
			<polygon class=" (ctg1267_13)" points="113,40 118,10 118,70" fill="rgb(255,255,255)" fill-opacity="1.0" stroke="rgb(0,0,0)" stroke-width="2"  />
		</g>
		<g>
			<title> (ctg1267_14)</title>
			<polygon class=" (ctg1267_14)" points="118,40 121,10 121,70" fill="rgb(255,255,255)" fill-opacity="1.0" stroke="rgb(0,0,0)" stroke-width="2"  />
		</g>
		<g>
			<title> (ctg1267_15)</title>
			<polygon class=" (ctg1267_15)" points="122,25 178,25 178,10 208,40 178,70 178,55 122,55" fill="rgb(255,255,255)" fill-opacity="1.0" stroke="rgb(0,0,0)" stroke-width="2"  />
			<g>
				<title>LRR_8 (PF13855)
"Leucine rich repeat"</title>
				<rect class="PF13855" x="130" y="28" stroke-linejoin="round" width="5" height="24" fill="rgb(206,99,148)" stroke="rgb(164,79,118)" stroke-width="1" opacity="0.75" />
			</g>
			<g>
				<title>LRR_8 (PF13855)
"Leucine rich repeat"</title>
				<rect class="PF13855" x="137" y="28" stroke-linejoin="round" width="6" height="24" fill="rgb(206,99,148)" stroke="rgb(164,79,118)" stroke-width="1" opacity="0.75" />
			</g>
			<g>
				<title>Peptidase_M66 (PF10462)
"Peptidase M66"</title>
				<rect class="PF10462" x="179" y="28" stroke-linejoin="round" width="10" height="24" fill="rgb(69,101,218)" stroke="rgb(55,80,174)" stroke-width="1" opacity="0.75" />
			</g>
		</g>
		<g>
			<title> (ctg1267_16)</title>
			<polygon class=" (ctg1267_16)" points="245,25 238,25 238,10 208,40 238,70 238,55 245,55" fill="rgb(255,255,255)" fill-opacity="1.0" stroke="rgb(0,0,0)" stroke-width="2"  />
			<g>
				<title>Epimerase (PF01370)
"NAD dependent epimerase/dehydratase family"</title>
				<polygon class="PF01370" points="219,33 224,28 244,28 244,52 224,52 219,47" stroke-linejoin="round" width="25" height="24" fill="rgb(98,102,214)" stroke="rgb(78,81,171)" stroke-width="1" opacity="0.75" />
			</g>
		</g>
		<g>
			<title> (ctg1267_17)</title>
			<polygon class=" (ctg1267_17)" points="253,25 281,25 281,10 311,40 281,70 281,55 253,55" fill="rgb(255,255,255)" fill-opacity="1.0" stroke="rgb(0,0,0)" stroke-width="2"  />
			<g>
				<title>Xan_ur_permease (PF00860)
"Permease family"</title>
				<rect class="PF00860" x="255" y="28" stroke-linejoin="round" width="38" height="24" fill="rgb(216,88,217)" stroke="rgb(172,70,173)" stroke-width="1" opacity="0.75" />
			</g>
		</g>
		<g>
			<title> (ctg1267_18)</title>
			<polygon class=" (ctg1267_18)" points="316,25 339,25 339,10 369,40 339,70 339,55 316,55" fill="rgb(255,255,255)" fill-opacity="1.0" stroke="rgb(0,0,0)" stroke-width="2"  />
			<g>
				<title>Peptidase_M66 (PF10462)
"Peptidase M66"</title>
				<rect class="PF10462" x="339" y="28" stroke-linejoin="round" width="12" height="24" fill="rgb(69,101,218)" stroke="rgb(55,80,174)" stroke-width="1" opacity="0.75" />
			</g>
		</g>
		<g>
			<title> (ctg1267_19)</title>
			<polygon class=" (ctg1267_19)" points="370,10 377,40 370,70" fill="rgb(255,255,255)" fill-opacity="1.0" stroke="rgb(0,0,0)" stroke-width="2"  />
		</g>
		<g>
			<title> (ctg1267_20)</title>
			<polygon class=" (ctg1267_20)" points="376,40 384,10 384,70" fill="rgb(255,255,255)" fill-opacity="1.0" stroke="rgb(0,0,0)" stroke-width="2"  />
		</g>
		<g>
			<title> (ctg1267_21)</title>
			<polygon class=" (ctg1267_21)" points="385,25 445,25 445,10 475,40 445,70 445,55 385,55" fill="rgb(255,255,255)" fill-opacity="1.0" stroke="rgb(0,0,0)" stroke-width="2"  />
			<g>
				<title>Big_2 (PF02368)
"Bacterial Ig-like domain (group 2)"</title>
				<rect class="PF02368" x="385" y="28" stroke-linejoin="round" width="6" height="24" fill="rgb(76,217,178)" stroke="rgb(60,173,142)" stroke-width="1" opacity="0.75" />
			</g>
			<g>
				<title>Big_2 (PF02368)
"Bacterial Ig-like domain (group 2)"</title>
				<rect class="PF02368" x="392" y="28" stroke-linejoin="round" width="8" height="24" fill="rgb(76,217,178)" stroke="rgb(60,173,142)" stroke-width="1" opacity="0.75" />
			</g>
			<g>
				<title>Peptidase_M66 (PF10462)
"Peptidase M66"</title>
				<rect class="PF10462" x="445" y="28" stroke-linejoin="round" width="12" height="24" fill="rgb(69,101,218)" stroke="rgb(55,80,174)" stroke-width="1" opacity="0.75" />
			</g>
		</g>
		<g>
			<title> (ctg1267_22)</title>
			<polygon class=" (ctg1267_22)" points="584,25 510,25 510,10 480,40 510,70 510,55 584,55" fill="rgb(255,255,255)" fill-opacity="1.0" stroke="rgb(0,0,0)" stroke-width="2"  />
			<g>
				<title>TonB_dep_Rec (PF00593)
"TonB dependent receptor"</title>
				<polygon class="PF00593" points="484,40 496,28 534,28 534,52 496,52" stroke-linejoin="round" width="54" height="24" fill="rgb(171,200,51)" stroke="rgb(136,160,40)" stroke-width="1" opacity="0.75" />
			</g>
			<g>
				<title>Plug (PF07715)
"TonB-dependent Receptor Plug Domain"</title>
				<rect class="PF07715" x="557" y="28" stroke-linejoin="round" width="10" height="24" fill="rgb(99,133,214)" stroke="rgb(79,106,171)" stroke-width="1" opacity="0.75" />
			</g>
			<g>
				<title>CarboxypepD_reg (PF13620)
"Carboxypeptidase regulatory-like domain"</title>
				<rect class="PF13620" x="569" y="28" stroke-linejoin="round" width="8" height="24" fill="rgb(201,63,96)" stroke="rgb(160,50,76)" stroke-width="1" opacity="0.75" />
			</g>
		</g>
		<g>
			<title> (ctg1267_23)</title>
			<polygon class=" (ctg1267_23)" points="593,10 613,40 593,70" fill="rgb(255,255,255)" fill-opacity="1.0" stroke="rgb(0,0,0)" stroke-width="2"  />
		</g>
		<g>
			<title> (ctg1267_24)</title>
			<polygon class=" (ctg1267_24)" points="612,25 615,25 615,10 645,40 615,70 615,55 612,55" fill="rgb(255,255,255)" fill-opacity="1.0" stroke="rgb(0,0,0)" stroke-width="2"  />
			<g>
				<title>Lactamase_B (PF00753)
"Metallo-beta-lactamase superfamily"</title>
				<polygon class="PF00753" points="616,28 628,28 636,36 636,44 628,52 616,52" stroke-linejoin="round" width="20" height="24" fill="rgb(206,198,96)" stroke="rgb(164,158,76)" stroke-width="1" opacity="0.75" />
			</g>
		</g>
		<g>
			<title> (ctg1267_25)</title>
			<polygon class=" (ctg1267_25)" points="653,10 662,40 653,70" fill="rgb(255,255,255)" fill-opacity="1.0" stroke="rgb(0,0,0)" stroke-width="2"  />
		</g>
		<g>
			<title> (ctg1267_26)</title>
			<polygon class=" (ctg1267_26)" points="661,10 667,40 661,70" fill="rgb(255,255,255)" fill-opacity="1.0" stroke="rgb(0,0,0)" stroke-width="2"  />
		</g>
		<g>
			<title> (ctg1267_27)</title>
			<polygon class=" (ctg1267_27)" points="676,25 740,25 740,10 770,40 740,70 740,55 676,55" fill="rgb(255,255,255)" fill-opacity="1.0" stroke="rgb(0,0,0)" stroke-width="2"  />
			<g>
				<title>ketoacyl-synt (PF00109)
"Beta-ketoacyl synthase, N-terminal domain"</title>
				<rect class="PF00109" x="676" y="28" stroke-linejoin="round" width="24" height="24" fill="rgb(112,116,228)" stroke="rgb(89,92,182)" stroke-width="1" opacity="0.75" />
			</g>
			<g>
				<title>Ketoacyl-synt_C (PF02801)
"Beta-ketoacyl synthase, C-terminal domain"</title>
				<rect class="PF02801" x="702" y="28" stroke-linejoin="round" width="12" height="24" fill="rgb(215,78,102)" stroke="rgb(172,62,81)" stroke-width="1" opacity="0.75" />
			</g>
			<g>
				<title>KAsynt_C_assoc (PF16197)
"Ketoacyl-synthetase C-terminal extension"</title>
				<rect class="PF16197" x="715" y="28" stroke-linejoin="round" width="11" height="24" fill="rgb(240,150,172)" stroke="rgb(192,120,137)" stroke-width="1" opacity="0.75" />
			</g>
			<g>
				<title>Acyl_transf_1 (PF00698)
"Acyl transferase domain"</title>
				<polygon class="PF00698" points="730,28 753,28 762,37 762,43 753,52 730,52" stroke-linejoin="round" width="32" height="24" fill="rgb(59,176,209)" stroke="rgb(47,140,167)" stroke-width="1" opacity="0.75" />
			</g>
		</g>
	</g>
</svg>
