<svg version="1.1" baseProfile="full" xmlns="http://www.w3.org/2000/svg" width="753.4666666666667" height="80">
	<g>
		<line x1="10" y1="40.0" x2="743.4666666666667" y2="40.0" style="stroke:rgb(70,70,70); stroke-width:3 "/>
		<g>
			<title> (ctg614_3)</title>
			<polygon class=" (ctg614_3)" points="36,40 55,10 55,70" fill="rgb(255,255,255)" fill-opacity="1.0" stroke="rgb(0,0,0)" stroke-width="2"  />
		</g>
		<g>
			<title> (ctg614_4)</title>
			<polygon class=" (ctg614_4)" points="56,40 77,10 77,70" fill="rgb(255,255,255)" fill-opacity="1.0" stroke="rgb(0,0,0)" stroke-width="2"  />
			<g>
				<title>PagL (PF09411)
"Lipid A 3-O-deacylase (PagL)"</title>
				<polygon class="PF09411" points="60,40 68,28 70,28 70,52 68,52" stroke-linejoin="round" width="14" height="24" fill="rgb(225,226,100)" stroke="rgb(179,180,80)" stroke-width="1" opacity="0.75" />
			</g>
		</g>
		<g>
			<title> (ctg614_5)</title>
			<polygon class=" (ctg614_5)" points="79,40 94,10 94,70" fill="rgb(255,255,255)" fill-opacity="1.0" stroke="rgb(0,0,0)" stroke-width="2"  />
			<g>
				<title>Prok-JAB (PF14464)
"Prokaryotic homologs of the JAB domain"</title>
				<polygon class="PF14464" points="82,40 88,28 94,28 94,52 88,52" stroke-linejoin="round" width="13" height="24" fill="rgb(187,62,157)" stroke="rgb(149,49,125)" stroke-width="1" opacity="0.75" />
			</g>
		</g>
		<g>
			<title> (ctg614_6)</title>
			<polygon class=" (ctg614_6)" points="103,10 113,40 103,70" fill="rgb(255,255,255)" fill-opacity="1.0" stroke="rgb(0,0,0)" stroke-width="2"  />
			<g>
				<title>tRNA_bind (PF01588)
"Putative tRNA binding domain"</title>
				<polygon class="PF01588" points="104,28 105,28 110,40 105,52 104,52" stroke-linejoin="round" width="9" height="24" fill="rgb(192,51,118)" stroke="rgb(153,40,94)" stroke-width="1" opacity="0.75" />
			</g>
		</g>
		<g>
			<title> (ctg614_7)</title>
			<polygon class=" (ctg614_7)" points="114,25 116,25 116,10 146,40 116,70 116,55 114,55" fill="rgb(255,255,255)" fill-opacity="1.0" stroke="rgb(0,0,0)" stroke-width="2"  />
		</g>
		<g>
			<title> (ctg614_8)</title>
			<polygon class=" (ctg614_8)" points="150,40 159,10 159,70" fill="rgb(255,255,255)" fill-opacity="1.0" stroke="rgb(0,0,0)" stroke-width="2"  />
		</g>
		<g>
			<title> (ctg614_9)</title>
			<polygon class=" (ctg614_9)" points="170,40 182,10 182,70" fill="rgb(255,255,255)" fill-opacity="1.0" stroke="rgb(0,0,0)" stroke-width="2"  />
			<g>
				<title>4HBT (PF03061)
"Thioesterase superfamily"</title>
				<polygon class="PF03061" points="173,40 178,28 178,28 178,52 178,52" stroke-linejoin="round" width="7" height="24" fill="rgb(143,103,215)" stroke="rgb(114,82,172)" stroke-width="1" opacity="0.75" />
			</g>
		</g>
		<g>
			<title> (ctg614_10)</title>
			<polygon class=" (ctg614_10)" points="184,40 192,10 192,70" fill="rgb(255,255,255)" fill-opacity="1.0" stroke="rgb(0,0,0)" stroke-width="2"  />
			<g>
				<title>ADH_N (PF08240)
"Alcohol dehydrogenase GroES-like domain"</title>
				<polygon class="PF08240" points="187,40 189,32 189,48" stroke-linejoin="round" width="5" height="24" fill="rgb(211,65,138)" stroke="rgb(168,51,110)" stroke-width="1" opacity="0.75" />
			</g>
		</g>
		<g>
			<title> (ctg614_11)</title>
			<polygon class=" (ctg614_11)" points="248,25 223,25 223,10 193,40 223,70 223,55 248,55" fill="rgb(255,255,255)" fill-opacity="1.0" stroke="rgb(0,0,0)" stroke-width="2"  />
			<g>
				<title>MM_CoA_mutase (PF01642)
"Methylmalonyl-CoA mutase"</title>
				<polygon class="PF01642" points="197,40 209,28 244,28 244,52 209,52" stroke-linejoin="round" width="51" height="24" fill="rgb(67,86,223)" stroke="rgb(53,68,178)" stroke-width="1" opacity="0.75" />
			</g>
		</g>
		<g>
			<title> (ctg614_12)</title>
			<polygon class=" (ctg614_12)" points="259,10 275,40 259,70" fill="rgb(255,255,255)" fill-opacity="1.0" stroke="rgb(0,0,0)" stroke-width="2"  />
		</g>
		<g>
			<title> (ctg614_13)</title>
			<polygon class=" (ctg614_13)" points="283,10 307,40 283,70" fill="rgb(255,255,255)" fill-opacity="1.0" stroke="rgb(0,0,0)" stroke-width="2"  />
			<g>
				<title>Ion_trans_2 (PF07885)
"Ion channel"</title>
				<polygon class="PF07885" points="298,34 303,40 298,46" stroke-linejoin="round" width="7" height="24" fill="rgb(72,141,189)" stroke="rgb(57,112,151)" stroke-width="1" opacity="0.75" />
			</g>
		</g>
		<g>
			<title> (ctg614_14)</title>
			<polygon class=" (ctg614_14)" points="309,40 336,10 336,70" fill="rgb(255,255,255)" fill-opacity="1.0" stroke="rgb(0,0,0)" stroke-width="2"  />
		</g>
		<g>
			<title> (ctg614_15)</title>
			<polygon class=" (ctg614_15)" points="343,25 379,25 379,10 409,40 379,70 379,55 343,55" fill="rgb(255,255,255)" fill-opacity="1.0" stroke="rgb(0,0,0)" stroke-width="2"  />
			<g>
				<title>SQHop_cyclase_N (PF13249)
"Squalene-hopene cyclase N-terminal domain"</title>
				<rect class="PF13249" x="344" y="28" stroke-linejoin="round" width="28" height="24" fill="rgb(88,190,89)" stroke="rgb(70,152,71)" stroke-width="1" opacity="0.75" />
			</g>
			<g>
				<title>SQHop_cyclase_C (PF13243)
"Squalene-hopene cyclase C-terminal domain"</title>
				<polygon class="PF13243" points="374,28 393,28 404,39 404,41 393,52 374,52" stroke-linejoin="round" width="30" height="24" fill="rgb(191,58,201)" stroke="rgb(152,46,160)" stroke-width="1" opacity="0.75" />
			</g>
		</g>
		<g>
			<title> (ctg614_16)</title>
			<polygon class=" (ctg614_16)" points="410,40 424,10 424,70" fill="rgb(255,255,255)" fill-opacity="1.0" stroke="rgb(0,0,0)" stroke-width="2"  />
			<g>
				<title>HTH_31 (PF13560)
"Helix-turn-helix domain"</title>
				<polygon class="PF13560" points="413,40 416,34 416,46" stroke-linejoin="round" width="6" height="24" fill="rgb(207,145,90)" stroke="rgb(165,116,72)" stroke-width="1" opacity="0.75" />
			</g>
		</g>
		<g>
			<title> (ctg614_17)</title>
			<polygon class=" (ctg614_17)" points="462,25 462,25 462,10 432,40 462,70 462,55 462,55" fill="rgb(255,255,255)" fill-opacity="1.0" stroke="rgb(0,0,0)" stroke-width="2"  />
			<g>
				<title>HpcH_HpaI (PF03328)
"HpcH/HpaI aldolase/citrate lyase family"</title>
				<polygon class="PF03328" points="439,37 448,28 461,28 461,52 448,52 439,43" stroke-linejoin="round" width="22" height="24" fill="rgb(81,183,94)" stroke="rgb(64,146,75)" stroke-width="1" opacity="0.75" />
			</g>
		</g>
		<g>
			<title> (ctg614_18)</title>
			<polygon class=" (ctg614_18)" points="469,25 478,25 478,10 508,40 478,70 478,55 469,55" fill="rgb(255,255,255)" fill-opacity="1.0" stroke="rgb(0,0,0)" stroke-width="2"  />
			<g>
				<title>Acyl-CoA_dh_N (PF02771)
"Acyl-CoA dehydrogenase, N-terminal domain"</title>
				<rect class="PF02771" x="469" y="28" stroke-linejoin="round" width="11" height="24" fill="rgb(105,135,218)" stroke="rgb(84,108,174)" stroke-width="1" opacity="0.75" />
			</g>
			<g>
				<title>Acyl-CoA_dh_2 (PF08028)
"Acyl-CoA dehydrogenase, C-terminal domain"</title>
				<polygon class="PF08028" points="493,29 504,40 493,51" stroke-linejoin="round" width="12" height="24" fill="rgb(106,185,56)" stroke="rgb(84,148,44)" stroke-width="1" opacity="0.75" />
			</g>
		</g>
		<g>
			<title> (ctg614_19)</title>
			<polygon class=" (ctg614_19)" points="509,40 522,10 522,70" fill="rgb(255,255,255)" fill-opacity="1.0" stroke="rgb(0,0,0)" stroke-width="2"  />
			<g>
				<title>SnoaL_2 (PF12680)
"SnoaL-like domain"</title>
				<polygon class="PF12680" points="512,40 517,28 520,28 520,52 517,52" stroke-linejoin="round" width="10" height="24" fill="rgb(184,69,155)" stroke="rgb(147,55,124)" stroke-width="1" opacity="0.75" />
			</g>
		</g>
		<g>
			<title> (ctg614_20)</title>
			<polygon class=" (ctg614_20)" points="523,40 544,10 544,70" fill="rgb(255,255,255)" fill-opacity="1.0" stroke="rgb(0,0,0)" stroke-width="2"  />
			<g>
				<title>Nitroreductase (PF00881)
"Nitroreductase family"</title>
				<polygon class="PF00881" points="527,40 536,28 542,28 542,52 536,52" stroke-linejoin="round" width="17" height="24" fill="rgb(79,118,187)" stroke="rgb(63,94,149)" stroke-width="1" opacity="0.75" />
			</g>
		</g>
		<g>
			<title> (ctg614_21)</title>
			<polygon class=" (ctg614_21)" points="584,25 576,25 576,10 546,40 576,70 576,55 584,55" fill="rgb(255,255,255)" fill-opacity="1.0" stroke="rgb(0,0,0)" stroke-width="2"  />
			<g>
				<title>Amidohydro_2 (PF04909)
"Amidohydrolase"</title>
				<polygon class="PF04909" points="550,40 562,28 582,28 582,52 562,52" stroke-linejoin="round" width="35" height="24" fill="rgb(95,225,123)" stroke="rgb(76,180,98)" stroke-width="1" opacity="0.75" />
			</g>
		</g>
		<g>
			<title> (ctg614_22)</title>
			<polygon class=" (ctg614_22)" points="588,10 603,40 588,70" fill="rgb(255,255,255)" fill-opacity="1.0" stroke="rgb(0,0,0)" stroke-width="2"  />
			<g>
				<title>Glyoxalase (PF00903)
"Glyoxalase/Bleomycin resistance protein/Dioxygenase superfamily"</title>
				<polygon class="PF00903" points="588,28 593,28 599,39 599,41 593,52 588,52" stroke-linejoin="round" width="11" height="24" fill="rgb(50,162,189)" stroke="rgb(40,129,151)" stroke-width="1" opacity="0.75" />
			</g>
		</g>
		<g>
			<title> (ctg614_23)</title>
			<polygon class=" (ctg614_23)" points="606,10 619,40 606,70" fill="rgb(255,255,255)" fill-opacity="1.0" stroke="rgb(0,0,0)" stroke-width="2"  />
			<g>
				<title>Cupin_2 (PF07883)
"Cupin domain"</title>
				<polygon class="PF07883" points="610,28 610,28 616,40 616,40 610,52 610,52" stroke-linejoin="round" width="6" height="24" fill="rgb(211,192,74)" stroke="rgb(168,153,59)" stroke-width="1" opacity="0.75" />
			</g>
		</g>
		<g>
			<title> (ctg614_24)</title>
			<polygon class=" (ctg614_24)" points="682,25 652,25 652,10 622,40 652,70 652,55 682,55" fill="rgb(255,255,255)" fill-opacity="1.0" stroke="rgb(0,0,0)" stroke-width="2"  />
		</g>
		<g>
			<title> (ctg614_25)</title>
			<polygon class=" (ctg614_25)" points="726,25 712,25 712,10 682,40 712,70 712,55 726,55" fill="rgb(255,255,255)" fill-opacity="1.0" stroke="rgb(0,0,0)" stroke-width="2"  />
			<g>
				<title>DUF1329 (PF07044)
"Protein of unknown function (DUF1329)"</title>
				<polygon class="PF07044" points="686,40 698,28 717,28 717,52 698,52" stroke-linejoin="round" width="35" height="24" fill="rgb(92,198,159)" stroke="rgb(73,158,127)" stroke-width="1" opacity="0.75" />
			</g>
		</g>
	</g>
</svg>
