<svg version="1.1" baseProfile="full" xmlns="http://www.w3.org/2000/svg" width="280.3" height="80">
	<g>
		<line x1="10" y1="40.0" x2="270.3" y2="40.0" style="stroke:rgb(70,70,70); stroke-width:3 "/>
		<g>
			<title> (ctg9186_1)</title>
			<polygon class=" (ctg9186_1)" points="10,40 31,10 31,70" fill="rgb(255,255,255)" fill-opacity="1.0" stroke="rgb(0,0,0)" stroke-width="2"  />
		</g>
		<g>
			<title> (ctg9186_2)</title>
			<polygon class=" (ctg9186_2)" points="77,25 61,25 61,10 31,40 61,70 61,55 77,55" fill="rgb(255,255,255)" fill-opacity="1.0" stroke="rgb(0,0,0)" stroke-width="2"  />
			<g>
				<title>Cytokin-bind (PF09265)
"Cytokinin dehydrogenase 1, FAD and cytokinin binding"</title>
				<polygon class="PF09265" points="35,40 36,39 36,41" stroke-linejoin="round" width="5" height="24" fill="rgb(67,184,162)" stroke="rgb(53,147,129)" stroke-width="1" opacity="0.75" />
			</g>
			<g>
				<title>FAD_binding_4 (PF01565)
"FAD binding domain"</title>
				<rect class="PF01565" x="59" y="28" stroke-linejoin="round" width="13" height="24" fill="rgb(226,88,136)" stroke="rgb(180,70,108)" stroke-width="1" opacity="0.75" />
			</g>
		</g>
		<g>
			<title> (ctg9186_3)</title>
			<polygon class=" (ctg9186_3)" points="81,40 89,10 89,70" fill="rgb(255,255,255)" fill-opacity="1.0" stroke="rgb(0,0,0)" stroke-width="2"  />
		</g>
		<g>
			<title> (ctg9186_4)</title>
			<polygon class=" (ctg9186_4)" points="100,40 108,10 108,70" fill="rgb(255,255,255)" fill-opacity="1.0" stroke="rgb(0,0,0)" stroke-width="2"  />
			<g>
				<title>NHase_alpha (PF02979)
"Nitrile hydratase, alpha chain"</title>
				<polygon class="PF02979" points="103,40 106,28 106,28 106,52 106,52" stroke-linejoin="round" width="6" height="24" fill="rgb(204,148,70)" stroke="rgb(163,118,56)" stroke-width="1" opacity="0.75" />
			</g>
		</g>
		<g>
			<title> (ctg9186_5)</title>
			<polygon class=" (ctg9186_5)" points="136,10 148,40 136,70" fill="rgb(255,255,255)" fill-opacity="1.0" stroke="rgb(0,0,0)" stroke-width="2"  />
		</g>
		<g>
			<title> (ctg9186_6)</title>
			<polygon class=" (ctg9186_6)" points="151,10 169,40 151,70" fill="rgb(255,255,255)" fill-opacity="1.0" stroke="rgb(0,0,0)" stroke-width="2"  />
			<g>
				<title>Uma2 (PF05685)
"Putative restriction endonuclease"</title>
				<polygon class="PF05685" points="152,28 158,28 166,40 158,52 152,52" stroke-linejoin="round" width="16" height="24" fill="rgb(123,107,219)" stroke="rgb(98,85,175)" stroke-width="1" opacity="0.75" />
			</g>
		</g>
		<g>
			<title> (ctg9186_7)</title>
			<polygon class=" (ctg9186_7)" points="259,25 228,25 228,10 198,40 228,70 228,55 259,55" fill="rgb(255,255,255)" fill-opacity="1.0" stroke="rgb(0,0,0)" stroke-width="2"  />
			<g>
				<title>PQQ_2 (PF13360)
"PQQ-like domain"</title>
				<polygon class="PF13360" points="202,40 211,31 211,49" stroke-linejoin="round" width="11" height="24" fill="rgb(98,210,146)" stroke="rgb(78,168,116)" stroke-width="1" opacity="0.75" />
			</g>
			<g>
				<title>PQQ_2 (PF13360)
"PQQ-like domain"</title>
				<rect class="PF13360" x="232" y="28" stroke-linejoin="round" width="17" height="24" fill="rgb(98,210,146)" stroke="rgb(78,168,116)" stroke-width="1" opacity="0.75" />
			</g>
		</g>
		<g>
			<title> (ctg9186_8)</title>
			<polygon class=" (ctg9186_8)" points="260,40 269,10 269,70" fill="rgb(255,255,255)" fill-opacity="1.0" stroke="rgb(0,0,0)" stroke-width="2"  />
			<g>
				<title>Asparaginase_C (PF17763)
"Glutaminase/Asparaginase C-terminal domain"</title>
				<polygon class="PF17763" points="263,40 267,28 268,28 268,52 267,52" stroke-linejoin="round" width="8" height="24" fill="rgb(195,122,73)" stroke="rgb(156,97,58)" stroke-width="1" opacity="0.75" />
			</g>
		</g>
	</g>
</svg>
