<svg version="1.1" baseProfile="full" xmlns="http://www.w3.org/2000/svg" width="764.2333333333333" height="80">
	<g>
		<line x1="10" y1="40.0" x2="754.2333333333333" y2="40.0" style="stroke:rgb(70,70,70); stroke-width:3 "/>
		<g>
			<title> (ctg2172_1)</title>
			<polygon class=" (ctg2172_1)" points="14,10 21,40 14,70" fill="rgb(255,255,255)" fill-opacity="1.0" stroke="rgb(0,0,0)" stroke-width="2"  />
		</g>
		<g>
			<title> (ctg2172_2)</title>
			<polygon class=" (ctg2172_2)" points="20,40 42,10 42,70" fill="rgb(255,255,255)" fill-opacity="1.0" stroke="rgb(0,0,0)" stroke-width="2"  />
			<g>
				<title>Chlor_dismutase (PF06778)
"Chlorite dismutase"</title>
				<polygon class="PF06778" points="24,40 33,28 40,28 40,52 33,52" stroke-linejoin="round" width="19" height="24" fill="rgb(179,57,142)" stroke="rgb(143,45,113)" stroke-width="1" opacity="0.75" />
			</g>
		</g>
		<g>
			<title> (ctg2172_3)</title>
			<polygon class=" (ctg2172_3)" points="85,25 77,25 77,10 47,40 77,70 77,55 85,55" fill="rgb(255,255,255)" fill-opacity="1.0" stroke="rgb(0,0,0)" stroke-width="2"  />
			<g>
				<title>GCV_T_C (PF08669)
"Glycine cleavage T-protein C-terminal barrel domain"</title>
				<polygon class="PF08669" points="51,40 55,36 55,44" stroke-linejoin="round" width="8" height="24" fill="rgb(184,178,54)" stroke="rgb(147,142,43)" stroke-width="1" opacity="0.75" />
			</g>
			<g>
				<title>GCV_T (PF01571)
"Aminomethyltransferase folate-binding domain"</title>
				<polygon class="PF01571" points="58,33 63,28 82,28 82,52 63,52 58,47" stroke-linejoin="round" width="24" height="24" fill="rgb(112,228,161)" stroke="rgb(89,182,128)" stroke-width="1" opacity="0.75" />
			</g>
		</g>
		<g>
			<title> (ctg2172_4)</title>
			<polygon class=" (ctg2172_4)" points="140,25 117,25 117,10 87,40 117,70 117,55 140,55" fill="rgb(255,255,255)" fill-opacity="1.0" stroke="rgb(0,0,0)" stroke-width="2"  />
			<g>
				<title>Amino_oxidase (PF01593)
"Flavin containing amine oxidoreductase"</title>
				<polygon class="PF01593" points="91,40 103,28 118,28 118,52 103,52" stroke-linejoin="round" width="30" height="24" fill="rgb(184,74,52)" stroke="rgb(147,59,41)" stroke-width="1" opacity="0.75" />
			</g>
			<g>
				<title>NAD_binding_8 (PF13450)
"NAD(P)-binding Rossmann-like domain"</title>
				<rect class="PF13450" x="134" y="28" stroke-linejoin="round" width="5" height="24" fill="rgb(91,180,227)" stroke="rgb(72,144,181)" stroke-width="1" opacity="0.75" />
			</g>
		</g>
		<g>
			<title> (ctg2172_5)</title>
			<polygon class=" (ctg2172_5)" points="194,25 171,25 171,10 141,40 171,70 171,55 194,55" fill="rgb(255,255,255)" fill-opacity="1.0" stroke="rgb(0,0,0)" stroke-width="2"  />
			<g>
				<title>Amino_oxidase (PF01593)
"Flavin containing amine oxidoreductase"</title>
				<polygon class="PF01593" points="145,40 157,28 192,28 192,52 157,52" stroke-linejoin="round" width="50" height="24" fill="rgb(184,74,52)" stroke="rgb(147,59,41)" stroke-width="1" opacity="0.75" />
			</g>
		</g>
		<g>
			<title> (ctg2172_6)</title>
			<polygon class=" (ctg2172_6)" points="234,25 225,25 225,10 195,40 225,70 225,55 234,55" fill="rgb(255,255,255)" fill-opacity="1.0" stroke="rgb(0,0,0)" stroke-width="2"  />
			<g>
				<title>GCV_T_C (PF08669)
"Glycine cleavage T-protein C-terminal barrel domain"</title>
				<polygon class="PF08669" points="199,40 203,36 203,44" stroke-linejoin="round" width="8" height="24" fill="rgb(184,178,54)" stroke="rgb(147,142,43)" stroke-width="1" opacity="0.75" />
			</g>
			<g>
				<title>GCV_T (PF01571)
"Aminomethyltransferase folate-binding domain"</title>
				<polygon class="PF01571" points="208,31 211,28 233,28 233,52 211,52 208,49" stroke-linejoin="round" width="25" height="24" fill="rgb(112,228,161)" stroke="rgb(89,182,128)" stroke-width="1" opacity="0.75" />
			</g>
		</g>
		<g>
			<title> (ctg2172_7)</title>
			<polygon class=" (ctg2172_7)" points="235,40 248,10 248,70" fill="rgb(255,255,255)" fill-opacity="1.0" stroke="rgb(0,0,0)" stroke-width="2"  />
			<g>
				<title>His_Phos_1 (PF00300)
"Histidine phosphatase superfamily (branch 1)"</title>
				<polygon class="PF00300" points="240,36 243,28 247,28 247,52 243,52 240,44" stroke-linejoin="round" width="7" height="24" fill="rgb(135,184,63)" stroke="rgb(107,147,50)" stroke-width="1" opacity="0.75" />
			</g>
		</g>
		<g>
			<title> (ctg2172_8)</title>
			<polygon class=" (ctg2172_8)" points="254,40 271,10 271,70" fill="rgb(255,255,255)" fill-opacity="1.0" stroke="rgb(0,0,0)" stroke-width="2"  />
		</g>
		<g>
			<title> (ctg2172_9)</title>
			<polygon class=" (ctg2172_9)" points="308,25 305,25 305,10 275,40 305,70 305,55 308,55" fill="rgb(255,255,255)" fill-opacity="1.0" stroke="rgb(0,0,0)" stroke-width="2"  />
			<g>
				<title>AbiEii (PF08843)
"Nucleotidyl transferase AbiEii toxin, Type IV TA system"</title>
				<polygon class="PF08843" points="283,36 291,28 305,28 305,52 291,52 283,44" stroke-linejoin="round" width="22" height="24" fill="rgb(179,218,98)" stroke="rgb(143,174,78)" stroke-width="1" opacity="0.75" />
			</g>
		</g>
		<g>
			<title> (ctg2172_10)</title>
			<polygon class=" (ctg2172_10)" points="308,40 334,10 334,70" fill="rgb(255,255,255)" fill-opacity="1.0" stroke="rgb(0,0,0)" stroke-width="2"  />
		</g>
		<g>
			<title> (ctg2172_11)</title>
			<polygon class=" (ctg2172_11)" points="343,40 359,10 359,70" fill="rgb(255,255,255)" fill-opacity="1.0" stroke="rgb(0,0,0)" stroke-width="2"  />
			<g>
				<title>ICMT (PF04140)
"Isoprenylcysteine carboxyl methyltransferase (ICMT) family"</title>
				<polygon class="PF04140" points="346,40 352,29 352,51" stroke-linejoin="round" width="9" height="24" fill="rgb(100,223,104)" stroke="rgb(80,178,83)" stroke-width="1" opacity="0.75" />
			</g>
		</g>
		<g>
			<title> (ctg2172_12)</title>
			<polygon class=" (ctg2172_12)" points="395,25 390,25 390,10 360,40 390,70 390,55 395,55" fill="rgb(255,255,255)" fill-opacity="1.0" stroke="rgb(0,0,0)" stroke-width="2"  />
			<g>
				<title>Chal_sti_synt_C (PF02797)
"Chalcone and stilbene synthases, C-terminal domain"</title>
				<polygon class="PF02797" points="364,40 372,32 372,48" stroke-linejoin="round" width="12" height="24" fill="rgb(139,212,63)" stroke="rgb(111,169,50)" stroke-width="1" opacity="0.75" />
			</g>
			<g>
				<title>Chal_sti_synt_N (PF00195)
"Chalcone and stilbene synthases, N-terminal domain"</title>
				<polygon class="PF00195" points="374,30 376,28 388,28 388,52 376,52 374,50" stroke-linejoin="round" width="14" height="24" fill="rgb(60,181,161)" stroke="rgb(47,144,128)" stroke-width="1" opacity="0.75" />
			</g>
		</g>
		<g>
			<title> (ctg2172_13)</title>
			<polygon class=" (ctg2172_13)" points="431,25 426,25 426,10 396,40 426,70 426,55 431,55" fill="rgb(255,255,255)" fill-opacity="1.0" stroke="rgb(0,0,0)" stroke-width="2"  />
			<g>
				<title>Beta-lactamase2 (PF13354)
"Beta-lactamase enzyme family"</title>
				<polygon class="PF13354" points="401,39 412,28 421,28 421,52 412,52 401,41" stroke-linejoin="round" width="20" height="24" fill="rgb(72,61,190)" stroke="rgb(57,48,152)" stroke-width="1" opacity="0.75" />
			</g>
		</g>
		<g>
			<title> (ctg2172_14)</title>
			<polygon class=" (ctg2172_14)" points="470,25 462,25 462,10 432,40 462,70 462,55 470,55" fill="rgb(255,255,255)" fill-opacity="1.0" stroke="rgb(0,0,0)" stroke-width="2"  />
			<g>
				<title>DAO (PF01266)
"FAD dependent oxidoreductase"</title>
				<polygon class="PF01266" points="436,40 448,28 459,28 459,52 448,52" stroke-linejoin="round" width="27" height="24" fill="rgb(123,179,59)" stroke="rgb(98,143,47)" stroke-width="1" opacity="0.75" />
			</g>
		</g>
		<g>
			<title> (ctg2172_15)</title>
			<polygon class=" (ctg2172_15)" points="470,40 475,10 475,70" fill="rgb(255,255,255)" fill-opacity="1.0" stroke="rgb(0,0,0)" stroke-width="2"  />
		</g>
		<g>
			<title> (ctg2172_16)</title>
			<polygon class=" (ctg2172_16)" points="480,10 483,40 480,70" fill="rgb(255,255,255)" fill-opacity="1.0" stroke="rgb(0,0,0)" stroke-width="2"  />
			<g>
				<title>HigB-like_toxin (PF05015)
"RelE-like toxin of type II toxin-antitoxin system HigB"</title>
				<polygon class="PF05015" points="480,34 480,40 480,46" stroke-linejoin="round" width="3" height="24" fill="rgb(169,179,75)" stroke="rgb(135,143,60)" stroke-width="1" opacity="0.75" />
			</g>
		</g>
		<g>
			<title> (ctg2172_17)</title>
			<polygon class=" (ctg2172_17)" points="484,10 494,40 484,70" fill="rgb(255,255,255)" fill-opacity="1.0" stroke="rgb(0,0,0)" stroke-width="2"  />
			<g>
				<title>HTH_3 (PF01381)
"Helix-turn-helix"</title>
				<polygon class="PF01381" points="485,28 486,28 489,34 489,46 486,52 485,52" stroke-linejoin="round" width="4" height="24" fill="rgb(105,79,202)" stroke="rgb(83,63,161)" stroke-width="1" opacity="0.75" />
			</g>
		</g>
		<g>
			<title> (ctg2172_18)</title>
			<polygon class=" (ctg2172_18)" points="495,40 515,10 515,70" fill="rgb(255,255,255)" fill-opacity="1.0" stroke="rgb(0,0,0)" stroke-width="2"  />
		</g>
		<g>
			<title> (ctg2172_19)</title>
			<polygon class=" (ctg2172_19)" points="550,25 548,25 548,10 518,40 548,70 548,55 550,55" fill="rgb(255,255,255)" fill-opacity="1.0" stroke="rgb(0,0,0)" stroke-width="2"  />
		</g>
		<g>
			<title> (ctg2172_20)</title>
			<polygon class=" (ctg2172_20)" points="559,40 584,10 584,70" fill="rgb(255,255,255)" fill-opacity="1.0" stroke="rgb(0,0,0)" stroke-width="2"  />
		</g>
		<g>
			<title> (ctg2172_21)</title>
			<polygon class=" (ctg2172_21)" points="593,10 596,40 593,70" fill="rgb(255,255,255)" fill-opacity="1.0" stroke="rgb(0,0,0)" stroke-width="2"  />
		</g>
		<g>
			<title> (ctg2172_22)</title>
			<polygon class=" (ctg2172_22)" points="636,25 625,25 625,10 595,40 625,70 625,55 636,55" fill="rgb(255,255,255)" fill-opacity="1.0" stroke="rgb(0,0,0)" stroke-width="2"  />
		</g>
		<g>
			<title> (ctg2172_23)</title>
			<polygon class=" (ctg2172_23)" points="636,40 641,10 641,70" fill="rgb(255,255,255)" fill-opacity="1.0" stroke="rgb(0,0,0)" stroke-width="2"  />
		</g>
		<g>
			<title> (ctg2172_24)</title>
			<polygon class=" (ctg2172_24)" points="642,10 664,40 642,70" fill="rgb(255,255,255)" fill-opacity="1.0" stroke="rgb(0,0,0)" stroke-width="2"  />
			<g>
				<title>SBP_bac_11 (PF13531)
"Bacterial extracellular solute-binding protein"</title>
				<polygon class="PF13531" points="642,28 652,28 660,40 652,52 642,52" stroke-linejoin="round" width="22" height="24" fill="rgb(202,228,104)" stroke="rgb(161,182,83)" stroke-width="1" opacity="0.75" />
			</g>
		</g>
		<g>
			<title> (ctg2172_25)</title>
			<polygon class=" (ctg2172_25)" points="665,10 693,40 665,70" fill="rgb(255,255,255)" fill-opacity="1.0" stroke="rgb(0,0,0)" stroke-width="2"  />
			<g>
				<title>BPD_transp_1 (PF00528)
"Binding-protein-dependent transport system inner membrane component"</title>
				<polygon class="PF00528" points="672,28 677,28 689,40 677,52 672,52" stroke-linejoin="round" width="18" height="24" fill="rgb(77,208,225)" stroke="rgb(61,166,180)" stroke-width="1" opacity="0.75" />
			</g>
		</g>
		<g>
			<title> (ctg2172_26)</title>
			<polygon class=" (ctg2172_26)" points="693,10 718,40 693,70" fill="rgb(255,255,255)" fill-opacity="1.0" stroke="rgb(0,0,0)" stroke-width="2"  />
			<g>
				<title>ABC_tran (PF00005)
"ABC transporter"</title>
				<polygon class="PF00005" points="694,28 704,28 708,33 708,47 704,52 694,52" stroke-linejoin="round" width="14" height="24" fill="rgb(129,201,63)" stroke="rgb(103,160,50)" stroke-width="1" opacity="0.75" />
			</g>
		</g>
		<g>
			<title> (ctg2172_27)</title>
			<polygon class=" (ctg2172_27)" points="718,40 733,10 733,70" fill="rgb(255,255,255)" fill-opacity="1.0" stroke="rgb(0,0,0)" stroke-width="2"  />
			<g>
				<title>FHA (PF00498)
"FHA domain"</title>
				<polygon class="PF00498" points="721,40 727,28 727,28 727,52 727,52 721,40" stroke-linejoin="round" width="6" height="24" fill="rgb(57,178,90)" stroke="rgb(45,142,72)" stroke-width="1" opacity="0.75" />
			</g>
		</g>
		<g>
			<title> (ctg2172_28)</title>
			<polygon class=" (ctg2172_28)" points="739,10 753,40 739,70" fill="rgb(255,255,255)" fill-opacity="1.0" stroke="rgb(0,0,0)" stroke-width="2"  />
		</g>
	</g>
</svg>
