<svg version="1.1" baseProfile="full" xmlns="http://www.w3.org/2000/svg" width="747.4" height="80">
	<g>
		<line x1="10" y1="40.0" x2="737.4" y2="40.0" style="stroke:rgb(70,70,70); stroke-width:3 "/>
		<g>
			<title> (ctg607_44)</title>
			<polygon class=" (ctg607_44)" points="23,10 37,40 23,70" fill="rgb(255,255,255)" fill-opacity="1.0" stroke="rgb(0,0,0)" stroke-width="2"  />
		</g>
		<g>
			<title> (ctg607_45)</title>
			<polygon class=" (ctg607_45)" points="42,40 56,10 56,70" fill="rgb(255,255,255)" fill-opacity="1.0" stroke="rgb(0,0,0)" stroke-width="2"  />
			<g>
				<title>Sod_Ni (PF09055)
"Nickel-containing superoxide dismutase"</title>
				<polygon class="PF09055" points="45,40 51,28 54,28 54,52 51,52" stroke-linejoin="round" width="12" height="24" fill="rgb(179,179,70)" stroke="rgb(143,143,56)" stroke-width="1" opacity="0.75" />
			</g>
		</g>
		<g>
			<title> (ctg607_46)</title>
			<polygon class=" (ctg607_46)" points="60,10 76,40 60,70" fill="rgb(255,255,255)" fill-opacity="1.0" stroke="rgb(0,0,0)" stroke-width="2"  />
			<g>
				<title>Peptidase_S26 (PF10502)
"Signal peptidase, peptidase S26"</title>
				<polygon class="PF10502" points="65,28 66,28 72,40 66,52 65,52" stroke-linejoin="round" width="10" height="24" fill="rgb(65,143,195)" stroke="rgb(52,114,156)" stroke-width="1" opacity="0.75" />
			</g>
		</g>
		<g>
			<title> (ctg607_47)</title>
			<polygon class=" (ctg607_47)" points="76,40 90,10 90,70" fill="rgb(255,255,255)" fill-opacity="1.0" stroke="rgb(0,0,0)" stroke-width="2"  />
			<g>
				<title>LMWPc (PF01451)
"Low molecular weight phosphotyrosine protein phosphatase"</title>
				<polygon class="PF01451" points="79,40 85,28 88,28 88,52 85,52" stroke-linejoin="round" width="12" height="24" fill="rgb(199,53,196)" stroke="rgb(159,42,156)" stroke-width="1" opacity="0.75" />
			</g>
		</g>
		<g>
			<title> (ctg607_48)</title>
			<polygon class=" (ctg607_48)" points="90,40 119,10 119,70" fill="rgb(255,255,255)" fill-opacity="1.0" stroke="rgb(0,0,0)" stroke-width="2"  />
			<g>
				<title>MIP (PF00230)
"Major intrinsic protein"</title>
				<polygon class="PF00230" points="94,40 106,28 118,28 118,52 106,52" stroke-linejoin="round" width="26" height="24" fill="rgb(105,207,228)" stroke="rgb(84,165,182)" stroke-width="1" opacity="0.75" />
			</g>
		</g>
		<g>
			<title> (ctg607_49)</title>
			<polygon class=" (ctg607_49)" points="152,25 149,25 149,10 119,40 149,70 149,55 152,55" fill="rgb(255,255,255)" fill-opacity="1.0" stroke="rgb(0,0,0)" stroke-width="2"  />
			<g>
				<title>ALAD (PF00490)
"Delta-aminolevulinic acid dehydratase"</title>
				<polygon class="PF00490" points="123,40 135,28 150,28 150,52 135,52" stroke-linejoin="round" width="31" height="24" fill="rgb(119,78,220)" stroke="rgb(95,62,176)" stroke-width="1" opacity="0.75" />
			</g>
		</g>
		<g>
			<title> (ctg607_50)</title>
			<polygon class=" (ctg607_50)" points="203,25 183,25 183,10 153,40 183,70 183,55 203,55" fill="rgb(255,255,255)" fill-opacity="1.0" stroke="rgb(0,0,0)" stroke-width="2"  />
			<g>
				<title>HEM4 (PF02602)
"Uroporphyrinogen-III synthase HemD"</title>
				<polygon class="PF02602" points="157,40 169,28 176,28 176,52 169,52" stroke-linejoin="round" width="22" height="24" fill="rgb(191,152,50)" stroke="rgb(152,121,39)" stroke-width="1" opacity="0.75" />
			</g>
			<g>
				<title>TP_methylase (PF00590)
"Tetrapyrrole (Corrin/Porphyrin) Methylases"</title>
				<rect class="PF00590" x="181" y="28" stroke-linejoin="round" width="21" height="24" fill="rgb(124,218,92)" stroke="rgb(99,174,73)" stroke-width="1" opacity="0.75" />
			</g>
		</g>
		<g>
			<title> (ctg607_51)</title>
			<polygon class=" (ctg607_51)" points="234,25 233,25 233,10 203,40 233,70 233,55 234,55" fill="rgb(255,255,255)" fill-opacity="1.0" stroke="rgb(0,0,0)" stroke-width="2"  />
			<g>
				<title>Porphobil_deamC (PF03900)
"Porphobilinogen deaminase, C-terminal domain"</title>
				<polygon class="PF03900" points="207,40 211,36 211,44" stroke-linejoin="round" width="7" height="24" fill="rgb(171,104,225)" stroke="rgb(136,83,180)" stroke-width="1" opacity="0.75" />
			</g>
			<g>
				<title>Porphobil_deam (PF01379)
"Porphobilinogen deaminase, dipyromethane cofactor binding domain"</title>
				<polygon class="PF01379" points="212,35 219,28 232,28 232,52 219,52 212,45" stroke-linejoin="round" width="20" height="24" fill="rgb(172,226,73)" stroke="rgb(137,180,58)" stroke-width="1" opacity="0.75" />
			</g>
		</g>
		<g>
			<title> (ctg607_52)</title>
			<polygon class=" (ctg607_52)" points="235,40 257,10 257,70" fill="rgb(255,255,255)" fill-opacity="1.0" stroke="rgb(0,0,0)" stroke-width="2"  />
			<g>
				<title>Sirohm_synth_M (PF14824)
"Sirohaem biosynthesis protein central"</title>
				<polygon class="PF14824" points="242,36 244,33 244,47 242,44" stroke-linejoin="round" width="2" height="24" fill="rgb(204,86,153)" stroke="rgb(163,68,122)" stroke-width="1" opacity="0.75" />
			</g>
			<g>
				<title>NAD_binding_7 (PF13241)
"Putative NAD(P)-binding"</title>
				<polygon class="PF13241" points="245,32 248,28 256,28 256,52 248,52 245,48" stroke-linejoin="round" width="11" height="24" fill="rgb(229,162,111)" stroke="rgb(183,129,88)" stroke-width="1" opacity="0.75" />
			</g>
		</g>
		<g>
			<title> (ctg607_53)</title>
			<polygon class=" (ctg607_53)" points="294,25 288,25 288,10 258,40 288,70 288,55 294,55" fill="rgb(255,255,255)" fill-opacity="1.0" stroke="rgb(0,0,0)" stroke-width="2"  />
			<g>
				<title>AsnC_trans_reg2 (PF17805)
"AsnC-like ligand binding domain"</title>
				<polygon class="PF17805" points="262,40 268,34 268,46" stroke-linejoin="round" width="8" height="24" fill="rgb(89,70,217)" stroke="rgb(71,56,173)" stroke-width="1" opacity="0.75" />
			</g>
			<g>
				<title>AsnC_trans_reg2 (PF17805)
"AsnC-like ligand binding domain"</title>
				<rect class="PF17805" x="279" y="28" stroke-linejoin="round" width="8" height="24" fill="rgb(89,70,217)" stroke="rgb(71,56,173)" stroke-width="1" opacity="0.75" />
			</g>
			<g>
				<title>HTH_AsnC-type (PF13404)
"AsnC-type helix-turn-helix domain"</title>
				<rect class="PF13404" x="288" y="28" stroke-linejoin="round" width="4" height="24" fill="rgb(190,195,86)" stroke="rgb(152,156,68)" stroke-width="1" opacity="0.75" />
			</g>
		</g>
		<g>
			<title> (ctg607_54)</title>
			<polygon class=" (ctg607_54)" points="343,25 325,25 325,10 295,40 325,70 325,55 343,55" fill="rgb(255,255,255)" fill-opacity="1.0" stroke="rgb(0,0,0)" stroke-width="2"  />
			<g>
				<title>Amino_oxidase (PF01593)
"Flavin containing amine oxidoreductase"</title>
				<polygon class="PF01593" points="299,40 311,28 340,28 340,52 311,52" stroke-linejoin="round" width="43" height="24" fill="rgb(184,74,52)" stroke="rgb(147,59,41)" stroke-width="1" opacity="0.75" />
			</g>
		</g>
		<g>
			<title> (ctg607_55)</title>
			<polygon class=" (ctg607_55)" points="374,25 373,25 373,10 343,40 373,70 373,55 374,55" fill="rgb(255,255,255)" fill-opacity="1.0" stroke="rgb(0,0,0)" stroke-width="2"  />
			<g>
				<title>SQS_PSY (PF00494)
"Squalene/phytoene synthase"</title>
				<polygon class="PF00494" points="347,40 359,28 370,28 370,52 359,52" stroke-linejoin="round" width="25" height="24" fill="rgb(178,91,49)" stroke="rgb(142,72,39)" stroke-width="1" opacity="0.75" />
			</g>
		</g>
		<g>
			<title> (ctg607_56)</title>
			<polygon class=" (ctg607_56)" points="403,25 403,25 403,10 373,40 403,70 403,55 403,55" fill="rgb(255,255,255)" fill-opacity="1.0" stroke="rgb(0,0,0)" stroke-width="2"  />
			<g>
				<title>SQS_PSY (PF00494)
"Squalene/phytoene synthase"</title>
				<polygon class="PF00494" points="377,40 389,28 401,28 401,52 389,52" stroke-linejoin="round" width="25" height="24" fill="rgb(178,91,49)" stroke="rgb(142,72,39)" stroke-width="1" opacity="0.75" />
			</g>
		</g>
		<g>
			<title> (ctg607_57)</title>
			<polygon class=" (ctg607_57)" points="440,25 435,25 435,10 405,40 435,70 435,55 440,55" fill="rgb(255,255,255)" fill-opacity="1.0" stroke="rgb(0,0,0)" stroke-width="2"  />
			<g>
				<title>polyprenyl_synt (PF00348)
"Polyprenyl synthetase"</title>
				<polygon class="PF00348" points="410,39 421,28 435,28 435,52 421,52 410,41" stroke-linejoin="round" width="25" height="24" fill="rgb(61,206,65)" stroke="rgb(48,164,52)" stroke-width="1" opacity="0.75" />
			</g>
		</g>
		<g>
			<title> (ctg607_58)</title>
			<polygon class=" (ctg607_58)" points="444,40 458,10 458,70" fill="rgb(255,255,255)" fill-opacity="1.0" stroke="rgb(0,0,0)" stroke-width="2"  />
			<g>
				<title>HSP20 (PF00011)
"Hsp20/alpha crystallin family"</title>
				<polygon class="PF00011" points="447,40 453,28 454,28 454,52 453,52" stroke-linejoin="round" width="10" height="24" fill="rgb(148,223,75)" stroke="rgb(118,178,60)" stroke-width="1" opacity="0.75" />
			</g>
		</g>
		<g>
			<title> (ctg607_59)</title>
			<polygon class=" (ctg607_59)" points="465,25 514,25 514,10 544,40 514,70 514,55 465,55" fill="rgb(255,255,255)" fill-opacity="1.0" stroke="rgb(0,0,0)" stroke-width="2"  />
			<g>
				<title>Clp_N (PF02861)
"Clp amino terminal domain, pathogenicity island component"</title>
				<rect class="PF02861" x="466" y="28" stroke-linejoin="round" width="5" height="24" fill="rgb(97,199,190)" stroke="rgb(77,159,152)" stroke-width="1" opacity="0.75" />
			</g>
			<g>
				<title>Clp_N (PF02861)
"Clp amino terminal domain, pathogenicity island component"</title>
				<rect class="PF02861" x="475" y="28" stroke-linejoin="round" width="4" height="24" fill="rgb(97,199,190)" stroke="rgb(77,159,152)" stroke-width="1" opacity="0.75" />
			</g>
			<g>
				<title>AAA (PF00004)
"ATPase family associated with various cellular activities (AAA)"</title>
				<rect class="PF00004" x="486" y="28" stroke-linejoin="round" width="13" height="24" fill="rgb(57,194,204)" stroke="rgb(45,155,163)" stroke-width="1" opacity="0.75" />
			</g>
			<g>
				<title>AAA_lid_9 (PF17871)
"AAA lid domain"</title>
				<rect class="PF17871" x="500" y="28" stroke-linejoin="round" width="9" height="24" fill="rgb(154,182,60)" stroke="rgb(123,145,48)" stroke-width="1" opacity="0.75" />
			</g>
			<g>
				<title>AAA_2 (PF07724)
"AAA domain (Cdc48 subfamily)"</title>
				<polygon class="PF07724" points="514,28 527,28 531,32 531,48 527,52 514,52" stroke-linejoin="round" width="17" height="24" fill="rgb(132,215,72)" stroke="rgb(105,172,57)" stroke-width="1" opacity="0.75" />
			</g>
			<g>
				<title>ClpB_D2-small (PF10431)
"C-terminal, D2-small domain, of ClpB protein"</title>
				<polygon class="PF10431" points="533,34 539,40 533,46" stroke-linejoin="round" width="8" height="24" fill="rgb(190,198,67)" stroke="rgb(152,158,53)" stroke-width="1" opacity="0.75" />
			</g>
		</g>
		<g>
			<title> (ctg607_60)</title>
			<polygon class=" (ctg607_60)" points="547,10 569,40 547,70" fill="rgb(255,255,255)" fill-opacity="1.0" stroke="rgb(0,0,0)" stroke-width="2"  />
			<g>
				<title>SNARE_assoc (PF09335)
"SNARE associated Golgi protein"</title>
				<polygon class="PF09335" points="555,28 556,28 565,40 556,52 555,52" stroke-linejoin="round" width="12" height="24" fill="rgb(145,188,82)" stroke="rgb(116,150,65)" stroke-width="1" opacity="0.75" />
			</g>
		</g>
		<g>
			<title> (ctg607_61)</title>
			<polygon class=" (ctg607_61)" points="572,25 582,25 582,10 612,40 582,70 582,55 572,55" fill="rgb(255,255,255)" fill-opacity="1.0" stroke="rgb(0,0,0)" stroke-width="2"  />
			<g>
				<title>IspD (PF01128)
"2-C-methyl-D-erythritol 4-phosphate cytidylyltransferase"</title>
				<rect class="PF01128" x="573" y="28" stroke-linejoin="round" width="22" height="24" fill="rgb(113,223,84)" stroke="rgb(90,178,67)" stroke-width="1" opacity="0.75" />
			</g>
			<g>
				<title>YgbB (PF02542)
"YgbB family"</title>
				<polygon class="PF02542" points="596,28 596,28 608,40 596,52 596,52" stroke-linejoin="round" width="15" height="24" fill="rgb(183,87,193)" stroke="rgb(146,69,154)" stroke-width="1" opacity="0.75" />
			</g>
		</g>
		<g>
			<title> (ctg607_62)</title>
			<polygon class=" (ctg607_62)" points="613,25 628,25 628,10 658,40 628,70 628,55 613,55" fill="rgb(255,255,255)" fill-opacity="1.0" stroke="rgb(0,0,0)" stroke-width="2"  />
			<g>
				<title>tRNA-synt_1e (PF01406)
"tRNA synthetases class I (C) catalytic domain"</title>
				<polygon class="PF01406" points="614,28 642,28 644,30 644,50 642,52 614,52" stroke-linejoin="round" width="30" height="24" fill="rgb(131,218,83)" stroke="rgb(104,174,66)" stroke-width="1" opacity="0.75" />
			</g>
			<g>
				<title>DALR_2 (PF09190)
"DALR domain"</title>
				<polygon class="PF09190" points="647,33 652,38 652,42 647,47" stroke-linejoin="round" width="5" height="24" fill="rgb(70,57,193)" stroke="rgb(56,45,154)" stroke-width="1" opacity="0.75" />
			</g>
		</g>
		<g>
			<title> (ctg607_63)</title>
			<polygon class=" (ctg607_63)" points="659,40 666,10 666,70" fill="rgb(255,255,255)" fill-opacity="1.0" stroke="rgb(0,0,0)" stroke-width="2"  />
			<g>
				<title>SecG (PF03840)
"Preprotein translocase SecG subunit"</title>
				<polygon class="PF03840" points="662,40 665,28 665,28 665,52 665,52" stroke-linejoin="round" width="6" height="24" fill="rgb(226,130,104)" stroke="rgb(180,104,83)" stroke-width="1" opacity="0.75" />
			</g>
		</g>
		<g>
			<title> (ctg607_64)</title>
			<polygon class=" (ctg607_64)" points="717,25 698,25 698,10 668,40 698,70 698,55 717,55" fill="rgb(255,255,255)" fill-opacity="1.0" stroke="rgb(0,0,0)" stroke-width="2"  />
			<g>
				<title>GatB_Yqey (PF02637)
"GatB domain"</title>
				<polygon class="PF02637" points="672,40 683,29 683,51" stroke-linejoin="round" width="15" height="24" fill="rgb(84,191,125)" stroke="rgb(67,152,99)" stroke-width="1" opacity="0.75" />
			</g>
			<g>
				<title>GatB_N (PF02934)
"GatB/GatE catalytic domain"</title>
				<rect class="PF02934" x="687" y="28" stroke-linejoin="round" width="28" height="24" fill="rgb(66,215,132)" stroke="rgb(52,172,105)" stroke-width="1" opacity="0.75" />
			</g>
		</g>
	</g>
</svg>
