<svg version="1.1" baseProfile="full" xmlns="http://www.w3.org/2000/svg" width="343.3333333333333" height="80">
	<g>
		<line x1="10" y1="40.0" x2="333.3333333333333" y2="40.0" style="stroke:rgb(70,70,70); stroke-width:3 "/>
		<g>
			<title> (ctg6773_1)</title>
			<polygon class=" (ctg6773_1)" points="10,40 15,10 15,70" fill="rgb(255,255,255)" fill-opacity="1.0" stroke="rgb(0,0,0)" stroke-width="2"  />
			<g>
				<title>Bac_DNA_binding (PF00216)
"Bacterial DNA-binding protein"</title>
				<polygon class="PF00216" points="13,40 15,28 15,28 15,52 15,52" stroke-linejoin="round" width="5" height="24" fill="rgb(73,205,204)" stroke="rgb(58,164,163)" stroke-width="1" opacity="0.75" />
			</g>
		</g>
		<g>
			<title> (ctg6773_2)</title>
			<polygon class=" (ctg6773_2)" points="25,40 39,10 39,70" fill="rgb(255,255,255)" fill-opacity="1.0" stroke="rgb(0,0,0)" stroke-width="2"  />
			<g>
				<title>HTH_20 (PF12840)
"Helix-turn-helix domain"</title>
				<polygon class="PF12840" points="33,30 34,28 39,28 39,52 34,52 33,50" stroke-linejoin="round" width="6" height="24" fill="rgb(157,225,93)" stroke="rgb(125,180,74)" stroke-width="1" opacity="0.75" />
			</g>
		</g>
		<g>
			<title> (ctg6773_3)</title>
			<polygon class=" (ctg6773_3)" points="45,10 58,40 45,70" fill="rgb(255,255,255)" fill-opacity="1.0" stroke="rgb(0,0,0)" stroke-width="2"  />
		</g>
		<g>
			<title> (ctg6773_4)</title>
			<polygon class=" (ctg6773_4)" points="60,10 73,40 60,70" fill="rgb(255,255,255)" fill-opacity="1.0" stroke="rgb(0,0,0)" stroke-width="2"  />
		</g>
		<g>
			<title> (ctg6773_5)</title>
			<polygon class=" (ctg6773_5)" points="74,10 83,40 74,70" fill="rgb(255,255,255)" fill-opacity="1.0" stroke="rgb(0,0,0)" stroke-width="2"  />
		</g>
		<g>
			<title> (ctg6773_6)</title>
			<polygon class=" (ctg6773_6)" points="87,25 132,25 132,10 162,40 132,70 132,55 87,55" fill="rgb(255,255,255)" fill-opacity="1.0" stroke="rgb(0,0,0)" stroke-width="2"  />
			<g>
				<title>YcaO (PF02624)
"YcaO cyclodehydratase, ATP-ad Mg2+-binding"</title>
				<polygon class="PF02624" points="124,28 145,28 157,40 157,40 145,52 124,52" stroke-linejoin="round" width="33" height="24" fill="rgb(76,84,185)" stroke="rgb(60,67,148)" stroke-width="1" opacity="0.75" />
			</g>
		</g>
		<g>
			<title> (ctg6773_7)</title>
			<polygon class=" (ctg6773_7)" points="162,25 179,25 179,10 209,40 179,70 179,55 162,55" fill="rgb(255,255,255)" fill-opacity="1.0" stroke="rgb(0,0,0)" stroke-width="2"  />
		</g>
		<g>
			<title> (ctg6773_8)</title>
			<polygon class=" (ctg6773_8)" points="209,25 224,25 224,10 254,40 224,70 224,55 209,55" fill="rgb(255,255,255)" fill-opacity="1.0" stroke="rgb(0,0,0)" stroke-width="2"  />
			<g>
				<title>Nitroreductase (PF00881)
"Nitroreductase family"</title>
				<polygon class="PF00881" points="234,28 238,28 250,40 238,52 234,52" stroke-linejoin="round" width="19" height="24" fill="rgb(79,118,187)" stroke="rgb(63,94,149)" stroke-width="1" opacity="0.75" />
			</g>
		</g>
		<g>
			<title> (ctg6773_9)</title>
			<polygon class=" (ctg6773_9)" points="255,25 303,25 303,10 333,40 303,70 303,55 255,55" fill="rgb(255,255,255)" fill-opacity="1.0" stroke="rgb(0,0,0)" stroke-width="2"  />
			<g>
				<title>DUF4135 (PF13575)
"Domain of unknown function (DUF4135)"</title>
				<rect class="PF13575" x="271" y="28" stroke-linejoin="round" width="35" height="24" fill="rgb(228,84,217)" stroke="rgb(182,67,173)" stroke-width="1" opacity="0.75" />
			</g>
		</g>
	</g>
</svg>
