<svg version="1.1" baseProfile="full" xmlns="http://www.w3.org/2000/svg" width="418.53333333333336" height="80">
	<g>
		<line x1="10" y1="40.0" x2="408.53333333333336" y2="40.0" style="stroke:rgb(70,70,70); stroke-width:3 "/>
		<g>
			<title> (ctg454_30)</title>
			<polygon class=" (ctg454_30)" points="46,10 61,40 46,70" fill="rgb(255,255,255)" fill-opacity="1.0" stroke="rgb(0,0,0)" stroke-width="2"  />
			<g>
				<title>LAGLIDADG_3 (PF14528)
"LAGLIDADG-like domain"</title>
				<polygon class="PF14528" points="47,28 51,28 55,35 55,45 51,52 47,52" stroke-linejoin="round" width="8" height="24" fill="rgb(97,101,195)" stroke="rgb(77,80,156)" stroke-width="1" opacity="0.75" />
			</g>
		</g>
		<g>
			<title> (ctg454_31)</title>
			<polygon class=" (ctg454_31)" points="64,10 69,40 64,70" fill="rgb(255,255,255)" fill-opacity="1.0" stroke="rgb(0,0,0)" stroke-width="2"  />
		</g>
		<g>
			<title> (ctg454_32)</title>
			<polygon class=" (ctg454_32)" points="69,25 97,25 97,10 127,40 97,70 97,55 69,55" fill="rgb(255,255,255)" fill-opacity="1.0" stroke="rgb(0,0,0)" stroke-width="2"  />
			<g>
				<title>Xan_ur_permease (PF00860)
"Permease family"</title>
				<rect class="PF00860" x="71" y="28" stroke-linejoin="round" width="38" height="24" fill="rgb(216,88,217)" stroke="rgb(172,70,173)" stroke-width="1" opacity="0.75" />
			</g>
		</g>
		<g>
			<title> (ctg454_33)</title>
			<polygon class=" (ctg454_33)" points="139,10 154,40 139,70" fill="rgb(255,255,255)" fill-opacity="1.0" stroke="rgb(0,0,0)" stroke-width="2"  />
		</g>
		<g>
			<title> (ctg454_34)</title>
			<polygon class=" (ctg454_34)" points="165,10 176,40 165,70" fill="rgb(255,255,255)" fill-opacity="1.0" stroke="rgb(0,0,0)" stroke-width="2"  />
			<g>
				<title>Pterin_4a (PF01329)
"Pterin 4 alpha carbinolamine dehydratase"</title>
				<polygon class="PF01329" points="166,28 168,28 173,40 168,52 166,52" stroke-linejoin="round" width="9" height="24" fill="rgb(109,209,90)" stroke="rgb(87,167,72)" stroke-width="1" opacity="0.75" />
			</g>
		</g>
		<g>
			<title> (ctg454_35)</title>
			<polygon class=" (ctg454_35)" points="176,25 211,25 211,10 241,40 211,70 211,55 176,55" fill="rgb(255,255,255)" fill-opacity="1.0" stroke="rgb(0,0,0)" stroke-width="2"  />
			<g>
				<title>B12-binding (PF02310)
"B12 binding domain"</title>
				<rect class="PF02310" x="190" y="28" stroke-linejoin="round" width="8" height="24" fill="rgb(145,190,60)" stroke="rgb(115,152,48)" stroke-width="1" opacity="0.75" />
			</g>
		</g>
		<g>
			<title> (ctg454_36)</title>
			<polygon class=" (ctg454_36)" points="242,10 249,40 242,70" fill="rgb(255,255,255)" fill-opacity="1.0" stroke="rgb(0,0,0)" stroke-width="2"  />
		</g>
		<g>
			<title> (ctg454_37)</title>
			<polygon class=" (ctg454_37)" points="261,10 284,40 261,70" fill="rgb(255,255,255)" fill-opacity="1.0" stroke="rgb(0,0,0)" stroke-width="2"  />
			<g>
				<title>DUF502 (PF04367)
"Protein of unknown function (DUF502)"</title>
				<polygon class="PF04367" points="267,28 271,28 277,36 277,44 271,52 267,52" stroke-linejoin="round" width="10" height="24" fill="rgb(56,223,87)" stroke="rgb(44,178,69)" stroke-width="1" opacity="0.75" />
			</g>
		</g>
		<g>
			<title> (ctg454_38)</title>
			<polygon class=" (ctg454_38)" points="290,25 297,25 297,10 327,40 297,70 297,55 290,55" fill="rgb(255,255,255)" fill-opacity="1.0" stroke="rgb(0,0,0)" stroke-width="2"  />
			<g>
				<title>HlyD_D23 (PF16576)
"Barrel-sandwich domain of CusB or HlyD membrane-fusion"</title>
				<polygon class="PF16576" points="295,28 311,28 318,35 318,45 311,52 295,52" stroke-linejoin="round" width="23" height="24" fill="rgb(70,190,92)" stroke="rgb(56,152,73)" stroke-width="1" opacity="0.75" />
			</g>
		</g>
	</g>
</svg>
