<svg version="1.1" baseProfile="full" xmlns="http://www.w3.org/2000/svg" width="1423.4" height="80">
	<g>
		<line x1="10" y1="40.0" x2="1413.4" y2="40.0" style="stroke:rgb(70,70,70); stroke-width:3 "/>
		<g>
			<title> (ctg1155_1)</title>
			<polygon class=" (ctg1155_1)" points="69,25 40,25 40,10 10,40 40,70 40,55 69,55" fill="rgb(255,255,255)" fill-opacity="1.0" stroke="rgb(0,0,0)" stroke-width="2"  />
			<g>
				<title>ACR_tran (PF00873)
"AcrB/AcrD/AcrF family"</title>
				<polygon class="PF00873" points="14,40 26,28 67,28 67,52 26,52" stroke-linejoin="round" width="57" height="24" fill="rgb(63,191,60)" stroke="rgb(50,152,48)" stroke-width="1" opacity="0.75" />
			</g>
		</g>
		<g>
			<title> (ctg1155_2)</title>
			<polygon class=" (ctg1155_2)" points="109,25 99,25 99,10 69,40 99,70 99,55 109,55" fill="rgb(255,255,255)" fill-opacity="1.0" stroke="rgb(0,0,0)" stroke-width="2"  />
			<g>
				<title>HlyD_3 (PF13437)
"HlyD family secretion protein"</title>
				<polygon class="PF13437" points="78,35 85,28 89,28 89,52 85,52 78,45" stroke-linejoin="round" width="11" height="24" fill="rgb(82,200,102)" stroke="rgb(65,160,81)" stroke-width="1" opacity="0.75" />
			</g>
		</g>
		<g>
			<title> (ctg1155_3)</title>
			<polygon class=" (ctg1155_3)" points="147,25 139,25 139,10 109,40 139,70 139,55 147,55" fill="rgb(255,255,255)" fill-opacity="1.0" stroke="rgb(0,0,0)" stroke-width="2"  />
			<g>
				<title>OEP (PF02321)
"Outer membrane efflux protein"</title>
				<polygon class="PF02321" points="113,40 125,28 129,28 129,52 125,52" stroke-linejoin="round" width="18" height="24" fill="rgb(205,57,201)" stroke="rgb(164,45,160)" stroke-width="1" opacity="0.75" />
			</g>
			<g>
				<title>OEP (PF02321)
"Outer membrane efflux protein"</title>
				<rect class="PF02321" x="132" y="28" stroke-linejoin="round" width="14" height="24" fill="rgb(205,57,201)" stroke="rgb(164,45,160)" stroke-width="1" opacity="0.75" />
			</g>
		</g>
		<g>
			<title> (ctg1155_4)</title>
			<polygon class=" (ctg1155_4)" points="155,10 166,40 155,70" fill="rgb(255,255,255)" fill-opacity="1.0" stroke="rgb(0,0,0)" stroke-width="2"  />
		</g>
		<g>
			<title> (ctg1155_5)</title>
			<polygon class=" (ctg1155_5)" points="166,40 173,10 173,70" fill="rgb(255,255,255)" fill-opacity="1.0" stroke="rgb(0,0,0)" stroke-width="2"  />
		</g>
		<g>
			<title> (ctg1155_6)</title>
			<polygon class=" (ctg1155_6)" points="186,25 198,25 198,10 228,40 198,70 198,55 186,55" fill="rgb(255,255,255)" fill-opacity="1.0" stroke="rgb(0,0,0)" stroke-width="2"  />
			<g>
				<title>Peripla_BP_6 (PF13458)
"Periplasmic binding protein"</title>
				<polygon class="PF13458" points="191,28 211,28 223,40 211,52 191,52" stroke-linejoin="round" width="34" height="24" fill="rgb(94,183,81)" stroke="rgb(75,146,64)" stroke-width="1" opacity="0.75" />
			</g>
		</g>
		<g>
			<title> (ctg1155_7)</title>
			<polygon class=" (ctg1155_7)" points="240,25 248,25 248,10 278,40 248,70 248,55 240,55" fill="rgb(255,255,255)" fill-opacity="1.0" stroke="rgb(0,0,0)" stroke-width="2"  />
			<g>
				<title>Acyl_transf_3 (PF01757)
"Acyltransferase family"</title>
				<polygon class="PF01757" points="242,28 261,28 273,40 261,52 242,52" stroke-linejoin="round" width="33" height="24" fill="rgb(50,152,200)" stroke="rgb(40,121,160)" stroke-width="1" opacity="0.75" />
			</g>
		</g>
		<g>
			<title> (ctg1155_8)</title>
			<polygon class=" (ctg1155_8)" points="279,25 306,25 306,10 336,40 306,70 306,55 279,55" fill="rgb(255,255,255)" fill-opacity="1.0" stroke="rgb(0,0,0)" stroke-width="2"  />
			<g>
				<title>Xan_ur_permease (PF00860)
"Permease family"</title>
				<rect class="PF00860" x="281" y="28" stroke-linejoin="round" width="38" height="24" fill="rgb(216,88,217)" stroke="rgb(172,70,173)" stroke-width="1" opacity="0.75" />
			</g>
		</g>
		<g>
			<title> (ctg1155_9)</title>
			<polygon class=" (ctg1155_9)" points="368,25 368,25 368,10 338,40 368,70 368,55 368,55" fill="rgb(255,255,255)" fill-opacity="1.0" stroke="rgb(0,0,0)" stroke-width="2"  />
			<g>
				<title>Abhydrolase_6 (PF12697)
"Alpha/beta hydrolase family"</title>
				<polygon class="PF12697" points="342,40 354,28 364,28 364,52 354,52" stroke-linejoin="round" width="25" height="24" fill="rgb(113,71,219)" stroke="rgb(90,56,175)" stroke-width="1" opacity="0.75" />
			</g>
		</g>
		<g>
			<title> (ctg1155_10)</title>
			<polygon class=" (ctg1155_10)" points="368,40 391,10 391,70" fill="rgb(255,255,255)" fill-opacity="1.0" stroke="rgb(0,0,0)" stroke-width="2"  />
			<g>
				<title>ACPS (PF01648)
"4'-phosphopantetheinyl transferase superfamily"</title>
				<polygon class="PF01648" points="372,40 378,32 378,48" stroke-linejoin="round" width="10" height="24" fill="rgb(85,184,135)" stroke="rgb(68,147,108)" stroke-width="1" opacity="0.75" />
			</g>
		</g>
		<g>
			<title> (ctg1155_11)</title>
			<polygon class=" (ctg1155_11)" points="397,40 403,10 403,70" fill="rgb(255,255,255)" fill-opacity="1.0" stroke="rgb(0,0,0)" stroke-width="2"  />
		</g>
		<g>
			<title> (ctg1155_12)</title>
			<polygon class=" (ctg1155_12)" points="505,25 437,25 437,10 407,40 437,70 437,55 505,55" fill="rgb(255,255,255)" fill-opacity="1.0" stroke="rgb(0,0,0)" stroke-width="2"  />
			<g>
				<title>Acyl_transf_1 (PF00698)
"Acyl transferase domain"</title>
				<polygon class="PF00698" points="422,29 423,28 434,28 434,52 423,52 422,51" stroke-linejoin="round" width="12" height="24" fill="rgb(59,176,209)" stroke="rgb(47,140,167)" stroke-width="1" opacity="0.75" />
			</g>
			<g>
				<title>KAsynt_C_assoc (PF16197)
"Ketoacyl-synthetase C-terminal extension"</title>
				<rect class="PF16197" x="439" y="28" stroke-linejoin="round" width="13" height="24" fill="rgb(240,150,172)" stroke="rgb(192,120,137)" stroke-width="1" opacity="0.75" />
			</g>
			<g>
				<title>Ketoacyl-synt_C (PF02801)
"Beta-ketoacyl synthase, C-terminal domain"</title>
				<rect class="PF02801" x="453" y="28" stroke-linejoin="round" width="11" height="24" fill="rgb(215,78,102)" stroke="rgb(172,62,81)" stroke-width="1" opacity="0.75" />
			</g>
			<g>
				<title>ketoacyl-synt (PF00109)
"Beta-ketoacyl synthase, N-terminal domain"</title>
				<rect class="PF00109" x="465" y="28" stroke-linejoin="round" width="24" height="24" fill="rgb(112,116,228)" stroke="rgb(89,92,182)" stroke-width="1" opacity="0.75" />
			</g>
			<g>
				<title>PP-binding (PF00550)
"Phosphopantetheine attachment site"</title>
				<rect class="PF00550" x="493" y="28" stroke-linejoin="round" width="6" height="24" fill="rgb(103,191,88)" stroke="rgb(82,152,70)" stroke-width="1" opacity="0.75" />
			</g>
		</g>
		<g>
			<title> (ctg1155_13)</title>
			<polygon class=" (ctg1155_13)" points="513,10 522,40 513,70" fill="rgb(255,255,255)" fill-opacity="1.0" stroke="rgb(0,0,0)" stroke-width="2"  />
		</g>
		<g>
			<title> (ctg1155_14)</title>
			<polygon class=" (ctg1155_14)" points="523,10 543,40 523,70" fill="rgb(255,255,255)" fill-opacity="1.0" stroke="rgb(0,0,0)" stroke-width="2"  />
		</g>
		<g>
			<title> (ctg1155_15)</title>
			<polygon class=" (ctg1155_15)" points="746,25 567,25 567,10 537,40 567,70 567,55 746,55" fill="rgb(255,255,255)" fill-opacity="1.0" stroke="rgb(0,0,0)" stroke-width="2"  />
			<g>
				<title>Methyltransf_12 (PF08242)
"Methyltransferase domain"</title>
				<rect class="PF08242" x="590" y="28" stroke-linejoin="round" width="10" height="24" fill="rgb(187,59,115)" stroke="rgb(149,47,92)" stroke-width="1" opacity="0.75" />
			</g>
			<g>
				<title>PS-DH (PF14765)
"Polyketide synthase dehydratase"</title>
				<rect class="PF14765" x="624" y="28" stroke-linejoin="round" width="29" height="24" fill="rgb(173,56,182)" stroke="rgb(138,44,145)" stroke-width="1" opacity="0.75" />
			</g>
			<g>
				<title>Acyl_transf_1 (PF00698)
"Acyl transferase domain"</title>
				<rect class="PF00698" x="661" y="28" stroke-linejoin="round" width="29" height="24" fill="rgb(59,176,209)" stroke="rgb(47,140,167)" stroke-width="1" opacity="0.75" />
			</g>
			<g>
				<title>KAsynt_C_assoc (PF16197)
"Ketoacyl-synthetase C-terminal extension"</title>
				<rect class="PF16197" x="694" y="28" stroke-linejoin="round" width="14" height="24" fill="rgb(240,150,172)" stroke="rgb(192,120,137)" stroke-width="1" opacity="0.75" />
			</g>
			<g>
				<title>Ketoacyl-synt_C (PF02801)
"Beta-ketoacyl synthase, C-terminal domain"</title>
				<rect class="PF02801" x="709" y="28" stroke-linejoin="round" width="11" height="24" fill="rgb(215,78,102)" stroke="rgb(172,62,81)" stroke-width="1" opacity="0.75" />
			</g>
			<g>
				<title>ketoacyl-synt (PF00109)
"Beta-ketoacyl synthase, N-terminal domain"</title>
				<rect class="PF00109" x="722" y="28" stroke-linejoin="round" width="24" height="24" fill="rgb(112,116,228)" stroke="rgb(89,92,182)" stroke-width="1" opacity="0.75" />
			</g>
		</g>
		<g>
			<title> (ctg1155_16)</title>
			<polygon class=" (ctg1155_16)" points="750,40 757,10 757,70" fill="rgb(255,255,255)" fill-opacity="1.0" stroke="rgb(0,0,0)" stroke-width="2"  />
		</g>
		<g>
			<title> (ctg1155_17)</title>
			<polygon class=" (ctg1155_17)" points="847,25 789,25 789,10 759,40 789,70 789,55 847,55" fill="rgb(255,255,255)" fill-opacity="1.0" stroke="rgb(0,0,0)" stroke-width="2"  />
			<g>
				<title>FlgD_ig (PF13860)
"FlgD Ig-like domain"</title>
				<polygon class="PF13860" points="763,40 766,37 766,43" stroke-linejoin="round" width="6" height="24" fill="rgb(135,90,185)" stroke="rgb(108,72,148)" stroke-width="1" opacity="0.75" />
			</g>
			<g>
				<title>LTD (PF00932)
"Lamin Tail Domain"</title>
				<rect class="PF00932" x="831" y="28" stroke-linejoin="round" width="11" height="24" fill="rgb(71,205,221)" stroke="rgb(56,164,176)" stroke-width="1" opacity="0.75" />
			</g>
		</g>
		<g>
			<title> (ctg1155_18)</title>
			<polygon class=" (ctg1155_18)" points="851,10 856,40 851,70" fill="rgb(255,255,255)" fill-opacity="1.0" stroke="rgb(0,0,0)" stroke-width="2"  />
		</g>
		<g>
			<title> (ctg1155_19)</title>
			<polygon class=" (ctg1155_19)" points="864,10 884,40 864,70" fill="rgb(255,255,255)" fill-opacity="1.0" stroke="rgb(0,0,0)" stroke-width="2"  />
			<g>
				<title>Aconitase_C (PF00694)
"Aconitase C-terminal domain"</title>
				<polygon class="PF00694" points="864,28 872,28 875,32 875,48 872,52 864,52" stroke-linejoin="round" width="11" height="24" fill="rgb(63,185,92)" stroke="rgb(50,148,73)" stroke-width="1" opacity="0.75" />
			</g>
		</g>
		<g>
			<title> (ctg1155_20)</title>
			<polygon class=" (ctg1155_20)" points="886,25 891,25 891,10 921,40 891,70 891,55 886,55" fill="rgb(255,255,255)" fill-opacity="1.0" stroke="rgb(0,0,0)" stroke-width="2"  />
			<g>
				<title>Iso_dh (PF00180)
"Isocitrate/isopropylmalate dehydrogenase"</title>
				<polygon class="PF00180" points="886,28 905,28 917,40 905,52 886,52" stroke-linejoin="round" width="34" height="24" fill="rgb(109,54,206)" stroke="rgb(87,43,164)" stroke-width="1" opacity="0.75" />
			</g>
		</g>
		<g>
			<title> (ctg1155_21)</title>
			<polygon class=" (ctg1155_21)" points="922,25 945,25 945,10 975,40 945,70 945,55 922,55" fill="rgb(255,255,255)" fill-opacity="1.0" stroke="rgb(0,0,0)" stroke-width="2"  />
			<g>
				<title>HMGL-like (PF00682)
"HMGL-like"</title>
				<rect class="PF00682" x="922" y="28" stroke-linejoin="round" width="27" height="24" fill="rgb(84,228,141)" stroke="rgb(67,182,112)" stroke-width="1" opacity="0.75" />
			</g>
			<g>
				<title>LeuA_dimer (PF08502)
"LeuA allosteric (dimerisation) domain"</title>
				<polygon class="PF08502" points="959,28 959,28 971,40 959,52 959,52" stroke-linejoin="round" width="14" height="24" fill="rgb(182,95,71)" stroke="rgb(145,76,56)" stroke-width="1" opacity="0.75" />
			</g>
		</g>
		<g>
			<title> (ctg1155_22)</title>
			<polygon class=" (ctg1155_22)" points="976,25 986,25 986,10 1016,40 986,70 986,55 976,55" fill="rgb(255,255,255)" fill-opacity="1.0" stroke="rgb(0,0,0)" stroke-width="2"  />
			<g>
				<title>ArgJ (PF01960)
"ArgJ family"</title>
				<polygon class="PF01960" points="977,28 999,28 1011,40 999,52 977,52" stroke-linejoin="round" width="38" height="24" fill="rgb(81,120,181)" stroke="rgb(64,95,144)" stroke-width="1" opacity="0.75" />
			</g>
		</g>
		<g>
			<title> (ctg1155_23)</title>
			<polygon class=" (ctg1155_23)" points="1016,25 1025,25 1025,10 1055,40 1025,70 1025,55 1016,55" fill="rgb(255,255,255)" fill-opacity="1.0" stroke="rgb(0,0,0)" stroke-width="2"  />
			<g>
				<title>Aminotran_1_2 (PF00155)
"Aminotransferase class I and II"</title>
				<polygon class="PF00155" points="1019,28 1039,28 1051,40 1039,52 1019,52" stroke-linejoin="round" width="36" height="24" fill="rgb(89,113,198)" stroke="rgb(71,90,158)" stroke-width="1" opacity="0.75" />
			</g>
		</g>
		<g>
			<title> (ctg1155_24)</title>
			<polygon class=" (ctg1155_24)" points="1060,25 1062,25 1062,10 1092,40 1062,70 1062,55 1060,55" fill="rgb(255,255,255)" fill-opacity="1.0" stroke="rgb(0,0,0)" stroke-width="2"  />
			<g>
				<title>ACCA (PF03255)
"Acetyl co-enzyme A carboxylase carboxyltransferase alpha subunit"</title>
				<rect class="PF03255" x="1060" y="28" stroke-linejoin="round" width="14" height="24" fill="rgb(66,101,203)" stroke="rgb(52,80,162)" stroke-width="1" opacity="0.75" />
			</g>
		</g>
		<g>
			<title> (ctg1155_25)</title>
			<polygon class=" (ctg1155_25)" points="1095,40 1098,10 1098,70" fill="rgb(255,255,255)" fill-opacity="1.0" stroke="rgb(0,0,0)" stroke-width="2"  />
		</g>
		<g>
			<title> (ctg1155_26)</title>
			<polygon class=" (ctg1155_26)" points="1100,40 1123,10 1123,70" fill="rgb(255,255,255)" fill-opacity="1.0" stroke="rgb(0,0,0)" stroke-width="2"  />
			<g>
				<title>DUF5343 (PF17278)
"Family of unknown function (DUF5343)"</title>
				<polygon class="PF17278" points="1108,35 1114,28 1121,28 1121,52 1114,52 1108,45" stroke-linejoin="round" width="13" height="24" fill="rgb(227,225,78)" stroke="rgb(181,180,62)" stroke-width="1" opacity="0.75" />
			</g>
		</g>
		<g>
			<title> (ctg1155_27)</title>
			<polygon class=" (ctg1155_27)" points="1126,40 1139,10 1139,70" fill="rgb(255,255,255)" fill-opacity="1.0" stroke="rgb(0,0,0)" stroke-width="2"  />
			<g>
				<title>QueF (PF14489)
"QueF-like protein"</title>
				<polygon class="PF14489" points="1129,40 1133,31 1133,49" stroke-linejoin="round" width="7" height="24" fill="rgb(91,158,228)" stroke="rgb(72,126,182)" stroke-width="1" opacity="0.75" />
			</g>
		</g>
		<g>
			<title> (ctg1155_28)</title>
			<polygon class=" (ctg1155_28)" points="1141,40 1163,10 1163,70" fill="rgb(255,255,255)" fill-opacity="1.0" stroke="rgb(0,0,0)" stroke-width="2"  />
			<g>
				<title>QueC (PF06508)
"Queuosine biosynthesis protein QueC"</title>
				<polygon class="PF06508" points="1145,40 1154,28 1162,28 1162,52 1154,52" stroke-linejoin="round" width="20" height="24" fill="rgb(217,93,123)" stroke="rgb(173,74,98)" stroke-width="1" opacity="0.75" />
			</g>
		</g>
		<g>
			<title> (ctg1155_29)</title>
			<polygon class=" (ctg1155_29)" points="1171,25 1223,25 1223,10 1253,40 1223,70 1223,55 1171,55" fill="rgb(255,255,255)" fill-opacity="1.0" stroke="rgb(0,0,0)" stroke-width="2"  />
			<g>
				<title>DAO (PF01266)
"FAD dependent oxidoreductase"</title>
				<rect class="PF01266" x="1171" y="28" stroke-linejoin="round" width="36" height="24" fill="rgb(123,179,59)" stroke="rgb(98,143,47)" stroke-width="1" opacity="0.75" />
			</g>
			<g>
				<title>FAO_M (PF16350)
"FAD dependent oxidoreductase central domain"</title>
				<rect class="PF16350" x="1208" y="28" stroke-linejoin="round" width="5" height="24" fill="rgb(77,180,113)" stroke="rgb(61,144,90)" stroke-width="1" opacity="0.75" />
			</g>
			<g>
				<title>GCV_T (PF01571)
"Aminomethyltransferase folate-binding domain"</title>
				<polygon class="PF01571" points="1213,28 1236,28 1240,32 1240,48 1236,52 1213,52" stroke-linejoin="round" width="27" height="24" fill="rgb(112,228,161)" stroke="rgb(89,182,128)" stroke-width="1" opacity="0.75" />
			</g>
			<g>
				<title>GCV_T_C (PF08669)
"Glycine cleavage T-protein C-terminal barrel domain"</title>
				<polygon class="PF08669" points="1244,36 1248,40 1244,44" stroke-linejoin="round" width="7" height="24" fill="rgb(184,178,54)" stroke="rgb(147,142,43)" stroke-width="1" opacity="0.75" />
			</g>
		</g>
		<g>
			<title> (ctg1155_30)</title>
			<polygon class=" (ctg1155_30)" points="1255,25 1257,25 1257,10 1287,40 1257,70 1257,55 1255,55" fill="rgb(255,255,255)" fill-opacity="1.0" stroke="rgb(0,0,0)" stroke-width="2"  />
			<g>
				<title>S-methyl_trans (PF02574)
"Homocysteine S-methyltransferase"</title>
				<polygon class="PF02574" points="1256,28 1271,28 1283,40 1271,52 1256,52" stroke-linejoin="round" width="28" height="24" fill="rgb(130,111,228)" stroke="rgb(103,88,182)" stroke-width="1" opacity="0.75" />
			</g>
		</g>
		<g>
			<title> (ctg1155_31)</title>
			<polygon class=" (ctg1155_31)" points="1291,25 1302,25 1302,10 1332,40 1302,70 1302,55 1291,55" fill="rgb(255,255,255)" fill-opacity="1.0" stroke="rgb(0,0,0)" stroke-width="2"  />
			<g>
				<title>LYTB (PF02401)
"LytB protein"</title>
				<polygon class="PF02401" points="1295,28 1316,28 1328,40 1316,52 1295,52" stroke-linejoin="round" width="35" height="24" fill="rgb(155,62,193)" stroke="rgb(124,49,154)" stroke-width="1" opacity="0.75" />
			</g>
		</g>
		<g>
			<title> (ctg1155_32)</title>
			<polygon class=" (ctg1155_32)" points="1333,10 1343,40 1333,70" fill="rgb(255,255,255)" fill-opacity="1.0" stroke="rgb(0,0,0)" stroke-width="2"  />
			<g>
				<title>EutN_CcmL (PF03319)
"Ethanolamine utilisation protein EutN/carboxysome"</title>
				<polygon class="PF03319" points="1333,28 1335,28 1340,40 1335,52 1333,52" stroke-linejoin="round" width="8" height="24" fill="rgb(193,100,75)" stroke="rgb(154,80,60)" stroke-width="1" opacity="0.75" />
			</g>
		</g>
		<g>
			<title> (ctg1155_33)</title>
			<polygon class=" (ctg1155_33)" points="1343,10 1346,40 1343,70" fill="rgb(255,255,255)" fill-opacity="1.0" stroke="rgb(0,0,0)" stroke-width="2"  />
		</g>
		<g>
			<title> (ctg1155_34)</title>
			<polygon class=" (ctg1155_34)" points="1347,10 1366,40 1347,70" fill="rgb(255,255,255)" fill-opacity="1.0" stroke="rgb(0,0,0)" stroke-width="2"  />
			<g>
				<title>BMC (PF00936)
"BMC domain"</title>
				<rect class="PF00936" x="1347" y="28" stroke-linejoin="round" width="7" height="24" fill="rgb(184,205,98)" stroke="rgb(147,164,78)" stroke-width="1" opacity="0.75" />
			</g>
			<g>
				<title>BMC (PF00936)
"BMC domain"</title>
				<polygon class="PF00936" points="1357,32 1362,40 1357,48" stroke-linejoin="round" width="7" height="24" fill="rgb(184,205,98)" stroke="rgb(147,164,78)" stroke-width="1" opacity="0.75" />
			</g>
		</g>
		<g>
			<title> (ctg1155_35)</title>
			<polygon class=" (ctg1155_35)" points="1367,10 1375,40 1367,70" fill="rgb(255,255,255)" fill-opacity="1.0" stroke="rgb(0,0,0)" stroke-width="2"  />
			<g>
				<title>BMC (PF00936)
"BMC domain"</title>
				<polygon class="PF00936" points="1367,28 1368,28 1372,40 1368,52 1367,52" stroke-linejoin="round" width="7" height="24" fill="rgb(184,205,98)" stroke="rgb(147,164,78)" stroke-width="1" opacity="0.75" />
			</g>
		</g>
	</g>
</svg>
