<svg version="1.1" baseProfile="full" xmlns="http://www.w3.org/2000/svg" width="1274.7" height="80">
	<g>
		<line x1="10" y1="40.0" x2="1264.7" y2="40.0" style="stroke:rgb(70,70,70); stroke-width:3 "/>
		<g>
			<title> (ctg909_21)</title>
			<polygon class=" (ctg909_21)" points="70,40 76,10 76,70" fill="rgb(255,255,255)" fill-opacity="1.0" stroke="rgb(0,0,0)" stroke-width="2"  />
		</g>
		<g>
			<title> (ctg909_22)</title>
			<polygon class=" (ctg909_22)" points="76,40 82,10 82,70" fill="rgb(255,255,255)" fill-opacity="1.0" stroke="rgb(0,0,0)" stroke-width="2"  />
		</g>
		<g>
			<title> (ctg909_23)</title>
			<polygon class=" (ctg909_23)" points="87,10 99,40 87,70" fill="rgb(255,255,255)" fill-opacity="1.0" stroke="rgb(0,0,0)" stroke-width="2"  />
		</g>
		<g>
			<title> (ctg909_24)</title>
			<polygon class=" (ctg909_24)" points="123,10 133,40 123,70" fill="rgb(255,255,255)" fill-opacity="1.0" stroke="rgb(0,0,0)" stroke-width="2"  />
		</g>
		<g>
			<title> (ctg909_25)</title>
			<polygon class=" (ctg909_25)" points="138,10 151,40 138,70" fill="rgb(255,255,255)" fill-opacity="1.0" stroke="rgb(0,0,0)" stroke-width="2"  />
		</g>
		<g>
			<title> (ctg909_26)</title>
			<polygon class=" (ctg909_26)" points="152,10 163,40 152,70" fill="rgb(255,255,255)" fill-opacity="1.0" stroke="rgb(0,0,0)" stroke-width="2"  />
		</g>
		<g>
			<title> (ctg909_27)</title>
			<polygon class=" (ctg909_27)" points="158,40 184,10 184,70" fill="rgb(255,255,255)" fill-opacity="1.0" stroke="rgb(0,0,0)" stroke-width="2"  />
			<g>
				<title>PseudoU_synth_2 (PF00849)
"RNA pseudouridylate synthase"</title>
				<polygon class="PF00849" points="173,28 173,28 183,28 183,52 173,52 173,52" stroke-linejoin="round" width="10" height="24" fill="rgb(226,76,228)" stroke="rgb(180,60,182)" stroke-width="1" opacity="0.75" />
			</g>
		</g>
		<g>
			<title> (ctg909_28)</title>
			<polygon class=" (ctg909_28)" points="188,10 214,40 188,70" fill="rgb(255,255,255)" fill-opacity="1.0" stroke="rgb(0,0,0)" stroke-width="2"  />
		</g>
		<g>
			<title> (ctg909_29)</title>
			<polygon class=" (ctg909_29)" points="241,25 239,25 239,10 209,40 239,70 239,55 241,55" fill="rgb(255,255,255)" fill-opacity="1.0" stroke="rgb(0,0,0)" stroke-width="2"  />
		</g>
		<g>
			<title> (ctg909_30)</title>
			<polygon class=" (ctg909_30)" points="246,40 252,10 252,70" fill="rgb(255,255,255)" fill-opacity="1.0" stroke="rgb(0,0,0)" stroke-width="2"  />
		</g>
		<g>
			<title> (ctg909_31)</title>
			<polygon class=" (ctg909_31)" points="254,40 276,10 276,70" fill="rgb(255,255,255)" fill-opacity="1.0" stroke="rgb(0,0,0)" stroke-width="2"  />
			<g>
				<title>SMC_ScpB (PF04079)
"Segregation and condensation complex subunit ScpB"</title>
				<polygon class="PF04079" points="258,40 267,28 273,28 273,52 267,52" stroke-linejoin="round" width="16" height="24" fill="rgb(80,215,127)" stroke="rgb(64,172,101)" stroke-width="1" opacity="0.75" />
			</g>
		</g>
		<g>
			<title> (ctg909_32)</title>
			<polygon class=" (ctg909_32)" points="276,40 303,10 303,70" fill="rgb(255,255,255)" fill-opacity="1.0" stroke="rgb(0,0,0)" stroke-width="2"  />
			<g>
				<title>SMC_ScpA (PF02616)
"Segregation and condensation protein ScpA"</title>
				<polygon class="PF02616" points="280,40 291,28 299,28 299,52 291,52" stroke-linejoin="round" width="21" height="24" fill="rgb(108,221,89)" stroke="rgb(86,176,71)" stroke-width="1" opacity="0.75" />
			</g>
		</g>
		<g>
			<title> (ctg909_33)</title>
			<polygon class=" (ctg909_33)" points="345,25 342,25 342,10 312,40 342,70 342,55 345,55" fill="rgb(255,255,255)" fill-opacity="1.0" stroke="rgb(0,0,0)" stroke-width="2"  />
		</g>
		<g>
			<title> (ctg909_34)</title>
			<polygon class=" (ctg909_34)" points="346,40 352,10 352,70" fill="rgb(255,255,255)" fill-opacity="1.0" stroke="rgb(0,0,0)" stroke-width="2"  />
		</g>
		<g>
			<title> (ctg909_35)</title>
			<polygon class=" (ctg909_35)" points="365,40 377,10 377,70" fill="rgb(255,255,255)" fill-opacity="1.0" stroke="rgb(0,0,0)" stroke-width="2"  />
		</g>
		<g>
			<title> (ctg909_36)</title>
			<polygon class=" (ctg909_36)" points="379,10 388,40 379,70" fill="rgb(255,255,255)" fill-opacity="1.0" stroke="rgb(0,0,0)" stroke-width="2"  />
		</g>
		<g>
			<title> (ctg909_37)</title>
			<polygon class=" (ctg909_37)" points="391,25 397,25 397,10 427,40 397,70 397,55 391,55" fill="rgb(255,255,255)" fill-opacity="1.0" stroke="rgb(0,0,0)" stroke-width="2"  />
			<g>
				<title>GFO_IDH_MocA (PF01408)
"Oxidoreductase family, NAD-binding Rossmann fold"</title>
				<rect class="PF01408" x="393" y="28" stroke-linejoin="round" width="12" height="24" fill="rgb(76,117,190)" stroke="rgb(60,93,152)" stroke-width="1" opacity="0.75" />
			</g>
		</g>
		<g>
			<title> (ctg909_38)</title>
			<polygon class=" (ctg909_38)" points="473,25 458,25 458,10 428,40 458,70 458,55 473,55" fill="rgb(255,255,255)" fill-opacity="1.0" stroke="rgb(0,0,0)" stroke-width="2"  />
			<g>
				<title>Sulfatase (PF00884)
"Sulfatase"</title>
				<polygon class="PF00884" points="437,35 444,28 469,28 469,52 444,52 437,45" stroke-linejoin="round" width="32" height="24" fill="rgb(61,103,198)" stroke="rgb(48,82,158)" stroke-width="1" opacity="0.75" />
			</g>
		</g>
		<g>
			<title> (ctg909_39)</title>
			<polygon class=" (ctg909_39)" points="475,25 495,25 495,10 525,40 495,70 495,55 475,55" fill="rgb(255,255,255)" fill-opacity="1.0" stroke="rgb(0,0,0)" stroke-width="2"  />
			<g>
				<title>SCFA_trans (PF02667)
"Short chain fatty acid transporter"</title>
				<polygon class="PF02667" points="481,28 509,28 521,40 509,52 481,52" stroke-linejoin="round" width="44" height="24" fill="rgb(164,106,226)" stroke="rgb(131,84,180)" stroke-width="1" opacity="0.75" />
			</g>
		</g>
		<g>
			<title> (ctg909_40)</title>
			<polygon class=" (ctg909_40)" points="531,10 539,40 531,70" fill="rgb(255,255,255)" fill-opacity="1.0" stroke="rgb(0,0,0)" stroke-width="2"  />
		</g>
		<g>
			<title> (ctg909_41)</title>
			<polygon class=" (ctg909_41)" points="541,25 558,25 558,10 588,40 558,70 558,55 541,55" fill="rgb(255,255,255)" fill-opacity="1.0" stroke="rgb(0,0,0)" stroke-width="2"  />
			<g>
				<title>Sulfatase (PF00884)
"Sulfatase"</title>
				<polygon class="PF00884" points="541,28 571,28 575,32 575,48 571,52 541,52" stroke-linejoin="round" width="34" height="24" fill="rgb(61,103,198)" stroke="rgb(48,82,158)" stroke-width="1" opacity="0.75" />
			</g>
		</g>
		<g>
			<title> (ctg909_42)</title>
			<polygon class=" (ctg909_42)" points="590,10 619,40 590,70" fill="rgb(255,255,255)" fill-opacity="1.0" stroke="rgb(0,0,0)" stroke-width="2"  />
			<g>
				<title>DLH (PF01738)
"Dienelactone hydrolase family"</title>
				<polygon class="PF01738" points="598,28 603,28 615,40 603,52 598,52" stroke-linejoin="round" width="21" height="24" fill="rgb(188,185,48)" stroke="rgb(150,147,38)" stroke-width="1" opacity="0.75" />
			</g>
		</g>
		<g>
			<title> (ctg909_43)</title>
			<polygon class=" (ctg909_43)" points="620,40 631,10 631,70" fill="rgb(255,255,255)" fill-opacity="1.0" stroke="rgb(0,0,0)" stroke-width="2"  />
		</g>
		<g>
			<title> (ctg909_44)</title>
			<polygon class=" (ctg909_44)" points="634,40 638,10 638,70" fill="rgb(255,255,255)" fill-opacity="1.0" stroke="rgb(0,0,0)" stroke-width="2"  />
		</g>
		<g>
			<title> (ctg909_45)</title>
			<polygon class=" (ctg909_45)" points="668,10 672,40 668,70" fill="rgb(255,255,255)" fill-opacity="1.0" stroke="rgb(0,0,0)" stroke-width="2"  />
		</g>
		<g>
			<title> (ctg909_46)</title>
			<polygon class=" (ctg909_46)" points="710,25 706,25 706,10 676,40 706,70 706,55 710,55" fill="rgb(255,255,255)" fill-opacity="1.0" stroke="rgb(0,0,0)" stroke-width="2"  />
			<g>
				<title>Chal_sti_synt_C (PF02797)
"Chalcone and stilbene synthases, C-terminal domain"</title>
				<polygon class="PF02797" points="680,40 690,30 690,50" stroke-linejoin="round" width="14" height="24" fill="rgb(139,212,63)" stroke="rgb(111,169,50)" stroke-width="1" opacity="0.75" />
			</g>
			<g>
				<title>Chal_sti_synt_N (PF00195)
"Chalcone and stilbene synthases, N-terminal domain"</title>
				<polygon class="PF00195" points="690,30 692,28 709,28 709,52 692,52 690,50" stroke-linejoin="round" width="19" height="24" fill="rgb(60,181,161)" stroke="rgb(47,144,128)" stroke-width="1" opacity="0.75" />
			</g>
		</g>
		<g>
			<title> (ctg909_47)</title>
			<polygon class=" (ctg909_47)" points="715,40 725,10 725,70" fill="rgb(255,255,255)" fill-opacity="1.0" stroke="rgb(0,0,0)" stroke-width="2"  />
		</g>
		<g>
			<title> (ctg909_48)</title>
			<polygon class=" (ctg909_48)" points="731,40 736,10 736,70" fill="rgb(255,255,255)" fill-opacity="1.0" stroke="rgb(0,0,0)" stroke-width="2"  />
		</g>
		<g>
			<title> (ctg909_49)</title>
			<polygon class=" (ctg909_49)" points="741,10 747,40 741,70" fill="rgb(255,255,255)" fill-opacity="1.0" stroke="rgb(0,0,0)" stroke-width="2"  />
			<g>
				<title>DLH (PF01738)
"Dienelactone hydrolase family"</title>
				<polygon class="PF01738" points="741,28 741,28 744,40 741,52 741,52" stroke-linejoin="round" width="6" height="24" fill="rgb(188,185,48)" stroke="rgb(150,147,38)" stroke-width="1" opacity="0.75" />
			</g>
		</g>
		<g>
			<title> (ctg909_50)</title>
			<polygon class=" (ctg909_50)" points="752,40 758,10 758,70" fill="rgb(255,255,255)" fill-opacity="1.0" stroke="rgb(0,0,0)" stroke-width="2"  />
		</g>
		<g>
			<title> (ctg909_51)</title>
			<polygon class=" (ctg909_51)" points="760,10 787,40 760,70" fill="rgb(255,255,255)" fill-opacity="1.0" stroke="rgb(0,0,0)" stroke-width="2"  />
			<g>
				<title>DUF3883 (PF13020)
"Domain of unknown function (DUF3883)"</title>
				<polygon class="PF13020" points="775,31 783,40 775,49" stroke-linejoin="round" width="9" height="24" fill="rgb(201,54,58)" stroke="rgb(160,43,46)" stroke-width="1" opacity="0.75" />
			</g>
		</g>
		<g>
			<title> (ctg909_52)</title>
			<polygon class=" (ctg909_52)" points="788,40 794,10 794,70" fill="rgb(255,255,255)" fill-opacity="1.0" stroke="rgb(0,0,0)" stroke-width="2"  />
		</g>
		<g>
			<title> (ctg909_53)</title>
			<polygon class=" (ctg909_53)" points="842,25 825,25 825,10 795,40 825,70 825,55 842,55" fill="rgb(255,255,255)" fill-opacity="1.0" stroke="rgb(0,0,0)" stroke-width="2"  />
			<g>
				<title>DUF1501 (PF07394)
"Protein of unknown function (DUF1501)"</title>
				<polygon class="PF07394" points="799,40 811,28 836,28 836,52 811,52" stroke-linejoin="round" width="41" height="24" fill="rgb(199,225,81)" stroke="rgb(159,180,64)" stroke-width="1" opacity="0.75" />
			</g>
		</g>
		<g>
			<title> (ctg909_54)</title>
			<polygon class=" (ctg909_54)" points="945,25 876,25 876,10 846,40 876,70 876,55 945,55" fill="rgb(255,255,255)" fill-opacity="1.0" stroke="rgb(0,0,0)" stroke-width="2"  />
			<g>
				<title>PSD1 (PF07587)
"Protein of unknown function (DUF1553)"</title>
				<polygon class="PF07587" points="854,36 862,28 880,28 880,52 862,52 854,44" stroke-linejoin="round" width="26" height="24" fill="rgb(55,214,194)" stroke="rgb(44,171,155)" stroke-width="1" opacity="0.75" />
			</g>
			<g>
				<title>PSCyt2 (PF07583)
"Protein of unknown function (DUF1549)"</title>
				<rect class="PF07583" x="898" y="28" stroke-linejoin="round" width="20" height="24" fill="rgb(224,195,67)" stroke="rgb(179,156,53)" stroke-width="1" opacity="0.75" />
			</g>
			<g>
				<title>PSCyt1 (PF07635)
"Planctomycete cytochrome C"</title>
				<rect class="PF07635" x="928" y="28" stroke-linejoin="round" width="6" height="24" fill="rgb(198,62,63)" stroke="rgb(158,49,50)" stroke-width="1" opacity="0.75" />
			</g>
		</g>
		<g>
			<title> (ctg909_55)</title>
			<polygon class=" (ctg909_55)" points="951,40 963,10 963,70" fill="rgb(255,255,255)" fill-opacity="1.0" stroke="rgb(0,0,0)" stroke-width="2"  />
		</g>
		<g>
			<title> (ctg909_56)</title>
			<polygon class=" (ctg909_56)" points="1050,25 998,25 998,10 968,40 998,70 998,55 1050,55" fill="rgb(255,255,255)" fill-opacity="1.0" stroke="rgb(0,0,0)" stroke-width="2"  />
			<g>
				<title>FtsX (PF02687)
"FtsX-like permease family"</title>
				<rect class="PF02687" x="1007" y="28" stroke-linejoin="round" width="10" height="24" fill="rgb(126,55,214)" stroke="rgb(100,44,171)" stroke-width="1" opacity="0.75" />
			</g>
			<g>
				<title>MacB_PCD (PF12704)
"MacB-like periplasmic core domain"</title>
				<rect class="PF12704" x="1024" y="28" stroke-linejoin="round" width="24" height="24" fill="rgb(79,76,190)" stroke="rgb(63,60,152)" stroke-width="1" opacity="0.75" />
			</g>
		</g>
		<g>
			<title> (ctg909_57)</title>
			<polygon class=" (ctg909_57)" points="1083,40 1088,10 1088,70" fill="rgb(255,255,255)" fill-opacity="1.0" stroke="rgb(0,0,0)" stroke-width="2"  />
		</g>
		<g>
			<title> (ctg909_58)</title>
			<polygon class=" (ctg909_58)" points="1091,40 1102,10 1102,70" fill="rgb(255,255,255)" fill-opacity="1.0" stroke="rgb(0,0,0)" stroke-width="2"  />
		</g>
		<g>
			<title> (ctg909_59)</title>
			<polygon class=" (ctg909_59)" points="1108,25 1166,25 1166,10 1196,40 1166,70 1166,55 1108,55" fill="rgb(255,255,255)" fill-opacity="1.0" stroke="rgb(0,0,0)" stroke-width="2"  />
			<g>
				<title>PSCyt2 (PF07583)
"Protein of unknown function (DUF1549)"</title>
				<rect class="PF07583" x="1108" y="28" stroke-linejoin="round" width="18" height="24" fill="rgb(224,195,67)" stroke="rgb(179,156,53)" stroke-width="1" opacity="0.75" />
			</g>
			<g>
				<title>PSD1 (PF07587)
"Protein of unknown function (DUF1553)"</title>
				<rect class="PF07587" x="1150" y="28" stroke-linejoin="round" width="23" height="24" fill="rgb(55,214,194)" stroke="rgb(44,171,155)" stroke-width="1" opacity="0.75" />
			</g>
		</g>
		<g>
			<title> (ctg909_60)</title>
			<polygon class=" (ctg909_60)" points="1195,40 1198,10 1198,70" fill="rgb(255,255,255)" fill-opacity="1.0" stroke="rgb(0,0,0)" stroke-width="2"  />
		</g>
		<g>
			<title> (ctg909_61)</title>
			<polygon class=" (ctg909_61)" points="1199,40 1206,10 1206,70" fill="rgb(255,255,255)" fill-opacity="1.0" stroke="rgb(0,0,0)" stroke-width="2"  />
		</g>
		<g>
			<title> (ctg909_62)</title>
			<polygon class=" (ctg909_62)" points="1218,10 1225,40 1218,70" fill="rgb(255,255,255)" fill-opacity="1.0" stroke="rgb(0,0,0)" stroke-width="2"  />
			<g>
				<title>TraY (PF05509)
"TraY domain"</title>
				<polygon class="PF05509" points="1218,28 1219,28 1222,37 1222,43 1219,52 1218,52" stroke-linejoin="round" width="4" height="24" fill="rgb(111,176,223)" stroke="rgb(88,140,178)" stroke-width="1" opacity="0.75" />
			</g>
		</g>
		<g>
			<title> (ctg909_63)</title>
			<polygon class=" (ctg909_63)" points="1226,10 1235,40 1226,70" fill="rgb(255,255,255)" fill-opacity="1.0" stroke="rgb(0,0,0)" stroke-width="2"  />
			<g>
				<title>ParE_toxin (PF05016)
"ParE toxin of type II toxin-antitoxin system, parDE"</title>
				<polygon class="PF05016" points="1226,28 1227,28 1231,40 1227,52 1226,52" stroke-linejoin="round" width="8" height="24" fill="rgb(110,226,73)" stroke="rgb(88,180,58)" stroke-width="1" opacity="0.75" />
			</g>
		</g>
		<g>
			<title> (ctg909_64)</title>
			<polygon class=" (ctg909_64)" points="1238,10 1260,40 1238,70" fill="rgb(255,255,255)" fill-opacity="1.0" stroke="rgb(0,0,0)" stroke-width="2"  />
		</g>
		<g>
			<title> (ctg909_65)</title>
			<polygon class=" (ctg909_65)" points="1261,40 1264,10 1264,70" fill="rgb(255,255,255)" fill-opacity="1.0" stroke="rgb(0,0,0)" stroke-width="2"  />
		</g>
	</g>
</svg>
