<svg version="1.1" baseProfile="full" xmlns="http://www.w3.org/2000/svg" width="1394.9333333333334" height="80">
	<g>
		<line x1="10" y1="40.0" x2="1384.9333333333334" y2="40.0" style="stroke:rgb(70,70,70); stroke-width:3 "/>
		<g>
			<title> (ctg75_76)</title>
			<polygon class=" (ctg75_76)" points="20,25 29,25 29,10 59,40 29,70 29,55 20,55" fill="rgb(255,255,255)" fill-opacity="1.0" stroke="rgb(0,0,0)" stroke-width="2"  />
			<g>
				<title>Acyl-CoA_dh_2 (PF08028)
"Acyl-CoA dehydrogenase, C-terminal domain"</title>
				<polygon class="PF08028" points="44,29 55,40 44,51" stroke-linejoin="round" width="13" height="24" fill="rgb(106,185,56)" stroke="rgb(84,148,44)" stroke-width="1" opacity="0.75" />
			</g>
		</g>
		<g>
			<title> (ctg75_77)</title>
			<polygon class=" (ctg75_77)" points="60,40 89,10 89,70" fill="rgb(255,255,255)" fill-opacity="1.0" stroke="rgb(0,0,0)" stroke-width="2"  />
			<g>
				<title>HpcH_HpaI (PF03328)
"HpcH/HpaI aldolase/citrate lyase family"</title>
				<polygon class="PF03328" points="67,37 76,28 88,28 88,52 76,52 67,43" stroke-linejoin="round" width="21" height="24" fill="rgb(81,183,94)" stroke="rgb(64,146,75)" stroke-width="1" opacity="0.75" />
			</g>
		</g>
		<g>
			<title> (ctg75_78)</title>
			<polygon class=" (ctg75_78)" points="90,40 113,10 113,70" fill="rgb(255,255,255)" fill-opacity="1.0" stroke="rgb(0,0,0)" stroke-width="2"  />
		</g>
		<g>
			<title> (ctg75_79)</title>
			<polygon class=" (ctg75_79)" points="158,25 144,25 144,10 114,40 144,70 144,55 158,55" fill="rgb(255,255,255)" fill-opacity="1.0" stroke="rgb(0,0,0)" stroke-width="2"  />
			<g>
				<title>Peptidase_M16_C (PF05193)
"Peptidase M16 inactive domain"</title>
				<polygon class="PF05193" points="122,36 130,28 139,28 139,52 130,52 122,44" stroke-linejoin="round" width="17" height="24" fill="rgb(199,79,180)" stroke="rgb(159,63,144)" stroke-width="1" opacity="0.75" />
			</g>
			<g>
				<title>Peptidase_M16 (PF00675)
"Insulinase (Peptidase family M16)"</title>
				<rect class="PF00675" x="140" y="28" stroke-linejoin="round" width="14" height="24" fill="rgb(70,225,127)" stroke="rgb(56,180,101)" stroke-width="1" opacity="0.75" />
			</g>
		</g>
		<g>
			<title> (ctg75_80)</title>
			<polygon class=" (ctg75_80)" points="162,40 186,10 186,70" fill="rgb(255,255,255)" fill-opacity="1.0" stroke="rgb(0,0,0)" stroke-width="2"  />
			<g>
				<title>fn3 (PF00041)
"Fibronectin type III domain"</title>
				<polygon class="PF00041" points="174,30 176,28 182,28 182,52 176,52 174,50" stroke-linejoin="round" width="8" height="24" fill="rgb(203,70,135)" stroke="rgb(162,56,107)" stroke-width="1" opacity="0.75" />
			</g>
		</g>
		<g>
			<title> (ctg75_81)</title>
			<polygon class=" (ctg75_81)" points="190,40 219,10 219,70" fill="rgb(255,255,255)" fill-opacity="1.0" stroke="rgb(0,0,0)" stroke-width="2"  />
		</g>
		<g>
			<title> (ctg75_82)</title>
			<polygon class=" (ctg75_82)" points="225,10 254,40 225,70" fill="rgb(255,255,255)" fill-opacity="1.0" stroke="rgb(0,0,0)" stroke-width="2"  />
		</g>
		<g>
			<title> (ctg75_83)</title>
			<polygon class=" (ctg75_83)" points="256,10 264,40 256,70" fill="rgb(255,255,255)" fill-opacity="1.0" stroke="rgb(0,0,0)" stroke-width="2"  />
		</g>
		<g>
			<title> (ctg75_84)</title>
			<polygon class=" (ctg75_84)" points="265,25 291,25 291,10 321,40 291,70 291,55 265,55" fill="rgb(255,255,255)" fill-opacity="1.0" stroke="rgb(0,0,0)" stroke-width="2"  />
			<g>
				<title>CTP_synth_N (PF06418)
"CTP synthase N-terminus"</title>
				<rect class="PF06418" x="265" y="28" stroke-linejoin="round" width="26" height="24" fill="rgb(90,189,145)" stroke="rgb(72,151,116)" stroke-width="1" opacity="0.75" />
			</g>
			<g>
				<title>GATase (PF00117)
"Glutamine amidotransferase class-I"</title>
				<polygon class="PF00117" points="296,28 304,28 316,40 304,52 296,52" stroke-linejoin="round" width="22" height="24" fill="rgb(159,201,96)" stroke="rgb(127,160,76)" stroke-width="1" opacity="0.75" />
			</g>
		</g>
		<g>
			<title> (ctg75_85)</title>
			<polygon class=" (ctg75_85)" points="339,10 354,40 339,70" fill="rgb(255,255,255)" fill-opacity="1.0" stroke="rgb(0,0,0)" stroke-width="2"  />
		</g>
		<g>
			<title> (ctg75_86)</title>
			<polygon class=" (ctg75_86)" points="357,10 380,40 357,70" fill="rgb(255,255,255)" fill-opacity="1.0" stroke="rgb(0,0,0)" stroke-width="2"  />
			<g>
				<title>TAL_FSA (PF00923)
"Transaldolase/Fructose-6-phosphate aldolase"</title>
				<polygon class="PF00923" points="357,28 367,28 376,40 367,52 357,52" stroke-linejoin="round" width="22" height="24" fill="rgb(208,111,74)" stroke="rgb(166,88,59)" stroke-width="1" opacity="0.75" />
			</g>
		</g>
		<g>
			<title> (ctg75_87)</title>
			<polygon class=" (ctg75_87)" points="388,25 400,25 400,10 430,40 400,70 400,55 388,55" fill="rgb(255,255,255)" fill-opacity="1.0" stroke="rgb(0,0,0)" stroke-width="2"  />
			<g>
				<title>Rho_N (PF07498)
"Rho termination factor, N-terminal domain"</title>
				<rect class="PF07498" x="388" y="28" stroke-linejoin="round" width="4" height="24" fill="rgb(124,198,58)" stroke="rgb(99,158,46)" stroke-width="1" opacity="0.75" />
			</g>
			<g>
				<title>Rho_RNA_bind (PF07497)
"Rho termination factor, RNA-binding domain"</title>
				<rect class="PF07497" x="393" y="28" stroke-linejoin="round" width="7" height="24" fill="rgb(72,224,90)" stroke="rgb(57,179,72)" stroke-width="1" opacity="0.75" />
			</g>
			<g>
				<title>ATP-synt_ab (PF00006)
"ATP synthase alpha/beta family, nucleotide-binding domain"</title>
				<polygon class="PF00006" points="403,28 414,28 423,37 423,43 414,52 403,52" stroke-linejoin="round" width="20" height="24" fill="rgb(187,135,93)" stroke="rgb(149,108,74)" stroke-width="1" opacity="0.75" />
			</g>
		</g>
		<g>
			<title> (ctg75_88)</title>
			<polygon class=" (ctg75_88)" points="431,10 444,40 431,70" fill="rgb(255,255,255)" fill-opacity="1.0" stroke="rgb(0,0,0)" stroke-width="2"  />
			<g>
				<title>YjbR (PF04237)
"YjbR"</title>
				<polygon class="PF04237" points="432,28 435,28 440,40 435,52 432,52" stroke-linejoin="round" width="10" height="24" fill="rgb(66,212,177)" stroke="rgb(52,169,141)" stroke-width="1" opacity="0.75" />
			</g>
		</g>
		<g>
			<title> (ctg75_89)</title>
			<polygon class=" (ctg75_89)" points="456,25 489,25 489,10 519,40 489,70 489,55 456,55" fill="rgb(255,255,255)" fill-opacity="1.0" stroke="rgb(0,0,0)" stroke-width="2"  />
			<g>
				<title>SBP_bac_5 (PF00496)
"Bacterial extracellular solute-binding proteins, family 5 Middle"</title>
				<polygon class="PF00496" points="471,28 502,28 507,33 507,47 502,52 471,52" stroke-linejoin="round" width="36" height="24" fill="rgb(199,94,116)" stroke="rgb(159,75,92)" stroke-width="1" opacity="0.75" />
			</g>
		</g>
		<g>
			<title> (ctg75_90)</title>
			<polygon class=" (ctg75_90)" points="525,10 530,40 525,70" fill="rgb(255,255,255)" fill-opacity="1.0" stroke="rgb(0,0,0)" stroke-width="2"  />
		</g>
		<g>
			<title> (ctg75_91)</title>
			<polygon class=" (ctg75_91)" points="531,10 557,40 531,70" fill="rgb(255,255,255)" fill-opacity="1.0" stroke="rgb(0,0,0)" stroke-width="2"  />
			<g>
				<title>BPD_transp_1 (PF00528)
"Binding-protein-dependent transport system inner membrane component"</title>
				<polygon class="PF00528" points="536,28 543,28 553,40 543,52 536,52" stroke-linejoin="round" width="20" height="24" fill="rgb(77,208,225)" stroke="rgb(61,166,180)" stroke-width="1" opacity="0.75" />
			</g>
		</g>
		<g>
			<title> (ctg75_92)</title>
			<polygon class=" (ctg75_92)" points="557,25 557,25 557,10 587,40 557,70 557,55 557,55" fill="rgb(255,255,255)" fill-opacity="1.0" stroke="rgb(0,0,0)" stroke-width="2"  />
			<g>
				<title>OppC_N (PF12911)
"N-terminal TM domain of oligopeptide transport permease C"</title>
				<rect class="PF12911" x="559" y="28" stroke-linejoin="round" width="5" height="24" fill="rgb(167,178,88)" stroke="rgb(133,142,70)" stroke-width="1" opacity="0.75" />
			</g>
			<g>
				<title>BPD_transp_1 (PF00528)
"Binding-protein-dependent transport system inner membrane component"</title>
				<polygon class="PF00528" points="569,28 571,28 583,40 571,52 569,52" stroke-linejoin="round" width="18" height="24" fill="rgb(77,208,225)" stroke="rgb(61,166,180)" stroke-width="1" opacity="0.75" />
			</g>
		</g>
		<g>
			<title> (ctg75_93)</title>
			<polygon class=" (ctg75_93)" points="652,25 619,25 619,10 589,40 619,70 619,55 652,55" fill="rgb(255,255,255)" fill-opacity="1.0" stroke="rgb(0,0,0)" stroke-width="2"  />
			<g>
				<title>PepX_C (PF08530)
"X-Pro dipeptidyl-peptidase C-terminal non-catalytic domain"</title>
				<polygon class="PF08530" points="593,40 605,28 617,28 617,52 605,52" stroke-linejoin="round" width="28" height="24" fill="rgb(210,70,92)" stroke="rgb(168,56,73)" stroke-width="1" opacity="0.75" />
			</g>
			<g>
				<title>Peptidase_S15 (PF02129)
"X-Pro dipeptidyl-peptidase (S15 family)"</title>
				<rect class="PF02129" x="622" y="28" stroke-linejoin="round" width="27" height="24" fill="rgb(210,171,79)" stroke="rgb(168,136,63)" stroke-width="1" opacity="0.75" />
			</g>
		</g>
		<g>
			<title> (ctg75_94)</title>
			<polygon class=" (ctg75_94)" points="653,40 674,10 674,70" fill="rgb(255,255,255)" fill-opacity="1.0" stroke="rgb(0,0,0)" stroke-width="2"  />
			<g>
				<title>Lactamase_B_3 (PF13483)
"Beta-lactamase superfamily domain"</title>
				<polygon class="PF13483" points="658,39 666,28 673,28 673,52 666,52 658,41" stroke-linejoin="round" width="15" height="24" fill="rgb(89,224,69)" stroke="rgb(71,179,55)" stroke-width="1" opacity="0.75" />
			</g>
		</g>
		<g>
			<title> (ctg75_95)</title>
			<polygon class=" (ctg75_95)" points="717,25 706,25 706,10 676,40 706,70 706,55 717,55" fill="rgb(255,255,255)" fill-opacity="1.0" stroke="rgb(0,0,0)" stroke-width="2"  />
			<g>
				<title>Ketoacyl-synt_C (PF02801)
"Beta-ketoacyl synthase, C-terminal domain"</title>
				<polygon class="PF02801" points="681,39 692,28 692,28 692,52 692,52 681,41" stroke-linejoin="round" width="11" height="24" fill="rgb(215,78,102)" stroke="rgb(172,62,81)" stroke-width="1" opacity="0.75" />
			</g>
			<g>
				<title>ketoacyl-synt (PF00109)
"Beta-ketoacyl synthase, N-terminal domain"</title>
				<rect class="PF00109" x="693" y="28" stroke-linejoin="round" width="22" height="24" fill="rgb(112,116,228)" stroke="rgb(89,92,182)" stroke-width="1" opacity="0.75" />
			</g>
		</g>
		<g>
			<title> (ctg75_96)</title>
			<polygon class=" (ctg75_96)" points="724,25 730,25 730,10 760,40 730,70 730,55 724,55" fill="rgb(255,255,255)" fill-opacity="1.0" stroke="rgb(0,0,0)" stroke-width="2"  />
			<g>
				<title>HrcA (PF01628)
"HrcA protein C terminal domain"</title>
				<polygon class="PF01628" points="734,28 743,28 755,40 743,52 734,52" stroke-linejoin="round" width="23" height="24" fill="rgb(216,106,202)" stroke="rgb(172,84,161)" stroke-width="1" opacity="0.75" />
			</g>
		</g>
		<g>
			<title> (ctg75_97)</title>
			<polygon class=" (ctg75_97)" points="760,10 780,40 760,70" fill="rgb(255,255,255)" fill-opacity="1.0" stroke="rgb(0,0,0)" stroke-width="2"  />
			<g>
				<title>GrpE (PF01025)
"GrpE"</title>
				<polygon class="PF01025" points="760,28 768,28 776,40 768,52 760,52" stroke-linejoin="round" width="17" height="24" fill="rgb(75,190,103)" stroke="rgb(60,152,82)" stroke-width="1" opacity="0.75" />
			</g>
		</g>
		<g>
			<title> (ctg75_98)</title>
			<polygon class=" (ctg75_98)" points="780,25 813,25 813,10 843,40 813,70 813,55 780,55" fill="rgb(255,255,255)" fill-opacity="1.0" stroke="rgb(0,0,0)" stroke-width="2"  />
			<g>
				<title>HSP70 (PF00012)
"Hsp70 protein"</title>
				<polygon class="PF00012" points="780,28 826,28 838,40 826,52 780,52" stroke-linejoin="round" width="59" height="24" fill="rgb(60,173,201)" stroke="rgb(48,138,160)" stroke-width="1" opacity="0.75" />
			</g>
		</g>
		<g>
			<title> (ctg75_99)</title>
			<polygon class=" (ctg75_99)" points="846,25 853,25 853,10 883,40 853,70 853,55 846,55" fill="rgb(255,255,255)" fill-opacity="1.0" stroke="rgb(0,0,0)" stroke-width="2"  />
			<g>
				<title>DnaJ (PF00226)
"DnaJ domain"</title>
				<rect class="PF00226" x="846" y="28" stroke-linejoin="round" width="6" height="24" fill="rgb(207,80,207)" stroke="rgb(165,63,165)" stroke-width="1" opacity="0.75" />
			</g>
			<g>
				<title>DnaJ_C (PF01556)
"DnaJ C terminal domain"</title>
				<polygon class="PF01556" points="857,28 867,28 878,39 878,41 867,52 857,52" stroke-linejoin="round" width="21" height="24" fill="rgb(97,143,214)" stroke="rgb(77,114,171)" stroke-width="1" opacity="0.75" />
			</g>
		</g>
		<g>
			<title> (ctg75_100)</title>
			<polygon class=" (ctg75_100)" points="885,40 898,10 898,70" fill="rgb(255,255,255)" fill-opacity="1.0" stroke="rgb(0,0,0)" stroke-width="2"  />
		</g>
		<g>
			<title> (ctg75_101)</title>
			<polygon class=" (ctg75_101)" points="900,10 913,40 900,70" fill="rgb(255,255,255)" fill-opacity="1.0" stroke="rgb(0,0,0)" stroke-width="2"  />
			<g>
				<title>PrmA (PF06325)
"Ribosomal protein L11 methyltransferase (PrmA)"</title>
				<polygon class="PF06325" points="900,28 904,28 910,40 904,52 900,52" stroke-linejoin="round" width="13" height="24" fill="rgb(165,213,101)" stroke="rgb(132,170,80)" stroke-width="1" opacity="0.75" />
			</g>
		</g>
		<g>
			<title> (ctg75_102)</title>
			<polygon class=" (ctg75_102)" points="914,40 940,10 940,70" fill="rgb(255,255,255)" fill-opacity="1.0" stroke="rgb(0,0,0)" stroke-width="2"  />
			<g>
				<title>adh_short_C2 (PF13561)
"Enoyl-(Acyl carrier protein) reductase"</title>
				<polygon class="PF13561" points="918,40 929,28 938,28 938,52 929,52" stroke-linejoin="round" width="24" height="24" fill="rgb(73,205,127)" stroke="rgb(58,164,101)" stroke-width="1" opacity="0.75" />
			</g>
		</g>
		<g>
			<title> (ctg75_103)</title>
			<polygon class=" (ctg75_103)" points="945,10 971,40 945,70" fill="rgb(255,255,255)" fill-opacity="1.0" stroke="rgb(0,0,0)" stroke-width="2"  />
			<g>
				<title>Methyltrans_RNA (PF04452)
"RNA methyltransferase"</title>
				<polygon class="PF04452" points="948,28 956,28 967,40 956,52 948,52" stroke-linejoin="round" width="22" height="24" fill="rgb(106,123,214)" stroke="rgb(84,98,171)" stroke-width="1" opacity="0.75" />
			</g>
		</g>
		<g>
			<title> (ctg75_104)</title>
			<polygon class=" (ctg75_104)" points="1011,25 1003,25 1003,10 973,40 1003,70 1003,55 1011,55" fill="rgb(255,255,255)" fill-opacity="1.0" stroke="rgb(0,0,0)" stroke-width="2"  />
			<g>
				<title>Peptidase_M23 (PF01551)
"Peptidase family M23"</title>
				<polygon class="PF01551" points="977,40 985,32 985,48" stroke-linejoin="round" width="9" height="24" fill="rgb(65,169,193)" stroke="rgb(51,135,154)" stroke-width="1" opacity="0.75" />
			</g>
		</g>
		<g>
			<title> (ctg75_105)</title>
			<polygon class=" (ctg75_105)" points="1016,25 1017,25 1017,10 1047,40 1017,70 1017,55 1016,55" fill="rgb(255,255,255)" fill-opacity="1.0" stroke="rgb(0,0,0)" stroke-width="2"  />
			<g>
				<title>AAA_3 (PF07726)
"ATPase family associated with various cellular activities (AAA)"</title>
				<polygon class="PF07726" points="1019,28 1031,28 1032,29 1032,51 1031,52 1019,52" stroke-linejoin="round" width="13" height="24" fill="rgb(225,222,92)" stroke="rgb(180,177,73)" stroke-width="1" opacity="0.75" />
			</g>
			<g>
				<title>AAA_lid_2 (PF17863)
"AAA lid domain"</title>
				<polygon class="PF17863" points="1039,36 1043,40 1039,44" stroke-linejoin="round" width="7" height="24" fill="rgb(52,164,197)" stroke="rgb(41,131,157)" stroke-width="1" opacity="0.75" />
			</g>
		</g>
		<g>
			<title> (ctg75_106)</title>
			<polygon class=" (ctg75_106)" points="1050,25 1067,25 1067,10 1097,40 1067,70 1067,55 1050,55" fill="rgb(255,255,255)" fill-opacity="1.0" stroke="rgb(0,0,0)" stroke-width="2"  />
			<g>
				<title>DUF58 (PF01882)
"Protein of unknown function DUF58"</title>
				<rect class="PF01882" x="1070" y="28" stroke-linejoin="round" width="8" height="24" fill="rgb(190,218,84)" stroke="rgb(152,174,67)" stroke-width="1" opacity="0.75" />
			</g>
		</g>
		<g>
			<title> (ctg75_107)</title>
			<polygon class=" (ctg75_107)" points="1097,25 1162,25 1162,10 1192,40 1162,70 1162,55 1097,55" fill="rgb(255,255,255)" fill-opacity="1.0" stroke="rgb(0,0,0)" stroke-width="2"  />
			<g>
				<title>Transglut_core (PF01841)
"Transglutaminase-like superfamily"</title>
				<rect class="PF01841" x="1161" y="28" stroke-linejoin="round" width="9" height="24" fill="rgb(208,223,79)" stroke="rgb(166,178,63)" stroke-width="1" opacity="0.75" />
			</g>
			<g>
				<title>DUF4129 (PF13559)
"Domain of unknown function (DUF4129)"</title>
				<polygon class="PF13559" points="1181,34 1187,40 1187,40 1181,46" stroke-linejoin="round" width="6" height="24" fill="rgb(81,185,63)" stroke="rgb(64,148,50)" stroke-width="1" opacity="0.75" />
			</g>
		</g>
		<g>
			<title> (ctg75_108)</title>
			<polygon class=" (ctg75_108)" points="1256,25 1224,25 1224,10 1194,40 1224,70 1224,55 1256,55" fill="rgb(255,255,255)" fill-opacity="1.0" stroke="rgb(0,0,0)" stroke-width="2"  />
			<g>
				<title>VWA_2 (PF13519)
"von Willebrand factor type A domain"</title>
				<rect class="PF13519" x="1235" y="28" stroke-linejoin="round" width="12" height="24" fill="rgb(58,213,93)" stroke="rgb(46,170,74)" stroke-width="1" opacity="0.75" />
			</g>
		</g>
		<g>
			<title> (ctg75_109)</title>
			<polygon class=" (ctg75_109)" points="1288,25 1286,25 1286,10 1256,40 1286,70 1286,55 1288,55" fill="rgb(255,255,255)" fill-opacity="1.0" stroke="rgb(0,0,0)" stroke-width="2"  />
			<g>
				<title>VWA (PF00092)
"von Willebrand factor type A domain"</title>
				<polygon class="PF00092" points="1260,40 1272,28 1278,28 1278,52 1272,52 1260,40" stroke-linejoin="round" width="18" height="24" fill="rgb(199,215,59)" stroke="rgb(159,172,47)" stroke-width="1" opacity="0.75" />
			</g>
		</g>
		<g>
			<title> (ctg75_110)</title>
			<polygon class=" (ctg75_110)" points="1288,40 1317,10 1317,70" fill="rgb(255,255,255)" fill-opacity="1.0" stroke="rgb(0,0,0)" stroke-width="2"  />
		</g>
		<g>
			<title> (ctg75_111)</title>
			<polygon class=" (ctg75_111)" points="1348,25 1347,25 1347,10 1317,40 1347,70 1347,55 1348,55" fill="rgb(255,255,255)" fill-opacity="1.0" stroke="rgb(0,0,0)" stroke-width="2"  />
			<g>
				<title>DUF58 (PF01882)
"Protein of unknown function DUF58"</title>
				<rect class="PF01882" x="1334" y="28" stroke-linejoin="round" width="8" height="24" fill="rgb(190,218,84)" stroke="rgb(152,174,67)" stroke-width="1" opacity="0.75" />
			</g>
		</g>
		<g>
			<title> (ctg75_112)</title>
			<polygon class=" (ctg75_112)" points="1379,25 1379,25 1379,10 1349,40 1379,70 1379,55 1379,55" fill="rgb(255,255,255)" fill-opacity="1.0" stroke="rgb(0,0,0)" stroke-width="2"  />
			<g>
				<title>AAA_lid_2 (PF17863)
"AAA lid domain"</title>
				<polygon class="PF17863" points="1353,40 1356,37 1356,43" stroke-linejoin="round" width="7" height="24" fill="rgb(52,164,197)" stroke="rgb(41,131,157)" stroke-width="1" opacity="0.75" />
			</g>
			<g>
				<title>AAA_3 (PF07726)
"ATPase family associated with various cellular activities (AAA)"</title>
				<polygon class="PF07726" points="1364,29 1365,28 1377,28 1377,52 1365,52 1364,51" stroke-linejoin="round" width="13" height="24" fill="rgb(225,222,92)" stroke="rgb(180,177,73)" stroke-width="1" opacity="0.75" />
			</g>
		</g>
	</g>
</svg>
