<svg version="1.1" baseProfile="full" xmlns="http://www.w3.org/2000/svg" width="560.3666666666667" height="80">
	<g>
		<line x1="10" y1="40.0" x2="550.3666666666667" y2="40.0" style="stroke:rgb(70,70,70); stroke-width:3 "/>
		<g>
			<title> (ctg3896_1)</title>
			<polygon class=" (ctg3896_1)" points="10,10 34,40 10,70" fill="rgb(255,255,255)" fill-opacity="1.0" stroke="rgb(0,0,0)" stroke-width="2"  />
			<g>
				<title>PNP_UDP_1 (PF01048)
"Phosphorylase superfamily"</title>
				<polygon class="PF01048" points="11,28 21,28 29,38 29,42 21,52 11,52" stroke-linejoin="round" width="18" height="24" fill="rgb(75,186,148)" stroke="rgb(60,148,118)" stroke-width="1" opacity="0.75" />
			</g>
		</g>
		<g>
			<title> (ctg3896_2)</title>
			<polygon class=" (ctg3896_2)" points="34,25 38,25 38,10 68,40 38,70 38,55 34,55" fill="rgb(255,255,255)" fill-opacity="1.0" stroke="rgb(0,0,0)" stroke-width="2"  />
			<g>
				<title>Epimerase (PF01370)
"NAD dependent epimerase/dehydratase family"</title>
				<polygon class="PF01370" points="34,28 52,28 57,33 57,47 52,52 34,52" stroke-linejoin="round" width="23" height="24" fill="rgb(98,102,214)" stroke="rgb(78,81,171)" stroke-width="1" opacity="0.75" />
			</g>
		</g>
		<g>
			<title> (ctg3896_3)</title>
			<polygon class=" (ctg3896_3)" points="69,25 109,25 109,10 139,40 109,70 109,55 69,55" fill="rgb(255,255,255)" fill-opacity="1.0" stroke="rgb(0,0,0)" stroke-width="2"  />
			<g>
				<title>SQHop_cyclase_N (PF13249)
"Squalene-hopene cyclase N-terminal domain"</title>
				<rect class="PF13249" x="71" y="28" stroke-linejoin="round" width="29" height="24" fill="rgb(88,190,89)" stroke="rgb(70,152,71)" stroke-width="1" opacity="0.75" />
			</g>
			<g>
				<title>SQHop_cyclase_C (PF13243)
"Squalene-hopene cyclase C-terminal domain"</title>
				<polygon class="PF13243" points="101,28 123,28 131,36 131,44 123,52 101,52" stroke-linejoin="round" width="30" height="24" fill="rgb(191,58,201)" stroke="rgb(152,46,160)" stroke-width="1" opacity="0.75" />
			</g>
		</g>
		<g>
			<title> (ctg3896_4)</title>
			<polygon class=" (ctg3896_4)" points="137,10 151,40 137,70" fill="rgb(255,255,255)" fill-opacity="1.0" stroke="rgb(0,0,0)" stroke-width="2"  />
		</g>
		<g>
			<title> (ctg3896_5)</title>
			<polygon class=" (ctg3896_5)" points="153,25 156,25 156,10 186,40 156,70 156,55 153,55" fill="rgb(255,255,255)" fill-opacity="1.0" stroke="rgb(0,0,0)" stroke-width="2"  />
			<g>
				<title>SQS_PSY (PF00494)
"Squalene/phytoene synthase"</title>
				<polygon class="PF00494" points="156,28 170,28 182,40 170,52 156,52" stroke-linejoin="round" width="27" height="24" fill="rgb(178,91,49)" stroke="rgb(142,72,39)" stroke-width="1" opacity="0.75" />
			</g>
		</g>
		<g>
			<title> (ctg3896_6)</title>
			<polygon class=" (ctg3896_6)" points="187,10 216,40 187,70" fill="rgb(255,255,255)" fill-opacity="1.0" stroke="rgb(0,0,0)" stroke-width="2"  />
			<g>
				<title>SQS_PSY (PF00494)
"Squalene/phytoene synthase"</title>
				<polygon class="PF00494" points="189,28 200,28 212,40 200,52 189,52" stroke-linejoin="round" width="25" height="24" fill="rgb(178,91,49)" stroke="rgb(142,72,39)" stroke-width="1" opacity="0.75" />
			</g>
		</g>
		<g>
			<title> (ctg3896_7)</title>
			<polygon class=" (ctg3896_7)" points="216,25 234,25 234,10 264,40 234,70 234,55 216,55" fill="rgb(255,255,255)" fill-opacity="1.0" stroke="rgb(0,0,0)" stroke-width="2"  />
			<g>
				<title>Amino_oxidase (PF01593)
"Flavin containing amine oxidoreductase"</title>
				<polygon class="PF01593" points="218,28 247,28 259,40 247,52 218,52" stroke-linejoin="round" width="43" height="24" fill="rgb(184,74,52)" stroke="rgb(147,59,41)" stroke-width="1" opacity="0.75" />
			</g>
		</g>
		<g>
			<title> (ctg3896_8)</title>
			<polygon class=" (ctg3896_8)" points="263,10 284,40 263,70" fill="rgb(255,255,255)" fill-opacity="1.0" stroke="rgb(0,0,0)" stroke-width="2"  />
			<g>
				<title>Aldolase_II (PF00596)
"Class II Aldolase and Adducin N-terminal domain"</title>
				<polygon class="PF00596" points="264,28 272,28 281,40 272,52 264,52" stroke-linejoin="round" width="18" height="24" fill="rgb(208,130,90)" stroke="rgb(166,104,72)" stroke-width="1" opacity="0.75" />
			</g>
		</g>
		<g>
			<title> (ctg3896_9)</title>
			<polygon class=" (ctg3896_9)" points="285,25 289,25 289,10 319,40 289,70 289,55 285,55" fill="rgb(255,255,255)" fill-opacity="1.0" stroke="rgb(0,0,0)" stroke-width="2"  />
		</g>
		<g>
			<title> (ctg3896_10)</title>
			<polygon class=" (ctg3896_10)" points="319,25 320,25 320,10 350,40 320,70 320,55 319,55" fill="rgb(255,255,255)" fill-opacity="1.0" stroke="rgb(0,0,0)" stroke-width="2"  />
			<g>
				<title>IU_nuc_hydro (PF01156)
"Inosine-uridine preferring nucleoside hydrolase"</title>
				<polygon class="PF01156" points="320,28 334,28 346,40 334,52 320,52" stroke-linejoin="round" width="29" height="24" fill="rgb(156,80,217)" stroke="rgb(124,64,173)" stroke-width="1" opacity="0.75" />
			</g>
		</g>
		<g>
			<title> (ctg3896_11)</title>
			<polygon class=" (ctg3896_11)" points="351,25 369,25 369,10 399,40 369,70 369,55 351,55" fill="rgb(255,255,255)" fill-opacity="1.0" stroke="rgb(0,0,0)" stroke-width="2"  />
			<g>
				<title>Phosphodiest (PF01663)
"Type I phosphodiesterase / nucleotide pyrophosphatase"</title>
				<polygon class="PF01663" points="351,28 382,28 388,34 388,46 382,52 351,52" stroke-linejoin="round" width="37" height="24" fill="rgb(178,65,158)" stroke="rgb(142,52,126)" stroke-width="1" opacity="0.75" />
			</g>
		</g>
		<g>
			<title> (ctg3896_12)</title>
			<polygon class=" (ctg3896_12)" points="452,25 434,25 434,10 404,40 434,70 434,55 452,55" fill="rgb(255,255,255)" fill-opacity="1.0" stroke="rgb(0,0,0)" stroke-width="2"  />
			<g>
				<title>Rieske (PF00355)
"Rieske [2Fe-2S] domain"</title>
				<rect class="PF00355" x="437" y="28" stroke-linejoin="round" width="9" height="24" fill="rgb(186,77,145)" stroke="rgb(148,61,115)" stroke-width="1" opacity="0.75" />
			</g>
		</g>
		<g>
			<title> (ctg3896_13)</title>
			<polygon class=" (ctg3896_13)" points="455,40 483,10 483,70" fill="rgb(255,255,255)" fill-opacity="1.0" stroke="rgb(0,0,0)" stroke-width="2"  />
			<g>
				<title>adh_short (PF00106)
"short chain dehydrogenase"</title>
				<polygon class="PF00106" points="462,37 470,28 481,28 481,52 470,52 462,43" stroke-linejoin="round" width="19" height="24" fill="rgb(182,219,73)" stroke="rgb(145,175,58)" stroke-width="1" opacity="0.75" />
			</g>
		</g>
		<g>
			<title> (ctg3896_14)</title>
			<polygon class=" (ctg3896_14)" points="484,40 496,10 496,70" fill="rgb(255,255,255)" fill-opacity="1.0" stroke="rgb(0,0,0)" stroke-width="2"  />
		</g>
		<g>
			<title> (ctg3896_15)</title>
			<polygon class=" (ctg3896_15)" points="534,25 529,25 529,10 499,40 529,70 529,55 534,55" fill="rgb(255,255,255)" fill-opacity="1.0" stroke="rgb(0,0,0)" stroke-width="2"  />
			<g>
				<title>NHL (PF01436)
"NHL repeat"</title>
				<polygon class="PF01436" points="513,30 515,28 515,28 515,52 515,52 513,50" stroke-linejoin="round" width="2" height="24" fill="rgb(186,63,63)" stroke="rgb(148,50,50)" stroke-width="1" opacity="0.75" />
			</g>
			<g>
				<title>NHL (PF01436)
"NHL repeat"</title>
				<rect class="PF01436" x="522" y="28" stroke-linejoin="round" width="2" height="24" fill="rgb(186,63,63)" stroke="rgb(148,50,50)" stroke-width="1" opacity="0.75" />
			</g>
		</g>
	</g>
</svg>
