<svg version="1.1" baseProfile="full" xmlns="http://www.w3.org/2000/svg" width="427.9" height="80">
	<g>
		<line x1="10" y1="40.0" x2="417.9" y2="40.0" style="stroke:rgb(70,70,70); stroke-width:3 "/>
		<g>
			<title> (ctg2287_13)</title>
			<polygon class=" (ctg2287_13)" points="24,10 52,40 24,70" fill="rgb(255,255,255)" fill-opacity="1.0" stroke="rgb(0,0,0)" stroke-width="2"  />
			<g>
				<title>DHODB_Fe-S_bind (PF10418)
"Iron-sulfur cluster binding domain of dihydroorotate dehydrogenase B"</title>
				<polygon class="PF10418" points="48,40 48,40 48,40" stroke-linejoin="round" width="4" height="24" fill="rgb(53,107,214)" stroke="rgb(42,85,171)" stroke-width="1" opacity="0.75" />
			</g>
		</g>
		<g>
			<title> (ctg2287_14)</title>
			<polygon class=" (ctg2287_14)" points="53,25 59,25 59,10 89,40 59,70 59,55 53,55" fill="rgb(255,255,255)" fill-opacity="1.0" stroke="rgb(0,0,0)" stroke-width="2"  />
			<g>
				<title>AnmK (PF03702)
"Anhydro-N-acetylmuramic acid kinase"</title>
				<polygon class="PF03702" points="53,28 73,28 85,40 73,52 53,52" stroke-linejoin="round" width="36" height="24" fill="rgb(182,60,66)" stroke="rgb(145,48,52)" stroke-width="1" opacity="0.75" />
			</g>
		</g>
		<g>
			<title> (ctg2287_15)</title>
			<polygon class=" (ctg2287_15)" points="91,10 98,40 91,70" fill="rgb(255,255,255)" fill-opacity="1.0" stroke="rgb(0,0,0)" stroke-width="2"  />
		</g>
		<g>
			<title> (ctg2287_16)</title>
			<polygon class=" (ctg2287_16)" points="98,25 101,25 101,10 131,40 101,70 101,55 98,55" fill="rgb(255,255,255)" fill-opacity="1.0" stroke="rgb(0,0,0)" stroke-width="2"  />
			<g>
				<title>Dehalogenase (PF13486)
"Reductive dehalogenase subunit"</title>
				<polygon class="PF13486" points="111,28 115,28 121,34 121,46 115,52 111,52" stroke-linejoin="round" width="10" height="24" fill="rgb(86,178,66)" stroke="rgb(68,142,52)" stroke-width="1" opacity="0.75" />
			</g>
			<g>
				<title>Fer4_7 (PF12838)
"4Fe-4S dicluster domain"</title>
				<polygon class="PF12838" points="123,36 127,40 123,44" stroke-linejoin="round" width="5" height="24" fill="rgb(138,229,96)" stroke="rgb(110,183,76)" stroke-width="1" opacity="0.75" />
			</g>
		</g>
		<g>
			<title> (ctg2287_17)</title>
			<polygon class=" (ctg2287_17)" points="131,25 191,25 191,10 221,40 191,70 191,55 131,55" fill="rgb(255,255,255)" fill-opacity="1.0" stroke="rgb(0,0,0)" stroke-width="2"  />
			<g>
				<title>Plug (PF07715)
"TonB-dependent Receptor Plug Domain"</title>
				<rect class="PF07715" x="136" y="28" stroke-linejoin="round" width="11" height="24" fill="rgb(99,133,214)" stroke="rgb(79,106,171)" stroke-width="1" opacity="0.75" />
			</g>
			<g>
				<title>TonB_dep_Rec (PF00593)
"TonB dependent receptor"</title>
				<polygon class="PF00593" points="184,28 205,28 217,40 205,52 184,52" stroke-linejoin="round" width="37" height="24" fill="rgb(171,200,51)" stroke="rgb(136,160,40)" stroke-width="1" opacity="0.75" />
			</g>
		</g>
		<g>
			<title> (ctg2287_18)</title>
			<polygon class=" (ctg2287_18)" points="228,10 247,40 228,70" fill="rgb(255,255,255)" fill-opacity="1.0" stroke="rgb(0,0,0)" stroke-width="2"  />
			<g>
				<title>Ala_racemase_N (PF01168)
"Alanine racemase, N-terminal domain"</title>
				<polygon class="PF01168" points="228,28 235,28 243,40 235,52 228,52" stroke-linejoin="round" width="18" height="24" fill="rgb(87,82,180)" stroke="rgb(69,65,144)" stroke-width="1" opacity="0.75" />
			</g>
		</g>
		<g>
			<title> (ctg2287_19)</title>
			<polygon class=" (ctg2287_19)" points="250,10 258,40 250,70" fill="rgb(255,255,255)" fill-opacity="1.0" stroke="rgb(0,0,0)" stroke-width="2"  />
			<g>
				<title>MazE_antitoxin (PF04014)
"Antidote-toxin recognition MazE, bacterial antitoxin"</title>
				<polygon class="PF04014" points="250,28 251,28 254,37 254,43 251,52 250,52" stroke-linejoin="round" width="4" height="24" fill="rgb(226,108,170)" stroke="rgb(180,86,136)" stroke-width="1" opacity="0.75" />
			</g>
		</g>
		<g>
			<title> (ctg2287_20)</title>
			<polygon class=" (ctg2287_20)" points="258,40 270,10 270,70" fill="rgb(255,255,255)" fill-opacity="1.0" stroke="rgb(0,0,0)" stroke-width="2"  />
		</g>
		<g>
			<title> (ctg2287_21)</title>
			<polygon class=" (ctg2287_21)" points="272,25 281,25 281,10 311,40 281,70 281,55 272,55" fill="rgb(255,255,255)" fill-opacity="1.0" stroke="rgb(0,0,0)" stroke-width="2"  />
			<g>
				<title>tRNA-synt_1b (PF00579)
"tRNA synthetases class I (W and Y)"</title>
				<polygon class="PF00579" points="273,28 295,28 301,34 301,46 295,52 273,52" stroke-linejoin="round" width="28" height="24" fill="rgb(82,63,204)" stroke="rgb(65,50,163)" stroke-width="1" opacity="0.75" />
			</g>
			<g>
				<title>S4 (PF01479)
"S4 domain"</title>
				<polygon class="PF01479" points="304,37 307,40 304,43" stroke-linejoin="round" width="4" height="24" fill="rgb(93,184,76)" stroke="rgb(74,147,60)" stroke-width="1" opacity="0.75" />
			</g>
		</g>
		<g>
			<title> (ctg2287_22)</title>
			<polygon class=" (ctg2287_22)" points="311,40 322,10 322,70" fill="rgb(255,255,255)" fill-opacity="1.0" stroke="rgb(0,0,0)" stroke-width="2"  />
		</g>
		<g>
			<title> (ctg2287_23)</title>
			<polygon class=" (ctg2287_23)" points="322,40 330,10 330,70" fill="rgb(255,255,255)" fill-opacity="1.0" stroke="rgb(0,0,0)" stroke-width="2"  />
		</g>
		<g>
			<title> (ctg2287_24)</title>
			<polygon class=" (ctg2287_24)" points="331,40 339,10 339,70" fill="rgb(255,255,255)" fill-opacity="1.0" stroke="rgb(0,0,0)" stroke-width="2"  />
		</g>
		<g>
			<title> (ctg2287_25)</title>
			<polygon class=" (ctg2287_25)" points="343,10 348,40 343,70" fill="rgb(255,255,255)" fill-opacity="1.0" stroke="rgb(0,0,0)" stroke-width="2"  />
		</g>
		<g>
			<title> (ctg2287_26)</title>
			<polygon class=" (ctg2287_26)" points="347,10 350,40 347,70" fill="rgb(255,255,255)" fill-opacity="1.0" stroke="rgb(0,0,0)" stroke-width="2"  />
		</g>
		<g>
			<title> (ctg2287_27)</title>
			<polygon class=" (ctg2287_27)" points="366,40 374,10 374,70" fill="rgb(255,255,255)" fill-opacity="1.0" stroke="rgb(0,0,0)" stroke-width="2"  />
		</g>
		<g>
			<title> (ctg2287_28)</title>
			<polygon class=" (ctg2287_28)" points="374,40 385,10 385,70" fill="rgb(255,255,255)" fill-opacity="1.0" stroke="rgb(0,0,0)" stroke-width="2"  />
		</g>
		<g>
			<title> (ctg2287_29)</title>
			<polygon class=" (ctg2287_29)" points="387,10 395,40 387,70" fill="rgb(255,255,255)" fill-opacity="1.0" stroke="rgb(0,0,0)" stroke-width="2"  />
		</g>
		<g>
			<title> (ctg2287_30)</title>
			<polygon class=" (ctg2287_30)" points="394,10 398,40 394,70" fill="rgb(255,255,255)" fill-opacity="1.0" stroke="rgb(0,0,0)" stroke-width="2"  />
		</g>
		<g>
			<title> (ctg2287_31)</title>
			<polygon class=" (ctg2287_31)" points="400,10 404,40 400,70" fill="rgb(255,255,255)" fill-opacity="1.0" stroke="rgb(0,0,0)" stroke-width="2"  />
		</g>
	</g>
</svg>
