<svg version="1.1" baseProfile="full" xmlns="http://www.w3.org/2000/svg" width="777.6" height="80">
	<g>
		<line x1="10" y1="40.0" x2="767.6" y2="40.0" style="stroke:rgb(70,70,70); stroke-width:3 "/>
		<g>
			<title> (ctg1247_21)</title>
			<polygon class=" (ctg1247_21)" points="30,10 37,40 30,70" fill="rgb(255,255,255)" fill-opacity="1.0" stroke="rgb(0,0,0)" stroke-width="2"  />
			<g>
				<title>MttA_Hcf106 (PF02416)
"mttA/Hcf106 family"</title>
				<polygon class="PF02416" points="30,28 30,28 33,40 30,52 30,52" stroke-linejoin="round" width="6" height="24" fill="rgb(74,206,98)" stroke="rgb(59,164,78)" stroke-width="1" opacity="0.75" />
			</g>
		</g>
		<g>
			<title> (ctg1247_22)</title>
			<polygon class=" (ctg1247_22)" points="38,10 65,40 38,70" fill="rgb(255,255,255)" fill-opacity="1.0" stroke="rgb(0,0,0)" stroke-width="2"  />
			<g>
				<title>TatC (PF00902)
"Sec-independent protein translocase protein (TatC)"</title>
				<polygon class="PF00902" points="38,28 49,28 60,40 49,52 38,52" stroke-linejoin="round" width="24" height="24" fill="rgb(84,193,209)" stroke="rgb(67,154,167)" stroke-width="1" opacity="0.75" />
			</g>
		</g>
		<g>
			<title> (ctg1247_23)</title>
			<polygon class=" (ctg1247_23)" points="64,10 89,40 64,70" fill="rgb(255,255,255)" fill-opacity="1.0" stroke="rgb(0,0,0)" stroke-width="2"  />
		</g>
		<g>
			<title> (ctg1247_24)</title>
			<polygon class=" (ctg1247_24)" points="93,40 98,10 98,70" fill="rgb(255,255,255)" fill-opacity="1.0" stroke="rgb(0,0,0)" stroke-width="2"  />
		</g>
		<g>
			<title> (ctg1247_25)</title>
			<polygon class=" (ctg1247_25)" points="106,10 126,40 106,70" fill="rgb(255,255,255)" fill-opacity="1.0" stroke="rgb(0,0,0)" stroke-width="2"  />
			<g>
				<title>Amidase_3 (PF01520)
"N-acetylmuramoyl-L-alanine amidase"</title>
				<polygon class="PF01520" points="106,28 114,28 123,40 114,52 106,52" stroke-linejoin="round" width="18" height="24" fill="rgb(174,223,57)" stroke="rgb(139,178,45)" stroke-width="1" opacity="0.75" />
			</g>
		</g>
		<g>
			<title> (ctg1247_26)</title>
			<polygon class=" (ctg1247_26)" points="167,25 163,25 163,10 133,40 163,70 163,55 167,55" fill="rgb(255,255,255)" fill-opacity="1.0" stroke="rgb(0,0,0)" stroke-width="2"  />
			<g>
				<title>AIRS_C (PF02769)
"AIR synthase related protein, C-terminal domain"</title>
				<polygon class="PF02769" points="137,40 149,28 149,28 149,52 149,52" stroke-linejoin="round" width="16" height="24" fill="rgb(182,125,70)" stroke="rgb(145,100,56)" stroke-width="1" opacity="0.75" />
			</g>
			<g>
				<title>AIRS (PF00586)
"AIR synthase related protein, N-terminal domain"</title>
				<rect class="PF00586" x="151" y="28" stroke-linejoin="round" width="14" height="24" fill="rgb(215,196,78)" stroke="rgb(172,156,62)" stroke-width="1" opacity="0.75" />
			</g>
		</g>
		<g>
			<title> (ctg1247_27)</title>
			<polygon class=" (ctg1247_27)" points="167,40 178,10 178,70" fill="rgb(255,255,255)" fill-opacity="1.0" stroke="rgb(0,0,0)" stroke-width="2"  />
		</g>
		<g>
			<title> (ctg1247_28)</title>
			<polygon class=" (ctg1247_28)" points="231,25 210,25 210,10 180,40 210,70 210,55 231,55" fill="rgb(255,255,255)" fill-opacity="1.0" stroke="rgb(0,0,0)" stroke-width="2"  />
			<g>
				<title>GATase_7 (PF13537)
"Glutamine amidotransferase domain"</title>
				<rect class="PF13537" x="206" y="28" stroke-linejoin="round" width="12" height="24" fill="rgb(200,63,57)" stroke="rgb(160,50,45)" stroke-width="1" opacity="0.75" />
			</g>
		</g>
		<g>
			<title> (ctg1247_29)</title>
			<polygon class=" (ctg1247_29)" points="231,40 249,10 249,70" fill="rgb(255,255,255)" fill-opacity="1.0" stroke="rgb(0,0,0)" stroke-width="2"  />
		</g>
		<g>
			<title> (ctg1247_30)</title>
			<polygon class=" (ctg1247_30)" points="256,40 266,10 266,70" fill="rgb(255,255,255)" fill-opacity="1.0" stroke="rgb(0,0,0)" stroke-width="2"  />
		</g>
		<g>
			<title> (ctg1247_31)</title>
			<polygon class=" (ctg1247_31)" points="270,10 291,40 270,70" fill="rgb(255,255,255)" fill-opacity="1.0" stroke="rgb(0,0,0)" stroke-width="2"  />
			<g>
				<title>Lipase_GDSL_2 (PF13472)
"GDSL-like Lipase/Acylhydrolase family"</title>
				<polygon class="PF13472" points="271,28 279,28 287,40 279,52 271,52" stroke-linejoin="round" width="18" height="24" fill="rgb(116,68,184)" stroke="rgb(92,54,147)" stroke-width="1" opacity="0.75" />
			</g>
		</g>
		<g>
			<title> (ctg1247_32)</title>
			<polygon class=" (ctg1247_32)" points="292,25 292,25 292,10 322,40 292,70 292,55 292,55" fill="rgb(255,255,255)" fill-opacity="1.0" stroke="rgb(0,0,0)" stroke-width="2"  />
			<g>
				<title>DHDPS (PF00701)
"Dihydrodipicolinate synthetase family"</title>
				<polygon class="PF00701" points="293,28 306,28 318,40 306,52 293,52" stroke-linejoin="round" width="28" height="24" fill="rgb(80,204,82)" stroke="rgb(64,163,65)" stroke-width="1" opacity="0.75" />
			</g>
		</g>
		<g>
			<title> (ctg1247_33)</title>
			<polygon class=" (ctg1247_33)" points="327,25 344,25 344,10 374,40 344,70 344,55 327,55" fill="rgb(255,255,255)" fill-opacity="1.0" stroke="rgb(0,0,0)" stroke-width="2"  />
			<g>
				<title>FAD_binding_4 (PF01565)
"FAD binding domain"</title>
				<rect class="PF01565" x="332" y="28" stroke-linejoin="round" width="13" height="24" fill="rgb(226,88,136)" stroke="rgb(180,70,108)" stroke-width="1" opacity="0.75" />
			</g>
			<g>
				<title>FAD-oxidase_C (PF02913)
"FAD linked oxidases, C-terminal domain"</title>
				<polygon class="PF02913" points="349,28 357,28 369,40 357,52 349,52" stroke-linejoin="round" width="24" height="24" fill="rgb(111,69,188)" stroke="rgb(88,55,150)" stroke-width="1" opacity="0.75" />
			</g>
		</g>
		<g>
			<title> (ctg1247_34)</title>
			<polygon class=" (ctg1247_34)" points="373,40 379,10 379,70" fill="rgb(255,255,255)" fill-opacity="1.0" stroke="rgb(0,0,0)" stroke-width="2"  />
		</g>
		<g>
			<title> (ctg1247_35)</title>
			<polygon class=" (ctg1247_35)" points="396,10 411,40 396,70" fill="rgb(255,255,255)" fill-opacity="1.0" stroke="rgb(0,0,0)" stroke-width="2"  />
			<g>
				<title>IF3_N (PF05198)
"Translation initiation factor IF-3, N-terminal domain"</title>
				<rect class="PF05198" x="396" y="28" stroke-linejoin="round" width="5" height="24" fill="rgb(226,105,214)" stroke="rgb(180,83,171)" stroke-width="1" opacity="0.75" />
			</g>
			<g>
				<title>IF3_C (PF00707)
"Translation initiation factor IF-3, C-terminal domain"</title>
				<polygon class="PF00707" points="402,28 408,40 402,52" stroke-linejoin="round" width="8" height="24" fill="rgb(122,214,90)" stroke="rgb(97,171,72)" stroke-width="1" opacity="0.75" />
			</g>
		</g>
		<g>
			<title> (ctg1247_36)</title>
			<polygon class=" (ctg1247_36)" points="423,10 431,40 423,70" fill="rgb(255,255,255)" fill-opacity="1.0" stroke="rgb(0,0,0)" stroke-width="2"  />
			<g>
				<title>Ribosomal_L20 (PF00453)
"Ribosomal protein L20"</title>
				<polygon class="PF00453" points="423,28 424,28 428,40 424,52 423,52" stroke-linejoin="round" width="7" height="24" fill="rgb(221,85,111)" stroke="rgb(176,67,88)" stroke-width="1" opacity="0.75" />
			</g>
		</g>
		<g>
			<title> (ctg1247_37)</title>
			<polygon class=" (ctg1247_37)" points="442,25 445,25 445,10 475,40 445,70 445,55 442,55" fill="rgb(255,255,255)" fill-opacity="1.0" stroke="rgb(0,0,0)" stroke-width="2"  />
			<g>
				<title>Phe_tRNA-synt_N (PF02912)
"Aminoacyl tRNA synthetase class II, N-terminal domain"</title>
				<rect class="PF02912" x="444" y="28" stroke-linejoin="round" width="6" height="24" fill="rgb(185,106,54)" stroke="rgb(148,84,43)" stroke-width="1" opacity="0.75" />
			</g>
			<g>
				<title>tRNA-synt_2d (PF01409)
"tRNA synthetases class II core domain (F)"</title>
				<polygon class="PF01409" points="451,28 459,28 471,40 459,52 451,52" stroke-linejoin="round" width="24" height="24" fill="rgb(88,202,82)" stroke="rgb(70,161,65)" stroke-width="1" opacity="0.75" />
			</g>
		</g>
		<g>
			<title> (ctg1247_38)</title>
			<polygon class=" (ctg1247_38)" points="515,25 507,25 507,10 477,40 507,70 507,55 515,55" fill="rgb(255,255,255)" fill-opacity="1.0" stroke="rgb(0,0,0)" stroke-width="2"  />
			<g>
				<title>OrfB_Zn_ribbon (PF07282)
"Putative transposase DNA-binding domain"</title>
				<polygon class="PF07282" points="481,40 486,35 486,45" stroke-linejoin="round" width="6" height="24" fill="rgb(188,84,136)" stroke="rgb(150,67,108)" stroke-width="1" opacity="0.75" />
			</g>
			<g>
				<title>OrfB_IS605 (PF01385)
"Probable transposase"</title>
				<polygon class="PF01385" points="488,33 493,28 500,28 500,52 493,52 488,47" stroke-linejoin="round" width="12" height="24" fill="rgb(95,115,208)" stroke="rgb(76,92,166)" stroke-width="1" opacity="0.75" />
			</g>
		</g>
		<g>
			<title> (ctg1247_39)</title>
			<polygon class=" (ctg1247_39)" points="524,25 573,25 573,10 603,40 573,70 573,55 524,55" fill="rgb(255,255,255)" fill-opacity="1.0" stroke="rgb(0,0,0)" stroke-width="2"  />
			<g>
				<title>tRNA_bind (PF01588)
"Putative tRNA binding domain"</title>
				<rect class="PF01588" x="528" y="28" stroke-linejoin="round" width="10" height="24" fill="rgb(192,51,118)" stroke="rgb(153,40,94)" stroke-width="1" opacity="0.75" />
			</g>
			<g>
				<title>B3_4 (PF03483)
"B3/4 domain"</title>
				<rect class="PF03483" x="545" y="28" stroke-linejoin="round" width="17" height="24" fill="rgb(97,63,226)" stroke="rgb(77,50,180)" stroke-width="1" opacity="0.75" />
			</g>
			<g>
				<title>B5 (PF03484)
"tRNA synthetase B5 domain"</title>
				<rect class="PF03484" x="564" y="28" stroke-linejoin="round" width="6" height="24" fill="rgb(94,91,186)" stroke="rgb(75,72,148)" stroke-width="1" opacity="0.75" />
			</g>
			<g>
				<title>tRNA_synthFbeta (PF17759)
"Phenylalanyl tRNA synthetase beta chain CLM domain"</title>
				<polygon class="PF17759" points="571,28 587,28 592,33 592,47 587,52 571,52" stroke-linejoin="round" width="21" height="24" fill="rgb(61,193,115)" stroke="rgb(48,154,92)" stroke-width="1" opacity="0.75" />
			</g>
			<g>
				<title>FDX-ACB (PF03147)
"Ferredoxin-fold anticodon binding domain"</title>
				<polygon class="PF03147" points="594,35 599,40 594,45" stroke-linejoin="round" width="9" height="24" fill="rgb(152,84,215)" stroke="rgb(121,67,172)" stroke-width="1" opacity="0.75" />
			</g>
		</g>
		<g>
			<title> (ctg1247_40)</title>
			<polygon class=" (ctg1247_40)" points="639,25 635,25 635,10 605,40 635,70 635,55 639,55" fill="rgb(255,255,255)" fill-opacity="1.0" stroke="rgb(0,0,0)" stroke-width="2"  />
		</g>
		<g>
			<title> (ctg1247_41)</title>
			<polygon class=" (ctg1247_41)" points="640,40 647,10 647,70" fill="rgb(255,255,255)" fill-opacity="1.0" stroke="rgb(0,0,0)" stroke-width="2"  />
		</g>
		<g>
			<title> (ctg1247_42)</title>
			<polygon class=" (ctg1247_42)" points="652,40 675,10 675,70" fill="rgb(255,255,255)" fill-opacity="1.0" stroke="rgb(0,0,0)" stroke-width="2"  />
			<g>
				<title>HAD (PF12710)
"haloacid dehalogenase-like hydrolase"</title>
				<polygon class="PF12710" points="656,40 665,28 673,28 673,52 665,52" stroke-linejoin="round" width="18" height="24" fill="rgb(181,59,119)" stroke="rgb(144,47,95)" stroke-width="1" opacity="0.75" />
			</g>
		</g>
		<g>
			<title> (ctg1247_43)</title>
			<polygon class=" (ctg1247_43)" points="766,25 706,25 706,10 676,40 706,70 706,55 766,55" fill="rgb(255,255,255)" fill-opacity="1.0" stroke="rgb(0,0,0)" stroke-width="2"  />
			<g>
				<title>Acyltransferase (PF01553)
"Acyltransferase"</title>
				<polygon class="PF01553" points="683,37 692,28 696,28 696,52 692,52 683,43" stroke-linejoin="round" width="13" height="24" fill="rgb(87,176,216)" stroke="rgb(69,140,172)" stroke-width="1" opacity="0.75" />
			</g>
			<g>
				<title>PP-binding (PF00550)
"Phosphopantetheine attachment site"</title>
				<rect class="PF00550" x="701" y="28" stroke-linejoin="round" width="6" height="24" fill="rgb(103,191,88)" stroke="rgb(82,152,70)" stroke-width="1" opacity="0.75" />
			</g>
			<g>
				<title>AMP-binding_C (PF13193)
"AMP-binding enzyme C-terminal domain"</title>
				<rect class="PF13193" x="713" y="28" stroke-linejoin="round" width="8" height="24" fill="rgb(182,50,118)" stroke="rgb(145,39,94)" stroke-width="1" opacity="0.75" />
			</g>
			<g>
				<title>AMP-binding (PF00501)
"AMP-binding enzyme"</title>
				<rect class="PF00501" x="722" y="28" stroke-linejoin="round" width="43" height="24" fill="rgb(60,217,223)" stroke="rgb(48,173,178)" stroke-width="1" opacity="0.75" />
			</g>
		</g>
	</g>
</svg>
