<svg version="1.1" baseProfile="full" xmlns="http://www.w3.org/2000/svg" width="279.6333333333333" height="80">
	<g>
		<line x1="10" y1="40.0" x2="269.6333333333333" y2="40.0" style="stroke:rgb(70,70,70); stroke-width:3 "/>
		<g>
			<title> (ctg7084_1)</title>
			<polygon class=" (ctg7084_1)" points="45,25 40,25 40,10 10,40 40,70 40,55 45,55" fill="rgb(255,255,255)" fill-opacity="1.0" stroke="rgb(0,0,0)" stroke-width="2"  />
			<g>
				<title>Sulf_transp (PF04143)
"Sulphur transport"</title>
				<polygon class="PF04143" points="17,37 26,28 42,28 42,52 26,52 17,43" stroke-linejoin="round" width="25" height="24" fill="rgb(166,79,214)" stroke="rgb(132,63,171)" stroke-width="1" opacity="0.75" />
			</g>
		</g>
		<g>
			<title> (ctg7084_2)</title>
			<polygon class=" (ctg7084_2)" points="101,25 86,25 86,10 56,40 86,70 86,55 101,55" fill="rgb(255,255,255)" fill-opacity="1.0" stroke="rgb(0,0,0)" stroke-width="2"  />
			<g>
				<title>SAF (PF08666)
"SAF domain"</title>
				<polygon class="PF08666" points="60,40 64,36 64,44" stroke-linejoin="round" width="6" height="24" fill="rgb(203,50,144)" stroke="rgb(162,40,115)" stroke-width="1" opacity="0.75" />
			</g>
		</g>
		<g>
			<title> (ctg7084_3)</title>
			<polygon class=" (ctg7084_3)" points="101,40 127,10 127,70" fill="rgb(255,255,255)" fill-opacity="1.0" stroke="rgb(0,0,0)" stroke-width="2"  />
			<g>
				<title>PhyH (PF05721)
"Phytanoyl-CoA dioxygenase (PhyH)"</title>
				<polygon class="PF05721" points="106,39 116,28 126,28 126,52 116,52 106,41" stroke-linejoin="round" width="20" height="24" fill="rgb(72,132,214)" stroke="rgb(57,105,171)" stroke-width="1" opacity="0.75" />
			</g>
		</g>
		<g>
			<title> (ctg7084_4)</title>
			<polygon class=" (ctg7084_4)" points="145,25 183,25 183,10 213,40 183,70 183,55 145,55" fill="rgb(255,255,255)" fill-opacity="1.0" stroke="rgb(0,0,0)" stroke-width="2"  />
			<g>
				<title>ketoacyl-synt (PF00109)
"Beta-ketoacyl synthase, N-terminal domain"</title>
				<rect class="PF00109" x="147" y="28" stroke-linejoin="round" width="25" height="24" fill="rgb(112,116,228)" stroke="rgb(89,92,182)" stroke-width="1" opacity="0.75" />
			</g>
			<g>
				<title>Ketoacyl-synt_C (PF02801)
"Beta-ketoacyl synthase, C-terminal domain"</title>
				<rect class="PF02801" x="173" y="28" stroke-linejoin="round" width="11" height="24" fill="rgb(215,78,102)" stroke="rgb(172,62,81)" stroke-width="1" opacity="0.75" />
			</g>
			<g>
				<title>KAsynt_C_assoc (PF16197)
"Ketoacyl-synthetase C-terminal extension"</title>
				<rect class="PF16197" x="185" y="28" stroke-linejoin="round" width="12" height="24" fill="rgb(240,150,172)" stroke="rgb(192,120,137)" stroke-width="1" opacity="0.75" />
			</g>
			<g>
				<title>Acyl_transf_1 (PF00698)
"Acyl transferase domain"</title>
				<polygon class="PF00698" points="202,33 209,40 202,47" stroke-linejoin="round" width="10" height="24" fill="rgb(59,176,209)" stroke="rgb(47,140,167)" stroke-width="1" opacity="0.75" />
			</g>
		</g>
		<g>
			<title> (ctg7084_5)</title>
			<polygon class=" (ctg7084_5)" points="216,25 239,25 239,10 269,40 239,70 239,55 216,55" fill="rgb(255,255,255)" fill-opacity="1.0" stroke="rgb(0,0,0)" stroke-width="2"  />
			<g>
				<title>Acyl_transf_1 (PF00698)
"Acyl transferase domain"</title>
				<rect class="PF00698" x="216" y="28" stroke-linejoin="round" width="18" height="24" fill="rgb(59,176,209)" stroke="rgb(47,140,167)" stroke-width="1" opacity="0.75" />
			</g>
			<g>
				<title>PS-DH (PF14765)
"Polyketide synthase dehydratase"</title>
				<polygon class="PF14765" points="240,28 253,28 265,40 253,52 240,52" stroke-linejoin="round" width="28" height="24" fill="rgb(173,56,182)" stroke="rgb(138,44,145)" stroke-width="1" opacity="0.75" />
			</g>
		</g>
	</g>
</svg>
