<svg version="1.1" baseProfile="full" xmlns="http://www.w3.org/2000/svg" width="1394.9333333333334" height="80">
	<g>
		<line x1="10" y1="40.0" x2="1384.9333333333334" y2="40.0" style="stroke:rgb(70,70,70); stroke-width:3 "/>
		<g>
			<title> (ctg150_2)</title>
			<polygon class=" (ctg150_2)" points="10,25 16,25 16,10 46,40 16,70 16,55 10,55" fill="rgb(255,255,255)" fill-opacity="1.0" stroke="rgb(0,0,0)" stroke-width="2"  />
			<g>
				<title>AAA_3 (PF07726)
"ATPase family associated with various cellular activities (AAA)"</title>
				<polygon class="PF07726" points="18,28 30,28 31,29 31,51 30,52 18,52" stroke-linejoin="round" width="13" height="24" fill="rgb(225,222,92)" stroke="rgb(180,177,73)" stroke-width="1" opacity="0.75" />
			</g>
			<g>
				<title>AAA_lid_2 (PF17863)
"AAA lid domain"</title>
				<polygon class="PF17863" points="39,37 42,40 39,43" stroke-linejoin="round" width="7" height="24" fill="rgb(52,164,197)" stroke="rgb(41,131,157)" stroke-width="1" opacity="0.75" />
			</g>
		</g>
		<g>
			<title> (ctg150_3)</title>
			<polygon class=" (ctg150_3)" points="47,25 49,25 49,10 79,40 49,70 49,55 47,55" fill="rgb(255,255,255)" fill-opacity="1.0" stroke="rgb(0,0,0)" stroke-width="2"  />
			<g>
				<title>DUF58 (PF01882)
"Protein of unknown function DUF58"</title>
				<rect class="PF01882" x="53" y="28" stroke-linejoin="round" width="8" height="24" fill="rgb(190,218,84)" stroke="rgb(152,174,67)" stroke-width="1" opacity="0.75" />
			</g>
		</g>
		<g>
			<title> (ctg150_4)</title>
			<polygon class=" (ctg150_4)" points="79,10 108,40 79,70" fill="rgb(255,255,255)" fill-opacity="1.0" stroke="rgb(0,0,0)" stroke-width="2"  />
		</g>
		<g>
			<title> (ctg150_5)</title>
			<polygon class=" (ctg150_5)" points="109,25 111,25 111,10 141,40 111,70 111,55 109,55" fill="rgb(255,255,255)" fill-opacity="1.0" stroke="rgb(0,0,0)" stroke-width="2"  />
			<g>
				<title>VWA (PF00092)
"von Willebrand factor type A domain"</title>
				<polygon class="PF00092" points="118,28 124,28 136,40 136,40 124,52 118,52" stroke-linejoin="round" width="18" height="24" fill="rgb(199,215,59)" stroke="rgb(159,172,47)" stroke-width="1" opacity="0.75" />
			</g>
		</g>
		<g>
			<title> (ctg150_6)</title>
			<polygon class=" (ctg150_6)" points="141,25 173,25 173,10 203,40 173,70 173,55 141,55" fill="rgb(255,255,255)" fill-opacity="1.0" stroke="rgb(0,0,0)" stroke-width="2"  />
			<g>
				<title>VWA_2 (PF13519)
"von Willebrand factor type A domain"</title>
				<rect class="PF13519" x="149" y="28" stroke-linejoin="round" width="12" height="24" fill="rgb(58,213,93)" stroke="rgb(46,170,74)" stroke-width="1" opacity="0.75" />
			</g>
		</g>
		<g>
			<title> (ctg150_7)</title>
			<polygon class=" (ctg150_7)" points="299,25 234,25 234,10 204,40 234,70 234,55 299,55" fill="rgb(255,255,255)" fill-opacity="1.0" stroke="rgb(0,0,0)" stroke-width="2"  />
			<g>
				<title>Transglut_core (PF01841)
"Transglutaminase-like superfamily"</title>
				<rect class="PF01841" x="225" y="28" stroke-linejoin="round" width="9" height="24" fill="rgb(208,223,79)" stroke="rgb(166,178,63)" stroke-width="1" opacity="0.75" />
			</g>
		</g>
		<g>
			<title> (ctg150_8)</title>
			<polygon class=" (ctg150_8)" points="347,25 329,25 329,10 299,40 329,70 329,55 347,55" fill="rgb(255,255,255)" fill-opacity="1.0" stroke="rgb(0,0,0)" stroke-width="2"  />
			<g>
				<title>DUF58 (PF01882)
"Protein of unknown function DUF58"</title>
				<rect class="PF01882" x="317" y="28" stroke-linejoin="round" width="8" height="24" fill="rgb(190,218,84)" stroke="rgb(152,174,67)" stroke-width="1" opacity="0.75" />
			</g>
		</g>
		<g>
			<title> (ctg150_9)</title>
			<polygon class=" (ctg150_9)" points="380,25 379,25 379,10 349,40 379,70 379,55 380,55" fill="rgb(255,255,255)" fill-opacity="1.0" stroke="rgb(0,0,0)" stroke-width="2"  />
			<g>
				<title>AAA_lid_2 (PF17863)
"AAA lid domain"</title>
				<polygon class="PF17863" points="353,40 357,36 357,44" stroke-linejoin="round" width="7" height="24" fill="rgb(52,164,197)" stroke="rgb(41,131,157)" stroke-width="1" opacity="0.75" />
			</g>
			<g>
				<title>AAA_3 (PF07726)
"ATPase family associated with various cellular activities (AAA)"</title>
				<polygon class="PF07726" points="363,30 365,28 376,28 376,52 365,52 363,50" stroke-linejoin="round" width="13" height="24" fill="rgb(225,222,92)" stroke="rgb(180,177,73)" stroke-width="1" opacity="0.75" />
			</g>
		</g>
		<g>
			<title> (ctg150_10)</title>
			<polygon class=" (ctg150_10)" points="385,25 392,25 392,10 422,40 392,70 392,55 385,55" fill="rgb(255,255,255)" fill-opacity="1.0" stroke="rgb(0,0,0)" stroke-width="2"  />
			<g>
				<title>Peptidase_M23 (PF01551)
"Peptidase family M23"</title>
				<polygon class="PF01551" points="410,32 418,40 410,48" stroke-linejoin="round" width="9" height="24" fill="rgb(65,169,193)" stroke="rgb(51,135,154)" stroke-width="1" opacity="0.75" />
			</g>
		</g>
		<g>
			<title> (ctg150_11)</title>
			<polygon class=" (ctg150_11)" points="424,40 450,10 450,70" fill="rgb(255,255,255)" fill-opacity="1.0" stroke="rgb(0,0,0)" stroke-width="2"  />
			<g>
				<title>Methyltrans_RNA (PF04452)
"RNA methyltransferase"</title>
				<polygon class="PF04452" points="428,40 439,28 446,28 446,52 439,52" stroke-linejoin="round" width="22" height="24" fill="rgb(106,123,214)" stroke="rgb(84,98,171)" stroke-width="1" opacity="0.75" />
			</g>
		</g>
		<g>
			<title> (ctg150_12)</title>
			<polygon class=" (ctg150_12)" points="454,10 480,40 454,70" fill="rgb(255,255,255)" fill-opacity="1.0" stroke="rgb(0,0,0)" stroke-width="2"  />
			<g>
				<title>adh_short_C2 (PF13561)
"Enoyl-(Acyl carrier protein) reductase"</title>
				<polygon class="PF13561" points="455,28 466,28 476,40 466,52 455,52" stroke-linejoin="round" width="24" height="24" fill="rgb(73,205,127)" stroke="rgb(58,164,101)" stroke-width="1" opacity="0.75" />
			</g>
		</g>
		<g>
			<title> (ctg150_13)</title>
			<polygon class=" (ctg150_13)" points="512,25 510,25 510,10 480,40 510,70 510,55 512,55" fill="rgb(255,255,255)" fill-opacity="1.0" stroke="rgb(0,0,0)" stroke-width="2"  />
			<g>
				<title>PrmA (PF06325)
"Ribosomal protein L11 methyltransferase (PrmA)"</title>
				<polygon class="PF06325" points="484,40 496,28 509,28 509,52 496,52" stroke-linejoin="round" width="29" height="24" fill="rgb(165,213,101)" stroke="rgb(132,170,80)" stroke-width="1" opacity="0.75" />
			</g>
		</g>
		<g>
			<title> (ctg150_14)</title>
			<polygon class=" (ctg150_14)" points="548,25 541,25 541,10 511,40 541,70 541,55 548,55" fill="rgb(255,255,255)" fill-opacity="1.0" stroke="rgb(0,0,0)" stroke-width="2"  />
			<g>
				<title>DnaJ_C (PF01556)
"DnaJ C terminal domain"</title>
				<polygon class="PF01556" points="515,40 527,28 536,28 536,52 527,52 515,40" stroke-linejoin="round" width="21" height="24" fill="rgb(97,143,214)" stroke="rgb(77,114,171)" stroke-width="1" opacity="0.75" />
			</g>
			<g>
				<title>DnaJ (PF00226)
"DnaJ domain"</title>
				<rect class="PF00226" x="541" y="28" stroke-linejoin="round" width="6" height="24" fill="rgb(207,80,207)" stroke="rgb(165,63,165)" stroke-width="1" opacity="0.75" />
			</g>
		</g>
		<g>
			<title> (ctg150_15)</title>
			<polygon class=" (ctg150_15)" points="614,25 581,25 581,10 551,40 581,70 581,55 614,55" fill="rgb(255,255,255)" fill-opacity="1.0" stroke="rgb(0,0,0)" stroke-width="2"  />
			<g>
				<title>HSP70 (PF00012)
"Hsp70 protein"</title>
				<polygon class="PF00012" points="555,40 567,28 613,28 613,52 567,52" stroke-linejoin="round" width="59" height="24" fill="rgb(60,173,201)" stroke="rgb(48,138,160)" stroke-width="1" opacity="0.75" />
			</g>
		</g>
		<g>
			<title> (ctg150_16)</title>
			<polygon class=" (ctg150_16)" points="614,40 633,10 633,70" fill="rgb(255,255,255)" fill-opacity="1.0" stroke="rgb(0,0,0)" stroke-width="2"  />
			<g>
				<title>GrpE (PF01025)
"GrpE"</title>
				<polygon class="PF01025" points="618,40 626,28 631,28 631,52 626,52" stroke-linejoin="round" width="16" height="24" fill="rgb(75,190,103)" stroke="rgb(60,152,82)" stroke-width="1" opacity="0.75" />
			</g>
		</g>
		<g>
			<title> (ctg150_17)</title>
			<polygon class=" (ctg150_17)" points="671,25 664,25 664,10 634,40 664,70 664,55 671,55" fill="rgb(255,255,255)" fill-opacity="1.0" stroke="rgb(0,0,0)" stroke-width="2"  />
			<g>
				<title>HrcA (PF01628)
"HrcA protein C terminal domain"</title>
				<polygon class="PF01628" points="638,40 650,28 659,28 659,52 650,52" stroke-linejoin="round" width="23" height="24" fill="rgb(216,106,202)" stroke="rgb(172,84,161)" stroke-width="1" opacity="0.75" />
			</g>
		</g>
		<g>
			<title> (ctg150_18)</title>
			<polygon class=" (ctg150_18)" points="676,25 687,25 687,10 717,40 687,70 687,55 676,55" fill="rgb(255,255,255)" fill-opacity="1.0" stroke="rgb(0,0,0)" stroke-width="2"  />
			<g>
				<title>ketoacyl-synt (PF00109)
"Beta-ketoacyl synthase, N-terminal domain"</title>
				<rect class="PF00109" x="677" y="28" stroke-linejoin="round" width="22" height="24" fill="rgb(112,116,228)" stroke="rgb(89,92,182)" stroke-width="1" opacity="0.75" />
			</g>
			<g>
				<title>Ketoacyl-synt_C (PF02801)
"Beta-ketoacyl synthase, C-terminal domain"</title>
				<polygon class="PF02801" points="700,28 701,28 711,38 711,42 701,52 700,52" stroke-linejoin="round" width="11" height="24" fill="rgb(215,78,102)" stroke="rgb(172,62,81)" stroke-width="1" opacity="0.75" />
			</g>
		</g>
		<g>
			<title> (ctg150_19)</title>
			<polygon class=" (ctg150_19)" points="719,10 740,40 719,70" fill="rgb(255,255,255)" fill-opacity="1.0" stroke="rgb(0,0,0)" stroke-width="2"  />
			<g>
				<title>Lactamase_B_3 (PF13483)
"Beta-lactamase superfamily domain"</title>
				<polygon class="PF13483" points="719,28 728,28 734,36 734,44 728,52 719,52" stroke-linejoin="round" width="15" height="24" fill="rgb(89,224,69)" stroke="rgb(71,179,55)" stroke-width="1" opacity="0.75" />
			</g>
		</g>
		<g>
			<title> (ctg150_20)</title>
			<polygon class=" (ctg150_20)" points="741,25 774,25 774,10 804,40 774,70 774,55 741,55" fill="rgb(255,255,255)" fill-opacity="1.0" stroke="rgb(0,0,0)" stroke-width="2"  />
			<g>
				<title>Peptidase_S15 (PF02129)
"X-Pro dipeptidyl-peptidase (S15 family)"</title>
				<rect class="PF02129" x="743" y="28" stroke-linejoin="round" width="27" height="24" fill="rgb(210,171,79)" stroke="rgb(168,136,63)" stroke-width="1" opacity="0.75" />
			</g>
			<g>
				<title>PepX_C (PF08530)
"X-Pro dipeptidyl-peptidase C-terminal non-catalytic domain"</title>
				<polygon class="PF08530" points="775,28 788,28 800,40 788,52 775,52" stroke-linejoin="round" width="28" height="24" fill="rgb(210,70,92)" stroke="rgb(168,56,73)" stroke-width="1" opacity="0.75" />
			</g>
		</g>
		<g>
			<title> (ctg150_21)</title>
			<polygon class=" (ctg150_21)" points="805,40 818,10 818,70" fill="rgb(255,255,255)" fill-opacity="1.0" stroke="rgb(0,0,0)" stroke-width="2"  />
			<g>
				<title>YjbR (PF04237)
"YjbR"</title>
				<polygon class="PF04237" points="808,40 813,28 816,28 816,52 813,52" stroke-linejoin="round" width="10" height="24" fill="rgb(66,212,177)" stroke="rgb(52,169,141)" stroke-width="1" opacity="0.75" />
			</g>
		</g>
		<g>
			<title> (ctg150_22)</title>
			<polygon class=" (ctg150_22)" points="861,25 849,25 849,10 819,40 849,70 849,55 861,55" fill="rgb(255,255,255)" fill-opacity="1.0" stroke="rgb(0,0,0)" stroke-width="2"  />
			<g>
				<title>ATP-synt_ab (PF00006)
"ATP synthase alpha/beta family, nucleotide-binding domain"</title>
				<polygon class="PF00006" points="825,38 835,28 845,28 845,52 835,52 825,42" stroke-linejoin="round" width="20" height="24" fill="rgb(187,135,93)" stroke="rgb(149,108,74)" stroke-width="1" opacity="0.75" />
			</g>
			<g>
				<title>Rho_RNA_bind (PF07497)
"Rho termination factor, RNA-binding domain"</title>
				<rect class="PF07497" x="849" y="28" stroke-linejoin="round" width="7" height="24" fill="rgb(72,224,90)" stroke="rgb(57,179,72)" stroke-width="1" opacity="0.75" />
			</g>
			<g>
				<title>Rho_N (PF07498)
"Rho termination factor, N-terminal domain"</title>
				<rect class="PF07498" x="856" y="28" stroke-linejoin="round" width="4" height="24" fill="rgb(124,198,58)" stroke="rgb(99,158,46)" stroke-width="1" opacity="0.75" />
			</g>
		</g>
		<g>
			<title> (ctg150_23)</title>
			<polygon class=" (ctg150_23)" points="869,40 892,10 892,70" fill="rgb(255,255,255)" fill-opacity="1.0" stroke="rgb(0,0,0)" stroke-width="2"  />
			<g>
				<title>TAL_FSA (PF00923)
"Transaldolase/Fructose-6-phosphate aldolase"</title>
				<polygon class="PF00923" points="873,40 882,28 891,28 891,52 882,52" stroke-linejoin="round" width="22" height="24" fill="rgb(208,111,74)" stroke="rgb(166,88,59)" stroke-width="1" opacity="0.75" />
			</g>
		</g>
		<g>
			<title> (ctg150_24)</title>
			<polygon class=" (ctg150_24)" points="893,40 908,10 908,70" fill="rgb(255,255,255)" fill-opacity="1.0" stroke="rgb(0,0,0)" stroke-width="2"  />
		</g>
		<g>
			<title> (ctg150_25)</title>
			<polygon class=" (ctg150_25)" points="981,25 955,25 955,10 925,40 955,70 955,55 981,55" fill="rgb(255,255,255)" fill-opacity="1.0" stroke="rgb(0,0,0)" stroke-width="2"  />
			<g>
				<title>GATase (PF00117)
"Glutamine amidotransferase class-I"</title>
				<polygon class="PF00117" points="929,40 941,28 949,28 949,52 941,52" stroke-linejoin="round" width="22" height="24" fill="rgb(159,201,96)" stroke="rgb(127,160,76)" stroke-width="1" opacity="0.75" />
			</g>
			<g>
				<title>CTP_synth_N (PF06418)
"CTP synthase N-terminus"</title>
				<rect class="PF06418" x="953" y="28" stroke-linejoin="round" width="26" height="24" fill="rgb(90,189,145)" stroke="rgb(72,151,116)" stroke-width="1" opacity="0.75" />
			</g>
		</g>
		<g>
			<title> (ctg150_26)</title>
			<polygon class=" (ctg150_26)" points="981,40 990,10 990,70" fill="rgb(255,255,255)" fill-opacity="1.0" stroke="rgb(0,0,0)" stroke-width="2"  />
			<g>
				<title>ThiS (PF02597)
"ThiS family"</title>
				<polygon class="PF02597" points="984,40 988,28 989,28 989,52 988,52" stroke-linejoin="round" width="7" height="24" fill="rgb(73,117,196)" stroke="rgb(58,93,156)" stroke-width="1" opacity="0.75" />
			</g>
		</g>
		<g>
			<title> (ctg150_27)</title>
			<polygon class=" (ctg150_27)" points="991,40 1015,10 1015,70" fill="rgb(255,255,255)" fill-opacity="1.0" stroke="rgb(0,0,0)" stroke-width="2"  />
		</g>
		<g>
			<title> (ctg150_28)</title>
			<polygon class=" (ctg150_28)" points="1030,10 1056,40 1030,70" fill="rgb(255,255,255)" fill-opacity="1.0" stroke="rgb(0,0,0)" stroke-width="2"  />
		</g>
		<g>
			<title> (ctg150_29)</title>
			<polygon class=" (ctg150_29)" points="1064,10 1088,40 1064,70" fill="rgb(255,255,255)" fill-opacity="1.0" stroke="rgb(0,0,0)" stroke-width="2"  />
			<g>
				<title>fn3 (PF00041)
"Fibronectin type III domain"</title>
				<rect class="PF00041" x="1067" y="28" stroke-linejoin="round" width="8" height="24" fill="rgb(203,70,135)" stroke="rgb(162,56,107)" stroke-width="1" opacity="0.75" />
			</g>
		</g>
		<g>
			<title> (ctg150_30)</title>
			<polygon class=" (ctg150_30)" points="1092,25 1106,25 1106,10 1136,40 1106,70 1106,55 1092,55" fill="rgb(255,255,255)" fill-opacity="1.0" stroke="rgb(0,0,0)" stroke-width="2"  />
			<g>
				<title>Peptidase_M16 (PF00675)
"Insulinase (Peptidase family M16)"</title>
				<rect class="PF00675" x="1094" y="28" stroke-linejoin="round" width="14" height="24" fill="rgb(70,225,127)" stroke="rgb(56,180,101)" stroke-width="1" opacity="0.75" />
			</g>
			<g>
				<title>Peptidase_M16_C (PF05193)
"Peptidase M16 inactive domain"</title>
				<polygon class="PF05193" points="1109,28 1119,28 1126,35 1126,45 1119,52 1109,52" stroke-linejoin="round" width="17" height="24" fill="rgb(199,79,180)" stroke="rgb(159,63,144)" stroke-width="1" opacity="0.75" />
			</g>
		</g>
		<g>
			<title> (ctg150_31)</title>
			<polygon class=" (ctg150_31)" points="1137,10 1160,40 1137,70" fill="rgb(255,255,255)" fill-opacity="1.0" stroke="rgb(0,0,0)" stroke-width="2"  />
		</g>
		<g>
			<title> (ctg150_32)</title>
			<polygon class=" (ctg150_32)" points="1161,10 1190,40 1161,70" fill="rgb(255,255,255)" fill-opacity="1.0" stroke="rgb(0,0,0)" stroke-width="2"  />
			<g>
				<title>HpcH_HpaI (PF03328)
"HpcH/HpaI aldolase/citrate lyase family"</title>
				<polygon class="PF03328" points="1161,28 1174,28 1182,36 1182,44 1174,52 1161,52" stroke-linejoin="round" width="21" height="24" fill="rgb(81,183,94)" stroke="rgb(64,146,75)" stroke-width="1" opacity="0.75" />
			</g>
		</g>
		<g>
			<title> (ctg150_33)</title>
			<polygon class=" (ctg150_33)" points="1229,25 1220,25 1220,10 1190,40 1220,70 1220,55 1229,55" fill="rgb(255,255,255)" fill-opacity="1.0" stroke="rgb(0,0,0)" stroke-width="2"  />
			<g>
				<title>Acyl-CoA_dh_2 (PF08028)
"Acyl-CoA dehydrogenase, C-terminal domain"</title>
				<polygon class="PF08028" points="1194,40 1205,29 1205,51" stroke-linejoin="round" width="13" height="24" fill="rgb(106,185,56)" stroke="rgb(84,148,44)" stroke-width="1" opacity="0.75" />
			</g>
		</g>
		<g>
			<title> (ctg150_34)</title>
			<polygon class=" (ctg150_34)" points="1269,25 1260,25 1260,10 1230,40 1260,70 1260,55 1269,55" fill="rgb(255,255,255)" fill-opacity="1.0" stroke="rgb(0,0,0)" stroke-width="2"  />
			<g>
				<title>Acyl-CoA_dh_2 (PF08028)
"Acyl-CoA dehydrogenase, C-terminal domain"</title>
				<polygon class="PF08028" points="1234,40 1245,29 1245,51" stroke-linejoin="round" width="13" height="24" fill="rgb(106,185,56)" stroke="rgb(84,148,44)" stroke-width="1" opacity="0.75" />
			</g>
			<g>
				<title>Acyl-CoA_dh_M (PF02770)
"Acyl-CoA dehydrogenase, middle domain"</title>
				<rect class="PF02770" x="1248" y="28" stroke-linejoin="round" width="8" height="24" fill="rgb(225,186,97)" stroke="rgb(180,148,77)" stroke-width="1" opacity="0.75" />
			</g>
		</g>
		<g>
			<title> (ctg150_35)</title>
			<polygon class=" (ctg150_35)" points="1310,25 1301,25 1301,10 1271,40 1301,70 1301,55 1310,55" fill="rgb(255,255,255)" fill-opacity="1.0" stroke="rgb(0,0,0)" stroke-width="2"  />
			<g>
				<title>Acyl-CoA_dh_2 (PF08028)
"Acyl-CoA dehydrogenase, C-terminal domain"</title>
				<polygon class="PF08028" points="1275,40 1286,29 1286,51" stroke-linejoin="round" width="13" height="24" fill="rgb(106,185,56)" stroke="rgb(84,148,44)" stroke-width="1" opacity="0.75" />
			</g>
		</g>
		<g>
			<title> (ctg150_36)</title>
			<polygon class=" (ctg150_36)" points="1314,25 1323,25 1323,10 1353,40 1323,70 1323,55 1314,55" fill="rgb(255,255,255)" fill-opacity="1.0" stroke="rgb(0,0,0)" stroke-width="2"  />
			<g>
				<title>Acyl-CoA_dh_N (PF02771)
"Acyl-CoA dehydrogenase, N-terminal domain"</title>
				<rect class="PF02771" x="1315" y="28" stroke-linejoin="round" width="11" height="24" fill="rgb(105,135,218)" stroke="rgb(84,108,174)" stroke-width="1" opacity="0.75" />
			</g>
			<g>
				<title>Acyl-CoA_dh_M (PF02770)
"Acyl-CoA dehydrogenase, middle domain"</title>
				<rect class="PF02770" x="1327" y="28" stroke-linejoin="round" width="9" height="24" fill="rgb(225,186,97)" stroke="rgb(180,148,77)" stroke-width="1" opacity="0.75" />
			</g>
			<g>
				<title>Acyl-CoA_dh_1 (PF00441)
"Acyl-CoA dehydrogenase, C-terminal domain"</title>
				<polygon class="PF00441" points="1338,29 1349,40 1338,51" stroke-linejoin="round" width="14" height="24" fill="rgb(85,191,117)" stroke="rgb(68,152,93)" stroke-width="1" opacity="0.75" />
			</g>
		</g>
		<g>
			<title> (ctg150_37)</title>
			<polygon class=" (ctg150_37)" points="1355,10 1370,40 1355,70" fill="rgb(255,255,255)" fill-opacity="1.0" stroke="rgb(0,0,0)" stroke-width="2"  />
			<g>
				<title>MaoC_dehydratas (PF01575)
"MaoC like domain"</title>
				<polygon class="PF01575" points="1356,28 1360,28 1367,40 1360,52 1356,52" stroke-linejoin="round" width="12" height="24" fill="rgb(218,129,86)" stroke="rgb(174,103,68)" stroke-width="1" opacity="0.75" />
			</g>
		</g>
	</g>
</svg>
