<svg version="1.1" baseProfile="full" xmlns="http://www.w3.org/2000/svg" width="1443.7333333333333" height="80">
	<g>
		<line x1="10" y1="40.0" x2="1433.7333333333333" y2="40.0" style="stroke:rgb(70,70,70); stroke-width:3 "/>
		<g>
			<title> (ctg140_30)</title>
			<polygon class=" (ctg140_30)" points="31,10 56,40 31,70" fill="rgb(255,255,255)" fill-opacity="1.0" stroke="rgb(0,0,0)" stroke-width="2"  />
			<g>
				<title>AP_endonuc_2 (PF01261)
"Xylose isomerase-like TIM barrel"</title>
				<polygon class="PF01261" points="33,28 42,28 52,40 52,40 42,52 33,52" stroke-linejoin="round" width="19" height="24" fill="rgb(69,222,207)" stroke="rgb(55,177,165)" stroke-width="1" opacity="0.75" />
			</g>
		</g>
		<g>
			<title> (ctg140_31)</title>
			<polygon class=" (ctg140_31)" points="64,10 89,40 64,70" fill="rgb(255,255,255)" fill-opacity="1.0" stroke="rgb(0,0,0)" stroke-width="2"  />
		</g>
		<g>
			<title> (ctg140_32)</title>
			<polygon class=" (ctg140_32)" points="135,25 124,25 124,10 94,40 124,70 124,55 135,55" fill="rgb(255,255,255)" fill-opacity="1.0" stroke="rgb(0,0,0)" stroke-width="2"  />
			<g>
				<title>GFO_IDH_MocA (PF01408)
"Oxidoreductase family, NAD-binding Rossmann fold"</title>
				<rect class="PF01408" x="117" y="28" stroke-linejoin="round" width="15" height="24" fill="rgb(76,117,190)" stroke="rgb(60,93,152)" stroke-width="1" opacity="0.75" />
			</g>
		</g>
		<g>
			<title> (ctg140_33)</title>
			<polygon class=" (ctg140_33)" points="142,40 163,10 163,70" fill="rgb(255,255,255)" fill-opacity="1.0" stroke="rgb(0,0,0)" stroke-width="2"  />
		</g>
		<g>
			<title> (ctg140_34)</title>
			<polygon class=" (ctg140_34)" points="208,25 196,25 196,10 166,40 196,70 196,55 208,55" fill="rgb(255,255,255)" fill-opacity="1.0" stroke="rgb(0,0,0)" stroke-width="2"  />
			<g>
				<title>Lyase_1 (PF00206)
"Lyase"</title>
				<polygon class="PF00206" points="180,30 182,28 207,28 207,52 182,52 180,50" stroke-linejoin="round" width="27" height="24" fill="rgb(217,92,141)" stroke="rgb(173,73,112)" stroke-width="1" opacity="0.75" />
			</g>
		</g>
		<g>
			<title> (ctg140_35)</title>
			<polygon class=" (ctg140_35)" points="219,40 246,10 246,70" fill="rgb(255,255,255)" fill-opacity="1.0" stroke="rgb(0,0,0)" stroke-width="2"  />
			<g>
				<title>DUF5131 (PF07505)
"Protein of unknown function (DUF5131)"</title>
				<polygon class="PF07505" points="223,40 234,28 245,28 245,52 234,52" stroke-linejoin="round" width="23" height="24" fill="rgb(218,75,73)" stroke="rgb(174,59,58)" stroke-width="1" opacity="0.75" />
			</g>
		</g>
		<g>
			<title> (ctg140_36)</title>
			<polygon class=" (ctg140_36)" points="258,40 276,10 276,70" fill="rgb(255,255,255)" fill-opacity="1.0" stroke="rgb(0,0,0)" stroke-width="2"  />
			<g>
				<title>Dioxygenase_C (PF00775)
"Dioxygenase"</title>
				<polygon class="PF00775" points="262,40 269,28 275,28 275,52 269,52" stroke-linejoin="round" width="16" height="24" fill="rgb(96,217,213)" stroke="rgb(76,173,170)" stroke-width="1" opacity="0.75" />
			</g>
		</g>
		<g>
			<title> (ctg140_37)</title>
			<polygon class=" (ctg140_37)" points="277,40 300,10 300,70" fill="rgb(255,255,255)" fill-opacity="1.0" stroke="rgb(0,0,0)" stroke-width="2"  />
			<g>
				<title>Dioxygenase_C (PF00775)
"Dioxygenase"</title>
				<polygon class="PF00775" points="281,40 290,28 295,28 295,52 290,52" stroke-linejoin="round" width="18" height="24" fill="rgb(96,217,213)" stroke="rgb(76,173,170)" stroke-width="1" opacity="0.75" />
			</g>
			<g>
				<title>PCDO_beta_N (PF12391)
"Protocatechuate 3,4-dioxygenase beta subunit N terminal"</title>
				<rect class="PF12391" x="296" y="28" stroke-linejoin="round" width="3" height="24" fill="rgb(58,217,189)" stroke="rgb(46,173,151)" stroke-width="1" opacity="0.75" />
			</g>
		</g>
		<g>
			<title> (ctg140_38)</title>
			<polygon class=" (ctg140_38)" points="301,40 314,10 314,70" fill="rgb(255,255,255)" fill-opacity="1.0" stroke="rgb(0,0,0)" stroke-width="2"  />
			<g>
				<title>CMD (PF02627)
"Carboxymuconolactone decarboxylase family"</title>
				<polygon class="PF02627" points="304,40 309,28 310,28 310,52 309,52" stroke-linejoin="round" width="8" height="24" fill="rgb(58,205,164)" stroke="rgb(46,164,131)" stroke-width="1" opacity="0.75" />
			</g>
		</g>
		<g>
			<title> (ctg140_39)</title>
			<polygon class=" (ctg140_39)" points="314,40 340,10 340,70" fill="rgb(255,255,255)" fill-opacity="1.0" stroke="rgb(0,0,0)" stroke-width="2"  />
			<g>
				<title>Abhydrolase_6 (PF12697)
"Alpha/beta hydrolase family"</title>
				<polygon class="PF12697" points="318,40 329,28 337,28 337,52 329,52" stroke-linejoin="round" width="22" height="24" fill="rgb(113,71,219)" stroke="rgb(90,56,175)" stroke-width="1" opacity="0.75" />
			</g>
		</g>
		<g>
			<title> (ctg140_40)</title>
			<polygon class=" (ctg140_40)" points="342,25 366,25 366,10 396,40 366,70 366,55 342,55" fill="rgb(255,255,255)" fill-opacity="1.0" stroke="rgb(0,0,0)" stroke-width="2"  />
			<g>
				<title>MarR (PF01047)
"MarR family"</title>
				<rect class="PF01047" x="345" y="28" stroke-linejoin="round" width="5" height="24" fill="rgb(60,185,86)" stroke="rgb(48,148,68)" stroke-width="1" opacity="0.75" />
			</g>
			<g>
				<title>p450 (PF00067)
"Cytochrome P450"</title>
				<polygon class="PF00067" points="374,28 379,28 391,40 379,52 374,52" stroke-linejoin="round" width="19" height="24" fill="rgb(85,216,107)" stroke="rgb(68,172,85)" stroke-width="1" opacity="0.75" />
			</g>
		</g>
		<g>
			<title> (ctg140_41)</title>
			<polygon class=" (ctg140_41)" points="397,10 403,40 397,70" fill="rgb(255,255,255)" fill-opacity="1.0" stroke="rgb(0,0,0)" stroke-width="2"  />
		</g>
		<g>
			<title> (ctg140_42)</title>
			<polygon class=" (ctg140_42)" points="404,25 422,25 422,10 452,40 422,70 422,55 404,55" fill="rgb(255,255,255)" fill-opacity="1.0" stroke="rgb(0,0,0)" stroke-width="2"  />
			<g>
				<title>SSF (PF00474)
"Sodium:solute symporter family"</title>
				<polygon class="PF00474" points="407,28 436,28 446,38 446,42 436,52 407,52" stroke-linejoin="round" width="39" height="24" fill="rgb(49,186,178)" stroke="rgb(39,148,142)" stroke-width="1" opacity="0.75" />
			</g>
		</g>
		<g>
			<title> (ctg140_43)</title>
			<polygon class=" (ctg140_43)" points="457,25 539,25 539,10 569,40 539,70 539,55 457,55" fill="rgb(255,255,255)" fill-opacity="1.0" stroke="rgb(0,0,0)" stroke-width="2"  />
			<g>
				<title>CarboxypepD_reg (PF13620)
"Carboxypeptidase regulatory-like domain"</title>
				<rect class="PF13620" x="459" y="28" stroke-linejoin="round" width="8" height="24" fill="rgb(201,63,96)" stroke="rgb(160,50,76)" stroke-width="1" opacity="0.75" />
			</g>
			<g>
				<title>Plug (PF07715)
"TonB-dependent Receptor Plug Domain"</title>
				<rect class="PF07715" x="470" y="28" stroke-linejoin="round" width="10" height="24" fill="rgb(99,133,214)" stroke="rgb(79,106,171)" stroke-width="1" opacity="0.75" />
			</g>
		</g>
		<g>
			<title> (ctg140_44)</title>
			<polygon class=" (ctg140_44)" points="571,25 629,25 629,10 659,40 629,70 629,55 571,55" fill="rgb(255,255,255)" fill-opacity="1.0" stroke="rgb(0,0,0)" stroke-width="2"  />
		</g>
		<g>
			<title> (ctg140_45)</title>
			<polygon class=" (ctg140_45)" points="661,40 668,10 668,70" fill="rgb(255,255,255)" fill-opacity="1.0" stroke="rgb(0,0,0)" stroke-width="2"  />
			<g>
				<title>Zn-ribbon_8 (PF09723)
"Zinc ribbon domain"</title>
				<polygon class="PF09723" points="664,40 667,28 667,28 667,52 667,52 664,40" stroke-linejoin="round" width="3" height="24" fill="rgb(100,194,213)" stroke="rgb(80,155,170)" stroke-width="1" opacity="0.75" />
			</g>
		</g>
		<g>
			<title> (ctg140_46)</title>
			<polygon class=" (ctg140_46)" points="766,25 706,25 706,10 676,40 706,70 706,55 766,55" fill="rgb(255,255,255)" fill-opacity="1.0" stroke="rgb(0,0,0)" stroke-width="2"  />
			<g>
				<title>AMP-binding (PF00501)
"AMP-binding enzyme"</title>
				<rect class="PF00501" x="711" y="28" stroke-linejoin="round" width="44" height="24" fill="rgb(60,217,223)" stroke="rgb(48,173,178)" stroke-width="1" opacity="0.75" />
			</g>
			<g>
				<title>PP-binding (PF00550)
"Phosphopantetheine attachment site"</title>
				<rect class="PF00550" x="759" y="28" stroke-linejoin="round" width="6" height="24" fill="rgb(103,191,88)" stroke="rgb(82,152,70)" stroke-width="1" opacity="0.75" />
			</g>
		</g>
		<g>
			<title> (ctg140_47)</title>
			<polygon class=" (ctg140_47)" points="773,10 799,40 773,70" fill="rgb(255,255,255)" fill-opacity="1.0" stroke="rgb(0,0,0)" stroke-width="2"  />
			<g>
				<title>MOSC_N (PF03476)
"MOSC N-terminal beta barrel domain"</title>
				<rect class="PF03476" x="773" y="28" stroke-linejoin="round" width="10" height="24" fill="rgb(209,103,209)" stroke="rgb(167,82,167)" stroke-width="1" opacity="0.75" />
			</g>
			<g>
				<title>MOSC (PF03473)
"MOSC domain"</title>
				<polygon class="PF03473" points="784,28 785,28 795,40 785,52 784,52" stroke-linejoin="round" width="14" height="24" fill="rgb(96,194,162)" stroke="rgb(76,155,129)" stroke-width="1" opacity="0.75" />
			</g>
		</g>
		<g>
			<title> (ctg140_48)</title>
			<polygon class=" (ctg140_48)" points="801,10 827,40 801,70" fill="rgb(255,255,255)" fill-opacity="1.0" stroke="rgb(0,0,0)" stroke-width="2"  />
			<g>
				<title>YmdB (PF13277)
"YmdB-like protein"</title>
				<polygon class="PF13277" points="801,28 813,28 823,40 813,52 801,52" stroke-linejoin="round" width="25" height="24" fill="rgb(95,186,86)" stroke="rgb(76,148,68)" stroke-width="1" opacity="0.75" />
			</g>
		</g>
		<g>
			<title> (ctg140_49)</title>
			<polygon class=" (ctg140_49)" points="828,10 856,40 828,70" fill="rgb(255,255,255)" fill-opacity="1.0" stroke="rgb(0,0,0)" stroke-width="2"  />
			<g>
				<title>ATP_bind_3 (PF01171)
"PP-loop family"</title>
				<polygon class="PF01171" points="831,28 840,28 847,35 847,45 840,52 831,52" stroke-linejoin="round" width="16" height="24" fill="rgb(97,189,207)" stroke="rgb(77,151,165)" stroke-width="1" opacity="0.75" />
			</g>
		</g>
		<g>
			<title> (ctg140_50)</title>
			<polygon class=" (ctg140_50)" points="860,25 868,25 868,10 898,40 868,70 868,55 860,55" fill="rgb(255,255,255)" fill-opacity="1.0" stroke="rgb(0,0,0)" stroke-width="2"  />
			<g>
				<title>Na_Pi_cotrans (PF02690)
"Na+/Pi-cotransporter"</title>
				<rect class="PF02690" x="862" y="28" stroke-linejoin="round" width="13" height="24" fill="rgb(109,220,115)" stroke="rgb(87,176,91)" stroke-width="1" opacity="0.75" />
			</g>
			<g>
				<title>Na_Pi_cotrans (PF02690)
"Na+/Pi-cotransporter"</title>
				<polygon class="PF02690" points="881,28 882,28 894,40 882,52 881,52" stroke-linejoin="round" width="15" height="24" fill="rgb(109,220,115)" stroke="rgb(87,176,91)" stroke-width="1" opacity="0.75" />
			</g>
		</g>
		<g>
			<title> (ctg140_51)</title>
			<polygon class=" (ctg140_51)" points="956,25 933,25 933,10 903,40 933,70 933,55 956,55" fill="rgb(255,255,255)" fill-opacity="1.0" stroke="rgb(0,0,0)" stroke-width="2"  />
			<g>
				<title>DUF4994 (PF16385)
"Domain of unknown function"</title>
				<polygon class="PF16385" points="907,40 914,33 914,47" stroke-linejoin="round" width="10" height="24" fill="rgb(193,118,86)" stroke="rgb(154,94,68)" stroke-width="1" opacity="0.75" />
			</g>
			<g>
				<title>Sulfatase (PF00884)
"Sulfatase"</title>
				<polygon class="PF00884" points="915,32 919,28 952,28 952,52 919,52 915,48" stroke-linejoin="round" width="37" height="24" fill="rgb(61,103,198)" stroke="rgb(48,82,158)" stroke-width="1" opacity="0.75" />
			</g>
		</g>
		<g>
			<title> (ctg140_52)</title>
			<polygon class=" (ctg140_52)" points="1002,25 986,25 986,10 956,40 986,70 986,55 1002,55" fill="rgb(255,255,255)" fill-opacity="1.0" stroke="rgb(0,0,0)" stroke-width="2"  />
			<g>
				<title>GFO_IDH_MocA (PF01408)
"Oxidoreductase family, NAD-binding Rossmann fold"</title>
				<rect class="PF01408" x="984" y="28" stroke-linejoin="round" width="12" height="24" fill="rgb(76,117,190)" stroke="rgb(60,93,152)" stroke-width="1" opacity="0.75" />
			</g>
		</g>
		<g>
			<title> (ctg140_53)</title>
			<polygon class=" (ctg140_53)" points="1037,25 1034,25 1034,10 1004,40 1034,70 1034,55 1037,55" fill="rgb(255,255,255)" fill-opacity="1.0" stroke="rgb(0,0,0)" stroke-width="2"  />
			<g>
				<title>Peptidase_S58 (PF03576)
"Peptidase family S58"</title>
				<polygon class="PF03576" points="1008,40 1020,28 1036,28 1036,52 1020,52" stroke-linejoin="round" width="31" height="24" fill="rgb(222,70,152)" stroke="rgb(177,56,121)" stroke-width="1" opacity="0.75" />
			</g>
		</g>
		<g>
			<title> (ctg140_54)</title>
			<polygon class=" (ctg140_54)" points="1041,25 1053,25 1053,10 1083,40 1053,70 1053,55 1041,55" fill="rgb(255,255,255)" fill-opacity="1.0" stroke="rgb(0,0,0)" stroke-width="2"  />
		</g>
		<g>
			<title> (ctg140_55)</title>
			<polygon class=" (ctg140_55)" points="1091,25 1094,25 1094,10 1124,40 1094,70 1094,55 1091,55" fill="rgb(255,255,255)" fill-opacity="1.0" stroke="rgb(0,0,0)" stroke-width="2"  />
			<g>
				<title>polyprenyl_synt (PF00348)
"Polyprenyl synthetase"</title>
				<polygon class="PF00348" points="1094,28 1108,28 1118,38 1118,42 1108,52 1094,52" stroke-linejoin="round" width="24" height="24" fill="rgb(61,206,65)" stroke="rgb(48,164,52)" stroke-width="1" opacity="0.75" />
			</g>
		</g>
		<g>
			<title> (ctg140_56)</title>
			<polygon class=" (ctg140_56)" points="1172,25 1155,25 1155,10 1125,40 1155,70 1155,55 1172,55" fill="rgb(255,255,255)" fill-opacity="1.0" stroke="rgb(0,0,0)" stroke-width="2"  />
			<g>
				<title>DUF1501 (PF07394)
"Protein of unknown function (DUF1501)"</title>
				<polygon class="PF07394" points="1129,40 1141,28 1165,28 1165,52 1141,52" stroke-linejoin="round" width="38" height="24" fill="rgb(199,225,81)" stroke="rgb(159,180,64)" stroke-width="1" opacity="0.75" />
			</g>
		</g>
		<g>
			<title> (ctg140_57)</title>
			<polygon class=" (ctg140_57)" points="1242,25 1202,25 1202,10 1172,40 1202,70 1202,55 1242,55" fill="rgb(255,255,255)" fill-opacity="1.0" stroke="rgb(0,0,0)" stroke-width="2"  />
			<g>
				<title>PSD1 (PF07587)
"Protein of unknown function (DUF1553)"</title>
				<polygon class="PF07587" points="1176,40 1188,28 1198,28 1198,52 1188,52" stroke-linejoin="round" width="24" height="24" fill="rgb(55,214,194)" stroke="rgb(44,171,155)" stroke-width="1" opacity="0.75" />
			</g>
			<g>
				<title>PSCyt2 (PF07583)
"Protein of unknown function (DUF1549)"</title>
				<rect class="PF07583" x="1208" y="28" stroke-linejoin="round" width="23" height="24" fill="rgb(224,195,67)" stroke="rgb(179,156,53)" stroke-width="1" opacity="0.75" />
			</g>
		</g>
		<g>
			<title> (ctg140_58)</title>
			<polygon class=" (ctg140_58)" points="1250,10 1270,40 1250,70" fill="rgb(255,255,255)" fill-opacity="1.0" stroke="rgb(0,0,0)" stroke-width="2"  />
			<g>
				<title>CMAS (PF02353)
"Mycolic acid cyclopropane synthetase"</title>
				<polygon class="PF02353" points="1255,28 1258,28 1264,37 1264,43 1258,52 1255,52" stroke-linejoin="round" width="9" height="24" fill="rgb(56,174,188)" stroke="rgb(44,139,150)" stroke-width="1" opacity="0.75" />
			</g>
		</g>
		<g>
			<title> (ctg140_59)</title>
			<polygon class=" (ctg140_59)" points="1273,25 1331,25 1331,10 1361,40 1331,70 1331,55 1273,55" fill="rgb(255,255,255)" fill-opacity="1.0" stroke="rgb(0,0,0)" stroke-width="2"  />
			<g>
				<title>Toprim (PF01751)
"Toprim domain"</title>
				<rect class="PF01751" x="1274" y="28" stroke-linejoin="round" width="12" height="24" fill="rgb(95,212,145)" stroke="rgb(76,169,116)" stroke-width="1" opacity="0.75" />
			</g>
			<g>
				<title>Topoisom_bac (PF01131)
"DNA topoisomerase"</title>
				<rect class="PF01131" x="1288" y="28" stroke-linejoin="round" width="44" height="24" fill="rgb(136,196,98)" stroke="rgb(108,156,78)" stroke-width="1" opacity="0.75" />
			</g>
			<g>
				<title>Toprim_C_rpt (PF13368)
"Topoisomerase C-terminal repeat"</title>
				<rect class="PF13368" x="1336" y="28" stroke-linejoin="round" width="5" height="24" fill="rgb(146,209,96)" stroke="rgb(116,167,76)" stroke-width="1" opacity="0.75" />
			</g>
			<g>
				<title>Toprim_C_rpt (PF13368)
"Topoisomerase C-terminal repeat"</title>
				<polygon class="PF13368" points="1342,28 1345,28 1348,31 1348,49 1345,52 1342,52" stroke-linejoin="round" width="6" height="24" fill="rgb(146,209,96)" stroke="rgb(116,167,76)" stroke-width="1" opacity="0.75" />
			</g>
			<g>
				<title>Toprim_C_rpt (PF13368)
"Topoisomerase C-terminal repeat"</title>
				<polygon class="PF13368" points="1348,31 1353,36 1353,44 1348,49" stroke-linejoin="round" width="5" height="24" fill="rgb(146,209,96)" stroke="rgb(116,167,76)" stroke-width="1" opacity="0.75" />
			</g>
			<g>
				<title>Toprim_C_rpt (PF13368)
"Topoisomerase C-terminal repeat"</title>
				<polygon class="PF13368" points="1354,37 1357,40 1354,43" stroke-linejoin="round" width="5" height="24" fill="rgb(146,209,96)" stroke="rgb(116,167,76)" stroke-width="1" opacity="0.75" />
			</g>
		</g>
		<g>
			<title> (ctg140_60)</title>
			<polygon class=" (ctg140_60)" points="1363,10 1385,40 1363,70" fill="rgb(255,255,255)" fill-opacity="1.0" stroke="rgb(0,0,0)" stroke-width="2"  />
			<g>
				<title>Peptidase_M22 (PF00814)
"Glycoprotease family"</title>
				<polygon class="PF00814" points="1366,28 1373,28 1377,34 1377,46 1373,52 1366,52" stroke-linejoin="round" width="11" height="24" fill="rgb(178,70,94)" stroke="rgb(142,56,75)" stroke-width="1" opacity="0.75" />
			</g>
		</g>
		<g>
			<title> (ctg140_61)</title>
			<polygon class=" (ctg140_61)" points="1421,25 1414,25 1414,10 1384,40 1414,70 1414,55 1421,55" fill="rgb(255,255,255)" fill-opacity="1.0" stroke="rgb(0,0,0)" stroke-width="2"  />
			<g>
				<title>Abhydrolase_1 (PF00561)
"alpha/beta hydrolase fold"</title>
				<polygon class="PF00561" points="1388,40 1400,28 1417,28 1417,52 1400,52" stroke-linejoin="round" width="30" height="24" fill="rgb(86,180,151)" stroke="rgb(68,144,120)" stroke-width="1" opacity="0.75" />
			</g>
		</g>
	</g>
</svg>
