<svg version="1.1" baseProfile="full" xmlns="http://www.w3.org/2000/svg" width="722.4666666666667" height="80">
	<g>
		<line x1="10" y1="40.0" x2="712.4666666666667" y2="40.0" style="stroke:rgb(70,70,70); stroke-width:3 "/>
		<g>
			<title> (ctg304_69)</title>
			<polygon class=" (ctg304_69)" points="15,40 27,10 27,70" fill="rgb(255,255,255)" fill-opacity="1.0" stroke="rgb(0,0,0)" stroke-width="2"  />
			<g>
				<title>STAS (PF01740)
"STAS domain"</title>
				<polygon class="PF01740" points="18,40 23,28 25,28 25,52 23,52" stroke-linejoin="round" width="10" height="24" fill="rgb(219,58,116)" stroke="rgb(175,46,92)" stroke-width="1" opacity="0.75" />
			</g>
		</g>
		<g>
			<title> (ctg304_70)</title>
			<polygon class=" (ctg304_70)" points="30,40 40,10 40,70" fill="rgb(255,255,255)" fill-opacity="1.0" stroke="rgb(0,0,0)" stroke-width="2"  />
			<g>
				<title>STAS (PF01740)
"STAS domain"</title>
				<polygon class="PF01740" points="33,40 37,28 39,28 39,52 37,52" stroke-linejoin="round" width="9" height="24" fill="rgb(219,58,116)" stroke="rgb(175,46,92)" stroke-width="1" opacity="0.75" />
			</g>
		</g>
		<g>
			<title> (ctg304_71)</title>
			<polygon class=" (ctg304_71)" points="52,10 81,40 52,70" fill="rgb(255,255,255)" fill-opacity="1.0" stroke="rgb(0,0,0)" stroke-width="2"  />
		</g>
		<g>
			<title> (ctg304_72)</title>
			<polygon class=" (ctg304_72)" points="171,25 125,25 125,10 95,40 125,70 125,55 171,55" fill="rgb(255,255,255)" fill-opacity="1.0" stroke="rgb(0,0,0)" stroke-width="2"  />
			<g>
				<title>MMPL (PF03176)
"MMPL family"</title>
				<polygon class="PF03176" points="99,40 111,28 116,28 116,52 111,52" stroke-linejoin="round" width="21" height="24" fill="rgb(228,109,193)" stroke="rgb(182,87,154)" stroke-width="1" opacity="0.75" />
			</g>
			<g>
				<title>MMPL (PF03176)
"MMPL family"</title>
				<rect class="PF03176" x="130" y="28" stroke-linejoin="round" width="35" height="24" fill="rgb(228,109,193)" stroke="rgb(182,87,154)" stroke-width="1" opacity="0.75" />
			</g>
		</g>
		<g>
			<title> (ctg304_73)</title>
			<polygon class=" (ctg304_73)" points="171,40 188,10 188,70" fill="rgb(255,255,255)" fill-opacity="1.0" stroke="rgb(0,0,0)" stroke-width="2"  />
		</g>
		<g>
			<title> (ctg304_74)</title>
			<polygon class=" (ctg304_74)" points="197,25 205,25 205,10 235,40 205,70 205,55 197,55" fill="rgb(255,255,255)" fill-opacity="1.0" stroke="rgb(0,0,0)" stroke-width="2"  />
			<g>
				<title>DUF2236 (PF09995)
"Uncharacterized protein conserved in bacteria (DUF2236)"</title>
				<polygon class="PF09995" points="207,28 219,28 231,40 231,40 219,52 207,52" stroke-linejoin="round" width="24" height="24" fill="rgb(194,179,92)" stroke="rgb(155,143,73)" stroke-width="1" opacity="0.75" />
			</g>
		</g>
		<g>
			<title> (ctg304_75)</title>
			<polygon class=" (ctg304_75)" points="241,10 268,40 241,70" fill="rgb(255,255,255)" fill-opacity="1.0" stroke="rgb(0,0,0)" stroke-width="2"  />
			<g>
				<title>LolA_like (PF17131)
"Outer membrane lipoprotein-sorting protein"</title>
				<polygon class="PF17131" points="249,28 253,28 264,40 253,52 249,52" stroke-linejoin="round" width="18" height="24" fill="rgb(189,100,83)" stroke="rgb(151,80,66)" stroke-width="1" opacity="0.75" />
			</g>
		</g>
		<g>
			<title> (ctg304_76)</title>
			<polygon class=" (ctg304_76)" points="269,25 281,25 281,10 311,40 281,70 281,55 269,55" fill="rgb(255,255,255)" fill-opacity="1.0" stroke="rgb(0,0,0)" stroke-width="2"  />
		</g>
		<g>
			<title> (ctg304_77)</title>
			<polygon class=" (ctg304_77)" points="321,10 341,40 321,70" fill="rgb(255,255,255)" fill-opacity="1.0" stroke="rgb(0,0,0)" stroke-width="2"  />
			<g>
				<title>polyprenyl_synt (PF00348)
"Polyprenyl synthetase"</title>
				<polygon class="PF00348" points="321,28 329,28 337,40 329,52 321,52" stroke-linejoin="round" width="17" height="24" fill="rgb(61,206,65)" stroke="rgb(48,164,52)" stroke-width="1" opacity="0.75" />
			</g>
		</g>
		<g>
			<title> (ctg304_78)</title>
			<polygon class=" (ctg304_78)" points="343,25 348,25 348,10 378,40 348,70 348,55 343,55" fill="rgb(255,255,255)" fill-opacity="1.0" stroke="rgb(0,0,0)" stroke-width="2"  />
			<g>
				<title>SQS_PSY (PF00494)
"Squalene/phytoene synthase"</title>
				<polygon class="PF00494" points="345,28 362,28 374,40 374,40 362,52 345,52" stroke-linejoin="round" width="29" height="24" fill="rgb(178,91,49)" stroke="rgb(142,72,39)" stroke-width="1" opacity="0.75" />
			</g>
		</g>
		<g>
			<title> (ctg304_79)</title>
			<polygon class=" (ctg304_79)" points="375,40 393,10 393,70" fill="rgb(255,255,255)" fill-opacity="1.0" stroke="rgb(0,0,0)" stroke-width="2"  />
		</g>
		<g>
			<title> (ctg304_80)</title>
			<polygon class=" (ctg304_80)" points="397,40 410,10 410,70" fill="rgb(255,255,255)" fill-opacity="1.0" stroke="rgb(0,0,0)" stroke-width="2"  />
		</g>
		<g>
			<title> (ctg304_81)</title>
			<polygon class=" (ctg304_81)" points="413,40 440,10 440,70" fill="rgb(255,255,255)" fill-opacity="1.0" stroke="rgb(0,0,0)" stroke-width="2"  />
			<g>
				<title>zf-FPG_IleRS (PF06827)
"Zinc finger found in FPG and IleRS"</title>
				<polygon class="PF06827" points="417,40 415,42 415,38" stroke-linejoin="round" width="2" height="24" fill="rgb(167,86,192)" stroke="rgb(133,68,153)" stroke-width="1" opacity="0.75" />
			</g>
			<g>
				<title>H2TH (PF06831)
"Formamidopyrimidine-DNA glycosylase H2TH domain"</title>
				<polygon class="PF06831" points="417,40 426,30 426,50 417,40" stroke-linejoin="round" width="9" height="24" fill="rgb(57,227,194)" stroke="rgb(45,181,155)" stroke-width="1" opacity="0.75" />
			</g>
			<g>
				<title>Fapy_DNA_glyco (PF01149)
"Formamidopyrimidine-DNA glycosylase N-terminal domain"</title>
				<polygon class="PF01149" points="428,28 428,28 439,28 439,52 428,52 428,52" stroke-linejoin="round" width="11" height="24" fill="rgb(124,229,81)" stroke="rgb(99,183,64)" stroke-width="1" opacity="0.75" />
			</g>
		</g>
		<g>
			<title> (ctg304_82)</title>
			<polygon class=" (ctg304_82)" points="440,40 463,10 463,70" fill="rgb(255,255,255)" fill-opacity="1.0" stroke="rgb(0,0,0)" stroke-width="2"  />
			<g>
				<title>AAA_26 (PF13500)
"AAA domain"</title>
				<polygon class="PF13500" points="444,40 453,28 462,28 462,52 453,52" stroke-linejoin="round" width="21" height="24" fill="rgb(93,118,228)" stroke="rgb(74,94,182)" stroke-width="1" opacity="0.75" />
			</g>
		</g>
		<g>
			<title> (ctg304_83)</title>
			<polygon class=" (ctg304_83)" points="466,25 476,25 476,10 506,40 476,70 476,55 466,55" fill="rgb(255,255,255)" fill-opacity="1.0" stroke="rgb(0,0,0)" stroke-width="2"  />
			<g>
				<title>GcpE (PF04551)
"GcpE protein"</title>
				<polygon class="PF04551" points="466,28 490,28 502,40 490,52 466,52" stroke-linejoin="round" width="38" height="24" fill="rgb(61,170,205)" stroke="rgb(48,136,164)" stroke-width="1" opacity="0.75" />
			</g>
		</g>
		<g>
			<title> (ctg304_84)</title>
			<polygon class=" (ctg304_84)" points="508,10 525,40 508,70" fill="rgb(255,255,255)" fill-opacity="1.0" stroke="rgb(0,0,0)" stroke-width="2"  />
			<g>
				<title>Hexapep (PF00132)
"Bacterial transferase hexapeptide (six repeats)"</title>
				<rect class="PF00132" x="509" y="28" stroke-linejoin="round" width="3" height="24" fill="rgb(89,131,202)" stroke="rgb(71,104,161)" stroke-width="1" opacity="0.75" />
			</g>
			<g>
				<title>Hexapep (PF00132)
"Bacterial transferase hexapeptide (six repeats)"</title>
				<polygon class="PF00132" points="517,31 520,36 520,44 517,49" stroke-linejoin="round" width="3" height="24" fill="rgb(89,131,202)" stroke="rgb(71,104,161)" stroke-width="1" opacity="0.75" />
			</g>
		</g>
		<g>
			<title> (ctg304_85)</title>
			<polygon class=" (ctg304_85)" points="526,25 539,25 539,10 569,40 539,70 539,55 526,55" fill="rgb(255,255,255)" fill-opacity="1.0" stroke="rgb(0,0,0)" stroke-width="2"  />
			<g>
				<title>Cys_Met_Meta_PP (PF01053)
"Cys/Met metabolism PLP-dependent enzyme"</title>
				<polygon class="PF01053" points="527,28 552,28 564,40 552,52 527,52" stroke-linejoin="round" width="41" height="24" fill="rgb(142,222,85)" stroke="rgb(113,177,67)" stroke-width="1" opacity="0.75" />
			</g>
		</g>
		<g>
			<title> (ctg304_86)</title>
			<polygon class=" (ctg304_86)" points="569,10 582,40 569,70" fill="rgb(255,255,255)" fill-opacity="1.0" stroke="rgb(0,0,0)" stroke-width="2"  />
			<g>
				<title>SnoaL (PF07366)
"SnoaL-like polyketide cyclase"</title>
				<polygon class="PF07366" points="569,28 573,28 578,40 573,52 569,52" stroke-linejoin="round" width="12" height="24" fill="rgb(206,89,111)" stroke="rgb(164,71,88)" stroke-width="1" opacity="0.75" />
			</g>
		</g>
		<g>
			<title> (ctg304_87)</title>
			<polygon class=" (ctg304_87)" points="582,10 588,40 582,70" fill="rgb(255,255,255)" fill-opacity="1.0" stroke="rgb(0,0,0)" stroke-width="2"  />
			<g>
				<title>ThiS (PF02597)
"ThiS family"</title>
				<polygon class="PF02597" points="582,28 582,28 585,40 582,52 582,52" stroke-linejoin="round" width="6" height="24" fill="rgb(73,117,196)" stroke="rgb(58,93,156)" stroke-width="1" opacity="0.75" />
			</g>
		</g>
		<g>
			<title> (ctg304_88)</title>
			<polygon class=" (ctg304_88)" points="589,10 615,40 589,70" fill="rgb(255,255,255)" fill-opacity="1.0" stroke="rgb(0,0,0)" stroke-width="2"  />
			<g>
				<title>ThiG (PF05690)
"Thiazole biosynthesis protein ThiG"</title>
				<polygon class="PF05690" points="589,28 601,28 611,40 601,52 589,52" stroke-linejoin="round" width="24" height="24" fill="rgb(215,60,203)" stroke="rgb(172,47,162)" stroke-width="1" opacity="0.75" />
			</g>
		</g>
		<g>
			<title> (ctg304_89)</title>
			<polygon class=" (ctg304_89)" points="615,10 638,40 615,70" fill="rgb(255,255,255)" fill-opacity="1.0" stroke="rgb(0,0,0)" stroke-width="2"  />
			<g>
				<title>Methyltransf_4 (PF02390)
"Putative methyltransferase"</title>
				<polygon class="PF02390" points="620,28 625,28 634,40 625,52 620,52" stroke-linejoin="round" width="16" height="24" fill="rgb(186,183,89)" stroke="rgb(148,146,71)" stroke-width="1" opacity="0.75" />
			</g>
		</g>
		<g>
			<title> (ctg304_90)</title>
			<polygon class=" (ctg304_90)" points="639,40 645,10 645,70" fill="rgb(255,255,255)" fill-opacity="1.0" stroke="rgb(0,0,0)" stroke-width="2"  />
		</g>
		<g>
			<title> (ctg304_91)</title>
			<polygon class=" (ctg304_91)" points="646,10 652,40 646,70" fill="rgb(255,255,255)" fill-opacity="1.0" stroke="rgb(0,0,0)" stroke-width="2"  />
		</g>
		<g>
			<title> (ctg304_92)</title>
			<polygon class=" (ctg304_92)" points="653,40 680,10 680,70" fill="rgb(255,255,255)" fill-opacity="1.0" stroke="rgb(0,0,0)" stroke-width="2"  />
			<g>
				<title>PPK2 (PF03976)
"Polyphosphate kinase 2 (PPK2)"</title>
				<polygon class="PF03976" points="657,40 668,28 678,28 678,52 668,52" stroke-linejoin="round" width="22" height="24" fill="rgb(57,123,215)" stroke="rgb(45,98,172)" stroke-width="1" opacity="0.75" />
			</g>
		</g>
		<g>
			<title> (ctg304_93)</title>
			<polygon class=" (ctg304_93)" points="680,40 702,10 702,70" fill="rgb(255,255,255)" fill-opacity="1.0" stroke="rgb(0,0,0)" stroke-width="2"  />
			<g>
				<title>2OG-FeII_Oxy_3 (PF13640)
"2OG-Fe(II) oxygenase superfamily"</title>
				<polygon class="PF13640" points="685,39 693,28 694,28 694,52 693,52 685,41" stroke-linejoin="round" width="9" height="24" fill="rgb(163,67,223)" stroke="rgb(130,53,178)" stroke-width="1" opacity="0.75" />
			</g>
		</g>
	</g>
</svg>
