<svg version="1.1" baseProfile="full" xmlns="http://www.w3.org/2000/svg" width="753.0" height="80">
	<g>
		<line x1="10" y1="40.0" x2="743.0" y2="40.0" style="stroke:rgb(70,70,70); stroke-width:3 "/>
		<g>
			<title> (ctg1065_15)</title>
			<polygon class=" (ctg1065_15)" points="37,40 41,10 41,70" fill="rgb(255,255,255)" fill-opacity="1.0" stroke="rgb(0,0,0)" stroke-width="2"  />
		</g>
		<g>
			<title> (ctg1065_16)</title>
			<polygon class=" (ctg1065_16)" points="48,10 68,40 48,70" fill="rgb(255,255,255)" fill-opacity="1.0" stroke="rgb(0,0,0)" stroke-width="2"  />
			<g>
				<title>FAD_syn (PF06574)
"FAD synthetase"</title>
				<rect class="PF06574" x="48" y="28" stroke-linejoin="round" width="4" height="24" fill="rgb(96,110,204)" stroke="rgb(76,88,163)" stroke-width="1" opacity="0.75" />
			</g>
			<g>
				<title>Flavokinase (PF01687)
"Riboflavin kinase"</title>
				<polygon class="PF01687" points="54,28 56,28 64,40 56,52 54,52" stroke-linejoin="round" width="12" height="24" fill="rgb(57,209,217)" stroke="rgb(45,167,173)" stroke-width="1" opacity="0.75" />
			</g>
		</g>
		<g>
			<title> (ctg1065_17)</title>
			<polygon class=" (ctg1065_17)" points="68,25 131,25 131,10 161,40 131,70 131,55 68,55" fill="rgb(255,255,255)" fill-opacity="1.0" stroke="rgb(0,0,0)" stroke-width="2"  />
			<g>
				<title>tRNA-synt_1 (PF00133)
"tRNA synthetases class I (I, L, M and V)"</title>
				<rect class="PF00133" x="71" y="28" stroke-linejoin="round" width="62" height="24" fill="rgb(209,58,146)" stroke="rgb(167,46,116)" stroke-width="1" opacity="0.75" />
			</g>
			<g>
				<title>Anticodon_1 (PF08264)
"Anticodon-binding domain of tRNA"</title>
				<polygon class="PF08264" points="137,28 144,28 152,36 152,44 144,52 137,52" stroke-linejoin="round" width="15" height="24" fill="rgb(85,52,208)" stroke="rgb(68,41,166)" stroke-width="1" opacity="0.75" />
			</g>
		</g>
		<g>
			<title> (ctg1065_18)</title>
			<polygon class=" (ctg1065_18)" points="160,10 177,40 160,70" fill="rgb(255,255,255)" fill-opacity="1.0" stroke="rgb(0,0,0)" stroke-width="2"  />
			<g>
				<title>Peptidase_A8 (PF01252)
"Signal peptidase (SPase) II"</title>
				<polygon class="PF01252" points="161,28 166,28 173,40 166,52 161,52" stroke-linejoin="round" width="14" height="24" fill="rgb(79,62,214)" stroke="rgb(63,49,171)" stroke-width="1" opacity="0.75" />
			</g>
		</g>
		<g>
			<title> (ctg1065_19)</title>
			<polygon class=" (ctg1065_19)" points="178,10 197,40 178,70" fill="rgb(255,255,255)" fill-opacity="1.0" stroke="rgb(0,0,0)" stroke-width="2"  />
			<g>
				<title>DUF3035 (PF11233)
"Protein of unknown function (DUF3035)"</title>
				<polygon class="PF11233" points="180,28 186,28 192,37 192,43 186,52 180,52" stroke-linejoin="round" width="12" height="24" fill="rgb(228,107,182)" stroke="rgb(182,85,145)" stroke-width="1" opacity="0.75" />
			</g>
		</g>
		<g>
			<title> (ctg1065_20)</title>
			<polygon class=" (ctg1065_20)" points="203,10 211,40 203,70" fill="rgb(255,255,255)" fill-opacity="1.0" stroke="rgb(0,0,0)" stroke-width="2"  />
		</g>
		<g>
			<title> (ctg1065_21)</title>
			<polygon class=" (ctg1065_21)" points="211,10 238,40 211,70" fill="rgb(255,255,255)" fill-opacity="1.0" stroke="rgb(0,0,0)" stroke-width="2"  />
			<g>
				<title>LolA_like (PF17131)
"Outer membrane lipoprotein-sorting protein"</title>
				<polygon class="PF17131" points="219,28 223,28 234,40 223,52 219,52" stroke-linejoin="round" width="18" height="24" fill="rgb(189,100,83)" stroke="rgb(151,80,66)" stroke-width="1" opacity="0.75" />
			</g>
		</g>
		<g>
			<title> (ctg1065_22)</title>
			<polygon class=" (ctg1065_22)" points="239,25 250,25 250,10 280,40 250,70 250,55 239,55" fill="rgb(255,255,255)" fill-opacity="1.0" stroke="rgb(0,0,0)" stroke-width="2"  />
		</g>
		<g>
			<title> (ctg1065_23)</title>
			<polygon class=" (ctg1065_23)" points="278,40 282,10 282,70" fill="rgb(255,255,255)" fill-opacity="1.0" stroke="rgb(0,0,0)" stroke-width="2"  />
		</g>
		<g>
			<title> (ctg1065_24)</title>
			<polygon class=" (ctg1065_24)" points="294,40 309,10 309,70" fill="rgb(255,255,255)" fill-opacity="1.0" stroke="rgb(0,0,0)" stroke-width="2"  />
		</g>
		<g>
			<title> (ctg1065_25)</title>
			<polygon class=" (ctg1065_25)" points="310,40 318,10 318,70" fill="rgb(255,255,255)" fill-opacity="1.0" stroke="rgb(0,0,0)" stroke-width="2"  />
		</g>
		<g>
			<title> (ctg1065_26)</title>
			<polygon class=" (ctg1065_26)" points="319,10 330,40 319,70" fill="rgb(255,255,255)" fill-opacity="1.0" stroke="rgb(0,0,0)" stroke-width="2"  />
			<g>
				<title>polyprenyl_synt (PF00348)
"Polyprenyl synthetase"</title>
				<polygon class="PF00348" points="319,28 322,28 327,40 322,52 319,52" stroke-linejoin="round" width="9" height="24" fill="rgb(61,206,65)" stroke="rgb(48,164,52)" stroke-width="1" opacity="0.75" />
			</g>
		</g>
		<g>
			<title> (ctg1065_27)</title>
			<polygon class=" (ctg1065_27)" points="343,10 372,40 343,70" fill="rgb(255,255,255)" fill-opacity="1.0" stroke="rgb(0,0,0)" stroke-width="2"  />
			<g>
				<title>SQS_PSY (PF00494)
"Squalene/phytoene synthase"</title>
				<polygon class="PF00494" points="344,28 356,28 368,40 356,52 344,52" stroke-linejoin="round" width="25" height="24" fill="rgb(178,91,49)" stroke="rgb(142,72,39)" stroke-width="1" opacity="0.75" />
			</g>
		</g>
		<g>
			<title> (ctg1065_28)</title>
			<polygon class=" (ctg1065_28)" points="381,10 409,40 381,70" fill="rgb(255,255,255)" fill-opacity="1.0" stroke="rgb(0,0,0)" stroke-width="2"  />
			<g>
				<title>SQS_PSY (PF00494)
"Squalene/phytoene synthase"</title>
				<polygon class="PF00494" points="382,28 393,28 405,40 393,52 382,52" stroke-linejoin="round" width="25" height="24" fill="rgb(178,91,49)" stroke="rgb(142,72,39)" stroke-width="1" opacity="0.75" />
			</g>
		</g>
		<g>
			<title> (ctg1065_29)</title>
			<polygon class=" (ctg1065_29)" points="414,25 421,25 421,10 451,40 421,70 421,55 414,55" fill="rgb(255,255,255)" fill-opacity="1.0" stroke="rgb(0,0,0)" stroke-width="2"  />
			<g>
				<title>Amino_oxidase (PF01593)
"Flavin containing amine oxidoreductase"</title>
				<polygon class="PF01593" points="414,28 435,28 447,40 435,52 414,52" stroke-linejoin="round" width="36" height="24" fill="rgb(184,74,52)" stroke="rgb(147,59,41)" stroke-width="1" opacity="0.75" />
			</g>
		</g>
		<g>
			<title> (ctg1065_30)</title>
			<polygon class=" (ctg1065_30)" points="569,25 483,25 483,10 453,40 483,70 483,55 569,55" fill="rgb(255,255,255)" fill-opacity="1.0" stroke="rgb(0,0,0)" stroke-width="2"  />
			<g>
				<title>POR (PF01558)
"Pyruvate ferredoxin/flavodoxin oxidoreductase"</title>
				<rect class="PF01558" x="478" y="28" stroke-linejoin="round" width="18" height="24" fill="rgb(89,196,208)" stroke="rgb(71,156,166)" stroke-width="1" opacity="0.75" />
			</g>
			<g>
				<title>TPP_enzyme_C (PF02775)
"Thiamine pyrophosphate enzyme, C-terminal TPP binding domain"</title>
				<rect class="PF02775" x="509" y="28" stroke-linejoin="round" width="14" height="24" fill="rgb(156,179,45)" stroke="rgb(124,143,36)" stroke-width="1" opacity="0.75" />
			</g>
		</g>
		<g>
			<title> (ctg1065_31)</title>
			<polygon class=" (ctg1065_31)" points="590,10 598,40 590,70" fill="rgb(255,255,255)" fill-opacity="1.0" stroke="rgb(0,0,0)" stroke-width="2"  />
		</g>
		<g>
			<title> (ctg1065_32)</title>
			<polygon class=" (ctg1065_32)" points="599,10 602,40 599,70" fill="rgb(255,255,255)" fill-opacity="1.0" stroke="rgb(0,0,0)" stroke-width="2"  />
		</g>
		<g>
			<title> (ctg1065_33)</title>
			<polygon class=" (ctg1065_33)" points="600,25 614,25 614,10 644,40 614,70 614,55 600,55" fill="rgb(255,255,255)" fill-opacity="1.0" stroke="rgb(0,0,0)" stroke-width="2"  />
			<g>
				<title>DUF4147 (PF13660)
"Domain of unknown function (DUF4147)"</title>
				<rect class="PF13660" x="603" y="28" stroke-linejoin="round" width="22" height="24" fill="rgb(74,207,91)" stroke="rgb(59,165,72)" stroke-width="1" opacity="0.75" />
			</g>
			<g>
				<title>MOFRL (PF05161)
"MOFRL family"</title>
				<polygon class="PF05161" points="633,33 640,40 633,47" stroke-linejoin="round" width="10" height="24" fill="rgb(224,222,98)" stroke="rgb(179,177,78)" stroke-width="1" opacity="0.75" />
			</g>
		</g>
		<g>
			<title> (ctg1065_34)</title>
			<polygon class=" (ctg1065_34)" points="646,40 665,10 665,70" fill="rgb(255,255,255)" fill-opacity="1.0" stroke="rgb(0,0,0)" stroke-width="2"  />
			<g>
				<title>TPR_16 (PF13432)
"Tetratricopeptide repeat"</title>
				<polygon class="PF13432" points="651,38 656,31 656,49 651,42" stroke-linejoin="round" width="5" height="24" fill="rgb(154,205,86)" stroke="rgb(123,164,68)" stroke-width="1" opacity="0.75" />
			</g>
		</g>
		<g>
			<title> (ctg1065_35)</title>
			<polygon class=" (ctg1065_35)" points="711,25 694,25 694,10 664,40 694,70 694,55 711,55" fill="rgb(255,255,255)" fill-opacity="1.0" stroke="rgb(0,0,0)" stroke-width="2"  />
			<g>
				<title>Aldedh (PF00171)
"Aldehyde dehydrogenase family"</title>
				<polygon class="PF00171" points="668,40 680,28 710,28 710,52 680,52" stroke-linejoin="round" width="46" height="24" fill="rgb(105,213,139)" stroke="rgb(84,170,111)" stroke-width="1" opacity="0.75" />
			</g>
		</g>
		<g>
			<title> (ctg1065_36)</title>
			<polygon class=" (ctg1065_36)" points="718,10 724,40 718,70" fill="rgb(255,255,255)" fill-opacity="1.0" stroke="rgb(0,0,0)" stroke-width="2"  />
			<g>
				<title>Ribosomal_L35p (PF01632)
"Ribosomal protein L35"</title>
				<polygon class="PF01632" points="718,28 718,28 721,40 718,52 718,52" stroke-linejoin="round" width="6" height="24" fill="rgb(87,201,54)" stroke="rgb(69,160,43)" stroke-width="1" opacity="0.75" />
			</g>
		</g>
		<g>
			<title> (ctg1065_37)</title>
			<polygon class=" (ctg1065_37)" points="725,10 737,40 725,70" fill="rgb(255,255,255)" fill-opacity="1.0" stroke="rgb(0,0,0)" stroke-width="2"  />
			<g>
				<title>Ribosomal_L20 (PF00453)
"Ribosomal protein L20"</title>
				<polygon class="PF00453" points="725,28 728,28 733,40 728,52 725,52" stroke-linejoin="round" width="10" height="24" fill="rgb(221,85,111)" stroke="rgb(176,67,88)" stroke-width="1" opacity="0.75" />
			</g>
		</g>
	</g>
</svg>
