<svg version="1.1" baseProfile="full" xmlns="http://www.w3.org/2000/svg" width="490.53333333333336" height="80">
	<g>
		<line x1="10" y1="40.0" x2="480.53333333333336" y2="40.0" style="stroke:rgb(70,70,70); stroke-width:3 "/>
		<g>
			<title> (ctg3665_1)</title>
			<polygon class=" (ctg3665_1)" points="10,40 29,10 29,70" fill="rgb(255,255,255)" fill-opacity="1.0" stroke="rgb(0,0,0)" stroke-width="2"  />
			<g>
				<title>Lactamase_B (PF00753)
"Metallo-beta-lactamase superfamily"</title>
				<polygon class="PF00753" points="14,40 22,28 27,28 27,52 22,52" stroke-linejoin="round" width="17" height="24" fill="rgb(206,198,96)" stroke="rgb(164,158,76)" stroke-width="1" opacity="0.75" />
			</g>
		</g>
		<g>
			<title> (ctg3665_2)</title>
			<polygon class=" (ctg3665_2)" points="37,25 89,25 89,10 119,40 89,70 89,55 37,55" fill="rgb(255,255,255)" fill-opacity="1.0" stroke="rgb(0,0,0)" stroke-width="2"  />
			<g>
				<title>AMP-binding (PF00501)
"AMP-binding enzyme"</title>
				<rect class="PF00501" x="37" y="28" stroke-linejoin="round" width="41" height="24" fill="rgb(60,217,223)" stroke="rgb(48,173,178)" stroke-width="1" opacity="0.75" />
			</g>
			<g>
				<title>PP-binding (PF00550)
"Phosphopantetheine attachment site"</title>
				<rect class="PF00550" x="90" y="28" stroke-linejoin="round" width="6" height="24" fill="rgb(103,191,88)" stroke="rgb(82,152,70)" stroke-width="1" opacity="0.75" />
			</g>
			<g>
				<title>Acyltransferase (PF01553)
"Acyltransferase"</title>
				<polygon class="PF01553" points="101,28 103,28 114,39 114,41 103,52 101,52" stroke-linejoin="round" width="13" height="24" fill="rgb(87,176,216)" stroke="rgb(69,140,172)" stroke-width="1" opacity="0.75" />
			</g>
		</g>
		<g>
			<title> (ctg3665_3)</title>
			<polygon class=" (ctg3665_3)" points="158,25 154,25 154,10 124,40 154,70 154,55 158,55" fill="rgb(255,255,255)" fill-opacity="1.0" stroke="rgb(0,0,0)" stroke-width="2"  />
			<g>
				<title>Semialdhyde_dhC (PF02774)
"Semialdehyde dehydrogenase, dimerisation domain"</title>
				<polygon class="PF02774" points="128,40 140,28 142,28 142,52 140,52" stroke-linejoin="round" width="15" height="24" fill="rgb(57,188,185)" stroke="rgb(45,150,147)" stroke-width="1" opacity="0.75" />
			</g>
			<g>
				<title>Semialdhyde_dh (PF01118)
"Semialdehyde dehydrogenase, NAD binding domain"</title>
				<rect class="PF01118" x="144" y="28" stroke-linejoin="round" width="13" height="24" fill="rgb(191,106,221)" stroke="rgb(152,84,176)" stroke-width="1" opacity="0.75" />
			</g>
		</g>
		<g>
			<title> (ctg3665_4)</title>
			<polygon class=" (ctg3665_4)" points="162,40 191,10 191,70" fill="rgb(255,255,255)" fill-opacity="1.0" stroke="rgb(0,0,0)" stroke-width="2"  />
			<g>
				<title>BacA (PF02673)
"Bacitracin resistance protein BacA"</title>
				<polygon class="PF02673" points="166,40 178,28 187,28 187,52 178,52" stroke-linejoin="round" width="25" height="24" fill="rgb(78,220,196)" stroke="rgb(62,176,156)" stroke-width="1" opacity="0.75" />
			</g>
		</g>
		<g>
			<title> (ctg3665_5)</title>
			<polygon class=" (ctg3665_5)" points="204,40 230,10 230,70" fill="rgb(255,255,255)" fill-opacity="1.0" stroke="rgb(0,0,0)" stroke-width="2"  />
			<g>
				<title>Inositol_P (PF00459)
"Inositol monophosphatase family"</title>
				<polygon class="PF00459" points="208,40 218,28 229,28 229,52 218,52" stroke-linejoin="round" width="25" height="24" fill="rgb(67,210,137)" stroke="rgb(53,168,109)" stroke-width="1" opacity="0.75" />
			</g>
		</g>
		<g>
			<title> (ctg3665_6)</title>
			<polygon class=" (ctg3665_6)" points="306,25 266,25 266,10 236,40 266,70 266,55 306,55" fill="rgb(255,255,255)" fill-opacity="1.0" stroke="rgb(0,0,0)" stroke-width="2"  />
			<g>
				<title>AXE1 (PF05448)
"Acetyl xylan esterase (AXE1)"</title>
				<polygon class="PF05448" points="244,36 252,28 262,28 262,52 252,52 244,44" stroke-linejoin="round" width="18" height="24" fill="rgb(208,104,113)" stroke="rgb(166,83,90)" stroke-width="1" opacity="0.75" />
			</g>
			<g>
				<title>AXE1 (PF05448)
"Acetyl xylan esterase (AXE1)"</title>
				<rect class="PF05448" x="278" y="28" stroke-linejoin="round" width="19" height="24" fill="rgb(208,104,113)" stroke="rgb(166,83,90)" stroke-width="1" opacity="0.75" />
			</g>
		</g>
		<g>
			<title> (ctg3665_7)</title>
			<polygon class=" (ctg3665_7)" points="311,40 334,10 334,70" fill="rgb(255,255,255)" fill-opacity="1.0" stroke="rgb(0,0,0)" stroke-width="2"  />
		</g>
		<g>
			<title> (ctg3665_8)</title>
			<polygon class=" (ctg3665_8)" points="345,25 347,25 347,10 377,40 347,70 347,55 345,55" fill="rgb(255,255,255)" fill-opacity="1.0" stroke="rgb(0,0,0)" stroke-width="2"  />
			<g>
				<title>Acetyltransf_7 (PF13508)
"Acetyltransferase (GNAT) domain"</title>
				<rect class="PF13508" x="349" y="28" stroke-linejoin="round" width="10" height="24" fill="rgb(183,210,60)" stroke="rgb(146,168,48)" stroke-width="1" opacity="0.75" />
			</g>
		</g>
		<g>
			<title> (ctg3665_9)</title>
			<polygon class=" (ctg3665_9)" points="399,10 421,40 399,70" fill="rgb(255,255,255)" fill-opacity="1.0" stroke="rgb(0,0,0)" stroke-width="2"  />
			<g>
				<title>SBP_bac_1 (PF01547)
"Bacterial extracellular solute-binding protein"</title>
				<polygon class="PF01547" points="410,30 417,40 410,50" stroke-linejoin="round" width="10" height="24" fill="rgb(195,119,75)" stroke="rgb(156,95,60)" stroke-width="1" opacity="0.75" />
			</g>
		</g>
		<g>
			<title> (ctg3665_10)</title>
			<polygon class=" (ctg3665_10)" points="421,10 441,40 421,70" fill="rgb(255,255,255)" fill-opacity="1.0" stroke="rgb(0,0,0)" stroke-width="2"  />
		</g>
		<g>
			<title> (ctg3665_11)</title>
			<polygon class=" (ctg3665_11)" points="473,25 473,25 473,10 443,40 473,70 473,55 473,55" fill="rgb(255,255,255)" fill-opacity="1.0" stroke="rgb(0,0,0)" stroke-width="2"  />
		</g>
	</g>
</svg>
