<svg version="1.1" baseProfile="full" xmlns="http://www.w3.org/2000/svg" width="722.9666666666667" height="80">
	<g>
		<line x1="10" y1="40.0" x2="712.9666666666667" y2="40.0" style="stroke:rgb(70,70,70); stroke-width:3 "/>
		<g>
			<title> (ctg95_24)</title>
			<polygon class=" (ctg95_24)" points="22,25 45,25 45,10 75,40 45,70 45,55 22,55" fill="rgb(255,255,255)" fill-opacity="1.0" stroke="rgb(0,0,0)" stroke-width="2"  />
			<g>
				<title>YjeF_N (PF03853)
"YjeF-related protein N-terminus"</title>
				<rect class="PF03853" x="24" y="28" stroke-linejoin="round" width="17" height="24" fill="rgb(201,202,97)" stroke="rgb(160,161,77)" stroke-width="1" opacity="0.75" />
			</g>
			<g>
				<title>Carb_kinase (PF01256)
"Carbohydrate kinase"</title>
				<polygon class="PF01256" points="47,28 58,28 70,40 58,52 47,52" stroke-linejoin="round" width="25" height="24" fill="rgb(187,173,78)" stroke="rgb(149,138,62)" stroke-width="1" opacity="0.75" />
			</g>
		</g>
		<g>
			<title> (ctg95_25)</title>
			<polygon class=" (ctg95_25)" points="74,10 89,40 74,70" fill="rgb(255,255,255)" fill-opacity="1.0" stroke="rgb(0,0,0)" stroke-width="2"  />
			<g>
				<title>TsaE (PF02367)
"Threonylcarbamoyl adenosine biosynthesis protein TsaE"</title>
				<polygon class="PF02367" points="74,28 80,28 86,40 80,52 74,52" stroke-linejoin="round" width="13" height="24" fill="rgb(217,114,93)" stroke="rgb(173,91,74)" stroke-width="1" opacity="0.75" />
			</g>
		</g>
		<g>
			<title> (ctg95_26)</title>
			<polygon class=" (ctg95_26)" points="90,25 100,25 100,10 130,40 100,70 100,55 90,55" fill="rgb(255,255,255)" fill-opacity="1.0" stroke="rgb(0,0,0)" stroke-width="2"  />
			<g>
				<title>AA_kinase (PF00696)
"Amino acid kinase family"</title>
				<rect class="PF00696" x="90" y="28" stroke-linejoin="round" width="22" height="24" fill="rgb(148,78,224)" stroke="rgb(118,62,179)" stroke-width="1" opacity="0.75" />
			</g>
			<g>
				<title>ACT (PF01842)
"ACT domain"</title>
				<polygon class="PF01842" points="116,30 122,36 122,44 116,50" stroke-linejoin="round" width="6" height="24" fill="rgb(67,209,69)" stroke="rgb(53,167,55)" stroke-width="1" opacity="0.75" />
			</g>
			<g>
				<title>ACT_7 (PF13840)
"ACT domain"</title>
				<polygon class="PF13840" points="123,37 126,40 123,43" stroke-linejoin="round" width="6" height="24" fill="rgb(227,81,80)" stroke="rgb(181,64,64)" stroke-width="1" opacity="0.75" />
			</g>
		</g>
		<g>
			<title> (ctg95_27)</title>
			<polygon class=" (ctg95_27)" points="132,25 154,25 154,10 184,40 154,70 154,55 132,55" fill="rgb(255,255,255)" fill-opacity="1.0" stroke="rgb(0,0,0)" stroke-width="2"  />
			<g>
				<title>HMGL-like (PF00682)
"HMGL-like"</title>
				<rect class="PF00682" x="132" y="28" stroke-linejoin="round" width="27" height="24" fill="rgb(84,228,141)" stroke="rgb(67,182,112)" stroke-width="1" opacity="0.75" />
			</g>
			<g>
				<title>LeuA_dimer (PF08502)
"LeuA allosteric (dimerisation) domain"</title>
				<polygon class="PF08502" points="169,29 180,40 169,51" stroke-linejoin="round" width="14" height="24" fill="rgb(182,95,71)" stroke="rgb(145,76,56)" stroke-width="1" opacity="0.75" />
			</g>
		</g>
		<g>
			<title> (ctg95_28)</title>
			<polygon class=" (ctg95_28)" points="185,25 188,25 188,10 218,40 188,70 188,55 185,55" fill="rgb(255,255,255)" fill-opacity="1.0" stroke="rgb(0,0,0)" stroke-width="2"  />
			<g>
				<title>DUF368 (PF04018)
"Domain of unknown function (DUF368)"</title>
				<polygon class="PF04018" points="186,28 201,28 210,37 210,43 201,52 186,52" stroke-linejoin="round" width="24" height="24" fill="rgb(80,191,205)" stroke="rgb(64,152,164)" stroke-width="1" opacity="0.75" />
			</g>
		</g>
		<g>
			<title> (ctg95_29)</title>
			<polygon class=" (ctg95_29)" points="222,10 246,40 222,70" fill="rgb(255,255,255)" fill-opacity="1.0" stroke="rgb(0,0,0)" stroke-width="2"  />
			<g>
				<title>LysM (PF01476)
"LysM domain"</title>
				<rect class="PF01476" x="224" y="28" stroke-linejoin="round" width="4" height="24" fill="rgb(200,86,203)" stroke="rgb(160,68,162)" stroke-width="1" opacity="0.75" />
			</g>
			<g>
				<title>Peptidase_M23 (PF01551)
"Peptidase family M23"</title>
				<polygon class="PF01551" points="235,31 242,40 235,49" stroke-linejoin="round" width="9" height="24" fill="rgb(65,169,193)" stroke="rgb(51,135,154)" stroke-width="1" opacity="0.75" />
			</g>
		</g>
		<g>
			<title> (ctg95_30)</title>
			<polygon class=" (ctg95_30)" points="247,10 264,40 247,70" fill="rgb(255,255,255)" fill-opacity="1.0" stroke="rgb(0,0,0)" stroke-width="2"  />
			<g>
				<title>Pribosyltran (PF00156)
"Phosphoribosyl transferase domain"</title>
				<polygon class="PF00156" points="249,28 253,28 260,40 253,52 249,52" stroke-linejoin="round" width="14" height="24" fill="rgb(210,210,74)" stroke="rgb(168,168,59)" stroke-width="1" opacity="0.75" />
			</g>
		</g>
		<g>
			<title> (ctg95_31)</title>
			<polygon class=" (ctg95_31)" points="267,10 295,40 267,70" fill="rgb(255,255,255)" fill-opacity="1.0" stroke="rgb(0,0,0)" stroke-width="2"  />
			<g>
				<title>EamA (PF00892)
"EamA-like transporter family"</title>
				<polygon class="PF00892" points="267,28 279,28 280,28 280,52 279,52 267,52" stroke-linejoin="round" width="13" height="24" fill="rgb(105,217,77)" stroke="rgb(84,173,61)" stroke-width="1" opacity="0.75" />
			</g>
			<g>
				<title>EamA (PF00892)
"EamA-like transporter family"</title>
				<polygon class="PF00892" points="282,30 291,40 282,50" stroke-linejoin="round" width="13" height="24" fill="rgb(105,217,77)" stroke="rgb(84,173,61)" stroke-width="1" opacity="0.75" />
			</g>
		</g>
		<g>
			<title> (ctg95_32)</title>
			<polygon class=" (ctg95_32)" points="301,10 323,40 301,70" fill="rgb(255,255,255)" fill-opacity="1.0" stroke="rgb(0,0,0)" stroke-width="2"  />
		</g>
		<g>
			<title> (ctg95_33)</title>
			<polygon class=" (ctg95_33)" points="322,10 342,40 322,70" fill="rgb(255,255,255)" fill-opacity="1.0" stroke="rgb(0,0,0)" stroke-width="2"  />
			<g>
				<title>Ham1p_like (PF01725)
"Ham1 family"</title>
				<polygon class="PF01725" points="324,28 330,28 339,40 330,52 324,52" stroke-linejoin="round" width="17" height="24" fill="rgb(76,199,61)" stroke="rgb(60,159,48)" stroke-width="1" opacity="0.75" />
			</g>
		</g>
		<g>
			<title> (ctg95_34)</title>
			<polygon class=" (ctg95_34)" points="343,25 349,25 349,10 379,40 349,70 349,55 343,55" fill="rgb(255,255,255)" fill-opacity="1.0" stroke="rgb(0,0,0)" stroke-width="2"  />
			<g>
				<title>SQS_PSY (PF00494)
"Squalene/phytoene synthase"</title>
				<polygon class="PF00494" points="345,28 363,28 375,40 375,40 363,52 345,52" stroke-linejoin="round" width="30" height="24" fill="rgb(178,91,49)" stroke="rgb(142,72,39)" stroke-width="1" opacity="0.75" />
			</g>
		</g>
		<g>
			<title> (ctg95_35)</title>
			<polygon class=" (ctg95_35)" points="379,10 398,40 379,70" fill="rgb(255,255,255)" fill-opacity="1.0" stroke="rgb(0,0,0)" stroke-width="2"  />
			<g>
				<title>UDG (PF03167)
"Uracil DNA glycosylase superfamily"</title>
				<polygon class="PF03167" points="381,28 387,28 394,40 387,52 381,52" stroke-linejoin="round" width="16" height="24" fill="rgb(64,224,60)" stroke="rgb(51,179,48)" stroke-width="1" opacity="0.75" />
			</g>
		</g>
		<g>
			<title> (ctg95_36)</title>
			<polygon class=" (ctg95_36)" points="399,40 410,10 410,70" fill="rgb(255,255,255)" fill-opacity="1.0" stroke="rgb(0,0,0)" stroke-width="2"  />
		</g>
		<g>
			<title> (ctg95_37)</title>
			<polygon class=" (ctg95_37)" points="412,40 439,10 439,70" fill="rgb(255,255,255)" fill-opacity="1.0" stroke="rgb(0,0,0)" stroke-width="2"  />
			<g>
				<title>Nitroreductase (PF00881)
"Nitroreductase family"</title>
				<polygon class="PF00881" points="419,37 427,28 439,28 439,52 427,52 419,43" stroke-linejoin="round" width="20" height="24" fill="rgb(79,118,187)" stroke="rgb(63,94,149)" stroke-width="1" opacity="0.75" />
			</g>
		</g>
		<g>
			<title> (ctg95_38)</title>
			<polygon class=" (ctg95_38)" points="441,40 453,10 453,70" fill="rgb(255,255,255)" fill-opacity="1.0" stroke="rgb(0,0,0)" stroke-width="2"  />
		</g>
		<g>
			<title> (ctg95_39)</title>
			<polygon class=" (ctg95_39)" points="456,40 482,10 482,70" fill="rgb(255,255,255)" fill-opacity="1.0" stroke="rgb(0,0,0)" stroke-width="2"  />
			<g>
				<title>Nitroreductase (PF00881)
"Nitroreductase family"</title>
				<polygon class="PF00881" points="471,27 471,28 480,28 480,52 471,52 471,53" stroke-linejoin="round" width="9" height="24" fill="rgb(79,118,187)" stroke="rgb(63,94,149)" stroke-width="1" opacity="0.75" />
			</g>
		</g>
		<g>
			<title> (ctg95_40)</title>
			<polygon class=" (ctg95_40)" points="488,10 514,40 488,70" fill="rgb(255,255,255)" fill-opacity="1.0" stroke="rgb(0,0,0)" stroke-width="2"  />
			<g>
				<title>DUF4352 (PF11611)
"Domain of unknown function (DUF4352)"</title>
				<polygon class="PF11611" points="502,31 510,40 502,49" stroke-linejoin="round" width="10" height="24" fill="rgb(71,97,207)" stroke="rgb(56,77,165)" stroke-width="1" opacity="0.75" />
			</g>
		</g>
		<g>
			<title> (ctg95_41)</title>
			<polygon class=" (ctg95_41)" points="528,10 542,40 528,70" fill="rgb(255,255,255)" fill-opacity="1.0" stroke="rgb(0,0,0)" stroke-width="2"  />
		</g>
		<g>
			<title> (ctg95_42)</title>
			<polygon class=" (ctg95_42)" points="543,25 545,25 545,10 575,40 545,70 545,55 543,55" fill="rgb(255,255,255)" fill-opacity="1.0" stroke="rgb(0,0,0)" stroke-width="2"  />
		</g>
		<g>
			<title> (ctg95_43)</title>
			<polygon class=" (ctg95_43)" points="580,10 592,40 580,70" fill="rgb(255,255,255)" fill-opacity="1.0" stroke="rgb(0,0,0)" stroke-width="2"  />
		</g>
		<g>
			<title> (ctg95_44)</title>
			<polygon class=" (ctg95_44)" points="594,10 597,40 594,70" fill="rgb(255,255,255)" fill-opacity="1.0" stroke="rgb(0,0,0)" stroke-width="2"  />
		</g>
		<g>
			<title> (ctg95_45)</title>
			<polygon class=" (ctg95_45)" points="603,10 622,40 603,70" fill="rgb(255,255,255)" fill-opacity="1.0" stroke="rgb(0,0,0)" stroke-width="2"  />
			<g>
				<title>DUF1485 (PF07364)
"Metallopeptidase family M81"</title>
				<polygon class="PF07364" points="603,28 611,28 618,40 611,52 603,52" stroke-linejoin="round" width="18" height="24" fill="rgb(101,127,217)" stroke="rgb(80,101,173)" stroke-width="1" opacity="0.75" />
			</g>
		</g>
		<g>
			<title> (ctg95_46)</title>
			<polygon class=" (ctg95_46)" points="622,25 626,25 626,10 656,40 626,70 626,55 622,55" fill="rgb(255,255,255)" fill-opacity="1.0" stroke="rgb(0,0,0)" stroke-width="2"  />
			<g>
				<title>MMR_HSR1 (PF01926)
"50S ribosome-binding GTPase"</title>
				<polygon class="PF01926" points="622,28 640,28 641,29 641,51 640,52 622,52" stroke-linejoin="round" width="19" height="24" fill="rgb(105,180,226)" stroke="rgb(83,143,180)" stroke-width="1" opacity="0.75" />
			</g>
			<g>
				<title>YchF-GTPase_C (PF06071)
"Protein of unknown function (DUF933)"</title>
				<polygon class="PF06071" points="648,36 652,40 648,44" stroke-linejoin="round" width="8" height="24" fill="rgb(74,145,213)" stroke="rgb(59,115,170)" stroke-width="1" opacity="0.75" />
			</g>
		</g>
		<g>
			<title> (ctg95_47)</title>
			<polygon class=" (ctg95_47)" points="659,40 673,10 673,70" fill="rgb(255,255,255)" fill-opacity="1.0" stroke="rgb(0,0,0)" stroke-width="2"  />
			<g>
				<title>NUDIX (PF00293)
"NUDIX domain"</title>
				<polygon class="PF00293" points="662,40 668,28 672,28 672,52 668,52" stroke-linejoin="round" width="12" height="24" fill="rgb(92,56,187)" stroke="rgb(73,44,149)" stroke-width="1" opacity="0.75" />
			</g>
		</g>
		<g>
			<title> (ctg95_48)</title>
			<polygon class=" (ctg95_48)" points="673,40 700,10 700,70" fill="rgb(255,255,255)" fill-opacity="1.0" stroke="rgb(0,0,0)" stroke-width="2"  />
			<g>
				<title>TPR_9 (PF13371)
"Tetratricopeptide repeat"</title>
				<polygon class="PF13371" points="677,40 680,37 680,43" stroke-linejoin="round" width="7" height="24" fill="rgb(128,97,219)" stroke="rgb(102,77,175)" stroke-width="1" opacity="0.75" />
			</g>
			<g>
				<title>Transglut_core2 (PF13369)
"Transglutaminase-like superfamily"</title>
				<polygon class="PF13369" points="681,36 688,28 696,28 696,52 688,52 681,44" stroke-linejoin="round" width="15" height="24" fill="rgb(145,180,83)" stroke="rgb(116,144,66)" stroke-width="1" opacity="0.75" />
			</g>
		</g>
	</g>
</svg>
