<svg version="1.1" baseProfile="full" xmlns="http://www.w3.org/2000/svg" width="752.3666666666667" height="80">
	<g>
		<line x1="10" y1="40.0" x2="742.3666666666667" y2="40.0" style="stroke:rgb(70,70,70); stroke-width:3 "/>
		<g>
			<title> (ctg1050_14)</title>
			<polygon class=" (ctg1050_14)" points="37,25 55,25 55,10 85,40 55,70 55,55 37,55" fill="rgb(255,255,255)" fill-opacity="1.0" stroke="rgb(0,0,0)" stroke-width="2"  />
			<g>
				<title>Sulfatase (PF00884)
"Sulfatase"</title>
				<polygon class="PF00884" points="40,28 69,28 74,33 74,47 69,52 40,52" stroke-linejoin="round" width="34" height="24" fill="rgb(61,103,198)" stroke="rgb(48,82,158)" stroke-width="1" opacity="0.75" />
			</g>
			<g>
				<title>DUF4976 (PF16347)
"Domain of unknown function (DUF4976)"</title>
				<polygon class="PF16347" points="74,33 81,40 74,47" stroke-linejoin="round" width="10" height="24" fill="rgb(122,75,207)" stroke="rgb(97,60,165)" stroke-width="1" opacity="0.75" />
			</g>
		</g>
		<g>
			<title> (ctg1050_15)</title>
			<polygon class=" (ctg1050_15)" points="84,40 90,10 90,70" fill="rgb(255,255,255)" fill-opacity="1.0" stroke="rgb(0,0,0)" stroke-width="2"  />
		</g>
		<g>
			<title> (ctg1050_16)</title>
			<polygon class=" (ctg1050_16)" points="145,25 121,25 121,10 91,40 121,70 121,55 145,55" fill="rgb(255,255,255)" fill-opacity="1.0" stroke="rgb(0,0,0)" stroke-width="2"  />
			<g>
				<title>PQQ_2 (PF13360)
"PQQ-like domain"</title>
				<rect class="PF13360" x="121" y="28" stroke-linejoin="round" width="18" height="24" fill="rgb(98,210,146)" stroke="rgb(78,168,116)" stroke-width="1" opacity="0.75" />
			</g>
		</g>
		<g>
			<title> (ctg1050_17)</title>
			<polygon class=" (ctg1050_17)" points="197,25 176,25 176,10 146,40 176,70 176,55 197,55" fill="rgb(255,255,255)" fill-opacity="1.0" stroke="rgb(0,0,0)" stroke-width="2"  />
			<g>
				<title>PDZ_2 (PF13180)
"PDZ domain"</title>
				<polygon class="PF13180" points="150,40 155,35 155,45" stroke-linejoin="round" width="9" height="24" fill="rgb(128,192,48)" stroke="rgb(102,153,38)" stroke-width="1" opacity="0.75" />
			</g>
			<g>
				<title>PDZ_2 (PF13180)
"PDZ domain"</title>
				<polygon class="PF13180" points="158,32 162,28 166,28 166,52 162,52 158,48" stroke-linejoin="round" width="8" height="24" fill="rgb(128,192,48)" stroke="rgb(102,153,38)" stroke-width="1" opacity="0.75" />
			</g>
			<g>
				<title>Trypsin_2 (PF13365)
"Trypsin-like peptidase domain"</title>
				<rect class="PF13365" x="171" y="28" stroke-linejoin="round" width="13" height="24" fill="rgb(126,86,188)" stroke="rgb(100,68,150)" stroke-width="1" opacity="0.75" />
			</g>
		</g>
		<g>
			<title> (ctg1050_18)</title>
			<polygon class=" (ctg1050_18)" points="236,25 229,25 229,10 199,40 229,70 229,55 236,55" fill="rgb(255,255,255)" fill-opacity="1.0" stroke="rgb(0,0,0)" stroke-width="2"  />
			<g>
				<title>PAD_porph (PF04371)
"Porphyromonas-type peptidyl-arginine deiminase"</title>
				<polygon class="PF04371" points="203,40 215,28 234,28 234,52 215,52" stroke-linejoin="round" width="33" height="24" fill="rgb(68,195,113)" stroke="rgb(54,156,90)" stroke-width="1" opacity="0.75" />
			</g>
		</g>
		<g>
			<title> (ctg1050_19)</title>
			<polygon class=" (ctg1050_19)" points="266,25 266,25 266,10 236,40 266,70 266,55 266,55" fill="rgb(255,255,255)" fill-opacity="1.0" stroke="rgb(0,0,0)" stroke-width="2"  />
			<g>
				<title>CN_hydrolase (PF00795)
"Carbon-nitrogen hydrolase"</title>
				<polygon class="PF00795" points="240,40 252,28 265,28 265,52 252,52" stroke-linejoin="round" width="27" height="24" fill="rgb(213,76,196)" stroke="rgb(170,60,156)" stroke-width="1" opacity="0.75" />
			</g>
		</g>
		<g>
			<title> (ctg1050_20)</title>
			<polygon class=" (ctg1050_20)" points="304,25 300,25 300,10 270,40 300,70 300,55 304,55" fill="rgb(255,255,255)" fill-opacity="1.0" stroke="rgb(0,0,0)" stroke-width="2"  />
			<g>
				<title>ADH_zinc_N (PF00107)
"Zinc-binding dehydrogenase"</title>
				<polygon class="PF00107" points="274,40 286,28 286,28 286,52 286,52 274,40" stroke-linejoin="round" width="12" height="24" fill="rgb(81,108,215)" stroke="rgb(64,86,172)" stroke-width="1" opacity="0.75" />
			</g>
			<g>
				<title>ADH_N (PF08240)
"Alcohol dehydrogenase GroES-like domain"</title>
				<rect class="PF08240" x="290" y="28" stroke-linejoin="round" width="11" height="24" fill="rgb(211,65,138)" stroke="rgb(168,51,110)" stroke-width="1" opacity="0.75" />
			</g>
		</g>
		<g>
			<title> (ctg1050_21)</title>
			<polygon class=" (ctg1050_21)" points="342,25 336,25 336,10 306,40 336,70 336,55 342,55" fill="rgb(255,255,255)" fill-opacity="1.0" stroke="rgb(0,0,0)" stroke-width="2"  />
			<g>
				<title>DUF3463 (PF11946)
"Domain of unknown function (DUF3463)"</title>
				<polygon class="PF11946" points="310,40 319,31 319,49" stroke-linejoin="round" width="13" height="24" fill="rgb(193,51,57)" stroke="rgb(154,40,45)" stroke-width="1" opacity="0.75" />
			</g>
			<g>
				<title>Radical_SAM (PF04055)
"Radical SAM superfamily"</title>
				<polygon class="PF04055" points="320,30 322,28 335,28 335,52 322,52 320,50" stroke-linejoin="round" width="15" height="24" fill="rgb(149,56,222)" stroke="rgb(119,44,177)" stroke-width="1" opacity="0.75" />
			</g>
		</g>
		<g>
			<title> (ctg1050_22)</title>
			<polygon class=" (ctg1050_22)" points="408,25 373,25 373,10 343,40 373,70 373,55 408,55" fill="rgb(255,255,255)" fill-opacity="1.0" stroke="rgb(0,0,0)" stroke-width="2"  />
			<g>
				<title>SQHop_cyclase_C (PF13243)
"Squalene-hopene cyclase C-terminal domain"</title>
				<polygon class="PF13243" points="347,40 359,28 375,28 375,52 359,52" stroke-linejoin="round" width="32" height="24" fill="rgb(191,58,201)" stroke="rgb(152,46,160)" stroke-width="1" opacity="0.75" />
			</g>
			<g>
				<title>SQHop_cyclase_N (PF13249)
"Squalene-hopene cyclase N-terminal domain"</title>
				<rect class="PF13249" x="376" y="28" stroke-linejoin="round" width="29" height="24" fill="rgb(88,190,89)" stroke="rgb(70,152,71)" stroke-width="1" opacity="0.75" />
			</g>
		</g>
		<g>
			<title> (ctg1050_23)</title>
			<polygon class=" (ctg1050_23)" points="438,25 438,25 438,10 408,40 438,70 438,55 438,55" fill="rgb(255,255,255)" fill-opacity="1.0" stroke="rgb(0,0,0)" stroke-width="2"  />
			<g>
				<title>LYTB (PF02401)
"LytB protein"</title>
				<polygon class="PF02401" points="412,40 424,28 437,28 437,52 424,52" stroke-linejoin="round" width="26" height="24" fill="rgb(155,62,193)" stroke="rgb(124,49,154)" stroke-width="1" opacity="0.75" />
			</g>
		</g>
		<g>
			<title> (ctg1050_24)</title>
			<polygon class=" (ctg1050_24)" points="453,10 465,40 453,70" fill="rgb(255,255,255)" fill-opacity="1.0" stroke="rgb(0,0,0)" stroke-width="2"  />
		</g>
		<g>
			<title> (ctg1050_25)</title>
			<polygon class=" (ctg1050_25)" points="477,25 493,25 493,10 523,40 493,70 493,55 477,55" fill="rgb(255,255,255)" fill-opacity="1.0" stroke="rgb(0,0,0)" stroke-width="2"  />
			<g>
				<title>TPR_16 (PF13432)
"Tetratricopeptide repeat"</title>
				<rect class="PF13432" x="477" y="28" stroke-linejoin="round" width="6" height="24" fill="rgb(154,205,86)" stroke="rgb(123,164,68)" stroke-width="1" opacity="0.75" />
			</g>
			<g>
				<title>TPR_19 (PF14559)
"Tetratricopeptide repeat"</title>
				<rect class="PF14559" x="491" y="28" stroke-linejoin="round" width="6" height="24" fill="rgb(182,60,145)" stroke="rgb(145,48,115)" stroke-width="1" opacity="0.75" />
			</g>
			<g>
				<title>TPR_16 (PF13432)
"Tetratricopeptide repeat"</title>
				<rect class="PF13432" x="497" y="28" stroke-linejoin="round" width="6" height="24" fill="rgb(154,205,86)" stroke="rgb(123,164,68)" stroke-width="1" opacity="0.75" />
			</g>
			<g>
				<title>TPR_8 (PF13181)
"Tetratricopeptide repeat"</title>
				<rect class="PF13181" x="504" y="28" stroke-linejoin="round" width="3" height="24" fill="rgb(182,172,47)" stroke="rgb(145,137,37)" stroke-width="1" opacity="0.75" />
			</g>
			<g>
				<title>TPR_16 (PF13432)
"Tetratricopeptide repeat"</title>
				<polygon class="PF13432" points="513,34 518,39 518,41 513,46" stroke-linejoin="round" width="5" height="24" fill="rgb(154,205,86)" stroke="rgb(123,164,68)" stroke-width="1" opacity="0.75" />
			</g>
		</g>
		<g>
			<title> (ctg1050_26)</title>
			<polygon class=" (ctg1050_26)" points="572,25 557,25 557,10 527,40 557,70 557,55 572,55" fill="rgb(255,255,255)" fill-opacity="1.0" stroke="rgb(0,0,0)" stroke-width="2"  />
			<g>
				<title>TPR_16 (PF13432)
"Tetratricopeptide repeat"</title>
				<polygon class="PF13432" points="531,40 537,34 537,46 531,40" stroke-linejoin="round" width="6" height="24" fill="rgb(154,205,86)" stroke="rgb(123,164,68)" stroke-width="1" opacity="0.75" />
			</g>
			<g>
				<title>TPR_16 (PF13432)
"Tetratricopeptide repeat"</title>
				<polygon class="PF13432" points="538,33 543,28 544,28 544,52 543,52 538,47" stroke-linejoin="round" width="6" height="24" fill="rgb(154,205,86)" stroke="rgb(123,164,68)" stroke-width="1" opacity="0.75" />
			</g>
			<g>
				<title>TPR_19 (PF14559)
"Tetratricopeptide repeat"</title>
				<rect class="PF14559" x="550" y="28" stroke-linejoin="round" width="5" height="24" fill="rgb(182,60,145)" stroke="rgb(145,48,115)" stroke-width="1" opacity="0.75" />
			</g>
			<g>
				<title>TPR_19 (PF14559)
"Tetratricopeptide repeat"</title>
				<rect class="PF14559" x="556" y="28" stroke-linejoin="round" width="6" height="24" fill="rgb(182,60,145)" stroke="rgb(145,48,115)" stroke-width="1" opacity="0.75" />
			</g>
		</g>
		<g>
			<title> (ctg1050_27)</title>
			<polygon class=" (ctg1050_27)" points="688,25 608,25 608,10 578,40 608,70 608,55 688,55" fill="rgb(255,255,255)" fill-opacity="1.0" stroke="rgb(0,0,0)" stroke-width="2"  />
			<g>
				<title>TonB_dep_Rec (PF00593)
"TonB dependent receptor"</title>
				<polygon class="PF00593" points="582,40 594,28 648,28 648,52 594,52" stroke-linejoin="round" width="70" height="24" fill="rgb(171,200,51)" stroke="rgb(136,160,40)" stroke-width="1" opacity="0.75" />
			</g>
			<g>
				<title>CarboxypepD_reg (PF13620)
"Carboxypeptidase regulatory-like domain"</title>
				<rect class="PF13620" x="677" y="28" stroke-linejoin="round" width="8" height="24" fill="rgb(201,63,96)" stroke="rgb(160,50,76)" stroke-width="1" opacity="0.75" />
			</g>
		</g>
	</g>
</svg>
