<svg version="1.1" baseProfile="full" xmlns="http://www.w3.org/2000/svg" width="392.1666666666667" height="80">
	<g>
		<line x1="10" y1="40.0" x2="382.1666666666667" y2="40.0" style="stroke:rgb(70,70,70); stroke-width:3 "/>
		<g>
			<title> (ctg1948_12)</title>
			<polygon class=" (ctg1948_12)" points="68,40 73,10 73,70" fill="rgb(255,255,255)" fill-opacity="1.0" stroke="rgb(0,0,0)" stroke-width="2"  />
		</g>
		<g>
			<title> (ctg1948_13)</title>
			<polygon class=" (ctg1948_13)" points="74,10 77,40 74,70" fill="rgb(255,255,255)" fill-opacity="1.0" stroke="rgb(0,0,0)" stroke-width="2"  />
		</g>
		<g>
			<title> (ctg1948_14)</title>
			<polygon class=" (ctg1948_14)" points="79,25 96,25 96,10 126,40 96,70 96,55 79,55" fill="rgb(255,255,255)" fill-opacity="1.0" stroke="rgb(0,0,0)" stroke-width="2"  />
			<g>
				<title>LHH (PF14411)
"A nuclease of the HNH/ENDO VII superfamily with conserved LHH"</title>
				<polygon class="PF14411" points="119,38 121,40 119,42" stroke-linejoin="round" width="4" height="24" fill="rgb(189,74,226)" stroke="rgb(151,59,180)" stroke-width="1" opacity="0.75" />
			</g>
		</g>
		<g>
			<title> (ctg1948_15)</title>
			<polygon class=" (ctg1948_15)" points="127,40 131,10 131,70" fill="rgb(255,255,255)" fill-opacity="1.0" stroke="rgb(0,0,0)" stroke-width="2"  />
		</g>
		<g>
			<title> (ctg1948_16)</title>
			<polygon class=" (ctg1948_16)" points="134,40 139,10 139,70" fill="rgb(255,255,255)" fill-opacity="1.0" stroke="rgb(0,0,0)" stroke-width="2"  />
		</g>
		<g>
			<title> (ctg1948_17)</title>
			<polygon class=" (ctg1948_17)" points="144,10 165,40 144,70" fill="rgb(255,255,255)" fill-opacity="1.0" stroke="rgb(0,0,0)" stroke-width="2"  />
			<g>
				<title>Ntox10 (PF15520)
"Novel toxin 10"</title>
				<polygon class="PF15520" points="145,28 153,28 155,31 155,49 153,52 145,52" stroke-linejoin="round" width="10" height="24" fill="rgb(179,184,87)" stroke="rgb(143,147,69)" stroke-width="1" opacity="0.75" />
			</g>
		</g>
		<g>
			<title> (ctg1948_18)</title>
			<polygon class=" (ctg1948_18)" points="165,10 187,40 165,70" fill="rgb(255,255,255)" fill-opacity="1.0" stroke="rgb(0,0,0)" stroke-width="2"  />
		</g>
		<g>
			<title> (ctg1948_19)</title>
			<polygon class=" (ctg1948_19)" points="195,40 201,10 201,70" fill="rgb(255,255,255)" fill-opacity="1.0" stroke="rgb(0,0,0)" stroke-width="2"  />
		</g>
		<g>
			<title> (ctg1948_20)</title>
			<polygon class=" (ctg1948_20)" points="202,10 216,40 202,70" fill="rgb(255,255,255)" fill-opacity="1.0" stroke="rgb(0,0,0)" stroke-width="2"  />
		</g>
		<g>
			<title> (ctg1948_21)</title>
			<polygon class=" (ctg1948_21)" points="222,25 235,25 235,10 265,40 235,70 235,55 222,55" fill="rgb(255,255,255)" fill-opacity="1.0" stroke="rgb(0,0,0)" stroke-width="2"  />
		</g>
		<g>
			<title> (ctg1948_22)</title>
			<polygon class=" (ctg1948_22)" points="267,40 280,10 280,70" fill="rgb(255,255,255)" fill-opacity="1.0" stroke="rgb(0,0,0)" stroke-width="2"  />
		</g>
		<g>
			<title> (ctg1948_23)</title>
			<polygon class=" (ctg1948_23)" points="285,40 292,10 292,70" fill="rgb(255,255,255)" fill-opacity="1.0" stroke="rgb(0,0,0)" stroke-width="2"  />
		</g>
		<g>
			<title> (ctg1948_24)</title>
			<polygon class=" (ctg1948_24)" points="342,25 322,25 322,10 292,40 322,70 322,55 342,55" fill="rgb(255,255,255)" fill-opacity="1.0" stroke="rgb(0,0,0)" stroke-width="2"  />
			<g>
				<title>Amino_oxidase (PF01593)
"Flavin containing amine oxidoreductase"</title>
				<polygon class="PF01593" points="296,40 308,28 341,28 341,52 308,52" stroke-linejoin="round" width="46" height="24" fill="rgb(184,74,52)" stroke="rgb(147,59,41)" stroke-width="1" opacity="0.75" />
			</g>
		</g>
		<g>
			<title> (ctg1948_25)</title>
			<polygon class=" (ctg1948_25)" points="375,25 373,25 373,10 343,40 373,70 373,55 375,55" fill="rgb(255,255,255)" fill-opacity="1.0" stroke="rgb(0,0,0)" stroke-width="2"  />
			<g>
				<title>SQS_PSY (PF00494)
"Squalene/phytoene synthase"</title>
				<polygon class="PF00494" points="347,40 359,28 373,28 373,52 359,52" stroke-linejoin="round" width="29" height="24" fill="rgb(178,91,49)" stroke="rgb(142,72,39)" stroke-width="1" opacity="0.75" />
			</g>
		</g>
		<g>
			<title> (ctg1948_26)</title>
			<polygon class=" (ctg1948_26)" points="375,40 381,10 381,70" fill="rgb(255,255,255)" fill-opacity="1.0" stroke="rgb(0,0,0)" stroke-width="2"  />
		</g>
	</g>
</svg>
