<svg version="1.1" baseProfile="full" xmlns="http://www.w3.org/2000/svg" width="245.23333333333332" height="80">
	<g>
		<line x1="10" y1="40.0" x2="235.23333333333332" y2="40.0" style="stroke:rgb(70,70,70); stroke-width:3 "/>
		<g>
			<title> (ctg12082_1)</title>
			<polygon class=" (ctg12082_1)" points="10,10 18,40 10,70" fill="rgb(255,255,255)" fill-opacity="1.0" stroke="rgb(0,0,0)" stroke-width="2"  />
			<g>
				<title>Trans_reg_C (PF00486)
"Transcriptional regulatory protein, C terminal"</title>
				<polygon class="PF00486" points="10,28 11,28 14,40 11,52 10,52" stroke-linejoin="round" width="7" height="24" fill="rgb(204,153,57)" stroke="rgb(163,122,45)" stroke-width="1" opacity="0.75" />
			</g>
		</g>
		<g>
			<title> (ctg12082_2)</title>
			<polygon class=" (ctg12082_2)" points="20,25 28,25 28,10 58,40 28,70 28,55 20,55" fill="rgb(255,255,255)" fill-opacity="1.0" stroke="rgb(0,0,0)" stroke-width="2"  />
			<g>
				<title>SQS_PSY (PF00494)
"Squalene/phytoene synthase"</title>
				<polygon class="PF00494" points="25,28 42,28 53,39 53,41 42,52 25,52" stroke-linejoin="round" width="28" height="24" fill="rgb(178,91,49)" stroke="rgb(142,72,39)" stroke-width="1" opacity="0.75" />
			</g>
		</g>
		<g>
			<title> (ctg12082_3)</title>
			<polygon class=" (ctg12082_3)" points="110,25 92,25 92,10 62,40 92,70 92,55 110,55" fill="rgb(255,255,255)" fill-opacity="1.0" stroke="rgb(0,0,0)" stroke-width="2"  />
			<g>
				<title>PYC_OADA (PF02436)
"Conserved carboxylase domain"</title>
				<polygon class="PF02436" points="66,40 78,28 80,28 80,52 78,52" stroke-linejoin="round" width="17" height="24" fill="rgb(181,121,72)" stroke="rgb(144,96,57)" stroke-width="1" opacity="0.75" />
			</g>
			<g>
				<title>HMGL-like (PF00682)
"HMGL-like"</title>
				<rect class="PF00682" x="83" y="28" stroke-linejoin="round" width="26" height="24" fill="rgb(84,228,141)" stroke="rgb(67,182,112)" stroke-width="1" opacity="0.75" />
			</g>
		</g>
		<g>
			<title> (ctg12082_4)</title>
			<polygon class=" (ctg12082_4)" points="156,25 140,25 140,10 110,40 140,70 140,55 156,55" fill="rgb(255,255,255)" fill-opacity="1.0" stroke="rgb(0,0,0)" stroke-width="2"  />
			<g>
				<title>Biotin_carb_C (PF02785)
"Biotin carboxylase C-terminal domain"</title>
				<polygon class="PF02785" points="114,40 121,33 121,47" stroke-linejoin="round" width="10" height="24" fill="rgb(82,186,211)" stroke="rgb(65,148,168)" stroke-width="1" opacity="0.75" />
			</g>
			<g>
				<title>CPSase_L_D2 (PF02786)
"Carbamoyl-phosphate synthase L chain, ATP binding domain"</title>
				<polygon class="PF02786" points="123,31 126,28 143,28 143,52 126,52 123,49" stroke-linejoin="round" width="20" height="24" fill="rgb(190,97,205)" stroke="rgb(151,77,164)" stroke-width="1" opacity="0.75" />
			</g>
			<g>
				<title>Biotin_carb_N (PF00289)
"Biotin carboxylase, N-terminal domain"</title>
				<rect class="PF00289" x="145" y="28" stroke-linejoin="round" width="10" height="24" fill="rgb(59,114,187)" stroke="rgb(47,91,149)" stroke-width="1" opacity="0.75" />
			</g>
		</g>
		<g>
			<title> (ctg12082_5)</title>
			<polygon class=" (ctg12082_5)" points="157,40 162,10 162,70" fill="rgb(255,255,255)" fill-opacity="1.0" stroke="rgb(0,0,0)" stroke-width="2"  />
			<g>
				<title>Biotin_lipoyl (PF00364)
"Biotin-requiring enzyme"</title>
				<polygon class="PF00364" points="160,40 162,28 162,28 162,52 162,52" stroke-linejoin="round" width="5" height="24" fill="rgb(67,214,213)" stroke="rgb(53,171,170)" stroke-width="1" opacity="0.75" />
			</g>
		</g>
		<g>
			<title> (ctg12082_6)</title>
			<polygon class=" (ctg12082_6)" points="181,40 209,10 209,70" fill="rgb(255,255,255)" fill-opacity="1.0" stroke="rgb(0,0,0)" stroke-width="2"  />
			<g>
				<title>polyprenyl_synt (PF00348)
"Polyprenyl synthetase"</title>
				<polygon class="PF00348" points="185,40 196,28 205,28 205,52 196,52" stroke-linejoin="round" width="22" height="24" fill="rgb(61,206,65)" stroke="rgb(48,164,52)" stroke-width="1" opacity="0.75" />
			</g>
		</g>
		<g>
			<title> (ctg12082_7)</title>
			<polygon class=" (ctg12082_7)" points="209,40 225,10 225,70" fill="rgb(255,255,255)" fill-opacity="1.0" stroke="rgb(0,0,0)" stroke-width="2"  />
			<g>
				<title>NDK (PF00334)
"Nucleoside diphosphate kinase"</title>
				<polygon class="PF00334" points="212,40 218,28 222,28 222,52 218,52" stroke-linejoin="round" width="13" height="24" fill="rgb(197,210,70)" stroke="rgb(157,168,56)" stroke-width="1" opacity="0.75" />
			</g>
		</g>
		<g>
			<title> (ctg12082_8)</title>
			<polygon class=" (ctg12082_8)" points="232,10 234,40 232,70" fill="rgb(255,255,255)" fill-opacity="1.0" stroke="rgb(0,0,0)" stroke-width="2"  />
		</g>
	</g>
</svg>
