<svg version="1.1" baseProfile="full" xmlns="http://www.w3.org/2000/svg" width="483.76666666666665" height="80">
	<g>
		<line x1="10" y1="40.0" x2="473.76666666666665" y2="40.0" style="stroke:rgb(70,70,70); stroke-width:3 "/>
		<g>
			<title> (ctg3006_5)</title>
			<polygon class=" (ctg3006_5)" points="27,10 47,40 27,70" fill="rgb(255,255,255)" fill-opacity="1.0" stroke="rgb(0,0,0)" stroke-width="2"  />
			<g>
				<title>CoaE (PF01121)
"Dephospho-CoA kinase"</title>
				<polygon class="PF01121" points="27,28 35,28 43,40 35,52 27,52" stroke-linejoin="round" width="18" height="24" fill="rgb(197,177,81)" stroke="rgb(157,141,64)" stroke-width="1" opacity="0.75" />
			</g>
		</g>
		<g>
			<title> (ctg3006_6)</title>
			<polygon class=" (ctg3006_6)" points="47,40 67,10 67,70" fill="rgb(255,255,255)" fill-opacity="1.0" stroke="rgb(0,0,0)" stroke-width="2"  />
			<g>
				<title>Hydrolase (PF00702)
"haloacid dehalogenase-like hydrolase"</title>
				<polygon class="PF00702" points="52,38 59,28 60,28 60,52 59,52 52,42" stroke-linejoin="round" width="8" height="24" fill="rgb(68,220,102)" stroke="rgb(54,176,81)" stroke-width="1" opacity="0.75" />
			</g>
		</g>
		<g>
			<title> (ctg3006_7)</title>
			<polygon class=" (ctg3006_7)" points="123,25 98,25 98,10 68,40 98,70 98,55 123,55" fill="rgb(255,255,255)" fill-opacity="1.0" stroke="rgb(0,0,0)" stroke-width="2"  />
			<g>
				<title>GATase (PF00117)
"Glutamine amidotransferase class-I"</title>
				<polygon class="PF00117" points="72,40 84,28 92,28 92,52 84,52" stroke-linejoin="round" width="22" height="24" fill="rgb(159,201,96)" stroke="rgb(127,160,76)" stroke-width="1" opacity="0.75" />
			</g>
			<g>
				<title>CTP_synth_N (PF06418)
"CTP synthase N-terminus"</title>
				<rect class="PF06418" x="96" y="28" stroke-linejoin="round" width="26" height="24" fill="rgb(90,189,145)" stroke="rgb(72,151,116)" stroke-width="1" opacity="0.75" />
			</g>
		</g>
		<g>
			<title> (ctg3006_8)</title>
			<polygon class=" (ctg3006_8)" points="169,25 157,25 157,10 127,40 157,70 157,55 169,55" fill="rgb(255,255,255)" fill-opacity="1.0" stroke="rgb(0,0,0)" stroke-width="2"  />
			<g>
				<title>Trp_halogenase (PF04820)
"Tryptophan halogenase"</title>
				<polygon class="PF04820" points="131,40 143,28 159,28 159,52 143,52 131,40" stroke-linejoin="round" width="28" height="24" fill="rgb(179,74,194)" stroke="rgb(143,59,155)" stroke-width="1" opacity="0.75" />
			</g>
			<g>
				<title>Trp_halogenase (PF04820)
"Tryptophan halogenase"</title>
				<rect class="PF04820" x="158" y="28" stroke-linejoin="round" width="9" height="24" fill="rgb(179,74,194)" stroke="rgb(143,59,155)" stroke-width="1" opacity="0.75" />
			</g>
		</g>
		<g>
			<title> (ctg3006_9)</title>
			<polygon class=" (ctg3006_9)" points="176,10 184,40 176,70" fill="rgb(255,255,255)" fill-opacity="1.0" stroke="rgb(0,0,0)" stroke-width="2"  />
			<g>
				<title>NHase_alpha (PF02979)
"Nitrile hydratase, alpha chain"</title>
				<polygon class="PF02979" points="176,28 177,28 181,40 177,52 176,52" stroke-linejoin="round" width="7" height="24" fill="rgb(204,148,70)" stroke="rgb(163,118,56)" stroke-width="1" opacity="0.75" />
			</g>
		</g>
		<g>
			<title> (ctg3006_10)</title>
			<polygon class=" (ctg3006_10)" points="229,25 222,25 222,10 192,40 222,70 222,55 229,55" fill="rgb(255,255,255)" fill-opacity="1.0" stroke="rgb(0,0,0)" stroke-width="2"  />
		</g>
		<g>
			<title> (ctg3006_11)</title>
			<polygon class=" (ctg3006_11)" points="307,25 260,25 260,10 230,40 260,70 260,55 307,55" fill="rgb(255,255,255)" fill-opacity="1.0" stroke="rgb(0,0,0)" stroke-width="2"  />
			<g>
				<title>YcaO (PF02624)
"YcaO cyclodehydratase, ATP-ad Mg2+-binding"</title>
				<polygon class="PF02624" points="234,40 246,28 266,28 266,52 246,52" stroke-linejoin="round" width="33" height="24" fill="rgb(76,84,185)" stroke="rgb(60,67,148)" stroke-width="1" opacity="0.75" />
			</g>
		</g>
		<g>
			<title> (ctg3006_12)</title>
			<polygon class=" (ctg3006_12)" points="350,25 337,25 337,10 307,40 337,70 337,55 350,55" fill="rgb(255,255,255)" fill-opacity="1.0" stroke="rgb(0,0,0)" stroke-width="2"  />
		</g>
		<g>
			<title> (ctg3006_13)</title>
			<polygon class=" (ctg3006_13)" points="450,25 382,25 382,10 352,40 382,70 382,55 450,55" fill="rgb(255,255,255)" fill-opacity="1.0" stroke="rgb(0,0,0)" stroke-width="2"  />
			<g>
				<title>ABC_tran (PF00005)
"ABC transporter"</title>
				<polygon class="PF00005" points="359,37 368,28 373,28 373,52 368,52 359,43" stroke-linejoin="round" width="14" height="24" fill="rgb(129,201,63)" stroke="rgb(103,160,50)" stroke-width="1" opacity="0.75" />
			</g>
			<g>
				<title>ABC_membrane (PF00664)
"ABC transporter transmembrane region"</title>
				<rect class="PF00664" x="380" y="28" stroke-linejoin="round" width="26" height="24" fill="rgb(149,226,73)" stroke="rgb(119,180,58)" stroke-width="1" opacity="0.75" />
			</g>
		</g>
	</g>
</svg>
