<svg version="1.1" baseProfile="full" xmlns="http://www.w3.org/2000/svg" width="1448.5333333333333" height="80">
	<g>
		<line x1="10" y1="40.0" x2="1438.5333333333333" y2="40.0" style="stroke:rgb(70,70,70); stroke-width:3 "/>
		<g>
			<title> (ctg506_3)</title>
			<polygon class=" (ctg506_3)" points="102,25 106,25 106,10 136,40 106,70 106,55 102,55" fill="rgb(255,255,255)" fill-opacity="1.0" stroke="rgb(0,0,0)" stroke-width="2"  />
			<g>
				<title>TPR_12 (PF13424)
"Tetratricopeptide repeat"</title>
				<rect class="PF13424" x="109" y="28" stroke-linejoin="round" width="7" height="24" fill="rgb(147,215,101)" stroke="rgb(117,172,80)" stroke-width="1" opacity="0.75" />
			</g>
			<g>
				<title>TPR_12 (PF13424)
"Tetratricopeptide repeat"</title>
				<polygon class="PF13424" points="117,28 119,28 124,33 124,47 119,52 117,52" stroke-linejoin="round" width="7" height="24" fill="rgb(147,215,101)" stroke="rgb(117,172,80)" stroke-width="1" opacity="0.75" />
			</g>
			<g>
				<title>TonB_C (PF03544)
"Gram-negative bacterial TonB protein C-terminal"</title>
				<polygon class="PF03544" points="128,37 131,40 128,43" stroke-linejoin="round" width="7" height="24" fill="rgb(196,207,101)" stroke="rgb(156,165,80)" stroke-width="1" opacity="0.75" />
			</g>
		</g>
		<g>
			<title> (ctg506_4)</title>
			<polygon class=" (ctg506_4)" points="174,25 167,25 167,10 137,40 167,70 167,55 174,55" fill="rgb(255,255,255)" fill-opacity="1.0" stroke="rgb(0,0,0)" stroke-width="2"  />
		</g>
		<g>
			<title> (ctg506_5)</title>
			<polygon class=" (ctg506_5)" points="178,10 184,40 178,70" fill="rgb(255,255,255)" fill-opacity="1.0" stroke="rgb(0,0,0)" stroke-width="2"  />
		</g>
		<g>
			<title> (ctg506_6)</title>
			<polygon class=" (ctg506_6)" points="220,25 217,25 217,10 187,40 217,70 217,55 220,55" fill="rgb(255,255,255)" fill-opacity="1.0" stroke="rgb(0,0,0)" stroke-width="2"  />
			<g>
				<title>AAA_lid_2 (PF17863)
"AAA lid domain"</title>
				<polygon class="PF17863" points="191,40 195,36 195,44" stroke-linejoin="round" width="7" height="24" fill="rgb(52,164,197)" stroke="rgb(41,131,157)" stroke-width="1" opacity="0.75" />
			</g>
			<g>
				<title>AAA_3 (PF07726)
"ATPase family associated with various cellular activities (AAA)"</title>
				<polygon class="PF07726" points="202,29 203,28 215,28 215,52 203,52 202,51" stroke-linejoin="round" width="13" height="24" fill="rgb(225,222,92)" stroke="rgb(180,177,73)" stroke-width="1" opacity="0.75" />
			</g>
		</g>
		<g>
			<title> (ctg506_7)</title>
			<polygon class=" (ctg506_7)" points="268,25 250,25 250,10 220,40 250,70 250,55 268,55" fill="rgb(255,255,255)" fill-opacity="1.0" stroke="rgb(0,0,0)" stroke-width="2"  />
		</g>
		<g>
			<title> (ctg506_8)</title>
			<polygon class=" (ctg506_8)" points="271,40 277,10 277,70" fill="rgb(255,255,255)" fill-opacity="1.0" stroke="rgb(0,0,0)" stroke-width="2"  />
		</g>
		<g>
			<title> (ctg506_9)</title>
			<polygon class=" (ctg506_9)" points="282,25 299,25 299,10 329,40 299,70 299,55 282,55" fill="rgb(255,255,255)" fill-opacity="1.0" stroke="rgb(0,0,0)" stroke-width="2"  />
			<g>
				<title>Thy1 (PF02511)
"Thymidylate synthase complementing protein"</title>
				<rect class="PF02511" x="282" y="28" stroke-linejoin="round" width="20" height="24" fill="rgb(50,175,182)" stroke="rgb(39,140,145)" stroke-width="1" opacity="0.75" />
			</g>
			<g>
				<title>Thy1 (PF02511)
"Thymidylate synthase complementing protein"</title>
				<polygon class="PF02511" points="313,29 324,40 313,51" stroke-linejoin="round" width="14" height="24" fill="rgb(50,175,182)" stroke="rgb(39,140,145)" stroke-width="1" opacity="0.75" />
			</g>
		</g>
		<g>
			<title> (ctg506_10)</title>
			<polygon class=" (ctg506_10)" points="332,40 354,10 354,70" fill="rgb(255,255,255)" fill-opacity="1.0" stroke="rgb(0,0,0)" stroke-width="2"  />
			<g>
				<title>DUF5612 (PF18462)
"Domain of unknown function (DUF5612)"</title>
				<polygon class="PF18462" points="336,40 345,28 346,28 346,52 345,52" stroke-linejoin="round" width="14" height="24" fill="rgb(122,229,111)" stroke="rgb(97,183,88)" stroke-width="1" opacity="0.75" />
			</g>
			<g>
				<title>ACT (PF01842)
"ACT domain"</title>
				<rect class="PF01842" x="347" y="28" stroke-linejoin="round" width="6" height="24" fill="rgb(67,209,69)" stroke="rgb(53,167,55)" stroke-width="1" opacity="0.75" />
			</g>
		</g>
		<g>
			<title> (ctg506_11)</title>
			<polygon class=" (ctg506_11)" points="359,25 362,25 362,10 392,40 362,70 362,55 359,55" fill="rgb(255,255,255)" fill-opacity="1.0" stroke="rgb(0,0,0)" stroke-width="2"  />
			<g>
				<title>DHDPS (PF00701)
"Dihydrodipicolinate synthetase family"</title>
				<polygon class="PF00701" points="362,28 375,28 387,40 375,52 362,52" stroke-linejoin="round" width="28" height="24" fill="rgb(80,204,82)" stroke="rgb(64,163,65)" stroke-width="1" opacity="0.75" />
			</g>
		</g>
		<g>
			<title> (ctg506_12)</title>
			<polygon class=" (ctg506_12)" points="396,10 422,40 396,70" fill="rgb(255,255,255)" fill-opacity="1.0" stroke="rgb(0,0,0)" stroke-width="2"  />
			<g>
				<title>PhzC-PhzF (PF02567)
"Phenazine biosynthesis-like protein"</title>
				<polygon class="PF02567" points="396,28 407,28 418,40 407,52 396,52" stroke-linejoin="round" width="25" height="24" fill="rgb(223,91,96)" stroke="rgb(178,72,76)" stroke-width="1" opacity="0.75" />
			</g>
		</g>
		<g>
			<title> (ctg506_13)</title>
			<polygon class=" (ctg506_13)" points="425,25 426,25 426,10 456,40 426,70 426,55 425,55" fill="rgb(255,255,255)" fill-opacity="1.0" stroke="rgb(0,0,0)" stroke-width="2"  />
		</g>
		<g>
			<title> (ctg506_14)</title>
			<polygon class=" (ctg506_14)" points="455,25 468,25 468,10 498,40 468,70 468,55 455,55" fill="rgb(255,255,255)" fill-opacity="1.0" stroke="rgb(0,0,0)" stroke-width="2"  />
			<g>
				<title>Peptidase_M19 (PF01244)
"Membrane dipeptidase (Peptidase family M19)"</title>
				<polygon class="PF01244" points="458,28 481,28 493,40 481,52 458,52" stroke-linejoin="round" width="39" height="24" fill="rgb(178,227,92)" stroke="rgb(142,181,73)" stroke-width="1" opacity="0.75" />
			</g>
		</g>
		<g>
			<title> (ctg506_15)</title>
			<polygon class=" (ctg506_15)" points="498,10 505,40 498,70" fill="rgb(255,255,255)" fill-opacity="1.0" stroke="rgb(0,0,0)" stroke-width="2"  />
		</g>
		<g>
			<title> (ctg506_16)</title>
			<polygon class=" (ctg506_16)" points="509,25 513,25 513,10 543,40 513,70 513,55 509,55" fill="rgb(255,255,255)" fill-opacity="1.0" stroke="rgb(0,0,0)" stroke-width="2"  />
			<g>
				<title>2-Hacid_dh_C (PF02826)
"D-isomer specific 2-hydroxyacid dehydrogenase, NAD binding domain"</title>
				<polygon class="PF02826" points="521,28 527,28 538,39 538,41 527,52 521,52" stroke-linejoin="round" width="17" height="24" fill="rgb(192,197,93)" stroke="rgb(153,157,74)" stroke-width="1" opacity="0.75" />
			</g>
		</g>
		<g>
			<title> (ctg506_17)</title>
			<polygon class=" (ctg506_17)" points="561,10 578,40 561,70" fill="rgb(255,255,255)" fill-opacity="1.0" stroke="rgb(0,0,0)" stroke-width="2"  />
			<g>
				<title>HTH_36 (PF13730)
"Helix-turn-helix domain"</title>
				<polygon class="PF13730" points="566,28 568,28 571,33 571,47 568,52 566,52" stroke-linejoin="round" width="5" height="24" fill="rgb(149,101,210)" stroke="rgb(119,80,168)" stroke-width="1" opacity="0.75" />
			</g>
		</g>
		<g>
			<title> (ctg506_18)</title>
			<polygon class=" (ctg506_18)" points="576,40 584,10 584,70" fill="rgb(255,255,255)" fill-opacity="1.0" stroke="rgb(0,0,0)" stroke-width="2"  />
		</g>
		<g>
			<title> (ctg506_19)</title>
			<polygon class=" (ctg506_19)" points="584,40 593,10 593,70" fill="rgb(255,255,255)" fill-opacity="1.0" stroke="rgb(0,0,0)" stroke-width="2"  />
		</g>
		<g>
			<title> (ctg506_20)</title>
			<polygon class=" (ctg506_20)" points="593,10 605,40 593,70" fill="rgb(255,255,255)" fill-opacity="1.0" stroke="rgb(0,0,0)" stroke-width="2"  />
		</g>
		<g>
			<title> (ctg506_21)</title>
			<polygon class=" (ctg506_21)" points="605,40 610,10 610,70" fill="rgb(255,255,255)" fill-opacity="1.0" stroke="rgb(0,0,0)" stroke-width="2"  />
		</g>
		<g>
			<title> (ctg506_22)</title>
			<polygon class=" (ctg506_22)" points="614,10 643,40 614,70" fill="rgb(255,255,255)" fill-opacity="1.0" stroke="rgb(0,0,0)" stroke-width="2"  />
			<g>
				<title>Peptidase_M50 (PF02163)
"Peptidase family M50"</title>
				<polygon class="PF02163" points="631,32 638,39 638,41 631,48" stroke-linejoin="round" width="7" height="24" fill="rgb(105,96,203)" stroke="rgb(83,76,162)" stroke-width="1" opacity="0.75" />
			</g>
		</g>
		<g>
			<title> (ctg506_23)</title>
			<polygon class=" (ctg506_23)" points="644,10 662,40 644,70" fill="rgb(255,255,255)" fill-opacity="1.0" stroke="rgb(0,0,0)" stroke-width="2"  />
			<g>
				<title>GSHPx (PF00255)
"Glutathione peroxidase"</title>
				<polygon class="PF00255" points="646,28 651,28 656,36 656,44 651,52 646,52" stroke-linejoin="round" width="10" height="24" fill="rgb(92,57,196)" stroke="rgb(73,45,156)" stroke-width="1" opacity="0.75" />
			</g>
		</g>
		<g>
			<title> (ctg506_24)</title>
			<polygon class=" (ctg506_24)" points="666,10 670,40 666,70" fill="rgb(255,255,255)" fill-opacity="1.0" stroke="rgb(0,0,0)" stroke-width="2"  />
		</g>
		<g>
			<title> (ctg506_25)</title>
			<polygon class=" (ctg506_25)" points="676,25 741,25 741,10 771,40 741,70 741,55 676,55" fill="rgb(255,255,255)" fill-opacity="1.0" stroke="rgb(0,0,0)" stroke-width="2"  />
			<g>
				<title>PP-binding (PF00550)
"Phosphopantetheine attachment site"</title>
				<rect class="PF00550" x="678" y="28" stroke-linejoin="round" width="6" height="24" fill="rgb(103,191,88)" stroke="rgb(82,152,70)" stroke-width="1" opacity="0.75" />
			</g>
			<g>
				<title>AMP-binding (PF00501)
"AMP-binding enzyme"</title>
				<rect class="PF00501" x="688" y="28" stroke-linejoin="round" width="44" height="24" fill="rgb(60,217,223)" stroke="rgb(48,173,178)" stroke-width="1" opacity="0.75" />
			</g>
			<g>
				<title>Acyltransferase (PF01553)
"Acyltransferase"</title>
				<polygon class="PF01553" points="751,28 754,28 763,37 763,43 754,52 751,52" stroke-linejoin="round" width="12" height="24" fill="rgb(87,176,216)" stroke="rgb(69,140,172)" stroke-width="1" opacity="0.75" />
			</g>
		</g>
		<g>
			<title> (ctg506_26)</title>
			<polygon class=" (ctg506_26)" points="771,25 784,25 784,10 814,40 784,70 784,55 771,55" fill="rgb(255,255,255)" fill-opacity="1.0" stroke="rgb(0,0,0)" stroke-width="2"  />
			<g>
				<title>ATG22 (PF11700)
"Vacuole effluxer Atg22 like"</title>
				<polygon class="PF11700" points="785,28 798,28 810,40 798,52 785,52" stroke-linejoin="round" width="28" height="24" fill="rgb(187,76,115)" stroke="rgb(149,60,92)" stroke-width="1" opacity="0.75" />
			</g>
		</g>
		<g>
			<title> (ctg506_27)</title>
			<polygon class=" (ctg506_27)" points="822,40 831,10 831,70" fill="rgb(255,255,255)" fill-opacity="1.0" stroke="rgb(0,0,0)" stroke-width="2"  />
			<g>
				<title>Bac_DNA_binding (PF00216)
"Bacterial DNA-binding protein"</title>
				<polygon class="PF00216" points="825,40 829,28 831,28 831,52 829,52" stroke-linejoin="round" width="8" height="24" fill="rgb(73,205,204)" stroke="rgb(58,164,163)" stroke-width="1" opacity="0.75" />
			</g>
		</g>
		<g>
			<title> (ctg506_28)</title>
			<polygon class=" (ctg506_28)" points="854,10 875,40 854,70" fill="rgb(255,255,255)" fill-opacity="1.0" stroke="rgb(0,0,0)" stroke-width="2"  />
			<g>
				<title>IF3_N (PF05198)
"Translation initiation factor IF-3, N-terminal domain"</title>
				<rect class="PF05198" x="857" y="28" stroke-linejoin="round" width="6" height="24" fill="rgb(226,105,214)" stroke="rgb(180,83,171)" stroke-width="1" opacity="0.75" />
			</g>
			<g>
				<title>IF3_C (PF00707)
"Translation initiation factor IF-3, C-terminal domain"</title>
				<polygon class="PF00707" points="865,31 871,40 865,49" stroke-linejoin="round" width="8" height="24" fill="rgb(122,214,90)" stroke="rgb(97,171,72)" stroke-width="1" opacity="0.75" />
			</g>
		</g>
		<g>
			<title> (ctg506_29)</title>
			<polygon class=" (ctg506_29)" points="889,25 895,25 895,10 925,40 895,70 895,55 889,55" fill="rgb(255,255,255)" fill-opacity="1.0" stroke="rgb(0,0,0)" stroke-width="2"  />
			<g>
				<title>ADH_N (PF08240)
"Alcohol dehydrogenase GroES-like domain"</title>
				<rect class="PF08240" x="891" y="28" stroke-linejoin="round" width="12" height="24" fill="rgb(211,65,138)" stroke="rgb(168,51,110)" stroke-width="1" opacity="0.75" />
			</g>
			<g>
				<title>ADH_zinc_N (PF00107)
"Zinc-binding dehydrogenase"</title>
				<polygon class="PF00107" points="908,28 909,28 921,40 921,40 909,52 908,52" stroke-linejoin="round" width="13" height="24" fill="rgb(81,108,215)" stroke="rgb(64,86,172)" stroke-width="1" opacity="0.75" />
			</g>
		</g>
		<g>
			<title> (ctg506_30)</title>
			<polygon class=" (ctg506_30)" points="928,25 934,25 934,10 964,40 934,70 934,55 928,55" fill="rgb(255,255,255)" fill-opacity="1.0" stroke="rgb(0,0,0)" stroke-width="2"  />
			<g>
				<title>Abhydrolase_1 (PF00561)
"alpha/beta hydrolase fold"</title>
				<polygon class="PF00561" points="933,28 947,28 959,40 947,52 933,52" stroke-linejoin="round" width="27" height="24" fill="rgb(86,180,151)" stroke="rgb(68,144,120)" stroke-width="1" opacity="0.75" />
			</g>
		</g>
		<g>
			<title> (ctg506_31)</title>
			<polygon class=" (ctg506_31)" points="962,40 970,10 970,70" fill="rgb(255,255,255)" fill-opacity="1.0" stroke="rgb(0,0,0)" stroke-width="2"  />
		</g>
		<g>
			<title> (ctg506_32)</title>
			<polygon class=" (ctg506_32)" points="981,25 987,25 987,10 1017,40 987,70 987,55 981,55" fill="rgb(255,255,255)" fill-opacity="1.0" stroke="rgb(0,0,0)" stroke-width="2"  />
			<g>
				<title>Fe-ADH (PF00465)
"Iron-containing alcohol dehydrogenase"</title>
				<polygon class="PF00465" points="981,28 1001,28 1013,40 1001,52 981,52" stroke-linejoin="round" width="34" height="24" fill="rgb(73,179,216)" stroke="rgb(58,143,172)" stroke-width="1" opacity="0.75" />
			</g>
		</g>
		<g>
			<title> (ctg506_33)</title>
			<polygon class=" (ctg506_33)" points="1059,25 1055,25 1055,10 1025,40 1055,70 1055,55 1059,55" fill="rgb(255,255,255)" fill-opacity="1.0" stroke="rgb(0,0,0)" stroke-width="2"  />
		</g>
		<g>
			<title> (ctg506_34)</title>
			<polygon class=" (ctg506_34)" points="1065,10 1093,40 1065,70" fill="rgb(255,255,255)" fill-opacity="1.0" stroke="rgb(0,0,0)" stroke-width="2"  />
			<g>
				<title>AP_endonuc_2 (PF01261)
"Xylose isomerase-like TIM barrel"</title>
				<polygon class="PF01261" points="1067,28 1077,28 1088,39 1088,41 1077,52 1067,52" stroke-linejoin="round" width="21" height="24" fill="rgb(69,222,207)" stroke="rgb(55,177,165)" stroke-width="1" opacity="0.75" />
			</g>
		</g>
		<g>
			<title> (ctg506_35)</title>
			<polygon class=" (ctg506_35)" points="1134,25 1126,25 1126,10 1096,40 1126,70 1126,55 1134,55" fill="rgb(255,255,255)" fill-opacity="1.0" stroke="rgb(0,0,0)" stroke-width="2"  />
			<g>
				<title>MR_MLE_C (PF13378)
"Enolase C-terminal domain-like"</title>
				<polygon class="PF13378" points="1100,40 1112,28 1118,28 1118,52 1112,52" stroke-linejoin="round" width="21" height="24" fill="rgb(191,184,94)" stroke="rgb(152,147,75)" stroke-width="1" opacity="0.75" />
			</g>
		</g>
		<g>
			<title> (ctg506_36)</title>
			<polygon class=" (ctg506_36)" points="1188,25 1169,25 1169,10 1139,40 1169,70 1169,55 1188,55" fill="rgb(255,255,255)" fill-opacity="1.0" stroke="rgb(0,0,0)" stroke-width="2"  />
			<g>
				<title>Aminotran_3 (PF00202)
"Aminotransferase class-III"</title>
				<polygon class="PF00202" points="1143,40 1155,28 1180,28 1180,52 1155,52 1143,40" stroke-linejoin="round" width="37" height="24" fill="rgb(49,163,189)" stroke="rgb(39,130,151)" stroke-width="1" opacity="0.75" />
			</g>
		</g>
		<g>
			<title> (ctg506_37)</title>
			<polygon class=" (ctg506_37)" points="1239,25 1228,25 1228,10 1198,40 1228,70 1228,55 1239,55" fill="rgb(255,255,255)" fill-opacity="1.0" stroke="rgb(0,0,0)" stroke-width="2"  />
		</g>
		<g>
			<title> (ctg506_38)</title>
			<polygon class=" (ctg506_38)" points="1243,10 1253,40 1243,70" fill="rgb(255,255,255)" fill-opacity="1.0" stroke="rgb(0,0,0)" stroke-width="2"  />
			<g>
				<title>Pterin_4a (PF01329)
"Pterin 4 alpha carbinolamine dehydratase"</title>
				<polygon class="PF01329" points="1243,28 1245,28 1249,40 1245,52 1243,52" stroke-linejoin="round" width="8" height="24" fill="rgb(109,209,90)" stroke="rgb(87,167,72)" stroke-width="1" opacity="0.75" />
			</g>
		</g>
		<g>
			<title> (ctg506_39)</title>
			<polygon class=" (ctg506_39)" points="1266,40 1291,10 1291,70" fill="rgb(255,255,255)" fill-opacity="1.0" stroke="rgb(0,0,0)" stroke-width="2"  />
			<g>
				<title>YfiO (PF13525)
"Outer membrane lipoprotein"</title>
				<polygon class="PF13525" points="1270,40 1279,30 1279,50" stroke-linejoin="round" width="12" height="24" fill="rgb(135,83,203)" stroke="rgb(108,66,162)" stroke-width="1" opacity="0.75" />
			</g>
		</g>
		<g>
			<title> (ctg506_40)</title>
			<polygon class=" (ctg506_40)" points="1321,25 1325,25 1325,10 1355,40 1325,70 1325,55 1321,55" fill="rgb(255,255,255)" fill-opacity="1.0" stroke="rgb(0,0,0)" stroke-width="2"  />
			<g>
				<title>DAHP_snth_FXD (PF18152)
"DAHP synthase ferredoxin-like domain"</title>
				<rect class="PF18152" x="1321" y="28" stroke-linejoin="round" width="6" height="24" fill="rgb(83,182,57)" stroke="rgb(66,145,45)" stroke-width="1" opacity="0.75" />
			</g>
			<g>
				<title>DAHP_synth_1 (PF00793)
"DAHP synthetase I family"</title>
				<polygon class="PF00793" points="1328,28 1339,28 1351,40 1339,52 1328,52" stroke-linejoin="round" width="25" height="24" fill="rgb(223,103,208)" stroke="rgb(178,82,166)" stroke-width="1" opacity="0.75" />
			</g>
		</g>
	</g>
</svg>
