<svg version="1.1" baseProfile="full" xmlns="http://www.w3.org/2000/svg" width="849.1" height="80">
	<g>
		<line x1="10" y1="40.0" x2="839.1" y2="40.0" style="stroke:rgb(70,70,70); stroke-width:3 "/>
		<g>
			<title> (ctg420_39)</title>
			<polygon class=" (ctg420_39)" points="18,40 46,10 46,70" fill="rgb(255,255,255)" fill-opacity="1.0" stroke="rgb(0,0,0)" stroke-width="2"  />
			<g>
				<title>BPD_transp_1 (PF00528)
"Binding-protein-dependent transport system inner membrane component"</title>
				<polygon class="PF00528" points="22,40 33,28 36,28 36,52 33,52" stroke-linejoin="round" width="18" height="24" fill="rgb(77,208,225)" stroke="rgb(61,166,180)" stroke-width="1" opacity="0.75" />
			</g>
		</g>
		<g>
			<title> (ctg420_40)</title>
			<polygon class=" (ctg420_40)" points="76,25 76,25 76,10 46,40 76,70 76,55 76,55" fill="rgb(255,255,255)" fill-opacity="1.0" stroke="rgb(0,0,0)" stroke-width="2"  />
			<g>
				<title>ABC_tran (PF00005)
"ABC transporter"</title>
				<polygon class="PF00005" points="56,34 62,28 70,28 70,52 62,52 56,46" stroke-linejoin="round" width="14" height="24" fill="rgb(129,201,63)" stroke="rgb(103,160,50)" stroke-width="1" opacity="0.75" />
			</g>
		</g>
		<g>
			<title> (ctg420_41)</title>
			<polygon class=" (ctg420_41)" points="79,10 101,40 79,70" fill="rgb(255,255,255)" fill-opacity="1.0" stroke="rgb(0,0,0)" stroke-width="2"  />
			<g>
				<title>F420_oxidored (PF03807)
"NADP oxidoreductase coenzyme F420-dependent"</title>
				<polygon class="PF03807" points="79,28 88,28 89,29 89,51 88,52 79,52" stroke-linejoin="round" width="10" height="24" fill="rgb(194,51,111)" stroke="rgb(155,40,88)" stroke-width="1" opacity="0.75" />
			</g>
		</g>
		<g>
			<title> (ctg420_42)</title>
			<polygon class=" (ctg420_42)" points="102,10 127,40 102,70" fill="rgb(255,255,255)" fill-opacity="1.0" stroke="rgb(0,0,0)" stroke-width="2"  />
			<g>
				<title>F420_ligase (PF01996)
"F420-0:Gamma-glutamyl ligase"</title>
				<polygon class="PF01996" points="103,28 113,28 123,40 113,52 103,52" stroke-linejoin="round" width="21" height="24" fill="rgb(204,75,167)" stroke="rgb(163,60,133)" stroke-width="1" opacity="0.75" />
			</g>
		</g>
		<g>
			<title> (ctg420_43)</title>
			<polygon class=" (ctg420_43)" points="127,10 142,40 127,70" fill="rgb(255,255,255)" fill-opacity="1.0" stroke="rgb(0,0,0)" stroke-width="2"  />
			<g>
				<title>Polyketide_cyc2 (PF10604)
"Polyketide cyclase / dehydrase and lipid transport"</title>
				<polygon class="PF10604" points="127,28 132,28 138,40 132,52 127,52" stroke-linejoin="round" width="14" height="24" fill="rgb(105,204,74)" stroke="rgb(84,163,59)" stroke-width="1" opacity="0.75" />
			</g>
		</g>
		<g>
			<title> (ctg420_44)</title>
			<polygon class=" (ctg420_44)" points="146,10 157,40 146,70" fill="rgb(255,255,255)" fill-opacity="1.0" stroke="rgb(0,0,0)" stroke-width="2"  />
		</g>
		<g>
			<title> (ctg420_45)</title>
			<polygon class=" (ctg420_45)" points="158,40 177,10 177,70" fill="rgb(255,255,255)" fill-opacity="1.0" stroke="rgb(0,0,0)" stroke-width="2"  />
		</g>
		<g>
			<title> (ctg420_46)</title>
			<polygon class=" (ctg420_46)" points="177,40 204,10 204,70" fill="rgb(255,255,255)" fill-opacity="1.0" stroke="rgb(0,0,0)" stroke-width="2"  />
			<g>
				<title>Hydrolase_4 (PF12146)
"Serine aminopeptidase, S33"</title>
				<polygon class="PF12146" points="181,40 192,28 202,28 202,52 192,52" stroke-linejoin="round" width="24" height="24" fill="rgb(140,98,205)" stroke="rgb(112,78,164)" stroke-width="1" opacity="0.75" />
			</g>
		</g>
		<g>
			<title> (ctg420_47)</title>
			<polygon class=" (ctg420_47)" points="207,25 235,25 235,10 265,40 235,70 235,55 207,55" fill="rgb(255,255,255)" fill-opacity="1.0" stroke="rgb(0,0,0)" stroke-width="2"  />
			<g>
				<title>Xan_ur_permease (PF00860)
"Permease family"</title>
				<rect class="PF00860" x="209" y="28" stroke-linejoin="round" width="37" height="24" fill="rgb(216,88,217)" stroke="rgb(172,70,173)" stroke-width="1" opacity="0.75" />
			</g>
			<g>
				<title>HATPase_c_2 (PF13581)
"Histidine kinase-like ATPase domain"</title>
				<polygon class="PF13581" points="251,30 261,40 251,50" stroke-linejoin="round" width="11" height="24" fill="rgb(86,179,88)" stroke="rgb(68,143,70)" stroke-width="1" opacity="0.75" />
			</g>
		</g>
		<g>
			<title> (ctg420_48)</title>
			<polygon class=" (ctg420_48)" points="266,10 283,40 266,70" fill="rgb(255,255,255)" fill-opacity="1.0" stroke="rgb(0,0,0)" stroke-width="2"  />
			<g>
				<title>RF-1 (PF00472)
"RF-1 domain"</title>
				<polygon class="PF00472" points="267,28 273,28 276,33 276,47 273,52 267,52" stroke-linejoin="round" width="9" height="24" fill="rgb(78,76,196)" stroke="rgb(62,60,156)" stroke-width="1" opacity="0.75" />
			</g>
		</g>
		<g>
			<title> (ctg420_49)</title>
			<polygon class=" (ctg420_49)" points="283,40 296,10 296,70" fill="rgb(255,255,255)" fill-opacity="1.0" stroke="rgb(0,0,0)" stroke-width="2"  />
			<g>
				<title>Ribonuc_L-PSP (PF01042)
"Endoribonuclease L-PSP"</title>
				<polygon class="PF01042" points="286,40 291,28 294,28 294,52 291,52" stroke-linejoin="round" width="11" height="24" fill="rgb(93,120,208)" stroke="rgb(74,96,166)" stroke-width="1" opacity="0.75" />
			</g>
		</g>
		<g>
			<title> (ctg420_50)</title>
			<polygon class=" (ctg420_50)" points="342,25 326,25 326,10 296,40 326,70 326,55 342,55" fill="rgb(255,255,255)" fill-opacity="1.0" stroke="rgb(0,0,0)" stroke-width="2"  />
			<g>
				<title>Amino_oxidase (PF01593)
"Flavin containing amine oxidoreductase"</title>
				<polygon class="PF01593" points="300,40 312,28 340,28 340,52 312,52" stroke-linejoin="round" width="44" height="24" fill="rgb(184,74,52)" stroke="rgb(147,59,41)" stroke-width="1" opacity="0.75" />
			</g>
		</g>
		<g>
			<title> (ctg420_51)</title>
			<polygon class=" (ctg420_51)" points="373,25 373,25 373,10 343,40 373,70 373,55 373,55" fill="rgb(255,255,255)" fill-opacity="1.0" stroke="rgb(0,0,0)" stroke-width="2"  />
			<g>
				<title>SQS_PSY (PF00494)
"Squalene/phytoene synthase"</title>
				<polygon class="PF00494" points="347,40 359,28 371,28 371,52 359,52" stroke-linejoin="round" width="26" height="24" fill="rgb(178,91,49)" stroke="rgb(142,72,39)" stroke-width="1" opacity="0.75" />
			</g>
		</g>
		<g>
			<title> (ctg420_52)</title>
			<polygon class=" (ctg420_52)" points="403,25 403,25 403,10 373,40 403,70 403,55 403,55" fill="rgb(255,255,255)" fill-opacity="1.0" stroke="rgb(0,0,0)" stroke-width="2"  />
			<g>
				<title>SQS_PSY (PF00494)
"Squalene/phytoene synthase"</title>
				<polygon class="PF00494" points="377,40 389,28 400,28 400,52 389,52" stroke-linejoin="round" width="26" height="24" fill="rgb(178,91,49)" stroke="rgb(142,72,39)" stroke-width="1" opacity="0.75" />
			</g>
		</g>
		<g>
			<title> (ctg420_53)</title>
			<polygon class=" (ctg420_53)" points="405,40 413,10 413,70" fill="rgb(255,255,255)" fill-opacity="1.0" stroke="rgb(0,0,0)" stroke-width="2"  />
			<g>
				<title>Dodecin (PF07311)
"Dodecin"</title>
				<polygon class="PF07311" points="408,40 411,28 411,28 411,52 411,52" stroke-linejoin="round" width="6" height="24" fill="rgb(224,83,212)" stroke="rgb(179,66,169)" stroke-width="1" opacity="0.75" />
			</g>
		</g>
		<g>
			<title> (ctg420_54)</title>
			<polygon class=" (ctg420_54)" points="414,40 437,10 437,70" fill="rgb(255,255,255)" fill-opacity="1.0" stroke="rgb(0,0,0)" stroke-width="2"  />
			<g>
				<title>Acetyltransf_1 (PF00583)
"Acetyltransferase (GNAT) family"</title>
				<polygon class="PF00583" points="420,37 427,28 432,28 432,52 427,52 420,43" stroke-linejoin="round" width="12" height="24" fill="rgb(121,183,50)" stroke="rgb(96,146,39)" stroke-width="1" opacity="0.75" />
			</g>
		</g>
		<g>
			<title> (ctg420_55)</title>
			<polygon class=" (ctg420_55)" points="505,25 471,25 471,10 441,40 471,70 471,55 505,55" fill="rgb(255,255,255)" fill-opacity="1.0" stroke="rgb(0,0,0)" stroke-width="2"  />
			<g>
				<title>SQHop_cyclase_C (PF13243)
"Squalene-hopene cyclase C-terminal domain"</title>
				<polygon class="PF13243" points="445,40 457,28 472,28 472,52 457,52" stroke-linejoin="round" width="31" height="24" fill="rgb(191,58,201)" stroke="rgb(152,46,160)" stroke-width="1" opacity="0.75" />
			</g>
			<g>
				<title>SQHop_cyclase_N (PF13249)
"Squalene-hopene cyclase N-terminal domain"</title>
				<rect class="PF13249" x="474" y="28" stroke-linejoin="round" width="29" height="24" fill="rgb(88,190,89)" stroke="rgb(70,152,71)" stroke-width="1" opacity="0.75" />
			</g>
		</g>
		<g>
			<title> (ctg420_56)</title>
			<polygon class=" (ctg420_56)" points="541,25 536,25 536,10 506,40 536,70 536,55 541,55" fill="rgb(255,255,255)" fill-opacity="1.0" stroke="rgb(0,0,0)" stroke-width="2"  />
			<g>
				<title>polyprenyl_synt (PF00348)
"Polyprenyl synthetase"</title>
				<polygon class="PF00348" points="512,38 522,28 536,28 536,52 522,52 512,42" stroke-linejoin="round" width="24" height="24" fill="rgb(61,206,65)" stroke="rgb(48,164,52)" stroke-width="1" opacity="0.75" />
			</g>
		</g>
		<g>
			<title> (ctg420_57)</title>
			<polygon class=" (ctg420_57)" points="541,40 556,10 556,70" fill="rgb(255,255,255)" fill-opacity="1.0" stroke="rgb(0,0,0)" stroke-width="2"  />
			<g>
				<title>FUR (PF01475)
"Ferric uptake regulator family"</title>
				<polygon class="PF01475" points="544,40 550,28 553,28 553,52 550,52" stroke-linejoin="round" width="11" height="24" fill="rgb(167,195,50)" stroke="rgb(133,156,40)" stroke-width="1" opacity="0.75" />
			</g>
		</g>
		<g>
			<title> (ctg420_58)</title>
			<polygon class=" (ctg420_58)" points="597,25 586,25 586,10 556,40 586,70 586,55 597,55" fill="rgb(255,255,255)" fill-opacity="1.0" stroke="rgb(0,0,0)" stroke-width="2"  />
			<g>
				<title>PD40 (PF07676)
"WD40-like Beta Propeller Repeat"</title>
				<rect class="PF07676" x="576" y="28" stroke-linejoin="round" width="2" height="24" fill="rgb(49,78,191)" stroke="rgb(39,62,152)" stroke-width="1" opacity="0.75" />
			</g>
			<g>
				<title>PD40 (PF07676)
"WD40-like Beta Propeller Repeat"</title>
				<rect class="PF07676" x="589" y="28" stroke-linejoin="round" width="3" height="24" fill="rgb(49,78,191)" stroke="rgb(39,62,152)" stroke-width="1" opacity="0.75" />
			</g>
		</g>
		<g>
			<title> (ctg420_59)</title>
			<polygon class=" (ctg420_59)" points="597,40 618,10 618,70" fill="rgb(255,255,255)" fill-opacity="1.0" stroke="rgb(0,0,0)" stroke-width="2"  />
			<g>
				<title>Cob_adeno_trans (PF01923)
"Cobalamin adenosyltransferase"</title>
				<polygon class="PF01923" points="601,40 609,28 615,28 615,52 609,52" stroke-linejoin="round" width="16" height="24" fill="rgb(53,94,194)" stroke="rgb(42,75,155)" stroke-width="1" opacity="0.75" />
			</g>
		</g>
		<g>
			<title> (ctg420_60)</title>
			<polygon class=" (ctg420_60)" points="617,40 628,10 628,70" fill="rgb(255,255,255)" fill-opacity="1.0" stroke="rgb(0,0,0)" stroke-width="2"  />
		</g>
		<g>
			<title> (ctg420_61)</title>
			<polygon class=" (ctg420_61)" points="630,40 647,10 647,70" fill="rgb(255,255,255)" fill-opacity="1.0" stroke="rgb(0,0,0)" stroke-width="2"  />
			<g>
				<title>Macro (PF01661)
"Macro domain"</title>
				<polygon class="PF01661" points="634,38 640,28 645,28 645,52 640,52 634,42" stroke-linejoin="round" width="11" height="24" fill="rgb(65,211,62)" stroke="rgb(51,168,49)" stroke-width="1" opacity="0.75" />
			</g>
		</g>
		<g>
			<title> (ctg420_62)</title>
			<polygon class=" (ctg420_62)" points="684,25 682,25 682,10 652,40 682,70 682,55 684,55" fill="rgb(255,255,255)" fill-opacity="1.0" stroke="rgb(0,0,0)" stroke-width="2"  />
			<g>
				<title>Cyclase (PF04199)
"Putative cyclase"</title>
				<polygon class="PF04199" points="659,37 668,28 681,28 681,52 668,52 659,43" stroke-linejoin="round" width="22" height="24" fill="rgb(140,47,181)" stroke="rgb(112,37,144)" stroke-width="1" opacity="0.75" />
			</g>
		</g>
		<g>
			<title> (ctg420_63)</title>
			<polygon class=" (ctg420_63)" points="726,25 716,25 716,10 686,40 716,70 716,55 726,55" fill="rgb(255,255,255)" fill-opacity="1.0" stroke="rgb(0,0,0)" stroke-width="2"  />
			<g>
				<title>Beta-lactamase (PF00144)
"Beta-lactamase"</title>
				<polygon class="PF00144" points="690,40 702,28 724,28 724,52 702,52" stroke-linejoin="round" width="38" height="24" fill="rgb(92,159,200)" stroke="rgb(73,127,160)" stroke-width="1" opacity="0.75" />
			</g>
		</g>
		<g>
			<title> (ctg420_64)</title>
			<polygon class=" (ctg420_64)" points="768,25 756,25 756,10 726,40 756,70 756,55 768,55" fill="rgb(255,255,255)" fill-opacity="1.0" stroke="rgb(0,0,0)" stroke-width="2"  />
			<g>
				<title>Beta-lactamase (PF00144)
"Beta-lactamase"</title>
				<polygon class="PF00144" points="730,40 742,28 766,28 766,52 742,52" stroke-linejoin="round" width="38" height="24" fill="rgb(92,159,200)" stroke="rgb(73,127,160)" stroke-width="1" opacity="0.75" />
			</g>
		</g>
		<g>
			<title> (ctg420_65)</title>
			<polygon class=" (ctg420_65)" points="775,25 795,25 795,10 825,40 795,70 795,55 775,55" fill="rgb(255,255,255)" fill-opacity="1.0" stroke="rgb(0,0,0)" stroke-width="2"  />
			<g>
				<title>COesterase (PF00135)
"Carboxylesterase family"</title>
				<polygon class="PF00135" points="775,28 808,28 820,40 808,52 775,52" stroke-linejoin="round" width="49" height="24" fill="rgb(204,82,64)" stroke="rgb(163,65,51)" stroke-width="1" opacity="0.75" />
			</g>
		</g>
	</g>
</svg>
