<svg version="1.1" baseProfile="full" xmlns="http://www.w3.org/2000/svg" width="251.53333333333333" height="80">
	<g>
		<line x1="10" y1="40.0" x2="241.53333333333333" y2="40.0" style="stroke:rgb(70,70,70); stroke-width:3 "/>
		<g>
			<title> (ctg11706_1)</title>
			<polygon class=" (ctg11706_1)" points="10,40 34,10 34,70" fill="rgb(255,255,255)" fill-opacity="1.0" stroke="rgb(0,0,0)" stroke-width="2"  />
			<g>
				<title>Gly_kinase (PF02595)
"Glycerate kinase family"</title>
				<polygon class="PF02595" points="14,40 18,35 18,45" stroke-linejoin="round" width="8" height="24" fill="rgb(77,186,228)" stroke="rgb(61,148,182)" stroke-width="1" opacity="0.75" />
			</g>
			<g>
				<title>Gly_kinase (PF02595)
"Glycerate kinase family"</title>
				<polygon class="PF02595" points="18,35 24,28 32,28 32,52 24,52 18,45" stroke-linejoin="round" width="14" height="24" fill="rgb(77,186,228)" stroke="rgb(61,148,182)" stroke-width="1" opacity="0.75" />
			</g>
		</g>
		<g>
			<title> (ctg11706_2)</title>
			<polygon class=" (ctg11706_2)" points="39,40 59,10 59,70" fill="rgb(255,255,255)" fill-opacity="1.0" stroke="rgb(0,0,0)" stroke-width="2"  />
			<g>
				<title>LytR_C (PF13399)
"LytR cell envelope-related transcriptional attenuator"</title>
				<polygon class="PF13399" points="43,40 50,30 50,50" stroke-linejoin="round" width="10" height="24" fill="rgb(116,196,86)" stroke="rgb(92,156,68)" stroke-width="1" opacity="0.75" />
			</g>
		</g>
		<g>
			<title> (ctg11706_3)</title>
			<polygon class=" (ctg11706_3)" points="107,25 91,25 91,10 61,40 91,70 91,55 107,55" fill="rgb(255,255,255)" fill-opacity="1.0" stroke="rgb(0,0,0)" stroke-width="2"  />
			<g>
				<title>Amino_oxidase (PF01593)
"Flavin containing amine oxidoreductase"</title>
				<polygon class="PF01593" points="65,40 77,28 105,28 105,52 77,52" stroke-linejoin="round" width="42" height="24" fill="rgb(184,74,52)" stroke="rgb(147,59,41)" stroke-width="1" opacity="0.75" />
			</g>
		</g>
		<g>
			<title> (ctg11706_4)</title>
			<polygon class=" (ctg11706_4)" points="137,25 137,25 137,10 107,40 137,70 137,55 137,55" fill="rgb(255,255,255)" fill-opacity="1.0" stroke="rgb(0,0,0)" stroke-width="2"  />
			<g>
				<title>SQS_PSY (PF00494)
"Squalene/phytoene synthase"</title>
				<polygon class="PF00494" points="111,40 123,28 135,28 135,52 123,52" stroke-linejoin="round" width="27" height="24" fill="rgb(178,91,49)" stroke="rgb(142,72,39)" stroke-width="1" opacity="0.75" />
			</g>
		</g>
		<g>
			<title> (ctg11706_5)</title>
			<polygon class=" (ctg11706_5)" points="167,25 167,25 167,10 137,40 167,70 167,55 167,55" fill="rgb(255,255,255)" fill-opacity="1.0" stroke="rgb(0,0,0)" stroke-width="2"  />
			<g>
				<title>SQS_PSY (PF00494)
"Squalene/phytoene synthase"</title>
				<polygon class="PF00494" points="141,40 153,28 164,28 164,52 153,52" stroke-linejoin="round" width="25" height="24" fill="rgb(178,91,49)" stroke="rgb(142,72,39)" stroke-width="1" opacity="0.75" />
			</g>
		</g>
		<g>
			<title> (ctg11706_6)</title>
			<polygon class=" (ctg11706_6)" points="176,25 180,25 180,10 210,40 180,70 180,55 176,55" fill="rgb(255,255,255)" fill-opacity="1.0" stroke="rgb(0,0,0)" stroke-width="2"  />
		</g>
		<g>
			<title> (ctg11706_7)</title>
			<polygon class=" (ctg11706_7)" points="211,25 211,25 211,10 241,40 211,70 211,55 211,55" fill="rgb(255,255,255)" fill-opacity="1.0" stroke="rgb(0,0,0)" stroke-width="2"  />
		</g>
	</g>
</svg>
