<svg version="1.1" baseProfile="full" xmlns="http://www.w3.org/2000/svg" width="1588.9333333333334" height="80">
	<g>
		<line x1="10" y1="40.0" x2="1578.9333333333334" y2="40.0" style="stroke:rgb(70,70,70); stroke-width:3 "/>
		<g>
			<title> (ctg214_17)</title>
			<polygon class=" (ctg214_17)" points="37,10 55,40 37,70" fill="rgb(255,255,255)" fill-opacity="1.0" stroke="rgb(0,0,0)" stroke-width="2"  />
			<g>
				<title>HD (PF01966)
"HD domain"</title>
				<polygon class="PF01966" points="39,28 44,28 48,34 48,46 44,52 39,52" stroke-linejoin="round" width="9" height="24" fill="rgb(92,193,119)" stroke="rgb(73,154,95)" stroke-width="1" opacity="0.75" />
			</g>
		</g>
		<g>
			<title> (ctg214_18)</title>
			<polygon class=" (ctg214_18)" points="86,25 86,25 86,10 56,40 86,70 86,55 86,55" fill="rgb(255,255,255)" fill-opacity="1.0" stroke="rgb(0,0,0)" stroke-width="2"  />
			<g>
				<title>Glyoxalase (PF00903)
"Glyoxalase/Bleomycin resistance protein/Dioxygenase superfamily"</title>
				<polygon class="PF00903" points="61,39 72,28 72,28 72,52 72,52 61,41" stroke-linejoin="round" width="11" height="24" fill="rgb(50,162,189)" stroke="rgb(40,129,151)" stroke-width="1" opacity="0.75" />
			</g>
			<g>
				<title>Glyoxalase (PF00903)
"Glyoxalase/Bleomycin resistance protein/Dioxygenase superfamily"</title>
				<rect class="PF00903" x="74" y="28" stroke-linejoin="round" width="11" height="24" fill="rgb(50,162,189)" stroke="rgb(40,129,151)" stroke-width="1" opacity="0.75" />
			</g>
		</g>
		<g>
			<title> (ctg214_19)</title>
			<polygon class=" (ctg214_19)" points="91,40 114,10 114,70" fill="rgb(255,255,255)" fill-opacity="1.0" stroke="rgb(0,0,0)" stroke-width="2"  />
		</g>
		<g>
			<title> (ctg214_20)</title>
			<polygon class=" (ctg214_20)" points="173,25 145,25 145,10 115,40 145,70 145,55 173,55" fill="rgb(255,255,255)" fill-opacity="1.0" stroke="rgb(0,0,0)" stroke-width="2"  />
			<g>
				<title>Xan_ur_permease (PF00860)
"Permease family"</title>
				<rect class="PF00860" x="133" y="28" stroke-linejoin="round" width="38" height="24" fill="rgb(216,88,217)" stroke="rgb(172,70,173)" stroke-width="1" opacity="0.75" />
			</g>
		</g>
		<g>
			<title> (ctg214_21)</title>
			<polygon class=" (ctg214_21)" points="179,40 189,10 189,70" fill="rgb(255,255,255)" fill-opacity="1.0" stroke="rgb(0,0,0)" stroke-width="2"  />
			<g>
				<title>YCII (PF03795)
"YCII-related domain"</title>
				<polygon class="PF03795" points="182,40 186,28 188,28 188,52 186,52" stroke-linejoin="round" width="9" height="24" fill="rgb(54,71,186)" stroke="rgb(43,56,148)" stroke-width="1" opacity="0.75" />
			</g>
		</g>
		<g>
			<title> (ctg214_22)</title>
			<polygon class=" (ctg214_22)" points="196,25 198,25 198,10 228,40 198,70 198,55 196,55" fill="rgb(255,255,255)" fill-opacity="1.0" stroke="rgb(0,0,0)" stroke-width="2"  />
			<g>
				<title>FAA_hydrolase (PF01557)
"Fumarylacetoacetate (FAA) hydrolase family"</title>
				<polygon class="PF01557" points="207,28 212,28 224,40 212,52 207,52" stroke-linejoin="round" width="21" height="24" fill="rgb(71,203,125)" stroke="rgb(56,162,100)" stroke-width="1" opacity="0.75" />
			</g>
		</g>
		<g>
			<title> (ctg214_23)</title>
			<polygon class=" (ctg214_23)" points="243,10 266,40 243,70" fill="rgb(255,255,255)" fill-opacity="1.0" stroke="rgb(0,0,0)" stroke-width="2"  />
			<g>
				<title>RadC (PF04002)
"RadC-like JAB domain"</title>
				<polygon class="PF04002" points="254,29 262,40 254,51" stroke-linejoin="round" width="12" height="24" fill="rgb(114,211,73)" stroke="rgb(91,168,58)" stroke-width="1" opacity="0.75" />
			</g>
		</g>
		<g>
			<title> (ctg214_24)</title>
			<polygon class=" (ctg214_24)" points="272,25 287,25 287,10 317,40 287,70 287,55 272,55" fill="rgb(255,255,255)" fill-opacity="1.0" stroke="rgb(0,0,0)" stroke-width="2"  />
			<g>
				<title>Peptidase_M23 (PF01551)
"Peptidase family M23"</title>
				<polygon class="PF01551" points="304,31 313,40 313,40 304,49" stroke-linejoin="round" width="9" height="24" fill="rgb(65,169,193)" stroke="rgb(51,135,154)" stroke-width="1" opacity="0.75" />
			</g>
		</g>
		<g>
			<title> (ctg214_25)</title>
			<polygon class=" (ctg214_25)" points="318,25 319,25 319,10 349,40 319,70 319,55 318,55" fill="rgb(255,255,255)" fill-opacity="1.0" stroke="rgb(0,0,0)" stroke-width="2"  />
			<g>
				<title>Peptidase_U32 (PF01136)
"Peptidase family U32"</title>
				<polygon class="PF01136" points="330,28 332,28 340,36 340,44 332,52 330,52" stroke-linejoin="round" width="10" height="24" fill="rgb(181,49,59)" stroke="rgb(144,39,47)" stroke-width="1" opacity="0.75" />
			</g>
		</g>
		<g>
			<title> (ctg214_26)</title>
			<polygon class=" (ctg214_26)" points="387,25 384,25 384,10 354,40 384,70 384,55 387,55" fill="rgb(255,255,255)" fill-opacity="1.0" stroke="rgb(0,0,0)" stroke-width="2"  />
			<g>
				<title>sCache_2 (PF17200)
"Single Cache domain 2"</title>
				<polygon class="PF17200" points="369,29 370,28 383,28 383,52 370,52 369,51" stroke-linejoin="round" width="14" height="24" fill="rgb(192,78,228)" stroke="rgb(153,62,182)" stroke-width="1" opacity="0.75" />
			</g>
		</g>
		<g>
			<title> (ctg214_27)</title>
			<polygon class=" (ctg214_27)" points="392,10 414,40 392,70" fill="rgb(255,255,255)" fill-opacity="1.0" stroke="rgb(0,0,0)" stroke-width="2"  />
			<g>
				<title>Ank_2 (PF12796)
"Ankyrin repeats (3 copies)"</title>
				<polygon class="PF12796" points="402,28 402,28 410,39 410,41 402,52 402,52" stroke-linejoin="round" width="8" height="24" fill="rgb(151,90,191)" stroke="rgb(120,72,152)" stroke-width="1" opacity="0.75" />
			</g>
		</g>
		<g>
			<title> (ctg214_28)</title>
			<polygon class=" (ctg214_28)" points="478,25 454,25 454,10 424,40 454,70 454,55 478,55" fill="rgb(255,255,255)" fill-opacity="1.0" stroke="rgb(0,0,0)" stroke-width="2"  />
			<g>
				<title>MFS_1 (PF07690)
"Major Facilitator Superfamily"</title>
				<polygon class="PF07690" points="435,33 440,28 474,28 474,52 440,52 435,47" stroke-linejoin="round" width="39" height="24" fill="rgb(193,224,74)" stroke="rgb(154,179,59)" stroke-width="1" opacity="0.75" />
			</g>
		</g>
		<g>
			<title> (ctg214_29)</title>
			<polygon class=" (ctg214_29)" points="486,10 507,40 486,70" fill="rgb(255,255,255)" fill-opacity="1.0" stroke="rgb(0,0,0)" stroke-width="2"  />
			<g>
				<title>STAS (PF01740)
"STAS domain"</title>
				<polygon class="PF01740" points="486,28 495,28 496,30 496,50 495,52 486,52" stroke-linejoin="round" width="10" height="24" fill="rgb(219,58,116)" stroke="rgb(175,46,92)" stroke-width="1" opacity="0.75" />
			</g>
		</g>
		<g>
			<title> (ctg214_30)</title>
			<polygon class=" (ctg214_30)" points="598,25 545,25 545,10 515,40 545,70 545,55 598,55" fill="rgb(255,255,255)" fill-opacity="1.0" stroke="rgb(0,0,0)" stroke-width="2"  />
			<g>
				<title>Sulfotransfer_3 (PF13469)
"Sulfotransferase family"</title>
				<polygon class="PF13469" points="520,39 531,28 545,28 545,52 531,52 520,41" stroke-linejoin="round" width="25" height="24" fill="rgb(59,182,84)" stroke="rgb(47,145,67)" stroke-width="1" opacity="0.75" />
			</g>
			<g>
				<title>NAD_binding_4 (PF07993)
"Male sterility protein"</title>
				<rect class="PF07993" x="568" y="28" stroke-linejoin="round" width="25" height="24" fill="rgb(100,212,204)" stroke="rgb(80,169,163)" stroke-width="1" opacity="0.75" />
			</g>
		</g>
		<g>
			<title> (ctg214_31)</title>
			<polygon class=" (ctg214_31)" points="600,40 616,10 616,70" fill="rgb(255,255,255)" fill-opacity="1.0" stroke="rgb(0,0,0)" stroke-width="2"  />
		</g>
		<g>
			<title> (ctg214_32)</title>
			<polygon class=" (ctg214_32)" points="675,25 647,25 647,10 617,40 647,70 647,55 675,55" fill="rgb(255,255,255)" fill-opacity="1.0" stroke="rgb(0,0,0)" stroke-width="2"  />
			<g>
				<title>DUF4070 (PF13282)
"Domain of unknown function (DUF4070)"</title>
				<polygon class="PF13282" points="625,36 633,28 638,28 638,52 633,52 625,44" stroke-linejoin="round" width="13" height="24" fill="rgb(104,216,68)" stroke="rgb(83,172,54)" stroke-width="1" opacity="0.75" />
			</g>
			<g>
				<title>Radical_SAM (PF04055)
"Radical SAM superfamily"</title>
				<rect class="PF04055" x="640" y="28" stroke-linejoin="round" width="17" height="24" fill="rgb(149,56,222)" stroke="rgb(119,44,177)" stroke-width="1" opacity="0.75" />
			</g>
			<g>
				<title>B12-binding (PF02310)
"B12 binding domain"</title>
				<rect class="PF02310" x="662" y="28" stroke-linejoin="round" width="10" height="24" fill="rgb(145,190,60)" stroke="rgb(115,152,48)" stroke-width="1" opacity="0.75" />
			</g>
		</g>
		<g>
			<title> (ctg214_33)</title>
			<polygon class=" (ctg214_33)" points="911,25 706,25 706,10 676,40 706,70 706,55 911,55" fill="rgb(255,255,255)" fill-opacity="1.0" stroke="rgb(0,0,0)" stroke-width="2"  />
			<g>
				<title>PP-binding (PF00550)
"Phosphopantetheine attachment site"</title>
				<polygon class="PF00550" points="682,38 688,32 688,48 682,42" stroke-linejoin="round" width="6" height="24" fill="rgb(103,191,88)" stroke="rgb(82,152,70)" stroke-width="1" opacity="0.75" />
			</g>
			<g>
				<title>KR (PF08659)
"KR domain"</title>
				<rect class="PF08659" x="697" y="28" stroke-linejoin="round" width="18" height="24" fill="rgb(66,209,188)" stroke="rgb(52,167,150)" stroke-width="1" opacity="0.75" />
			</g>
			<g>
				<title>ADH_zinc_N (PF00107)
"Zinc-binding dehydrogenase"</title>
				<rect class="PF00107" x="723" y="28" stroke-linejoin="round" width="11" height="24" fill="rgb(81,108,215)" stroke="rgb(64,86,172)" stroke-width="1" opacity="0.75" />
			</g>
			<g>
				<title>ADH_N (PF08240)
"Alcohol dehydrogenase GroES-like domain"</title>
				<rect class="PF08240" x="738" y="28" stroke-linejoin="round" width="9" height="24" fill="rgb(211,65,138)" stroke="rgb(168,51,110)" stroke-width="1" opacity="0.75" />
			</g>
			<g>
				<title>PS-DH (PF14765)
"Polyketide synthase dehydratase"</title>
				<rect class="PF14765" x="790" y="28" stroke-linejoin="round" width="29" height="24" fill="rgb(173,56,182)" stroke="rgb(138,44,145)" stroke-width="1" opacity="0.75" />
			</g>
			<g>
				<title>Acyl_transf_1 (PF00698)
"Acyl transferase domain"</title>
				<rect class="PF00698" x="824" y="28" stroke-linejoin="round" width="32" height="24" fill="rgb(59,176,209)" stroke="rgb(47,140,167)" stroke-width="1" opacity="0.75" />
			</g>
			<g>
				<title>KAsynt_C_assoc (PF16197)
"Ketoacyl-synthetase C-terminal extension"</title>
				<rect class="PF16197" x="860" y="28" stroke-linejoin="round" width="11" height="24" fill="rgb(240,150,172)" stroke="rgb(192,120,137)" stroke-width="1" opacity="0.75" />
			</g>
			<g>
				<title>Ketoacyl-synt_C (PF02801)
"Beta-ketoacyl synthase, C-terminal domain"</title>
				<rect class="PF02801" x="872" y="28" stroke-linejoin="round" width="12" height="24" fill="rgb(215,78,102)" stroke="rgb(172,62,81)" stroke-width="1" opacity="0.75" />
			</g>
			<g>
				<title>ketoacyl-synt (PF00109)
"Beta-ketoacyl synthase, N-terminal domain"</title>
				<rect class="PF00109" x="886" y="28" stroke-linejoin="round" width="24" height="24" fill="rgb(112,116,228)" stroke="rgb(89,92,182)" stroke-width="1" opacity="0.75" />
			</g>
		</g>
		<g>
			<title> (ctg214_34)</title>
			<polygon class=" (ctg214_34)" points="924,40 937,10 937,70" fill="rgb(255,255,255)" fill-opacity="1.0" stroke="rgb(0,0,0)" stroke-width="2"  />
		</g>
		<g>
			<title> (ctg214_35)</title>
			<polygon class=" (ctg214_35)" points="939,10 943,40 939,70" fill="rgb(255,255,255)" fill-opacity="1.0" stroke="rgb(0,0,0)" stroke-width="2"  />
		</g>
		<g>
			<title> (ctg214_36)</title>
			<polygon class=" (ctg214_36)" points="980,25 978,25 978,10 948,40 978,70 978,55 980,55" fill="rgb(255,255,255)" fill-opacity="1.0" stroke="rgb(0,0,0)" stroke-width="2"  />
			<g>
				<title>ADP_ribosyl_GH (PF03747)
"ADP-ribosylglycohydrolase"</title>
				<polygon class="PF03747" points="952,40 964,28 978,28 978,52 964,52 952,40" stroke-linejoin="round" width="26" height="24" fill="rgb(215,124,105)" stroke="rgb(172,99,84)" stroke-width="1" opacity="0.75" />
			</g>
		</g>
		<g>
			<title> (ctg214_37)</title>
			<polygon class=" (ctg214_37)" points="989,40 1000,10 1000,70" fill="rgb(255,255,255)" fill-opacity="1.0" stroke="rgb(0,0,0)" stroke-width="2"  />
			<g>
				<title>PemK_toxin (PF02452)
"PemK-like, MazF-like toxin of type II toxin-antitoxin system"</title>
				<polygon class="PF02452" points="992,40 996,28 999,28 999,52 996,52" stroke-linejoin="round" width="10" height="24" fill="rgb(81,193,221)" stroke="rgb(64,154,176)" stroke-width="1" opacity="0.75" />
			</g>
		</g>
		<g>
			<title> (ctg214_38)</title>
			<polygon class=" (ctg214_38)" points="1000,40 1007,10 1007,70" fill="rgb(255,255,255)" fill-opacity="1.0" stroke="rgb(0,0,0)" stroke-width="2"  />
			<g>
				<title>PrlF_antitoxin (PF15937)
"prlF antitoxin for toxin YhaV_toxin"</title>
				<polygon class="PF15937" points="1003,40 1006,28 1006,28 1006,52 1006,52" stroke-linejoin="round" width="6" height="24" fill="rgb(107,71,182)" stroke="rgb(85,56,145)" stroke-width="1" opacity="0.75" />
			</g>
		</g>
		<g>
			<title> (ctg214_39)</title>
			<polygon class=" (ctg214_39)" points="1054,25 1048,25 1048,10 1018,40 1048,70 1048,55 1054,55" fill="rgb(255,255,255)" fill-opacity="1.0" stroke="rgb(0,0,0)" stroke-width="2"  />
			<g>
				<title>Rotamase_3 (PF13616)
"PPIC-type PPIASE domain"</title>
				<polygon class="PF13616" points="1023,39 1034,28 1036,28 1036,52 1034,52 1023,41" stroke-linejoin="round" width="13" height="24" fill="rgb(212,56,169)" stroke="rgb(169,44,135)" stroke-width="1" opacity="0.75" />
			</g>
			<g>
				<title>SurA_N_3 (PF13624)
"SurA N-terminal domain"</title>
				<rect class="PF13624" x="1038" y="28" stroke-linejoin="round" width="14" height="24" fill="rgb(84,156,193)" stroke="rgb(67,124,154)" stroke-width="1" opacity="0.75" />
			</g>
		</g>
		<g>
			<title> (ctg214_40)</title>
			<polygon class=" (ctg214_40)" points="1060,10 1089,40 1060,70" fill="rgb(255,255,255)" fill-opacity="1.0" stroke="rgb(0,0,0)" stroke-width="2"  />
			<g>
				<title>Glyco_transf_9 (PF01075)
"Glycosyltransferase family 9 (heptosyltransferase)"</title>
				<polygon class="PF01075" points="1069,28 1073,28 1085,40 1073,52 1069,52" stroke-linejoin="round" width="19" height="24" fill="rgb(200,89,91)" stroke="rgb(160,71,72)" stroke-width="1" opacity="0.75" />
			</g>
		</g>
		<g>
			<title> (ctg214_41)</title>
			<polygon class=" (ctg214_41)" points="1091,25 1104,25 1104,10 1134,40 1104,70 1104,55 1091,55" fill="rgb(255,255,255)" fill-opacity="1.0" stroke="rgb(0,0,0)" stroke-width="2"  />
			<g>
				<title>SBD_N (PF07005)
"Sugar-binding N-terminal domain"</title>
				<rect class="PF07005" x="1092" y="28" stroke-linejoin="round" width="22" height="24" fill="rgb(217,82,111)" stroke="rgb(173,65,88)" stroke-width="1" opacity="0.75" />
			</g>
			<g>
				<title>NBD_C (PF17042)
"Nucleotide-binding C-terminal domain"</title>
				<polygon class="PF17042" points="1116,28 1117,28 1129,40 1117,52 1116,52" stroke-linejoin="round" width="15" height="24" fill="rgb(155,211,77)" stroke="rgb(124,168,61)" stroke-width="1" opacity="0.75" />
			</g>
		</g>
		<g>
			<title> (ctg214_42)</title>
			<polygon class=" (ctg214_42)" points="1135,25 1138,25 1138,10 1168,40 1138,70 1138,55 1135,55" fill="rgb(255,255,255)" fill-opacity="1.0" stroke="rgb(0,0,0)" stroke-width="2"  />
			<g>
				<title>PdxA (PF04166)
"Pyridoxal phosphate biosynthetic protein PdxA"</title>
				<polygon class="PF04166" points="1138,28 1152,28 1164,40 1152,52 1138,52" stroke-linejoin="round" width="29" height="24" fill="rgb(180,54,159)" stroke="rgb(144,43,127)" stroke-width="1" opacity="0.75" />
			</g>
		</g>
		<g>
			<title> (ctg214_43)</title>
			<polygon class=" (ctg214_43)" points="1169,40 1182,10 1182,70" fill="rgb(255,255,255)" fill-opacity="1.0" stroke="rgb(0,0,0)" stroke-width="2"  />
			<g>
				<title>DoxX (PF07681)
"DoxX"</title>
				<polygon class="PF07681" points="1173,38 1177,28 1180,28 1180,52 1177,52 1173,42" stroke-linejoin="round" width="7" height="24" fill="rgb(93,188,216)" stroke="rgb(74,150,172)" stroke-width="1" opacity="0.75" />
			</g>
		</g>
		<g>
			<title> (ctg214_44)</title>
			<polygon class=" (ctg214_44)" points="1222,25 1220,25 1220,10 1190,40 1220,70 1220,55 1222,55" fill="rgb(255,255,255)" fill-opacity="1.0" stroke="rgb(0,0,0)" stroke-width="2"  />
			<g>
				<title>2-Hacid_dh_C (PF02826)
"D-isomer specific 2-hydroxyacid dehydrogenase, NAD binding domain"</title>
				<polygon class="PF02826" points="1194,40 1206,28 1211,28 1211,52 1206,52 1194,40" stroke-linejoin="round" width="17" height="24" fill="rgb(192,197,93)" stroke="rgb(153,157,74)" stroke-width="1" opacity="0.75" />
			</g>
		</g>
		<g>
			<title> (ctg214_45)</title>
			<polygon class=" (ctg214_45)" points="1265,25 1254,25 1254,10 1224,40 1254,70 1254,55 1265,55" fill="rgb(255,255,255)" fill-opacity="1.0" stroke="rgb(0,0,0)" stroke-width="2"  />
			<g>
				<title>Lar_N (PF09861)
"Lactate racemase N-terminal domain"</title>
				<rect class="PF09861" x="1247" y="28" stroke-linejoin="round" width="16" height="24" fill="rgb(183,68,131)" stroke="rgb(146,54,104)" stroke-width="1" opacity="0.75" />
			</g>
		</g>
		<g>
			<title> (ctg214_46)</title>
			<polygon class=" (ctg214_46)" points="1347,25 1301,25 1301,10 1271,40 1301,70 1301,55 1347,55" fill="rgb(255,255,255)" fill-opacity="1.0" stroke="rgb(0,0,0)" stroke-width="2"  />
			<g>
				<title>TonB_dep_Rec (PF00593)
"TonB dependent receptor"</title>
				<polygon class="PF00593" points="1275,40 1287,28 1319,28 1319,52 1287,52" stroke-linejoin="round" width="48" height="24" fill="rgb(171,200,51)" stroke="rgb(136,160,40)" stroke-width="1" opacity="0.75" />
			</g>
			<g>
				<title>Plug (PF07715)
"TonB-dependent Receptor Plug Domain"</title>
				<rect class="PF07715" x="1323" y="28" stroke-linejoin="round" width="11" height="24" fill="rgb(99,133,214)" stroke="rgb(79,106,171)" stroke-width="1" opacity="0.75" />
			</g>
			<g>
				<title>CarboxypepD_reg (PF13620)
"Carboxypeptidase regulatory-like domain"</title>
				<rect class="PF13620" x="1334" y="28" stroke-linejoin="round" width="9" height="24" fill="rgb(201,63,96)" stroke="rgb(160,50,76)" stroke-width="1" opacity="0.75" />
			</g>
		</g>
		<g>
			<title> (ctg214_47)</title>
			<polygon class=" (ctg214_47)" points="1358,40 1371,10 1371,70" fill="rgb(255,255,255)" fill-opacity="1.0" stroke="rgb(0,0,0)" stroke-width="2"  />
		</g>
		<g>
			<title> (ctg214_48)</title>
			<polygon class=" (ctg214_48)" points="1374,10 1400,40 1374,70" fill="rgb(255,255,255)" fill-opacity="1.0" stroke="rgb(0,0,0)" stroke-width="2"  />
			<g>
				<title>Inositol_P (PF00459)
"Inositol monophosphatase family"</title>
				<polygon class="PF00459" points="1374,28 1386,28 1396,40 1386,52 1374,52" stroke-linejoin="round" width="25" height="24" fill="rgb(67,210,137)" stroke="rgb(53,168,109)" stroke-width="1" opacity="0.75" />
			</g>
		</g>
		<g>
			<title> (ctg214_49)</title>
			<polygon class=" (ctg214_49)" points="1408,25 1411,25 1411,10 1441,40 1411,70 1411,55 1408,55" fill="rgb(255,255,255)" fill-opacity="1.0" stroke="rgb(0,0,0)" stroke-width="2"  />
			<g>
				<title>HupE_UreJ_2 (PF13795)
"HupE / UreJ protein"</title>
				<polygon class="PF13795" points="1425,28 1425,28 1437,40 1425,52 1425,52" stroke-linejoin="round" width="13" height="24" fill="rgb(86,181,190)" stroke="rgb(68,144,152)" stroke-width="1" opacity="0.75" />
			</g>
		</g>
		<g>
			<title> (ctg214_50)</title>
			<polygon class=" (ctg214_50)" points="1453,25 1458,25 1458,10 1488,40 1458,70 1458,55 1453,55" fill="rgb(255,255,255)" fill-opacity="1.0" stroke="rgb(0,0,0)" stroke-width="2"  />
			<g>
				<title>PmoA (PF14100)
"Methane oxygenase PmoA"</title>
				<polygon class="PF14100" points="1459,28 1471,28 1483,40 1471,52 1459,52" stroke-linejoin="round" width="27" height="24" fill="rgb(215,92,184)" stroke="rgb(172,73,147)" stroke-width="1" opacity="0.75" />
			</g>
		</g>
		<g>
			<title> (ctg214_51)</title>
			<polygon class=" (ctg214_51)" points="1489,40 1515,10 1515,70" fill="rgb(255,255,255)" fill-opacity="1.0" stroke="rgb(0,0,0)" stroke-width="2"  />
			<g>
				<title>CPBP (PF02517)
"CPBP intramembrane metalloprotease"</title>
				<polygon class="PF02517" points="1493,40 1499,33 1499,47" stroke-linejoin="round" width="9" height="24" fill="rgb(150,86,216)" stroke="rgb(120,68,172)" stroke-width="1" opacity="0.75" />
			</g>
		</g>
		<g>
			<title> (ctg214_52)</title>
			<polygon class=" (ctg214_52)" points="1554,25 1549,25 1549,10 1519,40 1549,70 1549,55 1554,55" fill="rgb(255,255,255)" fill-opacity="1.0" stroke="rgb(0,0,0)" stroke-width="2"  />
		</g>
		<g>
			<title> (ctg214_53)</title>
			<polygon class=" (ctg214_53)" points="1556,40 1574,10 1574,70" fill="rgb(255,255,255)" fill-opacity="1.0" stroke="rgb(0,0,0)" stroke-width="2"  />
			<g>
				<title>DDE_Tnp_1_4 (PF13701)
"Transposase DDE domain group 1"</title>
				<polygon class="PF13701" points="1565,32 1568,28 1574,28 1574,52 1568,52 1565,48" stroke-linejoin="round" width="9" height="24" fill="rgb(187,172,89)" stroke="rgb(149,137,71)" stroke-width="1" opacity="0.75" />
			</g>
		</g>
	</g>
</svg>
