<svg version="1.1" baseProfile="full" xmlns="http://www.w3.org/2000/svg" width="851.7" height="80">
	<g>
		<line x1="10" y1="40.0" x2="841.7" y2="40.0" style="stroke:rgb(70,70,70); stroke-width:3 "/>
		<g>
			<title> (ctg10_196)</title>
			<polygon class=" (ctg10_196)" points="73,25 53,25 53,10 23,40 53,70 53,55 73,55" fill="rgb(255,255,255)" fill-opacity="1.0" stroke="rgb(0,0,0)" stroke-width="2"  />
			<g>
				<title>COesterase (PF00135)
"Carboxylesterase family"</title>
				<polygon class="PF00135" points="27,40 39,28 72,28 72,52 39,52" stroke-linejoin="round" width="49" height="24" fill="rgb(204,82,64)" stroke="rgb(163,65,51)" stroke-width="1" opacity="0.75" />
			</g>
		</g>
		<g>
			<title> (ctg10_197)</title>
			<polygon class=" (ctg10_197)" points="78,25 88,25 88,10 118,40 88,70 88,55 78,55" fill="rgb(255,255,255)" fill-opacity="1.0" stroke="rgb(0,0,0)" stroke-width="2"  />
			<g>
				<title>Beta-lactamase (PF00144)
"Beta-lactamase"</title>
				<polygon class="PF00144" points="80,28 102,28 114,40 102,52 80,52" stroke-linejoin="round" width="38" height="24" fill="rgb(92,159,200)" stroke="rgb(73,127,160)" stroke-width="1" opacity="0.75" />
			</g>
		</g>
		<g>
			<title> (ctg10_198)</title>
			<polygon class=" (ctg10_198)" points="120,25 131,25 131,10 161,40 131,70 131,55 120,55" fill="rgb(255,255,255)" fill-opacity="1.0" stroke="rgb(0,0,0)" stroke-width="2"  />
			<g>
				<title>Beta-lactamase (PF00144)
"Beta-lactamase"</title>
				<polygon class="PF00144" points="122,28 144,28 156,40 144,52 122,52" stroke-linejoin="round" width="38" height="24" fill="rgb(92,159,200)" stroke="rgb(73,127,160)" stroke-width="1" opacity="0.75" />
			</g>
		</g>
		<g>
			<title> (ctg10_199)</title>
			<polygon class=" (ctg10_199)" points="163,25 165,25 165,10 195,40 165,70 165,55 163,55" fill="rgb(255,255,255)" fill-opacity="1.0" stroke="rgb(0,0,0)" stroke-width="2"  />
			<g>
				<title>Cyclase (PF04199)
"Putative cyclase"</title>
				<polygon class="PF04199" points="166,28 179,28 188,37 188,43 179,52 166,52" stroke-linejoin="round" width="22" height="24" fill="rgb(140,47,181)" stroke="rgb(112,37,144)" stroke-width="1" opacity="0.75" />
			</g>
		</g>
		<g>
			<title> (ctg10_200)</title>
			<polygon class=" (ctg10_200)" points="201,10 218,40 201,70" fill="rgb(255,255,255)" fill-opacity="1.0" stroke="rgb(0,0,0)" stroke-width="2"  />
			<g>
				<title>Macro (PF01661)
"Macro domain"</title>
				<polygon class="PF01661" points="203,28 208,28 214,38 214,42 208,52 203,52" stroke-linejoin="round" width="11" height="24" fill="rgb(65,211,62)" stroke="rgb(51,168,49)" stroke-width="1" opacity="0.75" />
			</g>
		</g>
		<g>
			<title> (ctg10_201)</title>
			<polygon class=" (ctg10_201)" points="220,10 231,40 220,70" fill="rgb(255,255,255)" fill-opacity="1.0" stroke="rgb(0,0,0)" stroke-width="2"  />
		</g>
		<g>
			<title> (ctg10_202)</title>
			<polygon class=" (ctg10_202)" points="232,10 251,40 232,70" fill="rgb(255,255,255)" fill-opacity="1.0" stroke="rgb(0,0,0)" stroke-width="2"  />
			<g>
				<title>Cob_adeno_trans (PF01923)
"Cobalamin adenosyltransferase"</title>
				<polygon class="PF01923" points="232,28 239,28 247,40 239,52 232,52" stroke-linejoin="round" width="16" height="24" fill="rgb(53,94,194)" stroke="rgb(42,75,155)" stroke-width="1" opacity="0.75" />
			</g>
		</g>
		<g>
			<title> (ctg10_203)</title>
			<polygon class=" (ctg10_203)" points="252,25 263,25 263,10 293,40 263,70 263,55 252,55" fill="rgb(255,255,255)" fill-opacity="1.0" stroke="rgb(0,0,0)" stroke-width="2"  />
			<g>
				<title>PD40 (PF07676)
"WD40-like Beta Propeller Repeat"</title>
				<rect class="PF07676" x="256" y="28" stroke-linejoin="round" width="3" height="24" fill="rgb(49,78,191)" stroke="rgb(39,62,152)" stroke-width="1" opacity="0.75" />
			</g>
			<g>
				<title>PD40 (PF07676)
"WD40-like Beta Propeller Repeat"</title>
				<rect class="PF07676" x="270" y="28" stroke-linejoin="round" width="2" height="24" fill="rgb(49,78,191)" stroke="rgb(39,62,152)" stroke-width="1" opacity="0.75" />
			</g>
		</g>
		<g>
			<title> (ctg10_204)</title>
			<polygon class=" (ctg10_204)" points="293,10 307,40 293,70" fill="rgb(255,255,255)" fill-opacity="1.0" stroke="rgb(0,0,0)" stroke-width="2"  />
			<g>
				<title>FUR (PF01475)
"Ferric uptake regulator family"</title>
				<polygon class="PF01475" points="294,28 298,28 304,40 298,52 294,52" stroke-linejoin="round" width="11" height="24" fill="rgb(167,195,50)" stroke="rgb(133,156,40)" stroke-width="1" opacity="0.75" />
			</g>
		</g>
		<g>
			<title> (ctg10_205)</title>
			<polygon class=" (ctg10_205)" points="307,25 312,25 312,10 342,40 312,70 312,55 307,55" fill="rgb(255,255,255)" fill-opacity="1.0" stroke="rgb(0,0,0)" stroke-width="2"  />
			<g>
				<title>polyprenyl_synt (PF00348)
"Polyprenyl synthetase"</title>
				<polygon class="PF00348" points="310,28 325,28 335,38 335,42 325,52 310,52" stroke-linejoin="round" width="25" height="24" fill="rgb(61,206,65)" stroke="rgb(48,164,52)" stroke-width="1" opacity="0.75" />
			</g>
		</g>
		<g>
			<title> (ctg10_206)</title>
			<polygon class=" (ctg10_206)" points="343,25 377,25 377,10 407,40 377,70 377,55 343,55" fill="rgb(255,255,255)" fill-opacity="1.0" stroke="rgb(0,0,0)" stroke-width="2"  />
			<g>
				<title>SQHop_cyclase_N (PF13249)
"Squalene-hopene cyclase N-terminal domain"</title>
				<rect class="PF13249" x="344" y="28" stroke-linejoin="round" width="29" height="24" fill="rgb(88,190,89)" stroke="rgb(70,152,71)" stroke-width="1" opacity="0.75" />
			</g>
			<g>
				<title>SQHop_cyclase_C (PF13243)
"Squalene-hopene cyclase C-terminal domain"</title>
				<polygon class="PF13243" points="375,28 391,28 403,40 391,52 375,52" stroke-linejoin="round" width="31" height="24" fill="rgb(191,58,201)" stroke="rgb(152,46,160)" stroke-width="1" opacity="0.75" />
			</g>
		</g>
		<g>
			<title> (ctg10_207)</title>
			<polygon class=" (ctg10_207)" points="413,10 436,40 413,70" fill="rgb(255,255,255)" fill-opacity="1.0" stroke="rgb(0,0,0)" stroke-width="2"  />
			<g>
				<title>Acetyltransf_1 (PF00583)
"Acetyltransferase (GNAT) family"</title>
				<polygon class="PF00583" points="417,28 423,28 428,35 428,45 423,52 417,52" stroke-linejoin="round" width="11" height="24" fill="rgb(121,183,50)" stroke="rgb(96,146,39)" stroke-width="1" opacity="0.75" />
			</g>
		</g>
		<g>
			<title> (ctg10_208)</title>
			<polygon class=" (ctg10_208)" points="438,10 446,40 438,70" fill="rgb(255,255,255)" fill-opacity="1.0" stroke="rgb(0,0,0)" stroke-width="2"  />
			<g>
				<title>Dodecin (PF07311)
"Dodecin"</title>
				<polygon class="PF07311" points="438,28 439,28 442,40 439,52 438,52" stroke-linejoin="round" width="6" height="24" fill="rgb(224,83,212)" stroke="rgb(179,66,169)" stroke-width="1" opacity="0.75" />
			</g>
		</g>
		<g>
			<title> (ctg10_209)</title>
			<polygon class=" (ctg10_209)" points="446,25 446,25 446,10 476,40 446,70 446,55 446,55" fill="rgb(255,255,255)" fill-opacity="1.0" stroke="rgb(0,0,0)" stroke-width="2"  />
			<g>
				<title>SQS_PSY (PF00494)
"Squalene/phytoene synthase"</title>
				<polygon class="PF00494" points="448,28 460,28 472,40 460,52 448,52" stroke-linejoin="round" width="26" height="24" fill="rgb(178,91,49)" stroke="rgb(142,72,39)" stroke-width="1" opacity="0.75" />
			</g>
		</g>
		<g>
			<title> (ctg10_210)</title>
			<polygon class=" (ctg10_210)" points="477,25 477,25 477,10 507,40 477,70 477,55 477,55" fill="rgb(255,255,255)" fill-opacity="1.0" stroke="rgb(0,0,0)" stroke-width="2"  />
			<g>
				<title>SQS_PSY (PF00494)
"Squalene/phytoene synthase"</title>
				<polygon class="PF00494" points="479,28 491,28 503,40 491,52 479,52" stroke-linejoin="round" width="26" height="24" fill="rgb(178,91,49)" stroke="rgb(142,72,39)" stroke-width="1" opacity="0.75" />
			</g>
		</g>
		<g>
			<title> (ctg10_211)</title>
			<polygon class=" (ctg10_211)" points="508,25 524,25 524,10 554,40 524,70 524,55 508,55" fill="rgb(255,255,255)" fill-opacity="1.0" stroke="rgb(0,0,0)" stroke-width="2"  />
			<g>
				<title>Amino_oxidase (PF01593)
"Flavin containing amine oxidoreductase"</title>
				<polygon class="PF01593" points="509,28 538,28 550,40 538,52 509,52" stroke-linejoin="round" width="44" height="24" fill="rgb(184,74,52)" stroke="rgb(147,59,41)" stroke-width="1" opacity="0.75" />
			</g>
		</g>
		<g>
			<title> (ctg10_212)</title>
			<polygon class=" (ctg10_212)" points="555,10 568,40 555,70" fill="rgb(255,255,255)" fill-opacity="1.0" stroke="rgb(0,0,0)" stroke-width="2"  />
			<g>
				<title>Ribonuc_L-PSP (PF01042)
"Endoribonuclease L-PSP"</title>
				<polygon class="PF01042" points="555,28 559,28 564,40 559,52 555,52" stroke-linejoin="round" width="11" height="24" fill="rgb(93,120,208)" stroke="rgb(74,96,166)" stroke-width="1" opacity="0.75" />
			</g>
		</g>
		<g>
			<title> (ctg10_213)</title>
			<polygon class=" (ctg10_213)" points="567,40 586,10 586,70" fill="rgb(255,255,255)" fill-opacity="1.0" stroke="rgb(0,0,0)" stroke-width="2"  />
		</g>
		<g>
			<title> (ctg10_214)</title>
			<polygon class=" (ctg10_214)" points="643,25 615,25 615,10 585,40 615,70 615,55 643,55" fill="rgb(255,255,255)" fill-opacity="1.0" stroke="rgb(0,0,0)" stroke-width="2"  />
			<g>
				<title>HATPase_c_2 (PF13581)
"Histidine kinase-like ATPase domain"</title>
				<polygon class="PF13581" points="589,40 598,31 598,49" stroke-linejoin="round" width="13" height="24" fill="rgb(86,179,88)" stroke="rgb(68,143,70)" stroke-width="1" opacity="0.75" />
			</g>
			<g>
				<title>Xan_ur_permease (PF00860)
"Permease family"</title>
				<rect class="PF00860" x="603" y="28" stroke-linejoin="round" width="38" height="24" fill="rgb(216,88,217)" stroke="rgb(172,70,173)" stroke-width="1" opacity="0.75" />
			</g>
		</g>
		<g>
			<title> (ctg10_215)</title>
			<polygon class=" (ctg10_215)" points="646,10 673,40 646,70" fill="rgb(255,255,255)" fill-opacity="1.0" stroke="rgb(0,0,0)" stroke-width="2"  />
			<g>
				<title>Abhydrolase_1 (PF00561)
"alpha/beta hydrolase fold"</title>
				<polygon class="PF00561" points="648,28 658,28 669,40 658,52 648,52" stroke-linejoin="round" width="23" height="24" fill="rgb(86,180,151)" stroke="rgb(68,144,120)" stroke-width="1" opacity="0.75" />
			</g>
		</g>
		<g>
			<title> (ctg10_216)</title>
			<polygon class=" (ctg10_216)" points="673,10 692,40 673,70" fill="rgb(255,255,255)" fill-opacity="1.0" stroke="rgb(0,0,0)" stroke-width="2"  />
		</g>
		<g>
			<title> (ctg10_217)</title>
			<polygon class=" (ctg10_217)" points="692,40 707,10 707,70" fill="rgb(255,255,255)" fill-opacity="1.0" stroke="rgb(0,0,0)" stroke-width="2"  />
			<g>
				<title>Polyketide_cyc2 (PF10604)
"Polyketide cyclase / dehydrase and lipid transport"</title>
				<polygon class="PF10604" points="695,40 701,28 706,28 706,52 701,52" stroke-linejoin="round" width="14" height="24" fill="rgb(105,204,74)" stroke="rgb(84,163,59)" stroke-width="1" opacity="0.75" />
			</g>
		</g>
		<g>
			<title> (ctg10_218)</title>
			<polygon class=" (ctg10_218)" points="708,40 723,10 723,70" fill="rgb(255,255,255)" fill-opacity="1.0" stroke="rgb(0,0,0)" stroke-width="2"  />
			<g>
				<title>Polyketide_cyc2 (PF10604)
"Polyketide cyclase / dehydrase and lipid transport"</title>
				<polygon class="PF10604" points="711,40 717,28 722,28 722,52 717,52" stroke-linejoin="round" width="14" height="24" fill="rgb(105,204,74)" stroke="rgb(84,163,59)" stroke-width="1" opacity="0.75" />
			</g>
		</g>
		<g>
			<title> (ctg10_219)</title>
			<polygon class=" (ctg10_219)" points="723,40 748,10 748,70" fill="rgb(255,255,255)" fill-opacity="1.0" stroke="rgb(0,0,0)" stroke-width="2"  />
			<g>
				<title>F420_ligase (PF01996)
"F420-0:Gamma-glutamyl ligase"</title>
				<polygon class="PF01996" points="727,40 737,28 746,28 746,52 737,52" stroke-linejoin="round" width="21" height="24" fill="rgb(204,75,167)" stroke="rgb(163,60,133)" stroke-width="1" opacity="0.75" />
			</g>
		</g>
		<g>
			<title> (ctg10_220)</title>
			<polygon class=" (ctg10_220)" points="749,40 771,10 771,70" fill="rgb(255,255,255)" fill-opacity="1.0" stroke="rgb(0,0,0)" stroke-width="2"  />
			<g>
				<title>F420_oxidored (PF03807)
"NADP oxidoreductase coenzyme F420-dependent"</title>
				<polygon class="PF03807" points="760,31 762,28 770,28 770,52 762,52 760,49" stroke-linejoin="round" width="10" height="24" fill="rgb(194,51,111)" stroke="rgb(155,40,88)" stroke-width="1" opacity="0.75" />
			</g>
		</g>
		<g>
			<title> (ctg10_221)</title>
			<polygon class=" (ctg10_221)" points="774,10 803,40 774,70" fill="rgb(255,255,255)" fill-opacity="1.0" stroke="rgb(0,0,0)" stroke-width="2"  />
			<g>
				<title>ABC_tran (PF00005)
"ABC transporter"</title>
				<polygon class="PF00005" points="778,28 787,28 792,33 792,47 787,52 778,52" stroke-linejoin="round" width="14" height="24" fill="rgb(129,201,63)" stroke="rgb(103,160,50)" stroke-width="1" opacity="0.75" />
			</g>
		</g>
		<g>
			<title> (ctg10_222)</title>
			<polygon class=" (ctg10_222)" points="804,10 832,40 804,70" fill="rgb(255,255,255)" fill-opacity="1.0" stroke="rgb(0,0,0)" stroke-width="2"  />
			<g>
				<title>BPD_transp_1 (PF00528)
"Binding-protein-dependent transport system inner membrane component"</title>
				<polygon class="PF00528" points="813,28 816,28 828,40 816,52 813,52" stroke-linejoin="round" width="18" height="24" fill="rgb(77,208,225)" stroke="rgb(61,166,180)" stroke-width="1" opacity="0.75" />
			</g>
		</g>
	</g>
</svg>
