<svg version="1.1" baseProfile="full" xmlns="http://www.w3.org/2000/svg" width="290.2" height="80">
	<g>
		<line x1="10" y1="40.0" x2="280.2" y2="40.0" style="stroke:rgb(70,70,70); stroke-width:3 "/>
		<g>
			<title> (ctg3819_1)</title>
			<polygon class=" (ctg3819_1)" points="11,40 33,10 33,70" fill="rgb(255,255,255)" fill-opacity="1.0" stroke="rgb(0,0,0)" stroke-width="2"  />
			<g>
				<title>CarboxypepD_reg (PF13620)
"Carboxypeptidase regulatory-like domain"</title>
				<polygon class="PF13620" points="21,32 24,28 28,28 28,52 24,52 21,48" stroke-linejoin="round" width="7" height="24" fill="rgb(201,63,96)" stroke="rgb(160,50,76)" stroke-width="1" opacity="0.75" />
			</g>
		</g>
		<g>
			<title> (ctg3819_2)</title>
			<polygon class=" (ctg3819_2)" points="53,25 61,25 61,10 91,40 61,70 61,55 53,55" fill="rgb(255,255,255)" fill-opacity="1.0" stroke="rgb(0,0,0)" stroke-width="2"  />
			<g>
				<title>PEGA (PF08308)
"PEGA domain"</title>
				<polygon class="PF08308" points="84,37 87,40 84,43" stroke-linejoin="round" width="6" height="24" fill="rgb(181,189,50)" stroke="rgb(144,151,40)" stroke-width="1" opacity="0.75" />
			</g>
		</g>
		<g>
			<title> (ctg3819_3)</title>
			<polygon class=" (ctg3819_3)" points="105,10 113,40 105,70" fill="rgb(255,255,255)" fill-opacity="1.0" stroke="rgb(0,0,0)" stroke-width="2"  />
			<g>
				<title>NHase_alpha (PF02979)
"Nitrile hydratase, alpha chain"</title>
				<polygon class="PF02979" points="106,28 106,28 110,40 106,52 106,52" stroke-linejoin="round" width="6" height="24" fill="rgb(204,148,70)" stroke="rgb(163,118,56)" stroke-width="1" opacity="0.75" />
			</g>
		</g>
		<g>
			<title> (ctg3819_4)</title>
			<polygon class=" (ctg3819_4)" points="131,10 135,40 131,70" fill="rgb(255,255,255)" fill-opacity="1.0" stroke="rgb(0,0,0)" stroke-width="2"  />
		</g>
		<g>
			<title> (ctg3819_5)</title>
			<polygon class=" (ctg3819_5)" points="138,10 152,40 138,70" fill="rgb(255,255,255)" fill-opacity="1.0" stroke="rgb(0,0,0)" stroke-width="2"  />
		</g>
		<g>
			<title> (ctg3819_6)</title>
			<polygon class=" (ctg3819_6)" points="167,25 197,25 197,10 227,40 197,70 197,55 167,55" fill="rgb(255,255,255)" fill-opacity="1.0" stroke="rgb(0,0,0)" stroke-width="2"  />
			<g>
				<title>N6_N4_Mtase (PF01555)
"DNA methylase"</title>
				<rect class="PF01555" x="173" y="28" stroke-linejoin="round" width="33" height="24" fill="rgb(54,198,162)" stroke="rgb(43,158,129)" stroke-width="1" opacity="0.75" />
			</g>
		</g>
	</g>
</svg>
