<svg version="1.1" baseProfile="full" xmlns="http://www.w3.org/2000/svg" width="254.53333333333333" height="80">
	<g>
		<line x1="10" y1="40.0" x2="244.53333333333333" y2="40.0" style="stroke:rgb(70,70,70); stroke-width:3 "/>
		<g>
			<title> (ctg11263_1)</title>
			<polygon class=" (ctg11263_1)" points="10,40 32,10 32,70" fill="rgb(255,255,255)" fill-opacity="1.0" stroke="rgb(0,0,0)" stroke-width="2"  />
			<g>
				<title>GTP_EFTU (PF00009)
"Elongation factor Tu GTP binding domain"</title>
				<polygon class="PF00009" points="14,40 23,28 31,28 31,52 23,52" stroke-linejoin="round" width="21" height="24" fill="rgb(196,118,83)" stroke="rgb(156,94,66)" stroke-width="1" opacity="0.75" />
			</g>
		</g>
		<g>
			<title> (ctg11263_2)</title>
			<polygon class=" (ctg11263_2)" points="76,25 70,25 70,10 40,40 70,70 70,55 76,55" fill="rgb(255,255,255)" fill-opacity="1.0" stroke="rgb(0,0,0)" stroke-width="2"  />
			<g>
				<title>SQS_PSY (PF00494)
"Squalene/phytoene synthase"</title>
				<polygon class="PF00494" points="44,40 56,28 74,28 74,52 56,52 44,40" stroke-linejoin="round" width="30" height="24" fill="rgb(178,91,49)" stroke="rgb(142,72,39)" stroke-width="1" opacity="0.75" />
			</g>
		</g>
		<g>
			<title> (ctg11263_3)</title>
			<polygon class=" (ctg11263_3)" points="78,40 95,10 95,70" fill="rgb(255,255,255)" fill-opacity="1.0" stroke="rgb(0,0,0)" stroke-width="2"  />
			<g>
				<title>Pribosyltran (PF00156)
"Phosphoribosyl transferase domain"</title>
				<polygon class="PF00156" points="81,40 88,28 92,28 92,52 88,52" stroke-linejoin="round" width="14" height="24" fill="rgb(210,210,74)" stroke="rgb(168,168,59)" stroke-width="1" opacity="0.75" />
			</g>
		</g>
		<g>
			<title> (ctg11263_4)</title>
			<polygon class=" (ctg11263_4)" points="104,40 118,10 118,70" fill="rgb(255,255,255)" fill-opacity="1.0" stroke="rgb(0,0,0)" stroke-width="2"  />
			<g>
				<title>MerR_1 (PF13411)
"MerR HTH family regulatory protein"</title>
				<polygon class="PF13411" points="111,32 113,28 118,28 118,52 113,52 111,48" stroke-linejoin="round" width="7" height="24" fill="rgb(100,202,107)" stroke="rgb(80,161,85)" stroke-width="1" opacity="0.75" />
			</g>
		</g>
		<g>
			<title> (ctg11263_5)</title>
			<polygon class=" (ctg11263_5)" points="166,25 153,25 153,10 123,40 153,70 153,55 166,55" fill="rgb(255,255,255)" fill-opacity="1.0" stroke="rgb(0,0,0)" stroke-width="2"  />
			<g>
				<title>KH_dom-like (PF14714)
"KH-domain-like of EngA bacterial GTPase enzymes, C-terminal"</title>
				<polygon class="PF14714" points="127,40 131,36 131,44" stroke-linejoin="round" width="8" height="24" fill="rgb(178,119,50)" stroke="rgb(142,95,40)" stroke-width="1" opacity="0.75" />
			</g>
			<g>
				<title>MMR_HSR1 (PF01926)
"50S ribosome-binding GTPase"</title>
				<polygon class="PF01926" points="137,30 139,28 148,28 148,52 139,52 137,50" stroke-linejoin="round" width="11" height="24" fill="rgb(105,180,226)" stroke="rgb(83,143,180)" stroke-width="1" opacity="0.75" />
			</g>
			<g>
				<title>MMR_HSR1 (PF01926)
"50S ribosome-binding GTPase"</title>
				<rect class="PF01926" x="154" y="28" stroke-linejoin="round" width="11" height="24" fill="rgb(105,180,226)" stroke="rgb(83,143,180)" stroke-width="1" opacity="0.75" />
			</g>
		</g>
		<g>
			<title> (ctg11263_6)</title>
			<polygon class=" (ctg11263_6)" points="213,25 198,25 198,10 168,40 198,70 198,55 213,55" fill="rgb(255,255,255)" fill-opacity="1.0" stroke="rgb(0,0,0)" stroke-width="2"  />
			<g>
				<title>Sigma54_DBD (PF04552)
"Sigma-54, DNA binding domain"</title>
				<polygon class="PF04552" points="172,40 183,29 183,51" stroke-linejoin="round" width="15" height="24" fill="rgb(213,82,214)" stroke="rgb(170,65,171)" stroke-width="1" opacity="0.75" />
			</g>
			<g>
				<title>Sigma54_CBD (PF04963)
"Sigma-54 factor, core binding domain"</title>
				<rect class="PF04963" x="185" y="28" stroke-linejoin="round" width="18" height="24" fill="rgb(184,47,153)" stroke="rgb(147,37,122)" stroke-width="1" opacity="0.75" />
			</g>
			<g>
				<title>Sigma54_AID (PF00309)
"Sigma-54 factor, Activator interacting domain (AID)"</title>
				<rect class="PF00309" x="210" y="28" stroke-linejoin="round" width="3" height="24" fill="rgb(185,165,54)" stroke="rgb(148,132,43)" stroke-width="1" opacity="0.75" />
			</g>
		</g>
		<g>
			<title> (ctg11263_7)</title>
			<polygon class=" (ctg11263_7)" points="216,40 240,10 240,70" fill="rgb(255,255,255)" fill-opacity="1.0" stroke="rgb(0,0,0)" stroke-width="2"  />
			<g>
				<title>BCA_ABC_TP_C (PF12399)
"Branched-chain amino acid ATP-binding cassette transporter"</title>
				<polygon class="PF12399" points="220,40 218,42 218,38" stroke-linejoin="round" width="2" height="24" fill="rgb(205,68,53)" stroke="rgb(164,54,42)" stroke-width="1" opacity="0.75" />
			</g>
			<g>
				<title>ABC_tran (PF00005)
"ABC transporter"</title>
				<polygon class="PF00005" points="223,36 230,28 237,28 237,52 230,52 223,44" stroke-linejoin="round" width="14" height="24" fill="rgb(129,201,63)" stroke="rgb(103,160,50)" stroke-width="1" opacity="0.75" />
			</g>
		</g>
		<g>
			<title> (ctg11263_8)</title>
			<polygon class=" (ctg11263_8)" points="240,40 243,10 243,70" fill="rgb(255,255,255)" fill-opacity="1.0" stroke="rgb(0,0,0)" stroke-width="2"  />
		</g>
	</g>
</svg>
