<svg version="1.1" baseProfile="full" xmlns="http://www.w3.org/2000/svg" width="1407.3333333333333" height="80">
	<g>
		<line x1="10" y1="40.0" x2="1397.3333333333333" y2="40.0" style="stroke:rgb(70,70,70); stroke-width:3 "/>
		<g>
			<title> (ctg677_3)</title>
			<polygon class=" (ctg677_3)" points="48,10 74,40 48,70" fill="rgb(255,255,255)" fill-opacity="1.0" stroke="rgb(0,0,0)" stroke-width="2"  />
			<g>
				<title>Abhydrolase_6 (PF12697)
"Alpha/beta hydrolase family"</title>
				<polygon class="PF12697" points="50,28 59,28 70,40 59,52 50,52" stroke-linejoin="round" width="23" height="24" fill="rgb(113,71,219)" stroke="rgb(90,56,175)" stroke-width="1" opacity="0.75" />
			</g>
		</g>
		<g>
			<title> (ctg677_4)</title>
			<polygon class=" (ctg677_4)" points="80,10 109,40 80,70" fill="rgb(255,255,255)" fill-opacity="1.0" stroke="rgb(0,0,0)" stroke-width="2"  />
			<g>
				<title>MTHFR (PF02219)
"Methylenetetrahydrofolate reductase"</title>
				<polygon class="PF02219" points="80,28 93,28 105,40 93,52 80,52" stroke-linejoin="round" width="29" height="24" fill="rgb(209,76,219)" stroke="rgb(167,60,175)" stroke-width="1" opacity="0.75" />
			</g>
		</g>
		<g>
			<title> (ctg677_5)</title>
			<polygon class=" (ctg677_5)" points="111,10 127,40 111,70" fill="rgb(255,255,255)" fill-opacity="1.0" stroke="rgb(0,0,0)" stroke-width="2"  />
			<g>
				<title>Sel1 (PF08238)
"Sel1 repeat"</title>
				<polygon class="PF08238" points="116,28 117,28 119,31 119,49 117,52 116,52" stroke-linejoin="round" width="3" height="24" fill="rgb(190,55,164)" stroke="rgb(152,44,131)" stroke-width="1" opacity="0.75" />
			</g>
			<g>
				<title>Sel1 (PF08238)
"Sel1 repeat"</title>
				<polygon class="PF08238" points="119,31 122,37 122,43 119,49" stroke-linejoin="round" width="3" height="24" fill="rgb(190,55,164)" stroke="rgb(152,44,131)" stroke-width="1" opacity="0.75" />
			</g>
		</g>
		<g>
			<title> (ctg677_6)</title>
			<polygon class=" (ctg677_6)" points="133,40 151,10 151,70" fill="rgb(255,255,255)" fill-opacity="1.0" stroke="rgb(0,0,0)" stroke-width="2"  />
			<g>
				<title>DUF2064 (PF09837)
"Uncharacterized protein conserved in bacteria (DUF2064)"</title>
				<polygon class="PF09837" points="137,40 144,28 149,28 149,52 144,52 137,40" stroke-linejoin="round" width="12" height="24" fill="rgb(64,152,184)" stroke="rgb(51,121,147)" stroke-width="1" opacity="0.75" />
			</g>
		</g>
		<g>
			<title> (ctg677_7)</title>
			<polygon class=" (ctg677_7)" points="155,40 177,10 177,70" fill="rgb(255,255,255)" fill-opacity="1.0" stroke="rgb(0,0,0)" stroke-width="2"  />
			<g>
				<title>Glycos_transf_2 (PF00535)
"Glycosyl transferase family 2"</title>
				<polygon class="PF00535" points="162,36 168,28 176,28 176,52 168,52 162,44" stroke-linejoin="round" width="14" height="24" fill="rgb(224,122,96)" stroke="rgb(179,97,76)" stroke-width="1" opacity="0.75" />
			</g>
		</g>
		<g>
			<title> (ctg677_8)</title>
			<polygon class=" (ctg677_8)" points="194,10 222,40 194,70" fill="rgb(255,255,255)" fill-opacity="1.0" stroke="rgb(0,0,0)" stroke-width="2"  />
			<g>
				<title>Abhydrolase_6 (PF12697)
"Alpha/beta hydrolase family"</title>
				<polygon class="PF12697" points="197,28 206,28 218,40 206,52 197,52" stroke-linejoin="round" width="23" height="24" fill="rgb(113,71,219)" stroke="rgb(90,56,175)" stroke-width="1" opacity="0.75" />
			</g>
		</g>
		<g>
			<title> (ctg677_9)</title>
			<polygon class=" (ctg677_9)" points="223,25 227,25 227,10 257,40 227,70 227,55 223,55" fill="rgb(255,255,255)" fill-opacity="1.0" stroke="rgb(0,0,0)" stroke-width="2"  />
			<g>
				<title>AstE_AspA (PF04952)
"Succinylglutamate desuccinylase / Aspartoacylase family"</title>
				<polygon class="PF04952" points="227,28 240,28 252,40 240,52 227,52" stroke-linejoin="round" width="28" height="24" fill="rgb(143,103,224)" stroke="rgb(114,82,179)" stroke-width="1" opacity="0.75" />
			</g>
		</g>
		<g>
			<title> (ctg677_10)</title>
			<polygon class=" (ctg677_10)" points="259,40 269,10 269,70" fill="rgb(255,255,255)" fill-opacity="1.0" stroke="rgb(0,0,0)" stroke-width="2"  />
		</g>
		<g>
			<title> (ctg677_11)</title>
			<polygon class=" (ctg677_11)" points="270,40 282,10 282,70" fill="rgb(255,255,255)" fill-opacity="1.0" stroke="rgb(0,0,0)" stroke-width="2"  />
			<g>
				<title>SoxG (PF04268)
"Sarcosine oxidase, gamma subunit family"</title>
				<polygon class="PF04268" points="273,40 278,28 281,28 281,52 278,52" stroke-linejoin="round" width="11" height="24" fill="rgb(62,214,95)" stroke="rgb(49,171,76)" stroke-width="1" opacity="0.75" />
			</g>
		</g>
		<g>
			<title> (ctg677_12)</title>
			<polygon class=" (ctg677_12)" points="287,40 316,10 316,70" fill="rgb(255,255,255)" fill-opacity="1.0" stroke="rgb(0,0,0)" stroke-width="2"  />
			<g>
				<title>GCV_T_C (PF08669)
"Glycine cleavage T-protein C-terminal barrel domain"</title>
				<polygon class="PF08669" points="291,40 295,36 295,44" stroke-linejoin="round" width="8" height="24" fill="rgb(184,178,54)" stroke="rgb(147,142,43)" stroke-width="1" opacity="0.75" />
			</g>
			<g>
				<title>GCV_T (PF01571)
"Aminomethyltransferase folate-binding domain"</title>
				<polygon class="PF01571" points="298,33 303,28 315,28 315,52 303,52 298,47" stroke-linejoin="round" width="17" height="24" fill="rgb(112,228,161)" stroke="rgb(89,182,128)" stroke-width="1" opacity="0.75" />
			</g>
		</g>
		<g>
			<title> (ctg677_13)</title>
			<polygon class=" (ctg677_13)" points="358,25 344,25 344,10 314,40 344,70 344,55 358,55" fill="rgb(255,255,255)" fill-opacity="1.0" stroke="rgb(0,0,0)" stroke-width="2"  />
			<g>
				<title>SO_alpha_A3 (PF17806)
"Sarcosine oxidase A3 domain"</title>
				<polygon class="PF17806" points="319,39 327,31 327,49 319,41" stroke-linejoin="round" width="8" height="24" fill="rgb(196,169,91)" stroke="rgb(156,135,72)" stroke-width="1" opacity="0.75" />
			</g>
		</g>
		<g>
			<title> (ctg677_14)</title>
			<polygon class=" (ctg677_14)" points="361,40 372,10 372,70" fill="rgb(255,255,255)" fill-opacity="1.0" stroke="rgb(0,0,0)" stroke-width="2"  />
			<g>
				<title>DAO (PF01266)
"FAD dependent oxidoreductase"</title>
				<polygon class="PF01266" points="364,40 369,28 372,28 372,52 369,52" stroke-linejoin="round" width="11" height="24" fill="rgb(123,179,59)" stroke="rgb(98,143,47)" stroke-width="1" opacity="0.75" />
			</g>
		</g>
		<g>
			<title> (ctg677_15)</title>
			<polygon class=" (ctg677_15)" points="373,10 402,40 373,70" fill="rgb(255,255,255)" fill-opacity="1.0" stroke="rgb(0,0,0)" stroke-width="2"  />
			<g>
				<title>HTH_3 (PF01381)
"Helix-turn-helix"</title>
				<polygon class="PF01381" points="384,28 385,28 389,31 389,49 385,52 384,52" stroke-linejoin="round" width="5" height="24" fill="rgb(105,79,202)" stroke="rgb(83,63,161)" stroke-width="1" opacity="0.75" />
			</g>
			<g>
				<title>Cupin_2 (PF07883)
"Cupin domain"</title>
				<polygon class="PF07883" points="394,37 397,40 394,43" stroke-linejoin="round" width="6" height="24" fill="rgb(211,192,74)" stroke="rgb(168,153,59)" stroke-width="1" opacity="0.75" />
			</g>
		</g>
		<g>
			<title> (ctg677_16)</title>
			<polygon class=" (ctg677_16)" points="418,25 419,25 419,10 449,40 419,70 419,55 418,55" fill="rgb(255,255,255)" fill-opacity="1.0" stroke="rgb(0,0,0)" stroke-width="2"  />
			<g>
				<title>FA_desaturase (PF00487)
"Fatty acid desaturase"</title>
				<polygon class="PF00487" points="423,28 432,28 444,40 432,52 423,52" stroke-linejoin="round" width="24" height="24" fill="rgb(104,51,205)" stroke="rgb(83,40,164)" stroke-width="1" opacity="0.75" />
			</g>
		</g>
		<g>
			<title> (ctg677_17)</title>
			<polygon class=" (ctg677_17)" points="466,40 479,10 479,70" fill="rgb(255,255,255)" fill-opacity="1.0" stroke="rgb(0,0,0)" stroke-width="2"  />
			<g>
				<title>PIN (PF01850)
"PIN domain"</title>
				<polygon class="PF01850" points="469,40 475,28 479,28 479,52 475,52" stroke-linejoin="round" width="12" height="24" fill="rgb(91,217,126)" stroke="rgb(72,173,100)" stroke-width="1" opacity="0.75" />
			</g>
		</g>
		<g>
			<title> (ctg677_18)</title>
			<polygon class=" (ctg677_18)" points="480,10 486,40 480,70" fill="rgb(255,255,255)" fill-opacity="1.0" stroke="rgb(0,0,0)" stroke-width="2"  />
		</g>
		<g>
			<title> (ctg677_19)</title>
			<polygon class=" (ctg677_19)" points="491,40 514,10 514,70" fill="rgb(255,255,255)" fill-opacity="1.0" stroke="rgb(0,0,0)" stroke-width="2"  />
			<g>
				<title>Trans_reg_C (PF00486)
"Transcriptional regulatory protein, C terminal"</title>
				<polygon class="PF00486" points="495,40 499,35 499,45" stroke-linejoin="round" width="7" height="24" fill="rgb(204,153,57)" stroke="rgb(163,122,45)" stroke-width="1" opacity="0.75" />
			</g>
			<g>
				<title>Response_reg (PF00072)
"Response regulator receiver domain"</title>
				<polygon class="PF00072" points="502,31 504,28 512,28 512,52 504,52 502,49" stroke-linejoin="round" width="10" height="24" fill="rgb(100,107,203)" stroke="rgb(80,85,162)" stroke-width="1" opacity="0.75" />
			</g>
		</g>
		<g>
			<title> (ctg677_20)</title>
			<polygon class=" (ctg677_20)" points="546,10 553,40 546,70" fill="rgb(255,255,255)" fill-opacity="1.0" stroke="rgb(0,0,0)" stroke-width="2"  />
		</g>
		<g>
			<title> (ctg677_21)</title>
			<polygon class=" (ctg677_21)" points="556,25 580,25 580,10 610,40 580,70 580,55 556,55" fill="rgb(255,255,255)" fill-opacity="1.0" stroke="rgb(0,0,0)" stroke-width="2"  />
			<g>
				<title>PGI (PF00342)
"Phosphoglucose isomerase"</title>
				<polygon class="PF00342" points="561,28 594,28 606,40 594,52 561,52" stroke-linejoin="round" width="48" height="24" fill="rgb(160,69,196)" stroke="rgb(128,55,156)" stroke-width="1" opacity="0.75" />
			</g>
		</g>
		<g>
			<title> (ctg677_22)</title>
			<polygon class=" (ctg677_22)" points="611,10 635,40 611,70" fill="rgb(255,255,255)" fill-opacity="1.0" stroke="rgb(0,0,0)" stroke-width="2"  />
			<g>
				<title>NTP_transf_3 (PF12804)
"MobA-like NTP transferase domain"</title>
				<polygon class="PF12804" points="611,28 622,28 631,40 631,40 622,52 611,52" stroke-linejoin="round" width="20" height="24" fill="rgb(52,209,196)" stroke="rgb(41,167,156)" stroke-width="1" opacity="0.75" />
			</g>
		</g>
		<g>
			<title> (ctg677_23)</title>
			<polygon class=" (ctg677_23)" points="640,25 646,25 646,10 676,40 646,70 646,55 640,55" fill="rgb(255,255,255)" fill-opacity="1.0" stroke="rgb(0,0,0)" stroke-width="2"  />
			<g>
				<title>AAA_14 (PF13173)
"AAA domain"</title>
				<rect class="PF13173" x="640" y="28" stroke-linejoin="round" width="12" height="24" fill="rgb(77,222,177)" stroke="rgb(61,177,141)" stroke-width="1" opacity="0.75" />
			</g>
			<g>
				<title>DUF4143 (PF13635)
"Domain of unknown function (DUF4143)"</title>
				<polygon class="PF13635" points="657,28 660,28 672,40 672,40 660,52 657,52" stroke-linejoin="round" width="15" height="24" fill="rgb(119,89,210)" stroke="rgb(95,71,168)" stroke-width="1" opacity="0.75" />
			</g>
		</g>
		<g>
			<title> (ctg677_24)</title>
			<polygon class=" (ctg677_24)" points="676,25 700,25 700,10 730,40 700,70 700,55 676,55" fill="rgb(255,255,255)" fill-opacity="1.0" stroke="rgb(0,0,0)" stroke-width="2"  />
			<g>
				<title>PEP_mutase (PF13714)
"Phosphoenolpyruvate phosphomutase"</title>
				<rect class="PF13714" x="676" y="28" stroke-linejoin="round" width="24" height="24" fill="rgb(215,91,155)" stroke="rgb(172,72,123)" stroke-width="1" opacity="0.75" />
			</g>
			<g>
				<title>NTP_transf_3 (PF12804)
"MobA-like NTP transferase domain"</title>
				<polygon class="PF12804" points="705,28 713,28 718,33 718,47 713,52 705,52" stroke-linejoin="round" width="13" height="24" fill="rgb(52,209,196)" stroke="rgb(41,167,156)" stroke-width="1" opacity="0.75" />
			</g>
		</g>
		<g>
			<title> (ctg677_25)</title>
			<polygon class=" (ctg677_25)" points="738,25 746,25 746,10 776,40 746,70 746,55 738,55" fill="rgb(255,255,255)" fill-opacity="1.0" stroke="rgb(0,0,0)" stroke-width="2"  />
			<g>
				<title>TPP_enzyme_N (PF02776)
"Thiamine pyrophosphate enzyme, N-terminal TPP binding domain"</title>
				<rect class="PF02776" x="738" y="28" stroke-linejoin="round" width="16" height="24" fill="rgb(55,81,185)" stroke="rgb(44,64,148)" stroke-width="1" opacity="0.75" />
			</g>
			<g>
				<title>TPP_enzyme_C (PF02775)
"Thiamine pyrophosphate enzyme, C-terminal TPP binding domain"</title>
				<polygon class="PF02775" points="759,28 760,28 771,39 771,41 760,52 759,52" stroke-linejoin="round" width="12" height="24" fill="rgb(156,179,45)" stroke="rgb(124,143,36)" stroke-width="1" opacity="0.75" />
			</g>
		</g>
		<g>
			<title> (ctg677_26)</title>
			<polygon class=" (ctg677_26)" points="847,25 815,25 815,10 785,40 815,70 815,55 847,55" fill="rgb(255,255,255)" fill-opacity="1.0" stroke="rgb(0,0,0)" stroke-width="2"  />
			<g>
				<title>Transketolase_C (PF02780)
"Transketolase, C-terminal domain"</title>
				<polygon class="PF02780" points="789,40 797,32 797,48" stroke-linejoin="round" width="11" height="24" fill="rgb(76,206,101)" stroke="rgb(60,164,80)" stroke-width="1" opacity="0.75" />
			</g>
			<g>
				<title>Transket_pyr (PF02779)
"Transketolase, pyrimidine binding domain"</title>
				<polygon class="PF02779" points="799,30 801,28 815,28 815,52 801,52 799,50" stroke-linejoin="round" width="16" height="24" fill="rgb(189,186,84)" stroke="rgb(151,148,67)" stroke-width="1" opacity="0.75" />
			</g>
			<g>
				<title>DXP_synthase_N (PF13292)
"1-deoxy-D-xylulose-5-phosphate synthase"</title>
				<rect class="PF13292" x="819" y="28" stroke-linejoin="round" width="27" height="24" fill="rgb(46,179,173)" stroke="rgb(36,143,138)" stroke-width="1" opacity="0.75" />
			</g>
		</g>
		<g>
			<title> (ctg677_27)</title>
			<polygon class=" (ctg677_27)" points="858,25 866,25 866,10 896,40 866,70 866,55 858,55" fill="rgb(255,255,255)" fill-opacity="1.0" stroke="rgb(0,0,0)" stroke-width="2"  />
			<g>
				<title>Radical_SAM (PF04055)
"Radical SAM superfamily"</title>
				<rect class="PF04055" x="861" y="28" stroke-linejoin="round" width="15" height="24" fill="rgb(149,56,222)" stroke="rgb(119,44,177)" stroke-width="1" opacity="0.75" />
			</g>
			<g>
				<title>DUF3463 (PF11946)
"Domain of unknown function (DUF3463)"</title>
				<polygon class="PF11946" points="877,28 879,28 890,39 890,41 879,52 877,52" stroke-linejoin="round" width="13" height="24" fill="rgb(193,51,57)" stroke="rgb(154,40,45)" stroke-width="1" opacity="0.75" />
			</g>
		</g>
		<g>
			<title> (ctg677_28)</title>
			<polygon class=" (ctg677_28)" points="896,25 903,25 903,10 933,40 903,70 903,55 896,55" fill="rgb(255,255,255)" fill-opacity="1.0" stroke="rgb(0,0,0)" stroke-width="2"  />
			<g>
				<title>Glyco_tranf_2_3 (PF13641)
"Glycosyltransferase like family 2"</title>
				<polygon class="PF13641" points="900,28 917,28 923,34 923,46 917,52 900,52" stroke-linejoin="round" width="23" height="24" fill="rgb(140,74,190)" stroke="rgb(111,59,152)" stroke-width="1" opacity="0.75" />
			</g>
		</g>
		<g>
			<title> (ctg677_29)</title>
			<polygon class=" (ctg677_29)" points="941,10 959,40 941,70" fill="rgb(255,255,255)" fill-opacity="1.0" stroke="rgb(0,0,0)" stroke-width="2"  />
			<g>
				<title>MlaC (PF05494)
"MlaC protein"</title>
				<polygon class="PF05494" points="941,28 948,28 955,40 948,52 941,52" stroke-linejoin="round" width="15" height="24" fill="rgb(74,203,58)" stroke="rgb(59,162,46)" stroke-width="1" opacity="0.75" />
			</g>
		</g>
		<g>
			<title> (ctg677_30)</title>
			<polygon class=" (ctg677_30)" points="959,10 985,40 959,70" fill="rgb(255,255,255)" fill-opacity="1.0" stroke="rgb(0,0,0)" stroke-width="2"  />
			<g>
				<title>MlaA (PF04333)
"MlaA lipoprotein"</title>
				<polygon class="PF04333" points="963,28 970,28 981,40 970,52 963,52" stroke-linejoin="round" width="19" height="24" fill="rgb(178,178,73)" stroke="rgb(142,142,58)" stroke-width="1" opacity="0.75" />
			</g>
		</g>
		<g>
			<title> (ctg677_31)</title>
			<polygon class=" (ctg677_31)" points="989,40 1016,10 1016,70" fill="rgb(255,255,255)" fill-opacity="1.0" stroke="rgb(0,0,0)" stroke-width="2"  />
			<g>
				<title>adh_short (PF00106)
"short chain dehydrogenase"</title>
				<polygon class="PF00106" points="993,40 1004,28 1014,28 1014,52 1004,52 993,40" stroke-linejoin="round" width="21" height="24" fill="rgb(182,219,73)" stroke="rgb(145,175,58)" stroke-width="1" opacity="0.75" />
			</g>
		</g>
		<g>
			<title> (ctg677_32)</title>
			<polygon class=" (ctg677_32)" points="1019,10 1026,40 1019,70" fill="rgb(255,255,255)" fill-opacity="1.0" stroke="rgb(0,0,0)" stroke-width="2"  />
		</g>
		<g>
			<title> (ctg677_33)</title>
			<polygon class=" (ctg677_33)" points="1097,25 1055,25 1055,10 1025,40 1055,70 1055,55 1097,55" fill="rgb(255,255,255)" fill-opacity="1.0" stroke="rgb(0,0,0)" stroke-width="2"  />
			<g>
				<title>Malate_synthase (PF01274)
"Malate synthase"</title>
				<polygon class="PF01274" points="1029,40 1041,28 1094,28 1094,52 1041,52" stroke-linejoin="round" width="67" height="24" fill="rgb(84,70,202)" stroke="rgb(67,56,161)" stroke-width="1" opacity="0.75" />
			</g>
		</g>
		<g>
			<title> (ctg677_34)</title>
			<polygon class=" (ctg677_34)" points="1106,10 1133,40 1106,70" fill="rgb(255,255,255)" fill-opacity="1.0" stroke="rgb(0,0,0)" stroke-width="2"  />
			<g>
				<title>Rotamase_2 (PF13145)
"PPIC-type PPIASE domain"</title>
				<polygon class="PF13145" points="1116,28 1118,28 1128,39 1128,41 1118,52 1116,52" stroke-linejoin="round" width="12" height="24" fill="rgb(77,77,182)" stroke="rgb(61,61,145)" stroke-width="1" opacity="0.75" />
			</g>
		</g>
		<g>
			<title> (ctg677_35)</title>
			<polygon class=" (ctg677_35)" points="1208,25 1174,25 1174,10 1144,40 1174,70 1174,55 1208,55" fill="rgb(255,255,255)" fill-opacity="1.0" stroke="rgb(0,0,0)" stroke-width="2"  />
			<g>
				<title>DALR_1 (PF05746)
"DALR anticodon binding domain"</title>
				<polygon class="PF05746" points="1148,40 1158,30 1158,50" stroke-linejoin="round" width="14" height="24" fill="rgb(90,223,221)" stroke="rgb(72,178,176)" stroke-width="1" opacity="0.75" />
			</g>
			<g>
				<title>tRNA-synt_1d (PF00750)
"tRNA synthetases class I (R)"</title>
				<polygon class="PF00750" points="1159,29 1160,28 1195,28 1195,52 1160,52 1159,51" stroke-linejoin="round" width="36" height="24" fill="rgb(60,180,158)" stroke="rgb(48,144,126)" stroke-width="1" opacity="0.75" />
			</g>
			<g>
				<title>Arg_tRNA_synt_N (PF03485)
"Arginyl tRNA synthetase N terminal domain"</title>
				<rect class="PF03485" x="1200" y="28" stroke-linejoin="round" width="8" height="24" fill="rgb(123,182,87)" stroke="rgb(98,145,69)" stroke-width="1" opacity="0.75" />
			</g>
		</g>
		<g>
			<title> (ctg677_36)</title>
			<polygon class=" (ctg677_36)" points="1221,25 1221,25 1221,10 1251,40 1221,70 1221,55 1221,55" fill="rgb(255,255,255)" fill-opacity="1.0" stroke="rgb(0,0,0)" stroke-width="2"  />
			<g>
				<title>HTH_1 (PF00126)
"Bacterial regulatory helix-turn-helix protein, lysR family"</title>
				<rect class="PF00126" x="1222" y="28" stroke-linejoin="round" width="5" height="24" fill="rgb(125,227,79)" stroke="rgb(99,181,63)" stroke-width="1" opacity="0.75" />
			</g>
			<g>
				<title>LysR_substrate (PF03466)
"LysR substrate binding domain"</title>
				<polygon class="PF03466" points="1230,28 1235,28 1247,40 1235,52 1230,52" stroke-linejoin="round" width="20" height="24" fill="rgb(55,136,195)" stroke="rgb(44,108,156)" stroke-width="1" opacity="0.75" />
			</g>
		</g>
		<g>
			<title> (ctg677_37)</title>
			<polygon class=" (ctg677_37)" points="1257,25 1280,25 1280,10 1310,40 1280,70 1280,55 1257,55" fill="rgb(255,255,255)" fill-opacity="1.0" stroke="rgb(0,0,0)" stroke-width="2"  />
			<g>
				<title>AMP-binding (PF00501)
"AMP-binding enzyme"</title>
				<polygon class="PF00501" points="1259,28 1293,28 1299,34 1299,46 1293,52 1259,52" stroke-linejoin="round" width="40" height="24" fill="rgb(60,217,223)" stroke="rgb(48,173,178)" stroke-width="1" opacity="0.75" />
			</g>
			<g>
				<title>AMP-binding_C (PF13193)
"AMP-binding enzyme C-terminal domain"</title>
				<polygon class="PF13193" points="1300,35 1305,40 1300,45" stroke-linejoin="round" width="7" height="24" fill="rgb(182,50,118)" stroke="rgb(145,39,94)" stroke-width="1" opacity="0.75" />
			</g>
		</g>
		<g>
			<title> (ctg677_38)</title>
			<polygon class=" (ctg677_38)" points="1311,10 1320,40 1311,70" fill="rgb(255,255,255)" fill-opacity="1.0" stroke="rgb(0,0,0)" stroke-width="2"  />
		</g>
		<g>
			<title> (ctg677_39)</title>
			<polygon class=" (ctg677_39)" points="1326,10 1337,40 1326,70" fill="rgb(255,255,255)" fill-opacity="1.0" stroke="rgb(0,0,0)" stroke-width="2"  />
		</g>
		<g>
			<title> (ctg677_40)</title>
			<polygon class=" (ctg677_40)" points="1337,10 1361,40 1337,70" fill="rgb(255,255,255)" fill-opacity="1.0" stroke="rgb(0,0,0)" stroke-width="2"  />
			<g>
				<title>adh_short (PF00106)
"short chain dehydrogenase"</title>
				<polygon class="PF00106" points="1337,28 1347,28 1356,39 1356,41 1347,52 1337,52" stroke-linejoin="round" width="19" height="24" fill="rgb(182,219,73)" stroke="rgb(145,175,58)" stroke-width="1" opacity="0.75" />
			</g>
		</g>
	</g>
</svg>
