<svg version="1.1" baseProfile="full" xmlns="http://www.w3.org/2000/svg" width="573.8" height="80">
	<g>
		<line x1="10" y1="40.0" x2="563.8" y2="40.0" style="stroke:rgb(70,70,70); stroke-width:3 "/>
		<g>
			<title> (ctg3062_1)</title>
			<polygon class=" (ctg3062_1)" points="47,25 40,25 40,10 10,40 40,70 40,55 47,55" fill="rgb(255,255,255)" fill-opacity="1.0" stroke="rgb(0,0,0)" stroke-width="2"  />
			<g>
				<title>HisKA (PF00512)
"His Kinase A (phospho-acceptor) domain"</title>
				<polygon class="PF00512" points="14,40 16,38 16,42" stroke-linejoin="round" width="6" height="24" fill="rgb(193,125,62)" stroke="rgb(154,100,49)" stroke-width="1" opacity="0.75" />
			</g>
			<g>
				<title>PAS (PF00989)
"PAS fold"</title>
				<polygon class="PF00989" points="17,37 26,28 28,28 28,52 26,52 17,43" stroke-linejoin="round" width="11" height="24" fill="rgb(205,221,64)" stroke="rgb(164,176,51)" stroke-width="1" opacity="0.75" />
			</g>
			<g>
				<title>GAF_2 (PF13185)
"GAF domain"</title>
				<rect class="PF13185" x="30" y="28" stroke-linejoin="round" width="14" height="24" fill="rgb(158,189,90)" stroke="rgb(126,151,72)" stroke-width="1" opacity="0.75" />
			</g>
		</g>
		<g>
			<title> (ctg3062_2)</title>
			<polygon class=" (ctg3062_2)" points="59,25 67,25 67,10 97,40 67,70 67,55 59,55" fill="rgb(255,255,255)" fill-opacity="1.0" stroke="rgb(0,0,0)" stroke-width="2"  />
			<g>
				<title>Epimerase (PF01370)
"NAD dependent epimerase/dehydratase family"</title>
				<polygon class="PF01370" points="60,28 81,28 83,30 83,50 81,52 60,52" stroke-linejoin="round" width="23" height="24" fill="rgb(98,102,214)" stroke="rgb(78,81,171)" stroke-width="1" opacity="0.75" />
			</g>
		</g>
		<g>
			<title> (ctg3062_3)</title>
			<polygon class=" (ctg3062_3)" points="97,25 103,25 103,10 133,40 103,70 103,55 97,55" fill="rgb(255,255,255)" fill-opacity="1.0" stroke="rgb(0,0,0)" stroke-width="2"  />
			<g>
				<title>Rieske (PF00355)
"Rieske [2Fe-2S] domain"</title>
				<rect class="PF00355" x="100" y="28" stroke-linejoin="round" width="9" height="24" fill="rgb(186,77,145)" stroke="rgb(148,61,115)" stroke-width="1" opacity="0.75" />
			</g>
		</g>
		<g>
			<title> (ctg3062_4)</title>
			<polygon class=" (ctg3062_4)" points="133,25 139,25 139,10 169,40 139,70 139,55 133,55" fill="rgb(255,255,255)" fill-opacity="1.0" stroke="rgb(0,0,0)" stroke-width="2"  />
			<g>
				<title>ERG4_ERG24 (PF01222)
"Ergosterol biosynthesis ERG4/ERG24 family"</title>
				<polygon class="PF01222" points="133,28 153,28 165,40 153,52 133,52" stroke-linejoin="round" width="35" height="24" fill="rgb(99,195,207)" stroke="rgb(79,155,165)" stroke-width="1" opacity="0.75" />
			</g>
		</g>
		<g>
			<title> (ctg3062_5)</title>
			<polygon class=" (ctg3062_5)" points="175,25 187,25 187,10 217,40 187,70 187,55 175,55" fill="rgb(255,255,255)" fill-opacity="1.0" stroke="rgb(0,0,0)" stroke-width="2"  />
			<g>
				<title>p450 (PF00067)
"Cytochrome P450"</title>
				<polygon class="PF00067" points="175,28 201,28 213,40 201,52 175,52" stroke-linejoin="round" width="40" height="24" fill="rgb(85,216,107)" stroke="rgb(68,172,85)" stroke-width="1" opacity="0.75" />
			</g>
		</g>
		<g>
			<title> (ctg3062_6)</title>
			<polygon class=" (ctg3062_6)" points="217,25 300,25 300,10 330,40 300,70 300,55 217,55" fill="rgb(255,255,255)" fill-opacity="1.0" stroke="rgb(0,0,0)" stroke-width="2"  />
			<g>
				<title>SE (PF08491)
"Squalene epoxidase"</title>
				<rect class="PF08491" x="232" y="28" stroke-linejoin="round" width="24" height="24" fill="rgb(93,72,221)" stroke="rgb(74,57,176)" stroke-width="1" opacity="0.75" />
			</g>
			<g>
				<title>SQHop_cyclase_N (PF13249)
"Squalene-hopene cyclase N-terminal domain"</title>
				<rect class="PF13249" x="264" y="28" stroke-linejoin="round" width="29" height="24" fill="rgb(88,190,89)" stroke="rgb(70,152,71)" stroke-width="1" opacity="0.75" />
			</g>
			<g>
				<title>SQHop_cyclase_C (PF13243)
"Squalene-hopene cyclase C-terminal domain"</title>
				<polygon class="PF13243" points="295,28 313,28 325,40 313,52 295,52" stroke-linejoin="round" width="32" height="24" fill="rgb(191,58,201)" stroke="rgb(152,46,160)" stroke-width="1" opacity="0.75" />
			</g>
		</g>
		<g>
			<title> (ctg3062_7)</title>
			<polygon class=" (ctg3062_7)" points="372,25 364,25 364,10 334,40 364,70 364,55 372,55" fill="rgb(255,255,255)" fill-opacity="1.0" stroke="rgb(0,0,0)" stroke-width="2"  />
			<g>
				<title>Sterol_MT_C (PF08498)
"Sterol methyltransferase C-terminal"</title>
				<polygon class="PF08498" points="338,40 340,38 340,42" stroke-linejoin="round" width="6" height="24" fill="rgb(65,219,176)" stroke="rgb(52,175,140)" stroke-width="1" opacity="0.75" />
			</g>
			<g>
				<title>Methyltransf_11 (PF08241)
"Methyltransferase domain"</title>
				<polygon class="PF08241" points="348,30 350,28 357,28 357,52 350,52 348,50" stroke-linejoin="round" width="9" height="24" fill="rgb(106,219,159)" stroke="rgb(84,175,127)" stroke-width="1" opacity="0.75" />
			</g>
		</g>
		<g>
			<title> (ctg3062_8)</title>
			<polygon class=" (ctg3062_8)" points="380,10 404,40 380,70" fill="rgb(255,255,255)" fill-opacity="1.0" stroke="rgb(0,0,0)" stroke-width="2"  />
		</g>
		<g>
			<title> (ctg3062_9)</title>
			<polygon class=" (ctg3062_9)" points="419,40 428,10 428,70" fill="rgb(255,255,255)" fill-opacity="1.0" stroke="rgb(0,0,0)" stroke-width="2"  />
			<g>
				<title>HTH_3 (PF01381)
"Helix-turn-helix"</title>
				<polygon class="PF01381" points="422,40 426,28 426,28 426,52 426,52" stroke-linejoin="round" width="5" height="24" fill="rgb(105,79,202)" stroke="rgb(83,63,161)" stroke-width="1" opacity="0.75" />
			</g>
		</g>
		<g>
			<title> (ctg3062_10)</title>
			<polygon class=" (ctg3062_10)" points="444,10 450,40 444,70" fill="rgb(255,255,255)" fill-opacity="1.0" stroke="rgb(0,0,0)" stroke-width="2"  />
		</g>
		<g>
			<title> (ctg3062_11)</title>
			<polygon class=" (ctg3062_11)" points="450,40 460,10 460,70" fill="rgb(255,255,255)" fill-opacity="1.0" stroke="rgb(0,0,0)" stroke-width="2"  />
			<g>
				<title>TonB_dep_Rec (PF00593)
"TonB dependent receptor"</title>
				<polygon class="PF00593" points="453,40 457,28 459,28 459,52 457,52" stroke-linejoin="round" width="9" height="24" fill="rgb(171,200,51)" stroke="rgb(136,160,40)" stroke-width="1" opacity="0.75" />
			</g>
		</g>
		<g>
			<title> (ctg3062_12)</title>
			<polygon class=" (ctg3062_12)" points="459,40 486,10 486,70" fill="rgb(255,255,255)" fill-opacity="1.0" stroke="rgb(0,0,0)" stroke-width="2"  />
			<g>
				<title>TonB_dep_Rec (PF00593)
"TonB dependent receptor"</title>
				<polygon class="PF00593" points="463,40 474,28 485,28 485,52 474,52" stroke-linejoin="round" width="25" height="24" fill="rgb(171,200,51)" stroke="rgb(136,160,40)" stroke-width="1" opacity="0.75" />
			</g>
		</g>
		<g>
			<title> (ctg3062_13)</title>
			<polygon class=" (ctg3062_13)" points="545,25 522,25 522,10 492,40 522,70 522,55 545,55" fill="rgb(255,255,255)" fill-opacity="1.0" stroke="rgb(0,0,0)" stroke-width="2"  />
			<g>
				<title>Plug (PF07715)
"TonB-dependent Receptor Plug Domain"</title>
				<rect class="PF07715" x="530" y="28" stroke-linejoin="round" width="11" height="24" fill="rgb(99,133,214)" stroke="rgb(79,106,171)" stroke-width="1" opacity="0.75" />
			</g>
		</g>
		<g>
			<title> (ctg3062_14)</title>
			<polygon class=" (ctg3062_14)" points="558,10 562,40 558,70" fill="rgb(255,255,255)" fill-opacity="1.0" stroke="rgb(0,0,0)" stroke-width="2"  />
		</g>
	</g>
</svg>
