<svg version="1.1" baseProfile="full" xmlns="http://www.w3.org/2000/svg" width="506.1333333333333" height="80">
	<g>
		<line x1="10" y1="40.0" x2="496.1333333333333" y2="40.0" style="stroke:rgb(70,70,70); stroke-width:3 "/>
		<g>
			<title> (ctg5157_1)</title>
			<polygon class=" (ctg5157_1)" points="12,40 25,10 25,70" fill="rgb(255,255,255)" fill-opacity="1.0" stroke="rgb(0,0,0)" stroke-width="2"  />
		</g>
		<g>
			<title> (ctg5157_2)</title>
			<polygon class=" (ctg5157_2)" points="28,40 34,10 34,70" fill="rgb(255,255,255)" fill-opacity="1.0" stroke="rgb(0,0,0)" stroke-width="2"  />
		</g>
		<g>
			<title> (ctg5157_3)</title>
			<polygon class=" (ctg5157_3)" points="37,40 44,10 44,70" fill="rgb(255,255,255)" fill-opacity="1.0" stroke="rgb(0,0,0)" stroke-width="2"  />
		</g>
		<g>
			<title> (ctg5157_4)</title>
			<polygon class=" (ctg5157_4)" points="57,40 74,10 74,70" fill="rgb(255,255,255)" fill-opacity="1.0" stroke="rgb(0,0,0)" stroke-width="2"  />
		</g>
		<g>
			<title> (ctg5157_5)</title>
			<polygon class=" (ctg5157_5)" points="78,40 85,10 85,70" fill="rgb(255,255,255)" fill-opacity="1.0" stroke="rgb(0,0,0)" stroke-width="2"  />
		</g>
		<g>
			<title> (ctg5157_6)</title>
			<polygon class=" (ctg5157_6)" points="86,40 104,10 104,70" fill="rgb(255,255,255)" fill-opacity="1.0" stroke="rgb(0,0,0)" stroke-width="2"  />
		</g>
		<g>
			<title> (ctg5157_7)</title>
			<polygon class=" (ctg5157_7)" points="140,25 138,25 138,10 108,40 138,70 138,55 140,55" fill="rgb(255,255,255)" fill-opacity="1.0" stroke="rgb(0,0,0)" stroke-width="2"  />
			<g>
				<title>LYTB (PF02401)
"LytB protein"</title>
				<polygon class="PF02401" points="112,40 124,28 138,28 138,52 124,52" stroke-linejoin="round" width="27" height="24" fill="rgb(155,62,193)" stroke="rgb(124,49,154)" stroke-width="1" opacity="0.75" />
			</g>
		</g>
		<g>
			<title> (ctg5157_8)</title>
			<polygon class=" (ctg5157_8)" points="180,25 171,25 171,10 141,40 171,70 171,55 180,55" fill="rgb(255,255,255)" fill-opacity="1.0" stroke="rgb(0,0,0)" stroke-width="2"  />
			<g>
				<title>SQS_PSY (PF00494)
"Squalene/phytoene synthase"</title>
				<polygon class="PF00494" points="149,36 157,28 178,28 178,52 157,52 149,44" stroke-linejoin="round" width="29" height="24" fill="rgb(178,91,49)" stroke="rgb(142,72,39)" stroke-width="1" opacity="0.75" />
			</g>
		</g>
		<g>
			<title> (ctg5157_9)</title>
			<polygon class=" (ctg5157_9)" points="256,25 210,25 210,10 180,40 210,70 210,55 256,55" fill="rgb(255,255,255)" fill-opacity="1.0" stroke="rgb(0,0,0)" stroke-width="2"  />
			<g>
				<title>MMPL (PF03176)
"MMPL family"</title>
				<polygon class="PF03176" points="184,40 196,28 212,28 212,52 196,52" stroke-linejoin="round" width="32" height="24" fill="rgb(228,109,193)" stroke="rgb(182,87,154)" stroke-width="1" opacity="0.75" />
			</g>
			<g>
				<title>MMPL (PF03176)
"MMPL family"</title>
				<rect class="PF03176" x="215" y="28" stroke-linejoin="round" width="27" height="24" fill="rgb(228,109,193)" stroke="rgb(182,87,154)" stroke-width="1" opacity="0.75" />
			</g>
		</g>
		<g>
			<title> (ctg5157_10)</title>
			<polygon class=" (ctg5157_10)" points="299,25 287,25 287,10 257,40 287,70 287,55 299,55" fill="rgb(255,255,255)" fill-opacity="1.0" stroke="rgb(0,0,0)" stroke-width="2"  />
		</g>
		<g>
			<title> (ctg5157_11)</title>
			<polygon class=" (ctg5157_11)" points="330,25 329,25 329,10 299,40 329,70 329,55 330,55" fill="rgb(255,255,255)" fill-opacity="1.0" stroke="rgb(0,0,0)" stroke-width="2"  />
			<g>
				<title>LolA_like (PF17131)
"Outer membrane lipoprotein-sorting protein"</title>
				<polygon class="PF17131" points="303,40 315,28 317,28 317,52 315,52" stroke-linejoin="round" width="18" height="24" fill="rgb(189,100,83)" stroke="rgb(151,80,66)" stroke-width="1" opacity="0.75" />
			</g>
		</g>
		<g>
			<title> (ctg5157_12)</title>
			<polygon class=" (ctg5157_12)" points="370,25 361,25 361,10 331,40 361,70 361,55 370,55" fill="rgb(255,255,255)" fill-opacity="1.0" stroke="rgb(0,0,0)" stroke-width="2"  />
			<g>
				<title>DUF2236 (PF09995)
"Uncharacterized protein conserved in bacteria (DUF2236)"</title>
				<polygon class="PF09995" points="335,40 347,28 359,28 359,52 347,52" stroke-linejoin="round" width="25" height="24" fill="rgb(194,179,92)" stroke="rgb(155,143,73)" stroke-width="1" opacity="0.75" />
			</g>
		</g>
		<g>
			<title> (ctg5157_13)</title>
			<polygon class=" (ctg5157_13)" points="370,40 379,10 379,70" fill="rgb(255,255,255)" fill-opacity="1.0" stroke="rgb(0,0,0)" stroke-width="2"  />
		</g>
		<g>
			<title> (ctg5157_14)</title>
			<polygon class=" (ctg5157_14)" points="384,10 408,40 384,70" fill="rgb(255,255,255)" fill-opacity="1.0" stroke="rgb(0,0,0)" stroke-width="2"  />
			<g>
				<title>HTH_3 (PF01381)
"Helix-turn-helix"</title>
				<rect class="PF01381" x="384" y="28" stroke-linejoin="round" width="5" height="24" fill="rgb(105,79,202)" stroke="rgb(83,63,161)" stroke-width="1" opacity="0.75" />
			</g>
		</g>
		<g>
			<title> (ctg5157_15)</title>
			<polygon class=" (ctg5157_15)" points="414,10 435,40 414,70" fill="rgb(255,255,255)" fill-opacity="1.0" stroke="rgb(0,0,0)" stroke-width="2"  />
		</g>
		<g>
			<title> (ctg5157_16)</title>
			<polygon class=" (ctg5157_16)" points="495,25 487,25 487,10 457,40 487,70 487,55 495,55" fill="rgb(255,255,255)" fill-opacity="1.0" stroke="rgb(0,0,0)" stroke-width="2"  />
			<g>
				<title>NERD (PF08378)
"Nuclease-related domain"</title>
				<rect class="PF08378" x="483" y="28" stroke-linejoin="round" width="10" height="24" fill="rgb(81,85,195)" stroke="rgb(64,68,156)" stroke-width="1" opacity="0.75" />
			</g>
		</g>
	</g>
</svg>
