<svg version="1.1" baseProfile="full" xmlns="http://www.w3.org/2000/svg" width="242.8" height="80">
	<g>
		<line x1="10" y1="40.0" x2="232.8" y2="40.0" style="stroke:rgb(70,70,70); stroke-width:3 "/>
		<g>
			<title> (ctg12058_1)</title>
			<polygon class=" (ctg12058_1)" points="10,25 13,25 13,10 43,40 13,70 13,55 10,55" fill="rgb(255,255,255)" fill-opacity="1.0" stroke="rgb(0,0,0)" stroke-width="2"  />
			<g>
				<title>Asn_synthase (PF00733)
"Asparagine synthase"</title>
				<polygon class="PF00733" points="13,28 27,28 39,40 27,52 13,52" stroke-linejoin="round" width="28" height="24" fill="rgb(97,201,176)" stroke="rgb(77,160,140)" stroke-width="1" opacity="0.75" />
			</g>
		</g>
		<g>
			<title> (ctg12058_2)</title>
			<polygon class=" (ctg12058_2)" points="43,25 44,25 44,10 74,40 44,70 44,55 43,55" fill="rgb(255,255,255)" fill-opacity="1.0" stroke="rgb(0,0,0)" stroke-width="2"  />
			<g>
				<title>Glyco_transf_8 (PF01501)
"Glycosyl transferase family 8"</title>
				<polygon class="PF01501" points="43,28 57,28 68,39 68,41 57,52 43,52" stroke-linejoin="round" width="25" height="24" fill="rgb(208,74,95)" stroke="rgb(166,59,76)" stroke-width="1" opacity="0.75" />
			</g>
		</g>
		<g>
			<title> (ctg12058_3)</title>
			<polygon class=" (ctg12058_3)" points="74,10 102,40 74,70" fill="rgb(255,255,255)" fill-opacity="1.0" stroke="rgb(0,0,0)" stroke-width="2"  />
			<g>
				<title>Sulfotransfer_3 (PF13469)
"Sulfotransferase family"</title>
				<polygon class="PF13469" points="75,28 86,28 93,35 93,45 86,52 75,52" stroke-linejoin="round" width="18" height="24" fill="rgb(59,182,84)" stroke="rgb(47,145,67)" stroke-width="1" opacity="0.75" />
			</g>
		</g>
		<g>
			<title> (ctg12058_4)</title>
			<polygon class=" (ctg12058_4)" points="103,10 109,40 103,70" fill="rgb(255,255,255)" fill-opacity="1.0" stroke="rgb(0,0,0)" stroke-width="2"  />
		</g>
		<g>
			<title> (ctg12058_5)</title>
			<polygon class=" (ctg12058_5)" points="110,25 131,25 131,10 161,40 131,70 131,55 110,55" fill="rgb(255,255,255)" fill-opacity="1.0" stroke="rgb(0,0,0)" stroke-width="2"  />
			<g>
				<title>Sulfotransfer_3 (PF13469)
"Sulfotransferase family"</title>
				<rect class="PF13469" x="114" y="28" stroke-linejoin="round" width="18" height="24" fill="rgb(59,182,84)" stroke="rgb(47,145,67)" stroke-width="1" opacity="0.75" />
			</g>
			<g>
				<title>Asp_Arg_Hydrox (PF05118)
"Aspartyl/Asparaginyl beta-hydroxylase"</title>
				<polygon class="PF05118" points="150,34 156,40 150,46" stroke-linejoin="round" width="10" height="24" fill="rgb(110,77,203)" stroke="rgb(88,61,162)" stroke-width="1" opacity="0.75" />
			</g>
		</g>
		<g>
			<title> (ctg12058_6)</title>
			<polygon class=" (ctg12058_6)" points="160,25 162,25 162,10 192,40 162,70 162,55 160,55" fill="rgb(255,255,255)" fill-opacity="1.0" stroke="rgb(0,0,0)" stroke-width="2"  />
		</g>
		<g>
			<title> (ctg12058_7)</title>
			<polygon class=" (ctg12058_7)" points="193,10 222,40 193,70" fill="rgb(255,255,255)" fill-opacity="1.0" stroke="rgb(0,0,0)" stroke-width="2"  />
			<g>
				<title>Sulfotransfer_1 (PF00685)
"Sulfotransferase domain"</title>
				<polygon class="PF00685" points="193,28 206,28 218,40 206,52 193,52" stroke-linejoin="round" width="27" height="24" fill="rgb(66,135,208)" stroke="rgb(52,107,166)" stroke-width="1" opacity="0.75" />
			</g>
		</g>
		<g>
			<title> (ctg12058_8)</title>
			<polygon class=" (ctg12058_8)" points="223,10 232,40 223,70" fill="rgb(255,255,255)" fill-opacity="1.0" stroke="rgb(0,0,0)" stroke-width="2"  />
			<g>
				<title>Transglut_core3 (PF13471)
"Transglutaminase-like superfamily"</title>
				<polygon class="PF13471" points="225,28 225,28 229,40 225,52 225,52" stroke-linejoin="round" width="7" height="24" fill="rgb(63,111,179)" stroke="rgb(50,88,143)" stroke-width="1" opacity="0.75" />
			</g>
		</g>
	</g>
</svg>
