<svg version="1.1" baseProfile="full" xmlns="http://www.w3.org/2000/svg" width="1400.7666666666667" height="80">
	<g>
		<line x1="10" y1="40.0" x2="1390.7666666666667" y2="40.0" style="stroke:rgb(70,70,70); stroke-width:3 "/>
		<g>
			<title> (ctg176_80)</title>
			<polygon class=" (ctg176_80)" points="78,10 88,40 78,70" fill="rgb(255,255,255)" fill-opacity="1.0" stroke="rgb(0,0,0)" stroke-width="2"  />
		</g>
		<g>
			<title> (ctg176_81)</title>
			<polygon class=" (ctg176_81)" points="93,10 114,40 93,70" fill="rgb(255,255,255)" fill-opacity="1.0" stroke="rgb(0,0,0)" stroke-width="2"  />
			<g>
				<title>NYN (PF01936)
"NYN domain"</title>
				<polygon class="PF01936" points="93,28 102,28 110,40 110,40 102,52 93,52" stroke-linejoin="round" width="17" height="24" fill="rgb(215,71,199)" stroke="rgb(172,56,159)" stroke-width="1" opacity="0.75" />
			</g>
		</g>
		<g>
			<title> (ctg176_82)</title>
			<polygon class=" (ctg176_82)" points="117,40 132,10 132,70" fill="rgb(255,255,255)" fill-opacity="1.0" stroke="rgb(0,0,0)" stroke-width="2"  />
		</g>
		<g>
			<title> (ctg176_83)</title>
			<polygon class=" (ctg176_83)" points="187,25 163,25 163,10 133,40 163,70 163,55 187,55" fill="rgb(255,255,255)" fill-opacity="1.0" stroke="rgb(0,0,0)" stroke-width="2"  />
			<g>
				<title>AAA_15 (PF13175)
"AAA ATPase domain"</title>
				<polygon class="PF13175" points="141,36 149,28 152,28 152,52 149,52 141,44" stroke-linejoin="round" width="11" height="24" fill="rgb(98,206,213)" stroke="rgb(78,164,170)" stroke-width="1" opacity="0.75" />
			</g>
		</g>
		<g>
			<title> (ctg176_84)</title>
			<polygon class=" (ctg176_84)" points="193,40 203,10 203,70" fill="rgb(255,255,255)" fill-opacity="1.0" stroke="rgb(0,0,0)" stroke-width="2"  />
		</g>
		<g>
			<title> (ctg176_85)</title>
			<polygon class=" (ctg176_85)" points="215,40 221,10 221,70" fill="rgb(255,255,255)" fill-opacity="1.0" stroke="rgb(0,0,0)" stroke-width="2"  />
		</g>
		<g>
			<title> (ctg176_86)</title>
			<polygon class=" (ctg176_86)" points="237,25 240,25 240,10 270,40 240,70 240,55 237,55" fill="rgb(255,255,255)" fill-opacity="1.0" stroke="rgb(0,0,0)" stroke-width="2"  />
		</g>
		<g>
			<title> (ctg176_87)</title>
			<polygon class=" (ctg176_87)" points="271,40 279,10 279,70" fill="rgb(255,255,255)" fill-opacity="1.0" stroke="rgb(0,0,0)" stroke-width="2"  />
			<g>
				<title>DUF2513 (PF10711)
"Hypothetical protein (DUF2513)"</title>
				<polygon class="PF10711" points="274,40 278,28 279,28 279,52 278,52" stroke-linejoin="round" width="8" height="24" fill="rgb(185,84,173)" stroke="rgb(148,67,138)" stroke-width="1" opacity="0.75" />
			</g>
		</g>
		<g>
			<title> (ctg176_88)</title>
			<polygon class=" (ctg176_88)" points="280,40 286,10 286,70" fill="rgb(255,255,255)" fill-opacity="1.0" stroke="rgb(0,0,0)" stroke-width="2"  />
		</g>
		<g>
			<title> (ctg176_89)</title>
			<polygon class=" (ctg176_89)" points="287,40 295,10 295,70" fill="rgb(255,255,255)" fill-opacity="1.0" stroke="rgb(0,0,0)" stroke-width="2"  />
		</g>
		<g>
			<title> (ctg176_90)</title>
			<polygon class=" (ctg176_90)" points="295,40 301,10 301,70" fill="rgb(255,255,255)" fill-opacity="1.0" stroke="rgb(0,0,0)" stroke-width="2"  />
		</g>
		<g>
			<title> (ctg176_91)</title>
			<polygon class=" (ctg176_91)" points="306,25 306,25 306,10 336,40 306,70 306,55 306,55" fill="rgb(255,255,255)" fill-opacity="1.0" stroke="rgb(0,0,0)" stroke-width="2"  />
		</g>
		<g>
			<title> (ctg176_92)</title>
			<polygon class=" (ctg176_92)" points="381,25 380,25 380,10 350,40 380,70 380,55 381,55" fill="rgb(255,255,255)" fill-opacity="1.0" stroke="rgb(0,0,0)" stroke-width="2"  />
		</g>
		<g>
			<title> (ctg176_93)</title>
			<polygon class=" (ctg176_93)" points="389,10 418,40 389,70" fill="rgb(255,255,255)" fill-opacity="1.0" stroke="rgb(0,0,0)" stroke-width="2"  />
			<g>
				<title>Antibiotic_NAT (PF02522)
"Aminoglycoside 3-N-acetyltransferase"</title>
				<polygon class="PF02522" points="392,28 402,28 413,39 413,41 402,52 392,52" stroke-linejoin="round" width="21" height="24" fill="rgb(93,59,220)" stroke="rgb(74,47,176)" stroke-width="1" opacity="0.75" />
			</g>
		</g>
		<g>
			<title> (ctg176_94)</title>
			<polygon class=" (ctg176_94)" points="471,25 453,25 453,10 423,40 453,70 453,55 471,55" fill="rgb(255,255,255)" fill-opacity="1.0" stroke="rgb(0,0,0)" stroke-width="2"  />
			<g>
				<title>Flot (PF15975)
"Flotillin"</title>
				<polygon class="PF15975" points="427,40 436,31 436,49" stroke-linejoin="round" width="11" height="24" fill="rgb(211,172,58)" stroke="rgb(168,137,46)" stroke-width="1" opacity="0.75" />
			</g>
			<g>
				<title>Band_7 (PF01145)
"SPFH domain / Band 7 family"</title>
				<rect class="PF01145" x="453" y="28" stroke-linejoin="round" width="18" height="24" fill="rgb(218,155,102)" stroke="rgb(174,124,81)" stroke-width="1" opacity="0.75" />
			</g>
		</g>
		<g>
			<title> (ctg176_95)</title>
			<polygon class=" (ctg176_95)" points="504,25 503,25 503,10 473,40 503,70 503,55 504,55" fill="rgb(255,255,255)" fill-opacity="1.0" stroke="rgb(0,0,0)" stroke-width="2"  />
			<g>
				<title>NfeD (PF01957)
"NfeD-like C-terminal, partner-binding"</title>
				<polygon class="PF01957" points="477,40 482,35 482,45" stroke-linejoin="round" width="9" height="24" fill="rgb(90,229,87)" stroke="rgb(71,183,69)" stroke-width="1" opacity="0.75" />
			</g>
		</g>
		<g>
			<title> (ctg176_96)</title>
			<polygon class=" (ctg176_96)" points="506,10 519,40 506,70" fill="rgb(255,255,255)" fill-opacity="1.0" stroke="rgb(0,0,0)" stroke-width="2"  />
		</g>
		<g>
			<title> (ctg176_97)</title>
			<polygon class=" (ctg176_97)" points="540,25 568,25 568,10 598,40 568,70 568,55 540,55" fill="rgb(255,255,255)" fill-opacity="1.0" stroke="rgb(0,0,0)" stroke-width="2"  />
			<g>
				<title>Xan_ur_permease (PF00860)
"Permease family"</title>
				<rect class="PF00860" x="542" y="28" stroke-linejoin="round" width="38" height="24" fill="rgb(216,88,217)" stroke="rgb(172,70,173)" stroke-width="1" opacity="0.75" />
			</g>
		</g>
		<g>
			<title> (ctg176_98)</title>
			<polygon class=" (ctg176_98)" points="629,25 629,25 629,10 599,40 629,70 629,55 629,55" fill="rgb(255,255,255)" fill-opacity="1.0" stroke="rgb(0,0,0)" stroke-width="2"  />
			<g>
				<title>Abhydrolase_6 (PF12697)
"Alpha/beta hydrolase family"</title>
				<polygon class="PF12697" points="603,40 615,28 625,28 625,52 615,52" stroke-linejoin="round" width="25" height="24" fill="rgb(113,71,219)" stroke="rgb(90,56,175)" stroke-width="1" opacity="0.75" />
			</g>
		</g>
		<g>
			<title> (ctg176_99)</title>
			<polygon class=" (ctg176_99)" points="631,40 655,10 655,70" fill="rgb(255,255,255)" fill-opacity="1.0" stroke="rgb(0,0,0)" stroke-width="2"  />
			<g>
				<title>ACPS (PF01648)
"4'-phosphopantetheinyl transferase superfamily"</title>
				<polygon class="PF01648" points="635,40 642,31 642,49" stroke-linejoin="round" width="10" height="24" fill="rgb(85,184,135)" stroke="rgb(68,147,108)" stroke-width="1" opacity="0.75" />
			</g>
		</g>
		<g>
			<title> (ctg176_100)</title>
			<polygon class=" (ctg176_100)" points="657,40 665,10 665,70" fill="rgb(255,255,255)" fill-opacity="1.0" stroke="rgb(0,0,0)" stroke-width="2"  />
			<g>
				<title>PP-binding (PF00550)
"Phosphopantetheine attachment site"</title>
				<polygon class="PF00550" points="660,40 663,28 664,28 664,52 663,52" stroke-linejoin="round" width="7" height="24" fill="rgb(103,191,88)" stroke="rgb(82,152,70)" stroke-width="1" opacity="0.75" />
			</g>
		</g>
		<g>
			<title> (ctg176_101)</title>
			<polygon class=" (ctg176_101)" points="1020,25 706,25 706,10 676,40 706,70 706,55 1020,55" fill="rgb(255,255,255)" fill-opacity="1.0" stroke="rgb(0,0,0)" stroke-width="2"  />
			<g>
				<title>Acyl_transf_1 (PF00698)
"Acyl transferase domain"</title>
				<polygon class="PF00698" points="690,30 692,28 704,28 704,52 692,52 690,50" stroke-linejoin="round" width="14" height="24" fill="rgb(59,176,209)" stroke="rgb(47,140,167)" stroke-width="1" opacity="0.75" />
			</g>
			<g>
				<title>KAsynt_C_assoc (PF16197)
"Ketoacyl-synthetase C-terminal extension"</title>
				<rect class="PF16197" x="709" y="28" stroke-linejoin="round" width="14" height="24" fill="rgb(240,150,172)" stroke="rgb(192,120,137)" stroke-width="1" opacity="0.75" />
			</g>
			<g>
				<title>Ketoacyl-synt_C (PF02801)
"Beta-ketoacyl synthase, C-terminal domain"</title>
				<rect class="PF02801" x="723" y="28" stroke-linejoin="round" width="11" height="24" fill="rgb(215,78,102)" stroke="rgb(172,62,81)" stroke-width="1" opacity="0.75" />
			</g>
			<g>
				<title>ketoacyl-synt (PF00109)
"Beta-ketoacyl synthase, N-terminal domain"</title>
				<rect class="PF00109" x="736" y="28" stroke-linejoin="round" width="24" height="24" fill="rgb(112,116,228)" stroke="rgb(89,92,182)" stroke-width="1" opacity="0.75" />
			</g>
			<g>
				<title>PP-binding (PF00550)
"Phosphopantetheine attachment site"</title>
				<rect class="PF00550" x="763" y="28" stroke-linejoin="round" width="6" height="24" fill="rgb(103,191,88)" stroke="rgb(82,152,70)" stroke-width="1" opacity="0.75" />
			</g>
			<g>
				<title>KR (PF08659)
"KR domain"</title>
				<rect class="PF08659" x="780" y="28" stroke-linejoin="round" width="17" height="24" fill="rgb(66,209,188)" stroke="rgb(52,167,150)" stroke-width="1" opacity="0.75" />
			</g>
			<g>
				<title>ADH_zinc_N (PF00107)
"Zinc-binding dehydrogenase"</title>
				<rect class="PF00107" x="806" y="28" stroke-linejoin="round" width="10" height="24" fill="rgb(81,108,215)" stroke="rgb(64,86,172)" stroke-width="1" opacity="0.75" />
			</g>
			<g>
				<title>Methyltransf_12 (PF08242)
"Methyltransferase domain"</title>
				<rect class="PF08242" x="861" y="28" stroke-linejoin="round" width="10" height="24" fill="rgb(187,59,115)" stroke="rgb(149,47,92)" stroke-width="1" opacity="0.75" />
			</g>
			<g>
				<title>PS-DH (PF14765)
"Polyketide synthase dehydratase"</title>
				<rect class="PF14765" x="894" y="28" stroke-linejoin="round" width="29" height="24" fill="rgb(173,56,182)" stroke="rgb(138,44,145)" stroke-width="1" opacity="0.75" />
			</g>
			<g>
				<title>Acyl_transf_1 (PF00698)
"Acyl transferase domain"</title>
				<rect class="PF00698" x="928" y="28" stroke-linejoin="round" width="33" height="24" fill="rgb(59,176,209)" stroke="rgb(47,140,167)" stroke-width="1" opacity="0.75" />
			</g>
			<g>
				<title>KAsynt_C_assoc (PF16197)
"Ketoacyl-synthetase C-terminal extension"</title>
				<rect class="PF16197" x="966" y="28" stroke-linejoin="round" width="13" height="24" fill="rgb(240,150,172)" stroke="rgb(192,120,137)" stroke-width="1" opacity="0.75" />
			</g>
			<g>
				<title>Ketoacyl-synt_C (PF02801)
"Beta-ketoacyl synthase, C-terminal domain"</title>
				<rect class="PF02801" x="980" y="28" stroke-linejoin="round" width="11" height="24" fill="rgb(215,78,102)" stroke="rgb(172,62,81)" stroke-width="1" opacity="0.75" />
			</g>
			<g>
				<title>ketoacyl-synt (PF00109)
"Beta-ketoacyl synthase, N-terminal domain"</title>
				<rect class="PF00109" x="992" y="28" stroke-linejoin="round" width="25" height="24" fill="rgb(112,116,228)" stroke="rgb(89,92,182)" stroke-width="1" opacity="0.75" />
			</g>
		</g>
		<g>
			<title> (ctg176_102)</title>
			<polygon class=" (ctg176_102)" points="1033,40 1058,10 1058,70" fill="rgb(255,255,255)" fill-opacity="1.0" stroke="rgb(0,0,0)" stroke-width="2"  />
			<g>
				<title>Peptidase_C26 (PF07722)
"Peptidase C26"</title>
				<polygon class="PF07722" points="1037,40 1047,28 1056,28 1056,52 1047,52" stroke-linejoin="round" width="21" height="24" fill="rgb(203,162,57)" stroke="rgb(162,129,45)" stroke-width="1" opacity="0.75" />
			</g>
		</g>
		<g>
			<title> (ctg176_103)</title>
			<polygon class=" (ctg176_103)" points="1060,10 1087,40 1060,70" fill="rgb(255,255,255)" fill-opacity="1.0" stroke="rgb(0,0,0)" stroke-width="2"  />
			<g>
				<title>AP_endonuc_2 (PF01261)
"Xylose isomerase-like TIM barrel"</title>
				<polygon class="PF01261" points="1062,28 1072,28 1082,39 1082,41 1072,52 1062,52" stroke-linejoin="round" width="20" height="24" fill="rgb(69,222,207)" stroke="rgb(55,177,165)" stroke-width="1" opacity="0.75" />
			</g>
		</g>
		<g>
			<title> (ctg176_104)</title>
			<polygon class=" (ctg176_104)" points="1090,10 1102,40 1090,70" fill="rgb(255,255,255)" fill-opacity="1.0" stroke="rgb(0,0,0)" stroke-width="2"  />
			<g>
				<title>MOSC (PF03473)
"MOSC domain"</title>
				<polygon class="PF03473" points="1091,28 1094,28 1099,40 1094,52 1091,52" stroke-linejoin="round" width="10" height="24" fill="rgb(96,194,162)" stroke="rgb(76,155,129)" stroke-width="1" opacity="0.75" />
			</g>
		</g>
		<g>
			<title> (ctg176_105)</title>
			<polygon class=" (ctg176_105)" points="1140,25 1133,25 1133,10 1103,40 1133,70 1133,55 1140,55" fill="rgb(255,255,255)" fill-opacity="1.0" stroke="rgb(0,0,0)" stroke-width="2"  />
			<g>
				<title>GFO_IDH_MocA_C (PF02894)
"Oxidoreductase family, C-terminal alpha/beta domain"</title>
				<polygon class="PF02894" points="1112,35 1119,28 1124,28 1124,52 1119,52 1112,45" stroke-linejoin="round" width="12" height="24" fill="rgb(195,223,82)" stroke="rgb(155,178,65)" stroke-width="1" opacity="0.75" />
			</g>
			<g>
				<title>GFO_IDH_MocA (PF01408)
"Oxidoreductase family, NAD-binding Rossmann fold"</title>
				<rect class="PF01408" x="1126" y="28" stroke-linejoin="round" width="12" height="24" fill="rgb(76,117,190)" stroke="rgb(60,93,152)" stroke-width="1" opacity="0.75" />
			</g>
		</g>
		<g>
			<title> (ctg176_106)</title>
			<polygon class=" (ctg176_106)" points="1148,25 1161,25 1161,10 1191,40 1161,70 1161,55 1148,55" fill="rgb(255,255,255)" fill-opacity="1.0" stroke="rgb(0,0,0)" stroke-width="2"  />
			<g>
				<title>MFS_2 (PF13347)
"MFS/sugar transport protein"</title>
				<polygon class="PF13347" points="1152,28 1174,28 1186,40 1174,52 1152,52" stroke-linejoin="round" width="37" height="24" fill="rgb(68,198,83)" stroke="rgb(54,158,66)" stroke-width="1" opacity="0.75" />
			</g>
		</g>
		<g>
			<title> (ctg176_107)</title>
			<polygon class=" (ctg176_107)" points="1199,10 1202,40 1199,70" fill="rgb(255,255,255)" fill-opacity="1.0" stroke="rgb(0,0,0)" stroke-width="2"  />
		</g>
		<g>
			<title> (ctg176_108)</title>
			<polygon class=" (ctg176_108)" points="1206,40 1232,10 1232,70" fill="rgb(255,255,255)" fill-opacity="1.0" stroke="rgb(0,0,0)" stroke-width="2"  />
			<g>
				<title>His_biosynth (PF00977)
"Histidine biosynthesis protein"</title>
				<polygon class="PF00977" points="1210,40 1220,28 1231,28 1231,52 1220,52" stroke-linejoin="round" width="23" height="24" fill="rgb(200,144,79)" stroke="rgb(160,115,63)" stroke-width="1" opacity="0.75" />
			</g>
		</g>
		<g>
			<title> (ctg176_109)</title>
			<polygon class=" (ctg176_109)" points="1233,40 1257,10 1257,70" fill="rgb(255,255,255)" fill-opacity="1.0" stroke="rgb(0,0,0)" stroke-width="2"  />
			<g>
				<title>His_biosynth (PF00977)
"Histidine biosynthesis protein"</title>
				<polygon class="PF00977" points="1237,40 1247,28 1256,28 1256,52 1247,52" stroke-linejoin="round" width="22" height="24" fill="rgb(200,144,79)" stroke="rgb(160,115,63)" stroke-width="1" opacity="0.75" />
			</g>
		</g>
		<g>
			<title> (ctg176_110)</title>
			<polygon class=" (ctg176_110)" points="1257,40 1278,10 1278,70" fill="rgb(255,255,255)" fill-opacity="1.0" stroke="rgb(0,0,0)" stroke-width="2"  />
			<g>
				<title>GATase (PF00117)
"Glutamine amidotransferase class-I"</title>
				<polygon class="PF00117" points="1261,40 1269,28 1277,28 1277,52 1269,52" stroke-linejoin="round" width="19" height="24" fill="rgb(159,201,96)" stroke="rgb(127,160,76)" stroke-width="1" opacity="0.75" />
			</g>
		</g>
		<g>
			<title> (ctg176_111)</title>
			<polygon class=" (ctg176_111)" points="1320,25 1308,25 1308,10 1278,40 1308,70 1308,55 1320,55" fill="rgb(255,255,255)" fill-opacity="1.0" stroke="rgb(0,0,0)" stroke-width="2"  />
			<g>
				<title>HGTP_anticodon (PF03129)
"Anticodon binding domain"</title>
				<polygon class="PF03129" points="1282,40 1287,35 1287,45" stroke-linejoin="round" width="9" height="24" fill="rgb(115,202,95)" stroke="rgb(92,161,76)" stroke-width="1" opacity="0.75" />
			</g>
			<g>
				<title>tRNA-synt_His (PF13393)
"Histidyl-tRNA synthetase"</title>
				<polygon class="PF13393" points="1289,33 1294,28 1319,28 1319,52 1294,52 1289,47" stroke-linejoin="round" width="30" height="24" fill="rgb(106,63,202)" stroke="rgb(84,50,161)" stroke-width="1" opacity="0.75" />
			</g>
		</g>
		<g>
			<title> (ctg176_112)</title>
			<polygon class=" (ctg176_112)" points="1320,40 1329,10 1329,70" fill="rgb(255,255,255)" fill-opacity="1.0" stroke="rgb(0,0,0)" stroke-width="2"  />
			<g>
				<title>DUF167 (PF02594)
"Uncharacterised ACR, YggU family COG1872"</title>
				<polygon class="PF02594" points="1323,40 1327,28 1328,28 1328,52 1327,52" stroke-linejoin="round" width="6" height="24" fill="rgb(60,197,123)" stroke="rgb(47,157,98)" stroke-width="1" opacity="0.75" />
			</g>
		</g>
		<g>
			<title> (ctg176_113)</title>
			<polygon class=" (ctg176_113)" points="1330,40 1338,10 1338,70" fill="rgb(255,255,255)" fill-opacity="1.0" stroke="rgb(0,0,0)" stroke-width="2"  />
			<g>
				<title>YGGT (PF02325)
"YGGT family"</title>
				<polygon class="PF02325" points="1333,40 1336,28 1337,28 1337,52 1336,52" stroke-linejoin="round" width="7" height="24" fill="rgb(224,215,98)" stroke="rgb(179,172,78)" stroke-width="1" opacity="0.75" />
			</g>
		</g>
		<g>
			<title> (ctg176_114)</title>
			<polygon class=" (ctg176_114)" points="1339,40 1362,10 1362,70" fill="rgb(255,255,255)" fill-opacity="1.0" stroke="rgb(0,0,0)" stroke-width="2"  />
			<g>
				<title>Ala_racemase_N (PF01168)
"Alanine racemase, N-terminal domain"</title>
				<polygon class="PF01168" points="1343,40 1352,28 1360,28 1360,52 1352,52" stroke-linejoin="round" width="21" height="24" fill="rgb(87,82,180)" stroke="rgb(69,65,144)" stroke-width="1" opacity="0.75" />
			</g>
		</g>
		<g>
			<title> (ctg176_115)</title>
			<polygon class=" (ctg176_115)" points="1363,40 1390,10 1390,70" fill="rgb(255,255,255)" fill-opacity="1.0" stroke="rgb(0,0,0)" stroke-width="2"  />
			<g>
				<title>FtsZ_C (PF12327)
"FtsZ family, C-terminal domain"</title>
				<polygon class="PF12327" points="1368,39 1377,29 1377,51 1368,41" stroke-linejoin="round" width="9" height="24" fill="rgb(147,202,55)" stroke="rgb(117,161,44)" stroke-width="1" opacity="0.75" />
			</g>
			<g>
				<title>Tubulin (PF00091)
"Tubulin/FtsZ family, GTPase domain"</title>
				<rect class="PF00091" x="1382" y="28" stroke-linejoin="round" width="8" height="24" fill="rgb(201,222,73)" stroke="rgb(160,177,58)" stroke-width="1" opacity="0.75" />
			</g>
		</g>
	</g>
</svg>
