<svg version="1.1" baseProfile="full" xmlns="http://www.w3.org/2000/svg" width="1025.0333333333333" height="80">
	<g>
		<line x1="10" y1="40.0" x2="1015.0333333333333" y2="40.0" style="stroke:rgb(70,70,70); stroke-width:3 "/>
		<g>
			<title> (ctg2077_1)</title>
			<polygon class=" (ctg2077_1)" points="10,40 15,10 15,70" fill="rgb(255,255,255)" fill-opacity="1.0" stroke="rgb(0,0,0)" stroke-width="2"  />
		</g>
		<g>
			<title> (ctg2077_2)</title>
			<polygon class=" (ctg2077_2)" points="15,40 20,10 20,70" fill="rgb(255,255,255)" fill-opacity="1.0" stroke="rgb(0,0,0)" stroke-width="2"  />
		</g>
		<g>
			<title> (ctg2077_3)</title>
			<polygon class=" (ctg2077_3)" points="28,10 35,40 28,70" fill="rgb(255,255,255)" fill-opacity="1.0" stroke="rgb(0,0,0)" stroke-width="2"  />
		</g>
		<g>
			<title> (ctg2077_4)</title>
			<polygon class=" (ctg2077_4)" points="37,10 41,40 37,70" fill="rgb(255,255,255)" fill-opacity="1.0" stroke="rgb(0,0,0)" stroke-width="2"  />
		</g>
		<g>
			<title> (ctg2077_5)</title>
			<polygon class=" (ctg2077_5)" points="43,10 51,40 43,70" fill="rgb(255,255,255)" fill-opacity="1.0" stroke="rgb(0,0,0)" stroke-width="2"  />
		</g>
		<g>
			<title> (ctg2077_6)</title>
			<polygon class=" (ctg2077_6)" points="48,40 60,10 60,70" fill="rgb(255,255,255)" fill-opacity="1.0" stroke="rgb(0,0,0)" stroke-width="2"  />
		</g>
		<g>
			<title> (ctg2077_7)</title>
			<polygon class=" (ctg2077_7)" points="61,10 65,40 61,70" fill="rgb(255,255,255)" fill-opacity="1.0" stroke="rgb(0,0,0)" stroke-width="2"  />
			<g>
				<title>PIN (PF01850)
"PIN domain"</title>
				<polygon class="PF01850" points="61,29 62,40 61,51" stroke-linejoin="round" width="3" height="24" fill="rgb(91,217,126)" stroke="rgb(72,173,100)" stroke-width="1" opacity="0.75" />
			</g>
		</g>
		<g>
			<title> (ctg2077_8)</title>
			<polygon class=" (ctg2077_8)" points="66,40 80,10 80,70" fill="rgb(255,255,255)" fill-opacity="1.0" stroke="rgb(0,0,0)" stroke-width="2"  />
		</g>
		<g>
			<title> (ctg2077_9)</title>
			<polygon class=" (ctg2077_9)" points="84,10 88,40 84,70" fill="rgb(255,255,255)" fill-opacity="1.0" stroke="rgb(0,0,0)" stroke-width="2"  />
		</g>
		<g>
			<title> (ctg2077_10)</title>
			<polygon class=" (ctg2077_10)" points="92,40 100,10 100,70" fill="rgb(255,255,255)" fill-opacity="1.0" stroke="rgb(0,0,0)" stroke-width="2"  />
		</g>
		<g>
			<title> (ctg2077_11)</title>
			<polygon class=" (ctg2077_11)" points="106,40 115,10 115,70" fill="rgb(255,255,255)" fill-opacity="1.0" stroke="rgb(0,0,0)" stroke-width="2"  />
			<g>
				<title>HTH_37 (PF13744)
"Helix-turn-helix domain"</title>
				<polygon class="PF13744" points="109,40 113,28 114,28 114,52 113,52" stroke-linejoin="round" width="8" height="24" fill="rgb(113,218,98)" stroke="rgb(90,174,78)" stroke-width="1" opacity="0.75" />
			</g>
		</g>
		<g>
			<title> (ctg2077_12)</title>
			<polygon class=" (ctg2077_12)" points="115,40 124,10 124,70" fill="rgb(255,255,255)" fill-opacity="1.0" stroke="rgb(0,0,0)" stroke-width="2"  />
			<g>
				<title>Gp49 (PF05973)
"Phage derived protein Gp49-like (DUF891)"</title>
				<polygon class="PF05973" points="118,40 122,28 123,28 123,52 122,52" stroke-linejoin="round" width="8" height="24" fill="rgb(81,198,58)" stroke="rgb(64,158,46)" stroke-width="1" opacity="0.75" />
			</g>
		</g>
		<g>
			<title> (ctg2077_13)</title>
			<polygon class=" (ctg2077_13)" points="124,40 140,10 140,70" fill="rgb(255,255,255)" fill-opacity="1.0" stroke="rgb(0,0,0)" stroke-width="2"  />
		</g>
		<g>
			<title> (ctg2077_14)</title>
			<polygon class=" (ctg2077_14)" points="157,40 167,10 167,70" fill="rgb(255,255,255)" fill-opacity="1.0" stroke="rgb(0,0,0)" stroke-width="2"  />
		</g>
		<g>
			<title> (ctg2077_15)</title>
			<polygon class=" (ctg2077_15)" points="258,25 206,25 206,10 176,40 206,70 206,55 258,55" fill="rgb(255,255,255)" fill-opacity="1.0" stroke="rgb(0,0,0)" stroke-width="2"  />
			<g>
				<title>DUF305 (PF03713)
"Domain of unknown function (DUF305)"</title>
				<rect class="PF03713" x="237" y="28" stroke-linejoin="round" width="15" height="24" fill="rgb(184,86,182)" stroke="rgb(147,68,145)" stroke-width="1" opacity="0.75" />
			</g>
		</g>
		<g>
			<title> (ctg2077_16)</title>
			<polygon class=" (ctg2077_16)" points="351,25 315,25 315,10 285,40 315,70 315,55 351,55" fill="rgb(255,255,255)" fill-opacity="1.0" stroke="rgb(0,0,0)" stroke-width="2"  />
			<g>
				<title>PQQ_2 (PF13360)
"PQQ-like domain"</title>
				<polygon class="PF13360" points="289,40 296,33 296,47" stroke-linejoin="round" width="11" height="24" fill="rgb(98,210,146)" stroke="rgb(78,168,116)" stroke-width="1" opacity="0.75" />
			</g>
			<g>
				<title>PQQ_2 (PF13360)
"PQQ-like domain"</title>
				<rect class="PF13360" x="326" y="28" stroke-linejoin="round" width="19" height="24" fill="rgb(98,210,146)" stroke="rgb(78,168,116)" stroke-width="1" opacity="0.75" />
			</g>
		</g>
		<g>
			<title> (ctg2077_17)</title>
			<polygon class=" (ctg2077_17)" points="425,25 381,25 381,10 351,40 381,70 381,55 425,55" fill="rgb(255,255,255)" fill-opacity="1.0" stroke="rgb(0,0,0)" stroke-width="2"  />
			<g>
				<title>STAS (PF01740)
"STAS domain"</title>
				<polygon class="PF01740" points="367,28 367,28 377,28 377,52 367,52 367,52" stroke-linejoin="round" width="10" height="24" fill="rgb(219,58,116)" stroke="rgb(175,46,92)" stroke-width="1" opacity="0.75" />
			</g>
			<g>
				<title>Sulfate_transp (PF00916)
"Sulfate permease family"</title>
				<rect class="PF00916" x="384" y="28" stroke-linejoin="round" width="38" height="24" fill="rgb(189,61,212)" stroke="rgb(151,48,169)" stroke-width="1" opacity="0.75" />
			</g>
		</g>
		<g>
			<title> (ctg2077_18)</title>
			<polygon class=" (ctg2077_18)" points="425,40 437,10 437,70" fill="rgb(255,255,255)" fill-opacity="1.0" stroke="rgb(0,0,0)" stroke-width="2"  />
		</g>
		<g>
			<title> (ctg2077_19)</title>
			<polygon class=" (ctg2077_19)" points="442,40 446,10 446,70" fill="rgb(255,255,255)" fill-opacity="1.0" stroke="rgb(0,0,0)" stroke-width="2"  />
		</g>
		<g>
			<title> (ctg2077_20)</title>
			<polygon class=" (ctg2077_20)" points="448,40 461,10 461,70" fill="rgb(255,255,255)" fill-opacity="1.0" stroke="rgb(0,0,0)" stroke-width="2"  />
		</g>
		<g>
			<title> (ctg2077_21)</title>
			<polygon class=" (ctg2077_21)" points="475,10 495,40 475,70" fill="rgb(255,255,255)" fill-opacity="1.0" stroke="rgb(0,0,0)" stroke-width="2"  />
		</g>
		<g>
			<title> (ctg2077_22)</title>
			<polygon class=" (ctg2077_22)" points="508,10 525,40 508,70" fill="rgb(255,255,255)" fill-opacity="1.0" stroke="rgb(0,0,0)" stroke-width="2"  />
			<g>
				<title>Acetyltransf_7 (PF13508)
"Acetyltransferase (GNAT) domain"</title>
				<polygon class="PF13508" points="514,28 515,28 522,40 515,52 514,52" stroke-linejoin="round" width="9" height="24" fill="rgb(183,210,60)" stroke="rgb(146,168,48)" stroke-width="1" opacity="0.75" />
			</g>
		</g>
		<g>
			<title> (ctg2077_23)</title>
			<polygon class=" (ctg2077_23)" points="529,25 584,25 584,10 614,40 584,70 584,55 529,55" fill="rgb(255,255,255)" fill-opacity="1.0" stroke="rgb(0,0,0)" stroke-width="2"  />
			<g>
				<title>CarboxypepD_reg (PF13620)
"Carboxypeptidase regulatory-like domain"</title>
				<rect class="PF13620" x="534" y="28" stroke-linejoin="round" width="8" height="24" fill="rgb(201,63,96)" stroke="rgb(160,50,76)" stroke-width="1" opacity="0.75" />
			</g>
			<g>
				<title>TonB_dep_Rec (PF00593)
"TonB dependent receptor"</title>
				<polygon class="PF00593" points="559,28 598,28 610,40 598,52 559,52" stroke-linejoin="round" width="53" height="24" fill="rgb(171,200,51)" stroke="rgb(136,160,40)" stroke-width="1" opacity="0.75" />
			</g>
		</g>
		<g>
			<title> (ctg2077_24)</title>
			<polygon class=" (ctg2077_24)" points="618,25 672,25 672,10 702,40 672,70 672,55 618,55" fill="rgb(255,255,255)" fill-opacity="1.0" stroke="rgb(0,0,0)" stroke-width="2"  />
			<g>
				<title>AMP-binding (PF00501)
"AMP-binding enzyme"</title>
				<rect class="PF00501" x="619" y="28" stroke-linejoin="round" width="40" height="24" fill="rgb(60,217,223)" stroke="rgb(48,173,178)" stroke-width="1" opacity="0.75" />
			</g>
			<g>
				<title>PP-binding (PF00550)
"Phosphopantetheine attachment site"</title>
				<rect class="PF00550" x="670" y="28" stroke-linejoin="round" width="6" height="24" fill="rgb(103,191,88)" stroke="rgb(82,152,70)" stroke-width="1" opacity="0.75" />
			</g>
			<g>
				<title>Acyltransferase (PF01553)
"Acyltransferase"</title>
				<polygon class="PF01553" points="682,28 685,28 696,39 696,41 685,52 682,52" stroke-linejoin="round" width="14" height="24" fill="rgb(87,176,216)" stroke="rgb(69,140,172)" stroke-width="1" opacity="0.75" />
			</g>
		</g>
		<g>
			<title> (ctg2077_25)</title>
			<polygon class=" (ctg2077_25)" points="704,40 716,10 716,70" fill="rgb(255,255,255)" fill-opacity="1.0" stroke="rgb(0,0,0)" stroke-width="2"  />
			<g>
				<title>GyrI-like (PF06445)
"GyrI-like small molecule binding domain"</title>
				<polygon class="PF06445" points="707,40 712,28 716,28 716,52 712,52" stroke-linejoin="round" width="12" height="24" fill="rgb(61,183,118)" stroke="rgb(48,146,94)" stroke-width="1" opacity="0.75" />
			</g>
		</g>
		<g>
			<title> (ctg2077_26)</title>
			<polygon class=" (ctg2077_26)" points="771,25 754,25 754,10 724,40 754,70 754,55 771,55" fill="rgb(255,255,255)" fill-opacity="1.0" stroke="rgb(0,0,0)" stroke-width="2"  />
			<g>
				<title>DUF1501 (PF07394)
"Protein of unknown function (DUF1501)"</title>
				<polygon class="PF07394" points="728,40 740,28 765,28 765,52 740,52" stroke-linejoin="round" width="41" height="24" fill="rgb(199,225,81)" stroke="rgb(159,180,64)" stroke-width="1" opacity="0.75" />
			</g>
		</g>
		<g>
			<title> (ctg2077_27)</title>
			<polygon class=" (ctg2077_27)" points="832,25 802,25 802,10 772,40 802,70 802,55 832,55" fill="rgb(255,255,255)" fill-opacity="1.0" stroke="rgb(0,0,0)" stroke-width="2"  />
			<g>
				<title>PSD1 (PF07587)
"Protein of unknown function (DUF1553)"</title>
				<polygon class="PF07587" points="777,39 788,28 802,28 802,52 788,52 777,41" stroke-linejoin="round" width="25" height="24" fill="rgb(55,214,194)" stroke="rgb(44,171,155)" stroke-width="1" opacity="0.75" />
			</g>
			<g>
				<title>PSCyt2 (PF07583)
"Protein of unknown function (DUF1549)"</title>
				<rect class="PF07583" x="812" y="28" stroke-linejoin="round" width="19" height="24" fill="rgb(224,195,67)" stroke="rgb(179,156,53)" stroke-width="1" opacity="0.75" />
			</g>
		</g>
		<g>
			<title> (ctg2077_28)</title>
			<polygon class=" (ctg2077_28)" points="844,10 854,40 844,70" fill="rgb(255,255,255)" fill-opacity="1.0" stroke="rgb(0,0,0)" stroke-width="2"  />
		</g>
		<g>
			<title> (ctg2077_29)</title>
			<polygon class=" (ctg2077_29)" points="858,25 868,25 868,10 898,40 868,70 868,55 858,55" fill="rgb(255,255,255)" fill-opacity="1.0" stroke="rgb(0,0,0)" stroke-width="2"  />
			<g>
				<title>OrfB_IS605 (PF01385)
"Probable transposase"</title>
				<polygon class="PF01385" points="874,28 882,28 885,31 885,49 882,52 874,52" stroke-linejoin="round" width="11" height="24" fill="rgb(95,115,208)" stroke="rgb(76,92,166)" stroke-width="1" opacity="0.75" />
			</g>
			<g>
				<title>OrfB_Zn_ribbon (PF07282)
"Putative transposase DNA-binding domain"</title>
				<polygon class="PF07282" points="888,34 894,40 894,40 888,46" stroke-linejoin="round" width="6" height="24" fill="rgb(188,84,136)" stroke="rgb(150,67,108)" stroke-width="1" opacity="0.75" />
			</g>
		</g>
		<g>
			<title> (ctg2077_30)</title>
			<polygon class=" (ctg2077_30)" points="899,25 908,25 908,10 938,40 908,70 908,55 899,55" fill="rgb(255,255,255)" fill-opacity="1.0" stroke="rgb(0,0,0)" stroke-width="2"  />
			<g>
				<title>BNR_2 (PF13088)
"BNR repeat-like domain"</title>
				<polygon class="PF13088" points="905,28 922,28 934,40 922,52 905,52" stroke-linejoin="round" width="30" height="24" fill="rgb(196,211,74)" stroke="rgb(156,168,59)" stroke-width="1" opacity="0.75" />
			</g>
		</g>
		<g>
			<title> (ctg2077_31)</title>
			<polygon class=" (ctg2077_31)" points="939,10 959,40 939,70" fill="rgb(255,255,255)" fill-opacity="1.0" stroke="rgb(0,0,0)" stroke-width="2"  />
			<g>
				<title>LysE (PF01810)
"LysE type translocator"</title>
				<polygon class="PF01810" points="940,28 947,28 955,40 947,52 940,52" stroke-linejoin="round" width="18" height="24" fill="rgb(198,75,167)" stroke="rgb(158,60,133)" stroke-width="1" opacity="0.75" />
			</g>
		</g>
		<g>
			<title> (ctg2077_32)</title>
			<polygon class=" (ctg2077_32)" points="957,40 969,10 969,70" fill="rgb(255,255,255)" fill-opacity="1.0" stroke="rgb(0,0,0)" stroke-width="2"  />
		</g>
		<g>
			<title> (ctg2077_33)</title>
			<polygon class=" (ctg2077_33)" points="972,10 1000,40 972,70" fill="rgb(255,255,255)" fill-opacity="1.0" stroke="rgb(0,0,0)" stroke-width="2"  />
		</g>
	</g>
</svg>
