<svg version="1.1" baseProfile="full" xmlns="http://www.w3.org/2000/svg" width="1595.7333333333333" height="80">
	<g>
		<line x1="10" y1="40.0" x2="1585.7333333333333" y2="40.0" style="stroke:rgb(70,70,70); stroke-width:3 "/>
		<g>
			<title> (ctg16_197)</title>
			<polygon class=" (ctg16_197)" points="18,25 48,25 48,10 78,40 48,70 48,55 18,55" fill="rgb(255,255,255)" fill-opacity="1.0" stroke="rgb(0,0,0)" stroke-width="2"  />
		</g>
		<g>
			<title> (ctg16_198)</title>
			<polygon class=" (ctg16_198)" points="80,25 129,25 129,10 159,40 129,70 129,55 80,55" fill="rgb(255,255,255)" fill-opacity="1.0" stroke="rgb(0,0,0)" stroke-width="2"  />
		</g>
		<g>
			<title> (ctg16_199)</title>
			<polygon class=" (ctg16_199)" points="160,25 189,25 189,10 219,40 189,70 189,55 160,55" fill="rgb(255,255,255)" fill-opacity="1.0" stroke="rgb(0,0,0)" stroke-width="2"  />
			<g>
				<title>FlgD_ig (PF13860)
"FlgD Ig-like domain"</title>
				<polygon class="PF13860" points="210,35 215,40 210,45" stroke-linejoin="round" width="7" height="24" fill="rgb(135,90,185)" stroke="rgb(108,72,148)" stroke-width="1" opacity="0.75" />
			</g>
		</g>
		<g>
			<title> (ctg16_200)</title>
			<polygon class=" (ctg16_200)" points="223,25 280,25 280,10 310,40 280,70 280,55 223,55" fill="rgb(255,255,255)" fill-opacity="1.0" stroke="rgb(0,0,0)" stroke-width="2"  />
		</g>
		<g>
			<title> (ctg16_201)</title>
			<polygon class=" (ctg16_201)" points="309,25 322,25 322,10 352,40 322,70 322,55 309,55" fill="rgb(255,255,255)" fill-opacity="1.0" stroke="rgb(0,0,0)" stroke-width="2"  />
		</g>
		<g>
			<title> (ctg16_202)</title>
			<polygon class=" (ctg16_202)" points="354,10 379,40 354,70" fill="rgb(255,255,255)" fill-opacity="1.0" stroke="rgb(0,0,0)" stroke-width="2"  />
		</g>
		<g>
			<title> (ctg16_203)</title>
			<polygon class=" (ctg16_203)" points="382,25 506,25 506,10 536,40 506,70 506,55 382,55" fill="rgb(255,255,255)" fill-opacity="1.0" stroke="rgb(0,0,0)" stroke-width="2"  />
			<g>
				<title>Peptidase_M28 (PF04389)
"Peptidase family M28"</title>
				<rect class="PF04389" x="409" y="28" stroke-linejoin="round" width="22" height="24" fill="rgb(190,82,105)" stroke="rgb(152,65,84)" stroke-width="1" opacity="0.75" />
			</g>
		</g>
		<g>
			<title> (ctg16_204)</title>
			<polygon class=" (ctg16_204)" points="536,25 569,25 569,10 599,40 569,70 569,55 536,55" fill="rgb(255,255,255)" fill-opacity="1.0" stroke="rgb(0,0,0)" stroke-width="2"  />
		</g>
		<g>
			<title> (ctg16_205)</title>
			<polygon class=" (ctg16_205)" points="600,25 636,25 636,10 666,40 636,70 636,55 600,55" fill="rgb(255,255,255)" fill-opacity="1.0" stroke="rgb(0,0,0)" stroke-width="2"  />
		</g>
		<g>
			<title> (ctg16_206)</title>
			<polygon class=" (ctg16_206)" points="666,40 675,10 675,70" fill="rgb(255,255,255)" fill-opacity="1.0" stroke="rgb(0,0,0)" stroke-width="2"  />
		</g>
		<g>
			<title> (ctg16_207)</title>
			<polygon class=" (ctg16_207)" points="918,25 706,25 706,10 676,40 706,70 706,55 918,55" fill="rgb(255,255,255)" fill-opacity="1.0" stroke="rgb(0,0,0)" stroke-width="2"  />
			<g>
				<title>PP-binding (PF00550)
"Phosphopantetheine attachment site"</title>
				<polygon class="PF00550" points="681,39 687,33 687,47 681,41" stroke-linejoin="round" width="6" height="24" fill="rgb(103,191,88)" stroke="rgb(82,152,70)" stroke-width="1" opacity="0.75" />
			</g>
			<g>
				<title>KR (PF08659)
"KR domain"</title>
				<rect class="PF08659" x="696" y="28" stroke-linejoin="round" width="18" height="24" fill="rgb(66,209,188)" stroke="rgb(52,167,150)" stroke-width="1" opacity="0.75" />
			</g>
			<g>
				<title>ADH_zinc_N_2 (PF13602)
"Zinc-binding dehydrogenase"</title>
				<rect class="PF13602" x="717" y="28" stroke-linejoin="round" width="13" height="24" fill="rgb(101,131,226)" stroke="rgb(80,104,180)" stroke-width="1" opacity="0.75" />
			</g>
			<g>
				<title>PS-DH (PF14765)
"Polyketide synthase dehydratase"</title>
				<rect class="PF14765" x="790" y="28" stroke-linejoin="round" width="29" height="24" fill="rgb(173,56,182)" stroke="rgb(138,44,145)" stroke-width="1" opacity="0.75" />
			</g>
			<g>
				<title>Acyl_transf_1 (PF00698)
"Acyl transferase domain"</title>
				<rect class="PF00698" x="824" y="28" stroke-linejoin="round" width="32" height="24" fill="rgb(59,176,209)" stroke="rgb(47,140,167)" stroke-width="1" opacity="0.75" />
			</g>
			<g>
				<title>KAsynt_C_assoc (PF16197)
"Ketoacyl-synthetase C-terminal extension"</title>
				<rect class="PF16197" x="860" y="28" stroke-linejoin="round" width="11" height="24" fill="rgb(240,150,172)" stroke="rgb(192,120,137)" stroke-width="1" opacity="0.75" />
			</g>
			<g>
				<title>Ketoacyl-synt_C (PF02801)
"Beta-ketoacyl synthase, C-terminal domain"</title>
				<rect class="PF02801" x="872" y="28" stroke-linejoin="round" width="12" height="24" fill="rgb(215,78,102)" stroke="rgb(172,62,81)" stroke-width="1" opacity="0.75" />
			</g>
			<g>
				<title>ketoacyl-synt (PF00109)
"Beta-ketoacyl synthase, N-terminal domain"</title>
				<rect class="PF00109" x="885" y="28" stroke-linejoin="round" width="24" height="24" fill="rgb(112,116,228)" stroke="rgb(89,92,182)" stroke-width="1" opacity="0.75" />
			</g>
		</g>
		<g>
			<title> (ctg16_208)</title>
			<polygon class=" (ctg16_208)" points="932,25 947,25 947,10 977,40 947,70 947,55 932,55" fill="rgb(255,255,255)" fill-opacity="1.0" stroke="rgb(0,0,0)" stroke-width="2"  />
			<g>
				<title>AAA_14 (PF13173)
"AAA domain"</title>
				<rect class="PF13173" x="933" y="28" stroke-linejoin="round" width="13" height="24" fill="rgb(77,222,177)" stroke="rgb(61,177,141)" stroke-width="1" opacity="0.75" />
			</g>
			<g>
				<title>DUF4143 (PF13635)
"Domain of unknown function (DUF4143)"</title>
				<polygon class="PF13635" points="954,28 961,28 970,37 970,43 961,52 954,52" stroke-linejoin="round" width="16" height="24" fill="rgb(119,89,210)" stroke="rgb(95,71,168)" stroke-width="1" opacity="0.75" />
			</g>
		</g>
		<g>
			<title> (ctg16_209)</title>
			<polygon class=" (ctg16_209)" points="1100,25 1010,25 1010,10 980,40 1010,70 1010,55 1100,55" fill="rgb(255,255,255)" fill-opacity="1.0" stroke="rgb(0,0,0)" stroke-width="2"  />
			<g>
				<title>LRR_4 (PF12799)
"Leucine Rich repeats (2 copies)"</title>
				<rect class="PF12799" x="1014" y="28" stroke-linejoin="round" width="4" height="24" fill="rgb(73,220,64)" stroke="rgb(58,176,51)" stroke-width="1" opacity="0.75" />
			</g>
			<g>
				<title>LRR_4 (PF12799)
"Leucine Rich repeats (2 copies)"</title>
				<rect class="PF12799" x="1023" y="28" stroke-linejoin="round" width="4" height="24" fill="rgb(73,220,64)" stroke="rgb(58,176,51)" stroke-width="1" opacity="0.75" />
			</g>
			<g>
				<title>LRR_4 (PF12799)
"Leucine Rich repeats (2 copies)"</title>
				<rect class="PF12799" x="1031" y="28" stroke-linejoin="round" width="4" height="24" fill="rgb(73,220,64)" stroke="rgb(58,176,51)" stroke-width="1" opacity="0.75" />
			</g>
			<g>
				<title>LRR_4 (PF12799)
"Leucine Rich repeats (2 copies)"</title>
				<rect class="PF12799" x="1044" y="28" stroke-linejoin="round" width="4" height="24" fill="rgb(73,220,64)" stroke="rgb(58,176,51)" stroke-width="1" opacity="0.75" />
			</g>
			<g>
				<title>LRR_4 (PF12799)
"Leucine Rich repeats (2 copies)"</title>
				<rect class="PF12799" x="1053" y="28" stroke-linejoin="round" width="4" height="24" fill="rgb(73,220,64)" stroke="rgb(58,176,51)" stroke-width="1" opacity="0.75" />
			</g>
			<g>
				<title>fn3 (PF00041)
"Fibronectin type III domain"</title>
				<rect class="PF00041" x="1065" y="28" stroke-linejoin="round" width="7" height="24" fill="rgb(203,70,135)" stroke="rgb(162,56,107)" stroke-width="1" opacity="0.75" />
			</g>
			<g>
				<title>FlgD_ig (PF13860)
"FlgD Ig-like domain"</title>
				<rect class="PF13860" x="1084" y="28" stroke-linejoin="round" width="6" height="24" fill="rgb(135,90,185)" stroke="rgb(108,72,148)" stroke-width="1" opacity="0.75" />
			</g>
		</g>
		<g>
			<title> (ctg16_210)</title>
			<polygon class=" (ctg16_210)" points="1143,25 1139,25 1139,10 1109,40 1139,70 1139,55 1143,55" fill="rgb(255,255,255)" fill-opacity="1.0" stroke="rgb(0,0,0)" stroke-width="2"  />
			<g>
				<title>Ldh_2 (PF02615)
"Malate/L-lactate dehydrogenase"</title>
				<polygon class="PF02615" points="1113,40 1125,28 1143,28 1143,52 1125,52" stroke-linejoin="round" width="33" height="24" fill="rgb(125,220,90)" stroke="rgb(100,176,72)" stroke-width="1" opacity="0.75" />
			</g>
		</g>
		<g>
			<title> (ctg16_211)</title>
			<polygon class=" (ctg16_211)" points="1143,40 1157,10 1157,70" fill="rgb(255,255,255)" fill-opacity="1.0" stroke="rgb(0,0,0)" stroke-width="2"  />
			<g>
				<title>PSCyt1 (PF07635)
"Planctomycete cytochrome C"</title>
				<polygon class="PF07635" points="1146,40 1151,30 1151,50" stroke-linejoin="round" width="6" height="24" fill="rgb(198,62,63)" stroke="rgb(158,49,50)" stroke-width="1" opacity="0.75" />
			</g>
		</g>
		<g>
			<title> (ctg16_212)</title>
			<polygon class=" (ctg16_212)" points="1163,25 1184,25 1184,10 1214,40 1184,70 1184,55 1163,55" fill="rgb(255,255,255)" fill-opacity="1.0" stroke="rgb(0,0,0)" stroke-width="2"  />
			<g>
				<title>SSF (PF00474)
"Sodium:solute symporter family"</title>
				<polygon class="PF00474" points="1166,28 1198,28 1207,37 1207,43 1198,52 1166,52" stroke-linejoin="round" width="41" height="24" fill="rgb(49,186,178)" stroke="rgb(39,148,142)" stroke-width="1" opacity="0.75" />
			</g>
		</g>
		<g>
			<title> (ctg16_213)</title>
			<polygon class=" (ctg16_213)" points="1215,10 1221,40 1215,70" fill="rgb(255,255,255)" fill-opacity="1.0" stroke="rgb(0,0,0)" stroke-width="2"  />
		</g>
		<g>
			<title> (ctg16_214)</title>
			<polygon class=" (ctg16_214)" points="1221,25 1244,25 1244,10 1274,40 1244,70 1244,55 1221,55" fill="rgb(255,255,255)" fill-opacity="1.0" stroke="rgb(0,0,0)" stroke-width="2"  />
			<g>
				<title>VCBS (PF13517)
"Repeat domain in Vibrio, Colwellia, Bradyrhizobium and Shewanella"</title>
				<rect class="PF13517" x="1227" y="28" stroke-linejoin="round" width="6" height="24" fill="rgb(77,199,76)" stroke="rgb(61,159,60)" stroke-width="1" opacity="0.75" />
			</g>
			<g>
				<title>VCBS (PF13517)
"Repeat domain in Vibrio, Colwellia, Bradyrhizobium and Shewanella"</title>
				<rect class="PF13517" x="1245" y="28" stroke-linejoin="round" width="6" height="24" fill="rgb(77,199,76)" stroke="rgb(61,159,60)" stroke-width="1" opacity="0.75" />
			</g>
			<g>
				<title>UnbV_ASPIC (PF07593)
"ASPIC and UnbV"</title>
				<polygon class="PF07593" points="1267,37 1270,40 1267,43" stroke-linejoin="round" width="6" height="24" fill="rgb(157,212,86)" stroke="rgb(125,169,68)" stroke-width="1" opacity="0.75" />
			</g>
		</g>
		<g>
			<title> (ctg16_215)</title>
			<polygon class=" (ctg16_215)" points="1276,10 1303,40 1276,70" fill="rgb(255,255,255)" fill-opacity="1.0" stroke="rgb(0,0,0)" stroke-width="2"  />
			<g>
				<title>PhyH (PF05721)
"Phytanoyl-CoA dioxygenase (PhyH)"</title>
				<polygon class="PF05721" points="1277,28 1287,28 1298,39 1298,41 1287,52 1277,52" stroke-linejoin="round" width="21" height="24" fill="rgb(72,132,214)" stroke="rgb(57,105,171)" stroke-width="1" opacity="0.75" />
			</g>
		</g>
		<g>
			<title> (ctg16_216)</title>
			<polygon class=" (ctg16_216)" points="1304,25 1339,25 1339,10 1369,40 1339,70 1339,55 1304,55" fill="rgb(255,255,255)" fill-opacity="1.0" stroke="rgb(0,0,0)" stroke-width="2"  />
		</g>
		<g>
			<title> (ctg16_217)</title>
			<polygon class=" (ctg16_217)" points="1372,25 1410,25 1410,10 1440,40 1410,70 1410,55 1372,55" fill="rgb(255,255,255)" fill-opacity="1.0" stroke="rgb(0,0,0)" stroke-width="2"  />
			<g>
				<title>FlgD_ig (PF13860)
"FlgD Ig-like domain"</title>
				<polygon class="PF13860" points="1431,35 1436,40 1431,45" stroke-linejoin="round" width="7" height="24" fill="rgb(135,90,185)" stroke="rgb(108,72,148)" stroke-width="1" opacity="0.75" />
			</g>
		</g>
		<g>
			<title> (ctg16_218)</title>
			<polygon class=" (ctg16_218)" points="1441,25 1475,25 1475,10 1505,40 1475,70 1475,55 1441,55" fill="rgb(255,255,255)" fill-opacity="1.0" stroke="rgb(0,0,0)" stroke-width="2"  />
			<g>
				<title>FlgD_ig (PF13860)
"FlgD Ig-like domain"</title>
				<polygon class="PF13860" points="1498,37 1501,40 1498,43" stroke-linejoin="round" width="6" height="24" fill="rgb(135,90,185)" stroke="rgb(108,72,148)" stroke-width="1" opacity="0.75" />
			</g>
		</g>
		<g>
			<title> (ctg16_219)</title>
			<polygon class=" (ctg16_219)" points="1507,25 1553,25 1553,10 1583,40 1553,70 1553,55 1507,55" fill="rgb(255,255,255)" fill-opacity="1.0" stroke="rgb(0,0,0)" stroke-width="2"  />
		</g>
	</g>
</svg>
