<svg version="1.1" baseProfile="full" xmlns="http://www.w3.org/2000/svg" width="1061.9666666666667" height="80">
	<g>
		<line x1="10" y1="40.0" x2="1051.9666666666667" y2="40.0" style="stroke:rgb(70,70,70); stroke-width:3 "/>
		<g>
			<title> (ctg1894_4)</title>
			<polygon class=" (ctg1894_4)" points="73,25 64,25 64,10 34,40 64,70 64,55 73,55" fill="rgb(255,255,255)" fill-opacity="1.0" stroke="rgb(0,0,0)" stroke-width="2"  />
			<g>
				<title>DUF4432 (PF14486)
"Domain of unknown function (DUF4432)"</title>
				<polygon class="PF14486" points="38,40 50,28 68,28 68,52 50,52" stroke-linejoin="round" width="31" height="24" fill="rgb(87,160,227)" stroke="rgb(69,128,181)" stroke-width="1" opacity="0.75" />
			</g>
		</g>
		<g>
			<title> (ctg1894_5)</title>
			<polygon class=" (ctg1894_5)" points="79,40 87,10 87,70" fill="rgb(255,255,255)" fill-opacity="1.0" stroke="rgb(0,0,0)" stroke-width="2"  />
		</g>
		<g>
			<title> (ctg1894_6)</title>
			<polygon class=" (ctg1894_6)" points="100,25 171,25 171,10 201,40 171,70 171,55 100,55" fill="rgb(255,255,255)" fill-opacity="1.0" stroke="rgb(0,0,0)" stroke-width="2"  />
			<g>
				<title>PSCyt1 (PF07635)
"Planctomycete cytochrome C"</title>
				<rect class="PF07635" x="105" y="28" stroke-linejoin="round" width="6" height="24" fill="rgb(198,62,63)" stroke="rgb(158,49,50)" stroke-width="1" opacity="0.75" />
			</g>
			<g>
				<title>PSCyt2 (PF07583)
"Protein of unknown function (DUF1549)"</title>
				<rect class="PF07583" x="116" y="28" stroke-linejoin="round" width="20" height="24" fill="rgb(224,195,67)" stroke="rgb(179,156,53)" stroke-width="1" opacity="0.75" />
			</g>
			<g>
				<title>PSD1 (PF07587)
"Protein of unknown function (DUF1553)"</title>
				<polygon class="PF07587" points="170,28 185,28 196,39 196,41 185,52 170,52" stroke-linejoin="round" width="26" height="24" fill="rgb(55,214,194)" stroke="rgb(44,171,155)" stroke-width="1" opacity="0.75" />
			</g>
		</g>
		<g>
			<title> (ctg1894_7)</title>
			<polygon class=" (ctg1894_7)" points="201,25 219,25 219,10 249,40 219,70 219,55 201,55" fill="rgb(255,255,255)" fill-opacity="1.0" stroke="rgb(0,0,0)" stroke-width="2"  />
			<g>
				<title>DUF1501 (PF07394)
"Protein of unknown function (DUF1501)"</title>
				<polygon class="PF07394" points="206,28 232,28 244,40 232,52 206,52" stroke-linejoin="round" width="41" height="24" fill="rgb(199,225,81)" stroke="rgb(159,180,64)" stroke-width="1" opacity="0.75" />
			</g>
		</g>
		<g>
			<title> (ctg1894_8)</title>
			<polygon class=" (ctg1894_8)" points="251,40 277,10 277,70" fill="rgb(255,255,255)" fill-opacity="1.0" stroke="rgb(0,0,0)" stroke-width="2"  />
			<g>
				<title>adh_short_C2 (PF13561)
"Enoyl-(Acyl carrier protein) reductase"</title>
				<polygon class="PF13561" points="255,40 266,28 275,28 275,52 266,52" stroke-linejoin="round" width="24" height="24" fill="rgb(73,205,127)" stroke="rgb(58,164,101)" stroke-width="1" opacity="0.75" />
			</g>
		</g>
		<g>
			<title> (ctg1894_9)</title>
			<polygon class=" (ctg1894_9)" points="279,40 299,10 299,70" fill="rgb(255,255,255)" fill-opacity="1.0" stroke="rgb(0,0,0)" stroke-width="2"  />
			<g>
				<title>Creatininase (PF02633)
"Creatinine amidohydrolase"</title>
				<polygon class="PF02633" points="283,40 291,28 298,28 298,52 291,52" stroke-linejoin="round" width="19" height="24" fill="rgb(216,60,128)" stroke="rgb(172,47,102)" stroke-width="1" opacity="0.75" />
			</g>
		</g>
		<g>
			<title> (ctg1894_10)</title>
			<polygon class=" (ctg1894_10)" points="299,10 304,40 299,70" fill="rgb(255,255,255)" fill-opacity="1.0" stroke="rgb(0,0,0)" stroke-width="2"  />
		</g>
		<g>
			<title> (ctg1894_11)</title>
			<polygon class=" (ctg1894_11)" points="325,25 333,25 333,10 363,40 333,70 333,55 325,55" fill="rgb(255,255,255)" fill-opacity="1.0" stroke="rgb(0,0,0)" stroke-width="2"  />
			<g>
				<title>BNR_2 (PF13088)
"BNR repeat-like domain"</title>
				<polygon class="PF13088" points="333,28 346,28 358,40 346,52 333,52" stroke-linejoin="round" width="28" height="24" fill="rgb(196,211,74)" stroke="rgb(156,168,59)" stroke-width="1" opacity="0.75" />
			</g>
		</g>
		<g>
			<title> (ctg1894_12)</title>
			<polygon class=" (ctg1894_12)" points="370,25 422,25 422,10 452,40 422,70 422,55 370,55" fill="rgb(255,255,255)" fill-opacity="1.0" stroke="rgb(0,0,0)" stroke-width="2"  />
		</g>
		<g>
			<title> (ctg1894_13)</title>
			<polygon class=" (ctg1894_13)" points="455,25 459,25 459,10 489,40 459,70 459,55 455,55" fill="rgb(255,255,255)" fill-opacity="1.0" stroke="rgb(0,0,0)" stroke-width="2"  />
			<g>
				<title>GFO_IDH_MocA (PF01408)
"Oxidoreductase family, NAD-binding Rossmann fold"</title>
				<rect class="PF01408" x="455" y="28" stroke-linejoin="round" width="12" height="24" fill="rgb(76,117,190)" stroke="rgb(60,93,152)" stroke-width="1" opacity="0.75" />
			</g>
			<g>
				<title>GFO_IDH_MocA_C (PF02894)
"Oxidoreductase family, C-terminal alpha/beta domain"</title>
				<polygon class="PF02894" points="468,28 473,28 481,36 481,44 473,52 468,52" stroke-linejoin="round" width="13" height="24" fill="rgb(195,223,82)" stroke="rgb(155,178,65)" stroke-width="1" opacity="0.75" />
			</g>
		</g>
		<g>
			<title> (ctg1894_14)</title>
			<polygon class=" (ctg1894_14)" points="491,10 513,40 491,70" fill="rgb(255,255,255)" fill-opacity="1.0" stroke="rgb(0,0,0)" stroke-width="2"  />
			<g>
				<title>CBM9_1 (PF06452)
"Carbohydrate family 9 binding domain-like"</title>
				<polygon class="PF06452" points="493,28 500,28 509,40 500,52 493,52" stroke-linejoin="round" width="19" height="24" fill="rgb(73,155,206)" stroke="rgb(58,123,164)" stroke-width="1" opacity="0.75" />
			</g>
		</g>
		<g>
			<title> (ctg1894_15)</title>
			<polygon class=" (ctg1894_15)" points="544,25 544,25 544,10 514,40 544,70 544,55 544,55" fill="rgb(255,255,255)" fill-opacity="1.0" stroke="rgb(0,0,0)" stroke-width="2"  />
			<g>
				<title>DUF1080 (PF06439)
"Domain of Unknown Function (DUF1080)"</title>
				<polygon class="PF06439" points="518,40 530,28 532,28 532,52 530,52" stroke-linejoin="round" width="18" height="24" fill="rgb(136,84,203)" stroke="rgb(108,67,162)" stroke-width="1" opacity="0.75" />
			</g>
		</g>
		<g>
			<title> (ctg1894_16)</title>
			<polygon class=" (ctg1894_16)" points="548,40 574,10 574,70" fill="rgb(255,255,255)" fill-opacity="1.0" stroke="rgb(0,0,0)" stroke-width="2"  />
			<g>
				<title>2-Hacid_dh_C (PF02826)
"D-isomer specific 2-hydroxyacid dehydrogenase, NAD binding domain"</title>
				<polygon class="PF02826" points="552,40 563,28 568,28 568,52 563,52" stroke-linejoin="round" width="17" height="24" fill="rgb(192,197,93)" stroke="rgb(153,157,74)" stroke-width="1" opacity="0.75" />
			</g>
		</g>
		<g>
			<title> (ctg1894_17)</title>
			<polygon class=" (ctg1894_17)" points="575,40 581,10 581,70" fill="rgb(255,255,255)" fill-opacity="1.0" stroke="rgb(0,0,0)" stroke-width="2"  />
		</g>
		<g>
			<title> (ctg1894_18)</title>
			<polygon class=" (ctg1894_18)" points="629,25 612,25 612,10 582,40 612,70 612,55 629,55" fill="rgb(255,255,255)" fill-opacity="1.0" stroke="rgb(0,0,0)" stroke-width="2"  />
			<g>
				<title>CarboxypepD_reg (PF13620)
"Carboxypeptidase regulatory-like domain"</title>
				<polygon class="PF13620" points="586,40 592,34 592,46" stroke-linejoin="round" width="10" height="24" fill="rgb(201,63,96)" stroke="rgb(160,50,76)" stroke-width="1" opacity="0.75" />
			</g>
		</g>
		<g>
			<title> (ctg1894_19)</title>
			<polygon class=" (ctg1894_19)" points="646,40 656,10 656,70" fill="rgb(255,255,255)" fill-opacity="1.0" stroke="rgb(0,0,0)" stroke-width="2"  />
		</g>
		<g>
			<title> (ctg1894_20)</title>
			<polygon class=" (ctg1894_20)" points="658,10 671,40 658,70" fill="rgb(255,255,255)" fill-opacity="1.0" stroke="rgb(0,0,0)" stroke-width="2"  />
		</g>
		<g>
			<title> (ctg1894_21)</title>
			<polygon class=" (ctg1894_21)" points="710,25 706,25 706,10 676,40 706,70 706,55 710,55" fill="rgb(255,255,255)" fill-opacity="1.0" stroke="rgb(0,0,0)" stroke-width="2"  />
			<g>
				<title>Chal_sti_synt_C (PF02797)
"Chalcone and stilbene synthases, C-terminal domain"</title>
				<polygon class="PF02797" points="680,40 690,30 690,50" stroke-linejoin="round" width="14" height="24" fill="rgb(139,212,63)" stroke="rgb(111,169,50)" stroke-width="1" opacity="0.75" />
			</g>
			<g>
				<title>Chal_sti_synt_N (PF00195)
"Chalcone and stilbene synthases, N-terminal domain"</title>
				<polygon class="PF00195" points="691,29 692,28 709,28 709,52 692,52 691,51" stroke-linejoin="round" width="18" height="24" fill="rgb(60,181,161)" stroke="rgb(47,144,128)" stroke-width="1" opacity="0.75" />
			</g>
		</g>
		<g>
			<title> (ctg1894_22)</title>
			<polygon class=" (ctg1894_22)" points="711,10 717,40 711,70" fill="rgb(255,255,255)" fill-opacity="1.0" stroke="rgb(0,0,0)" stroke-width="2"  />
		</g>
		<g>
			<title> (ctg1894_23)</title>
			<polygon class=" (ctg1894_23)" points="748,25 748,25 748,10 718,40 748,70 748,55 748,55" fill="rgb(255,255,255)" fill-opacity="1.0" stroke="rgb(0,0,0)" stroke-width="2"  />
			<g>
				<title>VWA_2 (PF13519)
"von Willebrand factor type A domain"</title>
				<polygon class="PF13519" points="730,32 734,28 739,28 739,52 734,52 730,48" stroke-linejoin="round" width="9" height="24" fill="rgb(58,213,93)" stroke="rgb(46,170,74)" stroke-width="1" opacity="0.75" />
			</g>
		</g>
		<g>
			<title> (ctg1894_24)</title>
			<polygon class=" (ctg1894_24)" points="753,40 777,10 777,70" fill="rgb(255,255,255)" fill-opacity="1.0" stroke="rgb(0,0,0)" stroke-width="2"  />
			<g>
				<title>MoaE (PF02391)
"MoaE protein"</title>
				<polygon class="PF02391" points="757,40 767,28 767,28 767,52 767,52" stroke-linejoin="round" width="11" height="24" fill="rgb(70,60,221)" stroke="rgb(56,48,176)" stroke-width="1" opacity="0.75" />
			</g>
			<g>
				<title>ThiS (PF02597)
"ThiS family"</title>
				<rect class="PF02597" x="769" y="28" stroke-linejoin="round" width="7" height="24" fill="rgb(73,117,196)" stroke="rgb(58,93,156)" stroke-width="1" opacity="0.75" />
			</g>
		</g>
		<g>
			<title> (ctg1894_25)</title>
			<polygon class=" (ctg1894_25)" points="787,10 793,40 787,70" fill="rgb(255,255,255)" fill-opacity="1.0" stroke="rgb(0,0,0)" stroke-width="2"  />
		</g>
		<g>
			<title> (ctg1894_26)</title>
			<polygon class=" (ctg1894_26)" points="800,10 806,40 800,70" fill="rgb(255,255,255)" fill-opacity="1.0" stroke="rgb(0,0,0)" stroke-width="2"  />
		</g>
		<g>
			<title> (ctg1894_27)</title>
			<polygon class=" (ctg1894_27)" points="809,10 818,40 809,70" fill="rgb(255,255,255)" fill-opacity="1.0" stroke="rgb(0,0,0)" stroke-width="2"  />
			<g>
				<title>Bac_DNA_binding (PF00216)
"Bacterial DNA-binding protein"</title>
				<polygon class="PF00216" points="809,28 811,28 815,40 811,52 809,52" stroke-linejoin="round" width="8" height="24" fill="rgb(73,205,204)" stroke="rgb(58,164,163)" stroke-width="1" opacity="0.75" />
			</g>
		</g>
		<g>
			<title> (ctg1894_28)</title>
			<polygon class=" (ctg1894_28)" points="819,25 820,25 820,10 850,40 820,70 820,55 819,55" fill="rgb(255,255,255)" fill-opacity="1.0" stroke="rgb(0,0,0)" stroke-width="2"  />
			<g>
				<title>VWA (PF00092)
"von Willebrand factor type A domain"</title>
				<polygon class="PF00092" points="828,28 834,28 844,38 844,42 834,52 828,52" stroke-linejoin="round" width="16" height="24" fill="rgb(199,215,59)" stroke="rgb(159,172,47)" stroke-width="1" opacity="0.75" />
			</g>
		</g>
		<g>
			<title> (ctg1894_29)</title>
			<polygon class=" (ctg1894_29)" points="860,40 889,10 889,70" fill="rgb(255,255,255)" fill-opacity="1.0" stroke="rgb(0,0,0)" stroke-width="2"  />
			<g>
				<title>zf-FPG_IleRS (PF06827)
"Zinc finger found in FPG and IleRS"</title>
				<polygon class="PF06827" points="864,40 862,42 862,38" stroke-linejoin="round" width="2" height="24" fill="rgb(167,86,192)" stroke="rgb(133,68,153)" stroke-width="1" opacity="0.75" />
			</g>
			<g>
				<title>H2TH (PF06831)
"Formamidopyrimidine-DNA glycosylase H2TH domain"</title>
				<polygon class="PF06831" points="865,39 874,30 874,50 865,41" stroke-linejoin="round" width="9" height="24" fill="rgb(57,227,194)" stroke="rgb(45,181,155)" stroke-width="1" opacity="0.75" />
			</g>
			<g>
				<title>Fapy_DNA_glyco (PF01149)
"Formamidopyrimidine-DNA glycosylase N-terminal domain"</title>
				<polygon class="PF01149" points="875,29 876,28 888,28 888,52 876,52 875,51" stroke-linejoin="round" width="13" height="24" fill="rgb(124,229,81)" stroke="rgb(99,183,64)" stroke-width="1" opacity="0.75" />
			</g>
		</g>
		<g>
			<title> (ctg1894_30)</title>
			<polygon class=" (ctg1894_30)" points="943,25 920,25 920,10 890,40 920,70 920,55 943,55" fill="rgb(255,255,255)" fill-opacity="1.0" stroke="rgb(0,0,0)" stroke-width="2"  />
			<g>
				<title>HD (PF01966)
"HD domain"</title>
				<polygon class="PF01966" points="898,36 906,28 907,28 907,52 906,52 898,44" stroke-linejoin="round" width="9" height="24" fill="rgb(92,193,119)" stroke="rgb(73,154,95)" stroke-width="1" opacity="0.75" />
			</g>
			<g>
				<title>PolyA_pol_RNAbd (PF12627)
"Probable RNA and SrmB- binding site of polymerase A"</title>
				<rect class="PF12627" x="914" y="28" stroke-linejoin="round" width="6" height="24" fill="rgb(106,197,60)" stroke="rgb(84,157,47)" stroke-width="1" opacity="0.75" />
			</g>
			<g>
				<title>PolyA_pol (PF01743)
"Poly A polymerase head domain"</title>
				<rect class="PF01743" x="923" y="28" stroke-linejoin="round" width="12" height="24" fill="rgb(216,132,105)" stroke="rgb(172,105,84)" stroke-width="1" opacity="0.75" />
			</g>
		</g>
		<g>
			<title> (ctg1894_31)</title>
			<polygon class=" (ctg1894_31)" points="943,40 964,10 964,70" fill="rgb(255,255,255)" fill-opacity="1.0" stroke="rgb(0,0,0)" stroke-width="2"  />
			<g>
				<title>Peptidase_S24 (PF00717)
"Peptidase S24-like"</title>
				<polygon class="PF00717" points="947,40 950,36 950,44" stroke-linejoin="round" width="6" height="24" fill="rgb(180,76,105)" stroke="rgb(144,60,83)" stroke-width="1" opacity="0.75" />
			</g>
			<g>
				<title>LexA_DNA_bind (PF01726)
"LexA DNA binding domain"</title>
				<rect class="PF01726" x="958" y="28" stroke-linejoin="round" width="6" height="24" fill="rgb(210,53,189)" stroke="rgb(168,42,151)" stroke-width="1" opacity="0.75" />
			</g>
		</g>
		<g>
			<title> (ctg1894_32)</title>
			<polygon class=" (ctg1894_32)" points="992,40 1008,10 1008,70" fill="rgb(255,255,255)" fill-opacity="1.0" stroke="rgb(0,0,0)" stroke-width="2"  />
			<g>
				<title>ALS_ss_C (PF10369)
"Small subunit of acetolactate synthase"</title>
				<polygon class="PF10369" points="995,40 999,33 999,47" stroke-linejoin="round" width="7" height="24" fill="rgb(93,227,61)" stroke="rgb(74,181,48)" stroke-width="1" opacity="0.75" />
			</g>
			<g>
				<title>ACT (PF01842)
"ACT domain"</title>
				<polygon class="PF01842" points="1001,29 1002,28 1007,28 1007,52 1002,52 1001,51" stroke-linejoin="round" width="6" height="24" fill="rgb(67,209,69)" stroke="rgb(53,167,55)" stroke-width="1" opacity="0.75" />
			</g>
		</g>
		<g>
			<title> (ctg1894_33)</title>
			<polygon class=" (ctg1894_33)" points="1042,25 1041,25 1041,10 1011,40 1041,70 1041,55 1042,55" fill="rgb(255,255,255)" fill-opacity="1.0" stroke="rgb(0,0,0)" stroke-width="2"  />
			<g>
				<title>TPP_enzyme_C (PF02775)
"Thiamine pyrophosphate enzyme, C-terminal TPP binding domain"</title>
				<polygon class="PF02775" points="1015,40 1027,28 1029,28 1029,52 1027,52" stroke-linejoin="round" width="15" height="24" fill="rgb(156,179,45)" stroke="rgb(124,143,36)" stroke-width="1" opacity="0.75" />
			</g>
			<g>
				<title>TPP_enzyme_M (PF00205)
"Thiamine pyrophosphate enzyme, central domain"</title>
				<rect class="PF00205" x="1035" y="28" stroke-linejoin="round" width="7" height="24" fill="rgb(149,194,69)" stroke="rgb(119,155,55)" stroke-width="1" opacity="0.75" />
			</g>
		</g>
		<g>
			<title> (ctg1894_34)</title>
			<polygon class=" (ctg1894_34)" points="1047,10 1051,40 1047,70" fill="rgb(255,255,255)" fill-opacity="1.0" stroke="rgb(0,0,0)" stroke-width="2"  />
		</g>
	</g>
</svg>
