<svg version="1.1" baseProfile="full" xmlns="http://www.w3.org/2000/svg" width="718.4666666666667" height="80">
	<g>
		<line x1="10" y1="40.0" x2="708.4666666666667" y2="40.0" style="stroke:rgb(70,70,70); stroke-width:3 "/>
		<g>
			<title> (ctg22_62)</title>
			<polygon class=" (ctg22_62)" points="28,40 55,10 55,70" fill="rgb(255,255,255)" fill-opacity="1.0" stroke="rgb(0,0,0)" stroke-width="2"  />
			<g>
				<title>TauE (PF01925)
"Sulfite exporter TauE/SafE"</title>
				<polygon class="PF01925" points="32,40 43,28 52,28 52,52 43,52" stroke-linejoin="round" width="23" height="24" fill="rgb(105,203,95)" stroke="rgb(84,162,76)" stroke-width="1" opacity="0.75" />
			</g>
		</g>
		<g>
			<title> (ctg22_63)</title>
			<polygon class=" (ctg22_63)" points="62,25 71,25 71,10 101,40 71,70 71,55 62,55" fill="rgb(255,255,255)" fill-opacity="1.0" stroke="rgb(0,0,0)" stroke-width="2"  />
		</g>
		<g>
			<title> (ctg22_64)</title>
			<polygon class=" (ctg22_64)" points="102,10 115,40 102,70" fill="rgb(255,255,255)" fill-opacity="1.0" stroke="rgb(0,0,0)" stroke-width="2"  />
			<g>
				<title>DUF35_N (PF12172)
"Rubredoxin-like zinc ribbon domain (DUF35_N)"</title>
				<rect class="PF12172" x="103" y="28" stroke-linejoin="round" width="3" height="24" fill="rgb(189,90,191)" stroke="rgb(151,72,152)" stroke-width="1" opacity="0.75" />
			</g>
			<g>
				<title>OB_aCoA_assoc (PF01796)
"DUF35 OB-fold domain, acyl-CoA-associated"</title>
				<polygon class="PF01796" points="107,29 112,40 107,51" stroke-linejoin="round" width="6" height="24" fill="rgb(76,159,198)" stroke="rgb(60,127,158)" stroke-width="1" opacity="0.75" />
			</g>
		</g>
		<g>
			<title> (ctg22_65)</title>
			<polygon class=" (ctg22_65)" points="117,25 127,25 127,10 157,40 127,70 127,55 117,55" fill="rgb(255,255,255)" fill-opacity="1.0" stroke="rgb(0,0,0)" stroke-width="2"  />
			<g>
				<title>CoA_transf_3 (PF02515)
"CoA-transferase family III"</title>
				<polygon class="PF02515" points="117,28 140,28 152,40 140,52 117,52" stroke-linejoin="round" width="37" height="24" fill="rgb(226,102,90)" stroke="rgb(180,81,72)" stroke-width="1" opacity="0.75" />
			</g>
		</g>
		<g>
			<title> (ctg22_66)</title>
			<polygon class=" (ctg22_66)" points="157,25 167,25 167,10 197,40 167,70 167,55 157,55" fill="rgb(255,255,255)" fill-opacity="1.0" stroke="rgb(0,0,0)" stroke-width="2"  />
			<g>
				<title>CoA_transf_3 (PF02515)
"CoA-transferase family III"</title>
				<polygon class="PF02515" points="157,28 180,28 192,40 180,52 157,52" stroke-linejoin="round" width="37" height="24" fill="rgb(226,102,90)" stroke="rgb(180,81,72)" stroke-width="1" opacity="0.75" />
			</g>
		</g>
		<g>
			<title> (ctg22_67)</title>
			<polygon class=" (ctg22_67)" points="246,25 229,25 229,10 199,40 229,70 229,55 246,55" fill="rgb(255,255,255)" fill-opacity="1.0" stroke="rgb(0,0,0)" stroke-width="2"  />
			<g>
				<title>Ammonium_transp (PF00909)
"Ammonium Transporter Family"</title>
				<polygon class="PF00909" points="203,40 215,28 238,28 238,52 215,52" stroke-linejoin="round" width="39" height="24" fill="rgb(94,77,188)" stroke="rgb(75,61,150)" stroke-width="1" opacity="0.75" />
			</g>
		</g>
		<g>
			<title> (ctg22_68)</title>
			<polygon class=" (ctg22_68)" points="294,25 282,25 282,10 252,40 282,70 282,55 294,55" fill="rgb(255,255,255)" fill-opacity="1.0" stroke="rgb(0,0,0)" stroke-width="2"  />
			<g>
				<title>PD40 (PF07676)
"WD40-like Beta Propeller Repeat"</title>
				<polygon class="PF07676" points="261,35 263,33 263,47 261,45" stroke-linejoin="round" width="2" height="24" fill="rgb(49,78,191)" stroke="rgb(39,62,152)" stroke-width="1" opacity="0.75" />
			</g>
			<g>
				<title>PD40 (PF07676)
"WD40-like Beta Propeller Repeat"</title>
				<rect class="PF07676" x="285" y="28" stroke-linejoin="round" width="1" height="24" fill="rgb(49,78,191)" stroke="rgb(39,62,152)" stroke-width="1" opacity="0.75" />
			</g>
		</g>
		<g>
			<title> (ctg22_69)</title>
			<polygon class=" (ctg22_69)" points="301,25 310,25 310,10 340,40 310,70 310,55 301,55" fill="rgb(255,255,255)" fill-opacity="1.0" stroke="rgb(0,0,0)" stroke-width="2"  />
			<g>
				<title>DXP_reductoisom (PF02670)
"1-deoxy-D-xylulose 5-phosphate reductoisomerase"</title>
				<rect class="PF02670" x="301" y="28" stroke-linejoin="round" width="12" height="24" fill="rgb(106,225,169)" stroke="rgb(84,180,135)" stroke-width="1" opacity="0.75" />
			</g>
			<g>
				<title>DXP_redisom_C (PF08436)
"1-deoxy-D-xylulose 5-phosphate reductoisomerase C-terminal domain"</title>
				<rect class="PF08436" x="315" y="28" stroke-linejoin="round" width="8" height="24" fill="rgb(160,186,55)" stroke="rgb(127,148,44)" stroke-width="1" opacity="0.75" />
			</g>
			<g>
				<title>DXPR_C (PF13288)
"DXP reductoisomerase C-terminal domain"</title>
				<polygon class="PF13288" points="326,31 335,40 326,49" stroke-linejoin="round" width="11" height="24" fill="rgb(184,95,48)" stroke="rgb(147,76,38)" stroke-width="1" opacity="0.75" />
			</g>
		</g>
		<g>
			<title> (ctg22_70)</title>
			<polygon class=" (ctg22_70)" points="343,25 344,25 344,10 374,40 344,70 344,55 343,55" fill="rgb(255,255,255)" fill-opacity="1.0" stroke="rgb(0,0,0)" stroke-width="2"  />
			<g>
				<title>SQS_PSY (PF00494)
"Squalene/phytoene synthase"</title>
				<polygon class="PF00494" points="346,28 358,28 370,40 358,52 346,52" stroke-linejoin="round" width="26" height="24" fill="rgb(178,91,49)" stroke="rgb(142,72,39)" stroke-width="1" opacity="0.75" />
			</g>
		</g>
		<g>
			<title> (ctg22_71)</title>
			<polygon class=" (ctg22_71)" points="382,40 395,10 395,70" fill="rgb(255,255,255)" fill-opacity="1.0" stroke="rgb(0,0,0)" stroke-width="2"  />
		</g>
		<g>
			<title> (ctg22_72)</title>
			<polygon class=" (ctg22_72)" points="404,25 414,25 414,10 444,40 414,70 414,55 404,55" fill="rgb(255,255,255)" fill-opacity="1.0" stroke="rgb(0,0,0)" stroke-width="2"  />
			<g>
				<title>DHBP_synthase (PF00926)
"3,4-dihydroxy-2-butanone 4-phosphate synthase"</title>
				<rect class="PF00926" x="406" y="28" stroke-linejoin="round" width="19" height="24" fill="rgb(84,51,187)" stroke="rgb(67,40,149)" stroke-width="1" opacity="0.75" />
			</g>
			<g>
				<title>GTP_cyclohydro2 (PF00925)
"GTP cyclohydrolase II"</title>
				<polygon class="PF00925" points="426,28 428,28 440,40 428,52 426,52" stroke-linejoin="round" width="16" height="24" fill="rgb(50,54,188)" stroke="rgb(40,43,150)" stroke-width="1" opacity="0.75" />
			</g>
		</g>
		<g>
			<title> (ctg22_73)</title>
			<polygon class=" (ctg22_73)" points="445,10 474,40 445,70" fill="rgb(255,255,255)" fill-opacity="1.0" stroke="rgb(0,0,0)" stroke-width="2"  />
			<g>
				<title>HSP33 (PF01430)
"Hsp33 protein"</title>
				<polygon class="PF01430" points="445,28 458,28 470,40 458,52 445,52" stroke-linejoin="round" width="27" height="24" fill="rgb(211,223,106)" stroke="rgb(168,178,84)" stroke-width="1" opacity="0.75" />
			</g>
		</g>
		<g>
			<title> (ctg22_74)</title>
			<polygon class=" (ctg22_74)" points="477,40 491,10 491,70" fill="rgb(255,255,255)" fill-opacity="1.0" stroke="rgb(0,0,0)" stroke-width="2"  />
			<g>
				<title>N_methyl (PF07963)
"Prokaryotic N-terminal methylation motif"</title>
				<polygon class="PF07963" points="485,30 486,28 487,28 487,52 486,52 485,50" stroke-linejoin="round" width="2" height="24" fill="rgb(116,101,204)" stroke="rgb(92,80,163)" stroke-width="1" opacity="0.75" />
			</g>
		</g>
		<g>
			<title> (ctg22_75)</title>
			<polygon class=" (ctg22_75)" points="529,25 525,25 525,10 495,40 525,70 525,55 529,55" fill="rgb(255,255,255)" fill-opacity="1.0" stroke="rgb(0,0,0)" stroke-width="2"  />
			<g>
				<title>T2SSF (PF00482)
"Type II secretion system (T2SS), protein F"</title>
				<polygon class="PF00482" points="499,40 508,31 508,49" stroke-linejoin="round" width="12" height="24" fill="rgb(124,208,56)" stroke="rgb(99,166,44)" stroke-width="1" opacity="0.75" />
			</g>
			<g>
				<title>T2SSF (PF00482)
"Type II secretion system (T2SS), protein F"</title>
				<rect class="PF00482" x="516" y="28" stroke-linejoin="round" width="12" height="24" fill="rgb(124,208,56)" stroke="rgb(99,166,44)" stroke-width="1" opacity="0.75" />
			</g>
		</g>
		<g>
			<title> (ctg22_76)</title>
			<polygon class=" (ctg22_76)" points="541,40 570,10 570,70" fill="rgb(255,255,255)" fill-opacity="1.0" stroke="rgb(0,0,0)" stroke-width="2"  />
			<g>
				<title>SDH_C (PF18317)
"Shikimate 5'-dehydrogenase C-terminal domain"</title>
				<polygon class="PF18317" points="545,40 544,41 544,39" stroke-linejoin="round" width="3" height="24" fill="rgb(87,77,179)" stroke="rgb(69,61,143)" stroke-width="1" opacity="0.75" />
			</g>
			<g>
				<title>Shikimate_DH (PF01488)
"Shikimate / quinate 5-dehydrogenase"</title>
				<polygon class="PF01488" points="549,36 557,28 557,28 557,52 557,52 549,44" stroke-linejoin="round" width="8" height="24" fill="rgb(94,182,59)" stroke="rgb(75,145,47)" stroke-width="1" opacity="0.75" />
			</g>
			<g>
				<title>Shikimate_dh_N (PF08501)
"Shikimate dehydrogenase substrate binding domain"</title>
				<rect class="PF08501" x="560" y="28" stroke-linejoin="round" width="8" height="24" fill="rgb(145,207,53)" stroke="rgb(116,165,42)" stroke-width="1" opacity="0.75" />
			</g>
		</g>
		<g>
			<title> (ctg22_77)</title>
			<polygon class=" (ctg22_77)" points="665,25 601,25 601,10 571,40 601,70 601,55 665,55" fill="rgb(255,255,255)" fill-opacity="1.0" stroke="rgb(0,0,0)" stroke-width="2"  />
			<g>
				<title>PEP-utilizers_C (PF02896)
"PEP-utilising enzyme, TIM barrel domain"</title>
				<polygon class="PF02896" points="575,40 587,28 608,28 608,52 587,52" stroke-linejoin="round" width="35" height="24" fill="rgb(65,113,188)" stroke="rgb(52,90,150)" stroke-width="1" opacity="0.75" />
			</g>
			<g>
				<title>PEP-utilizers (PF00391)
"PEP-utilising enzyme, mobile domain"</title>
				<rect class="PF00391" x="610" y="28" stroke-linejoin="round" width="8" height="24" fill="rgb(206,59,219)" stroke="rgb(164,47,175)" stroke-width="1" opacity="0.75" />
			</g>
			<g>
				<title>PPDK_N (PF01326)
"Pyruvate phosphate dikinase, PEP/pyruvate binding domain"</title>
				<rect class="PF01326" x="625" y="28" stroke-linejoin="round" width="37" height="24" fill="rgb(112,180,78)" stroke="rgb(89,144,62)" stroke-width="1" opacity="0.75" />
			</g>
		</g>
		<g>
			<title> (ctg22_78)</title>
			<polygon class=" (ctg22_78)" points="668,40 695,10 695,70" fill="rgb(255,255,255)" fill-opacity="1.0" stroke="rgb(0,0,0)" stroke-width="2"  />
			<g>
				<title>RecO_C (PF02565)
"Recombination protein O C terminal"</title>
				<polygon class="PF02565" points="672,40 683,28 686,28 686,52 683,52" stroke-linejoin="round" width="16" height="24" fill="rgb(108,200,225)" stroke="rgb(86,160,180)" stroke-width="1" opacity="0.75" />
			</g>
			<g>
				<title>RecO_N (PF11967)
"Recombination protein O N terminal"</title>
				<rect class="PF11967" x="687" y="28" stroke-linejoin="round" width="8" height="24" fill="rgb(188,95,193)" stroke="rgb(150,76,154)" stroke-width="1" opacity="0.75" />
			</g>
		</g>
	</g>
</svg>
