<svg version="1.1" baseProfile="full" xmlns="http://www.w3.org/2000/svg" width="212.8" height="80">
	<g>
		<line x1="10" y1="40.0" x2="202.8" y2="40.0" style="stroke:rgb(70,70,70); stroke-width:3 "/>
		<g>
			<title> (ctg3231_1)</title>
			<polygon class=" (ctg3231_1)" points="10,40 17,10 17,70" fill="rgb(255,255,255)" fill-opacity="1.0" stroke="rgb(0,0,0)" stroke-width="2"  />
		</g>
		<g>
			<title> (ctg3231_2)</title>
			<polygon class=" (ctg3231_2)" points="19,10 27,40 19,70" fill="rgb(255,255,255)" fill-opacity="1.0" stroke="rgb(0,0,0)" stroke-width="2"  />
			<g>
				<title>NHase_alpha (PF02979)
"Nitrile hydratase, alpha chain"</title>
				<polygon class="PF02979" points="19,28 20,28 24,40 20,52 19,52" stroke-linejoin="round" width="7" height="24" fill="rgb(204,148,70)" stroke="rgb(163,118,56)" stroke-width="1" opacity="0.75" />
			</g>
		</g>
		<g>
			<title> (ctg3231_3)</title>
			<polygon class=" (ctg3231_3)" points="28,10 35,40 28,70" fill="rgb(255,255,255)" fill-opacity="1.0" stroke="rgb(0,0,0)" stroke-width="2"  />
			<g>
				<title>NHase_alpha (PF02979)
"Nitrile hydratase, alpha chain"</title>
				<polygon class="PF02979" points="28,28 29,28 32,40 29,52 28,52" stroke-linejoin="round" width="6" height="24" fill="rgb(204,148,70)" stroke="rgb(163,118,56)" stroke-width="1" opacity="0.75" />
			</g>
		</g>
		<g>
			<title> (ctg3231_4)</title>
			<polygon class=" (ctg3231_4)" points="41,10 68,40 41,70" fill="rgb(255,255,255)" fill-opacity="1.0" stroke="rgb(0,0,0)" stroke-width="2"  />
		</g>
		<g>
			<title> (ctg3231_5)</title>
			<polygon class=" (ctg3231_5)" points="67,40 83,10 83,70" fill="rgb(255,255,255)" fill-opacity="1.0" stroke="rgb(0,0,0)" stroke-width="2"  />
		</g>
		<g>
			<title> (ctg3231_6)</title>
			<polygon class=" (ctg3231_6)" points="84,10 91,40 84,70" fill="rgb(255,255,255)" fill-opacity="1.0" stroke="rgb(0,0,0)" stroke-width="2"  />
		</g>
		<g>
			<title> (ctg3231_7)</title>
			<polygon class=" (ctg3231_7)" points="89,10 112,40 89,70" fill="rgb(255,255,255)" fill-opacity="1.0" stroke="rgb(0,0,0)" stroke-width="2"  />
		</g>
		<g>
			<title> (ctg3231_8)</title>
			<polygon class=" (ctg3231_8)" points="112,10 117,40 112,70" fill="rgb(255,255,255)" fill-opacity="1.0" stroke="rgb(0,0,0)" stroke-width="2"  />
		</g>
		<g>
			<title> (ctg3231_9)</title>
			<polygon class=" (ctg3231_9)" points="124,25 130,25 130,10 160,40 130,70 130,55 124,55" fill="rgb(255,255,255)" fill-opacity="1.0" stroke="rgb(0,0,0)" stroke-width="2"  />
			<g>
				<title>SBP_bac_8 (PF13416)
"Bacterial extracellular solute-binding protein"</title>
				<polygon class="PF13416" points="129,28 144,28 155,39 155,41 144,52 129,52" stroke-linejoin="round" width="26" height="24" fill="rgb(66,211,58)" stroke="rgb(52,168,46)" stroke-width="1" opacity="0.75" />
			</g>
		</g>
		<g>
			<title> (ctg3231_10)</title>
			<polygon class=" (ctg3231_10)" points="162,25 167,25 167,10 197,40 167,70 167,55 162,55" fill="rgb(255,255,255)" fill-opacity="1.0" stroke="rgb(0,0,0)" stroke-width="2"  />
			<g>
				<title>ABC_tran (PF00005)
"ABC transporter"</title>
				<rect class="PF00005" x="163" y="28" stroke-linejoin="round" width="14" height="24" fill="rgb(129,201,63)" stroke="rgb(103,160,50)" stroke-width="1" opacity="0.75" />
			</g>
			<g>
				<title>TOBE_2 (PF08402)
"TOBE domain"</title>
				<polygon class="PF08402" points="189,36 193,40 189,44" stroke-linejoin="round" width="7" height="24" fill="rgb(70,123,193)" stroke="rgb(56,98,154)" stroke-width="1" opacity="0.75" />
			</g>
		</g>
	</g>
</svg>
