<svg version="1.1" baseProfile="full" xmlns="http://www.w3.org/2000/svg" width="723.6666666666666" height="80">
	<g>
		<line x1="10" y1="40.0" x2="713.6666666666666" y2="40.0" style="stroke:rgb(70,70,70); stroke-width:3 "/>
		<g>
			<title> (ctg286_25)</title>
			<polygon class=" (ctg286_25)" points="13,10 34,40 13,70" fill="rgb(255,255,255)" fill-opacity="1.0" stroke="rgb(0,0,0)" stroke-width="2"  />
			<g>
				<title>DUF448 (PF04296)
"Protein of unknown function (DUF448)"</title>
				<rect class="PF04296" x="13" y="28" stroke-linejoin="round" width="7" height="24" fill="rgb(97,174,225)" stroke="rgb(77,139,180)" stroke-width="1" opacity="0.75" />
			</g>
			<g>
				<title>Ribosomal_L7Ae (PF01248)
"Ribosomal protein L7Ae/L30e/S12e/Gadd45 family"</title>
				<polygon class="PF01248" points="21,28 22,28 30,40 30,40 22,52 21,52" stroke-linejoin="round" width="9" height="24" fill="rgb(77,155,188)" stroke="rgb(61,124,150)" stroke-width="1" opacity="0.75" />
			</g>
		</g>
		<g>
			<title> (ctg286_26)</title>
			<polygon class=" (ctg286_26)" points="35,25 73,25 73,10 103,40 73,70 73,55 35,55" fill="rgb(255,255,255)" fill-opacity="1.0" stroke="rgb(0,0,0)" stroke-width="2"  />
			<g>
				<title>IF2_N (PF04760)
"Translation initiation factor IF-2, N-terminal region"</title>
				<rect class="PF04760" x="35" y="28" stroke-linejoin="round" width="5" height="24" fill="rgb(76,229,91)" stroke="rgb(60,183,72)" stroke-width="1" opacity="0.75" />
			</g>
			<g>
				<title>GTP_EFTU (PF00009)
"Elongation factor Tu GTP binding domain"</title>
				<rect class="PF00009" x="53" y="28" stroke-linejoin="round" width="16" height="24" fill="rgb(196,118,83)" stroke="rgb(156,94,66)" stroke-width="1" opacity="0.75" />
			</g>
			<g>
				<title>IF-2 (PF11987)
"Translation-initiation factor 2"</title>
				<polygon class="PF11987" points="81,28 87,28 91,32 91,48 87,52 81,52" stroke-linejoin="round" width="10" height="24" fill="rgb(180,73,72)" stroke="rgb(144,58,57)" stroke-width="1" opacity="0.75" />
			</g>
		</g>
		<g>
			<title> (ctg286_27)</title>
			<polygon class=" (ctg286_27)" points="104,10 113,40 104,70" fill="rgb(255,255,255)" fill-opacity="1.0" stroke="rgb(0,0,0)" stroke-width="2"  />
			<g>
				<title>DUF503 (PF04456)
"Protein of unknown function (DUF503)"</title>
				<polygon class="PF04456" points="104,28 106,28 110,40 106,52 104,52" stroke-linejoin="round" width="8" height="24" fill="rgb(180,50,94)" stroke="rgb(144,39,75)" stroke-width="1" opacity="0.75" />
			</g>
		</g>
		<g>
			<title> (ctg286_28)</title>
			<polygon class=" (ctg286_28)" points="114,10 126,40 114,70" fill="rgb(255,255,255)" fill-opacity="1.0" stroke="rgb(0,0,0)" stroke-width="2"  />
			<g>
				<title>RBFA (PF02033)
"Ribosome-binding factor A"</title>
				<polygon class="PF02033" points="114,28 118,28 123,40 118,52 114,52" stroke-linejoin="round" width="10" height="24" fill="rgb(221,90,110)" stroke="rgb(176,72,88)" stroke-width="1" opacity="0.75" />
			</g>
		</g>
		<g>
			<title> (ctg286_29)</title>
			<polygon class=" (ctg286_29)" points="127,25 127,25 127,10 157,40 127,70 127,55 127,55" fill="rgb(255,255,255)" fill-opacity="1.0" stroke="rgb(0,0,0)" stroke-width="2"  />
			<g>
				<title>TruB_N (PF01509)
"TruB family pseudouridylate synthase (N terminal domain)"</title>
				<polygon class="PF01509" points="129,28 140,28 143,31 143,49 140,52 129,52" stroke-linejoin="round" width="14" height="24" fill="rgb(65,212,107)" stroke="rgb(52,169,85)" stroke-width="1" opacity="0.75" />
			</g>
			<g>
				<title>TruB_C_2 (PF16198)
"tRNA pseudouridylate synthase B C-terminal domain"</title>
				<polygon class="PF16198" points="144,32 149,37 149,43 144,48" stroke-linejoin="round" width="5" height="24" fill="rgb(214,83,215)" stroke="rgb(171,66,172)" stroke-width="1" opacity="0.75" />
			</g>
		</g>
		<g>
			<title> (ctg286_30)</title>
			<polygon class=" (ctg286_30)" points="158,10 167,40 158,70" fill="rgb(255,255,255)" fill-opacity="1.0" stroke="rgb(0,0,0)" stroke-width="2"  />
			<g>
				<title>Ribosomal_S15 (PF00312)
"Ribosomal protein S15"</title>
				<polygon class="PF00312" points="159,28 160,28 164,40 160,52 159,52" stroke-linejoin="round" width="8" height="24" fill="rgb(176,72,186)" stroke="rgb(140,57,148)" stroke-width="1" opacity="0.75" />
			</g>
		</g>
		<g>
			<title> (ctg286_31)</title>
			<polygon class=" (ctg286_31)" points="169,25 209,25 209,10 239,40 209,70 209,55 169,55" fill="rgb(255,255,255)" fill-opacity="1.0" stroke="rgb(0,0,0)" stroke-width="2"  />
			<g>
				<title>RNase_PH (PF01138)
"3' exoribonuclease family, domain 1"</title>
				<rect class="PF01138" x="170" y="28" stroke-linejoin="round" width="13" height="24" fill="rgb(201,109,229)" stroke="rgb(160,87,183)" stroke-width="1" opacity="0.75" />
			</g>
			<g>
				<title>RNase_PH_C (PF03725)
"3' exoribonuclease family, domain 2"</title>
				<rect class="PF03725" x="183" y="28" stroke-linejoin="round" width="6" height="24" fill="rgb(81,207,213)" stroke="rgb(64,165,170)" stroke-width="1" opacity="0.75" />
			</g>
			<g>
				<title>PNPase (PF03726)
"Polyribonucleotide nucleotidyltransferase, RNA binding domain"</title>
				<rect class="PF03726" x="193" y="28" stroke-linejoin="round" width="8" height="24" fill="rgb(77,110,213)" stroke="rgb(61,88,170)" stroke-width="1" opacity="0.75" />
			</g>
			<g>
				<title>RNase_PH (PF01138)
"3' exoribonuclease family, domain 1"</title>
				<rect class="PF01138" x="201" y="28" stroke-linejoin="round" width="13" height="24" fill="rgb(201,109,229)" stroke="rgb(160,87,183)" stroke-width="1" opacity="0.75" />
			</g>
			<g>
				<title>RNase_PH_C (PF03725)
"3' exoribonuclease family, domain 2"</title>
				<rect class="PF03725" x="215" y="28" stroke-linejoin="round" width="7" height="24" fill="rgb(81,207,213)" stroke="rgb(64,165,170)" stroke-width="1" opacity="0.75" />
			</g>
			<g>
				<title>KH_1 (PF00013)
"KH domain"</title>
				<polygon class="PF00013" points="224,29 229,34 229,46 224,51" stroke-linejoin="round" width="5" height="24" fill="rgb(80,187,102)" stroke="rgb(64,149,81)" stroke-width="1" opacity="0.75" />
			</g>
			<g>
				<title>S1 (PF00575)
"S1 RNA binding domain"</title>
				<polygon class="PF00575" points="231,36 235,40 231,44" stroke-linejoin="round" width="7" height="24" fill="rgb(102,56,190)" stroke="rgb(81,44,152)" stroke-width="1" opacity="0.75" />
			</g>
		</g>
		<g>
			<title> (ctg286_32)</title>
			<polygon class=" (ctg286_32)" points="241,40 259,10 259,70" fill="rgb(255,255,255)" fill-opacity="1.0" stroke="rgb(0,0,0)" stroke-width="2"  />
			<g>
				<title>TPR_16 (PF13432)
"Tetratricopeptide repeat"</title>
				<polygon class="PF13432" points="245,40 249,34 249,46" stroke-linejoin="round" width="6" height="24" fill="rgb(154,205,86)" stroke="rgb(123,164,68)" stroke-width="1" opacity="0.75" />
			</g>
			<g>
				<title>TPR_16 (PF13432)
"Tetratricopeptide repeat"</title>
				<polygon class="PF13432" points="250,32 252,28 255,28 255,52 252,52 250,48" stroke-linejoin="round" width="5" height="24" fill="rgb(154,205,86)" stroke="rgb(123,164,68)" stroke-width="1" opacity="0.75" />
			</g>
		</g>
		<g>
			<title> (ctg286_33)</title>
			<polygon class=" (ctg286_33)" points="331,25 297,25 297,10 267,40 297,70 297,55 331,55" fill="rgb(255,255,255)" fill-opacity="1.0" stroke="rgb(0,0,0)" stroke-width="2"  />
			<g>
				<title>EFG_C (PF00679)
"Elongation factor G C-terminus"</title>
				<polygon class="PF00679" points="271,40 276,35 276,45" stroke-linejoin="round" width="8" height="24" fill="rgb(136,208,97)" stroke="rgb(108,166,77)" stroke-width="1" opacity="0.75" />
			</g>
			<g>
				<title>EFG_IV (PF03764)
"Elongation factor G, domain IV"</title>
				<polygon class="PF03764" points="276,35 283,28 287,28 287,52 283,52 276,45" stroke-linejoin="round" width="11" height="24" fill="rgb(175,56,200)" stroke="rgb(140,44,160)" stroke-width="1" opacity="0.75" />
			</g>
			<g>
				<title>EFG_II (PF14492)
"Elongation Factor G, domain II"</title>
				<rect class="PF14492" x="288" y="28" stroke-linejoin="round" width="7" height="24" fill="rgb(217,213,86)" stroke="rgb(173,170,68)" stroke-width="1" opacity="0.75" />
			</g>
			<g>
				<title>GTP_EFTU_D2 (PF03144)
"Elongation factor Tu domain 2"</title>
				<rect class="PF03144" x="297" y="28" stroke-linejoin="round" width="6" height="24" fill="rgb(69,184,189)" stroke="rgb(55,147,151)" stroke-width="1" opacity="0.75" />
			</g>
			<g>
				<title>GTP_EFTU (PF00009)
"Elongation factor Tu GTP binding domain"</title>
				<rect class="PF00009" x="308" y="28" stroke-linejoin="round" width="23" height="24" fill="rgb(196,118,83)" stroke="rgb(156,94,66)" stroke-width="1" opacity="0.75" />
			</g>
		</g>
		<g>
			<title> (ctg286_34)</title>
			<polygon class=" (ctg286_34)" points="380,25 373,25 373,10 343,40 373,70 373,55 380,55" fill="rgb(255,255,255)" fill-opacity="1.0" stroke="rgb(0,0,0)" stroke-width="2"  />
			<g>
				<title>SQS_PSY (PF00494)
"Squalene/phytoene synthase"</title>
				<polygon class="PF00494" points="347,40 359,28 377,28 377,52 359,52 347,40" stroke-linejoin="round" width="30" height="24" fill="rgb(178,91,49)" stroke="rgb(142,72,39)" stroke-width="1" opacity="0.75" />
			</g>
		</g>
		<g>
			<title> (ctg286_35)</title>
			<polygon class=" (ctg286_35)" points="381,40 398,10 398,70" fill="rgb(255,255,255)" fill-opacity="1.0" stroke="rgb(0,0,0)" stroke-width="2"  />
			<g>
				<title>Pribosyltran (PF00156)
"Phosphoribosyl transferase domain"</title>
				<polygon class="PF00156" points="384,40 391,28 395,28 395,52 391,52" stroke-linejoin="round" width="14" height="24" fill="rgb(210,210,74)" stroke="rgb(168,168,59)" stroke-width="1" opacity="0.75" />
			</g>
		</g>
		<g>
			<title> (ctg286_36)</title>
			<polygon class=" (ctg286_36)" points="406,40 420,10 420,70" fill="rgb(255,255,255)" fill-opacity="1.0" stroke="rgb(0,0,0)" stroke-width="2"  />
			<g>
				<title>MerR_1 (PF13411)
"MerR HTH family regulatory protein"</title>
				<polygon class="PF13411" points="413,32 415,28 420,28 420,52 415,52 413,48" stroke-linejoin="round" width="7" height="24" fill="rgb(100,202,107)" stroke="rgb(80,161,85)" stroke-width="1" opacity="0.75" />
			</g>
		</g>
		<g>
			<title> (ctg286_37)</title>
			<polygon class=" (ctg286_37)" points="468,25 455,25 455,10 425,40 455,70 455,55 468,55" fill="rgb(255,255,255)" fill-opacity="1.0" stroke="rgb(0,0,0)" stroke-width="2"  />
			<g>
				<title>KH_dom-like (PF14714)
"KH-domain-like of EngA bacterial GTPase enzymes, C-terminal"</title>
				<polygon class="PF14714" points="429,40 433,36 433,44" stroke-linejoin="round" width="8" height="24" fill="rgb(178,119,50)" stroke="rgb(142,95,40)" stroke-width="1" opacity="0.75" />
			</g>
			<g>
				<title>MMR_HSR1 (PF01926)
"50S ribosome-binding GTPase"</title>
				<polygon class="PF01926" points="439,30 441,28 450,28 450,52 441,52 439,50" stroke-linejoin="round" width="11" height="24" fill="rgb(105,180,226)" stroke="rgb(83,143,180)" stroke-width="1" opacity="0.75" />
			</g>
			<g>
				<title>MMR_HSR1 (PF01926)
"50S ribosome-binding GTPase"</title>
				<rect class="PF01926" x="456" y="28" stroke-linejoin="round" width="11" height="24" fill="rgb(105,180,226)" stroke="rgb(83,143,180)" stroke-width="1" opacity="0.75" />
			</g>
		</g>
		<g>
			<title> (ctg286_38)</title>
			<polygon class=" (ctg286_38)" points="515,25 500,25 500,10 470,40 500,70 500,55 515,55" fill="rgb(255,255,255)" fill-opacity="1.0" stroke="rgb(0,0,0)" stroke-width="2"  />
			<g>
				<title>Sigma54_DBD (PF04552)
"Sigma-54, DNA binding domain"</title>
				<polygon class="PF04552" points="474,40 485,29 485,51" stroke-linejoin="round" width="15" height="24" fill="rgb(213,82,214)" stroke="rgb(170,65,171)" stroke-width="1" opacity="0.75" />
			</g>
			<g>
				<title>Sigma54_CBD (PF04963)
"Sigma-54 factor, core binding domain"</title>
				<rect class="PF04963" x="487" y="28" stroke-linejoin="round" width="18" height="24" fill="rgb(184,47,153)" stroke="rgb(147,37,122)" stroke-width="1" opacity="0.75" />
			</g>
			<g>
				<title>Sigma54_AID (PF00309)
"Sigma-54 factor, Activator interacting domain (AID)"</title>
				<rect class="PF00309" x="512" y="28" stroke-linejoin="round" width="3" height="24" fill="rgb(185,165,54)" stroke="rgb(148,132,43)" stroke-width="1" opacity="0.75" />
			</g>
		</g>
		<g>
			<title> (ctg286_39)</title>
			<polygon class=" (ctg286_39)" points="518,40 542,10 542,70" fill="rgb(255,255,255)" fill-opacity="1.0" stroke="rgb(0,0,0)" stroke-width="2"  />
			<g>
				<title>BCA_ABC_TP_C (PF12399)
"Branched-chain amino acid ATP-binding cassette transporter"</title>
				<polygon class="PF12399" points="522,40 520,42 520,38" stroke-linejoin="round" width="2" height="24" fill="rgb(205,68,53)" stroke="rgb(164,54,42)" stroke-width="1" opacity="0.75" />
			</g>
			<g>
				<title>ABC_tran (PF00005)
"ABC transporter"</title>
				<polygon class="PF00005" points="525,36 532,28 539,28 539,52 532,52 525,44" stroke-linejoin="round" width="14" height="24" fill="rgb(129,201,63)" stroke="rgb(103,160,50)" stroke-width="1" opacity="0.75" />
			</g>
		</g>
		<g>
			<title> (ctg286_40)</title>
			<polygon class=" (ctg286_40)" points="543,40 559,10 559,70" fill="rgb(255,255,255)" fill-opacity="1.0" stroke="rgb(0,0,0)" stroke-width="2"  />
			<g>
				<title>OstA (PF03968)
"OstA-like protein"</title>
				<polygon class="PF03968" points="546,40 553,28 555,28 555,52 553,52" stroke-linejoin="round" width="10" height="24" fill="rgb(180,93,200)" stroke="rgb(144,74,160)" stroke-width="1" opacity="0.75" />
			</g>
		</g>
		<g>
			<title> (ctg286_41)</title>
			<polygon class=" (ctg286_41)" points="560,40 579,10 579,70" fill="rgb(255,255,255)" fill-opacity="1.0" stroke="rgb(0,0,0)" stroke-width="2"  />
			<g>
				<title>LptC (PF06835)
"Lipopolysaccharide-assembly, LptC-related"</title>
				<polygon class="PF06835" points="564,40 572,28 577,28 577,52 572,52" stroke-linejoin="round" width="17" height="24" fill="rgb(66,91,210)" stroke="rgb(52,72,168)" stroke-width="1" opacity="0.75" />
			</g>
		</g>
		<g>
			<title> (ctg286_42)</title>
			<polygon class=" (ctg286_42)" points="580,40 592,10 592,70" fill="rgb(255,255,255)" fill-opacity="1.0" stroke="rgb(0,0,0)" stroke-width="2"  />
			<g>
				<title>TsaE (PF02367)
"Threonylcarbamoyl adenosine biosynthesis protein TsaE"</title>
				<polygon class="PF02367" points="583,40 588,28 591,28 591,52 588,52" stroke-linejoin="round" width="10" height="24" fill="rgb(217,114,93)" stroke="rgb(173,91,74)" stroke-width="1" opacity="0.75" />
			</g>
		</g>
		<g>
			<title> (ctg286_43)</title>
			<polygon class=" (ctg286_43)" points="641,25 626,25 626,10 596,40 626,70 626,55 641,55" fill="rgb(255,255,255)" fill-opacity="1.0" stroke="rgb(0,0,0)" stroke-width="2"  />
			<g>
				<title>PGM_PMM_IV (PF00408)
"Phosphoglucomutase/phosphomannomutase, C-terminal domain"</title>
				<polygon class="PF00408" points="600,40 603,37 603,43" stroke-linejoin="round" width="6" height="24" fill="rgb(74,205,143)" stroke="rgb(59,164,114)" stroke-width="1" opacity="0.75" />
			</g>
			<g>
				<title>PGM_PMM_III (PF02880)
"Phosphoglucomutase/phosphomannomutase, alpha/beta/alpha domain III"</title>
				<polygon class="PF02880" points="604,36 612,28 615,28 615,52 612,52 604,44" stroke-linejoin="round" width="11" height="24" fill="rgb(67,204,90)" stroke="rgb(53,163,72)" stroke-width="1" opacity="0.75" />
			</g>
			<g>
				<title>PGM_PMM_II (PF02879)
"Phosphoglucomutase/phosphomannomutase, alpha/beta/alpha domain II"</title>
				<rect class="PF02879" x="616" y="28" stroke-linejoin="round" width="9" height="24" fill="rgb(192,221,60)" stroke="rgb(153,176,48)" stroke-width="1" opacity="0.75" />
			</g>
			<g>
				<title>PGM_PMM_I (PF02878)
"Phosphoglucomutase/phosphomannomutase, alpha/beta/alpha domain I"</title>
				<rect class="PF02878" x="627" y="28" stroke-linejoin="round" width="13" height="24" fill="rgb(217,133,102)" stroke="rgb(173,106,81)" stroke-width="1" opacity="0.75" />
			</g>
		</g>
		<g>
			<title> (ctg286_44)</title>
			<polygon class=" (ctg286_44)" points="706,25 674,25 674,10 644,40 674,70 674,55 706,55" fill="rgb(255,255,255)" fill-opacity="1.0" stroke="rgb(0,0,0)" stroke-width="2"  />
			<g>
				<title>Peptidase_M41 (PF01434)
"Peptidase family M41"</title>
				<polygon class="PF01434" points="648,40 660,28 664,28 664,52 660,52" stroke-linejoin="round" width="18" height="24" fill="rgb(108,182,48)" stroke="rgb(86,145,38)" stroke-width="1" opacity="0.75" />
			</g>
			<g>
				<title>AAA_lid_3 (PF17862)
"AAA+ lid domain"</title>
				<rect class="PF17862" x="667" y="28" stroke-linejoin="round" width="4" height="24" fill="rgb(205,52,78)" stroke="rgb(164,41,62)" stroke-width="1" opacity="0.75" />
			</g>
			<g>
				<title>AAA (PF00004)
"ATPase family associated with various cellular activities (AAA)"</title>
				<rect class="PF00004" x="673" y="28" stroke-linejoin="round" width="13" height="24" fill="rgb(57,194,204)" stroke="rgb(45,155,163)" stroke-width="1" opacity="0.75" />
			</g>
			<g>
				<title>FtsH_ext (PF06480)
"FtsH Extracellular"</title>
				<rect class="PF06480" x="696" y="28" stroke-linejoin="round" width="9" height="24" fill="rgb(86,101,178)" stroke="rgb(68,80,142)" stroke-width="1" opacity="0.75" />
			</g>
		</g>
	</g>
</svg>
