<svg version="1.1" baseProfile="full" xmlns="http://www.w3.org/2000/svg" width="870.3666666666667" height="80">
	<g>
		<line x1="10" y1="40.0" x2="860.3666666666667" y2="40.0" style="stroke:rgb(70,70,70); stroke-width:3 "/>
		<g>
			<title> (ctg447_1)</title>
			<polygon class=" (ctg447_1)" points="77,25 40,25 40,10 10,40 40,70 40,55 77,55" fill="rgb(255,255,255)" fill-opacity="1.0" stroke="rgb(0,0,0)" stroke-width="2"  />
			<g>
				<title>Calx-beta (PF03160)
"Calx-beta domain"</title>
				<rect class="PF03160" x="41" y="28" stroke-linejoin="round" width="8" height="24" fill="rgb(179,76,146)" stroke="rgb(143,60,116)" stroke-width="1" opacity="0.75" />
			</g>
			<g>
				<title>Calx-beta (PF03160)
"Calx-beta domain"</title>
				<rect class="PF03160" x="52" y="28" stroke-linejoin="round" width="10" height="24" fill="rgb(179,76,146)" stroke="rgb(143,60,116)" stroke-width="1" opacity="0.75" />
			</g>
		</g>
		<g>
			<title> (ctg447_2)</title>
			<polygon class=" (ctg447_2)" points="95,10 105,40 95,70" fill="rgb(255,255,255)" fill-opacity="1.0" stroke="rgb(0,0,0)" stroke-width="2"  />
		</g>
		<g>
			<title> (ctg447_3)</title>
			<polygon class=" (ctg447_3)" points="110,40 138,10 138,70" fill="rgb(255,255,255)" fill-opacity="1.0" stroke="rgb(0,0,0)" stroke-width="2"  />
			<g>
				<title>Aldo_ket_red (PF00248)
"Aldo/keto reductase family"</title>
				<polygon class="PF00248" points="114,40 125,28 136,28 136,52 125,52" stroke-linejoin="round" width="26" height="24" fill="rgb(225,205,58)" stroke="rgb(180,164,46)" stroke-width="1" opacity="0.75" />
			</g>
		</g>
		<g>
			<title> (ctg447_4)</title>
			<polygon class=" (ctg447_4)" points="193,25 169,25 169,10 139,40 169,70 169,55 193,55" fill="rgb(255,255,255)" fill-opacity="1.0" stroke="rgb(0,0,0)" stroke-width="2"  />
			<g>
				<title>NTP_transf_3 (PF12804)
"MobA-like NTP transferase domain"</title>
				<polygon class="PF12804" points="148,35 155,28 162,28 162,52 155,52 148,45" stroke-linejoin="round" width="14" height="24" fill="rgb(52,209,196)" stroke="rgb(41,167,156)" stroke-width="1" opacity="0.75" />
			</g>
			<g>
				<title>PEP_mutase (PF13714)
"Phosphoenolpyruvate phosphomutase"</title>
				<rect class="PF13714" x="167" y="28" stroke-linejoin="round" width="24" height="24" fill="rgb(215,91,155)" stroke="rgb(172,72,123)" stroke-width="1" opacity="0.75" />
			</g>
		</g>
		<g>
			<title> (ctg447_5)</title>
			<polygon class=" (ctg447_5)" points="200,10 208,40 200,70" fill="rgb(255,255,255)" fill-opacity="1.0" stroke="rgb(0,0,0)" stroke-width="2"  />
		</g>
		<g>
			<title> (ctg447_6)</title>
			<polygon class=" (ctg447_6)" points="208,10 219,40 208,70" fill="rgb(255,255,255)" fill-opacity="1.0" stroke="rgb(0,0,0)" stroke-width="2"  />
			<g>
				<title>PemK_toxin (PF02452)
"PemK-like, MazF-like toxin of type II toxin-antitoxin system"</title>
				<polygon class="PF02452" points="208,28 211,28 216,40 211,52 208,52" stroke-linejoin="round" width="10" height="24" fill="rgb(81,193,221)" stroke="rgb(64,154,176)" stroke-width="1" opacity="0.75" />
			</g>
		</g>
		<g>
			<title> (ctg447_7)</title>
			<polygon class=" (ctg447_7)" points="219,10 222,40 219,70" fill="rgb(255,255,255)" fill-opacity="1.0" stroke="rgb(0,0,0)" stroke-width="2"  />
		</g>
		<g>
			<title> (ctg447_8)</title>
			<polygon class=" (ctg447_8)" points="223,10 249,40 223,70" fill="rgb(255,255,255)" fill-opacity="1.0" stroke="rgb(0,0,0)" stroke-width="2"  />
		</g>
		<g>
			<title> (ctg447_9)</title>
			<polygon class=" (ctg447_9)" points="251,40 264,10 264,70" fill="rgb(255,255,255)" fill-opacity="1.0" stroke="rgb(0,0,0)" stroke-width="2"  />
			<g>
				<title>SelR (PF01641)
"SelR domain"</title>
				<polygon class="PF01641" points="254,40 259,28 262,28 262,52 259,52" stroke-linejoin="round" width="11" height="24" fill="rgb(192,99,202)" stroke="rgb(153,79,161)" stroke-width="1" opacity="0.75" />
			</g>
		</g>
		<g>
			<title> (ctg447_10)</title>
			<polygon class=" (ctg447_10)" points="266,40 285,10 285,70" fill="rgb(255,255,255)" fill-opacity="1.0" stroke="rgb(0,0,0)" stroke-width="2"  />
			<g>
				<title>DUF5069 (PF16798)
"Domain of unknown function (DUF5069)"</title>
				<polygon class="PF16798" points="270,40 274,34 274,46" stroke-linejoin="round" width="8" height="24" fill="rgb(196,166,98)" stroke="rgb(156,132,78)" stroke-width="1" opacity="0.75" />
			</g>
		</g>
		<g>
			<title> (ctg447_11)</title>
			<polygon class=" (ctg447_11)" points="337,25 322,25 322,10 292,40 322,70 322,55 337,55" fill="rgb(255,255,255)" fill-opacity="1.0" stroke="rgb(0,0,0)" stroke-width="2"  />
		</g>
		<g>
			<title> (ctg447_12)</title>
			<polygon class=" (ctg447_12)" points="337,40 344,10 344,70" fill="rgb(255,255,255)" fill-opacity="1.0" stroke="rgb(0,0,0)" stroke-width="2"  />
		</g>
		<g>
			<title> (ctg447_13)</title>
			<polygon class=" (ctg447_13)" points="368,10 376,40 368,70" fill="rgb(255,255,255)" fill-opacity="1.0" stroke="rgb(0,0,0)" stroke-width="2"  />
		</g>
		<g>
			<title> (ctg447_14)</title>
			<polygon class=" (ctg447_14)" points="377,25 395,25 395,10 425,40 395,70 395,55 377,55" fill="rgb(255,255,255)" fill-opacity="1.0" stroke="rgb(0,0,0)" stroke-width="2"  />
			<g>
				<title>SSF (PF00474)
"Sodium:solute symporter family"</title>
				<polygon class="PF00474" points="380,28 409,28 419,38 419,42 409,52 380,52" stroke-linejoin="round" width="39" height="24" fill="rgb(49,186,178)" stroke="rgb(39,148,142)" stroke-width="1" opacity="0.75" />
			</g>
		</g>
		<g>
			<title> (ctg447_15)</title>
			<polygon class=" (ctg447_15)" points="429,10 439,40 429,70" fill="rgb(255,255,255)" fill-opacity="1.0" stroke="rgb(0,0,0)" stroke-width="2"  />
		</g>
		<g>
			<title> (ctg447_16)</title>
			<polygon class=" (ctg447_16)" points="437,40 445,10 445,70" fill="rgb(255,255,255)" fill-opacity="1.0" stroke="rgb(0,0,0)" stroke-width="2"  />
		</g>
		<g>
			<title> (ctg447_17)</title>
			<polygon class=" (ctg447_17)" points="447,25 531,25 531,10 561,40 531,70 531,55 447,55" fill="rgb(255,255,255)" fill-opacity="1.0" stroke="rgb(0,0,0)" stroke-width="2"  />
			<g>
				<title>MFS_1 (PF07690)
"Major Facilitator Superfamily"</title>
				<rect class="PF07690" x="449" y="28" stroke-linejoin="round" width="35" height="24" fill="rgb(193,224,74)" stroke="rgb(154,179,59)" stroke-width="1" opacity="0.75" />
			</g>
			<g>
				<title>Acyltransferase (PF01553)
"Acyltransferase"</title>
				<rect class="PF01553" x="490" y="28" stroke-linejoin="round" width="12" height="24" fill="rgb(87,176,216)" stroke="rgb(69,140,172)" stroke-width="1" opacity="0.75" />
			</g>
			<g>
				<title>AMP-binding (PF00501)
"AMP-binding enzyme"</title>
				<polygon class="PF00501" points="509,28 545,28 550,33 550,47 545,52 509,52" stroke-linejoin="round" width="41" height="24" fill="rgb(60,217,223)" stroke="rgb(48,173,178)" stroke-width="1" opacity="0.75" />
			</g>
		</g>
		<g>
			<title> (ctg447_18)</title>
			<polygon class=" (ctg447_18)" points="562,40 572,10 572,70" fill="rgb(255,255,255)" fill-opacity="1.0" stroke="rgb(0,0,0)" stroke-width="2"  />
			<g>
				<title>DUF2007 (PF09413)
"Putative prokaryotic signal transducing protein"</title>
				<polygon class="PF09413" points="565,40 569,28 571,28 571,52 569,52 565,40" stroke-linejoin="round" width="6" height="24" fill="rgb(177,72,192)" stroke="rgb(141,57,153)" stroke-width="1" opacity="0.75" />
			</g>
		</g>
		<g>
			<title> (ctg447_19)</title>
			<polygon class=" (ctg447_19)" points="642,25 612,25 612,10 582,40 612,70 612,55 642,55" fill="rgb(255,255,255)" fill-opacity="1.0" stroke="rgb(0,0,0)" stroke-width="2"  />
			<g>
				<title>Glyco_hydro_15 (PF00723)
"Glycosyl hydrolases family 15"</title>
				<polygon class="PF00723" points="586,40 598,28 620,28 620,52 598,52" stroke-linejoin="round" width="37" height="24" fill="rgb(185,199,89)" stroke="rgb(148,159,71)" stroke-width="1" opacity="0.75" />
			</g>
		</g>
		<g>
			<title> (ctg447_20)</title>
			<polygon class=" (ctg447_20)" points="655,25 663,25 663,10 693,40 663,70 663,55 655,55" fill="rgb(255,255,255)" fill-opacity="1.0" stroke="rgb(0,0,0)" stroke-width="2"  />
			<g>
				<title>Oxidored_molyb (PF00174)
"Oxidoreductase molybdopterin binding domain"</title>
				<polygon class="PF00174" points="661,28 676,28 677,29 677,51 676,52 661,52" stroke-linejoin="round" width="16" height="24" fill="rgb(152,193,93)" stroke="rgb(121,154,74)" stroke-width="1" opacity="0.75" />
			</g>
			<g>
				<title>Mo-co_dimer (PF03404)
"Mo-co oxidoreductase dimerisation domain"</title>
				<polygon class="PF03404" points="679,31 688,40 679,49" stroke-linejoin="round" width="11" height="24" fill="rgb(105,224,154)" stroke="rgb(84,179,123)" stroke-width="1" opacity="0.75" />
			</g>
		</g>
		<g>
			<title> (ctg447_21)</title>
			<polygon class=" (ctg447_21)" points="695,10 713,40 695,70" fill="rgb(255,255,255)" fill-opacity="1.0" stroke="rgb(0,0,0)" stroke-width="2"  />
			<g>
				<title>Cytochrome_CBB3 (PF13442)
"Cytochrome C oxidase, cbb3-type, subunit III"</title>
				<polygon class="PF13442" points="701,28 702,28 709,39 709,41 702,52 701,52" stroke-linejoin="round" width="8" height="24" fill="rgb(49,184,120)" stroke="rgb(39,147,96)" stroke-width="1" opacity="0.75" />
			</g>
		</g>
		<g>
			<title> (ctg447_22)</title>
			<polygon class=" (ctg447_22)" points="714,40 721,10 721,70" fill="rgb(255,255,255)" fill-opacity="1.0" stroke="rgb(0,0,0)" stroke-width="2"  />
		</g>
		<g>
			<title> (ctg447_23)</title>
			<polygon class=" (ctg447_23)" points="723,40 750,10 750,70" fill="rgb(255,255,255)" fill-opacity="1.0" stroke="rgb(0,0,0)" stroke-width="2"  />
		</g>
		<g>
			<title> (ctg447_24)</title>
			<polygon class=" (ctg447_24)" points="795,25 780,25 780,10 750,40 780,70 780,55 795,55" fill="rgb(255,255,255)" fill-opacity="1.0" stroke="rgb(0,0,0)" stroke-width="2"  />
			<g>
				<title>N6_N4_Mtase (PF01555)
"DNA methylase"</title>
				<rect class="PF01555" x="786" y="28" stroke-linejoin="round" width="8" height="24" fill="rgb(54,198,162)" stroke="rgb(43,158,129)" stroke-width="1" opacity="0.75" />
			</g>
		</g>
		<g>
			<title> (ctg447_25)</title>
			<polygon class=" (ctg447_25)" points="837,25 828,25 828,10 798,40 828,70 828,55 837,55" fill="rgb(255,255,255)" fill-opacity="1.0" stroke="rgb(0,0,0)" stroke-width="2"  />
			<g>
				<title>TPR_12 (PF13424)
"Tetratricopeptide repeat"</title>
				<polygon class="PF13424" points="803,39 810,32 810,48 803,41" stroke-linejoin="round" width="7" height="24" fill="rgb(147,215,101)" stroke="rgb(117,172,80)" stroke-width="1" opacity="0.75" />
			</g>
			<g>
				<title>TPR_12 (PF13424)
"Tetratricopeptide repeat"</title>
				<polygon class="PF13424" points="811,31 814,28 818,28 818,52 814,52 811,49" stroke-linejoin="round" width="7" height="24" fill="rgb(147,215,101)" stroke="rgb(117,172,80)" stroke-width="1" opacity="0.75" />
			</g>
			<g>
				<title>TPR_12 (PF13424)
"Tetratricopeptide repeat"</title>
				<rect class="PF13424" x="828" y="28" stroke-linejoin="round" width="7" height="24" fill="rgb(147,215,101)" stroke="rgb(117,172,80)" stroke-width="1" opacity="0.75" />
			</g>
		</g>
	</g>
</svg>
