<svg version="1.1" baseProfile="full" xmlns="http://www.w3.org/2000/svg" width="443.46666666666664" height="80">
	<g>
		<line x1="10" y1="40.0" x2="433.46666666666664" y2="40.0" style="stroke:rgb(70,70,70); stroke-width:3 "/>
		<g>
			<title> (ctg5833_2)</title>
			<polygon class=" (ctg5833_2)" points="22,10 43,40 22,70" fill="rgb(255,255,255)" fill-opacity="1.0" stroke="rgb(0,0,0)" stroke-width="2"  />
			<g>
				<title>PCMT (PF01135)
"Protein-L-isoaspartate(D-aspartate) O-methyltransferase (PCMT)"</title>
				<polygon class="PF01135" points="22,28 31,28 39,40 31,52 22,52" stroke-linejoin="round" width="20" height="24" fill="rgb(204,80,91)" stroke="rgb(163,64,72)" stroke-width="1" opacity="0.75" />
			</g>
		</g>
		<g>
			<title> (ctg5833_3)</title>
			<polygon class=" (ctg5833_3)" points="47,25 94,25 94,10 124,40 94,70 94,55 47,55" fill="rgb(255,255,255)" fill-opacity="1.0" stroke="rgb(0,0,0)" stroke-width="2"  />
			<g>
				<title>Ald_Xan_dh_C (PF01315)
"Aldehyde oxidase and xanthine dehydrogenase, a/b hammerhead domain"</title>
				<rect class="PF01315" x="49" y="28" stroke-linejoin="round" width="12" height="24" fill="rgb(127,182,88)" stroke="rgb(101,145,70)" stroke-width="1" opacity="0.75" />
			</g>
			<g>
				<title>Ald_Xan_dh_C2 (PF02738)
"Molybdopterin-binding domain of aldehyde dehydrogenase"</title>
				<polygon class="PF02738" points="62,28 108,28 117,37 117,43 108,52 62,52" stroke-linejoin="round" width="55" height="24" fill="rgb(194,143,89)" stroke="rgb(155,114,71)" stroke-width="1" opacity="0.75" />
			</g>
		</g>
		<g>
			<title> (ctg5833_4)</title>
			<polygon class=" (ctg5833_4)" points="134,25 137,25 137,10 167,40 137,70 137,55 134,55" fill="rgb(255,255,255)" fill-opacity="1.0" stroke="rgb(0,0,0)" stroke-width="2"  />
			<g>
				<title>LysM (PF01476)
"LysM domain"</title>
				<rect class="PF01476" x="139" y="28" stroke-linejoin="round" width="4" height="24" fill="rgb(200,86,203)" stroke="rgb(160,68,162)" stroke-width="1" opacity="0.75" />
			</g>
			<g>
				<title>LysM (PF01476)
"LysM domain"</title>
				<rect class="PF01476" x="144" y="28" stroke-linejoin="round" width="4" height="24" fill="rgb(200,86,203)" stroke="rgb(160,68,162)" stroke-width="1" opacity="0.75" />
			</g>
			<g>
				<title>Peptidase_M23 (PF01551)
"Peptidase family M23"</title>
				<polygon class="PF01551" points="154,31 163,40 163,40 154,49" stroke-linejoin="round" width="9" height="24" fill="rgb(65,169,193)" stroke="rgb(51,135,154)" stroke-width="1" opacity="0.75" />
			</g>
		</g>
		<g>
			<title> (ctg5833_5)</title>
			<polygon class=" (ctg5833_5)" points="165,40 193,10 193,70" fill="rgb(255,255,255)" fill-opacity="1.0" stroke="rgb(0,0,0)" stroke-width="2"  />
			<g>
				<title>DUF815 (PF05673)
"Protein of unknown function (DUF815)"</title>
				<polygon class="PF05673" points="169,40 180,28 189,28 189,52 180,52" stroke-linejoin="round" width="24" height="24" fill="rgb(91,105,210)" stroke="rgb(72,83,168)" stroke-width="1" opacity="0.75" />
			</g>
		</g>
		<g>
			<title> (ctg5833_6)</title>
			<polygon class=" (ctg5833_6)" points="200,10 213,40 200,70" fill="rgb(255,255,255)" fill-opacity="1.0" stroke="rgb(0,0,0)" stroke-width="2"  />
			<g>
				<title>YajC (PF02699)
"Preprotein translocase subunit"</title>
				<polygon class="PF02699" points="201,28 204,28 208,35 208,45 204,52 201,52" stroke-linejoin="round" width="7" height="24" fill="rgb(83,176,198)" stroke="rgb(66,140,158)" stroke-width="1" opacity="0.75" />
			</g>
		</g>
		<g>
			<title> (ctg5833_7)</title>
			<polygon class=" (ctg5833_7)" points="214,25 237,25 237,10 267,40 237,70 237,55 214,55" fill="rgb(255,255,255)" fill-opacity="1.0" stroke="rgb(0,0,0)" stroke-width="2"  />
			<g>
				<title>Sec_GG (PF07549)
"SecD/SecF GG Motif"</title>
				<rect class="PF07549" x="217" y="28" stroke-linejoin="round" width="2" height="24" fill="rgb(195,145,79)" stroke="rgb(156,116,63)" stroke-width="1" opacity="0.75" />
			</g>
			<g>
				<title>SecD_SecF (PF02355)
"Protein export membrane protein"</title>
				<polygon class="PF02355" points="249,28 251,28 263,40 251,52 249,52" stroke-linejoin="round" width="17" height="24" fill="rgb(183,133,79)" stroke="rgb(146,106,63)" stroke-width="1" opacity="0.75" />
			</g>
		</g>
		<g>
			<title> (ctg5833_8)</title>
			<polygon class=" (ctg5833_8)" points="269,25 270,25 270,10 300,40 270,70 270,55 269,55" fill="rgb(255,255,255)" fill-opacity="1.0" stroke="rgb(0,0,0)" stroke-width="2"  />
			<g>
				<title>SecD_SecF (PF02355)
"Protein export membrane protein"</title>
				<polygon class="PF02355" points="280,28 284,28 296,40 284,52 280,52" stroke-linejoin="round" width="18" height="24" fill="rgb(183,133,79)" stroke="rgb(146,106,63)" stroke-width="1" opacity="0.75" />
			</g>
		</g>
		<g>
			<title> (ctg5833_9)</title>
			<polygon class=" (ctg5833_9)" points="301,10 313,40 301,70" fill="rgb(255,255,255)" fill-opacity="1.0" stroke="rgb(0,0,0)" stroke-width="2"  />
			<g>
				<title>DUF498 (PF04430)
"Protein of unknown function (DUF498/DUF598)"</title>
				<polygon class="PF04430" points="302,28 305,28 310,40 305,52 302,52" stroke-linejoin="round" width="10" height="24" fill="rgb(182,124,55)" stroke="rgb(145,99,44)" stroke-width="1" opacity="0.75" />
			</g>
		</g>
		<g>
			<title> (ctg5833_10)</title>
			<polygon class=" (ctg5833_10)" points="316,40 332,10 332,70" fill="rgb(255,255,255)" fill-opacity="1.0" stroke="rgb(0,0,0)" stroke-width="2"  />
			<g>
				<title>Urate_ox_N (PF06181)
"Urate oxidase N-terminal"</title>
				<polygon class="PF06181" points="319,40 323,33 323,47" stroke-linejoin="round" width="7" height="24" fill="rgb(215,88,150)" stroke="rgb(172,70,120)" stroke-width="1" opacity="0.75" />
			</g>
		</g>
		<g>
			<title> (ctg5833_11)</title>
			<polygon class=" (ctg5833_11)" points="333,40 336,10 336,70" fill="rgb(255,255,255)" fill-opacity="1.0" stroke="rgb(0,0,0)" stroke-width="2"  />
		</g>
		<g>
			<title> (ctg5833_12)</title>
			<polygon class=" (ctg5833_12)" points="343,10 371,40 343,70" fill="rgb(255,255,255)" fill-opacity="1.0" stroke="rgb(0,0,0)" stroke-width="2"  />
			<g>
				<title>SQS_PSY (PF00494)
"Squalene/phytoene synthase"</title>
				<polygon class="PF00494" points="344,28 355,28 367,40 355,52 344,52" stroke-linejoin="round" width="26" height="24" fill="rgb(178,91,49)" stroke="rgb(142,72,39)" stroke-width="1" opacity="0.75" />
			</g>
		</g>
		<g>
			<title> (ctg5833_13)</title>
			<polygon class=" (ctg5833_13)" points="420,25 404,25 404,10 374,40 404,70 404,55 420,55" fill="rgb(255,255,255)" fill-opacity="1.0" stroke="rgb(0,0,0)" stroke-width="2"  />
			<g>
				<title>GIDA (PF01134)
"Glucose inhibited division protein A"</title>
				<polygon class="PF01134" points="381,37 390,28 418,28 418,52 390,52 381,43" stroke-linejoin="round" width="37" height="24" fill="rgb(180,78,98)" stroke="rgb(144,62,78)" stroke-width="1" opacity="0.75" />
			</g>
		</g>
		<g>
			<title> (ctg5833_14)</title>
			<polygon class=" (ctg5833_14)" points="429,10 433,40 429,70" fill="rgb(255,255,255)" fill-opacity="1.0" stroke="rgb(0,0,0)" stroke-width="2"  />
		</g>
	</g>
</svg>
