<svg version="1.1" baseProfile="full" xmlns="http://www.w3.org/2000/svg" width="1443.6333333333334" height="80">
	<g>
		<line x1="10" y1="40.0" x2="1433.6333333333334" y2="40.0" style="stroke:rgb(70,70,70); stroke-width:3 "/>
		<g>
			<title> (ctg2_81)</title>
			<polygon class=" (ctg2_81)" points="38,40 63,10 63,70" fill="rgb(255,255,255)" fill-opacity="1.0" stroke="rgb(0,0,0)" stroke-width="2"  />
			<g>
				<title>SurE (PF01975)
"Survival protein SurE"</title>
				<polygon class="PF01975" points="45,36 52,28 62,28 62,52 52,52 45,44" stroke-linejoin="round" width="17" height="24" fill="rgb(55,201,204)" stroke="rgb(44,160,163)" stroke-width="1" opacity="0.75" />
			</g>
		</g>
		<g>
			<title> (ctg2_82)</title>
			<polygon class=" (ctg2_82)" points="67,40 82,10 82,70" fill="rgb(255,255,255)" fill-opacity="1.0" stroke="rgb(0,0,0)" stroke-width="2"  />
			<g>
				<title>MerR_1 (PF13411)
"MerR HTH family regulatory protein"</title>
				<polygon class="PF13411" points="72,36 76,28 79,28 79,52 76,52 72,44" stroke-linejoin="round" width="7" height="24" fill="rgb(100,202,107)" stroke="rgb(80,161,85)" stroke-width="1" opacity="0.75" />
			</g>
		</g>
		<g>
			<title> (ctg2_83)</title>
			<polygon class=" (ctg2_83)" points="132,25 118,25 118,10 88,40 118,70 118,55 132,55" fill="rgb(255,255,255)" fill-opacity="1.0" stroke="rgb(0,0,0)" stroke-width="2"  />
			<g>
				<title>KH_dom-like (PF14714)
"KH-domain-like of EngA bacterial GTPase enzymes, C-terminal"</title>
				<polygon class="PF14714" points="92,40 95,37 95,43" stroke-linejoin="round" width="7" height="24" fill="rgb(178,119,50)" stroke="rgb(142,95,40)" stroke-width="1" opacity="0.75" />
			</g>
			<g>
				<title>MMR_HSR1 (PF01926)
"50S ribosome-binding GTPase"</title>
				<polygon class="PF01926" points="102,30 104,28 113,28 113,52 104,52 102,50" stroke-linejoin="round" width="11" height="24" fill="rgb(105,180,226)" stroke="rgb(83,143,180)" stroke-width="1" opacity="0.75" />
			</g>
			<g>
				<title>MMR_HSR1 (PF01926)
"50S ribosome-binding GTPase"</title>
				<rect class="PF01926" x="120" y="28" stroke-linejoin="round" width="11" height="24" fill="rgb(105,180,226)" stroke="rgb(83,143,180)" stroke-width="1" opacity="0.75" />
			</g>
		</g>
		<g>
			<title> (ctg2_84)</title>
			<polygon class=" (ctg2_84)" points="136,10 156,40 136,70" fill="rgb(255,255,255)" fill-opacity="1.0" stroke="rgb(0,0,0)" stroke-width="2"  />
			<g>
				<title>Methyltransf_23 (PF13489)
"Methyltransferase domain"</title>
				<polygon class="PF13489" points="137,28 144,28 152,39 152,41 144,52 137,52" stroke-linejoin="round" width="15" height="24" fill="rgb(188,189,66)" stroke="rgb(150,151,52)" stroke-width="1" opacity="0.75" />
			</g>
		</g>
		<g>
			<title> (ctg2_85)</title>
			<polygon class=" (ctg2_85)" points="157,10 179,40 157,70" fill="rgb(255,255,255)" fill-opacity="1.0" stroke="rgb(0,0,0)" stroke-width="2"  />
			<g>
				<title>QueC (PF06508)
"Queuosine biosynthesis protein QueC"</title>
				<polygon class="PF06508" points="157,28 167,28 175,40 167,52 157,52" stroke-linejoin="round" width="20" height="24" fill="rgb(217,93,123)" stroke="rgb(173,74,98)" stroke-width="1" opacity="0.75" />
			</g>
		</g>
		<g>
			<title> (ctg2_86)</title>
			<polygon class=" (ctg2_86)" points="191,25 196,25 196,10 226,40 196,70 196,55 191,55" fill="rgb(255,255,255)" fill-opacity="1.0" stroke="rgb(0,0,0)" stroke-width="2"  />
			<g>
				<title>CarboxypepD_reg (PF13620)
"Carboxypeptidase regulatory-like domain"</title>
				<rect class="PF13620" x="194" y="28" stroke-linejoin="round" width="8" height="24" fill="rgb(201,63,96)" stroke="rgb(160,50,76)" stroke-width="1" opacity="0.75" />
			</g>
			<g>
				<title>TPR_12 (PF13424)
"Tetratricopeptide repeat"</title>
				<polygon class="PF13424" points="208,28 210,28 215,33 215,47 210,52 208,52" stroke-linejoin="round" width="7" height="24" fill="rgb(147,215,101)" stroke="rgb(117,172,80)" stroke-width="1" opacity="0.75" />
			</g>
			<g>
				<title>TPR_1 (PF00515)
"Tetratricopeptide repeat"</title>
				<polygon class="PF00515" points="216,34 219,37 219,43 216,46" stroke-linejoin="round" width="3" height="24" fill="rgb(193,73,189)" stroke="rgb(154,58,151)" stroke-width="1" opacity="0.75" />
			</g>
		</g>
		<g>
			<title> (ctg2_87)</title>
			<polygon class=" (ctg2_87)" points="228,40 255,10 255,70" fill="rgb(255,255,255)" fill-opacity="1.0" stroke="rgb(0,0,0)" stroke-width="2"  />
		</g>
		<g>
			<title> (ctg2_88)</title>
			<polygon class=" (ctg2_88)" points="269,10 296,40 269,70" fill="rgb(255,255,255)" fill-opacity="1.0" stroke="rgb(0,0,0)" stroke-width="2"  />
			<g>
				<title>SATase_N (PF06426)
"Serine acetyltransferase, N-terminal"</title>
				<rect class="PF06426" x="270" y="28" stroke-linejoin="round" width="10" height="24" fill="rgb(66,167,178)" stroke="rgb(52,133,142)" stroke-width="1" opacity="0.75" />
			</g>
			<g>
				<title>Hexapep (PF00132)
"Bacterial transferase hexapeptide (six repeats)"</title>
				<polygon class="PF00132" points="288,36 291,39 291,41 288,44" stroke-linejoin="round" width="3" height="24" fill="rgb(89,131,202)" stroke="rgb(71,104,161)" stroke-width="1" opacity="0.75" />
			</g>
		</g>
		<g>
			<title> (ctg2_89)</title>
			<polygon class=" (ctg2_89)" points="299,10 318,40 299,70" fill="rgb(255,255,255)" fill-opacity="1.0" stroke="rgb(0,0,0)" stroke-width="2"  />
			<g>
				<title>DUF1080 (PF06439)
"Domain of Unknown Function (DUF1080)"</title>
				<polygon class="PF06439" points="299,28 307,28 314,40 307,52 299,52" stroke-linejoin="round" width="18" height="24" fill="rgb(136,84,203)" stroke="rgb(108,67,162)" stroke-width="1" opacity="0.75" />
			</g>
		</g>
		<g>
			<title> (ctg2_90)</title>
			<polygon class=" (ctg2_90)" points="329,10 355,40 329,70" fill="rgb(255,255,255)" fill-opacity="1.0" stroke="rgb(0,0,0)" stroke-width="2"  />
			<g>
				<title>Methyltransf_11 (PF08241)
"Methyltransferase domain"</title>
				<polygon class="PF08241" points="333,28 341,28 342,30 342,50 341,52 333,52" stroke-linejoin="round" width="9" height="24" fill="rgb(106,219,159)" stroke="rgb(84,175,127)" stroke-width="1" opacity="0.75" />
			</g>
		</g>
		<g>
			<title> (ctg2_91)</title>
			<polygon class=" (ctg2_91)" points="361,25 376,25 376,10 406,40 376,70 376,55 361,55" fill="rgb(255,255,255)" fill-opacity="1.0" stroke="rgb(0,0,0)" stroke-width="2"  />
			<g>
				<title>Aminotran_3 (PF00202)
"Aminotransferase class-III"</title>
				<polygon class="PF00202" points="363,28 390,28 402,40 390,52 363,52" stroke-linejoin="round" width="42" height="24" fill="rgb(49,163,189)" stroke="rgb(39,130,151)" stroke-width="1" opacity="0.75" />
			</g>
		</g>
		<g>
			<title> (ctg2_92)</title>
			<polygon class=" (ctg2_92)" points="407,25 411,25 411,10 441,40 411,70 411,55 407,55" fill="rgb(255,255,255)" fill-opacity="1.0" stroke="rgb(0,0,0)" stroke-width="2"  />
			<g>
				<title>PD40 (PF07676)
"WD40-like Beta Propeller Repeat"</title>
				<rect class="PF07676" x="410" y="28" stroke-linejoin="round" width="3" height="24" fill="rgb(49,78,191)" stroke="rgb(39,62,152)" stroke-width="1" opacity="0.75" />
			</g>
			<g>
				<title>PD40 (PF07676)
"WD40-like Beta Propeller Repeat"</title>
				<rect class="PF07676" x="421" y="28" stroke-linejoin="round" width="3" height="24" fill="rgb(49,78,191)" stroke="rgb(39,62,152)" stroke-width="1" opacity="0.75" />
			</g>
			<g>
				<title>PD40 (PF07676)
"WD40-like Beta Propeller Repeat"</title>
				<polygon class="PF07676" points="425,28 425,28 428,31 428,49 425,52 425,52" stroke-linejoin="round" width="3" height="24" fill="rgb(49,78,191)" stroke="rgb(39,62,152)" stroke-width="1" opacity="0.75" />
			</g>
			<g>
				<title>PD40 (PF07676)
"WD40-like Beta Propeller Repeat"</title>
				<polygon class="PF07676" points="432,35 436,39 436,41 432,45" stroke-linejoin="round" width="4" height="24" fill="rgb(49,78,191)" stroke="rgb(39,62,152)" stroke-width="1" opacity="0.75" />
			</g>
			<g>
				<title>PD40 (PF07676)
"WD40-like Beta Propeller Repeat"</title>
				<polygon class="PF07676" points="437,40 437,40 437,40" stroke-linejoin="round" width="4" height="24" fill="rgb(49,78,191)" stroke="rgb(39,62,152)" stroke-width="1" opacity="0.75" />
			</g>
		</g>
		<g>
			<title> (ctg2_93)</title>
			<polygon class=" (ctg2_93)" points="443,10 463,40 443,70" fill="rgb(255,255,255)" fill-opacity="1.0" stroke="rgb(0,0,0)" stroke-width="2"  />
			<g>
				<title>Pur_DNA_glyco (PF02245)
"Methylpurine-DNA glycosylase (MPG)"</title>
				<polygon class="PF02245" points="444,28 451,28 459,40 451,52 444,52" stroke-linejoin="round" width="18" height="24" fill="rgb(224,94,125)" stroke="rgb(179,75,100)" stroke-width="1" opacity="0.75" />
			</g>
		</g>
		<g>
			<title> (ctg2_94)</title>
			<polygon class=" (ctg2_94)" points="532,25 508,25 508,10 478,40 508,70 508,55 532,55" fill="rgb(255,255,255)" fill-opacity="1.0" stroke="rgb(0,0,0)" stroke-width="2"  />
			<g>
				<title>SSF (PF00474)
"Sodium:solute symporter family"</title>
				<polygon class="PF00474" points="486,36 494,28 527,28 527,52 494,52 486,44" stroke-linejoin="round" width="41" height="24" fill="rgb(49,186,178)" stroke="rgb(39,148,142)" stroke-width="1" opacity="0.75" />
			</g>
		</g>
		<g>
			<title> (ctg2_95)</title>
			<polygon class=" (ctg2_95)" points="543,25 544,25 544,10 574,40 544,70 544,55 543,55" fill="rgb(255,255,255)" fill-opacity="1.0" stroke="rgb(0,0,0)" stroke-width="2"  />
			<g>
				<title>UxuA (PF03786)
"D-mannonate dehydratase (UxuA)"</title>
				<rect class="PF03786" x="544" y="28" stroke-linejoin="round" width="12" height="24" fill="rgb(193,50,168)" stroke="rgb(154,39,134)" stroke-width="1" opacity="0.75" />
			</g>
			<g>
				<title>UxuA (PF03786)
"D-mannonate dehydratase (UxuA)"</title>
				<polygon class="PF03786" points="556,28 558,28 570,40 558,52 556,52" stroke-linejoin="round" width="17" height="24" fill="rgb(193,50,168)" stroke="rgb(154,39,134)" stroke-width="1" opacity="0.75" />
			</g>
		</g>
		<g>
			<title> (ctg2_96)</title>
			<polygon class=" (ctg2_96)" points="575,10 595,40 575,70" fill="rgb(255,255,255)" fill-opacity="1.0" stroke="rgb(0,0,0)" stroke-width="2"  />
			<g>
				<title>HAD_2 (PF13419)
"Haloacid dehalogenase-like hydrolase"</title>
				<polygon class="PF13419" points="584,29 591,40 584,51" stroke-linejoin="round" width="9" height="24" fill="rgb(60,223,188)" stroke="rgb(48,178,150)" stroke-width="1" opacity="0.75" />
			</g>
		</g>
		<g>
			<title> (ctg2_97)</title>
			<polygon class=" (ctg2_97)" points="597,10 622,40 597,70" fill="rgb(255,255,255)" fill-opacity="1.0" stroke="rgb(0,0,0)" stroke-width="2"  />
			<g>
				<title>Metallophos_2 (PF12850)
"Calcineurin-like phosphoesterase superfamily domain"</title>
				<polygon class="PF12850" points="597,28 608,28 618,40 618,40 608,52 597,52" stroke-linejoin="round" width="21" height="24" fill="rgb(143,76,212)" stroke="rgb(114,60,169)" stroke-width="1" opacity="0.75" />
			</g>
		</g>
		<g>
			<title> (ctg2_98)</title>
			<polygon class=" (ctg2_98)" points="623,40 637,10 637,70" fill="rgb(255,255,255)" fill-opacity="1.0" stroke="rgb(0,0,0)" stroke-width="2"  />
		</g>
		<g>
			<title> (ctg2_99)</title>
			<polygon class=" (ctg2_99)" points="648,10 674,40 648,70" fill="rgb(255,255,255)" fill-opacity="1.0" stroke="rgb(0,0,0)" stroke-width="2"  />
			<g>
				<title>Hydrolase_6 (PF13344)
"Haloacid dehalogenase-like hydrolase"</title>
				<rect class="PF13344" x="649" y="28" stroke-linejoin="round" width="9" height="24" fill="rgb(78,107,184)" stroke="rgb(62,85,147)" stroke-width="1" opacity="0.75" />
			</g>
			<g>
				<title>Hydrolase_like (PF13242)
"HAD-hyrolase-like"</title>
				<polygon class="PF13242" points="666,36 670,40 666,44" stroke-linejoin="round" width="7" height="24" fill="rgb(202,89,70)" stroke="rgb(161,71,56)" stroke-width="1" opacity="0.75" />
			</g>
		</g>
		<g>
			<title> (ctg2_100)</title>
			<polygon class=" (ctg2_100)" points="676,25 736,25 736,10 766,40 736,70 736,55 676,55" fill="rgb(255,255,255)" fill-opacity="1.0" stroke="rgb(0,0,0)" stroke-width="2"  />
			<g>
				<title>AMP-binding (PF00501)
"AMP-binding enzyme"</title>
				<rect class="PF00501" x="677" y="28" stroke-linejoin="round" width="41" height="24" fill="rgb(60,217,223)" stroke="rgb(48,173,178)" stroke-width="1" opacity="0.75" />
			</g>
			<g>
				<title>PP-binding (PF00550)
"Phosphopantetheine attachment site"</title>
				<rect class="PF00550" x="730" y="28" stroke-linejoin="round" width="6" height="24" fill="rgb(103,191,88)" stroke="rgb(82,152,70)" stroke-width="1" opacity="0.75" />
			</g>
			<g>
				<title>Acyltransferase (PF01553)
"Acyltransferase"</title>
				<polygon class="PF01553" points="745,28 750,28 759,37 759,43 750,52 745,52" stroke-linejoin="round" width="14" height="24" fill="rgb(87,176,216)" stroke="rgb(69,140,172)" stroke-width="1" opacity="0.75" />
			</g>
		</g>
		<g>
			<title> (ctg2_101)</title>
			<polygon class=" (ctg2_101)" points="806,25 799,25 799,10 769,40 799,70 799,55 806,55" fill="rgb(255,255,255)" fill-opacity="1.0" stroke="rgb(0,0,0)" stroke-width="2"  />
			<g>
				<title>Iso_dh (PF00180)
"Isocitrate/isopropylmalate dehydrogenase"</title>
				<polygon class="PF00180" points="773,40 785,28 805,28 805,52 785,52" stroke-linejoin="round" width="36" height="24" fill="rgb(109,54,206)" stroke="rgb(87,43,164)" stroke-width="1" opacity="0.75" />
			</g>
		</g>
		<g>
			<title> (ctg2_102)</title>
			<polygon class=" (ctg2_102)" points="851,25 844,25 844,10 814,40 844,70 844,55 851,55" fill="rgb(255,255,255)" fill-opacity="1.0" stroke="rgb(0,0,0)" stroke-width="2"  />
			<g>
				<title>DAO (PF01266)
"FAD dependent oxidoreductase"</title>
				<polygon class="PF01266" points="818,40 830,28 850,28 850,52 830,52" stroke-linejoin="round" width="34" height="24" fill="rgb(123,179,59)" stroke="rgb(98,143,47)" stroke-width="1" opacity="0.75" />
			</g>
		</g>
		<g>
			<title> (ctg2_103)</title>
			<polygon class=" (ctg2_103)" points="862,25 890,25 890,10 920,40 890,70 890,55 862,55" fill="rgb(255,255,255)" fill-opacity="1.0" stroke="rgb(0,0,0)" stroke-width="2"  />
		</g>
		<g>
			<title> (ctg2_104)</title>
			<polygon class=" (ctg2_104)" points="921,25 964,25 964,10 994,40 964,70 964,55 921,55" fill="rgb(255,255,255)" fill-opacity="1.0" stroke="rgb(0,0,0)" stroke-width="2"  />
		</g>
		<g>
			<title> (ctg2_105)</title>
			<polygon class=" (ctg2_105)" points="996,25 1038,25 1038,10 1068,40 1038,70 1038,55 996,55" fill="rgb(255,255,255)" fill-opacity="1.0" stroke="rgb(0,0,0)" stroke-width="2"  />
			<g>
				<title>BNR_2 (PF13088)
"BNR repeat-like domain"</title>
				<rect class="PF13088" x="1002" y="28" stroke-linejoin="round" width="26" height="24" fill="rgb(196,211,74)" stroke="rgb(156,168,59)" stroke-width="1" opacity="0.75" />
			</g>
			<g>
				<title>BNR_2 (PF13088)
"BNR repeat-like domain"</title>
				<polygon class="PF13088" points="1045,28 1052,28 1064,40 1064,40 1052,52 1045,52" stroke-linejoin="round" width="19" height="24" fill="rgb(196,211,74)" stroke="rgb(156,168,59)" stroke-width="1" opacity="0.75" />
			</g>
		</g>
		<g>
			<title> (ctg2_106)</title>
			<polygon class=" (ctg2_106)" points="1123,25 1100,25 1100,10 1070,40 1100,70 1100,55 1123,55" fill="rgb(255,255,255)" fill-opacity="1.0" stroke="rgb(0,0,0)" stroke-width="2"  />
		</g>
		<g>
			<title> (ctg2_107)</title>
			<polygon class=" (ctg2_107)" points="1132,40 1146,10 1146,70" fill="rgb(255,255,255)" fill-opacity="1.0" stroke="rgb(0,0,0)" stroke-width="2"  />
			<g>
				<title>PIN (PF01850)
"PIN domain"</title>
				<polygon class="PF01850" points="1135,40 1141,28 1145,28 1145,52 1141,52" stroke-linejoin="round" width="12" height="24" fill="rgb(91,217,126)" stroke="rgb(72,173,100)" stroke-width="1" opacity="0.75" />
			</g>
		</g>
		<g>
			<title> (ctg2_108)</title>
			<polygon class=" (ctg2_108)" points="1145,40 1153,10 1153,70" fill="rgb(255,255,255)" fill-opacity="1.0" stroke="rgb(0,0,0)" stroke-width="2"  />
			<g>
				<title>PhdYeFM_antitox (PF02604)
"Antitoxin Phd_YefM, type II toxin-antitoxin system"</title>
				<polygon class="PF02604" points="1148,40 1151,28 1153,28 1153,52 1151,52" stroke-linejoin="round" width="7" height="24" fill="rgb(204,60,69)" stroke="rgb(163,48,55)" stroke-width="1" opacity="0.75" />
			</g>
		</g>
		<g>
			<title> (ctg2_109)</title>
			<polygon class=" (ctg2_109)" points="1166,25 1198,25 1198,10 1228,40 1198,70 1198,55 1166,55" fill="rgb(255,255,255)" fill-opacity="1.0" stroke="rgb(0,0,0)" stroke-width="2"  />
			<g>
				<title>TPR_12 (PF13424)
"Tetratricopeptide repeat"</title>
				<rect class="PF13424" x="1203" y="28" stroke-linejoin="round" width="6" height="24" fill="rgb(147,215,101)" stroke="rgb(117,172,80)" stroke-width="1" opacity="0.75" />
			</g>
		</g>
		<g>
			<title> (ctg2_110)</title>
			<polygon class=" (ctg2_110)" points="1231,10 1253,40 1231,70" fill="rgb(255,255,255)" fill-opacity="1.0" stroke="rgb(0,0,0)" stroke-width="2"  />
		</g>
		<g>
			<title> (ctg2_111)</title>
			<polygon class=" (ctg2_111)" points="1259,25 1271,25 1271,10 1301,40 1271,70 1271,55 1259,55" fill="rgb(255,255,255)" fill-opacity="1.0" stroke="rgb(0,0,0)" stroke-width="2"  />
			<g>
				<title>p450 (PF00067)
"Cytochrome P450"</title>
				<polygon class="PF00067" points="1265,28 1285,28 1297,40 1285,52 1265,52" stroke-linejoin="round" width="33" height="24" fill="rgb(85,216,107)" stroke="rgb(68,172,85)" stroke-width="1" opacity="0.75" />
			</g>
		</g>
		<g>
			<title> (ctg2_112)</title>
			<polygon class=" (ctg2_112)" points="1302,10 1321,40 1302,70" fill="rgb(255,255,255)" fill-opacity="1.0" stroke="rgb(0,0,0)" stroke-width="2"  />
		</g>
		<g>
			<title> (ctg2_113)</title>
			<polygon class=" (ctg2_113)" points="1349,10 1364,40 1349,70" fill="rgb(255,255,255)" fill-opacity="1.0" stroke="rgb(0,0,0)" stroke-width="2"  />
			<g>
				<title>DUF2726 (PF10881)
"Protein of unknown function (DUF2726)"</title>
				<polygon class="PF10881" points="1350,28 1354,28 1361,40 1354,52 1350,52" stroke-linejoin="round" width="12" height="24" fill="rgb(167,78,185)" stroke="rgb(133,62,148)" stroke-width="1" opacity="0.75" />
			</g>
		</g>
	</g>
</svg>
