<svg version="1.1" baseProfile="full" xmlns="http://www.w3.org/2000/svg" width="502.23333333333335" height="80">
	<g>
		<line x1="10" y1="40.0" x2="492.23333333333335" y2="40.0" style="stroke:rgb(70,70,70); stroke-width:3 "/>
		<g>
			<title> (ctg2191_7)</title>
			<polygon class=" (ctg2191_7)" points="78,25 65,25 65,10 35,40 65,70 65,55 78,55" fill="rgb(255,255,255)" fill-opacity="1.0" stroke="rgb(0,0,0)" stroke-width="2"  />
			<g>
				<title>EPSP_synthase (PF00275)
"EPSP synthase (3-phosphoshikimate 1-carboxyvinyltransferase)"</title>
				<polygon class="PF00275" points="39,40 51,28 77,28 77,52 51,52" stroke-linejoin="round" width="40" height="24" fill="rgb(217,213,85)" stroke="rgb(173,170,68)" stroke-width="1" opacity="0.75" />
			</g>
		</g>
		<g>
			<title> (ctg2191_8)</title>
			<polygon class=" (ctg2191_8)" points="79,10 91,40 79,70" fill="rgb(255,255,255)" fill-opacity="1.0" stroke="rgb(0,0,0)" stroke-width="2"  />
		</g>
		<g>
			<title> (ctg2191_9)</title>
			<polygon class=" (ctg2191_9)" points="138,25 129,25 129,10 99,40 129,70 129,55 138,55" fill="rgb(255,255,255)" fill-opacity="1.0" stroke="rgb(0,0,0)" stroke-width="2"  />
			<g>
				<title>AbiEii (PF08843)
"Nucleotidyl transferase AbiEii toxin, Type IV TA system"</title>
				<polygon class="PF08843" points="110,33 115,28 135,28 135,52 115,52 110,47" stroke-linejoin="round" width="25" height="24" fill="rgb(179,218,98)" stroke="rgb(143,174,78)" stroke-width="1" opacity="0.75" />
			</g>
		</g>
		<g>
			<title> (ctg2191_10)</title>
			<polygon class=" (ctg2191_10)" points="139,40 167,10 167,70" fill="rgb(255,255,255)" fill-opacity="1.0" stroke="rgb(0,0,0)" stroke-width="2"  />
			<g>
				<title>AbiEi_4 (PF13338)
"Transcriptional regulator, AbiEi antitoxin"</title>
				<rect class="PF13338" x="159" y="28" stroke-linejoin="round" width="5" height="24" fill="rgb(77,192,162)" stroke="rgb(61,153,129)" stroke-width="1" opacity="0.75" />
			</g>
		</g>
		<g>
			<title> (ctg2191_11)</title>
			<polygon class=" (ctg2191_11)" points="192,40 195,10 195,70" fill="rgb(255,255,255)" fill-opacity="1.0" stroke="rgb(0,0,0)" stroke-width="2"  />
		</g>
		<g>
			<title> (ctg2191_12)</title>
			<polygon class=" (ctg2191_12)" points="200,40 204,10 204,70" fill="rgb(255,255,255)" fill-opacity="1.0" stroke="rgb(0,0,0)" stroke-width="2"  />
		</g>
		<g>
			<title> (ctg2191_13)</title>
			<polygon class=" (ctg2191_13)" points="208,25 216,25 216,10 246,40 216,70 216,55 208,55" fill="rgb(255,255,255)" fill-opacity="1.0" stroke="rgb(0,0,0)" stroke-width="2"  />
			<g>
				<title>Aminotran_5 (PF00266)
"Aminotransferase class-V"</title>
				<polygon class="PF00266" points="208,28 229,28 241,40 229,52 208,52" stroke-linejoin="round" width="36" height="24" fill="rgb(214,54,122)" stroke="rgb(171,43,97)" stroke-width="1" opacity="0.75" />
			</g>
		</g>
		<g>
			<title> (ctg2191_14)</title>
			<polygon class=" (ctg2191_14)" points="245,10 266,40 245,70" fill="rgb(255,255,255)" fill-opacity="1.0" stroke="rgb(0,0,0)" stroke-width="2"  />
			<g>
				<title>DUF2064 (PF09837)
"Uncharacterized protein conserved in bacteria (DUF2064)"</title>
				<polygon class="PF09837" points="248,28 254,28 259,35 259,45 254,52 248,52" stroke-linejoin="round" width="11" height="24" fill="rgb(64,152,184)" stroke="rgb(51,121,147)" stroke-width="1" opacity="0.75" />
			</g>
		</g>
		<g>
			<title> (ctg2191_15)</title>
			<polygon class=" (ctg2191_15)" points="266,40 271,10 271,70" fill="rgb(255,255,255)" fill-opacity="1.0" stroke="rgb(0,0,0)" stroke-width="2"  />
		</g>
		<g>
			<title> (ctg2191_16)</title>
			<polygon class=" (ctg2191_16)" points="277,10 300,40 277,70" fill="rgb(255,255,255)" fill-opacity="1.0" stroke="rgb(0,0,0)" stroke-width="2"  />
			<g>
				<title>GHMP_kinases_N (PF00288)
"GHMP kinases N terminal domain"</title>
				<rect class="PF00288" x="278" y="28" stroke-linejoin="round" width="6" height="24" fill="rgb(190,54,91)" stroke="rgb(152,43,72)" stroke-width="1" opacity="0.75" />
			</g>
			<g>
				<title>GHMP_kinases_C (PF08544)
"GHMP kinases C terminal"</title>
				<polygon class="PF08544" points="290,32 296,40 290,48" stroke-linejoin="round" width="8" height="24" fill="rgb(95,112,219)" stroke="rgb(76,89,175)" stroke-width="1" opacity="0.75" />
			</g>
		</g>
		<g>
			<title> (ctg2191_17)</title>
			<polygon class=" (ctg2191_17)" points="300,25 312,25 312,10 342,40 312,70 312,55 300,55" fill="rgb(255,255,255)" fill-opacity="1.0" stroke="rgb(0,0,0)" stroke-width="2"  />
			<g>
				<title>Thr_synth_N (PF14821)
"Threonine synthase N terminus"</title>
				<rect class="PF14821" x="301" y="28" stroke-linejoin="round" width="7" height="24" fill="rgb(72,189,108)" stroke="rgb(57,151,86)" stroke-width="1" opacity="0.75" />
			</g>
			<g>
				<title>PALP (PF00291)
"Pyridoxal-phosphate dependent enzyme"</title>
				<polygon class="PF00291" points="308,28 326,28 337,39 337,41 326,52 308,52" stroke-linejoin="round" width="29" height="24" fill="rgb(180,55,145)" stroke="rgb(144,44,116)" stroke-width="1" opacity="0.75" />
			</g>
		</g>
		<g>
			<title> (ctg2191_18)</title>
			<polygon class=" (ctg2191_18)" points="343,10 366,40 343,70" fill="rgb(255,255,255)" fill-opacity="1.0" stroke="rgb(0,0,0)" stroke-width="2"  />
			<g>
				<title>SQS_PSY (PF00494)
"Squalene/phytoene synthase"</title>
				<polygon class="PF00494" points="344,28 353,28 362,40 353,52 344,52" stroke-linejoin="round" width="21" height="24" fill="rgb(178,91,49)" stroke="rgb(142,72,39)" stroke-width="1" opacity="0.75" />
			</g>
		</g>
		<g>
			<title> (ctg2191_19)</title>
			<polygon class=" (ctg2191_19)" points="366,25 369,25 369,10 399,40 369,70 369,55 366,55" fill="rgb(255,255,255)" fill-opacity="1.0" stroke="rgb(0,0,0)" stroke-width="2"  />
			<g>
				<title>AIRS (PF00586)
"AIR synthase related protein, N-terminal domain"</title>
				<rect class="PF00586" x="366" y="28" stroke-linejoin="round" width="15" height="24" fill="rgb(215,196,78)" stroke="rgb(172,156,62)" stroke-width="1" opacity="0.75" />
			</g>
			<g>
				<title>AIRS_C (PF02769)
"AIR synthase related protein, C-terminal domain"</title>
				<polygon class="PF02769" points="383,28 383,28 395,40 383,52 383,52" stroke-linejoin="round" width="16" height="24" fill="rgb(182,125,70)" stroke="rgb(145,100,56)" stroke-width="1" opacity="0.75" />
			</g>
		</g>
		<g>
			<title> (ctg2191_20)</title>
			<polygon class=" (ctg2191_20)" points="402,10 424,40 402,70" fill="rgb(255,255,255)" fill-opacity="1.0" stroke="rgb(0,0,0)" stroke-width="2"  />
			<g>
				<title>G3P_acyltransf (PF02660)
"Glycerol-3-phosphate acyltransferase"</title>
				<polygon class="PF02660" points="403,28 412,28 421,40 412,52 403,52" stroke-linejoin="round" width="19" height="24" fill="rgb(204,58,153)" stroke="rgb(163,46,122)" stroke-width="1" opacity="0.75" />
			</g>
		</g>
		<g>
			<title> (ctg2191_21)</title>
			<polygon class=" (ctg2191_21)" points="425,25 429,25 429,10 459,40 429,70 429,55 425,55" fill="rgb(255,255,255)" fill-opacity="1.0" stroke="rgb(0,0,0)" stroke-width="2"  />
			<g>
				<title>NAD_Gly3P_dh_N (PF01210)
"NAD-dependent glycerol-3-phosphate dehydrogenase N-terminus"</title>
				<rect class="PF01210" x="425" y="28" stroke-linejoin="round" width="16" height="24" fill="rgb(125,109,219)" stroke="rgb(100,87,175)" stroke-width="1" opacity="0.75" />
			</g>
			<g>
				<title>NAD_Gly3P_dh_C (PF07479)
"NAD-dependent glycerol-3-phosphate dehydrogenase C-terminus"</title>
				<polygon class="PF07479" points="443,29 454,40 443,51" stroke-linejoin="round" width="14" height="24" fill="rgb(80,195,100)" stroke="rgb(64,156,80)" stroke-width="1" opacity="0.75" />
			</g>
		</g>
		<g>
			<title> (ctg2191_22)</title>
			<polygon class=" (ctg2191_22)" points="464,10 485,40 464,70" fill="rgb(255,255,255)" fill-opacity="1.0" stroke="rgb(0,0,0)" stroke-width="2"  />
			<g>
				<title>AlbA_2 (PF04326)
"Putative DNA-binding domain"</title>
				<polygon class="PF04326" points="465,28 473,28 476,32 476,48 473,52 465,52" stroke-linejoin="round" width="11" height="24" fill="rgb(156,198,86)" stroke="rgb(124,158,68)" stroke-width="1" opacity="0.75" />
			</g>
		</g>
	</g>
</svg>
