<svg version="1.1" baseProfile="full" xmlns="http://www.w3.org/2000/svg" width="194.73333333333332" height="80">
	<g>
		<line x1="10" y1="40.0" x2="184.73333333333332" y2="40.0" style="stroke:rgb(70,70,70); stroke-width:3 "/>
		<g>
			<title> (ctg15879_1)</title>
			<polygon class=" (ctg15879_1)" points="19,10 36,40 19,70" fill="rgb(255,255,255)" fill-opacity="1.0" stroke="rgb(0,0,0)" stroke-width="2"  />
		</g>
		<g>
			<title> (ctg15879_2)</title>
			<polygon class=" (ctg15879_2)" points="38,10 47,40 38,70" fill="rgb(255,255,255)" fill-opacity="1.0" stroke="rgb(0,0,0)" stroke-width="2"  />
			<g>
				<title>DDE_Tnp_1_4 (PF13701)
"Transposase DDE domain group 1"</title>
				<polygon class="PF13701" points="38,28 40,28 44,40 40,52 38,52" stroke-linejoin="round" width="8" height="24" fill="rgb(187,172,89)" stroke="rgb(149,137,71)" stroke-width="1" opacity="0.75" />
			</g>
		</g>
		<g>
			<title> (ctg15879_3)</title>
			<polygon class=" (ctg15879_3)" points="50,10 59,40 50,70" fill="rgb(255,255,255)" fill-opacity="1.0" stroke="rgb(0,0,0)" stroke-width="2"  />
		</g>
		<g>
			<title> (ctg15879_4)</title>
			<polygon class=" (ctg15879_4)" points="68,10 75,40 68,70" fill="rgb(255,255,255)" fill-opacity="1.0" stroke="rgb(0,0,0)" stroke-width="2"  />
			<g>
				<title>HTH_17 (PF12728)
"Helix-turn-helix domain"</title>
				<polygon class="PF12728" points="68,28 68,28 72,40 68,52 68,52" stroke-linejoin="round" width="5" height="24" fill="rgb(179,100,76)" stroke="rgb(143,80,60)" stroke-width="1" opacity="0.75" />
			</g>
		</g>
		<g>
			<title> (ctg15879_5)</title>
			<polygon class=" (ctg15879_5)" points="81,10 105,40 81,70" fill="rgb(255,255,255)" fill-opacity="1.0" stroke="rgb(0,0,0)" stroke-width="2"  />
			<g>
				<title>RES (PF08808)
"RES domain"</title>
				<polygon class="PF08808" points="81,28 91,28 96,34 96,46 91,52 81,52" stroke-linejoin="round" width="15" height="24" fill="rgb(73,184,112)" stroke="rgb(58,147,89)" stroke-width="1" opacity="0.75" />
			</g>
		</g>
		<g>
			<title> (ctg15879_6)</title>
			<polygon class=" (ctg15879_6)" points="105,10 113,40 105,70" fill="rgb(255,255,255)" fill-opacity="1.0" stroke="rgb(0,0,0)" stroke-width="2"  />
		</g>
		<g>
			<title> (ctg15879_7)</title>
			<polygon class=" (ctg15879_7)" points="114,10 128,40 114,70" fill="rgb(255,255,255)" fill-opacity="1.0" stroke="rgb(0,0,0)" stroke-width="2"  />
			<g>
				<title>PIN (PF01850)
"PIN domain"</title>
				<polygon class="PF01850" points="114,28 119,28 124,40 119,52 114,52" stroke-linejoin="round" width="12" height="24" fill="rgb(91,217,126)" stroke="rgb(72,173,100)" stroke-width="1" opacity="0.75" />
			</g>
		</g>
		<g>
			<title> (ctg15879_8)</title>
			<polygon class=" (ctg15879_8)" points="131,40 135,10 135,70" fill="rgb(255,255,255)" fill-opacity="1.0" stroke="rgb(0,0,0)" stroke-width="2"  />
		</g>
		<g>
			<title> (ctg15879_9)</title>
			<polygon class=" (ctg15879_9)" points="139,40 147,10 147,70" fill="rgb(255,255,255)" fill-opacity="1.0" stroke="rgb(0,0,0)" stroke-width="2"  />
			<g>
				<title>NHase_alpha (PF02979)
"Nitrile hydratase, alpha chain"</title>
				<polygon class="PF02979" points="142,40 145,28 145,28 145,52 145,52" stroke-linejoin="round" width="6" height="24" fill="rgb(204,148,70)" stroke="rgb(163,118,56)" stroke-width="1" opacity="0.75" />
			</g>
		</g>
		<g>
			<title> (ctg15879_10)</title>
			<polygon class=" (ctg15879_10)" points="168,10 184,40 168,70" fill="rgb(255,255,255)" fill-opacity="1.0" stroke="rgb(0,0,0)" stroke-width="2"  />
		</g>
	</g>
</svg>
