<svg version="1.1" baseProfile="full" xmlns="http://www.w3.org/2000/svg" width="269.0" height="80">
	<g>
		<line x1="10" y1="40.0" x2="259.0" y2="40.0" style="stroke:rgb(70,70,70); stroke-width:3 "/>
		<g>
			<title> (ctg7501_1)</title>
			<polygon class=" (ctg7501_1)" points="10,10 20,40 10,70" fill="rgb(255,255,255)" fill-opacity="1.0" stroke="rgb(0,0,0)" stroke-width="2"  />
		</g>
		<g>
			<title> (ctg7501_2)</title>
			<polygon class=" (ctg7501_2)" points="22,25 70,25 70,10 100,40 70,70 70,55 22,55" fill="rgb(255,255,255)" fill-opacity="1.0" stroke="rgb(0,0,0)" stroke-width="2"  />
			<g>
				<title>YcaO (PF02624)
"YcaO cyclodehydratase, ATP-ad Mg2+-binding"</title>
				<polygon class="PF02624" points="62,28 83,28 95,40 95,40 83,52 62,52" stroke-linejoin="round" width="33" height="24" fill="rgb(76,84,185)" stroke="rgb(60,67,148)" stroke-width="1" opacity="0.75" />
			</g>
		</g>
		<g>
			<title> (ctg7501_3)</title>
			<polygon class=" (ctg7501_3)" points="100,25 107,25 107,10 137,40 107,70 107,55 100,55" fill="rgb(255,255,255)" fill-opacity="1.0" stroke="rgb(0,0,0)" stroke-width="2"  />
		</g>
		<g>
			<title> (ctg7501_4)</title>
			<polygon class=" (ctg7501_4)" points="142,10 171,40 142,70" fill="rgb(255,255,255)" fill-opacity="1.0" stroke="rgb(0,0,0)" stroke-width="2"  />
			<g>
				<title>Methyltransf_11 (PF08241)
"Methyltransferase domain"</title>
				<polygon class="PF08241" points="149,28 155,28 158,31 158,49 155,52 149,52" stroke-linejoin="round" width="9" height="24" fill="rgb(106,219,159)" stroke="rgb(84,175,127)" stroke-width="1" opacity="0.75" />
			</g>
		</g>
		<g>
			<title> (ctg7501_5)</title>
			<polygon class=" (ctg7501_5)" points="172,40 200,10 200,70" fill="rgb(255,255,255)" fill-opacity="1.0" stroke="rgb(0,0,0)" stroke-width="2"  />
			<g>
				<title>Methyltransf_11 (PF08241)
"Methyltransferase domain"</title>
				<polygon class="PF08241" points="184,32 187,28 193,28 193,52 187,52 184,48" stroke-linejoin="round" width="9" height="24" fill="rgb(106,219,159)" stroke="rgb(84,175,127)" stroke-width="1" opacity="0.75" />
			</g>
		</g>
		<g>
			<title> (ctg7501_6)</title>
			<polygon class=" (ctg7501_6)" points="213,25 218,25 218,10 248,40 218,70 218,55 213,55" fill="rgb(255,255,255)" fill-opacity="1.0" stroke="rgb(0,0,0)" stroke-width="2"  />
			<g>
				<title>FAD_binding_4 (PF01565)
"FAD binding domain"</title>
				<rect class="PF01565" x="213" y="28" stroke-linejoin="round" width="9" height="24" fill="rgb(226,88,136)" stroke="rgb(180,70,108)" stroke-width="1" opacity="0.75" />
			</g>
		</g>
		<g>
			<title> (ctg7501_7)</title>
			<polygon class=" (ctg7501_7)" points="248,40 258,10 258,70" fill="rgb(255,255,255)" fill-opacity="1.0" stroke="rgb(0,0,0)" stroke-width="2"  />
			<g>
				<title>MMPL (PF03176)
"MMPL family"</title>
				<polygon class="PF03176" points="251,40 255,28 257,28 257,52 255,52" stroke-linejoin="round" width="9" height="24" fill="rgb(228,109,193)" stroke="rgb(182,87,154)" stroke-width="1" opacity="0.75" />
			</g>
		</g>
	</g>
</svg>
