<svg version="1.1" baseProfile="full" xmlns="http://www.w3.org/2000/svg" width="422.0" height="80">
	<g>
		<line x1="10" y1="40.0" x2="412.0" y2="40.0" style="stroke:rgb(70,70,70); stroke-width:3 "/>
		<g>
			<title> (ctg2019_4)</title>
			<polygon class=" (ctg2019_4)" points="51,25 71,25 71,10 101,40 71,70 71,55 51,55" fill="rgb(255,255,255)" fill-opacity="1.0" stroke="rgb(0,0,0)" stroke-width="2"  />
			<g>
				<title>G6PD_N (PF00479)
"Glucose-6-phosphate dehydrogenase, NAD binding domain"</title>
				<rect class="PF00479" x="52" y="28" stroke-linejoin="round" width="18" height="24" fill="rgb(176,80,200)" stroke="rgb(140,64,160)" stroke-width="1" opacity="0.75" />
			</g>
			<g>
				<title>G6PD_C (PF02781)
"Glucose-6-phosphate dehydrogenase, C-terminal domain"</title>
				<polygon class="PF02781" points="71,28 85,28 97,40 85,52 71,52" stroke-linejoin="round" width="28" height="24" fill="rgb(161,208,98)" stroke="rgb(128,166,78)" stroke-width="1" opacity="0.75" />
			</g>
		</g>
		<g>
			<title> (ctg2019_5)</title>
			<polygon class=" (ctg2019_5)" points="110,10 117,40 110,70" fill="rgb(255,255,255)" fill-opacity="1.0" stroke="rgb(0,0,0)" stroke-width="2"  />
		</g>
		<g>
			<title> (ctg2019_6)</title>
			<polygon class=" (ctg2019_6)" points="121,40 140,10 140,70" fill="rgb(255,255,255)" fill-opacity="1.0" stroke="rgb(0,0,0)" stroke-width="2"  />
			<g>
				<title>Methyltransf_25 (PF13649)
"Methyltransferase domain"</title>
				<polygon class="PF13649" points="129,34 133,28 137,28 137,52 133,52 129,46" stroke-linejoin="round" width="8" height="24" fill="rgb(227,135,74)" stroke="rgb(181,108,59)" stroke-width="1" opacity="0.75" />
			</g>
		</g>
		<g>
			<title> (ctg2019_7)</title>
			<polygon class=" (ctg2019_7)" points="147,40 150,10 150,70" fill="rgb(255,255,255)" fill-opacity="1.0" stroke="rgb(0,0,0)" stroke-width="2"  />
		</g>
		<g>
			<title> (ctg2019_8)</title>
			<polygon class=" (ctg2019_8)" points="151,40 166,10 166,70" fill="rgb(255,255,255)" fill-opacity="1.0" stroke="rgb(0,0,0)" stroke-width="2"  />
		</g>
		<g>
			<title> (ctg2019_9)</title>
			<polygon class=" (ctg2019_9)" points="176,10 184,40 176,70" fill="rgb(255,255,255)" fill-opacity="1.0" stroke="rgb(0,0,0)" stroke-width="2"  />
		</g>
		<g>
			<title> (ctg2019_10)</title>
			<polygon class=" (ctg2019_10)" points="188,10 196,40 188,70" fill="rgb(255,255,255)" fill-opacity="1.0" stroke="rgb(0,0,0)" stroke-width="2"  />
		</g>
		<g>
			<title> (ctg2019_11)</title>
			<polygon class=" (ctg2019_11)" points="197,10 205,40 197,70" fill="rgb(255,255,255)" fill-opacity="1.0" stroke="rgb(0,0,0)" stroke-width="2"  />
			<g>
				<title>NHase_alpha (PF02979)
"Nitrile hydratase, alpha chain"</title>
				<polygon class="PF02979" points="198,28 198,28 202,40 198,52 198,52" stroke-linejoin="round" width="6" height="24" fill="rgb(204,148,70)" stroke="rgb(163,118,56)" stroke-width="1" opacity="0.75" />
			</g>
		</g>
		<g>
			<title> (ctg2019_12)</title>
			<polygon class=" (ctg2019_12)" points="211,40 223,10 223,70" fill="rgb(255,255,255)" fill-opacity="1.0" stroke="rgb(0,0,0)" stroke-width="2"  />
			<g>
				<title>DDE_Tnp_1 (PF01609)
"Transposase DDE domain"</title>
				<polygon class="PF01609" points="214,40 219,28 222,28 222,52 219,52" stroke-linejoin="round" width="11" height="24" fill="rgb(229,102,99)" stroke="rgb(183,81,79)" stroke-width="1" opacity="0.75" />
			</g>
		</g>
		<g>
			<title> (ctg2019_13)</title>
			<polygon class=" (ctg2019_13)" points="228,10 245,40 228,70" fill="rgb(255,255,255)" fill-opacity="1.0" stroke="rgb(0,0,0)" stroke-width="2"  />
		</g>
		<g>
			<title> (ctg2019_14)</title>
			<polygon class=" (ctg2019_14)" points="245,10 250,40 245,70" fill="rgb(255,255,255)" fill-opacity="1.0" stroke="rgb(0,0,0)" stroke-width="2"  />
		</g>
		<g>
			<title> (ctg2019_15)</title>
			<polygon class=" (ctg2019_15)" points="286,25 279,25 279,10 249,40 279,70 279,55 286,55" fill="rgb(255,255,255)" fill-opacity="1.0" stroke="rgb(0,0,0)" stroke-width="2"  />
		</g>
		<g>
			<title> (ctg2019_16)</title>
			<polygon class=" (ctg2019_16)" points="383,25 317,25 317,10 287,40 317,70 317,55 383,55" fill="rgb(255,255,255)" fill-opacity="1.0" stroke="rgb(0,0,0)" stroke-width="2"  />
			<g>
				<title>ABC_tran (PF00005)
"ABC transporter"</title>
				<polygon class="PF00005" points="294,37 303,28 308,28 308,52 303,52 294,43" stroke-linejoin="round" width="14" height="24" fill="rgb(129,201,63)" stroke="rgb(103,160,50)" stroke-width="1" opacity="0.75" />
			</g>
			<g>
				<title>ABC_membrane (PF00664)
"ABC transporter transmembrane region"</title>
				<rect class="PF00664" x="315" y="28" stroke-linejoin="round" width="26" height="24" fill="rgb(149,226,73)" stroke="rgb(119,180,58)" stroke-width="1" opacity="0.75" />
			</g>
		</g>
	</g>
</svg>
