<svg version="1.1" baseProfile="full" xmlns="http://www.w3.org/2000/svg" width="215.5" height="80">
	<g>
		<line x1="10" y1="40.0" x2="205.5" y2="40.0" style="stroke:rgb(70,70,70); stroke-width:3 "/>
		<g>
			<title> (ctg185_91)</title>
			<polygon class=" (ctg185_91)" points="17,25 35,25 35,10 65,40 35,70 35,55 17,55" fill="rgb(255,255,255)" fill-opacity="1.0" stroke="rgb(0,0,0)" stroke-width="2"  />
			<g>
				<title>DUF1501 (PF07394)
"Protein of unknown function (DUF1501)"</title>
				<polygon class="PF07394" points="23,28 49,28 61,40 49,52 23,52" stroke-linejoin="round" width="41" height="24" fill="rgb(199,225,81)" stroke="rgb(159,180,64)" stroke-width="1" opacity="0.75" />
			</g>
		</g>
		<g>
			<title> (ctg185_92)</title>
			<polygon class=" (ctg185_92)" points="73,10 85,40 73,70" fill="rgb(255,255,255)" fill-opacity="1.0" stroke="rgb(0,0,0)" stroke-width="2"  />
		</g>
		<g>
			<title> (ctg185_93)</title>
			<polygon class=" (ctg185_93)" points="90,10 99,40 90,70" fill="rgb(255,255,255)" fill-opacity="1.0" stroke="rgb(0,0,0)" stroke-width="2"  />
		</g>
		<g>
			<title> (ctg185_94)</title>
			<polygon class=" (ctg185_94)" points="103,10 116,40 103,70" fill="rgb(255,255,255)" fill-opacity="1.0" stroke="rgb(0,0,0)" stroke-width="2"  />
		</g>
		<g>
			<title> (ctg185_95)</title>
			<polygon class=" (ctg185_95)" points="122,10 138,40 122,70" fill="rgb(255,255,255)" fill-opacity="1.0" stroke="rgb(0,0,0)" stroke-width="2"  />
		</g>
		<g>
			<title> (ctg185_96)</title>
			<polygon class=" (ctg185_96)" points="140,25 141,25 141,10 171,40 141,70 141,55 140,55" fill="rgb(255,255,255)" fill-opacity="1.0" stroke="rgb(0,0,0)" stroke-width="2"  />
			<g>
				<title>Aminotran_4 (PF01063)
"Amino-transferase class IV"</title>
				<polygon class="PF01063" points="143,28 155,28 166,39 166,41 155,52 143,52" stroke-linejoin="round" width="23" height="24" fill="rgb(52,144,188)" stroke="rgb(41,115,150)" stroke-width="1" opacity="0.75" />
			</g>
		</g>
		<g>
			<title> (ctg185_97)</title>
			<polygon class=" (ctg185_97)" points="176,40 184,10 184,70" fill="rgb(255,255,255)" fill-opacity="1.0" stroke="rgb(0,0,0)" stroke-width="2"  />
			<g>
				<title>NHase_alpha (PF02979)
"Nitrile hydratase, alpha chain"</title>
				<polygon class="PF02979" points="179,40 182,28 183,28 183,52 182,52" stroke-linejoin="round" width="6" height="24" fill="rgb(204,148,70)" stroke="rgb(163,118,56)" stroke-width="1" opacity="0.75" />
			</g>
		</g>
		<g>
			<title> (ctg185_98)</title>
			<polygon class=" (ctg185_98)" points="193,40 197,10 197,70" fill="rgb(255,255,255)" fill-opacity="1.0" stroke="rgb(0,0,0)" stroke-width="2"  />
		</g>
		<g>
			<title> (ctg185_99)</title>
			<polygon class=" (ctg185_99)" points="202,40 205,10 205,70" fill="rgb(255,255,255)" fill-opacity="1.0" stroke="rgb(0,0,0)" stroke-width="2"  />
		</g>
	</g>
</svg>
