<svg version="1.1" baseProfile="full" xmlns="http://www.w3.org/2000/svg" width="1087.9" height="80">
	<g>
		<line x1="10" y1="40.0" x2="1077.9" y2="40.0" style="stroke:rgb(70,70,70); stroke-width:3 "/>
		<g>
			<title> (ctg1026_1)</title>
			<polygon class=" (ctg1026_1)" points="10,10 24,40 10,70" fill="rgb(255,255,255)" fill-opacity="1.0" stroke="rgb(0,0,0)" stroke-width="2"  />
		</g>
		<g>
			<title> (ctg1026_2)</title>
			<polygon class=" (ctg1026_2)" points="26,40 33,10 33,70" fill="rgb(255,255,255)" fill-opacity="1.0" stroke="rgb(0,0,0)" stroke-width="2"  />
		</g>
		<g>
			<title> (ctg1026_3)</title>
			<polygon class=" (ctg1026_3)" points="36,10 41,40 36,70" fill="rgb(255,255,255)" fill-opacity="1.0" stroke="rgb(0,0,0)" stroke-width="2"  />
		</g>
		<g>
			<title> (ctg1026_4)</title>
			<polygon class=" (ctg1026_4)" points="45,40 55,10 55,70" fill="rgb(255,255,255)" fill-opacity="1.0" stroke="rgb(0,0,0)" stroke-width="2"  />
		</g>
		<g>
			<title> (ctg1026_5)</title>
			<polygon class=" (ctg1026_5)" points="55,40 62,10 62,70" fill="rgb(255,255,255)" fill-opacity="1.0" stroke="rgb(0,0,0)" stroke-width="2"  />
		</g>
		<g>
			<title> (ctg1026_6)</title>
			<polygon class=" (ctg1026_6)" points="63,40 68,10 68,70" fill="rgb(255,255,255)" fill-opacity="1.0" stroke="rgb(0,0,0)" stroke-width="2"  />
		</g>
		<g>
			<title> (ctg1026_7)</title>
			<polygon class=" (ctg1026_7)" points="84,10 90,40 84,70" fill="rgb(255,255,255)" fill-opacity="1.0" stroke="rgb(0,0,0)" stroke-width="2"  />
		</g>
		<g>
			<title> (ctg1026_8)</title>
			<polygon class=" (ctg1026_8)" points="157,25 120,25 120,10 90,40 120,70 120,55 157,55" fill="rgb(255,255,255)" fill-opacity="1.0" stroke="rgb(0,0,0)" stroke-width="2"  />
			<g>
				<title>Sulfotransfer_3 (PF13469)
"Sulfotransferase family"</title>
				<polygon class="PF13469" points="95,39 106,28 120,28 120,52 106,52 95,41" stroke-linejoin="round" width="25" height="24" fill="rgb(59,182,84)" stroke="rgb(47,145,67)" stroke-width="1" opacity="0.75" />
			</g>
			<g>
				<title>NAD_binding_4 (PF07993)
"Male sterility protein"</title>
				<rect class="PF07993" x="143" y="28" stroke-linejoin="round" width="13" height="24" fill="rgb(100,212,204)" stroke="rgb(80,169,163)" stroke-width="1" opacity="0.75" />
			</g>
		</g>
		<g>
			<title> (ctg1026_9)</title>
			<polygon class=" (ctg1026_9)" points="410,25 206,25 206,10 176,40 206,70 206,55 410,55" fill="rgb(255,255,255)" fill-opacity="1.0" stroke="rgb(0,0,0)" stroke-width="2"  />
			<g>
				<title>PP-binding (PF00550)
"Phosphopantetheine attachment site"</title>
				<polygon class="PF00550" points="181,39 187,33 187,47 181,41" stroke-linejoin="round" width="6" height="24" fill="rgb(103,191,88)" stroke="rgb(82,152,70)" stroke-width="1" opacity="0.75" />
			</g>
			<g>
				<title>KR (PF08659)
"KR domain"</title>
				<rect class="PF08659" x="196" y="28" stroke-linejoin="round" width="18" height="24" fill="rgb(66,209,188)" stroke="rgb(52,167,150)" stroke-width="1" opacity="0.75" />
			</g>
			<g>
				<title>ADH_zinc_N (PF00107)
"Zinc-binding dehydrogenase"</title>
				<rect class="PF00107" x="221" y="28" stroke-linejoin="round" width="13" height="24" fill="rgb(81,108,215)" stroke="rgb(64,86,172)" stroke-width="1" opacity="0.75" />
			</g>
			<g>
				<title>PS-DH (PF14765)
"Polyketide synthase dehydratase"</title>
				<rect class="PF14765" x="289" y="28" stroke-linejoin="round" width="30" height="24" fill="rgb(173,56,182)" stroke="rgb(138,44,145)" stroke-width="1" opacity="0.75" />
			</g>
			<g>
				<title>Acyl_transf_1 (PF00698)
"Acyl transferase domain"</title>
				<rect class="PF00698" x="324" y="28" stroke-linejoin="round" width="32" height="24" fill="rgb(59,176,209)" stroke="rgb(47,140,167)" stroke-width="1" opacity="0.75" />
			</g>
			<g>
				<title>KAsynt_C_assoc (PF16197)
"Ketoacyl-synthetase C-terminal extension"</title>
				<rect class="PF16197" x="360" y="28" stroke-linejoin="round" width="11" height="24" fill="rgb(240,150,172)" stroke="rgb(192,120,137)" stroke-width="1" opacity="0.75" />
			</g>
			<g>
				<title>Ketoacyl-synt_C (PF02801)
"Beta-ketoacyl synthase, C-terminal domain"</title>
				<rect class="PF02801" x="371" y="28" stroke-linejoin="round" width="12" height="24" fill="rgb(215,78,102)" stroke="rgb(172,62,81)" stroke-width="1" opacity="0.75" />
			</g>
			<g>
				<title>ketoacyl-synt (PF00109)
"Beta-ketoacyl synthase, N-terminal domain"</title>
				<rect class="PF00109" x="385" y="28" stroke-linejoin="round" width="24" height="24" fill="rgb(112,116,228)" stroke="rgb(89,92,182)" stroke-width="1" opacity="0.75" />
			</g>
		</g>
		<g>
			<title> (ctg1026_10)</title>
			<polygon class=" (ctg1026_10)" points="421,40 429,10 429,70" fill="rgb(255,255,255)" fill-opacity="1.0" stroke="rgb(0,0,0)" stroke-width="2"  />
		</g>
		<g>
			<title> (ctg1026_11)</title>
			<polygon class=" (ctg1026_11)" points="435,40 459,10 459,70" fill="rgb(255,255,255)" fill-opacity="1.0" stroke="rgb(0,0,0)" stroke-width="2"  />
		</g>
		<g>
			<title> (ctg1026_12)</title>
			<polygon class=" (ctg1026_12)" points="540,25 490,25 490,10 460,40 490,70 490,55 540,55" fill="rgb(255,255,255)" fill-opacity="1.0" stroke="rgb(0,0,0)" stroke-width="2"  />
		</g>
		<g>
			<title> (ctg1026_13)</title>
			<polygon class=" (ctg1026_13)" points="584,25 584,25 584,10 554,40 584,70 584,55 584,55" fill="rgb(255,255,255)" fill-opacity="1.0" stroke="rgb(0,0,0)" stroke-width="2"  />
			<g>
				<title>BPD_transp_1 (PF00528)
"Binding-protein-dependent transport system inner membrane component"</title>
				<polygon class="PF00528" points="558,40 570,28 572,28 572,52 570,52" stroke-linejoin="round" width="18" height="24" fill="rgb(77,208,225)" stroke="rgb(61,166,180)" stroke-width="1" opacity="0.75" />
			</g>
		</g>
		<g>
			<title> (ctg1026_14)</title>
			<polygon class=" (ctg1026_14)" points="615,25 615,25 615,10 585,40 615,70 615,55 615,55" fill="rgb(255,255,255)" fill-opacity="1.0" stroke="rgb(0,0,0)" stroke-width="2"  />
			<g>
				<title>BPD_transp_1 (PF00528)
"Binding-protein-dependent transport system inner membrane component"</title>
				<polygon class="PF00528" points="589,40 601,28 605,28 605,52 601,52" stroke-linejoin="round" width="20" height="24" fill="rgb(77,208,225)" stroke="rgb(61,166,180)" stroke-width="1" opacity="0.75" />
			</g>
		</g>
		<g>
			<title> (ctg1026_15)</title>
			<polygon class=" (ctg1026_15)" points="662,25 648,25 648,10 618,40 648,70 648,55 662,55" fill="rgb(255,255,255)" fill-opacity="1.0" stroke="rgb(0,0,0)" stroke-width="2"  />
			<g>
				<title>SBP_bac_8 (PF13416)
"Bacterial extracellular solute-binding protein"</title>
				<polygon class="PF13416" points="624,38 634,28 656,28 656,52 634,52 624,42" stroke-linejoin="round" width="32" height="24" fill="rgb(66,211,58)" stroke="rgb(52,168,46)" stroke-width="1" opacity="0.75" />
			</g>
		</g>
		<g>
			<title> (ctg1026_16)</title>
			<polygon class=" (ctg1026_16)" points="667,40 696,10 696,70" fill="rgb(255,255,255)" fill-opacity="1.0" stroke="rgb(0,0,0)" stroke-width="2"  />
			<g>
				<title>BPD_transp_1 (PF00528)
"Binding-protein-dependent transport system inner membrane component"</title>
				<polygon class="PF00528" points="671,40 683,28 685,28 685,52 683,52" stroke-linejoin="round" width="18" height="24" fill="rgb(77,208,225)" stroke="rgb(61,166,180)" stroke-width="1" opacity="0.75" />
			</g>
		</g>
		<g>
			<title> (ctg1026_17)</title>
			<polygon class=" (ctg1026_17)" points="727,25 727,25 727,10 697,40 727,70 727,55 727,55" fill="rgb(255,255,255)" fill-opacity="1.0" stroke="rgb(0,0,0)" stroke-width="2"  />
			<g>
				<title>BPD_transp_1 (PF00528)
"Binding-protein-dependent transport system inner membrane component"</title>
				<polygon class="PF00528" points="701,40 713,28 717,28 717,52 713,52" stroke-linejoin="round" width="20" height="24" fill="rgb(77,208,225)" stroke="rgb(61,166,180)" stroke-width="1" opacity="0.75" />
			</g>
		</g>
		<g>
			<title> (ctg1026_18)</title>
			<polygon class=" (ctg1026_18)" points="773,25 760,25 760,10 730,40 760,70 760,55 773,55" fill="rgb(255,255,255)" fill-opacity="1.0" stroke="rgb(0,0,0)" stroke-width="2"  />
			<g>
				<title>SBP_bac_1 (PF01547)
"Bacterial extracellular solute-binding protein"</title>
				<polygon class="PF01547" points="740,34 746,28 769,28 769,52 746,52 740,46" stroke-linejoin="round" width="29" height="24" fill="rgb(195,119,75)" stroke="rgb(156,95,60)" stroke-width="1" opacity="0.75" />
			</g>
		</g>
		<g>
			<title> (ctg1026_19)</title>
			<polygon class=" (ctg1026_19)" points="783,40 794,10 794,70" fill="rgb(255,255,255)" fill-opacity="1.0" stroke="rgb(0,0,0)" stroke-width="2"  />
			<g>
				<title>Ribosomal_L20 (PF00453)
"Ribosomal protein L20"</title>
				<polygon class="PF00453" points="786,40 791,28 794,28 794,52 791,52" stroke-linejoin="round" width="10" height="24" fill="rgb(221,85,111)" stroke="rgb(176,67,88)" stroke-width="1" opacity="0.75" />
			</g>
		</g>
		<g>
			<title> (ctg1026_20)</title>
			<polygon class=" (ctg1026_20)" points="796,40 803,10 803,70" fill="rgb(255,255,255)" fill-opacity="1.0" stroke="rgb(0,0,0)" stroke-width="2"  />
			<g>
				<title>Ribosomal_L35p (PF01632)
"Ribosomal protein L35"</title>
				<polygon class="PF01632" points="799,40 802,28 802,28 802,52 802,52" stroke-linejoin="round" width="6" height="24" fill="rgb(87,201,54)" stroke="rgb(69,160,43)" stroke-width="1" opacity="0.75" />
			</g>
		</g>
		<g>
			<title> (ctg1026_21)</title>
			<polygon class=" (ctg1026_21)" points="803,40 821,10 821,70" fill="rgb(255,255,255)" fill-opacity="1.0" stroke="rgb(0,0,0)" stroke-width="2"  />
			<g>
				<title>IF3_C (PF00707)
"Translation initiation factor IF-3, C-terminal domain"</title>
				<polygon class="PF00707" points="807,40 812,32 812,48" stroke-linejoin="round" width="8" height="24" fill="rgb(122,214,90)" stroke="rgb(97,171,72)" stroke-width="1" opacity="0.75" />
			</g>
			<g>
				<title>IF3_N (PF05198)
"Translation initiation factor IF-3, N-terminal domain"</title>
				<polygon class="PF05198" points="813,30 814,28 819,28 819,52 814,52 813,50" stroke-linejoin="round" width="6" height="24" fill="rgb(226,105,214)" stroke="rgb(180,83,171)" stroke-width="1" opacity="0.75" />
			</g>
		</g>
		<g>
			<title> (ctg1026_22)</title>
			<polygon class=" (ctg1026_22)" points="892,25 861,25 861,10 831,40 861,70 861,55 892,55" fill="rgb(255,255,255)" fill-opacity="1.0" stroke="rgb(0,0,0)" stroke-width="2"  />
			<g>
				<title>HGTP_anticodon (PF03129)
"Anticodon binding domain"</title>
				<polygon class="PF03129" points="835,40 840,35 840,45" stroke-linejoin="round" width="9" height="24" fill="rgb(115,202,95)" stroke="rgb(92,161,76)" stroke-width="1" opacity="0.75" />
			</g>
			<g>
				<title>tRNA-synt_2b (PF00587)
"tRNA synthetase class II core domain (G, H, P, S and T)"</title>
				<polygon class="PF00587" points="842,33 847,28 863,28 863,52 847,52 842,47" stroke-linejoin="round" width="21" height="24" fill="rgb(228,96,220)" stroke="rgb(182,76,176)" stroke-width="1" opacity="0.75" />
			</g>
			<g>
				<title>tRNA_SAD (PF07973)
"Threonyl and Alanyl tRNA synthetase second additional domain"</title>
				<rect class="PF07973" x="873" y="28" stroke-linejoin="round" width="5" height="24" fill="rgb(220,97,228)" stroke="rgb(176,77,182)" stroke-width="1" opacity="0.75" />
			</g>
		</g>
		<g>
			<title> (ctg1026_23)</title>
			<polygon class=" (ctg1026_23)" points="912,40 923,10 923,70" fill="rgb(255,255,255)" fill-opacity="1.0" stroke="rgb(0,0,0)" stroke-width="2"  />
		</g>
		<g>
			<title> (ctg1026_24)</title>
			<polygon class=" (ctg1026_24)" points="1019,25 1003,25 1003,10 973,40 1003,70 1003,55 1019,55" fill="rgb(255,255,255)" fill-opacity="1.0" stroke="rgb(0,0,0)" stroke-width="2"  />
			<g>
				<title>DegT_DnrJ_EryC1 (PF01041)
"DegT/DnrJ/EryC1/StrS aminotransferase family"</title>
				<polygon class="PF01041" points="977,40 989,28 1011,28 1011,52 989,52" stroke-linejoin="round" width="37" height="24" fill="rgb(59,139,191)" stroke="rgb(47,111,152)" stroke-width="1" opacity="0.75" />
			</g>
		</g>
		<g>
			<title> (ctg1026_25)</title>
			<polygon class=" (ctg1026_25)" points="1020,40 1047,10 1047,70" fill="rgb(255,255,255)" fill-opacity="1.0" stroke="rgb(0,0,0)" stroke-width="2"  />
			<g>
				<title>Polysacc_deac_1 (PF01522)
"Polysaccharide deacetylase"</title>
				<polygon class="PF01522" points="1035,28 1035,28 1046,28 1046,52 1035,52 1035,52" stroke-linejoin="round" width="11" height="24" fill="rgb(56,221,58)" stroke="rgb(44,176,46)" stroke-width="1" opacity="0.75" />
			</g>
		</g>
	</g>
</svg>
