<svg version="1.1" baseProfile="full" xmlns="http://www.w3.org/2000/svg" width="719.0666666666667" height="80">
	<g>
		<line x1="10" y1="40.0" x2="709.0666666666667" y2="40.0" style="stroke:rgb(70,70,70); stroke-width:3 "/>
		<g>
			<title> (ctg112_50)</title>
			<polygon class=" (ctg112_50)" points="35,25 63,25 63,10 93,40 63,70 63,55 35,55" fill="rgb(255,255,255)" fill-opacity="1.0" stroke="rgb(0,0,0)" stroke-width="2"  />
			<g>
				<title>HHH_8 (PF14716)
"Helix-hairpin-helix domain"</title>
				<rect class="PF14716" x="35" y="28" stroke-linejoin="round" width="7" height="24" fill="rgb(83,210,138)" stroke="rgb(66,168,110)" stroke-width="1" opacity="0.75" />
			</g>
			<g>
				<title>DNA_pol_B_thumb (PF14791)
"DNA polymerase beta thumb"</title>
				<rect class="PF14791" x="59" y="28" stroke-linejoin="round" width="8" height="24" fill="rgb(79,147,211)" stroke="rgb(63,117,168)" stroke-width="1" opacity="0.75" />
			</g>
		</g>
		<g>
			<title> (ctg112_51)</title>
			<polygon class=" (ctg112_51)" points="93,25 95,25 95,10 125,40 95,70 95,55 93,55" fill="rgb(255,255,255)" fill-opacity="1.0" stroke="rgb(0,0,0)" stroke-width="2"  />
			<g>
				<title>Na_Ca_ex (PF01699)
"Sodium/calcium exchanger protein"</title>
				<rect class="PF01699" x="93" y="28" stroke-linejoin="round" width="14" height="24" fill="rgb(64,189,136)" stroke="rgb(51,151,108)" stroke-width="1" opacity="0.75" />
			</g>
			<g>
				<title>Na_Ca_ex (PF01699)
"Sodium/calcium exchanger protein"</title>
				<polygon class="PF01699" points="111,30 121,40 111,50" stroke-linejoin="round" width="14" height="24" fill="rgb(64,189,136)" stroke="rgb(51,151,108)" stroke-width="1" opacity="0.75" />
			</g>
		</g>
		<g>
			<title> (ctg112_52)</title>
			<polygon class=" (ctg112_52)" points="125,25 137,25 137,10 167,40 137,70 137,55 125,55" fill="rgb(255,255,255)" fill-opacity="1.0" stroke="rgb(0,0,0)" stroke-width="2"  />
			<g>
				<title>Aminotran_3 (PF00202)
"Aminotransferase class-III"</title>
				<polygon class="PF00202" points="127,28 150,28 162,40 150,52 127,52" stroke-linejoin="round" width="39" height="24" fill="rgb(49,163,189)" stroke="rgb(39,130,151)" stroke-width="1" opacity="0.75" />
			</g>
		</g>
		<g>
			<title> (ctg112_53)</title>
			<polygon class=" (ctg112_53)" points="169,40 178,10 178,70" fill="rgb(255,255,255)" fill-opacity="1.0" stroke="rgb(0,0,0)" stroke-width="2"  />
			<g>
				<title>Pterin_4a (PF01329)
"Pterin 4 alpha carbinolamine dehydratase"</title>
				<polygon class="PF01329" points="172,40 176,28 177,28 177,52 176,52" stroke-linejoin="round" width="8" height="24" fill="rgb(109,209,90)" stroke="rgb(87,167,72)" stroke-width="1" opacity="0.75" />
			</g>
		</g>
		<g>
			<title> (ctg112_54)</title>
			<polygon class=" (ctg112_54)" points="189,25 198,25 198,10 228,40 198,70 198,55 189,55" fill="rgb(255,255,255)" fill-opacity="1.0" stroke="rgb(0,0,0)" stroke-width="2"  />
			<g>
				<title>DUF2236 (PF09995)
"Uncharacterized protein conserved in bacteria (DUF2236)"</title>
				<polygon class="PF09995" points="198,28 211,28 222,39 222,41 211,52 198,52" stroke-linejoin="round" width="24" height="24" fill="rgb(194,179,92)" stroke="rgb(155,143,73)" stroke-width="1" opacity="0.75" />
			</g>
		</g>
		<g>
			<title> (ctg112_55)</title>
			<polygon class=" (ctg112_55)" points="335,25 261,25 261,10 231,40 261,70 261,55 335,55" fill="rgb(255,255,255)" fill-opacity="1.0" stroke="rgb(0,0,0)" stroke-width="2"  />
			<g>
				<title>ACR_tran (PF00873)
"AcrB/AcrD/AcrF family"</title>
				<polygon class="PF00873" points="235,40 247,28 334,28 334,52 247,52" stroke-linejoin="round" width="102" height="24" fill="rgb(63,191,60)" stroke="rgb(50,152,48)" stroke-width="1" opacity="0.75" />
			</g>
		</g>
		<g>
			<title> (ctg112_56)</title>
			<polygon class=" (ctg112_56)" points="343,25 345,25 345,10 375,40 345,70 345,55 343,55" fill="rgb(255,255,255)" fill-opacity="1.0" stroke="rgb(0,0,0)" stroke-width="2"  />
			<g>
				<title>SQS_PSY (PF00494)
"Squalene/phytoene synthase"</title>
				<polygon class="PF00494" points="343,28 359,28 371,40 371,40 359,52 343,52" stroke-linejoin="round" width="28" height="24" fill="rgb(178,91,49)" stroke="rgb(142,72,39)" stroke-width="1" opacity="0.75" />
			</g>
		</g>
		<g>
			<title> (ctg112_57)</title>
			<polygon class=" (ctg112_57)" points="440,10 461,40 440,70" fill="rgb(255,255,255)" fill-opacity="1.0" stroke="rgb(0,0,0)" stroke-width="2"  />
		</g>
		<g>
			<title> (ctg112_58)</title>
			<polygon class=" (ctg112_58)" points="497,25 487,25 487,10 457,40 487,70 487,55 497,55" fill="rgb(255,255,255)" fill-opacity="1.0" stroke="rgb(0,0,0)" stroke-width="2"  />
		</g>
		<g>
			<title> (ctg112_59)</title>
			<polygon class=" (ctg112_59)" points="500,40 507,10 507,70" fill="rgb(255,255,255)" fill-opacity="1.0" stroke="rgb(0,0,0)" stroke-width="2"  />
		</g>
		<g>
			<title> (ctg112_60)</title>
			<polygon class=" (ctg112_60)" points="516,25 526,25 526,10 556,40 526,70 526,55 516,55" fill="rgb(255,255,255)" fill-opacity="1.0" stroke="rgb(0,0,0)" stroke-width="2"  />
		</g>
		<g>
			<title> (ctg112_61)</title>
			<polygon class=" (ctg112_61)" points="568,10 586,40 568,70" fill="rgb(255,255,255)" fill-opacity="1.0" stroke="rgb(0,0,0)" stroke-width="2"  />
		</g>
		<g>
			<title> (ctg112_62)</title>
			<polygon class=" (ctg112_62)" points="596,10 615,40 596,70" fill="rgb(255,255,255)" fill-opacity="1.0" stroke="rgb(0,0,0)" stroke-width="2"  />
			<g>
				<title>DUF5128 (PF17170)
"6-bladed beta-propeller"</title>
				<polygon class="PF17170" points="601,28 604,28 610,37 610,43 604,52 601,52" stroke-linejoin="round" width="9" height="24" fill="rgb(67,171,188)" stroke="rgb(53,136,150)" stroke-width="1" opacity="0.75" />
			</g>
		</g>
		<g>
			<title> (ctg112_63)</title>
			<polygon class=" (ctg112_63)" points="618,10 638,40 618,70" fill="rgb(255,255,255)" fill-opacity="1.0" stroke="rgb(0,0,0)" stroke-width="2"  />
		</g>
		<g>
			<title> (ctg112_64)</title>
			<polygon class=" (ctg112_64)" points="698,25 685,25 685,10 655,40 685,70 685,55 698,55" fill="rgb(255,255,255)" fill-opacity="1.0" stroke="rgb(0,0,0)" stroke-width="2"  />
		</g>
	</g>
</svg>
