<svg version="1.1" baseProfile="full" xmlns="http://www.w3.org/2000/svg" width="362.6333333333333" height="80">
	<g>
		<line x1="10" y1="40.0" x2="352.6333333333333" y2="40.0" style="stroke:rgb(70,70,70); stroke-width:3 "/>
		<g>
			<title> (ctg73_43)</title>
			<polygon class=" (ctg73_43)" points="54,25 47,25 47,10 17,40 47,70 47,55 54,55" fill="rgb(255,255,255)" fill-opacity="1.0" stroke="rgb(0,0,0)" stroke-width="2"  />
		</g>
		<g>
			<title> (ctg73_44)</title>
			<polygon class=" (ctg73_44)" points="96,25 85,25 85,10 55,40 85,70 85,55 96,55" fill="rgb(255,255,255)" fill-opacity="1.0" stroke="rgb(0,0,0)" stroke-width="2"  />
			<g>
				<title>YHYH (PF14240)
"YHYH protein"</title>
				<polygon class="PF14240" points="70,29 71,28 87,28 87,52 71,52 70,51" stroke-linejoin="round" width="17" height="24" fill="rgb(188,82,77)" stroke="rgb(150,65,61)" stroke-width="1" opacity="0.75" />
			</g>
		</g>
		<g>
			<title> (ctg73_45)</title>
			<polygon class=" (ctg73_45)" points="102,40 130,10 130,70" fill="rgb(255,255,255)" fill-opacity="1.0" stroke="rgb(0,0,0)" stroke-width="2"  />
			<g>
				<title>DLH (PF01738)
"Dienelactone hydrolase family"</title>
				<polygon class="PF01738" points="106,40 117,28 123,28 123,52 117,52" stroke-linejoin="round" width="21" height="24" fill="rgb(188,185,48)" stroke="rgb(150,147,38)" stroke-width="1" opacity="0.75" />
			</g>
		</g>
		<g>
			<title> (ctg73_46)</title>
			<polygon class=" (ctg73_46)" points="176,10 185,40 176,70" fill="rgb(255,255,255)" fill-opacity="1.0" stroke="rgb(0,0,0)" stroke-width="2"  />
			<g>
				<title>NHase_alpha (PF02979)
"Nitrile hydratase, alpha chain"</title>
				<polygon class="PF02979" points="177,28 178,28 182,40 178,52 177,52" stroke-linejoin="round" width="6" height="24" fill="rgb(204,148,70)" stroke="rgb(163,118,56)" stroke-width="1" opacity="0.75" />
			</g>
		</g>
		<g>
			<title> (ctg73_47)</title>
			<polygon class=" (ctg73_47)" points="201,40 206,10 206,70" fill="rgb(255,255,255)" fill-opacity="1.0" stroke="rgb(0,0,0)" stroke-width="2"  />
		</g>
		<g>
			<title> (ctg73_48)</title>
			<polygon class=" (ctg73_48)" points="242,25 236,25 236,10 206,40 236,70 236,55 242,55" fill="rgb(255,255,255)" fill-opacity="1.0" stroke="rgb(0,0,0)" stroke-width="2"  />
		</g>
		<g>
			<title> (ctg73_49)</title>
			<polygon class=" (ctg73_49)" points="284,25 284,25 284,10 314,40 284,70 284,55 284,55" fill="rgb(255,255,255)" fill-opacity="1.0" stroke="rgb(0,0,0)" stroke-width="2"  />
			<g>
				<title>Methyltransf_11 (PF08241)
"Methyltransferase domain"</title>
				<polygon class="PF08241" points="292,28 298,28 301,31 301,49 298,52 292,52" stroke-linejoin="round" width="9" height="24" fill="rgb(106,219,159)" stroke="rgb(84,175,127)" stroke-width="1" opacity="0.75" />
			</g>
		</g>
	</g>
</svg>
