<svg version="1.1" baseProfile="full" xmlns="http://www.w3.org/2000/svg" width="789.5666666666667" height="80">
	<g>
		<line x1="10" y1="40.0" x2="779.5666666666667" y2="40.0" style="stroke:rgb(70,70,70); stroke-width:3 "/>
		<g>
			<title> (ctg2682_2)</title>
			<polygon class=" (ctg2682_2)" points="48,40 75,10 75,70" fill="rgb(255,255,255)" fill-opacity="1.0" stroke="rgb(0,0,0)" stroke-width="2"  />
			<g>
				<title>MazG (PF03819)
"MazG nucleotide pyrophosphohydrolase domain"</title>
				<polygon class="PF03819" points="52,40 57,35 57,45" stroke-linejoin="round" width="6" height="24" fill="rgb(199,54,154)" stroke="rgb(159,43,123)" stroke-width="1" opacity="0.75" />
			</g>
			<g>
				<title>MazG (PF03819)
"MazG nucleotide pyrophosphohydrolase domain"</title>
				<rect class="PF03819" x="64" y="28" stroke-linejoin="round" width="7" height="24" fill="rgb(199,54,154)" stroke="rgb(159,43,123)" stroke-width="1" opacity="0.75" />
			</g>
		</g>
		<g>
			<title> (ctg2682_3)</title>
			<polygon class=" (ctg2682_3)" points="76,10 85,40 76,70" fill="rgb(255,255,255)" fill-opacity="1.0" stroke="rgb(0,0,0)" stroke-width="2"  />
			<g>
				<title>DUF1844 (PF08899)
"Domain of unknown function (DUF1844)"</title>
				<polygon class="PF08899" points="76,28 78,28 82,40 78,52 76,52" stroke-linejoin="round" width="7" height="24" fill="rgb(86,55,205)" stroke="rgb(68,44,164)" stroke-width="1" opacity="0.75" />
			</g>
		</g>
		<g>
			<title> (ctg2682_4)</title>
			<polygon class=" (ctg2682_4)" points="86,10 113,40 86,70" fill="rgb(255,255,255)" fill-opacity="1.0" stroke="rgb(0,0,0)" stroke-width="2"  />
			<g>
				<title>Lactamase_B_2 (PF12706)
"Beta-lactamase superfamily domain"</title>
				<polygon class="PF12706" points="90,28 97,28 108,39 108,41 97,52 90,52" stroke-linejoin="round" width="18" height="24" fill="rgb(62,169,197)" stroke="rgb(49,135,157)" stroke-width="1" opacity="0.75" />
			</g>
		</g>
		<g>
			<title> (ctg2682_5)</title>
			<polygon class=" (ctg2682_5)" points="116,25 117,25 117,10 147,40 117,70 117,55 116,55" fill="rgb(255,255,255)" fill-opacity="1.0" stroke="rgb(0,0,0)" stroke-width="2"  />
			<g>
				<title>FAD_syn (PF06574)
"FAD synthetase"</title>
				<polygon class="PF06574" points="117,28 131,28 132,29 132,51 131,52 117,52" stroke-linejoin="round" width="15" height="24" fill="rgb(96,110,204)" stroke="rgb(76,88,163)" stroke-width="1" opacity="0.75" />
			</g>
			<g>
				<title>Flavokinase (PF01687)
"Riboflavin kinase"</title>
				<polygon class="PF01687" points="135,32 143,40 135,48" stroke-linejoin="round" width="12" height="24" fill="rgb(57,209,217)" stroke="rgb(45,167,173)" stroke-width="1" opacity="0.75" />
			</g>
		</g>
		<g>
			<title> (ctg2682_6)</title>
			<polygon class=" (ctg2682_6)" points="148,10 162,40 148,70" fill="rgb(255,255,255)" fill-opacity="1.0" stroke="rgb(0,0,0)" stroke-width="2"  />
		</g>
		<g>
			<title> (ctg2682_7)</title>
			<polygon class=" (ctg2682_7)" points="164,25 182,25 182,10 212,40 182,70 182,55 164,55" fill="rgb(255,255,255)" fill-opacity="1.0" stroke="rgb(0,0,0)" stroke-width="2"  />
			<g>
				<title>tRNA-synt_1e (PF01406)
"tRNA synthetases class I (C) catalytic domain"</title>
				<rect class="PF01406" x="165" y="28" stroke-linejoin="round" width="30" height="24" fill="rgb(131,218,83)" stroke="rgb(104,174,66)" stroke-width="1" opacity="0.75" />
			</g>
			<g>
				<title>DALR_2 (PF09190)
"DALR domain"</title>
				<polygon class="PF09190" points="200,33 206,39 206,41 200,47" stroke-linejoin="round" width="6" height="24" fill="rgb(70,57,193)" stroke="rgb(56,45,154)" stroke-width="1" opacity="0.75" />
			</g>
		</g>
		<g>
			<title> (ctg2682_8)</title>
			<polygon class=" (ctg2682_8)" points="216,10 228,40 216,70" fill="rgb(255,255,255)" fill-opacity="1.0" stroke="rgb(0,0,0)" stroke-width="2"  />
			<g>
				<title>UPF0102 (PF02021)
"Uncharacterised protein family UPF0102"</title>
				<polygon class="PF02021" points="217,28 220,28 225,40 220,52 217,52" stroke-linejoin="round" width="9" height="24" fill="rgb(81,199,67)" stroke="rgb(64,159,53)" stroke-width="1" opacity="0.75" />
			</g>
		</g>
		<g>
			<title> (ctg2682_9)</title>
			<polygon class=" (ctg2682_9)" points="232,40 240,10 240,70" fill="rgb(255,255,255)" fill-opacity="1.0" stroke="rgb(0,0,0)" stroke-width="2"  />
		</g>
		<g>
			<title> (ctg2682_10)</title>
			<polygon class=" (ctg2682_10)" points="243,10 271,40 243,70" fill="rgb(255,255,255)" fill-opacity="1.0" stroke="rgb(0,0,0)" stroke-width="2"  />
			<g>
				<title>Peptidase_M28 (PF04389)
"Peptidase family M28"</title>
				<polygon class="PF04389" points="249,28 255,28 267,40 255,52 249,52" stroke-linejoin="round" width="21" height="24" fill="rgb(190,82,105)" stroke="rgb(152,65,84)" stroke-width="1" opacity="0.75" />
			</g>
		</g>
		<g>
			<title> (ctg2682_11)</title>
			<polygon class=" (ctg2682_11)" points="275,40 298,10 298,70" fill="rgb(255,255,255)" fill-opacity="1.0" stroke="rgb(0,0,0)" stroke-width="2"  />
		</g>
		<g>
			<title> (ctg2682_12)</title>
			<polygon class=" (ctg2682_12)" points="299,10 310,40 299,70" fill="rgb(255,255,255)" fill-opacity="1.0" stroke="rgb(0,0,0)" stroke-width="2"  />
		</g>
		<g>
			<title> (ctg2682_13)</title>
			<polygon class=" (ctg2682_13)" points="343,25 335,25 335,10 305,40 335,70 335,55 343,55" fill="rgb(255,255,255)" fill-opacity="1.0" stroke="rgb(0,0,0)" stroke-width="2"  />
		</g>
		<g>
			<title> (ctg2682_14)</title>
			<polygon class=" (ctg2682_14)" points="445,25 373,25 373,10 343,40 373,70 373,55 445,55" fill="rgb(255,255,255)" fill-opacity="1.0" stroke="rgb(0,0,0)" stroke-width="2"  />
			<g>
				<title>LANC_like (PF05147)
"Lanthionine synthetase C-like protein"</title>
				<polygon class="PF05147" points="347,40 359,28 379,28 379,52 359,52" stroke-linejoin="round" width="36" height="24" fill="rgb(129,182,79)" stroke="rgb(103,145,63)" stroke-width="1" opacity="0.75" />
			</g>
			<g>
				<title>DUF4135 (PF13575)
"Domain of unknown function (DUF4135)"</title>
				<rect class="PF13575" x="390" y="28" stroke-linejoin="round" width="37" height="24" fill="rgb(228,84,217)" stroke="rgb(182,67,173)" stroke-width="1" opacity="0.75" />
			</g>
		</g>
		<g>
			<title> (ctg2682_15)</title>
			<polygon class=" (ctg2682_15)" points="451,40 456,10 456,70" fill="rgb(255,255,255)" fill-opacity="1.0" stroke="rgb(0,0,0)" stroke-width="2"  />
		</g>
		<g>
			<title> (ctg2682_16)</title>
			<polygon class=" (ctg2682_16)" points="465,10 478,40 465,70" fill="rgb(255,255,255)" fill-opacity="1.0" stroke="rgb(0,0,0)" stroke-width="2"  />
		</g>
		<g>
			<title> (ctg2682_17)</title>
			<polygon class=" (ctg2682_17)" points="538,25 506,25 506,10 476,40 506,70 506,55 538,55" fill="rgb(255,255,255)" fill-opacity="1.0" stroke="rgb(0,0,0)" stroke-width="2"  />
		</g>
		<g>
			<title> (ctg2682_18)</title>
			<polygon class=" (ctg2682_18)" points="538,40 549,10 549,70" fill="rgb(255,255,255)" fill-opacity="1.0" stroke="rgb(0,0,0)" stroke-width="2"  />
		</g>
		<g>
			<title> (ctg2682_19)</title>
			<polygon class=" (ctg2682_19)" points="550,10 579,40 550,70" fill="rgb(255,255,255)" fill-opacity="1.0" stroke="rgb(0,0,0)" stroke-width="2"  />
			<g>
				<title>HlyD_3 (PF13437)
"HlyD family secretion protein"</title>
				<polygon class="PF13437" points="562,28 563,28 574,39 574,41 563,52 562,52" stroke-linejoin="round" width="12" height="24" fill="rgb(82,200,102)" stroke="rgb(65,160,81)" stroke-width="1" opacity="0.75" />
			</g>
		</g>
		<g>
			<title> (ctg2682_20)</title>
			<polygon class=" (ctg2682_20)" points="579,25 622,25 622,10 652,40 622,70 622,55 579,55" fill="rgb(255,255,255)" fill-opacity="1.0" stroke="rgb(0,0,0)" stroke-width="2"  />
			<g>
				<title>Peptidase_C39 (PF03412)
"Peptidase C39 family"</title>
				<rect class="PF03412" x="581" y="28" stroke-linejoin="round" width="13" height="24" fill="rgb(214,226,77)" stroke="rgb(171,180,61)" stroke-width="1" opacity="0.75" />
			</g>
			<g>
				<title>ABC_membrane (PF00664)
"ABC transporter transmembrane region"</title>
				<rect class="PF00664" x="596" y="28" stroke-linejoin="round" width="27" height="24" fill="rgb(149,226,73)" stroke="rgb(119,180,58)" stroke-width="1" opacity="0.75" />
			</g>
			<g>
				<title>ABC_tran (PF00005)
"ABC transporter"</title>
				<polygon class="PF00005" points="630,28 635,28 644,37 644,43 635,52 630,52" stroke-linejoin="round" width="14" height="24" fill="rgb(129,201,63)" stroke="rgb(103,160,50)" stroke-width="1" opacity="0.75" />
			</g>
		</g>
		<g>
			<title> (ctg2682_21)</title>
			<polygon class=" (ctg2682_21)" points="652,40 667,10 667,70" fill="rgb(255,255,255)" fill-opacity="1.0" stroke="rgb(0,0,0)" stroke-width="2"  />
		</g>
		<g>
			<title> (ctg2682_22)</title>
			<polygon class=" (ctg2682_22)" points="669,25 723,25 723,10 753,40 723,70 723,55 669,55" fill="rgb(255,255,255)" fill-opacity="1.0" stroke="rgb(0,0,0)" stroke-width="2"  />
			<g>
				<title>ABC_membrane (PF00664)
"ABC transporter transmembrane region"</title>
				<rect class="PF00664" x="698" y="28" stroke-linejoin="round" width="27" height="24" fill="rgb(149,226,73)" stroke="rgb(119,180,58)" stroke-width="1" opacity="0.75" />
			</g>
			<g>
				<title>ABC_tran (PF00005)
"ABC transporter"</title>
				<polygon class="PF00005" points="731,28 737,28 745,36 745,44 737,52 731,52" stroke-linejoin="round" width="14" height="24" fill="rgb(129,201,63)" stroke="rgb(103,160,50)" stroke-width="1" opacity="0.75" />
			</g>
		</g>
	</g>
</svg>
