<svg version="1.1" baseProfile="full" xmlns="http://www.w3.org/2000/svg" width="377.7" height="80">
	<g>
		<line x1="10" y1="40.0" x2="367.7" y2="40.0" style="stroke:rgb(70,70,70); stroke-width:3 "/>
		<g>
			<title> (ctg1867_1)</title>
			<polygon class=" (ctg1867_1)" points="10,10 34,40 10,70" fill="rgb(255,255,255)" fill-opacity="1.0" stroke="rgb(0,0,0)" stroke-width="2"  />
			<g>
				<title>SQHop_cyclase_C (PF13243)
"Squalene-hopene cyclase C-terminal domain"</title>
				<polygon class="PF13243" points="10,28 21,28 30,40 21,52 10,52" stroke-linejoin="round" width="23" height="24" fill="rgb(191,58,201)" stroke="rgb(152,46,160)" stroke-width="1" opacity="0.75" />
			</g>
		</g>
		<g>
			<title> (ctg1867_2)</title>
			<polygon class=" (ctg1867_2)" points="44,40 62,10 62,70" fill="rgb(255,255,255)" fill-opacity="1.0" stroke="rgb(0,0,0)" stroke-width="2"  />
		</g>
		<g>
			<title> (ctg1867_3)</title>
			<polygon class=" (ctg1867_3)" points="111,25 101,25 101,10 71,40 101,70 101,55 111,55" fill="rgb(255,255,255)" fill-opacity="1.0" stroke="rgb(0,0,0)" stroke-width="2"  />
			<g>
				<title>Beta-lactamase (PF00144)
"Beta-lactamase"</title>
				<polygon class="PF00144" points="75,40 87,28 110,28 110,52 87,52" stroke-linejoin="round" width="39" height="24" fill="rgb(92,159,200)" stroke="rgb(73,127,160)" stroke-width="1" opacity="0.75" />
			</g>
		</g>
		<g>
			<title> (ctg1867_4)</title>
			<polygon class=" (ctg1867_4)" points="126,40 153,10 153,70" fill="rgb(255,255,255)" fill-opacity="1.0" stroke="rgb(0,0,0)" stroke-width="2"  />
			<g>
				<title>PEP_hydrolase (PF09370)
"Phosphoenolpyruvate hydrolase-like"</title>
				<polygon class="PF09370" points="130,40 141,28 152,28 152,52 141,52" stroke-linejoin="round" width="26" height="24" fill="rgb(218,144,83)" stroke="rgb(174,115,66)" stroke-width="1" opacity="0.75" />
			</g>
		</g>
		<g>
			<title> (ctg1867_5)</title>
			<polygon class=" (ctg1867_5)" points="195,25 184,25 184,10 154,40 184,70 184,55 195,55" fill="rgb(255,255,255)" fill-opacity="1.0" stroke="rgb(0,0,0)" stroke-width="2"  />
			<g>
				<title>UPF0261 (PF06792)
"Uncharacterised protein family (UPF0261)"</title>
				<polygon class="PF06792" points="158,40 170,28 193,28 193,52 170,52" stroke-linejoin="round" width="39" height="24" fill="rgb(204,161,89)" stroke="rgb(163,128,71)" stroke-width="1" opacity="0.75" />
			</g>
		</g>
		<g>
			<title> (ctg1867_6)</title>
			<polygon class=" (ctg1867_6)" points="205,10 217,40 205,70" fill="rgb(255,255,255)" fill-opacity="1.0" stroke="rgb(0,0,0)" stroke-width="2"  />
			<g>
				<title>DUF2784 (PF10861)
"Protein of Unknown function (DUF2784)"</title>
				<polygon class="PF10861" points="205,28 208,28 214,40 208,52 205,52" stroke-linejoin="round" width="10" height="24" fill="rgb(218,98,196)" stroke="rgb(174,78,156)" stroke-width="1" opacity="0.75" />
			</g>
		</g>
		<g>
			<title> (ctg1867_7)</title>
			<polygon class=" (ctg1867_7)" points="218,25 235,25 235,10 265,40 235,70 235,55 218,55" fill="rgb(255,255,255)" fill-opacity="1.0" stroke="rgb(0,0,0)" stroke-width="2"  />
		</g>
		<g>
			<title> (ctg1867_8)</title>
			<polygon class=" (ctg1867_8)" points="267,10 276,40 267,70" fill="rgb(255,255,255)" fill-opacity="1.0" stroke="rgb(0,0,0)" stroke-width="2"  />
		</g>
		<g>
			<title> (ctg1867_9)</title>
			<polygon class=" (ctg1867_9)" points="276,10 284,40 276,70" fill="rgb(255,255,255)" fill-opacity="1.0" stroke="rgb(0,0,0)" stroke-width="2"  />
		</g>
		<g>
			<title> (ctg1867_10)</title>
			<polygon class=" (ctg1867_10)" points="315,25 314,25 314,10 284,40 314,70 314,55 315,55" fill="rgb(255,255,255)" fill-opacity="1.0" stroke="rgb(0,0,0)" stroke-width="2"  />
			<g>
				<title>PPK2 (PF03976)
"Polyphosphate kinase 2 (PPK2)"</title>
				<polygon class="PF03976" points="288,40 300,28 308,28 308,52 300,52" stroke-linejoin="round" width="22" height="24" fill="rgb(57,123,215)" stroke="rgb(45,98,172)" stroke-width="1" opacity="0.75" />
			</g>
		</g>
		<g>
			<title> (ctg1867_11)</title>
			<polygon class=" (ctg1867_11)" points="359,25 346,25 346,10 316,40 346,70 346,55 359,55" fill="rgb(255,255,255)" fill-opacity="1.0" stroke="rgb(0,0,0)" stroke-width="2"  />
			<g>
				<title>Carboxyl_trans (PF01039)
"Carboxyl transferase domain"</title>
				<polygon class="PF01039" points="320,40 332,28 358,28 358,52 332,52" stroke-linejoin="round" width="42" height="24" fill="rgb(180,136,60)" stroke="rgb(144,108,48)" stroke-width="1" opacity="0.75" />
			</g>
		</g>
	</g>
</svg>
