<svg version="1.1" baseProfile="full" xmlns="http://www.w3.org/2000/svg" width="1409.0333333333333" height="80">
	<g>
		<line x1="10" y1="40.0" x2="1399.0333333333333" y2="40.0" style="stroke:rgb(70,70,70); stroke-width:3 "/>
		<g>
			<title> (ctg7_149)</title>
			<polygon class=" (ctg7_149)" points="82,25 53,25 53,10 23,40 53,70 53,55 82,55" fill="rgb(255,255,255)" fill-opacity="1.0" stroke="rgb(0,0,0)" stroke-width="2"  />
			<g>
				<title>STAS (PF01740)
"STAS domain"</title>
				<polygon class="PF01740" points="27,40 37,30 37,50 27,40" stroke-linejoin="round" width="10" height="24" fill="rgb(219,58,116)" stroke="rgb(175,46,92)" stroke-width="1" opacity="0.75" />
			</g>
			<g>
				<title>Sulfate_transp (PF00916)
"Sulfate permease family"</title>
				<rect class="PF00916" x="43" y="28" stroke-linejoin="round" width="36" height="24" fill="rgb(189,61,212)" stroke="rgb(151,48,169)" stroke-width="1" opacity="0.75" />
			</g>
		</g>
		<g>
			<title> (ctg7_150)</title>
			<polygon class=" (ctg7_150)" points="179,25 112,25 112,10 82,40 112,70 112,55 179,55" fill="rgb(255,255,255)" fill-opacity="1.0" stroke="rgb(0,0,0)" stroke-width="2"  />
			<g>
				<title>Molydop_binding (PF01568)
"Molydopterin dinucleotide binding domain"</title>
				<polygon class="PF01568" points="89,37 98,28 104,28 104,52 98,52 89,43" stroke-linejoin="round" width="15" height="24" fill="rgb(184,132,64)" stroke="rgb(147,105,51)" stroke-width="1" opacity="0.75" />
			</g>
			<g>
				<title>Molybdopterin (PF00384)
"Molybdopterin oxidoreductase"</title>
				<rect class="PF00384" x="125" y="28" stroke-linejoin="round" width="42" height="24" fill="rgb(65,194,78)" stroke="rgb(52,155,62)" stroke-width="1" opacity="0.75" />
			</g>
			<g>
				<title>Molybdop_Fe4S4 (PF04879)
"Molybdopterin oxidoreductase Fe4S4 domain"</title>
				<rect class="PF04879" x="167" y="28" stroke-linejoin="round" width="5" height="24" fill="rgb(186,68,186)" stroke="rgb(148,54,148)" stroke-width="1" opacity="0.75" />
			</g>
		</g>
		<g>
			<title> (ctg7_151)</title>
			<polygon class=" (ctg7_151)" points="231,25 210,25 210,10 180,40 210,70 210,55 231,55" fill="rgb(255,255,255)" fill-opacity="1.0" stroke="rgb(0,0,0)" stroke-width="2"  />
			<g>
				<title>NrfD (PF03916)
"Polysulphide reductase, NrfD"</title>
				<polygon class="PF03916" points="184,40 196,28 207,28 207,52 196,52" stroke-linejoin="round" width="24" height="24" fill="rgb(58,224,159)" stroke="rgb(46,179,127)" stroke-width="1" opacity="0.75" />
			</g>
			<g>
				<title>Fer4_11 (PF13247)
"4Fe-4S dicluster domain"</title>
				<rect class="PF13247" x="215" y="28" stroke-linejoin="round" width="9" height="24" fill="rgb(61,193,49)" stroke="rgb(48,154,39)" stroke-width="1" opacity="0.75" />
			</g>
		</g>
		<g>
			<title> (ctg7_152)</title>
			<polygon class=" (ctg7_152)" points="268,25 260,25 260,10 230,40 260,70 260,55 268,55" fill="rgb(255,255,255)" fill-opacity="1.0" stroke="rgb(0,0,0)" stroke-width="2"  />
			<g>
				<title>Rhodanese (PF00581)
"Rhodanese-like domain"</title>
				<polygon class="PF00581" points="234,40 243,31 243,49 234,40" stroke-linejoin="round" width="9" height="24" fill="rgb(145,191,76)" stroke="rgb(116,152,60)" stroke-width="1" opacity="0.75" />
			</g>
			<g>
				<title>Lactamase_B (PF00753)
"Metallo-beta-lactamase superfamily"</title>
				<rect class="PF00753" x="251" y="28" stroke-linejoin="round" width="16" height="24" fill="rgb(206,198,96)" stroke="rgb(164,158,76)" stroke-width="1" opacity="0.75" />
			</g>
		</g>
		<g>
			<title> (ctg7_153)</title>
			<polygon class=" (ctg7_153)" points="271,10 300,40 271,70" fill="rgb(255,255,255)" fill-opacity="1.0" stroke="rgb(0,0,0)" stroke-width="2"  />
		</g>
		<g>
			<title> (ctg7_154)</title>
			<polygon class=" (ctg7_154)" points="304,40 323,10 323,70" fill="rgb(255,255,255)" fill-opacity="1.0" stroke="rgb(0,0,0)" stroke-width="2"  />
			<g>
				<title>TPMT (PF05724)
"Thiopurine S-methyltransferase (TPMT)"</title>
				<polygon class="PF05724" points="308,40 316,28 322,28 322,52 316,52" stroke-linejoin="round" width="18" height="24" fill="rgb(85,213,94)" stroke="rgb(68,170,75)" stroke-width="1" opacity="0.75" />
			</g>
		</g>
		<g>
			<title> (ctg7_155)</title>
			<polygon class=" (ctg7_155)" points="327,40 341,10 341,70" fill="rgb(255,255,255)" fill-opacity="1.0" stroke="rgb(0,0,0)" stroke-width="2"  />
		</g>
		<g>
			<title> (ctg7_156)</title>
			<polygon class=" (ctg7_156)" points="388,25 380,25 380,10 350,40 380,70 380,55 388,55" fill="rgb(255,255,255)" fill-opacity="1.0" stroke="rgb(0,0,0)" stroke-width="2"  />
			<g>
				<title>Aminotran_5 (PF00266)
"Aminotransferase class-V"</title>
				<polygon class="PF00266" points="354,40 366,28 383,28 383,52 366,52" stroke-linejoin="round" width="32" height="24" fill="rgb(214,54,122)" stroke="rgb(171,43,97)" stroke-width="1" opacity="0.75" />
			</g>
		</g>
		<g>
			<title> (ctg7_157)</title>
			<polygon class=" (ctg7_157)" points="391,40 397,10 397,70" fill="rgb(255,255,255)" fill-opacity="1.0" stroke="rgb(0,0,0)" stroke-width="2"  />
		</g>
		<g>
			<title> (ctg7_158)</title>
			<polygon class=" (ctg7_158)" points="414,25 428,25 428,10 458,40 428,70 428,55 414,55" fill="rgb(255,255,255)" fill-opacity="1.0" stroke="rgb(0,0,0)" stroke-width="2"  />
			<g>
				<title>OEP (PF02321)
"Outer membrane efflux protein"</title>
				<rect class="PF02321" x="418" y="28" stroke-linejoin="round" width="17" height="24" fill="rgb(205,57,201)" stroke="rgb(164,45,160)" stroke-width="1" opacity="0.75" />
			</g>
			<g>
				<title>OEP (PF02321)
"Outer membrane efflux protein"</title>
				<polygon class="PF02321" points="438,28 442,28 454,40 442,52 438,52" stroke-linejoin="round" width="18" height="24" fill="rgb(205,57,201)" stroke="rgb(164,45,160)" stroke-width="1" opacity="0.75" />
			</g>
		</g>
		<g>
			<title> (ctg7_159)</title>
			<polygon class=" (ctg7_159)" points="458,25 473,25 473,10 503,40 473,70 473,55 458,55" fill="rgb(255,255,255)" fill-opacity="1.0" stroke="rgb(0,0,0)" stroke-width="2"  />
			<g>
				<title>HlyD_D23 (PF16576)
"Barrel-sandwich domain of CusB or HlyD membrane-fusion"</title>
				<rect class="PF16576" x="465" y="28" stroke-linejoin="round" width="22" height="24" fill="rgb(70,190,92)" stroke="rgb(56,152,73)" stroke-width="1" opacity="0.75" />
			</g>
		</g>
		<g>
			<title> (ctg7_160)</title>
			<polygon class=" (ctg7_160)" points="505,25 597,25 597,10 627,40 597,70 597,55 505,55" fill="rgb(255,255,255)" fill-opacity="1.0" stroke="rgb(0,0,0)" stroke-width="2"  />
			<g>
				<title>ACR_tran (PF00873)
"AcrB/AcrD/AcrF family"</title>
				<rect class="PF00873" x="505" y="28" stroke-linejoin="round" width="53" height="24" fill="rgb(63,191,60)" stroke="rgb(50,152,48)" stroke-width="1" opacity="0.75" />
			</g>
			<g>
				<title>ACR_tran (PF00873)
"AcrB/AcrD/AcrF family"</title>
				<rect class="PF00873" x="563" y="28" stroke-linejoin="round" width="16" height="24" fill="rgb(63,191,60)" stroke="rgb(50,152,48)" stroke-width="1" opacity="0.75" />
			</g>
			<g>
				<title>ACR_tran (PF00873)
"AcrB/AcrD/AcrF family"</title>
				<polygon class="PF00873" points="582,28 611,28 613,30 613,50 611,52 582,52" stroke-linejoin="round" width="31" height="24" fill="rgb(63,191,60)" stroke="rgb(50,152,48)" stroke-width="1" opacity="0.75" />
			</g>
			<g>
				<title>ACR_tran (PF00873)
"AcrB/AcrD/AcrF family"</title>
				<polygon class="PF00873" points="614,31 623,40 614,49" stroke-linejoin="round" width="11" height="24" fill="rgb(63,191,60)" stroke="rgb(50,152,48)" stroke-width="1" opacity="0.75" />
			</g>
		</g>
		<g>
			<title> (ctg7_161)</title>
			<polygon class=" (ctg7_161)" points="631,40 641,10 641,70" fill="rgb(255,255,255)" fill-opacity="1.0" stroke="rgb(0,0,0)" stroke-width="2"  />
			<g>
				<title>Rieske (PF00355)
"Rieske [2Fe-2S] domain"</title>
				<polygon class="PF00355" points="634,40 638,28 640,28 640,52 638,52" stroke-linejoin="round" width="8" height="24" fill="rgb(186,77,145)" stroke="rgb(148,61,115)" stroke-width="1" opacity="0.75" />
			</g>
		</g>
		<g>
			<title> (ctg7_162)</title>
			<polygon class=" (ctg7_162)" points="674,25 672,25 672,10 642,40 672,70 672,55 674,55" fill="rgb(255,255,255)" fill-opacity="1.0" stroke="rgb(0,0,0)" stroke-width="2"  />
			<g>
				<title>SQHop_cyclase_C (PF13243)
"Squalene-hopene cyclase C-terminal domain"</title>
				<polygon class="PF13243" points="648,38 658,28 663,28 663,52 658,52 648,42" stroke-linejoin="round" width="15" height="24" fill="rgb(191,58,201)" stroke="rgb(152,46,160)" stroke-width="1" opacity="0.75" />
			</g>
		</g>
		<g>
			<title> (ctg7_163)</title>
			<polygon class=" (ctg7_163)" points="731,25 706,25 706,10 676,40 706,70 706,55 731,55" fill="rgb(255,255,255)" fill-opacity="1.0" stroke="rgb(0,0,0)" stroke-width="2"  />
			<g>
				<title>NTP_transf_3 (PF12804)
"MobA-like NTP transferase domain"</title>
				<polygon class="PF12804" points="684,36 692,28 701,28 701,52 692,52 684,44" stroke-linejoin="round" width="17" height="24" fill="rgb(52,209,196)" stroke="rgb(41,167,156)" stroke-width="1" opacity="0.75" />
			</g>
			<g>
				<title>PEP_mutase (PF13714)
"Phosphoenolpyruvate phosphomutase"</title>
				<rect class="PF13714" x="706" y="28" stroke-linejoin="round" width="24" height="24" fill="rgb(215,91,155)" stroke="rgb(172,72,123)" stroke-width="1" opacity="0.75" />
			</g>
		</g>
		<g>
			<title> (ctg7_164)</title>
			<polygon class=" (ctg7_164)" points="797,25 764,25 764,10 734,40 764,70 764,55 797,55" fill="rgb(255,255,255)" fill-opacity="1.0" stroke="rgb(0,0,0)" stroke-width="2"  />
			<g>
				<title>GIY-YIG (PF01541)
"GIY-YIG catalytic domain"</title>
				<rect class="PF01541" x="761" y="28" stroke-linejoin="round" width="7" height="24" fill="rgb(77,220,57)" stroke="rgb(61,176,45)" stroke-width="1" opacity="0.75" />
			</g>
			<g>
				<title>RNase_T (PF00929)
"Exonuclease"</title>
				<rect class="PF00929" x="773" y="28" stroke-linejoin="round" width="15" height="24" fill="rgb(201,87,120)" stroke="rgb(160,69,96)" stroke-width="1" opacity="0.75" />
			</g>
		</g>
		<g>
			<title> (ctg7_165)</title>
			<polygon class=" (ctg7_165)" points="843,25 829,25 829,10 799,40 829,70 829,55 843,55" fill="rgb(255,255,255)" fill-opacity="1.0" stroke="rgb(0,0,0)" stroke-width="2"  />
			<g>
				<title>PmbA_TldD (PF01523)
"Putative modulator of DNA gyrase"</title>
				<polygon class="PF01523" points="812,31 815,28 841,28 841,52 815,52 812,49" stroke-linejoin="round" width="29" height="24" fill="rgb(83,181,55)" stroke="rgb(66,144,44)" stroke-width="1" opacity="0.75" />
			</g>
		</g>
		<g>
			<title> (ctg7_166)</title>
			<polygon class=" (ctg7_166)" points="894,25 876,25 876,10 846,40 876,70 876,55 894,55" fill="rgb(255,255,255)" fill-opacity="1.0" stroke="rgb(0,0,0)" stroke-width="2"  />
			<g>
				<title>PmbA_TldD (PF01523)
"Putative modulator of DNA gyrase"</title>
				<polygon class="PF01523" points="861,29 862,28 890,28 890,52 862,52 861,51" stroke-linejoin="round" width="29" height="24" fill="rgb(83,181,55)" stroke="rgb(66,144,44)" stroke-width="1" opacity="0.75" />
			</g>
		</g>
		<g>
			<title> (ctg7_167)</title>
			<polygon class=" (ctg7_167)" points="1061,40 1072,10 1072,70" fill="rgb(255,255,255)" fill-opacity="1.0" stroke="rgb(0,0,0)" stroke-width="2"  />
		</g>
		<g>
			<title> (ctg7_168)</title>
			<polygon class=" (ctg7_168)" points="1074,40 1080,10 1080,70" fill="rgb(255,255,255)" fill-opacity="1.0" stroke="rgb(0,0,0)" stroke-width="2"  />
		</g>
		<g>
			<title> (ctg7_169)</title>
			<polygon class=" (ctg7_169)" points="1083,40 1111,10 1111,70" fill="rgb(255,255,255)" fill-opacity="1.0" stroke="rgb(0,0,0)" stroke-width="2"  />
			<g>
				<title>NAD_synthase (PF02540)
"NAD synthase"</title>
				<rect class="PF02540" x="1101" y="28" stroke-linejoin="round" width="9" height="24" fill="rgb(204,109,227)" stroke="rgb(163,87,181)" stroke-width="1" opacity="0.75" />
			</g>
		</g>
		<g>
			<title> (ctg7_170)</title>
			<polygon class=" (ctg7_170)" points="1143,25 1142,25 1142,10 1112,40 1142,70 1142,55 1143,55" fill="rgb(255,255,255)" fill-opacity="1.0" stroke="rgb(0,0,0)" stroke-width="2"  />
			<g>
				<title>PALP (PF00291)
"Pyridoxal-phosphate dependent enzyme"</title>
				<polygon class="PF00291" points="1116,40 1128,28 1141,28 1141,52 1128,52" stroke-linejoin="round" width="28" height="24" fill="rgb(180,55,145)" stroke="rgb(144,44,116)" stroke-width="1" opacity="0.75" />
			</g>
		</g>
		<g>
			<title> (ctg7_171)</title>
			<polygon class=" (ctg7_171)" points="1145,25 1148,25 1148,10 1178,40 1148,70 1148,55 1145,55" fill="rgb(255,255,255)" fill-opacity="1.0" stroke="rgb(0,0,0)" stroke-width="2"  />
			<g>
				<title>Glyco_transf_9 (PF01075)
"Glycosyltransferase family 9 (heptosyltransferase)"</title>
				<polygon class="PF01075" points="1159,28 1161,28 1173,40 1161,52 1159,52" stroke-linejoin="round" width="16" height="24" fill="rgb(200,89,91)" stroke="rgb(160,71,72)" stroke-width="1" opacity="0.75" />
			</g>
		</g>
		<g>
			<title> (ctg7_172)</title>
			<polygon class=" (ctg7_172)" points="1181,10 1196,40 1181,70" fill="rgb(255,255,255)" fill-opacity="1.0" stroke="rgb(0,0,0)" stroke-width="2"  />
			<g>
				<title>DUF1844 (PF08899)
"Domain of unknown function (DUF1844)"</title>
				<polygon class="PF08899" points="1187,29 1192,40 1187,51" stroke-linejoin="round" width="7" height="24" fill="rgb(86,55,205)" stroke="rgb(68,44,164)" stroke-width="1" opacity="0.75" />
			</g>
		</g>
		<g>
			<title> (ctg7_173)</title>
			<polygon class=" (ctg7_173)" points="1198,25 1249,25 1249,10 1279,40 1249,70 1249,55 1198,55" fill="rgb(255,255,255)" fill-opacity="1.0" stroke="rgb(0,0,0)" stroke-width="2"  />
			<g>
				<title>UB2H (PF14814)
"Bifunctional transglycosylase second domain"</title>
				<rect class="PF14814" x="1203" y="28" stroke-linejoin="round" width="8" height="24" fill="rgb(80,182,178)" stroke="rgb(64,145,142)" stroke-width="1" opacity="0.75" />
			</g>
			<g>
				<title>Transgly (PF00912)
"Transglycosylase"</title>
				<rect class="PF00912" x="1212" y="28" stroke-linejoin="round" width="18" height="24" fill="rgb(172,107,216)" stroke="rgb(137,85,172)" stroke-width="1" opacity="0.75" />
			</g>
			<g>
				<title>Transpeptidase (PF00905)
"Penicillin binding protein transpeptidase domain"</title>
				<polygon class="PF00905" points="1240,28 1263,28 1267,32 1267,48 1263,52 1240,52" stroke-linejoin="round" width="27" height="24" fill="rgb(161,226,87)" stroke="rgb(128,180,69)" stroke-width="1" opacity="0.75" />
			</g>
		</g>
		<g>
			<title> (ctg7_174)</title>
			<polygon class=" (ctg7_174)" points="1279,10 1299,40 1279,70" fill="rgb(255,255,255)" fill-opacity="1.0" stroke="rgb(0,0,0)" stroke-width="2"  />
			<g>
				<title>TPR_8 (PF13181)
"Tetratricopeptide repeat"</title>
				<polygon class="PF13181" points="1287,28 1287,28 1289,31 1289,49 1287,52 1287,52" stroke-linejoin="round" width="2" height="24" fill="rgb(182,172,47)" stroke="rgb(145,137,37)" stroke-width="1" opacity="0.75" />
			</g>
			<g>
				<title>TPR_8 (PF13181)
"Tetratricopeptide repeat"</title>
				<polygon class="PF13181" points="1294,38 1295,40 1294,42" stroke-linejoin="round" width="3" height="24" fill="rgb(182,172,47)" stroke="rgb(145,137,37)" stroke-width="1" opacity="0.75" />
			</g>
		</g>
		<g>
			<title> (ctg7_175)</title>
			<polygon class=" (ctg7_175)" points="1299,25 1303,25 1303,10 1333,40 1303,70 1303,55 1299,55" fill="rgb(255,255,255)" fill-opacity="1.0" stroke="rgb(0,0,0)" stroke-width="2"  />
			<g>
				<title>Peptidase_M22 (PF00814)
"Glycoprotease family"</title>
				<polygon class="PF00814" points="1302,28 1316,28 1328,40 1316,52 1302,52" stroke-linejoin="round" width="28" height="24" fill="rgb(178,70,94)" stroke="rgb(142,56,75)" stroke-width="1" opacity="0.75" />
			</g>
		</g>
		<g>
			<title> (ctg7_176)</title>
			<polygon class=" (ctg7_176)" points="1334,10 1362,40 1334,70" fill="rgb(255,255,255)" fill-opacity="1.0" stroke="rgb(0,0,0)" stroke-width="2"  />
			<g>
				<title>RrnaAD (PF00398)
"Ribosomal RNA adenine dimethylase"</title>
				<polygon class="PF00398" points="1336,28 1346,28 1357,40 1346,52 1336,52" stroke-linejoin="round" width="25" height="24" fill="rgb(71,217,122)" stroke="rgb(56,173,97)" stroke-width="1" opacity="0.75" />
			</g>
		</g>
		<g>
			<title> (ctg7_177)</title>
			<polygon class=" (ctg7_177)" points="1363,10 1390,40 1363,70" fill="rgb(255,255,255)" fill-opacity="1.0" stroke="rgb(0,0,0)" stroke-width="2"  />
			<g>
				<title>ECH_1 (PF00378)
"Enoyl-CoA hydratase/isomerase"</title>
				<polygon class="PF00378" points="1363,28 1374,28 1386,40 1374,52 1363,52" stroke-linejoin="round" width="26" height="24" fill="rgb(218,72,181)" stroke="rgb(174,57,144)" stroke-width="1" opacity="0.75" />
			</g>
		</g>
	</g>
</svg>
