<svg version="1.1" baseProfile="full" xmlns="http://www.w3.org/2000/svg" width="380.8333333333333" height="80">
	<g>
		<line x1="10" y1="40.0" x2="370.8333333333333" y2="40.0" style="stroke:rgb(70,70,70); stroke-width:3 "/>
		<g>
			<title> (ctg178_112)</title>
			<polygon class=" (ctg178_112)" points="63,10 87,40 63,70" fill="rgb(255,255,255)" fill-opacity="1.0" stroke="rgb(0,0,0)" stroke-width="2"  />
			<g>
				<title>CCG (PF02754)
"Cysteine-rich domain"</title>
				<rect class="PF02754" x="64" y="28" stroke-linejoin="round" width="8" height="24" fill="rgb(80,212,217)" stroke="rgb(64,169,173)" stroke-width="1" opacity="0.75" />
			</g>
			<g>
				<title>CCG (PF02754)
"Cysteine-rich domain"</title>
				<polygon class="PF02754" points="76,31 84,40 84,40 76,49" stroke-linejoin="round" width="8" height="24" fill="rgb(80,212,217)" stroke="rgb(64,169,173)" stroke-width="1" opacity="0.75" />
			</g>
		</g>
		<g>
			<title> (ctg178_113)</title>
			<polygon class=" (ctg178_113)" points="88,10 109,40 88,70" fill="rgb(255,255,255)" fill-opacity="1.0" stroke="rgb(0,0,0)" stroke-width="2"  />
			<g>
				<title>COQ7 (PF03232)
"Ubiquinone biosynthesis protein COQ7"</title>
				<polygon class="PF03232" points="92,28 97,28 105,40 97,52 92,52" stroke-linejoin="round" width="16" height="24" fill="rgb(181,85,182)" stroke="rgb(144,68,145)" stroke-width="1" opacity="0.75" />
			</g>
		</g>
		<g>
			<title> (ctg178_114)</title>
			<polygon class=" (ctg178_114)" points="119,25 124,25 124,10 154,40 124,70 124,55 119,55" fill="rgb(255,255,255)" fill-opacity="1.0" stroke="rgb(0,0,0)" stroke-width="2"  />
			<g>
				<title>DUF2857 (PF11198)
"Protein of unknown function (DUF2857)"</title>
				<polygon class="PF11198" points="130,28 137,28 147,38 147,42 137,52 130,52" stroke-linejoin="round" width="17" height="24" fill="rgb(83,79,183)" stroke="rgb(66,63,146)" stroke-width="1" opacity="0.75" />
			</g>
		</g>
		<g>
			<title> (ctg178_115)</title>
			<polygon class=" (ctg178_115)" points="150,40 176,10 176,70" fill="rgb(255,255,255)" fill-opacity="1.0" stroke="rgb(0,0,0)" stroke-width="2"  />
		</g>
		<g>
			<title> (ctg178_116)</title>
			<polygon class=" (ctg178_116)" points="176,40 203,10 203,70" fill="rgb(255,255,255)" fill-opacity="1.0" stroke="rgb(0,0,0)" stroke-width="2"  />
			<g>
				<title>DUF692 (PF05114)
"Protein of unknown function (DUF692)"</title>
				<polygon class="PF05114" points="180,40 191,28 202,28 202,52 191,52" stroke-linejoin="round" width="26" height="24" fill="rgb(63,196,127)" stroke="rgb(50,156,101)" stroke-width="1" opacity="0.75" />
			</g>
		</g>
		<g>
			<title> (ctg178_117)</title>
			<polygon class=" (ctg178_117)" points="204,40 224,10 224,70" fill="rgb(255,255,255)" fill-opacity="1.0" stroke="rgb(0,0,0)" stroke-width="2"  />
			<g>
				<title>DoxX (PF07681)
"DoxX"</title>
				<polygon class="PF07681" points="213,33 216,28 221,28 221,52 216,52 213,47" stroke-linejoin="round" width="8" height="24" fill="rgb(93,188,216)" stroke="rgb(74,150,172)" stroke-width="1" opacity="0.75" />
			</g>
		</g>
		<g>
			<title> (ctg178_118)</title>
			<polygon class=" (ctg178_118)" points="229,40 238,10 238,70" fill="rgb(255,255,255)" fill-opacity="1.0" stroke="rgb(0,0,0)" stroke-width="2"  />
		</g>
		<g>
			<title> (ctg178_119)</title>
			<polygon class=" (ctg178_119)" points="239,40 243,10 243,70" fill="rgb(255,255,255)" fill-opacity="1.0" stroke="rgb(0,0,0)" stroke-width="2"  />
		</g>
		<g>
			<title> (ctg178_120)</title>
			<polygon class=" (ctg178_120)" points="243,40 248,10 248,70" fill="rgb(255,255,255)" fill-opacity="1.0" stroke="rgb(0,0,0)" stroke-width="2"  />
		</g>
		<g>
			<title> (ctg178_121)</title>
			<polygon class=" (ctg178_121)" points="251,40 264,10 264,70" fill="rgb(255,255,255)" fill-opacity="1.0" stroke="rgb(0,0,0)" stroke-width="2"  />
		</g>
		<g>
			<title> (ctg178_122)</title>
			<polygon class=" (ctg178_122)" points="263,40 271,10 271,70" fill="rgb(255,255,255)" fill-opacity="1.0" stroke="rgb(0,0,0)" stroke-width="2"  />
		</g>
		<g>
			<title> (ctg178_123)</title>
			<polygon class=" (ctg178_123)" points="274,40 287,10 287,70" fill="rgb(255,255,255)" fill-opacity="1.0" stroke="rgb(0,0,0)" stroke-width="2"  />
			<g>
				<title>DUF4440 (PF14534)
"Domain of unknown function (DUF4440)"</title>
				<polygon class="PF14534" points="277,40 282,28 286,28 286,52 282,52" stroke-linejoin="round" width="11" height="24" fill="rgb(63,159,224)" stroke="rgb(50,127,179)" stroke-width="1" opacity="0.75" />
			</g>
		</g>
		<g>
			<title> (ctg178_124)</title>
			<polygon class=" (ctg178_124)" points="317,40 338,10 338,70" fill="rgb(255,255,255)" fill-opacity="1.0" stroke="rgb(0,0,0)" stroke-width="2"  />
			<g>
				<title>EndIII_4Fe-2S (PF10576)
"Iron-sulfur binding domain of endonuclease III"</title>
				<polygon class="PF10576" points="321,40 319,43 319,37" stroke-linejoin="round" width="1" height="24" fill="rgb(203,113,64)" stroke="rgb(162,90,51)" stroke-width="1" opacity="0.75" />
			</g>
			<g>
				<title>HhH-GPD (PF00730)
"HhH-GPD superfamily base excision DNA repair protein"</title>
				<polygon class="PF00730" points="321,40 330,28 334,28 334,52 330,52 321,40" stroke-linejoin="round" width="13" height="24" fill="rgb(190,78,115)" stroke="rgb(152,62,92)" stroke-width="1" opacity="0.75" />
			</g>
		</g>
		<g>
			<title> (ctg178_125)</title>
			<polygon class=" (ctg178_125)" points="339,40 352,10 352,70" fill="rgb(255,255,255)" fill-opacity="1.0" stroke="rgb(0,0,0)" stroke-width="2"  />
			<g>
				<title>Fer4_21 (PF14697)
"4Fe-4S dicluster domain"</title>
				<polygon class="PF14697" points="346,31 347,28 351,28 351,52 347,52 346,49" stroke-linejoin="round" width="5" height="24" fill="rgb(63,145,187)" stroke="rgb(50,115,149)" stroke-width="1" opacity="0.75" />
			</g>
		</g>
	</g>
</svg>
