<svg version="1.1" baseProfile="full" xmlns="http://www.w3.org/2000/svg" width="1438.6333333333334" height="80">
	<g>
		<line x1="10" y1="40.0" x2="1428.6333333333334" y2="40.0" style="stroke:rgb(70,70,70); stroke-width:3 "/>
		<g>
			<title> (ctg233_57)</title>
			<polygon class=" (ctg233_57)" points="17,10 44,40 17,70" fill="rgb(255,255,255)" fill-opacity="1.0" stroke="rgb(0,0,0)" stroke-width="2"  />
			<g>
				<title>Hydrolase (PF00702)
"haloacid dehalogenase-like hydrolase"</title>
				<polygon class="PF00702" points="19,28 29,28 39,39 39,41 29,52 19,52" stroke-linejoin="round" width="20" height="24" fill="rgb(68,220,102)" stroke="rgb(54,176,81)" stroke-width="1" opacity="0.75" />
			</g>
		</g>
		<g>
			<title> (ctg233_58)</title>
			<polygon class=" (ctg233_58)" points="46,25 48,25 48,10 78,40 48,70 48,55 46,55" fill="rgb(255,255,255)" fill-opacity="1.0" stroke="rgb(0,0,0)" stroke-width="2"  />
		</g>
		<g>
			<title> (ctg233_59)</title>
			<polygon class=" (ctg233_59)" points="79,25 82,25 82,10 112,40 82,70 82,55 79,55" fill="rgb(255,255,255)" fill-opacity="1.0" stroke="rgb(0,0,0)" stroke-width="2"  />
			<g>
				<title>PfkB (PF00294)
"pfkB family carbohydrate kinase"</title>
				<polygon class="PF00294" points="80,28 95,28 107,40 95,52 80,52" stroke-linejoin="round" width="30" height="24" fill="rgb(153,96,212)" stroke="rgb(122,76,169)" stroke-width="1" opacity="0.75" />
			</g>
		</g>
		<g>
			<title> (ctg233_60)</title>
			<polygon class=" (ctg233_60)" points="112,10 130,40 112,70" fill="rgb(255,255,255)" fill-opacity="1.0" stroke="rgb(0,0,0)" stroke-width="2"  />
			<g>
				<title>SIS_2 (PF13580)
"SIS domain"</title>
				<polygon class="PF13580" points="112,28 119,28 125,37 125,43 119,52 112,52" stroke-linejoin="round" width="13" height="24" fill="rgb(87,217,81)" stroke="rgb(69,173,64)" stroke-width="1" opacity="0.75" />
			</g>
		</g>
		<g>
			<title> (ctg233_61)</title>
			<polygon class=" (ctg233_61)" points="204,25 171,25 171,10 141,40 171,70 171,55 204,55" fill="rgb(255,255,255)" fill-opacity="1.0" stroke="rgb(0,0,0)" stroke-width="2"  />
			<g>
				<title>ABC_tran (PF00005)
"ABC transporter"</title>
				<rect class="PF00005" x="158" y="28" stroke-linejoin="round" width="13" height="24" fill="rgb(129,201,63)" stroke="rgb(103,160,50)" stroke-width="1" opacity="0.75" />
			</g>
			<g>
				<title>ABC_tran_Xtn (PF12848)
"ABC transporter"</title>
				<rect class="PF12848" x="173" y="28" stroke-linejoin="round" width="8" height="24" fill="rgb(54,177,199)" stroke="rgb(43,141,159)" stroke-width="1" opacity="0.75" />
			</g>
			<g>
				<title>ABC_tran (PF00005)
"ABC transporter"</title>
				<rect class="PF00005" x="186" y="28" stroke-linejoin="round" width="17" height="24" fill="rgb(129,201,63)" stroke="rgb(103,160,50)" stroke-width="1" opacity="0.75" />
			</g>
		</g>
		<g>
			<title> (ctg233_62)</title>
			<polygon class=" (ctg233_62)" points="206,40 228,10 228,70" fill="rgb(255,255,255)" fill-opacity="1.0" stroke="rgb(0,0,0)" stroke-width="2"  />
			<g>
				<title>PRK (PF00485)
"Phosphoribulokinase / Uridine kinase family"</title>
				<polygon class="PF00485" points="210,40 219,28 226,28 226,52 219,52" stroke-linejoin="round" width="18" height="24" fill="rgb(176,220,102)" stroke="rgb(140,176,81)" stroke-width="1" opacity="0.75" />
			</g>
		</g>
		<g>
			<title> (ctg233_63)</title>
			<polygon class=" (ctg233_63)" points="285,25 259,25 259,10 229,40 259,70 259,55 285,55" fill="rgb(255,255,255)" fill-opacity="1.0" stroke="rgb(0,0,0)" stroke-width="2"  />
			<g>
				<title>Sulfatase (PF00884)
"Sulfatase"</title>
				<polygon class="PF00884" points="240,33 245,28 281,28 281,52 245,52 240,47" stroke-linejoin="round" width="41" height="24" fill="rgb(61,103,198)" stroke="rgb(48,82,158)" stroke-width="1" opacity="0.75" />
			</g>
		</g>
		<g>
			<title> (ctg233_64)</title>
			<polygon class=" (ctg233_64)" points="295,10 305,40 295,70" fill="rgb(255,255,255)" fill-opacity="1.0" stroke="rgb(0,0,0)" stroke-width="2"  />
			<g>
				<title>PadR (PF03551)
"Transcriptional regulator PadR-like family"</title>
				<polygon class="PF03551" points="296,28 298,28 302,40 298,52 296,52" stroke-linejoin="round" width="7" height="24" fill="rgb(210,176,95)" stroke="rgb(168,140,76)" stroke-width="1" opacity="0.75" />
			</g>
		</g>
		<g>
			<title> (ctg233_65)</title>
			<polygon class=" (ctg233_65)" points="306,25 365,25 365,10 395,40 365,70 365,55 306,55" fill="rgb(255,255,255)" fill-opacity="1.0" stroke="rgb(0,0,0)" stroke-width="2"  />
			<g>
				<title>MacB_PCD (PF12704)
"MacB-like periplasmic core domain"</title>
				<rect class="PF12704" x="315" y="28" stroke-linejoin="round" width="21" height="24" fill="rgb(79,76,190)" stroke="rgb(63,60,152)" stroke-width="1" opacity="0.75" />
			</g>
			<g>
				<title>FtsX (PF02687)
"FtsX-like permease family"</title>
				<rect class="PF02687" x="344" y="28" stroke-linejoin="round" width="9" height="24" fill="rgb(126,55,214)" stroke="rgb(100,44,171)" stroke-width="1" opacity="0.75" />
			</g>
			<g>
				<title>MacB_PCD (PF12704)
"MacB-like periplasmic core domain"</title>
				<polygon class="PF12704" points="356,28 378,28 379,29 379,51 378,52 356,52" stroke-linejoin="round" width="23" height="24" fill="rgb(79,76,190)" stroke="rgb(63,60,152)" stroke-width="1" opacity="0.75" />
			</g>
		</g>
		<g>
			<title> (ctg233_66)</title>
			<polygon class=" (ctg233_66)" points="396,40 406,10 406,70" fill="rgb(255,255,255)" fill-opacity="1.0" stroke="rgb(0,0,0)" stroke-width="2"  />
		</g>
		<g>
			<title> (ctg233_67)</title>
			<polygon class=" (ctg233_67)" points="409,10 416,40 409,70" fill="rgb(255,255,255)" fill-opacity="1.0" stroke="rgb(0,0,0)" stroke-width="2"  />
		</g>
		<g>
			<title> (ctg233_68)</title>
			<polygon class=" (ctg233_68)" points="417,25 428,25 428,10 458,40 428,70 428,55 417,55" fill="rgb(255,255,255)" fill-opacity="1.0" stroke="rgb(0,0,0)" stroke-width="2"  />
			<g>
				<title>HlyD_3 (PF13437)
"HlyD family secretion protein"</title>
				<polygon class="PF13437" points="440,28 442,28 449,35 449,45 442,52 440,52" stroke-linejoin="round" width="9" height="24" fill="rgb(82,200,102)" stroke="rgb(65,160,81)" stroke-width="1" opacity="0.75" />
			</g>
		</g>
		<g>
			<title> (ctg233_69)</title>
			<polygon class=" (ctg233_69)" points="460,10 483,40 460,70" fill="rgb(255,255,255)" fill-opacity="1.0" stroke="rgb(0,0,0)" stroke-width="2"  />
			<g>
				<title>ABC_tran (PF00005)
"ABC transporter"</title>
				<polygon class="PF00005" points="463,28 470,28 477,37 477,43 470,52 463,52" stroke-linejoin="round" width="14" height="24" fill="rgb(129,201,63)" stroke="rgb(103,160,50)" stroke-width="1" opacity="0.75" />
			</g>
		</g>
		<g>
			<title> (ctg233_70)</title>
			<polygon class=" (ctg233_70)" points="482,40 489,10 489,70" fill="rgb(255,255,255)" fill-opacity="1.0" stroke="rgb(0,0,0)" stroke-width="2"  />
		</g>
		<g>
			<title> (ctg233_71)</title>
			<polygon class=" (ctg233_71)" points="497,10 508,40 497,70" fill="rgb(255,255,255)" fill-opacity="1.0" stroke="rgb(0,0,0)" stroke-width="2"  />
			<g>
				<title>Phage_integrase (PF00589)
"Phage integrase family"</title>
				<polygon class="PF00589" points="498,28 500,28 505,40 500,52 498,52" stroke-linejoin="round" width="8" height="24" fill="rgb(91,96,195)" stroke="rgb(72,76,156)" stroke-width="1" opacity="0.75" />
			</g>
		</g>
		<g>
			<title> (ctg233_72)</title>
			<polygon class=" (ctg233_72)" points="511,10 517,40 511,70" fill="rgb(255,255,255)" fill-opacity="1.0" stroke="rgb(0,0,0)" stroke-width="2"  />
		</g>
		<g>
			<title> (ctg233_73)</title>
			<polygon class=" (ctg233_73)" points="517,10 538,40 517,70" fill="rgb(255,255,255)" fill-opacity="1.0" stroke="rgb(0,0,0)" stroke-width="2"  />
			<g>
				<title>Lactamase_B (PF00753)
"Metallo-beta-lactamase superfamily"</title>
				<polygon class="PF00753" points="521,28 526,28 534,40 526,52 521,52" stroke-linejoin="round" width="14" height="24" fill="rgb(206,198,96)" stroke="rgb(164,158,76)" stroke-width="1" opacity="0.75" />
			</g>
		</g>
		<g>
			<title> (ctg233_74)</title>
			<polygon class=" (ctg233_74)" points="542,10 553,40 542,70" fill="rgb(255,255,255)" fill-opacity="1.0" stroke="rgb(0,0,0)" stroke-width="2"  />
			<g>
				<title>DUF1330 (PF07045)
"Domain of unknown function (DUF1330)"</title>
				<polygon class="PF07045" points="543,28 545,28 550,40 545,52 543,52" stroke-linejoin="round" width="8" height="24" fill="rgb(195,84,105)" stroke="rgb(156,67,84)" stroke-width="1" opacity="0.75" />
			</g>
		</g>
		<g>
			<title> (ctg233_75)</title>
			<polygon class=" (ctg233_75)" points="600,10 610,40 600,70" fill="rgb(255,255,255)" fill-opacity="1.0" stroke="rgb(0,0,0)" stroke-width="2"  />
			<g>
				<title>Polbeta (PF18765)
"Polymerase beta, Nucleotidyltransferase"</title>
				<polygon class="PF18765" points="600,28 602,28 606,40 602,52 600,52" stroke-linejoin="round" width="9" height="24" fill="rgb(76,177,228)" stroke="rgb(60,141,182)" stroke-width="1" opacity="0.75" />
			</g>
		</g>
		<g>
			<title> (ctg233_76)</title>
			<polygon class=" (ctg233_76)" points="611,40 627,10 627,70" fill="rgb(255,255,255)" fill-opacity="1.0" stroke="rgb(0,0,0)" stroke-width="2"  />
			<g>
				<title>DDE_Tnp_ISAZ013 (PF07592)
"Rhodopirellula transposase DDE domain"</title>
				<polygon class="PF07592" points="614,40 621,28 627,28 627,52 621,52" stroke-linejoin="round" width="16" height="24" fill="rgb(208,208,80)" stroke="rgb(166,166,64)" stroke-width="1" opacity="0.75" />
			</g>
		</g>
		<g>
			<title> (ctg233_77)</title>
			<polygon class=" (ctg233_77)" points="667,25 663,25 663,10 633,40 663,70 663,55 667,55" fill="rgb(255,255,255)" fill-opacity="1.0" stroke="rgb(0,0,0)" stroke-width="2"  />
		</g>
		<g>
			<title> (ctg233_78)</title>
			<polygon class=" (ctg233_78)" points="761,25 706,25 706,10 676,40 706,70 706,55 761,55" fill="rgb(255,255,255)" fill-opacity="1.0" stroke="rgb(0,0,0)" stroke-width="2"  />
			<g>
				<title>Acyltransferase (PF01553)
"Acyltransferase"</title>
				<polygon class="PF01553" points="681,39 692,28 695,28 695,52 692,52 681,41" stroke-linejoin="round" width="14" height="24" fill="rgb(87,176,216)" stroke="rgb(69,140,172)" stroke-width="1" opacity="0.75" />
			</g>
			<g>
				<title>PP-binding (PF00550)
"Phosphopantetheine attachment site"</title>
				<rect class="PF00550" x="702" y="28" stroke-linejoin="round" width="6" height="24" fill="rgb(103,191,88)" stroke="rgb(82,152,70)" stroke-width="1" opacity="0.75" />
			</g>
			<g>
				<title>AMP-binding (PF00501)
"AMP-binding enzyme"</title>
				<rect class="PF00501" x="719" y="28" stroke-linejoin="round" width="40" height="24" fill="rgb(60,217,223)" stroke="rgb(48,173,178)" stroke-width="1" opacity="0.75" />
			</g>
		</g>
		<g>
			<title> (ctg233_79)</title>
			<polygon class=" (ctg233_79)" points="767,40 774,10 774,70" fill="rgb(255,255,255)" fill-opacity="1.0" stroke="rgb(0,0,0)" stroke-width="2"  />
		</g>
		<g>
			<title> (ctg233_80)</title>
			<polygon class=" (ctg233_80)" points="780,40 794,10 794,70" fill="rgb(255,255,255)" fill-opacity="1.0" stroke="rgb(0,0,0)" stroke-width="2"  />
		</g>
		<g>
			<title> (ctg233_81)</title>
			<polygon class=" (ctg233_81)" points="796,40 805,10 805,70" fill="rgb(255,255,255)" fill-opacity="1.0" stroke="rgb(0,0,0)" stroke-width="2"  />
		</g>
		<g>
			<title> (ctg233_82)</title>
			<polygon class=" (ctg233_82)" points="806,40 817,10 817,70" fill="rgb(255,255,255)" fill-opacity="1.0" stroke="rgb(0,0,0)" stroke-width="2"  />
			<g>
				<title>DUF4372 (PF14294)
"Domain of unknown function (DUF4372)"</title>
				<polygon class="PF14294" points="809,40 814,28 815,28 815,52 814,52 809,40" stroke-linejoin="round" width="6" height="24" fill="rgb(193,116,66)" stroke="rgb(154,92,52)" stroke-width="1" opacity="0.75" />
			</g>
		</g>
		<g>
			<title> (ctg233_83)</title>
			<polygon class=" (ctg233_83)" points="823,10 844,40 823,70" fill="rgb(255,255,255)" fill-opacity="1.0" stroke="rgb(0,0,0)" stroke-width="2"  />
		</g>
		<g>
			<title> (ctg233_84)</title>
			<polygon class=" (ctg233_84)" points="846,10 850,40 846,70" fill="rgb(255,255,255)" fill-opacity="1.0" stroke="rgb(0,0,0)" stroke-width="2"  />
		</g>
		<g>
			<title> (ctg233_85)</title>
			<polygon class=" (ctg233_85)" points="920,25 902,25 902,10 872,40 902,70 902,55 920,55" fill="rgb(255,255,255)" fill-opacity="1.0" stroke="rgb(0,0,0)" stroke-width="2"  />
			<g>
				<title>DUF1501 (PF07394)
"Protein of unknown function (DUF1501)"</title>
				<polygon class="PF07394" points="876,40 888,28 914,28 914,52 888,52" stroke-linejoin="round" width="42" height="24" fill="rgb(199,225,81)" stroke="rgb(159,180,64)" stroke-width="1" opacity="0.75" />
			</g>
		</g>
		<g>
			<title> (ctg233_86)</title>
			<polygon class=" (ctg233_86)" points="1005,25 951,25 951,10 921,40 951,70 951,55 1005,55" fill="rgb(255,255,255)" fill-opacity="1.0" stroke="rgb(0,0,0)" stroke-width="2"  />
			<g>
				<title>PSD1 (PF07587)
"Protein of unknown function (DUF1553)"</title>
				<polygon class="PF07587" points="925,40 937,28 949,28 949,52 937,52" stroke-linejoin="round" width="26" height="24" fill="rgb(55,214,194)" stroke="rgb(44,171,155)" stroke-width="1" opacity="0.75" />
			</g>
			<g>
				<title>PSCyt2 (PF07583)
"Protein of unknown function (DUF1549)"</title>
				<rect class="PF07583" x="969" y="28" stroke-linejoin="round" width="21" height="24" fill="rgb(224,195,67)" stroke="rgb(179,156,53)" stroke-width="1" opacity="0.75" />
			</g>
			<g>
				<title>PSCyt1 (PF07635)
"Planctomycete cytochrome C"</title>
				<rect class="PF07635" x="996" y="28" stroke-linejoin="round" width="5" height="24" fill="rgb(198,62,63)" stroke="rgb(158,49,50)" stroke-width="1" opacity="0.75" />
			</g>
		</g>
		<g>
			<title> (ctg233_87)</title>
			<polygon class=" (ctg233_87)" points="1050,25 1047,25 1047,10 1017,40 1047,70 1047,55 1050,55" fill="rgb(255,255,255)" fill-opacity="1.0" stroke="rgb(0,0,0)" stroke-width="2"  />
			<g>
				<title>NHL (PF01436)
"NHL repeat"</title>
				<polygon class="PF01436" points="1029,32 1031,30 1031,50 1029,48" stroke-linejoin="round" width="2" height="24" fill="rgb(186,63,63)" stroke="rgb(148,50,50)" stroke-width="1" opacity="0.75" />
			</g>
		</g>
		<g>
			<title> (ctg233_88)</title>
			<polygon class=" (ctg233_88)" points="1051,40 1061,10 1061,70" fill="rgb(255,255,255)" fill-opacity="1.0" stroke="rgb(0,0,0)" stroke-width="2"  />
		</g>
		<g>
			<title> (ctg233_89)</title>
			<polygon class=" (ctg233_89)" points="1101,25 1091,25 1091,10 1061,40 1091,70 1091,55 1101,55" fill="rgb(255,255,255)" fill-opacity="1.0" stroke="rgb(0,0,0)" stroke-width="2"  />
			<g>
				<title>MR_MLE_C (PF13378)
"Enolase C-terminal domain-like"</title>
				<polygon class="PF13378" points="1065,40 1077,28 1084,28 1084,52 1077,52" stroke-linejoin="round" width="22" height="24" fill="rgb(191,184,94)" stroke="rgb(152,147,75)" stroke-width="1" opacity="0.75" />
			</g>
			<g>
				<title>MR_MLE_N (PF02746)
"Mandelate racemase / muconate lactonizing enzyme, N-terminal domain"</title>
				<rect class="PF02746" x="1086" y="28" stroke-linejoin="round" width="11" height="24" fill="rgb(63,73,226)" stroke="rgb(50,58,180)" stroke-width="1" opacity="0.75" />
			</g>
		</g>
		<g>
			<title> (ctg233_90)</title>
			<polygon class=" (ctg233_90)" points="1158,25 1141,25 1141,10 1111,40 1141,70 1141,55 1158,55" fill="rgb(255,255,255)" fill-opacity="1.0" stroke="rgb(0,0,0)" stroke-width="2"  />
		</g>
		<g>
			<title> (ctg233_91)</title>
			<polygon class=" (ctg233_91)" points="1166,10 1181,40 1166,70" fill="rgb(255,255,255)" fill-opacity="1.0" stroke="rgb(0,0,0)" stroke-width="2"  />
		</g>
		<g>
			<title> (ctg233_92)</title>
			<polygon class=" (ctg233_92)" points="1192,40 1203,10 1203,70" fill="rgb(255,255,255)" fill-opacity="1.0" stroke="rgb(0,0,0)" stroke-width="2"  />
		</g>
		<g>
			<title> (ctg233_93)</title>
			<polygon class=" (ctg233_93)" points="1323,25 1270,25 1270,10 1240,40 1270,70 1270,55 1323,55" fill="rgb(255,255,255)" fill-opacity="1.0" stroke="rgb(0,0,0)" stroke-width="2"  />
			<g>
				<title>CARDB (PF07705)
"CARDB"</title>
				<polygon class="PF07705" points="1253,31 1256,28 1264,28 1264,52 1256,52 1253,49" stroke-linejoin="round" width="11" height="24" fill="rgb(223,104,96)" stroke="rgb(178,83,76)" stroke-width="1" opacity="0.75" />
			</g>
			<g>
				<title>CARDB (PF07705)
"CARDB"</title>
				<rect class="PF07705" x="1265" y="28" stroke-linejoin="round" width="11" height="24" fill="rgb(223,104,96)" stroke="rgb(178,83,76)" stroke-width="1" opacity="0.75" />
			</g>
			<g>
				<title>NHL (PF01436)
"NHL repeat"</title>
				<rect class="PF01436" x="1300" y="28" stroke-linejoin="round" width="2" height="24" fill="rgb(186,63,63)" stroke="rgb(148,50,50)" stroke-width="1" opacity="0.75" />
			</g>
			<g>
				<title>NHL (PF01436)
"NHL repeat"</title>
				<rect class="PF01436" x="1312" y="28" stroke-linejoin="round" width="2" height="24" fill="rgb(186,63,63)" stroke="rgb(148,50,50)" stroke-width="1" opacity="0.75" />
			</g>
			<g>
				<title>NHL (PF01436)
"NHL repeat"</title>
				<rect class="PF01436" x="1317" y="28" stroke-linejoin="round" width="2" height="24" fill="rgb(186,63,63)" stroke="rgb(148,50,50)" stroke-width="1" opacity="0.75" />
			</g>
		</g>
		<g>
			<title> (ctg233_94)</title>
			<polygon class=" (ctg233_94)" points="1330,40 1337,10 1337,70" fill="rgb(255,255,255)" fill-opacity="1.0" stroke="rgb(0,0,0)" stroke-width="2"  />
			<g>
				<title>DDE_Tnp_ISL3 (PF01610)
"Transposase"</title>
				<polygon class="PF01610" points="1333,40 1336,28 1336,28 1336,52 1336,52" stroke-linejoin="round" width="5" height="24" fill="rgb(227,129,58)" stroke="rgb(181,103,46)" stroke-width="1" opacity="0.75" />
			</g>
		</g>
		<g>
			<title> (ctg233_95)</title>
			<polygon class=" (ctg233_95)" points="1350,10 1362,40 1350,70" fill="rgb(255,255,255)" fill-opacity="1.0" stroke="rgb(0,0,0)" stroke-width="2"  />
			<g>
				<title>DoxX_2 (PF13564)
"DoxX-like family"</title>
				<polygon class="PF13564" points="1350,28 1354,28 1359,40 1354,52 1350,52" stroke-linejoin="round" width="10" height="24" fill="rgb(194,67,108)" stroke="rgb(155,53,86)" stroke-width="1" opacity="0.75" />
			</g>
		</g>
		<g>
			<title> (ctg233_96)</title>
			<polygon class=" (ctg233_96)" points="1364,40 1371,10 1371,70" fill="rgb(255,255,255)" fill-opacity="1.0" stroke="rgb(0,0,0)" stroke-width="2"  />
		</g>
		<g>
			<title> (ctg233_97)</title>
			<polygon class=" (ctg233_97)" points="1386,40 1389,10 1389,70" fill="rgb(255,255,255)" fill-opacity="1.0" stroke="rgb(0,0,0)" stroke-width="2"  />
		</g>
		<g>
			<title> (ctg233_98)</title>
			<polygon class=" (ctg233_98)" points="1393,40 1416,10 1416,70" fill="rgb(255,255,255)" fill-opacity="1.0" stroke="rgb(0,0,0)" stroke-width="2"  />
			<g>
				<title>DDE_Tnp_ISAZ013 (PF07592)
"Rhodopirellula transposase DDE domain"</title>
				<polygon class="PF07592" points="1397,40 1406,28 1407,28 1407,52 1406,52 1397,40" stroke-linejoin="round" width="10" height="24" fill="rgb(208,208,80)" stroke="rgb(166,166,64)" stroke-width="1" opacity="0.75" />
			</g>
		</g>
	</g>
</svg>
