<svg version="1.1" baseProfile="full" xmlns="http://www.w3.org/2000/svg" width="690.7333333333333" height="80">
	<g>
		<line x1="10" y1="40.0" x2="680.7333333333333" y2="40.0" style="stroke:rgb(70,70,70); stroke-width:3 "/>
		<g>
			<title> (ctg2480_1)</title>
			<polygon class=" (ctg2480_1)" points="10,40 16,10 16,70" fill="rgb(255,255,255)" fill-opacity="1.0" stroke="rgb(0,0,0)" stroke-width="2"  />
		</g>
		<g>
			<title> (ctg2480_2)</title>
			<polygon class=" (ctg2480_2)" points="17,10 33,40 17,70" fill="rgb(255,255,255)" fill-opacity="1.0" stroke="rgb(0,0,0)" stroke-width="2"  />
			<g>
				<title>PALP (PF00291)
"Pyridoxal-phosphate dependent enzyme"</title>
				<polygon class="PF00291" points="18,28 23,28 30,40 30,40 23,52 18,52" stroke-linejoin="round" width="12" height="24" fill="rgb(180,55,145)" stroke="rgb(144,44,116)" stroke-width="1" opacity="0.75" />
			</g>
		</g>
		<g>
			<title> (ctg2480_3)</title>
			<polygon class=" (ctg2480_3)" points="73,25 64,25 64,10 34,40 64,70 64,55 73,55" fill="rgb(255,255,255)" fill-opacity="1.0" stroke="rgb(0,0,0)" stroke-width="2"  />
			<g>
				<title>Aldedh (PF00171)
"Aldehyde dehydrogenase family"</title>
				<polygon class="PF00171" points="38,40 50,28 72,28 72,52 50,52" stroke-linejoin="round" width="38" height="24" fill="rgb(105,213,139)" stroke="rgb(84,170,111)" stroke-width="1" opacity="0.75" />
			</g>
		</g>
		<g>
			<title> (ctg2480_4)</title>
			<polygon class=" (ctg2480_4)" points="87,40 91,10 91,70" fill="rgb(255,255,255)" fill-opacity="1.0" stroke="rgb(0,0,0)" stroke-width="2"  />
		</g>
		<g>
			<title> (ctg2480_5)</title>
			<polygon class=" (ctg2480_5)" points="95,25 103,25 103,10 133,40 103,70 103,55 95,55" fill="rgb(255,255,255)" fill-opacity="1.0" stroke="rgb(0,0,0)" stroke-width="2"  />
			<g>
				<title>Response_reg (PF00072)
"Response regulator receiver domain"</title>
				<rect class="PF00072" x="95" y="28" stroke-linejoin="round" width="11" height="24" fill="rgb(100,107,203)" stroke="rgb(80,85,162)" stroke-width="1" opacity="0.75" />
			</g>
			<g>
				<title>SpoIIE (PF07228)
"Stage II sporulation protein E (SpoIIE)"</title>
				<polygon class="PF07228" points="114,28 117,28 129,40 117,52 114,52" stroke-linejoin="round" width="19" height="24" fill="rgb(85,195,217)" stroke="rgb(68,155,173)" stroke-width="1" opacity="0.75" />
			</g>
		</g>
		<g>
			<title> (ctg2480_6)</title>
			<polygon class=" (ctg2480_6)" points="135,10 147,40 135,70" fill="rgb(255,255,255)" fill-opacity="1.0" stroke="rgb(0,0,0)" stroke-width="2"  />
			<g>
				<title>HATPase_c_2 (PF13581)
"Histidine kinase-like ATPase domain"</title>
				<polygon class="PF13581" points="135,28 139,28 144,40 139,52 135,52" stroke-linejoin="round" width="12" height="24" fill="rgb(86,179,88)" stroke="rgb(68,143,70)" stroke-width="1" opacity="0.75" />
			</g>
		</g>
		<g>
			<title> (ctg2480_7)</title>
			<polygon class=" (ctg2480_7)" points="148,25 158,25 158,10 188,40 158,70 158,55 148,55" fill="rgb(255,255,255)" fill-opacity="1.0" stroke="rgb(0,0,0)" stroke-width="2"  />
			<g>
				<title>Peripla_BP_6 (PF13458)
"Periplasmic binding protein"</title>
				<polygon class="PF13458" points="152,28 172,28 184,40 172,52 152,52" stroke-linejoin="round" width="34" height="24" fill="rgb(94,183,81)" stroke="rgb(75,146,64)" stroke-width="1" opacity="0.75" />
			</g>
		</g>
		<g>
			<title> (ctg2480_8)</title>
			<polygon class=" (ctg2480_8)" points="190,25 233,25 233,10 263,40 233,70 233,55 190,55" fill="rgb(255,255,255)" fill-opacity="1.0" stroke="rgb(0,0,0)" stroke-width="2"  />
			<g>
				<title>HAMP (PF00672)
"HAMP domain"</title>
				<rect class="PF00672" x="225" y="28" stroke-linejoin="round" width="5" height="24" fill="rgb(124,89,195)" stroke="rgb(99,71,156)" stroke-width="1" opacity="0.75" />
			</g>
			<g>
				<title>HisKA (PF00512)
"His Kinase A (phospho-acceptor) domain"</title>
				<rect class="PF00512" x="234" y="28" stroke-linejoin="round" width="9" height="24" fill="rgb(193,125,62)" stroke="rgb(154,100,49)" stroke-width="1" opacity="0.75" />
			</g>
			<g>
				<title>HATPase_c (PF02518)
"Histidine kinase-, DNA gyrase B-, and HSP90-like ATPase"</title>
				<polygon class="PF02518" points="248,29 259,40 248,51" stroke-linejoin="round" width="12" height="24" fill="rgb(80,94,225)" stroke="rgb(64,75,180)" stroke-width="1" opacity="0.75" />
			</g>
		</g>
		<g>
			<title> (ctg2480_9)</title>
			<polygon class=" (ctg2480_9)" points="263,40 274,10 274,70" fill="rgb(255,255,255)" fill-opacity="1.0" stroke="rgb(0,0,0)" stroke-width="2"  />
			<g>
				<title>STAS (PF01740)
"STAS domain"</title>
				<polygon class="PF01740" points="266,40 271,28 273,28 273,52 271,52" stroke-linejoin="round" width="10" height="24" fill="rgb(219,58,116)" stroke="rgb(175,46,92)" stroke-width="1" opacity="0.75" />
			</g>
		</g>
		<g>
			<title> (ctg2480_10)</title>
			<polygon class=" (ctg2480_10)" points="281,40 290,10 290,70" fill="rgb(255,255,255)" fill-opacity="1.0" stroke="rgb(0,0,0)" stroke-width="2"  />
			<g>
				<title>STAS (PF01740)
"STAS domain"</title>
				<polygon class="PF01740" points="284,40 288,28 290,28 290,52 288,52" stroke-linejoin="round" width="9" height="24" fill="rgb(219,58,116)" stroke="rgb(175,46,92)" stroke-width="1" opacity="0.75" />
			</g>
		</g>
		<g>
			<title> (ctg2480_11)</title>
			<polygon class=" (ctg2480_11)" points="311,25 316,25 316,10 346,40 316,70 316,55 311,55" fill="rgb(255,255,255)" fill-opacity="1.0" stroke="rgb(0,0,0)" stroke-width="2"  />
			<g>
				<title>SQS_PSY (PF00494)
"Squalene/phytoene synthase"</title>
				<polygon class="PF00494" points="313,28 330,28 342,40 342,40 330,52 313,52" stroke-linejoin="round" width="29" height="24" fill="rgb(178,91,49)" stroke="rgb(142,72,39)" stroke-width="1" opacity="0.75" />
			</g>
		</g>
		<g>
			<title> (ctg2480_12)</title>
			<polygon class=" (ctg2480_12)" points="349,25 352,25 352,10 382,40 352,70 352,55 349,55" fill="rgb(255,255,255)" fill-opacity="1.0" stroke="rgb(0,0,0)" stroke-width="2"  />
			<g>
				<title>LYTB (PF02401)
"LytB protein"</title>
				<polygon class="PF02401" points="351,28 365,28 377,40 365,52 351,52" stroke-linejoin="round" width="27" height="24" fill="rgb(155,62,193)" stroke="rgb(124,49,154)" stroke-width="1" opacity="0.75" />
			</g>
		</g>
		<g>
			<title> (ctg2480_13)</title>
			<polygon class=" (ctg2480_13)" points="418,25 415,25 415,10 385,40 415,70 415,55 418,55" fill="rgb(255,255,255)" fill-opacity="1.0" stroke="rgb(0,0,0)" stroke-width="2"  />
		</g>
		<g>
			<title> (ctg2480_14)</title>
			<polygon class=" (ctg2480_14)" points="419,40 424,10 424,70" fill="rgb(255,255,255)" fill-opacity="1.0" stroke="rgb(0,0,0)" stroke-width="2"  />
		</g>
		<g>
			<title> (ctg2480_15)</title>
			<polygon class=" (ctg2480_15)" points="427,40 441,10 441,70" fill="rgb(255,255,255)" fill-opacity="1.0" stroke="rgb(0,0,0)" stroke-width="2"  />
			<g>
				<title>LolA_like (PF17131)
"Outer membrane lipoprotein-sorting protein"</title>
				<polygon class="PF17131" points="430,40 436,28 441,28 441,52 436,52" stroke-linejoin="round" width="14" height="24" fill="rgb(189,100,83)" stroke="rgb(151,80,66)" stroke-width="1" opacity="0.75" />
			</g>
		</g>
		<g>
			<title> (ctg2480_16)</title>
			<polygon class=" (ctg2480_16)" points="455,40 459,10 459,70" fill="rgb(255,255,255)" fill-opacity="1.0" stroke="rgb(0,0,0)" stroke-width="2"  />
		</g>
		<g>
			<title> (ctg2480_17)</title>
			<polygon class=" (ctg2480_17)" points="459,40 473,10 473,70" fill="rgb(255,255,255)" fill-opacity="1.0" stroke="rgb(0,0,0)" stroke-width="2"  />
		</g>
		<g>
			<title> (ctg2480_18)</title>
			<polygon class=" (ctg2480_18)" points="487,40 498,10 498,70" fill="rgb(255,255,255)" fill-opacity="1.0" stroke="rgb(0,0,0)" stroke-width="2"  />
		</g>
		<g>
			<title> (ctg2480_19)</title>
			<polygon class=" (ctg2480_19)" points="521,10 529,40 521,70" fill="rgb(255,255,255)" fill-opacity="1.0" stroke="rgb(0,0,0)" stroke-width="2"  />
		</g>
		<g>
			<title> (ctg2480_20)</title>
			<polygon class=" (ctg2480_20)" points="537,10 546,40 537,70" fill="rgb(255,255,255)" fill-opacity="1.0" stroke="rgb(0,0,0)" stroke-width="2"  />
		</g>
		<g>
			<title> (ctg2480_21)</title>
			<polygon class=" (ctg2480_21)" points="551,40 560,10 560,70" fill="rgb(255,255,255)" fill-opacity="1.0" stroke="rgb(0,0,0)" stroke-width="2"  />
		</g>
		<g>
			<title> (ctg2480_22)</title>
			<polygon class=" (ctg2480_22)" points="566,10 575,40 566,70" fill="rgb(255,255,255)" fill-opacity="1.0" stroke="rgb(0,0,0)" stroke-width="2"  />
		</g>
		<g>
			<title> (ctg2480_23)</title>
			<polygon class=" (ctg2480_23)" points="573,10 590,40 573,70" fill="rgb(255,255,255)" fill-opacity="1.0" stroke="rgb(0,0,0)" stroke-width="2"  />
		</g>
		<g>
			<title> (ctg2480_24)</title>
			<polygon class=" (ctg2480_24)" points="594,10 603,40 594,70" fill="rgb(255,255,255)" fill-opacity="1.0" stroke="rgb(0,0,0)" stroke-width="2"  />
		</g>
		<g>
			<title> (ctg2480_25)</title>
			<polygon class=" (ctg2480_25)" points="610,40 621,10 621,70" fill="rgb(255,255,255)" fill-opacity="1.0" stroke="rgb(0,0,0)" stroke-width="2"  />
		</g>
	</g>
</svg>
