<svg version="1.1" baseProfile="full" xmlns="http://www.w3.org/2000/svg" width="802.2666666666667" height="80">
	<g>
		<line x1="10" y1="40.0" x2="792.2666666666667" y2="40.0" style="stroke:rgb(70,70,70); stroke-width:3 "/>
		<g>
			<title> (ctg2106_1)</title>
			<polygon class=" (ctg2106_1)" points="10,40 30,10 30,70" fill="rgb(255,255,255)" fill-opacity="1.0" stroke="rgb(0,0,0)" stroke-width="2"  />
			<g>
				<title>zf-HC2 (PF13490)
"Putative zinc-finger"</title>
				<polygon class="PF13490" points="20,31 22,28 23,28 23,52 22,52 20,49" stroke-linejoin="round" width="3" height="24" fill="rgb(179,173,84)" stroke="rgb(143,138,67)" stroke-width="1" opacity="0.75" />
			</g>
			<g>
				<title>zf-HC2 (PF13490)
"Putative zinc-finger"</title>
				<rect class="PF13490" x="27" y="28" stroke-linejoin="round" width="3" height="24" fill="rgb(179,173,84)" stroke="rgb(143,138,67)" stroke-width="1" opacity="0.75" />
			</g>
		</g>
		<g>
			<title> (ctg2106_2)</title>
			<polygon class=" (ctg2106_2)" points="30,40 50,10 50,70" fill="rgb(255,255,255)" fill-opacity="1.0" stroke="rgb(0,0,0)" stroke-width="2"  />
			<g>
				<title>Sigma70_r4_2 (PF08281)
"Sigma-70, region 4"</title>
				<polygon class="PF08281" points="34,40 37,36 37,44" stroke-linejoin="round" width="5" height="24" fill="rgb(222,103,144)" stroke="rgb(177,82,115)" stroke-width="1" opacity="0.75" />
			</g>
			<g>
				<title>Sigma70_r2 (PF04542)
"Sigma-70 region 2"</title>
				<polygon class="PF04542" points="40,31 42,28 46,28 46,52 42,52 40,49" stroke-linejoin="round" width="6" height="24" fill="rgb(184,59,197)" stroke="rgb(147,47,157)" stroke-width="1" opacity="0.75" />
			</g>
		</g>
		<g>
			<title> (ctg2106_3)</title>
			<polygon class=" (ctg2106_3)" points="54,25 81,25 81,10 111,40 81,70 81,55 54,55" fill="rgb(255,255,255)" fill-opacity="1.0" stroke="rgb(0,0,0)" stroke-width="2"  />
			<g>
				<title>PQQ_2 (PF13360)
"PQQ-like domain"</title>
				<rect class="PF13360" x="59" y="28" stroke-linejoin="round" width="25" height="24" fill="rgb(98,210,146)" stroke="rgb(78,168,116)" stroke-width="1" opacity="0.75" />
			</g>
			<g>
				<title>PQQ_2 (PF13360)
"PQQ-like domain"</title>
				<polygon class="PF13360" points="99,33 106,40 99,47" stroke-linejoin="round" width="9" height="24" fill="rgb(98,210,146)" stroke="rgb(78,168,116)" stroke-width="1" opacity="0.75" />
			</g>
		</g>
		<g>
			<title> (ctg2106_4)</title>
			<polygon class=" (ctg2106_4)" points="112,25 115,25 115,10 145,40 115,70 115,55 112,55" fill="rgb(255,255,255)" fill-opacity="1.0" stroke="rgb(0,0,0)" stroke-width="2"  />
			<g>
				<title>DUF5128 (PF17170)
"6-bladed beta-propeller"</title>
				<polygon class="PF17170" points="129,28 129,28 139,38 139,42 129,52 129,52" stroke-linejoin="round" width="10" height="24" fill="rgb(67,171,188)" stroke="rgb(53,136,150)" stroke-width="1" opacity="0.75" />
			</g>
		</g>
		<g>
			<title> (ctg2106_5)</title>
			<polygon class=" (ctg2106_5)" points="151,25 156,25 156,10 186,40 156,70 156,55 151,55" fill="rgb(255,255,255)" fill-opacity="1.0" stroke="rgb(0,0,0)" stroke-width="2"  />
			<g>
				<title>Peptidase_M23 (PF01551)
"Peptidase family M23"</title>
				<polygon class="PF01551" points="171,30 181,40 171,50" stroke-linejoin="round" width="11" height="24" fill="rgb(65,169,193)" stroke="rgb(51,135,154)" stroke-width="1" opacity="0.75" />
			</g>
		</g>
		<g>
			<title> (ctg2106_6)</title>
			<polygon class=" (ctg2106_6)" points="191,10 201,40 191,70" fill="rgb(255,255,255)" fill-opacity="1.0" stroke="rgb(0,0,0)" stroke-width="2"  />
			<g>
				<title>HTH_31 (PF13560)
"Helix-turn-helix domain"</title>
				<polygon class="PF13560" points="192,28 193,28 198,40 193,52 192,52" stroke-linejoin="round" width="7" height="24" fill="rgb(207,145,90)" stroke="rgb(165,116,72)" stroke-width="1" opacity="0.75" />
			</g>
		</g>
		<g>
			<title> (ctg2106_7)</title>
			<polygon class=" (ctg2106_7)" points="202,25 214,25 214,10 244,40 214,70 214,55 202,55" fill="rgb(255,255,255)" fill-opacity="1.0" stroke="rgb(0,0,0)" stroke-width="2"  />
			<g>
				<title>Couple_hipA (PF13657)
"HipA N-terminal domain"</title>
				<rect class="PF13657" x="203" y="28" stroke-linejoin="round" width="11" height="24" fill="rgb(65,181,177)" stroke="rgb(52,144,141)" stroke-width="1" opacity="0.75" />
			</g>
			<g>
				<title>HipA_C (PF07804)
"HipA-like C-terminal domain"</title>
				<polygon class="PF07804" points="219,28 227,28 239,40 227,52 219,52" stroke-linejoin="round" width="21" height="24" fill="rgb(52,106,179)" stroke="rgb(41,84,143)" stroke-width="1" opacity="0.75" />
			</g>
		</g>
		<g>
			<title> (ctg2106_8)</title>
			<polygon class=" (ctg2106_8)" points="251,10 255,40 251,70" fill="rgb(255,255,255)" fill-opacity="1.0" stroke="rgb(0,0,0)" stroke-width="2"  />
		</g>
		<g>
			<title> (ctg2106_9)</title>
			<polygon class=" (ctg2106_9)" points="256,25 284,25 284,10 314,40 284,70 284,55 256,55" fill="rgb(255,255,255)" fill-opacity="1.0" stroke="rgb(0,0,0)" stroke-width="2"  />
			<g>
				<title>PQQ_2 (PF13360)
"PQQ-like domain"</title>
				<rect class="PF13360" x="261" y="28" stroke-linejoin="round" width="15" height="24" fill="rgb(98,210,146)" stroke="rgb(78,168,116)" stroke-width="1" opacity="0.75" />
			</g>
			<g>
				<title>PQQ_2 (PF13360)
"PQQ-like domain"</title>
				<polygon class="PF13360" points="277,28 298,28 305,35 305,45 298,52 277,52" stroke-linejoin="round" width="28" height="24" fill="rgb(98,210,146)" stroke="rgb(78,168,116)" stroke-width="1" opacity="0.75" />
			</g>
		</g>
		<g>
			<title> (ctg2106_10)</title>
			<polygon class=" (ctg2106_10)" points="315,10 333,40 315,70" fill="rgb(255,255,255)" fill-opacity="1.0" stroke="rgb(0,0,0)" stroke-width="2"  />
			<g>
				<title>PEMT (PF04191)
"Phospholipid methyltransferase"</title>
				<polygon class="PF04191" points="320,28 322,28 330,40 330,40 322,52 320,52" stroke-linejoin="round" width="10" height="24" fill="rgb(82,89,182)" stroke="rgb(65,71,145)" stroke-width="1" opacity="0.75" />
			</g>
		</g>
		<g>
			<title> (ctg2106_11)</title>
			<polygon class=" (ctg2106_11)" points="333,10 336,40 333,70" fill="rgb(255,255,255)" fill-opacity="1.0" stroke="rgb(0,0,0)" stroke-width="2"  />
		</g>
		<g>
			<title> (ctg2106_12)</title>
			<polygon class=" (ctg2106_12)" points="339,10 349,40 339,70" fill="rgb(255,255,255)" fill-opacity="1.0" stroke="rgb(0,0,0)" stroke-width="2"  />
		</g>
		<g>
			<title> (ctg2106_13)</title>
			<polygon class=" (ctg2106_13)" points="348,10 358,40 348,70" fill="rgb(255,255,255)" fill-opacity="1.0" stroke="rgb(0,0,0)" stroke-width="2"  />
		</g>
		<g>
			<title> (ctg2106_14)</title>
			<polygon class=" (ctg2106_14)" points="369,25 376,25 376,10 406,40 376,70 376,55 369,55" fill="rgb(255,255,255)" fill-opacity="1.0" stroke="rgb(0,0,0)" stroke-width="2"  />
			<g>
				<title>Pyr_redox_3 (PF13738)
"Pyridine nucleotide-disulphide oxidoreductase"</title>
				<polygon class="PF13738" points="370,28 390,28 400,38 400,42 390,52 370,52" stroke-linejoin="round" width="30" height="24" fill="rgb(213,91,84)" stroke="rgb(170,72,67)" stroke-width="1" opacity="0.75" />
			</g>
		</g>
		<g>
			<title> (ctg2106_15)</title>
			<polygon class=" (ctg2106_15)" points="407,25 431,25 431,10 461,40 431,70 431,55 407,55" fill="rgb(255,255,255)" fill-opacity="1.0" stroke="rgb(0,0,0)" stroke-width="2"  />
			<g>
				<title>MMR_HSR1 (PF01926)
"50S ribosome-binding GTPase"</title>
				<rect class="PF01926" x="407" y="28" stroke-linejoin="round" width="10" height="24" fill="rgb(105,180,226)" stroke="rgb(83,143,180)" stroke-width="1" opacity="0.75" />
			</g>
			<g>
				<title>Gate (PF07670)
"Nucleoside recognition"</title>
				<rect class="PF07670" x="432" y="28" stroke-linejoin="round" width="9" height="24" fill="rgb(124,94,191)" stroke="rgb(99,75,152)" stroke-width="1" opacity="0.75" />
			</g>
		</g>
		<g>
			<title> (ctg2106_16)</title>
			<polygon class=" (ctg2106_16)" points="461,10 480,40 461,70" fill="rgb(255,255,255)" fill-opacity="1.0" stroke="rgb(0,0,0)" stroke-width="2"  />
		</g>
		<g>
			<title> (ctg2106_17)</title>
			<polygon class=" (ctg2106_17)" points="480,25 490,25 490,10 520,40 490,70 490,55 480,55" fill="rgb(255,255,255)" fill-opacity="1.0" stroke="rgb(0,0,0)" stroke-width="2"  />
			<g>
				<title>cobW (PF02492)
"CobW/HypB/UreG, nucleotide-binding domain"</title>
				<rect class="PF02492" x="480" y="28" stroke-linejoin="round" width="20" height="24" fill="rgb(79,112,178)" stroke="rgb(63,89,142)" stroke-width="1" opacity="0.75" />
			</g>
			<g>
				<title>CobW_C (PF07683)
"Cobalamin synthesis protein cobW C-terminal domain"</title>
				<polygon class="PF07683" points="505,29 516,40 516,40 505,51" stroke-linejoin="round" width="11" height="24" fill="rgb(172,98,218)" stroke="rgb(137,78,174)" stroke-width="1" opacity="0.75" />
			</g>
		</g>
		<g>
			<title> (ctg2106_18)</title>
			<polygon class=" (ctg2106_18)" points="520,10 531,40 520,70" fill="rgb(255,255,255)" fill-opacity="1.0" stroke="rgb(0,0,0)" stroke-width="2"  />
		</g>
		<g>
			<title> (ctg2106_19)</title>
			<polygon class=" (ctg2106_19)" points="532,40 544,10 544,70" fill="rgb(255,255,255)" fill-opacity="1.0" stroke="rgb(0,0,0)" stroke-width="2"  />
		</g>
		<g>
			<title> (ctg2106_20)</title>
			<polygon class=" (ctg2106_20)" points="543,40 547,10 547,70" fill="rgb(255,255,255)" fill-opacity="1.0" stroke="rgb(0,0,0)" stroke-width="2"  />
		</g>
		<g>
			<title> (ctg2106_21)</title>
			<polygon class=" (ctg2106_21)" points="552,10 568,40 552,70" fill="rgb(255,255,255)" fill-opacity="1.0" stroke="rgb(0,0,0)" stroke-width="2"  />
			<g>
				<title>Acetyltransf_1 (PF00583)
"Acetyltransferase (GNAT) family"</title>
				<polygon class="PF00583" points="554,28 558,28 565,40 558,52 554,52" stroke-linejoin="round" width="12" height="24" fill="rgb(121,183,50)" stroke="rgb(96,146,39)" stroke-width="1" opacity="0.75" />
			</g>
		</g>
		<g>
			<title> (ctg2106_22)</title>
			<polygon class=" (ctg2106_22)" points="569,10 594,40 569,70" fill="rgb(255,255,255)" fill-opacity="1.0" stroke="rgb(0,0,0)" stroke-width="2"  />
			<g>
				<title>Methyltransf_25 (PF13649)
"Methyltransferase domain"</title>
				<polygon class="PF13649" points="575,28 580,28 584,33 584,47 580,52 575,52" stroke-linejoin="round" width="9" height="24" fill="rgb(227,135,74)" stroke="rgb(181,108,59)" stroke-width="1" opacity="0.75" />
			</g>
		</g>
		<g>
			<title> (ctg2106_23)</title>
			<polygon class=" (ctg2106_23)" points="610,40 632,10 632,70" fill="rgb(255,255,255)" fill-opacity="1.0" stroke="rgb(0,0,0)" stroke-width="2"  />
		</g>
		<g>
			<title> (ctg2106_24)</title>
			<polygon class=" (ctg2106_24)" points="633,40 641,10 641,70" fill="rgb(255,255,255)" fill-opacity="1.0" stroke="rgb(0,0,0)" stroke-width="2"  />
		</g>
		<g>
			<title> (ctg2106_25)</title>
			<polygon class=" (ctg2106_25)" points="734,25 671,25 671,10 641,40 671,70 671,55 734,55" fill="rgb(255,255,255)" fill-opacity="1.0" stroke="rgb(0,0,0)" stroke-width="2"  />
			<g>
				<title>Acyltransferase (PF01553)
"Acyltransferase"</title>
				<polygon class="PF01553" points="646,39 657,28 658,28 658,52 657,52 646,41" stroke-linejoin="round" width="12" height="24" fill="rgb(87,176,216)" stroke="rgb(69,140,172)" stroke-width="1" opacity="0.75" />
			</g>
			<g>
				<title>AMP-binding (PF00501)
"AMP-binding enzyme"</title>
				<rect class="PF00501" x="677" y="28" stroke-linejoin="round" width="44" height="24" fill="rgb(60,217,223)" stroke="rgb(48,173,178)" stroke-width="1" opacity="0.75" />
			</g>
			<g>
				<title>PP-binding (PF00550)
"Phosphopantetheine attachment site"</title>
				<rect class="PF00550" x="725" y="28" stroke-linejoin="round" width="7" height="24" fill="rgb(103,191,88)" stroke="rgb(82,152,70)" stroke-width="1" opacity="0.75" />
			</g>
		</g>
		<g>
			<title> (ctg2106_26)</title>
			<polygon class=" (ctg2106_26)" points="735,40 754,10 754,70" fill="rgb(255,255,255)" fill-opacity="1.0" stroke="rgb(0,0,0)" stroke-width="2"  />
			<g>
				<title>Pro_isomerase (PF00160)
"Cyclophilin type peptidyl-prolyl cis-trans isomerase/CLD"</title>
				<polygon class="PF00160" points="739,40 747,28 751,28 751,52 747,52" stroke-linejoin="round" width="16" height="24" fill="rgb(130,221,72)" stroke="rgb(103,176,57)" stroke-width="1" opacity="0.75" />
			</g>
		</g>
		<g>
			<title> (ctg2106_27)</title>
			<polygon class=" (ctg2106_27)" points="791,25 785,25 785,10 755,40 785,70 785,55 791,55" fill="rgb(255,255,255)" fill-opacity="1.0" stroke="rgb(0,0,0)" stroke-width="2"  />
			<g>
				<title>Pro_isomerase (PF00160)
"Cyclophilin type peptidyl-prolyl cis-trans isomerase/CLD"</title>
				<polygon class="PF00160" points="759,40 771,28 771,28 771,52 771,52" stroke-linejoin="round" width="16" height="24" fill="rgb(130,221,72)" stroke="rgb(103,176,57)" stroke-width="1" opacity="0.75" />
			</g>
		</g>
	</g>
</svg>
