<svg version="1.1" baseProfile="full" xmlns="http://www.w3.org/2000/svg" width="745.1" height="80">
	<g>
		<line x1="10" y1="40.0" x2="735.1" y2="40.0" style="stroke:rgb(70,70,70); stroke-width:3 "/>
		<g>
			<title> (ctg497_48)</title>
			<polygon class=" (ctg497_48)" points="15,25 48,25 48,10 78,40 48,70 48,55 15,55" fill="rgb(255,255,255)" fill-opacity="1.0" stroke="rgb(0,0,0)" stroke-width="2"  />
			<g>
				<title>DXP_synthase_N (PF13292)
"1-deoxy-D-xylulose-5-phosphate synthase"</title>
				<rect class="PF13292" x="15" y="28" stroke-linejoin="round" width="27" height="24" fill="rgb(46,179,173)" stroke="rgb(36,143,138)" stroke-width="1" opacity="0.75" />
			</g>
			<g>
				<title>Transket_pyr (PF02779)
"Transketolase, pyrimidine binding domain"</title>
				<polygon class="PF02779" points="46,28 61,28 62,29 62,51 61,52 46,52" stroke-linejoin="round" width="16" height="24" fill="rgb(189,186,84)" stroke="rgb(151,148,67)" stroke-width="1" opacity="0.75" />
			</g>
			<g>
				<title>Transketolase_C (PF02780)
"Transketolase, C-terminal domain"</title>
				<polygon class="PF02780" points="64,31 73,40 64,49" stroke-linejoin="round" width="12" height="24" fill="rgb(76,206,101)" stroke="rgb(60,164,80)" stroke-width="1" opacity="0.75" />
			</g>
		</g>
		<g>
			<title> (ctg497_49)</title>
			<polygon class=" (ctg497_49)" points="78,10 90,40 78,70" fill="rgb(255,255,255)" fill-opacity="1.0" stroke="rgb(0,0,0)" stroke-width="2"  />
		</g>
		<g>
			<title> (ctg497_50)</title>
			<polygon class=" (ctg497_50)" points="89,10 117,40 89,70" fill="rgb(255,255,255)" fill-opacity="1.0" stroke="rgb(0,0,0)" stroke-width="2"  />
			<g>
				<title>DUF2236 (PF09995)
"Uncharacterized protein conserved in bacteria (DUF2236)"</title>
				<polygon class="PF09995" points="89,28 101,28 112,40 112,40 101,52 89,52" stroke-linejoin="round" width="23" height="24" fill="rgb(194,179,92)" stroke="rgb(155,143,73)" stroke-width="1" opacity="0.75" />
			</g>
		</g>
		<g>
			<title> (ctg497_51)</title>
			<polygon class=" (ctg497_51)" points="139,40 152,10 152,70" fill="rgb(255,255,255)" fill-opacity="1.0" stroke="rgb(0,0,0)" stroke-width="2"  />
		</g>
		<g>
			<title> (ctg497_52)</title>
			<polygon class=" (ctg497_52)" points="166,10 194,40 166,70" fill="rgb(255,255,255)" fill-opacity="1.0" stroke="rgb(0,0,0)" stroke-width="2"  />
			<g>
				<title>MMPL (PF03176)
"MMPL family"</title>
				<polygon class="PF03176" points="173,28 178,28 190,40 178,52 173,52" stroke-linejoin="round" width="21" height="24" fill="rgb(228,109,193)" stroke="rgb(182,87,154)" stroke-width="1" opacity="0.75" />
			</g>
		</g>
		<g>
			<title> (ctg497_53)</title>
			<polygon class=" (ctg497_53)" points="195,10 222,40 195,70" fill="rgb(255,255,255)" fill-opacity="1.0" stroke="rgb(0,0,0)" stroke-width="2"  />
			<g>
				<title>LolA_like (PF17131)
"Outer membrane lipoprotein-sorting protein"</title>
				<polygon class="PF17131" points="203,28 206,28 218,40 206,52 203,52" stroke-linejoin="round" width="18" height="24" fill="rgb(189,100,83)" stroke="rgb(151,80,66)" stroke-width="1" opacity="0.75" />
			</g>
		</g>
		<g>
			<title> (ctg497_54)</title>
			<polygon class=" (ctg497_54)" points="222,25 233,25 233,10 263,40 233,70 233,55 222,55" fill="rgb(255,255,255)" fill-opacity="1.0" stroke="rgb(0,0,0)" stroke-width="2"  />
		</g>
		<g>
			<title> (ctg497_55)</title>
			<polygon class=" (ctg497_55)" points="296,25 295,25 295,10 265,40 295,70 295,55 296,55" fill="rgb(255,255,255)" fill-opacity="1.0" stroke="rgb(0,0,0)" stroke-width="2"  />
			<g>
				<title>LYTB (PF02401)
"LytB protein"</title>
				<polygon class="PF02401" points="269,40 281,28 295,28 295,52 281,52" stroke-linejoin="round" width="27" height="24" fill="rgb(155,62,193)" stroke="rgb(124,49,154)" stroke-width="1" opacity="0.75" />
			</g>
		</g>
		<g>
			<title> (ctg497_56)</title>
			<polygon class=" (ctg497_56)" points="342,25 330,25 330,10 300,40 330,70 330,55 342,55" fill="rgb(255,255,255)" fill-opacity="1.0" stroke="rgb(0,0,0)" stroke-width="2"  />
			<g>
				<title>Amino_oxidase (PF01593)
"Flavin containing amine oxidoreductase"</title>
				<polygon class="PF01593" points="304,40 316,28 340,28 340,52 316,52" stroke-linejoin="round" width="40" height="24" fill="rgb(184,74,52)" stroke="rgb(147,59,41)" stroke-width="1" opacity="0.75" />
			</g>
		</g>
		<g>
			<title> (ctg497_57)</title>
			<polygon class=" (ctg497_57)" points="343,40 372,10 372,70" fill="rgb(255,255,255)" fill-opacity="1.0" stroke="rgb(0,0,0)" stroke-width="2"  />
			<g>
				<title>SQS_PSY (PF00494)
"Squalene/phytoene synthase"</title>
				<polygon class="PF00494" points="347,40 359,28 369,28 369,52 359,52" stroke-linejoin="round" width="25" height="24" fill="rgb(178,91,49)" stroke="rgb(142,72,39)" stroke-width="1" opacity="0.75" />
			</g>
		</g>
		<g>
			<title> (ctg497_58)</title>
			<polygon class=" (ctg497_58)" points="372,40 401,10 401,70" fill="rgb(255,255,255)" fill-opacity="1.0" stroke="rgb(0,0,0)" stroke-width="2"  />
			<g>
				<title>SQS_PSY (PF00494)
"Squalene/phytoene synthase"</title>
				<polygon class="PF00494" points="376,40 388,28 399,28 399,52 388,52" stroke-linejoin="round" width="25" height="24" fill="rgb(178,91,49)" stroke="rgb(142,72,39)" stroke-width="1" opacity="0.75" />
			</g>
		</g>
		<g>
			<title> (ctg497_59)</title>
			<polygon class=" (ctg497_59)" points="408,25 416,25 416,10 446,40 416,70 416,55 408,55" fill="rgb(255,255,255)" fill-opacity="1.0" stroke="rgb(0,0,0)" stroke-width="2"  />
			<g>
				<title>SBP_bac_6 (PF13343)
"Bacterial extracellular solute-binding protein"</title>
				<polygon class="PF13343" points="417,28 430,28 442,40 442,40 430,52 417,52" stroke-linejoin="round" width="25" height="24" fill="rgb(176,192,49)" stroke="rgb(140,153,39)" stroke-width="1" opacity="0.75" />
			</g>
		</g>
		<g>
			<title> (ctg497_60)</title>
			<polygon class=" (ctg497_60)" points="449,10 463,40 449,70" fill="rgb(255,255,255)" fill-opacity="1.0" stroke="rgb(0,0,0)" stroke-width="2"  />
		</g>
		<g>
			<title> (ctg497_61)</title>
			<polygon class=" (ctg497_61)" points="463,25 463,25 463,10 493,40 463,70 463,55 463,55" fill="rgb(255,255,255)" fill-opacity="1.0" stroke="rgb(0,0,0)" stroke-width="2"  />
			<g>
				<title>Lactamase_B_2 (PF12706)
"Beta-lactamase superfamily domain"</title>
				<polygon class="PF12706" points="466,28 476,28 487,39 487,41 476,52 466,52" stroke-linejoin="round" width="21" height="24" fill="rgb(62,169,197)" stroke="rgb(49,135,157)" stroke-width="1" opacity="0.75" />
			</g>
		</g>
		<g>
			<title> (ctg497_62)</title>
			<polygon class=" (ctg497_62)" points="493,25 496,25 496,10 526,40 496,70 496,55 493,55" fill="rgb(255,255,255)" fill-opacity="1.0" stroke="rgb(0,0,0)" stroke-width="2"  />
			<g>
				<title>Phosphonate-bd (PF12974)
"ABC transporter, phosphonate, periplasmic substrate-binding protein"</title>
				<polygon class="PF12974" points="495,28 510,28 515,33 515,47 510,52 495,52" stroke-linejoin="round" width="20" height="24" fill="rgb(150,187,81)" stroke="rgb(120,149,64)" stroke-width="1" opacity="0.75" />
			</g>
		</g>
		<g>
			<title> (ctg497_63)</title>
			<polygon class=" (ctg497_63)" points="530,40 550,10 550,70" fill="rgb(255,255,255)" fill-opacity="1.0" stroke="rgb(0,0,0)" stroke-width="2"  />
			<g>
				<title>Ring_hydroxyl_B (PF00866)
"Ring hydroxylating beta subunit"</title>
				<polygon class="PF00866" points="534,40 542,28 545,28 545,52 542,52" stroke-linejoin="round" width="15" height="24" fill="rgb(202,87,131)" stroke="rgb(161,69,104)" stroke-width="1" opacity="0.75" />
			</g>
		</g>
		<g>
			<title> (ctg497_64)</title>
			<polygon class=" (ctg497_64)" points="595,25 580,25 580,10 550,40 580,70 580,55 595,55" fill="rgb(255,255,255)" fill-opacity="1.0" stroke="rgb(0,0,0)" stroke-width="2"  />
			<g>
				<title>Ring_hydroxyl_A (PF00848)
"Ring hydroxylating alpha subunit (catalytic domain)"</title>
				<polygon class="PF00848" points="554,40 566,28 577,28 577,52 566,52" stroke-linejoin="round" width="27" height="24" fill="rgb(76,134,184)" stroke="rgb(60,107,147)" stroke-width="1" opacity="0.75" />
			</g>
			<g>
				<title>Rieske (PF00355)
"Rieske [2Fe-2S] domain"</title>
				<rect class="PF00355" x="582" y="28" stroke-linejoin="round" width="8" height="24" fill="rgb(186,77,145)" stroke="rgb(148,61,115)" stroke-width="1" opacity="0.75" />
			</g>
		</g>
		<g>
			<title> (ctg497_65)</title>
			<polygon class=" (ctg497_65)" points="637,25 630,25 630,10 600,40 630,70 630,55 637,55" fill="rgb(255,255,255)" fill-opacity="1.0" stroke="rgb(0,0,0)" stroke-width="2"  />
			<g>
				<title>MFS_3 (PF05977)
"Transmembrane secretion effector"</title>
				<polygon class="PF05977" points="604,40 616,28 636,28 636,52 616,52" stroke-linejoin="round" width="36" height="24" fill="rgb(80,62,217)" stroke="rgb(64,49,173)" stroke-width="1" opacity="0.75" />
			</g>
		</g>
		<g>
			<title> (ctg497_66)</title>
			<polygon class=" (ctg497_66)" points="680,25 672,25 672,10 642,40 672,70 672,55 680,55" fill="rgb(255,255,255)" fill-opacity="1.0" stroke="rgb(0,0,0)" stroke-width="2"  />
			<g>
				<title>TOBE (PF03459)
"TOBE domain"</title>
				<polygon class="PF03459" points="646,40 650,36 650,44" stroke-linejoin="round" width="6" height="24" fill="rgb(212,80,65)" stroke="rgb(169,64,52)" stroke-width="1" opacity="0.75" />
			</g>
			<g>
				<title>ABC_tran (PF00005)
"ABC transporter"</title>
				<rect class="PF00005" x="664" y="28" stroke-linejoin="round" width="14" height="24" fill="rgb(129,201,63)" stroke="rgb(103,160,50)" stroke-width="1" opacity="0.75" />
			</g>
		</g>
		<g>
			<title> (ctg497_67)</title>
			<polygon class=" (ctg497_67)" points="681,40 704,10 704,70" fill="rgb(255,255,255)" fill-opacity="1.0" stroke="rgb(0,0,0)" stroke-width="2"  />
			<g>
				<title>BPD_transp_1 (PF00528)
"Binding-protein-dependent transport system inner membrane component"</title>
				<polygon class="PF00528" points="685,40 694,28 701,28 701,52 694,52" stroke-linejoin="round" width="20" height="24" fill="rgb(77,208,225)" stroke="rgb(61,166,180)" stroke-width="1" opacity="0.75" />
			</g>
		</g>
		<g>
			<title> (ctg497_68)</title>
			<polygon class=" (ctg497_68)" points="704,40 712,10 712,70" fill="rgb(255,255,255)" fill-opacity="1.0" stroke="rgb(0,0,0)" stroke-width="2"  />
			<g>
				<title>SBP_bac_11 (PF13531)
"Bacterial extracellular solute-binding protein"</title>
				<polygon class="PF13531" points="707,40 710,28 711,28 711,52 710,52" stroke-linejoin="round" width="7" height="24" fill="rgb(202,228,104)" stroke="rgb(161,182,83)" stroke-width="1" opacity="0.75" />
			</g>
		</g>
		<g>
			<title> (ctg497_69)</title>
			<polygon class=" (ctg497_69)" points="729,10 733,40 729,70" fill="rgb(255,255,255)" fill-opacity="1.0" stroke="rgb(0,0,0)" stroke-width="2"  />
		</g>
	</g>
</svg>
