<svg version="1.1" baseProfile="full" xmlns="http://www.w3.org/2000/svg" width="1691.0333333333333" height="80">
	<g>
		<line x1="10" y1="40.0" x2="1681.0333333333333" y2="40.0" style="stroke:rgb(70,70,70); stroke-width:3 "/>
		<g>
			<title> (ctg48_108)</title>
			<polygon class=" (ctg48_108)" points="22,25 54,25 54,10 84,40 54,70 54,55 22,55" fill="rgb(255,255,255)" fill-opacity="1.0" stroke="rgb(0,0,0)" stroke-width="2"  />
			<g>
				<title>Sulfatase (PF00884)
"Sulfatase"</title>
				<polygon class="PF00884" points="45,28 68,28 73,33 73,47 68,52 45,52" stroke-linejoin="round" width="28" height="24" fill="rgb(61,103,198)" stroke="rgb(48,82,158)" stroke-width="1" opacity="0.75" />
			</g>
		</g>
		<g>
			<title> (ctg48_109)</title>
			<polygon class=" (ctg48_109)" points="85,25 125,25 125,10 155,40 125,70 125,55 85,55" fill="rgb(255,255,255)" fill-opacity="1.0" stroke="rgb(0,0,0)" stroke-width="2"  />
		</g>
		<g>
			<title> (ctg48_110)</title>
			<polygon class=" (ctg48_110)" points="157,10 181,40 157,70" fill="rgb(255,255,255)" fill-opacity="1.0" stroke="rgb(0,0,0)" stroke-width="2"  />
			<g>
				<title>NTP_transf_3 (PF12804)
"MobA-like NTP transferase domain"</title>
				<polygon class="PF12804" points="157,28 168,28 177,40 177,40 168,52 157,52" stroke-linejoin="round" width="20" height="24" fill="rgb(52,209,196)" stroke="rgb(41,167,156)" stroke-width="1" opacity="0.75" />
			</g>
		</g>
		<g>
			<title> (ctg48_111)</title>
			<polygon class=" (ctg48_111)" points="181,40 188,10 188,70" fill="rgb(255,255,255)" fill-opacity="1.0" stroke="rgb(0,0,0)" stroke-width="2"  />
		</g>
		<g>
			<title> (ctg48_112)</title>
			<polygon class=" (ctg48_112)" points="232,25 217,25 217,10 187,40 217,70 217,55 232,55" fill="rgb(255,255,255)" fill-opacity="1.0" stroke="rgb(0,0,0)" stroke-width="2"  />
			<g>
				<title>Arylsulfotran_2 (PF14269)
"Arylsulfotransferase (ASST)"</title>
				<polygon class="PF14269" points="191,40 203,28 218,28 218,52 203,52 191,40" stroke-linejoin="round" width="27" height="24" fill="rgb(81,204,122)" stroke="rgb(64,163,97)" stroke-width="1" opacity="0.75" />
			</g>
		</g>
		<g>
			<title> (ctg48_113)</title>
			<polygon class=" (ctg48_113)" points="233,40 244,10 244,70" fill="rgb(255,255,255)" fill-opacity="1.0" stroke="rgb(0,0,0)" stroke-width="2"  />
		</g>
		<g>
			<title> (ctg48_114)</title>
			<polygon class=" (ctg48_114)" points="285,25 283,25 283,10 253,40 283,70 283,55 285,55" fill="rgb(255,255,255)" fill-opacity="1.0" stroke="rgb(0,0,0)" stroke-width="2"  />
			<g>
				<title>HSDR_N_2 (PF13588)
"Type I restriction enzyme R protein N terminus (HSDR_N)"</title>
				<rect class="PF13588" x="272" y="28" stroke-linejoin="round" width="10" height="24" fill="rgb(59,182,76)" stroke="rgb(47,145,60)" stroke-width="1" opacity="0.75" />
			</g>
		</g>
		<g>
			<title> (ctg48_115)</title>
			<polygon class=" (ctg48_115)" points="288,25 293,25 293,10 323,40 293,70 293,55 288,55" fill="rgb(255,255,255)" fill-opacity="1.0" stroke="rgb(0,0,0)" stroke-width="2"  />
			<g>
				<title>Sulfotransfer_3 (PF13469)
"Sulfotransferase family"</title>
				<polygon class="PF13469" points="291,28 307,28 310,31 310,49 307,52 291,52" stroke-linejoin="round" width="19" height="24" fill="rgb(59,182,84)" stroke="rgb(47,145,67)" stroke-width="1" opacity="0.75" />
			</g>
		</g>
		<g>
			<title> (ctg48_116)</title>
			<polygon class=" (ctg48_116)" points="325,10 352,40 325,70" fill="rgb(255,255,255)" fill-opacity="1.0" stroke="rgb(0,0,0)" stroke-width="2"  />
			<g>
				<title>adh_short_C2 (PF13561)
"Enoyl-(Acyl carrier protein) reductase"</title>
				<polygon class="PF13561" points="326,28 337,28 348,40 337,52 326,52" stroke-linejoin="round" width="24" height="24" fill="rgb(73,205,127)" stroke="rgb(58,164,101)" stroke-width="1" opacity="0.75" />
			</g>
		</g>
		<g>
			<title> (ctg48_117)</title>
			<polygon class=" (ctg48_117)" points="353,25 388,25 388,10 418,40 388,70 388,55 353,55" fill="rgb(255,255,255)" fill-opacity="1.0" stroke="rgb(0,0,0)" stroke-width="2"  />
			<g>
				<title>Glyco_hydro_20b (PF02838)
"Glycosyl hydrolase family 20, domain 2"</title>
				<rect class="PF02838" x="354" y="28" stroke-linejoin="round" width="13" height="24" fill="rgb(221,191,77)" stroke="rgb(176,152,61)" stroke-width="1" opacity="0.75" />
			</g>
		</g>
		<g>
			<title> (ctg48_118)</title>
			<polygon class=" (ctg48_118)" points="419,10 434,40 419,70" fill="rgb(255,255,255)" fill-opacity="1.0" stroke="rgb(0,0,0)" stroke-width="2"  />
			<g>
				<title>AhpC-TSA (PF00578)
"AhpC/TSA family"</title>
				<polygon class="PF00578" points="419,28 424,28 430,40 424,52 419,52" stroke-linejoin="round" width="12" height="24" fill="rgb(166,71,190)" stroke="rgb(132,56,152)" stroke-width="1" opacity="0.75" />
			</g>
		</g>
		<g>
			<title> (ctg48_119)</title>
			<polygon class=" (ctg48_119)" points="439,40 452,10 452,70" fill="rgb(255,255,255)" fill-opacity="1.0" stroke="rgb(0,0,0)" stroke-width="2"  />
			<g>
				<title>DUF1330 (PF07045)
"Domain of unknown function (DUF1330)"</title>
				<polygon class="PF07045" points="442,40 447,28 448,28 448,52 447,52" stroke-linejoin="round" width="9" height="24" fill="rgb(195,84,105)" stroke="rgb(156,67,84)" stroke-width="1" opacity="0.75" />
			</g>
		</g>
		<g>
			<title> (ctg48_120)</title>
			<polygon class=" (ctg48_120)" points="533,25 489,25 489,10 459,40 489,70 489,55 533,55" fill="rgb(255,255,255)" fill-opacity="1.0" stroke="rgb(0,0,0)" stroke-width="2"  />
			<g>
				<title>CBM9_1 (PF06452)
"Carbohydrate family 9 binding domain-like"</title>
				<rect class="PF06452" x="513" y="28" stroke-linejoin="round" width="15" height="24" fill="rgb(73,155,206)" stroke="rgb(58,123,164)" stroke-width="1" opacity="0.75" />
			</g>
		</g>
		<g>
			<title> (ctg48_121)</title>
			<polygon class=" (ctg48_121)" points="539,25 563,25 563,10 593,40 563,70 563,55 539,55" fill="rgb(255,255,255)" fill-opacity="1.0" stroke="rgb(0,0,0)" stroke-width="2"  />
		</g>
		<g>
			<title> (ctg48_122)</title>
			<polygon class=" (ctg48_122)" points="599,40 610,10 610,70" fill="rgb(255,255,255)" fill-opacity="1.0" stroke="rgb(0,0,0)" stroke-width="2"  />
		</g>
		<g>
			<title> (ctg48_123)</title>
			<polygon class=" (ctg48_123)" points="612,40 620,10 620,70" fill="rgb(255,255,255)" fill-opacity="1.0" stroke="rgb(0,0,0)" stroke-width="2"  />
			<g>
				<title>UPF0175 (PF03683)
"Uncharacterised protein family (UPF0175)"</title>
				<polygon class="PF03683" points="615,40 618,28 618,28 618,52 618,52" stroke-linejoin="round" width="6" height="24" fill="rgb(219,93,167)" stroke="rgb(175,74,133)" stroke-width="1" opacity="0.75" />
			</g>
		</g>
		<g>
			<title> (ctg48_124)</title>
			<polygon class=" (ctg48_124)" points="666,25 655,25 655,10 625,40 655,70 655,55 666,55" fill="rgb(255,255,255)" fill-opacity="1.0" stroke="rgb(0,0,0)" stroke-width="2"  />
			<g>
				<title>Peripla_BP_6 (PF13458)
"Periplasmic binding protein"</title>
				<polygon class="PF13458" points="629,40 641,28 662,28 662,52 641,52" stroke-linejoin="round" width="35" height="24" fill="rgb(94,183,81)" stroke="rgb(75,146,64)" stroke-width="1" opacity="0.75" />
			</g>
		</g>
		<g>
			<title> (ctg48_125)</title>
			<polygon class=" (ctg48_125)" points="676,25 775,25 775,10 805,40 775,70 775,55 676,55" fill="rgb(255,255,255)" fill-opacity="1.0" stroke="rgb(0,0,0)" stroke-width="2"  />
			<g>
				<title>ketoacyl-synt (PF00109)
"Beta-ketoacyl synthase, N-terminal domain"</title>
				<rect class="PF00109" x="676" y="28" stroke-linejoin="round" width="24" height="24" fill="rgb(112,116,228)" stroke="rgb(89,92,182)" stroke-width="1" opacity="0.75" />
			</g>
			<g>
				<title>Ketoacyl-synt_C (PF02801)
"Beta-ketoacyl synthase, C-terminal domain"</title>
				<rect class="PF02801" x="701" y="28" stroke-linejoin="round" width="11" height="24" fill="rgb(215,78,102)" stroke="rgb(172,62,81)" stroke-width="1" opacity="0.75" />
			</g>
			<g>
				<title>KAsynt_C_assoc (PF16197)
"Ketoacyl-synthetase C-terminal extension"</title>
				<rect class="PF16197" x="713" y="28" stroke-linejoin="round" width="13" height="24" fill="rgb(240,150,172)" stroke="rgb(192,120,137)" stroke-width="1" opacity="0.75" />
			</g>
			<g>
				<title>Acyl_transf_1 (PF00698)
"Acyl transferase domain"</title>
				<rect class="PF00698" x="731" y="28" stroke-linejoin="round" width="31" height="24" fill="rgb(59,176,209)" stroke="rgb(47,140,167)" stroke-width="1" opacity="0.75" />
			</g>
			<g>
				<title>PS-DH (PF14765)
"Polyketide synthase dehydratase"</title>
				<polygon class="PF14765" points="769,28 788,28 798,38 798,42 788,52 769,52" stroke-linejoin="round" width="29" height="24" fill="rgb(173,56,182)" stroke="rgb(138,44,145)" stroke-width="1" opacity="0.75" />
			</g>
		</g>
		<g>
			<title> (ctg48_126)</title>
			<polygon class=" (ctg48_126)" points="806,25 983,25 983,10 1013,40 983,70 983,55 806,55" fill="rgb(255,255,255)" fill-opacity="1.0" stroke="rgb(0,0,0)" stroke-width="2"  />
			<g>
				<title>Methyltransf_12 (PF08242)
"Methyltransferase domain"</title>
				<rect class="PF08242" x="821" y="28" stroke-linejoin="round" width="10" height="24" fill="rgb(187,59,115)" stroke="rgb(149,47,92)" stroke-width="1" opacity="0.75" />
			</g>
			<g>
				<title>ADH_zinc_N_2 (PF13602)
"Zinc-binding dehydrogenase"</title>
				<rect class="PF13602" x="879" y="28" stroke-linejoin="round" width="13" height="24" fill="rgb(101,131,226)" stroke="rgb(80,104,180)" stroke-width="1" opacity="0.75" />
			</g>
			<g>
				<title>KR (PF08659)
"KR domain"</title>
				<rect class="PF08659" x="894" y="28" stroke-linejoin="round" width="17" height="24" fill="rgb(66,209,188)" stroke="rgb(52,167,150)" stroke-width="1" opacity="0.75" />
			</g>
			<g>
				<title>PP-binding (PF00550)
"Phosphopantetheine attachment site"</title>
				<rect class="PF00550" x="922" y="28" stroke-linejoin="round" width="6" height="24" fill="rgb(103,191,88)" stroke="rgb(82,152,70)" stroke-width="1" opacity="0.75" />
			</g>
			<g>
				<title>ketoacyl-synt (PF00109)
"Beta-ketoacyl synthase, N-terminal domain"</title>
				<rect class="PF00109" x="932" y="28" stroke-linejoin="round" width="24" height="24" fill="rgb(112,116,228)" stroke="rgb(89,92,182)" stroke-width="1" opacity="0.75" />
			</g>
			<g>
				<title>Ketoacyl-synt_C (PF02801)
"Beta-ketoacyl synthase, C-terminal domain"</title>
				<rect class="PF02801" x="957" y="28" stroke-linejoin="round" width="11" height="24" fill="rgb(215,78,102)" stroke="rgb(172,62,81)" stroke-width="1" opacity="0.75" />
			</g>
			<g>
				<title>KAsynt_C_assoc (PF16197)
"Ketoacyl-synthetase C-terminal extension"</title>
				<rect class="PF16197" x="969" y="28" stroke-linejoin="round" width="14" height="24" fill="rgb(240,150,172)" stroke="rgb(192,120,137)" stroke-width="1" opacity="0.75" />
			</g>
			<g>
				<title>Acyl_transf_1 (PF00698)
"Acyl transferase domain"</title>
				<polygon class="PF00698" points="987,28 997,28 998,29 998,51 997,52 987,52" stroke-linejoin="round" width="11" height="24" fill="rgb(59,176,209)" stroke="rgb(47,140,167)" stroke-width="1" opacity="0.75" />
			</g>
		</g>
		<g>
			<title> (ctg48_127)</title>
			<polygon class=" (ctg48_127)" points="1017,10 1025,40 1017,70" fill="rgb(255,255,255)" fill-opacity="1.0" stroke="rgb(0,0,0)" stroke-width="2"  />
			<g>
				<title>PP-binding (PF00550)
"Phosphopantetheine attachment site"</title>
				<polygon class="PF00550" points="1017,28 1018,28 1021,40 1018,52 1017,52" stroke-linejoin="round" width="7" height="24" fill="rgb(103,191,88)" stroke="rgb(82,152,70)" stroke-width="1" opacity="0.75" />
			</g>
		</g>
		<g>
			<title> (ctg48_128)</title>
			<polygon class=" (ctg48_128)" points="1028,10 1052,40 1028,70" fill="rgb(255,255,255)" fill-opacity="1.0" stroke="rgb(0,0,0)" stroke-width="2"  />
			<g>
				<title>ACPS (PF01648)
"4'-phosphopantetheinyl transferase superfamily"</title>
				<polygon class="PF01648" points="1041,31 1048,40 1041,49" stroke-linejoin="round" width="10" height="24" fill="rgb(85,184,135)" stroke="rgb(68,147,108)" stroke-width="1" opacity="0.75" />
			</g>
		</g>
		<g>
			<title> (ctg48_129)</title>
			<polygon class=" (ctg48_129)" points="1055,10 1083,40 1055,70" fill="rgb(255,255,255)" fill-opacity="1.0" stroke="rgb(0,0,0)" stroke-width="2"  />
			<g>
				<title>Abhydrolase_6 (PF12697)
"Alpha/beta hydrolase family"</title>
				<polygon class="PF12697" points="1057,28 1067,28 1078,40 1067,52 1057,52" stroke-linejoin="round" width="25" height="24" fill="rgb(113,71,219)" stroke="rgb(90,56,175)" stroke-width="1" opacity="0.75" />
			</g>
		</g>
		<g>
			<title> (ctg48_130)</title>
			<polygon class=" (ctg48_130)" points="1158,25 1131,25 1131,10 1101,40 1131,70 1131,55 1158,55" fill="rgb(255,255,255)" fill-opacity="1.0" stroke="rgb(0,0,0)" stroke-width="2"  />
			<g>
				<title>Xan_ur_permease (PF00860)
"Permease family"</title>
				<rect class="PF00860" x="1118" y="28" stroke-linejoin="round" width="38" height="24" fill="rgb(216,88,217)" stroke="rgb(172,70,173)" stroke-width="1" opacity="0.75" />
			</g>
		</g>
		<g>
			<title> (ctg48_131)</title>
			<polygon class=" (ctg48_131)" points="1202,25 1190,25 1190,10 1160,40 1190,70 1190,55 1202,55" fill="rgb(255,255,255)" fill-opacity="1.0" stroke="rgb(0,0,0)" stroke-width="2"  />
			<g>
				<title>Peripla_BP_6 (PF13458)
"Periplasmic binding protein"</title>
				<polygon class="PF13458" points="1164,40 1176,28 1197,28 1197,52 1176,52" stroke-linejoin="round" width="35" height="24" fill="rgb(94,183,81)" stroke="rgb(75,146,64)" stroke-width="1" opacity="0.75" />
			</g>
		</g>
		<g>
			<title> (ctg48_132)</title>
			<polygon class=" (ctg48_132)" points="1248,25 1234,25 1234,10 1204,40 1234,70 1234,55 1248,55" fill="rgb(255,255,255)" fill-opacity="1.0" stroke="rgb(0,0,0)" stroke-width="2"  />
			<g>
				<title>Sulfatase (PF00884)
"Sulfatase"</title>
				<polygon class="PF00884" points="1220,28 1220,28 1247,28 1247,52 1220,52 1220,52" stroke-linejoin="round" width="27" height="24" fill="rgb(61,103,198)" stroke="rgb(48,82,158)" stroke-width="1" opacity="0.75" />
			</g>
		</g>
		<g>
			<title> (ctg48_133)</title>
			<polygon class=" (ctg48_133)" points="1299,25 1283,25 1283,10 1253,40 1283,70 1283,55 1299,55" fill="rgb(255,255,255)" fill-opacity="1.0" stroke="rgb(0,0,0)" stroke-width="2"  />
			<g>
				<title>AhpC-TSA (PF00578)
"AhpC/TSA family"</title>
				<polygon class="PF00578" points="1257,40 1267,30 1267,50" stroke-linejoin="round" width="11" height="24" fill="rgb(166,71,190)" stroke="rgb(132,56,152)" stroke-width="1" opacity="0.75" />
			</g>
		</g>
		<g>
			<title> (ctg48_134)</title>
			<polygon class=" (ctg48_134)" points="1350,25 1333,25 1333,10 1303,40 1333,70 1333,55 1350,55" fill="rgb(255,255,255)" fill-opacity="1.0" stroke="rgb(0,0,0)" stroke-width="2"  />
			<g>
				<title>AhpC-TSA (PF00578)
"AhpC/TSA family"</title>
				<polygon class="PF00578" points="1307,40 1317,30 1317,50" stroke-linejoin="round" width="11" height="24" fill="rgb(166,71,190)" stroke="rgb(132,56,152)" stroke-width="1" opacity="0.75" />
			</g>
		</g>
		<g>
			<title> (ctg48_135)</title>
			<polygon class=" (ctg48_135)" points="1397,25 1387,25 1387,10 1357,40 1387,70 1387,55 1397,55" fill="rgb(255,255,255)" fill-opacity="1.0" stroke="rgb(0,0,0)" stroke-width="2"  />
		</g>
		<g>
			<title> (ctg48_136)</title>
			<polygon class=" (ctg48_136)" points="1440,25 1429,25 1429,10 1399,40 1429,70 1429,55 1440,55" fill="rgb(255,255,255)" fill-opacity="1.0" stroke="rgb(0,0,0)" stroke-width="2"  />
		</g>
		<g>
			<title> (ctg48_137)</title>
			<polygon class=" (ctg48_137)" points="1456,10 1480,40 1456,70" fill="rgb(255,255,255)" fill-opacity="1.0" stroke="rgb(0,0,0)" stroke-width="2"  />
			<g>
				<title>Creatininase (PF02633)
"Creatinine amidohydrolase"</title>
				<polygon class="PF02633" points="1457,28 1467,28 1476,40 1467,52 1457,52" stroke-linejoin="round" width="21" height="24" fill="rgb(216,60,128)" stroke="rgb(172,47,102)" stroke-width="1" opacity="0.75" />
			</g>
		</g>
		<g>
			<title> (ctg48_138)</title>
			<polygon class=" (ctg48_138)" points="1481,40 1500,10 1500,70" fill="rgb(255,255,255)" fill-opacity="1.0" stroke="rgb(0,0,0)" stroke-width="2"  />
		</g>
		<g>
			<title> (ctg48_139)</title>
			<polygon class=" (ctg48_139)" points="1549,25 1532,25 1532,10 1502,40 1532,70 1532,55 1549,55" fill="rgb(255,255,255)" fill-opacity="1.0" stroke="rgb(0,0,0)" stroke-width="2"  />
			<g>
				<title>Rotamase (PF00639)
"PPIC-type PPIASE domain"</title>
				<rect class="PF00639" x="1526" y="28" stroke-linejoin="round" width="10" height="24" fill="rgb(179,171,54)" stroke="rgb(143,136,43)" stroke-width="1" opacity="0.75" />
			</g>
		</g>
		<g>
			<title> (ctg48_140)</title>
			<polygon class=" (ctg48_140)" points="1560,25 1560,25 1560,10 1590,40 1560,70 1560,55 1560,55" fill="rgb(255,255,255)" fill-opacity="1.0" stroke="rgb(0,0,0)" stroke-width="2"  />
		</g>
		<g>
			<title> (ctg48_141)</title>
			<polygon class=" (ctg48_141)" points="1594,10 1607,40 1594,70" fill="rgb(255,255,255)" fill-opacity="1.0" stroke="rgb(0,0,0)" stroke-width="2"  />
		</g>
		<g>
			<title> (ctg48_142)</title>
			<polygon class=" (ctg48_142)" points="1609,10 1621,40 1609,70" fill="rgb(255,255,255)" fill-opacity="1.0" stroke="rgb(0,0,0)" stroke-width="2"  />
		</g>
	</g>
</svg>
