<svg version="1.1" baseProfile="full" xmlns="http://www.w3.org/2000/svg" width="847.3333333333334" height="80">
	<g>
		<line x1="10" y1="40.0" x2="837.3333333333334" y2="40.0" style="stroke:rgb(70,70,70); stroke-width:3 "/>
		<g>
			<title> (ctg381_1)</title>
			<polygon class=" (ctg381_1)" points="170,25 40,25 40,10 10,40 40,70 40,55 170,55" fill="rgb(255,255,255)" fill-opacity="1.0" stroke="rgb(0,0,0)" stroke-width="2"  />
			<g>
				<title>Methyltransf_12 (PF08242)
"Methyltransferase domain"</title>
				<polygon class="PF08242" points="14,40 21,33 21,47" stroke-linejoin="round" width="10" height="24" fill="rgb(187,59,115)" stroke="rgb(149,47,92)" stroke-width="1" opacity="0.75" />
			</g>
			<g>
				<title>PS-DH (PF14765)
"Polyketide synthase dehydratase"</title>
				<rect class="PF14765" x="44" y="28" stroke-linejoin="round" width="30" height="24" fill="rgb(173,56,182)" stroke="rgb(138,44,145)" stroke-width="1" opacity="0.75" />
			</g>
			<g>
				<title>Acyl_transf_1 (PF00698)
"Acyl transferase domain"</title>
				<rect class="PF00698" x="81" y="28" stroke-linejoin="round" width="31" height="24" fill="rgb(59,176,209)" stroke="rgb(47,140,167)" stroke-width="1" opacity="0.75" />
			</g>
			<g>
				<title>KAsynt_C_assoc (PF16197)
"Ketoacyl-synthetase C-terminal extension"</title>
				<rect class="PF16197" x="115" y="28" stroke-linejoin="round" width="15" height="24" fill="rgb(240,150,172)" stroke="rgb(192,120,137)" stroke-width="1" opacity="0.75" />
			</g>
			<g>
				<title>Ketoacyl-synt_C (PF02801)
"Beta-ketoacyl synthase, C-terminal domain"</title>
				<rect class="PF02801" x="131" y="28" stroke-linejoin="round" width="11" height="24" fill="rgb(215,78,102)" stroke="rgb(172,62,81)" stroke-width="1" opacity="0.75" />
			</g>
			<g>
				<title>ketoacyl-synt (PF00109)
"Beta-ketoacyl synthase, N-terminal domain"</title>
				<rect class="PF00109" x="143" y="28" stroke-linejoin="round" width="25" height="24" fill="rgb(112,116,228)" stroke="rgb(89,92,182)" stroke-width="1" opacity="0.75" />
			</g>
		</g>
		<g>
			<title> (ctg381_2)</title>
			<polygon class=" (ctg381_2)" points="177,25 179,25 179,10 209,40 179,70 179,55 177,55" fill="rgb(255,255,255)" fill-opacity="1.0" stroke="rgb(0,0,0)" stroke-width="2"  />
			<g>
				<title>Abhydrolase_6 (PF12697)
"Alpha/beta hydrolase family"</title>
				<polygon class="PF12697" points="182,28 193,28 205,40 193,52 182,52" stroke-linejoin="round" width="26" height="24" fill="rgb(113,71,219)" stroke="rgb(90,56,175)" stroke-width="1" opacity="0.75" />
			</g>
		</g>
		<g>
			<title> (ctg381_3)</title>
			<polygon class=" (ctg381_3)" points="210,25 224,25 224,10 254,40 224,70 224,55 210,55" fill="rgb(255,255,255)" fill-opacity="1.0" stroke="rgb(0,0,0)" stroke-width="2"  />
			<g>
				<title>Xan_ur_permease (PF00860)
"Permease family"</title>
				<polygon class="PF00860" points="212,28 237,28 249,40 237,52 212,52" stroke-linejoin="round" width="38" height="24" fill="rgb(216,88,217)" stroke="rgb(172,70,173)" stroke-width="1" opacity="0.75" />
			</g>
		</g>
		<g>
			<title> (ctg381_4)</title>
			<polygon class=" (ctg381_4)" points="365,25 289,25 289,10 259,40 289,70 289,55 365,55" fill="rgb(255,255,255)" fill-opacity="1.0" stroke="rgb(0,0,0)" stroke-width="2"  />
			<g>
				<title>ACR_tran (PF00873)
"AcrB/AcrD/AcrF family"</title>
				<polygon class="PF00873" points="263,40 275,28 364,28 364,52 275,52" stroke-linejoin="round" width="103" height="24" fill="rgb(63,191,60)" stroke="rgb(50,152,48)" stroke-width="1" opacity="0.75" />
			</g>
		</g>
		<g>
			<title> (ctg381_5)</title>
			<polygon class=" (ctg381_5)" points="366,40 384,10 384,70" fill="rgb(255,255,255)" fill-opacity="1.0" stroke="rgb(0,0,0)" stroke-width="2"  />
			<g>
				<title>Nitroreductase (PF00881)
"Nitroreductase family"</title>
				<polygon class="PF00881" points="370,40 377,28 383,28 383,52 377,52" stroke-linejoin="round" width="15" height="24" fill="rgb(79,118,187)" stroke="rgb(63,94,149)" stroke-width="1" opacity="0.75" />
			</g>
		</g>
		<g>
			<title> (ctg381_6)</title>
			<polygon class=" (ctg381_6)" points="427,25 419,25 419,10 389,40 419,70 419,55 427,55" fill="rgb(255,255,255)" fill-opacity="1.0" stroke="rgb(0,0,0)" stroke-width="2"  />
			<g>
				<title>HemN_C (PF06969)
"HemN C-terminal domain"</title>
				<polygon class="PF06969" points="393,40 396,37 396,43" stroke-linejoin="round" width="6" height="24" fill="rgb(84,206,223)" stroke="rgb(67,164,178)" stroke-width="1" opacity="0.75" />
			</g>
			<g>
				<title>Radical_SAM (PF04055)
"Radical SAM superfamily"</title>
				<rect class="PF04055" x="408" y="28" stroke-linejoin="round" width="17" height="24" fill="rgb(149,56,222)" stroke="rgb(119,44,177)" stroke-width="1" opacity="0.75" />
			</g>
		</g>
		<g>
			<title> (ctg381_7)</title>
			<polygon class=" (ctg381_7)" points="429,40 432,10 432,70" fill="rgb(255,255,255)" fill-opacity="1.0" stroke="rgb(0,0,0)" stroke-width="2"  />
		</g>
		<g>
			<title> (ctg381_8)</title>
			<polygon class=" (ctg381_8)" points="538,25 462,25 462,10 432,40 462,70 462,55 538,55" fill="rgb(255,255,255)" fill-opacity="1.0" stroke="rgb(0,0,0)" stroke-width="2"  />
			<g>
				<title>ACR_tran (PF00873)
"AcrB/AcrD/AcrF family"</title>
				<polygon class="PF00873" points="436,40 448,28 538,28 538,52 448,52" stroke-linejoin="round" width="104" height="24" fill="rgb(63,191,60)" stroke="rgb(50,152,48)" stroke-width="1" opacity="0.75" />
			</g>
		</g>
		<g>
			<title> (ctg381_9)</title>
			<polygon class=" (ctg381_9)" points="578,25 570,25 570,10 540,40 570,70 570,55 578,55" fill="rgb(255,255,255)" fill-opacity="1.0" stroke="rgb(0,0,0)" stroke-width="2"  />
			<g>
				<title>HlyD_D23 (PF16576)
"Barrel-sandwich domain of CusB or HlyD membrane-fusion"</title>
				<polygon class="PF16576" points="549,35 556,28 572,28 572,52 556,52 549,45" stroke-linejoin="round" width="23" height="24" fill="rgb(70,190,92)" stroke="rgb(56,152,73)" stroke-width="1" opacity="0.75" />
			</g>
		</g>
		<g>
			<title> (ctg381_10)</title>
			<polygon class=" (ctg381_10)" points="579,40 600,10 600,70" fill="rgb(255,255,255)" fill-opacity="1.0" stroke="rgb(0,0,0)" stroke-width="2"  />
			<g>
				<title>Ham1p_like (PF01725)
"Ham1 family"</title>
				<polygon class="PF01725" points="583,40 591,28 598,28 598,52 591,52" stroke-linejoin="round" width="18" height="24" fill="rgb(76,199,61)" stroke="rgb(60,159,48)" stroke-width="1" opacity="0.75" />
			</g>
		</g>
		<g>
			<title> (ctg381_11)</title>
			<polygon class=" (ctg381_11)" points="602,40 625,10 625,70" fill="rgb(255,255,255)" fill-opacity="1.0" stroke="rgb(0,0,0)" stroke-width="2"  />
			<g>
				<title>RNase_PH_C (PF03725)
"3' exoribonuclease family, domain 2"</title>
				<polygon class="PF03725" points="606,40 609,36 609,44" stroke-linejoin="round" width="6" height="24" fill="rgb(81,207,213)" stroke="rgb(64,165,170)" stroke-width="1" opacity="0.75" />
			</g>
			<g>
				<title>RNase_PH (PF01138)
"3' exoribonuclease family, domain 1"</title>
				<polygon class="PF01138" points="611,34 616,28 624,28 624,52 616,52 611,46" stroke-linejoin="round" width="13" height="24" fill="rgb(201,109,229)" stroke="rgb(160,87,183)" stroke-width="1" opacity="0.75" />
			</g>
		</g>
		<g>
			<title> (ctg381_12)</title>
			<polygon class=" (ctg381_12)" points="636,10 652,40 636,70" fill="rgb(255,255,255)" fill-opacity="1.0" stroke="rgb(0,0,0)" stroke-width="2"  />
		</g>
		<g>
			<title> (ctg381_13)</title>
			<polygon class=" (ctg381_13)" points="656,10 684,40 656,70" fill="rgb(255,255,255)" fill-opacity="1.0" stroke="rgb(0,0,0)" stroke-width="2"  />
			<g>
				<title>YicC_N (PF03755)
"YicC-like family, N-terminal region"</title>
				<polygon class="PF03755" points="656,28 668,28 671,31 671,49 668,52 656,52" stroke-linejoin="round" width="15" height="24" fill="rgb(201,75,55)" stroke="rgb(160,60,44)" stroke-width="1" opacity="0.75" />
			</g>
			<g>
				<title>DUF1732 (PF08340)
"Domain of unknown function (DUF1732)"</title>
				<polygon class="PF08340" points="676,36 680,40 676,44" stroke-linejoin="round" width="8" height="24" fill="rgb(57,55,211)" stroke="rgb(45,44,168)" stroke-width="1" opacity="0.75" />
			</g>
		</g>
		<g>
			<title> (ctg381_14)</title>
			<polygon class=" (ctg381_14)" points="688,25 732,25 732,10 762,40 732,70 732,55 688,55" fill="rgb(255,255,255)" fill-opacity="1.0" stroke="rgb(0,0,0)" stroke-width="2"  />
			<g>
				<title>DPPIV_N (PF00930)
"Dipeptidyl peptidase IV (DPP IV) N-terminal region"</title>
				<rect class="PF00930" x="699" y="28" stroke-linejoin="round" width="34" height="24" fill="rgb(212,154,99)" stroke="rgb(169,123,79)" stroke-width="1" opacity="0.75" />
			</g>
			<g>
				<title>Peptidase_S9 (PF00326)
"Prolyl oligopeptidase family"</title>
				<polygon class="PF00326" points="742,28 746,28 758,40 746,52 742,52" stroke-linejoin="round" width="19" height="24" fill="rgb(77,97,209)" stroke="rgb(61,77,167)" stroke-width="1" opacity="0.75" />
			</g>
		</g>
		<g>
			<title> (ctg381_15)</title>
			<polygon class=" (ctg381_15)" points="789,40 804,10 804,70" fill="rgb(255,255,255)" fill-opacity="1.0" stroke="rgb(0,0,0)" stroke-width="2"  />
		</g>
		<g>
			<title> (ctg381_16)</title>
			<polygon class=" (ctg381_16)" points="822,40 831,10 831,70" fill="rgb(255,255,255)" fill-opacity="1.0" stroke="rgb(0,0,0)" stroke-width="2"  />
			<g>
				<title>HTH_3 (PF01381)
"Helix-turn-helix"</title>
				<polygon class="PF01381" points="825,40 826,37 826,43" stroke-linejoin="round" width="4" height="24" fill="rgb(105,79,202)" stroke="rgb(83,63,161)" stroke-width="1" opacity="0.75" />
			</g>
		</g>
	</g>
</svg>
