<svg version="1.1" baseProfile="full" xmlns="http://www.w3.org/2000/svg" width="2003.7333333333333" height="80">
	<g>
		<line x1="10" y1="40.0" x2="1993.7333333333333" y2="40.0" style="stroke:rgb(70,70,70); stroke-width:3 "/>
		<g>
			<title> (ctg22_229)</title>
			<polygon class=" (ctg22_229)" points="70,25 63,25 63,10 33,40 63,70 63,55 70,55" fill="rgb(255,255,255)" fill-opacity="1.0" stroke="rgb(0,0,0)" stroke-width="2"  />
			<g>
				<title>Amidohydro_2 (PF04909)
"Amidohydrolase"</title>
				<polygon class="PF04909" points="37,40 49,28 69,28 69,52 49,52" stroke-linejoin="round" width="36" height="24" fill="rgb(95,225,123)" stroke="rgb(76,180,98)" stroke-width="1" opacity="0.75" />
			</g>
		</g>
		<g>
			<title> (ctg22_230)</title>
			<polygon class=" (ctg22_230)" points="81,40 93,10 93,70" fill="rgb(255,255,255)" fill-opacity="1.0" stroke="rgb(0,0,0)" stroke-width="2"  />
		</g>
		<g>
			<title> (ctg22_231)</title>
			<polygon class=" (ctg22_231)" points="93,40 109,10 109,70" fill="rgb(255,255,255)" fill-opacity="1.0" stroke="rgb(0,0,0)" stroke-width="2"  />
			<g>
				<title>tRNA_anti-like (PF12869)
"tRNA_anti-like"</title>
				<polygon class="PF12869" points="96,40 103,28 108,28 108,52 103,52 96,40" stroke-linejoin="round" width="12" height="24" fill="rgb(114,91,218)" stroke="rgb(91,72,174)" stroke-width="1" opacity="0.75" />
			</g>
		</g>
		<g>
			<title> (ctg22_232)</title>
			<polygon class=" (ctg22_232)" points="113,40 135,10 135,70" fill="rgb(255,255,255)" fill-opacity="1.0" stroke="rgb(0,0,0)" stroke-width="2"  />
			<g>
				<title>SCO1-SenC (PF02630)
"SCO1/SenC"</title>
				<polygon class="PF02630" points="117,40 126,28 129,28 129,52 126,52" stroke-linejoin="round" width="13" height="24" fill="rgb(86,217,172)" stroke="rgb(68,173,137)" stroke-width="1" opacity="0.75" />
			</g>
		</g>
		<g>
			<title> (ctg22_233)</title>
			<polygon class=" (ctg22_233)" points="136,40 147,10 147,70" fill="rgb(255,255,255)" fill-opacity="1.0" stroke="rgb(0,0,0)" stroke-width="2"  />
			<g>
				<title>COX4_pro (PF03626)
"Prokaryotic Cytochrome C oxidase subunit IV"</title>
				<polygon class="PF03626" points="139,40 144,28 145,28 145,52 144,52" stroke-linejoin="round" width="7" height="24" fill="rgb(225,80,63)" stroke="rgb(180,64,50)" stroke-width="1" opacity="0.75" />
			</g>
		</g>
		<g>
			<title> (ctg22_234)</title>
			<polygon class=" (ctg22_234)" points="148,40 168,10 168,70" fill="rgb(255,255,255)" fill-opacity="1.0" stroke="rgb(0,0,0)" stroke-width="2"  />
			<g>
				<title>COX3 (PF00510)
"Cytochrome c oxidase subunit III"</title>
				<polygon class="PF00510" points="152,40 160,28 166,28 166,52 160,52" stroke-linejoin="round" width="18" height="24" fill="rgb(104,211,69)" stroke="rgb(83,168,55)" stroke-width="1" opacity="0.75" />
			</g>
		</g>
		<g>
			<title> (ctg22_235)</title>
			<polygon class=" (ctg22_235)" points="169,40 176,10 176,70" fill="rgb(255,255,255)" fill-opacity="1.0" stroke="rgb(0,0,0)" stroke-width="2"  />
		</g>
		<g>
			<title> (ctg22_236)</title>
			<polygon class=" (ctg22_236)" points="180,40 202,10 202,70" fill="rgb(255,255,255)" fill-opacity="1.0" stroke="rgb(0,0,0)" stroke-width="2"  />
			<g>
				<title>COX3 (PF00510)
"Cytochrome c oxidase subunit III"</title>
				<polygon class="PF00510" points="184,40 193,28 198,28 198,52 193,52" stroke-linejoin="round" width="18" height="24" fill="rgb(104,211,69)" stroke="rgb(83,168,55)" stroke-width="1" opacity="0.75" />
			</g>
		</g>
		<g>
			<title> (ctg22_237)</title>
			<polygon class=" (ctg22_237)" points="203,40 206,10 206,70" fill="rgb(255,255,255)" fill-opacity="1.0" stroke="rgb(0,0,0)" stroke-width="2"  />
		</g>
		<g>
			<title> (ctg22_238)</title>
			<polygon class=" (ctg22_238)" points="238,25 238,25 238,10 208,40 238,70 238,55 238,55" fill="rgb(255,255,255)" fill-opacity="1.0" stroke="rgb(0,0,0)" stroke-width="2"  />
			<g>
				<title>UbiA (PF01040)
"UbiA prenyltransferase family"</title>
				<polygon class="PF01040" points="212,40 224,28 234,28 234,52 224,52" stroke-linejoin="round" width="25" height="24" fill="rgb(189,57,100)" stroke="rgb(151,45,80)" stroke-width="1" opacity="0.75" />
			</g>
		</g>
		<g>
			<title> (ctg22_239)</title>
			<polygon class=" (ctg22_239)" points="269,25 268,25 268,10 238,40 268,70 268,55 269,55" fill="rgb(255,255,255)" fill-opacity="1.0" stroke="rgb(0,0,0)" stroke-width="2"  />
			<g>
				<title>COX15-CtaA (PF02628)
"Cytochrome oxidase assembly protein"</title>
				<polygon class="PF02628" points="249,33 254,28 267,28 267,52 254,52 249,47" stroke-linejoin="round" width="18" height="24" fill="rgb(128,221,107)" stroke="rgb(102,176,85)" stroke-width="1" opacity="0.75" />
			</g>
		</g>
		<g>
			<title> (ctg22_240)</title>
			<polygon class=" (ctg22_240)" points="334,25 303,25 303,10 273,40 303,70 303,55 334,55" fill="rgb(255,255,255)" fill-opacity="1.0" stroke="rgb(0,0,0)" stroke-width="2"  />
			<g>
				<title>COX1 (PF00115)
"Cytochrome C and Quinol oxidase polypeptide I"</title>
				<polygon class="PF00115" points="281,36 289,28 331,28 331,52 289,52 281,44" stroke-linejoin="round" width="50" height="24" fill="rgb(64,128,197)" stroke="rgb(51,102,157)" stroke-width="1" opacity="0.75" />
			</g>
		</g>
		<g>
			<title> (ctg22_241)</title>
			<polygon class=" (ctg22_241)" points="337,40 364,10 364,70" fill="rgb(255,255,255)" fill-opacity="1.0" stroke="rgb(0,0,0)" stroke-width="2"  />
			<g>
				<title>COX2 (PF00116)
"Cytochrome C oxidase subunit II, periplasmic domain"</title>
				<polygon class="PF00116" points="344,37 352,28 353,28 353,52 352,52 344,43" stroke-linejoin="round" width="9" height="24" fill="rgb(140,56,199)" stroke="rgb(112,44,159)" stroke-width="1" opacity="0.75" />
			</g>
			<g>
				<title>COX2_TM (PF02790)
"Cytochrome C oxidase subunit II, transmembrane domain"</title>
				<rect class="PF02790" x="356" y="28" stroke-linejoin="round" width="8" height="24" fill="rgb(63,179,156)" stroke="rgb(50,143,124)" stroke-width="1" opacity="0.75" />
			</g>
		</g>
		<g>
			<title> (ctg22_242)</title>
			<polygon class=" (ctg22_242)" points="368,10 378,40 368,70" fill="rgb(255,255,255)" fill-opacity="1.0" stroke="rgb(0,0,0)" stroke-width="2"  />
		</g>
		<g>
			<title> (ctg22_243)</title>
			<polygon class=" (ctg22_243)" points="379,10 394,40 379,70" fill="rgb(255,255,255)" fill-opacity="1.0" stroke="rgb(0,0,0)" stroke-width="2"  />
			<g>
				<title>Fer4_7 (PF12838)
"4Fe-4S dicluster domain"</title>
				<polygon class="PF12838" points="387,32 391,40 387,48" stroke-linejoin="round" width="5" height="24" fill="rgb(138,229,96)" stroke="rgb(110,183,76)" stroke-width="1" opacity="0.75" />
			</g>
		</g>
		<g>
			<title> (ctg22_244)</title>
			<polygon class=" (ctg22_244)" points="395,40 424,10 424,70" fill="rgb(255,255,255)" fill-opacity="1.0" stroke="rgb(0,0,0)" stroke-width="2"  />
			<g>
				<title>HisG_C (PF08029)
"HisG, C-terminal domain"</title>
				<polygon class="PF08029" points="399,40 402,37 402,43" stroke-linejoin="round" width="7" height="24" fill="rgb(195,51,173)" stroke="rgb(156,40,138)" stroke-width="1" opacity="0.75" />
			</g>
			<g>
				<title>HisG (PF01634)
"ATP phosphoribosyltransferase"</title>
				<polygon class="PF01634" points="402,37 411,28 418,28 418,52 411,52 402,43" stroke-linejoin="round" width="16" height="24" fill="rgb(212,55,174)" stroke="rgb(169,44,139)" stroke-width="1" opacity="0.75" />
			</g>
		</g>
		<g>
			<title> (ctg22_245)</title>
			<polygon class=" (ctg22_245)" points="435,25 439,25 439,10 469,40 439,70 439,55 435,55" fill="rgb(255,255,255)" fill-opacity="1.0" stroke="rgb(0,0,0)" stroke-width="2"  />
			<g>
				<title>LpxD (PF04613)
"UDP-3-O-[3-hydroxymyristoyl] glucosamine N-acyltransferase, LpxD"</title>
				<rect class="PF04613" x="436" y="28" stroke-linejoin="round" width="6" height="24" fill="rgb(214,100,190)" stroke="rgb(171,79,151)" stroke-width="1" opacity="0.75" />
			</g>
			<g>
				<title>Hexapep (PF00132)
"Bacterial transferase hexapeptide (six repeats)"</title>
				<rect class="PF00132" x="445" y="28" stroke-linejoin="round" width="3" height="24" fill="rgb(89,131,202)" stroke="rgb(71,104,161)" stroke-width="1" opacity="0.75" />
			</g>
			<g>
				<title>Hexapep (PF00132)
"Bacterial transferase hexapeptide (six repeats)"</title>
				<rect class="PF00132" x="449" y="28" stroke-linejoin="round" width="3" height="24" fill="rgb(89,131,202)" stroke="rgb(71,104,161)" stroke-width="1" opacity="0.75" />
			</g>
			<g>
				<title>Hexapep (PF00132)
"Bacterial transferase hexapeptide (six repeats)"</title>
				<polygon class="PF00132" points="456,32 459,35 459,45 456,48" stroke-linejoin="round" width="3" height="24" fill="rgb(89,131,202)" stroke="rgb(71,104,161)" stroke-width="1" opacity="0.75" />
			</g>
		</g>
		<g>
			<title> (ctg22_246)</title>
			<polygon class=" (ctg22_246)" points="470,25 514,25 514,10 544,40 514,70 514,55 470,55" fill="rgb(255,255,255)" fill-opacity="1.0" stroke="rgb(0,0,0)" stroke-width="2"  />
		</g>
		<g>
			<title> (ctg22_247)</title>
			<polygon class=" (ctg22_247)" points="575,25 575,25 575,10 545,40 575,70 575,55 575,55" fill="rgb(255,255,255)" fill-opacity="1.0" stroke="rgb(0,0,0)" stroke-width="2"  />
			<g>
				<title>PAS_4 (PF08448)
"PAS fold"</title>
				<polygon class="PF08448" points="549,40 556,33 556,47" stroke-linejoin="round" width="11" height="24" fill="rgb(50,90,192)" stroke="rgb(40,71,153)" stroke-width="1" opacity="0.75" />
			</g>
			<g>
				<title>PAS_3 (PF08447)
"PAS fold"</title>
				<polygon class="PF08447" points="558,31 561,28 566,28 566,52 561,52 558,49" stroke-linejoin="round" width="8" height="24" fill="rgb(222,97,193)" stroke="rgb(177,77,154)" stroke-width="1" opacity="0.75" />
			</g>
		</g>
		<g>
			<title> (ctg22_248)</title>
			<polygon class=" (ctg22_248)" points="582,40 601,10 601,70" fill="rgb(255,255,255)" fill-opacity="1.0" stroke="rgb(0,0,0)" stroke-width="2"  />
			<g>
				<title>CBS (PF00571)
"CBS domain"</title>
				<polygon class="PF00571" points="586,40 589,35 589,45" stroke-linejoin="round" width="5" height="24" fill="rgb(220,56,105)" stroke="rgb(176,44,84)" stroke-width="1" opacity="0.75" />
			</g>
			<g>
				<title>CBS (PF00571)
"CBS domain"</title>
				<polygon class="PF00571" points="591,32 594,28 597,28 597,52 594,52 591,48" stroke-linejoin="round" width="6" height="24" fill="rgb(220,56,105)" stroke="rgb(176,44,84)" stroke-width="1" opacity="0.75" />
			</g>
		</g>
		<g>
			<title> (ctg22_249)</title>
			<polygon class=" (ctg22_249)" points="644,25 638,25 638,10 608,40 638,70 638,55 644,55" fill="rgb(255,255,255)" fill-opacity="1.0" stroke="rgb(0,0,0)" stroke-width="2"  />
			<g>
				<title>Abhydrolase_1 (PF00561)
"alpha/beta hydrolase fold"</title>
				<polygon class="PF00561" points="612,40 624,28 637,28 637,52 624,52" stroke-linejoin="round" width="27" height="24" fill="rgb(86,180,151)" stroke="rgb(68,144,120)" stroke-width="1" opacity="0.75" />
			</g>
		</g>
		<g>
			<title> (ctg22_250)</title>
			<polygon class=" (ctg22_250)" points="657,40 673,10 673,70" fill="rgb(255,255,255)" fill-opacity="1.0" stroke="rgb(0,0,0)" stroke-width="2"  />
			<g>
				<title>DUF4440 (PF14534)
"Domain of unknown function (DUF4440)"</title>
				<polygon class="PF14534" points="660,40 666,28 669,28 669,52 666,52" stroke-linejoin="round" width="11" height="24" fill="rgb(63,159,224)" stroke="rgb(50,127,179)" stroke-width="1" opacity="0.75" />
			</g>
		</g>
		<g>
			<title> (ctg22_251)</title>
			<polygon class=" (ctg22_251)" points="723,25 706,25 706,10 676,40 706,70 706,55 723,55" fill="rgb(255,255,255)" fill-opacity="1.0" stroke="rgb(0,0,0)" stroke-width="2"  />
			<g>
				<title>DUF1298 (PF06974)
"Protein of unknown function (DUF1298)"</title>
				<polygon class="PF06974" points="680,40 691,29 691,51" stroke-linejoin="round" width="14" height="24" fill="rgb(185,95,215)" stroke="rgb(148,76,172)" stroke-width="1" opacity="0.75" />
			</g>
			<g>
				<title>WES_acyltransf (PF03007)
"Wax ester synthase-like Acyl-CoA acyltransferase domain"</title>
				<rect class="PF03007" x="695" y="28" stroke-linejoin="round" width="26" height="24" fill="rgb(215,100,175)" stroke="rgb(172,80,140)" stroke-width="1" opacity="0.75" />
			</g>
		</g>
		<g>
			<title> (ctg22_252)</title>
			<polygon class=" (ctg22_252)" points="818,25 756,25 756,10 726,40 756,70 756,55 818,55" fill="rgb(255,255,255)" fill-opacity="1.0" stroke="rgb(0,0,0)" stroke-width="2"  />
			<g>
				<title>AsmA_2 (PF13502)
"AsmA-like C-terminal region"</title>
				<polygon class="PF13502" points="736,34 742,28 757,28 757,52 742,52 736,46" stroke-linejoin="round" width="21" height="24" fill="rgb(215,73,95)" stroke="rgb(172,58,76)" stroke-width="1" opacity="0.75" />
			</g>
			<g>
				<title>AsmA (PF05170)
"AsmA family"</title>
				<rect class="PF05170" x="791" y="28" stroke-linejoin="round" width="26" height="24" fill="rgb(208,59,109)" stroke="rgb(166,47,87)" stroke-width="1" opacity="0.75" />
			</g>
		</g>
		<g>
			<title> (ctg22_253)</title>
			<polygon class=" (ctg22_253)" points="819,40 842,10 842,70" fill="rgb(255,255,255)" fill-opacity="1.0" stroke="rgb(0,0,0)" stroke-width="2"  />
			<g>
				<title>HAD_2 (PF13419)
"Haloacid dehalogenase-like hydrolase"</title>
				<polygon class="PF13419" points="823,40 833,28 842,28 842,52 833,52" stroke-linejoin="round" width="20" height="24" fill="rgb(60,223,188)" stroke="rgb(48,178,150)" stroke-width="1" opacity="0.75" />
			</g>
		</g>
		<g>
			<title> (ctg22_254)</title>
			<polygon class=" (ctg22_254)" points="848,10 855,40 848,70" fill="rgb(255,255,255)" fill-opacity="1.0" stroke="rgb(0,0,0)" stroke-width="2"  />
			<g>
				<title>MazE_antitoxin (PF04014)
"Antidote-toxin recognition MazE, bacterial antitoxin"</title>
				<polygon class="PF04014" points="848,28 849,28 852,39 852,41 849,52 848,52" stroke-linejoin="round" width="4" height="24" fill="rgb(226,108,170)" stroke="rgb(180,86,136)" stroke-width="1" opacity="0.75" />
			</g>
		</g>
		<g>
			<title> (ctg22_255)</title>
			<polygon class=" (ctg22_255)" points="856,10 870,40 856,70" fill="rgb(255,255,255)" fill-opacity="1.0" stroke="rgb(0,0,0)" stroke-width="2"  />
			<g>
				<title>PIN (PF01850)
"PIN domain"</title>
				<polygon class="PF01850" points="856,28 860,28 866,40 860,52 856,52" stroke-linejoin="round" width="12" height="24" fill="rgb(91,217,126)" stroke="rgb(72,173,100)" stroke-width="1" opacity="0.75" />
			</g>
		</g>
		<g>
			<title> (ctg22_256)</title>
			<polygon class=" (ctg22_256)" points="904,25 901,25 901,10 871,40 901,70 901,55 904,55" fill="rgb(255,255,255)" fill-opacity="1.0" stroke="rgb(0,0,0)" stroke-width="2"  />
			<g>
				<title>ADH_zinc_N (PF00107)
"Zinc-binding dehydrogenase"</title>
				<polygon class="PF00107" points="875,40 885,30 885,50" stroke-linejoin="round" width="11" height="24" fill="rgb(81,108,215)" stroke="rgb(64,86,172)" stroke-width="1" opacity="0.75" />
			</g>
			<g>
				<title>ADH_N (PF08240)
"Alcohol dehydrogenase GroES-like domain"</title>
				<rect class="PF08240" x="890" y="28" stroke-linejoin="round" width="10" height="24" fill="rgb(211,65,138)" stroke="rgb(168,51,110)" stroke-width="1" opacity="0.75" />
			</g>
		</g>
		<g>
			<title> (ctg22_257)</title>
			<polygon class=" (ctg22_257)" points="950,25 937,25 937,10 907,40 937,70 937,55 950,55" fill="rgb(255,255,255)" fill-opacity="1.0" stroke="rgb(0,0,0)" stroke-width="2"  />
			<g>
				<title>N6_N4_Mtase (PF01555)
"DNA methylase"</title>
				<polygon class="PF01555" points="911,40 923,28 944,28 944,52 923,52" stroke-linejoin="round" width="34" height="24" fill="rgb(54,198,162)" stroke="rgb(43,158,129)" stroke-width="1" opacity="0.75" />
			</g>
		</g>
		<g>
			<title> (ctg22_258)</title>
			<polygon class=" (ctg22_258)" points="1037,25 987,25 987,10 957,40 987,70 987,55 1037,55" fill="rgb(255,255,255)" fill-opacity="1.0" stroke="rgb(0,0,0)" stroke-width="2"  />
			<g>
				<title>Glyco_hydro_65C (PF03633)
"Glycosyl hydrolase family 65, C-terminal domain"</title>
				<polygon class="PF03633" points="961,40 963,38 963,42" stroke-linejoin="round" width="5" height="24" fill="rgb(72,122,191)" stroke="rgb(57,97,152)" stroke-width="1" opacity="0.75" />
			</g>
			<g>
				<title>Glyco_hydro_65m (PF03632)
"Glycosyl hydrolase family 65 central catalytic domain"</title>
				<polygon class="PF03632" points="963,38 973,28 1004,28 1004,52 973,52 963,42" stroke-linejoin="round" width="41" height="24" fill="rgb(190,87,121)" stroke="rgb(152,69,96)" stroke-width="1" opacity="0.75" />
			</g>
			<g>
				<title>Glyco_hydro_65N (PF03636)
"Glycosyl hydrolase family 65, N-terminal domain"</title>
				<rect class="PF03636" x="1010" y="28" stroke-linejoin="round" width="25" height="24" fill="rgb(73,213,222)" stroke="rgb(58,170,177)" stroke-width="1" opacity="0.75" />
			</g>
		</g>
		<g>
			<title> (ctg22_259)</title>
			<polygon class=" (ctg22_259)" points="1091,25 1067,25 1067,10 1037,40 1067,70 1067,55 1091,55" fill="rgb(255,255,255)" fill-opacity="1.0" stroke="rgb(0,0,0)" stroke-width="2"  />
			<g>
				<title>Trehalose_PPase (PF02358)
"Trehalose-phosphatase"</title>
				<polygon class="PF02358" points="1041,40 1053,28 1060,28 1060,52 1053,52" stroke-linejoin="round" width="22" height="24" fill="rgb(83,128,204)" stroke="rgb(66,102,163)" stroke-width="1" opacity="0.75" />
			</g>
			<g>
				<title>HAD_2 (PF13419)
"Haloacid dehalogenase-like hydrolase"</title>
				<rect class="PF13419" x="1067" y="28" stroke-linejoin="round" width="20" height="24" fill="rgb(60,223,188)" stroke="rgb(48,178,150)" stroke-width="1" opacity="0.75" />
			</g>
		</g>
		<g>
			<title> (ctg22_260)</title>
			<polygon class=" (ctg22_260)" points="1092,40 1113,10 1113,70" fill="rgb(255,255,255)" fill-opacity="1.0" stroke="rgb(0,0,0)" stroke-width="2"  />
			<g>
				<title>MlaC (PF05494)
"MlaC protein"</title>
				<polygon class="PF05494" points="1096,40 1105,28 1109,28 1109,52 1105,52" stroke-linejoin="round" width="16" height="24" fill="rgb(74,203,58)" stroke="rgb(59,162,46)" stroke-width="1" opacity="0.75" />
			</g>
		</g>
		<g>
			<title> (ctg22_261)</title>
			<polygon class=" (ctg22_261)" points="1114,40 1137,10 1137,70" fill="rgb(255,255,255)" fill-opacity="1.0" stroke="rgb(0,0,0)" stroke-width="2"  />
			<g>
				<title>MlaA (PF04333)
"MlaA lipoprotein"</title>
				<polygon class="PF04333" points="1118,40 1128,28 1134,28 1134,52 1128,52" stroke-linejoin="round" width="20" height="24" fill="rgb(178,178,73)" stroke="rgb(142,142,58)" stroke-width="1" opacity="0.75" />
			</g>
		</g>
		<g>
			<title> (ctg22_262)</title>
			<polygon class=" (ctg22_262)" points="1139,40 1156,10 1156,70" fill="rgb(255,255,255)" fill-opacity="1.0" stroke="rgb(0,0,0)" stroke-width="2"  />
			<g>
				<title>MlaD (PF02470)
"MlaD protein"</title>
				<polygon class="PF02470" points="1145,35 1149,28 1152,28 1152,52 1149,52 1145,45" stroke-linejoin="round" width="7" height="24" fill="rgb(219,201,73)" stroke="rgb(175,160,58)" stroke-width="1" opacity="0.75" />
			</g>
		</g>
		<g>
			<title> (ctg22_263)</title>
			<polygon class=" (ctg22_263)" points="1158,40 1182,10 1182,70" fill="rgb(255,255,255)" fill-opacity="1.0" stroke="rgb(0,0,0)" stroke-width="2"  />
			<g>
				<title>ABC_tran (PF00005)
"ABC transporter"</title>
				<polygon class="PF00005" points="1166,35 1172,28 1180,28 1180,52 1172,52 1166,45" stroke-linejoin="round" width="14" height="24" fill="rgb(129,201,63)" stroke="rgb(103,160,50)" stroke-width="1" opacity="0.75" />
			</g>
		</g>
		<g>
			<title> (ctg22_264)</title>
			<polygon class=" (ctg22_264)" points="1184,40 1209,10 1209,70" fill="rgb(255,255,255)" fill-opacity="1.0" stroke="rgb(0,0,0)" stroke-width="2"  />
			<g>
				<title>MlaE (PF02405)
"Permease MlaE"</title>
				<polygon class="PF02405" points="1188,40 1198,28 1205,28 1205,52 1198,52" stroke-linejoin="round" width="21" height="24" fill="rgb(56,97,187)" stroke="rgb(44,77,149)" stroke-width="1" opacity="0.75" />
			</g>
		</g>
		<g>
			<title> (ctg22_265)</title>
			<polygon class=" (ctg22_265)" points="1217,25 1225,25 1225,10 1255,40 1225,70 1225,55 1217,55" fill="rgb(255,255,255)" fill-opacity="1.0" stroke="rgb(0,0,0)" stroke-width="2"  />
			<g>
				<title>DHH (PF01368)
"DHH family"</title>
				<rect class="PF01368" x="1221" y="28" stroke-linejoin="round" width="15" height="24" fill="rgb(171,76,182)" stroke="rgb(136,60,145)" stroke-width="1" opacity="0.75" />
			</g>
		</g>
		<g>
			<title> (ctg22_266)</title>
			<polygon class=" (ctg22_266)" points="1261,25 1296,25 1296,10 1326,40 1296,70 1296,55 1261,55" fill="rgb(255,255,255)" fill-opacity="1.0" stroke="rgb(0,0,0)" stroke-width="2"  />
			<g>
				<title>ACAS_N (PF16177)
"Acetyl-coenzyme A synthetase N-terminus"</title>
				<rect class="PF16177" x="1263" y="28" stroke-linejoin="round" width="5" height="24" fill="rgb(54,78,195)" stroke="rgb(43,62,156)" stroke-width="1" opacity="0.75" />
			</g>
			<g>
				<title>AMP-binding (PF00501)
"AMP-binding enzyme"</title>
				<polygon class="PF00501" points="1269,28 1309,28 1313,32 1313,48 1309,52 1269,52" stroke-linejoin="round" width="44" height="24" fill="rgb(60,217,223)" stroke="rgb(48,173,178)" stroke-width="1" opacity="0.75" />
			</g>
			<g>
				<title>AMP-binding_C (PF13193)
"AMP-binding enzyme C-terminal domain"</title>
				<polygon class="PF13193" points="1314,33 1321,40 1321,40 1314,47" stroke-linejoin="round" width="7" height="24" fill="rgb(182,50,118)" stroke="rgb(145,39,94)" stroke-width="1" opacity="0.75" />
			</g>
		</g>
		<g>
			<title> (ctg22_267)</title>
			<polygon class=" (ctg22_267)" points="1327,25 1344,25 1344,10 1374,40 1344,70 1344,55 1327,55" fill="rgb(255,255,255)" fill-opacity="1.0" stroke="rgb(0,0,0)" stroke-width="2"  />
			<g>
				<title>tRNA-synt_1e (PF01406)
"tRNA synthetases class I (C) catalytic domain"</title>
				<rect class="PF01406" x="1328" y="28" stroke-linejoin="round" width="30" height="24" fill="rgb(131,218,83)" stroke="rgb(104,174,66)" stroke-width="1" opacity="0.75" />
			</g>
			<g>
				<title>DALR_2 (PF09190)
"DALR domain"</title>
				<polygon class="PF09190" points="1361,31 1367,37 1367,43 1361,49" stroke-linejoin="round" width="6" height="24" fill="rgb(70,57,193)" stroke="rgb(56,45,154)" stroke-width="1" opacity="0.75" />
			</g>
		</g>
		<g>
			<title> (ctg22_268)</title>
			<polygon class=" (ctg22_268)" points="1378,10 1405,40 1378,70" fill="rgb(255,255,255)" fill-opacity="1.0" stroke="rgb(0,0,0)" stroke-width="2"  />
			<g>
				<title>SBP_bac_11 (PF13531)
"Bacterial extracellular solute-binding protein"</title>
				<polygon class="PF13531" points="1381,28 1389,28 1401,40 1389,52 1381,52" stroke-linejoin="round" width="22" height="24" fill="rgb(202,228,104)" stroke="rgb(161,182,83)" stroke-width="1" opacity="0.75" />
			</g>
		</g>
		<g>
			<title> (ctg22_269)</title>
			<polygon class=" (ctg22_269)" points="1405,10 1427,40 1405,70" fill="rgb(255,255,255)" fill-opacity="1.0" stroke="rgb(0,0,0)" stroke-width="2"  />
			<g>
				<title>BPD_transp_1 (PF00528)
"Binding-protein-dependent transport system inner membrane component"</title>
				<polygon class="PF00528" points="1407,28 1415,28 1424,40 1415,52 1407,52" stroke-linejoin="round" width="19" height="24" fill="rgb(77,208,225)" stroke="rgb(61,166,180)" stroke-width="1" opacity="0.75" />
			</g>
		</g>
		<g>
			<title> (ctg22_270)</title>
			<polygon class=" (ctg22_270)" points="1428,25 1437,25 1437,10 1467,40 1437,70 1437,55 1428,55" fill="rgb(255,255,255)" fill-opacity="1.0" stroke="rgb(0,0,0)" stroke-width="2"  />
			<g>
				<title>ABC_tran (PF00005)
"ABC transporter"</title>
				<rect class="PF00005" x="1431" y="28" stroke-linejoin="round" width="14" height="24" fill="rgb(129,201,63)" stroke="rgb(103,160,50)" stroke-width="1" opacity="0.75" />
			</g>
			<g>
				<title>TOBE (PF03459)
"TOBE domain"</title>
				<polygon class="PF03459" points="1459,37 1462,40 1459,43" stroke-linejoin="round" width="6" height="24" fill="rgb(212,80,65)" stroke="rgb(169,64,52)" stroke-width="1" opacity="0.75" />
			</g>
		</g>
		<g>
			<title> (ctg22_271)</title>
			<polygon class=" (ctg22_271)" points="1475,25 1477,25 1477,10 1507,40 1477,70 1477,55 1475,55" fill="rgb(255,255,255)" fill-opacity="1.0" stroke="rgb(0,0,0)" stroke-width="2"  />
			<g>
				<title>LPG_synthase_TM (PF03706)
"Lysylphosphatidylglycerol synthase TM region"</title>
				<polygon class="PF03706" points="1475,28 1490,28 1502,40 1490,52 1475,52" stroke-linejoin="round" width="28" height="24" fill="rgb(98,201,219)" stroke="rgb(78,160,175)" stroke-width="1" opacity="0.75" />
			</g>
		</g>
		<g>
			<title> (ctg22_272)</title>
			<polygon class=" (ctg22_272)" points="1507,25 1523,25 1523,10 1553,40 1523,70 1523,55 1507,55" fill="rgb(255,255,255)" fill-opacity="1.0" stroke="rgb(0,0,0)" stroke-width="2"  />
		</g>
		<g>
			<title> (ctg22_273)</title>
			<polygon class=" (ctg22_273)" points="1554,10 1577,40 1554,70" fill="rgb(255,255,255)" fill-opacity="1.0" stroke="rgb(0,0,0)" stroke-width="2"  />
		</g>
		<g>
			<title> (ctg22_274)</title>
			<polygon class=" (ctg22_274)" points="1577,10 1600,40 1577,70" fill="rgb(255,255,255)" fill-opacity="1.0" stroke="rgb(0,0,0)" stroke-width="2"  />
			<g>
				<title>Glycos_transf_2 (PF00535)
"Glycosyl transferase family 2"</title>
				<polygon class="PF00535" points="1578,28 1587,28 1595,38 1595,42 1587,52 1578,52" stroke-linejoin="round" width="17" height="24" fill="rgb(224,122,96)" stroke="rgb(179,97,76)" stroke-width="1" opacity="0.75" />
			</g>
		</g>
		<g>
			<title> (ctg22_275)</title>
			<polygon class=" (ctg22_275)" points="1601,10 1611,40 1601,70" fill="rgb(255,255,255)" fill-opacity="1.0" stroke="rgb(0,0,0)" stroke-width="2"  />
		</g>
		<g>
			<title> (ctg22_276)</title>
			<polygon class=" (ctg22_276)" points="1611,10 1633,40 1611,70" fill="rgb(255,255,255)" fill-opacity="1.0" stroke="rgb(0,0,0)" stroke-width="2"  />
			<g>
				<title>Glycos_transf_2 (PF00535)
"Glycosyl transferase family 2"</title>
				<polygon class="PF00535" points="1611,28 1621,28 1625,34 1625,46 1621,52 1611,52" stroke-linejoin="round" width="14" height="24" fill="rgb(224,122,96)" stroke="rgb(179,97,76)" stroke-width="1" opacity="0.75" />
			</g>
		</g>
		<g>
			<title> (ctg22_277)</title>
			<polygon class=" (ctg22_277)" points="1666,25 1666,25 1666,10 1636,40 1666,70 1666,55 1666,55" fill="rgb(255,255,255)" fill-opacity="1.0" stroke="rgb(0,0,0)" stroke-width="2"  />
			<g>
				<title>DeoC (PF01791)
"DeoC/LacD family aldolase"</title>
				<polygon class="PF01791" points="1640,40 1652,28 1662,28 1662,52 1652,52" stroke-linejoin="round" width="24" height="24" fill="rgb(151,59,198)" stroke="rgb(120,47,158)" stroke-width="1" opacity="0.75" />
			</g>
		</g>
		<g>
			<title> (ctg22_278)</title>
			<polygon class=" (ctg22_278)" points="1702,25 1699,25 1699,10 1669,40 1699,70 1699,55 1702,55" fill="rgb(255,255,255)" fill-opacity="1.0" stroke="rgb(0,0,0)" stroke-width="2"  />
			<g>
				<title>FBPase (PF00316)
"Fructose-1-6-bisphosphatase, N-terminal domain"</title>
				<polygon class="PF00316" points="1682,31 1685,28 1701,28 1701,52 1685,52 1682,49" stroke-linejoin="round" width="19" height="24" fill="rgb(138,62,210)" stroke="rgb(110,49,168)" stroke-width="1" opacity="0.75" />
			</g>
		</g>
		<g>
			<title> (ctg22_279)</title>
			<polygon class=" (ctg22_279)" points="1711,40 1738,10 1738,70" fill="rgb(255,255,255)" fill-opacity="1.0" stroke="rgb(0,0,0)" stroke-width="2"  />
			<g>
				<title>Abhydrolase_6 (PF12697)
"Alpha/beta hydrolase family"</title>
				<polygon class="PF12697" points="1715,40 1726,28 1735,28 1735,52 1726,52" stroke-linejoin="round" width="24" height="24" fill="rgb(113,71,219)" stroke="rgb(90,56,175)" stroke-width="1" opacity="0.75" />
			</g>
		</g>
		<g>
			<title> (ctg22_280)</title>
			<polygon class=" (ctg22_280)" points="1782,25 1771,25 1771,10 1741,40 1771,70 1771,55 1782,55" fill="rgb(255,255,255)" fill-opacity="1.0" stroke="rgb(0,0,0)" stroke-width="2"  />
			<g>
				<title>Bac_luciferase (PF00296)
"Luciferase-like monooxygenase"</title>
				<polygon class="PF00296" points="1746,39 1757,28 1779,28 1779,52 1757,52 1746,41" stroke-linejoin="round" width="33" height="24" fill="rgb(180,112,78)" stroke="rgb(144,89,62)" stroke-width="1" opacity="0.75" />
			</g>
		</g>
		<g>
			<title> (ctg22_281)</title>
			<polygon class=" (ctg22_281)" points="1862,25 1816,25 1816,10 1786,40 1816,70 1816,55 1862,55" fill="rgb(255,255,255)" fill-opacity="1.0" stroke="rgb(0,0,0)" stroke-width="2"  />
			<g>
				<title>HATPase_c (PF02518)
"Histidine kinase-, DNA gyrase B-, and HSP90-like ATPase"</title>
				<polygon class="PF02518" points="1790,40 1798,32 1798,48" stroke-linejoin="round" width="11" height="24" fill="rgb(80,94,225)" stroke="rgb(64,75,180)" stroke-width="1" opacity="0.75" />
			</g>
			<g>
				<title>HisKA (PF00512)
"His Kinase A (phospho-acceptor) domain"</title>
				<rect class="PF00512" x="1803" y="28" stroke-linejoin="round" width="8" height="24" fill="rgb(193,125,62)" stroke="rgb(154,100,49)" stroke-width="1" opacity="0.75" />
			</g>
			<g>
				<title>HAMP (PF00672)
"HAMP domain"</title>
				<rect class="PF00672" x="1816" y="28" stroke-linejoin="round" width="5" height="24" fill="rgb(124,89,195)" stroke="rgb(99,71,156)" stroke-width="1" opacity="0.75" />
			</g>
		</g>
		<g>
			<title> (ctg22_282)</title>
			<polygon class=" (ctg22_282)" points="1901,25 1892,25 1892,10 1862,40 1892,70 1892,55 1901,55" fill="rgb(255,255,255)" fill-opacity="1.0" stroke="rgb(0,0,0)" stroke-width="2"  />
			<g>
				<title>Peripla_BP_6 (PF13458)
"Periplasmic binding protein"</title>
				<polygon class="PF13458" points="1866,40 1878,28 1897,28 1897,52 1878,52" stroke-linejoin="round" width="34" height="24" fill="rgb(94,183,81)" stroke="rgb(75,146,64)" stroke-width="1" opacity="0.75" />
			</g>
		</g>
		<g>
			<title> (ctg22_283)</title>
			<polygon class=" (ctg22_283)" points="1940,25 1931,25 1931,10 1901,40 1931,70 1931,55 1940,55" fill="rgb(255,255,255)" fill-opacity="1.0" stroke="rgb(0,0,0)" stroke-width="2"  />
			<g>
				<title>SpoIIE (PF07228)
"Stage II sporulation protein E (SpoIIE)"</title>
				<polygon class="PF07228" points="1905,40 1917,28 1921,28 1921,52 1917,52" stroke-linejoin="round" width="19" height="24" fill="rgb(85,195,217)" stroke="rgb(68,155,173)" stroke-width="1" opacity="0.75" />
			</g>
			<g>
				<title>Response_reg (PF00072)
"Response regulator receiver domain"</title>
				<rect class="PF00072" x="1928" y="28" stroke-linejoin="round" width="11" height="24" fill="rgb(100,107,203)" stroke="rgb(80,85,162)" stroke-width="1" opacity="0.75" />
			</g>
		</g>
		<g>
			<title> (ctg22_284)</title>
			<polygon class=" (ctg22_284)" points="1942,40 1953,10 1953,70" fill="rgb(255,255,255)" fill-opacity="1.0" stroke="rgb(0,0,0)" stroke-width="2"  />
			<g>
				<title>STAS (PF01740)
"STAS domain"</title>
				<polygon class="PF01740" points="1945,40 1950,28 1952,28 1952,52 1950,52" stroke-linejoin="round" width="10" height="24" fill="rgb(219,58,116)" stroke="rgb(175,46,92)" stroke-width="1" opacity="0.75" />
			</g>
		</g>
		<g>
			<title> (ctg22_285)</title>
			<polygon class=" (ctg22_285)" points="1953,40 1969,10 1969,70" fill="rgb(255,255,255)" fill-opacity="1.0" stroke="rgb(0,0,0)" stroke-width="2"  />
			<g>
				<title>HATPase_c_2 (PF13581)
"Histidine kinase-like ATPase domain"</title>
				<polygon class="PF13581" points="1956,40 1963,28 1966,28 1966,52 1963,52" stroke-linejoin="round" width="12" height="24" fill="rgb(86,179,88)" stroke="rgb(68,143,70)" stroke-width="1" opacity="0.75" />
			</g>
		</g>
	</g>
</svg>
