<svg version="1.1" baseProfile="full" xmlns="http://www.w3.org/2000/svg" width="1245.6333333333334" height="80">
	<g>
		<line x1="10" y1="40.0" x2="1235.6333333333334" y2="40.0" style="stroke:rgb(70,70,70); stroke-width:3 "/>
		<g>
			<title> (ctg1382_5)</title>
			<polygon class=" (ctg1382_5)" points="51,40 72,10 72,70" fill="rgb(255,255,255)" fill-opacity="1.0" stroke="rgb(0,0,0)" stroke-width="2"  />
		</g>
		<g>
			<title> (ctg1382_6)</title>
			<polygon class=" (ctg1382_6)" points="119,25 110,25 110,10 80,40 110,70 110,55 119,55" fill="rgb(255,255,255)" fill-opacity="1.0" stroke="rgb(0,0,0)" stroke-width="2"  />
			<g>
				<title>DUF4143 (PF13635)
"Domain of unknown function (DUF4143)"</title>
				<polygon class="PF13635" points="86,38 96,28 101,28 101,52 96,52 86,42" stroke-linejoin="round" width="15" height="24" fill="rgb(119,89,210)" stroke="rgb(95,71,168)" stroke-width="1" opacity="0.75" />
			</g>
			<g>
				<title>AAA_14 (PF13173)
"AAA domain"</title>
				<rect class="PF13173" x="105" y="28" stroke-linejoin="round" width="11" height="24" fill="rgb(77,222,177)" stroke="rgb(61,177,141)" stroke-width="1" opacity="0.75" />
			</g>
		</g>
		<g>
			<title> (ctg1382_7)</title>
			<polygon class=" (ctg1382_7)" points="120,40 126,10 126,70" fill="rgb(255,255,255)" fill-opacity="1.0" stroke="rgb(0,0,0)" stroke-width="2"  />
		</g>
		<g>
			<title> (ctg1382_8)</title>
			<polygon class=" (ctg1382_8)" points="175,25 160,25 160,10 130,40 160,70 160,55 175,55" fill="rgb(255,255,255)" fill-opacity="1.0" stroke="rgb(0,0,0)" stroke-width="2"  />
			<g>
				<title>Lyase_1 (PF00206)
"Lyase"</title>
				<polygon class="PF00206" points="145,29 146,28 173,28 173,52 146,52 145,51" stroke-linejoin="round" width="28" height="24" fill="rgb(217,92,141)" stroke="rgb(173,73,112)" stroke-width="1" opacity="0.75" />
			</g>
		</g>
		<g>
			<title> (ctg1382_9)</title>
			<polygon class=" (ctg1382_9)" points="176,40 194,10 194,70" fill="rgb(255,255,255)" fill-opacity="1.0" stroke="rgb(0,0,0)" stroke-width="2"  />
			<g>
				<title>Dioxygenase_C (PF00775)
"Dioxygenase"</title>
				<polygon class="PF00775" points="180,40 187,28 193,28 193,52 187,52" stroke-linejoin="round" width="16" height="24" fill="rgb(96,217,213)" stroke="rgb(76,173,170)" stroke-width="1" opacity="0.75" />
			</g>
		</g>
		<g>
			<title> (ctg1382_10)</title>
			<polygon class=" (ctg1382_10)" points="195,40 218,10 218,70" fill="rgb(255,255,255)" fill-opacity="1.0" stroke="rgb(0,0,0)" stroke-width="2"  />
			<g>
				<title>Dioxygenase_C (PF00775)
"Dioxygenase"</title>
				<polygon class="PF00775" points="199,40 208,28 213,28 213,52 208,52" stroke-linejoin="round" width="18" height="24" fill="rgb(96,217,213)" stroke="rgb(76,173,170)" stroke-width="1" opacity="0.75" />
			</g>
			<g>
				<title>PCDO_beta_N (PF12391)
"Protocatechuate 3,4-dioxygenase beta subunit N terminal"</title>
				<rect class="PF12391" x="214" y="28" stroke-linejoin="round" width="3" height="24" fill="rgb(58,217,189)" stroke="rgb(46,173,151)" stroke-width="1" opacity="0.75" />
			</g>
		</g>
		<g>
			<title> (ctg1382_11)</title>
			<polygon class=" (ctg1382_11)" points="228,10 235,40 228,70" fill="rgb(255,255,255)" fill-opacity="1.0" stroke="rgb(0,0,0)" stroke-width="2"  />
		</g>
		<g>
			<title> (ctg1382_12)</title>
			<polygon class=" (ctg1382_12)" points="292,25 288,25 288,10 258,40 288,70 288,55 292,55" fill="rgb(255,255,255)" fill-opacity="1.0" stroke="rgb(0,0,0)" stroke-width="2"  />
			<g>
				<title>Fic (PF02661)
"Fic/DOC family"</title>
				<polygon class="PF02661" points="268,34 274,28 279,28 279,52 274,52 268,46" stroke-linejoin="round" width="11" height="24" fill="rgb(225,135,106)" stroke="rgb(180,108,84)" stroke-width="1" opacity="0.75" />
			</g>
		</g>
		<g>
			<title> (ctg1382_13)</title>
			<polygon class=" (ctg1382_13)" points="299,40 325,10 325,70" fill="rgb(255,255,255)" fill-opacity="1.0" stroke="rgb(0,0,0)" stroke-width="2"  />
			<g>
				<title>Abhydrolase_6 (PF12697)
"Alpha/beta hydrolase family"</title>
				<polygon class="PF12697" points="303,40 314,28 322,28 322,52 314,52" stroke-linejoin="round" width="22" height="24" fill="rgb(113,71,219)" stroke="rgb(90,56,175)" stroke-width="1" opacity="0.75" />
			</g>
		</g>
		<g>
			<title> (ctg1382_14)</title>
			<polygon class=" (ctg1382_14)" points="327,10 341,40 327,70" fill="rgb(255,255,255)" fill-opacity="1.0" stroke="rgb(0,0,0)" stroke-width="2"  />
			<g>
				<title>MarR (PF01047)
"MarR family"</title>
				<polygon class="PF01047" points="330,28 332,28 335,34 335,46 332,52 330,52" stroke-linejoin="round" width="5" height="24" fill="rgb(60,185,86)" stroke="rgb(48,148,68)" stroke-width="1" opacity="0.75" />
			</g>
		</g>
		<g>
			<title> (ctg1382_15)</title>
			<polygon class=" (ctg1382_15)" points="342,25 351,25 351,10 381,40 351,70 351,55 342,55" fill="rgb(255,255,255)" fill-opacity="1.0" stroke="rgb(0,0,0)" stroke-width="2"  />
			<g>
				<title>p450 (PF00067)
"Cytochrome P450"</title>
				<polygon class="PF00067" points="345,28 364,28 367,31 367,49 364,52 345,52" stroke-linejoin="round" width="22" height="24" fill="rgb(85,216,107)" stroke="rgb(68,172,85)" stroke-width="1" opacity="0.75" />
			</g>
			<g>
				<title>p450 (PF00067)
"Cytochrome P450"</title>
				<polygon class="PF00067" points="368,32 376,40 368,48" stroke-linejoin="round" width="10" height="24" fill="rgb(85,216,107)" stroke="rgb(68,172,85)" stroke-width="1" opacity="0.75" />
			</g>
		</g>
		<g>
			<title> (ctg1382_16)</title>
			<polygon class=" (ctg1382_16)" points="381,10 387,40 381,70" fill="rgb(255,255,255)" fill-opacity="1.0" stroke="rgb(0,0,0)" stroke-width="2"  />
		</g>
		<g>
			<title> (ctg1382_17)</title>
			<polygon class=" (ctg1382_17)" points="388,25 406,25 406,10 436,40 406,70 406,55 388,55" fill="rgb(255,255,255)" fill-opacity="1.0" stroke="rgb(0,0,0)" stroke-width="2"  />
			<g>
				<title>SSF (PF00474)
"Sodium:solute symporter family"</title>
				<polygon class="PF00474" points="391,28 419,28 430,39 430,41 419,52 391,52" stroke-linejoin="round" width="39" height="24" fill="rgb(49,186,178)" stroke="rgb(39,148,142)" stroke-width="1" opacity="0.75" />
			</g>
		</g>
		<g>
			<title> (ctg1382_18)</title>
			<polygon class=" (ctg1382_18)" points="441,10 457,40 441,70" fill="rgb(255,255,255)" fill-opacity="1.0" stroke="rgb(0,0,0)" stroke-width="2"  />
		</g>
		<g>
			<title> (ctg1382_19)</title>
			<polygon class=" (ctg1382_19)" points="464,25 547,25 547,10 577,40 547,70 547,55 464,55" fill="rgb(255,255,255)" fill-opacity="1.0" stroke="rgb(0,0,0)" stroke-width="2"  />
			<g>
				<title>CarboxypepD_reg (PF13620)
"Carboxypeptidase regulatory-like domain"</title>
				<rect class="PF13620" x="467" y="28" stroke-linejoin="round" width="8" height="24" fill="rgb(201,63,96)" stroke="rgb(160,50,76)" stroke-width="1" opacity="0.75" />
			</g>
			<g>
				<title>Plug (PF07715)
"TonB-dependent Receptor Plug Domain"</title>
				<rect class="PF07715" x="476" y="28" stroke-linejoin="round" width="10" height="24" fill="rgb(99,133,214)" stroke="rgb(79,106,171)" stroke-width="1" opacity="0.75" />
			</g>
		</g>
		<g>
			<title> (ctg1382_20)</title>
			<polygon class=" (ctg1382_20)" points="578,40 595,10 595,70" fill="rgb(255,255,255)" fill-opacity="1.0" stroke="rgb(0,0,0)" stroke-width="2"  />
		</g>
		<g>
			<title> (ctg1382_21)</title>
			<polygon class=" (ctg1382_21)" points="600,25 636,25 636,10 666,40 636,70 636,55 600,55" fill="rgb(255,255,255)" fill-opacity="1.0" stroke="rgb(0,0,0)" stroke-width="2"  />
		</g>
		<g>
			<title> (ctg1382_22)</title>
			<polygon class=" (ctg1382_22)" points="668,40 675,10 675,70" fill="rgb(255,255,255)" fill-opacity="1.0" stroke="rgb(0,0,0)" stroke-width="2"  />
			<g>
				<title>Zn-ribbon_8 (PF09723)
"Zinc ribbon domain"</title>
				<polygon class="PF09723" points="671,40 674,28 674,28 674,52 674,52 671,40" stroke-linejoin="round" width="3" height="24" fill="rgb(100,194,213)" stroke="rgb(80,155,170)" stroke-width="1" opacity="0.75" />
			</g>
		</g>
		<g>
			<title> (ctg1382_23)</title>
			<polygon class=" (ctg1382_23)" points="768,25 706,25 706,10 676,40 706,70 706,55 768,55" fill="rgb(255,255,255)" fill-opacity="1.0" stroke="rgb(0,0,0)" stroke-width="2"  />
			<g>
				<title>AMP-binding (PF00501)
"AMP-binding enzyme"</title>
				<rect class="PF00501" x="711" y="28" stroke-linejoin="round" width="44" height="24" fill="rgb(60,217,223)" stroke="rgb(48,173,178)" stroke-width="1" opacity="0.75" />
			</g>
		</g>
		<g>
			<title> (ctg1382_24)</title>
			<polygon class=" (ctg1382_24)" points="771,10 797,40 771,70" fill="rgb(255,255,255)" fill-opacity="1.0" stroke="rgb(0,0,0)" stroke-width="2"  />
			<g>
				<title>MOSC_N (PF03476)
"MOSC N-terminal beta barrel domain"</title>
				<polygon class="PF03476" points="771,28 782,28 784,30 784,50 782,52 771,52" stroke-linejoin="round" width="13" height="24" fill="rgb(209,103,209)" stroke="rgb(167,82,167)" stroke-width="1" opacity="0.75" />
			</g>
		</g>
		<g>
			<title> (ctg1382_25)</title>
			<polygon class=" (ctg1382_25)" points="800,10 826,40 800,70" fill="rgb(255,255,255)" fill-opacity="1.0" stroke="rgb(0,0,0)" stroke-width="2"  />
			<g>
				<title>YmdB (PF13277)
"YmdB-like protein"</title>
				<polygon class="PF13277" points="800,28 811,28 822,40 811,52 800,52" stroke-linejoin="round" width="25" height="24" fill="rgb(95,186,86)" stroke="rgb(76,148,68)" stroke-width="1" opacity="0.75" />
			</g>
		</g>
		<g>
			<title> (ctg1382_26)</title>
			<polygon class=" (ctg1382_26)" points="827,10 855,40 827,70" fill="rgb(255,255,255)" fill-opacity="1.0" stroke="rgb(0,0,0)" stroke-width="2"  />
			<g>
				<title>ATP_bind_3 (PF01171)
"PP-loop family"</title>
				<polygon class="PF01171" points="829,28 839,28 847,36 847,44 839,52 829,52" stroke-linejoin="round" width="18" height="24" fill="rgb(97,189,207)" stroke="rgb(77,151,165)" stroke-width="1" opacity="0.75" />
			</g>
		</g>
		<g>
			<title> (ctg1382_27)</title>
			<polygon class=" (ctg1382_27)" points="859,25 867,25 867,10 897,40 867,70 867,55 859,55" fill="rgb(255,255,255)" fill-opacity="1.0" stroke="rgb(0,0,0)" stroke-width="2"  />
			<g>
				<title>Na_Pi_cotrans (PF02690)
"Na+/Pi-cotransporter"</title>
				<rect class="PF02690" x="862" y="28" stroke-linejoin="round" width="13" height="24" fill="rgb(109,220,115)" stroke="rgb(87,176,91)" stroke-width="1" opacity="0.75" />
			</g>
			<g>
				<title>Na_Pi_cotrans (PF02690)
"Na+/Pi-cotransporter"</title>
				<polygon class="PF02690" points="879,28 881,28 893,40 881,52 879,52" stroke-linejoin="round" width="17" height="24" fill="rgb(109,220,115)" stroke="rgb(87,176,91)" stroke-width="1" opacity="0.75" />
			</g>
		</g>
		<g>
			<title> (ctg1382_28)</title>
			<polygon class=" (ctg1382_28)" points="951,25 928,25 928,10 898,40 928,70 928,55 951,55" fill="rgb(255,255,255)" fill-opacity="1.0" stroke="rgb(0,0,0)" stroke-width="2"  />
			<g>
				<title>Sulfatase (PF00884)
"Sulfatase"</title>
				<polygon class="PF00884" points="910,32 914,28 947,28 947,52 914,52 910,48" stroke-linejoin="round" width="37" height="24" fill="rgb(61,103,198)" stroke="rgb(48,82,158)" stroke-width="1" opacity="0.75" />
			</g>
		</g>
		<g>
			<title> (ctg1382_29)</title>
			<polygon class=" (ctg1382_29)" points="996,25 981,25 981,10 951,40 981,70 981,55 996,55" fill="rgb(255,255,255)" fill-opacity="1.0" stroke="rgb(0,0,0)" stroke-width="2"  />
			<g>
				<title>GFO_IDH_MocA (PF01408)
"Oxidoreductase family, NAD-binding Rossmann fold"</title>
				<rect class="PF01408" x="979" y="28" stroke-linejoin="round" width="12" height="24" fill="rgb(76,117,190)" stroke="rgb(60,93,152)" stroke-width="1" opacity="0.75" />
			</g>
		</g>
		<g>
			<title> (ctg1382_30)</title>
			<polygon class=" (ctg1382_30)" points="1000,40 1007,10 1007,70" fill="rgb(255,255,255)" fill-opacity="1.0" stroke="rgb(0,0,0)" stroke-width="2"  />
			<g>
				<title>Peptidase_S58 (PF03576)
"Peptidase family S58"</title>
				<polygon class="PF03576" points="1003,40 1006,28 1006,28 1006,52 1006,52" stroke-linejoin="round" width="6" height="24" fill="rgb(222,70,152)" stroke="rgb(177,56,121)" stroke-width="1" opacity="0.75" />
			</g>
		</g>
		<g>
			<title> (ctg1382_31)</title>
			<polygon class=" (ctg1382_31)" points="1013,10 1024,40 1013,70" fill="rgb(255,255,255)" fill-opacity="1.0" stroke="rgb(0,0,0)" stroke-width="2"  />
		</g>
		<g>
			<title> (ctg1382_32)</title>
			<polygon class=" (ctg1382_32)" points="1040,25 1049,25 1049,10 1079,40 1049,70 1049,55 1040,55" fill="rgb(255,255,255)" fill-opacity="1.0" stroke="rgb(0,0,0)" stroke-width="2"  />
		</g>
		<g>
			<title> (ctg1382_33)</title>
			<polygon class=" (ctg1382_33)" points="1083,10 1103,40 1083,70" fill="rgb(255,255,255)" fill-opacity="1.0" stroke="rgb(0,0,0)" stroke-width="2"  />
			<g>
				<title>Sigma70_r2 (PF04542)
"Sigma-70 region 2"</title>
				<polygon class="PF04542" points="1086,28 1091,28 1092,29 1092,51 1091,52 1086,52" stroke-linejoin="round" width="6" height="24" fill="rgb(184,59,197)" stroke="rgb(147,47,157)" stroke-width="1" opacity="0.75" />
			</g>
			<g>
				<title>Sigma70_r4_2 (PF08281)
"Sigma-70, region 4"</title>
				<polygon class="PF08281" points="1096,35 1099,40 1096,45" stroke-linejoin="round" width="5" height="24" fill="rgb(222,103,144)" stroke="rgb(177,82,115)" stroke-width="1" opacity="0.75" />
			</g>
		</g>
		<g>
			<title> (ctg1382_34)</title>
			<polygon class=" (ctg1382_34)" points="1126,10 1134,40 1126,70" fill="rgb(255,255,255)" fill-opacity="1.0" stroke="rgb(0,0,0)" stroke-width="2"  />
		</g>
		<g>
			<title> (ctg1382_35)</title>
			<polygon class=" (ctg1382_35)" points="1133,10 1144,40 1133,70" fill="rgb(255,255,255)" fill-opacity="1.0" stroke="rgb(0,0,0)" stroke-width="2"  />
		</g>
		<g>
			<title> (ctg1382_36)</title>
			<polygon class=" (ctg1382_36)" points="1144,40 1155,10 1155,70" fill="rgb(255,255,255)" fill-opacity="1.0" stroke="rgb(0,0,0)" stroke-width="2"  />
		</g>
		<g>
			<title> (ctg1382_37)</title>
			<polygon class=" (ctg1382_37)" points="1157,10 1168,40 1157,70" fill="rgb(255,255,255)" fill-opacity="1.0" stroke="rgb(0,0,0)" stroke-width="2"  />
			<g>
				<title>FKBP_C (PF00254)
"FKBP-type peptidyl-prolyl cis-trans isomerase"</title>
				<polygon class="PF00254" points="1158,28 1160,28 1165,40 1160,52 1158,52" stroke-linejoin="round" width="8" height="24" fill="rgb(137,65,200)" stroke="rgb(109,51,160)" stroke-width="1" opacity="0.75" />
			</g>
		</g>
		<g>
			<title> (ctg1382_38)</title>
			<polygon class=" (ctg1382_38)" points="1172,10 1190,40 1172,70" fill="rgb(255,255,255)" fill-opacity="1.0" stroke="rgb(0,0,0)" stroke-width="2"  />
		</g>
		<g>
			<title> (ctg1382_39)</title>
			<polygon class=" (ctg1382_39)" points="1191,25 1201,25 1201,10 1231,40 1201,70 1201,55 1191,55" fill="rgb(255,255,255)" fill-opacity="1.0" stroke="rgb(0,0,0)" stroke-width="2"  />
		</g>
	</g>
</svg>
