<svg version="1.1" baseProfile="full" xmlns="http://www.w3.org/2000/svg" width="719.6666666666666" height="80">
	<g>
		<line x1="10" y1="40.0" x2="709.6666666666666" y2="40.0" style="stroke:rgb(70,70,70); stroke-width:3 "/>
		<g>
			<title> (ctg341_17)</title>
			<polygon class=" (ctg341_17)" points="45,10 71,40 45,70" fill="rgb(255,255,255)" fill-opacity="1.0" stroke="rgb(0,0,0)" stroke-width="2"  />
			<g>
				<title>PhyH (PF05721)
"Phytanoyl-CoA dioxygenase (PhyH)"</title>
				<polygon class="PF05721" points="46,28 56,28 65,37 65,43 56,52 46,52" stroke-linejoin="round" width="19" height="24" fill="rgb(72,132,214)" stroke="rgb(57,105,171)" stroke-width="1" opacity="0.75" />
			</g>
		</g>
		<g>
			<title> (ctg341_18)</title>
			<polygon class=" (ctg341_18)" points="75,40 101,10 101,70" fill="rgb(255,255,255)" fill-opacity="1.0" stroke="rgb(0,0,0)" stroke-width="2"  />
			<g>
				<title>ACPS (PF01648)
"4'-phosphopantetheinyl transferase superfamily"</title>
				<polygon class="PF01648" points="79,40 87,31 87,49 79,40" stroke-linejoin="round" width="8" height="24" fill="rgb(85,184,135)" stroke="rgb(68,147,108)" stroke-width="1" opacity="0.75" />
			</g>
		</g>
		<g>
			<title> (ctg341_19)</title>
			<polygon class=" (ctg341_19)" points="138,25 131,25 131,10 101,40 131,70 131,55 138,55" fill="rgb(255,255,255)" fill-opacity="1.0" stroke="rgb(0,0,0)" stroke-width="2"  />
			<g>
				<title>Glycos_transf_2 (PF00535)
"Glycosyl transferase family 2"</title>
				<polygon class="PF00535" points="115,30 117,28 133,28 133,52 117,52 115,50" stroke-linejoin="round" width="18" height="24" fill="rgb(224,122,96)" stroke="rgb(179,97,76)" stroke-width="1" opacity="0.75" />
			</g>
		</g>
		<g>
			<title> (ctg341_20)</title>
			<polygon class=" (ctg341_20)" points="139,40 158,10 158,70" fill="rgb(255,255,255)" fill-opacity="1.0" stroke="rgb(0,0,0)" stroke-width="2"  />
			<g>
				<title>G3P_acyltransf (PF02660)
"Glycerol-3-phosphate acyltransferase"</title>
				<polygon class="PF02660" points="143,40 151,28 157,28 157,52 151,52" stroke-linejoin="round" width="17" height="24" fill="rgb(204,58,153)" stroke="rgb(163,46,122)" stroke-width="1" opacity="0.75" />
			</g>
		</g>
		<g>
			<title> (ctg341_21)</title>
			<polygon class=" (ctg341_21)" points="158,40 185,10 185,70" fill="rgb(255,255,255)" fill-opacity="1.0" stroke="rgb(0,0,0)" stroke-width="2"  />
			<g>
				<title>Caroten_synth (PF04240)
"Carotenoid biosynthesis protein"</title>
				<polygon class="PF04240" points="162,40 173,28 180,28 180,52 173,52" stroke-linejoin="round" width="21" height="24" fill="rgb(65,214,190)" stroke="rgb(52,171,152)" stroke-width="1" opacity="0.75" />
			</g>
		</g>
		<g>
			<title> (ctg341_22)</title>
			<polygon class=" (ctg341_22)" points="186,40 211,10 211,70" fill="rgb(255,255,255)" fill-opacity="1.0" stroke="rgb(0,0,0)" stroke-width="2"  />
		</g>
		<g>
			<title> (ctg341_23)</title>
			<polygon class=" (ctg341_23)" points="212,40 234,10 234,70" fill="rgb(255,255,255)" fill-opacity="1.0" stroke="rgb(0,0,0)" stroke-width="2"  />
		</g>
		<g>
			<title> (ctg341_24)</title>
			<polygon class=" (ctg341_24)" points="286,25 270,25 270,10 240,40 270,70 270,55 286,55" fill="rgb(255,255,255)" fill-opacity="1.0" stroke="rgb(0,0,0)" stroke-width="2"  />
			<g>
				<title>B12-binding (PF02310)
"B12 binding domain"</title>
				<polygon class="PF02310" points="254,30 256,28 265,28 265,52 256,52 254,50" stroke-linejoin="round" width="11" height="24" fill="rgb(145,190,60)" stroke="rgb(115,152,48)" stroke-width="1" opacity="0.75" />
			</g>
			<g>
				<title>MerR_1 (PF13411)
"MerR HTH family regulatory protein"</title>
				<rect class="PF13411" x="279" y="28" stroke-linejoin="round" width="6" height="24" fill="rgb(100,202,107)" stroke="rgb(80,161,85)" stroke-width="1" opacity="0.75" />
			</g>
		</g>
		<g>
			<title> (ctg341_25)</title>
			<polygon class=" (ctg341_25)" points="309,10 326,40 309,70" fill="rgb(255,255,255)" fill-opacity="1.0" stroke="rgb(0,0,0)" stroke-width="2"  />
		</g>
		<g>
			<title> (ctg341_26)</title>
			<polygon class=" (ctg341_26)" points="343,25 346,25 346,10 376,40 346,70 346,55 343,55" fill="rgb(255,255,255)" fill-opacity="1.0" stroke="rgb(0,0,0)" stroke-width="2"  />
			<g>
				<title>SQS_PSY (PF00494)
"Squalene/phytoene synthase"</title>
				<polygon class="PF00494" points="347,28 359,28 371,40 359,52 347,52" stroke-linejoin="round" width="25" height="24" fill="rgb(178,91,49)" stroke="rgb(142,72,39)" stroke-width="1" opacity="0.75" />
			</g>
		</g>
		<g>
			<title> (ctg341_27)</title>
			<polygon class=" (ctg341_27)" points="384,25 388,25 388,10 418,40 388,70 388,55 384,55" fill="rgb(255,255,255)" fill-opacity="1.0" stroke="rgb(0,0,0)" stroke-width="2"  />
			<g>
				<title>ABC_tran (PF00005)
"ABC transporter"</title>
				<polygon class="PF00005" points="388,28 402,28 404,30 404,50 402,52 388,52" stroke-linejoin="round" width="16" height="24" fill="rgb(129,201,63)" stroke="rgb(103,160,50)" stroke-width="1" opacity="0.75" />
			</g>
			<g>
				<title>oligo_HPY (PF08352)
"Oligopeptide/dipeptide transporter, C-terminal region"</title>
				<polygon class="PF08352" points="410,36 414,40 410,44" stroke-linejoin="round" width="6" height="24" fill="rgb(90,183,173)" stroke="rgb(72,146,138)" stroke-width="1" opacity="0.75" />
			</g>
		</g>
		<g>
			<title> (ctg341_28)</title>
			<polygon class=" (ctg341_28)" points="425,25 467,25 467,10 497,40 467,70 467,55 425,55" fill="rgb(255,255,255)" fill-opacity="1.0" stroke="rgb(0,0,0)" stroke-width="2"  />
			<g>
				<title>SBP_bac_5 (PF00496)
"Bacterial extracellular solute-binding proteins, family 5 Middle"</title>
				<polygon class="PF00496" points="444,28 481,28 484,31 484,49 481,52 444,52" stroke-linejoin="round" width="40" height="24" fill="rgb(199,94,116)" stroke="rgb(159,75,92)" stroke-width="1" opacity="0.75" />
			</g>
		</g>
		<g>
			<title> (ctg341_29)</title>
			<polygon class=" (ctg341_29)" points="502,25 506,25 506,10 536,40 506,70 506,55 502,55" fill="rgb(255,255,255)" fill-opacity="1.0" stroke="rgb(0,0,0)" stroke-width="2"  />
			<g>
				<title>BPD_transp_1 (PF00528)
"Binding-protein-dependent transport system inner membrane component"</title>
				<polygon class="PF00528" points="514,28 520,28 532,40 520,52 514,52" stroke-linejoin="round" width="21" height="24" fill="rgb(77,208,225)" stroke="rgb(61,166,180)" stroke-width="1" opacity="0.75" />
			</g>
		</g>
		<g>
			<title> (ctg341_30)</title>
			<polygon class=" (ctg341_30)" points="537,25 546,25 546,10 576,40 546,70 546,55 537,55" fill="rgb(255,255,255)" fill-opacity="1.0" stroke="rgb(0,0,0)" stroke-width="2"  />
			<g>
				<title>OppC_N (PF12911)
"N-terminal TM domain of oligopeptide transport permease C"</title>
				<rect class="PF12911" x="540" y="28" stroke-linejoin="round" width="5" height="24" fill="rgb(167,178,88)" stroke="rgb(133,142,70)" stroke-width="1" opacity="0.75" />
			</g>
			<g>
				<title>BPD_transp_1 (PF00528)
"Binding-protein-dependent transport system inner membrane component"</title>
				<polygon class="PF00528" points="556,28 559,28 571,40 559,52 556,52" stroke-linejoin="round" width="18" height="24" fill="rgb(77,208,225)" stroke="rgb(61,166,180)" stroke-width="1" opacity="0.75" />
			</g>
		</g>
		<g>
			<title> (ctg341_31)</title>
			<polygon class=" (ctg341_31)" points="577,25 607,25 607,10 637,40 607,70 607,55 577,55" fill="rgb(255,255,255)" fill-opacity="1.0" stroke="rgb(0,0,0)" stroke-width="2"  />
			<g>
				<title>CarboxypepD_reg (PF13620)
"Carboxypeptidase regulatory-like domain"</title>
				<rect class="PF13620" x="581" y="28" stroke-linejoin="round" width="7" height="24" fill="rgb(201,63,96)" stroke="rgb(160,50,76)" stroke-width="1" opacity="0.75" />
			</g>
		</g>
		<g>
			<title> (ctg341_32)</title>
			<polygon class=" (ctg341_32)" points="638,25 641,25 641,10 671,40 641,70 641,55 638,55" fill="rgb(255,255,255)" fill-opacity="1.0" stroke="rgb(0,0,0)" stroke-width="2"  />
			<g>
				<title>ABC_tran (PF00005)
"ABC transporter"</title>
				<polygon class="PF00005" points="641,28 655,28 656,29 656,51 655,52 641,52" stroke-linejoin="round" width="15" height="24" fill="rgb(129,201,63)" stroke="rgb(103,160,50)" stroke-width="1" opacity="0.75" />
			</g>
			<g>
				<title>oligo_HPY (PF08352)
"Oligopeptide/dipeptide transporter, C-terminal region"</title>
				<polygon class="PF08352" points="662,35 667,40 662,45" stroke-linejoin="round" width="6" height="24" fill="rgb(90,183,173)" stroke="rgb(72,146,138)" stroke-width="1" opacity="0.75" />
			</g>
		</g>
		<g>
			<title> (ctg341_33)</title>
			<polygon class=" (ctg341_33)" points="672,10 684,40 672,70" fill="rgb(255,255,255)" fill-opacity="1.0" stroke="rgb(0,0,0)" stroke-width="2"  />
		</g>
	</g>
</svg>
