<svg version="1.1" baseProfile="full" xmlns="http://www.w3.org/2000/svg" width="315.23333333333335" height="80">
	<g>
		<line x1="10" y1="40.0" x2="305.23333333333335" y2="40.0" style="stroke:rgb(70,70,70); stroke-width:3 "/>
		<g>
			<title> (ctg8439_1)</title>
			<polygon class=" (ctg8439_1)" points="29,25 61,25 61,10 91,40 61,70 61,55 29,55" fill="rgb(255,255,255)" fill-opacity="1.0" stroke="rgb(0,0,0)" stroke-width="2"  />
			<g>
				<title>DXP_synthase_N (PF13292)
"1-deoxy-D-xylulose-5-phosphate synthase"</title>
				<rect class="PF13292" x="30" y="28" stroke-linejoin="round" width="27" height="24" fill="rgb(46,179,173)" stroke="rgb(36,143,138)" stroke-width="1" opacity="0.75" />
			</g>
			<g>
				<title>Transket_pyr (PF02779)
"Transketolase, pyrimidine binding domain"</title>
				<polygon class="PF02779" points="61,28 75,28 77,30 77,50 75,52 61,52" stroke-linejoin="round" width="16" height="24" fill="rgb(189,186,84)" stroke="rgb(151,148,67)" stroke-width="1" opacity="0.75" />
			</g>
			<g>
				<title>Transketolase_C (PF02780)
"Transketolase, C-terminal domain"</title>
				<polygon class="PF02780" points="78,31 87,40 78,49" stroke-linejoin="round" width="11" height="24" fill="rgb(76,206,101)" stroke="rgb(60,164,80)" stroke-width="1" opacity="0.75" />
			</g>
		</g>
		<g>
			<title> (ctg8439_2)</title>
			<polygon class=" (ctg8439_2)" points="139,25 131,25 131,10 101,40 131,70 131,55 139,55" fill="rgb(255,255,255)" fill-opacity="1.0" stroke="rgb(0,0,0)" stroke-width="2"  />
			<g>
				<title>TPP_enzyme_C (PF02775)
"Thiamine pyrophosphate enzyme, C-terminal TPP binding domain"</title>
				<polygon class="PF02775" points="105,40 117,28 117,28 117,52 117,52 105,40" stroke-linejoin="round" width="12" height="24" fill="rgb(156,179,45)" stroke="rgb(124,143,36)" stroke-width="1" opacity="0.75" />
			</g>
			<g>
				<title>TPP_enzyme_N (PF02776)
"Thiamine pyrophosphate enzyme, N-terminal TPP binding domain"</title>
				<rect class="PF02776" x="122" y="28" stroke-linejoin="round" width="17" height="24" fill="rgb(55,81,185)" stroke="rgb(44,64,148)" stroke-width="1" opacity="0.75" />
			</g>
		</g>
		<g>
			<title> (ctg8439_3)</title>
			<polygon class=" (ctg8439_3)" points="196,25 173,25 173,10 143,40 173,70 173,55 196,55" fill="rgb(255,255,255)" fill-opacity="1.0" stroke="rgb(0,0,0)" stroke-width="2"  />
			<g>
				<title>NTP_transf_3 (PF12804)
"MobA-like NTP transferase domain"</title>
				<polygon class="PF12804" points="154,33 159,28 167,28 167,52 159,52 154,47" stroke-linejoin="round" width="13" height="24" fill="rgb(52,209,196)" stroke="rgb(41,167,156)" stroke-width="1" opacity="0.75" />
			</g>
			<g>
				<title>PEP_mutase (PF13714)
"Phosphoenolpyruvate phosphomutase"</title>
				<rect class="PF13714" x="171" y="28" stroke-linejoin="round" width="24" height="24" fill="rgb(215,91,155)" stroke="rgb(172,72,123)" stroke-width="1" opacity="0.75" />
			</g>
		</g>
		<g>
			<title> (ctg8439_4)</title>
			<polygon class=" (ctg8439_4)" points="203,40 227,10 227,70" fill="rgb(255,255,255)" fill-opacity="1.0" stroke="rgb(0,0,0)" stroke-width="2"  />
			<g>
				<title>NTP_transf_3 (PF12804)
"MobA-like NTP transferase domain"</title>
				<polygon class="PF12804" points="207,40 217,28 226,28 226,52 217,52" stroke-linejoin="round" width="20" height="24" fill="rgb(52,209,196)" stroke="rgb(41,167,156)" stroke-width="1" opacity="0.75" />
			</g>
		</g>
		<g>
			<title> (ctg8439_5)</title>
			<polygon class=" (ctg8439_5)" points="232,10 253,40 232,70" fill="rgb(255,255,255)" fill-opacity="1.0" stroke="rgb(0,0,0)" stroke-width="2"  />
			<g>
				<title>NYN (PF01936)
"NYN domain"</title>
				<polygon class="PF01936" points="232,28 241,28 248,38 248,42 241,52 232,52" stroke-linejoin="round" width="16" height="24" fill="rgb(215,71,199)" stroke="rgb(172,56,159)" stroke-width="1" opacity="0.75" />
			</g>
		</g>
		<g>
			<title> (ctg8439_6)</title>
			<polygon class=" (ctg8439_6)" points="304,25 292,25 292,10 262,40 292,70 292,55 304,55" fill="rgb(255,255,255)" fill-opacity="1.0" stroke="rgb(0,0,0)" stroke-width="2"  />
			<g>
				<title>PGI (PF00342)
"Phosphoglucose isomerase"</title>
				<polygon class="PF00342" points="266,40 278,28 304,28 304,52 278,52" stroke-linejoin="round" width="41" height="24" fill="rgb(160,69,196)" stroke="rgb(128,55,156)" stroke-width="1" opacity="0.75" />
			</g>
		</g>
	</g>
</svg>
