<svg version="1.1" baseProfile="full" xmlns="http://www.w3.org/2000/svg" width="390.43333333333334" height="80">
	<g>
		<line x1="10" y1="40.0" x2="380.43333333333334" y2="40.0" style="stroke:rgb(70,70,70); stroke-width:3 "/>
		<g>
			<title> (ctg3839_1)</title>
			<polygon class=" (ctg3839_1)" points="47,25 44,25 44,10 14,40 44,70 44,55 47,55" fill="rgb(255,255,255)" fill-opacity="1.0" stroke="rgb(0,0,0)" stroke-width="2"  />
			<g>
				<title>SQS_PSY (PF00494)
"Squalene/phytoene synthase"</title>
				<polygon class="PF00494" points="18,40 30,28 45,28 45,52 30,52" stroke-linejoin="round" width="28" height="24" fill="rgb(178,91,49)" stroke="rgb(142,72,39)" stroke-width="1" opacity="0.75" />
			</g>
		</g>
		<g>
			<title> (ctg3839_2)</title>
			<polygon class=" (ctg3839_2)" points="50,25 127,25 127,10 157,40 127,70 127,55 50,55" fill="rgb(255,255,255)" fill-opacity="1.0" stroke="rgb(0,0,0)" stroke-width="2"  />
			<g>
				<title>ACR_tran (PF00873)
"AcrB/AcrD/AcrF family"</title>
				<polygon class="PF00873" points="53,28 141,28 153,40 141,52 53,52" stroke-linejoin="round" width="103" height="24" fill="rgb(63,191,60)" stroke="rgb(50,152,48)" stroke-width="1" opacity="0.75" />
			</g>
		</g>
		<g>
			<title> (ctg3839_3)</title>
			<polygon class=" (ctg3839_3)" points="200,25 190,25 190,10 160,40 190,70 190,55 200,55" fill="rgb(255,255,255)" fill-opacity="1.0" stroke="rgb(0,0,0)" stroke-width="2"  />
			<g>
				<title>DUF2236 (PF09995)
"Uncharacterized protein conserved in bacteria (DUF2236)"</title>
				<polygon class="PF09995" points="164,40 176,28 188,28 188,52 176,52 164,40" stroke-linejoin="round" width="24" height="24" fill="rgb(194,179,92)" stroke="rgb(155,143,73)" stroke-width="1" opacity="0.75" />
			</g>
		</g>
		<g>
			<title> (ctg3839_4)</title>
			<polygon class=" (ctg3839_4)" points="213,10 222,40 213,70" fill="rgb(255,255,255)" fill-opacity="1.0" stroke="rgb(0,0,0)" stroke-width="2"  />
			<g>
				<title>Pterin_4a (PF01329)
"Pterin 4 alpha carbinolamine dehydratase"</title>
				<polygon class="PF01329" points="213,28 215,28 219,40 215,52 213,52" stroke-linejoin="round" width="8" height="24" fill="rgb(109,209,90)" stroke="rgb(87,167,72)" stroke-width="1" opacity="0.75" />
			</g>
		</g>
		<g>
			<title> (ctg3839_5)</title>
			<polygon class=" (ctg3839_5)" points="265,25 252,25 252,10 222,40 252,70 252,55 265,55" fill="rgb(255,255,255)" fill-opacity="1.0" stroke="rgb(0,0,0)" stroke-width="2"  />
			<g>
				<title>Aminotran_3 (PF00202)
"Aminotransferase class-III"</title>
				<polygon class="PF00202" points="226,40 238,28 261,28 261,52 238,52" stroke-linejoin="round" width="39" height="24" fill="rgb(49,163,189)" stroke="rgb(39,130,151)" stroke-width="1" opacity="0.75" />
			</g>
		</g>
		<g>
			<title> (ctg3839_6)</title>
			<polygon class=" (ctg3839_6)" points="298,25 295,25 295,10 265,40 295,70 295,55 298,55" fill="rgb(255,255,255)" fill-opacity="1.0" stroke="rgb(0,0,0)" stroke-width="2"  />
			<g>
				<title>Na_Ca_ex (PF01699)
"Sodium/calcium exchanger protein"</title>
				<polygon class="PF01699" points="269,40 279,30 279,50" stroke-linejoin="round" width="14" height="24" fill="rgb(64,189,136)" stroke="rgb(51,151,108)" stroke-width="1" opacity="0.75" />
			</g>
			<g>
				<title>Na_Ca_ex (PF01699)
"Sodium/calcium exchanger protein"</title>
				<rect class="PF01699" x="282" y="28" stroke-linejoin="round" width="14" height="24" fill="rgb(64,189,136)" stroke="rgb(51,151,108)" stroke-width="1" opacity="0.75" />
			</g>
		</g>
		<g>
			<title> (ctg3839_7)</title>
			<polygon class=" (ctg3839_7)" points="367,25 327,25 327,10 297,40 327,70 327,55 367,55" fill="rgb(255,255,255)" fill-opacity="1.0" stroke="rgb(0,0,0)" stroke-width="2"  />
			<g>
				<title>BRCT (PF00533)
"BRCA1 C Terminus (BRCT) domain"</title>
				<polygon class="PF00533" points="301,40 305,36 305,44" stroke-linejoin="round" width="7" height="24" fill="rgb(69,217,144)" stroke="rgb(55,173,115)" stroke-width="1" opacity="0.75" />
			</g>
			<g>
				<title>HHH_2 (PF12826)
"Helix-hairpin-helix motif"</title>
				<polygon class="PF12826" points="307,34 313,28 314,28 314,52 313,52 307,46" stroke-linejoin="round" width="7" height="24" fill="rgb(223,81,103)" stroke="rgb(178,64,82)" stroke-width="1" opacity="0.75" />
			</g>
			<g>
				<title>HHH_5 (PF14520)
"Helix-hairpin-helix domain"</title>
				<rect class="PF14520" x="315" y="28" stroke-linejoin="round" width="5" height="24" fill="rgb(118,220,87)" stroke="rgb(94,176,69)" stroke-width="1" opacity="0.75" />
			</g>
			<g>
				<title>DNA_ligase_OB (PF03120)
"NAD-dependent DNA ligase OB-fold domain"</title>
				<rect class="PF03120" x="325" y="28" stroke-linejoin="round" width="7" height="24" fill="rgb(67,220,154)" stroke="rgb(53,176,123)" stroke-width="1" opacity="0.75" />
			</g>
			<g>
				<title>DNA_ligase_aden (PF01653)
"NAD-dependent DNA ligase adenylation domain"</title>
				<rect class="PF01653" x="333" y="28" stroke-linejoin="round" width="31" height="24" fill="rgb(49,184,68)" stroke="rgb(39,147,54)" stroke-width="1" opacity="0.75" />
			</g>
		</g>
	</g>
</svg>
