<svg version="1.1" baseProfile="full" xmlns="http://www.w3.org/2000/svg" width="360.3" height="80">
	<g>
		<line x1="10" y1="40.0" x2="350.3" y2="40.0" style="stroke:rgb(70,70,70); stroke-width:3 "/>
		<g>
			<title> (ctg5632_1)</title>
			<polygon class=" (ctg5632_1)" points="56,25 40,25 40,10 10,40 40,70 40,55 56,55" fill="rgb(255,255,255)" fill-opacity="1.0" stroke="rgb(0,0,0)" stroke-width="2"  />
			<g>
				<title>Cellulase (PF00150)
"Cellulase (glycosyl hydrolase family 5)"</title>
				<rect class="PF00150" x="32" y="28" stroke-linejoin="round" width="19" height="24" fill="rgb(189,82,188)" stroke="rgb(151,65,150)" stroke-width="1" opacity="0.75" />
			</g>
		</g>
		<g>
			<title> (ctg5632_2)</title>
			<polygon class=" (ctg5632_2)" points="60,40 85,10 85,70" fill="rgb(255,255,255)" fill-opacity="1.0" stroke="rgb(0,0,0)" stroke-width="2"  />
			<g>
				<title>PI3_PI4_kinase (PF00454)
"Phosphatidylinositol 3- and 4-kinase"</title>
				<polygon class="PF00454" points="66,38 74,28 77,28 77,52 74,52 66,42" stroke-linejoin="round" width="11" height="24" fill="rgb(109,171,221)" stroke="rgb(87,136,176)" stroke-width="1" opacity="0.75" />
			</g>
		</g>
		<g>
			<title> (ctg5632_3)</title>
			<polygon class=" (ctg5632_3)" points="89,40 106,10 106,70" fill="rgb(255,255,255)" fill-opacity="1.0" stroke="rgb(0,0,0)" stroke-width="2"  />
			<g>
				<title>Uma2 (PF05685)
"Putative restriction endonuclease"</title>
				<polygon class="PF05685" points="92,40 99,28 105,28 105,52 99,52" stroke-linejoin="round" width="16" height="24" fill="rgb(123,107,219)" stroke="rgb(98,85,175)" stroke-width="1" opacity="0.75" />
			</g>
		</g>
		<g>
			<title> (ctg5632_4)</title>
			<polygon class=" (ctg5632_4)" points="109,40 128,10 128,70" fill="rgb(255,255,255)" fill-opacity="1.0" stroke="rgb(0,0,0)" stroke-width="2"  />
			<g>
				<title>DUF3090 (PF11290)
"Protein of unknown function (DUF3090)"</title>
				<polygon class="PF11290" points="113,40 121,28 127,28 127,52 121,52" stroke-linejoin="round" width="18" height="24" fill="rgb(227,98,147)" stroke="rgb(181,78,117)" stroke-width="1" opacity="0.75" />
			</g>
		</g>
		<g>
			<title> (ctg5632_5)</title>
			<polygon class=" (ctg5632_5)" points="128,40 151,10 151,70" fill="rgb(255,255,255)" fill-opacity="1.0" stroke="rgb(0,0,0)" stroke-width="2"  />
			<g>
				<title>His_Phos_1 (PF00300)
"Histidine phosphatase superfamily (branch 1)"</title>
				<polygon class="PF00300" points="132,40 142,28 151,28 151,52 142,52 132,40" stroke-linejoin="round" width="19" height="24" fill="rgb(135,184,63)" stroke="rgb(107,147,50)" stroke-width="1" opacity="0.75" />
			</g>
		</g>
		<g>
			<title> (ctg5632_6)</title>
			<polygon class=" (ctg5632_6)" points="156,10 183,40 156,70" fill="rgb(255,255,255)" fill-opacity="1.0" stroke="rgb(0,0,0)" stroke-width="2"  />
			<g>
				<title>DUF692 (PF05114)
"Protein of unknown function (DUF692)"</title>
				<polygon class="PF05114" points="158,28 167,28 178,39 178,41 167,52 158,52" stroke-linejoin="round" width="20" height="24" fill="rgb(63,196,127)" stroke="rgb(50,156,101)" stroke-width="1" opacity="0.75" />
			</g>
		</g>
		<g>
			<title> (ctg5632_7)</title>
			<polygon class=" (ctg5632_7)" points="187,25 207,25 207,10 237,40 207,70 207,55 187,55" fill="rgb(255,255,255)" fill-opacity="1.0" stroke="rgb(0,0,0)" stroke-width="2"  />
			<g>
				<title>PMT_2 (PF13231)
"Dolichyl-phosphate-mannose-protein mannosyltransferase"</title>
				<rect class="PF13231" x="193" y="28" stroke-linejoin="round" width="16" height="24" fill="rgb(149,96,194)" stroke="rgb(119,76,155)" stroke-width="1" opacity="0.75" />
			</g>
		</g>
		<g>
			<title> (ctg5632_8)</title>
			<polygon class=" (ctg5632_8)" points="247,10 254,40 247,70" fill="rgb(255,255,255)" fill-opacity="1.0" stroke="rgb(0,0,0)" stroke-width="2"  />
			<g>
				<title>CSD (PF00313)
"'Cold-shock' DNA-binding domain"</title>
				<polygon class="PF00313" points="247,28 247,28 251,40 247,52 247,52" stroke-linejoin="round" width="6" height="24" fill="rgb(87,72,181)" stroke="rgb(69,57,144)" stroke-width="1" opacity="0.75" />
			</g>
		</g>
	</g>
</svg>
