<svg version="1.1" baseProfile="full" xmlns="http://www.w3.org/2000/svg" width="624.7666666666667" height="80">
	<g>
		<line x1="10" y1="40.0" x2="614.7666666666667" y2="40.0" style="stroke:rgb(70,70,70); stroke-width:3 "/>
		<g>
			<title> (ctg3590_1)</title>
			<polygon class=" (ctg3590_1)" points="170,25 40,25 40,10 10,40 40,70 40,55 170,55" fill="rgb(255,255,255)" fill-opacity="1.0" stroke="rgb(0,0,0)" stroke-width="2"  />
			<g>
				<title>Methyltransf_12 (PF08242)
"Methyltransferase domain"</title>
				<polygon class="PF08242" points="14,40 23,31 23,49 14,40" stroke-linejoin="round" width="9" height="24" fill="rgb(187,59,115)" stroke="rgb(149,47,92)" stroke-width="1" opacity="0.75" />
			</g>
			<g>
				<title>PS-DH (PF14765)
"Polyketide synthase dehydratase"</title>
				<rect class="PF14765" x="47" y="28" stroke-linejoin="round" width="29" height="24" fill="rgb(173,56,182)" stroke="rgb(138,44,145)" stroke-width="1" opacity="0.75" />
			</g>
			<g>
				<title>Acyl_transf_1 (PF00698)
"Acyl transferase domain"</title>
				<rect class="PF00698" x="83" y="28" stroke-linejoin="round" width="30" height="24" fill="rgb(59,176,209)" stroke="rgb(47,140,167)" stroke-width="1" opacity="0.75" />
			</g>
			<g>
				<title>KAsynt_C_assoc (PF16197)
"Ketoacyl-synthetase C-terminal extension"</title>
				<rect class="PF16197" x="116" y="28" stroke-linejoin="round" width="14" height="24" fill="rgb(240,150,172)" stroke="rgb(192,120,137)" stroke-width="1" opacity="0.75" />
			</g>
			<g>
				<title>Ketoacyl-synt_C (PF02801)
"Beta-ketoacyl synthase, C-terminal domain"</title>
				<rect class="PF02801" x="131" y="28" stroke-linejoin="round" width="11" height="24" fill="rgb(215,78,102)" stroke="rgb(172,62,81)" stroke-width="1" opacity="0.75" />
			</g>
			<g>
				<title>ketoacyl-synt (PF00109)
"Beta-ketoacyl synthase, N-terminal domain"</title>
				<rect class="PF00109" x="144" y="28" stroke-linejoin="round" width="25" height="24" fill="rgb(112,116,228)" stroke="rgb(89,92,182)" stroke-width="1" opacity="0.75" />
			</g>
		</g>
		<g>
			<title> (ctg3590_2)</title>
			<polygon class=" (ctg3590_2)" points="203,25 203,25 203,10 173,40 203,70 203,55 203,55" fill="rgb(255,255,255)" fill-opacity="1.0" stroke="rgb(0,0,0)" stroke-width="2"  />
			<g>
				<title>Abhydrolase_6 (PF12697)
"Alpha/beta hydrolase family"</title>
				<polygon class="PF12697" points="177,40 189,28 200,28 200,52 189,52" stroke-linejoin="round" width="26" height="24" fill="rgb(113,71,219)" stroke="rgb(90,56,175)" stroke-width="1" opacity="0.75" />
			</g>
		</g>
		<g>
			<title> (ctg3590_3)</title>
			<polygon class=" (ctg3590_3)" points="214,25 225,25 225,10 255,40 225,70 225,55 214,55" fill="rgb(255,255,255)" fill-opacity="1.0" stroke="rgb(0,0,0)" stroke-width="2"  />
			<g>
				<title>PQQ_2 (PF13360)
"PQQ-like domain"</title>
				<polygon class="PF13360" points="222,28 238,28 247,37 247,43 238,52 222,52" stroke-linejoin="round" width="25" height="24" fill="rgb(98,210,146)" stroke="rgb(78,168,116)" stroke-width="1" opacity="0.75" />
			</g>
		</g>
		<g>
			<title> (ctg3590_4)</title>
			<polygon class=" (ctg3590_4)" points="341,25 285,25 285,10 255,40 285,70 285,55 341,55" fill="rgb(255,255,255)" fill-opacity="1.0" stroke="rgb(0,0,0)" stroke-width="2"  />
		</g>
		<g>
			<title> (ctg3590_5)</title>
			<polygon class=" (ctg3590_5)" points="406,25 371,25 371,10 341,40 371,70 371,55 406,55" fill="rgb(255,255,255)" fill-opacity="1.0" stroke="rgb(0,0,0)" stroke-width="2"  />
		</g>
		<g>
			<title> (ctg3590_6)</title>
			<polygon class=" (ctg3590_6)" points="470,25 439,25 439,10 409,40 439,70 439,55 470,55" fill="rgb(255,255,255)" fill-opacity="1.0" stroke="rgb(0,0,0)" stroke-width="2"  />
			<g>
				<title>TPR_19 (PF14559)
"Tetratricopeptide repeat"</title>
				<polygon class="PF14559" points="413,40 415,38 415,42" stroke-linejoin="round" width="6" height="24" fill="rgb(182,60,145)" stroke="rgb(145,48,115)" stroke-width="1" opacity="0.75" />
			</g>
			<g>
				<title>TPR_1 (PF00515)
"Tetratricopeptide repeat"</title>
				<polygon class="PF00515" points="417,36 420,33 420,47 417,44" stroke-linejoin="round" width="3" height="24" fill="rgb(193,73,189)" stroke="rgb(154,58,151)" stroke-width="1" opacity="0.75" />
			</g>
			<g>
				<title>PMT_2 (PF13231)
"Dolichyl-phosphate-mannose-protein mannosyltransferase"</title>
				<rect class="PF13231" x="447" y="28" stroke-linejoin="round" width="15" height="24" fill="rgb(149,96,194)" stroke="rgb(119,76,155)" stroke-width="1" opacity="0.75" />
			</g>
		</g>
		<g>
			<title> (ctg3590_7)</title>
			<polygon class=" (ctg3590_7)" points="484,10 496,40 484,70" fill="rgb(255,255,255)" fill-opacity="1.0" stroke="rgb(0,0,0)" stroke-width="2"  />
		</g>
		<g>
			<title> (ctg3590_8)</title>
			<polygon class=" (ctg3590_8)" points="497,10 506,40 497,70" fill="rgb(255,255,255)" fill-opacity="1.0" stroke="rgb(0,0,0)" stroke-width="2"  />
		</g>
		<g>
			<title> (ctg3590_9)</title>
			<polygon class=" (ctg3590_9)" points="512,10 519,40 512,70" fill="rgb(255,255,255)" fill-opacity="1.0" stroke="rgb(0,0,0)" stroke-width="2"  />
		</g>
		<g>
			<title> (ctg3590_10)</title>
			<polygon class=" (ctg3590_10)" points="518,40 540,10 540,70" fill="rgb(255,255,255)" fill-opacity="1.0" stroke="rgb(0,0,0)" stroke-width="2"  />
		</g>
		<g>
			<title> (ctg3590_11)</title>
			<polygon class=" (ctg3590_11)" points="540,40 543,10 543,70" fill="rgb(255,255,255)" fill-opacity="1.0" stroke="rgb(0,0,0)" stroke-width="2"  />
		</g>
		<g>
			<title> (ctg3590_12)</title>
			<polygon class=" (ctg3590_12)" points="544,40 553,10 553,70" fill="rgb(255,255,255)" fill-opacity="1.0" stroke="rgb(0,0,0)" stroke-width="2"  />
			<g>
				<title>ThiS (PF02597)
"ThiS family"</title>
				<polygon class="PF02597" points="547,40 551,28 552,28 552,52 551,52" stroke-linejoin="round" width="8" height="24" fill="rgb(73,117,196)" stroke="rgb(58,93,156)" stroke-width="1" opacity="0.75" />
			</g>
		</g>
		<g>
			<title> (ctg3590_13)</title>
			<polygon class=" (ctg3590_13)" points="555,40 578,10 578,70" fill="rgb(255,255,255)" fill-opacity="1.0" stroke="rgb(0,0,0)" stroke-width="2"  />
			<g>
				<title>HAD_2 (PF13419)
"Haloacid dehalogenase-like hydrolase"</title>
				<polygon class="PF13419" points="559,40 568,28 577,28 577,52 568,52" stroke-linejoin="round" width="19" height="24" fill="rgb(60,223,188)" stroke="rgb(48,178,150)" stroke-width="1" opacity="0.75" />
			</g>
		</g>
		<g>
			<title> (ctg3590_14)</title>
			<polygon class=" (ctg3590_14)" points="585,40 614,10 614,70" fill="rgb(255,255,255)" fill-opacity="1.0" stroke="rgb(0,0,0)" stroke-width="2"  />
		</g>
	</g>
</svg>
