<svg version="1.1" baseProfile="full" xmlns="http://www.w3.org/2000/svg" width="747.7" height="80">
	<g>
		<line x1="10" y1="40.0" x2="737.7" y2="40.0" style="stroke:rgb(70,70,70); stroke-width:3 "/>
		<g>
			<title> (ctg200_49)</title>
			<polygon class=" (ctg200_49)" points="47,40 68,10 68,70" fill="rgb(255,255,255)" fill-opacity="1.0" stroke="rgb(0,0,0)" stroke-width="2"  />
			<g>
				<title>CTP_transf_like (PF01467)
"Cytidylyltransferase-like"</title>
				<polygon class="PF01467" points="51,40 59,28 66,28 66,52 59,52" stroke-linejoin="round" width="16" height="24" fill="rgb(110,215,57)" stroke="rgb(88,172,45)" stroke-width="1" opacity="0.75" />
			</g>
		</g>
		<g>
			<title> (ctg200_50)</title>
			<polygon class=" (ctg200_50)" points="68,40 76,10 76,70" fill="rgb(255,255,255)" fill-opacity="1.0" stroke="rgb(0,0,0)" stroke-width="2"  />
		</g>
		<g>
			<title> (ctg200_51)</title>
			<polygon class=" (ctg200_51)" points="77,40 90,10 90,70" fill="rgb(255,255,255)" fill-opacity="1.0" stroke="rgb(0,0,0)" stroke-width="2"  />
			<g>
				<title>NifU_N (PF01592)
"NifU-like N terminal domain"</title>
				<polygon class="PF01592" points="80,40 85,28 89,28 89,52 85,52" stroke-linejoin="round" width="12" height="24" fill="rgb(109,58,209)" stroke="rgb(87,46,167)" stroke-width="1" opacity="0.75" />
			</g>
		</g>
		<g>
			<title> (ctg200_52)</title>
			<polygon class=" (ctg200_52)" points="101,40 118,10 118,70" fill="rgb(255,255,255)" fill-opacity="1.0" stroke="rgb(0,0,0)" stroke-width="2"  />
			<g>
				<title>DUF3830 (PF12903)
"Protein of unknown function (DUF3830)"</title>
				<polygon class="PF12903" points="104,40 111,28 117,28 117,52 111,52" stroke-linejoin="round" width="15" height="24" fill="rgb(205,62,120)" stroke="rgb(164,49,96)" stroke-width="1" opacity="0.75" />
			</g>
		</g>
		<g>
			<title> (ctg200_53)</title>
			<polygon class=" (ctg200_53)" points="137,25 140,25 140,10 170,40 140,70 140,55 137,55" fill="rgb(255,255,255)" fill-opacity="1.0" stroke="rgb(0,0,0)" stroke-width="2"  />
			<g>
				<title>Peptidase_M19 (PF01244)
"Membrane dipeptidase (Peptidase family M19)"</title>
				<polygon class="PF01244" points="137,28 154,28 166,40 154,52 137,52" stroke-linejoin="round" width="31" height="24" fill="rgb(178,227,92)" stroke="rgb(142,181,73)" stroke-width="1" opacity="0.75" />
			</g>
		</g>
		<g>
			<title> (ctg200_54)</title>
			<polygon class=" (ctg200_54)" points="171,10 175,40 171,70" fill="rgb(255,255,255)" fill-opacity="1.0" stroke="rgb(0,0,0)" stroke-width="2"  />
		</g>
		<g>
			<title> (ctg200_55)</title>
			<polygon class=" (ctg200_55)" points="188,10 213,40 188,70" fill="rgb(255,255,255)" fill-opacity="1.0" stroke="rgb(0,0,0)" stroke-width="2"  />
			<g>
				<title>AIM24 (PF01987)
"Mitochondrial biogenesis AIM24"</title>
				<polygon class="PF01987" points="188,28 199,28 209,40 209,40 199,52 188,52" stroke-linejoin="round" width="21" height="24" fill="rgb(186,55,82)" stroke="rgb(148,44,65)" stroke-width="1" opacity="0.75" />
			</g>
		</g>
		<g>
			<title> (ctg200_56)</title>
			<polygon class=" (ctg200_56)" points="217,25 219,25 219,10 249,40 219,70 219,55 217,55" fill="rgb(255,255,255)" fill-opacity="1.0" stroke="rgb(0,0,0)" stroke-width="2"  />
			<g>
				<title>LYTB (PF02401)
"LytB protein"</title>
				<polygon class="PF02401" points="218,28 233,28 245,40 245,40 233,52 218,52" stroke-linejoin="round" width="27" height="24" fill="rgb(155,62,193)" stroke="rgb(124,49,154)" stroke-width="1" opacity="0.75" />
			</g>
		</g>
		<g>
			<title> (ctg200_57)</title>
			<polygon class=" (ctg200_57)" points="254,40 261,10 261,70" fill="rgb(255,255,255)" fill-opacity="1.0" stroke="rgb(0,0,0)" stroke-width="2"  />
		</g>
		<g>
			<title> (ctg200_58)</title>
			<polygon class=" (ctg200_58)" points="270,25 275,25 275,10 305,40 275,70 275,55 270,55" fill="rgb(255,255,255)" fill-opacity="1.0" stroke="rgb(0,0,0)" stroke-width="2"  />
			<g>
				<title>ADH_N (PF08240)
"Alcohol dehydrogenase GroES-like domain"</title>
				<rect class="PF08240" x="272" y="28" stroke-linejoin="round" width="11" height="24" fill="rgb(211,65,138)" stroke="rgb(168,51,110)" stroke-width="1" opacity="0.75" />
			</g>
			<g>
				<title>ADH_zinc_N (PF00107)
"Zinc-binding dehydrogenase"</title>
				<polygon class="PF00107" points="287,28 288,28 300,40 300,40 288,52 287,52" stroke-linejoin="round" width="13" height="24" fill="rgb(81,108,215)" stroke="rgb(64,86,172)" stroke-width="1" opacity="0.75" />
			</g>
		</g>
		<g>
			<title> (ctg200_59)</title>
			<polygon class=" (ctg200_59)" points="306,25 311,25 311,10 341,40 311,70 311,55 306,55" fill="rgb(255,255,255)" fill-opacity="1.0" stroke="rgb(0,0,0)" stroke-width="2"  />
			<g>
				<title>ADH_N (PF08240)
"Alcohol dehydrogenase GroES-like domain"</title>
				<rect class="PF08240" x="308" y="28" stroke-linejoin="round" width="10" height="24" fill="rgb(211,65,138)" stroke="rgb(168,51,110)" stroke-width="1" opacity="0.75" />
			</g>
			<g>
				<title>ADH_zinc_N (PF00107)
"Zinc-binding dehydrogenase"</title>
				<polygon class="PF00107" points="323,28 325,28 336,39 336,41 325,52 323,52" stroke-linejoin="round" width="13" height="24" fill="rgb(81,108,215)" stroke="rgb(64,86,172)" stroke-width="1" opacity="0.75" />
			</g>
		</g>
		<g>
			<title> (ctg200_60)</title>
			<polygon class=" (ctg200_60)" points="343,25 345,25 345,10 375,40 345,70 345,55 343,55" fill="rgb(255,255,255)" fill-opacity="1.0" stroke="rgb(0,0,0)" stroke-width="2"  />
			<g>
				<title>SQS_PSY (PF00494)
"Squalene/phytoene synthase"</title>
				<polygon class="PF00494" points="346,28 358,28 370,40 358,52 346,52" stroke-linejoin="round" width="25" height="24" fill="rgb(178,91,49)" stroke="rgb(142,72,39)" stroke-width="1" opacity="0.75" />
			</g>
		</g>
		<g>
			<title> (ctg200_61)</title>
			<polygon class=" (ctg200_61)" points="374,10 403,40 374,70" fill="rgb(255,255,255)" fill-opacity="1.0" stroke="rgb(0,0,0)" stroke-width="2"  />
			<g>
				<title>SQS_PSY (PF00494)
"Squalene/phytoene synthase"</title>
				<polygon class="PF00494" points="375,28 387,28 399,40 387,52 375,52" stroke-linejoin="round" width="25" height="24" fill="rgb(178,91,49)" stroke="rgb(142,72,39)" stroke-width="1" opacity="0.75" />
			</g>
		</g>
		<g>
			<title> (ctg200_62)</title>
			<polygon class=" (ctg200_62)" points="402,25 421,25 421,10 451,40 421,70 421,55 402,55" fill="rgb(255,255,255)" fill-opacity="1.0" stroke="rgb(0,0,0)" stroke-width="2"  />
			<g>
				<title>Amino_oxidase (PF01593)
"Flavin containing amine oxidoreductase"</title>
				<polygon class="PF01593" points="404,28 435,28 444,37 444,43 435,52 404,52" stroke-linejoin="round" width="40" height="24" fill="rgb(184,74,52)" stroke="rgb(147,59,41)" stroke-width="1" opacity="0.75" />
			</g>
		</g>
		<g>
			<title> (ctg200_63)</title>
			<polygon class=" (ctg200_63)" points="563,25 497,25 497,10 467,40 497,70 497,55 563,55" fill="rgb(255,255,255)" fill-opacity="1.0" stroke="rgb(0,0,0)" stroke-width="2"  />
			<g>
				<title>Cytochrom_C (PF00034)
"Cytochrome c"</title>
				<polygon class="PF00034" points="471,40 480,31 480,49" stroke-linejoin="round" width="13" height="24" fill="rgb(130,184,61)" stroke="rgb(104,147,48)" stroke-width="1" opacity="0.75" />
			</g>
		</g>
		<g>
			<title> (ctg200_64)</title>
			<polygon class=" (ctg200_64)" points="569,10 589,40 569,70" fill="rgb(255,255,255)" fill-opacity="1.0" stroke="rgb(0,0,0)" stroke-width="2"  />
			<g>
				<title>Pur_DNA_glyco (PF02245)
"Methylpurine-DNA glycosylase (MPG)"</title>
				<polygon class="PF02245" points="571,28 577,28 586,40 577,52 571,52" stroke-linejoin="round" width="18" height="24" fill="rgb(224,94,125)" stroke="rgb(179,75,100)" stroke-width="1" opacity="0.75" />
			</g>
		</g>
		<g>
			<title> (ctg200_65)</title>
			<polygon class=" (ctg200_65)" points="591,25 602,25 602,10 632,40 602,70 602,55 591,55" fill="rgb(255,255,255)" fill-opacity="1.0" stroke="rgb(0,0,0)" stroke-width="2"  />
			<g>
				<title>IMS (PF00817)
"impB/mucB/samB family"</title>
				<rect class="PF00817" x="591" y="28" stroke-linejoin="round" width="14" height="24" fill="rgb(187,207,75)" stroke="rgb(149,165,60)" stroke-width="1" opacity="0.75" />
			</g>
			<g>
				<title>IMS_HHH (PF11798)
"IMS family HHH motif"</title>
				<rect class="PF11798" x="607" y="28" stroke-linejoin="round" width="3" height="24" fill="rgb(81,199,189)" stroke="rgb(64,159,151)" stroke-width="1" opacity="0.75" />
			</g>
			<g>
				<title>IMS_C (PF11799)
"impB/mucB/samB family C-terminal domain"</title>
				<polygon class="PF11799" points="615,28 616,28 626,38 626,42 616,52 615,52" stroke-linejoin="round" width="11" height="24" fill="rgb(68,195,187)" stroke="rgb(54,156,149)" stroke-width="1" opacity="0.75" />
			</g>
		</g>
		<g>
			<title> (ctg200_66)</title>
			<polygon class=" (ctg200_66)" points="631,10 634,40 631,70" fill="rgb(255,255,255)" fill-opacity="1.0" stroke="rgb(0,0,0)" stroke-width="2"  />
		</g>
		<g>
			<title> (ctg200_67)</title>
			<polygon class=" (ctg200_67)" points="678,25 666,25 666,10 636,40 666,70 666,55 678,55" fill="rgb(255,255,255)" fill-opacity="1.0" stroke="rgb(0,0,0)" stroke-width="2"  />
			<g>
				<title>ClpB_D2-small (PF10431)
"C-terminal, D2-small domain, of ClpB protein"</title>
				<polygon class="PF10431" points="640,40 645,35 645,45" stroke-linejoin="round" width="8" height="24" fill="rgb(190,198,67)" stroke="rgb(152,158,53)" stroke-width="1" opacity="0.75" />
			</g>
			<g>
				<title>AAA_2 (PF07724)
"AAA domain (Cdc48 subfamily)"</title>
				<polygon class="PF07724" points="646,34 652,28 666,28 666,52 652,52 646,46" stroke-linejoin="round" width="20" height="24" fill="rgb(132,215,72)" stroke="rgb(105,172,57)" stroke-width="1" opacity="0.75" />
			</g>
			<g>
				<title>zf-C4_ClpX (PF06689)
"ClpX C4-type zinc finger"</title>
				<rect class="PF06689" x="673" y="28" stroke-linejoin="round" width="4" height="24" fill="rgb(218,113,96)" stroke="rgb(174,90,76)" stroke-width="1" opacity="0.75" />
			</g>
		</g>
	</g>
</svg>
