<svg version="1.1" baseProfile="full" xmlns="http://www.w3.org/2000/svg" width="1426.5333333333333" height="80">
	<g>
		<line x1="10" y1="40.0" x2="1416.5333333333333" y2="40.0" style="stroke:rgb(70,70,70); stroke-width:3 "/>
		<g>
			<title> (ctg548_20)</title>
			<polygon class=" (ctg548_20)" points="60,10 70,40 60,70" fill="rgb(255,255,255)" fill-opacity="1.0" stroke="rgb(0,0,0)" stroke-width="2"  />
		</g>
		<g>
			<title> (ctg548_21)</title>
			<polygon class=" (ctg548_21)" points="91,40 99,10 99,70" fill="rgb(255,255,255)" fill-opacity="1.0" stroke="rgb(0,0,0)" stroke-width="2"  />
		</g>
		<g>
			<title> (ctg548_22)</title>
			<polygon class=" (ctg548_22)" points="109,10 120,40 109,70" fill="rgb(255,255,255)" fill-opacity="1.0" stroke="rgb(0,0,0)" stroke-width="2"  />
			<g>
				<title>DUF192 (PF02643)
"Uncharacterized ACR, COG1430"</title>
				<polygon class="PF02643" points="109,28 112,28 117,40 112,52 109,52" stroke-linejoin="round" width="10" height="24" fill="rgb(212,96,201)" stroke="rgb(169,76,160)" stroke-width="1" opacity="0.75" />
			</g>
		</g>
		<g>
			<title> (ctg548_23)</title>
			<polygon class=" (ctg548_23)" points="126,10 144,40 126,70" fill="rgb(255,255,255)" fill-opacity="1.0" stroke="rgb(0,0,0)" stroke-width="2"  />
		</g>
		<g>
			<title> (ctg548_24)</title>
			<polygon class=" (ctg548_24)" points="158,10 174,40 158,70" fill="rgb(255,255,255)" fill-opacity="1.0" stroke="rgb(0,0,0)" stroke-width="2"  />
		</g>
		<g>
			<title> (ctg548_25)</title>
			<polygon class=" (ctg548_25)" points="175,40 186,10 186,70" fill="rgb(255,255,255)" fill-opacity="1.0" stroke="rgb(0,0,0)" stroke-width="2"  />
			<g>
				<title>STAS (PF01740)
"STAS domain"</title>
				<polygon class="PF01740" points="178,40 183,28 185,28 185,52 183,52" stroke-linejoin="round" width="10" height="24" fill="rgb(219,58,116)" stroke="rgb(175,46,92)" stroke-width="1" opacity="0.75" />
			</g>
		</g>
		<g>
			<title> (ctg548_26)</title>
			<polygon class=" (ctg548_26)" points="210,10 235,40 210,70" fill="rgb(255,255,255)" fill-opacity="1.0" stroke="rgb(0,0,0)" stroke-width="2"  />
			<g>
				<title>DDE_Tnp_1_4 (PF13701)
"Transposase DDE domain group 1"</title>
				<polygon class="PF13701" points="215,28 221,28 231,40 221,52 215,52" stroke-linejoin="round" width="19" height="24" fill="rgb(187,172,89)" stroke="rgb(149,137,71)" stroke-width="1" opacity="0.75" />
			</g>
		</g>
		<g>
			<title> (ctg548_27)</title>
			<polygon class=" (ctg548_27)" points="237,10 251,40 237,70" fill="rgb(255,255,255)" fill-opacity="1.0" stroke="rgb(0,0,0)" stroke-width="2"  />
			<g>
				<title>DDE_Tnp_1_4 (PF13701)
"Transposase DDE domain group 1"</title>
				<polygon class="PF13701" points="238,28 242,28 248,40 242,52 238,52" stroke-linejoin="round" width="13" height="24" fill="rgb(187,172,89)" stroke="rgb(149,137,71)" stroke-width="1" opacity="0.75" />
			</g>
		</g>
		<g>
			<title> (ctg548_28)</title>
			<polygon class=" (ctg548_28)" points="269,10 293,40 269,70" fill="rgb(255,255,255)" fill-opacity="1.0" stroke="rgb(0,0,0)" stroke-width="2"  />
		</g>
		<g>
			<title> (ctg548_29)</title>
			<polygon class=" (ctg548_29)" points="299,10 305,40 299,70" fill="rgb(255,255,255)" fill-opacity="1.0" stroke="rgb(0,0,0)" stroke-width="2"  />
		</g>
		<g>
			<title> (ctg548_30)</title>
			<polygon class=" (ctg548_30)" points="327,10 342,40 327,70" fill="rgb(255,255,255)" fill-opacity="1.0" stroke="rgb(0,0,0)" stroke-width="2"  />
			<g>
				<title>Sulfate_transp (PF00916)
"Sulfate permease family"</title>
				<polygon class="PF00916" points="327,28 333,28 339,40 333,52 327,52" stroke-linejoin="round" width="14" height="24" fill="rgb(189,61,212)" stroke="rgb(151,48,169)" stroke-width="1" opacity="0.75" />
			</g>
		</g>
		<g>
			<title> (ctg548_31)</title>
			<polygon class=" (ctg548_31)" points="343,10 365,40 343,70" fill="rgb(255,255,255)" fill-opacity="1.0" stroke="rgb(0,0,0)" stroke-width="2"  />
			<g>
				<title>Sulfate_transp (PF00916)
"Sulfate permease family"</title>
				<polygon class="PF00916" points="343,28 352,28 361,40 352,52 343,52" stroke-linejoin="round" width="21" height="24" fill="rgb(189,61,212)" stroke="rgb(151,48,169)" stroke-width="1" opacity="0.75" />
			</g>
		</g>
		<g>
			<title> (ctg548_32)</title>
			<polygon class=" (ctg548_32)" points="368,25 369,25 369,10 399,40 369,70 369,55 368,55" fill="rgb(255,255,255)" fill-opacity="1.0" stroke="rgb(0,0,0)" stroke-width="2"  />
			<g>
				<title>STAS (PF01740)
"STAS domain"</title>
				<rect class="PF01740" x="371" y="28" stroke-linejoin="round" width="10" height="24" fill="rgb(219,58,116)" stroke="rgb(175,46,92)" stroke-width="1" opacity="0.75" />
			</g>
		</g>
		<g>
			<title> (ctg548_33)</title>
			<polygon class=" (ctg548_33)" points="416,10 430,40 416,70" fill="rgb(255,255,255)" fill-opacity="1.0" stroke="rgb(0,0,0)" stroke-width="2"  />
			<g>
				<title>3-dmu-9_3-mt (PF06983)
"3-demethylubiquinone-9 3-methyltransferase"</title>
				<polygon class="PF06983" points="416,28 420,28 426,40 420,52 416,52" stroke-linejoin="round" width="13" height="24" fill="rgb(64,57,201)" stroke="rgb(51,45,160)" stroke-width="1" opacity="0.75" />
			</g>
		</g>
		<g>
			<title> (ctg548_34)</title>
			<polygon class=" (ctg548_34)" points="430,10 441,40 430,70" fill="rgb(255,255,255)" fill-opacity="1.0" stroke="rgb(0,0,0)" stroke-width="2"  />
		</g>
		<g>
			<title> (ctg548_35)</title>
			<polygon class=" (ctg548_35)" points="446,10 460,40 446,70" fill="rgb(255,255,255)" fill-opacity="1.0" stroke="rgb(0,0,0)" stroke-width="2"  />
			<g>
				<title>Glyoxalase (PF00903)
"Glyoxalase/Bleomycin resistance protein/Dioxygenase superfamily"</title>
				<polygon class="PF00903" points="446,28 450,28 456,40 450,52 446,52" stroke-linejoin="round" width="12" height="24" fill="rgb(50,162,189)" stroke="rgb(40,129,151)" stroke-width="1" opacity="0.75" />
			</g>
		</g>
		<g>
			<title> (ctg548_36)</title>
			<polygon class=" (ctg548_36)" points="540,25 491,25 491,10 461,40 491,70 491,55 540,55" fill="rgb(255,255,255)" fill-opacity="1.0" stroke="rgb(0,0,0)" stroke-width="2"  />
			<g>
				<title>CBM9_1 (PF06452)
"Carbohydrate family 9 binding domain-like"</title>
				<rect class="PF06452" x="516" y="28" stroke-linejoin="round" width="15" height="24" fill="rgb(73,155,206)" stroke="rgb(58,123,164)" stroke-width="1" opacity="0.75" />
			</g>
		</g>
		<g>
			<title> (ctg548_37)</title>
			<polygon class=" (ctg548_37)" points="559,10 566,40 559,70" fill="rgb(255,255,255)" fill-opacity="1.0" stroke="rgb(0,0,0)" stroke-width="2"  />
			<g>
				<title>PP-binding (PF00550)
"Phosphopantetheine attachment site"</title>
				<polygon class="PF00550" points="559,28 560,28 563,40 560,52 559,52" stroke-linejoin="round" width="6" height="24" fill="rgb(103,191,88)" stroke="rgb(82,152,70)" stroke-width="1" opacity="0.75" />
			</g>
		</g>
		<g>
			<title> (ctg548_38)</title>
			<polygon class=" (ctg548_38)" points="568,10 597,40 568,70" fill="rgb(255,255,255)" fill-opacity="1.0" stroke="rgb(0,0,0)" stroke-width="2"  />
			<g>
				<title>Abhydrolase_6 (PF12697)
"Alpha/beta hydrolase family"</title>
				<polygon class="PF12697" points="571,28 581,28 593,40 581,52 571,52" stroke-linejoin="round" width="24" height="24" fill="rgb(113,71,219)" stroke="rgb(90,56,175)" stroke-width="1" opacity="0.75" />
			</g>
		</g>
		<g>
			<title> (ctg548_39)</title>
			<polygon class=" (ctg548_39)" points="633,25 631,25 631,10 601,40 631,70 631,55 633,55" fill="rgb(255,255,255)" fill-opacity="1.0" stroke="rgb(0,0,0)" stroke-width="2"  />
		</g>
		<g>
			<title> (ctg548_40)</title>
			<polygon class=" (ctg548_40)" points="639,10 648,40 639,70" fill="rgb(255,255,255)" fill-opacity="1.0" stroke="rgb(0,0,0)" stroke-width="2"  />
		</g>
		<g>
			<title> (ctg548_41)</title>
			<polygon class=" (ctg548_41)" points="676,25 955,25 955,10 985,40 955,70 955,55 676,55" fill="rgb(255,255,255)" fill-opacity="1.0" stroke="rgb(0,0,0)" stroke-width="2"  />
			<g>
				<title>ketoacyl-synt (PF00109)
"Beta-ketoacyl synthase, N-terminal domain"</title>
				<rect class="PF00109" x="676" y="28" stroke-linejoin="round" width="20" height="24" fill="rgb(112,116,228)" stroke="rgb(89,92,182)" stroke-width="1" opacity="0.75" />
			</g>
			<g>
				<title>Ketoacyl-synt_C (PF02801)
"Beta-ketoacyl synthase, C-terminal domain"</title>
				<rect class="PF02801" x="697" y="28" stroke-linejoin="round" width="11" height="24" fill="rgb(215,78,102)" stroke="rgb(172,62,81)" stroke-width="1" opacity="0.75" />
			</g>
			<g>
				<title>KAsynt_C_assoc (PF16197)
"Ketoacyl-synthetase C-terminal extension"</title>
				<rect class="PF16197" x="709" y="28" stroke-linejoin="round" width="13" height="24" fill="rgb(240,150,172)" stroke="rgb(192,120,137)" stroke-width="1" opacity="0.75" />
			</g>
			<g>
				<title>Acyl_transf_1 (PF00698)
"Acyl transferase domain"</title>
				<rect class="PF00698" x="726" y="28" stroke-linejoin="round" width="31" height="24" fill="rgb(59,176,209)" stroke="rgb(47,140,167)" stroke-width="1" opacity="0.75" />
			</g>
			<g>
				<title>PS-DH (PF14765)
"Polyketide synthase dehydratase"</title>
				<rect class="PF14765" x="763" y="28" stroke-linejoin="round" width="29" height="24" fill="rgb(173,56,182)" stroke="rgb(138,44,145)" stroke-width="1" opacity="0.75" />
			</g>
			<g>
				<title>Methyltransf_12 (PF08242)
"Methyltransferase domain"</title>
				<rect class="PF08242" x="816" y="28" stroke-linejoin="round" width="10" height="24" fill="rgb(187,59,115)" stroke="rgb(149,47,92)" stroke-width="1" opacity="0.75" />
			</g>
			<g>
				<title>ADH_N (PF08240)
"Alcohol dehydrogenase GroES-like domain"</title>
				<rect class="PF08240" x="857" y="28" stroke-linejoin="round" width="6" height="24" fill="rgb(211,65,138)" stroke="rgb(168,51,110)" stroke-width="1" opacity="0.75" />
			</g>
			<g>
				<title>ADH_zinc_N_2 (PF13602)
"Zinc-binding dehydrogenase"</title>
				<rect class="PF13602" x="872" y="28" stroke-linejoin="round" width="13" height="24" fill="rgb(101,131,226)" stroke="rgb(80,104,180)" stroke-width="1" opacity="0.75" />
			</g>
			<g>
				<title>KR (PF08659)
"KR domain"</title>
				<rect class="PF08659" x="888" y="28" stroke-linejoin="round" width="17" height="24" fill="rgb(66,209,188)" stroke="rgb(52,167,150)" stroke-width="1" opacity="0.75" />
			</g>
			<g>
				<title>PP-binding (PF00550)
"Phosphopantetheine attachment site"</title>
				<rect class="PF00550" x="915" y="28" stroke-linejoin="round" width="6" height="24" fill="rgb(103,191,88)" stroke="rgb(82,152,70)" stroke-width="1" opacity="0.75" />
			</g>
			<g>
				<title>ketoacyl-synt (PF00109)
"Beta-ketoacyl synthase, N-terminal domain"</title>
				<rect class="PF00109" x="925" y="28" stroke-linejoin="round" width="24" height="24" fill="rgb(112,116,228)" stroke="rgb(89,92,182)" stroke-width="1" opacity="0.75" />
			</g>
			<g>
				<title>Ketoacyl-synt_C (PF02801)
"Beta-ketoacyl synthase, C-terminal domain"</title>
				<rect class="PF02801" x="950" y="28" stroke-linejoin="round" width="11" height="24" fill="rgb(215,78,102)" stroke="rgb(172,62,81)" stroke-width="1" opacity="0.75" />
			</g>
			<g>
				<title>KAsynt_C_assoc (PF16197)
"Ketoacyl-synthetase C-terminal extension"</title>
				<polygon class="PF16197" points="962,28 969,28 976,35 976,45 969,52 962,52" stroke-linejoin="round" width="14" height="24" fill="rgb(240,150,172)" stroke="rgb(192,120,137)" stroke-width="1" opacity="0.75" />
			</g>
		</g>
		<g>
			<title> (ctg548_42)</title>
			<polygon class=" (ctg548_42)" points="994,10 1021,40 994,70" fill="rgb(255,255,255)" fill-opacity="1.0" stroke="rgb(0,0,0)" stroke-width="2"  />
			<g>
				<title>Metallophos (PF00149)
"Calcineurin-like phosphoesterase"</title>
				<polygon class="PF00149" points="994,28 1006,28 1017,40 1017,40 1006,52 994,52" stroke-linejoin="round" width="23" height="24" fill="rgb(181,197,58)" stroke="rgb(144,157,46)" stroke-width="1" opacity="0.75" />
			</g>
		</g>
		<g>
			<title> (ctg548_43)</title>
			<polygon class=" (ctg548_43)" points="1022,10 1046,40 1022,70" fill="rgb(255,255,255)" fill-opacity="1.0" stroke="rgb(0,0,0)" stroke-width="2"  />
			<g>
				<title>ACPS (PF01648)
"4'-phosphopantetheinyl transferase superfamily"</title>
				<polygon class="PF01648" points="1034,30 1042,40 1034,50" stroke-linejoin="round" width="9" height="24" fill="rgb(85,184,135)" stroke="rgb(68,147,108)" stroke-width="1" opacity="0.75" />
			</g>
		</g>
		<g>
			<title> (ctg548_44)</title>
			<polygon class=" (ctg548_44)" points="1064,40 1079,10 1079,70" fill="rgb(255,255,255)" fill-opacity="1.0" stroke="rgb(0,0,0)" stroke-width="2"  />
			<g>
				<title>HSP20 (PF00011)
"Hsp20/alpha crystallin family"</title>
				<polygon class="PF00011" points="1067,40 1073,28 1074,28 1074,52 1073,52" stroke-linejoin="round" width="10" height="24" fill="rgb(148,223,75)" stroke="rgb(118,178,60)" stroke-width="1" opacity="0.75" />
			</g>
		</g>
		<g>
			<title> (ctg548_45)</title>
			<polygon class=" (ctg548_45)" points="1119,25 1132,25 1132,10 1162,40 1132,70 1132,55 1119,55" fill="rgb(255,255,255)" fill-opacity="1.0" stroke="rgb(0,0,0)" stroke-width="2"  />
			<g>
				<title>HATPase_c (PF02518)
"Histidine kinase-, DNA gyrase B-, and HSP90-like ATPase"</title>
				<polygon class="PF02518" points="1148,30 1158,40 1148,50" stroke-linejoin="round" width="11" height="24" fill="rgb(80,94,225)" stroke="rgb(64,75,180)" stroke-width="1" opacity="0.75" />
			</g>
		</g>
		<g>
			<title> (ctg548_46)</title>
			<polygon class=" (ctg548_46)" points="1163,25 1178,25 1178,10 1208,40 1178,70 1178,55 1163,55" fill="rgb(255,255,255)" fill-opacity="1.0" stroke="rgb(0,0,0)" stroke-width="2"  />
			<g>
				<title>Response_reg (PF00072)
"Response regulator receiver domain"</title>
				<rect class="PF00072" x="1163" y="28" stroke-linejoin="round" width="11" height="24" fill="rgb(100,107,203)" stroke="rgb(80,85,162)" stroke-width="1" opacity="0.75" />
			</g>
			<g>
				<title>Sigma54_activat (PF00158)
"Sigma-54 interaction domain"</title>
				<rect class="PF00158" x="1176" y="28" stroke-linejoin="round" width="16" height="24" fill="rgb(101,145,216)" stroke="rgb(80,115,172)" stroke-width="1" opacity="0.75" />
			</g>
			<g>
				<title>HTH_8 (PF02954)
"Bacterial regulatory protein, Fis family"</title>
				<polygon class="PF02954" points="1203,39 1204,40 1203,41" stroke-linejoin="round" width="4" height="24" fill="rgb(168,63,200)" stroke="rgb(134,50,160)" stroke-width="1" opacity="0.75" />
			</g>
		</g>
		<g>
			<title> (ctg548_47)</title>
			<polygon class=" (ctg548_47)" points="1210,25 1237,25 1237,10 1267,40 1237,70 1237,55 1210,55" fill="rgb(255,255,255)" fill-opacity="1.0" stroke="rgb(0,0,0)" stroke-width="2"  />
		</g>
		<g>
			<title> (ctg548_48)</title>
			<polygon class=" (ctg548_48)" points="1270,10 1291,40 1270,70" fill="rgb(255,255,255)" fill-opacity="1.0" stroke="rgb(0,0,0)" stroke-width="2"  />
		</g>
		<g>
			<title> (ctg548_49)</title>
			<polygon class=" (ctg548_49)" points="1332,25 1324,25 1324,10 1294,40 1324,70 1324,55 1332,55" fill="rgb(255,255,255)" fill-opacity="1.0" stroke="rgb(0,0,0)" stroke-width="2"  />
			<g>
				<title>MR_MLE_C (PF13378)
"Enolase C-terminal domain-like"</title>
				<polygon class="PF13378" points="1298,40 1310,28 1317,28 1317,52 1310,52" stroke-linejoin="round" width="21" height="24" fill="rgb(191,184,94)" stroke="rgb(152,147,75)" stroke-width="1" opacity="0.75" />
			</g>
			<g>
				<title>MR_MLE_N (PF02746)
"Mandelate racemase / muconate lactonizing enzyme, N-terminal domain"</title>
				<rect class="PF02746" x="1319" y="28" stroke-linejoin="round" width="12" height="24" fill="rgb(63,73,226)" stroke="rgb(50,58,180)" stroke-width="1" opacity="0.75" />
			</g>
		</g>
		<g>
			<title> (ctg548_50)</title>
			<polygon class=" (ctg548_50)" points="1372,25 1362,25 1362,10 1332,40 1362,70 1362,55 1372,55" fill="rgb(255,255,255)" fill-opacity="1.0" stroke="rgb(0,0,0)" stroke-width="2"  />
		</g>
		<g>
			<title> (ctg548_51)</title>
			<polygon class=" (ctg548_51)" points="1413,25 1403,25 1403,10 1373,40 1403,70 1403,55 1413,55" fill="rgb(255,255,255)" fill-opacity="1.0" stroke="rgb(0,0,0)" stroke-width="2"  />
			<g>
				<title>Peptidase_M20 (PF01546)
"Peptidase family M20/M25/M40"</title>
				<polygon class="PF01546" points="1377,40 1389,28 1403,28 1403,52 1389,52" stroke-linejoin="round" width="29" height="24" fill="rgb(88,213,108)" stroke="rgb(70,170,86)" stroke-width="1" opacity="0.75" />
			</g>
		</g>
	</g>
</svg>
