<svg version="1.1" baseProfile="full" xmlns="http://www.w3.org/2000/svg" width="394.3" height="80">
	<g>
		<line x1="10" y1="40.0" x2="384.3" y2="40.0" style="stroke:rgb(70,70,70); stroke-width:3 "/>
		<g>
			<title> (ctg1842_25)</title>
			<polygon class=" (ctg1842_25)" points="37,40 52,10 52,70" fill="rgb(255,255,255)" fill-opacity="1.0" stroke="rgb(0,0,0)" stroke-width="2"  />
			<g>
				<title>Fer2_2 (PF01799)
"[2Fe-2S] binding domain"</title>
				<polygon class="PF01799" points="40,40 45,31 45,49" stroke-linejoin="round" width="7" height="24" fill="rgb(67,193,124)" stroke="rgb(53,154,99)" stroke-width="1" opacity="0.75" />
			</g>
			<g>
				<title>Fer2 (PF00111)
"2Fe-2S iron-sulfur cluster binding domain"</title>
				<polygon class="PF00111" points="44,32 46,28 51,28 51,52 46,52 44,48" stroke-linejoin="round" width="7" height="24" fill="rgb(60,59,191)" stroke="rgb(48,47,152)" stroke-width="1" opacity="0.75" />
			</g>
		</g>
		<g>
			<title> (ctg1842_26)</title>
			<polygon class=" (ctg1842_26)" points="54,40 73,10 73,70" fill="rgb(255,255,255)" fill-opacity="1.0" stroke="rgb(0,0,0)" stroke-width="2"  />
			<g>
				<title>CO_deh_flav_C (PF03450)
"CO dehydrogenase flavoprotein C-terminal domain"</title>
				<polygon class="PF03450" points="58,40 64,31 64,49" stroke-linejoin="round" width="10" height="24" fill="rgb(68,181,100)" stroke="rgb(54,144,80)" stroke-width="1" opacity="0.75" />
			</g>
			<g>
				<title>FAD_binding_5 (PF00941)
"FAD binding domain in molybdopterin dehydrogenase"</title>
				<polygon class="PF00941" points="65,29 66,28 72,28 72,52 66,52 65,51" stroke-linejoin="round" width="7" height="24" fill="rgb(67,160,198)" stroke="rgb(53,128,158)" stroke-width="1" opacity="0.75" />
			</g>
		</g>
		<g>
			<title> (ctg1842_27)</title>
			<polygon class=" (ctg1842_27)" points="84,40 99,10 99,70" fill="rgb(255,255,255)" fill-opacity="1.0" stroke="rgb(0,0,0)" stroke-width="2"  />
			<g>
				<title>COXG (PF06240)
"Carbon monoxide dehydrogenase subunit G (CoxG)"</title>
				<polygon class="PF06240" points="87,40 93,28 98,28 98,52 93,52" stroke-linejoin="round" width="14" height="24" fill="rgb(63,211,120)" stroke="rgb(50,168,96)" stroke-width="1" opacity="0.75" />
			</g>
		</g>
		<g>
			<title> (ctg1842_28)</title>
			<polygon class=" (ctg1842_28)" points="100,40 112,10 112,70" fill="rgb(255,255,255)" fill-opacity="1.0" stroke="rgb(0,0,0)" stroke-width="2"  />
		</g>
		<g>
			<title> (ctg1842_29)</title>
			<polygon class=" (ctg1842_29)" points="150,25 143,25 143,10 113,40 143,70 143,55 150,55" fill="rgb(255,255,255)" fill-opacity="1.0" stroke="rgb(0,0,0)" stroke-width="2"  />
			<g>
				<title>DAO (PF01266)
"FAD dependent oxidoreductase"</title>
				<polygon class="PF01266" points="117,40 129,28 148,28 148,52 129,52" stroke-linejoin="round" width="33" height="24" fill="rgb(123,179,59)" stroke="rgb(98,143,47)" stroke-width="1" opacity="0.75" />
			</g>
		</g>
		<g>
			<title> (ctg1842_30)</title>
			<polygon class=" (ctg1842_30)" points="152,10 161,40 152,70" fill="rgb(255,255,255)" fill-opacity="1.0" stroke="rgb(0,0,0)" stroke-width="2"  />
		</g>
		<g>
			<title> (ctg1842_31)</title>
			<polygon class=" (ctg1842_31)" points="162,25 163,25 163,10 193,40 163,70 163,55 162,55" fill="rgb(255,255,255)" fill-opacity="1.0" stroke="rgb(0,0,0)" stroke-width="2"  />
			<g>
				<title>PALP (PF00291)
"Pyridoxal-phosphate dependent enzyme"</title>
				<polygon class="PF00291" points="163,28 177,28 189,40 177,52 163,52" stroke-linejoin="round" width="28" height="24" fill="rgb(180,55,145)" stroke="rgb(144,44,116)" stroke-width="1" opacity="0.75" />
			</g>
		</g>
		<g>
			<title> (ctg1842_32)</title>
			<polygon class=" (ctg1842_32)" points="199,40 210,10 210,70" fill="rgb(255,255,255)" fill-opacity="1.0" stroke="rgb(0,0,0)" stroke-width="2"  />
		</g>
		<g>
			<title> (ctg1842_33)</title>
			<polygon class=" (ctg1842_33)" points="216,10 232,40 216,70" fill="rgb(255,255,255)" fill-opacity="1.0" stroke="rgb(0,0,0)" stroke-width="2"  />
			<g>
				<title>PTPS (PF01242)
"6-pyruvoyl tetrahydropterin synthase"</title>
				<polygon class="PF01242" points="217,28 222,28 229,40 222,52 217,52" stroke-linejoin="round" width="15" height="24" fill="rgb(179,224,60)" stroke="rgb(143,179,48)" stroke-width="1" opacity="0.75" />
			</g>
		</g>
		<g>
			<title> (ctg1842_34)</title>
			<polygon class=" (ctg1842_34)" points="240,10 263,40 240,70" fill="rgb(255,255,255)" fill-opacity="1.0" stroke="rgb(0,0,0)" stroke-width="2"  />
			<g>
				<title>adh_short_C2 (PF13561)
"Enoyl-(Acyl carrier protein) reductase"</title>
				<polygon class="PF13561" points="240,28 250,28 259,40 250,52 240,52" stroke-linejoin="round" width="22" height="24" fill="rgb(73,205,127)" stroke="rgb(58,164,101)" stroke-width="1" opacity="0.75" />
			</g>
		</g>
		<g>
			<title> (ctg1842_35)</title>
			<polygon class=" (ctg1842_35)" points="268,40 291,10 291,70" fill="rgb(255,255,255)" fill-opacity="1.0" stroke="rgb(0,0,0)" stroke-width="2"  />
			<g>
				<title>Vut_1 (PF02592)
"Putative vitamin uptake transporter"</title>
				<polygon class="PF02592" points="272,40 281,28 288,28 288,52 281,52" stroke-linejoin="round" width="18" height="24" fill="rgb(93,184,75)" stroke="rgb(74,147,60)" stroke-width="1" opacity="0.75" />
			</g>
		</g>
		<g>
			<title> (ctg1842_36)</title>
			<polygon class=" (ctg1842_36)" points="300,25 302,25 302,10 332,40 302,70 302,55 300,55" fill="rgb(255,255,255)" fill-opacity="1.0" stroke="rgb(0,0,0)" stroke-width="2"  />
			<g>
				<title>OCD_Mu_crystall (PF02423)
"Ornithine cyclodeaminase/mu-crystallin family"</title>
				<polygon class="PF02423" points="300,28 316,28 328,40 316,52 300,52" stroke-linejoin="round" width="31" height="24" fill="rgb(221,120,93)" stroke="rgb(176,96,74)" stroke-width="1" opacity="0.75" />
			</g>
		</g>
		<g>
			<title> (ctg1842_37)</title>
			<polygon class=" (ctg1842_37)" points="343,25 353,25 353,10 383,40 353,70 353,55 343,55" fill="rgb(255,255,255)" fill-opacity="1.0" stroke="rgb(0,0,0)" stroke-width="2"  />
			<g>
				<title>SQHop_cyclase_N (PF13249)
"Squalene-hopene cyclase N-terminal domain"</title>
				<polygon class="PF13249" points="343,28 367,28 370,31 370,49 367,52 343,52" stroke-linejoin="round" width="27" height="24" fill="rgb(88,190,89)" stroke="rgb(70,152,71)" stroke-width="1" opacity="0.75" />
			</g>
			<g>
				<title>SQHop_cyclase_C (PF13243)
"Squalene-hopene cyclase C-terminal domain"</title>
				<polygon class="PF13243" points="371,32 379,40 371,48" stroke-linejoin="round" width="12" height="24" fill="rgb(191,58,201)" stroke="rgb(152,46,160)" stroke-width="1" opacity="0.75" />
			</g>
		</g>
	</g>
</svg>
