<svg version="1.1" baseProfile="full" xmlns="http://www.w3.org/2000/svg" width="464.03333333333336" height="80">
	<g>
		<line x1="10" y1="40.0" x2="454.03333333333336" y2="40.0" style="stroke:rgb(70,70,70); stroke-width:3 "/>
		<g>
			<title> (ctg5711_1)</title>
			<polygon class=" (ctg5711_1)" points="10,40 21,10 21,70" fill="rgb(255,255,255)" fill-opacity="1.0" stroke="rgb(0,0,0)" stroke-width="2"  />
			<g>
				<title>Cytochrome_CBB3 (PF13442)
"Cytochrome C oxidase, cbb3-type, subunit III"</title>
				<polygon class="PF13442" points="13,40 17,30 17,50" stroke-linejoin="round" width="7" height="24" fill="rgb(49,184,120)" stroke="rgb(39,147,96)" stroke-width="1" opacity="0.75" />
			</g>
		</g>
		<g>
			<title> (ctg5711_2)</title>
			<polygon class=" (ctg5711_2)" points="31,10 40,40 31,70" fill="rgb(255,255,255)" fill-opacity="1.0" stroke="rgb(0,0,0)" stroke-width="2"  />
			<g>
				<title>PhdYeFM_antitox (PF02604)
"Antitoxin Phd_YefM, type II toxin-antitoxin system"</title>
				<polygon class="PF02604" points="32,28 33,28 36,36 36,44 33,52 32,52" stroke-linejoin="round" width="4" height="24" fill="rgb(204,60,69)" stroke="rgb(163,48,55)" stroke-width="1" opacity="0.75" />
			</g>
		</g>
		<g>
			<title> (ctg5711_3)</title>
			<polygon class=" (ctg5711_3)" points="45,10 53,40 45,70" fill="rgb(255,255,255)" fill-opacity="1.0" stroke="rgb(0,0,0)" stroke-width="2"  />
		</g>
		<g>
			<title> (ctg5711_4)</title>
			<polygon class=" (ctg5711_4)" points="59,25 96,25 96,10 126,40 96,70 96,55 59,55" fill="rgb(255,255,255)" fill-opacity="1.0" stroke="rgb(0,0,0)" stroke-width="2"  />
			<g>
				<title>PSCyt1 (PF07635)
"Planctomycete cytochrome C"</title>
				<rect class="PF07635" x="63" y="28" stroke-linejoin="round" width="4" height="24" fill="rgb(198,62,63)" stroke="rgb(158,49,50)" stroke-width="1" opacity="0.75" />
			</g>
			<g>
				<title>PSD3 (PF07626)
"Protein of unknown function (DUF1587)"</title>
				<rect class="PF07626" x="72" y="28" stroke-linejoin="round" width="6" height="24" fill="rgb(62,218,224)" stroke="rgb(49,174,179)" stroke-width="1" opacity="0.75" />
			</g>
			<g>
				<title>PSD5 (PF07637)
"Protein of unknown function (DUF1595)"</title>
				<rect class="PF07637" x="81" y="28" stroke-linejoin="round" width="6" height="24" fill="rgb(196,184,54)" stroke="rgb(156,147,43)" stroke-width="1" opacity="0.75" />
			</g>
			<g>
				<title>PSD4 (PF07631)
"Protein of unknown function (DUF1592)"</title>
				<rect class="PF07631" x="89" y="28" stroke-linejoin="round" width="12" height="24" fill="rgb(219,128,62)" stroke="rgb(175,102,49)" stroke-width="1" opacity="0.75" />
			</g>
			<g>
				<title>PSCyt3 (PF07627)
"Protein of unknown function (DUF1588)"</title>
				<polygon class="PF07627" points="103,28 110,28 112,30 112,50 110,52 103,52" stroke-linejoin="round" width="9" height="24" fill="rgb(203,90,210)" stroke="rgb(162,72,168)" stroke-width="1" opacity="0.75" />
			</g>
			<g>
				<title>PSD2 (PF07624)
"Protein of unknown function (DUF1585)"</title>
				<polygon class="PF07624" points="118,36 122,40 118,44" stroke-linejoin="round" width="7" height="24" fill="rgb(83,184,175)" stroke="rgb(66,147,140)" stroke-width="1" opacity="0.75" />
			</g>
		</g>
		<g>
			<title> (ctg5711_5)</title>
			<polygon class=" (ctg5711_5)" points="129,25 144,25 144,10 174,40 144,70 144,55 129,55" fill="rgb(255,255,255)" fill-opacity="1.0" stroke="rgb(0,0,0)" stroke-width="2"  />
			<g>
				<title>HXXSHH (PF07586)
"Protein of unknown function (DUF1552)"</title>
				<polygon class="PF07586" points="133,28 158,28 164,34 164,46 158,52 133,52" stroke-linejoin="round" width="31" height="24" fill="rgb(223,99,133)" stroke="rgb(178,79,106)" stroke-width="1" opacity="0.75" />
			</g>
		</g>
		<g>
			<title> (ctg5711_6)</title>
			<polygon class=" (ctg5711_6)" points="256,25 208,25 208,10 178,40 208,70 208,55 256,55" fill="rgb(255,255,255)" fill-opacity="1.0" stroke="rgb(0,0,0)" stroke-width="2"  />
			<g>
				<title>Trans_reg_C (PF00486)
"Transcriptional regulatory protein, C terminal"</title>
				<polygon class="PF00486" points="182,40 185,37 185,43" stroke-linejoin="round" width="7" height="24" fill="rgb(204,153,57)" stroke="rgb(163,122,45)" stroke-width="1" opacity="0.75" />
			</g>
			<g>
				<title>Response_reg (PF00072)
"Response regulator receiver domain"</title>
				<polygon class="PF00072" points="189,33 194,28 199,28 199,52 194,52 189,47" stroke-linejoin="round" width="10" height="24" fill="rgb(100,107,203)" stroke="rgb(80,85,162)" stroke-width="1" opacity="0.75" />
			</g>
			<g>
				<title>HATPase_c (PF02518)
"Histidine kinase-, DNA gyrase B-, and HSP90-like ATPase"</title>
				<rect class="PF02518" x="202" y="28" stroke-linejoin="round" width="11" height="24" fill="rgb(80,94,225)" stroke="rgb(64,75,180)" stroke-width="1" opacity="0.75" />
			</g>
			<g>
				<title>HisKA (PF00512)
"His Kinase A (phospho-acceptor) domain"</title>
				<rect class="PF00512" x="218" y="28" stroke-linejoin="round" width="6" height="24" fill="rgb(193,125,62)" stroke="rgb(154,100,49)" stroke-width="1" opacity="0.75" />
			</g>
			<g>
				<title>GAF_2 (PF13185)
"GAF domain"</title>
				<rect class="PF13185" x="239" y="28" stroke-linejoin="round" width="14" height="24" fill="rgb(158,189,90)" stroke="rgb(126,151,72)" stroke-width="1" opacity="0.75" />
			</g>
		</g>
		<g>
			<title> (ctg5711_7)</title>
			<polygon class=" (ctg5711_7)" points="269,25 295,25 295,10 325,40 295,70 295,55 269,55" fill="rgb(255,255,255)" fill-opacity="1.0" stroke="rgb(0,0,0)" stroke-width="2"  />
			<g>
				<title>Trp_halogenase (PF04820)
"Tryptophan halogenase"</title>
				<rect class="PF04820" x="278" y="28" stroke-linejoin="round" width="27" height="24" fill="rgb(179,74,194)" stroke="rgb(143,59,155)" stroke-width="1" opacity="0.75" />
			</g>
		</g>
		<g>
			<title> (ctg5711_8)</title>
			<polygon class=" (ctg5711_8)" points="325,25 331,25 331,10 361,40 331,70 331,55 325,55" fill="rgb(255,255,255)" fill-opacity="1.0" stroke="rgb(0,0,0)" stroke-width="2"  />
			<g>
				<title>Chal_sti_synt_N (PF00195)
"Chalcone and stilbene synthases, N-terminal domain"</title>
				<polygon class="PF00195" points="325,28 344,28 345,29 345,51 344,52 325,52" stroke-linejoin="round" width="20" height="24" fill="rgb(60,181,161)" stroke="rgb(47,144,128)" stroke-width="1" opacity="0.75" />
			</g>
			<g>
				<title>Chal_sti_synt_C (PF02797)
"Chalcone and stilbene synthases, C-terminal domain"</title>
				<polygon class="PF02797" points="346,30 356,40 346,50" stroke-linejoin="round" width="14" height="24" fill="rgb(139,212,63)" stroke="rgb(111,169,50)" stroke-width="1" opacity="0.75" />
			</g>
		</g>
		<g>
			<title> (ctg5711_9)</title>
			<polygon class=" (ctg5711_9)" points="361,10 379,40 361,70" fill="rgb(255,255,255)" fill-opacity="1.0" stroke="rgb(0,0,0)" stroke-width="2"  />
			<g>
				<title>ICMT (PF04140)
"Isoprenylcysteine carboxyl methyltransferase (ICMT) family"</title>
				<polygon class="PF04140" points="368,28 368,28 375,40 368,52 368,52" stroke-linejoin="round" width="9" height="24" fill="rgb(100,223,104)" stroke="rgb(80,178,83)" stroke-width="1" opacity="0.75" />
			</g>
		</g>
		<g>
			<title> (ctg5711_10)</title>
			<polygon class=" (ctg5711_10)" points="380,25 416,25 416,10 446,40 416,70 416,55 380,55" fill="rgb(255,255,255)" fill-opacity="1.0" stroke="rgb(0,0,0)" stroke-width="2"  />
			<g>
				<title>GPP34 (PF05719)
"Golgi phosphoprotein 3 (GPP34)"</title>
				<rect class="PF05719" x="380" y="28" stroke-linejoin="round" width="20" height="24" fill="rgb(221,100,205)" stroke="rgb(176,80,163)" stroke-width="1" opacity="0.75" />
			</g>
			<g>
				<title>p450 (PF00067)
"Cytochrome P450"</title>
				<polygon class="PF00067" points="402,28 429,28 441,40 429,52 402,52" stroke-linejoin="round" width="42" height="24" fill="rgb(85,216,107)" stroke="rgb(68,172,85)" stroke-width="1" opacity="0.75" />
			</g>
		</g>
		<g>
			<title> (ctg5711_11)</title>
			<polygon class=" (ctg5711_11)" points="451,10 453,40 451,70" fill="rgb(255,255,255)" fill-opacity="1.0" stroke="rgb(0,0,0)" stroke-width="2"  />
		</g>
	</g>
</svg>
