<svg version="1.1" baseProfile="full" xmlns="http://www.w3.org/2000/svg" width="1499.8333333333333" height="80">
	<g>
		<line x1="10" y1="40.0" x2="1489.8333333333333" y2="40.0" style="stroke:rgb(70,70,70); stroke-width:3 "/>
		<g>
			<title> (ctg77_61)</title>
			<polygon class=" (ctg77_61)" points="18,40 33,10 33,70" fill="rgb(255,255,255)" fill-opacity="1.0" stroke="rgb(0,0,0)" stroke-width="2"  />
			<g>
				<title>MoaC (PF01967)
"MoaC family"</title>
				<polygon class="PF01967" points="21,40 27,28 31,28 31,52 27,52" stroke-linejoin="round" width="13" height="24" fill="rgb(81,126,206)" stroke="rgb(64,100,164)" stroke-width="1" opacity="0.75" />
			</g>
		</g>
		<g>
			<title> (ctg77_62)</title>
			<polygon class=" (ctg77_62)" points="75,25 64,25 64,10 34,40 64,70 64,55 75,55" fill="rgb(255,255,255)" fill-opacity="1.0" stroke="rgb(0,0,0)" stroke-width="2"  />
			<g>
				<title>MoeA_C (PF03454)
"MoeA C-terminal region (domain IV)"</title>
				<polygon class="PF03454" points="38,40 42,36 42,44" stroke-linejoin="round" width="7" height="24" fill="rgb(59,190,161)" stroke="rgb(47,152,128)" stroke-width="1" opacity="0.75" />
			</g>
			<g>
				<title>MoCF_biosynth (PF00994)
"Probable molybdopterin binding domain"</title>
				<polygon class="PF00994" points="43,35 50,28 56,28 56,52 50,52 43,45" stroke-linejoin="round" width="13" height="24" fill="rgb(75,187,175)" stroke="rgb(60,149,139)" stroke-width="1" opacity="0.75" />
			</g>
			<g>
				<title>MoeA_N (PF03453)
"MoeA N-terminal region (domain I and II)"</title>
				<rect class="PF03453" x="58" y="28" stroke-linejoin="round" width="16" height="24" fill="rgb(93,188,107)" stroke="rgb(74,150,85)" stroke-width="1" opacity="0.75" />
			</g>
		</g>
		<g>
			<title> (ctg77_63)</title>
			<polygon class=" (ctg77_63)" points="129,25 106,25 106,10 76,40 106,70 106,55 129,55" fill="rgb(255,255,255)" fill-opacity="1.0" stroke="rgb(0,0,0)" stroke-width="2"  />
			<g>
				<title>MM_CoA_mutase (PF01642)
"Methylmalonyl-CoA mutase"</title>
				<polygon class="PF01642" points="80,40 92,28 126,28 126,52 92,52" stroke-linejoin="round" width="50" height="24" fill="rgb(67,86,223)" stroke="rgb(53,68,178)" stroke-width="1" opacity="0.75" />
			</g>
		</g>
		<g>
			<title> (ctg77_64)</title>
			<polygon class=" (ctg77_64)" points="133,10 141,40 133,70" fill="rgb(255,255,255)" fill-opacity="1.0" stroke="rgb(0,0,0)" stroke-width="2"  />
		</g>
		<g>
			<title> (ctg77_65)</title>
			<polygon class=" (ctg77_65)" points="144,25 177,25 177,10 207,40 177,70 177,55 144,55" fill="rgb(255,255,255)" fill-opacity="1.0" stroke="rgb(0,0,0)" stroke-width="2"  />
			<g>
				<title>GIDA (PF01134)
"Glucose inhibited division protein A"</title>
				<rect class="PF01134" x="144" y="28" stroke-linejoin="round" width="39" height="24" fill="rgb(180,78,98)" stroke="rgb(144,62,78)" stroke-width="1" opacity="0.75" />
			</g>
			<g>
				<title>GIDA_assoc (PF13932)
"GidA associated domain"</title>
				<polygon class="PF13932" points="183,28 191,28 203,40 191,52 183,52" stroke-linejoin="round" width="21" height="24" fill="rgb(72,204,210)" stroke="rgb(57,163,168)" stroke-width="1" opacity="0.75" />
			</g>
		</g>
		<g>
			<title> (ctg77_66)</title>
			<polygon class=" (ctg77_66)" points="208,10 227,40 208,70" fill="rgb(255,255,255)" fill-opacity="1.0" stroke="rgb(0,0,0)" stroke-width="2"  />
			<g>
				<title>GidB (PF02527)
"rRNA small subunit methyltransferase G"</title>
				<polygon class="PF02527" points="210,28 216,28 224,40 216,52 210,52" stroke-linejoin="round" width="15" height="24" fill="rgb(63,147,188)" stroke="rgb(50,117,150)" stroke-width="1" opacity="0.75" />
			</g>
		</g>
		<g>
			<title> (ctg77_67)</title>
			<polygon class=" (ctg77_67)" points="232,10 258,40 232,70" fill="rgb(255,255,255)" fill-opacity="1.0" stroke="rgb(0,0,0)" stroke-width="2"  />
			<g>
				<title>AAA_31 (PF13614)
"AAA domain"</title>
				<polygon class="PF13614" points="232,28 243,28 249,34 249,46 243,52 232,52" stroke-linejoin="round" width="17" height="24" fill="rgb(144,187,62)" stroke="rgb(115,149,49)" stroke-width="1" opacity="0.75" />
			</g>
		</g>
		<g>
			<title> (ctg77_68)</title>
			<polygon class=" (ctg77_68)" points="259,10 286,40 259,70" fill="rgb(255,255,255)" fill-opacity="1.0" stroke="rgb(0,0,0)" stroke-width="2"  />
			<g>
				<title>ParBc (PF02195)
"ParB-like nuclease domain"</title>
				<rect class="PF02195" x="261" y="28" stroke-linejoin="round" width="8" height="24" fill="rgb(55,214,209)" stroke="rgb(44,171,167)" stroke-width="1" opacity="0.75" />
			</g>
			<g>
				<title>HTH_ParB (PF17762)
"HTH domain found in ParB protein"</title>
				<polygon class="PF17762" points="275,32 280,38 280,42 275,48" stroke-linejoin="round" width="5" height="24" fill="rgb(131,206,69)" stroke="rgb(104,164,55)" stroke-width="1" opacity="0.75" />
			</g>
		</g>
		<g>
			<title> (ctg77_69)</title>
			<polygon class=" (ctg77_69)" points="334,25 317,25 317,10 287,40 317,70 317,55 334,55" fill="rgb(255,255,255)" fill-opacity="1.0" stroke="rgb(0,0,0)" stroke-width="2"  />
			<g>
				<title>MnmE_helical (PF12631)
"MnmE helical domain"</title>
				<polygon class="PF12631" points="291,40 303,28 319,28 319,52 303,52" stroke-linejoin="round" width="32" height="24" fill="rgb(93,158,187)" stroke="rgb(74,126,149)" stroke-width="1" opacity="0.75" />
			</g>
			<g>
				<title>TrmE_N (PF10396)
"GTP-binding protein TrmE N-terminus"</title>
				<rect class="PF10396" x="320" y="28" stroke-linejoin="round" width="11" height="24" fill="rgb(182,181,72)" stroke="rgb(145,144,57)" stroke-width="1" opacity="0.75" />
			</g>
		</g>
		<g>
			<title> (ctg77_70)</title>
			<polygon class=" (ctg77_70)" points="333,40 352,10 352,70" fill="rgb(255,255,255)" fill-opacity="1.0" stroke="rgb(0,0,0)" stroke-width="2"  />
			<g>
				<title>R3H (PF01424)
"R3H domain"</title>
				<polygon class="PF01424" points="337,40 338,38 338,42" stroke-linejoin="round" width="5" height="24" fill="rgb(228,106,106)" stroke="rgb(182,84,84)" stroke-width="1" opacity="0.75" />
			</g>
		</g>
		<g>
			<title> (ctg77_71)</title>
			<polygon class=" (ctg77_71)" points="408,25 382,25 382,10 352,40 382,70 382,55 408,55" fill="rgb(255,255,255)" fill-opacity="1.0" stroke="rgb(0,0,0)" stroke-width="2"  />
			<g>
				<title>60KD_IMP (PF02096)
"60Kd inner membrane protein"</title>
				<polygon class="PF02096" points="356,40 368,28 372,28 372,52 368,52" stroke-linejoin="round" width="18" height="24" fill="rgb(68,199,166)" stroke="rgb(54,159,132)" stroke-width="1" opacity="0.75" />
			</g>
			<g>
				<title>YidC_periplas (PF14849)
"YidC periplasmic domain"</title>
				<rect class="PF14849" x="373" y="28" stroke-linejoin="round" width="27" height="24" fill="rgb(64,228,214)" stroke="rgb(51,182,171)" stroke-width="1" opacity="0.75" />
			</g>
		</g>
		<g>
			<title> (ctg77_72)</title>
			<polygon class=" (ctg77_72)" points="418,40 430,10 430,70" fill="rgb(255,255,255)" fill-opacity="1.0" stroke="rgb(0,0,0)" stroke-width="2"  />
			<g>
				<title>Ribonuclease_P (PF00825)
"Ribonuclease P"</title>
				<polygon class="PF00825" points="421,40 426,28 428,28 428,52 426,52" stroke-linejoin="round" width="10" height="24" fill="rgb(204,88,61)" stroke="rgb(163,70,48)" stroke-width="1" opacity="0.75" />
			</g>
		</g>
		<g>
			<title> (ctg77_73)</title>
			<polygon class=" (ctg77_73)" points="447,40 476,10 476,70" fill="rgb(255,255,255)" fill-opacity="1.0" stroke="rgb(0,0,0)" stroke-width="2"  />
			<g>
				<title>PDT (PF00800)
"Prephenate dehydratase"</title>
				<polygon class="PF00800" points="456,35 463,28 473,28 473,52 463,52 456,45" stroke-linejoin="round" width="17" height="24" fill="rgb(196,95,205)" stroke="rgb(156,76,164)" stroke-width="1" opacity="0.75" />
			</g>
		</g>
		<g>
			<title> (ctg77_74)</title>
			<polygon class=" (ctg77_74)" points="483,25 491,25 491,10 521,40 491,70 491,55 483,55" fill="rgb(255,255,255)" fill-opacity="1.0" stroke="rgb(0,0,0)" stroke-width="2"  />
			<g>
				<title>Radical_SAM (PF04055)
"Radical SAM superfamily"</title>
				<rect class="PF04055" x="487" y="28" stroke-linejoin="round" width="18" height="24" fill="rgb(149,56,222)" stroke="rgb(119,44,177)" stroke-width="1" opacity="0.75" />
			</g>
		</g>
		<g>
			<title> (ctg77_75)</title>
			<polygon class=" (ctg77_75)" points="521,25 534,25 534,10 564,40 534,70 534,55 521,55" fill="rgb(255,255,255)" fill-opacity="1.0" stroke="rgb(0,0,0)" stroke-width="2"  />
			<g>
				<title>Radical_SAM (PF04055)
"Radical SAM superfamily"</title>
				<rect class="PF04055" x="528" y="28" stroke-linejoin="round" width="17" height="24" fill="rgb(149,56,222)" stroke="rgb(119,44,177)" stroke-width="1" opacity="0.75" />
			</g>
		</g>
		<g>
			<title> (ctg77_76)</title>
			<polygon class=" (ctg77_76)" points="565,40 590,10 590,70" fill="rgb(255,255,255)" fill-opacity="1.0" stroke="rgb(0,0,0)" stroke-width="2"  />
			<g>
				<title>F420_ligase (PF01996)
"F420-0:Gamma-glutamyl ligase"</title>
				<polygon class="PF01996" points="569,40 579,28 588,28 588,52 579,52" stroke-linejoin="round" width="21" height="24" fill="rgb(204,75,167)" stroke="rgb(163,60,133)" stroke-width="1" opacity="0.75" />
			</g>
		</g>
		<g>
			<title> (ctg77_77)</title>
			<polygon class=" (ctg77_77)" points="590,40 612,10 612,70" fill="rgb(255,255,255)" fill-opacity="1.0" stroke="rgb(0,0,0)" stroke-width="2"  />
			<g>
				<title>CofC (PF01983)
"Guanylyl transferase CofC like"</title>
				<polygon class="PF01983" points="594,40 603,28 611,28 611,52 603,52" stroke-linejoin="round" width="21" height="24" fill="rgb(181,97,82)" stroke="rgb(144,77,65)" stroke-width="1" opacity="0.75" />
			</g>
		</g>
		<g>
			<title> (ctg77_78)</title>
			<polygon class=" (ctg77_78)" points="644,25 642,25 642,10 612,40 642,70 642,55 644,55" fill="rgb(255,255,255)" fill-opacity="1.0" stroke="rgb(0,0,0)" stroke-width="2"  />
			<g>
				<title>UPF0052 (PF01933)
"Uncharacterised protein family UPF0052"</title>
				<polygon class="PF01933" points="616,40 628,28 642,28 642,52 628,52" stroke-linejoin="round" width="29" height="24" fill="rgb(163,205,51)" stroke="rgb(130,164,40)" stroke-width="1" opacity="0.75" />
			</g>
		</g>
		<g>
			<title> (ctg77_79)</title>
			<polygon class=" (ctg77_79)" points="645,40 669,10 669,70" fill="rgb(255,255,255)" fill-opacity="1.0" stroke="rgb(0,0,0)" stroke-width="2"  />
			<g>
				<title>F420_oxidored (PF03807)
"NADP oxidoreductase coenzyme F420-dependent"</title>
				<polygon class="PF03807" points="656,31 659,28 665,28 665,52 659,52 656,49" stroke-linejoin="round" width="9" height="24" fill="rgb(194,51,111)" stroke="rgb(155,40,88)" stroke-width="1" opacity="0.75" />
			</g>
		</g>
		<g>
			<title> (ctg77_80)</title>
			<polygon class=" (ctg77_80)" points="676,25 792,25 792,10 822,40 792,70 792,55 676,55" fill="rgb(255,255,255)" fill-opacity="1.0" stroke="rgb(0,0,0)" stroke-width="2"  />
			<g>
				<title>NAD_binding_4 (PF07993)
"Male sterility protein"</title>
				<rect class="PF07993" x="677" y="28" stroke-linejoin="round" width="34" height="24" fill="rgb(100,212,204)" stroke="rgb(80,169,163)" stroke-width="1" opacity="0.75" />
			</g>
			<g>
				<title>Sterile (PF03015)
"Male sterility protein"</title>
				<rect class="PF03015" x="714" y="28" stroke-linejoin="round" width="15" height="24" fill="rgb(157,58,225)" stroke="rgb(125,46,180)" stroke-width="1" opacity="0.75" />
			</g>
			<g>
				<title>AMP-binding (PF00501)
"AMP-binding enzyme"</title>
				<rect class="PF00501" x="732" y="28" stroke-linejoin="round" width="45" height="24" fill="rgb(60,217,223)" stroke="rgb(48,173,178)" stroke-width="1" opacity="0.75" />
			</g>
			<g>
				<title>PP-binding (PF00550)
"Phosphopantetheine attachment site"</title>
				<rect class="PF00550" x="789" y="28" stroke-linejoin="round" width="6" height="24" fill="rgb(103,191,88)" stroke="rgb(82,152,70)" stroke-width="1" opacity="0.75" />
			</g>
			<g>
				<title>Acyltransferase (PF01553)
"Acyltransferase"</title>
				<polygon class="PF01553" points="801,28 806,28 814,36 814,44 806,52 801,52" stroke-linejoin="round" width="13" height="24" fill="rgb(87,176,216)" stroke="rgb(69,140,172)" stroke-width="1" opacity="0.75" />
			</g>
		</g>
		<g>
			<title> (ctg77_81)</title>
			<polygon class=" (ctg77_81)" points="829,40 856,10 856,70" fill="rgb(255,255,255)" fill-opacity="1.0" stroke="rgb(0,0,0)" stroke-width="2"  />
		</g>
		<g>
			<title> (ctg77_82)</title>
			<polygon class=" (ctg77_82)" points="857,40 879,10 879,70" fill="rgb(255,255,255)" fill-opacity="1.0" stroke="rgb(0,0,0)" stroke-width="2"  />
			<g>
				<title>PCMT (PF01135)
"Protein-L-isoaspartate(D-aspartate) O-methyltransferase (PCMT)"</title>
				<polygon class="PF01135" points="861,40 870,28 877,28 877,52 870,52" stroke-linejoin="round" width="20" height="24" fill="rgb(204,80,91)" stroke="rgb(163,64,72)" stroke-width="1" opacity="0.75" />
			</g>
		</g>
		<g>
			<title> (ctg77_83)</title>
			<polygon class=" (ctg77_83)" points="879,40 905,10 905,70" fill="rgb(255,255,255)" fill-opacity="1.0" stroke="rgb(0,0,0)" stroke-width="2"  />
			<g>
				<title>RNase_HII (PF01351)
"Ribonuclease HII"</title>
				<polygon class="PF01351" points="883,40 893,28 896,28 896,52 893,52" stroke-linejoin="round" width="17" height="24" fill="rgb(76,183,124)" stroke="rgb(60,146,99)" stroke-width="1" opacity="0.75" />
			</g>
		</g>
		<g>
			<title> (ctg77_84)</title>
			<polygon class=" (ctg77_84)" points="910,10 935,40 910,70" fill="rgb(255,255,255)" fill-opacity="1.0" stroke="rgb(0,0,0)" stroke-width="2"  />
			<g>
				<title>PDH (PF02153)
"Prephenate dehydrogenase"</title>
				<polygon class="PF02153" points="911,28 921,28 931,40 921,52 911,52" stroke-linejoin="round" width="23" height="24" fill="rgb(90,185,212)" stroke="rgb(72,148,169)" stroke-width="1" opacity="0.75" />
			</g>
		</g>
		<g>
			<title> (ctg77_85)</title>
			<polygon class=" (ctg77_85)" points="935,10 958,40 935,70" fill="rgb(255,255,255)" fill-opacity="1.0" stroke="rgb(0,0,0)" stroke-width="2"  />
			<g>
				<title>DUF374 (PF04028)
"Domain of unknown function (DUF374)"</title>
				<polygon class="PF04028" points="941,28 945,28 947,31 947,49 945,52 941,52" stroke-linejoin="round" width="6" height="24" fill="rgb(216,55,89)" stroke="rgb(172,44,71)" stroke-width="1" opacity="0.75" />
			</g>
		</g>
		<g>
			<title> (ctg77_86)</title>
			<polygon class=" (ctg77_86)" points="1005,25 986,25 986,10 956,40 986,70 986,55 1005,55" fill="rgb(255,255,255)" fill-opacity="1.0" stroke="rgb(0,0,0)" stroke-width="2"  />
			<g>
				<title>VWA (PF00092)
"von Willebrand factor type A domain"</title>
				<rect class="PF00092" x="979" y="28" stroke-linejoin="round" width="16" height="24" fill="rgb(199,215,59)" stroke="rgb(159,172,47)" stroke-width="1" opacity="0.75" />
			</g>
		</g>
		<g>
			<title> (ctg77_87)</title>
			<polygon class=" (ctg77_87)" points="1005,40 1023,10 1023,70" fill="rgb(255,255,255)" fill-opacity="1.0" stroke="rgb(0,0,0)" stroke-width="2"  />
			<g>
				<title>GTP_cyclohydroI (PF01227)
"GTP cyclohydrolase I"</title>
				<polygon class="PF01227" points="1009,40 1016,28 1022,28 1022,52 1016,52" stroke-linejoin="round" width="17" height="24" fill="rgb(48,180,84)" stroke="rgb(38,144,67)" stroke-width="1" opacity="0.75" />
			</g>
		</g>
		<g>
			<title> (ctg77_88)</title>
			<polygon class=" (ctg77_88)" points="1025,40 1036,10 1036,70" fill="rgb(255,255,255)" fill-opacity="1.0" stroke="rgb(0,0,0)" stroke-width="2"  />
			<g>
				<title>HIT (PF01230)
"HIT domain"</title>
				<polygon class="PF01230" points="1028,40 1033,28 1034,28 1034,52 1033,52" stroke-linejoin="round" width="9" height="24" fill="rgb(77,81,180)" stroke="rgb(61,64,144)" stroke-width="1" opacity="0.75" />
			</g>
		</g>
		<g>
			<title> (ctg77_89)</title>
			<polygon class=" (ctg77_89)" points="1036,40 1065,10 1065,70" fill="rgb(255,255,255)" fill-opacity="1.0" stroke="rgb(0,0,0)" stroke-width="2"  />
			<g>
				<title>MTS (PF05175)
"Methyltransferase small domain"</title>
				<polygon class="PF05175" points="1044,36 1052,28 1055,28 1055,52 1052,52 1044,44" stroke-linejoin="round" width="11" height="24" fill="rgb(99,227,110)" stroke="rgb(79,181,88)" stroke-width="1" opacity="0.75" />
			</g>
			<g>
				<title>PrmC_N (PF17827)
"PrmC N-terminal domain"</title>
				<rect class="PF17827" x="1057" y="28" stroke-linejoin="round" width="7" height="24" fill="rgb(133,104,223)" stroke="rgb(106,83,178)" stroke-width="1" opacity="0.75" />
			</g>
		</g>
		<g>
			<title> (ctg77_90)</title>
			<polygon class=" (ctg77_90)" points="1102,25 1097,25 1097,10 1067,40 1097,70 1097,55 1102,55" fill="rgb(255,255,255)" fill-opacity="1.0" stroke="rgb(0,0,0)" stroke-width="2"  />
			<g>
				<title>RF-1 (PF00472)
"RF-1 domain"</title>
				<polygon class="PF00472" points="1071,40 1081,30 1081,50" stroke-linejoin="round" width="11" height="24" fill="rgb(78,76,196)" stroke="rgb(62,60,156)" stroke-width="1" opacity="0.75" />
			</g>
			<g>
				<title>PCRF (PF03462)
"PCRF domain"</title>
				<polygon class="PF03462" points="1082,29 1083,28 1101,28 1101,52 1083,52 1082,51" stroke-linejoin="round" width="19" height="24" fill="rgb(189,168,84)" stroke="rgb(151,134,67)" stroke-width="1" opacity="0.75" />
			</g>
		</g>
		<g>
			<title> (ctg77_91)</title>
			<polygon class=" (ctg77_91)" points="1107,40 1113,10 1113,70" fill="rgb(255,255,255)" fill-opacity="1.0" stroke="rgb(0,0,0)" stroke-width="2"  />
			<g>
				<title>Ribosomal_L31 (PF01197)
"Ribosomal protein L31"</title>
				<polygon class="PF01197" points="1110,40 1113,28 1113,28 1113,52 1113,52" stroke-linejoin="round" width="6" height="24" fill="rgb(63,90,213)" stroke="rgb(50,71,170)" stroke-width="1" opacity="0.75" />
			</g>
		</g>
		<g>
			<title> (ctg77_92)</title>
			<polygon class=" (ctg77_92)" points="1124,25 1153,25 1153,10 1183,40 1153,70 1153,55 1124,55" fill="rgb(255,255,255)" fill-opacity="1.0" stroke="rgb(0,0,0)" stroke-width="2"  />
			<g>
				<title>S1 (PF00575)
"S1 RNA binding domain"</title>
				<rect class="PF00575" x="1128" y="28" stroke-linejoin="round" width="7" height="24" fill="rgb(102,56,190)" stroke="rgb(81,44,152)" stroke-width="1" opacity="0.75" />
			</g>
			<g>
				<title>S1 (PF00575)
"S1 RNA binding domain"</title>
				<rect class="PF00575" x="1137" y="28" stroke-linejoin="round" width="6" height="24" fill="rgb(102,56,190)" stroke="rgb(81,44,152)" stroke-width="1" opacity="0.75" />
			</g>
			<g>
				<title>S1 (PF00575)
"S1 RNA binding domain"</title>
				<rect class="PF00575" x="1145" y="28" stroke-linejoin="round" width="7" height="24" fill="rgb(102,56,190)" stroke="rgb(81,44,152)" stroke-width="1" opacity="0.75" />
			</g>
			<g>
				<title>S1 (PF00575)
"S1 RNA binding domain"</title>
				<rect class="PF00575" x="1154" y="28" stroke-linejoin="round" width="7" height="24" fill="rgb(102,56,190)" stroke="rgb(81,44,152)" stroke-width="1" opacity="0.75" />
			</g>
			<g>
				<title>S1 (PF00575)
"S1 RNA binding domain"</title>
				<polygon class="PF00575" points="1162,28 1167,28 1169,30 1169,50 1167,52 1162,52" stroke-linejoin="round" width="7" height="24" fill="rgb(102,56,190)" stroke="rgb(81,44,152)" stroke-width="1" opacity="0.75" />
			</g>
			<g>
				<title>S1 (PF00575)
"S1 RNA binding domain"</title>
				<polygon class="PF00575" points="1171,32 1178,39 1178,41 1171,48" stroke-linejoin="round" width="7" height="24" fill="rgb(102,56,190)" stroke="rgb(81,44,152)" stroke-width="1" opacity="0.75" />
			</g>
		</g>
		<g>
			<title> (ctg77_93)</title>
			<polygon class=" (ctg77_93)" points="1184,10 1193,40 1184,70" fill="rgb(255,255,255)" fill-opacity="1.0" stroke="rgb(0,0,0)" stroke-width="2"  />
			<g>
				<title>Bac_DNA_binding (PF00216)
"Bacterial DNA-binding protein"</title>
				<polygon class="PF00216" points="1184,28 1186,28 1190,40 1186,52 1184,52" stroke-linejoin="round" width="8" height="24" fill="rgb(73,205,204)" stroke="rgb(58,164,163)" stroke-width="1" opacity="0.75" />
			</g>
		</g>
		<g>
			<title> (ctg77_94)</title>
			<polygon class=" (ctg77_94)" points="1194,10 1200,40 1194,70" fill="rgb(255,255,255)" fill-opacity="1.0" stroke="rgb(0,0,0)" stroke-width="2"  />
		</g>
		<g>
			<title> (ctg77_95)</title>
			<polygon class=" (ctg77_95)" points="1205,25 1221,25 1221,10 1251,40 1221,70 1221,55 1205,55" fill="rgb(255,255,255)" fill-opacity="1.0" stroke="rgb(0,0,0)" stroke-width="2"  />
			<g>
				<title>Bac_DnaA (PF00308)
"Bacterial dnaA  protein"</title>
				<polygon class="PF00308" points="1218,28 1235,28 1239,32 1239,48 1235,52 1218,52" stroke-linejoin="round" width="21" height="24" fill="rgb(188,76,147)" stroke="rgb(150,60,117)" stroke-width="1" opacity="0.75" />
			</g>
			<g>
				<title>Bac_DnaA_C (PF08299)
"Bacterial dnaA protein helix-turn-helix"</title>
				<polygon class="PF08299" points="1242,35 1247,40 1242,45" stroke-linejoin="round" width="6" height="24" fill="rgb(223,151,101)" stroke="rgb(178,120,80)" stroke-width="1" opacity="0.75" />
			</g>
		</g>
		<g>
			<title> (ctg77_96)</title>
			<polygon class=" (ctg77_96)" points="1260,25 1268,25 1268,10 1298,40 1268,70 1268,55 1260,55" fill="rgb(255,255,255)" fill-opacity="1.0" stroke="rgb(0,0,0)" stroke-width="2"  />
			<g>
				<title>DNA_pol3_beta (PF00712)
"DNA polymerase III beta subunit, N-terminal domain"</title>
				<rect class="PF00712" x="1260" y="28" stroke-linejoin="round" width="12" height="24" fill="rgb(201,83,112)" stroke="rgb(160,66,89)" stroke-width="1" opacity="0.75" />
			</g>
			<g>
				<title>DNA_pol3_beta_2 (PF02767)
"DNA polymerase III beta subunit, central domain"</title>
				<polygon class="PF02767" points="1272,28 1281,28 1283,30 1283,50 1281,52 1272,52" stroke-linejoin="round" width="11" height="24" fill="rgb(74,212,191)" stroke="rgb(59,169,152)" stroke-width="1" opacity="0.75" />
			</g>
			<g>
				<title>DNA_pol3_beta_3 (PF02768)
"DNA polymerase III beta subunit, C-terminal domain"</title>
				<polygon class="PF02768" points="1284,31 1293,40 1284,49" stroke-linejoin="round" width="13" height="24" fill="rgb(51,193,80)" stroke="rgb(40,154,63)" stroke-width="1" opacity="0.75" />
			</g>
		</g>
		<g>
			<title> (ctg77_97)</title>
			<polygon class=" (ctg77_97)" points="1300,25 1355,25 1355,10 1385,40 1355,70 1355,55 1300,55" fill="rgb(255,255,255)" fill-opacity="1.0" stroke="rgb(0,0,0)" stroke-width="2"  />
			<g>
				<title>HATPase_c (PF02518)
"Histidine kinase-, DNA gyrase B-, and HSP90-like ATPase"</title>
				<rect class="PF02518" x="1305" y="28" stroke-linejoin="round" width="14" height="24" fill="rgb(80,94,225)" stroke="rgb(64,75,180)" stroke-width="1" opacity="0.75" />
			</g>
			<g>
				<title>DNA_gyraseB (PF00204)
"DNA gyrase B"</title>
				<rect class="PF00204" x="1325" y="28" stroke-linejoin="round" width="17" height="24" fill="rgb(66,134,179)" stroke="rgb(52,107,143)" stroke-width="1" opacity="0.75" />
			</g>
			<g>
				<title>Toprim (PF01751)
"Toprim domain"</title>
				<rect class="PF01751" x="1345" y="28" stroke-linejoin="round" width="11" height="24" fill="rgb(95,212,145)" stroke="rgb(76,169,116)" stroke-width="1" opacity="0.75" />
			</g>
			<g>
				<title>DNA_gyraseB_C (PF00986)
"DNA gyrase B subunit, carboxyl terminus"</title>
				<polygon class="PF00986" points="1377,37 1380,40 1377,43" stroke-linejoin="round" width="6" height="24" fill="rgb(184,59,116)" stroke="rgb(147,47,92)" stroke-width="1" opacity="0.75" />
			</g>
		</g>
		<g>
			<title> (ctg77_98)</title>
			<polygon class=" (ctg77_98)" points="1390,25 1442,25 1442,10 1472,40 1442,70 1442,55 1390,55" fill="rgb(255,255,255)" fill-opacity="1.0" stroke="rgb(0,0,0)" stroke-width="2"  />
			<g>
				<title>DNA_topoisoIV (PF00521)
"DNA gyrase/topoisomerase IV, subunit A"</title>
				<rect class="PF00521" x="1393" y="28" stroke-linejoin="round" width="44" height="24" fill="rgb(196,204,77)" stroke="rgb(156,163,61)" stroke-width="1" opacity="0.75" />
			</g>
			<g>
				<title>DNA_gyraseA_C (PF03989)
"DNA gyrase C-terminal domain, beta-propeller"</title>
				<rect class="PF03989" x="1440" y="28" stroke-linejoin="round" width="4" height="24" fill="rgb(52,134,190)" stroke="rgb(41,107,152)" stroke-width="1" opacity="0.75" />
			</g>
			<g>
				<title>DNA_gyraseA_C (PF03989)
"DNA gyrase C-terminal domain, beta-propeller"</title>
				<rect class="PF03989" x="1445" y="28" stroke-linejoin="round" width="5" height="24" fill="rgb(52,134,190)" stroke="rgb(41,107,152)" stroke-width="1" opacity="0.75" />
			</g>
			<g>
				<title>DNA_gyraseA_C (PF03989)
"DNA gyrase C-terminal domain, beta-propeller"</title>
				<rect class="PF03989" x="1451" y="28" stroke-linejoin="round" width="4" height="24" fill="rgb(52,134,190)" stroke="rgb(41,107,152)" stroke-width="1" opacity="0.75" />
			</g>
			<g>
				<title>DNA_gyraseA_C (PF03989)
"DNA gyrase C-terminal domain, beta-propeller"</title>
				<polygon class="PF03989" points="1455,28 1455,28 1459,32 1459,48 1455,52 1455,52" stroke-linejoin="round" width="4" height="24" fill="rgb(52,134,190)" stroke="rgb(41,107,152)" stroke-width="1" opacity="0.75" />
			</g>
			<g>
				<title>DNA_gyraseA_C (PF03989)
"DNA gyrase C-terminal domain, beta-propeller"</title>
				<polygon class="PF03989" points="1460,33 1464,37 1464,43 1460,47" stroke-linejoin="round" width="4" height="24" fill="rgb(52,134,190)" stroke="rgb(41,107,152)" stroke-width="1" opacity="0.75" />
			</g>
			<g>
				<title>DNA_gyraseA_C (PF03989)
"DNA gyrase C-terminal domain, beta-propeller"</title>
				<polygon class="PF03989" points="1466,39 1467,40 1466,41" stroke-linejoin="round" width="4" height="24" fill="rgb(52,134,190)" stroke="rgb(41,107,152)" stroke-width="1" opacity="0.75" />
			</g>
		</g>
	</g>
</svg>
