<svg version="1.1" baseProfile="full" xmlns="http://www.w3.org/2000/svg" width="704.8" height="80">
	<g>
		<line x1="10" y1="40.0" x2="694.8" y2="40.0" style="stroke:rgb(70,70,70); stroke-width:3 "/>
		<g>
			<title> (ctg1470_1)</title>
			<polygon class=" (ctg1470_1)" points="10,25 48,25 48,10 78,40 48,70 48,55 10,55" fill="rgb(255,255,255)" fill-opacity="1.0" stroke="rgb(0,0,0)" stroke-width="2"  />
			<g>
				<title>Plug (PF07715)
"TonB-dependent Receptor Plug Domain"</title>
				<rect class="PF07715" x="19" y="28" stroke-linejoin="round" width="11" height="24" fill="rgb(99,133,214)" stroke="rgb(79,106,171)" stroke-width="1" opacity="0.75" />
			</g>
			<g>
				<title>TonB_dep_Rec (PF00593)
"TonB dependent receptor"</title>
				<polygon class="PF00593" points="34,28 62,28 74,40 62,52 34,52" stroke-linejoin="round" width="43" height="24" fill="rgb(171,200,51)" stroke="rgb(136,160,40)" stroke-width="1" opacity="0.75" />
			</g>
		</g>
		<g>
			<title> (ctg1470_2)</title>
			<polygon class=" (ctg1470_2)" points="80,40 94,10 94,70" fill="rgb(255,255,255)" fill-opacity="1.0" stroke="rgb(0,0,0)" stroke-width="2"  />
			<g>
				<title>PIN (PF01850)
"PIN domain"</title>
				<polygon class="PF01850" points="83,40 89,28 93,28 93,52 89,52" stroke-linejoin="round" width="12" height="24" fill="rgb(91,217,126)" stroke="rgb(72,173,100)" stroke-width="1" opacity="0.75" />
			</g>
		</g>
		<g>
			<title> (ctg1470_3)</title>
			<polygon class=" (ctg1470_3)" points="94,40 103,10 103,70" fill="rgb(255,255,255)" fill-opacity="1.0" stroke="rgb(0,0,0)" stroke-width="2"  />
			<g>
				<title>RHH_1 (PF01402)
"Ribbon-helix-helix protein, copG family"</title>
				<polygon class="PF01402" points="99,33 101,28 102,28 102,52 101,52 99,47" stroke-linejoin="round" width="3" height="24" fill="rgb(104,197,67)" stroke="rgb(83,157,53)" stroke-width="1" opacity="0.75" />
			</g>
		</g>
		<g>
			<title> (ctg1470_4)</title>
			<polygon class=" (ctg1470_4)" points="104,40 113,10 113,70" fill="rgb(255,255,255)" fill-opacity="1.0" stroke="rgb(0,0,0)" stroke-width="2"  />
		</g>
		<g>
			<title> (ctg1470_5)</title>
			<polygon class=" (ctg1470_5)" points="113,10 120,40 113,70" fill="rgb(255,255,255)" fill-opacity="1.0" stroke="rgb(0,0,0)" stroke-width="2"  />
		</g>
		<g>
			<title> (ctg1470_6)</title>
			<polygon class=" (ctg1470_6)" points="121,10 138,40 121,70" fill="rgb(255,255,255)" fill-opacity="1.0" stroke="rgb(0,0,0)" stroke-width="2"  />
			<g>
				<title>PIN (PF01850)
"PIN domain"</title>
				<polygon class="PF01850" points="121,28 127,28 131,34 131,46 127,52 121,52" stroke-linejoin="round" width="10" height="24" fill="rgb(91,217,126)" stroke="rgb(72,173,100)" stroke-width="1" opacity="0.75" />
			</g>
		</g>
		<g>
			<title> (ctg1470_7)</title>
			<polygon class=" (ctg1470_7)" points="236,25 169,25 169,10 139,40 169,70 169,55 236,55" fill="rgb(255,255,255)" fill-opacity="1.0" stroke="rgb(0,0,0)" stroke-width="2"  />
			<g>
				<title>HATPase_c (PF02518)
"Histidine kinase-, DNA gyrase B-, and HSP90-like ATPase"</title>
				<polygon class="PF02518" points="143,40 150,33 150,47" stroke-linejoin="round" width="9" height="24" fill="rgb(80,94,225)" stroke="rgb(64,75,180)" stroke-width="1" opacity="0.75" />
			</g>
			<g>
				<title>HisKA_3 (PF07730)
"Histidine kinase"</title>
				<polygon class="PF07730" points="154,29 155,28 160,28 160,52 155,52 154,51" stroke-linejoin="round" width="6" height="24" fill="rgb(190,53,146)" stroke="rgb(152,42,116)" stroke-width="1" opacity="0.75" />
			</g>
			<g>
				<title>Y_Y_Y (PF07495)
"Y_Y_Y domain"</title>
				<rect class="PF07495" x="165" y="28" stroke-linejoin="round" width="6" height="24" fill="rgb(83,202,83)" stroke="rgb(66,161,66)" stroke-width="1" opacity="0.75" />
			</g>
			<g>
				<title>Reg_prop (PF07494)
"Two component regulator propeller"</title>
				<rect class="PF07494" x="208" y="28" stroke-linejoin="round" width="2" height="24" fill="rgb(104,192,57)" stroke="rgb(83,153,45)" stroke-width="1" opacity="0.75" />
			</g>
		</g>
		<g>
			<title> (ctg1470_8)</title>
			<polygon class=" (ctg1470_8)" points="242,10 260,40 242,70" fill="rgb(255,255,255)" fill-opacity="1.0" stroke="rgb(0,0,0)" stroke-width="2"  />
			<g>
				<title>Response_reg (PF00072)
"Response regulator receiver domain"</title>
				<polygon class="PF00072" points="242,28 249,28 250,30 250,50 249,52 242,52" stroke-linejoin="round" width="8" height="24" fill="rgb(100,107,203)" stroke="rgb(80,85,162)" stroke-width="1" opacity="0.75" />
			</g>
			<g>
				<title>GerE (PF00196)
"Bacterial regulatory proteins, luxR family"</title>
				<polygon class="PF00196" points="253,35 256,40 253,45" stroke-linejoin="round" width="5" height="24" fill="rgb(219,94,82)" stroke="rgb(175,75,65)" stroke-width="1" opacity="0.75" />
			</g>
		</g>
		<g>
			<title> (ctg1470_9)</title>
			<polygon class=" (ctg1470_9)" points="265,10 276,40 265,70" fill="rgb(255,255,255)" fill-opacity="1.0" stroke="rgb(0,0,0)" stroke-width="2"  />
		</g>
		<g>
			<title> (ctg1470_10)</title>
			<polygon class=" (ctg1470_10)" points="278,10 289,40 278,70" fill="rgb(255,255,255)" fill-opacity="1.0" stroke="rgb(0,0,0)" stroke-width="2"  />
			<g>
				<title>PqqD (PF05402)
"Coenzyme PQQ synthesis protein D (PqqD)"</title>
				<polygon class="PF05402" points="282,29 286,40 282,51" stroke-linejoin="round" width="6" height="24" fill="rgb(124,62,188)" stroke="rgb(99,49,150)" stroke-width="1" opacity="0.75" />
			</g>
		</g>
		<g>
			<title> (ctg1470_11)</title>
			<polygon class=" (ctg1470_11)" points="290,10 303,40 290,70" fill="rgb(255,255,255)" fill-opacity="1.0" stroke="rgb(0,0,0)" stroke-width="2"  />
			<g>
				<title>Transglut_core3 (PF13471)
"Transglutaminase-like superfamily"</title>
				<polygon class="PF13471" points="291,28 294,28 299,40 294,52 291,52" stroke-linejoin="round" width="11" height="24" fill="rgb(63,111,179)" stroke="rgb(50,88,143)" stroke-width="1" opacity="0.75" />
			</g>
		</g>
		<g>
			<title> (ctg1470_12)</title>
			<polygon class=" (ctg1470_12)" points="303,25 330,25 330,10 360,40 330,70 330,55 303,55" fill="rgb(255,255,255)" fill-opacity="1.0" stroke="rgb(0,0,0)" stroke-width="2"  />
			<g>
				<title>GATase_7 (PF13537)
"Glutamine amidotransferase domain"</title>
				<rect class="PF13537" x="305" y="28" stroke-linejoin="round" width="9" height="24" fill="rgb(200,63,57)" stroke="rgb(160,50,45)" stroke-width="1" opacity="0.75" />
			</g>
			<g>
				<title>Asn_synthase (PF00733)
"Asparagine synthase"</title>
				<polygon class="PF00733" points="321,28 344,28 356,40 344,52 321,52" stroke-linejoin="round" width="37" height="24" fill="rgb(97,201,176)" stroke="rgb(77,160,140)" stroke-width="1" opacity="0.75" />
			</g>
		</g>
		<g>
			<title> (ctg1470_13)</title>
			<polygon class=" (ctg1470_13)" points="362,10 369,40 362,70" fill="rgb(255,255,255)" fill-opacity="1.0" stroke="rgb(0,0,0)" stroke-width="2"  />
		</g>
		<g>
			<title> (ctg1470_14)</title>
			<polygon class=" (ctg1470_14)" points="376,40 379,10 379,70" fill="rgb(255,255,255)" fill-opacity="1.0" stroke="rgb(0,0,0)" stroke-width="2"  />
		</g>
		<g>
			<title> (ctg1470_15)</title>
			<polygon class=" (ctg1470_15)" points="382,40 388,10 388,70" fill="rgb(255,255,255)" fill-opacity="1.0" stroke="rgb(0,0,0)" stroke-width="2"  />
		</g>
		<g>
			<title> (ctg1470_16)</title>
			<polygon class=" (ctg1470_16)" points="391,10 400,40 391,70" fill="rgb(255,255,255)" fill-opacity="1.0" stroke="rgb(0,0,0)" stroke-width="2"  />
		</g>
		<g>
			<title> (ctg1470_17)</title>
			<polygon class=" (ctg1470_17)" points="400,25 412,25 412,10 442,40 412,70 412,55 400,55" fill="rgb(255,255,255)" fill-opacity="1.0" stroke="rgb(0,0,0)" stroke-width="2"  />
			<g>
				<title>VKG_Carbox (PF05090)
"Vitamin K-dependent gamma-carboxylase"</title>
				<polygon class="PF05090" points="403,28 426,28 429,31 429,49 426,52 403,52" stroke-linejoin="round" width="26" height="24" fill="rgb(186,63,191)" stroke="rgb(148,50,152)" stroke-width="1" opacity="0.75" />
			</g>
			<g>
				<title>DUF393 (PF04134)
"Protein of unknown function, DUF393"</title>
				<polygon class="PF04134" points="429,31 438,40 429,49" stroke-linejoin="round" width="11" height="24" fill="rgb(151,216,64)" stroke="rgb(120,172,51)" stroke-width="1" opacity="0.75" />
			</g>
		</g>
		<g>
			<title> (ctg1470_18)</title>
			<polygon class=" (ctg1470_18)" points="442,10 463,40 442,70" fill="rgb(255,255,255)" fill-opacity="1.0" stroke="rgb(0,0,0)" stroke-width="2"  />
		</g>
		<g>
			<title> (ctg1470_19)</title>
			<polygon class=" (ctg1470_19)" points="468,10 477,40 468,70" fill="rgb(255,255,255)" fill-opacity="1.0" stroke="rgb(0,0,0)" stroke-width="2"  />
		</g>
		<g>
			<title> (ctg1470_20)</title>
			<polygon class=" (ctg1470_20)" points="485,25 501,25 501,10 531,40 501,70 501,55 485,55" fill="rgb(255,255,255)" fill-opacity="1.0" stroke="rgb(0,0,0)" stroke-width="2"  />
			<g>
				<title>Peptidase_M50 (PF02163)
"Peptidase family M50"</title>
				<polygon class="PF02163" points="488,28 515,28 527,40 515,52 488,52" stroke-linejoin="round" width="41" height="24" fill="rgb(105,96,203)" stroke="rgb(83,76,162)" stroke-width="1" opacity="0.75" />
			</g>
		</g>
		<g>
			<title> (ctg1470_21)</title>
			<polygon class=" (ctg1470_21)" points="535,25 624,25 624,10 654,40 624,70 624,55 535,55" fill="rgb(255,255,255)" fill-opacity="1.0" stroke="rgb(0,0,0)" stroke-width="2"  />
			<g>
				<title>CPBP (PF02517)
"CPBP intramembrane metalloprotease"</title>
				<rect class="PF02517" x="578" y="28" stroke-linejoin="round" width="10" height="24" fill="rgb(150,86,216)" stroke="rgb(120,68,172)" stroke-width="1" opacity="0.75" />
			</g>
		</g>
		<g>
			<title> (ctg1470_22)</title>
			<polygon class=" (ctg1470_22)" points="657,10 677,40 657,70" fill="rgb(255,255,255)" fill-opacity="1.0" stroke="rgb(0,0,0)" stroke-width="2"  />
		</g>
		<g>
			<title> (ctg1470_23)</title>
			<polygon class=" (ctg1470_23)" points="679,10 687,40 679,70" fill="rgb(255,255,255)" fill-opacity="1.0" stroke="rgb(0,0,0)" stroke-width="2"  />
			<g>
				<title>PD40 (PF07676)
"WD40-like Beta Propeller Repeat"</title>
				<polygon class="PF07676" points="682,33 684,40 682,47" stroke-linejoin="round" width="3" height="24" fill="rgb(49,78,191)" stroke="rgb(39,62,152)" stroke-width="1" opacity="0.75" />
			</g>
		</g>
	</g>
</svg>
