<svg version="1.1" baseProfile="full" xmlns="http://www.w3.org/2000/svg" width="1086.3666666666666" height="80">
	<g>
		<line x1="10" y1="40.0" x2="1076.3666666666666" y2="40.0" style="stroke:rgb(70,70,70); stroke-width:3 "/>
		<g>
			<title> (ctg1130_1)</title>
			<polygon class=" (ctg1130_1)" points="10,10 26,40 10,70" fill="rgb(255,255,255)" fill-opacity="1.0" stroke="rgb(0,0,0)" stroke-width="2"  />
		</g>
		<g>
			<title> (ctg1130_2)</title>
			<polygon class=" (ctg1130_2)" points="26,10 45,40 26,70" fill="rgb(255,255,255)" fill-opacity="1.0" stroke="rgb(0,0,0)" stroke-width="2"  />
		</g>
		<g>
			<title> (ctg1130_3)</title>
			<polygon class=" (ctg1130_3)" points="52,10 70,40 52,70" fill="rgb(255,255,255)" fill-opacity="1.0" stroke="rgb(0,0,0)" stroke-width="2"  />
			<g>
				<title>CYTH (PF01928)
"CYTH domain"</title>
				<polygon class="PF01928" points="52,28 59,28 66,40 59,52 52,52" stroke-linejoin="round" width="17" height="24" fill="rgb(184,209,78)" stroke="rgb(147,167,62)" stroke-width="1" opacity="0.75" />
			</g>
		</g>
		<g>
			<title> (ctg1130_4)</title>
			<polygon class=" (ctg1130_4)" points="113,25 112,25 112,10 82,40 112,70 112,55 113,55" fill="rgb(255,255,255)" fill-opacity="1.0" stroke="rgb(0,0,0)" stroke-width="2"  />
		</g>
		<g>
			<title> (ctg1130_5)</title>
			<polygon class=" (ctg1130_5)" points="167,25 143,25 143,10 113,40 143,70 143,55 167,55" fill="rgb(255,255,255)" fill-opacity="1.0" stroke="rgb(0,0,0)" stroke-width="2"  />
			<g>
				<title>Wzy_C (PF04932)
"O-Antigen ligase"</title>
				<polygon class="PF04932" points="120,37 129,28 135,28 135,52 129,52 120,43" stroke-linejoin="round" width="15" height="24" fill="rgb(106,219,107)" stroke="rgb(84,175,85)" stroke-width="1" opacity="0.75" />
			</g>
		</g>
		<g>
			<title> (ctg1130_6)</title>
			<polygon class=" (ctg1130_6)" points="176,25 179,25 179,10 209,40 179,70 179,55 176,55" fill="rgb(255,255,255)" fill-opacity="1.0" stroke="rgb(0,0,0)" stroke-width="2"  />
		</g>
		<g>
			<title> (ctg1130_7)</title>
			<polygon class=" (ctg1130_7)" points="254,25 244,25 244,10 214,40 244,70 244,55 254,55" fill="rgb(255,255,255)" fill-opacity="1.0" stroke="rgb(0,0,0)" stroke-width="2"  />
			<g>
				<title>SpoIIE (PF07228)
"Stage II sporulation protein E (SpoIIE)"</title>
				<polygon class="PF07228" points="218,40 230,28 234,28 234,52 230,52" stroke-linejoin="round" width="20" height="24" fill="rgb(85,195,217)" stroke="rgb(68,155,173)" stroke-width="1" opacity="0.75" />
			</g>
			<g>
				<title>cNMP_binding (PF00027)
"Cyclic nucleotide-binding domain"</title>
				<rect class="PF00027" x="242" y="28" stroke-linejoin="round" width="8" height="24" fill="rgb(138,95,204)" stroke="rgb(110,76,163)" stroke-width="1" opacity="0.75" />
			</g>
		</g>
		<g>
			<title> (ctg1130_8)</title>
			<polygon class=" (ctg1130_8)" points="266,25 379,25 379,10 409,40 379,70 379,55 266,55" fill="rgb(255,255,255)" fill-opacity="1.0" stroke="rgb(0,0,0)" stroke-width="2"  />
			<g>
				<title>NAD_binding_4 (PF07993)
"Male sterility protein"</title>
				<rect class="PF07993" x="267" y="28" stroke-linejoin="round" width="34" height="24" fill="rgb(100,212,204)" stroke="rgb(80,169,163)" stroke-width="1" opacity="0.75" />
			</g>
			<g>
				<title>Sterile (PF03015)
"Male sterility protein"</title>
				<rect class="PF03015" x="308" y="28" stroke-linejoin="round" width="10" height="24" fill="rgb(157,58,225)" stroke="rgb(125,46,180)" stroke-width="1" opacity="0.75" />
			</g>
			<g>
				<title>AMP-binding (PF00501)
"AMP-binding enzyme"</title>
				<rect class="PF00501" x="323" y="28" stroke-linejoin="round" width="41" height="24" fill="rgb(60,217,223)" stroke="rgb(48,173,178)" stroke-width="1" opacity="0.75" />
			</g>
			<g>
				<title>PP-binding (PF00550)
"Phosphopantetheine attachment site"</title>
				<rect class="PF00550" x="377" y="28" stroke-linejoin="round" width="6" height="24" fill="rgb(103,191,88)" stroke="rgb(82,152,70)" stroke-width="1" opacity="0.75" />
			</g>
			<g>
				<title>Acyltransferase (PF01553)
"Acyltransferase"</title>
				<polygon class="PF01553" points="389,28 392,28 402,38 402,42 392,52 389,52" stroke-linejoin="round" width="13" height="24" fill="rgb(87,176,216)" stroke="rgb(69,140,172)" stroke-width="1" opacity="0.75" />
			</g>
		</g>
		<g>
			<title> (ctg1130_9)</title>
			<polygon class=" (ctg1130_9)" points="410,10 433,40 410,70" fill="rgb(255,255,255)" fill-opacity="1.0" stroke="rgb(0,0,0)" stroke-width="2"  />
			<g>
				<title>HAD (PF12710)
"haloacid dehalogenase-like hydrolase"</title>
				<polygon class="PF12710" points="412,28 420,28 430,40 430,40 420,52 412,52" stroke-linejoin="round" width="18" height="24" fill="rgb(181,59,119)" stroke="rgb(144,47,95)" stroke-width="1" opacity="0.75" />
			</g>
		</g>
		<g>
			<title> (ctg1130_10)</title>
			<polygon class=" (ctg1130_10)" points="435,10 442,40 435,70" fill="rgb(255,255,255)" fill-opacity="1.0" stroke="rgb(0,0,0)" stroke-width="2"  />
		</g>
		<g>
			<title> (ctg1130_11)</title>
			<polygon class=" (ctg1130_11)" points="445,25 446,25 446,10 476,40 446,70 446,55 445,55" fill="rgb(255,255,255)" fill-opacity="1.0" stroke="rgb(0,0,0)" stroke-width="2"  />
		</g>
		<g>
			<title> (ctg1130_12)</title>
			<polygon class=" (ctg1130_12)" points="480,25 492,25 492,10 522,40 492,70 492,55 480,55" fill="rgb(255,255,255)" fill-opacity="1.0" stroke="rgb(0,0,0)" stroke-width="2"  />
			<g>
				<title>DegT_DnrJ_EryC1 (PF01041)
"DegT/DnrJ/EryC1/StrS aminotransferase family"</title>
				<polygon class="PF01041" points="482,28 505,28 517,40 505,52 482,52" stroke-linejoin="round" width="38" height="24" fill="rgb(59,139,191)" stroke="rgb(47,111,152)" stroke-width="1" opacity="0.75" />
			</g>
		</g>
		<g>
			<title> (ctg1130_13)</title>
			<polygon class=" (ctg1130_13)" points="525,40 547,10 547,70" fill="rgb(255,255,255)" fill-opacity="1.0" stroke="rgb(0,0,0)" stroke-width="2"  />
			<g>
				<title>GNAT_acetyltran (PF12746)
"GNAT acetyltransferase"</title>
				<polygon class="PF12746" points="529,40 536,31 536,49" stroke-linejoin="round" width="11" height="24" fill="rgb(199,158,93)" stroke="rgb(159,126,74)" stroke-width="1" opacity="0.75" />
			</g>
		</g>
		<g>
			<title> (ctg1130_14)</title>
			<polygon class=" (ctg1130_14)" points="564,10 584,40 564,70" fill="rgb(255,255,255)" fill-opacity="1.0" stroke="rgb(0,0,0)" stroke-width="2"  />
			<g>
				<title>Lactamase_B_2 (PF12706)
"Beta-lactamase superfamily domain"</title>
				<polygon class="PF12706" points="564,28 573,28 581,40 581,40 573,52 564,52" stroke-linejoin="round" width="17" height="24" fill="rgb(62,169,197)" stroke="rgb(49,135,157)" stroke-width="1" opacity="0.75" />
			</g>
		</g>
		<g>
			<title> (ctg1130_15)</title>
			<polygon class=" (ctg1130_15)" points="648,25 616,25 616,10 586,40 616,70 616,55 648,55" fill="rgb(255,255,255)" fill-opacity="1.0" stroke="rgb(0,0,0)" stroke-width="2"  />
			<g>
				<title>HlyD_3 (PF13437)
"HlyD family secretion protein"</title>
				<polygon class="PF13437" points="602,28 602,28 613,28 613,52 602,52 602,52" stroke-linejoin="round" width="11" height="24" fill="rgb(82,200,102)" stroke="rgb(65,160,81)" stroke-width="1" opacity="0.75" />
			</g>
			<g>
				<title>Biotin_lipoyl_2 (PF13533)
"Biotin-lipoyl like"</title>
				<rect class="PF13533" x="637" y="28" stroke-linejoin="round" width="5" height="24" fill="rgb(229,122,112)" stroke="rgb(183,97,89)" stroke-width="1" opacity="0.75" />
			</g>
		</g>
		<g>
			<title> (ctg1130_16)</title>
			<polygon class=" (ctg1130_16)" points="694,25 685,25 685,10 655,40 685,70 685,55 694,55" fill="rgb(255,255,255)" fill-opacity="1.0" stroke="rgb(0,0,0)" stroke-width="2"  />
			<g>
				<title>FtsX (PF02687)
"FtsX-like permease family"</title>
				<polygon class="PF02687" points="659,40 664,35 664,45" stroke-linejoin="round" width="9" height="24" fill="rgb(126,55,214)" stroke="rgb(100,44,171)" stroke-width="1" opacity="0.75" />
			</g>
			<g>
				<title>MacB_PCD (PF12704)
"MacB-like periplasmic core domain"</title>
				<polygon class="PF12704" points="671,28 671,28 692,28 692,52 671,52 671,52" stroke-linejoin="round" width="21" height="24" fill="rgb(79,76,190)" stroke="rgb(63,60,152)" stroke-width="1" opacity="0.75" />
			</g>
		</g>
		<g>
			<title> (ctg1130_17)</title>
			<polygon class=" (ctg1130_17)" points="743,25 730,25 730,10 700,40 730,70 730,55 743,55" fill="rgb(255,255,255)" fill-opacity="1.0" stroke="rgb(0,0,0)" stroke-width="2"  />
			<g>
				<title>FtsX (PF02687)
"FtsX-like permease family"</title>
				<polygon class="PF02687" points="704,40 709,35 709,45" stroke-linejoin="round" width="9" height="24" fill="rgb(126,55,214)" stroke="rgb(100,44,171)" stroke-width="1" opacity="0.75" />
			</g>
			<g>
				<title>MacB_PCD (PF12704)
"MacB-like periplasmic core domain"</title>
				<polygon class="PF12704" points="716,28 716,28 740,28 740,52 716,52 716,52" stroke-linejoin="round" width="24" height="24" fill="rgb(79,76,190)" stroke="rgb(63,60,152)" stroke-width="1" opacity="0.75" />
			</g>
		</g>
		<g>
			<title> (ctg1130_18)</title>
			<polygon class=" (ctg1130_18)" points="794,25 783,25 783,10 753,40 783,70 783,55 794,55" fill="rgb(255,255,255)" fill-opacity="1.0" stroke="rgb(0,0,0)" stroke-width="2"  />
			<g>
				<title>FtsX (PF02687)
"FtsX-like permease family"</title>
				<polygon class="PF02687" points="757,40 762,35 762,45" stroke-linejoin="round" width="9" height="24" fill="rgb(126,55,214)" stroke="rgb(100,44,171)" stroke-width="1" opacity="0.75" />
			</g>
			<g>
				<title>MacB_PCD (PF12704)
"MacB-like periplasmic core domain"</title>
				<polygon class="PF12704" points="769,28 769,28 793,28 793,52 769,52 769,52" stroke-linejoin="round" width="24" height="24" fill="rgb(79,76,190)" stroke="rgb(63,60,152)" stroke-width="1" opacity="0.75" />
			</g>
		</g>
		<g>
			<title> (ctg1130_19)</title>
			<polygon class=" (ctg1130_19)" points="824,40 832,10 832,70" fill="rgb(255,255,255)" fill-opacity="1.0" stroke="rgb(0,0,0)" stroke-width="2"  />
		</g>
		<g>
			<title> (ctg1130_20)</title>
			<polygon class=" (ctg1130_20)" points="834,25 847,25 847,10 877,40 847,70 847,55 834,55" fill="rgb(255,255,255)" fill-opacity="1.0" stroke="rgb(0,0,0)" stroke-width="2"  />
			<g>
				<title>Trigger_N (PF05697)
"Bacterial trigger factor protein (TF)"</title>
				<rect class="PF05697" x="834" y="28" stroke-linejoin="round" width="14" height="24" fill="rgb(181,113,81)" stroke="rgb(144,90,64)" stroke-width="1" opacity="0.75" />
			</g>
			<g>
				<title>FKBP_C (PF00254)
"FKBP-type peptidyl-prolyl cis-trans isomerase"</title>
				<rect class="PF00254" x="850" y="28" stroke-linejoin="round" width="8" height="24" fill="rgb(137,65,200)" stroke="rgb(109,51,160)" stroke-width="1" opacity="0.75" />
			</g>
			<g>
				<title>Trigger_C (PF05698)
"Bacterial trigger factor protein (TF) C-terminus"</title>
				<polygon class="PF05698" points="860,28 861,28 873,40 861,52 860,52" stroke-linejoin="round" width="15" height="24" fill="rgb(173,55,194)" stroke="rgb(138,44,155)" stroke-width="1" opacity="0.75" />
			</g>
		</g>
		<g>
			<title> (ctg1130_21)</title>
			<polygon class=" (ctg1130_21)" points="883,10 903,40 883,70" fill="rgb(255,255,255)" fill-opacity="1.0" stroke="rgb(0,0,0)" stroke-width="2"  />
			<g>
				<title>CLP_protease (PF00574)
"Clp protease"</title>
				<polygon class="PF00574" points="884,28 891,28 899,40 891,52 884,52" stroke-linejoin="round" width="18" height="24" fill="rgb(196,111,59)" stroke="rgb(156,88,47)" stroke-width="1" opacity="0.75" />
			</g>
		</g>
		<g>
			<title> (ctg1130_22)</title>
			<polygon class=" (ctg1130_22)" points="908,25 929,25 929,10 959,40 929,70 929,55 908,55" fill="rgb(255,255,255)" fill-opacity="1.0" stroke="rgb(0,0,0)" stroke-width="2"  />
			<g>
				<title>zf-C4_ClpX (PF06689)
"ClpX C4-type zinc finger"</title>
				<rect class="PF06689" x="908" y="28" stroke-linejoin="round" width="3" height="24" fill="rgb(218,113,96)" stroke="rgb(174,90,76)" stroke-width="1" opacity="0.75" />
			</g>
			<g>
				<title>zf-C4_ClpX (PF06689)
"ClpX C4-type zinc finger"</title>
				<rect class="PF06689" x="912" y="28" stroke-linejoin="round" width="4" height="24" fill="rgb(218,113,96)" stroke="rgb(174,90,76)" stroke-width="1" opacity="0.75" />
			</g>
			<g>
				<title>AAA_2 (PF07724)
"AAA domain (Cdc48 subfamily)"</title>
				<polygon class="PF07724" points="928,28 942,28 947,33 947,47 942,52 928,52" stroke-linejoin="round" width="19" height="24" fill="rgb(132,215,72)" stroke="rgb(105,172,57)" stroke-width="1" opacity="0.75" />
			</g>
			<g>
				<title>ClpB_D2-small (PF10431)
"C-terminal, D2-small domain, of ClpB protein"</title>
				<polygon class="PF10431" points="948,34 954,40 948,46" stroke-linejoin="round" width="8" height="24" fill="rgb(190,198,67)" stroke="rgb(152,158,53)" stroke-width="1" opacity="0.75" />
			</g>
		</g>
		<g>
			<title> (ctg1130_23)</title>
			<polygon class=" (ctg1130_23)" points="960,25 1011,25 1011,10 1041,40 1011,70 1011,55 960,55" fill="rgb(255,255,255)" fill-opacity="1.0" stroke="rgb(0,0,0)" stroke-width="2"  />
			<g>
				<title>LON_substr_bdg (PF02190)
"ATP-dependent protease La (LON) substrate-binding domain"</title>
				<rect class="PF02190" x="961" y="28" stroke-linejoin="round" width="20" height="24" fill="rgb(177,104,226)" stroke="rgb(141,83,180)" stroke-width="1" opacity="0.75" />
			</g>
			<g>
				<title>AAA (PF00004)
"ATPase family associated with various cellular activities (AAA)"</title>
				<rect class="PF00004" x="997" y="28" stroke-linejoin="round" width="14" height="24" fill="rgb(57,194,204)" stroke="rgb(45,155,163)" stroke-width="1" opacity="0.75" />
			</g>
			<g>
				<title>Lon_C (PF05362)
"Lon protease (S16) C-terminal proteolytic domain"</title>
				<polygon class="PF05362" points="1019,28 1025,28 1037,40 1025,52 1019,52" stroke-linejoin="round" width="20" height="24" fill="rgb(172,181,60)" stroke="rgb(137,144,47)" stroke-width="1" opacity="0.75" />
			</g>
		</g>
		<g>
			<title> (ctg1130_24)</title>
			<polygon class=" (ctg1130_24)" points="1047,10 1055,40 1047,70" fill="rgb(255,255,255)" fill-opacity="1.0" stroke="rgb(0,0,0)" stroke-width="2"  />
			<g>
				<title>S4 (PF01479)
"S4 domain"</title>
				<polygon class="PF01479" points="1047,28 1048,28 1051,35 1051,45 1048,52 1047,52" stroke-linejoin="round" width="4" height="24" fill="rgb(93,184,76)" stroke="rgb(74,147,60)" stroke-width="1" opacity="0.75" />
			</g>
		</g>
	</g>
</svg>
