<svg version="1.1" baseProfile="full" xmlns="http://www.w3.org/2000/svg" width="401.23333333333335" height="80">
	<g>
		<line x1="10" y1="40.0" x2="391.23333333333335" y2="40.0" style="stroke:rgb(70,70,70); stroke-width:3 "/>
		<g>
			<title> (ctg1487_25)</title>
			<polygon class=" (ctg1487_25)" points="27,10 45,40 27,70" fill="rgb(255,255,255)" fill-opacity="1.0" stroke="rgb(0,0,0)" stroke-width="2"  />
			<g>
				<title>Pribosyltran (PF00156)
"Phosphoribosyl transferase domain"</title>
				<polygon class="PF00156" points="27,28 34,28 42,40 34,52 27,52" stroke-linejoin="round" width="16" height="24" fill="rgb(210,210,74)" stroke="rgb(168,168,59)" stroke-width="1" opacity="0.75" />
			</g>
		</g>
		<g>
			<title> (ctg1487_26)</title>
			<polygon class=" (ctg1487_26)" points="62,10 77,40 62,70" fill="rgb(255,255,255)" fill-opacity="1.0" stroke="rgb(0,0,0)" stroke-width="2"  />
			<g>
				<title>OTCace (PF00185)
"Aspartate/ornithine carbamoyltransferase, Asp/Orn binding domain"</title>
				<polygon class="PF00185" points="62,28 67,28 73,40 67,52 62,52" stroke-linejoin="round" width="14" height="24" fill="rgb(215,107,106)" stroke="rgb(172,85,84)" stroke-width="1" opacity="0.75" />
			</g>
		</g>
		<g>
			<title> (ctg1487_27)</title>
			<polygon class=" (ctg1487_27)" points="110,25 108,25 108,10 78,40 108,70 108,55 110,55" fill="rgb(255,255,255)" fill-opacity="1.0" stroke="rgb(0,0,0)" stroke-width="2"  />
			<g>
				<title>PEPCK_ATP (PF01293)
"Phosphoenolpyruvate carboxykinase"</title>
				<polygon class="PF01293" points="83,39 94,28 110,28 110,52 94,52 83,41" stroke-linejoin="round" width="27" height="24" fill="rgb(82,176,215)" stroke="rgb(65,140,172)" stroke-width="1" opacity="0.75" />
			</g>
		</g>
		<g>
			<title> (ctg1487_28)</title>
			<polygon class=" (ctg1487_28)" points="111,10 124,40 111,70" fill="rgb(255,255,255)" fill-opacity="1.0" stroke="rgb(0,0,0)" stroke-width="2"  />
		</g>
		<g>
			<title> (ctg1487_29)</title>
			<polygon class=" (ctg1487_29)" points="187,25 164,25 164,10 134,40 164,70 164,55 187,55" fill="rgb(255,255,255)" fill-opacity="1.0" stroke="rgb(0,0,0)" stroke-width="2"  />
			<g>
				<title>AMP-binding (PF00501)
"AMP-binding enzyme"</title>
				<polygon class="PF00501" points="146,32 150,28 187,28 187,52 150,52 146,48" stroke-linejoin="round" width="41" height="24" fill="rgb(60,217,223)" stroke="rgb(48,173,178)" stroke-width="1" opacity="0.75" />
			</g>
		</g>
		<g>
			<title> (ctg1487_30)</title>
			<polygon class=" (ctg1487_30)" points="197,10 213,40 197,70" fill="rgb(255,255,255)" fill-opacity="1.0" stroke="rgb(0,0,0)" stroke-width="2"  />
			<g>
				<title>MoaC (PF01967)
"MoaC family"</title>
				<polygon class="PF01967" points="198,28 203,28 210,40 203,52 198,52" stroke-linejoin="round" width="13" height="24" fill="rgb(81,126,206)" stroke="rgb(64,100,164)" stroke-width="1" opacity="0.75" />
			</g>
		</g>
		<g>
			<title> (ctg1487_31)</title>
			<polygon class=" (ctg1487_31)" points="214,25 217,25 217,10 247,40 217,70 217,55 214,55" fill="rgb(255,255,255)" fill-opacity="1.0" stroke="rgb(0,0,0)" stroke-width="2"  />
			<g>
				<title>YdfA_immunity (PF12127)
"SigmaW regulon antibacterial"</title>
				<polygon class="PF12127" points="214,28 231,28 243,40 231,52 214,52" stroke-linejoin="round" width="31" height="24" fill="rgb(120,59,202)" stroke="rgb(96,47,161)" stroke-width="1" opacity="0.75" />
			</g>
		</g>
		<g>
			<title> (ctg1487_32)</title>
			<polygon class=" (ctg1487_32)" points="249,10 253,40 249,70" fill="rgb(255,255,255)" fill-opacity="1.0" stroke="rgb(0,0,0)" stroke-width="2"  />
		</g>
		<g>
			<title> (ctg1487_33)</title>
			<polygon class=" (ctg1487_33)" points="257,10 263,40 257,70" fill="rgb(255,255,255)" fill-opacity="1.0" stroke="rgb(0,0,0)" stroke-width="2"  />
		</g>
		<g>
			<title> (ctg1487_34)</title>
			<polygon class=" (ctg1487_34)" points="264,40 270,10 270,70" fill="rgb(255,255,255)" fill-opacity="1.0" stroke="rgb(0,0,0)" stroke-width="2"  />
		</g>
		<g>
			<title> (ctg1487_35)</title>
			<polygon class=" (ctg1487_35)" points="269,40 294,10 294,70" fill="rgb(255,255,255)" fill-opacity="1.0" stroke="rgb(0,0,0)" stroke-width="2"  />
			<g>
				<title>ABC2_membrane (PF01061)
"ABC-2 type transporter"</title>
				<polygon class="PF01061" points="273,40 283,28 293,28 293,52 283,52 273,40" stroke-linejoin="round" width="20" height="24" fill="rgb(139,217,106)" stroke="rgb(111,173,84)" stroke-width="1" opacity="0.75" />
			</g>
		</g>
		<g>
			<title> (ctg1487_36)</title>
			<polygon class=" (ctg1487_36)" points="325,25 325,25 325,10 295,40 325,70 325,55 325,55" fill="rgb(255,255,255)" fill-opacity="1.0" stroke="rgb(0,0,0)" stroke-width="2"  />
			<g>
				<title>ABC_tran (PF00005)
"ABC transporter"</title>
				<polygon class="PF00005" points="308,31 311,28 321,28 321,52 311,52 308,49" stroke-linejoin="round" width="13" height="24" fill="rgb(129,201,63)" stroke="rgb(103,160,50)" stroke-width="1" opacity="0.75" />
			</g>
		</g>
		<g>
			<title> (ctg1487_37)</title>
			<polygon class=" (ctg1487_37)" points="343,25 344,25 344,10 374,40 344,70 344,55 343,55" fill="rgb(255,255,255)" fill-opacity="1.0" stroke="rgb(0,0,0)" stroke-width="2"  />
			<g>
				<title>SQS_PSY (PF00494)
"Squalene/phytoene synthase"</title>
				<polygon class="PF00494" points="343,28 357,28 369,40 357,52 343,52" stroke-linejoin="round" width="27" height="24" fill="rgb(178,91,49)" stroke="rgb(142,72,39)" stroke-width="1" opacity="0.75" />
			</g>
		</g>
		<g>
			<title> (ctg1487_38)</title>
			<polygon class=" (ctg1487_38)" points="388,40 390,10 390,70" fill="rgb(255,255,255)" fill-opacity="1.0" stroke="rgb(0,0,0)" stroke-width="2"  />
		</g>
	</g>
</svg>
