<svg version="1.1" baseProfile="full" xmlns="http://www.w3.org/2000/svg" width="1493.2333333333333" height="80">
	<g>
		<line x1="10" y1="40.0" x2="1483.2333333333333" y2="40.0" style="stroke:rgb(70,70,70); stroke-width:3 "/>
		<g>
			<title> (ctg10_212)</title>
			<polygon class=" (ctg10_212)" points="57,25 125,25 125,10 155,40 125,70 125,55 57,55" fill="rgb(255,255,255)" fill-opacity="1.0" stroke="rgb(0,0,0)" stroke-width="2"  />
			<g>
				<title>Spermine_synth (PF01564)
"Spermine/spermidine synthase domain"</title>
				<rect class="PF01564" x="108" y="28" stroke-linejoin="round" width="16" height="24" fill="rgb(221,99,146)" stroke="rgb(176,79,116)" stroke-width="1" opacity="0.75" />
			</g>
			<g>
				<title>TPR_16 (PF13432)
"Tetratricopeptide repeat"</title>
				<polygon class="PF13432" points="141,31 147,37 147,43 141,49" stroke-linejoin="round" width="6" height="24" fill="rgb(154,205,86)" stroke="rgb(123,164,68)" stroke-width="1" opacity="0.75" />
			</g>
		</g>
		<g>
			<title> (ctg10_213)</title>
			<polygon class=" (ctg10_213)" points="157,25 163,25 163,10 193,40 163,70 163,55 157,55" fill="rgb(255,255,255)" fill-opacity="1.0" stroke="rgb(0,0,0)" stroke-width="2"  />
			<g>
				<title>GFO_IDH_MocA (PF01408)
"Oxidoreductase family, NAD-binding Rossmann fold"</title>
				<rect class="PF01408" x="157" y="28" stroke-linejoin="round" width="13" height="24" fill="rgb(76,117,190)" stroke="rgb(60,93,152)" stroke-width="1" opacity="0.75" />
			</g>
		</g>
		<g>
			<title> (ctg10_214)</title>
			<polygon class=" (ctg10_214)" points="226,25 223,25 223,10 193,40 223,70 223,55 226,55" fill="rgb(255,255,255)" fill-opacity="1.0" stroke="rgb(0,0,0)" stroke-width="2"  />
			<g>
				<title>GFO_IDH_MocA (PF01408)
"Oxidoreductase family, NAD-binding Rossmann fold"</title>
				<rect class="PF01408" x="213" y="28" stroke-linejoin="round" width="12" height="24" fill="rgb(76,117,190)" stroke="rgb(60,93,152)" stroke-width="1" opacity="0.75" />
			</g>
		</g>
		<g>
			<title> (ctg10_215)</title>
			<polygon class=" (ctg10_215)" points="275,25 258,25 258,10 228,40 258,70 258,55 275,55" fill="rgb(255,255,255)" fill-opacity="1.0" stroke="rgb(0,0,0)" stroke-width="2"  />
		</g>
		<g>
			<title> (ctg10_216)</title>
			<polygon class=" (ctg10_216)" points="318,25 306,25 306,10 276,40 306,70 306,55 318,55" fill="rgb(255,255,255)" fill-opacity="1.0" stroke="rgb(0,0,0)" stroke-width="2"  />
			<g>
				<title>CbiA (PF01656)
"CobQ/CobB/MinD/ParA nucleotide binding domain"</title>
				<polygon class="PF01656" points="280,40 292,28 305,28 305,52 292,52" stroke-linejoin="round" width="27" height="24" fill="rgb(143,82,224)" stroke="rgb(114,65,179)" stroke-width="1" opacity="0.75" />
			</g>
		</g>
		<g>
			<title> (ctg10_217)</title>
			<polygon class=" (ctg10_217)" points="319,40 333,10 333,70" fill="rgb(255,255,255)" fill-opacity="1.0" stroke="rgb(0,0,0)" stroke-width="2"  />
		</g>
		<g>
			<title> (ctg10_218)</title>
			<polygon class=" (ctg10_218)" points="376,25 363,25 363,10 333,40 363,70 363,55 376,55" fill="rgb(255,255,255)" fill-opacity="1.0" stroke="rgb(0,0,0)" stroke-width="2"  />
			<g>
				<title>PhyH (PF05721)
"Phytanoyl-CoA dioxygenase (PhyH)"</title>
				<rect class="PF05721" x="354" y="28" stroke-linejoin="round" width="21" height="24" fill="rgb(72,132,214)" stroke="rgb(57,105,171)" stroke-width="1" opacity="0.75" />
			</g>
		</g>
		<g>
			<title> (ctg10_219)</title>
			<polygon class=" (ctg10_219)" points="424,25 406,25 406,10 376,40 406,70 406,55 424,55" fill="rgb(255,255,255)" fill-opacity="1.0" stroke="rgb(0,0,0)" stroke-width="2"  />
			<g>
				<title>DUF4976 (PF16347)
"Domain of unknown function (DUF4976)"</title>
				<polygon class="PF16347" points="380,40 388,32 388,48" stroke-linejoin="round" width="9" height="24" fill="rgb(122,75,207)" stroke="rgb(97,60,165)" stroke-width="1" opacity="0.75" />
			</g>
			<g>
				<title>Sulfatase (PF00884)
"Sulfatase"</title>
				<polygon class="PF00884" points="389,31 392,28 423,28 423,52 392,52 389,49" stroke-linejoin="round" width="34" height="24" fill="rgb(61,103,198)" stroke="rgb(48,82,158)" stroke-width="1" opacity="0.75" />
			</g>
		</g>
		<g>
			<title> (ctg10_220)</title>
			<polygon class=" (ctg10_220)" points="427,40 441,10 441,70" fill="rgb(255,255,255)" fill-opacity="1.0" stroke="rgb(0,0,0)" stroke-width="2"  />
		</g>
		<g>
			<title> (ctg10_221)</title>
			<polygon class=" (ctg10_221)" points="444,25 457,25 457,10 487,40 457,70 457,55 444,55" fill="rgb(255,255,255)" fill-opacity="1.0" stroke="rgb(0,0,0)" stroke-width="2"  />
			<g>
				<title>Amidohydro_2 (PF04909)
"Amidohydrolase"</title>
				<polygon class="PF04909" points="460,28 471,28 483,40 471,52 460,52" stroke-linejoin="round" width="24" height="24" fill="rgb(95,225,123)" stroke="rgb(76,180,98)" stroke-width="1" opacity="0.75" />
			</g>
		</g>
		<g>
			<title> (ctg10_222)</title>
			<polygon class=" (ctg10_222)" points="501,10 511,40 501,70" fill="rgb(255,255,255)" fill-opacity="1.0" stroke="rgb(0,0,0)" stroke-width="2"  />
		</g>
		<g>
			<title> (ctg10_223)</title>
			<polygon class=" (ctg10_223)" points="513,40 520,10 520,70" fill="rgb(255,255,255)" fill-opacity="1.0" stroke="rgb(0,0,0)" stroke-width="2"  />
		</g>
		<g>
			<title> (ctg10_224)</title>
			<polygon class=" (ctg10_224)" points="522,40 539,10 539,70" fill="rgb(255,255,255)" fill-opacity="1.0" stroke="rgb(0,0,0)" stroke-width="2"  />
		</g>
		<g>
			<title> (ctg10_225)</title>
			<polygon class=" (ctg10_225)" points="575,25 569,25 569,10 539,40 569,70 569,55 575,55" fill="rgb(255,255,255)" fill-opacity="1.0" stroke="rgb(0,0,0)" stroke-width="2"  />
			<g>
				<title>AAA_21 (PF13304)
"AAA domain, putative AbiEii toxin, Type IV TA system"</title>
				<polygon class="PF13304" points="544,39 555,28 571,28 571,52 555,52 544,41" stroke-linejoin="round" width="27" height="24" fill="rgb(215,121,101)" stroke="rgb(172,96,80)" stroke-width="1" opacity="0.75" />
			</g>
		</g>
		<g>
			<title> (ctg10_226)</title>
			<polygon class=" (ctg10_226)" points="578,40 602,10 602,70" fill="rgb(255,255,255)" fill-opacity="1.0" stroke="rgb(0,0,0)" stroke-width="2"  />
			<g>
				<title>adh_short (PF00106)
"short chain dehydrogenase"</title>
				<polygon class="PF00106" points="582,40 592,28 601,28 601,52 592,52 582,40" stroke-linejoin="round" width="19" height="24" fill="rgb(182,219,73)" stroke="rgb(145,175,58)" stroke-width="1" opacity="0.75" />
			</g>
		</g>
		<g>
			<title> (ctg10_227)</title>
			<polygon class=" (ctg10_227)" points="651,25 632,25 632,10 602,40 632,70 632,55 651,55" fill="rgb(255,255,255)" fill-opacity="1.0" stroke="rgb(0,0,0)" stroke-width="2"  />
			<g>
				<title>Oxidored_FMN (PF00724)
"NADH:flavin oxidoreductase / NADH oxidase family"</title>
				<rect class="PF00724" x="623" y="28" stroke-linejoin="round" width="25" height="24" fill="rgb(157,188,65)" stroke="rgb(125,150,52)" stroke-width="1" opacity="0.75" />
			</g>
		</g>
		<g>
			<title> (ctg10_228)</title>
			<polygon class=" (ctg10_228)" points="651,40 676,10 676,70" fill="rgb(255,255,255)" fill-opacity="1.0" stroke="rgb(0,0,0)" stroke-width="2"  />
			<g>
				<title>LGT (PF01790)
"Prolipoprotein diacylglyceryl transferase"</title>
				<polygon class="PF01790" points="655,40 665,28 675,28 675,52 665,52" stroke-linejoin="round" width="24" height="24" fill="rgb(140,56,206)" stroke="rgb(112,44,164)" stroke-width="1" opacity="0.75" />
			</g>
		</g>
		<g>
			<title> (ctg10_229)</title>
			<polygon class=" (ctg10_229)" points="815,25 706,25 706,10 676,40 706,70 706,55 815,55" fill="rgb(255,255,255)" fill-opacity="1.0" stroke="rgb(0,0,0)" stroke-width="2"  />
			<g>
				<title>Acyltransferase (PF01553)
"Acyltransferase"</title>
				<polygon class="PF01553" points="682,38 692,28 694,28 694,52 692,52 682,42" stroke-linejoin="round" width="12" height="24" fill="rgb(87,176,216)" stroke="rgb(69,140,172)" stroke-width="1" opacity="0.75" />
			</g>
			<g>
				<title>AMP-binding (PF00501)
"AMP-binding enzyme"</title>
				<rect class="PF00501" x="719" y="28" stroke-linejoin="round" width="40" height="24" fill="rgb(60,217,223)" stroke="rgb(48,173,178)" stroke-width="1" opacity="0.75" />
			</g>
			<g>
				<title>Sterile (PF03015)
"Male sterility protein"</title>
				<rect class="PF03015" x="763" y="28" stroke-linejoin="round" width="10" height="24" fill="rgb(157,58,225)" stroke="rgb(125,46,180)" stroke-width="1" opacity="0.75" />
			</g>
			<g>
				<title>NAD_binding_4 (PF07993)
"Male sterility protein"</title>
				<rect class="PF07993" x="780" y="28" stroke-linejoin="round" width="34" height="24" fill="rgb(100,212,204)" stroke="rgb(80,169,163)" stroke-width="1" opacity="0.75" />
			</g>
		</g>
		<g>
			<title> (ctg10_230)</title>
			<polygon class=" (ctg10_230)" points="826,25 826,25 826,10 856,40 826,70 826,55 826,55" fill="rgb(255,255,255)" fill-opacity="1.0" stroke="rgb(0,0,0)" stroke-width="2"  />
			<g>
				<title>DAGK_cat (PF00781)
"Diacylglycerol kinase catalytic domain"</title>
				<rect class="PF00781" x="826" y="28" stroke-linejoin="round" width="12" height="24" fill="rgb(92,98,205)" stroke="rgb(73,78,164)" stroke-width="1" opacity="0.75" />
			</g>
		</g>
		<g>
			<title> (ctg10_231)</title>
			<polygon class=" (ctg10_231)" points="858,25 860,25 860,10 890,40 860,70 860,55 858,55" fill="rgb(255,255,255)" fill-opacity="1.0" stroke="rgb(0,0,0)" stroke-width="2"  />
			<g>
				<title>MlaD (PF02470)
"MlaD protein"</title>
				<rect class="PF02470" x="861" y="28" stroke-linejoin="round" width="8" height="24" fill="rgb(219,201,73)" stroke="rgb(175,160,58)" stroke-width="1" opacity="0.75" />
			</g>
		</g>
		<g>
			<title> (ctg10_232)</title>
			<polygon class=" (ctg10_232)" points="890,10 915,40 890,70" fill="rgb(255,255,255)" fill-opacity="1.0" stroke="rgb(0,0,0)" stroke-width="2"  />
			<g>
				<title>ABC_trans_aux (PF03886)
"ABC-type transport auxiliary lipoprotein component"</title>
				<polygon class="PF03886" points="894,28 901,28 910,39 910,41 901,52 894,52" stroke-linejoin="round" width="16" height="24" fill="rgb(99,207,73)" stroke="rgb(79,165,58)" stroke-width="1" opacity="0.75" />
			</g>
		</g>
		<g>
			<title> (ctg10_233)</title>
			<polygon class=" (ctg10_233)" points="916,25 936,25 936,10 966,40 936,70 936,55 916,55" fill="rgb(255,255,255)" fill-opacity="1.0" stroke="rgb(0,0,0)" stroke-width="2"  />
			<g>
				<title>DUF3078 (PF11276)
"Protein of unknown function (DUF3078)"</title>
				<rect class="PF11276" x="940" y="28" stroke-linejoin="round" width="8" height="24" fill="rgb(213,147,99)" stroke="rgb(170,117,79)" stroke-width="1" opacity="0.75" />
			</g>
		</g>
		<g>
			<title> (ctg10_234)</title>
			<polygon class=" (ctg10_234)" points="966,25 972,25 972,10 1002,40 972,70 972,55 966,55" fill="rgb(255,255,255)" fill-opacity="1.0" stroke="rgb(0,0,0)" stroke-width="2"  />
			<g>
				<title>STAS_2 (PF13466)
"STAS domain"</title>
				<rect class="PF13466" x="967" y="28" stroke-linejoin="round" width="7" height="24" fill="rgb(206,83,63)" stroke="rgb(164,66,50)" stroke-width="1" opacity="0.75" />
			</g>
			<g>
				<title>MlaE (PF02405)
"Permease MlaE"</title>
				<polygon class="PF02405" points="980,28 986,28 998,40 986,52 980,52" stroke-linejoin="round" width="21" height="24" fill="rgb(56,97,187)" stroke="rgb(44,77,149)" stroke-width="1" opacity="0.75" />
			</g>
		</g>
		<g>
			<title> (ctg10_235)</title>
			<polygon class=" (ctg10_235)" points="1002,10 1026,40 1002,70" fill="rgb(255,255,255)" fill-opacity="1.0" stroke="rgb(0,0,0)" stroke-width="2"  />
			<g>
				<title>ABC_tran (PF00005)
"ABC transporter"</title>
				<polygon class="PF00005" points="1004,28 1013,28 1018,34 1018,46 1013,52 1004,52" stroke-linejoin="round" width="14" height="24" fill="rgb(129,201,63)" stroke="rgb(103,160,50)" stroke-width="1" opacity="0.75" />
			</g>
		</g>
		<g>
			<title> (ctg10_236)</title>
			<polygon class=" (ctg10_236)" points="1027,10 1042,40 1027,70" fill="rgb(255,255,255)" fill-opacity="1.0" stroke="rgb(0,0,0)" stroke-width="2"  />
			<g>
				<title>DHFR_1 (PF00186)
"Dihydrofolate reductase"</title>
				<polygon class="PF00186" points="1027,28 1033,28 1039,40 1033,52 1027,52" stroke-linejoin="round" width="15" height="24" fill="rgb(150,188,63)" stroke="rgb(119,150,50)" stroke-width="1" opacity="0.75" />
			</g>
		</g>
		<g>
			<title> (ctg10_237)</title>
			<polygon class=" (ctg10_237)" points="1044,25 1053,25 1053,10 1083,40 1053,70 1053,55 1044,55" fill="rgb(255,255,255)" fill-opacity="1.0" stroke="rgb(0,0,0)" stroke-width="2"  />
			<g>
				<title>Aminotran_1_2 (PF00155)
"Aminotransferase class I and II"</title>
				<polygon class="PF00155" points="1046,28 1067,28 1079,40 1067,52 1046,52" stroke-linejoin="round" width="36" height="24" fill="rgb(89,113,198)" stroke="rgb(71,90,158)" stroke-width="1" opacity="0.75" />
			</g>
		</g>
		<g>
			<title> (ctg10_238)</title>
			<polygon class=" (ctg10_238)" points="1118,25 1113,25 1113,10 1083,40 1113,70 1113,55 1118,55" fill="rgb(255,255,255)" fill-opacity="1.0" stroke="rgb(0,0,0)" stroke-width="2"  />
		</g>
		<g>
			<title> (ctg10_239)</title>
			<polygon class=" (ctg10_239)" points="1178,25 1149,25 1149,10 1119,40 1149,70 1149,55 1178,55" fill="rgb(255,255,255)" fill-opacity="1.0" stroke="rgb(0,0,0)" stroke-width="2"  />
		</g>
		<g>
			<title> (ctg10_240)</title>
			<polygon class=" (ctg10_240)" points="1180,10 1209,40 1180,70" fill="rgb(255,255,255)" fill-opacity="1.0" stroke="rgb(0,0,0)" stroke-width="2"  />
			<g>
				<title>QRPTase_N (PF02749)
"Quinolinate phosphoribosyl transferase, N-terminal domain"</title>
				<rect class="PF02749" x="1183" y="28" stroke-linejoin="round" width="8" height="24" fill="rgb(75,204,226)" stroke="rgb(60,163,180)" stroke-width="1" opacity="0.75" />
			</g>
			<g>
				<title>QRPTase_C (PF01729)
"Quinolinate phosphoribosyl transferase, C-terminal domain"</title>
				<polygon class="PF01729" points="1192,28 1192,28 1204,40 1192,52 1192,52" stroke-linejoin="round" width="16" height="24" fill="rgb(89,196,148)" stroke="rgb(71,156,118)" stroke-width="1" opacity="0.75" />
			</g>
		</g>
		<g>
			<title> (ctg10_241)</title>
			<polygon class=" (ctg10_241)" points="1209,40 1224,10 1224,70" fill="rgb(255,255,255)" fill-opacity="1.0" stroke="rgb(0,0,0)" stroke-width="2"  />
			<g>
				<title>CYTH (PF01928)
"CYTH domain"</title>
				<polygon class="PF01928" points="1212,40 1218,28 1223,28 1223,52 1218,52" stroke-linejoin="round" width="14" height="24" fill="rgb(184,209,78)" stroke="rgb(147,167,62)" stroke-width="1" opacity="0.75" />
			</g>
		</g>
		<g>
			<title> (ctg10_242)</title>
			<polygon class=" (ctg10_242)" points="1225,40 1228,10 1228,70" fill="rgb(255,255,255)" fill-opacity="1.0" stroke="rgb(0,0,0)" stroke-width="2"  />
			<g>
				<title>Adenylsucc_synt (PF00709)
"Adenylosuccinate synthetase"</title>
				<polygon class="PF00709" points="1228,40 1227,50 1227,30" stroke-linejoin="round" width="2" height="24" fill="rgb(198,70,120)" stroke="rgb(158,56,96)" stroke-width="1" opacity="0.75" />
			</g>
		</g>
		<g>
			<title> (ctg10_243)</title>
			<polygon class=" (ctg10_243)" points="1228,40 1239,10 1239,70" fill="rgb(255,255,255)" fill-opacity="1.0" stroke="rgb(0,0,0)" stroke-width="2"  />
		</g>
		<g>
			<title> (ctg10_244)</title>
			<polygon class=" (ctg10_244)" points="1273,25 1269,25 1269,10 1239,40 1269,70 1269,55 1273,55" fill="rgb(255,255,255)" fill-opacity="1.0" stroke="rgb(0,0,0)" stroke-width="2"  />
			<g>
				<title>GFO_IDH_MocA (PF01408)
"Oxidoreductase family, NAD-binding Rossmann fold"</title>
				<rect class="PF01408" x="1259" y="28" stroke-linejoin="round" width="12" height="24" fill="rgb(76,117,190)" stroke="rgb(60,93,152)" stroke-width="1" opacity="0.75" />
			</g>
		</g>
		<g>
			<title> (ctg10_245)</title>
			<polygon class=" (ctg10_245)" points="1278,25 1359,25 1359,10 1389,40 1359,70 1359,55 1278,55" fill="rgb(255,255,255)" fill-opacity="1.0" stroke="rgb(0,0,0)" stroke-width="2"  />
			<g>
				<title>CPBP (PF02517)
"CPBP intramembrane metalloprotease"</title>
				<rect class="PF02517" x="1318" y="28" stroke-linejoin="round" width="9" height="24" fill="rgb(150,86,216)" stroke="rgb(120,68,172)" stroke-width="1" opacity="0.75" />
			</g>
		</g>
		<g>
			<title> (ctg10_246)</title>
			<polygon class=" (ctg10_246)" points="1390,25 1401,25 1401,10 1431,40 1401,70 1401,55 1390,55" fill="rgb(255,255,255)" fill-opacity="1.0" stroke="rgb(0,0,0)" stroke-width="2"  />
			<g>
				<title>Metallophos (PF00149)
"Calcineurin-like phosphoesterase"</title>
				<polygon class="PF00149" points="1408,28 1415,28 1425,38 1425,42 1415,52 1408,52" stroke-linejoin="round" width="17" height="24" fill="rgb(181,197,58)" stroke="rgb(144,157,46)" stroke-width="1" opacity="0.75" />
			</g>
		</g>
		<g>
			<title> (ctg10_247)</title>
			<polygon class=" (ctg10_247)" points="1432,10 1455,40 1432,70" fill="rgb(255,255,255)" fill-opacity="1.0" stroke="rgb(0,0,0)" stroke-width="2"  />
			<g>
				<title>Epimerase (PF01370)
"NAD dependent epimerase/dehydratase family"</title>
				<polygon class="PF01370" points="1432,28 1442,28 1450,39 1450,41 1442,52 1432,52" stroke-linejoin="round" width="18" height="24" fill="rgb(98,102,214)" stroke="rgb(78,81,171)" stroke-width="1" opacity="0.75" />
			</g>
		</g>
	</g>
</svg>
