<svg version="1.1" baseProfile="full" xmlns="http://www.w3.org/2000/svg" width="1442.7333333333333" height="80">
	<g>
		<line x1="10" y1="40.0" x2="1432.7333333333333" y2="40.0" style="stroke:rgb(70,70,70); stroke-width:3 "/>
		<g>
			<title> (ctg719_4)</title>
			<polygon class=" (ctg719_4)" points="10,25 12,25 12,10 42,40 12,70 12,55 10,55" fill="rgb(255,255,255)" fill-opacity="1.0" stroke="rgb(0,0,0)" stroke-width="2"  />
			<g>
				<title>2-Hacid_dh_C (PF02826)
"D-isomer specific 2-hydroxyacid dehydrogenase, NAD binding domain"</title>
				<polygon class="PF02826" points="21,28 26,28 38,40 38,40 26,52 21,52" stroke-linejoin="round" width="17" height="24" fill="rgb(192,197,93)" stroke="rgb(153,157,74)" stroke-width="1" opacity="0.75" />
			</g>
		</g>
		<g>
			<title> (ctg719_5)</title>
			<polygon class=" (ctg719_5)" points="53,40 79,10 79,70" fill="rgb(255,255,255)" fill-opacity="1.0" stroke="rgb(0,0,0)" stroke-width="2"  />
			<g>
				<title>adh_short_C2 (PF13561)
"Enoyl-(Acyl carrier protein) reductase"</title>
				<polygon class="PF13561" points="57,40 67,28 77,28 77,52 67,52" stroke-linejoin="round" width="24" height="24" fill="rgb(73,205,127)" stroke="rgb(58,164,101)" stroke-width="1" opacity="0.75" />
			</g>
		</g>
		<g>
			<title> (ctg719_6)</title>
			<polygon class=" (ctg719_6)" points="80,40 88,10 88,70" fill="rgb(255,255,255)" fill-opacity="1.0" stroke="rgb(0,0,0)" stroke-width="2"  />
		</g>
		<g>
			<title> (ctg719_7)</title>
			<polygon class=" (ctg719_7)" points="89,40 100,10 100,70" fill="rgb(255,255,255)" fill-opacity="1.0" stroke="rgb(0,0,0)" stroke-width="2"  />
		</g>
		<g>
			<title> (ctg719_8)</title>
			<polygon class=" (ctg719_8)" points="102,10 106,40 102,70" fill="rgb(255,255,255)" fill-opacity="1.0" stroke="rgb(0,0,0)" stroke-width="2"  />
		</g>
		<g>
			<title> (ctg719_9)</title>
			<polygon class=" (ctg719_9)" points="115,25 234,25 234,10 264,40 234,70 234,55 115,55" fill="rgb(255,255,255)" fill-opacity="1.0" stroke="rgb(0,0,0)" stroke-width="2"  />
			<g>
				<title>GATase_2 (PF00310)
"Glutamine amidotransferases class-II"</title>
				<rect class="PF00310" x="115" y="28" stroke-linejoin="round" width="40" height="24" fill="rgb(195,63,68)" stroke="rgb(156,50,54)" stroke-width="1" opacity="0.75" />
			</g>
			<g>
				<title>Glu_syn_central (PF04898)
"Glutamate synthase central domain"</title>
				<rect class="PF04898" x="158" y="28" stroke-linejoin="round" width="28" height="24" fill="rgb(119,210,66)" stroke="rgb(95,168,52)" stroke-width="1" opacity="0.75" />
			</g>
			<g>
				<title>Glu_synthase (PF01645)
"Conserved region in glutamate synthase"</title>
				<rect class="PF01645" x="192" y="28" stroke-linejoin="round" width="36" height="24" fill="rgb(97,123,226)" stroke="rgb(77,98,180)" stroke-width="1" opacity="0.75" />
			</g>
			<g>
				<title>GXGXG (PF01493)
"GXGXG motif"</title>
				<polygon class="PF01493" points="237,28 247,28 255,36 255,44 247,52 237,52" stroke-linejoin="round" width="18" height="24" fill="rgb(197,218,88)" stroke="rgb(157,174,70)" stroke-width="1" opacity="0.75" />
			</g>
		</g>
		<g>
			<title> (ctg719_10)</title>
			<polygon class=" (ctg719_10)" points="264,40 288,10 288,70" fill="rgb(255,255,255)" fill-opacity="1.0" stroke="rgb(0,0,0)" stroke-width="2"  />
			<g>
				<title>LTD (PF00932)
"Lamin Tail Domain"</title>
				<polygon class="PF00932" points="268,40 273,34 273,46" stroke-linejoin="round" width="9" height="24" fill="rgb(71,205,221)" stroke="rgb(56,164,176)" stroke-width="1" opacity="0.75" />
			</g>
			<g>
				<title>SNase (PF00565)
"Staphylococcal nuclease homologue"</title>
				<polygon class="PF00565" points="274,33 278,28 284,28 284,52 278,52 274,47" stroke-linejoin="round" width="10" height="24" fill="rgb(119,223,110)" stroke="rgb(95,178,88)" stroke-width="1" opacity="0.75" />
			</g>
		</g>
		<g>
			<title> (ctg719_11)</title>
			<polygon class=" (ctg719_11)" points="292,10 299,40 292,70" fill="rgb(255,255,255)" fill-opacity="1.0" stroke="rgb(0,0,0)" stroke-width="2"  />
		</g>
		<g>
			<title> (ctg719_12)</title>
			<polygon class=" (ctg719_12)" points="300,25 319,25 319,10 349,40 319,70 319,55 300,55" fill="rgb(255,255,255)" fill-opacity="1.0" stroke="rgb(0,0,0)" stroke-width="2"  />
			<g>
				<title>Peripla_BP_6 (PF13458)
"Periplasmic binding protein"</title>
				<polygon class="PF13458" points="311,28 333,28 343,38 343,42 333,52 311,52" stroke-linejoin="round" width="32" height="24" fill="rgb(94,183,81)" stroke="rgb(75,146,64)" stroke-width="1" opacity="0.75" />
			</g>
		</g>
		<g>
			<title> (ctg719_13)</title>
			<polygon class=" (ctg719_13)" points="393,25 391,25 391,10 361,40 391,70 391,55 393,55" fill="rgb(255,255,255)" fill-opacity="1.0" stroke="rgb(0,0,0)" stroke-width="2"  />
			<g>
				<title>BPD_transp_2 (PF02653)
"Branched-chain amino acid transport system / permease component"</title>
				<polygon class="PF02653" points="365,40 377,28 393,28 393,52 377,52" stroke-linejoin="round" width="29" height="24" fill="rgb(69,130,196)" stroke="rgb(55,104,156)" stroke-width="1" opacity="0.75" />
			</g>
		</g>
		<g>
			<title> (ctg719_14)</title>
			<polygon class=" (ctg719_14)" points="432,25 426,25 426,10 396,40 426,70 426,55 432,55" fill="rgb(255,255,255)" fill-opacity="1.0" stroke="rgb(0,0,0)" stroke-width="2"  />
			<g>
				<title>BPD_transp_2 (PF02653)
"Branched-chain amino acid transport system / permease component"</title>
				<polygon class="PF02653" points="400,40 412,28 425,28 425,52 412,52" stroke-linejoin="round" width="28" height="24" fill="rgb(69,130,196)" stroke="rgb(55,104,156)" stroke-width="1" opacity="0.75" />
			</g>
		</g>
		<g>
			<title> (ctg719_15)</title>
			<polygon class=" (ctg719_15)" points="433,40 456,10 456,70" fill="rgb(255,255,255)" fill-opacity="1.0" stroke="rgb(0,0,0)" stroke-width="2"  />
			<g>
				<title>ABC_tran (PF00005)
"ABC transporter"</title>
				<polygon class="PF00005" points="440,36 446,28 454,28 454,52 446,52 440,44" stroke-linejoin="round" width="14" height="24" fill="rgb(129,201,63)" stroke="rgb(103,160,50)" stroke-width="1" opacity="0.75" />
			</g>
		</g>
		<g>
			<title> (ctg719_16)</title>
			<polygon class=" (ctg719_16)" points="456,40 482,10 482,70" fill="rgb(255,255,255)" fill-opacity="1.0" stroke="rgb(0,0,0)" stroke-width="2"  />
			<g>
				<title>BCA_ABC_TP_C (PF12399)
"Branched-chain amino acid ATP-binding cassette transporter"</title>
				<polygon class="PF12399" points="460,40 458,42 458,38" stroke-linejoin="round" width="2" height="24" fill="rgb(205,68,53)" stroke="rgb(164,54,42)" stroke-width="1" opacity="0.75" />
			</g>
			<g>
				<title>ABC_tran (PF00005)
"ABC transporter"</title>
				<polygon class="PF00005" points="463,37 471,28 479,28 479,52 471,52 463,43" stroke-linejoin="round" width="16" height="24" fill="rgb(129,201,63)" stroke="rgb(103,160,50)" stroke-width="1" opacity="0.75" />
			</g>
		</g>
		<g>
			<title> (ctg719_17)</title>
			<polygon class=" (ctg719_17)" points="485,40 499,10 499,70" fill="rgb(255,255,255)" fill-opacity="1.0" stroke="rgb(0,0,0)" stroke-width="2"  />
			<g>
				<title>PIN (PF01850)
"PIN domain"</title>
				<polygon class="PF01850" points="488,40 494,28 498,28 498,52 494,52" stroke-linejoin="round" width="13" height="24" fill="rgb(91,217,126)" stroke="rgb(72,173,100)" stroke-width="1" opacity="0.75" />
			</g>
		</g>
		<g>
			<title> (ctg719_18)</title>
			<polygon class=" (ctg719_18)" points="500,40 513,10 513,70" fill="rgb(255,255,255)" fill-opacity="1.0" stroke="rgb(0,0,0)" stroke-width="2"  />
		</g>
		<g>
			<title> (ctg719_19)</title>
			<polygon class=" (ctg719_19)" points="518,40 532,10 532,70" fill="rgb(255,255,255)" fill-opacity="1.0" stroke="rgb(0,0,0)" stroke-width="2"  />
			<g>
				<title>Acetyltransf_1 (PF00583)
"Acetyltransferase (GNAT) family"</title>
				<polygon class="PF00583" points="521,40 527,28 530,28 530,52 527,52" stroke-linejoin="round" width="11" height="24" fill="rgb(121,183,50)" stroke="rgb(96,146,39)" stroke-width="1" opacity="0.75" />
			</g>
		</g>
		<g>
			<title> (ctg719_20)</title>
			<polygon class=" (ctg719_20)" points="540,25 568,25 568,10 598,40 568,70 568,55 540,55" fill="rgb(255,255,255)" fill-opacity="1.0" stroke="rgb(0,0,0)" stroke-width="2"  />
			<g>
				<title>Xan_ur_permease (PF00860)
"Permease family"</title>
				<rect class="PF00860" x="542" y="28" stroke-linejoin="round" width="38" height="24" fill="rgb(216,88,217)" stroke="rgb(172,70,173)" stroke-width="1" opacity="0.75" />
			</g>
		</g>
		<g>
			<title> (ctg719_21)</title>
			<polygon class=" (ctg719_21)" points="631,25 631,25 631,10 601,40 631,70 631,55 631,55" fill="rgb(255,255,255)" fill-opacity="1.0" stroke="rgb(0,0,0)" stroke-width="2"  />
			<g>
				<title>Abhydrolase_6 (PF12697)
"Alpha/beta hydrolase family"</title>
				<polygon class="PF12697" points="605,40 617,28 627,28 627,52 617,52" stroke-linejoin="round" width="25" height="24" fill="rgb(113,71,219)" stroke="rgb(90,56,175)" stroke-width="1" opacity="0.75" />
			</g>
		</g>
		<g>
			<title> (ctg719_22)</title>
			<polygon class=" (ctg719_22)" points="631,40 656,10 656,70" fill="rgb(255,255,255)" fill-opacity="1.0" stroke="rgb(0,0,0)" stroke-width="2"  />
			<g>
				<title>ACPS (PF01648)
"4'-phosphopantetheinyl transferase superfamily"</title>
				<polygon class="PF01648" points="635,40 643,31 643,49" stroke-linejoin="round" width="10" height="24" fill="rgb(85,184,135)" stroke="rgb(68,147,108)" stroke-width="1" opacity="0.75" />
			</g>
		</g>
		<g>
			<title> (ctg719_23)</title>
			<polygon class=" (ctg719_23)" points="659,40 667,10 667,70" fill="rgb(255,255,255)" fill-opacity="1.0" stroke="rgb(0,0,0)" stroke-width="2"  />
			<g>
				<title>PP-binding (PF00550)
"Phosphopantetheine attachment site"</title>
				<polygon class="PF00550" points="662,40 665,28 666,28 666,52 665,52" stroke-linejoin="round" width="7" height="24" fill="rgb(103,191,88)" stroke="rgb(82,152,70)" stroke-width="1" opacity="0.75" />
			</g>
		</g>
		<g>
			<title> (ctg719_24)</title>
			<polygon class=" (ctg719_24)" points="1018,25 706,25 706,10 676,40 706,70 706,55 1018,55" fill="rgb(255,255,255)" fill-opacity="1.0" stroke="rgb(0,0,0)" stroke-width="2"  />
			<g>
				<title>Acyl_transf_1 (PF00698)
"Acyl transferase domain"</title>
				<polygon class="PF00698" points="691,29 692,28 704,28 704,52 692,52 691,51" stroke-linejoin="round" width="13" height="24" fill="rgb(59,176,209)" stroke="rgb(47,140,167)" stroke-width="1" opacity="0.75" />
			</g>
			<g>
				<title>KAsynt_C_assoc (PF16197)
"Ketoacyl-synthetase C-terminal extension"</title>
				<rect class="PF16197" x="710" y="28" stroke-linejoin="round" width="13" height="24" fill="rgb(240,150,172)" stroke="rgb(192,120,137)" stroke-width="1" opacity="0.75" />
			</g>
			<g>
				<title>Ketoacyl-synt_C (PF02801)
"Beta-ketoacyl synthase, C-terminal domain"</title>
				<rect class="PF02801" x="723" y="28" stroke-linejoin="round" width="11" height="24" fill="rgb(215,78,102)" stroke="rgb(172,62,81)" stroke-width="1" opacity="0.75" />
			</g>
			<g>
				<title>ketoacyl-synt (PF00109)
"Beta-ketoacyl synthase, N-terminal domain"</title>
				<rect class="PF00109" x="736" y="28" stroke-linejoin="round" width="24" height="24" fill="rgb(112,116,228)" stroke="rgb(89,92,182)" stroke-width="1" opacity="0.75" />
			</g>
			<g>
				<title>PP-binding (PF00550)
"Phosphopantetheine attachment site"</title>
				<rect class="PF00550" x="763" y="28" stroke-linejoin="round" width="6" height="24" fill="rgb(103,191,88)" stroke="rgb(82,152,70)" stroke-width="1" opacity="0.75" />
			</g>
			<g>
				<title>KR (PF08659)
"KR domain"</title>
				<rect class="PF08659" x="780" y="28" stroke-linejoin="round" width="17" height="24" fill="rgb(66,209,188)" stroke="rgb(52,167,150)" stroke-width="1" opacity="0.75" />
			</g>
			<g>
				<title>ADH_zinc_N_2 (PF13602)
"Zinc-binding dehydrogenase"</title>
				<rect class="PF13602" x="799" y="28" stroke-linejoin="round" width="13" height="24" fill="rgb(101,131,226)" stroke="rgb(80,104,180)" stroke-width="1" opacity="0.75" />
			</g>
			<g>
				<title>Methyltransf_12 (PF08242)
"Methyltransferase domain"</title>
				<rect class="PF08242" x="861" y="28" stroke-linejoin="round" width="9" height="24" fill="rgb(187,59,115)" stroke="rgb(149,47,92)" stroke-width="1" opacity="0.75" />
			</g>
			<g>
				<title>PS-DH (PF14765)
"Polyketide synthase dehydratase"</title>
				<rect class="PF14765" x="894" y="28" stroke-linejoin="round" width="29" height="24" fill="rgb(173,56,182)" stroke="rgb(138,44,145)" stroke-width="1" opacity="0.75" />
			</g>
			<g>
				<title>Acyl_transf_1 (PF00698)
"Acyl transferase domain"</title>
				<rect class="PF00698" x="931" y="28" stroke-linejoin="round" width="30" height="24" fill="rgb(59,176,209)" stroke="rgb(47,140,167)" stroke-width="1" opacity="0.75" />
			</g>
			<g>
				<title>KAsynt_C_assoc (PF16197)
"Ketoacyl-synthetase C-terminal extension"</title>
				<rect class="PF16197" x="964" y="28" stroke-linejoin="round" width="14" height="24" fill="rgb(240,150,172)" stroke="rgb(192,120,137)" stroke-width="1" opacity="0.75" />
			</g>
			<g>
				<title>Ketoacyl-synt_C (PF02801)
"Beta-ketoacyl synthase, C-terminal domain"</title>
				<rect class="PF02801" x="979" y="28" stroke-linejoin="round" width="11" height="24" fill="rgb(215,78,102)" stroke="rgb(172,62,81)" stroke-width="1" opacity="0.75" />
			</g>
			<g>
				<title>ketoacyl-synt (PF00109)
"Beta-ketoacyl synthase, N-terminal domain"</title>
				<rect class="PF00109" x="992" y="28" stroke-linejoin="round" width="25" height="24" fill="rgb(112,116,228)" stroke="rgb(89,92,182)" stroke-width="1" opacity="0.75" />
			</g>
		</g>
		<g>
			<title> (ctg719_25)</title>
			<polygon class=" (ctg719_25)" points="1025,10 1029,40 1025,70" fill="rgb(255,255,255)" fill-opacity="1.0" stroke="rgb(0,0,0)" stroke-width="2"  />
		</g>
		<g>
			<title> (ctg719_26)</title>
			<polygon class=" (ctg719_26)" points="1072,25 1068,25 1068,10 1038,40 1068,70 1068,55 1072,55" fill="rgb(255,255,255)" fill-opacity="1.0" stroke="rgb(0,0,0)" stroke-width="2"  />
			<g>
				<title>PTE (PF02126)
"Phosphotriesterase family"</title>
				<polygon class="PF02126" points="1042,40 1054,28 1071,28 1071,52 1054,52" stroke-linejoin="round" width="33" height="24" fill="rgb(200,122,54)" stroke="rgb(160,97,43)" stroke-width="1" opacity="0.75" />
			</g>
		</g>
		<g>
			<title> (ctg719_27)</title>
			<polygon class=" (ctg719_27)" points="1074,10 1083,40 1074,70" fill="rgb(255,255,255)" fill-opacity="1.0" stroke="rgb(0,0,0)" stroke-width="2"  />
		</g>
		<g>
			<title> (ctg719_28)</title>
			<polygon class=" (ctg719_28)" points="1083,25 1087,25 1087,10 1117,40 1087,70 1087,55 1083,55" fill="rgb(255,255,255)" fill-opacity="1.0" stroke="rgb(0,0,0)" stroke-width="2"  />
			<g>
				<title>PALP (PF00291)
"Pyridoxal-phosphate dependent enzyme"</title>
				<polygon class="PF00291" points="1085,28 1101,28 1113,40 1101,52 1085,52" stroke-linejoin="round" width="30" height="24" fill="rgb(180,55,145)" stroke="rgb(144,44,116)" stroke-width="1" opacity="0.75" />
			</g>
		</g>
		<g>
			<title> (ctg719_29)</title>
			<polygon class=" (ctg719_29)" points="1118,40 1132,10 1132,70" fill="rgb(255,255,255)" fill-opacity="1.0" stroke="rgb(0,0,0)" stroke-width="2"  />
			<g>
				<title>Glyoxalase (PF00903)
"Glyoxalase/Bleomycin resistance protein/Dioxygenase superfamily"</title>
				<polygon class="PF00903" points="1121,40 1127,28 1131,28 1131,52 1127,52" stroke-linejoin="round" width="13" height="24" fill="rgb(50,162,189)" stroke="rgb(40,129,151)" stroke-width="1" opacity="0.75" />
			</g>
		</g>
		<g>
			<title> (ctg719_30)</title>
			<polygon class=" (ctg719_30)" points="1135,10 1161,40 1135,70" fill="rgb(255,255,255)" fill-opacity="1.0" stroke="rgb(0,0,0)" stroke-width="2"  />
			<g>
				<title>Zn_dep_PLPC (PF00882)
"Zinc dependent phospholipase C"</title>
				<polygon class="PF00882" points="1135,28 1146,28 1147,28 1147,52 1146,52 1135,52" stroke-linejoin="round" width="12" height="24" fill="rgb(198,126,66)" stroke="rgb(158,100,52)" stroke-width="1" opacity="0.75" />
			</g>
		</g>
		<g>
			<title> (ctg719_31)</title>
			<polygon class=" (ctg719_31)" points="1161,25 1183,25 1183,10 1213,40 1183,70 1183,55 1161,55" fill="rgb(255,255,255)" fill-opacity="1.0" stroke="rgb(0,0,0)" stroke-width="2"  />
			<g>
				<title>Amidohydro_3 (PF07969)
"Amidohydrolase family"</title>
				<polygon class="PF07969" points="1165,28 1197,28 1209,40 1197,52 1165,52" stroke-linejoin="round" width="45" height="24" fill="rgb(228,157,101)" stroke="rgb(182,125,80)" stroke-width="1" opacity="0.75" />
			</g>
		</g>
		<g>
			<title> (ctg719_32)</title>
			<polygon class=" (ctg719_32)" points="1224,25 1255,25 1255,10 1285,40 1255,70 1255,55 1224,55" fill="rgb(255,255,255)" fill-opacity="1.0" stroke="rgb(0,0,0)" stroke-width="2"  />
			<g>
				<title>GATase_6 (PF13522)
"Glutamine amidotransferase domain"</title>
				<rect class="PF13522" x="1229" y="28" stroke-linejoin="round" width="14" height="24" fill="rgb(129,206,75)" stroke="rgb(103,164,60)" stroke-width="1" opacity="0.75" />
			</g>
			<g>
				<title>SIS (PF01380)
"SIS domain"</title>
				<rect class="PF01380" x="1253" y="28" stroke-linejoin="round" width="12" height="24" fill="rgb(212,106,227)" stroke="rgb(169,84,181)" stroke-width="1" opacity="0.75" />
			</g>
			<g>
				<title>SIS (PF01380)
"SIS domain"</title>
				<polygon class="PF01380" points="1270,29 1281,40 1270,51" stroke-linejoin="round" width="12" height="24" fill="rgb(212,106,227)" stroke="rgb(169,84,181)" stroke-width="1" opacity="0.75" />
			</g>
		</g>
		<g>
			<title> (ctg719_33)</title>
			<polygon class=" (ctg719_33)" points="1287,10 1300,40 1287,70" fill="rgb(255,255,255)" fill-opacity="1.0" stroke="rgb(0,0,0)" stroke-width="2"  />
			<g>
				<title>DivIC (PF04977)
"Septum formation initiator"</title>
				<polygon class="PF04977" points="1288,28 1291,28 1295,36 1295,44 1291,52 1288,52" stroke-linejoin="round" width="7" height="24" fill="rgb(167,101,221)" stroke="rgb(133,80,176)" stroke-width="1" opacity="0.75" />
			</g>
		</g>
		<g>
			<title> (ctg719_34)</title>
			<polygon class=" (ctg719_34)" points="1301,10 1315,40 1301,70" fill="rgb(255,255,255)" fill-opacity="1.0" stroke="rgb(0,0,0)" stroke-width="2"  />
		</g>
		<g>
			<title> (ctg719_35)</title>
			<polygon class=" (ctg719_35)" points="1313,25 1332,25 1332,10 1362,40 1332,70 1332,55 1313,55" fill="rgb(255,255,255)" fill-opacity="1.0" stroke="rgb(0,0,0)" stroke-width="2"  />
			<g>
				<title>ATP_bind_3 (PF01171)
"PP-loop family"</title>
				<rect class="PF01171" x="1318" y="28" stroke-linejoin="round" width="18" height="24" fill="rgb(97,189,207)" stroke="rgb(77,151,165)" stroke-width="1" opacity="0.75" />
			</g>
		</g>
		<g>
			<title> (ctg719_36)</title>
			<polygon class=" (ctg719_36)" points="1369,25 1402,25 1402,10 1432,40 1402,70 1402,55 1369,55" fill="rgb(255,255,255)" fill-opacity="1.0" stroke="rgb(0,0,0)" stroke-width="2"  />
			<g>
				<title>AAA (PF00004)
"ATPase family associated with various cellular activities (AAA)"</title>
				<rect class="PF00004" x="1388" y="28" stroke-linejoin="round" width="13" height="24" fill="rgb(57,194,204)" stroke="rgb(45,155,163)" stroke-width="1" opacity="0.75" />
			</g>
			<g>
				<title>AAA_lid_3 (PF17862)
"AAA+ lid domain"</title>
				<rect class="PF17862" x="1403" y="28" stroke-linejoin="round" width="4" height="24" fill="rgb(205,52,78)" stroke="rgb(164,41,62)" stroke-width="1" opacity="0.75" />
			</g>
			<g>
				<title>Peptidase_M41 (PF01434)
"Peptidase family M41"</title>
				<polygon class="PF01434" points="1409,28 1415,28 1427,40 1427,40 1415,52 1409,52" stroke-linejoin="round" width="18" height="24" fill="rgb(108,182,48)" stroke="rgb(86,145,38)" stroke-width="1" opacity="0.75" />
			</g>
		</g>
	</g>
</svg>
