<svg version="1.1" baseProfile="full" xmlns="http://www.w3.org/2000/svg" width="693.0333333333333" height="80">
	<g>
		<line x1="10" y1="40.0" x2="683.0333333333333" y2="40.0" style="stroke:rgb(70,70,70); stroke-width:3 "/>
		<g>
			<title> (ctg2851_1)</title>
			<polygon class=" (ctg2851_1)" points="10,10 12,40 10,70" fill="rgb(255,255,255)" fill-opacity="1.0" stroke="rgb(0,0,0)" stroke-width="2"  />
		</g>
		<g>
			<title> (ctg2851_2)</title>
			<polygon class=" (ctg2851_2)" points="16,25 33,25 33,10 63,40 33,70 33,55 16,55" fill="rgb(255,255,255)" fill-opacity="1.0" stroke="rgb(0,0,0)" stroke-width="2"  />
			<g>
				<title>tRNA-synt_1e (PF01406)
"tRNA synthetases class I (C) catalytic domain"</title>
				<polygon class="PF01406" points="17,28 46,28 47,29 47,51 46,52 17,52" stroke-linejoin="round" width="30" height="24" fill="rgb(131,218,83)" stroke="rgb(104,174,66)" stroke-width="1" opacity="0.75" />
			</g>
			<g>
				<title>DALR_2 (PF09190)
"DALR domain"</title>
				<polygon class="PF09190" points="51,33 57,39 57,41 51,47" stroke-linejoin="round" width="6" height="24" fill="rgb(70,57,193)" stroke="rgb(56,45,154)" stroke-width="1" opacity="0.75" />
			</g>
		</g>
		<g>
			<title> (ctg2851_3)</title>
			<polygon class=" (ctg2851_3)" points="66,10 81,40 66,70" fill="rgb(255,255,255)" fill-opacity="1.0" stroke="rgb(0,0,0)" stroke-width="2"  />
			<g>
				<title>UPF0102 (PF02021)
"Uncharacterised protein family UPF0102"</title>
				<polygon class="PF02021" points="70,28 71,28 78,40 71,52 70,52" stroke-linejoin="round" width="9" height="24" fill="rgb(81,199,67)" stroke="rgb(64,159,53)" stroke-width="1" opacity="0.75" />
			</g>
		</g>
		<g>
			<title> (ctg2851_4)</title>
			<polygon class=" (ctg2851_4)" points="76,40 89,10 89,70" fill="rgb(255,255,255)" fill-opacity="1.0" stroke="rgb(0,0,0)" stroke-width="2"  />
		</g>
		<g>
			<title> (ctg2851_5)</title>
			<polygon class=" (ctg2851_5)" points="94,10 103,40 94,70" fill="rgb(255,255,255)" fill-opacity="1.0" stroke="rgb(0,0,0)" stroke-width="2"  />
		</g>
		<g>
			<title> (ctg2851_6)</title>
			<polygon class=" (ctg2851_6)" points="104,25 105,25 105,10 135,40 105,70 105,55 104,55" fill="rgb(255,255,255)" fill-opacity="1.0" stroke="rgb(0,0,0)" stroke-width="2"  />
			<g>
				<title>Peptidase_M28 (PF04389)
"Peptidase family M28"</title>
				<polygon class="PF04389" points="113,28 119,28 131,40 119,52 113,52" stroke-linejoin="round" width="21" height="24" fill="rgb(190,82,105)" stroke="rgb(152,65,84)" stroke-width="1" opacity="0.75" />
			</g>
		</g>
		<g>
			<title> (ctg2851_7)</title>
			<polygon class=" (ctg2851_7)" points="137,40 145,10 145,70" fill="rgb(255,255,255)" fill-opacity="1.0" stroke="rgb(0,0,0)" stroke-width="2"  />
		</g>
		<g>
			<title> (ctg2851_8)</title>
			<polygon class=" (ctg2851_8)" points="149,40 166,10 166,70" fill="rgb(255,255,255)" fill-opacity="1.0" stroke="rgb(0,0,0)" stroke-width="2"  />
		</g>
		<g>
			<title> (ctg2851_9)</title>
			<polygon class=" (ctg2851_9)" points="175,40 193,10 193,70" fill="rgb(255,255,255)" fill-opacity="1.0" stroke="rgb(0,0,0)" stroke-width="2"  />
			<g>
				<title>NUDIX (PF00293)
"NUDIX domain"</title>
				<polygon class="PF00293" points="179,40 186,28 190,28 190,52 186,52" stroke-linejoin="round" width="13" height="24" fill="rgb(92,56,187)" stroke="rgb(73,44,149)" stroke-width="1" opacity="0.75" />
			</g>
		</g>
		<g>
			<title> (ctg2851_10)</title>
			<polygon class=" (ctg2851_10)" points="230,25 223,25 223,10 193,40 223,70 223,55 230,55" fill="rgb(255,255,255)" fill-opacity="1.0" stroke="rgb(0,0,0)" stroke-width="2"  />
		</g>
		<g>
			<title> (ctg2851_11)</title>
			<polygon class=" (ctg2851_11)" points="338,25 261,25 261,10 231,40 261,70 261,55 338,55" fill="rgb(255,255,255)" fill-opacity="1.0" stroke="rgb(0,0,0)" stroke-width="2"  />
			<g>
				<title>LANC_like (PF05147)
"Lanthionine synthetase C-like protein"</title>
				<polygon class="PF05147" points="235,40 247,28 266,28 266,52 247,52" stroke-linejoin="round" width="35" height="24" fill="rgb(129,182,79)" stroke="rgb(103,145,63)" stroke-width="1" opacity="0.75" />
			</g>
			<g>
				<title>DUF4135 (PF13575)
"Domain of unknown function (DUF4135)"</title>
				<rect class="PF13575" x="278" y="28" stroke-linejoin="round" width="37" height="24" fill="rgb(228,84,217)" stroke="rgb(182,67,173)" stroke-width="1" opacity="0.75" />
			</g>
		</g>
		<g>
			<title> (ctg2851_12)</title>
			<polygon class=" (ctg2851_12)" points="339,40 349,10 349,70" fill="rgb(255,255,255)" fill-opacity="1.0" stroke="rgb(0,0,0)" stroke-width="2"  />
		</g>
		<g>
			<title> (ctg2851_13)</title>
			<polygon class=" (ctg2851_13)" points="361,25 391,25 391,10 421,40 391,70 391,55 361,55" fill="rgb(255,255,255)" fill-opacity="1.0" stroke="rgb(0,0,0)" stroke-width="2"  />
			<g>
				<title>OEP (PF02321)
"Outer membrane efflux protein"</title>
				<rect class="PF02321" x="384" y="28" stroke-linejoin="round" width="12" height="24" fill="rgb(205,57,201)" stroke="rgb(164,45,160)" stroke-width="1" opacity="0.75" />
			</g>
			<g>
				<title>OEP (PF02321)
"Outer membrane efflux protein"</title>
				<polygon class="PF02321" points="399,28 405,28 417,40 405,52 399,52" stroke-linejoin="round" width="19" height="24" fill="rgb(205,57,201)" stroke="rgb(164,45,160)" stroke-width="1" opacity="0.75" />
			</g>
		</g>
		<g>
			<title> (ctg2851_14)</title>
			<polygon class=" (ctg2851_14)" points="422,25 434,25 434,10 464,40 434,70 434,55 422,55" fill="rgb(255,255,255)" fill-opacity="1.0" stroke="rgb(0,0,0)" stroke-width="2"  />
			<g>
				<title>Biotin_lipoyl_2 (PF13533)
"Biotin-lipoyl like"</title>
				<rect class="PF13533" x="429" y="28" stroke-linejoin="round" width="5" height="24" fill="rgb(229,122,112)" stroke="rgb(183,97,89)" stroke-width="1" opacity="0.75" />
			</g>
		</g>
		<g>
			<title> (ctg2851_15)</title>
			<polygon class=" (ctg2851_15)" points="464,25 506,25 506,10 536,40 506,70 506,55 464,55" fill="rgb(255,255,255)" fill-opacity="1.0" stroke="rgb(0,0,0)" stroke-width="2"  />
			<g>
				<title>Peptidase_C39 (PF03412)
"Peptidase C39 family"</title>
				<rect class="PF03412" x="466" y="28" stroke-linejoin="round" width="13" height="24" fill="rgb(214,226,77)" stroke="rgb(171,180,61)" stroke-width="1" opacity="0.75" />
			</g>
			<g>
				<title>ABC_membrane (PF00664)
"ABC transporter transmembrane region"</title>
				<rect class="PF00664" x="481" y="28" stroke-linejoin="round" width="26" height="24" fill="rgb(149,226,73)" stroke="rgb(119,180,58)" stroke-width="1" opacity="0.75" />
			</g>
			<g>
				<title>ABC_tran (PF00005)
"ABC transporter"</title>
				<polygon class="PF00005" points="515,28 520,28 529,37 529,43 520,52 515,52" stroke-linejoin="round" width="14" height="24" fill="rgb(129,201,63)" stroke="rgb(103,160,50)" stroke-width="1" opacity="0.75" />
			</g>
		</g>
		<g>
			<title> (ctg2851_16)</title>
			<polygon class=" (ctg2851_16)" points="538,25 608,25 608,10 638,40 608,70 608,55 538,55" fill="rgb(255,255,255)" fill-opacity="1.0" stroke="rgb(0,0,0)" stroke-width="2"  />
			<g>
				<title>ABC_membrane (PF00664)
"ABC transporter transmembrane region"</title>
				<rect class="PF00664" x="583" y="28" stroke-linejoin="round" width="27" height="24" fill="rgb(149,226,73)" stroke="rgb(119,180,58)" stroke-width="1" opacity="0.75" />
			</g>
			<g>
				<title>ABC_tran (PF00005)
"ABC transporter"</title>
				<polygon class="PF00005" points="617,28 622,28 631,37 631,43 622,52 617,52" stroke-linejoin="round" width="14" height="24" fill="rgb(129,201,63)" stroke="rgb(103,160,50)" stroke-width="1" opacity="0.75" />
			</g>
		</g>
		<g>
			<title> (ctg2851_17)</title>
			<polygon class=" (ctg2851_17)" points="639,25 649,25 649,10 679,40 649,70 649,55 639,55" fill="rgb(255,255,255)" fill-opacity="1.0" stroke="rgb(0,0,0)" stroke-width="2"  />
			<g>
				<title>Peripla_BP_6 (PF13458)
"Periplasmic binding protein"</title>
				<polygon class="PF13458" points="645,28 662,28 674,40 662,52 645,52" stroke-linejoin="round" width="32" height="24" fill="rgb(94,183,81)" stroke="rgb(75,146,64)" stroke-width="1" opacity="0.75" />
			</g>
		</g>
	</g>
</svg>
