<svg version="1.1" baseProfile="full" xmlns="http://www.w3.org/2000/svg" width="255.9" height="80">
	<g>
		<line x1="10" y1="40.0" x2="245.9" y2="40.0" style="stroke:rgb(70,70,70); stroke-width:3 "/>
		<g>
			<title> (ctg10564_1)</title>
			<polygon class=" (ctg10564_1)" points="28,10 46,40 28,70" fill="rgb(255,255,255)" fill-opacity="1.0" stroke="rgb(0,0,0)" stroke-width="2"  />
			<g>
				<title>AMP-binding (PF00501)
"AMP-binding enzyme"</title>
				<polygon class="PF00501" points="28,28 35,28 36,29 36,51 35,52 28,52" stroke-linejoin="round" width="8" height="24" fill="rgb(60,217,223)" stroke="rgb(48,173,178)" stroke-width="1" opacity="0.75" />
			</g>
		</g>
		<g>
			<title> (ctg10564_2)</title>
			<polygon class=" (ctg10564_2)" points="44,40 50,10 50,70" fill="rgb(255,255,255)" fill-opacity="1.0" stroke="rgb(0,0,0)" stroke-width="2"  />
		</g>
		<g>
			<title> (ctg10564_3)</title>
			<polygon class=" (ctg10564_3)" points="50,40 61,10 61,70" fill="rgb(255,255,255)" fill-opacity="1.0" stroke="rgb(0,0,0)" stroke-width="2"  />
		</g>
		<g>
			<title> (ctg10564_4)</title>
			<polygon class=" (ctg10564_4)" points="75,25 207,25 207,10 237,40 207,70 207,55 75,55" fill="rgb(255,255,255)" fill-opacity="1.0" stroke="rgb(0,0,0)" stroke-width="2"  />
			<g>
				<title>AMP-binding (PF00501)
"AMP-binding enzyme"</title>
				<rect class="PF00501" x="76" y="28" stroke-linejoin="round" width="33" height="24" fill="rgb(60,217,223)" stroke="rgb(48,173,178)" stroke-width="1" opacity="0.75" />
			</g>
			<g>
				<title>PP-binding (PF00550)
"Phosphopantetheine attachment site"</title>
				<rect class="PF00550" x="123" y="28" stroke-linejoin="round" width="6" height="24" fill="rgb(103,191,88)" stroke="rgb(82,152,70)" stroke-width="1" opacity="0.75" />
			</g>
			<g>
				<title>ketoacyl-synt (PF00109)
"Beta-ketoacyl synthase, N-terminal domain"</title>
				<rect class="PF00109" x="132" y="28" stroke-linejoin="round" width="22" height="24" fill="rgb(112,116,228)" stroke="rgb(89,92,182)" stroke-width="1" opacity="0.75" />
			</g>
			<g>
				<title>Ketoacyl-synt_C (PF02801)
"Beta-ketoacyl synthase, C-terminal domain"</title>
				<rect class="PF02801" x="155" y="28" stroke-linejoin="round" width="11" height="24" fill="rgb(215,78,102)" stroke="rgb(172,62,81)" stroke-width="1" opacity="0.75" />
			</g>
			<g>
				<title>Nucleoporin2 (PF04096)
"Nucleoporin autopeptidase"</title>
				<polygon class="PF04096" points="223,31 232,40 223,49" stroke-linejoin="round" width="13" height="24" fill="rgb(214,183,82)" stroke="rgb(171,146,65)" stroke-width="1" opacity="0.75" />
			</g>
		</g>
	</g>
</svg>
