<svg version="1.1" baseProfile="full" xmlns="http://www.w3.org/2000/svg" width="1585.9666666666667" height="80">
	<g>
		<line x1="10" y1="40.0" x2="1575.9666666666667" y2="40.0" style="stroke:rgb(70,70,70); stroke-width:3 "/>
		<g>
			<title> (ctg179_1)</title>
			<polygon class=" (ctg179_1)" points="40,25 40,25 40,10 10,40 40,70 40,55 40,55" fill="rgb(255,255,255)" fill-opacity="1.0" stroke="rgb(0,0,0)" stroke-width="2"  />
			<g>
				<title>rve (PF00665)
"Integrase core domain"</title>
				<polygon class="PF00665" points="15,39 26,28 27,28 27,52 26,52 15,41" stroke-linejoin="round" width="12" height="24" fill="rgb(93,64,200)" stroke="rgb(74,51,160)" stroke-width="1" opacity="0.75" />
			</g>
			<g>
				<title>HTH_23 (PF13384)
"Homeodomain-like domain"</title>
				<rect class="PF13384" x="36" y="28" stroke-linejoin="round" width="3" height="24" fill="rgb(77,216,116)" stroke="rgb(61,172,92)" stroke-width="1" opacity="0.75" />
			</g>
		</g>
		<g>
			<title> (ctg179_2)</title>
			<polygon class=" (ctg179_2)" points="42,40 47,10 47,70" fill="rgb(255,255,255)" fill-opacity="1.0" stroke="rgb(0,0,0)" stroke-width="2"  />
			<g>
				<title>Recombinase (PF07508)
"Recombinase"</title>
				<polygon class="PF07508" points="45,40 47,28 47,28 47,52 47,52" stroke-linejoin="round" width="5" height="24" fill="rgb(92,198,102)" stroke="rgb(73,158,81)" stroke-width="1" opacity="0.75" />
			</g>
		</g>
		<g>
			<title> (ctg179_3)</title>
			<polygon class=" (ctg179_3)" points="61,40 74,10 74,70" fill="rgb(255,255,255)" fill-opacity="1.0" stroke="rgb(0,0,0)" stroke-width="2"  />
			<g>
				<title>PIN (PF01850)
"PIN domain"</title>
				<polygon class="PF01850" points="64,40 69,28 73,28 73,52 69,52" stroke-linejoin="round" width="11" height="24" fill="rgb(91,217,126)" stroke="rgb(72,173,100)" stroke-width="1" opacity="0.75" />
			</g>
		</g>
		<g>
			<title> (ctg179_4)</title>
			<polygon class=" (ctg179_4)" points="75,40 82,10 82,70" fill="rgb(255,255,255)" fill-opacity="1.0" stroke="rgb(0,0,0)" stroke-width="2"  />
		</g>
		<g>
			<title> (ctg179_5)</title>
			<polygon class=" (ctg179_5)" points="85,40 112,10 112,70" fill="rgb(255,255,255)" fill-opacity="1.0" stroke="rgb(0,0,0)" stroke-width="2"  />
			<g>
				<title>PAPS_reduct (PF01507)
"Phosphoadenosine phosphosulfate reductase family"</title>
				<polygon class="PF01507" points="99,29 100,28 111,28 111,52 100,52 99,51" stroke-linejoin="round" width="12" height="24" fill="rgb(87,190,105)" stroke="rgb(69,152,83)" stroke-width="1" opacity="0.75" />
			</g>
		</g>
		<g>
			<title> (ctg179_6)</title>
			<polygon class=" (ctg179_6)" points="219,25 143,25 143,10 113,40 143,70 143,55 219,55" fill="rgb(255,255,255)" fill-opacity="1.0" stroke="rgb(0,0,0)" stroke-width="2"  />
		</g>
		<g>
			<title> (ctg179_7)</title>
			<polygon class=" (ctg179_7)" points="255,25 254,25 254,10 224,40 254,70 254,55 255,55" fill="rgb(255,255,255)" fill-opacity="1.0" stroke="rgb(0,0,0)" stroke-width="2"  />
			<g>
				<title>DUF4007 (PF13182)
"Protein of unknown function (DUF4007)"</title>
				<polygon class="PF13182" points="228,40 240,28 253,28 253,52 240,52" stroke-linejoin="round" width="29" height="24" fill="rgb(65,198,129)" stroke="rgb(52,158,103)" stroke-width="1" opacity="0.75" />
			</g>
		</g>
		<g>
			<title> (ctg179_8)</title>
			<polygon class=" (ctg179_8)" points="260,25 269,25 269,10 299,40 269,70 269,55 260,55" fill="rgb(255,255,255)" fill-opacity="1.0" stroke="rgb(0,0,0)" stroke-width="2"  />
			<g>
				<title>Aminotran_5 (PF00266)
"Aminotransferase class-V"</title>
				<polygon class="PF00266" points="260,28 282,28 294,40 282,52 260,52" stroke-linejoin="round" width="36" height="24" fill="rgb(214,54,122)" stroke="rgb(171,43,97)" stroke-width="1" opacity="0.75" />
			</g>
		</g>
		<g>
			<title> (ctg179_9)</title>
			<polygon class=" (ctg179_9)" points="301,40 311,10 311,70" fill="rgb(255,255,255)" fill-opacity="1.0" stroke="rgb(0,0,0)" stroke-width="2"  />
		</g>
		<g>
			<title> (ctg179_10)</title>
			<polygon class=" (ctg179_10)" points="355,25 345,25 345,10 315,40 345,70 345,55 355,55" fill="rgb(255,255,255)" fill-opacity="1.0" stroke="rgb(0,0,0)" stroke-width="2"  />
			<g>
				<title>DndB (PF14072)
"DNA-sulfur modification-associated"</title>
				<polygon class="PF14072" points="319,40 331,28 355,28 355,52 331,52" stroke-linejoin="round" width="37" height="24" fill="rgb(96,58,198)" stroke="rgb(76,46,158)" stroke-width="1" opacity="0.75" />
			</g>
		</g>
		<g>
			<title> (ctg179_11)</title>
			<polygon class=" (ctg179_11)" points="406,25 400,25 400,10 370,40 400,70 400,55 406,55" fill="rgb(255,255,255)" fill-opacity="1.0" stroke="rgb(0,0,0)" stroke-width="2"  />
		</g>
		<g>
			<title> (ctg179_12)</title>
			<polygon class=" (ctg179_12)" points="446,25 436,25 436,10 406,40 436,70 436,55 446,55" fill="rgb(255,255,255)" fill-opacity="1.0" stroke="rgb(0,0,0)" stroke-width="2"  />
			<g>
				<title>TPR_11 (PF13414)
"TPR repeat"</title>
				<polygon class="PF13414" points="410,40 414,36 414,44 410,40" stroke-linejoin="round" width="4" height="24" fill="rgb(55,76,182)" stroke="rgb(44,60,145)" stroke-width="1" opacity="0.75" />
			</g>
			<g>
				<title>TPR_1 (PF00515)
"Tetratricopeptide repeat"</title>
				<polygon class="PF00515" points="418,32 421,29 421,51 418,48" stroke-linejoin="round" width="3" height="24" fill="rgb(193,73,189)" stroke="rgb(154,58,151)" stroke-width="1" opacity="0.75" />
			</g>
			<g>
				<title>TPR_16 (PF13432)
"Tetratricopeptide repeat"</title>
				<rect class="PF13432" x="425" y="28" stroke-linejoin="round" width="6" height="24" fill="rgb(154,205,86)" stroke="rgb(123,164,68)" stroke-width="1" opacity="0.75" />
			</g>
			<g>
				<title>TPR_16 (PF13432)
"Tetratricopeptide repeat"</title>
				<rect class="PF13432" x="432" y="28" stroke-linejoin="round" width="6" height="24" fill="rgb(154,205,86)" stroke="rgb(123,164,68)" stroke-width="1" opacity="0.75" />
			</g>
		</g>
		<g>
			<title> (ctg179_13)</title>
			<polygon class=" (ctg179_13)" points="481,10 488,40 481,70" fill="rgb(255,255,255)" fill-opacity="1.0" stroke="rgb(0,0,0)" stroke-width="2"  />
		</g>
		<g>
			<title> (ctg179_14)</title>
			<polygon class=" (ctg179_14)" points="504,10 528,40 504,70" fill="rgb(255,255,255)" fill-opacity="1.0" stroke="rgb(0,0,0)" stroke-width="2"  />
		</g>
		<g>
			<title> (ctg179_15)</title>
			<polygon class=" (ctg179_15)" points="536,10 550,40 536,70" fill="rgb(255,255,255)" fill-opacity="1.0" stroke="rgb(0,0,0)" stroke-width="2"  />
			<g>
				<title>DinB_2 (PF12867)
"DinB superfamily"</title>
				<polygon class="PF12867" points="537,28 541,28 547,40 541,52 537,52" stroke-linejoin="round" width="12" height="24" fill="rgb(184,90,185)" stroke="rgb(147,72,148)" stroke-width="1" opacity="0.75" />
			</g>
		</g>
		<g>
			<title> (ctg179_16)</title>
			<polygon class=" (ctg179_16)" points="553,10 563,40 553,70" fill="rgb(255,255,255)" fill-opacity="1.0" stroke="rgb(0,0,0)" stroke-width="2"  />
			<g>
				<title>GYD (PF08734)
"GYD domain"</title>
				<polygon class="PF08734" points="553,28 555,28 560,40 555,52 553,52" stroke-linejoin="round" width="9" height="24" fill="rgb(88,192,183)" stroke="rgb(70,153,146)" stroke-width="1" opacity="0.75" />
			</g>
		</g>
		<g>
			<title> (ctg179_17)</title>
			<polygon class=" (ctg179_17)" points="568,25 878,25 878,10 908,40 878,70 878,55 568,55" fill="rgb(255,255,255)" fill-opacity="1.0" stroke="rgb(0,0,0)" stroke-width="2"  />
			<g>
				<title>ketoacyl-synt (PF00109)
"Beta-ketoacyl synthase, N-terminal domain"</title>
				<rect class="PF00109" x="569" y="28" stroke-linejoin="round" width="25" height="24" fill="rgb(112,116,228)" stroke="rgb(89,92,182)" stroke-width="1" opacity="0.75" />
			</g>
			<g>
				<title>Ketoacyl-synt_C (PF02801)
"Beta-ketoacyl synthase, C-terminal domain"</title>
				<rect class="PF02801" x="595" y="28" stroke-linejoin="round" width="11" height="24" fill="rgb(215,78,102)" stroke="rgb(172,62,81)" stroke-width="1" opacity="0.75" />
			</g>
			<g>
				<title>KAsynt_C_assoc (PF16197)
"Ketoacyl-synthetase C-terminal extension"</title>
				<rect class="PF16197" x="607" y="28" stroke-linejoin="round" width="12" height="24" fill="rgb(240,150,172)" stroke="rgb(192,120,137)" stroke-width="1" opacity="0.75" />
			</g>
			<g>
				<title>Acyl_transf_1 (PF00698)
"Acyl transferase domain"</title>
				<rect class="PF00698" x="626" y="28" stroke-linejoin="round" width="30" height="24" fill="rgb(59,176,209)" stroke="rgb(47,140,167)" stroke-width="1" opacity="0.75" />
			</g>
			<g>
				<title>PS-DH (PF14765)
"Polyketide synthase dehydratase"</title>
				<rect class="PF14765" x="663" y="28" stroke-linejoin="round" width="29" height="24" fill="rgb(173,56,182)" stroke="rgb(138,44,145)" stroke-width="1" opacity="0.75" />
			</g>
			<g>
				<title>Methyltransf_12 (PF08242)
"Methyltransferase domain"</title>
				<rect class="PF08242" x="716" y="28" stroke-linejoin="round" width="10" height="24" fill="rgb(187,59,115)" stroke="rgb(149,47,92)" stroke-width="1" opacity="0.75" />
			</g>
			<g>
				<title>ADH_zinc_N_2 (PF13602)
"Zinc-binding dehydrogenase"</title>
				<rect class="PF13602" x="772" y="28" stroke-linejoin="round" width="13" height="24" fill="rgb(101,131,226)" stroke="rgb(80,104,180)" stroke-width="1" opacity="0.75" />
			</g>
			<g>
				<title>KR (PF08659)
"KR domain"</title>
				<rect class="PF08659" x="787" y="28" stroke-linejoin="round" width="17" height="24" fill="rgb(66,209,188)" stroke="rgb(52,167,150)" stroke-width="1" opacity="0.75" />
			</g>
			<g>
				<title>PP-binding (PF00550)
"Phosphopantetheine attachment site"</title>
				<rect class="PF00550" x="815" y="28" stroke-linejoin="round" width="6" height="24" fill="rgb(103,191,88)" stroke="rgb(82,152,70)" stroke-width="1" opacity="0.75" />
			</g>
			<g>
				<title>ketoacyl-synt (PF00109)
"Beta-ketoacyl synthase, N-terminal domain"</title>
				<rect class="PF00109" x="825" y="28" stroke-linejoin="round" width="24" height="24" fill="rgb(112,116,228)" stroke="rgb(89,92,182)" stroke-width="1" opacity="0.75" />
			</g>
			<g>
				<title>Ketoacyl-synt_C (PF02801)
"Beta-ketoacyl synthase, C-terminal domain"</title>
				<rect class="PF02801" x="850" y="28" stroke-linejoin="round" width="11" height="24" fill="rgb(215,78,102)" stroke="rgb(172,62,81)" stroke-width="1" opacity="0.75" />
			</g>
			<g>
				<title>KAsynt_C_assoc (PF16197)
"Ketoacyl-synthetase C-terminal extension"</title>
				<rect class="PF16197" x="862" y="28" stroke-linejoin="round" width="14" height="24" fill="rgb(240,150,172)" stroke="rgb(192,120,137)" stroke-width="1" opacity="0.75" />
			</g>
			<g>
				<title>Acyl_transf_1 (PF00698)
"Acyl transferase domain"</title>
				<polygon class="PF00698" points="880,28 892,28 895,31 895,49 892,52 880,52" stroke-linejoin="round" width="15" height="24" fill="rgb(59,176,209)" stroke="rgb(47,140,167)" stroke-width="1" opacity="0.75" />
			</g>
		</g>
		<g>
			<title> (ctg179_18)</title>
			<polygon class=" (ctg179_18)" points="958,25 939,25 939,10 909,40 939,70 939,55 958,55" fill="rgb(255,255,255)" fill-opacity="1.0" stroke="rgb(0,0,0)" stroke-width="2"  />
			<g>
				<title>Aminotran_5 (PF00266)
"Aminotransferase class-V"</title>
				<rect class="PF00266" x="928" y="28" stroke-linejoin="round" width="15" height="24" fill="rgb(214,54,122)" stroke="rgb(171,43,97)" stroke-width="1" opacity="0.75" />
			</g>
		</g>
		<g>
			<title> (ctg179_19)</title>
			<polygon class=" (ctg179_19)" points="1004,25 989,25 989,10 959,40 989,70 989,55 1004,55" fill="rgb(255,255,255)" fill-opacity="1.0" stroke="rgb(0,0,0)" stroke-width="2"  />
			<g>
				<title>GDC-P (PF02347)
"Glycine cleavage system P-protein"</title>
				<polygon class="PF02347" points="963,40 975,28 1002,28 1002,52 975,52" stroke-linejoin="round" width="43" height="24" fill="rgb(54,115,215)" stroke="rgb(43,92,172)" stroke-width="1" opacity="0.75" />
			</g>
		</g>
		<g>
			<title> (ctg179_20)</title>
			<polygon class=" (ctg179_20)" points="1004,40 1017,10 1017,70" fill="rgb(255,255,255)" fill-opacity="1.0" stroke="rgb(0,0,0)" stroke-width="2"  />
			<g>
				<title>GCV_H (PF01597)
"Glycine cleavage H-protein"</title>
				<polygon class="PF01597" points="1007,40 1012,28 1016,28 1016,52 1012,52" stroke-linejoin="round" width="12" height="24" fill="rgb(77,190,144)" stroke="rgb(61,152,115)" stroke-width="1" opacity="0.75" />
			</g>
		</g>
		<g>
			<title> (ctg179_21)</title>
			<polygon class=" (ctg179_21)" points="1055,25 1048,25 1048,10 1018,40 1048,70 1048,55 1055,55" fill="rgb(255,255,255)" fill-opacity="1.0" stroke="rgb(0,0,0)" stroke-width="2"  />
			<g>
				<title>GCV_T_C (PF08669)
"Glycine cleavage T-protein C-terminal barrel domain"</title>
				<polygon class="PF08669" points="1022,40 1026,36 1026,44" stroke-linejoin="round" width="8" height="24" fill="rgb(184,178,54)" stroke="rgb(147,142,43)" stroke-width="1" opacity="0.75" />
			</g>
			<g>
				<title>GCV_T (PF01571)
"Aminomethyltransferase folate-binding domain"</title>
				<polygon class="PF01571" points="1029,33 1034,28 1053,28 1053,52 1034,52 1029,47" stroke-linejoin="round" width="24" height="24" fill="rgb(112,228,161)" stroke="rgb(89,182,128)" stroke-width="1" opacity="0.75" />
			</g>
		</g>
		<g>
			<title> (ctg179_22)</title>
			<polygon class=" (ctg179_22)" points="1059,25 1059,25 1059,10 1089,40 1059,70 1059,55 1059,55" fill="rgb(255,255,255)" fill-opacity="1.0" stroke="rgb(0,0,0)" stroke-width="2"  />
		</g>
		<g>
			<title> (ctg179_23)</title>
			<polygon class=" (ctg179_23)" points="1091,10 1099,40 1091,70" fill="rgb(255,255,255)" fill-opacity="1.0" stroke="rgb(0,0,0)" stroke-width="2"  />
			<g>
				<title>MazE_antitoxin (PF04014)
"Antidote-toxin recognition MazE, bacterial antitoxin"</title>
				<polygon class="PF04014" points="1091,28 1092,28 1095,37 1095,43 1092,52 1091,52" stroke-linejoin="round" width="4" height="24" fill="rgb(226,108,170)" stroke="rgb(180,86,136)" stroke-width="1" opacity="0.75" />
			</g>
		</g>
		<g>
			<title> (ctg179_24)</title>
			<polygon class=" (ctg179_24)" points="1098,10 1111,40 1098,70" fill="rgb(255,255,255)" fill-opacity="1.0" stroke="rgb(0,0,0)" stroke-width="2"  />
		</g>
		<g>
			<title> (ctg179_25)</title>
			<polygon class=" (ctg179_25)" points="1113,25 1124,25 1124,10 1154,40 1124,70 1124,55 1113,55" fill="rgb(255,255,255)" fill-opacity="1.0" stroke="rgb(0,0,0)" stroke-width="2"  />
			<g>
				<title>Oxidored_molyb (PF00174)
"Oxidoreductase molybdopterin binding domain"</title>
				<polygon class="PF00174" points="1123,28 1138,28 1140,30 1140,50 1138,52 1123,52" stroke-linejoin="round" width="17" height="24" fill="rgb(152,193,93)" stroke="rgb(121,154,74)" stroke-width="1" opacity="0.75" />
			</g>
			<g>
				<title>Mo-co_dimer (PF03404)
"Mo-co oxidoreductase dimerisation domain"</title>
				<polygon class="PF03404" points="1143,33 1150,40 1143,47" stroke-linejoin="round" width="10" height="24" fill="rgb(105,224,154)" stroke="rgb(84,179,123)" stroke-width="1" opacity="0.75" />
			</g>
		</g>
		<g>
			<title> (ctg179_26)</title>
			<polygon class=" (ctg179_26)" points="1196,25 1184,25 1184,10 1154,40 1184,70 1184,55 1196,55" fill="rgb(255,255,255)" fill-opacity="1.0" stroke="rgb(0,0,0)" stroke-width="2"  />
			<g>
				<title>p450 (PF00067)
"Cytochrome P450"</title>
				<polygon class="PF00067" points="1158,40 1170,28 1190,28 1190,52 1170,52" stroke-linejoin="round" width="35" height="24" fill="rgb(85,216,107)" stroke="rgb(68,172,85)" stroke-width="1" opacity="0.75" />
			</g>
		</g>
		<g>
			<title> (ctg179_27)</title>
			<polygon class=" (ctg179_27)" points="1253,25 1227,25 1227,10 1197,40 1227,70 1227,55 1253,55" fill="rgb(255,255,255)" fill-opacity="1.0" stroke="rgb(0,0,0)" stroke-width="2"  />
			<g>
				<title>Ring_hydroxyl_A (PF00848)
"Ring hydroxylating alpha subunit (catalytic domain)"</title>
				<polygon class="PF00848" points="1201,40 1213,28 1221,28 1221,52 1213,52" stroke-linejoin="round" width="24" height="24" fill="rgb(76,134,184)" stroke="rgb(60,107,147)" stroke-width="1" opacity="0.75" />
			</g>
			<g>
				<title>Rieske (PF00355)
"Rieske [2Fe-2S] domain"</title>
				<rect class="PF00355" x="1225" y="28" stroke-linejoin="round" width="8" height="24" fill="rgb(186,77,145)" stroke="rgb(148,61,115)" stroke-width="1" opacity="0.75" />
			</g>
		</g>
		<g>
			<title> (ctg179_28)</title>
			<polygon class=" (ctg179_28)" points="1256,40 1266,10 1266,70" fill="rgb(255,255,255)" fill-opacity="1.0" stroke="rgb(0,0,0)" stroke-width="2"  />
			<g>
				<title>PemK_toxin (PF02452)
"PemK-like, MazF-like toxin of type II toxin-antitoxin system"</title>
				<polygon class="PF02452" points="1259,40 1263,28 1265,28 1265,52 1263,52" stroke-linejoin="round" width="9" height="24" fill="rgb(81,193,221)" stroke="rgb(64,154,176)" stroke-width="1" opacity="0.75" />
			</g>
		</g>
		<g>
			<title> (ctg179_29)</title>
			<polygon class=" (ctg179_29)" points="1267,40 1274,10 1274,70" fill="rgb(255,255,255)" fill-opacity="1.0" stroke="rgb(0,0,0)" stroke-width="2"  />
		</g>
		<g>
			<title> (ctg179_30)</title>
			<polygon class=" (ctg179_30)" points="1278,25 1290,25 1290,10 1320,40 1290,70 1290,55 1278,55" fill="rgb(255,255,255)" fill-opacity="1.0" stroke="rgb(0,0,0)" stroke-width="2"  />
			<g>
				<title>p450 (PF00067)
"Cytochrome P450"</title>
				<polygon class="PF00067" points="1279,28 1303,28 1315,40 1303,52 1279,52" stroke-linejoin="round" width="38" height="24" fill="rgb(85,216,107)" stroke="rgb(68,172,85)" stroke-width="1" opacity="0.75" />
			</g>
		</g>
		<g>
			<title> (ctg179_31)</title>
			<polygon class=" (ctg179_31)" points="1323,25 1325,25 1325,10 1355,40 1325,70 1325,55 1323,55" fill="rgb(255,255,255)" fill-opacity="1.0" stroke="rgb(0,0,0)" stroke-width="2"  />
			<g>
				<title>Aldo_ket_red (PF00248)
"Aldo/keto reductase family"</title>
				<polygon class="PF00248" points="1324,28 1338,28 1350,40 1338,52 1324,52" stroke-linejoin="round" width="30" height="24" fill="rgb(225,205,58)" stroke="rgb(180,164,46)" stroke-width="1" opacity="0.75" />
			</g>
		</g>
		<g>
			<title> (ctg179_32)</title>
			<polygon class=" (ctg179_32)" points="1355,10 1367,40 1355,70" fill="rgb(255,255,255)" fill-opacity="1.0" stroke="rgb(0,0,0)" stroke-width="2"  />
			<g>
				<title>Glyoxalase (PF00903)
"Glyoxalase/Bleomycin resistance protein/Dioxygenase superfamily"</title>
				<polygon class="PF00903" points="1355,28 1359,28 1364,40 1359,52 1355,52" stroke-linejoin="round" width="10" height="24" fill="rgb(50,162,189)" stroke="rgb(40,129,151)" stroke-width="1" opacity="0.75" />
			</g>
		</g>
		<g>
			<title> (ctg179_33)</title>
			<polygon class=" (ctg179_33)" points="1368,40 1397,10 1397,70" fill="rgb(255,255,255)" fill-opacity="1.0" stroke="rgb(0,0,0)" stroke-width="2"  />
		</g>
		<g>
			<title> (ctg179_34)</title>
			<polygon class=" (ctg179_34)" points="1407,40 1433,10 1433,70" fill="rgb(255,255,255)" fill-opacity="1.0" stroke="rgb(0,0,0)" stroke-width="2"  />
		</g>
		<g>
			<title> (ctg179_35)</title>
			<polygon class=" (ctg179_35)" points="1453,10 1457,40 1453,70" fill="rgb(255,255,255)" fill-opacity="1.0" stroke="rgb(0,0,0)" stroke-width="2"  />
		</g>
		<g>
			<title> (ctg179_36)</title>
			<polygon class=" (ctg179_36)" points="1459,10 1465,40 1459,70" fill="rgb(255,255,255)" fill-opacity="1.0" stroke="rgb(0,0,0)" stroke-width="2"  />
		</g>
		<g>
			<title> (ctg179_37)</title>
			<polygon class=" (ctg179_37)" points="1497,10 1522,40 1497,70" fill="rgb(255,255,255)" fill-opacity="1.0" stroke="rgb(0,0,0)" stroke-width="2"  />
			<g>
				<title>adh_short_C2 (PF13561)
"Enoyl-(Acyl carrier protein) reductase"</title>
				<polygon class="PF13561" points="1498,28 1508,28 1518,40 1508,52 1498,52" stroke-linejoin="round" width="23" height="24" fill="rgb(73,205,127)" stroke="rgb(58,164,101)" stroke-width="1" opacity="0.75" />
			</g>
		</g>
		<g>
			<title> (ctg179_38)</title>
			<polygon class=" (ctg179_38)" points="1525,10 1544,40 1525,70" fill="rgb(255,255,255)" fill-opacity="1.0" stroke="rgb(0,0,0)" stroke-width="2"  />
		</g>
	</g>
</svg>
