<svg version="1.1" baseProfile="full" xmlns="http://www.w3.org/2000/svg" width="426.4" height="80">
	<g>
		<line x1="10" y1="40.0" x2="416.4" y2="40.0" style="stroke:rgb(70,70,70); stroke-width:3 "/>
		<g>
			<title> (ctg4193_1)</title>
			<polygon class=" (ctg4193_1)" points="10,40 13,10 13,70" fill="rgb(255,255,255)" fill-opacity="1.0" stroke="rgb(0,0,0)" stroke-width="2"  />
		</g>
		<g>
			<title> (ctg4193_2)</title>
			<polygon class=" (ctg4193_2)" points="82,25 43,25 43,10 13,40 43,70 43,55 82,55" fill="rgb(255,255,255)" fill-opacity="1.0" stroke="rgb(0,0,0)" stroke-width="2"  />
			<g>
				<title>SQHop_cyclase_C (PF13243)
"Squalene-hopene cyclase C-terminal domain"</title>
				<polygon class="PF13243" points="17,40 29,28 48,28 48,52 29,52" stroke-linejoin="round" width="32" height="24" fill="rgb(191,58,201)" stroke="rgb(152,46,160)" stroke-width="1" opacity="0.75" />
			</g>
			<g>
				<title>SQHop_cyclase_N (PF13249)
"Squalene-hopene cyclase N-terminal domain"</title>
				<rect class="PF13249" x="49" y="28" stroke-linejoin="round" width="28" height="24" fill="rgb(88,190,89)" stroke="rgb(70,152,71)" stroke-width="1" opacity="0.75" />
			</g>
		</g>
		<g>
			<title> (ctg4193_3)</title>
			<polygon class=" (ctg4193_3)" points="125,25 123,25 123,10 93,40 123,70 123,55 125,55" fill="rgb(255,255,255)" fill-opacity="1.0" stroke="rgb(0,0,0)" stroke-width="2"  />
			<g>
				<title>OCD_Mu_crystall (PF02423)
"Ornithine cyclodeaminase/mu-crystallin family"</title>
				<polygon class="PF02423" points="97,40 109,28 124,28 124,52 109,52" stroke-linejoin="round" width="31" height="24" fill="rgb(221,120,93)" stroke="rgb(176,96,74)" stroke-width="1" opacity="0.75" />
			</g>
		</g>
		<g>
			<title> (ctg4193_4)</title>
			<polygon class=" (ctg4193_4)" points="132,10 157,40 132,70" fill="rgb(255,255,255)" fill-opacity="1.0" stroke="rgb(0,0,0)" stroke-width="2"  />
			<g>
				<title>Vut_1 (PF02592)
"Putative vitamin uptake transporter"</title>
				<polygon class="PF02592" points="136,28 144,28 153,40 144,52 136,52" stroke-linejoin="round" width="18" height="24" fill="rgb(93,184,75)" stroke="rgb(74,147,60)" stroke-width="1" opacity="0.75" />
			</g>
		</g>
		<g>
			<title> (ctg4193_5)</title>
			<polygon class=" (ctg4193_5)" points="162,40 186,10 186,70" fill="rgb(255,255,255)" fill-opacity="1.0" stroke="rgb(0,0,0)" stroke-width="2"  />
			<g>
				<title>adh_short (PF00106)
"short chain dehydrogenase"</title>
				<polygon class="PF00106" points="166,40 176,28 184,28 184,52 176,52 166,40" stroke-linejoin="round" width="18" height="24" fill="rgb(182,219,73)" stroke="rgb(145,175,58)" stroke-width="1" opacity="0.75" />
			</g>
		</g>
		<g>
			<title> (ctg4193_6)</title>
			<polygon class=" (ctg4193_6)" points="194,40 211,10 211,70" fill="rgb(255,255,255)" fill-opacity="1.0" stroke="rgb(0,0,0)" stroke-width="2"  />
			<g>
				<title>PTPS (PF01242)
"6-pyruvoyl tetrahydropterin synthase"</title>
				<polygon class="PF01242" points="197,40 204,28 210,28 210,52 204,52" stroke-linejoin="round" width="15" height="24" fill="rgb(179,224,60)" stroke="rgb(143,179,48)" stroke-width="1" opacity="0.75" />
			</g>
		</g>
		<g>
			<title> (ctg4193_7)</title>
			<polygon class=" (ctg4193_7)" points="218,10 228,40 218,70" fill="rgb(255,255,255)" fill-opacity="1.0" stroke="rgb(0,0,0)" stroke-width="2"  />
		</g>
		<g>
			<title> (ctg4193_8)</title>
			<polygon class=" (ctg4193_8)" points="262,25 260,25 260,10 230,40 260,70 260,55 262,55" fill="rgb(255,255,255)" fill-opacity="1.0" stroke="rgb(0,0,0)" stroke-width="2"  />
			<g>
				<title>PALP (PF00291)
"Pyridoxal-phosphate dependent enzyme"</title>
				<polygon class="PF00291" points="234,40 246,28 259,28 259,52 246,52" stroke-linejoin="round" width="28" height="24" fill="rgb(180,55,145)" stroke="rgb(144,44,116)" stroke-width="1" opacity="0.75" />
			</g>
		</g>
		<g>
			<title> (ctg4193_9)</title>
			<polygon class=" (ctg4193_9)" points="308,25 292,25 292,10 262,40 292,70 292,55 308,55" fill="rgb(255,255,255)" fill-opacity="1.0" stroke="rgb(0,0,0)" stroke-width="2"  />
			<g>
				<title>SnoaL (PF07366)
"SnoaL-like polyketide cyclase"</title>
				<polygon class="PF07366" points="266,40 276,30 276,50" stroke-linejoin="round" width="12" height="24" fill="rgb(206,89,111)" stroke="rgb(164,71,88)" stroke-width="1" opacity="0.75" />
			</g>
			<g>
				<title>Lactamase_B (PF00753)
"Metallo-beta-lactamase superfamily"</title>
				<rect class="PF00753" x="285" y="28" stroke-linejoin="round" width="18" height="24" fill="rgb(206,198,96)" stroke="rgb(164,158,76)" stroke-width="1" opacity="0.75" />
			</g>
		</g>
		<g>
			<title> (ctg4193_10)</title>
			<polygon class=" (ctg4193_10)" points="313,25 320,25 320,10 350,40 320,70 320,55 313,55" fill="rgb(255,255,255)" fill-opacity="1.0" stroke="rgb(0,0,0)" stroke-width="2"  />
			<g>
				<title>DAO (PF01266)
"FAD dependent oxidoreductase"</title>
				<polygon class="PF01266" points="313,28 334,28 346,40 346,40 334,52 313,52" stroke-linejoin="round" width="33" height="24" fill="rgb(123,179,59)" stroke="rgb(98,143,47)" stroke-width="1" opacity="0.75" />
			</g>
		</g>
	</g>
</svg>
