<svg version="1.1" baseProfile="full" xmlns="http://www.w3.org/2000/svg" width="286.06666666666666" height="80">
	<g>
		<line x1="10" y1="40.0" x2="276.06666666666666" y2="40.0" style="stroke:rgb(70,70,70); stroke-width:3 "/>
		<g>
			<title> (ctg1040_1)</title>
			<polygon class=" (ctg1040_1)" points="10,40 21,10 21,70" fill="rgb(255,255,255)" fill-opacity="1.0" stroke="rgb(0,0,0)" stroke-width="2"  />
		</g>
		<g>
			<title> (ctg1040_2)</title>
			<polygon class=" (ctg1040_2)" points="26,10 31,40 26,70" fill="rgb(255,255,255)" fill-opacity="1.0" stroke="rgb(0,0,0)" stroke-width="2"  />
		</g>
		<g>
			<title> (ctg1040_3)</title>
			<polygon class=" (ctg1040_3)" points="31,25 79,25 79,10 109,40 79,70 79,55 31,55" fill="rgb(255,255,255)" fill-opacity="1.0" stroke="rgb(0,0,0)" stroke-width="2"  />
			<g>
				<title>YcaO (PF02624)
"YcaO cyclodehydratase, ATP-ad Mg2+-binding"</title>
				<polygon class="PF02624" points="71,28 92,28 104,40 104,40 92,52 71,52" stroke-linejoin="round" width="33" height="24" fill="rgb(76,84,185)" stroke="rgb(60,67,148)" stroke-width="1" opacity="0.75" />
			</g>
		</g>
		<g>
			<title> (ctg1040_4)</title>
			<polygon class=" (ctg1040_4)" points="109,25 118,25 118,10 148,40 118,70 118,55 109,55" fill="rgb(255,255,255)" fill-opacity="1.0" stroke="rgb(0,0,0)" stroke-width="2"  />
		</g>
		<g>
			<title> (ctg1040_5)</title>
			<polygon class=" (ctg1040_5)" points="150,10 159,40 150,70" fill="rgb(255,255,255)" fill-opacity="1.0" stroke="rgb(0,0,0)" stroke-width="2"  />
		</g>
		<g>
			<title> (ctg1040_6)</title>
			<polygon class=" (ctg1040_6)" points="160,25 210,25 210,10 240,40 210,70 210,55 160,55" fill="rgb(255,255,255)" fill-opacity="1.0" stroke="rgb(0,0,0)" stroke-width="2"  />
			<g>
				<title>FA_desaturase (PF00487)
"Fatty acid desaturase"</title>
				<rect class="PF00487" x="171" y="28" stroke-linejoin="round" width="23" height="24" fill="rgb(104,51,205)" stroke="rgb(83,40,164)" stroke-width="1" opacity="0.75" />
			</g>
		</g>
	</g>
</svg>
