<svg version="1.1" baseProfile="full" xmlns="http://www.w3.org/2000/svg" width="1102.9666666666667" height="80">
	<g>
		<line x1="10" y1="40.0" x2="1092.9666666666667" y2="40.0" style="stroke:rgb(70,70,70); stroke-width:3 "/>
		<g>
			<title> (ctg826_9)</title>
			<polygon class=" (ctg826_9)" points="82,25 79,25 79,10 49,40 79,70 79,55 82,55" fill="rgb(255,255,255)" fill-opacity="1.0" stroke="rgb(0,0,0)" stroke-width="2"  />
			<g>
				<title>Peptidase_M29 (PF02073)
"Thermophilic metalloprotease (M29)"</title>
				<polygon class="PF02073" points="53,40 65,28 69,28 69,52 65,52" stroke-linejoin="round" width="19" height="24" fill="rgb(181,81,92)" stroke="rgb(144,64,73)" stroke-width="1" opacity="0.75" />
			</g>
		</g>
		<g>
			<title> (ctg826_10)</title>
			<polygon class=" (ctg826_10)" points="85,40 114,10 114,70" fill="rgb(255,255,255)" fill-opacity="1.0" stroke="rgb(0,0,0)" stroke-width="2"  />
			<g>
				<title>BPD_transp_1 (PF00528)
"Binding-protein-dependent transport system inner membrane component"</title>
				<polygon class="PF00528" points="89,40 101,28 103,28 103,52 101,52" stroke-linejoin="round" width="18" height="24" fill="rgb(77,208,225)" stroke="rgb(61,166,180)" stroke-width="1" opacity="0.75" />
			</g>
		</g>
		<g>
			<title> (ctg826_11)</title>
			<polygon class=" (ctg826_11)" points="147,25 144,25 144,10 114,40 144,70 144,55 147,55" fill="rgb(255,255,255)" fill-opacity="1.0" stroke="rgb(0,0,0)" stroke-width="2"  />
			<g>
				<title>BPD_transp_1 (PF00528)
"Binding-protein-dependent transport system inner membrane component"</title>
				<polygon class="PF00528" points="118,40 130,28 136,28 136,52 130,52" stroke-linejoin="round" width="22" height="24" fill="rgb(77,208,225)" stroke="rgb(61,166,180)" stroke-width="1" opacity="0.75" />
			</g>
		</g>
		<g>
			<title> (ctg826_12)</title>
			<polygon class=" (ctg826_12)" points="204,25 182,25 182,10 152,40 182,70 182,55 204,55" fill="rgb(255,255,255)" fill-opacity="1.0" stroke="rgb(0,0,0)" stroke-width="2"  />
			<g>
				<title>SBP_bac_5 (PF00496)
"Bacterial extracellular solute-binding proteins, family 5 Middle"</title>
				<polygon class="PF00496" points="160,36 168,28 196,28 196,52 168,52 160,44" stroke-linejoin="round" width="36" height="24" fill="rgb(199,94,116)" stroke="rgb(159,75,92)" stroke-width="1" opacity="0.75" />
			</g>
		</g>
		<g>
			<title> (ctg826_13)</title>
			<polygon class=" (ctg826_13)" points="251,25 238,25 238,10 208,40 238,70 238,55 251,55" fill="rgb(255,255,255)" fill-opacity="1.0" stroke="rgb(0,0,0)" stroke-width="2"  />
			<g>
				<title>Peptidase_M20 (PF01546)
"Peptidase family M20/M25/M40"</title>
				<polygon class="PF01546" points="212,40 224,28 241,28 241,52 224,52" stroke-linejoin="round" width="33" height="24" fill="rgb(88,213,108)" stroke="rgb(70,170,86)" stroke-width="1" opacity="0.75" />
			</g>
		</g>
		<g>
			<title> (ctg826_14)</title>
			<polygon class=" (ctg826_14)" points="251,40 264,10 264,70" fill="rgb(255,255,255)" fill-opacity="1.0" stroke="rgb(0,0,0)" stroke-width="2"  />
		</g>
		<g>
			<title> (ctg826_15)</title>
			<polygon class=" (ctg826_15)" points="309,25 306,25 306,10 276,40 306,70 306,55 309,55" fill="rgb(255,255,255)" fill-opacity="1.0" stroke="rgb(0,0,0)" stroke-width="2"  />
			<g>
				<title>IlvC (PF01450)
"Acetohydroxy acid isomeroreductase, catalytic domain"</title>
				<polygon class="PF01450" points="280,40 290,30 290,50" stroke-linejoin="round" width="14" height="24" fill="rgb(54,198,169)" stroke="rgb(43,158,135)" stroke-width="1" opacity="0.75" />
			</g>
			<g>
				<title>IlvN (PF07991)
"Acetohydroxy acid isomeroreductase, NADPH-binding domain"</title>
				<polygon class="PF07991" points="291,29 292,28 307,28 307,52 292,52 291,51" stroke-linejoin="round" width="16" height="24" fill="rgb(108,60,227)" stroke="rgb(86,48,181)" stroke-width="1" opacity="0.75" />
			</g>
		</g>
		<g>
			<title> (ctg826_16)</title>
			<polygon class=" (ctg826_16)" points="376,25 345,25 345,10 315,40 345,70 345,55 376,55" fill="rgb(255,255,255)" fill-opacity="1.0" stroke="rgb(0,0,0)" stroke-width="2"  />
			<g>
				<title>Bac_rhamnosid_C (PF17390)
"Bacterial alpha-L-rhamnosidase C-terminal domain"</title>
				<polygon class="PF17390" points="319,40 322,37 322,43" stroke-linejoin="round" width="7" height="24" fill="rgb(205,58,114)" stroke="rgb(164,46,91)" stroke-width="1" opacity="0.75" />
			</g>
			<g>
				<title>Bac_rhamnosid6H (PF17389)
"Bacterial alpha-L-rhamnosidase 6 hairpin glycosidase domain"</title>
				<polygon class="PF17389" points="323,36 331,28 361,28 361,52 331,52 323,44" stroke-linejoin="round" width="38" height="24" fill="rgb(212,61,77)" stroke="rgb(169,48,61)" stroke-width="1" opacity="0.75" />
			</g>
			<g>
				<title>Bac_rhamnosid (PF05592)
"Bacterial alpha-L-rhamnosidase concanavalin-like domain"</title>
				<rect class="PF05592" x="362" y="28" stroke-linejoin="round" width="10" height="24" fill="rgb(97,211,89)" stroke="rgb(77,168,71)" stroke-width="1" opacity="0.75" />
			</g>
		</g>
		<g>
			<title> (ctg826_17)</title>
			<polygon class=" (ctg826_17)" points="377,40 403,10 403,70" fill="rgb(255,255,255)" fill-opacity="1.0" stroke="rgb(0,0,0)" stroke-width="2"  />
			<g>
				<title>Bac_rhamnosid_N (PF08531)
"Alpha-L-rhamnosidase N-terminal domain"</title>
				<polygon class="PF08531" points="381,40 390,30 390,50" stroke-linejoin="round" width="13" height="24" fill="rgb(125,200,86)" stroke="rgb(100,160,68)" stroke-width="1" opacity="0.75" />
			</g>
		</g>
		<g>
			<title> (ctg826_18)</title>
			<polygon class=" (ctg826_18)" points="404,40 431,10 431,70" fill="rgb(255,255,255)" fill-opacity="1.0" stroke="rgb(0,0,0)" stroke-width="2"  />
			<g>
				<title>Peptidase_M55 (PF04951)
"D-aminopeptidase"</title>
				<polygon class="PF04951" points="408,40 419,28 430,28 430,52 419,52" stroke-linejoin="round" width="26" height="24" fill="rgb(94,138,195)" stroke="rgb(75,110,156)" stroke-width="1" opacity="0.75" />
			</g>
		</g>
		<g>
			<title> (ctg826_19)</title>
			<polygon class=" (ctg826_19)" points="440,40 453,10 453,70" fill="rgb(255,255,255)" fill-opacity="1.0" stroke="rgb(0,0,0)" stroke-width="2"  />
		</g>
		<g>
			<title> (ctg826_20)</title>
			<polygon class=" (ctg826_20)" points="454,10 462,40 454,70" fill="rgb(255,255,255)" fill-opacity="1.0" stroke="rgb(0,0,0)" stroke-width="2"  />
		</g>
		<g>
			<title> (ctg826_21)</title>
			<polygon class=" (ctg826_21)" points="480,40 489,10 489,70" fill="rgb(255,255,255)" fill-opacity="1.0" stroke="rgb(0,0,0)" stroke-width="2"  />
		</g>
		<g>
			<title> (ctg826_22)</title>
			<polygon class=" (ctg826_22)" points="489,10 516,40 489,70" fill="rgb(255,255,255)" fill-opacity="1.0" stroke="rgb(0,0,0)" stroke-width="2"  />
			<g>
				<title>PEP_hydrolase (PF09370)
"Phosphoenolpyruvate hydrolase-like"</title>
				<polygon class="PF09370" points="489,28 500,28 512,40 500,52 489,52" stroke-linejoin="round" width="26" height="24" fill="rgb(218,144,83)" stroke="rgb(174,115,66)" stroke-width="1" opacity="0.75" />
			</g>
		</g>
		<g>
			<title> (ctg826_23)</title>
			<polygon class=" (ctg826_23)" points="517,25 526,25 526,10 556,40 526,70 526,55 517,55" fill="rgb(255,255,255)" fill-opacity="1.0" stroke="rgb(0,0,0)" stroke-width="2"  />
			<g>
				<title>UPF0261 (PF06792)
"Uncharacterised protein family (UPF0261)"</title>
				<polygon class="PF06792" points="517,28 540,28 552,40 540,52 517,52" stroke-linejoin="round" width="39" height="24" fill="rgb(204,161,89)" stroke="rgb(163,128,71)" stroke-width="1" opacity="0.75" />
			</g>
		</g>
		<g>
			<title> (ctg826_24)</title>
			<polygon class=" (ctg826_24)" points="555,40 570,10 570,70" fill="rgb(255,255,255)" fill-opacity="1.0" stroke="rgb(0,0,0)" stroke-width="2"  />
		</g>
		<g>
			<title> (ctg826_25)</title>
			<polygon class=" (ctg826_25)" points="572,25 594,25 594,10 624,40 594,70 594,55 572,55" fill="rgb(255,255,255)" fill-opacity="1.0" stroke="rgb(0,0,0)" stroke-width="2"  />
			<g>
				<title>Oxidored_FMN (PF00724)
"NADH:flavin oxidoreductase / NADH oxidase family"</title>
				<rect class="PF00724" x="572" y="28" stroke-linejoin="round" width="20" height="24" fill="rgb(157,188,65)" stroke="rgb(125,150,52)" stroke-width="1" opacity="0.75" />
			</g>
			<g>
				<title>Pyr_redox_2 (PF07992)
"Pyridine nucleotide-disulphide oxidoreductase"</title>
				<polygon class="PF07992" points="596,28 607,28 619,40 607,52 596,52" stroke-linejoin="round" width="27" height="24" fill="rgb(83,223,167)" stroke="rgb(66,178,133)" stroke-width="1" opacity="0.75" />
			</g>
		</g>
		<g>
			<title> (ctg826_26)</title>
			<polygon class=" (ctg826_26)" points="633,10 654,40 633,70" fill="rgb(255,255,255)" fill-opacity="1.0" stroke="rgb(0,0,0)" stroke-width="2"  />
			<g>
				<title>adh_short_C2 (PF13561)
"Enoyl-(Acyl carrier protein) reductase"</title>
				<polygon class="PF13561" points="633,28 642,28 651,40 642,52 633,52" stroke-linejoin="round" width="21" height="24" fill="rgb(73,205,127)" stroke="rgb(58,164,101)" stroke-width="1" opacity="0.75" />
			</g>
		</g>
		<g>
			<title> (ctg826_27)</title>
			<polygon class=" (ctg826_27)" points="655,10 662,40 655,70" fill="rgb(255,255,255)" fill-opacity="1.0" stroke="rgb(0,0,0)" stroke-width="2"  />
		</g>
		<g>
			<title> (ctg826_28)</title>
			<polygon class=" (ctg826_28)" points="667,10 673,40 667,70" fill="rgb(255,255,255)" fill-opacity="1.0" stroke="rgb(0,0,0)" stroke-width="2"  />
		</g>
		<g>
			<title> (ctg826_29)</title>
			<polygon class=" (ctg826_29)" points="676,25 684,25 684,10 714,40 684,70 684,55 676,55" fill="rgb(255,255,255)" fill-opacity="1.0" stroke="rgb(0,0,0)" stroke-width="2"  />
			<g>
				<title>Chal_sti_synt_N (PF00195)
"Chalcone and stilbene synthases, N-terminal domain"</title>
				<polygon class="PF00195" points="677,28 698,28 699,29 699,51 698,52 677,52" stroke-linejoin="round" width="22" height="24" fill="rgb(60,181,161)" stroke="rgb(47,144,128)" stroke-width="1" opacity="0.75" />
			</g>
			<g>
				<title>Chal_sti_synt_C (PF02797)
"Chalcone and stilbene synthases, C-terminal domain"</title>
				<polygon class="PF02797" points="700,30 710,40 700,50" stroke-linejoin="round" width="14" height="24" fill="rgb(139,212,63)" stroke="rgb(111,169,50)" stroke-width="1" opacity="0.75" />
			</g>
		</g>
		<g>
			<title> (ctg826_30)</title>
			<polygon class=" (ctg826_30)" points="715,25 724,25 724,10 754,40 724,70 724,55 715,55" fill="rgb(255,255,255)" fill-opacity="1.0" stroke="rgb(0,0,0)" stroke-width="2"  />
			<g>
				<title>FAD_binding_3 (PF01494)
"FAD binding domain"</title>
				<polygon class="PF01494" points="715,28 738,28 750,40 750,40 738,52 715,52" stroke-linejoin="round" width="35" height="24" fill="rgb(182,175,59)" stroke="rgb(145,140,47)" stroke-width="1" opacity="0.75" />
			</g>
		</g>
		<g>
			<title> (ctg826_31)</title>
			<polygon class=" (ctg826_31)" points="756,10 785,40 756,70" fill="rgb(255,255,255)" fill-opacity="1.0" stroke="rgb(0,0,0)" stroke-width="2"  />
			<g>
				<title>UbiA (PF01040)
"UbiA prenyltransferase family"</title>
				<polygon class="PF01040" points="758,28 769,28 781,40 769,52 758,52" stroke-linejoin="round" width="25" height="24" fill="rgb(189,57,100)" stroke="rgb(151,45,80)" stroke-width="1" opacity="0.75" />
			</g>
		</g>
		<g>
			<title> (ctg826_32)</title>
			<polygon class=" (ctg826_32)" points="798,25 802,25 802,10 832,40 802,70 802,55 798,55" fill="rgb(255,255,255)" fill-opacity="1.0" stroke="rgb(0,0,0)" stroke-width="2"  />
			<g>
				<title>E1_dh (PF00676)
"Dehydrogenase E1 component"</title>
				<polygon class="PF00676" points="800,28 815,28 827,40 815,52 800,52" stroke-linejoin="round" width="29" height="24" fill="rgb(180,115,48)" stroke="rgb(144,92,38)" stroke-width="1" opacity="0.75" />
			</g>
		</g>
		<g>
			<title> (ctg826_33)</title>
			<polygon class=" (ctg826_33)" points="830,25 835,25 835,10 865,40 835,70 835,55 830,55" fill="rgb(255,255,255)" fill-opacity="1.0" stroke="rgb(0,0,0)" stroke-width="2"  />
			<g>
				<title>Transket_pyr (PF02779)
"Transketolase, pyrimidine binding domain"</title>
				<rect class="PF02779" x="832" y="28" stroke-linejoin="round" width="17" height="24" fill="rgb(189,186,84)" stroke="rgb(151,148,67)" stroke-width="1" opacity="0.75" />
			</g>
			<g>
				<title>Transketolase_C (PF02780)
"Transketolase, C-terminal domain"</title>
				<polygon class="PF02780" points="852,31 861,40 852,49" stroke-linejoin="round" width="12" height="24" fill="rgb(76,206,101)" stroke="rgb(60,164,80)" stroke-width="1" opacity="0.75" />
			</g>
		</g>
		<g>
			<title> (ctg826_34)</title>
			<polygon class=" (ctg826_34)" points="867,40 876,10 876,70" fill="rgb(255,255,255)" fill-opacity="1.0" stroke="rgb(0,0,0)" stroke-width="2"  />
		</g>
		<g>
			<title> (ctg826_35)</title>
			<polygon class=" (ctg826_35)" points="884,25 888,25 888,10 918,40 888,70 888,55 884,55" fill="rgb(255,255,255)" fill-opacity="1.0" stroke="rgb(0,0,0)" stroke-width="2"  />
			<g>
				<title>RecA (PF00154)
"recA bacterial DNA recombination protein"</title>
				<polygon class="PF00154" points="884,28 902,28 910,36 910,44 902,52 884,52" stroke-linejoin="round" width="26" height="24" fill="rgb(191,79,162)" stroke="rgb(152,63,129)" stroke-width="1" opacity="0.75" />
			</g>
		</g>
		<g>
			<title> (ctg826_36)</title>
			<polygon class=" (ctg826_36)" points="921,40 941,10 941,70" fill="rgb(255,255,255)" fill-opacity="1.0" stroke="rgb(0,0,0)" stroke-width="2"  />
		</g>
		<g>
			<title> (ctg826_37)</title>
			<polygon class=" (ctg826_37)" points="944,25 944,25 944,10 974,40 944,70 944,55 944,55" fill="rgb(255,255,255)" fill-opacity="1.0" stroke="rgb(0,0,0)" stroke-width="2"  />
			<g>
				<title>KH_1 (PF00013)
"KH domain"</title>
				<rect class="PF00013" x="944" y="28" stroke-linejoin="round" width="5" height="24" fill="rgb(80,187,102)" stroke="rgb(64,149,81)" stroke-width="1" opacity="0.75" />
			</g>
			<g>
				<title>HD (PF01966)
"HD domain"</title>
				<polygon class="PF01966" points="955,28 957,28 964,35 964,45 957,52 955,52" stroke-linejoin="round" width="9" height="24" fill="rgb(92,193,119)" stroke="rgb(73,154,95)" stroke-width="1" opacity="0.75" />
			</g>
		</g>
		<g>
			<title> (ctg826_38)</title>
			<polygon class=" (ctg826_38)" points="978,25 979,25 979,10 1009,40 979,70 979,55 978,55" fill="rgb(255,255,255)" fill-opacity="1.0" stroke="rgb(0,0,0)" stroke-width="2"  />
			<g>
				<title>Pribosyltran_N (PF13793)
"N-terminal domain of ribose phosphate pyrophosphokinase"</title>
				<rect class="PF13793" x="978" y="28" stroke-linejoin="round" width="11" height="24" fill="rgb(198,87,51)" stroke="rgb(158,69,40)" stroke-width="1" opacity="0.75" />
			</g>
			<g>
				<title>Pribosyl_synth (PF14572)
"Phosphoribosyl synthetase-associated domain"</title>
				<polygon class="PF14572" points="997,32 1005,40 997,48" stroke-linejoin="round" width="11" height="24" fill="rgb(229,120,92)" stroke="rgb(183,96,73)" stroke-width="1" opacity="0.75" />
			</g>
		</g>
		<g>
			<title> (ctg826_39)</title>
			<polygon class=" (ctg826_39)" points="1013,10 1034,40 1013,70" fill="rgb(255,255,255)" fill-opacity="1.0" stroke="rgb(0,0,0)" stroke-width="2"  />
			<g>
				<title>Ribosomal_L25p (PF01386)
"Ribosomal L25p family"</title>
				<rect class="PF01386" x="1013" y="28" stroke-linejoin="round" width="8" height="24" fill="rgb(79,225,110)" stroke="rgb(63,180,88)" stroke-width="1" opacity="0.75" />
			</g>
			<g>
				<title>Ribosomal_TL5_C (PF14693)
"Ribosomal protein TL5, C-terminal domain"</title>
				<polygon class="PF14693" points="1022,28 1022,28 1030,39 1030,41 1022,52 1022,52" stroke-linejoin="round" width="8" height="24" fill="rgb(228,79,104)" stroke="rgb(182,63,83)" stroke-width="1" opacity="0.75" />
			</g>
		</g>
		<g>
			<title> (ctg826_40)</title>
			<polygon class=" (ctg826_40)" points="1040,10 1054,40 1040,70" fill="rgb(255,255,255)" fill-opacity="1.0" stroke="rgb(0,0,0)" stroke-width="2"  />
			<g>
				<title>Pept_tRNA_hydro (PF01195)
"Peptidyl-tRNA hydrolase"</title>
				<polygon class="PF01195" points="1040,28 1045,28 1050,40 1045,52 1040,52" stroke-linejoin="round" width="12" height="24" fill="rgb(51,192,198)" stroke="rgb(40,153,158)" stroke-width="1" opacity="0.75" />
			</g>
		</g>
		<g>
			<title> (ctg826_41)</title>
			<polygon class=" (ctg826_41)" points="1060,40 1085,10 1085,70" fill="rgb(255,255,255)" fill-opacity="1.0" stroke="rgb(0,0,0)" stroke-width="2"  />
			<g>
				<title>PBP_like (PF12727)
"PBP superfamily domain"</title>
				<polygon class="PF12727" points="1067,36 1074,28 1085,28 1085,52 1074,52 1067,44" stroke-linejoin="round" width="18" height="24" fill="rgb(153,200,50)" stroke="rgb(122,160,40)" stroke-width="1" opacity="0.75" />
			</g>
		</g>
	</g>
</svg>
