<svg version="1.1" baseProfile="full" xmlns="http://www.w3.org/2000/svg" width="700.7333333333333" height="80">
	<g>
		<line x1="10" y1="40.0" x2="690.7333333333333" y2="40.0" style="stroke:rgb(70,70,70); stroke-width:3 "/>
		<g>
			<title> (ctg2482_4)</title>
			<polygon class=" (ctg2482_4)" points="11,10 20,40 11,70" fill="rgb(255,255,255)" fill-opacity="1.0" stroke="rgb(0,0,0)" stroke-width="2"  />
			<g>
				<title>Zn-ribbon_8 (PF09723)
"Zinc ribbon domain"</title>
				<polygon class="PF09723" points="12,28 13,28 15,32 15,48 13,52 12,52" stroke-linejoin="round" width="3" height="24" fill="rgb(100,194,213)" stroke="rgb(80,155,170)" stroke-width="1" opacity="0.75" />
			</g>
		</g>
		<g>
			<title> (ctg2482_5)</title>
			<polygon class=" (ctg2482_5)" points="22,10 36,40 22,70" fill="rgb(255,255,255)" fill-opacity="1.0" stroke="rgb(0,0,0)" stroke-width="2"  />
			<g>
				<title>Cytochrome_CBB3 (PF13442)
"Cytochrome C oxidase, cbb3-type, subunit III"</title>
				<polygon class="PF13442" points="26,28 26,28 32,40 26,52 26,52" stroke-linejoin="round" width="8" height="24" fill="rgb(49,184,120)" stroke="rgb(39,147,96)" stroke-width="1" opacity="0.75" />
			</g>
		</g>
		<g>
			<title> (ctg2482_6)</title>
			<polygon class=" (ctg2482_6)" points="41,40 62,10 62,70" fill="rgb(255,255,255)" fill-opacity="1.0" stroke="rgb(0,0,0)" stroke-width="2"  />
		</g>
		<g>
			<title> (ctg2482_7)</title>
			<polygon class=" (ctg2482_7)" points="64,10 68,40 64,70" fill="rgb(255,255,255)" fill-opacity="1.0" stroke="rgb(0,0,0)" stroke-width="2"  />
		</g>
		<g>
			<title> (ctg2482_8)</title>
			<polygon class=" (ctg2482_8)" points="116,25 98,25 98,10 68,40 98,70 98,55 116,55" fill="rgb(255,255,255)" fill-opacity="1.0" stroke="rgb(0,0,0)" stroke-width="2"  />
		</g>
		<g>
			<title> (ctg2482_9)</title>
			<polygon class=" (ctg2482_9)" points="160,25 147,25 147,10 117,40 147,70 147,55 160,55" fill="rgb(255,255,255)" fill-opacity="1.0" stroke="rgb(0,0,0)" stroke-width="2"  />
			<g>
				<title>Amidohydro_1 (PF01979)
"Amidohydrolase family"</title>
				<polygon class="PF01979" points="121,40 133,28 149,28 149,52 133,52" stroke-linejoin="round" width="30" height="24" fill="rgb(210,93,184)" stroke="rgb(168,74,147)" stroke-width="1" opacity="0.75" />
			</g>
		</g>
		<g>
			<title> (ctg2482_10)</title>
			<polygon class=" (ctg2482_10)" points="203,25 195,25 195,10 165,40 195,70 195,55 203,55" fill="rgb(255,255,255)" fill-opacity="1.0" stroke="rgb(0,0,0)" stroke-width="2"  />
			<g>
				<title>SusD_RagB (PF07980)
"SusD family"</title>
				<polygon class="PF07980" points="169,40 181,28 181,28 181,52 181,52" stroke-linejoin="round" width="16" height="24" fill="rgb(226,135,61)" stroke="rgb(180,108,48)" stroke-width="1" opacity="0.75" />
			</g>
		</g>
		<g>
			<title> (ctg2482_11)</title>
			<polygon class=" (ctg2482_11)" points="302,25 241,25 241,10 211,40 241,70 241,55 302,55" fill="rgb(255,255,255)" fill-opacity="1.0" stroke="rgb(0,0,0)" stroke-width="2"  />
			<g>
				<title>TonB_dep_Rec (PF00593)
"TonB dependent receptor"</title>
				<rect class="PF00593" x="231" y="28" stroke-linejoin="round" width="37" height="24" fill="rgb(171,200,51)" stroke="rgb(136,160,40)" stroke-width="1" opacity="0.75" />
			</g>
			<g>
				<title>Plug (PF07715)
"TonB-dependent Receptor Plug Domain"</title>
				<rect class="PF07715" x="283" y="28" stroke-linejoin="round" width="12" height="24" fill="rgb(99,133,214)" stroke="rgb(79,106,171)" stroke-width="1" opacity="0.75" />
			</g>
		</g>
		<g>
			<title> (ctg2482_12)</title>
			<polygon class=" (ctg2482_12)" points="318,40 325,10 325,70" fill="rgb(255,255,255)" fill-opacity="1.0" stroke="rgb(0,0,0)" stroke-width="2"  />
		</g>
		<g>
			<title> (ctg2482_13)</title>
			<polygon class=" (ctg2482_13)" points="326,10 334,40 326,70" fill="rgb(255,255,255)" fill-opacity="1.0" stroke="rgb(0,0,0)" stroke-width="2"  />
		</g>
		<g>
			<title> (ctg2482_14)</title>
			<polygon class=" (ctg2482_14)" points="343,25 347,25 347,10 377,40 347,70 347,55 343,55" fill="rgb(255,255,255)" fill-opacity="1.0" stroke="rgb(0,0,0)" stroke-width="2"  />
		</g>
		<g>
			<title> (ctg2482_15)</title>
			<polygon class=" (ctg2482_15)" points="420,25 404,25 404,10 374,40 404,70 404,55 420,55" fill="rgb(255,255,255)" fill-opacity="1.0" stroke="rgb(0,0,0)" stroke-width="2"  />
		</g>
		<g>
			<title> (ctg2482_16)</title>
			<polygon class=" (ctg2482_16)" points="423,25 475,25 475,10 505,40 475,70 475,55 423,55" fill="rgb(255,255,255)" fill-opacity="1.0" stroke="rgb(0,0,0)" stroke-width="2"  />
			<g>
				<title>DUF5117 (PF17148)
"Domain of unknown function (DUF5117)"</title>
				<rect class="PF17148" x="428" y="28" stroke-linejoin="round" width="20" height="24" fill="rgb(105,217,142)" stroke="rgb(84,173,113)" stroke-width="1" opacity="0.75" />
			</g>
			<g>
				<title>DUF4953 (PF16313)
"Met-zincin"</title>
				<polygon class="PF16313" points="460,28 488,28 490,30 490,50 488,52 460,52" stroke-linejoin="round" width="30" height="24" fill="rgb(147,83,182)" stroke="rgb(117,66,145)" stroke-width="1" opacity="0.75" />
			</g>
		</g>
		<g>
			<title> (ctg2482_17)</title>
			<polygon class=" (ctg2482_17)" points="548,25 535,25 535,10 505,40 535,70 535,55 548,55" fill="rgb(255,255,255)" fill-opacity="1.0" stroke="rgb(0,0,0)" stroke-width="2"  />
			<g>
				<title>Plug (PF07715)
"TonB-dependent Receptor Plug Domain"</title>
				<polygon class="PF07715" points="521,28 521,28 531,28 531,52 521,52 521,52" stroke-linejoin="round" width="10" height="24" fill="rgb(99,133,214)" stroke="rgb(79,106,171)" stroke-width="1" opacity="0.75" />
			</g>
			<g>
				<title>CarbopepD_reg_2 (PF13715)
"CarboxypepD_reg-like domain"</title>
				<rect class="PF13715" x="533" y="28" stroke-linejoin="round" width="8" height="24" fill="rgb(198,51,128)" stroke="rgb(158,40,102)" stroke-width="1" opacity="0.75" />
			</g>
		</g>
		<g>
			<title> (ctg2482_18)</title>
			<polygon class=" (ctg2482_18)" points="548,40 555,10 555,70" fill="rgb(255,255,255)" fill-opacity="1.0" stroke="rgb(0,0,0)" stroke-width="2"  />
		</g>
		<g>
			<title> (ctg2482_19)</title>
			<polygon class=" (ctg2482_19)" points="598,25 584,25 584,10 554,40 584,70 584,55 598,55" fill="rgb(255,255,255)" fill-opacity="1.0" stroke="rgb(0,0,0)" stroke-width="2"  />
			<g>
				<title>MatE (PF01554)
"MatE"</title>
				<polygon class="PF01554" points="559,39 570,28 575,28 575,52 570,52 559,41" stroke-linejoin="round" width="16" height="24" fill="rgb(187,69,173)" stroke="rgb(149,55,138)" stroke-width="1" opacity="0.75" />
			</g>
			<g>
				<title>MatE (PF01554)
"MatE"</title>
				<rect class="PF01554" x="582" y="28" stroke-linejoin="round" width="16" height="24" fill="rgb(187,69,173)" stroke="rgb(149,55,138)" stroke-width="1" opacity="0.75" />
			</g>
		</g>
		<g>
			<title> (ctg2482_20)</title>
			<polygon class=" (ctg2482_20)" points="602,40 627,10 627,70" fill="rgb(255,255,255)" fill-opacity="1.0" stroke="rgb(0,0,0)" stroke-width="2"  />
			<g>
				<title>Fer4_8 (PF13183)
"4Fe-4S dicluster domain"</title>
				<polygon class="PF13183" points="606,40 612,33 612,47" stroke-linejoin="round" width="7" height="24" fill="rgb(180,196,91)" stroke="rgb(144,156,72)" stroke-width="1" opacity="0.75" />
			</g>
			<g>
				<title>Fer2_3 (PF13085)
"2Fe-2S iron-sulfur cluster binding domain"</title>
				<polygon class="PF13085" points="616,28 616,28 626,28 626,52 616,52 616,52" stroke-linejoin="round" width="10" height="24" fill="rgb(214,154,54)" stroke="rgb(171,123,43)" stroke-width="1" opacity="0.75" />
			</g>
		</g>
		<g>
			<title> (ctg2482_21)</title>
			<polygon class=" (ctg2482_21)" points="687,25 657,25 657,10 627,40 657,70 657,55 687,55" fill="rgb(255,255,255)" fill-opacity="1.0" stroke="rgb(0,0,0)" stroke-width="2"  />
			<g>
				<title>Succ_DH_flav_C (PF02910)
"Fumarate reductase flavoprotein C-term"</title>
				<polygon class="PF02910" points="631,40 639,32 639,48" stroke-linejoin="round" width="11" height="24" fill="rgb(140,80,199)" stroke="rgb(112,64,159)" stroke-width="1" opacity="0.75" />
			</g>
			<g>
				<title>FAD_binding_2 (PF00890)
"FAD binding domain"</title>
				<rect class="PF00890" x="645" y="28" stroke-linejoin="round" width="41" height="24" fill="rgb(63,199,116)" stroke="rgb(50,159,92)" stroke-width="1" opacity="0.75" />
			</g>
		</g>
		<g>
			<title> (ctg2482_22)</title>
			<polygon class=" (ctg2482_22)" points="687,40 689,10 689,70" fill="rgb(255,255,255)" fill-opacity="1.0" stroke="rgb(0,0,0)" stroke-width="2"  />
		</g>
	</g>
</svg>
