<svg version="1.1" baseProfile="full" xmlns="http://www.w3.org/2000/svg" width="848.9" height="80">
	<g>
		<line x1="10" y1="40.0" x2="838.9" y2="40.0" style="stroke:rgb(70,70,70); stroke-width:3 "/>
		<g>
			<title> (ctg55_57)</title>
			<polygon class=" (ctg55_57)" points="74,25 53,25 53,10 23,40 53,70 53,55 74,55" fill="rgb(255,255,255)" fill-opacity="1.0" stroke="rgb(0,0,0)" stroke-width="2"  />
			<g>
				<title>COesterase (PF00135)
"Carboxylesterase family"</title>
				<polygon class="PF00135" points="27,40 39,28 73,28 73,52 39,52" stroke-linejoin="round" width="50" height="24" fill="rgb(204,82,64)" stroke="rgb(163,65,51)" stroke-width="1" opacity="0.75" />
			</g>
		</g>
		<g>
			<title> (ctg55_58)</title>
			<polygon class=" (ctg55_58)" points="80,25 92,25 92,10 122,40 92,70 92,55 80,55" fill="rgb(255,255,255)" fill-opacity="1.0" stroke="rgb(0,0,0)" stroke-width="2"  />
			<g>
				<title>Beta-lactamase (PF00144)
"Beta-lactamase"</title>
				<polygon class="PF00144" points="82,28 106,28 118,40 106,52 82,52" stroke-linejoin="round" width="38" height="24" fill="rgb(92,159,200)" stroke="rgb(73,127,160)" stroke-width="1" opacity="0.75" />
			</g>
		</g>
		<g>
			<title> (ctg55_59)</title>
			<polygon class=" (ctg55_59)" points="122,25 132,25 132,10 162,40 132,70 132,55 122,55" fill="rgb(255,255,255)" fill-opacity="1.0" stroke="rgb(0,0,0)" stroke-width="2"  />
			<g>
				<title>Beta-lactamase (PF00144)
"Beta-lactamase"</title>
				<polygon class="PF00144" points="124,28 146,28 158,40 146,52 124,52" stroke-linejoin="round" width="38" height="24" fill="rgb(92,159,200)" stroke="rgb(73,127,160)" stroke-width="1" opacity="0.75" />
			</g>
		</g>
		<g>
			<title> (ctg55_60)</title>
			<polygon class=" (ctg55_60)" points="164,25 166,25 166,10 196,40 166,70 166,55 164,55" fill="rgb(255,255,255)" fill-opacity="1.0" stroke="rgb(0,0,0)" stroke-width="2"  />
			<g>
				<title>Cyclase (PF04199)
"Putative cyclase"</title>
				<polygon class="PF04199" points="167,28 180,28 189,37 189,43 180,52 167,52" stroke-linejoin="round" width="22" height="24" fill="rgb(140,47,181)" stroke="rgb(112,37,144)" stroke-width="1" opacity="0.75" />
			</g>
		</g>
		<g>
			<title> (ctg55_61)</title>
			<polygon class=" (ctg55_61)" points="200,10 218,40 200,70" fill="rgb(255,255,255)" fill-opacity="1.0" stroke="rgb(0,0,0)" stroke-width="2"  />
			<g>
				<title>Macro (PF01661)
"Macro domain"</title>
				<polygon class="PF01661" points="203,28 207,28 214,38 214,42 207,52 203,52" stroke-linejoin="round" width="11" height="24" fill="rgb(65,211,62)" stroke="rgb(51,168,49)" stroke-width="1" opacity="0.75" />
			</g>
		</g>
		<g>
			<title> (ctg55_62)</title>
			<polygon class=" (ctg55_62)" points="219,10 231,40 219,70" fill="rgb(255,255,255)" fill-opacity="1.0" stroke="rgb(0,0,0)" stroke-width="2"  />
		</g>
		<g>
			<title> (ctg55_63)</title>
			<polygon class=" (ctg55_63)" points="232,10 251,40 232,70" fill="rgb(255,255,255)" fill-opacity="1.0" stroke="rgb(0,0,0)" stroke-width="2"  />
			<g>
				<title>Cob_adeno_trans (PF01923)
"Cobalamin adenosyltransferase"</title>
				<polygon class="PF01923" points="232,28 239,28 247,40 239,52 232,52" stroke-linejoin="round" width="16" height="24" fill="rgb(53,94,194)" stroke="rgb(42,75,155)" stroke-width="1" opacity="0.75" />
			</g>
		</g>
		<g>
			<title> (ctg55_64)</title>
			<polygon class=" (ctg55_64)" points="252,25 263,25 263,10 293,40 263,70 263,55 252,55" fill="rgb(255,255,255)" fill-opacity="1.0" stroke="rgb(0,0,0)" stroke-width="2"  />
			<g>
				<title>PD40 (PF07676)
"WD40-like Beta Propeller Repeat"</title>
				<rect class="PF07676" x="270" y="28" stroke-linejoin="round" width="2" height="24" fill="rgb(49,78,191)" stroke="rgb(39,62,152)" stroke-width="1" opacity="0.75" />
			</g>
		</g>
		<g>
			<title> (ctg55_65)</title>
			<polygon class=" (ctg55_65)" points="293,10 307,40 293,70" fill="rgb(255,255,255)" fill-opacity="1.0" stroke="rgb(0,0,0)" stroke-width="2"  />
			<g>
				<title>FUR (PF01475)
"Ferric uptake regulator family"</title>
				<polygon class="PF01475" points="294,28 298,28 304,40 298,52 294,52" stroke-linejoin="round" width="11" height="24" fill="rgb(167,195,50)" stroke="rgb(133,156,40)" stroke-width="1" opacity="0.75" />
			</g>
		</g>
		<g>
			<title> (ctg55_66)</title>
			<polygon class=" (ctg55_66)" points="306,25 312,25 312,10 342,40 312,70 312,55 306,55" fill="rgb(255,255,255)" fill-opacity="1.0" stroke="rgb(0,0,0)" stroke-width="2"  />
			<g>
				<title>polyprenyl_synt (PF00348)
"Polyprenyl synthetase"</title>
				<polygon class="PF00348" points="311,28 325,28 336,39 336,41 325,52 311,52" stroke-linejoin="round" width="25" height="24" fill="rgb(61,206,65)" stroke="rgb(48,164,52)" stroke-width="1" opacity="0.75" />
			</g>
		</g>
		<g>
			<title> (ctg55_67)</title>
			<polygon class=" (ctg55_67)" points="343,25 377,25 377,10 407,40 377,70 377,55 343,55" fill="rgb(255,255,255)" fill-opacity="1.0" stroke="rgb(0,0,0)" stroke-width="2"  />
			<g>
				<title>SQHop_cyclase_N (PF13249)
"Squalene-hopene cyclase N-terminal domain"</title>
				<rect class="PF13249" x="344" y="28" stroke-linejoin="round" width="29" height="24" fill="rgb(88,190,89)" stroke="rgb(70,152,71)" stroke-width="1" opacity="0.75" />
			</g>
			<g>
				<title>SQHop_cyclase_C (PF13243)
"Squalene-hopene cyclase C-terminal domain"</title>
				<polygon class="PF13243" points="375,28 391,28 403,40 391,52 375,52" stroke-linejoin="round" width="31" height="24" fill="rgb(191,58,201)" stroke="rgb(152,46,160)" stroke-width="1" opacity="0.75" />
			</g>
		</g>
		<g>
			<title> (ctg55_68)</title>
			<polygon class=" (ctg55_68)" points="411,10 433,40 411,70" fill="rgb(255,255,255)" fill-opacity="1.0" stroke="rgb(0,0,0)" stroke-width="2"  />
			<g>
				<title>Acetyltransf_1 (PF00583)
"Acetyltransferase (GNAT) family"</title>
				<polygon class="PF00583" points="414,28 421,28 426,35 426,45 421,52 414,52" stroke-linejoin="round" width="12" height="24" fill="rgb(121,183,50)" stroke="rgb(96,146,39)" stroke-width="1" opacity="0.75" />
			</g>
		</g>
		<g>
			<title> (ctg55_69)</title>
			<polygon class=" (ctg55_69)" points="435,10 443,40 435,70" fill="rgb(255,255,255)" fill-opacity="1.0" stroke="rgb(0,0,0)" stroke-width="2"  />
			<g>
				<title>Dodecin (PF07311)
"Dodecin"</title>
				<polygon class="PF07311" points="435,28 436,28 439,40 436,52 435,52" stroke-linejoin="round" width="6" height="24" fill="rgb(224,83,212)" stroke="rgb(179,66,169)" stroke-width="1" opacity="0.75" />
			</g>
		</g>
		<g>
			<title> (ctg55_70)</title>
			<polygon class=" (ctg55_70)" points="444,25 444,25 444,10 474,40 444,70 444,55 444,55" fill="rgb(255,255,255)" fill-opacity="1.0" stroke="rgb(0,0,0)" stroke-width="2"  />
			<g>
				<title>SQS_PSY (PF00494)
"Squalene/phytoene synthase"</title>
				<polygon class="PF00494" points="446,28 458,28 470,40 458,52 446,52" stroke-linejoin="round" width="26" height="24" fill="rgb(178,91,49)" stroke="rgb(142,72,39)" stroke-width="1" opacity="0.75" />
			</g>
		</g>
		<g>
			<title> (ctg55_71)</title>
			<polygon class=" (ctg55_71)" points="475,25 475,25 475,10 505,40 475,70 475,55 475,55" fill="rgb(255,255,255)" fill-opacity="1.0" stroke="rgb(0,0,0)" stroke-width="2"  />
			<g>
				<title>SQS_PSY (PF00494)
"Squalene/phytoene synthase"</title>
				<polygon class="PF00494" points="477,28 488,28 500,40 488,52 477,52" stroke-linejoin="round" width="26" height="24" fill="rgb(178,91,49)" stroke="rgb(142,72,39)" stroke-width="1" opacity="0.75" />
			</g>
		</g>
		<g>
			<title> (ctg55_72)</title>
			<polygon class=" (ctg55_72)" points="505,25 521,25 521,10 551,40 521,70 521,55 505,55" fill="rgb(255,255,255)" fill-opacity="1.0" stroke="rgb(0,0,0)" stroke-width="2"  />
			<g>
				<title>Amino_oxidase (PF01593)
"Flavin containing amine oxidoreductase"</title>
				<polygon class="PF01593" points="506,28 535,28 547,40 535,52 506,52" stroke-linejoin="round" width="44" height="24" fill="rgb(184,74,52)" stroke="rgb(147,59,41)" stroke-width="1" opacity="0.75" />
			</g>
		</g>
		<g>
			<title> (ctg55_73)</title>
			<polygon class=" (ctg55_73)" points="552,10 565,40 552,70" fill="rgb(255,255,255)" fill-opacity="1.0" stroke="rgb(0,0,0)" stroke-width="2"  />
			<g>
				<title>Ribonuc_L-PSP (PF01042)
"Endoribonuclease L-PSP"</title>
				<polygon class="PF01042" points="553,28 556,28 561,40 556,52 553,52" stroke-linejoin="round" width="11" height="24" fill="rgb(93,120,208)" stroke="rgb(74,96,166)" stroke-width="1" opacity="0.75" />
			</g>
		</g>
		<g>
			<title> (ctg55_74)</title>
			<polygon class=" (ctg55_74)" points="565,40 584,10 584,70" fill="rgb(255,255,255)" fill-opacity="1.0" stroke="rgb(0,0,0)" stroke-width="2"  />
		</g>
		<g>
			<title> (ctg55_75)</title>
			<polygon class=" (ctg55_75)" points="640,25 612,25 612,10 582,40 612,70 612,55 640,55" fill="rgb(255,255,255)" fill-opacity="1.0" stroke="rgb(0,0,0)" stroke-width="2"  />
			<g>
				<title>HATPase_c_2 (PF13581)
"Histidine kinase-like ATPase domain"</title>
				<polygon class="PF13581" points="586,40 595,31 595,49" stroke-linejoin="round" width="11" height="24" fill="rgb(86,179,88)" stroke="rgb(68,143,70)" stroke-width="1" opacity="0.75" />
			</g>
			<g>
				<title>Xan_ur_permease (PF00860)
"Permease family"</title>
				<rect class="PF00860" x="600" y="28" stroke-linejoin="round" width="38" height="24" fill="rgb(216,88,217)" stroke="rgb(172,70,173)" stroke-width="1" opacity="0.75" />
			</g>
		</g>
		<g>
			<title> (ctg55_76)</title>
			<polygon class=" (ctg55_76)" points="642,10 670,40 642,70" fill="rgb(255,255,255)" fill-opacity="1.0" stroke="rgb(0,0,0)" stroke-width="2"  />
			<g>
				<title>Hydrolase_4 (PF12146)
"Serine aminopeptidase, S33"</title>
				<polygon class="PF12146" points="645,28 654,28 666,40 654,52 645,52" stroke-linejoin="round" width="24" height="24" fill="rgb(140,98,205)" stroke="rgb(112,78,164)" stroke-width="1" opacity="0.75" />
			</g>
		</g>
		<g>
			<title> (ctg55_77)</title>
			<polygon class=" (ctg55_77)" points="673,10 689,40 673,70" fill="rgb(255,255,255)" fill-opacity="1.0" stroke="rgb(0,0,0)" stroke-width="2"  />
		</g>
		<g>
			<title> (ctg55_78)</title>
			<polygon class=" (ctg55_78)" points="690,40 705,10 705,70" fill="rgb(255,255,255)" fill-opacity="1.0" stroke="rgb(0,0,0)" stroke-width="2"  />
			<g>
				<title>Polyketide_cyc2 (PF10604)
"Polyketide cyclase / dehydrase and lipid transport"</title>
				<polygon class="PF10604" points="693,40 699,28 704,28 704,52 699,52" stroke-linejoin="round" width="14" height="24" fill="rgb(105,204,74)" stroke="rgb(84,163,59)" stroke-width="1" opacity="0.75" />
			</g>
		</g>
		<g>
			<title> (ctg55_79)</title>
			<polygon class=" (ctg55_79)" points="705,40 720,10 720,70" fill="rgb(255,255,255)" fill-opacity="1.0" stroke="rgb(0,0,0)" stroke-width="2"  />
			<g>
				<title>Polyketide_cyc2 (PF10604)
"Polyketide cyclase / dehydrase and lipid transport"</title>
				<polygon class="PF10604" points="708,40 714,28 719,28 719,52 714,52" stroke-linejoin="round" width="14" height="24" fill="rgb(105,204,74)" stroke="rgb(84,163,59)" stroke-width="1" opacity="0.75" />
			</g>
		</g>
		<g>
			<title> (ctg55_80)</title>
			<polygon class=" (ctg55_80)" points="721,40 746,10 746,70" fill="rgb(255,255,255)" fill-opacity="1.0" stroke="rgb(0,0,0)" stroke-width="2"  />
			<g>
				<title>F420_ligase (PF01996)
"F420-0:Gamma-glutamyl ligase"</title>
				<polygon class="PF01996" points="725,40 735,28 744,28 744,52 735,52" stroke-linejoin="round" width="21" height="24" fill="rgb(204,75,167)" stroke="rgb(163,60,133)" stroke-width="1" opacity="0.75" />
			</g>
		</g>
		<g>
			<title> (ctg55_81)</title>
			<polygon class=" (ctg55_81)" points="748,40 770,10 770,70" fill="rgb(255,255,255)" fill-opacity="1.0" stroke="rgb(0,0,0)" stroke-width="2"  />
			<g>
				<title>F420_oxidored (PF03807)
"NADP oxidoreductase coenzyme F420-dependent"</title>
				<polygon class="PF03807" points="759,31 761,28 769,28 769,52 761,52 759,49" stroke-linejoin="round" width="10" height="24" fill="rgb(194,51,111)" stroke="rgb(155,40,88)" stroke-width="1" opacity="0.75" />
			</g>
		</g>
		<g>
			<title> (ctg55_82)</title>
			<polygon class=" (ctg55_82)" points="774,10 803,40 774,70" fill="rgb(255,255,255)" fill-opacity="1.0" stroke="rgb(0,0,0)" stroke-width="2"  />
			<g>
				<title>ABC_tran (PF00005)
"ABC transporter"</title>
				<polygon class="PF00005" points="778,28 787,28 792,33 792,47 787,52 778,52" stroke-linejoin="round" width="14" height="24" fill="rgb(129,201,63)" stroke="rgb(103,160,50)" stroke-width="1" opacity="0.75" />
			</g>
		</g>
		<g>
			<title> (ctg55_83)</title>
			<polygon class=" (ctg55_83)" points="803,10 831,40 803,70" fill="rgb(255,255,255)" fill-opacity="1.0" stroke="rgb(0,0,0)" stroke-width="2"  />
			<g>
				<title>BPD_transp_1 (PF00528)
"Binding-protein-dependent transport system inner membrane component"</title>
				<polygon class="PF00528" points="812,28 815,28 827,40 815,52 812,52" stroke-linejoin="round" width="18" height="24" fill="rgb(77,208,225)" stroke="rgb(61,166,180)" stroke-width="1" opacity="0.75" />
			</g>
		</g>
	</g>
</svg>
