<svg version="1.1" baseProfile="full" xmlns="http://www.w3.org/2000/svg" width="338.43333333333334" height="80">
	<g>
		<line x1="10" y1="40.0" x2="328.43333333333334" y2="40.0" style="stroke:rgb(70,70,70); stroke-width:3 "/>
		<g>
			<title> (ctg8354_1)</title>
			<polygon class=" (ctg8354_1)" points="10,10 20,40 10,70" fill="rgb(255,255,255)" fill-opacity="1.0" stroke="rgb(0,0,0)" stroke-width="2"  />
			<g>
				<title>MMPL (PF03176)
"MMPL family"</title>
				<polygon class="PF03176" points="10,28 12,28 17,40 12,52 10,52" stroke-linejoin="round" width="10" height="24" fill="rgb(228,109,193)" stroke="rgb(182,87,154)" stroke-width="1" opacity="0.75" />
			</g>
		</g>
		<g>
			<title> (ctg8354_2)</title>
			<polygon class=" (ctg8354_2)" points="20,10 47,40 20,70" fill="rgb(255,255,255)" fill-opacity="1.0" stroke="rgb(0,0,0)" stroke-width="2"  />
			<g>
				<title>LolA_like (PF17131)
"Outer membrane lipoprotein-sorting protein"</title>
				<polygon class="PF17131" points="28,28 31,28 43,40 31,52 28,52" stroke-linejoin="round" width="18" height="24" fill="rgb(189,100,83)" stroke="rgb(151,80,66)" stroke-width="1" opacity="0.75" />
			</g>
		</g>
		<g>
			<title> (ctg8354_3)</title>
			<polygon class=" (ctg8354_3)" points="47,25 73,25 73,10 103,40 73,70 73,55 47,55" fill="rgb(255,255,255)" fill-opacity="1.0" stroke="rgb(0,0,0)" stroke-width="2"  />
		</g>
		<g>
			<title> (ctg8354_4)</title>
			<polygon class=" (ctg8354_4)" points="105,40 116,10 116,70" fill="rgb(255,255,255)" fill-opacity="1.0" stroke="rgb(0,0,0)" stroke-width="2"  />
		</g>
		<g>
			<title> (ctg8354_5)</title>
			<polygon class=" (ctg8354_5)" points="118,40 127,10 127,70" fill="rgb(255,255,255)" fill-opacity="1.0" stroke="rgb(0,0,0)" stroke-width="2"  />
		</g>
		<g>
			<title> (ctg8354_6)</title>
			<polygon class=" (ctg8354_6)" points="165,40 189,10 189,70" fill="rgb(255,255,255)" fill-opacity="1.0" stroke="rgb(0,0,0)" stroke-width="2"  />
		</g>
		<g>
			<title> (ctg8354_7)</title>
			<polygon class=" (ctg8354_7)" points="189,40 218,10 218,70" fill="rgb(255,255,255)" fill-opacity="1.0" stroke="rgb(0,0,0)" stroke-width="2"  />
			<g>
				<title>SQS_PSY (PF00494)
"Squalene/phytoene synthase"</title>
				<polygon class="PF00494" points="193,40 205,28 217,28 217,52 205,52" stroke-linejoin="round" width="25" height="24" fill="rgb(178,91,49)" stroke="rgb(142,72,39)" stroke-width="1" opacity="0.75" />
			</g>
		</g>
		<g>
			<title> (ctg8354_8)</title>
			<polygon class=" (ctg8354_8)" points="227,40 240,10 240,70" fill="rgb(255,255,255)" fill-opacity="1.0" stroke="rgb(0,0,0)" stroke-width="2"  />
			<g>
				<title>PIN (PF01850)
"PIN domain"</title>
				<polygon class="PF01850" points="230,40 235,28 239,28 239,52 235,52" stroke-linejoin="round" width="12" height="24" fill="rgb(91,217,126)" stroke="rgb(72,173,100)" stroke-width="1" opacity="0.75" />
			</g>
		</g>
		<g>
			<title> (ctg8354_9)</title>
			<polygon class=" (ctg8354_9)" points="240,40 248,10 248,70" fill="rgb(255,255,255)" fill-opacity="1.0" stroke="rgb(0,0,0)" stroke-width="2"  />
		</g>
		<g>
			<title> (ctg8354_10)</title>
			<polygon class=" (ctg8354_10)" points="253,10 271,40 253,70" fill="rgb(255,255,255)" fill-opacity="1.0" stroke="rgb(0,0,0)" stroke-width="2"  />
		</g>
		<g>
			<title> (ctg8354_11)</title>
			<polygon class=" (ctg8354_11)" points="284,40 298,10 298,70" fill="rgb(255,255,255)" fill-opacity="1.0" stroke="rgb(0,0,0)" stroke-width="2"  />
		</g>
		<g>
			<title> (ctg8354_12)</title>
			<polygon class=" (ctg8354_12)" points="310,10 316,40 310,70" fill="rgb(255,255,255)" fill-opacity="1.0" stroke="rgb(0,0,0)" stroke-width="2"  />
			<g>
				<title>Transposase_mut (PF00872)
"Transposase, Mutator family"</title>
				<polygon class="PF00872" points="310,28 310,28 313,40 310,52 310,52" stroke-linejoin="round" width="4" height="24" fill="rgb(137,187,62)" stroke="rgb(109,149,49)" stroke-width="1" opacity="0.75" />
			</g>
		</g>
	</g>
</svg>
