<svg version="1.1" baseProfile="full" xmlns="http://www.w3.org/2000/svg" width="305.53333333333336" height="80">
	<g>
		<line x1="10" y1="40.0" x2="295.53333333333336" y2="40.0" style="stroke:rgb(70,70,70); stroke-width:3 "/>
		<g>
			<title> (ctg9702_1)</title>
			<polygon class=" (ctg9702_1)" points="10,40 20,10 20,70" fill="rgb(255,255,255)" fill-opacity="1.0" stroke="rgb(0,0,0)" stroke-width="2"  />
			<g>
				<title>Amidohydro_3 (PF07969)
"Amidohydrolase family"</title>
				<polygon class="PF07969" points="13,40 16,31 16,49" stroke-linejoin="round" width="5" height="24" fill="rgb(228,157,101)" stroke="rgb(182,125,80)" stroke-width="1" opacity="0.75" />
			</g>
		</g>
		<g>
			<title> (ctg9702_2)</title>
			<polygon class=" (ctg9702_2)" points="20,40 46,10 46,70" fill="rgb(255,255,255)" fill-opacity="1.0" stroke="rgb(0,0,0)" stroke-width="2"  />
			<g>
				<title>Zn_dep_PLPC (PF00882)
"Zinc dependent phospholipase C"</title>
				<polygon class="PF00882" points="34,29 35,28 46,28 46,52 35,52 34,51" stroke-linejoin="round" width="12" height="24" fill="rgb(198,126,66)" stroke="rgb(158,100,52)" stroke-width="1" opacity="0.75" />
			</g>
		</g>
		<g>
			<title> (ctg9702_3)</title>
			<polygon class=" (ctg9702_3)" points="49,10 63,40 49,70" fill="rgb(255,255,255)" fill-opacity="1.0" stroke="rgb(0,0,0)" stroke-width="2"  />
			<g>
				<title>Glyoxalase (PF00903)
"Glyoxalase/Bleomycin resistance protein/Dioxygenase superfamily"</title>
				<polygon class="PF00903" points="49,28 54,28 60,40 54,52 49,52" stroke-linejoin="round" width="13" height="24" fill="rgb(50,162,189)" stroke="rgb(40,129,151)" stroke-width="1" opacity="0.75" />
			</g>
		</g>
		<g>
			<title> (ctg9702_4)</title>
			<polygon class=" (ctg9702_4)" points="111,25 107,25 107,10 77,40 107,70 107,55 111,55" fill="rgb(255,255,255)" fill-opacity="1.0" stroke="rgb(0,0,0)" stroke-width="2"  />
			<g>
				<title>PALP (PF00291)
"Pyridoxal-phosphate dependent enzyme"</title>
				<polygon class="PF00291" points="81,40 93,28 108,28 108,52 93,52" stroke-linejoin="round" width="30" height="24" fill="rgb(180,55,145)" stroke="rgb(144,44,116)" stroke-width="1" opacity="0.75" />
			</g>
		</g>
		<g>
			<title> (ctg9702_5)</title>
			<polygon class=" (ctg9702_5)" points="121,25 126,25 126,10 156,40 126,70 126,55 121,55" fill="rgb(255,255,255)" fill-opacity="1.0" stroke="rgb(0,0,0)" stroke-width="2"  />
			<g>
				<title>PTE (PF02126)
"Phosphotriesterase family"</title>
				<polygon class="PF02126" points="122,28 140,28 152,40 140,52 122,52" stroke-linejoin="round" width="33" height="24" fill="rgb(200,122,54)" stroke="rgb(160,97,43)" stroke-width="1" opacity="0.75" />
			</g>
		</g>
		<g>
			<title> (ctg9702_6)</title>
			<polygon class=" (ctg9702_6)" points="176,25 265,25 265,10 295,40 265,70 265,55 176,55" fill="rgb(255,255,255)" fill-opacity="1.0" stroke="rgb(0,0,0)" stroke-width="2"  />
			<g>
				<title>ketoacyl-synt (PF00109)
"Beta-ketoacyl synthase, N-terminal domain"</title>
				<rect class="PF00109" x="177" y="28" stroke-linejoin="round" width="25" height="24" fill="rgb(112,116,228)" stroke="rgb(89,92,182)" stroke-width="1" opacity="0.75" />
			</g>
			<g>
				<title>Ketoacyl-synt_C (PF02801)
"Beta-ketoacyl synthase, C-terminal domain"</title>
				<rect class="PF02801" x="203" y="28" stroke-linejoin="round" width="11" height="24" fill="rgb(215,78,102)" stroke="rgb(172,62,81)" stroke-width="1" opacity="0.75" />
			</g>
			<g>
				<title>KAsynt_C_assoc (PF16197)
"Ketoacyl-synthetase C-terminal extension"</title>
				<rect class="PF16197" x="215" y="28" stroke-linejoin="round" width="15" height="24" fill="rgb(240,150,172)" stroke="rgb(192,120,137)" stroke-width="1" opacity="0.75" />
			</g>
			<g>
				<title>Acyl_transf_1 (PF00698)
"Acyl transferase domain"</title>
				<rect class="PF00698" x="233" y="28" stroke-linejoin="round" width="30" height="24" fill="rgb(59,176,209)" stroke="rgb(47,140,167)" stroke-width="1" opacity="0.75" />
			</g>
			<g>
				<title>PS-DH (PF14765)
"Polyketide synthase dehydratase"</title>
				<polygon class="PF14765" points="270,28 278,28 290,40 278,52 270,52" stroke-linejoin="round" width="24" height="24" fill="rgb(173,56,182)" stroke="rgb(138,44,145)" stroke-width="1" opacity="0.75" />
			</g>
		</g>
	</g>
</svg>
