<svg version="1.1" baseProfile="full" xmlns="http://www.w3.org/2000/svg" width="1456.2333333333333" height="80">
	<g>
		<line x1="10" y1="40.0" x2="1446.2333333333333" y2="40.0" style="stroke:rgb(70,70,70); stroke-width:3 "/>
		<g>
			<title> (ctg40_45)</title>
			<polygon class=" (ctg40_45)" points="41,10 64,40 41,70" fill="rgb(255,255,255)" fill-opacity="1.0" stroke="rgb(0,0,0)" stroke-width="2"  />
			<g>
				<title>ABC_tran (PF00005)
"ABC transporter"</title>
				<polygon class="PF00005" points="44,28 51,28 59,38 59,42 51,52 44,52" stroke-linejoin="round" width="15" height="24" fill="rgb(129,201,63)" stroke="rgb(103,160,50)" stroke-width="1" opacity="0.75" />
			</g>
		</g>
		<g>
			<title> (ctg40_46)</title>
			<polygon class=" (ctg40_46)" points="72,40 78,10 78,70" fill="rgb(255,255,255)" fill-opacity="1.0" stroke="rgb(0,0,0)" stroke-width="2"  />
		</g>
		<g>
			<title> (ctg40_47)</title>
			<polygon class=" (ctg40_47)" points="82,25 87,25 87,10 117,40 87,70 87,55 82,55" fill="rgb(255,255,255)" fill-opacity="1.0" stroke="rgb(0,0,0)" stroke-width="2"  />
			<g>
				<title>Sel1 (PF08238)
"Sel1 repeat"</title>
				<rect class="PF08238" x="90" y="28" stroke-linejoin="round" width="3" height="24" fill="rgb(190,55,164)" stroke="rgb(152,44,131)" stroke-width="1" opacity="0.75" />
			</g>
			<g>
				<title>Sel1 (PF08238)
"Sel1 repeat"</title>
				<rect class="PF08238" x="94" y="28" stroke-linejoin="round" width="3" height="24" fill="rgb(190,55,164)" stroke="rgb(152,44,131)" stroke-width="1" opacity="0.75" />
			</g>
			<g>
				<title>Sel1 (PF08238)
"Sel1 repeat"</title>
				<rect class="PF08238" x="97" y="28" stroke-linejoin="round" width="3" height="24" fill="rgb(190,55,164)" stroke="rgb(152,44,131)" stroke-width="1" opacity="0.75" />
			</g>
			<g>
				<title>Sel1 (PF08238)
"Sel1 repeat"</title>
				<polygon class="PF08238" points="101,28 101,28 104,31 104,49 101,52 101,52" stroke-linejoin="round" width="3" height="24" fill="rgb(190,55,164)" stroke="rgb(152,44,131)" stroke-width="1" opacity="0.75" />
			</g>
			<g>
				<title>Sel1 (PF08238)
"Sel1 repeat"</title>
				<polygon class="PF08238" points="105,32 108,35 108,45 105,48" stroke-linejoin="round" width="3" height="24" fill="rgb(190,55,164)" stroke="rgb(152,44,131)" stroke-width="1" opacity="0.75" />
			</g>
			<g>
				<title>Sel1 (PF08238)
"Sel1 repeat"</title>
				<polygon class="PF08238" points="108,35 111,38 111,42 108,45" stroke-linejoin="round" width="3" height="24" fill="rgb(190,55,164)" stroke="rgb(152,44,131)" stroke-width="1" opacity="0.75" />
			</g>
		</g>
		<g>
			<title> (ctg40_48)</title>
			<polygon class=" (ctg40_48)" points="139,25 142,25 142,10 172,40 142,70 142,55 139,55" fill="rgb(255,255,255)" fill-opacity="1.0" stroke="rgb(0,0,0)" stroke-width="2"  />
			<g>
				<title>Sel1 (PF08238)
"Sel1 repeat"</title>
				<rect class="PF08238" x="145" y="28" stroke-linejoin="round" width="3" height="24" fill="rgb(190,55,164)" stroke="rgb(152,44,131)" stroke-width="1" opacity="0.75" />
			</g>
			<g>
				<title>Sel1 (PF08238)
"Sel1 repeat"</title>
				<rect class="PF08238" x="148" y="28" stroke-linejoin="round" width="3" height="24" fill="rgb(190,55,164)" stroke="rgb(152,44,131)" stroke-width="1" opacity="0.75" />
			</g>
			<g>
				<title>Sel1 (PF08238)
"Sel1 repeat"</title>
				<rect class="PF08238" x="152" y="28" stroke-linejoin="round" width="3" height="24" fill="rgb(190,55,164)" stroke="rgb(152,44,131)" stroke-width="1" opacity="0.75" />
			</g>
			<g>
				<title>Sel1 (PF08238)
"Sel1 repeat"</title>
				<polygon class="PF08238" points="156,28 156,28 159,31 159,49 156,52 156,52" stroke-linejoin="round" width="3" height="24" fill="rgb(190,55,164)" stroke="rgb(152,44,131)" stroke-width="1" opacity="0.75" />
			</g>
			<g>
				<title>Sel1 (PF08238)
"Sel1 repeat"</title>
				<polygon class="PF08238" points="159,31 162,34 162,46 159,49" stroke-linejoin="round" width="3" height="24" fill="rgb(190,55,164)" stroke="rgb(152,44,131)" stroke-width="1" opacity="0.75" />
			</g>
			<g>
				<title>Sel1 (PF08238)
"Sel1 repeat"</title>
				<polygon class="PF08238" points="163,35 165,37 165,43 163,45" stroke-linejoin="round" width="2" height="24" fill="rgb(190,55,164)" stroke="rgb(152,44,131)" stroke-width="1" opacity="0.75" />
			</g>
		</g>
		<g>
			<title> (ctg40_49)</title>
			<polygon class=" (ctg40_49)" points="175,10 178,40 175,70" fill="rgb(255,255,255)" fill-opacity="1.0" stroke="rgb(0,0,0)" stroke-width="2"  />
		</g>
		<g>
			<title> (ctg40_50)</title>
			<polygon class=" (ctg40_50)" points="179,25 197,25 197,10 227,40 197,70 197,55 179,55" fill="rgb(255,255,255)" fill-opacity="1.0" stroke="rgb(0,0,0)" stroke-width="2"  />
			<g>
				<title>MacB_PCD (PF12704)
"MacB-like periplasmic core domain"</title>
				<rect class="PF12704" x="181" y="28" stroke-linejoin="round" width="22" height="24" fill="rgb(79,76,190)" stroke="rgb(63,60,152)" stroke-width="1" opacity="0.75" />
			</g>
		</g>
		<g>
			<title> (ctg40_51)</title>
			<polygon class=" (ctg40_51)" points="231,10 237,40 231,70" fill="rgb(255,255,255)" fill-opacity="1.0" stroke="rgb(0,0,0)" stroke-width="2"  />
		</g>
		<g>
			<title> (ctg40_52)</title>
			<polygon class=" (ctg40_52)" points="243,25 246,25 246,10 276,40 246,70 246,55 243,55" fill="rgb(255,255,255)" fill-opacity="1.0" stroke="rgb(0,0,0)" stroke-width="2"  />
			<g>
				<title>Sel1 (PF08238)
"Sel1 repeat"</title>
				<rect class="PF08238" x="249" y="28" stroke-linejoin="round" width="3" height="24" fill="rgb(190,55,164)" stroke="rgb(152,44,131)" stroke-width="1" opacity="0.75" />
			</g>
			<g>
				<title>Sel1 (PF08238)
"Sel1 repeat"</title>
				<rect class="PF08238" x="252" y="28" stroke-linejoin="round" width="3" height="24" fill="rgb(190,55,164)" stroke="rgb(152,44,131)" stroke-width="1" opacity="0.75" />
			</g>
			<g>
				<title>Sel1 (PF08238)
"Sel1 repeat"</title>
				<rect class="PF08238" x="256" y="28" stroke-linejoin="round" width="3" height="24" fill="rgb(190,55,164)" stroke="rgb(152,44,131)" stroke-width="1" opacity="0.75" />
			</g>
			<g>
				<title>Sel1 (PF08238)
"Sel1 repeat"</title>
				<polygon class="PF08238" points="260,28 260,28 263,31 263,49 260,52 260,52" stroke-linejoin="round" width="3" height="24" fill="rgb(190,55,164)" stroke="rgb(152,44,131)" stroke-width="1" opacity="0.75" />
			</g>
			<g>
				<title>Sel1 (PF08238)
"Sel1 repeat"</title>
				<polygon class="PF08238" points="263,31 266,34 266,46 263,49" stroke-linejoin="round" width="3" height="24" fill="rgb(190,55,164)" stroke="rgb(152,44,131)" stroke-width="1" opacity="0.75" />
			</g>
			<g>
				<title>Sel1 (PF08238)
"Sel1 repeat"</title>
				<polygon class="PF08238" points="267,35 269,37 269,43 267,45" stroke-linejoin="round" width="2" height="24" fill="rgb(190,55,164)" stroke="rgb(152,44,131)" stroke-width="1" opacity="0.75" />
			</g>
		</g>
		<g>
			<title> (ctg40_53)</title>
			<polygon class=" (ctg40_53)" points="279,10 282,40 279,70" fill="rgb(255,255,255)" fill-opacity="1.0" stroke="rgb(0,0,0)" stroke-width="2"  />
		</g>
		<g>
			<title> (ctg40_54)</title>
			<polygon class=" (ctg40_54)" points="282,25 331,25 331,10 361,40 331,70 331,55 282,55" fill="rgb(255,255,255)" fill-opacity="1.0" stroke="rgb(0,0,0)" stroke-width="2"  />
			<g>
				<title>MacB_PCD (PF12704)
"MacB-like periplasmic core domain"</title>
				<rect class="PF12704" x="284" y="28" stroke-linejoin="round" width="22" height="24" fill="rgb(79,76,190)" stroke="rgb(63,60,152)" stroke-width="1" opacity="0.75" />
			</g>
		</g>
		<g>
			<title> (ctg40_55)</title>
			<polygon class=" (ctg40_55)" points="407,25 399,25 399,10 369,40 399,70 399,55 407,55" fill="rgb(255,255,255)" fill-opacity="1.0" stroke="rgb(0,0,0)" stroke-width="2"  />
			<g>
				<title>MacB_PCD (PF12704)
"MacB-like periplasmic core domain"</title>
				<polygon class="PF12704" points="383,30 385,28 405,28 405,52 385,52 383,50" stroke-linejoin="round" width="22" height="24" fill="rgb(79,76,190)" stroke="rgb(63,60,152)" stroke-width="1" opacity="0.75" />
			</g>
		</g>
		<g>
			<title> (ctg40_56)</title>
			<polygon class=" (ctg40_56)" points="447,25 438,25 438,10 408,40 438,70 438,55 447,55" fill="rgb(255,255,255)" fill-opacity="1.0" stroke="rgb(0,0,0)" stroke-width="2"  />
		</g>
		<g>
			<title> (ctg40_57)</title>
			<polygon class=" (ctg40_57)" points="499,25 482,25 482,10 452,40 482,70 482,55 499,55" fill="rgb(255,255,255)" fill-opacity="1.0" stroke="rgb(0,0,0)" stroke-width="2"  />
			<g>
				<title>Beta-lactamase (PF00144)
"Beta-lactamase"</title>
				<polygon class="PF00144" points="463,33 468,28 495,28 495,52 468,52 463,47" stroke-linejoin="round" width="32" height="24" fill="rgb(92,159,200)" stroke="rgb(73,127,160)" stroke-width="1" opacity="0.75" />
			</g>
		</g>
		<g>
			<title> (ctg40_58)</title>
			<polygon class=" (ctg40_58)" points="513,25 526,25 526,10 556,40 526,70 526,55 513,55" fill="rgb(255,255,255)" fill-opacity="1.0" stroke="rgb(0,0,0)" stroke-width="2"  />
			<g>
				<title>Beta-lactamase (PF00144)
"Beta-lactamase"</title>
				<polygon class="PF00144" points="514,28 539,28 543,32 543,48 539,52 514,52" stroke-linejoin="round" width="29" height="24" fill="rgb(92,159,200)" stroke="rgb(73,127,160)" stroke-width="1" opacity="0.75" />
			</g>
		</g>
		<g>
			<title> (ctg40_59)</title>
			<polygon class=" (ctg40_59)" points="556,25 576,25 576,10 606,40 576,70 576,55 556,55" fill="rgb(255,255,255)" fill-opacity="1.0" stroke="rgb(0,0,0)" stroke-width="2"  />
			<g>
				<title>Acyl_transf_1 (PF00698)
"Acyl transferase domain"</title>
				<polygon class="PF00698" points="567,28 590,28 596,34 596,46 590,52 567,52" stroke-linejoin="round" width="29" height="24" fill="rgb(59,176,209)" stroke="rgb(47,140,167)" stroke-width="1" opacity="0.75" />
			</g>
		</g>
		<g>
			<title> (ctg40_60)</title>
			<polygon class=" (ctg40_60)" points="606,25 645,25 645,10 675,40 645,70 645,55 606,55" fill="rgb(255,255,255)" fill-opacity="1.0" stroke="rgb(0,0,0)" stroke-width="2"  />
			<g>
				<title>PP-binding (PF00550)
"Phosphopantetheine attachment site"</title>
				<rect class="PF00550" x="612" y="28" stroke-linejoin="round" width="7" height="24" fill="rgb(103,191,88)" stroke="rgb(82,152,70)" stroke-width="1" opacity="0.75" />
			</g>
			<g>
				<title>KR (PF08659)
"KR domain"</title>
				<polygon class="PF08659" points="648,28 658,28 670,40 670,40 658,52 648,52" stroke-linejoin="round" width="22" height="24" fill="rgb(66,209,188)" stroke="rgb(52,167,150)" stroke-width="1" opacity="0.75" />
			</g>
		</g>
		<g>
			<title> (ctg40_61)</title>
			<polygon class=" (ctg40_61)" points="676,25 748,25 748,10 778,40 748,70 748,55 676,55" fill="rgb(255,255,255)" fill-opacity="1.0" stroke="rgb(0,0,0)" stroke-width="2"  />
			<g>
				<title>ketoacyl-synt (PF00109)
"Beta-ketoacyl synthase, N-terminal domain"</title>
				<rect class="PF00109" x="677" y="28" stroke-linejoin="round" width="28" height="24" fill="rgb(112,116,228)" stroke="rgb(89,92,182)" stroke-width="1" opacity="0.75" />
			</g>
			<g>
				<title>Ketoacyl-synt_C (PF02801)
"Beta-ketoacyl synthase, C-terminal domain"</title>
				<rect class="PF02801" x="706" y="28" stroke-linejoin="round" width="11" height="24" fill="rgb(215,78,102)" stroke="rgb(172,62,81)" stroke-width="1" opacity="0.75" />
			</g>
			<g>
				<title>KAsynt_C_assoc (PF16197)
"Ketoacyl-synthetase C-terminal extension"</title>
				<rect class="PF16197" x="719" y="28" stroke-linejoin="round" width="11" height="24" fill="rgb(240,150,172)" stroke="rgb(192,120,137)" stroke-width="1" opacity="0.75" />
			</g>
			<g>
				<title>Acyl_transf_1 (PF00698)
"Acyl transferase domain"</title>
				<polygon class="PF00698" points="735,28 762,28 767,33 767,47 762,52 735,52" stroke-linejoin="round" width="32" height="24" fill="rgb(59,176,209)" stroke="rgb(47,140,167)" stroke-width="1" opacity="0.75" />
			</g>
		</g>
		<g>
			<title> (ctg40_62)</title>
			<polygon class=" (ctg40_62)" points="807,40 824,10 824,70" fill="rgb(255,255,255)" fill-opacity="1.0" stroke="rgb(0,0,0)" stroke-width="2"  />
			<g>
				<title>TonB_dep_Rec (PF00593)
"TonB dependent receptor"</title>
				<polygon class="PF00593" points="810,40 817,28 823,28 823,52 817,52" stroke-linejoin="round" width="16" height="24" fill="rgb(171,200,51)" stroke="rgb(136,160,40)" stroke-width="1" opacity="0.75" />
			</g>
		</g>
		<g>
			<title> (ctg40_63)</title>
			<polygon class=" (ctg40_63)" points="832,25 833,25 833,10 863,40 833,70 833,55 832,55" fill="rgb(255,255,255)" fill-opacity="1.0" stroke="rgb(0,0,0)" stroke-width="2"  />
		</g>
		<g>
			<title> (ctg40_64)</title>
			<polygon class=" (ctg40_64)" points="866,40 870,10 870,70" fill="rgb(255,255,255)" fill-opacity="1.0" stroke="rgb(0,0,0)" stroke-width="2"  />
		</g>
		<g>
			<title> (ctg40_65)</title>
			<polygon class=" (ctg40_65)" points="869,40 877,10 877,70" fill="rgb(255,255,255)" fill-opacity="1.0" stroke="rgb(0,0,0)" stroke-width="2"  />
		</g>
		<g>
			<title> (ctg40_66)</title>
			<polygon class=" (ctg40_66)" points="888,10 913,40 888,70" fill="rgb(255,255,255)" fill-opacity="1.0" stroke="rgb(0,0,0)" stroke-width="2"  />
		</g>
		<g>
			<title> (ctg40_67)</title>
			<polygon class=" (ctg40_67)" points="922,10 947,40 922,70" fill="rgb(255,255,255)" fill-opacity="1.0" stroke="rgb(0,0,0)" stroke-width="2"  />
			<g>
				<title>DsbC_N (PF10411)
"Disulfide bond isomerase protein N-terminus"</title>
				<rect class="PF10411" x="926" y="28" stroke-linejoin="round" width="5" height="24" fill="rgb(183,87,123)" stroke="rgb(146,69,98)" stroke-width="1" opacity="0.75" />
			</g>
			<g>
				<title>Thioredoxin_2 (PF13098)
"Thioredoxin-like domain"</title>
				<polygon class="PF13098" points="934,29 943,40 934,51" stroke-linejoin="round" width="12" height="24" fill="rgb(210,154,89)" stroke="rgb(168,123,71)" stroke-width="1" opacity="0.75" />
			</g>
		</g>
		<g>
			<title> (ctg40_68)</title>
			<polygon class=" (ctg40_68)" points="951,10 960,40 951,70" fill="rgb(255,255,255)" fill-opacity="1.0" stroke="rgb(0,0,0)" stroke-width="2"  />
		</g>
		<g>
			<title> (ctg40_69)</title>
			<polygon class=" (ctg40_69)" points="961,10 969,40 961,70" fill="rgb(255,255,255)" fill-opacity="1.0" stroke="rgb(0,0,0)" stroke-width="2"  />
		</g>
		<g>
			<title> (ctg40_70)</title>
			<polygon class=" (ctg40_70)" points="1008,25 1004,25 1004,10 974,40 1004,70 1004,55 1008,55" fill="rgb(255,255,255)" fill-opacity="1.0" stroke="rgb(0,0,0)" stroke-width="2"  />
			<g>
				<title>Aldo_ket_red (PF00248)
"Aldo/keto reductase family"</title>
				<polygon class="PF00248" points="982,36 990,28 1002,28 1002,52 990,52 982,44" stroke-linejoin="round" width="20" height="24" fill="rgb(225,205,58)" stroke="rgb(180,164,46)" stroke-width="1" opacity="0.75" />
			</g>
		</g>
		<g>
			<title> (ctg40_71)</title>
			<polygon class=" (ctg40_71)" points="1010,10 1035,40 1010,70" fill="rgb(255,255,255)" fill-opacity="1.0" stroke="rgb(0,0,0)" stroke-width="2"  />
			<g>
				<title>Y_phosphatase3 (PF13350)
"Tyrosine phosphatase family"</title>
				<polygon class="PF13350" points="1011,28 1021,28 1031,40 1021,52 1011,52" stroke-linejoin="round" width="24" height="24" fill="rgb(96,226,59)" stroke="rgb(76,180,47)" stroke-width="1" opacity="0.75" />
			</g>
		</g>
		<g>
			<title> (ctg40_72)</title>
			<polygon class=" (ctg40_72)" points="1039,40 1058,10 1058,70" fill="rgb(255,255,255)" fill-opacity="1.0" stroke="rgb(0,0,0)" stroke-width="2"  />
			<g>
				<title>NMN_transporter (PF04973)
"Nicotinamide mononucleotide transporter"</title>
				<polygon class="PF04973" points="1043,40 1051,28 1057,28 1057,52 1051,52" stroke-linejoin="round" width="18" height="24" fill="rgb(79,222,192)" stroke="rgb(63,177,153)" stroke-width="1" opacity="0.75" />
			</g>
		</g>
		<g>
			<title> (ctg40_73)</title>
			<polygon class=" (ctg40_73)" points="1060,25 1078,25 1078,10 1108,40 1078,70 1078,55 1060,55" fill="rgb(255,255,255)" fill-opacity="1.0" stroke="rgb(0,0,0)" stroke-width="2"  />
			<g>
				<title>NTP_transferase (PF00483)
"Nucleotidyl transferase"</title>
				<rect class="PF00483" x="1061" y="28" stroke-linejoin="round" width="28" height="24" fill="rgb(198,101,87)" stroke="rgb(158,80,69)" stroke-width="1" opacity="0.75" />
			</g>
			<g>
				<title>MannoseP_isomer (PF01050)
"Mannose-6-phosphate isomerase"</title>
				<polygon class="PF01050" points="1092,28 1092,28 1104,40 1092,52 1092,52" stroke-linejoin="round" width="15" height="24" fill="rgb(53,184,51)" stroke="rgb(42,147,40)" stroke-width="1" opacity="0.75" />
			</g>
		</g>
		<g>
			<title> (ctg40_74)</title>
			<polygon class=" (ctg40_74)" points="1110,25 1110,25 1110,10 1140,40 1110,70 1110,55 1110,55" fill="rgb(255,255,255)" fill-opacity="1.0" stroke="rgb(0,0,0)" stroke-width="2"  />
			<g>
				<title>PhyH (PF05721)
"Phytanoyl-CoA dioxygenase (PhyH)"</title>
				<polygon class="PF05721" points="1111,28 1124,28 1132,36 1132,44 1124,52 1111,52" stroke-linejoin="round" width="21" height="24" fill="rgb(72,132,214)" stroke="rgb(57,105,171)" stroke-width="1" opacity="0.75" />
			</g>
		</g>
		<g>
			<title> (ctg40_75)</title>
			<polygon class=" (ctg40_75)" points="1141,10 1166,40 1141,70" fill="rgb(255,255,255)" fill-opacity="1.0" stroke="rgb(0,0,0)" stroke-width="2"  />
			<g>
				<title>adh_short_C2 (PF13561)
"Enoyl-(Acyl carrier protein) reductase"</title>
				<polygon class="PF13561" points="1142,28 1152,28 1162,40 1152,52 1142,52" stroke-linejoin="round" width="23" height="24" fill="rgb(73,205,127)" stroke="rgb(58,164,101)" stroke-width="1" opacity="0.75" />
			</g>
		</g>
		<g>
			<title> (ctg40_76)</title>
			<polygon class=" (ctg40_76)" points="1195,25 1194,25 1194,10 1164,40 1194,70 1194,55 1195,55" fill="rgb(255,255,255)" fill-opacity="1.0" stroke="rgb(0,0,0)" stroke-width="2"  />
			<g>
				<title>FA_hydroxylase (PF04116)
"Fatty acid hydroxylase superfamily"</title>
				<polygon class="PF04116" points="1169,39 1180,28 1183,28 1183,52 1180,52 1169,41" stroke-linejoin="round" width="14" height="24" fill="rgb(171,60,209)" stroke="rgb(136,48,167)" stroke-width="1" opacity="0.75" />
			</g>
		</g>
		<g>
			<title> (ctg40_77)</title>
			<polygon class=" (ctg40_77)" points="1272,25 1230,25 1230,10 1200,40 1230,70 1230,55 1272,55" fill="rgb(255,255,255)" fill-opacity="1.0" stroke="rgb(0,0,0)" stroke-width="2"  />
			<g>
				<title>TonB_dep_Rec (PF00593)
"TonB dependent receptor"</title>
				<polygon class="PF00593" points="1204,40 1216,28 1251,28 1251,52 1216,52" stroke-linejoin="round" width="51" height="24" fill="rgb(171,200,51)" stroke="rgb(136,160,40)" stroke-width="1" opacity="0.75" />
			</g>
			<g>
				<title>Plug (PF07715)
"TonB-dependent Receptor Plug Domain"</title>
				<rect class="PF07715" x="1257" y="28" stroke-linejoin="round" width="11" height="24" fill="rgb(99,133,214)" stroke="rgb(79,106,171)" stroke-width="1" opacity="0.75" />
			</g>
		</g>
		<g>
			<title> (ctg40_78)</title>
			<polygon class=" (ctg40_78)" points="1316,25 1303,25 1303,10 1273,40 1303,70 1303,55 1316,55" fill="rgb(255,255,255)" fill-opacity="1.0" stroke="rgb(0,0,0)" stroke-width="2"  />
			<g>
				<title>Peptidase_M75 (PF09375)
"Imelysin"</title>
				<polygon class="PF09375" points="1277,40 1289,28 1308,28 1308,52 1289,52" stroke-linejoin="round" width="32" height="24" fill="rgb(199,93,215)" stroke="rgb(159,74,172)" stroke-width="1" opacity="0.75" />
			</g>
		</g>
		<g>
			<title> (ctg40_79)</title>
			<polygon class=" (ctg40_79)" points="1392,25 1346,25 1346,10 1316,40 1346,70 1346,55 1392,55" fill="rgb(255,255,255)" fill-opacity="1.0" stroke="rgb(0,0,0)" stroke-width="2"  />
			<g>
				<title>DUF4856 (PF16148)
"Domain of unknown function (DUF4856)"</title>
				<polygon class="PF16148" points="1323,37 1332,28 1348,28 1348,52 1332,52 1323,43" stroke-linejoin="round" width="25" height="24" fill="rgb(181,162,51)" stroke="rgb(144,129,40)" stroke-width="1" opacity="0.75" />
			</g>
		</g>
		<g>
			<title> (ctg40_80)</title>
			<polygon class=" (ctg40_80)" points="1401,10 1417,40 1401,70" fill="rgb(255,255,255)" fill-opacity="1.0" stroke="rgb(0,0,0)" stroke-width="2"  />
			<g>
				<title>DUF4920 (PF16267)
"Domain of unknown function (DUF4920)"</title>
				<polygon class="PF16267" points="1405,28 1407,28 1413,40 1407,52 1405,52" stroke-linejoin="round" width="9" height="24" fill="rgb(210,190,69)" stroke="rgb(168,152,55)" stroke-width="1" opacity="0.75" />
			</g>
		</g>
	</g>
</svg>
