<svg version="1.1" baseProfile="full" xmlns="http://www.w3.org/2000/svg" width="758.7" height="80">
	<g>
		<line x1="10" y1="40.0" x2="748.7" y2="40.0" style="stroke:rgb(70,70,70); stroke-width:3 "/>
		<g>
			<title> (ctg852_16)</title>
			<polygon class=" (ctg852_16)" points="94,25 82,25 82,10 52,40 82,70 82,55 94,55" fill="rgb(255,255,255)" fill-opacity="1.0" stroke="rgb(0,0,0)" stroke-width="2"  />
			<g>
				<title>Ank_2 (PF12796)
"Ankyrin repeats (3 copies)"</title>
				<polygon class="PF12796" points="56,40 61,35 61,45" stroke-linejoin="round" width="9" height="24" fill="rgb(151,90,191)" stroke="rgb(120,72,152)" stroke-width="1" opacity="0.75" />
			</g>
			<g>
				<title>Ank (PF00023)
"Ankyrin repeat"</title>
				<rect class="PF00023" x="77" y="28" stroke-linejoin="round" width="2" height="24" fill="rgb(73,121,210)" stroke="rgb(58,96,168)" stroke-width="1" opacity="0.75" />
			</g>
			<g>
				<title>Ank_2 (PF12796)
"Ankyrin repeats (3 copies)"</title>
				<rect class="PF12796" x="83" y="28" stroke-linejoin="round" width="10" height="24" fill="rgb(151,90,191)" stroke="rgb(120,72,152)" stroke-width="1" opacity="0.75" />
			</g>
		</g>
		<g>
			<title> (ctg852_17)</title>
			<polygon class=" (ctg852_17)" points="113,10 120,40 113,70" fill="rgb(255,255,255)" fill-opacity="1.0" stroke="rgb(0,0,0)" stroke-width="2"  />
		</g>
		<g>
			<title> (ctg852_18)</title>
			<polygon class=" (ctg852_18)" points="121,10 142,40 121,70" fill="rgb(255,255,255)" fill-opacity="1.0" stroke="rgb(0,0,0)" stroke-width="2"  />
			<g>
				<title>Sigma70_r2 (PF04542)
"Sigma-70 region 2"</title>
				<rect class="PF04542" x="123" y="28" stroke-linejoin="round" width="6" height="24" fill="rgb(184,59,197)" stroke="rgb(147,47,157)" stroke-width="1" opacity="0.75" />
			</g>
		</g>
		<g>
			<title> (ctg852_19)</title>
			<polygon class=" (ctg852_19)" points="148,10 156,40 148,70" fill="rgb(255,255,255)" fill-opacity="1.0" stroke="rgb(0,0,0)" stroke-width="2"  />
		</g>
		<g>
			<title> (ctg852_20)</title>
			<polygon class=" (ctg852_20)" points="159,25 188,25 188,10 218,40 188,70 188,55 159,55" fill="rgb(255,255,255)" fill-opacity="1.0" stroke="rgb(0,0,0)" stroke-width="2"  />
			<g>
				<title>ABC_membrane (PF00664)
"ABC transporter transmembrane region"</title>
				<rect class="PF00664" x="161" y="28" stroke-linejoin="round" width="27" height="24" fill="rgb(149,226,73)" stroke="rgb(119,180,58)" stroke-width="1" opacity="0.75" />
			</g>
			<g>
				<title>ABC_tran (PF00005)
"ABC transporter"</title>
				<polygon class="PF00005" points="194,28 201,28 209,36 209,44 201,52 194,52" stroke-linejoin="round" width="15" height="24" fill="rgb(129,201,63)" stroke="rgb(103,160,50)" stroke-width="1" opacity="0.75" />
			</g>
		</g>
		<g>
			<title> (ctg852_21)</title>
			<polygon class=" (ctg852_21)" points="219,10 230,40 219,70" fill="rgb(255,255,255)" fill-opacity="1.0" stroke="rgb(0,0,0)" stroke-width="2"  />
			<g>
				<title>PqqD (PF05402)
"Coenzyme PQQ synthesis protein D (PqqD)"</title>
				<polygon class="PF05402" points="221,28 222,28 226,40 222,52 221,52" stroke-linejoin="round" width="6" height="24" fill="rgb(124,62,188)" stroke="rgb(99,49,150)" stroke-width="1" opacity="0.75" />
			</g>
		</g>
		<g>
			<title> (ctg852_22)</title>
			<polygon class=" (ctg852_22)" points="231,25 254,25 254,10 284,40 254,70 254,55 231,55" fill="rgb(255,255,255)" fill-opacity="1.0" stroke="rgb(0,0,0)" stroke-width="2"  />
			<g>
				<title>Glyco_trans_1_4 (PF13692)
"Glycosyl transferases group 1"</title>
				<rect class="PF13692" x="250" y="28" stroke-linejoin="round" width="13" height="24" fill="rgb(85,182,142)" stroke="rgb(68,145,113)" stroke-width="1" opacity="0.75" />
			</g>
		</g>
		<g>
			<title> (ctg852_23)</title>
			<polygon class=" (ctg852_23)" points="285,25 312,25 312,10 342,40 312,70 312,55 285,55" fill="rgb(255,255,255)" fill-opacity="1.0" stroke="rgb(0,0,0)" stroke-width="2"  />
			<g>
				<title>Glycos_transf_1 (PF00534)
"Glycosyl transferases group 1"</title>
				<rect class="PF00534" x="305" y="28" stroke-linejoin="round" width="16" height="24" fill="rgb(228,92,150)" stroke="rgb(182,73,119)" stroke-width="1" opacity="0.75" />
			</g>
		</g>
		<g>
			<title> (ctg852_24)</title>
			<polygon class=" (ctg852_24)" points="343,25 368,25 368,10 398,40 368,70 368,55 343,55" fill="rgb(255,255,255)" fill-opacity="1.0" stroke="rgb(0,0,0)" stroke-width="2"  />
			<g>
				<title>Asn_synthase (PF00733)
"Asparagine synthase"</title>
				<polygon class="PF00733" points="365,28 382,28 384,30 384,50 382,52 365,52" stroke-linejoin="round" width="19" height="24" fill="rgb(97,201,176)" stroke="rgb(77,160,140)" stroke-width="1" opacity="0.75" />
			</g>
			<g>
				<title>Asn_synthase (PF00733)
"Asparagine synthase"</title>
				<polygon class="PF00733" points="386,32 394,40 386,48" stroke-linejoin="round" width="11" height="24" fill="rgb(97,201,176)" stroke="rgb(77,160,140)" stroke-width="1" opacity="0.75" />
			</g>
		</g>
		<g>
			<title> (ctg852_25)</title>
			<polygon class=" (ctg852_25)" points="400,10 414,40 400,70" fill="rgb(255,255,255)" fill-opacity="1.0" stroke="rgb(0,0,0)" stroke-width="2"  />
			<g>
				<title>Transglut_core3 (PF13471)
"Transglutaminase-like superfamily"</title>
				<polygon class="PF13471" points="401,28 405,28 411,40 405,52 401,52" stroke-linejoin="round" width="11" height="24" fill="rgb(63,111,179)" stroke="rgb(50,88,143)" stroke-width="1" opacity="0.75" />
			</g>
		</g>
		<g>
			<title> (ctg852_26)</title>
			<polygon class=" (ctg852_26)" points="434,10 445,40 434,70" fill="rgb(255,255,255)" fill-opacity="1.0" stroke="rgb(0,0,0)" stroke-width="2"  />
			<g>
				<title>MacB_PCD (PF12704)
"MacB-like periplasmic core domain"</title>
				<polygon class="PF12704" points="434,28 437,28 441,40 437,52 434,52" stroke-linejoin="round" width="10" height="24" fill="rgb(79,76,190)" stroke="rgb(63,60,152)" stroke-width="1" opacity="0.75" />
			</g>
		</g>
		<g>
			<title> (ctg852_27)</title>
			<polygon class=" (ctg852_27)" points="490,25 479,25 479,10 449,40 479,70 479,55 490,55" fill="rgb(255,255,255)" fill-opacity="1.0" stroke="rgb(0,0,0)" stroke-width="2"  />
			<g>
				<title>SHMT (PF00464)
"Serine hydroxymethyltransferase"</title>
				<polygon class="PF00464" points="453,40 465,28 489,28 489,52 465,52" stroke-linejoin="round" width="37" height="24" fill="rgb(215,97,215)" stroke="rgb(172,77,172)" stroke-width="1" opacity="0.75" />
			</g>
		</g>
		<g>
			<title> (ctg852_28)</title>
			<polygon class=" (ctg852_28)" points="503,25 518,25 518,10 548,40 518,70 518,55 503,55" fill="rgb(255,255,255)" fill-opacity="1.0" stroke="rgb(0,0,0)" stroke-width="2"  />
			<g>
				<title>MR_MLE_C (PF13378)
"Enolase C-terminal domain-like"</title>
				<polygon class="PF13378" points="525,28 531,28 543,40 531,52 525,52" stroke-linejoin="round" width="23" height="24" fill="rgb(191,184,94)" stroke="rgb(152,147,75)" stroke-width="1" opacity="0.75" />
			</g>
		</g>
		<g>
			<title> (ctg852_29)</title>
			<polygon class=" (ctg852_29)" points="546,10 553,40 546,70" fill="rgb(255,255,255)" fill-opacity="1.0" stroke="rgb(0,0,0)" stroke-width="2"  />
		</g>
		<g>
			<title> (ctg852_30)</title>
			<polygon class=" (ctg852_30)" points="555,10 566,40 555,70" fill="rgb(255,255,255)" fill-opacity="1.0" stroke="rgb(0,0,0)" stroke-width="2"  />
		</g>
		<g>
			<title> (ctg852_31)</title>
			<polygon class=" (ctg852_31)" points="621,25 596,25 596,10 566,40 596,70 596,55 621,55" fill="rgb(255,255,255)" fill-opacity="1.0" stroke="rgb(0,0,0)" stroke-width="2"  />
			<g>
				<title>UnbV_ASPIC (PF07593)
"ASPIC and UnbV"</title>
				<polygon class="PF07593" points="570,40 572,38 572,42" stroke-linejoin="round" width="6" height="24" fill="rgb(157,212,86)" stroke="rgb(125,169,68)" stroke-width="1" opacity="0.75" />
			</g>
			<g>
				<title>VCBS (PF13517)
"Repeat domain in Vibrio, Colwellia, Bradyrhizobium and Shewanella"</title>
				<rect class="PF13517" x="589" y="28" stroke-linejoin="round" width="6" height="24" fill="rgb(77,199,76)" stroke="rgb(61,159,60)" stroke-width="1" opacity="0.75" />
			</g>
			<g>
				<title>VCBS (PF13517)
"Repeat domain in Vibrio, Colwellia, Bradyrhizobium and Shewanella"</title>
				<rect class="PF13517" x="602" y="28" stroke-linejoin="round" width="6" height="24" fill="rgb(77,199,76)" stroke="rgb(61,159,60)" stroke-width="1" opacity="0.75" />
			</g>
		</g>
		<g>
			<title> (ctg852_32)</title>
			<polygon class=" (ctg852_32)" points="622,40 651,10 651,70" fill="rgb(255,255,255)" fill-opacity="1.0" stroke="rgb(0,0,0)" stroke-width="2"  />
			<g>
				<title>FGE-sulfatase (PF03781)
"Sulfatase-modifying factor enzyme 1"</title>
				<polygon class="PF03781" points="626,40 638,28 647,28 647,52 638,52" stroke-linejoin="round" width="25" height="24" fill="rgb(206,81,170)" stroke="rgb(164,64,136)" stroke-width="1" opacity="0.75" />
			</g>
		</g>
		<g>
			<title> (ctg852_33)</title>
			<polygon class=" (ctg852_33)" points="685,25 682,25 682,10 652,40 682,70 682,55 685,55" fill="rgb(255,255,255)" fill-opacity="1.0" stroke="rgb(0,0,0)" stroke-width="2"  />
			<g>
				<title>tRNA-synt_2d (PF01409)
"tRNA synthetases class II core domain (F)"</title>
				<polygon class="PF01409" points="656,40 668,28 676,28 676,52 668,52" stroke-linejoin="round" width="24" height="24" fill="rgb(88,202,82)" stroke="rgb(70,161,65)" stroke-width="1" opacity="0.75" />
			</g>
			<g>
				<title>Phe_tRNA-synt_N (PF02912)
"Aminoacyl tRNA synthetase class II, N-terminal domain"</title>
				<rect class="PF02912" x="677" y="28" stroke-linejoin="round" width="6" height="24" fill="rgb(185,106,54)" stroke="rgb(148,84,43)" stroke-width="1" opacity="0.75" />
			</g>
		</g>
		<g>
			<title> (ctg852_34)</title>
			<polygon class=" (ctg852_34)" points="707,40 718,10 718,70" fill="rgb(255,255,255)" fill-opacity="1.0" stroke="rgb(0,0,0)" stroke-width="2"  />
			<g>
				<title>Ribosomal_L20 (PF00453)
"Ribosomal protein L20"</title>
				<polygon class="PF00453" points="710,40 715,28 717,28 717,52 715,52" stroke-linejoin="round" width="10" height="24" fill="rgb(221,85,111)" stroke="rgb(176,67,88)" stroke-width="1" opacity="0.75" />
			</g>
		</g>
		<g>
			<title> (ctg852_35)</title>
			<polygon class=" (ctg852_35)" points="732,40 746,10 746,70" fill="rgb(255,255,255)" fill-opacity="1.0" stroke="rgb(0,0,0)" stroke-width="2"  />
			<g>
				<title>IF3_C (PF00707)
"Translation initiation factor IF-3, C-terminal domain"</title>
				<polygon class="PF00707" points="735,40 740,30 740,50" stroke-linejoin="round" width="8" height="24" fill="rgb(122,214,90)" stroke="rgb(97,171,72)" stroke-width="1" opacity="0.75" />
			</g>
			<g>
				<title>IF3_N (PF05198)
"Translation initiation factor IF-3, N-terminal domain"</title>
				<polygon class="PF05198" points="741,27 741,28 745,28 745,52 741,52 741,53" stroke-linejoin="round" width="4" height="24" fill="rgb(226,105,214)" stroke="rgb(180,83,171)" stroke-width="1" opacity="0.75" />
			</g>
		</g>
	</g>
</svg>
