<svg version="1.1" baseProfile="full" xmlns="http://www.w3.org/2000/svg" width="227.8" height="80">
	<g>
		<line x1="10" y1="40.0" x2="217.8" y2="40.0" style="stroke:rgb(70,70,70); stroke-width:3 "/>
		<g>
			<title> (ctg14978_1)</title>
			<polygon class=" (ctg14978_1)" points="17,25 29,25 29,10 59,40 29,70 29,55 17,55" fill="rgb(255,255,255)" fill-opacity="1.0" stroke="rgb(0,0,0)" stroke-width="2"  />
			<g>
				<title>HMG_CoA_synt_N (PF01154)
"Hydroxymethylglutaryl-coenzyme A synthase N terminal"</title>
				<rect class="PF01154" x="21" y="28" stroke-linejoin="round" width="14" height="24" fill="rgb(88,216,218)" stroke="rgb(70,172,174)" stroke-width="1" opacity="0.75" />
			</g>
			<g>
				<title>HMG_CoA_synt_C (PF08540)
"Hydroxymethylglutaryl-coenzyme A synthase C terminal"</title>
				<polygon class="PF08540" points="45,30 55,40 45,50" stroke-linejoin="round" width="13" height="24" fill="rgb(49,194,86)" stroke="rgb(39,155,68)" stroke-width="1" opacity="0.75" />
			</g>
		</g>
		<g>
			<title> (ctg14978_2)</title>
			<polygon class=" (ctg14978_2)" points="60,25 103,25 103,10 133,40 103,70 103,55 60,55" fill="rgb(255,255,255)" fill-opacity="1.0" stroke="rgb(0,0,0)" stroke-width="2"  />
			<g>
				<title>FMN_dh (PF01070)
"FMN-dependent dehydrogenase"</title>
				<rect class="PF01070" x="77" y="28" stroke-linejoin="round" width="16" height="24" fill="rgb(59,82,204)" stroke="rgb(47,65,163)" stroke-width="1" opacity="0.75" />
			</g>
			<g>
				<title>SQS_PSY (PF00494)
"Squalene/phytoene synthase"</title>
				<polygon class="PF00494" points="99,28 117,28 128,39 128,41 117,52 99,52" stroke-linejoin="round" width="29" height="24" fill="rgb(178,91,49)" stroke="rgb(142,72,39)" stroke-width="1" opacity="0.75" />
			</g>
		</g>
		<g>
			<title> (ctg14978_3)</title>
			<polygon class=" (ctg14978_3)" points="133,25 142,25 142,10 172,40 142,70 142,55 133,55" fill="rgb(255,255,255)" fill-opacity="1.0" stroke="rgb(0,0,0)" stroke-width="2"  />
			<g>
				<title>DUF2236 (PF09995)
"Uncharacterized protein conserved in bacteria (DUF2236)"</title>
				<polygon class="PF09995" points="142,28 155,28 167,40 167,40 155,52 142,52" stroke-linejoin="round" width="25" height="24" fill="rgb(194,179,92)" stroke="rgb(155,143,73)" stroke-width="1" opacity="0.75" />
			</g>
		</g>
		<g>
			<title> (ctg14978_4)</title>
			<polygon class=" (ctg14978_4)" points="180,25 186,25 186,10 216,40 186,70 186,55 180,55" fill="rgb(255,255,255)" fill-opacity="1.0" stroke="rgb(0,0,0)" stroke-width="2"  />
			<g>
				<title>MMPL (PF03176)
"MMPL family"</title>
				<polygon class="PF03176" points="180,28 200,28 210,38 210,42 200,52 180,52" stroke-linejoin="round" width="30" height="24" fill="rgb(228,109,193)" stroke="rgb(182,87,154)" stroke-width="1" opacity="0.75" />
			</g>
		</g>
	</g>
</svg>
