<svg version="1.1" baseProfile="full" xmlns="http://www.w3.org/2000/svg" width="197.1" height="80">
	<g>
		<line x1="10" y1="40.0" x2="187.1" y2="40.0" style="stroke:rgb(70,70,70); stroke-width:3 "/>
		<g>
			<title> (ctg18630_1)</title>
			<polygon class=" (ctg18630_1)" points="10,10 25,40 10,70" fill="rgb(255,255,255)" fill-opacity="1.0" stroke="rgb(0,0,0)" stroke-width="2"  />
			<g>
				<title>DUF2332 (PF10094)
"Uncharacterized protein conserved in bacteria (DUF2332)"</title>
				<polygon class="PF10094" points="10,28 15,28 22,40 15,52 10,52" stroke-linejoin="round" width="15" height="24" fill="rgb(180,85,205)" stroke="rgb(144,68,164)" stroke-width="1" opacity="0.75" />
			</g>
		</g>
		<g>
			<title> (ctg18630_2)</title>
			<polygon class=" (ctg18630_2)" points="29,10 52,40 29,70" fill="rgb(255,255,255)" fill-opacity="1.0" stroke="rgb(0,0,0)" stroke-width="2"  />
		</g>
		<g>
			<title> (ctg18630_3)</title>
			<polygon class=" (ctg18630_3)" points="52,25 55,25 55,10 85,40 55,70 55,55 52,55" fill="rgb(255,255,255)" fill-opacity="1.0" stroke="rgb(0,0,0)" stroke-width="2"  />
			<g>
				<title>Aldo_ket_red (PF00248)
"Aldo/keto reductase family"</title>
				<polygon class="PF00248" points="53,28 68,28 80,40 68,52 53,52" stroke-linejoin="round" width="30" height="24" fill="rgb(225,205,58)" stroke="rgb(180,164,46)" stroke-width="1" opacity="0.75" />
			</g>
		</g>
		<g>
			<title> (ctg18630_4)</title>
			<polygon class=" (ctg18630_4)" points="90,10 114,40 90,70" fill="rgb(255,255,255)" fill-opacity="1.0" stroke="rgb(0,0,0)" stroke-width="2"  />
			<g>
				<title>DUF1538 (PF07556)
"Protein of unknown function (DUF1538)"</title>
				<polygon class="PF07556" points="92,28 101,28 110,40 101,52 92,52" stroke-linejoin="round" width="22" height="24" fill="rgb(69,211,119)" stroke="rgb(55,168,95)" stroke-width="1" opacity="0.75" />
			</g>
		</g>
		<g>
			<title> (ctg18630_5)</title>
			<polygon class=" (ctg18630_5)" points="115,10 140,40 115,70" fill="rgb(255,255,255)" fill-opacity="1.0" stroke="rgb(0,0,0)" stroke-width="2"  />
			<g>
				<title>DUF1538 (PF07556)
"Protein of unknown function (DUF1538)"</title>
				<polygon class="PF07556" points="117,28 126,28 136,40 126,52 117,52" stroke-linejoin="round" width="22" height="24" fill="rgb(69,211,119)" stroke="rgb(55,168,95)" stroke-width="1" opacity="0.75" />
			</g>
		</g>
		<g>
			<title> (ctg18630_6)</title>
			<polygon class=" (ctg18630_6)" points="141,10 152,40 141,70" fill="rgb(255,255,255)" fill-opacity="1.0" stroke="rgb(0,0,0)" stroke-width="2"  />
		</g>
		<g>
			<title> (ctg18630_7)</title>
			<polygon class=" (ctg18630_7)" points="152,10 165,40 152,70" fill="rgb(255,255,255)" fill-opacity="1.0" stroke="rgb(0,0,0)" stroke-width="2"  />
			<g>
				<title>CBS (PF00571)
"CBS domain"</title>
				<polygon class="PF00571" points="152,28 156,28 157,29 157,51 156,52 152,52" stroke-linejoin="round" width="5" height="24" fill="rgb(220,56,105)" stroke="rgb(176,44,84)" stroke-width="1" opacity="0.75" />
			</g>
			<g>
				<title>CBS (PF00571)
"CBS domain"</title>
				<polygon class="PF00571" points="159,33 162,40 159,47" stroke-linejoin="round" width="5" height="24" fill="rgb(220,56,105)" stroke="rgb(176,44,84)" stroke-width="1" opacity="0.75" />
			</g>
		</g>
		<g>
			<title> (ctg18630_8)</title>
			<polygon class=" (ctg18630_8)" points="175,10 185,40 175,70" fill="rgb(255,255,255)" fill-opacity="1.0" stroke="rgb(0,0,0)" stroke-width="2"  />
		</g>
	</g>
</svg>
