<svg version="1.1" baseProfile="full" xmlns="http://www.w3.org/2000/svg" width="211.6" height="80">
	<g>
		<line x1="10" y1="40.0" x2="201.6" y2="40.0" style="stroke:rgb(70,70,70); stroke-width:3 "/>
		<g>
			<title> (ctg16741_1)</title>
			<polygon class=" (ctg16741_1)" points="49,25 40,25 40,10 10,40 40,70 40,55 49,55" fill="rgb(255,255,255)" fill-opacity="1.0" stroke="rgb(0,0,0)" stroke-width="2"  />
			<g>
				<title>PYNP_C (PF07831)
"Pyrimidine nucleoside phosphorylase C-terminal domain"</title>
				<polygon class="PF07831" points="14,40 14,40 14,40" stroke-linejoin="round" width="4" height="24" fill="rgb(204,173,76)" stroke="rgb(163,138,60)" stroke-width="1" opacity="0.75" />
			</g>
			<g>
				<title>Glycos_transf_3 (PF00591)
"Glycosyl transferase family, a/b domain"</title>
				<polygon class="PF00591" points="18,36 26,28 41,28 41,52 26,52 18,44" stroke-linejoin="round" width="23" height="24" fill="rgb(73,116,182)" stroke="rgb(58,92,145)" stroke-width="1" opacity="0.75" />
			</g>
			<g>
				<title>Glycos_trans_3N (PF02885)
"Glycosyl transferase family, helical bundle domain"</title>
				<rect class="PF02885" x="42" y="28" stroke-linejoin="round" width="6" height="24" fill="rgb(156,69,183)" stroke="rgb(124,55,146)" stroke-width="1" opacity="0.75" />
			</g>
		</g>
		<g>
			<title> (ctg16741_2)</title>
			<polygon class=" (ctg16741_2)" points="57,10 65,40 57,70" fill="rgb(255,255,255)" fill-opacity="1.0" stroke="rgb(0,0,0)" stroke-width="2"  />
		</g>
		<g>
			<title> (ctg16741_3)</title>
			<polygon class=" (ctg16741_3)" points="76,10 104,40 76,70" fill="rgb(255,255,255)" fill-opacity="1.0" stroke="rgb(0,0,0)" stroke-width="2"  />
			<g>
				<title>DUF692 (PF05114)
"Protein of unknown function (DUF692)"</title>
				<polygon class="PF05114" points="77,28 88,28 100,40 88,52 77,52" stroke-linejoin="round" width="26" height="24" fill="rgb(63,196,127)" stroke="rgb(50,156,101)" stroke-width="1" opacity="0.75" />
			</g>
		</g>
		<g>
			<title> (ctg16741_4)</title>
			<polygon class=" (ctg16741_4)" points="104,10 129,40 104,70" fill="rgb(255,255,255)" fill-opacity="1.0" stroke="rgb(0,0,0)" stroke-width="2"  />
			<g>
				<title>DUF2063 (PF09836)
"Putative DNA-binding domain"</title>
				<rect class="PF09836" x="104" y="28" stroke-linejoin="round" width="9" height="24" fill="rgb(88,194,190)" stroke="rgb(70,155,152)" stroke-width="1" opacity="0.75" />
			</g>
		</g>
		<g>
			<title> (ctg16741_5)</title>
			<polygon class=" (ctg16741_5)" points="135,10 147,40 135,70" fill="rgb(255,255,255)" fill-opacity="1.0" stroke="rgb(0,0,0)" stroke-width="2"  />
			<g>
				<title>DUF2282 (PF10048)
"Predicted integral membrane protein (DUF2282)"</title>
				<polygon class="PF10048" points="140,31 144,40 140,49" stroke-linejoin="round" width="5" height="24" fill="rgb(58,205,168)" stroke="rgb(46,164,134)" stroke-width="1" opacity="0.75" />
			</g>
		</g>
		<g>
			<title> (ctg16741_6)</title>
			<polygon class=" (ctg16741_6)" points="158,10 182,40 158,70" fill="rgb(255,255,255)" fill-opacity="1.0" stroke="rgb(0,0,0)" stroke-width="2"  />
			<g>
				<title>DUF692 (PF05114)
"Protein of unknown function (DUF692)"</title>
				<polygon class="PF05114" points="158,28 169,28 178,40 169,52 158,52" stroke-linejoin="round" width="23" height="24" fill="rgb(63,196,127)" stroke="rgb(50,156,101)" stroke-width="1" opacity="0.75" />
			</g>
		</g>
		<g>
			<title> (ctg16741_7)</title>
			<polygon class=" (ctg16741_7)" points="182,10 200,40 182,70" fill="rgb(255,255,255)" fill-opacity="1.0" stroke="rgb(0,0,0)" stroke-width="2"  />
			<g>
				<title>DUF2063 (PF09836)
"Putative DNA-binding domain"</title>
				<polygon class="PF09836" points="182,28 189,28 191,30 191,50 189,52 182,52" stroke-linejoin="round" width="9" height="24" fill="rgb(88,194,190)" stroke="rgb(70,155,152)" stroke-width="1" opacity="0.75" />
			</g>
		</g>
	</g>
</svg>
