<svg version="1.1" baseProfile="full" xmlns="http://www.w3.org/2000/svg" width="651.3" height="80">
	<g>
		<line x1="10" y1="40.0" x2="641.3" y2="40.0" style="stroke:rgb(70,70,70); stroke-width:3 "/>
		<g>
			<title> (ctg2365_1)</title>
			<polygon class=" (ctg2365_1)" points="10,40 17,10 17,70" fill="rgb(255,255,255)" fill-opacity="1.0" stroke="rgb(0,0,0)" stroke-width="2"  />
		</g>
		<g>
			<title> (ctg2365_2)</title>
			<polygon class=" (ctg2365_2)" points="16,40 31,10 31,70" fill="rgb(255,255,255)" fill-opacity="1.0" stroke="rgb(0,0,0)" stroke-width="2"  />
		</g>
		<g>
			<title> (ctg2365_3)</title>
			<polygon class=" (ctg2365_3)" points="32,40 55,10 55,70" fill="rgb(255,255,255)" fill-opacity="1.0" stroke="rgb(0,0,0)" stroke-width="2"  />
			<g>
				<title>FtsX (PF02687)
"FtsX-like permease family"</title>
				<polygon class="PF02687" points="36,40 40,35 40,45" stroke-linejoin="round" width="8" height="24" fill="rgb(126,55,214)" stroke="rgb(100,44,171)" stroke-width="1" opacity="0.75" />
			</g>
		</g>
		<g>
			<title> (ctg2365_4)</title>
			<polygon class=" (ctg2365_4)" points="109,25 85,25 85,10 55,40 85,70 85,55 109,55" fill="rgb(255,255,255)" fill-opacity="1.0" stroke="rgb(0,0,0)" stroke-width="2"  />
			<g>
				<title>PmbA_TldD (PF01523)
"Putative modulator of DNA gyrase"</title>
				<rect class="PF01523" x="76" y="28" stroke-linejoin="round" width="32" height="24" fill="rgb(83,181,55)" stroke="rgb(66,144,44)" stroke-width="1" opacity="0.75" />
			</g>
		</g>
		<g>
			<title> (ctg2365_5)</title>
			<polygon class=" (ctg2365_5)" points="176,25 146,25 146,10 116,40 146,70 146,55 176,55" fill="rgb(255,255,255)" fill-opacity="1.0" stroke="rgb(0,0,0)" stroke-width="2"  />
			<g>
				<title>PmbA_TldD (PF01523)
"Putative modulator of DNA gyrase"</title>
				<rect class="PF01523" x="133" y="28" stroke-linejoin="round" width="26" height="24" fill="rgb(83,181,55)" stroke="rgb(66,144,44)" stroke-width="1" opacity="0.75" />
			</g>
		</g>
		<g>
			<title> (ctg2365_6)</title>
			<polygon class=" (ctg2365_6)" points="176,40 188,10 188,70" fill="rgb(255,255,255)" fill-opacity="1.0" stroke="rgb(0,0,0)" stroke-width="2"  />
		</g>
		<g>
			<title> (ctg2365_7)</title>
			<polygon class=" (ctg2365_7)" points="191,40 194,10 194,70" fill="rgb(255,255,255)" fill-opacity="1.0" stroke="rgb(0,0,0)" stroke-width="2"  />
		</g>
		<g>
			<title> (ctg2365_8)</title>
			<polygon class=" (ctg2365_8)" points="196,10 206,40 196,70" fill="rgb(255,255,255)" fill-opacity="1.0" stroke="rgb(0,0,0)" stroke-width="2"  />
		</g>
		<g>
			<title> (ctg2365_9)</title>
			<polygon class=" (ctg2365_9)" points="205,40 213,10 213,70" fill="rgb(255,255,255)" fill-opacity="1.0" stroke="rgb(0,0,0)" stroke-width="2"  />
		</g>
		<g>
			<title> (ctg2365_10)</title>
			<polygon class=" (ctg2365_10)" points="214,40 235,10 235,70" fill="rgb(255,255,255)" fill-opacity="1.0" stroke="rgb(0,0,0)" stroke-width="2"  />
		</g>
		<g>
			<title> (ctg2365_11)</title>
			<polygon class=" (ctg2365_11)" points="236,40 259,10 259,70" fill="rgb(255,255,255)" fill-opacity="1.0" stroke="rgb(0,0,0)" stroke-width="2"  />
			<g>
				<title>LYTB (PF02401)
"LytB protein"</title>
				<polygon class="PF02401" points="240,40 250,28 259,28 259,52 250,52" stroke-linejoin="round" width="20" height="24" fill="rgb(155,62,193)" stroke="rgb(124,49,154)" stroke-width="1" opacity="0.75" />
			</g>
		</g>
		<g>
			<title> (ctg2365_12)</title>
			<polygon class=" (ctg2365_12)" points="263,10 271,40 263,70" fill="rgb(255,255,255)" fill-opacity="1.0" stroke="rgb(0,0,0)" stroke-width="2"  />
		</g>
		<g>
			<title> (ctg2365_13)</title>
			<polygon class=" (ctg2365_13)" points="307,25 298,25 298,10 268,40 298,70 298,55 307,55" fill="rgb(255,255,255)" fill-opacity="1.0" stroke="rgb(0,0,0)" stroke-width="2"  />
			<g>
				<title>SQS_PSY (PF00494)
"Squalene/phytoene synthase"</title>
				<polygon class="PF00494" points="276,36 284,28 305,28 305,52 284,52 276,44" stroke-linejoin="round" width="29" height="24" fill="rgb(178,91,49)" stroke="rgb(142,72,39)" stroke-width="1" opacity="0.75" />
			</g>
		</g>
		<g>
			<title> (ctg2365_14)</title>
			<polygon class=" (ctg2365_14)" points="383,25 337,25 337,10 307,40 337,70 337,55 383,55" fill="rgb(255,255,255)" fill-opacity="1.0" stroke="rgb(0,0,0)" stroke-width="2"  />
			<g>
				<title>MMPL (PF03176)
"MMPL family"</title>
				<polygon class="PF03176" points="311,40 323,28 328,28 328,52 323,52" stroke-linejoin="round" width="21" height="24" fill="rgb(228,109,193)" stroke="rgb(182,87,154)" stroke-width="1" opacity="0.75" />
			</g>
			<g>
				<title>MMPL (PF03176)
"MMPL family"</title>
				<rect class="PF03176" x="343" y="28" stroke-linejoin="round" width="28" height="24" fill="rgb(228,109,193)" stroke="rgb(182,87,154)" stroke-width="1" opacity="0.75" />
			</g>
		</g>
		<g>
			<title> (ctg2365_15)</title>
			<polygon class=" (ctg2365_15)" points="423,25 414,25 414,10 384,40 414,70 414,55 423,55" fill="rgb(255,255,255)" fill-opacity="1.0" stroke="rgb(0,0,0)" stroke-width="2"  />
		</g>
		<g>
			<title> (ctg2365_16)</title>
			<polygon class=" (ctg2365_16)" points="427,40 455,10 455,70" fill="rgb(255,255,255)" fill-opacity="1.0" stroke="rgb(0,0,0)" stroke-width="2"  />
			<g>
				<title>LolA_like (PF17131)
"Outer membrane lipoprotein-sorting protein"</title>
				<polygon class="PF17131" points="431,40 442,28 445,28 445,52 442,52" stroke-linejoin="round" width="18" height="24" fill="rgb(189,100,83)" stroke="rgb(151,80,66)" stroke-width="1" opacity="0.75" />
			</g>
		</g>
		<g>
			<title> (ctg2365_17)</title>
			<polygon class=" (ctg2365_17)" points="497,25 488,25 488,10 458,40 488,70 488,55 497,55" fill="rgb(255,255,255)" fill-opacity="1.0" stroke="rgb(0,0,0)" stroke-width="2"  />
			<g>
				<title>DUF2236 (PF09995)
"Uncharacterized protein conserved in bacteria (DUF2236)"</title>
				<polygon class="PF09995" points="462,40 474,28 486,28 486,52 474,52" stroke-linejoin="round" width="25" height="24" fill="rgb(194,179,92)" stroke="rgb(155,143,73)" stroke-width="1" opacity="0.75" />
			</g>
		</g>
		<g>
			<title> (ctg2365_18)</title>
			<polygon class=" (ctg2365_18)" points="498,40 507,10 507,70" fill="rgb(255,255,255)" fill-opacity="1.0" stroke="rgb(0,0,0)" stroke-width="2"  />
		</g>
		<g>
			<title> (ctg2365_19)</title>
			<polygon class=" (ctg2365_19)" points="512,40 522,10 522,70" fill="rgb(255,255,255)" fill-opacity="1.0" stroke="rgb(0,0,0)" stroke-width="2"  />
		</g>
		<g>
			<title> (ctg2365_20)</title>
			<polygon class=" (ctg2365_20)" points="524,10 534,40 524,70" fill="rgb(255,255,255)" fill-opacity="1.0" stroke="rgb(0,0,0)" stroke-width="2"  />
		</g>
		<g>
			<title> (ctg2365_21)</title>
			<polygon class=" (ctg2365_21)" points="535,10 541,40 535,70" fill="rgb(255,255,255)" fill-opacity="1.0" stroke="rgb(0,0,0)" stroke-width="2"  />
		</g>
		<g>
			<title> (ctg2365_22)</title>
			<polygon class=" (ctg2365_22)" points="541,10 565,40 541,70" fill="rgb(255,255,255)" fill-opacity="1.0" stroke="rgb(0,0,0)" stroke-width="2"  />
		</g>
		<g>
			<title> (ctg2365_23)</title>
			<polygon class=" (ctg2365_23)" points="566,10 570,40 566,70" fill="rgb(255,255,255)" fill-opacity="1.0" stroke="rgb(0,0,0)" stroke-width="2"  />
		</g>
		<g>
			<title> (ctg2365_24)</title>
			<polygon class=" (ctg2365_24)" points="571,40 576,10 576,70" fill="rgb(255,255,255)" fill-opacity="1.0" stroke="rgb(0,0,0)" stroke-width="2"  />
		</g>
	</g>
</svg>
