<svg version="1.1" baseProfile="full" xmlns="http://www.w3.org/2000/svg" width="559.8" height="80">
	<g>
		<line x1="10" y1="40.0" x2="549.8" y2="40.0" style="stroke:rgb(70,70,70); stroke-width:3 "/>
		<g>
			<title> (ctg521_1)</title>
			<polygon class=" (ctg521_1)" points="10,10 22,40 10,70" fill="rgb(255,255,255)" fill-opacity="1.0" stroke="rgb(0,0,0)" stroke-width="2"  />
		</g>
		<g>
			<title> (ctg521_2)</title>
			<polygon class=" (ctg521_2)" points="22,25 29,25 29,10 59,40 29,70 29,55 22,55" fill="rgb(255,255,255)" fill-opacity="1.0" stroke="rgb(0,0,0)" stroke-width="2"  />
			<g>
				<title>ERG4_ERG24 (PF01222)
"Ergosterol biosynthesis ERG4/ERG24 family"</title>
				<polygon class="PF01222" points="23,28 42,28 54,40 42,52 23,52" stroke-linejoin="round" width="35" height="24" fill="rgb(99,195,207)" stroke="rgb(79,155,165)" stroke-width="1" opacity="0.75" />
			</g>
		</g>
		<g>
			<title> (ctg521_3)</title>
			<polygon class=" (ctg521_3)" points="59,25 74,25 74,10 104,40 74,70 74,55 59,55" fill="rgb(255,255,255)" fill-opacity="1.0" stroke="rgb(0,0,0)" stroke-width="2"  />
			<g>
				<title>p450 (PF00067)
"Cytochrome P450"</title>
				<polygon class="PF00067" points="59,28 87,28 99,40 87,52 59,52" stroke-linejoin="round" width="43" height="24" fill="rgb(85,216,107)" stroke="rgb(68,172,85)" stroke-width="1" opacity="0.75" />
			</g>
		</g>
		<g>
			<title> (ctg521_4)</title>
			<polygon class=" (ctg521_4)" points="109,25 186,25 186,10 216,40 186,70 186,55 109,55" fill="rgb(255,255,255)" fill-opacity="1.0" stroke="rgb(0,0,0)" stroke-width="2"  />
			<g>
				<title>SE (PF08491)
"Squalene epoxidase"</title>
				<rect class="PF08491" x="119" y="28" stroke-linejoin="round" width="24" height="24" fill="rgb(93,72,221)" stroke="rgb(74,57,176)" stroke-width="1" opacity="0.75" />
			</g>
			<g>
				<title>SQHop_cyclase_N (PF13249)
"Squalene-hopene cyclase N-terminal domain"</title>
				<rect class="PF13249" x="151" y="28" stroke-linejoin="round" width="29" height="24" fill="rgb(88,190,89)" stroke="rgb(70,152,71)" stroke-width="1" opacity="0.75" />
			</g>
			<g>
				<title>SQHop_cyclase_C (PF13243)
"Squalene-hopene cyclase C-terminal domain"</title>
				<polygon class="PF13243" points="182,28 199,28 211,40 199,52 182,52" stroke-linejoin="round" width="32" height="24" fill="rgb(191,58,201)" stroke="rgb(152,46,160)" stroke-width="1" opacity="0.75" />
			</g>
		</g>
		<g>
			<title> (ctg521_5)</title>
			<polygon class=" (ctg521_5)" points="255,25 244,25 244,10 214,40 244,70 244,55 255,55" fill="rgb(255,255,255)" fill-opacity="1.0" stroke="rgb(0,0,0)" stroke-width="2"  />
			<g>
				<title>Sterol_MT_C (PF08498)
"Sterol methyltransferase C-terminal"</title>
				<polygon class="PF08498" points="218,40 221,37 221,43" stroke-linejoin="round" width="6" height="24" fill="rgb(65,219,176)" stroke="rgb(52,175,140)" stroke-width="1" opacity="0.75" />
			</g>
			<g>
				<title>Methyltransf_11 (PF08241)
"Methyltransferase domain"</title>
				<polygon class="PF08241" points="229,29 230,28 238,28 238,52 230,52 229,51" stroke-linejoin="round" width="9" height="24" fill="rgb(106,219,159)" stroke="rgb(84,175,127)" stroke-width="1" opacity="0.75" />
			</g>
		</g>
		<g>
			<title> (ctg521_6)</title>
			<polygon class=" (ctg521_6)" points="257,10 264,40 257,70" fill="rgb(255,255,255)" fill-opacity="1.0" stroke="rgb(0,0,0)" stroke-width="2"  />
		</g>
		<g>
			<title> (ctg521_7)</title>
			<polygon class=" (ctg521_7)" points="303,25 295,25 295,10 265,40 295,70 295,55 303,55" fill="rgb(255,255,255)" fill-opacity="1.0" stroke="rgb(0,0,0)" stroke-width="2"  />
			<g>
				<title>tRNA_Me_trans (PF03054)
"tRNA methyl transferase"</title>
				<polygon class="PF03054" points="269,40 281,28 302,28 302,52 281,52" stroke-linejoin="round" width="35" height="24" fill="rgb(197,86,150)" stroke="rgb(157,68,120)" stroke-width="1" opacity="0.75" />
			</g>
		</g>
		<g>
			<title> (ctg521_8)</title>
			<polygon class=" (ctg521_8)" points="345,25 334,25 334,10 304,40 334,70 334,55 345,55" fill="rgb(255,255,255)" fill-opacity="1.0" stroke="rgb(0,0,0)" stroke-width="2"  />
			<g>
				<title>Aminotran_5 (PF00266)
"Aminotransferase class-V"</title>
				<polygon class="PF00266" points="308,40 320,28 342,28 342,52 320,52" stroke-linejoin="round" width="36" height="24" fill="rgb(214,54,122)" stroke="rgb(171,43,97)" stroke-width="1" opacity="0.75" />
			</g>
		</g>
		<g>
			<title> (ctg521_9)</title>
			<polygon class=" (ctg521_9)" points="346,10 358,40 346,70" fill="rgb(255,255,255)" fill-opacity="1.0" stroke="rgb(0,0,0)" stroke-width="2"  />
		</g>
		<g>
			<title> (ctg521_10)</title>
			<polygon class=" (ctg521_10)" points="400,25 388,25 388,10 358,40 388,70 388,55 400,55" fill="rgb(255,255,255)" fill-opacity="1.0" stroke="rgb(0,0,0)" stroke-width="2"  />
			<g>
				<title>FtsX (PF02687)
"FtsX-like permease family"</title>
				<polygon class="PF02687" points="362,40 366,36 366,44" stroke-linejoin="round" width="8" height="24" fill="rgb(126,55,214)" stroke="rgb(100,44,171)" stroke-width="1" opacity="0.75" />
			</g>
			<g>
				<title>MacB_PCD (PF12704)
"MacB-like periplasmic core domain"</title>
				<polygon class="PF12704" points="374,28 374,28 397,28 397,52 374,52 374,52" stroke-linejoin="round" width="23" height="24" fill="rgb(79,76,190)" stroke="rgb(63,60,152)" stroke-width="1" opacity="0.75" />
			</g>
		</g>
		<g>
			<title> (ctg521_11)</title>
			<polygon class=" (ctg521_11)" points="441,25 430,25 430,10 400,40 430,70 430,55 441,55" fill="rgb(255,255,255)" fill-opacity="1.0" stroke="rgb(0,0,0)" stroke-width="2"  />
			<g>
				<title>FtsX (PF02687)
"FtsX-like permease family"</title>
				<polygon class="PF02687" points="404,40 408,36 408,44" stroke-linejoin="round" width="8" height="24" fill="rgb(126,55,214)" stroke="rgb(100,44,171)" stroke-width="1" opacity="0.75" />
			</g>
			<g>
				<title>MacB_PCD (PF12704)
"MacB-like periplasmic core domain"</title>
				<polygon class="PF12704" points="416,28 416,28 439,28 439,52 416,52 416,52" stroke-linejoin="round" width="23" height="24" fill="rgb(79,76,190)" stroke="rgb(63,60,152)" stroke-width="1" opacity="0.75" />
			</g>
		</g>
		<g>
			<title> (ctg521_12)</title>
			<polygon class=" (ctg521_12)" points="486,25 472,25 472,10 442,40 472,70 472,55 486,55" fill="rgb(255,255,255)" fill-opacity="1.0" stroke="rgb(0,0,0)" stroke-width="2"  />
			<g>
				<title>HlyD_D23 (PF16576)
"Barrel-sandwich domain of CusB or HlyD membrane-fusion"</title>
				<rect class="PF16576" x="459" y="28" stroke-linejoin="round" width="23" height="24" fill="rgb(70,190,92)" stroke="rgb(56,152,73)" stroke-width="1" opacity="0.75" />
			</g>
		</g>
		<g>
			<title> (ctg521_13)</title>
			<polygon class=" (ctg521_13)" points="542,25 520,25 520,10 490,40 520,70 520,55 542,55" fill="rgb(255,255,255)" fill-opacity="1.0" stroke="rgb(0,0,0)" stroke-width="2"  />
			<g>
				<title>OEP (PF02321)
"Outer membrane efflux protein"</title>
				<polygon class="PF02321" points="494,40 506,28 514,28 514,52 506,52" stroke-linejoin="round" width="24" height="24" fill="rgb(205,57,201)" stroke="rgb(164,45,160)" stroke-width="1" opacity="0.75" />
			</g>
			<g>
				<title>OEP (PF02321)
"Outer membrane efflux protein"</title>
				<rect class="PF02321" x="517" y="28" stroke-linejoin="round" width="19" height="24" fill="rgb(205,57,201)" stroke="rgb(164,45,160)" stroke-width="1" opacity="0.75" />
			</g>
		</g>
	</g>
</svg>
