<svg version="1.1" baseProfile="full" xmlns="http://www.w3.org/2000/svg" width="269.5333333333333" height="80">
	<g>
		<line x1="10" y1="40.0" x2="259.5333333333333" y2="40.0" style="stroke:rgb(70,70,70); stroke-width:3 "/>
		<g>
			<title> (ctg11676_1)</title>
			<polygon class=" (ctg11676_1)" points="10,25 52,25 52,10 82,40 52,70 52,55 10,55" fill="rgb(255,255,255)" fill-opacity="1.0" stroke="rgb(0,0,0)" stroke-width="2"  />
			<g>
				<title>PPDK_N (PF01326)
"Pyruvate phosphate dikinase, PEP/pyruvate binding domain"</title>
				<rect class="PF01326" x="10" y="28" stroke-linejoin="round" width="18" height="24" fill="rgb(112,180,78)" stroke="rgb(89,144,62)" stroke-width="1" opacity="0.75" />
			</g>
			<g>
				<title>PEP-utilizers (PF00391)
"PEP-utilising enzyme, mobile domain"</title>
				<rect class="PF00391" x="34" y="28" stroke-linejoin="round" width="8" height="24" fill="rgb(206,59,219)" stroke="rgb(164,47,175)" stroke-width="1" opacity="0.75" />
			</g>
			<g>
				<title>PEP-utilizers_C (PF02896)
"PEP-utilising enzyme, TIM barrel domain"</title>
				<polygon class="PF02896" points="44,28 65,28 77,40 65,52 44,52" stroke-linejoin="round" width="35" height="24" fill="rgb(65,113,188)" stroke="rgb(52,90,150)" stroke-width="1" opacity="0.75" />
			</g>
		</g>
		<g>
			<title> (ctg11676_2)</title>
			<polygon class=" (ctg11676_2)" points="82,10 111,40 82,70" fill="rgb(255,255,255)" fill-opacity="1.0" stroke="rgb(0,0,0)" stroke-width="2"  />
			<g>
				<title>Shikimate_dh_N (PF08501)
"Shikimate dehydrogenase substrate binding domain"</title>
				<rect class="PF08501" x="83" y="28" stroke-linejoin="round" width="8" height="24" fill="rgb(145,207,53)" stroke="rgb(116,165,42)" stroke-width="1" opacity="0.75" />
			</g>
			<g>
				<title>Shikimate_DH (PF01488)
"Shikimate / quinate 5-dehydrogenase"</title>
				<polygon class="PF01488" points="93,28 94,28 101,34 101,46 94,52 93,52" stroke-linejoin="round" width="8" height="24" fill="rgb(94,182,59)" stroke="rgb(75,145,47)" stroke-width="1" opacity="0.75" />
			</g>
			<g>
				<title>SDH_C (PF18317)
"Shikimate 5'-dehydrogenase C-terminal domain"</title>
				<polygon class="PF18317" points="107,40 106,40 107,40" stroke-linejoin="round" width="3" height="24" fill="rgb(87,77,179)" stroke="rgb(69,61,143)" stroke-width="1" opacity="0.75" />
			</g>
		</g>
		<g>
			<title> (ctg11676_3)</title>
			<polygon class=" (ctg11676_3)" points="112,25 122,25 122,10 152,40 122,70 122,55 112,55" fill="rgb(255,255,255)" fill-opacity="1.0" stroke="rgb(0,0,0)" stroke-width="2"  />
			<g>
				<title>T2SSF (PF00482)
"Type II secretion system (T2SS), protein F"</title>
				<rect class="PF00482" x="119" y="28" stroke-linejoin="round" width="12" height="24" fill="rgb(124,208,56)" stroke="rgb(99,166,44)" stroke-width="1" opacity="0.75" />
			</g>
			<g>
				<title>T2SSF (PF00482)
"Type II secretion system (T2SS), protein F"</title>
				<polygon class="PF00482" points="139,31 148,40 139,49" stroke-linejoin="round" width="12" height="24" fill="rgb(124,208,56)" stroke="rgb(99,166,44)" stroke-width="1" opacity="0.75" />
			</g>
		</g>
		<g>
			<title> (ctg11676_4)</title>
			<polygon class=" (ctg11676_4)" points="153,40 182,10 182,70" fill="rgb(255,255,255)" fill-opacity="1.0" stroke="rgb(0,0,0)" stroke-width="2"  />
			<g>
				<title>HSP33 (PF01430)
"Hsp33 protein"</title>
				<polygon class="PF01430" points="157,40 169,28 181,28 181,52 169,52" stroke-linejoin="round" width="27" height="24" fill="rgb(211,223,106)" stroke="rgb(168,178,84)" stroke-width="1" opacity="0.75" />
			</g>
		</g>
		<g>
			<title> (ctg11676_5)</title>
			<polygon class=" (ctg11676_5)" points="225,25 214,25 214,10 184,40 214,70 214,55 225,55" fill="rgb(255,255,255)" fill-opacity="1.0" stroke="rgb(0,0,0)" stroke-width="2"  />
			<g>
				<title>GTP_cyclohydro2 (PF00925)
"GTP cyclohydrolase II"</title>
				<polygon class="PF00925" points="188,40 200,28 202,28 202,52 200,52" stroke-linejoin="round" width="16" height="24" fill="rgb(50,54,188)" stroke="rgb(40,43,150)" stroke-width="1" opacity="0.75" />
			</g>
			<g>
				<title>DHBP_synthase (PF00926)
"3,4-dihydroxy-2-butanone 4-phosphate synthase"</title>
				<rect class="PF00926" x="204" y="28" stroke-linejoin="round" width="19" height="24" fill="rgb(84,51,187)" stroke="rgb(67,40,149)" stroke-width="1" opacity="0.75" />
			</g>
		</g>
		<g>
			<title> (ctg11676_6)</title>
			<polygon class=" (ctg11676_6)" points="236,10 249,40 236,70" fill="rgb(255,255,255)" fill-opacity="1.0" stroke="rgb(0,0,0)" stroke-width="2"  />
		</g>
		<g>
			<title> (ctg11676_7)</title>
			<polygon class=" (ctg11676_7)" points="250,40 258,10 258,70" fill="rgb(255,255,255)" fill-opacity="1.0" stroke="rgb(0,0,0)" stroke-width="2"  />
			<g>
				<title>SQS_PSY (PF00494)
"Squalene/phytoene synthase"</title>
				<polygon class="PF00494" points="253,40 256,28 257,28 257,52 256,52" stroke-linejoin="round" width="6" height="24" fill="rgb(178,91,49)" stroke="rgb(142,72,39)" stroke-width="1" opacity="0.75" />
			</g>
		</g>
	</g>
</svg>
