<svg version="1.1" baseProfile="full" xmlns="http://www.w3.org/2000/svg" width="380.93333333333334" height="80">
	<g>
		<line x1="10" y1="40.0" x2="370.93333333333334" y2="40.0" style="stroke:rgb(70,70,70); stroke-width:3 "/>
		<g>
			<title> (ctg211_68)</title>
			<polygon class=" (ctg211_68)" points="29,25 51,25 51,10 81,40 51,70 51,55 29,55" fill="rgb(255,255,255)" fill-opacity="1.0" stroke="rgb(0,0,0)" stroke-width="2"  />
			<g>
				<title>COX1 (PF00115)
"Cytochrome C and Quinol oxidase polypeptide I"</title>
				<polygon class="PF00115" points="31,28 65,28 75,38 75,42 65,52 31,52" stroke-linejoin="round" width="44" height="24" fill="rgb(64,128,197)" stroke="rgb(51,102,157)" stroke-width="1" opacity="0.75" />
			</g>
		</g>
		<g>
			<title> (ctg211_69)</title>
			<polygon class=" (ctg211_69)" points="82,10 85,40 82,70" fill="rgb(255,255,255)" fill-opacity="1.0" stroke="rgb(0,0,0)" stroke-width="2"  />
		</g>
		<g>
			<title> (ctg211_70)</title>
			<polygon class=" (ctg211_70)" points="86,10 104,40 86,70" fill="rgb(255,255,255)" fill-opacity="1.0" stroke="rgb(0,0,0)" stroke-width="2"  />
			<g>
				<title>CtaG_Cox11 (PF04442)
"Cytochrome c oxidase assembly protein CtaG/Cox11"</title>
				<polygon class="PF04442" points="89,28 93,28 101,40 93,52 89,52" stroke-linejoin="round" width="14" height="24" fill="rgb(131,73,213)" stroke="rgb(104,58,170)" stroke-width="1" opacity="0.75" />
			</g>
		</g>
		<g>
			<title> (ctg211_71)</title>
			<polygon class=" (ctg211_71)" points="104,10 133,40 104,70" fill="rgb(255,255,255)" fill-opacity="1.0" stroke="rgb(0,0,0)" stroke-width="2"  />
			<g>
				<title>COX3 (PF00510)
"Cytochrome c oxidase subunit III"</title>
				<rect class="PF00510" x="104" y="28" stroke-linejoin="round" width="11" height="24" fill="rgb(104,211,69)" stroke="rgb(83,168,55)" stroke-width="1" opacity="0.75" />
			</g>
			<g>
				<title>COX3 (PF00510)
"Cytochrome c oxidase subunit III"</title>
				<polygon class="PF00510" points="116,28 117,28 129,40 117,52 116,52" stroke-linejoin="round" width="16" height="24" fill="rgb(104,211,69)" stroke="rgb(83,168,55)" stroke-width="1" opacity="0.75" />
			</g>
		</g>
		<g>
			<title> (ctg211_72)</title>
			<polygon class=" (ctg211_72)" points="134,10 154,40 134,70" fill="rgb(255,255,255)" fill-opacity="1.0" stroke="rgb(0,0,0)" stroke-width="2"  />
			<g>
				<title>Cytochrome_CBB3 (PF13442)
"Cytochrome C oxidase, cbb3-type, subunit III"</title>
				<polygon class="PF13442" points="145,32 150,40 145,48" stroke-linejoin="round" width="6" height="24" fill="rgb(49,184,120)" stroke="rgb(39,147,96)" stroke-width="1" opacity="0.75" />
			</g>
		</g>
		<g>
			<title> (ctg211_73)</title>
			<polygon class=" (ctg211_73)" points="157,10 175,40 157,70" fill="rgb(255,255,255)" fill-opacity="1.0" stroke="rgb(0,0,0)" stroke-width="2"  />
			<g>
				<title>HhH-GPD (PF00730)
"HhH-GPD superfamily base excision DNA repair protein"</title>
				<polygon class="PF00730" points="157,28 164,28 170,38 170,42 164,52 157,52" stroke-linejoin="round" width="13" height="24" fill="rgb(190,78,115)" stroke="rgb(152,62,92)" stroke-width="1" opacity="0.75" />
			</g>
		</g>
		<g>
			<title> (ctg211_74)</title>
			<polygon class=" (ctg211_74)" points="176,10 203,40 176,70" fill="rgb(255,255,255)" fill-opacity="1.0" stroke="rgb(0,0,0)" stroke-width="2"  />
			<g>
				<title>DUF692 (PF05114)
"Protein of unknown function (DUF692)"</title>
				<polygon class="PF05114" points="177,28 188,28 199,40 188,52 177,52" stroke-linejoin="round" width="26" height="24" fill="rgb(63,196,127)" stroke="rgb(50,156,101)" stroke-width="1" opacity="0.75" />
			</g>
		</g>
		<g>
			<title> (ctg211_75)</title>
			<polygon class=" (ctg211_75)" points="204,10 229,40 204,70" fill="rgb(255,255,255)" fill-opacity="1.0" stroke="rgb(0,0,0)" stroke-width="2"  />
			<g>
				<title>DUF2063 (PF09836)
"Putative DNA-binding domain"</title>
				<rect class="PF09836" x="204" y="28" stroke-linejoin="round" width="8" height="24" fill="rgb(88,194,190)" stroke="rgb(70,155,152)" stroke-width="1" opacity="0.75" />
			</g>
		</g>
		<g>
			<title> (ctg211_76)</title>
			<polygon class=" (ctg211_76)" points="229,40 255,10 255,70" fill="rgb(255,255,255)" fill-opacity="1.0" stroke="rgb(0,0,0)" stroke-width="2"  />
		</g>
		<g>
			<title> (ctg211_77)</title>
			<polygon class=" (ctg211_77)" points="290,25 285,25 285,10 255,40 285,70 285,55 290,55" fill="rgb(255,255,255)" fill-opacity="1.0" stroke="rgb(0,0,0)" stroke-width="2"  />
			<g>
				<title>DAO (PF01266)
"FAD dependent oxidoreductase"</title>
				<rect class="PF01266" x="283" y="28" stroke-linejoin="round" width="6" height="24" fill="rgb(123,179,59)" stroke="rgb(98,143,47)" stroke-width="1" opacity="0.75" />
			</g>
		</g>
		<g>
			<title> (ctg211_78)</title>
			<polygon class=" (ctg211_78)" points="295,10 315,40 295,70" fill="rgb(255,255,255)" fill-opacity="1.0" stroke="rgb(0,0,0)" stroke-width="2"  />
			<g>
				<title>DoxX (PF07681)
"DoxX"</title>
				<polygon class="PF07681" points="297,28 304,28 305,30 305,50 304,52 297,52" stroke-linejoin="round" width="8" height="24" fill="rgb(93,188,216)" stroke="rgb(74,150,172)" stroke-width="1" opacity="0.75" />
			</g>
		</g>
		<g>
			<title> (ctg211_79)</title>
			<polygon class=" (ctg211_79)" points="321,10 334,40 321,70" fill="rgb(255,255,255)" fill-opacity="1.0" stroke="rgb(0,0,0)" stroke-width="2"  />
		</g>
		<g>
			<title> (ctg211_80)</title>
			<polygon class=" (ctg211_80)" points="335,10 352,40 335,70" fill="rgb(255,255,255)" fill-opacity="1.0" stroke="rgb(0,0,0)" stroke-width="2"  />
			<g>
				<title>Sigma70_r2 (PF04542)
"Sigma-70 region 2"</title>
				<polygon class="PF04542" points="337,28 342,28 343,30 343,50 342,52 337,52" stroke-linejoin="round" width="6" height="24" fill="rgb(184,59,197)" stroke="rgb(147,47,157)" stroke-width="1" opacity="0.75" />
			</g>
			<g>
				<title>Sigma70_r4_2 (PF08281)
"Sigma-70, region 4"</title>
				<polygon class="PF08281" points="346,35 349,40 346,45" stroke-linejoin="round" width="5" height="24" fill="rgb(222,103,144)" stroke="rgb(177,82,115)" stroke-width="1" opacity="0.75" />
			</g>
		</g>
		<g>
			<title> (ctg211_81)</title>
			<polygon class=" (ctg211_81)" points="353,10 365,40 353,70" fill="rgb(255,255,255)" fill-opacity="1.0" stroke="rgb(0,0,0)" stroke-width="2"  />
		</g>
	</g>
</svg>
