<svg version="1.1" baseProfile="full" xmlns="http://www.w3.org/2000/svg" width="372.1333333333333" height="80">
	<g>
		<line x1="10" y1="40.0" x2="362.1333333333333" y2="40.0" style="stroke:rgb(70,70,70); stroke-width:3 "/>
		<g>
			<title> (ctg2705_2)</title>
			<polygon class=" (ctg2705_2)" points="10,40 15,10 15,70" fill="rgb(255,255,255)" fill-opacity="1.0" stroke="rgb(0,0,0)" stroke-width="2"  />
		</g>
		<g>
			<title> (ctg2705_3)</title>
			<polygon class=" (ctg2705_3)" points="24,10 51,40 24,70" fill="rgb(255,255,255)" fill-opacity="1.0" stroke="rgb(0,0,0)" stroke-width="2"  />
			<g>
				<title>ABC_tran (PF00005)
"ABC transporter"</title>
				<polygon class="PF00005" points="25,28 35,28 40,33 40,47 35,52 25,52" stroke-linejoin="round" width="15" height="24" fill="rgb(129,201,63)" stroke="rgb(103,160,50)" stroke-width="1" opacity="0.75" />
			</g>
		</g>
		<g>
			<title> (ctg2705_4)</title>
			<polygon class=" (ctg2705_4)" points="53,10 58,40 53,70" fill="rgb(255,255,255)" fill-opacity="1.0" stroke="rgb(0,0,0)" stroke-width="2"  />
		</g>
		<g>
			<title> (ctg2705_5)</title>
			<polygon class=" (ctg2705_5)" points="57,10 86,40 57,70" fill="rgb(255,255,255)" fill-opacity="1.0" stroke="rgb(0,0,0)" stroke-width="2"  />
			<g>
				<title>Phosphonate-bd (PF12974)
"ABC transporter, phosphonate, periplasmic substrate-binding protein"</title>
				<polygon class="PF12974" points="59,28 69,28 81,40 69,52 59,52" stroke-linejoin="round" width="25" height="24" fill="rgb(150,187,81)" stroke="rgb(120,149,64)" stroke-width="1" opacity="0.75" />
			</g>
		</g>
		<g>
			<title> (ctg2705_6)</title>
			<polygon class=" (ctg2705_6)" points="90,10 119,40 90,70" fill="rgb(255,255,255)" fill-opacity="1.0" stroke="rgb(0,0,0)" stroke-width="2"  />
			<g>
				<title>BPD_transp_1 (PF00528)
"Binding-protein-dependent transport system inner membrane component"</title>
				<polygon class="PF00528" points="101,28 102,28 114,40 102,52 101,52" stroke-linejoin="round" width="17" height="24" fill="rgb(77,208,225)" stroke="rgb(61,166,180)" stroke-width="1" opacity="0.75" />
			</g>
		</g>
		<g>
			<title> (ctg2705_7)</title>
			<polygon class=" (ctg2705_7)" points="119,10 148,40 119,70" fill="rgb(255,255,255)" fill-opacity="1.0" stroke="rgb(0,0,0)" stroke-width="2"  />
			<g>
				<title>BPD_transp_1 (PF00528)
"Binding-protein-dependent transport system inner membrane component"</title>
				<polygon class="PF00528" points="129,28 131,28 143,40 131,52 129,52" stroke-linejoin="round" width="17" height="24" fill="rgb(77,208,225)" stroke="rgb(61,166,180)" stroke-width="1" opacity="0.75" />
			</g>
		</g>
		<g>
			<title> (ctg2705_8)</title>
			<polygon class=" (ctg2705_8)" points="151,40 175,10 175,70" fill="rgb(255,255,255)" fill-opacity="1.0" stroke="rgb(0,0,0)" stroke-width="2"  />
			<g>
				<title>Abhydrolase_3 (PF07859)
"alpha/beta hydrolase fold"</title>
				<polygon class="PF07859" points="155,40 165,28 172,28 172,52 165,52" stroke-linejoin="round" width="20" height="24" fill="rgb(183,51,179)" stroke="rgb(146,40,143)" stroke-width="1" opacity="0.75" />
			</g>
		</g>
		<g>
			<title> (ctg2705_9)</title>
			<polygon class=" (ctg2705_9)" points="176,40 194,10 194,70" fill="rgb(255,255,255)" fill-opacity="1.0" stroke="rgb(0,0,0)" stroke-width="2"  />
			<g>
				<title>NHase_alpha (PF02979)
"Nitrile hydratase, alpha chain"</title>
				<polygon class="PF02979" points="180,40 188,28 193,28 193,52 188,52" stroke-linejoin="round" width="15" height="24" fill="rgb(204,148,70)" stroke="rgb(163,118,56)" stroke-width="1" opacity="0.75" />
			</g>
		</g>
		<g>
			<title> (ctg2705_10)</title>
			<polygon class=" (ctg2705_10)" points="195,40 200,10 200,70" fill="rgb(255,255,255)" fill-opacity="1.0" stroke="rgb(0,0,0)" stroke-width="2"  />
		</g>
		<g>
			<title> (ctg2705_11)</title>
			<polygon class=" (ctg2705_11)" points="206,25 242,25 242,10 272,40 242,70 242,55 206,55" fill="rgb(255,255,255)" fill-opacity="1.0" stroke="rgb(0,0,0)" stroke-width="2"  />
			<g>
				<title>Metallophos (PF00149)
"Calcineurin-like phosphoesterase"</title>
				<rect class="PF00149" x="206" y="28" stroke-linejoin="round" width="21" height="24" fill="rgb(181,197,58)" stroke="rgb(144,157,46)" stroke-width="1" opacity="0.75" />
			</g>
		</g>
		<g>
			<title> (ctg2705_12)</title>
			<polygon class=" (ctg2705_12)" points="316,25 305,25 305,10 275,40 305,70 305,55 316,55" fill="rgb(255,255,255)" fill-opacity="1.0" stroke="rgb(0,0,0)" stroke-width="2"  />
			<g>
				<title>DAO (PF01266)
"FAD dependent oxidoreductase"</title>
				<polygon class="PF01266" points="279,40 291,28 314,28 314,52 291,52 279,40" stroke-linejoin="round" width="35" height="24" fill="rgb(123,179,59)" stroke="rgb(98,143,47)" stroke-width="1" opacity="0.75" />
			</g>
		</g>
		<g>
			<title> (ctg2705_13)</title>
			<polygon class=" (ctg2705_13)" points="353,25 347,25 347,10 317,40 347,70 347,55 353,55" fill="rgb(255,255,255)" fill-opacity="1.0" stroke="rgb(0,0,0)" stroke-width="2"  />
			<g>
				<title>EamA (PF00892)
"EamA-like transporter family"</title>
				<polygon class="PF00892" points="321,40 331,30 331,50" stroke-linejoin="round" width="13" height="24" fill="rgb(105,217,77)" stroke="rgb(84,173,61)" stroke-width="1" opacity="0.75" />
			</g>
			<g>
				<title>EamA (PF00892)
"EamA-like transporter family"</title>
				<polygon class="PF00892" points="332,29 333,28 345,28 345,52 333,52 332,51" stroke-linejoin="round" width="13" height="24" fill="rgb(105,217,77)" stroke="rgb(84,173,61)" stroke-width="1" opacity="0.75" />
			</g>
		</g>
		<g>
			<title> (ctg2705_14)</title>
			<polygon class=" (ctg2705_14)" points="352,40 359,10 359,70" fill="rgb(255,255,255)" fill-opacity="1.0" stroke="rgb(0,0,0)" stroke-width="2"  />
		</g>
	</g>
</svg>
