<svg version="1.1" baseProfile="full" xmlns="http://www.w3.org/2000/svg" width="406.1333333333333" height="80">
	<g>
		<line x1="10" y1="40.0" x2="396.1333333333333" y2="40.0" style="stroke:rgb(70,70,70); stroke-width:3 "/>
		<g>
			<title> (ctg6414_1)</title>
			<polygon class=" (ctg6414_1)" points="10,40 30,10 30,70" fill="rgb(255,255,255)" fill-opacity="1.0" stroke="rgb(0,0,0)" stroke-width="2"  />
			<g>
				<title>Methyltransf_28 (PF02636)
"Putative S-adenosyl-L-methionine-dependent methyltransferase"</title>
				<polygon class="PF02636" points="14,40 22,28 23,28 23,52 22,52" stroke-linejoin="round" width="13" height="24" fill="rgb(200,62,145)" stroke="rgb(160,49,115)" stroke-width="1" opacity="0.75" />
			</g>
		</g>
		<g>
			<title> (ctg6414_2)</title>
			<polygon class=" (ctg6414_2)" points="30,40 57,10 57,70" fill="rgb(255,255,255)" fill-opacity="1.0" stroke="rgb(0,0,0)" stroke-width="2"  />
			<g>
				<title>LGT (PF01790)
"Prolipoprotein diacylglyceryl transferase"</title>
				<polygon class="PF01790" points="34,40 45,28 55,28 55,52 45,52" stroke-linejoin="round" width="24" height="24" fill="rgb(140,56,206)" stroke="rgb(112,44,164)" stroke-width="1" opacity="0.75" />
			</g>
		</g>
		<g>
			<title> (ctg6414_3)</title>
			<polygon class=" (ctg6414_3)" points="90,25 87,25 87,10 57,40 87,70 87,55 90,55" fill="rgb(255,255,255)" fill-opacity="1.0" stroke="rgb(0,0,0)" stroke-width="2"  />
			<g>
				<title>Epimerase (PF01370)
"NAD dependent epimerase/dehydratase family"</title>
				<polygon class="PF01370" points="65,36 73,28 89,28 89,52 73,52 65,44" stroke-linejoin="round" width="24" height="24" fill="rgb(98,102,214)" stroke="rgb(78,81,171)" stroke-width="1" opacity="0.75" />
			</g>
		</g>
		<g>
			<title> (ctg6414_4)</title>
			<polygon class=" (ctg6414_4)" points="93,40 122,10 122,70" fill="rgb(255,255,255)" fill-opacity="1.0" stroke="rgb(0,0,0)" stroke-width="2"  />
			<g>
				<title>SQS_PSY (PF00494)
"Squalene/phytoene synthase"</title>
				<polygon class="PF00494" points="97,40 109,28 119,28 119,52 109,52" stroke-linejoin="round" width="25" height="24" fill="rgb(178,91,49)" stroke="rgb(142,72,39)" stroke-width="1" opacity="0.75" />
			</g>
		</g>
		<g>
			<title> (ctg6414_5)</title>
			<polygon class=" (ctg6414_5)" points="122,40 151,10 151,70" fill="rgb(255,255,255)" fill-opacity="1.0" stroke="rgb(0,0,0)" stroke-width="2"  />
			<g>
				<title>SQS_PSY (PF00494)
"Squalene/phytoene synthase"</title>
				<polygon class="PF00494" points="126,40 138,28 148,28 148,52 138,52" stroke-linejoin="round" width="25" height="24" fill="rgb(178,91,49)" stroke="rgb(142,72,39)" stroke-width="1" opacity="0.75" />
			</g>
		</g>
		<g>
			<title> (ctg6414_6)</title>
			<polygon class=" (ctg6414_6)" points="192,25 182,25 182,10 152,40 182,70 182,55 192,55" fill="rgb(255,255,255)" fill-opacity="1.0" stroke="rgb(0,0,0)" stroke-width="2"  />
			<g>
				<title>DXPR_C (PF13288)
"DXP reductoisomerase C-terminal domain"</title>
				<polygon class="PF13288" points="156,40 164,32 164,48" stroke-linejoin="round" width="11" height="24" fill="rgb(184,95,48)" stroke="rgb(147,76,38)" stroke-width="1" opacity="0.75" />
			</g>
			<g>
				<title>DXP_redisom_C (PF08436)
"1-deoxy-D-xylulose 5-phosphate reductoisomerase C-terminal domain"</title>
				<polygon class="PF08436" points="167,29 168,28 175,28 175,52 168,52 167,51" stroke-linejoin="round" width="8" height="24" fill="rgb(160,186,55)" stroke="rgb(127,148,44)" stroke-width="1" opacity="0.75" />
			</g>
			<g>
				<title>DXP_reductoisom (PF02670)
"1-deoxy-D-xylulose 5-phosphate reductoisomerase"</title>
				<rect class="PF02670" x="177" y="28" stroke-linejoin="round" width="12" height="24" fill="rgb(106,225,169)" stroke="rgb(84,180,135)" stroke-width="1" opacity="0.75" />
			</g>
		</g>
		<g>
			<title> (ctg6414_7)</title>
			<polygon class=" (ctg6414_7)" points="197,10 208,40 197,70" fill="rgb(255,255,255)" fill-opacity="1.0" stroke="rgb(0,0,0)" stroke-width="2"  />
			<g>
				<title>Pterin_4a (PF01329)
"Pterin 4 alpha carbinolamine dehydratase"</title>
				<polygon class="PF01329" points="198,28 200,28 204,40 200,52 198,52" stroke-linejoin="round" width="9" height="24" fill="rgb(109,209,90)" stroke="rgb(87,167,72)" stroke-width="1" opacity="0.75" />
			</g>
		</g>
		<g>
			<title> (ctg6414_8)</title>
			<polygon class=" (ctg6414_8)" points="329,25 242,25 242,10 212,40 242,70 242,55 329,55" fill="rgb(255,255,255)" fill-opacity="1.0" stroke="rgb(0,0,0)" stroke-width="2"  />
			<g>
				<title>TRCF (PF03461)
"TRCF domain"</title>
				<polygon class="PF03461" points="217,39 226,30 226,50 217,41" stroke-linejoin="round" width="9" height="24" fill="rgb(60,201,111)" stroke="rgb(48,160,88)" stroke-width="1" opacity="0.75" />
			</g>
			<g>
				<title>Helicase_C (PF00271)
"Helicase conserved C-terminal domain"</title>
				<rect class="PF00271" x="236" y="28" stroke-linejoin="round" width="11" height="24" fill="rgb(104,224,158)" stroke="rgb(83,179,126)" stroke-width="1" opacity="0.75" />
			</g>
			<g>
				<title>DEAD (PF00270)
"DEAD/DEAH box helicase"</title>
				<rect class="PF00270" x="251" y="28" stroke-linejoin="round" width="16" height="24" fill="rgb(195,100,62)" stroke="rgb(156,80,49)" stroke-width="1" opacity="0.75" />
			</g>
			<g>
				<title>CarD_CdnL_TRCF (PF02559)
"CarD-like/TRCF domain"</title>
				<rect class="PF02559" x="270" y="28" stroke-linejoin="round" width="9" height="24" fill="rgb(216,93,82)" stroke="rgb(172,74,65)" stroke-width="1" opacity="0.75" />
			</g>
			<g>
				<title>UvrB_inter (PF17757)
"UvrB interaction domain"</title>
				<rect class="PF17757" x="306" y="28" stroke-linejoin="round" width="8" height="24" fill="rgb(228,207,102)" stroke="rgb(182,165,81)" stroke-width="1" opacity="0.75" />
			</g>
		</g>
		<g>
			<title> (ctg6414_9)</title>
			<polygon class=" (ctg6414_9)" points="329,40 339,10 339,70" fill="rgb(255,255,255)" fill-opacity="1.0" stroke="rgb(0,0,0)" stroke-width="2"  />
			<g>
				<title>Sdh5 (PF03937)
"Flavinator of succinate dehydrogenase"</title>
				<polygon class="PF03937" points="332,40 336,28 337,28 337,52 336,52" stroke-linejoin="round" width="7" height="24" fill="rgb(72,197,81)" stroke="rgb(57,157,64)" stroke-width="1" opacity="0.75" />
			</g>
		</g>
		<g>
			<title> (ctg6414_10)</title>
			<polygon class=" (ctg6414_10)" points="379,25 370,25 370,10 340,40 370,70 370,55 379,55" fill="rgb(255,255,255)" fill-opacity="1.0" stroke="rgb(0,0,0)" stroke-width="2"  />
			<g>
				<title>PALP (PF00291)
"Pyridoxal-phosphate dependent enzyme"</title>
				<polygon class="PF00291" points="344,40 356,28 375,28 375,52 356,52" stroke-linejoin="round" width="33" height="24" fill="rgb(180,55,145)" stroke="rgb(144,44,116)" stroke-width="1" opacity="0.75" />
			</g>
		</g>
		<g>
			<title> (ctg6414_11)</title>
			<polygon class=" (ctg6414_11)" points="380,40 395,10 395,70" fill="rgb(255,255,255)" fill-opacity="1.0" stroke="rgb(0,0,0)" stroke-width="2"  />
			<g>
				<title>Bac_luciferase (PF00296)
"Luciferase-like monooxygenase"</title>
				<polygon class="PF00296" points="383,40 389,28 394,28 394,52 389,52 383,40" stroke-linejoin="round" width="11" height="24" fill="rgb(180,112,78)" stroke="rgb(144,89,62)" stroke-width="1" opacity="0.75" />
			</g>
		</g>
	</g>
</svg>
