<svg version="1.1" baseProfile="full" xmlns="http://www.w3.org/2000/svg" width="527.5333333333333" height="80">
	<g>
		<line x1="10" y1="40.0" x2="517.5333333333333" y2="40.0" style="stroke:rgb(70,70,70); stroke-width:3 "/>
		<g>
			<title> (ctg2247_1)</title>
			<polygon class=" (ctg2247_1)" points="10,25 15,25 15,10 45,40 15,70 15,55 10,55" fill="rgb(255,255,255)" fill-opacity="1.0" stroke="rgb(0,0,0)" stroke-width="2"  />
			<g>
				<title>FGE-sulfatase (PF03781)
"Sulfatase-modifying factor enzyme 1"</title>
				<polygon class="PF03781" points="18,28 29,28 41,40 29,52 18,52" stroke-linejoin="round" width="26" height="24" fill="rgb(206,81,170)" stroke="rgb(164,64,136)" stroke-width="1" opacity="0.75" />
			</g>
		</g>
		<g>
			<title> (ctg2247_2)</title>
			<polygon class=" (ctg2247_2)" points="45,10 61,40 45,70" fill="rgb(255,255,255)" fill-opacity="1.0" stroke="rgb(0,0,0)" stroke-width="2"  />
			<g>
				<title>SmpB (PF01668)
"SmpB protein"</title>
				<polygon class="PF01668" points="46,28 51,28 57,40 51,52 46,52" stroke-linejoin="round" width="14" height="24" fill="rgb(188,55,143)" stroke="rgb(150,43,114)" stroke-width="1" opacity="0.75" />
			</g>
		</g>
		<g>
			<title> (ctg2247_3)</title>
			<polygon class=" (ctg2247_3)" points="61,10 66,40 61,70" fill="rgb(255,255,255)" fill-opacity="1.0" stroke="rgb(0,0,0)" stroke-width="2"  />
		</g>
		<g>
			<title> (ctg2247_4)</title>
			<polygon class=" (ctg2247_4)" points="70,10 74,40 70,70" fill="rgb(255,255,255)" fill-opacity="1.0" stroke="rgb(0,0,0)" stroke-width="2"  />
		</g>
		<g>
			<title> (ctg2247_5)</title>
			<polygon class=" (ctg2247_5)" points="76,25 88,25 88,10 118,40 88,70 88,55 76,55" fill="rgb(255,255,255)" fill-opacity="1.0" stroke="rgb(0,0,0)" stroke-width="2"  />
		</g>
		<g>
			<title> (ctg2247_6)</title>
			<polygon class=" (ctg2247_6)" points="154,25 149,25 149,10 119,40 149,70 149,55 154,55" fill="rgb(255,255,255)" fill-opacity="1.0" stroke="rgb(0,0,0)" stroke-width="2"  />
		</g>
		<g>
			<title> (ctg2247_7)</title>
			<polygon class=" (ctg2247_7)" points="156,40 184,10 184,70" fill="rgb(255,255,255)" fill-opacity="1.0" stroke="rgb(0,0,0)" stroke-width="2"  />
			<g>
				<title>SQS_PSY (PF00494)
"Squalene/phytoene synthase"</title>
				<polygon class="PF00494" points="160,40 171,28 182,28 182,52 171,52" stroke-linejoin="round" width="25" height="24" fill="rgb(178,91,49)" stroke="rgb(142,72,39)" stroke-width="1" opacity="0.75" />
			</g>
		</g>
		<g>
			<title> (ctg2247_8)</title>
			<polygon class=" (ctg2247_8)" points="232,25 213,25 213,10 183,40 213,70 213,55 232,55" fill="rgb(255,255,255)" fill-opacity="1.0" stroke="rgb(0,0,0)" stroke-width="2"  />
			<g>
				<title>Amino_oxidase (PF01593)
"Flavin containing amine oxidoreductase"</title>
				<polygon class="PF01593" points="187,40 199,28 231,28 231,52 199,52" stroke-linejoin="round" width="47" height="24" fill="rgb(184,74,52)" stroke="rgb(147,59,41)" stroke-width="1" opacity="0.75" />
			</g>
		</g>
		<g>
			<title> (ctg2247_9)</title>
			<polygon class=" (ctg2247_9)" points="279,25 263,25 263,10 233,40 263,70 263,55 279,55" fill="rgb(255,255,255)" fill-opacity="1.0" stroke="rgb(0,0,0)" stroke-width="2"  />
			<g>
				<title>Sulfatase (PF00884)
"Sulfatase"</title>
				<polygon class="PF00884" points="245,32 249,28 279,28 279,52 249,52 245,48" stroke-linejoin="round" width="34" height="24" fill="rgb(61,103,198)" stroke="rgb(48,82,158)" stroke-width="1" opacity="0.75" />
			</g>
		</g>
		<g>
			<title> (ctg2247_10)</title>
			<polygon class=" (ctg2247_10)" points="320,25 315,25 315,10 285,40 315,70 315,55 320,55" fill="rgb(255,255,255)" fill-opacity="1.0" stroke="rgb(0,0,0)" stroke-width="2"  />
			<g>
				<title>Na_Ca_ex (PF01699)
"Sodium/calcium exchanger protein"</title>
				<polygon class="PF01699" points="289,40 300,29 300,51" stroke-linejoin="round" width="14" height="24" fill="rgb(64,189,136)" stroke="rgb(51,151,108)" stroke-width="1" opacity="0.75" />
			</g>
			<g>
				<title>Na_Ca_ex (PF01699)
"Sodium/calcium exchanger protein"</title>
				<rect class="PF01699" x="303" y="28" stroke-linejoin="round" width="15" height="24" fill="rgb(64,189,136)" stroke="rgb(51,151,108)" stroke-width="1" opacity="0.75" />
			</g>
		</g>
		<g>
			<title> (ctg2247_11)</title>
			<polygon class=" (ctg2247_11)" points="332,10 346,40 332,70" fill="rgb(255,255,255)" fill-opacity="1.0" stroke="rgb(0,0,0)" stroke-width="2"  />
		</g>
		<g>
			<title> (ctg2247_12)</title>
			<polygon class=" (ctg2247_12)" points="346,10 367,40 346,70" fill="rgb(255,255,255)" fill-opacity="1.0" stroke="rgb(0,0,0)" stroke-width="2"  />
			<g>
				<title>zf-TFIIB (PF13453)
"Transcription factor zinc-finger"</title>
				<rect class="PF13453" x="346" y="28" stroke-linejoin="round" width="5" height="24" fill="rgb(96,215,65)" stroke="rgb(76,172,52)" stroke-width="1" opacity="0.75" />
			</g>
			<g>
				<title>zf-TFIIB (PF13453)
"Transcription factor zinc-finger"</title>
				<polygon class="PF13453" points="356,29 359,33 359,47 356,51" stroke-linejoin="round" width="3" height="24" fill="rgb(96,215,65)" stroke="rgb(76,172,52)" stroke-width="1" opacity="0.75" />
			</g>
		</g>
		<g>
			<title> (ctg2247_13)</title>
			<polygon class=" (ctg2247_13)" points="378,25 390,25 390,10 420,40 390,70 390,55 378,55" fill="rgb(255,255,255)" fill-opacity="1.0" stroke="rgb(0,0,0)" stroke-width="2"  />
			<g>
				<title>Epimerase (PF01370)
"NAD dependent epimerase/dehydratase family"</title>
				<polygon class="PF01370" points="390,28 404,28 411,35 411,45 404,52 390,52" stroke-linejoin="round" width="21" height="24" fill="rgb(98,102,214)" stroke="rgb(78,81,171)" stroke-width="1" opacity="0.75" />
			</g>
			<g>
				<title>DUF1731 (PF08338)
"Domain of unknown function (DUF1731)"</title>
				<polygon class="PF08338" points="415,39 416,40 415,41" stroke-linejoin="round" width="4" height="24" fill="rgb(63,110,190)" stroke="rgb(50,88,152)" stroke-width="1" opacity="0.75" />
			</g>
		</g>
		<g>
			<title> (ctg2247_14)</title>
			<polygon class=" (ctg2247_14)" points="422,40 432,10 432,70" fill="rgb(255,255,255)" fill-opacity="1.0" stroke="rgb(0,0,0)" stroke-width="2"  />
			<g>
				<title>rhaM (PF05336)
"L-rhamnose mutarotase"</title>
				<polygon class="PF05336" points="425,40 429,28 432,28 432,52 429,52" stroke-linejoin="round" width="10" height="24" fill="rgb(93,125,229)" stroke="rgb(74,100,183)" stroke-width="1" opacity="0.75" />
			</g>
		</g>
		<g>
			<title> (ctg2247_15)</title>
			<polygon class=" (ctg2247_15)" points="435,25 436,25 436,10 466,40 436,70 436,55 435,55" fill="rgb(255,255,255)" fill-opacity="1.0" stroke="rgb(0,0,0)" stroke-width="2"  />
			<g>
				<title>AP_endonuc_2 (PF01261)
"Xylose isomerase-like TIM barrel"</title>
				<polygon class="PF01261" points="437,28 450,28 460,38 460,42 450,52 437,52" stroke-linejoin="round" width="23" height="24" fill="rgb(69,222,207)" stroke="rgb(55,177,165)" stroke-width="1" opacity="0.75" />
			</g>
		</g>
		<g>
			<title> (ctg2247_16)</title>
			<polygon class=" (ctg2247_16)" points="468,40 479,10 479,70" fill="rgb(255,255,255)" fill-opacity="1.0" stroke="rgb(0,0,0)" stroke-width="2"  />
		</g>
		<g>
			<title> (ctg2247_17)</title>
			<polygon class=" (ctg2247_17)" points="479,40 490,10 490,70" fill="rgb(255,255,255)" fill-opacity="1.0" stroke="rgb(0,0,0)" stroke-width="2"  />
			<g>
				<title>HicB_lk_antitox (PF15919)
"HicB_like antitoxin of bacterial toxin-antitoxin system"</title>
				<polygon class="PF15919" points="482,40 486,28 489,28 489,52 486,52" stroke-linejoin="round" width="8" height="24" fill="rgb(104,205,86)" stroke="rgb(83,164,68)" stroke-width="1" opacity="0.75" />
			</g>
		</g>
		<g>
			<title> (ctg2247_18)</title>
			<polygon class=" (ctg2247_18)" points="490,40 499,10 499,70" fill="rgb(255,255,255)" fill-opacity="1.0" stroke="rgb(0,0,0)" stroke-width="2"  />
		</g>
		<g>
			<title> (ctg2247_19)</title>
			<polygon class=" (ctg2247_19)" points="502,40 511,10 511,70" fill="rgb(255,255,255)" fill-opacity="1.0" stroke="rgb(0,0,0)" stroke-width="2"  />
		</g>
	</g>
</svg>
