<svg version="1.1" baseProfile="full" xmlns="http://www.w3.org/2000/svg" width="332.23333333333335" height="80">
	<g>
		<line x1="10" y1="40.0" x2="322.23333333333335" y2="40.0" style="stroke:rgb(70,70,70); stroke-width:3 "/>
		<g>
			<title> (ctg8574_1)</title>
			<polygon class=" (ctg8574_1)" points="44,25 40,25 40,10 10,40 40,70 40,55 44,55" fill="rgb(255,255,255)" fill-opacity="1.0" stroke="rgb(0,0,0)" stroke-width="2"  />
			<g>
				<title>DUF1501 (PF07394)
"Protein of unknown function (DUF1501)"</title>
				<polygon class="PF07394" points="14,40 26,28 38,28 38,52 26,52" stroke-linejoin="round" width="28" height="24" fill="rgb(199,225,81)" stroke="rgb(159,180,64)" stroke-width="1" opacity="0.75" />
			</g>
		</g>
		<g>
			<title> (ctg8574_2)</title>
			<polygon class=" (ctg8574_2)" points="122,25 74,25 74,10 44,40 74,70 74,55 122,55" fill="rgb(255,255,255)" fill-opacity="1.0" stroke="rgb(0,0,0)" stroke-width="2"  />
			<g>
				<title>PSD1 (PF07587)
"Protein of unknown function (DUF1553)"</title>
				<polygon class="PF07587" points="49,39 60,28 74,28 74,52 60,52 49,41" stroke-linejoin="round" width="25" height="24" fill="rgb(55,214,194)" stroke="rgb(44,171,155)" stroke-width="1" opacity="0.75" />
			</g>
			<g>
				<title>PSCyt2 (PF07583)
"Protein of unknown function (DUF1549)"</title>
				<rect class="PF07583" x="93" y="28" stroke-linejoin="round" width="20" height="24" fill="rgb(224,195,67)" stroke="rgb(179,156,53)" stroke-width="1" opacity="0.75" />
			</g>
		</g>
		<g>
			<title> (ctg8574_3)</title>
			<polygon class=" (ctg8574_3)" points="130,25 165,25 165,10 195,40 165,70 165,55 130,55" fill="rgb(255,255,255)" fill-opacity="1.0" stroke="rgb(0,0,0)" stroke-width="2"  />
			<g>
				<title>SQHop_cyclase_N (PF13249)
"Squalene-hopene cyclase N-terminal domain"</title>
				<rect class="PF13249" x="132" y="28" stroke-linejoin="round" width="29" height="24" fill="rgb(88,190,89)" stroke="rgb(70,152,71)" stroke-width="1" opacity="0.75" />
			</g>
			<g>
				<title>SQHop_cyclase_C (PF13243)
"Squalene-hopene cyclase C-terminal domain"</title>
				<polygon class="PF13243" points="162,28 179,28 191,40 179,52 162,52" stroke-linejoin="round" width="32" height="24" fill="rgb(191,58,201)" stroke="rgb(152,46,160)" stroke-width="1" opacity="0.75" />
			</g>
		</g>
		<g>
			<title> (ctg8574_4)</title>
			<polygon class=" (ctg8574_4)" points="196,25 202,25 202,10 232,40 202,70 202,55 196,55" fill="rgb(255,255,255)" fill-opacity="1.0" stroke="rgb(0,0,0)" stroke-width="2"  />
			<g>
				<title>Radical_SAM (PF04055)
"Radical SAM superfamily"</title>
				<polygon class="PF04055" points="202,28 216,28 217,29 217,51 216,52 202,52" stroke-linejoin="round" width="15" height="24" fill="rgb(149,56,222)" stroke="rgb(119,44,177)" stroke-width="1" opacity="0.75" />
			</g>
			<g>
				<title>DUF3463 (PF11946)
"Domain of unknown function (DUF3463)"</title>
				<polygon class="PF11946" points="218,30 228,40 218,50" stroke-linejoin="round" width="13" height="24" fill="rgb(193,51,57)" stroke="rgb(154,40,45)" stroke-width="1" opacity="0.75" />
			</g>
		</g>
		<g>
			<title> (ctg8574_5)</title>
			<polygon class=" (ctg8574_5)" points="234,25 238,25 238,10 268,40 238,70 238,55 234,55" fill="rgb(255,255,255)" fill-opacity="1.0" stroke="rgb(0,0,0)" stroke-width="2"  />
			<g>
				<title>ADH_N (PF08240)
"Alcohol dehydrogenase GroES-like domain"</title>
				<rect class="PF08240" x="236" y="28" stroke-linejoin="round" width="11" height="24" fill="rgb(211,65,138)" stroke="rgb(168,51,110)" stroke-width="1" opacity="0.75" />
			</g>
			<g>
				<title>ADH_zinc_N (PF00107)
"Zinc-binding dehydrogenase"</title>
				<polygon class="PF00107" points="251,28 252,28 263,39 263,41 252,52 251,52" stroke-linejoin="round" width="12" height="24" fill="rgb(81,108,215)" stroke="rgb(64,86,172)" stroke-width="1" opacity="0.75" />
			</g>
		</g>
		<g>
			<title> (ctg8574_6)</title>
			<polygon class=" (ctg8574_6)" points="270,10 299,40 270,70" fill="rgb(255,255,255)" fill-opacity="1.0" stroke="rgb(0,0,0)" stroke-width="2"  />
			<g>
				<title>CN_hydrolase (PF00795)
"Carbon-nitrogen hydrolase"</title>
				<polygon class="PF00795" points="270,28 283,28 295,40 283,52 270,52" stroke-linejoin="round" width="27" height="24" fill="rgb(213,76,196)" stroke="rgb(170,60,156)" stroke-width="1" opacity="0.75" />
			</g>
		</g>
		<g>
			<title> (ctg8574_7)</title>
			<polygon class=" (ctg8574_7)" points="299,10 321,40 299,70" fill="rgb(255,255,255)" fill-opacity="1.0" stroke="rgb(0,0,0)" stroke-width="2"  />
			<g>
				<title>PAD_porph (PF04371)
"Porphyromonas-type peptidyl-arginine deiminase"</title>
				<polygon class="PF04371" points="300,28 309,28 317,40 309,52 300,52" stroke-linejoin="round" width="21" height="24" fill="rgb(68,195,113)" stroke="rgb(54,156,90)" stroke-width="1" opacity="0.75" />
			</g>
		</g>
	</g>
</svg>
