<svg version="1.1" baseProfile="full" xmlns="http://www.w3.org/2000/svg" width="559.9333333333333" height="80">
	<g>
		<line x1="10" y1="40.0" x2="549.9333333333333" y2="40.0" style="stroke:rgb(70,70,70); stroke-width:3 "/>
		<g>
			<title> (ctg3486_1)</title>
			<polygon class=" (ctg3486_1)" points="13,40 32,10 32,70" fill="rgb(255,255,255)" fill-opacity="1.0" stroke="rgb(0,0,0)" stroke-width="2"  />
			<g>
				<title>DUF2182 (PF09948)
"Predicted metal-binding integral membrane protein (DUF2182)"</title>
				<polygon class="PF09948" points="17,40 25,28 31,28 31,52 25,52" stroke-linejoin="round" width="18" height="24" fill="rgb(88,205,177)" stroke="rgb(70,164,141)" stroke-width="1" opacity="0.75" />
			</g>
		</g>
		<g>
			<title> (ctg3486_2)</title>
			<polygon class=" (ctg3486_2)" points="36,40 57,10 57,70" fill="rgb(255,255,255)" fill-opacity="1.0" stroke="rgb(0,0,0)" stroke-width="2"  />
			<g>
				<title>DUF1326 (PF07040)
"Protein of unknown function (DUF1326)"</title>
				<polygon class="PF07040" points="40,40 49,28 54,28 54,52 49,52" stroke-linejoin="round" width="17" height="24" fill="rgb(185,64,126)" stroke="rgb(148,51,100)" stroke-width="1" opacity="0.75" />
			</g>
		</g>
		<g>
			<title> (ctg3486_3)</title>
			<polygon class=" (ctg3486_3)" points="58,40 86,10 86,70" fill="rgb(255,255,255)" fill-opacity="1.0" stroke="rgb(0,0,0)" stroke-width="2"  />
			<g>
				<title>DUF4159 (PF13709)
"Domain of unknown function (DUF4159)"</title>
				<polygon class="PF13709" points="62,40 73,28 80,28 80,52 73,52" stroke-linejoin="round" width="22" height="24" fill="rgb(192,178,93)" stroke="rgb(153,142,74)" stroke-width="1" opacity="0.75" />
			</g>
		</g>
		<g>
			<title> (ctg3486_4)</title>
			<polygon class=" (ctg3486_4)" points="148,25 116,25 116,10 86,40 116,70 116,55 148,55" fill="rgb(255,255,255)" fill-opacity="1.0" stroke="rgb(0,0,0)" stroke-width="2"  />
			<g>
				<title>APS_kinase (PF01583)
"Adenylylsulphate kinase"</title>
				<polygon class="PF01583" points="90,40 102,28 103,28 103,52 102,52" stroke-linejoin="round" width="15" height="24" fill="rgb(48,131,188)" stroke="rgb(38,104,150)" stroke-width="1" opacity="0.75" />
			</g>
			<g>
				<title>GTP_EFTU (PF00009)
"Elongation factor Tu GTP binding domain"</title>
				<rect class="PF00009" x="125" y="28" stroke-linejoin="round" width="22" height="24" fill="rgb(196,118,83)" stroke="rgb(156,94,66)" stroke-width="1" opacity="0.75" />
			</g>
		</g>
		<g>
			<title> (ctg3486_5)</title>
			<polygon class=" (ctg3486_5)" points="180,25 180,25 180,10 150,40 180,70 180,55 180,55" fill="rgb(255,255,255)" fill-opacity="1.0" stroke="rgb(0,0,0)" stroke-width="2"  />
			<g>
				<title>PAPS_reduct (PF01507)
"Phosphoadenosine phosphosulfate reductase family"</title>
				<polygon class="PF01507" points="154,40 166,28 174,28 174,52 166,52" stroke-linejoin="round" width="22" height="24" fill="rgb(87,190,105)" stroke="rgb(69,152,83)" stroke-width="1" opacity="0.75" />
			</g>
		</g>
		<g>
			<title> (ctg3486_6)</title>
			<polygon class=" (ctg3486_6)" points="184,25 186,25 186,10 216,40 186,70 186,55 184,55" fill="rgb(255,255,255)" fill-opacity="1.0" stroke="rgb(0,0,0)" stroke-width="2"  />
			<g>
				<title>SQS_PSY (PF00494)
"Squalene/phytoene synthase"</title>
				<polygon class="PF00494" points="184,28 199,28 211,40 199,52 184,52" stroke-linejoin="round" width="28" height="24" fill="rgb(178,91,49)" stroke="rgb(142,72,39)" stroke-width="1" opacity="0.75" />
			</g>
		</g>
		<g>
			<title> (ctg3486_7)</title>
			<polygon class=" (ctg3486_7)" points="218,25 227,25 227,10 257,40 227,70 227,55 218,55" fill="rgb(255,255,255)" fill-opacity="1.0" stroke="rgb(0,0,0)" stroke-width="2"  />
		</g>
		<g>
			<title> (ctg3486_8)</title>
			<polygon class=" (ctg3486_8)" points="262,25 273,25 273,10 303,40 273,70 273,55 262,55" fill="rgb(255,255,255)" fill-opacity="1.0" stroke="rgb(0,0,0)" stroke-width="2"  />
			<g>
				<title>Aminotran_5 (PF00266)
"Aminotransferase class-V"</title>
				<polygon class="PF00266" points="268,28 287,28 299,40 287,52 268,52" stroke-linejoin="round" width="34" height="24" fill="rgb(214,54,122)" stroke="rgb(171,43,97)" stroke-width="1" opacity="0.75" />
			</g>
		</g>
		<g>
			<title> (ctg3486_9)</title>
			<polygon class=" (ctg3486_9)" points="307,25 316,25 316,10 346,40 316,70 316,55 307,55" fill="rgb(255,255,255)" fill-opacity="1.0" stroke="rgb(0,0,0)" stroke-width="2"  />
			<g>
				<title>GCV_T (PF01571)
"Aminomethyltransferase folate-binding domain"</title>
				<polygon class="PF01571" points="308,28 330,28 333,31 333,49 330,52 308,52" stroke-linejoin="round" width="25" height="24" fill="rgb(112,228,161)" stroke="rgb(89,182,128)" stroke-width="1" opacity="0.75" />
			</g>
			<g>
				<title>GCV_T_C (PF08669)
"Glycine cleavage T-protein C-terminal barrel domain"</title>
				<polygon class="PF08669" points="337,35 342,40 337,45" stroke-linejoin="round" width="8" height="24" fill="rgb(184,178,54)" stroke="rgb(147,142,43)" stroke-width="1" opacity="0.75" />
			</g>
		</g>
		<g>
			<title> (ctg3486_10)</title>
			<polygon class=" (ctg3486_10)" points="352,25 375,25 375,10 405,40 375,70 375,55 352,55" fill="rgb(255,255,255)" fill-opacity="1.0" stroke="rgb(0,0,0)" stroke-width="2"  />
			<g>
				<title>Amino_oxidase (PF01593)
"Flavin containing amine oxidoreductase"</title>
				<polygon class="PF01593" points="353,28 389,28 401,40 389,52 353,52" stroke-linejoin="round" width="50" height="24" fill="rgb(184,74,52)" stroke="rgb(147,59,41)" stroke-width="1" opacity="0.75" />
			</g>
		</g>
		<g>
			<title> (ctg3486_11)</title>
			<polygon class=" (ctg3486_11)" points="406,25 428,25 428,10 458,40 428,70 428,55 406,55" fill="rgb(255,255,255)" fill-opacity="1.0" stroke="rgb(0,0,0)" stroke-width="2"  />
			<g>
				<title>NAD_binding_8 (PF13450)
"NAD(P)-binding Rossmann-like domain"</title>
				<rect class="PF13450" x="406" y="28" stroke-linejoin="round" width="5" height="24" fill="rgb(91,180,227)" stroke="rgb(72,144,181)" stroke-width="1" opacity="0.75" />
			</g>
			<g>
				<title>Amino_oxidase (PF01593)
"Flavin containing amine oxidoreductase"</title>
				<polygon class="PF01593" points="422,28 442,28 454,40 442,52 422,52" stroke-linejoin="round" width="35" height="24" fill="rgb(184,74,52)" stroke="rgb(147,59,41)" stroke-width="1" opacity="0.75" />
			</g>
		</g>
		<g>
			<title> (ctg3486_12)</title>
			<polygon class=" (ctg3486_12)" points="459,40 472,10 472,70" fill="rgb(255,255,255)" fill-opacity="1.0" stroke="rgb(0,0,0)" stroke-width="2"  />
			<g>
				<title>N6_N4_Mtase (PF01555)
"DNA methylase"</title>
				<polygon class="PF01555" points="462,40 467,28 472,28 472,52 467,52" stroke-linejoin="round" width="11" height="24" fill="rgb(54,198,162)" stroke="rgb(43,158,129)" stroke-width="1" opacity="0.75" />
			</g>
		</g>
		<g>
			<title> (ctg3486_13)</title>
			<polygon class=" (ctg3486_13)" points="472,40 491,10 491,70" fill="rgb(255,255,255)" fill-opacity="1.0" stroke="rgb(0,0,0)" stroke-width="2"  />
			<g>
				<title>N6_N4_Mtase (PF01555)
"DNA methylase"</title>
				<polygon class="PF01555" points="476,40 483,29 483,51" stroke-linejoin="round" width="10" height="24" fill="rgb(54,198,162)" stroke="rgb(43,158,129)" stroke-width="1" opacity="0.75" />
			</g>
		</g>
		<g>
			<title> (ctg3486_14)</title>
			<polygon class=" (ctg3486_14)" points="492,40 496,10 496,70" fill="rgb(255,255,255)" fill-opacity="1.0" stroke="rgb(0,0,0)" stroke-width="2"  />
		</g>
		<g>
			<title> (ctg3486_15)</title>
			<polygon class=" (ctg3486_15)" points="547,25 536,25 536,10 506,40 536,70 536,55 547,55" fill="rgb(255,255,255)" fill-opacity="1.0" stroke="rgb(0,0,0)" stroke-width="2"  />
		</g>
	</g>
</svg>
