<svg version="1.1" baseProfile="full" xmlns="http://www.w3.org/2000/svg" width="471.6" height="80">
	<g>
		<line x1="10" y1="40.0" x2="461.6" y2="40.0" style="stroke:rgb(70,70,70); stroke-width:3 "/>
		<g>
			<title> (ctg5170_1)</title>
			<polygon class=" (ctg5170_1)" points="10,25 68,25 68,10 98,40 68,70 68,55 10,55" fill="rgb(255,255,255)" fill-opacity="1.0" stroke="rgb(0,0,0)" stroke-width="2"  />
			<g>
				<title>5_3_exonuc_N (PF02739)
"5'-3' exonuclease, N-terminal resolvase-like domain"</title>
				<rect class="PF02739" x="10" y="28" stroke-linejoin="round" width="15" height="24" fill="rgb(118,228,108)" stroke="rgb(94,182,86)" stroke-width="1" opacity="0.75" />
			</g>
			<g>
				<title>5_3_exonuc (PF01367)
"5'-3' exonuclease, C-terminal SAM fold"</title>
				<rect class="PF01367" x="26" y="28" stroke-linejoin="round" width="9" height="24" fill="rgb(81,184,187)" stroke="rgb(64,147,149)" stroke-width="1" opacity="0.75" />
			</g>
			<g>
				<title>DNA_pol_A_exo1 (PF01612)
"3'-5' exonuclease"</title>
				<rect class="PF01612" x="38" y="28" stroke-linejoin="round" width="18" height="24" fill="rgb(222,60,61)" stroke="rgb(177,48,48)" stroke-width="1" opacity="0.75" />
			</g>
			<g>
				<title>DNA_pol_A (PF00476)
"DNA polymerase family A"</title>
				<polygon class="PF00476" points="60,28 82,28 94,40 82,52 60,52" stroke-linejoin="round" width="37" height="24" fill="rgb(170,75,203)" stroke="rgb(136,60,162)" stroke-width="1" opacity="0.75" />
			</g>
		</g>
		<g>
			<title> (ctg5170_2)</title>
			<polygon class=" (ctg5170_2)" points="116,10 132,40 116,70" fill="rgb(255,255,255)" fill-opacity="1.0" stroke="rgb(0,0,0)" stroke-width="2"  />
			<g>
				<title>Response_reg (PF00072)
"Response regulator receiver domain"</title>
				<polygon class="PF00072" points="116,28 122,28 127,37 127,43 122,52 116,52" stroke-linejoin="round" width="11" height="24" fill="rgb(100,107,203)" stroke="rgb(80,85,162)" stroke-width="1" opacity="0.75" />
			</g>
		</g>
		<g>
			<title> (ctg5170_3)</title>
			<polygon class=" (ctg5170_3)" points="134,25 169,25 169,10 199,40 169,70 169,55 134,55" fill="rgb(255,255,255)" fill-opacity="1.0" stroke="rgb(0,0,0)" stroke-width="2"  />
			<g>
				<title>HSP70 (PF00012)
"Hsp70 protein"</title>
				<polygon class="PF00012" points="134,28 183,28 193,38 193,42 183,52 134,52" stroke-linejoin="round" width="59" height="24" fill="rgb(60,173,201)" stroke="rgb(48,138,160)" stroke-width="1" opacity="0.75" />
			</g>
		</g>
		<g>
			<title> (ctg5170_4)</title>
			<polygon class=" (ctg5170_4)" points="209,25 220,25 220,10 250,40 220,70 220,55 209,55" fill="rgb(255,255,255)" fill-opacity="1.0" stroke="rgb(0,0,0)" stroke-width="2"  />
			<g>
				<title>GFO_IDH_MocA (PF01408)
"Oxidoreductase family, NAD-binding Rossmann fold"</title>
				<rect class="PF01408" x="209" y="28" stroke-linejoin="round" width="11" height="24" fill="rgb(76,117,190)" stroke="rgb(60,93,152)" stroke-width="1" opacity="0.75" />
			</g>
		</g>
		<g>
			<title> (ctg5170_5)</title>
			<polygon class=" (ctg5170_5)" points="251,40 273,10 273,70" fill="rgb(255,255,255)" fill-opacity="1.0" stroke="rgb(0,0,0)" stroke-width="2"  />
			<g>
				<title>Glycos_transf_2 (PF00535)
"Glycosyl transferase family 2"</title>
				<polygon class="PF00535" points="256,39 264,28 272,28 272,52 264,52 256,41" stroke-linejoin="round" width="16" height="24" fill="rgb(224,122,96)" stroke="rgb(179,97,76)" stroke-width="1" opacity="0.75" />
			</g>
		</g>
		<g>
			<title> (ctg5170_6)</title>
			<polygon class=" (ctg5170_6)" points="333,25 306,25 306,10 276,40 306,70 306,55 333,55" fill="rgb(255,255,255)" fill-opacity="1.0" stroke="rgb(0,0,0)" stroke-width="2"  />
			<g>
				<title>SQHop_cyclase_C (PF13243)
"Squalene-hopene cyclase C-terminal domain"</title>
				<polygon class="PF13243" points="280,40 292,28 293,28 293,52 292,52" stroke-linejoin="round" width="17" height="24" fill="rgb(191,58,201)" stroke="rgb(152,46,160)" stroke-width="1" opacity="0.75" />
			</g>
			<g>
				<title>SQHop_cyclase_C (PF13243)
"Squalene-hopene cyclase C-terminal domain"</title>
				<rect class="PF13243" x="293" y="28" stroke-linejoin="round" width="14" height="24" fill="rgb(191,58,201)" stroke="rgb(152,46,160)" stroke-width="1" opacity="0.75" />
			</g>
			<g>
				<title>Prenyltrans (PF00432)
"Prenyltransferase and squalene oxidase repeat"</title>
				<rect class="PF00432" x="324" y="28" stroke-linejoin="round" width="3" height="24" fill="rgb(218,215,79)" stroke="rgb(174,172,63)" stroke-width="1" opacity="0.75" />
			</g>
		</g>
		<g>
			<title> (ctg5170_7)</title>
			<polygon class=" (ctg5170_7)" points="391,25 367,25 367,10 337,40 367,70 367,55 391,55" fill="rgb(255,255,255)" fill-opacity="1.0" stroke="rgb(0,0,0)" stroke-width="2"  />
			<g>
				<title>AI-2E_transport (PF01594)
"AI-2E family transporter"</title>
				<polygon class="PF01594" points="341,40 353,28 365,28 365,52 353,52" stroke-linejoin="round" width="27" height="24" fill="rgb(226,96,145)" stroke="rgb(180,76,116)" stroke-width="1" opacity="0.75" />
			</g>
			<g>
				<title>AI-2E_transport (PF01594)
"AI-2E family transporter"</title>
				<rect class="PF01594" x="373" y="28" stroke-linejoin="round" width="9" height="24" fill="rgb(226,96,145)" stroke="rgb(180,76,116)" stroke-width="1" opacity="0.75" />
			</g>
		</g>
		<g>
			<title> (ctg5170_8)</title>
			<polygon class=" (ctg5170_8)" points="391,40 413,10 413,70" fill="rgb(255,255,255)" fill-opacity="1.0" stroke="rgb(0,0,0)" stroke-width="2"  />
			<g>
				<title>cNMP_binding (PF00027)
"Cyclic nucleotide-binding domain"</title>
				<polygon class="PF00027" points="399,35 404,28 407,28 407,52 404,52 399,45" stroke-linejoin="round" width="8" height="24" fill="rgb(138,95,204)" stroke="rgb(110,76,163)" stroke-width="1" opacity="0.75" />
			</g>
		</g>
		<g>
			<title> (ctg5170_9)</title>
			<polygon class=" (ctg5170_9)" points="437,10 448,40 437,70" fill="rgb(255,255,255)" fill-opacity="1.0" stroke="rgb(0,0,0)" stroke-width="2"  />
			<g>
				<title>STAS (PF01740)
"STAS domain"</title>
				<polygon class="PF01740" points="437,28 440,28 445,40 440,52 437,52" stroke-linejoin="round" width="10" height="24" fill="rgb(219,58,116)" stroke="rgb(175,46,92)" stroke-width="1" opacity="0.75" />
			</g>
		</g>
		<g>
			<title> (ctg5170_10)</title>
			<polygon class=" (ctg5170_10)" points="457,10 460,40 457,70" fill="rgb(255,255,255)" fill-opacity="1.0" stroke="rgb(0,0,0)" stroke-width="2"  />
		</g>
	</g>
</svg>
