<svg version="1.1" baseProfile="full" xmlns="http://www.w3.org/2000/svg" width="784.1" height="80">
	<g>
		<line x1="10" y1="40.0" x2="774.1" y2="40.0" style="stroke:rgb(70,70,70); stroke-width:3 "/>
		<g>
			<title> (ctg799_1)</title>
			<polygon class=" (ctg799_1)" points="10,10 28,40 10,70" fill="rgb(255,255,255)" fill-opacity="1.0" stroke="rgb(0,0,0)" stroke-width="2"  />
			<g>
				<title>Succ_DH_flav_C (PF02910)
"Fumarate reductase flavoprotein C-term"</title>
				<polygon class="PF02910" points="22,36 24,40 22,44" stroke-linejoin="round" width="6" height="24" fill="rgb(140,80,199)" stroke="rgb(112,64,159)" stroke-width="1" opacity="0.75" />
			</g>
		</g>
		<g>
			<title> (ctg799_2)</title>
			<polygon class=" (ctg799_2)" points="28,40 50,10 50,70" fill="rgb(255,255,255)" fill-opacity="1.0" stroke="rgb(0,0,0)" stroke-width="2"  />
			<g>
				<title>DUF3179 (PF11376)
"Protein of unknown function (DUF3179)"</title>
				<polygon class="PF11376" points="32,40 41,28 49,28 49,52 41,52" stroke-linejoin="round" width="21" height="24" fill="rgb(221,178,92)" stroke="rgb(176,142,73)" stroke-width="1" opacity="0.75" />
			</g>
		</g>
		<g>
			<title> (ctg799_3)</title>
			<polygon class=" (ctg799_3)" points="54,40 79,10 79,70" fill="rgb(255,255,255)" fill-opacity="1.0" stroke="rgb(0,0,0)" stroke-width="2"  />
			<g>
				<title>DUF3179 (PF11376)
"Protein of unknown function (DUF3179)"</title>
				<polygon class="PF11376" points="58,40 60,38 60,42" stroke-linejoin="round" width="6" height="24" fill="rgb(221,178,92)" stroke="rgb(176,142,73)" stroke-width="1" opacity="0.75" />
			</g>
		</g>
		<g>
			<title> (ctg799_4)</title>
			<polygon class=" (ctg799_4)" points="81,40 94,10 94,70" fill="rgb(255,255,255)" fill-opacity="1.0" stroke="rgb(0,0,0)" stroke-width="2"  />
		</g>
		<g>
			<title> (ctg799_5)</title>
			<polygon class=" (ctg799_5)" points="96,40 105,10 105,70" fill="rgb(255,255,255)" fill-opacity="1.0" stroke="rgb(0,0,0)" stroke-width="2"  />
		</g>
		<g>
			<title> (ctg799_6)</title>
			<polygon class=" (ctg799_6)" points="145,25 140,25 140,10 110,40 140,70 140,55 145,55" fill="rgb(255,255,255)" fill-opacity="1.0" stroke="rgb(0,0,0)" stroke-width="2"  />
			<g>
				<title>Iso_dh (PF00180)
"Isocitrate/isopropylmalate dehydrogenase"</title>
				<polygon class="PF00180" points="114,40 126,28 144,28 144,52 126,52" stroke-linejoin="round" width="34" height="24" fill="rgb(109,54,206)" stroke="rgb(87,43,164)" stroke-width="1" opacity="0.75" />
			</g>
		</g>
		<g>
			<title> (ctg799_7)</title>
			<polygon class=" (ctg799_7)" points="144,40 154,10 154,70" fill="rgb(255,255,255)" fill-opacity="1.0" stroke="rgb(0,0,0)" stroke-width="2"  />
		</g>
		<g>
			<title> (ctg799_8)</title>
			<polygon class=" (ctg799_8)" points="155,25 162,25 162,10 192,40 162,70 162,55 155,55" fill="rgb(255,255,255)" fill-opacity="1.0" stroke="rgb(0,0,0)" stroke-width="2"  />
			<g>
				<title>polyprenyl_synt (PF00348)
"Polyprenyl synthetase"</title>
				<polygon class="PF00348" points="162,28 175,28 186,39 186,41 175,52 162,52" stroke-linejoin="round" width="24" height="24" fill="rgb(61,206,65)" stroke="rgb(48,164,52)" stroke-width="1" opacity="0.75" />
			</g>
		</g>
		<g>
			<title> (ctg799_9)</title>
			<polygon class=" (ctg799_9)" points="192,25 199,25 199,10 229,40 199,70 199,55 192,55" fill="rgb(255,255,255)" fill-opacity="1.0" stroke="rgb(0,0,0)" stroke-width="2"  />
			<g>
				<title>Radical_SAM (PF04055)
"Radical SAM superfamily"</title>
				<rect class="PF04055" x="197" y="28" stroke-linejoin="round" width="15" height="24" fill="rgb(149,56,222)" stroke="rgb(119,44,177)" stroke-width="1" opacity="0.75" />
			</g>
			<g>
				<title>DUF3463 (PF11946)
"Domain of unknown function (DUF3463)"</title>
				<polygon class="PF11946" points="214,30 224,40 214,50" stroke-linejoin="round" width="13" height="24" fill="rgb(193,51,57)" stroke="rgb(154,40,45)" stroke-width="1" opacity="0.75" />
			</g>
		</g>
		<g>
			<title> (ctg799_10)</title>
			<polygon class=" (ctg799_10)" points="233,10 256,40 233,70" fill="rgb(255,255,255)" fill-opacity="1.0" stroke="rgb(0,0,0)" stroke-width="2"  />
			<g>
				<title>PNP_UDP_1 (PF01048)
"Phosphorylase superfamily"</title>
				<polygon class="PF01048" points="233,28 243,28 250,37 250,43 243,52 233,52" stroke-linejoin="round" width="17" height="24" fill="rgb(75,186,148)" stroke="rgb(60,148,118)" stroke-width="1" opacity="0.75" />
			</g>
		</g>
		<g>
			<title> (ctg799_11)</title>
			<polygon class=" (ctg799_11)" points="256,25 259,25 259,10 289,40 259,70 259,55 256,55" fill="rgb(255,255,255)" fill-opacity="1.0" stroke="rgb(0,0,0)" stroke-width="2"  />
			<g>
				<title>Epimerase (PF01370)
"NAD dependent epimerase/dehydratase family"</title>
				<polygon class="PF01370" points="256,28 273,28 279,34 279,46 273,52 256,52" stroke-linejoin="round" width="23" height="24" fill="rgb(98,102,214)" stroke="rgb(78,81,171)" stroke-width="1" opacity="0.75" />
			</g>
		</g>
		<g>
			<title> (ctg799_12)</title>
			<polygon class=" (ctg799_12)" points="289,25 329,25 329,10 359,40 329,70 329,55 289,55" fill="rgb(255,255,255)" fill-opacity="1.0" stroke="rgb(0,0,0)" stroke-width="2"  />
			<g>
				<title>SQHop_cyclase_N (PF13249)
"Squalene-hopene cyclase N-terminal domain"</title>
				<rect class="PF13249" x="293" y="28" stroke-linejoin="round" width="29" height="24" fill="rgb(88,190,89)" stroke="rgb(70,152,71)" stroke-width="1" opacity="0.75" />
			</g>
			<g>
				<title>SQHop_cyclase_C (PF13243)
"Squalene-hopene cyclase C-terminal domain"</title>
				<polygon class="PF13243" points="322,28 342,28 352,38 352,42 342,52 322,52" stroke-linejoin="round" width="30" height="24" fill="rgb(191,58,201)" stroke="rgb(152,46,160)" stroke-width="1" opacity="0.75" />
			</g>
		</g>
		<g>
			<title> (ctg799_13)</title>
			<polygon class=" (ctg799_13)" points="362,10 376,40 362,70" fill="rgb(255,255,255)" fill-opacity="1.0" stroke="rgb(0,0,0)" stroke-width="2"  />
			<g>
				<title>UPF0047 (PF01894)
"Uncharacterised protein family UPF0047"</title>
				<polygon class="PF01894" points="364,28 367,28 373,40 367,52 364,52" stroke-linejoin="round" width="12" height="24" fill="rgb(101,99,228)" stroke="rgb(80,79,182)" stroke-width="1" opacity="0.75" />
			</g>
		</g>
		<g>
			<title> (ctg799_14)</title>
			<polygon class=" (ctg799_14)" points="376,40 382,10 382,70" fill="rgb(255,255,255)" fill-opacity="1.0" stroke="rgb(0,0,0)" stroke-width="2"  />
		</g>
		<g>
			<title> (ctg799_15)</title>
			<polygon class=" (ctg799_15)" points="383,10 409,40 383,70" fill="rgb(255,255,255)" fill-opacity="1.0" stroke="rgb(0,0,0)" stroke-width="2"  />
			<g>
				<title>SQS_PSY (PF00494)
"Squalene/phytoene synthase"</title>
				<polygon class="PF00494" points="383,28 394,28 405,40 394,52 383,52" stroke-linejoin="round" width="24" height="24" fill="rgb(178,91,49)" stroke="rgb(142,72,39)" stroke-width="1" opacity="0.75" />
			</g>
		</g>
		<g>
			<title> (ctg799_16)</title>
			<polygon class=" (ctg799_16)" points="410,10 439,40 410,70" fill="rgb(255,255,255)" fill-opacity="1.0" stroke="rgb(0,0,0)" stroke-width="2"  />
			<g>
				<title>SQS_PSY (PF00494)
"Squalene/phytoene synthase"</title>
				<polygon class="PF00494" points="412,28 423,28 435,40 423,52 412,52" stroke-linejoin="round" width="25" height="24" fill="rgb(178,91,49)" stroke="rgb(142,72,39)" stroke-width="1" opacity="0.75" />
			</g>
		</g>
		<g>
			<title> (ctg799_17)</title>
			<polygon class=" (ctg799_17)" points="440,40 448,10 448,70" fill="rgb(255,255,255)" fill-opacity="1.0" stroke="rgb(0,0,0)" stroke-width="2"  />
		</g>
		<g>
			<title> (ctg799_18)</title>
			<polygon class=" (ctg799_18)" points="448,40 454,10 454,70" fill="rgb(255,255,255)" fill-opacity="1.0" stroke="rgb(0,0,0)" stroke-width="2"  />
		</g>
		<g>
			<title> (ctg799_19)</title>
			<polygon class=" (ctg799_19)" points="457,40 466,10 466,70" fill="rgb(255,255,255)" fill-opacity="1.0" stroke="rgb(0,0,0)" stroke-width="2"  />
		</g>
		<g>
			<title> (ctg799_20)</title>
			<polygon class=" (ctg799_20)" points="467,10 486,40 467,70" fill="rgb(255,255,255)" fill-opacity="1.0" stroke="rgb(0,0,0)" stroke-width="2"  />
			<g>
				<title>Amino_oxidase (PF01593)
"Flavin containing amine oxidoreductase"</title>
				<polygon class="PF01593" points="467,28 475,28 483,40 475,52 467,52" stroke-linejoin="round" width="17" height="24" fill="rgb(184,74,52)" stroke="rgb(147,59,41)" stroke-width="1" opacity="0.75" />
			</g>
		</g>
		<g>
			<title> (ctg799_21)</title>
			<polygon class=" (ctg799_21)" points="486,10 508,40 486,70" fill="rgb(255,255,255)" fill-opacity="1.0" stroke="rgb(0,0,0)" stroke-width="2"  />
			<g>
				<title>Aldolase_II (PF00596)
"Class II Aldolase and Adducin N-terminal domain"</title>
				<polygon class="PF00596" points="487,28 496,28 504,40 496,52 487,52" stroke-linejoin="round" width="18" height="24" fill="rgb(208,130,90)" stroke="rgb(166,104,72)" stroke-width="1" opacity="0.75" />
			</g>
		</g>
		<g>
			<title> (ctg799_22)</title>
			<polygon class=" (ctg799_22)" points="510,25 514,25 514,10 544,40 514,70 514,55 510,55" fill="rgb(255,255,255)" fill-opacity="1.0" stroke="rgb(0,0,0)" stroke-width="2"  />
		</g>
		<g>
			<title> (ctg799_23)</title>
			<polygon class=" (ctg799_23)" points="545,25 546,25 546,10 576,40 546,70 546,55 545,55" fill="rgb(255,255,255)" fill-opacity="1.0" stroke="rgb(0,0,0)" stroke-width="2"  />
			<g>
				<title>IU_nuc_hydro (PF01156)
"Inosine-uridine preferring nucleoside hydrolase"</title>
				<polygon class="PF01156" points="545,28 560,28 572,40 560,52 545,52" stroke-linejoin="round" width="29" height="24" fill="rgb(156,80,217)" stroke="rgb(124,64,173)" stroke-width="1" opacity="0.75" />
			</g>
		</g>
		<g>
			<title> (ctg799_24)</title>
			<polygon class=" (ctg799_24)" points="577,25 594,25 594,10 624,40 594,70 594,55 577,55" fill="rgb(255,255,255)" fill-opacity="1.0" stroke="rgb(0,0,0)" stroke-width="2"  />
			<g>
				<title>Phosphodiest (PF01663)
"Type I phosphodiesterase / nucleotide pyrophosphatase"</title>
				<polygon class="PF01663" points="577,28 608,28 611,31 611,49 608,52 577,52" stroke-linejoin="round" width="34" height="24" fill="rgb(178,65,158)" stroke="rgb(142,52,126)" stroke-width="1" opacity="0.75" />
			</g>
		</g>
		<g>
			<title> (ctg799_25)</title>
			<polygon class=" (ctg799_25)" points="645,25 658,25 658,10 688,40 658,70 658,55 645,55" fill="rgb(255,255,255)" fill-opacity="1.0" stroke="rgb(0,0,0)" stroke-width="2"  />
			<g>
				<title>UPF0004 (PF00919)
"Uncharacterized protein family UPF0004"</title>
				<rect class="PF00919" x="645" y="28" stroke-linejoin="round" width="9" height="24" fill="rgb(97,207,199)" stroke="rgb(77,165,159)" stroke-width="1" opacity="0.75" />
			</g>
			<g>
				<title>Radical_SAM (PF04055)
"Radical SAM superfamily"</title>
				<polygon class="PF04055" points="658,28 672,28 675,31 675,49 672,52 658,52" stroke-linejoin="round" width="17" height="24" fill="rgb(149,56,222)" stroke="rgb(119,44,177)" stroke-width="1" opacity="0.75" />
			</g>
		</g>
		<g>
			<title> (ctg799_26)</title>
			<polygon class=" (ctg799_26)" points="689,25 699,25 699,10 729,40 699,70 699,55 689,55" fill="rgb(255,255,255)" fill-opacity="1.0" stroke="rgb(0,0,0)" stroke-width="2"  />
			<g>
				<title>NadA (PF02445)
"Quinolinate synthetase A protein"</title>
				<polygon class="PF02445" points="694,28 713,28 725,40 713,52 694,52" stroke-linejoin="round" width="34" height="24" fill="rgb(169,224,98)" stroke="rgb(135,179,78)" stroke-width="1" opacity="0.75" />
			</g>
		</g>
		<g>
			<title> (ctg799_27)</title>
			<polygon class=" (ctg799_27)" points="733,40 739,10 739,70" fill="rgb(255,255,255)" fill-opacity="1.0" stroke="rgb(0,0,0)" stroke-width="2"  />
		</g>
		<g>
			<title> (ctg799_28)</title>
			<polygon class=" (ctg799_28)" points="739,40 762,10 762,70" fill="rgb(255,255,255)" fill-opacity="1.0" stroke="rgb(0,0,0)" stroke-width="2"  />
			<g>
				<title>Chlor_dismutase (PF06778)
"Chlorite dismutase"</title>
				<polygon class="PF06778" points="743,40 752,28 759,28 759,52 752,52" stroke-linejoin="round" width="19" height="24" fill="rgb(179,57,142)" stroke="rgb(143,45,113)" stroke-width="1" opacity="0.75" />
			</g>
		</g>
	</g>
</svg>
