<svg version="1.1" baseProfile="full" xmlns="http://www.w3.org/2000/svg" width="389.26666666666665" height="80">
	<g>
		<line x1="10" y1="40.0" x2="379.26666666666665" y2="40.0" style="stroke:rgb(70,70,70); stroke-width:3 "/>
		<g>
			<title> (ctg6837_1)</title>
			<polygon class=" (ctg6837_1)" points="184,25 40,25 40,10 10,40 40,70 40,55 184,55" fill="rgb(255,255,255)" fill-opacity="1.0" stroke="rgb(0,0,0)" stroke-width="2"  />
			<g>
				<title>Methyltransf_12 (PF08242)
"Methyltransferase domain"</title>
				<rect class="PF08242" x="28" y="28" stroke-linejoin="round" width="10" height="24" fill="rgb(187,59,115)" stroke="rgb(149,47,92)" stroke-width="1" opacity="0.75" />
			</g>
			<g>
				<title>PS-DH (PF14765)
"Polyketide synthase dehydratase"</title>
				<rect class="PF14765" x="62" y="28" stroke-linejoin="round" width="29" height="24" fill="rgb(173,56,182)" stroke="rgb(138,44,145)" stroke-width="1" opacity="0.75" />
			</g>
			<g>
				<title>Acyl_transf_1 (PF00698)
"Acyl transferase domain"</title>
				<rect class="PF00698" x="101" y="28" stroke-linejoin="round" width="28" height="24" fill="rgb(59,176,209)" stroke="rgb(47,140,167)" stroke-width="1" opacity="0.75" />
			</g>
			<g>
				<title>KAsynt_C_assoc (PF16197)
"Ketoacyl-synthetase C-terminal extension"</title>
				<rect class="PF16197" x="134" y="28" stroke-linejoin="round" width="13" height="24" fill="rgb(240,150,172)" stroke="rgb(192,120,137)" stroke-width="1" opacity="0.75" />
			</g>
			<g>
				<title>Ketoacyl-synt_C (PF02801)
"Beta-ketoacyl synthase, C-terminal domain"</title>
				<rect class="PF02801" x="147" y="28" stroke-linejoin="round" width="11" height="24" fill="rgb(215,78,102)" stroke="rgb(172,62,81)" stroke-width="1" opacity="0.75" />
			</g>
			<g>
				<title>ketoacyl-synt (PF00109)
"Beta-ketoacyl synthase, N-terminal domain"</title>
				<rect class="PF00109" x="160" y="28" stroke-linejoin="round" width="24" height="24" fill="rgb(112,116,228)" stroke="rgb(89,92,182)" stroke-width="1" opacity="0.75" />
			</g>
		</g>
		<g>
			<title> (ctg6837_2)</title>
			<polygon class=" (ctg6837_2)" points="228,25 223,25 223,10 193,40 223,70 223,55 228,55" fill="rgb(255,255,255)" fill-opacity="1.0" stroke="rgb(0,0,0)" stroke-width="2"  />
			<g>
				<title>Iso_dh (PF00180)
"Isocitrate/isopropylmalate dehydrogenase"</title>
				<polygon class="PF00180" points="197,40 209,28 227,28 227,52 209,52" stroke-linejoin="round" width="34" height="24" fill="rgb(109,54,206)" stroke="rgb(87,43,164)" stroke-width="1" opacity="0.75" />
			</g>
		</g>
		<g>
			<title> (ctg6837_3)</title>
			<polygon class=" (ctg6837_3)" points="229,40 240,10 240,70" fill="rgb(255,255,255)" fill-opacity="1.0" stroke="rgb(0,0,0)" stroke-width="2"  />
			<g>
				<title>HTH_3 (PF01381)
"Helix-turn-helix"</title>
				<polygon class="PF01381" points="233,37 237,28 238,28 238,52 237,52 233,43" stroke-linejoin="round" width="5" height="24" fill="rgb(105,79,202)" stroke="rgb(83,63,161)" stroke-width="1" opacity="0.75" />
			</g>
		</g>
		<g>
			<title> (ctg6837_4)</title>
			<polygon class=" (ctg6837_4)" points="294,25 274,25 274,10 244,40 274,70 274,55 294,55" fill="rgb(255,255,255)" fill-opacity="1.0" stroke="rgb(0,0,0)" stroke-width="2"  />
			<g>
				<title>LeuA_dimer (PF08502)
"LeuA allosteric (dimerisation) domain"</title>
				<polygon class="PF08502" points="248,40 257,31 257,49" stroke-linejoin="round" width="13" height="24" fill="rgb(182,95,71)" stroke="rgb(145,76,56)" stroke-width="1" opacity="0.75" />
			</g>
			<g>
				<title>HMGL-like (PF00682)
"HMGL-like"</title>
				<rect class="PF00682" x="267" y="28" stroke-linejoin="round" width="27" height="24" fill="rgb(84,228,141)" stroke="rgb(67,182,112)" stroke-width="1" opacity="0.75" />
			</g>
		</g>
		<g>
			<title> (ctg6837_5)</title>
			<polygon class=" (ctg6837_5)" points="332,25 329,25 329,10 299,40 329,70 329,55 332,55" fill="rgb(255,255,255)" fill-opacity="1.0" stroke="rgb(0,0,0)" stroke-width="2"  />
			<g>
				<title>IlvC (PF01450)
"Acetohydroxy acid isomeroreductase, catalytic domain"</title>
				<polygon class="PF01450" points="303,40 313,30 313,50" stroke-linejoin="round" width="14" height="24" fill="rgb(54,198,169)" stroke="rgb(43,158,135)" stroke-width="1" opacity="0.75" />
			</g>
			<g>
				<title>IlvN (PF07991)
"Acetohydroxy acid isomeroreductase, NADPH-binding domain"</title>
				<polygon class="PF07991" points="314,29 315,28 330,28 330,52 315,52 314,51" stroke-linejoin="round" width="16" height="24" fill="rgb(108,60,227)" stroke="rgb(86,48,181)" stroke-width="1" opacity="0.75" />
			</g>
		</g>
		<g>
			<title> (ctg6837_6)</title>
			<polygon class=" (ctg6837_6)" points="333,40 350,10 350,70" fill="rgb(255,255,255)" fill-opacity="1.0" stroke="rgb(0,0,0)" stroke-width="2"  />
			<g>
				<title>ALS_ss_C (PF10369)
"Small subunit of acetolactate synthase"</title>
				<polygon class="PF10369" points="336,40 341,31 341,49" stroke-linejoin="round" width="7" height="24" fill="rgb(93,227,61)" stroke="rgb(74,181,48)" stroke-width="1" opacity="0.75" />
			</g>
			<g>
				<title>ACT_5 (PF13710)
"ACT domain"</title>
				<polygon class="PF13710" points="342,30 343,28 348,28 348,52 343,52 342,50" stroke-linejoin="round" width="6" height="24" fill="rgb(52,188,189)" stroke="rgb(41,150,151)" stroke-width="1" opacity="0.75" />
			</g>
		</g>
		<g>
			<title> (ctg6837_7)</title>
			<polygon class=" (ctg6837_7)" points="351,40 378,10 378,70" fill="rgb(255,255,255)" fill-opacity="1.0" stroke="rgb(0,0,0)" stroke-width="2"  />
			<g>
				<title>TPP_enzyme_C (PF02775)
"Thiamine pyrophosphate enzyme, C-terminal TPP binding domain"</title>
				<polygon class="PF02775" points="355,40 366,28 369,28 369,52 366,52" stroke-linejoin="round" width="15" height="24" fill="rgb(156,179,45)" stroke="rgb(124,143,36)" stroke-width="1" opacity="0.75" />
			</g>
			<g>
				<title>TPP_enzyme_M (PF00205)
"Thiamine pyrophosphate enzyme, central domain"</title>
				<rect class="PF00205" x="375" y="28" stroke-linejoin="round" width="3" height="24" fill="rgb(149,194,69)" stroke="rgb(119,155,55)" stroke-width="1" opacity="0.75" />
			</g>
		</g>
	</g>
</svg>
