<svg version="1.1" baseProfile="full" xmlns="http://www.w3.org/2000/svg" width="421.6333333333333" height="80">
	<g>
		<line x1="10" y1="40.0" x2="411.6333333333333" y2="40.0" style="stroke:rgb(70,70,70); stroke-width:3 "/>
		<g>
			<title> (ctg6087_1)</title>
			<polygon class=" (ctg6087_1)" points="10,10 12,40 10,70" fill="rgb(255,255,255)" fill-opacity="1.0" stroke="rgb(0,0,0)" stroke-width="2"  />
		</g>
		<g>
			<title> (ctg6087_2)</title>
			<polygon class=" (ctg6087_2)" points="14,25 19,25 19,10 49,40 19,70 19,55 14,55" fill="rgb(255,255,255)" fill-opacity="1.0" stroke="rgb(0,0,0)" stroke-width="2"  />
			<g>
				<title>Aldedh (PF00171)
"Aldehyde dehydrogenase family"</title>
				<polygon class="PF00171" points="14,28 33,28 45,40 33,52 14,52" stroke-linejoin="round" width="35" height="24" fill="rgb(105,213,139)" stroke="rgb(84,170,111)" stroke-width="1" opacity="0.75" />
			</g>
		</g>
		<g>
			<title> (ctg6087_3)</title>
			<polygon class=" (ctg6087_3)" points="60,25 61,25 61,10 91,40 61,70 61,55 60,55" fill="rgb(255,255,255)" fill-opacity="1.0" stroke="rgb(0,0,0)" stroke-width="2"  />
			<g>
				<title>SQS_PSY (PF00494)
"Squalene/phytoene synthase"</title>
				<polygon class="PF00494" points="63,28 75,28 87,40 75,52 63,52" stroke-linejoin="round" width="25" height="24" fill="rgb(178,91,49)" stroke="rgb(142,72,39)" stroke-width="1" opacity="0.75" />
			</g>
		</g>
		<g>
			<title> (ctg6087_4)</title>
			<polygon class=" (ctg6087_4)" points="91,10 120,40 91,70" fill="rgb(255,255,255)" fill-opacity="1.0" stroke="rgb(0,0,0)" stroke-width="2"  />
			<g>
				<title>SQS_PSY (PF00494)
"Squalene/phytoene synthase"</title>
				<polygon class="PF00494" points="92,28 104,28 116,40 104,52 92,52" stroke-linejoin="round" width="26" height="24" fill="rgb(178,91,49)" stroke="rgb(142,72,39)" stroke-width="1" opacity="0.75" />
			</g>
		</g>
		<g>
			<title> (ctg6087_5)</title>
			<polygon class=" (ctg6087_5)" points="120,25 136,25 136,10 166,40 136,70 136,55 120,55" fill="rgb(255,255,255)" fill-opacity="1.0" stroke="rgb(0,0,0)" stroke-width="2"  />
			<g>
				<title>Amino_oxidase (PF01593)
"Flavin containing amine oxidoreductase"</title>
				<polygon class="PF01593" points="121,28 150,28 162,40 150,52 121,52" stroke-linejoin="round" width="42" height="24" fill="rgb(184,74,52)" stroke="rgb(147,59,41)" stroke-width="1" opacity="0.75" />
			</g>
		</g>
		<g>
			<title> (ctg6087_6)</title>
			<polygon class=" (ctg6087_6)" points="166,25 169,25 169,10 199,40 169,70 169,55 166,55" fill="rgb(255,255,255)" fill-opacity="1.0" stroke="rgb(0,0,0)" stroke-width="2"  />
			<g>
				<title>polyprenyl_synt (PF00348)
"Polyprenyl synthetase"</title>
				<polygon class="PF00348" points="170,28 183,28 194,39 194,41 183,52 170,52" stroke-linejoin="round" width="24" height="24" fill="rgb(61,206,65)" stroke="rgb(48,164,52)" stroke-width="1" opacity="0.75" />
			</g>
		</g>
		<g>
			<title> (ctg6087_7)</title>
			<polygon class=" (ctg6087_7)" points="205,25 209,25 209,10 239,40 209,70 209,55 205,55" fill="rgb(255,255,255)" fill-opacity="1.0" stroke="rgb(0,0,0)" stroke-width="2"  />
			<g>
				<title>ABC_tran (PF00005)
"ABC transporter"</title>
				<rect class="PF00005" x="206" y="28" stroke-linejoin="round" width="14" height="24" fill="rgb(129,201,63)" stroke="rgb(103,160,50)" stroke-width="1" opacity="0.75" />
			</g>
			<g>
				<title>TOBE_2 (PF08402)
"TOBE domain"</title>
				<polygon class="PF08402" points="231,37 234,40 231,43" stroke-linejoin="round" width="6" height="24" fill="rgb(70,123,193)" stroke="rgb(56,98,154)" stroke-width="1" opacity="0.75" />
			</g>
		</g>
		<g>
			<title> (ctg6087_8)</title>
			<polygon class=" (ctg6087_8)" points="247,25 256,25 256,10 286,40 256,70 256,55 247,55" fill="rgb(255,255,255)" fill-opacity="1.0" stroke="rgb(0,0,0)" stroke-width="2"  />
			<g>
				<title>LYTB (PF02401)
"LytB protein"</title>
				<polygon class="PF02401" points="248,28 270,28 275,33 275,47 270,52 248,52" stroke-linejoin="round" width="27" height="24" fill="rgb(155,62,193)" stroke="rgb(124,49,154)" stroke-width="1" opacity="0.75" />
			</g>
		</g>
		<g>
			<title> (ctg6087_9)</title>
			<polygon class=" (ctg6087_9)" points="323,25 314,25 314,10 284,40 314,70 314,55 323,55" fill="rgb(255,255,255)" fill-opacity="1.0" stroke="rgb(0,0,0)" stroke-width="2"  />
			<g>
				<title>DUF2236 (PF09995)
"Uncharacterized protein conserved in bacteria (DUF2236)"</title>
				<polygon class="PF09995" points="288,40 300,28 313,28 313,52 300,52 288,40" stroke-linejoin="round" width="25" height="24" fill="rgb(194,179,92)" stroke="rgb(155,143,73)" stroke-width="1" opacity="0.75" />
			</g>
		</g>
		<g>
			<title> (ctg6087_10)</title>
			<polygon class=" (ctg6087_10)" points="397,25 353,25 353,10 323,40 353,70 353,55 397,55" fill="rgb(255,255,255)" fill-opacity="1.0" stroke="rgb(0,0,0)" stroke-width="2"  />
			<g>
				<title>MMPL (PF03176)
"MMPL family"</title>
				<polygon class="PF03176" points="327,40 339,28 355,28 355,52 339,52" stroke-linejoin="round" width="31" height="24" fill="rgb(228,109,193)" stroke="rgb(182,87,154)" stroke-width="1" opacity="0.75" />
			</g>
			<g>
				<title>MMPL (PF03176)
"MMPL family"</title>
				<rect class="PF03176" x="359" y="28" stroke-linejoin="round" width="33" height="24" fill="rgb(228,109,193)" stroke="rgb(182,87,154)" stroke-width="1" opacity="0.75" />
			</g>
		</g>
		<g>
			<title> (ctg6087_11)</title>
			<polygon class=" (ctg6087_11)" points="406,40 411,10 411,70" fill="rgb(255,255,255)" fill-opacity="1.0" stroke="rgb(0,0,0)" stroke-width="2"  />
			<g>
				<title>PEPcase (PF00311)
"Phosphoenolpyruvate carboxylase"</title>
				<polygon class="PF00311" points="409,40 411,28 411,28 411,52 411,52" stroke-linejoin="round" width="5" height="24" fill="rgb(124,203,60)" stroke="rgb(99,162,47)" stroke-width="1" opacity="0.75" />
			</g>
		</g>
	</g>
</svg>
