<svg version="1.1" baseProfile="full" xmlns="http://www.w3.org/2000/svg" width="1093.6" height="80">
	<g>
		<line x1="10" y1="40.0" x2="1083.6" y2="40.0" style="stroke:rgb(70,70,70); stroke-width:3 "/>
		<g>
			<title> (ctg1388_1)</title>
			<polygon class=" (ctg1388_1)" points="10,10 39,40 10,70" fill="rgb(255,255,255)" fill-opacity="1.0" stroke="rgb(0,0,0)" stroke-width="2"  />
			<g>
				<title>TPP_enzyme_C (PF02775)
"Thiamine pyrophosphate enzyme, C-terminal TPP binding domain"</title>
				<polygon class="PF02775" points="23,28 23,28 35,40 23,52 23,52" stroke-linejoin="round" width="15" height="24" fill="rgb(156,179,45)" stroke="rgb(124,143,36)" stroke-width="1" opacity="0.75" />
			</g>
		</g>
		<g>
			<title> (ctg1388_2)</title>
			<polygon class=" (ctg1388_2)" points="39,40 63,10 63,70" fill="rgb(255,255,255)" fill-opacity="1.0" stroke="rgb(0,0,0)" stroke-width="2"  />
			<g>
				<title>FeoA (PF04023)
"FeoA domain"</title>
				<polygon class="PF04023" points="43,40 46,36 46,44" stroke-linejoin="round" width="7" height="24" fill="rgb(180,183,81)" stroke="rgb(144,146,64)" stroke-width="1" opacity="0.75" />
			</g>
			<g>
				<title>Fe_dep_repr_C (PF02742)
"Iron dependent repressor, metal binding and dimerisation domain"</title>
				<polygon class="PF02742" points="47,35 53,28 53,28 53,52 53,52 47,45" stroke-linejoin="round" width="6" height="24" fill="rgb(217,122,64)" stroke="rgb(173,97,51)" stroke-width="1" opacity="0.75" />
			</g>
		</g>
		<g>
			<title> (ctg1388_3)</title>
			<polygon class=" (ctg1388_3)" points="64,10 85,40 64,70" fill="rgb(255,255,255)" fill-opacity="1.0" stroke="rgb(0,0,0)" stroke-width="2"  />
			<g>
				<title>Abhydrolase_2 (PF02230)
"Phospholipase/Carboxylesterase"</title>
				<polygon class="PF02230" points="65,28 73,28 81,40 73,52 65,52" stroke-linejoin="round" width="20" height="24" fill="rgb(165,184,75)" stroke="rgb(132,147,60)" stroke-width="1" opacity="0.75" />
			</g>
		</g>
		<g>
			<title> (ctg1388_4)</title>
			<polygon class=" (ctg1388_4)" points="142,25 123,25 123,10 93,40 123,70 123,55 142,55" fill="rgb(255,255,255)" fill-opacity="1.0" stroke="rgb(0,0,0)" stroke-width="2"  />
			<g>
				<title>DUF2181 (PF10223)
"Uncharacterized conserved protein (DUF2181)"</title>
				<polygon class="PF10223" points="105,32 109,28 116,28 116,52 109,52 105,48" stroke-linejoin="round" width="11" height="24" fill="rgb(82,199,87)" stroke="rgb(65,159,69)" stroke-width="1" opacity="0.75" />
			</g>
		</g>
		<g>
			<title> (ctg1388_5)</title>
			<polygon class=" (ctg1388_5)" points="145,40 167,10 167,70" fill="rgb(255,255,255)" fill-opacity="1.0" stroke="rgb(0,0,0)" stroke-width="2"  />
			<g>
				<title>CoA_trans (PF01144)
"Coenzyme A transferase"</title>
				<polygon class="PF01144" points="149,40 158,28 165,28 165,52 158,52" stroke-linejoin="round" width="19" height="24" fill="rgb(106,96,228)" stroke="rgb(84,76,182)" stroke-width="1" opacity="0.75" />
			</g>
		</g>
		<g>
			<title> (ctg1388_6)</title>
			<polygon class=" (ctg1388_6)" points="167,40 190,10 190,70" fill="rgb(255,255,255)" fill-opacity="1.0" stroke="rgb(0,0,0)" stroke-width="2"  />
			<g>
				<title>CoA_trans (PF01144)
"Coenzyme A transferase"</title>
				<polygon class="PF01144" points="171,40 181,28 190,28 190,52 181,52" stroke-linejoin="round" width="22" height="24" fill="rgb(106,96,228)" stroke="rgb(84,76,182)" stroke-width="1" opacity="0.75" />
			</g>
		</g>
		<g>
			<title> (ctg1388_7)</title>
			<polygon class=" (ctg1388_7)" points="227,25 221,25 221,10 191,40 221,70 221,55 227,55" fill="rgb(255,255,255)" fill-opacity="1.0" stroke="rgb(0,0,0)" stroke-width="2"  />
			<g>
				<title>Amidohydro_2 (PF04909)
"Amidohydrolase"</title>
				<polygon class="PF04909" points="195,40 207,28 226,28 226,52 207,52" stroke-linejoin="round" width="35" height="24" fill="rgb(95,225,123)" stroke="rgb(76,180,98)" stroke-width="1" opacity="0.75" />
			</g>
		</g>
		<g>
			<title> (ctg1388_8)</title>
			<polygon class=" (ctg1388_8)" points="252,10 255,40 252,70" fill="rgb(255,255,255)" fill-opacity="1.0" stroke="rgb(0,0,0)" stroke-width="2"  />
		</g>
		<g>
			<title> (ctg1388_9)</title>
			<polygon class=" (ctg1388_9)" points="260,25 281,25 281,10 311,40 281,70 281,55 260,55" fill="rgb(255,255,255)" fill-opacity="1.0" stroke="rgb(0,0,0)" stroke-width="2"  />
			<g>
				<title>AAA_25 (PF13481)
"AAA domain"</title>
				<rect class="PF13481" x="270" y="28" stroke-linejoin="round" width="10" height="24" fill="rgb(81,83,185)" stroke="rgb(64,66,148)" stroke-width="1" opacity="0.75" />
			</g>
		</g>
		<g>
			<title> (ctg1388_10)</title>
			<polygon class=" (ctg1388_10)" points="315,10 320,40 315,70" fill="rgb(255,255,255)" fill-opacity="1.0" stroke="rgb(0,0,0)" stroke-width="2"  />
		</g>
		<g>
			<title> (ctg1388_11)</title>
			<polygon class=" (ctg1388_11)" points="320,10 348,40 320,70" fill="rgb(255,255,255)" fill-opacity="1.0" stroke="rgb(0,0,0)" stroke-width="2"  />
			<g>
				<title>adh_short (PF00106)
"short chain dehydrogenase"</title>
				<polygon class="PF00106" points="320,28 332,28 335,30 335,50 332,52 320,52" stroke-linejoin="round" width="15" height="24" fill="rgb(182,219,73)" stroke="rgb(145,175,58)" stroke-width="1" opacity="0.75" />
			</g>
		</g>
		<g>
			<title> (ctg1388_12)</title>
			<polygon class=" (ctg1388_12)" points="349,10 366,40 349,70" fill="rgb(255,255,255)" fill-opacity="1.0" stroke="rgb(0,0,0)" stroke-width="2"  />
			<g>
				<title>DinB_2 (PF12867)
"DinB superfamily"</title>
				<polygon class="PF12867" points="351,28 356,28 363,40 356,52 351,52" stroke-linejoin="round" width="13" height="24" fill="rgb(184,90,185)" stroke="rgb(147,72,148)" stroke-width="1" opacity="0.75" />
			</g>
		</g>
		<g>
			<title> (ctg1388_13)</title>
			<polygon class=" (ctg1388_13)" points="378,40 389,10 389,70" fill="rgb(255,255,255)" fill-opacity="1.0" stroke="rgb(0,0,0)" stroke-width="2"  />
			<g>
				<title>TfoX_N (PF04993)
"TfoX N-terminal domain"</title>
				<polygon class="PF04993" points="381,40 385,28 387,28 387,52 385,52" stroke-linejoin="round" width="9" height="24" fill="rgb(80,46,184)" stroke="rgb(64,36,147)" stroke-width="1" opacity="0.75" />
			</g>
		</g>
		<g>
			<title> (ctg1388_14)</title>
			<polygon class=" (ctg1388_14)" points="442,25 420,25 420,10 390,40 420,70 420,55 442,55" fill="rgb(255,255,255)" fill-opacity="1.0" stroke="rgb(0,0,0)" stroke-width="2"  />
			<g>
				<title>AMP-binding_C (PF13193)
"AMP-binding enzyme C-terminal domain"</title>
				<polygon class="PF13193" points="394,40 398,36 398,44" stroke-linejoin="round" width="7" height="24" fill="rgb(182,50,118)" stroke="rgb(145,39,94)" stroke-width="1" opacity="0.75" />
			</g>
			<g>
				<title>AMP-binding (PF00501)
"AMP-binding enzyme"</title>
				<polygon class="PF00501" points="399,35 406,28 439,28 439,52 406,52 399,45" stroke-linejoin="round" width="40" height="24" fill="rgb(60,217,223)" stroke="rgb(48,173,178)" stroke-width="1" opacity="0.75" />
			</g>
		</g>
		<g>
			<title> (ctg1388_15)</title>
			<polygon class=" (ctg1388_15)" points="445,10 454,40 445,70" fill="rgb(255,255,255)" fill-opacity="1.0" stroke="rgb(0,0,0)" stroke-width="2"  />
		</g>
		<g>
			<title> (ctg1388_16)</title>
			<polygon class=" (ctg1388_16)" points="456,25 761,25 761,10 791,40 761,70 761,55 456,55" fill="rgb(255,255,255)" fill-opacity="1.0" stroke="rgb(0,0,0)" stroke-width="2"  />
			<g>
				<title>ketoacyl-synt (PF00109)
"Beta-ketoacyl synthase, N-terminal domain"</title>
				<rect class="PF00109" x="457" y="28" stroke-linejoin="round" width="25" height="24" fill="rgb(112,116,228)" stroke="rgb(89,92,182)" stroke-width="1" opacity="0.75" />
			</g>
			<g>
				<title>Ketoacyl-synt_C (PF02801)
"Beta-ketoacyl synthase, C-terminal domain"</title>
				<rect class="PF02801" x="483" y="28" stroke-linejoin="round" width="11" height="24" fill="rgb(215,78,102)" stroke="rgb(172,62,81)" stroke-width="1" opacity="0.75" />
			</g>
			<g>
				<title>KAsynt_C_assoc (PF16197)
"Ketoacyl-synthetase C-terminal extension"</title>
				<rect class="PF16197" x="495" y="28" stroke-linejoin="round" width="13" height="24" fill="rgb(240,150,172)" stroke="rgb(192,120,137)" stroke-width="1" opacity="0.75" />
			</g>
			<g>
				<title>Acyl_transf_1 (PF00698)
"Acyl transferase domain"</title>
				<rect class="PF00698" x="514" y="28" stroke-linejoin="round" width="30" height="24" fill="rgb(59,176,209)" stroke="rgb(47,140,167)" stroke-width="1" opacity="0.75" />
			</g>
			<g>
				<title>PS-DH (PF14765)
"Polyketide synthase dehydratase"</title>
				<rect class="PF14765" x="551" y="28" stroke-linejoin="round" width="29" height="24" fill="rgb(173,56,182)" stroke="rgb(138,44,145)" stroke-width="1" opacity="0.75" />
			</g>
			<g>
				<title>Methyltransf_12 (PF08242)
"Methyltransferase domain"</title>
				<rect class="PF08242" x="604" y="28" stroke-linejoin="round" width="10" height="24" fill="rgb(187,59,115)" stroke="rgb(149,47,92)" stroke-width="1" opacity="0.75" />
			</g>
			<g>
				<title>ADH_zinc_N (PF00107)
"Zinc-binding dehydrogenase"</title>
				<rect class="PF00107" x="657" y="28" stroke-linejoin="round" width="10" height="24" fill="rgb(81,108,215)" stroke="rgb(64,86,172)" stroke-width="1" opacity="0.75" />
			</g>
			<g>
				<title>KR (PF08659)
"KR domain"</title>
				<rect class="PF08659" x="675" y="28" stroke-linejoin="round" width="17" height="24" fill="rgb(66,209,188)" stroke="rgb(52,167,150)" stroke-width="1" opacity="0.75" />
			</g>
			<g>
				<title>PP-binding (PF00550)
"Phosphopantetheine attachment site"</title>
				<rect class="PF00550" x="703" y="28" stroke-linejoin="round" width="6" height="24" fill="rgb(103,191,88)" stroke="rgb(82,152,70)" stroke-width="1" opacity="0.75" />
			</g>
			<g>
				<title>ketoacyl-synt (PF00109)
"Beta-ketoacyl synthase, N-terminal domain"</title>
				<rect class="PF00109" x="713" y="28" stroke-linejoin="round" width="24" height="24" fill="rgb(112,116,228)" stroke="rgb(89,92,182)" stroke-width="1" opacity="0.75" />
			</g>
			<g>
				<title>Ketoacyl-synt_C (PF02801)
"Beta-ketoacyl synthase, C-terminal domain"</title>
				<rect class="PF02801" x="738" y="28" stroke-linejoin="round" width="11" height="24" fill="rgb(215,78,102)" stroke="rgb(172,62,81)" stroke-width="1" opacity="0.75" />
			</g>
			<g>
				<title>KAsynt_C_assoc (PF16197)
"Ketoacyl-synthetase C-terminal extension"</title>
				<rect class="PF16197" x="750" y="28" stroke-linejoin="round" width="13" height="24" fill="rgb(240,150,172)" stroke="rgb(192,120,137)" stroke-width="1" opacity="0.75" />
			</g>
			<g>
				<title>Acyl_transf_1 (PF00698)
"Acyl transferase domain"</title>
				<polygon class="PF00698" points="768,28 774,28 782,36 782,44 774,52 768,52" stroke-linejoin="round" width="14" height="24" fill="rgb(59,176,209)" stroke="rgb(47,140,167)" stroke-width="1" opacity="0.75" />
			</g>
		</g>
		<g>
			<title> (ctg1388_17)</title>
			<polygon class=" (ctg1388_17)" points="792,10 802,40 792,70" fill="rgb(255,255,255)" fill-opacity="1.0" stroke="rgb(0,0,0)" stroke-width="2"  />
			<g>
				<title>PP-binding (PF00550)
"Phosphopantetheine attachment site"</title>
				<polygon class="PF00550" points="794,28 794,28 798,40 794,52 794,52" stroke-linejoin="round" width="7" height="24" fill="rgb(103,191,88)" stroke="rgb(82,152,70)" stroke-width="1" opacity="0.75" />
			</g>
		</g>
		<g>
			<title> (ctg1388_18)</title>
			<polygon class=" (ctg1388_18)" points="803,10 828,40 803,70" fill="rgb(255,255,255)" fill-opacity="1.0" stroke="rgb(0,0,0)" stroke-width="2"  />
			<g>
				<title>ACPS (PF01648)
"4'-phosphopantetheinyl transferase superfamily"</title>
				<polygon class="PF01648" points="816,31 824,40 816,49" stroke-linejoin="round" width="10" height="24" fill="rgb(85,184,135)" stroke="rgb(68,147,108)" stroke-width="1" opacity="0.75" />
			</g>
		</g>
		<g>
			<title> (ctg1388_19)</title>
			<polygon class=" (ctg1388_19)" points="828,25 828,25 828,10 858,40 828,70 828,55 828,55" fill="rgb(255,255,255)" fill-opacity="1.0" stroke="rgb(0,0,0)" stroke-width="2"  />
			<g>
				<title>Abhydrolase_6 (PF12697)
"Alpha/beta hydrolase family"</title>
				<polygon class="PF12697" points="832,28 842,28 854,40 842,52 832,52" stroke-linejoin="round" width="25" height="24" fill="rgb(113,71,219)" stroke="rgb(90,56,175)" stroke-width="1" opacity="0.75" />
			</g>
		</g>
		<g>
			<title> (ctg1388_20)</title>
			<polygon class=" (ctg1388_20)" points="865,25 866,25 866,10 896,40 866,70 866,55 865,55" fill="rgb(255,255,255)" fill-opacity="1.0" stroke="rgb(0,0,0)" stroke-width="2"  />
			<g>
				<title>AIRS (PF00586)
"AIR synthase related protein, N-terminal domain"</title>
				<rect class="PF00586" x="866" y="28" stroke-linejoin="round" width="10" height="24" fill="rgb(215,196,78)" stroke="rgb(172,156,62)" stroke-width="1" opacity="0.75" />
			</g>
			<g>
				<title>AIRS_C (PF02769)
"AIR synthase related protein, C-terminal domain"</title>
				<polygon class="PF02769" points="878,28 880,28 892,40 880,52 878,52" stroke-linejoin="round" width="17" height="24" fill="rgb(182,125,70)" stroke="rgb(145,100,56)" stroke-width="1" opacity="0.75" />
			</g>
		</g>
		<g>
			<title> (ctg1388_21)</title>
			<polygon class=" (ctg1388_21)" points="900,25 913,25 913,10 943,40 913,70 913,55 900,55" fill="rgb(255,255,255)" fill-opacity="1.0" stroke="rgb(0,0,0)" stroke-width="2"  />
			<g>
				<title>FGE-sulfatase (PF03781)
"Sulfatase-modifying factor enzyme 1"</title>
				<polygon class="PF03781" points="917,28 927,28 939,40 927,52 917,52" stroke-linejoin="round" width="26" height="24" fill="rgb(206,81,170)" stroke="rgb(164,64,136)" stroke-width="1" opacity="0.75" />
			</g>
		</g>
		<g>
			<title> (ctg1388_22)</title>
			<polygon class=" (ctg1388_22)" points="945,25 947,25 947,10 977,40 947,70 947,55 945,55" fill="rgb(255,255,255)" fill-opacity="1.0" stroke="rgb(0,0,0)" stroke-width="2"  />
			<g>
				<title>Glycos_transf_1 (PF00534)
"Glycosyl transferases group 1"</title>
				<polygon class="PF00534" points="958,28 960,28 972,40 972,40 960,52 958,52" stroke-linejoin="round" width="14" height="24" fill="rgb(228,92,150)" stroke="rgb(182,73,119)" stroke-width="1" opacity="0.75" />
			</g>
		</g>
		<g>
			<title> (ctg1388_23)</title>
			<polygon class=" (ctg1388_23)" points="979,40 1008,10 1008,70" fill="rgb(255,255,255)" fill-opacity="1.0" stroke="rgb(0,0,0)" stroke-width="2"  />
			<g>
				<title>BPD_transp_1 (PF00528)
"Binding-protein-dependent transport system inner membrane component"</title>
				<polygon class="PF00528" points="983,40 995,28 996,28 996,52 995,52" stroke-linejoin="round" width="17" height="24" fill="rgb(77,208,225)" stroke="rgb(61,166,180)" stroke-width="1" opacity="0.75" />
			</g>
		</g>
		<g>
			<title> (ctg1388_24)</title>
			<polygon class=" (ctg1388_24)" points="1008,40 1035,10 1035,70" fill="rgb(255,255,255)" fill-opacity="1.0" stroke="rgb(0,0,0)" stroke-width="2"  />
			<g>
				<title>BPD_transp_1 (PF00528)
"Binding-protein-dependent transport system inner membrane component"</title>
				<polygon class="PF00528" points="1012,40 1023,28 1025,28 1025,52 1023,52" stroke-linejoin="round" width="17" height="24" fill="rgb(77,208,225)" stroke="rgb(61,166,180)" stroke-width="1" opacity="0.75" />
			</g>
		</g>
		<g>
			<title> (ctg1388_25)</title>
			<polygon class=" (ctg1388_25)" points="1035,40 1062,10 1062,70" fill="rgb(255,255,255)" fill-opacity="1.0" stroke="rgb(0,0,0)" stroke-width="2"  />
			<g>
				<title>ABC_tran (PF00005)
"ABC transporter"</title>
				<polygon class="PF00005" points="1042,37 1050,28 1057,28 1057,52 1050,52 1042,43" stroke-linejoin="round" width="15" height="24" fill="rgb(129,201,63)" stroke="rgb(103,160,50)" stroke-width="1" opacity="0.75" />
			</g>
		</g>
		<g>
			<title> (ctg1388_26)</title>
			<polygon class=" (ctg1388_26)" points="1061,40 1083,10 1083,70" fill="rgb(255,255,255)" fill-opacity="1.0" stroke="rgb(0,0,0)" stroke-width="2"  />
			<g>
				<title>Phosphonate-bd (PF12974)
"ABC transporter, phosphonate, periplasmic substrate-binding protein"</title>
				<polygon class="PF12974" points="1065,40 1074,28 1082,28 1082,52 1074,52" stroke-linejoin="round" width="20" height="24" fill="rgb(150,187,81)" stroke="rgb(120,149,64)" stroke-width="1" opacity="0.75" />
			</g>
		</g>
	</g>
</svg>
