<svg version="1.1" baseProfile="full" xmlns="http://www.w3.org/2000/svg" width="706.3666666666667" height="80">
	<g>
		<line x1="10" y1="40.0" x2="696.3666666666667" y2="40.0" style="stroke:rgb(70,70,70); stroke-width:3 "/>
		<g>
			<title> (ctg1527_1)</title>
			<polygon class=" (ctg1527_1)" points="10,40 20,10 20,70" fill="rgb(255,255,255)" fill-opacity="1.0" stroke="rgb(0,0,0)" stroke-width="2"  />
			<g>
				<title>MR_MLE_N (PF02746)
"Mandelate racemase / muconate lactonizing enzyme, N-terminal domain"</title>
				<polygon class="PF02746" points="13,40 17,28 20,28 20,52 17,52" stroke-linejoin="round" width="10" height="24" fill="rgb(63,73,226)" stroke="rgb(50,58,180)" stroke-width="1" opacity="0.75" />
			</g>
		</g>
		<g>
			<title> (ctg1527_2)</title>
			<polygon class=" (ctg1527_2)" points="59,25 51,25 51,10 21,40 51,70 51,55 59,55" fill="rgb(255,255,255)" fill-opacity="1.0" stroke="rgb(0,0,0)" stroke-width="2"  />
			<g>
				<title>Hist_deacetyl (PF00850)
"Histone deacetylase domain"</title>
				<polygon class="PF00850" points="27,38 37,28 56,28 56,52 37,52 27,42" stroke-linejoin="round" width="29" height="24" fill="rgb(184,51,130)" stroke="rgb(147,40,104)" stroke-width="1" opacity="0.75" />
			</g>
		</g>
		<g>
			<title> (ctg1527_3)</title>
			<polygon class=" (ctg1527_3)" points="115,25 89,25 89,10 59,40 89,70 89,55 115,55" fill="rgb(255,255,255)" fill-opacity="1.0" stroke="rgb(0,0,0)" stroke-width="2"  />
			<g>
				<title>5_nucleotid_C (PF02872)
"5'-nucleotidase, C-terminal domain"</title>
				<polygon class="PF02872" points="63,40 75,28 78,28 78,52 75,52" stroke-linejoin="round" width="16" height="24" fill="rgb(215,156,101)" stroke="rgb(172,124,80)" stroke-width="1" opacity="0.75" />
			</g>
			<g>
				<title>Metallophos (PF00149)
"Calcineurin-like phosphoesterase"</title>
				<rect class="PF00149" x="87" y="28" stroke-linejoin="round" width="23" height="24" fill="rgb(181,197,58)" stroke="rgb(144,157,46)" stroke-width="1" opacity="0.75" />
			</g>
		</g>
		<g>
			<title> (ctg1527_4)</title>
			<polygon class=" (ctg1527_4)" points="192,25 146,25 146,10 116,40 146,70 146,55 192,55" fill="rgb(255,255,255)" fill-opacity="1.0" stroke="rgb(0,0,0)" stroke-width="2"  />
			<g>
				<title>DUF1998 (PF09369)
"Domain of unknown function (DUF1998)"</title>
				<polygon class="PF09369" points="120,40 126,34 126,46" stroke-linejoin="round" width="7" height="24" fill="rgb(161,180,86)" stroke="rgb(128,144,68)" stroke-width="1" opacity="0.75" />
			</g>
			<g>
				<title>Helicase_C (PF00271)
"Helicase conserved C-terminal domain"</title>
				<rect class="PF00271" x="154" y="28" stroke-linejoin="round" width="11" height="24" fill="rgb(104,224,158)" stroke="rgb(83,179,126)" stroke-width="1" opacity="0.75" />
			</g>
			<g>
				<title>DEAD (PF00270)
"DEAD/DEAH box helicase"</title>
				<rect class="PF00270" x="169" y="28" stroke-linejoin="round" width="17" height="24" fill="rgb(195,100,62)" stroke="rgb(156,80,49)" stroke-width="1" opacity="0.75" />
			</g>
		</g>
		<g>
			<title> (ctg1527_5)</title>
			<polygon class=" (ctg1527_5)" points="193,40 205,10 205,70" fill="rgb(255,255,255)" fill-opacity="1.0" stroke="rgb(0,0,0)" stroke-width="2"  />
			<g>
				<title>DUF503 (PF04456)
"Protein of unknown function (DUF503)"</title>
				<polygon class="PF04456" points="196,40 201,28 201,28 201,52 201,52" stroke-linejoin="round" width="8" height="24" fill="rgb(180,50,94)" stroke="rgb(144,39,75)" stroke-width="1" opacity="0.75" />
			</g>
		</g>
		<g>
			<title> (ctg1527_6)</title>
			<polygon class=" (ctg1527_6)" points="207,10 224,40 207,70" fill="rgb(255,255,255)" fill-opacity="1.0" stroke="rgb(0,0,0)" stroke-width="2"  />
		</g>
		<g>
			<title> (ctg1527_7)</title>
			<polygon class=" (ctg1527_7)" points="230,25 231,25 231,10 261,40 231,70 231,55 230,55" fill="rgb(255,255,255)" fill-opacity="1.0" stroke="rgb(0,0,0)" stroke-width="2"  />
			<g>
				<title>Radical_SAM (PF04055)
"Radical SAM superfamily"</title>
				<polygon class="PF04055" points="230,28 244,28 245,29 245,51 244,52 230,52" stroke-linejoin="round" width="15" height="24" fill="rgb(149,56,222)" stroke="rgb(119,44,177)" stroke-width="1" opacity="0.75" />
			</g>
			<g>
				<title>DUF3463 (PF11946)
"Domain of unknown function (DUF3463)"</title>
				<polygon class="PF11946" points="246,30 256,40 246,50" stroke-linejoin="round" width="13" height="24" fill="rgb(193,51,57)" stroke="rgb(154,40,45)" stroke-width="1" opacity="0.75" />
			</g>
		</g>
		<g>
			<title> (ctg1527_8)</title>
			<polygon class=" (ctg1527_8)" points="261,10 272,40 261,70" fill="rgb(255,255,255)" fill-opacity="1.0" stroke="rgb(0,0,0)" stroke-width="2"  />
		</g>
		<g>
			<title> (ctg1527_9)</title>
			<polygon class=" (ctg1527_9)" points="269,40 280,10 280,70" fill="rgb(255,255,255)" fill-opacity="1.0" stroke="rgb(0,0,0)" stroke-width="2"  />
		</g>
		<g>
			<title> (ctg1527_10)</title>
			<polygon class=" (ctg1527_10)" points="282,10 295,40 282,70" fill="rgb(255,255,255)" fill-opacity="1.0" stroke="rgb(0,0,0)" stroke-width="2"  />
			<g>
				<title>PNP_UDP_1 (PF01048)
"Phosphorylase superfamily"</title>
				<polygon class="PF01048" points="282,28 286,28 291,38 291,42 286,52 282,52" stroke-linejoin="round" width="9" height="24" fill="rgb(75,186,148)" stroke="rgb(60,148,118)" stroke-width="1" opacity="0.75" />
			</g>
		</g>
		<g>
			<title> (ctg1527_11)</title>
			<polygon class=" (ctg1527_11)" points="296,25 332,25 332,10 362,40 332,70 332,55 296,55" fill="rgb(255,255,255)" fill-opacity="1.0" stroke="rgb(0,0,0)" stroke-width="2"  />
			<g>
				<title>SQHop_cyclase_N (PF13249)
"Squalene-hopene cyclase N-terminal domain"</title>
				<rect class="PF13249" x="297" y="28" stroke-linejoin="round" width="28" height="24" fill="rgb(88,190,89)" stroke="rgb(70,152,71)" stroke-width="1" opacity="0.75" />
			</g>
			<g>
				<title>SQHop_cyclase_C (PF13243)
"Squalene-hopene cyclase C-terminal domain"</title>
				<polygon class="PF13243" points="327,28 346,28 357,39 357,41 346,52 327,52" stroke-linejoin="round" width="30" height="24" fill="rgb(191,58,201)" stroke="rgb(152,46,160)" stroke-width="1" opacity="0.75" />
			</g>
		</g>
		<g>
			<title> (ctg1527_12)</title>
			<polygon class=" (ctg1527_12)" points="365,25 375,25 375,10 405,40 375,70 375,55 365,55" fill="rgb(255,255,255)" fill-opacity="1.0" stroke="rgb(0,0,0)" stroke-width="2"  />
			<g>
				<title>LVIVD (PF08309)
"LVIVD repeat"</title>
				<rect class="PF08309" x="386" y="28" stroke-linejoin="round" width="3" height="24" fill="rgb(225,128,66)" stroke="rgb(180,102,52)" stroke-width="1" opacity="0.75" />
			</g>
		</g>
		<g>
			<title> (ctg1527_13)</title>
			<polygon class=" (ctg1527_13)" points="408,10 430,40 408,70" fill="rgb(255,255,255)" fill-opacity="1.0" stroke="rgb(0,0,0)" stroke-width="2"  />
			<g>
				<title>Put_DNA-bind_N (PF06971)
"Putative DNA-binding protein N-terminus"</title>
				<rect class="PF06971" x="408" y="28" stroke-linejoin="round" width="4" height="24" fill="rgb(79,177,214)" stroke="rgb(63,141,171)" stroke-width="1" opacity="0.75" />
			</g>
			<g>
				<title>CoA_binding (PF02629)
"CoA binding domain"</title>
				<polygon class="PF02629" points="416,28 417,28 425,39 425,41 417,52 416,52" stroke-linejoin="round" width="9" height="24" fill="rgb(57,204,178)" stroke="rgb(45,163,142)" stroke-width="1" opacity="0.75" />
			</g>
		</g>
		<g>
			<title> (ctg1527_14)</title>
			<polygon class=" (ctg1527_14)" points="431,40 445,10 445,70" fill="rgb(255,255,255)" fill-opacity="1.0" stroke="rgb(0,0,0)" stroke-width="2"  />
			<g>
				<title>ATP-synt_DE (PF00401)
"ATP synthase, Delta/Epsilon chain, long alpha-helix domain"</title>
				<polygon class="PF00401" points="434,40 436,36 436,44" stroke-linejoin="round" width="4" height="24" fill="rgb(189,89,126)" stroke="rgb(151,71,100)" stroke-width="1" opacity="0.75" />
			</g>
			<g>
				<title>ATP-synt_DE_N (PF02823)
"ATP synthase, Delta/Epsilon chain, beta-sandwich domain"</title>
				<polygon class="PF02823" points="437,34 440,28 444,28 444,52 440,52 437,46" stroke-linejoin="round" width="7" height="24" fill="rgb(195,56,129)" stroke="rgb(156,44,103)" stroke-width="1" opacity="0.75" />
			</g>
		</g>
		<g>
			<title> (ctg1527_15)</title>
			<polygon class=" (ctg1527_15)" points="493,25 476,25 476,10 446,40 476,70 476,55 493,55" fill="rgb(255,255,255)" fill-opacity="1.0" stroke="rgb(0,0,0)" stroke-width="2"  />
			<g>
				<title>ATP-synt_ab (PF00006)
"ATP synthase alpha/beta family, nucleotide-binding domain"</title>
				<polygon class="PF00006" points="458,32 462,28 479,28 479,52 462,52 458,48" stroke-linejoin="round" width="21" height="24" fill="rgb(187,135,93)" stroke="rgb(149,108,74)" stroke-width="1" opacity="0.75" />
			</g>
			<g>
				<title>ATP-synt_ab_N (PF02874)
"ATP synthase alpha/beta family, beta-barrel domain"</title>
				<rect class="PF02874" x="485" y="28" stroke-linejoin="round" width="6" height="24" fill="rgb(145,94,227)" stroke="rgb(115,75,181)" stroke-width="1" opacity="0.75" />
			</g>
		</g>
		<g>
			<title> (ctg1527_16)</title>
			<polygon class=" (ctg1527_16)" points="493,40 522,10 522,70" fill="rgb(255,255,255)" fill-opacity="1.0" stroke="rgb(0,0,0)" stroke-width="2"  />
			<g>
				<title>ATP-synt (PF00231)
"ATP synthase"</title>
				<polygon class="PF00231" points="497,40 509,28 521,28 521,52 509,52" stroke-linejoin="round" width="28" height="24" fill="rgb(226,113,128)" stroke="rgb(180,90,102)" stroke-width="1" opacity="0.75" />
			</g>
		</g>
		<g>
			<title> (ctg1527_17)</title>
			<polygon class=" (ctg1527_17)" points="573,25 553,25 553,10 523,40 553,70 553,55 573,55" fill="rgb(255,255,255)" fill-opacity="1.0" stroke="rgb(0,0,0)" stroke-width="2"  />
			<g>
				<title>ATP-synt_ab_C (PF00306)
"ATP synthase alpha/beta chain, C terminal domain"</title>
				<polygon class="PF00306" points="527,40 535,32 535,48" stroke-linejoin="round" width="12" height="24" fill="rgb(82,195,85)" stroke="rgb(65,156,68)" stroke-width="1" opacity="0.75" />
			</g>
			<g>
				<title>ATP-synt_ab (PF00006)
"ATP synthase alpha/beta family, nucleotide-binding domain"</title>
				<polygon class="PF00006" points="536,31 539,28 557,28 557,52 539,52 536,49" stroke-linejoin="round" width="21" height="24" fill="rgb(187,135,93)" stroke="rgb(149,108,74)" stroke-width="1" opacity="0.75" />
			</g>
			<g>
				<title>ATP-synt_ab_N (PF02874)
"ATP synthase alpha/beta family, beta-barrel domain"</title>
				<rect class="PF02874" x="564" y="28" stroke-linejoin="round" width="6" height="24" fill="rgb(145,94,227)" stroke="rgb(115,75,181)" stroke-width="1" opacity="0.75" />
			</g>
		</g>
		<g>
			<title> (ctg1527_18)</title>
			<polygon class=" (ctg1527_18)" points="573,40 592,10 592,70" fill="rgb(255,255,255)" fill-opacity="1.0" stroke="rgb(0,0,0)" stroke-width="2"  />
			<g>
				<title>OSCP (PF00213)
"ATP synthase delta (OSCP) subunit"</title>
				<polygon class="PF00213" points="577,40 585,28 590,28 590,52 585,52" stroke-linejoin="round" width="16" height="24" fill="rgb(94,48,190)" stroke="rgb(75,38,152)" stroke-width="1" opacity="0.75" />
			</g>
		</g>
		<g>
			<title> (ctg1527_19)</title>
			<polygon class=" (ctg1527_19)" points="592,40 610,10 610,70" fill="rgb(255,255,255)" fill-opacity="1.0" stroke="rgb(0,0,0)" stroke-width="2"  />
			<g>
				<title>ATP-synt_B (PF00430)
"ATP synthase B/B' CF(0)"</title>
				<polygon class="PF00430" points="596,40 603,28 607,28 607,52 603,52" stroke-linejoin="round" width="13" height="24" fill="rgb(207,72,187)" stroke="rgb(165,57,149)" stroke-width="1" opacity="0.75" />
			</g>
		</g>
		<g>
			<title> (ctg1527_20)</title>
			<polygon class=" (ctg1527_20)" points="612,40 619,10 619,70" fill="rgb(255,255,255)" fill-opacity="1.0" stroke="rgb(0,0,0)" stroke-width="2"  />
			<g>
				<title>ATP-synt_C (PF00137)
"ATP synthase subunit C"</title>
				<polygon class="PF00137" points="615,40 618,28 618,28 618,52 618,52" stroke-linejoin="round" width="6" height="24" fill="rgb(202,197,90)" stroke="rgb(161,157,72)" stroke-width="1" opacity="0.75" />
			</g>
		</g>
		<g>
			<title> (ctg1527_21)</title>
			<polygon class=" (ctg1527_21)" points="622,40 651,10 651,70" fill="rgb(255,255,255)" fill-opacity="1.0" stroke="rgb(0,0,0)" stroke-width="2"  />
			<g>
				<title>ATP-synt_A (PF00119)
"ATP synthase A chain"</title>
				<polygon class="PF00119" points="626,40 638,28 645,28 645,52 638,52" stroke-linejoin="round" width="21" height="24" fill="rgb(220,117,57)" stroke="rgb(176,93,45)" stroke-width="1" opacity="0.75" />
			</g>
		</g>
		<g>
			<title> (ctg1527_22)</title>
			<polygon class=" (ctg1527_22)" points="651,40 659,10 659,70" fill="rgb(255,255,255)" fill-opacity="1.0" stroke="rgb(0,0,0)" stroke-width="2"  />
			<g>
				<title>ATPase_gene1 (PF09527)
"Putative F0F1-ATPase subunit Ca2+/Mg2+ transporter"</title>
				<polygon class="PF09527" points="654,40 657,28 658,28 658,52 657,52" stroke-linejoin="round" width="5" height="24" fill="rgb(86,197,109)" stroke="rgb(68,157,87)" stroke-width="1" opacity="0.75" />
			</g>
		</g>
		<g>
			<title> (ctg1527_23)</title>
			<polygon class=" (ctg1527_23)" points="665,40 689,10 689,70" fill="rgb(255,255,255)" fill-opacity="1.0" stroke="rgb(0,0,0)" stroke-width="2"  />
			<g>
				<title>DNase-RNase (PF02577)
"Bifunctional nuclease"</title>
				<polygon class="PF02577" points="675,32 679,28 686,28 686,52 679,52 675,48" stroke-linejoin="round" width="11" height="24" fill="rgb(169,220,60)" stroke="rgb(135,176,48)" stroke-width="1" opacity="0.75" />
			</g>
		</g>
	</g>
</svg>
