<svg version="1.1" baseProfile="full" xmlns="http://www.w3.org/2000/svg" width="701.3666666666667" height="80">
	<g>
		<line x1="10" y1="40.0" x2="691.3666666666667" y2="40.0" style="stroke:rgb(70,70,70); stroke-width:3 "/>
		<g>
			<title> (ctg485_27)</title>
			<polygon class=" (ctg485_27)" points="71,25 59,25 59,10 29,40 59,70 59,55 71,55" fill="rgb(255,255,255)" fill-opacity="1.0" stroke="rgb(0,0,0)" stroke-width="2"  />
			<g>
				<title>DUF4143 (PF13635)
"Domain of unknown function (DUF4143)"</title>
				<polygon class="PF13635" points="34,39 45,28 50,28 50,52 45,52 34,41" stroke-linejoin="round" width="16" height="24" fill="rgb(119,89,210)" stroke="rgb(95,71,168)" stroke-width="1" opacity="0.75" />
			</g>
			<g>
				<title>AAA_14 (PF13173)
"AAA domain"</title>
				<rect class="PF13173" x="57" y="28" stroke-linejoin="round" width="12" height="24" fill="rgb(77,222,177)" stroke="rgb(61,177,141)" stroke-width="1" opacity="0.75" />
			</g>
		</g>
		<g>
			<title> (ctg485_28)</title>
			<polygon class=" (ctg485_28)" points="122,25 109,25 109,10 79,40 109,70 109,55 122,55" fill="rgb(255,255,255)" fill-opacity="1.0" stroke="rgb(0,0,0)" stroke-width="2"  />
		</g>
		<g>
			<title> (ctg485_29)</title>
			<polygon class=" (ctg485_29)" points="164,25 153,25 153,10 123,40 153,70 153,55 164,55" fill="rgb(255,255,255)" fill-opacity="1.0" stroke="rgb(0,0,0)" stroke-width="2"  />
			<g>
				<title>Amidohydro_1 (PF01979)
"Amidohydrolase family"</title>
				<polygon class="PF01979" points="127,40 139,28 155,28 155,52 139,52" stroke-linejoin="round" width="30" height="24" fill="rgb(210,93,184)" stroke="rgb(168,74,147)" stroke-width="1" opacity="0.75" />
			</g>
		</g>
		<g>
			<title> (ctg485_30)</title>
			<polygon class=" (ctg485_30)" points="213,25 198,25 198,10 168,40 198,70 198,55 213,55" fill="rgb(255,255,255)" fill-opacity="1.0" stroke="rgb(0,0,0)" stroke-width="2"  />
			<g>
				<title>SusD_RagB (PF07980)
"SusD family"</title>
				<polygon class="PF07980" points="172,40 184,28 192,28 192,52 184,52" stroke-linejoin="round" width="24" height="24" fill="rgb(226,135,61)" stroke="rgb(180,108,48)" stroke-width="1" opacity="0.75" />
			</g>
		</g>
		<g>
			<title> (ctg485_31)</title>
			<polygon class=" (ctg485_31)" points="313,25 244,25 244,10 214,40 244,70 244,55 313,55" fill="rgb(255,255,255)" fill-opacity="1.0" stroke="rgb(0,0,0)" stroke-width="2"  />
			<g>
				<title>TonB_dep_Rec (PF00593)
"TonB dependent receptor"</title>
				<rect class="PF00593" x="235" y="28" stroke-linejoin="round" width="38" height="24" fill="rgb(171,200,51)" stroke="rgb(136,160,40)" stroke-width="1" opacity="0.75" />
			</g>
			<g>
				<title>Plug (PF07715)
"TonB-dependent Receptor Plug Domain"</title>
				<rect class="PF07715" x="286" y="28" stroke-linejoin="round" width="12" height="24" fill="rgb(99,133,214)" stroke="rgb(79,106,171)" stroke-width="1" opacity="0.75" />
			</g>
			<g>
				<title>CarbopepD_reg_2 (PF13715)
"CarboxypepD_reg-like domain"</title>
				<rect class="PF13715" x="300" y="28" stroke-linejoin="round" width="8" height="24" fill="rgb(198,51,128)" stroke="rgb(158,40,102)" stroke-width="1" opacity="0.75" />
			</g>
		</g>
		<g>
			<title> (ctg485_32)</title>
			<polygon class=" (ctg485_32)" points="321,40 338,10 338,70" fill="rgb(255,255,255)" fill-opacity="1.0" stroke="rgb(0,0,0)" stroke-width="2"  />
		</g>
		<g>
			<title> (ctg485_33)</title>
			<polygon class=" (ctg485_33)" points="343,25 345,25 345,10 375,40 345,70 345,55 343,55" fill="rgb(255,255,255)" fill-opacity="1.0" stroke="rgb(0,0,0)" stroke-width="2"  />
			<g>
				<title>SQS_PSY (PF00494)
"Squalene/phytoene synthase"</title>
				<polygon class="PF00494" points="343,28 359,28 371,40 371,40 359,52 343,52" stroke-linejoin="round" width="28" height="24" fill="rgb(178,91,49)" stroke="rgb(142,72,39)" stroke-width="1" opacity="0.75" />
			</g>
		</g>
		<g>
			<title> (ctg485_34)</title>
			<polygon class=" (ctg485_34)" points="375,25 383,25 383,10 413,40 383,70 383,55 375,55" fill="rgb(255,255,255)" fill-opacity="1.0" stroke="rgb(0,0,0)" stroke-width="2"  />
			<g>
				<title>Aminotran_5 (PF00266)
"Aminotransferase class-V"</title>
				<polygon class="PF00266" points="376,28 397,28 409,40 397,52 376,52" stroke-linejoin="round" width="34" height="24" fill="rgb(214,54,122)" stroke="rgb(171,43,97)" stroke-width="1" opacity="0.75" />
			</g>
		</g>
		<g>
			<title> (ctg485_35)</title>
			<polygon class=" (ctg485_35)" points="417,25 474,25 474,10 504,40 474,70 474,55 417,55" fill="rgb(255,255,255)" fill-opacity="1.0" stroke="rgb(0,0,0)" stroke-width="2"  />
			<g>
				<title>DUF5117 (PF17148)
"Domain of unknown function (DUF5117)"</title>
				<rect class="PF17148" x="427" y="28" stroke-linejoin="round" width="20" height="24" fill="rgb(105,217,142)" stroke="rgb(84,173,113)" stroke-width="1" opacity="0.75" />
			</g>
			<g>
				<title>DUF4953 (PF16313)
"Met-zincin"</title>
				<polygon class="PF16313" points="460,28 488,28 490,30 490,50 488,52 460,52" stroke-linejoin="round" width="30" height="24" fill="rgb(147,83,182)" stroke="rgb(117,66,145)" stroke-width="1" opacity="0.75" />
			</g>
		</g>
		<g>
			<title> (ctg485_36)</title>
			<polygon class=" (ctg485_36)" points="546,25 537,25 537,10 507,40 537,70 537,55 546,55" fill="rgb(255,255,255)" fill-opacity="1.0" stroke="rgb(0,0,0)" stroke-width="2"  />
			<g>
				<title>Plug (PF07715)
"TonB-dependent Receptor Plug Domain"</title>
				<polygon class="PF07715" points="523,28 523,28 533,28 533,52 523,52 523,52" stroke-linejoin="round" width="10" height="24" fill="rgb(99,133,214)" stroke="rgb(79,106,171)" stroke-width="1" opacity="0.75" />
			</g>
			<g>
				<title>CarboxypepD_reg (PF13620)
"Carboxypeptidase regulatory-like domain"</title>
				<rect class="PF13620" x="536" y="28" stroke-linejoin="round" width="7" height="24" fill="rgb(201,63,96)" stroke="rgb(160,50,76)" stroke-width="1" opacity="0.75" />
			</g>
		</g>
		<g>
			<title> (ctg485_37)</title>
			<polygon class=" (ctg485_37)" points="601,25 584,25 584,10 554,40 584,70 584,55 601,55" fill="rgb(255,255,255)" fill-opacity="1.0" stroke="rgb(0,0,0)" stroke-width="2"  />
			<g>
				<title>MatE (PF01554)
"MatE"</title>
				<polygon class="PF01554" points="559,39 570,28 575,28 575,52 570,52 559,41" stroke-linejoin="round" width="16" height="24" fill="rgb(187,69,173)" stroke="rgb(149,55,138)" stroke-width="1" opacity="0.75" />
			</g>
			<g>
				<title>MatE (PF01554)
"MatE"</title>
				<rect class="PF01554" x="582" y="28" stroke-linejoin="round" width="16" height="24" fill="rgb(187,69,173)" stroke="rgb(149,55,138)" stroke-width="1" opacity="0.75" />
			</g>
		</g>
		<g>
			<title> (ctg485_38)</title>
			<polygon class=" (ctg485_38)" points="602,40 627,10 627,70" fill="rgb(255,255,255)" fill-opacity="1.0" stroke="rgb(0,0,0)" stroke-width="2"  />
			<g>
				<title>Fer4_8 (PF13183)
"4Fe-4S dicluster domain"</title>
				<polygon class="PF13183" points="606,40 612,33 612,47" stroke-linejoin="round" width="7" height="24" fill="rgb(180,196,91)" stroke="rgb(144,156,72)" stroke-width="1" opacity="0.75" />
			</g>
			<g>
				<title>Fer2_3 (PF13085)
"2Fe-2S iron-sulfur cluster binding domain"</title>
				<polygon class="PF13085" points="616,28 616,28 626,28 626,52 616,52 616,52" stroke-linejoin="round" width="10" height="24" fill="rgb(214,154,54)" stroke="rgb(171,123,43)" stroke-width="1" opacity="0.75" />
			</g>
		</g>
		<g>
			<title> (ctg485_39)</title>
			<polygon class=" (ctg485_39)" points="688,25 658,25 658,10 628,40 658,70 658,55 688,55" fill="rgb(255,255,255)" fill-opacity="1.0" stroke="rgb(0,0,0)" stroke-width="2"  />
			<g>
				<title>Succ_DH_flav_C (PF02910)
"Fumarate reductase flavoprotein C-term"</title>
				<polygon class="PF02910" points="632,40 640,32 640,48" stroke-linejoin="round" width="11" height="24" fill="rgb(140,80,199)" stroke="rgb(112,64,159)" stroke-width="1" opacity="0.75" />
			</g>
			<g>
				<title>FAD_binding_2 (PF00890)
"FAD binding domain"</title>
				<rect class="PF00890" x="646" y="28" stroke-linejoin="round" width="41" height="24" fill="rgb(63,199,116)" stroke="rgb(50,159,92)" stroke-width="1" opacity="0.75" />
			</g>
		</g>
		<g>
			<title> (ctg485_40)</title>
			<polygon class=" (ctg485_40)" points="688,40 690,10 690,70" fill="rgb(255,255,255)" fill-opacity="1.0" stroke="rgb(0,0,0)" stroke-width="2"  />
		</g>
	</g>
</svg>
