<svg version="1.1" baseProfile="full" xmlns="http://www.w3.org/2000/svg" width="260.26666666666665" height="80">
	<g>
		<line x1="10" y1="40.0" x2="250.26666666666668" y2="40.0" style="stroke:rgb(70,70,70); stroke-width:3 "/>
		<g>
			<title> (ctg8659_4)</title>
			<polygon class=" (ctg8659_4)" points="34,10 61,40 34,70" fill="rgb(255,255,255)" fill-opacity="1.0" stroke="rgb(0,0,0)" stroke-width="2"  />
		</g>
		<g>
			<title> (ctg8659_5)</title>
			<polygon class=" (ctg8659_5)" points="61,10 88,40 61,70" fill="rgb(255,255,255)" fill-opacity="1.0" stroke="rgb(0,0,0)" stroke-width="2"  />
			<g>
				<title>DUF1445 (PF07286)
"Protein of unknown function (DUF1445)"</title>
				<polygon class="PF07286" points="72,28 72,28 83,40 72,52 72,52" stroke-linejoin="round" width="14" height="24" fill="rgb(190,202,56)" stroke="rgb(152,161,44)" stroke-width="1" opacity="0.75" />
			</g>
		</g>
		<g>
			<title> (ctg8659_6)</title>
			<polygon class=" (ctg8659_6)" points="89,10 100,40 89,70" fill="rgb(255,255,255)" fill-opacity="1.0" stroke="rgb(0,0,0)" stroke-width="2"  />
		</g>
		<g>
			<title> (ctg8659_7)</title>
			<polygon class=" (ctg8659_7)" points="100,40 120,10 120,70" fill="rgb(255,255,255)" fill-opacity="1.0" stroke="rgb(0,0,0)" stroke-width="2"  />
		</g>
		<g>
			<title> (ctg8659_8)</title>
			<polygon class=" (ctg8659_8)" points="120,10 128,40 120,70" fill="rgb(255,255,255)" fill-opacity="1.0" stroke="rgb(0,0,0)" stroke-width="2"  />
		</g>
		<g>
			<title> (ctg8659_9)</title>
			<polygon class=" (ctg8659_9)" points="132,25 146,25 146,10 176,40 146,70 146,55 132,55" fill="rgb(255,255,255)" fill-opacity="1.0" stroke="rgb(0,0,0)" stroke-width="2"  />
			<g>
				<title>FAD_binding_4 (PF01565)
"FAD binding domain"</title>
				<rect class="PF01565" x="135" y="28" stroke-linejoin="round" width="13" height="24" fill="rgb(226,88,136)" stroke="rgb(180,70,108)" stroke-width="1" opacity="0.75" />
			</g>
		</g>
		<g>
			<title> (ctg8659_10)</title>
			<polygon class=" (ctg8659_10)" points="176,25 219,25 219,10 249,40 219,70 219,55 176,55" fill="rgb(255,255,255)" fill-opacity="1.0" stroke="rgb(0,0,0)" stroke-width="2"  />
			<g>
				<title>YcaO (PF02624)
"YcaO cyclodehydratase, ATP-ad Mg2+-binding"</title>
				<polygon class="PF02624" points="216,28 233,28 245,40 233,52 216,52" stroke-linejoin="round" width="33" height="24" fill="rgb(76,84,185)" stroke="rgb(60,67,148)" stroke-width="1" opacity="0.75" />
			</g>
		</g>
	</g>
</svg>
