<svg version="1.1" baseProfile="full" xmlns="http://www.w3.org/2000/svg" width="526.9666666666667" height="80">
	<g>
		<line x1="10" y1="40.0" x2="516.9666666666667" y2="40.0" style="stroke:rgb(70,70,70); stroke-width:3 "/>
		<g>
			<title> (ctg4363_1)</title>
			<polygon class=" (ctg4363_1)" points="27,10 48,40 27,70" fill="rgb(255,255,255)" fill-opacity="1.0" stroke="rgb(0,0,0)" stroke-width="2"  />
		</g>
		<g>
			<title> (ctg4363_2)</title>
			<polygon class=" (ctg4363_2)" points="43,40 69,10 69,70" fill="rgb(255,255,255)" fill-opacity="1.0" stroke="rgb(0,0,0)" stroke-width="2"  />
		</g>
		<g>
			<title> (ctg4363_3)</title>
			<polygon class=" (ctg4363_3)" points="71,10 87,40 71,70" fill="rgb(255,255,255)" fill-opacity="1.0" stroke="rgb(0,0,0)" stroke-width="2"  />
		</g>
		<g>
			<title> (ctg4363_4)</title>
			<polygon class=" (ctg4363_4)" points="87,10 113,40 87,70" fill="rgb(255,255,255)" fill-opacity="1.0" stroke="rgb(0,0,0)" stroke-width="2"  />
			<g>
				<title>DUF1828 (PF08861)
"Domain of unknown function DUF1828"</title>
				<rect class="PF08861" x="90" y="28" stroke-linejoin="round" width="9" height="24" fill="rgb(218,102,174)" stroke="rgb(174,81,139)" stroke-width="1" opacity="0.75" />
			</g>
		</g>
		<g>
			<title> (ctg4363_5)</title>
			<polygon class=" (ctg4363_5)" points="114,40 121,10 121,70" fill="rgb(255,255,255)" fill-opacity="1.0" stroke="rgb(0,0,0)" stroke-width="2"  />
		</g>
		<g>
			<title> (ctg4363_6)</title>
			<polygon class=" (ctg4363_6)" points="130,10 154,40 130,70" fill="rgb(255,255,255)" fill-opacity="1.0" stroke="rgb(0,0,0)" stroke-width="2"  />
			<g>
				<title>Tannase (PF07519)
"Tannase and feruloyl esterase"</title>
				<polygon class="PF07519" points="135,28 140,28 147,36 147,44 140,52 135,52" stroke-linejoin="round" width="12" height="24" fill="rgb(139,54,192)" stroke="rgb(111,43,153)" stroke-width="1" opacity="0.75" />
			</g>
		</g>
		<g>
			<title> (ctg4363_7)</title>
			<polygon class=" (ctg4363_7)" points="155,10 161,40 155,70" fill="rgb(255,255,255)" fill-opacity="1.0" stroke="rgb(0,0,0)" stroke-width="2"  />
		</g>
		<g>
			<title> (ctg4363_8)</title>
			<polygon class=" (ctg4363_8)" points="164,10 176,40 164,70" fill="rgb(255,255,255)" fill-opacity="1.0" stroke="rgb(0,0,0)" stroke-width="2"  />
			<g>
				<title>Tannase (PF07519)
"Tannase and feruloyl esterase"</title>
				<polygon class="PF07519" points="164,28 168,28 173,40 168,52 164,52" stroke-linejoin="round" width="12" height="24" fill="rgb(139,54,192)" stroke="rgb(111,43,153)" stroke-width="1" opacity="0.75" />
			</g>
		</g>
		<g>
			<title> (ctg4363_9)</title>
			<polygon class=" (ctg4363_9)" points="247,25 212,25 212,10 182,40 212,70 212,55 247,55" fill="rgb(255,255,255)" fill-opacity="1.0" stroke="rgb(0,0,0)" stroke-width="2"  />
			<g>
				<title>SQHop_cyclase_C (PF13243)
"Squalene-hopene cyclase C-terminal domain"</title>
				<polygon class="PF13243" points="186,40 198,28 214,28 214,52 198,52" stroke-linejoin="round" width="32" height="24" fill="rgb(191,58,201)" stroke="rgb(152,46,160)" stroke-width="1" opacity="0.75" />
			</g>
			<g>
				<title>SQHop_cyclase_N (PF13249)
"Squalene-hopene cyclase N-terminal domain"</title>
				<rect class="PF13249" x="216" y="28" stroke-linejoin="round" width="29" height="24" fill="rgb(88,190,89)" stroke="rgb(70,152,71)" stroke-width="1" opacity="0.75" />
			</g>
		</g>
		<g>
			<title> (ctg4363_10)</title>
			<polygon class=" (ctg4363_10)" points="294,25 277,25 277,10 247,40 277,70 277,55 294,55" fill="rgb(255,255,255)" fill-opacity="1.0" stroke="rgb(0,0,0)" stroke-width="2"  />
			<g>
				<title>FAD_binding_3 (PF01494)
"FAD binding domain"</title>
				<polygon class="PF01494" points="263,28 263,28 293,28 293,52 263,52 263,52" stroke-linejoin="round" width="30" height="24" fill="rgb(182,175,59)" stroke="rgb(145,140,47)" stroke-width="1" opacity="0.75" />
			</g>
		</g>
		<g>
			<title> (ctg4363_11)</title>
			<polygon class=" (ctg4363_11)" points="340,25 325,25 325,10 295,40 325,70 325,55 340,55" fill="rgb(255,255,255)" fill-opacity="1.0" stroke="rgb(0,0,0)" stroke-width="2"  />
			<g>
				<title>p450 (PF00067)
"Cytochrome P450"</title>
				<polygon class="PF00067" points="299,40 311,28 339,28 339,52 311,52" stroke-linejoin="round" width="43" height="24" fill="rgb(85,216,107)" stroke="rgb(68,172,85)" stroke-width="1" opacity="0.75" />
			</g>
		</g>
		<g>
			<title> (ctg4363_12)</title>
			<polygon class=" (ctg4363_12)" points="378,25 370,25 370,10 340,40 370,70 370,55 378,55" fill="rgb(255,255,255)" fill-opacity="1.0" stroke="rgb(0,0,0)" stroke-width="2"  />
			<g>
				<title>Rieske (PF00355)
"Rieske [2Fe-2S] domain"</title>
				<rect class="PF00355" x="364" y="28" stroke-linejoin="round" width="8" height="24" fill="rgb(186,77,145)" stroke="rgb(148,61,115)" stroke-width="1" opacity="0.75" />
			</g>
		</g>
		<g>
			<title> (ctg4363_13)</title>
			<polygon class=" (ctg4363_13)" points="413,25 408,25 408,10 378,40 408,70 408,55 413,55" fill="rgb(255,255,255)" fill-opacity="1.0" stroke="rgb(0,0,0)" stroke-width="2"  />
			<g>
				<title>Epimerase (PF01370)
"NAD dependent epimerase/dehydratase family"</title>
				<polygon class="PF01370" points="389,33 394,28 412,28 412,52 394,52 389,47" stroke-linejoin="round" width="23" height="24" fill="rgb(98,102,214)" stroke="rgb(78,81,171)" stroke-width="1" opacity="0.75" />
			</g>
		</g>
		<g>
			<title> (ctg4363_14)</title>
			<polygon class=" (ctg4363_14)" points="414,40 427,10 427,70" fill="rgb(255,255,255)" fill-opacity="1.0" stroke="rgb(0,0,0)" stroke-width="2"  />
			<g>
				<title>ATP-synt_DE_N (PF02823)
"ATP synthase, Delta/Epsilon chain, beta-sandwich domain"</title>
				<polygon class="PF02823" points="419,36 423,28 427,28 427,52 423,52 419,44" stroke-linejoin="round" width="8" height="24" fill="rgb(195,56,129)" stroke="rgb(156,44,103)" stroke-width="1" opacity="0.75" />
			</g>
		</g>
		<g>
			<title> (ctg4363_15)</title>
			<polygon class=" (ctg4363_15)" points="479,25 459,25 459,10 429,40 459,70 459,55 479,55" fill="rgb(255,255,255)" fill-opacity="1.0" stroke="rgb(0,0,0)" stroke-width="2"  />
			<g>
				<title>ATP-synt_ab (PF00006)
"ATP synthase alpha/beta family, nucleotide-binding domain"</title>
				<polygon class="PF00006" points="441,32 445,28 465,28 465,52 445,52 441,48" stroke-linejoin="round" width="24" height="24" fill="rgb(187,135,93)" stroke="rgb(149,108,74)" stroke-width="1" opacity="0.75" />
			</g>
			<g>
				<title>ATP-synt_ab_N (PF02874)
"ATP synthase alpha/beta family, beta-barrel domain"</title>
				<rect class="PF02874" x="471" y="28" stroke-linejoin="round" width="6" height="24" fill="rgb(145,94,227)" stroke="rgb(115,75,181)" stroke-width="1" opacity="0.75" />
			</g>
		</g>
		<g>
			<title> (ctg4363_16)</title>
			<polygon class=" (ctg4363_16)" points="509,25 509,25 509,10 479,40 509,70 509,55 509,55" fill="rgb(255,255,255)" fill-opacity="1.0" stroke="rgb(0,0,0)" stroke-width="2"  />
			<g>
				<title>ATP-synt (PF00231)
"ATP synthase"</title>
				<polygon class="PF00231" points="483,40 495,28 508,28 508,52 495,52" stroke-linejoin="round" width="29" height="24" fill="rgb(226,113,128)" stroke="rgb(180,90,102)" stroke-width="1" opacity="0.75" />
			</g>
		</g>
		<g>
			<title> (ctg4363_17)</title>
			<polygon class=" (ctg4363_17)" points="511,40 516,10 516,70" fill="rgb(255,255,255)" fill-opacity="1.0" stroke="rgb(0,0,0)" stroke-width="2"  />
		</g>
	</g>
</svg>
