<svg version="1.1" baseProfile="full" xmlns="http://www.w3.org/2000/svg" width="477.53333333333336" height="80">
	<g>
		<line x1="10" y1="40.0" x2="467.53333333333336" y2="40.0" style="stroke:rgb(70,70,70); stroke-width:3 "/>
		<g>
			<title> (ctg2471_7)</title>
			<polygon class=" (ctg2471_7)" points="100,25 97,25 97,10 67,40 97,70 97,55 100,55" fill="rgb(255,255,255)" fill-opacity="1.0" stroke="rgb(0,0,0)" stroke-width="2"  />
			<g>
				<title>HTH_8 (PF02954)
"Bacterial regulatory protein, Fis family"</title>
				<polygon class="PF02954" points="71,40 71,40 71,40" stroke-linejoin="round" width="4" height="24" fill="rgb(168,63,200)" stroke="rgb(134,50,160)" stroke-width="1" opacity="0.75" />
			</g>
			<g>
				<title>Sigma54_activat (PF00158)
"Sigma-54 interaction domain"</title>
				<polygon class="PF00158" points="82,29 83,28 98,28 98,52 83,52 82,51" stroke-linejoin="round" width="16" height="24" fill="rgb(101,145,216)" stroke="rgb(80,115,172)" stroke-width="1" opacity="0.75" />
			</g>
		</g>
		<g>
			<title> (ctg2471_8)</title>
			<polygon class=" (ctg2471_8)" points="181,25 130,25 130,10 100,40 130,70 130,55 181,55" fill="rgb(255,255,255)" fill-opacity="1.0" stroke="rgb(0,0,0)" stroke-width="2"  />
			<g>
				<title>FDX-ACB (PF03147)
"Ferredoxin-fold anticodon binding domain"</title>
				<polygon class="PF03147" points="104,40 109,35 109,45" stroke-linejoin="round" width="9" height="24" fill="rgb(152,84,215)" stroke="rgb(121,67,172)" stroke-width="1" opacity="0.75" />
			</g>
			<g>
				<title>tRNA_synthFbeta (PF17759)
"Phenylalanyl tRNA synthetase beta chain CLM domain"</title>
				<polygon class="PF17759" points="112,32 116,28 133,28 133,52 116,52 112,48" stroke-linejoin="round" width="21" height="24" fill="rgb(61,193,115)" stroke="rgb(48,154,92)" stroke-width="1" opacity="0.75" />
			</g>
			<g>
				<title>B5 (PF03484)
"tRNA synthetase B5 domain"</title>
				<rect class="PF03484" x="133" y="28" stroke-linejoin="round" width="6" height="24" fill="rgb(94,91,186)" stroke="rgb(75,72,148)" stroke-width="1" opacity="0.75" />
			</g>
			<g>
				<title>B3_4 (PF03483)
"B3/4 domain"</title>
				<rect class="PF03483" x="142" y="28" stroke-linejoin="round" width="17" height="24" fill="rgb(97,63,226)" stroke="rgb(77,50,180)" stroke-width="1" opacity="0.75" />
			</g>
			<g>
				<title>tRNA_bind (PF01588)
"Putative tRNA binding domain"</title>
				<rect class="PF01588" x="166" y="28" stroke-linejoin="round" width="10" height="24" fill="rgb(192,51,118)" stroke="rgb(153,40,94)" stroke-width="1" opacity="0.75" />
			</g>
		</g>
		<g>
			<title> (ctg2471_9)</title>
			<polygon class=" (ctg2471_9)" points="214,25 211,25 211,10 181,40 211,70 211,55 214,55" fill="rgb(255,255,255)" fill-opacity="1.0" stroke="rgb(0,0,0)" stroke-width="2"  />
			<g>
				<title>tRNA-synt_2d (PF01409)
"tRNA synthetases class II core domain (F)"</title>
				<polygon class="PF01409" points="185,40 197,28 205,28 205,52 197,52" stroke-linejoin="round" width="24" height="24" fill="rgb(88,202,82)" stroke="rgb(70,161,65)" stroke-width="1" opacity="0.75" />
			</g>
			<g>
				<title>Phe_tRNA-synt_N (PF02912)
"Aminoacyl tRNA synthetase class II, N-terminal domain"</title>
				<rect class="PF02912" x="205" y="28" stroke-linejoin="round" width="6" height="24" fill="rgb(185,106,54)" stroke="rgb(148,84,43)" stroke-width="1" opacity="0.75" />
			</g>
		</g>
		<g>
			<title> (ctg2471_10)</title>
			<polygon class=" (ctg2471_10)" points="215,40 231,10 231,70" fill="rgb(255,255,255)" fill-opacity="1.0" stroke="rgb(0,0,0)" stroke-width="2"  />
		</g>
		<g>
			<title> (ctg2471_11)</title>
			<polygon class=" (ctg2471_11)" points="232,25 233,25 233,10 263,40 233,70 233,55 232,55" fill="rgb(255,255,255)" fill-opacity="1.0" stroke="rgb(0,0,0)" stroke-width="2"  />
			<g>
				<title>Ion_trans_2 (PF07885)
"Ion channel"</title>
				<rect class="PF07885" x="232" y="28" stroke-linejoin="round" width="6" height="24" fill="rgb(72,141,189)" stroke="rgb(57,112,151)" stroke-width="1" opacity="0.75" />
			</g>
			<g>
				<title>TrkA_N (PF02254)
"TrkA-N domain"</title>
				<polygon class="PF02254" points="239,28 246,28 250,32 250,48 246,52 239,52" stroke-linejoin="round" width="11" height="24" fill="rgb(120,217,104)" stroke="rgb(96,173,83)" stroke-width="1" opacity="0.75" />
			</g>
			<g>
				<title>TrkA_C (PF02080)
"TrkA-C domain"</title>
				<polygon class="PF02080" points="255,37 258,40 255,43" stroke-linejoin="round" width="7" height="24" fill="rgb(76,186,211)" stroke="rgb(60,148,168)" stroke-width="1" opacity="0.75" />
			</g>
		</g>
		<g>
			<title> (ctg2471_12)</title>
			<polygon class=" (ctg2471_12)" points="263,10 278,40 263,70" fill="rgb(255,255,255)" fill-opacity="1.0" stroke="rgb(0,0,0)" stroke-width="2"  />
		</g>
		<g>
			<title> (ctg2471_13)</title>
			<polygon class=" (ctg2471_13)" points="283,25 312,25 312,10 342,40 312,70 312,55 283,55" fill="rgb(255,255,255)" fill-opacity="1.0" stroke="rgb(0,0,0)" stroke-width="2"  />
			<g>
				<title>Lactamase_B (PF00753)
"Metallo-beta-lactamase superfamily"</title>
				<polygon class="PF00753" points="324,28 326,28 338,40 326,52 324,52" stroke-linejoin="round" width="16" height="24" fill="rgb(206,198,96)" stroke="rgb(164,158,76)" stroke-width="1" opacity="0.75" />
			</g>
		</g>
		<g>
			<title> (ctg2471_14)</title>
			<polygon class=" (ctg2471_14)" points="343,25 347,25 347,10 377,40 347,70 347,55 343,55" fill="rgb(255,255,255)" fill-opacity="1.0" stroke="rgb(0,0,0)" stroke-width="2"  />
			<g>
				<title>SQS_PSY (PF00494)
"Squalene/phytoene synthase"</title>
				<polygon class="PF00494" points="344,28 361,28 373,40 373,40 361,52 344,52" stroke-linejoin="round" width="29" height="24" fill="rgb(178,91,49)" stroke="rgb(142,72,39)" stroke-width="1" opacity="0.75" />
			</g>
		</g>
		<g>
			<title> (ctg2471_15)</title>
			<polygon class=" (ctg2471_15)" points="376,25 382,25 382,10 412,40 382,70 382,55 376,55" fill="rgb(255,255,255)" fill-opacity="1.0" stroke="rgb(0,0,0)" stroke-width="2"  />
			<g>
				<title>SQS_PSY (PF00494)
"Squalene/phytoene synthase"</title>
				<polygon class="PF00494" points="379,28 396,28 408,40 408,40 396,52 379,52" stroke-linejoin="round" width="29" height="24" fill="rgb(178,91,49)" stroke="rgb(142,72,39)" stroke-width="1" opacity="0.75" />
			</g>
		</g>
		<g>
			<title> (ctg2471_16)</title>
			<polygon class=" (ctg2471_16)" points="416,40 443,10 443,70" fill="rgb(255,255,255)" fill-opacity="1.0" stroke="rgb(0,0,0)" stroke-width="2"  />
			<g>
				<title>OMP_b-brl (PF13505)
"Outer membrane protein beta-barrel domain"</title>
				<polygon class="PF13505" points="420,40 431,28 433,28 433,52 431,52" stroke-linejoin="round" width="17" height="24" fill="rgb(200,118,85)" stroke="rgb(160,94,67)" stroke-width="1" opacity="0.75" />
			</g>
		</g>
		<g>
			<title> (ctg2471_17)</title>
			<polygon class=" (ctg2471_17)" points="443,40 455,10 455,70" fill="rgb(255,255,255)" fill-opacity="1.0" stroke="rgb(0,0,0)" stroke-width="2"  />
		</g>
		<g>
			<title> (ctg2471_18)</title>
			<polygon class=" (ctg2471_18)" points="459,10 463,40 459,70" fill="rgb(255,255,255)" fill-opacity="1.0" stroke="rgb(0,0,0)" stroke-width="2"  />
		</g>
		<g>
			<title> (ctg2471_19)</title>
			<polygon class=" (ctg2471_19)" points="463,10 467,40 463,70" fill="rgb(255,255,255)" fill-opacity="1.0" stroke="rgb(0,0,0)" stroke-width="2"  />
		</g>
	</g>
</svg>
