<svg version="1.1" baseProfile="full" xmlns="http://www.w3.org/2000/svg" width="1064.8" height="80">
	<g>
		<line x1="10" y1="40.0" x2="1054.8" y2="40.0" style="stroke:rgb(70,70,70); stroke-width:3 "/>
		<g>
			<title> (ctg1451_1)</title>
			<polygon class=" (ctg1451_1)" points="41,25 40,25 40,10 10,40 40,70 40,55 41,55" fill="rgb(255,255,255)" fill-opacity="1.0" stroke="rgb(0,0,0)" stroke-width="2"  />
			<g>
				<title>RecA (PF00154)
"recA bacterial DNA recombination protein"</title>
				<polygon class="PF00154" points="14,40 26,28 38,28 38,52 26,52" stroke-linejoin="round" width="26" height="24" fill="rgb(191,79,162)" stroke="rgb(152,63,129)" stroke-width="1" opacity="0.75" />
			</g>
		</g>
		<g>
			<title> (ctg1451_2)</title>
			<polygon class=" (ctg1451_2)" points="45,10 53,40 45,70" fill="rgb(255,255,255)" fill-opacity="1.0" stroke="rgb(0,0,0)" stroke-width="2"  />
		</g>
		<g>
			<title> (ctg1451_3)</title>
			<polygon class=" (ctg1451_3)" points="52,40 78,10 78,70" fill="rgb(255,255,255)" fill-opacity="1.0" stroke="rgb(0,0,0)" stroke-width="2"  />
			<g>
				<title>P5CR_dimer (PF14748)
"Pyrroline-5-carboxylate reductase dimerisation"</title>
				<polygon class="PF14748" points="56,40 62,33 62,47" stroke-linejoin="round" width="10" height="24" fill="rgb(212,112,96)" stroke="rgb(169,89,76)" stroke-width="1" opacity="0.75" />
			</g>
			<g>
				<title>F420_oxidored (PF03807)
"NADP oxidoreductase coenzyme F420-dependent"</title>
				<rect class="PF03807" x="69" y="28" stroke-linejoin="round" width="9" height="24" fill="rgb(194,51,111)" stroke="rgb(155,40,88)" stroke-width="1" opacity="0.75" />
			</g>
		</g>
		<g>
			<title> (ctg1451_4)</title>
			<polygon class=" (ctg1451_4)" points="79,40 101,10 101,70" fill="rgb(255,255,255)" fill-opacity="1.0" stroke="rgb(0,0,0)" stroke-width="2"  />
			<g>
				<title>Ala_racemase_N (PF01168)
"Alanine racemase, N-terminal domain"</title>
				<polygon class="PF01168" points="83,40 92,28 100,28 100,52 92,52" stroke-linejoin="round" width="21" height="24" fill="rgb(87,82,180)" stroke="rgb(69,65,144)" stroke-width="1" opacity="0.75" />
			</g>
		</g>
		<g>
			<title> (ctg1451_5)</title>
			<polygon class=" (ctg1451_5)" points="104,40 112,10 112,70" fill="rgb(255,255,255)" fill-opacity="1.0" stroke="rgb(0,0,0)" stroke-width="2"  />
		</g>
		<g>
			<title> (ctg1451_6)</title>
			<polygon class=" (ctg1451_6)" points="115,10 120,40 115,70" fill="rgb(255,255,255)" fill-opacity="1.0" stroke="rgb(0,0,0)" stroke-width="2"  />
		</g>
		<g>
			<title> (ctg1451_7)</title>
			<polygon class=" (ctg1451_7)" points="177,25 167,25 167,10 137,40 167,70 167,55 177,55" fill="rgb(255,255,255)" fill-opacity="1.0" stroke="rgb(0,0,0)" stroke-width="2"  />
			<g>
				<title>RNA_pol_Rpb1_5 (PF04998)
"RNA polymerase Rpb1, domain 5"</title>
				<polygon class="PF04998" points="148,33 153,28 177,28 177,52 153,52 148,47" stroke-linejoin="round" width="29" height="24" fill="rgb(203,97,183)" stroke="rgb(162,77,146)" stroke-width="1" opacity="0.75" />
			</g>
		</g>
		<g>
			<title> (ctg1451_8)</title>
			<polygon class=" (ctg1451_8)" points="190,10 196,40 190,70" fill="rgb(255,255,255)" fill-opacity="1.0" stroke="rgb(0,0,0)" stroke-width="2"  />
		</g>
		<g>
			<title> (ctg1451_9)</title>
			<polygon class=" (ctg1451_9)" points="195,10 201,40 195,70" fill="rgb(255,255,255)" fill-opacity="1.0" stroke="rgb(0,0,0)" stroke-width="2"  />
		</g>
		<g>
			<title> (ctg1451_10)</title>
			<polygon class=" (ctg1451_10)" points="211,10 219,40 211,70" fill="rgb(255,255,255)" fill-opacity="1.0" stroke="rgb(0,0,0)" stroke-width="2"  />
		</g>
		<g>
			<title> (ctg1451_11)</title>
			<polygon class=" (ctg1451_11)" points="230,10 235,40 230,70" fill="rgb(255,255,255)" fill-opacity="1.0" stroke="rgb(0,0,0)" stroke-width="2"  />
		</g>
		<g>
			<title> (ctg1451_12)</title>
			<polygon class=" (ctg1451_12)" points="237,10 245,40 237,70" fill="rgb(255,255,255)" fill-opacity="1.0" stroke="rgb(0,0,0)" stroke-width="2"  />
		</g>
		<g>
			<title> (ctg1451_13)</title>
			<polygon class=" (ctg1451_13)" points="399,25 314,25 314,10 284,40 314,70 314,55 399,55" fill="rgb(255,255,255)" fill-opacity="1.0" stroke="rgb(0,0,0)" stroke-width="2"  />
			<g>
				<title>RNA_pol_Rpb2_7 (PF04560)
"RNA polymerase Rpb2, domain 7"</title>
				<polygon class="PF04560" points="288,40 294,34 294,46" stroke-linejoin="round" width="7" height="24" fill="rgb(212,179,66)" stroke="rgb(169,143,52)" stroke-width="1" opacity="0.75" />
			</g>
			<g>
				<title>RNA_pol_Rpb2_6 (PF00562)
"RNA polymerase Rpb2, domain 6"</title>
				<polygon class="PF00562" points="295,33 300,28 342,28 342,52 300,52 295,47" stroke-linejoin="round" width="47" height="24" fill="rgb(52,194,73)" stroke="rgb(41,155,58)" stroke-width="1" opacity="0.75" />
			</g>
			<g>
				<title>RNA_pol_Rpb2_45 (PF10385)
"RNA polymerase beta subunit external 1 domain"</title>
				<rect class="PF10385" x="349" y="28" stroke-linejoin="round" width="8" height="24" fill="rgb(199,95,150)" stroke="rgb(159,76,120)" stroke-width="1" opacity="0.75" />
			</g>
			<g>
				<title>RNA_pol_Rpb2_3 (PF04565)
"RNA polymerase Rpb2, domain 3"</title>
				<rect class="PF04565" x="362" y="28" stroke-linejoin="round" width="6" height="24" fill="rgb(217,183,85)" stroke="rgb(173,146,68)" stroke-width="1" opacity="0.75" />
			</g>
			<g>
				<title>RNA_pol_Rpb2_2 (PF04561)
"RNA polymerase Rpb2, domain 2"</title>
				<rect class="PF04561" x="374" y="28" stroke-linejoin="round" width="20" height="24" fill="rgb(211,228,95)" stroke="rgb(168,182,76)" stroke-width="1" opacity="0.75" />
			</g>
		</g>
		<g>
			<title> (ctg1451_14)</title>
			<polygon class=" (ctg1451_14)" points="477,25 453,25 453,10 423,40 453,70 453,55 477,55" fill="rgb(255,255,255)" fill-opacity="1.0" stroke="rgb(0,0,0)" stroke-width="2"  />
			<g>
				<title>MFS_1 (PF07690)
"Major Facilitator Superfamily"</title>
				<polygon class="PF07690" points="435,32 439,28 474,28 474,52 439,52 435,48" stroke-linejoin="round" width="39" height="24" fill="rgb(193,224,74)" stroke="rgb(154,179,59)" stroke-width="1" opacity="0.75" />
			</g>
		</g>
		<g>
			<title> (ctg1451_15)</title>
			<polygon class=" (ctg1451_15)" points="478,40 481,10 481,70" fill="rgb(255,255,255)" fill-opacity="1.0" stroke="rgb(0,0,0)" stroke-width="2"  />
		</g>
		<g>
			<title> (ctg1451_16)</title>
			<polygon class=" (ctg1451_16)" points="492,40 518,10 518,70" fill="rgb(255,255,255)" fill-opacity="1.0" stroke="rgb(0,0,0)" stroke-width="2"  />
			<g>
				<title>adh_short_C2 (PF13561)
"Enoyl-(Acyl carrier protein) reductase"</title>
				<polygon class="PF13561" points="496,40 507,28 516,28 516,52 507,52" stroke-linejoin="round" width="24" height="24" fill="rgb(73,205,127)" stroke="rgb(58,164,101)" stroke-width="1" opacity="0.75" />
			</g>
		</g>
		<g>
			<title> (ctg1451_17)</title>
			<polygon class=" (ctg1451_17)" points="522,25 560,25 560,10 590,40 560,70 560,55 522,55" fill="rgb(255,255,255)" fill-opacity="1.0" stroke="rgb(0,0,0)" stroke-width="2"  />
			<g>
				<title>Fer4_10 (PF13237)
"4Fe-4S dicluster domain"</title>
				<rect class="PF13237" x="549" y="28" stroke-linejoin="round" width="8" height="24" fill="rgb(174,91,190)" stroke="rgb(139,72,152)" stroke-width="1" opacity="0.75" />
			</g>
			<g>
				<title>CCG (PF02754)
"Cysteine-rich domain"</title>
				<rect class="PF02754" x="564" y="28" stroke-linejoin="round" width="8" height="24" fill="rgb(80,212,217)" stroke="rgb(64,169,173)" stroke-width="1" opacity="0.75" />
			</g>
			<g>
				<title>CCG (PF02754)
"Cysteine-rich domain"</title>
				<polygon class="PF02754" points="577,31 585,39 585,41 577,49" stroke-linejoin="round" width="8" height="24" fill="rgb(80,212,217)" stroke="rgb(64,169,173)" stroke-width="1" opacity="0.75" />
			</g>
		</g>
		<g>
			<title> (ctg1451_18)</title>
			<polygon class=" (ctg1451_18)" points="597,10 620,40 597,70" fill="rgb(255,255,255)" fill-opacity="1.0" stroke="rgb(0,0,0)" stroke-width="2"  />
			<g>
				<title>ETF (PF01012)
"Electron transfer flavoprotein domain"</title>
				<polygon class="PF01012" points="597,28 607,28 615,38 615,42 607,52 597,52" stroke-linejoin="round" width="18" height="24" fill="rgb(218,56,91)" stroke="rgb(174,44,72)" stroke-width="1" opacity="0.75" />
			</g>
		</g>
		<g>
			<title> (ctg1451_19)</title>
			<polygon class=" (ctg1451_19)" points="621,25 624,25 624,10 654,40 624,70 624,55 621,55" fill="rgb(255,255,255)" fill-opacity="1.0" stroke="rgb(0,0,0)" stroke-width="2"  />
			<g>
				<title>ETF (PF01012)
"Electron transfer flavoprotein domain"</title>
				<polygon class="PF01012" points="621,28 637,28 638,29 638,51 637,52 621,52" stroke-linejoin="round" width="17" height="24" fill="rgb(218,56,91)" stroke="rgb(174,44,72)" stroke-width="1" opacity="0.75" />
			</g>
			<g>
				<title>ETF_alpha (PF00766)
"Electron transfer flavoprotein FAD-binding domain"</title>
				<polygon class="PF00766" points="641,32 649,40 649,40 641,48" stroke-linejoin="round" width="8" height="24" fill="rgb(59,72,212)" stroke="rgb(47,57,169)" stroke-width="1" opacity="0.75" />
			</g>
		</g>
		<g>
			<title> (ctg1451_20)</title>
			<polygon class=" (ctg1451_20)" points="754,25 701,25 701,10 671,40 701,70 701,55 754,55" fill="rgb(255,255,255)" fill-opacity="1.0" stroke="rgb(0,0,0)" stroke-width="2"  />
			<g>
				<title>Acyltransferase (PF01553)
"Acyltransferase"</title>
				<polygon class="PF01553" points="675,40 687,28 688,28 688,52 687,52 675,40" stroke-linejoin="round" width="13" height="24" fill="rgb(87,176,216)" stroke="rgb(69,140,172)" stroke-width="1" opacity="0.75" />
			</g>
			<g>
				<title>PP-binding (PF00550)
"Phosphopantetheine attachment site"</title>
				<rect class="PF00550" x="693" y="28" stroke-linejoin="round" width="6" height="24" fill="rgb(103,191,88)" stroke="rgb(82,152,70)" stroke-width="1" opacity="0.75" />
			</g>
			<g>
				<title>AMP-binding_C (PF13193)
"AMP-binding enzyme C-terminal domain"</title>
				<rect class="PF13193" x="703" y="28" stroke-linejoin="round" width="7" height="24" fill="rgb(182,50,118)" stroke="rgb(145,39,94)" stroke-width="1" opacity="0.75" />
			</g>
			<g>
				<title>AMP-binding (PF00501)
"AMP-binding enzyme"</title>
				<rect class="PF00501" x="711" y="28" stroke-linejoin="round" width="41" height="24" fill="rgb(60,217,223)" stroke="rgb(48,173,178)" stroke-width="1" opacity="0.75" />
			</g>
		</g>
		<g>
			<title> (ctg1451_21)</title>
			<polygon class=" (ctg1451_21)" points="758,40 781,10 781,70" fill="rgb(255,255,255)" fill-opacity="1.0" stroke="rgb(0,0,0)" stroke-width="2"  />
			<g>
				<title>Lactamase_B (PF00753)
"Metallo-beta-lactamase superfamily"</title>
				<polygon class="PF00753" points="762,40 772,28 779,28 779,52 772,52" stroke-linejoin="round" width="19" height="24" fill="rgb(206,198,96)" stroke="rgb(164,158,76)" stroke-width="1" opacity="0.75" />
			</g>
		</g>
		<g>
			<title> (ctg1451_22)</title>
			<polygon class=" (ctg1451_22)" points="782,40 786,10 786,70" fill="rgb(255,255,255)" fill-opacity="1.0" stroke="rgb(0,0,0)" stroke-width="2"  />
		</g>
		<g>
			<title> (ctg1451_23)</title>
			<polygon class=" (ctg1451_23)" points="799,40 806,10 806,70" fill="rgb(255,255,255)" fill-opacity="1.0" stroke="rgb(0,0,0)" stroke-width="2"  />
		</g>
		<g>
			<title> (ctg1451_24)</title>
			<polygon class=" (ctg1451_24)" points="839,25 837,25 837,10 807,40 837,70 837,55 839,55" fill="rgb(255,255,255)" fill-opacity="1.0" stroke="rgb(0,0,0)" stroke-width="2"  />
			<g>
				<title>Lipocalin_9 (PF17186)
"Lipocalin-like domain"</title>
				<polygon class="PF17186" points="811,40 821,30 821,50" stroke-linejoin="round" width="13" height="24" fill="rgb(167,182,70)" stroke="rgb(133,145,56)" stroke-width="1" opacity="0.75" />
			</g>
			<g>
				<title>CrtC (PF07143)
"CrtC N-terminal lipocalin domain"</title>
				<polygon class="PF07143" points="822,29 823,28 837,28 837,52 823,52 822,51" stroke-linejoin="round" width="15" height="24" fill="rgb(190,88,139)" stroke="rgb(152,70,111)" stroke-width="1" opacity="0.75" />
			</g>
		</g>
		<g>
			<title> (ctg1451_25)</title>
			<polygon class=" (ctg1451_25)" points="850,40 860,10 860,70" fill="rgb(255,255,255)" fill-opacity="1.0" stroke="rgb(0,0,0)" stroke-width="2"  />
		</g>
		<g>
			<title> (ctg1451_26)</title>
			<polygon class=" (ctg1451_26)" points="872,40 892,10 892,70" fill="rgb(255,255,255)" fill-opacity="1.0" stroke="rgb(0,0,0)" stroke-width="2"  />
		</g>
		<g>
			<title> (ctg1451_27)</title>
			<polygon class=" (ctg1451_27)" points="893,40 904,10 904,70" fill="rgb(255,255,255)" fill-opacity="1.0" stroke="rgb(0,0,0)" stroke-width="2"  />
		</g>
		<g>
			<title> (ctg1451_28)</title>
			<polygon class=" (ctg1451_28)" points="904,40 913,10 913,70" fill="rgb(255,255,255)" fill-opacity="1.0" stroke="rgb(0,0,0)" stroke-width="2"  />
		</g>
		<g>
			<title> (ctg1451_29)</title>
			<polygon class=" (ctg1451_29)" points="937,25 948,25 948,10 978,40 948,70 948,55 937,55" fill="rgb(255,255,255)" fill-opacity="1.0" stroke="rgb(0,0,0)" stroke-width="2"  />
			<g>
				<title>DEAD (PF00270)
"DEAD/DEAH box helicase"</title>
				<rect class="PF00270" x="943" y="28" stroke-linejoin="round" width="16" height="24" fill="rgb(195,100,62)" stroke="rgb(156,80,49)" stroke-width="1" opacity="0.75" />
			</g>
			<g>
				<title>Helicase_C (PF00271)
"Helicase conserved C-terminal domain"</title>
				<polygon class="PF00271" points="963,29 973,39 973,41 963,51" stroke-linejoin="round" width="10" height="24" fill="rgb(104,224,158)" stroke="rgb(83,179,126)" stroke-width="1" opacity="0.75" />
			</g>
		</g>
		<g>
			<title> (ctg1451_30)</title>
			<polygon class=" (ctg1451_30)" points="988,10 1006,40 988,70" fill="rgb(255,255,255)" fill-opacity="1.0" stroke="rgb(0,0,0)" stroke-width="2"  />
			<g>
				<title>DUF1863 (PF08937)
"MTH538 TIR-like domain (DUF1863)"</title>
				<polygon class="PF08937" points="988,28 995,28 1000,35 1000,45 995,52 988,52" stroke-linejoin="round" width="12" height="24" fill="rgb(222,84,105)" stroke="rgb(177,67,84)" stroke-width="1" opacity="0.75" />
			</g>
		</g>
		<g>
			<title> (ctg1451_31)</title>
			<polygon class=" (ctg1451_31)" points="1012,10 1022,40 1012,70" fill="rgb(255,255,255)" fill-opacity="1.0" stroke="rgb(0,0,0)" stroke-width="2"  />
		</g>
		<g>
			<title> (ctg1451_32)</title>
			<polygon class=" (ctg1451_32)" points="1024,10 1040,40 1024,70" fill="rgb(255,255,255)" fill-opacity="1.0" stroke="rgb(0,0,0)" stroke-width="2"  />
			<g>
				<title>AhpC-TSA (PF00578)
"AhpC/TSA family"</title>
				<polygon class="PF00578" points="1024,28 1030,28 1034,34 1034,46 1030,52 1024,52" stroke-linejoin="round" width="10" height="24" fill="rgb(166,71,190)" stroke="rgb(132,56,152)" stroke-width="1" opacity="0.75" />
			</g>
		</g>
		<g>
			<title> (ctg1451_33)</title>
			<polygon class=" (ctg1451_33)" points="1042,10 1054,40 1042,70" fill="rgb(255,255,255)" fill-opacity="1.0" stroke="rgb(0,0,0)" stroke-width="2"  />
		</g>
	</g>
</svg>
