<svg version="1.1" baseProfile="full" xmlns="http://www.w3.org/2000/svg" width="916.9" height="80">
	<g>
		<line x1="10" y1="40.0" x2="906.9" y2="40.0" style="stroke:rgb(70,70,70); stroke-width:3 "/>
		<g>
			<title> (ctg1834_1)</title>
			<polygon class=" (ctg1834_1)" points="10,40 12,10 12,70" fill="rgb(255,255,255)" fill-opacity="1.0" stroke="rgb(0,0,0)" stroke-width="2"  />
		</g>
		<g>
			<title> (ctg1834_2)</title>
			<polygon class=" (ctg1834_2)" points="12,40 36,10 36,70" fill="rgb(255,255,255)" fill-opacity="1.0" stroke="rgb(0,0,0)" stroke-width="2"  />
			<g>
				<title>Glycos_transf_1 (PF00534)
"Glycosyl transferases group 1"</title>
				<polygon class="PF00534" points="16,40 26,28 30,28 30,52 26,52" stroke-linejoin="round" width="16" height="24" fill="rgb(228,92,150)" stroke="rgb(182,73,119)" stroke-width="1" opacity="0.75" />
			</g>
		</g>
		<g>
			<title> (ctg1834_3)</title>
			<polygon class=" (ctg1834_3)" points="41,10 49,40 41,70" fill="rgb(255,255,255)" fill-opacity="1.0" stroke="rgb(0,0,0)" stroke-width="2"  />
		</g>
		<g>
			<title> (ctg1834_4)</title>
			<polygon class=" (ctg1834_4)" points="59,25 71,25 71,10 101,40 71,70 71,55 59,55" fill="rgb(255,255,255)" fill-opacity="1.0" stroke="rgb(0,0,0)" stroke-width="2"  />
			<g>
				<title>ATP-grasp_4 (PF13535)
"ATP-grasp domain"</title>
				<polygon class="PF13535" points="73,28 85,28 88,31 88,49 85,52 73,52" stroke-linejoin="round" width="15" height="24" fill="rgb(197,156,74)" stroke="rgb(157,124,59)" stroke-width="1" opacity="0.75" />
			</g>
			<g>
				<title>LAL_C2 (PF18603)
"L-amino acid ligase C-terminal domain 2"</title>
				<polygon class="PF18603" points="93,36 97,40 93,44" stroke-linejoin="round" width="7" height="24" fill="rgb(222,105,84)" stroke="rgb(177,84,67)" stroke-width="1" opacity="0.75" />
			</g>
		</g>
		<g>
			<title> (ctg1834_5)</title>
			<polygon class=" (ctg1834_5)" points="110,10 115,40 110,70" fill="rgb(255,255,255)" fill-opacity="1.0" stroke="rgb(0,0,0)" stroke-width="2"  />
			<g>
				<title>MttA_Hcf106 (PF02416)
"mttA/Hcf106 family"</title>
				<polygon class="PF02416" points="110,27 112,40 110,53" stroke-linejoin="round" width="5" height="24" fill="rgb(74,206,98)" stroke="rgb(59,164,78)" stroke-width="1" opacity="0.75" />
			</g>
		</g>
		<g>
			<title> (ctg1834_6)</title>
			<polygon class=" (ctg1834_6)" points="116,10 143,40 116,70" fill="rgb(255,255,255)" fill-opacity="1.0" stroke="rgb(0,0,0)" stroke-width="2"  />
			<g>
				<title>TatC (PF00902)
"Sec-independent protein translocase protein (TatC)"</title>
				<polygon class="PF00902" points="117,28 128,28 139,40 128,52 117,52" stroke-linejoin="round" width="24" height="24" fill="rgb(84,193,209)" stroke="rgb(67,154,167)" stroke-width="1" opacity="0.75" />
			</g>
		</g>
		<g>
			<title> (ctg1834_7)</title>
			<polygon class=" (ctg1834_7)" points="143,10 167,40 143,70" fill="rgb(255,255,255)" fill-opacity="1.0" stroke="rgb(0,0,0)" stroke-width="2"  />
			<g>
				<title>zf-RING_7 (PF02591)
"C4-type zinc ribbon domain"</title>
				<polygon class="PF02591" points="163,39 164,40 163,41" stroke-linejoin="round" width="3" height="24" fill="rgb(119,192,51)" stroke="rgb(95,153,40)" stroke-width="1" opacity="0.75" />
			</g>
		</g>
		<g>
			<title> (ctg1834_8)</title>
			<polygon class=" (ctg1834_8)" points="169,10 172,40 169,70" fill="rgb(255,255,255)" fill-opacity="1.0" stroke="rgb(0,0,0)" stroke-width="2"  />
		</g>
		<g>
			<title> (ctg1834_9)</title>
			<polygon class=" (ctg1834_9)" points="174,40 177,10 177,70" fill="rgb(255,255,255)" fill-opacity="1.0" stroke="rgb(0,0,0)" stroke-width="2"  />
		</g>
		<g>
			<title> (ctg1834_10)</title>
			<polygon class=" (ctg1834_10)" points="179,10 185,40 179,70" fill="rgb(255,255,255)" fill-opacity="1.0" stroke="rgb(0,0,0)" stroke-width="2"  />
		</g>
		<g>
			<title> (ctg1834_11)</title>
			<polygon class=" (ctg1834_11)" points="186,40 196,10 196,70" fill="rgb(255,255,255)" fill-opacity="1.0" stroke="rgb(0,0,0)" stroke-width="2"  />
		</g>
		<g>
			<title> (ctg1834_12)</title>
			<polygon class=" (ctg1834_12)" points="203,10 212,40 203,70" fill="rgb(255,255,255)" fill-opacity="1.0" stroke="rgb(0,0,0)" stroke-width="2"  />
		</g>
		<g>
			<title> (ctg1834_13)</title>
			<polygon class=" (ctg1834_13)" points="211,10 238,40 211,70" fill="rgb(255,255,255)" fill-opacity="1.0" stroke="rgb(0,0,0)" stroke-width="2"  />
			<g>
				<title>TPR_1 (PF00515)
"Tetratricopeptide repeat"</title>
				<rect class="PF00515" x="218" y="28" stroke-linejoin="round" width="3" height="24" fill="rgb(193,73,189)" stroke="rgb(154,58,151)" stroke-width="1" opacity="0.75" />
			</g>
			<g>
				<title>TPR_1 (PF00515)
"Tetratricopeptide repeat"</title>
				<polygon class="PF00515" points="228,33 231,36 231,44 228,47" stroke-linejoin="round" width="3" height="24" fill="rgb(193,73,189)" stroke="rgb(154,58,151)" stroke-width="1" opacity="0.75" />
			</g>
		</g>
		<g>
			<title> (ctg1834_14)</title>
			<polygon class=" (ctg1834_14)" points="243,10 247,40 243,70" fill="rgb(255,255,255)" fill-opacity="1.0" stroke="rgb(0,0,0)" stroke-width="2"  />
		</g>
		<g>
			<title> (ctg1834_15)</title>
			<polygon class=" (ctg1834_15)" points="247,10 252,40 247,70" fill="rgb(255,255,255)" fill-opacity="1.0" stroke="rgb(0,0,0)" stroke-width="2"  />
		</g>
		<g>
			<title> (ctg1834_16)</title>
			<polygon class=" (ctg1834_16)" points="288,25 282,25 282,10 252,40 282,70 282,55 288,55" fill="rgb(255,255,255)" fill-opacity="1.0" stroke="rgb(0,0,0)" stroke-width="2"  />
			<g>
				<title>Aminotran_1_2 (PF00155)
"Aminotransferase class I and II"</title>
				<polygon class="PF00155" points="256,40 268,28 287,28 287,52 268,52" stroke-linejoin="round" width="34" height="24" fill="rgb(89,113,198)" stroke="rgb(71,90,158)" stroke-width="1" opacity="0.75" />
			</g>
		</g>
		<g>
			<title> (ctg1834_17)</title>
			<polygon class=" (ctg1834_17)" points="336,25 322,25 322,10 292,40 322,70 322,55 336,55" fill="rgb(255,255,255)" fill-opacity="1.0" stroke="rgb(0,0,0)" stroke-width="2"  />
			<g>
				<title>Melibiase (PF02065)
"Melibiase"</title>
				<rect class="PF02065" x="321" y="28" stroke-linejoin="round" width="14" height="24" fill="rgb(74,185,172)" stroke="rgb(59,148,137)" stroke-width="1" opacity="0.75" />
			</g>
		</g>
		<g>
			<title> (ctg1834_18)</title>
			<polygon class=" (ctg1834_18)" points="342,10 350,40 342,70" fill="rgb(255,255,255)" fill-opacity="1.0" stroke="rgb(0,0,0)" stroke-width="2"  />
		</g>
		<g>
			<title> (ctg1834_19)</title>
			<polygon class=" (ctg1834_19)" points="386,40 390,10 390,70" fill="rgb(255,255,255)" fill-opacity="1.0" stroke="rgb(0,0,0)" stroke-width="2"  />
		</g>
		<g>
			<title> (ctg1834_20)</title>
			<polygon class=" (ctg1834_20)" points="389,40 399,10 399,70" fill="rgb(255,255,255)" fill-opacity="1.0" stroke="rgb(0,0,0)" stroke-width="2"  />
		</g>
		<g>
			<title> (ctg1834_21)</title>
			<polygon class=" (ctg1834_21)" points="399,40 413,10 413,70" fill="rgb(255,255,255)" fill-opacity="1.0" stroke="rgb(0,0,0)" stroke-width="2"  />
		</g>
		<g>
			<title> (ctg1834_22)</title>
			<polygon class=" (ctg1834_22)" points="413,40 418,10 418,70" fill="rgb(255,255,255)" fill-opacity="1.0" stroke="rgb(0,0,0)" stroke-width="2"  />
		</g>
		<g>
			<title> (ctg1834_23)</title>
			<polygon class=" (ctg1834_23)" points="453,25 449,25 449,10 419,40 449,70 449,55 453,55" fill="rgb(255,255,255)" fill-opacity="1.0" stroke="rgb(0,0,0)" stroke-width="2"  />
		</g>
		<g>
			<title> (ctg1834_24)</title>
			<polygon class=" (ctg1834_24)" points="455,10 462,40 455,70" fill="rgb(255,255,255)" fill-opacity="1.0" stroke="rgb(0,0,0)" stroke-width="2"  />
		</g>
		<g>
			<title> (ctg1834_25)</title>
			<polygon class=" (ctg1834_25)" points="468,40 471,10 471,70" fill="rgb(255,255,255)" fill-opacity="1.0" stroke="rgb(0,0,0)" stroke-width="2"  />
		</g>
		<g>
			<title> (ctg1834_26)</title>
			<polygon class=" (ctg1834_26)" points="479,40 491,10 491,70" fill="rgb(255,255,255)" fill-opacity="1.0" stroke="rgb(0,0,0)" stroke-width="2"  />
		</g>
		<g>
			<title> (ctg1834_27)</title>
			<polygon class=" (ctg1834_27)" points="498,40 522,10 522,70" fill="rgb(255,255,255)" fill-opacity="1.0" stroke="rgb(0,0,0)" stroke-width="2"  />
			<g>
				<title>HAD (PF12710)
"haloacid dehalogenase-like hydrolase"</title>
				<polygon class="PF12710" points="502,40 512,28 519,28 519,52 512,52" stroke-linejoin="round" width="18" height="24" fill="rgb(181,59,119)" stroke="rgb(144,47,95)" stroke-width="1" opacity="0.75" />
			</g>
		</g>
		<g>
			<title> (ctg1834_28)</title>
			<polygon class=" (ctg1834_28)" points="667,25 552,25 552,10 522,40 552,70 552,55 667,55" fill="rgb(255,255,255)" fill-opacity="1.0" stroke="rgb(0,0,0)" stroke-width="2"  />
			<g>
				<title>Acyltransferase (PF01553)
"Acyltransferase"</title>
				<polygon class="PF01553" points="528,38 538,28 541,28 541,52 538,52 528,42" stroke-linejoin="round" width="13" height="24" fill="rgb(87,176,216)" stroke="rgb(69,140,172)" stroke-width="1" opacity="0.75" />
			</g>
			<g>
				<title>PP-binding (PF00550)
"Phosphopantetheine attachment site"</title>
				<rect class="PF00550" x="546" y="28" stroke-linejoin="round" width="6" height="24" fill="rgb(103,191,88)" stroke="rgb(82,152,70)" stroke-width="1" opacity="0.75" />
			</g>
			<g>
				<title>AMP-binding_C (PF13193)
"AMP-binding enzyme C-terminal domain"</title>
				<rect class="PF13193" x="557" y="28" stroke-linejoin="round" width="8" height="24" fill="rgb(182,50,118)" stroke="rgb(145,39,94)" stroke-width="1" opacity="0.75" />
			</g>
			<g>
				<title>AMP-binding (PF00501)
"AMP-binding enzyme"</title>
				<rect class="PF00501" x="567" y="28" stroke-linejoin="round" width="42" height="24" fill="rgb(60,217,223)" stroke="rgb(48,173,178)" stroke-width="1" opacity="0.75" />
			</g>
			<g>
				<title>Sterile (PF03015)
"Male sterility protein"</title>
				<rect class="PF03015" x="613" y="28" stroke-linejoin="round" width="9" height="24" fill="rgb(157,58,225)" stroke="rgb(125,46,180)" stroke-width="1" opacity="0.75" />
			</g>
			<g>
				<title>NAD_binding_4 (PF07993)
"Male sterility protein"</title>
				<rect class="PF07993" x="630" y="28" stroke-linejoin="round" width="34" height="24" fill="rgb(100,212,204)" stroke="rgb(80,169,163)" stroke-width="1" opacity="0.75" />
			</g>
		</g>
		<g>
			<title> (ctg1834_29)</title>
			<polygon class=" (ctg1834_29)" points="682,10 703,40 682,70" fill="rgb(255,255,255)" fill-opacity="1.0" stroke="rgb(0,0,0)" stroke-width="2"  />
			<g>
				<title>CYTH (PF01928)
"CYTH domain"</title>
				<polygon class="PF01928" points="685,28 691,28 699,40 691,52 685,52" stroke-linejoin="round" width="16" height="24" fill="rgb(184,209,78)" stroke="rgb(147,167,62)" stroke-width="1" opacity="0.75" />
			</g>
		</g>
		<g>
			<title> (ctg1834_30)</title>
			<polygon class=" (ctg1834_30)" points="736,25 735,25 735,10 705,40 735,70 735,55 736,55" fill="rgb(255,255,255)" fill-opacity="1.0" stroke="rgb(0,0,0)" stroke-width="2"  />
			<g>
				<title>Amidohydro_2 (PF04909)
"Amidohydrolase"</title>
				<polygon class="PF04909" points="709,40 721,28 732,28 732,52 721,52" stroke-linejoin="round" width="27" height="24" fill="rgb(95,225,123)" stroke="rgb(76,180,98)" stroke-width="1" opacity="0.75" />
			</g>
		</g>
		<g>
			<title> (ctg1834_31)</title>
			<polygon class=" (ctg1834_31)" points="735,40 739,10 739,70" fill="rgb(255,255,255)" fill-opacity="1.0" stroke="rgb(0,0,0)" stroke-width="2"  />
		</g>
		<g>
			<title> (ctg1834_32)</title>
			<polygon class=" (ctg1834_32)" points="761,25 764,25 764,10 794,40 764,70 764,55 761,55" fill="rgb(255,255,255)" fill-opacity="1.0" stroke="rgb(0,0,0)" stroke-width="2"  />
			<g>
				<title>Lyase_1 (PF00206)
"Lyase"</title>
				<rect class="PF00206" x="761" y="28" stroke-linejoin="round" width="12" height="24" fill="rgb(217,92,141)" stroke="rgb(173,73,112)" stroke-width="1" opacity="0.75" />
			</g>
			<g>
				<title>ASL_C2 (PF14698)
"Argininosuccinate lyase C-terminal"</title>
				<polygon class="PF14698" points="780,31 787,38 787,42 780,49" stroke-linejoin="round" width="7" height="24" fill="rgb(107,69,187)" stroke="rgb(85,55,149)" stroke-width="1" opacity="0.75" />
			</g>
		</g>
		<g>
			<title> (ctg1834_33)</title>
			<polygon class=" (ctg1834_33)" points="792,40 796,10 796,70" fill="rgb(255,255,255)" fill-opacity="1.0" stroke="rgb(0,0,0)" stroke-width="2"  />
		</g>
		<g>
			<title> (ctg1834_34)</title>
			<polygon class=" (ctg1834_34)" points="807,10 821,40 807,70" fill="rgb(255,255,255)" fill-opacity="1.0" stroke="rgb(0,0,0)" stroke-width="2"  />
			<g>
				<title>DPBB_1 (PF03330)
"Lytic transglycolase"</title>
				<polygon class="PF03330" points="811,28 812,28 818,40 812,52 811,52" stroke-linejoin="round" width="9" height="24" fill="rgb(64,117,187)" stroke="rgb(51,93,149)" stroke-width="1" opacity="0.75" />
			</g>
		</g>
		<g>
			<title> (ctg1834_35)</title>
			<polygon class=" (ctg1834_35)" points="822,10 846,40 822,70" fill="rgb(255,255,255)" fill-opacity="1.0" stroke="rgb(0,0,0)" stroke-width="2"  />
			<g>
				<title>OMPdecase (PF00215)
"Orotidine 5'-phosphate decarboxylase / HUMPS family"</title>
				<polygon class="PF00215" points="822,28 832,28 842,40 832,52 822,52" stroke-linejoin="round" width="22" height="24" fill="rgb(127,77,227)" stroke="rgb(101,61,181)" stroke-width="1" opacity="0.75" />
			</g>
		</g>
		<g>
			<title> (ctg1834_36)</title>
			<polygon class=" (ctg1834_36)" points="857,25 876,25 876,10 906,40 876,70 876,55 857,55" fill="rgb(255,255,255)" fill-opacity="1.0" stroke="rgb(0,0,0)" stroke-width="2"  />
			<g>
				<title>GTP_EFTU (PF00009)
"Elongation factor Tu GTP binding domain"</title>
				<rect class="PF00009" x="857" y="28" stroke-linejoin="round" width="18" height="24" fill="rgb(196,118,83)" stroke="rgb(156,94,66)" stroke-width="1" opacity="0.75" />
			</g>
			<g>
				<title>GTP_EFTU_D2 (PF03144)
"Elongation factor Tu domain 2"</title>
				<rect class="PF03144" x="877" y="28" stroke-linejoin="round" width="7" height="24" fill="rgb(69,184,189)" stroke="rgb(55,147,151)" stroke-width="1" opacity="0.75" />
			</g>
			<g>
				<title>EFG_C (PF00679)
"Elongation factor G C-terminus"</title>
				<polygon class="PF00679" points="897,35 902,40 897,45" stroke-linejoin="round" width="8" height="24" fill="rgb(136,208,97)" stroke="rgb(108,166,77)" stroke-width="1" opacity="0.75" />
			</g>
		</g>
	</g>
</svg>
