<svg version="1.1" baseProfile="full" xmlns="http://www.w3.org/2000/svg" width="710.0666666666667" height="80">
	<g>
		<line x1="10" y1="40.0" x2="700.0666666666667" y2="40.0" style="stroke:rgb(70,70,70); stroke-width:3 "/>
		<g>
			<title> (ctg310_23)</title>
			<polygon class=" (ctg310_23)" points="24,10 32,40 24,70" fill="rgb(255,255,255)" fill-opacity="1.0" stroke="rgb(0,0,0)" stroke-width="2"  />
		</g>
		<g>
			<title> (ctg310_24)</title>
			<polygon class=" (ctg310_24)" points="35,10 46,40 35,70" fill="rgb(255,255,255)" fill-opacity="1.0" stroke="rgb(0,0,0)" stroke-width="2"  />
			<g>
				<title>AhpC-TSA (PF00578)
"AhpC/TSA family"</title>
				<polygon class="PF00578" points="35,28 38,28 42,40 38,52 35,52" stroke-linejoin="round" width="8" height="24" fill="rgb(166,71,190)" stroke="rgb(132,56,152)" stroke-width="1" opacity="0.75" />
			</g>
		</g>
		<g>
			<title> (ctg310_25)</title>
			<polygon class=" (ctg310_25)" points="46,40 72,10 72,70" fill="rgb(255,255,255)" fill-opacity="1.0" stroke="rgb(0,0,0)" stroke-width="2"  />
		</g>
		<g>
			<title> (ctg310_26)</title>
			<polygon class=" (ctg310_26)" points="150,25 103,25 103,10 73,40 103,70 103,55 150,55" fill="rgb(255,255,255)" fill-opacity="1.0" stroke="rgb(0,0,0)" stroke-width="2"  />
			<g>
				<title>Penicil_amidase (PF01804)
"Penicillin amidase"</title>
				<polygon class="PF01804" points="77,40 89,28 143,28 143,52 89,52" stroke-linejoin="round" width="69" height="24" fill="rgb(62,133,186)" stroke="rgb(49,106,148)" stroke-width="1" opacity="0.75" />
			</g>
		</g>
		<g>
			<title> (ctg310_27)</title>
			<polygon class=" (ctg310_27)" points="157,25 186,25 186,10 216,40 186,70 186,55 157,55" fill="rgb(255,255,255)" fill-opacity="1.0" stroke="rgb(0,0,0)" stroke-width="2"  />
		</g>
		<g>
			<title> (ctg310_28)</title>
			<polygon class=" (ctg310_28)" points="263,25 250,25 250,10 220,40 250,70 250,55 263,55" fill="rgb(255,255,255)" fill-opacity="1.0" stroke="rgb(0,0,0)" stroke-width="2"  />
			<g>
				<title>DUF5128 (PF17170)
"6-bladed beta-propeller"</title>
				<rect class="PF17170" x="249" y="28" stroke-linejoin="round" width="9" height="24" fill="rgb(67,171,188)" stroke="rgb(53,136,150)" stroke-width="1" opacity="0.75" />
			</g>
		</g>
		<g>
			<title> (ctg310_29)</title>
			<polygon class=" (ctg310_29)" points="277,10 288,40 277,70" fill="rgb(255,255,255)" fill-opacity="1.0" stroke="rgb(0,0,0)" stroke-width="2"  />
		</g>
		<g>
			<title> (ctg310_30)</title>
			<polygon class=" (ctg310_30)" points="301,10 310,40 301,70" fill="rgb(255,255,255)" fill-opacity="1.0" stroke="rgb(0,0,0)" stroke-width="2"  />
		</g>
		<g>
			<title> (ctg310_31)</title>
			<polygon class=" (ctg310_31)" points="343,40 366,10 366,70" fill="rgb(255,255,255)" fill-opacity="1.0" stroke="rgb(0,0,0)" stroke-width="2"  />
			<g>
				<title>SQS_PSY (PF00494)
"Squalene/phytoene synthase"</title>
				<polygon class="PF00494" points="347,40 356,28 365,28 365,52 356,52" stroke-linejoin="round" width="19" height="24" fill="rgb(178,91,49)" stroke="rgb(142,72,39)" stroke-width="1" opacity="0.75" />
			</g>
		</g>
		<g>
			<title> (ctg310_32)</title>
			<polygon class=" (ctg310_32)" points="378,10 387,40 378,70" fill="rgb(255,255,255)" fill-opacity="1.0" stroke="rgb(0,0,0)" stroke-width="2"  />
			<g>
				<title>Pterin_4a (PF01329)
"Pterin 4 alpha carbinolamine dehydratase"</title>
				<polygon class="PF01329" points="378,28 380,28 384,40 380,52 378,52" stroke-linejoin="round" width="8" height="24" fill="rgb(109,209,90)" stroke="rgb(87,167,72)" stroke-width="1" opacity="0.75" />
			</g>
		</g>
		<g>
			<title> (ctg310_33)</title>
			<polygon class=" (ctg310_33)" points="429,25 417,25 417,10 387,40 417,70 417,55 429,55" fill="rgb(255,255,255)" fill-opacity="1.0" stroke="rgb(0,0,0)" stroke-width="2"  />
			<g>
				<title>Aminotran_3 (PF00202)
"Aminotransferase class-III"</title>
				<polygon class="PF00202" points="391,40 403,28 426,28 426,52 403,52" stroke-linejoin="round" width="39" height="24" fill="rgb(49,163,189)" stroke="rgb(39,130,151)" stroke-width="1" opacity="0.75" />
			</g>
		</g>
		<g>
			<title> (ctg310_34)</title>
			<polygon class=" (ctg310_34)" points="461,25 459,25 459,10 429,40 459,70 459,55 461,55" fill="rgb(255,255,255)" fill-opacity="1.0" stroke="rgb(0,0,0)" stroke-width="2"  />
			<g>
				<title>Na_Ca_ex (PF01699)
"Sodium/calcium exchanger protein"</title>
				<polygon class="PF01699" points="433,40 443,30 443,50" stroke-linejoin="round" width="14" height="24" fill="rgb(64,189,136)" stroke="rgb(51,151,108)" stroke-width="1" opacity="0.75" />
			</g>
			<g>
				<title>Na_Ca_ex (PF01699)
"Sodium/calcium exchanger protein"</title>
				<rect class="PF01699" x="446" y="28" stroke-linejoin="round" width="14" height="24" fill="rgb(64,189,136)" stroke="rgb(51,151,108)" stroke-width="1" opacity="0.75" />
			</g>
		</g>
		<g>
			<title> (ctg310_35)</title>
			<polygon class=" (ctg310_35)" points="518,25 492,25 492,10 462,40 492,70 492,55 518,55" fill="rgb(255,255,255)" fill-opacity="1.0" stroke="rgb(0,0,0)" stroke-width="2"  />
			<g>
				<title>PHP (PF02811)
"PHP domain"</title>
				<polygon class="PF02811" points="466,40 478,28 484,28 484,52 478,52" stroke-linejoin="round" width="20" height="24" fill="rgb(167,87,219)" stroke="rgb(133,69,175)" stroke-width="1" opacity="0.75" />
			</g>
			<g>
				<title>HHH_5 (PF14520)
"Helix-hairpin-helix domain"</title>
				<rect class="PF14520" x="503" y="28" stroke-linejoin="round" width="5" height="24" fill="rgb(118,220,87)" stroke="rgb(94,176,69)" stroke-width="1" opacity="0.75" />
			</g>
			<g>
				<title>HHH_8 (PF14716)
"Helix-hairpin-helix domain"</title>
				<rect class="PF14716" x="510" y="28" stroke-linejoin="round" width="7" height="24" fill="rgb(83,210,138)" stroke="rgb(66,168,110)" stroke-width="1" opacity="0.75" />
			</g>
		</g>
		<g>
			<title> (ctg310_36)</title>
			<polygon class=" (ctg310_36)" points="589,25 548,25 548,10 518,40 548,70 548,55 589,55" fill="rgb(255,255,255)" fill-opacity="1.0" stroke="rgb(0,0,0)" stroke-width="2"  />
			<g>
				<title>BRCT (PF00533)
"BRCA1 C Terminus (BRCT) domain"</title>
				<polygon class="PF00533" points="522,40 528,34 528,46" stroke-linejoin="round" width="7" height="24" fill="rgb(69,217,144)" stroke="rgb(55,173,115)" stroke-width="1" opacity="0.75" />
			</g>
			<g>
				<title>HHH_2 (PF12826)
"Helix-hairpin-helix motif"</title>
				<polygon class="PF12826" points="530,32 534,28 536,28 536,52 534,52 530,48" stroke-linejoin="round" width="6" height="24" fill="rgb(223,81,103)" stroke="rgb(178,64,82)" stroke-width="1" opacity="0.75" />
			</g>
			<g>
				<title>DNA_ligase_OB (PF03120)
"NAD-dependent DNA ligase OB-fold domain"</title>
				<rect class="PF03120" x="547" y="28" stroke-linejoin="round" width="7" height="24" fill="rgb(67,220,154)" stroke="rgb(53,176,123)" stroke-width="1" opacity="0.75" />
			</g>
			<g>
				<title>DNA_ligase_aden (PF01653)
"NAD-dependent DNA ligase adenylation domain"</title>
				<rect class="PF01653" x="556" y="28" stroke-linejoin="round" width="31" height="24" fill="rgb(49,184,68)" stroke="rgb(39,147,54)" stroke-width="1" opacity="0.75" />
			</g>
		</g>
		<g>
			<title> (ctg310_37)</title>
			<polygon class=" (ctg310_37)" points="595,25 618,25 618,10 648,40 618,70 618,55 595,55" fill="rgb(255,255,255)" fill-opacity="1.0" stroke="rgb(0,0,0)" stroke-width="2"  />
		</g>
		<g>
			<title> (ctg310_38)</title>
			<polygon class=" (ctg310_38)" points="651,10 680,40 651,70" fill="rgb(255,255,255)" fill-opacity="1.0" stroke="rgb(0,0,0)" stroke-width="2"  />
			<g>
				<title>N6_N4_Mtase (PF01555)
"DNA methylase"</title>
				<polygon class="PF01555" points="653,28 663,28 675,40 663,52 653,52" stroke-linejoin="round" width="24" height="24" fill="rgb(54,198,162)" stroke="rgb(43,158,129)" stroke-width="1" opacity="0.75" />
			</g>
		</g>
	</g>
</svg>
