<svg version="1.1" baseProfile="full" xmlns="http://www.w3.org/2000/svg" width="1498.7333333333333" height="80">
	<g>
		<line x1="10" y1="40.0" x2="1488.7333333333333" y2="40.0" style="stroke:rgb(70,70,70); stroke-width:3 "/>
		<g>
			<title> (ctg439_12)</title>
			<polygon class=" (ctg439_12)" points="37,25 41,25 41,10 71,40 41,70 41,55 37,55" fill="rgb(255,255,255)" fill-opacity="1.0" stroke="rgb(0,0,0)" stroke-width="2"  />
			<g>
				<title>VWA (PF00092)
"von Willebrand factor type A domain"</title>
				<polygon class="PF00092" points="45,28 54,28 65,39 65,41 54,52 45,52" stroke-linejoin="round" width="20" height="24" fill="rgb(199,215,59)" stroke="rgb(159,172,47)" stroke-width="1" opacity="0.75" />
			</g>
		</g>
		<g>
			<title> (ctg439_13)</title>
			<polygon class=" (ctg439_13)" points="109,25 106,25 106,10 76,40 106,70 106,55 109,55" fill="rgb(255,255,255)" fill-opacity="1.0" stroke="rgb(0,0,0)" stroke-width="2"  />
			<g>
				<title>BPD_transp_2 (PF02653)
"Branched-chain amino acid transport system / permease component"</title>
				<polygon class="PF02653" points="80,40 92,28 104,28 104,52 92,52" stroke-linejoin="round" width="27" height="24" fill="rgb(69,130,196)" stroke="rgb(55,104,156)" stroke-width="1" opacity="0.75" />
			</g>
		</g>
		<g>
			<title> (ctg439_14)</title>
			<polygon class=" (ctg439_14)" points="109,40 138,10 138,70" fill="rgb(255,255,255)" fill-opacity="1.0" stroke="rgb(0,0,0)" stroke-width="2"  />
			<g>
				<title>BPD_transp_2 (PF02653)
"Branched-chain amino acid transport system / permease component"</title>
				<polygon class="PF02653" points="113,40 125,28 137,28 137,52 125,52" stroke-linejoin="round" width="27" height="24" fill="rgb(69,130,196)" stroke="rgb(55,104,156)" stroke-width="1" opacity="0.75" />
			</g>
		</g>
		<g>
			<title> (ctg439_15)</title>
			<polygon class=" (ctg439_15)" points="181,25 172,25 172,10 142,40 172,70 172,55 181,55" fill="rgb(255,255,255)" fill-opacity="1.0" stroke="rgb(0,0,0)" stroke-width="2"  />
			<g>
				<title>Peripla_BP_6 (PF13458)
"Periplasmic binding protein"</title>
				<polygon class="PF13458" points="146,40 158,28 178,28 178,52 158,52" stroke-linejoin="round" width="35" height="24" fill="rgb(94,183,81)" stroke="rgb(75,146,64)" stroke-width="1" opacity="0.75" />
			</g>
		</g>
		<g>
			<title> (ctg439_16)</title>
			<polygon class=" (ctg439_16)" points="188,40 213,10 213,70" fill="rgb(255,255,255)" fill-opacity="1.0" stroke="rgb(0,0,0)" stroke-width="2"  />
		</g>
		<g>
			<title> (ctg439_17)</title>
			<polygon class=" (ctg439_17)" points="221,40 241,10 241,70" fill="rgb(255,255,255)" fill-opacity="1.0" stroke="rgb(0,0,0)" stroke-width="2"  />
			<g>
				<title>PAP2 (PF01569)
"PAP2 superfamily"</title>
				<polygon class="PF01569" points="225,40 231,31 231,49" stroke-linejoin="round" width="10" height="24" fill="rgb(133,203,94)" stroke="rgb(106,162,75)" stroke-width="1" opacity="0.75" />
			</g>
		</g>
		<g>
			<title> (ctg439_18)</title>
			<polygon class=" (ctg439_18)" points="248,10 257,40 248,70" fill="rgb(255,255,255)" fill-opacity="1.0" stroke="rgb(0,0,0)" stroke-width="2"  />
		</g>
		<g>
			<title> (ctg439_19)</title>
			<polygon class=" (ctg439_19)" points="258,40 285,10 285,70" fill="rgb(255,255,255)" fill-opacity="1.0" stroke="rgb(0,0,0)" stroke-width="2"  />
			<g>
				<title>Laminin_G_3 (PF13385)
"Concanavalin A-like lectin/glucanases superfamily"</title>
				<polygon class="PF13385" points="262,40 273,28 276,28 276,52 273,52" stroke-linejoin="round" width="15" height="24" fill="rgb(93,162,213)" stroke="rgb(74,129,170)" stroke-width="1" opacity="0.75" />
			</g>
		</g>
		<g>
			<title> (ctg439_20)</title>
			<polygon class=" (ctg439_20)" points="293,10 317,40 293,70" fill="rgb(255,255,255)" fill-opacity="1.0" stroke="rgb(0,0,0)" stroke-width="2"  />
			<g>
				<title>CTP_transf_3 (PF02348)
"Cytidylyltransferase"</title>
				<polygon class="PF02348" points="293,28 304,28 313,40 304,52 293,52" stroke-linejoin="round" width="21" height="24" fill="rgb(198,69,151)" stroke="rgb(158,55,120)" stroke-width="1" opacity="0.75" />
			</g>
		</g>
		<g>
			<title> (ctg439_21)</title>
			<polygon class=" (ctg439_21)" points="317,25 341,25 341,10 371,40 341,70 341,55 317,55" fill="rgb(255,255,255)" fill-opacity="1.0" stroke="rgb(0,0,0)" stroke-width="2"  />
			<g>
				<title>CTP_synth_N (PF06418)
"CTP synthase N-terminus"</title>
				<rect class="PF06418" x="317" y="28" stroke-linejoin="round" width="26" height="24" fill="rgb(90,189,145)" stroke="rgb(72,151,116)" stroke-width="1" opacity="0.75" />
			</g>
			<g>
				<title>GATase (PF00117)
"Glutamine amidotransferase class-I"</title>
				<polygon class="PF00117" points="347,28 355,28 367,40 355,52 347,52" stroke-linejoin="round" width="22" height="24" fill="rgb(159,201,96)" stroke="rgb(127,160,76)" stroke-width="1" opacity="0.75" />
			</g>
		</g>
		<g>
			<title> (ctg439_22)</title>
			<polygon class=" (ctg439_22)" points="372,25 383,25 383,10 413,40 383,70 383,55 372,55" fill="rgb(255,255,255)" fill-opacity="1.0" stroke="rgb(0,0,0)" stroke-width="2"  />
			<g>
				<title>Lar_N (PF09861)
"Lactate racemase N-terminal domain"</title>
				<rect class="PF09861" x="373" y="28" stroke-linejoin="round" width="19" height="24" fill="rgb(183,68,131)" stroke="rgb(146,54,104)" stroke-width="1" opacity="0.75" />
			</g>
		</g>
		<g>
			<title> (ctg439_23)</title>
			<polygon class=" (ctg439_23)" points="418,25 430,25 430,10 460,40 430,70 430,55 418,55" fill="rgb(255,255,255)" fill-opacity="1.0" stroke="rgb(0,0,0)" stroke-width="2"  />
			<g>
				<title>Lar_N (PF09861)
"Lactate racemase N-terminal domain"</title>
				<rect class="PF09861" x="419" y="28" stroke-linejoin="round" width="19" height="24" fill="rgb(183,68,131)" stroke="rgb(146,54,104)" stroke-width="1" opacity="0.75" />
			</g>
		</g>
		<g>
			<title> (ctg439_24)</title>
			<polygon class=" (ctg439_24)" points="461,10 478,40 461,70" fill="rgb(255,255,255)" fill-opacity="1.0" stroke="rgb(0,0,0)" stroke-width="2"  />
			<g>
				<title>DctQ (PF04290)
"Tripartite ATP-independent periplasmic transporters, DctQ component"</title>
				<polygon class="PF04290" points="464,28 468,28 475,40 468,52 464,52" stroke-linejoin="round" width="12" height="24" fill="rgb(77,57,182)" stroke="rgb(61,45,145)" stroke-width="1" opacity="0.75" />
			</g>
		</g>
		<g>
			<title> (ctg439_25)</title>
			<polygon class=" (ctg439_25)" points="479,25 491,25 491,10 521,40 491,70 491,55 479,55" fill="rgb(255,255,255)" fill-opacity="1.0" stroke="rgb(0,0,0)" stroke-width="2"  />
			<g>
				<title>DctM (PF06808)
"Tripartite ATP-independent periplasmic transporter, DctM component"</title>
				<polygon class="PF06808" points="479,28 505,28 517,40 505,52 479,52" stroke-linejoin="round" width="41" height="24" fill="rgb(223,62,92)" stroke="rgb(178,49,73)" stroke-width="1" opacity="0.75" />
			</g>
		</g>
		<g>
			<title> (ctg439_26)</title>
			<polygon class=" (ctg439_26)" points="527,40 553,10 553,70" fill="rgb(255,255,255)" fill-opacity="1.0" stroke="rgb(0,0,0)" stroke-width="2"  />
			<g>
				<title>Laminin_G_3 (PF13385)
"Concanavalin A-like lectin/glucanases superfamily"</title>
				<polygon class="PF13385" points="531,40 542,28 545,28 545,52 542,52" stroke-linejoin="round" width="16" height="24" fill="rgb(93,162,213)" stroke="rgb(74,129,170)" stroke-width="1" opacity="0.75" />
			</g>
		</g>
		<g>
			<title> (ctg439_27)</title>
			<polygon class=" (ctg439_27)" points="556,40 564,10 564,70" fill="rgb(255,255,255)" fill-opacity="1.0" stroke="rgb(0,0,0)" stroke-width="2"  />
		</g>
		<g>
			<title> (ctg439_28)</title>
			<polygon class=" (ctg439_28)" points="564,40 581,10 581,70" fill="rgb(255,255,255)" fill-opacity="1.0" stroke="rgb(0,0,0)" stroke-width="2"  />
		</g>
		<g>
			<title> (ctg439_29)</title>
			<polygon class=" (ctg439_29)" points="630,25 622,25 622,10 592,40 622,70 622,55 630,55" fill="rgb(255,255,255)" fill-opacity="1.0" stroke="rgb(0,0,0)" stroke-width="2"  />
			<g>
				<title>MR_MLE_C (PF13378)
"Enolase C-terminal domain-like"</title>
				<polygon class="PF13378" points="596,40 608,28 613,28 613,52 608,52" stroke-linejoin="round" width="21" height="24" fill="rgb(191,184,94)" stroke="rgb(152,147,75)" stroke-width="1" opacity="0.75" />
			</g>
			<g>
				<title>MR_MLE_N (PF02746)
"Mandelate racemase / muconate lactonizing enzyme, N-terminal domain"</title>
				<rect class="PF02746" x="616" y="28" stroke-linejoin="round" width="12" height="24" fill="rgb(63,73,226)" stroke="rgb(50,58,180)" stroke-width="1" opacity="0.75" />
			</g>
		</g>
		<g>
			<title> (ctg439_30)</title>
			<polygon class=" (ctg439_30)" points="637,40 643,10 643,70" fill="rgb(255,255,255)" fill-opacity="1.0" stroke="rgb(0,0,0)" stroke-width="2"  />
		</g>
		<g>
			<title> (ctg439_31)</title>
			<polygon class=" (ctg439_31)" points="648,40 674,10 674,70" fill="rgb(255,255,255)" fill-opacity="1.0" stroke="rgb(0,0,0)" stroke-width="2"  />
			<g>
				<title>HAD (PF12710)
"haloacid dehalogenase-like hydrolase"</title>
				<polygon class="PF12710" points="652,40 663,28 669,28 669,52 663,52" stroke-linejoin="round" width="18" height="24" fill="rgb(181,59,119)" stroke="rgb(144,47,95)" stroke-width="1" opacity="0.75" />
			</g>
		</g>
		<g>
			<title> (ctg439_32)</title>
			<polygon class=" (ctg439_32)" points="821,25 706,25 706,10 676,40 706,70 706,55 821,55" fill="rgb(255,255,255)" fill-opacity="1.0" stroke="rgb(0,0,0)" stroke-width="2"  />
			<g>
				<title>Acyltransferase (PF01553)
"Acyltransferase"</title>
				<polygon class="PF01553" points="683,37 692,28 696,28 696,52 692,52 683,43" stroke-linejoin="round" width="13" height="24" fill="rgb(87,176,216)" stroke="rgb(69,140,172)" stroke-width="1" opacity="0.75" />
			</g>
			<g>
				<title>PP-binding (PF00550)
"Phosphopantetheine attachment site"</title>
				<rect class="PF00550" x="701" y="28" stroke-linejoin="round" width="6" height="24" fill="rgb(103,191,88)" stroke="rgb(82,152,70)" stroke-width="1" opacity="0.75" />
			</g>
			<g>
				<title>AMP-binding_C (PF13193)
"AMP-binding enzyme C-terminal domain"</title>
				<rect class="PF13193" x="712" y="28" stroke-linejoin="round" width="8" height="24" fill="rgb(182,50,118)" stroke="rgb(145,39,94)" stroke-width="1" opacity="0.75" />
			</g>
			<g>
				<title>AMP-binding (PF00501)
"AMP-binding enzyme"</title>
				<rect class="PF00501" x="721" y="28" stroke-linejoin="round" width="41" height="24" fill="rgb(60,217,223)" stroke="rgb(48,173,178)" stroke-width="1" opacity="0.75" />
			</g>
			<g>
				<title>Sterile (PF03015)
"Male sterility protein"</title>
				<rect class="PF03015" x="768" y="28" stroke-linejoin="round" width="10" height="24" fill="rgb(157,58,225)" stroke="rgb(125,46,180)" stroke-width="1" opacity="0.75" />
			</g>
			<g>
				<title>NAD_binding_4 (PF07993)
"Male sterility protein"</title>
				<rect class="PF07993" x="785" y="28" stroke-linejoin="round" width="34" height="24" fill="rgb(100,212,204)" stroke="rgb(80,169,163)" stroke-width="1" opacity="0.75" />
			</g>
		</g>
		<g>
			<title> (ctg439_33)</title>
			<polygon class=" (ctg439_33)" points="828,25 838,25 838,10 868,40 838,70 838,55 828,55" fill="rgb(255,255,255)" fill-opacity="1.0" stroke="rgb(0,0,0)" stroke-width="2"  />
			<g>
				<title>cNMP_binding (PF00027)
"Cyclic nucleotide-binding domain"</title>
				<rect class="PF00027" x="831" y="28" stroke-linejoin="round" width="8" height="24" fill="rgb(138,95,204)" stroke="rgb(110,76,163)" stroke-width="1" opacity="0.75" />
			</g>
			<g>
				<title>SpoIIE (PF07228)
"Stage II sporulation protein E (SpoIIE)"</title>
				<polygon class="PF07228" points="847,28 851,28 863,40 851,52 847,52" stroke-linejoin="round" width="20" height="24" fill="rgb(85,195,217)" stroke="rgb(68,155,173)" stroke-width="1" opacity="0.75" />
			</g>
		</g>
		<g>
			<title> (ctg439_34)</title>
			<polygon class=" (ctg439_34)" points="912,25 903,25 903,10 873,40 903,70 903,55 912,55" fill="rgb(255,255,255)" fill-opacity="1.0" stroke="rgb(0,0,0)" stroke-width="2"  />
		</g>
		<g>
			<title> (ctg439_35)</title>
			<polygon class=" (ctg439_35)" points="920,25 975,25 975,10 1005,40 975,70 975,55 920,55" fill="rgb(255,255,255)" fill-opacity="1.0" stroke="rgb(0,0,0)" stroke-width="2"  />
			<g>
				<title>Wzy_C (PF04932)
"O-Antigen ligase"</title>
				<rect class="PF04932" x="950" y="28" stroke-linejoin="round" width="15" height="24" fill="rgb(106,219,107)" stroke="rgb(84,175,85)" stroke-width="1" opacity="0.75" />
			</g>
		</g>
		<g>
			<title> (ctg439_36)</title>
			<polygon class=" (ctg439_36)" points="1006,40 1013,10 1013,70" fill="rgb(255,255,255)" fill-opacity="1.0" stroke="rgb(0,0,0)" stroke-width="2"  />
		</g>
		<g>
			<title> (ctg439_37)</title>
			<polygon class=" (ctg439_37)" points="1015,40 1034,10 1034,70" fill="rgb(255,255,255)" fill-opacity="1.0" stroke="rgb(0,0,0)" stroke-width="2"  />
			<g>
				<title>CYTH (PF01928)
"CYTH domain"</title>
				<polygon class="PF01928" points="1019,40 1027,28 1032,28 1032,52 1027,52" stroke-linejoin="round" width="17" height="24" fill="rgb(184,209,78)" stroke="rgb(147,167,62)" stroke-width="1" opacity="0.75" />
			</g>
		</g>
		<g>
			<title> (ctg439_38)</title>
			<polygon class=" (ctg439_38)" points="1034,40 1055,10 1055,70" fill="rgb(255,255,255)" fill-opacity="1.0" stroke="rgb(0,0,0)" stroke-width="2"  />
		</g>
		<g>
			<title> (ctg439_39)</title>
			<polygon class=" (ctg439_39)" points="1061,25 1065,25 1065,10 1095,40 1065,70 1065,55 1061,55" fill="rgb(255,255,255)" fill-opacity="1.0" stroke="rgb(0,0,0)" stroke-width="2"  />
		</g>
		<g>
			<title> (ctg439_40)</title>
			<polygon class=" (ctg439_40)" points="1098,25 1108,25 1108,10 1138,40 1108,70 1108,55 1098,55" fill="rgb(255,255,255)" fill-opacity="1.0" stroke="rgb(0,0,0)" stroke-width="2"  />
			<g>
				<title>Nuc_H_symport (PF03825)
"Nucleoside H+ symporter"</title>
				<polygon class="PF03825" points="1098,28 1122,28 1134,40 1122,52 1098,52" stroke-linejoin="round" width="38" height="24" fill="rgb(135,50,186)" stroke="rgb(108,39,148)" stroke-width="1" opacity="0.75" />
			</g>
		</g>
		<g>
			<title> (ctg439_41)</title>
			<polygon class=" (ctg439_41)" points="1147,25 1208,25 1208,10 1238,40 1208,70 1208,55 1147,55" fill="rgb(255,255,255)" fill-opacity="1.0" stroke="rgb(0,0,0)" stroke-width="2"  />
			<g>
				<title>VWA (PF00092)
"von Willebrand factor type A domain"</title>
				<rect class="PF00092" x="1153" y="28" stroke-linejoin="round" width="16" height="24" fill="rgb(199,215,59)" stroke="rgb(159,172,47)" stroke-width="1" opacity="0.75" />
			</g>
			<g>
				<title>VWA (PF00092)
"von Willebrand factor type A domain"</title>
				<rect class="PF00092" x="1188" y="28" stroke-linejoin="round" width="16" height="24" fill="rgb(199,215,59)" stroke="rgb(159,172,47)" stroke-width="1" opacity="0.75" />
			</g>
		</g>
		<g>
			<title> (ctg439_42)</title>
			<polygon class=" (ctg439_42)" points="1241,40 1265,10 1265,70" fill="rgb(255,255,255)" fill-opacity="1.0" stroke="rgb(0,0,0)" stroke-width="2"  />
			<g>
				<title>RE_EcoO109I (PF14511)
"Type II restriction endonuclease EcoO109I"</title>
				<polygon class="PF14511" points="1245,40 1255,28 1264,28 1264,52 1255,52 1245,40" stroke-linejoin="round" width="19" height="24" fill="rgb(185,215,54)" stroke="rgb(148,172,43)" stroke-width="1" opacity="0.75" />
			</g>
		</g>
		<g>
			<title> (ctg439_43)</title>
			<polygon class=" (ctg439_43)" points="1265,40 1294,10 1294,70" fill="rgb(255,255,255)" fill-opacity="1.0" stroke="rgb(0,0,0)" stroke-width="2"  />
			<g>
				<title>N6_N4_Mtase (PF01555)
"DNA methylase"</title>
				<polygon class="PF01555" points="1269,40 1281,28 1291,28 1291,52 1281,52" stroke-linejoin="round" width="24" height="24" fill="rgb(54,198,162)" stroke="rgb(43,158,129)" stroke-width="1" opacity="0.75" />
			</g>
		</g>
		<g>
			<title> (ctg439_44)</title>
			<polygon class=" (ctg439_44)" points="1352,25 1333,25 1333,10 1303,40 1333,70 1333,55 1352,55" fill="rgb(255,255,255)" fill-opacity="1.0" stroke="rgb(0,0,0)" stroke-width="2"  />
			<g>
				<title>DUF839 (PF05787)
"Bacterial protein of unknown function (DUF839)"</title>
				<polygon class="PF05787" points="1307,40 1319,28 1336,28 1336,52 1319,52" stroke-linejoin="round" width="32" height="24" fill="rgb(62,203,65)" stroke="rgb(49,162,51)" stroke-width="1" opacity="0.75" />
			</g>
		</g>
		<g>
			<title> (ctg439_45)</title>
			<polygon class=" (ctg439_45)" points="1365,40 1382,10 1382,70" fill="rgb(255,255,255)" fill-opacity="1.0" stroke="rgb(0,0,0)" stroke-width="2"  />
		</g>
		<g>
			<title> (ctg439_46)</title>
			<polygon class=" (ctg439_46)" points="1385,40 1404,10 1404,70" fill="rgb(255,255,255)" fill-opacity="1.0" stroke="rgb(0,0,0)" stroke-width="2"  />
			<g>
				<title>Fer4_4 (PF12800)
"4Fe-4S binding domain"</title>
				<polygon class="PF12800" points="1389,40 1387,43 1387,37" stroke-linejoin="round" width="1" height="24" fill="rgb(195,55,123)" stroke="rgb(156,44,98)" stroke-width="1" opacity="0.75" />
			</g>
			<g>
				<title>Fer4_7 (PF12838)
"4Fe-4S dicluster domain"</title>
				<polygon class="PF12838" points="1393,34 1397,28 1398,28 1398,52 1397,52 1393,46" stroke-linejoin="round" width="5" height="24" fill="rgb(138,229,96)" stroke="rgb(110,183,76)" stroke-width="1" opacity="0.75" />
			</g>
		</g>
		<g>
			<title> (ctg439_47)</title>
			<polygon class=" (ctg439_47)" points="1407,40 1427,10 1427,70" fill="rgb(255,255,255)" fill-opacity="1.0" stroke="rgb(0,0,0)" stroke-width="2"  />
			<g>
				<title>HTH_5 (PF01022)
"Bacterial regulatory protein, arsR family"</title>
				<rect class="PF01022" x="1422" y="28" stroke-linejoin="round" width="4" height="24" fill="rgb(95,208,123)" stroke="rgb(76,166,98)" stroke-width="1" opacity="0.75" />
			</g>
		</g>
		<g>
			<title> (ctg439_48)</title>
			<polygon class=" (ctg439_48)" points="1438,10 1465,40 1438,70" fill="rgb(255,255,255)" fill-opacity="1.0" stroke="rgb(0,0,0)" stroke-width="2"  />
			<g>
				<title>PhyH (PF05721)
"Phytanoyl-CoA dioxygenase (PhyH)"</title>
				<polygon class="PF05721" points="1439,28 1449,28 1459,38 1459,42 1449,52 1439,52" stroke-linejoin="round" width="20" height="24" fill="rgb(72,132,214)" stroke="rgb(57,105,171)" stroke-width="1" opacity="0.75" />
			</g>
		</g>
	</g>
</svg>
