<svg version="1.1" baseProfile="full" xmlns="http://www.w3.org/2000/svg" width="574.5666666666667" height="80">
	<g>
		<line x1="10" y1="40.0" x2="564.5666666666667" y2="40.0" style="stroke:rgb(70,70,70); stroke-width:3 "/>
		<g>
			<title> (ctg2212_1)</title>
			<polygon class=" (ctg2212_1)" points="40,25 40,25 40,10 10,40 40,70 40,55 40,55" fill="rgb(255,255,255)" fill-opacity="1.0" stroke="rgb(0,0,0)" stroke-width="2"  />
			<g>
				<title>GMC_oxred_N (PF00732)
"GMC oxidoreductase"</title>
				<polygon class="PF00732" points="14,40 26,28 40,28 40,52 26,52" stroke-linejoin="round" width="29" height="24" fill="rgb(180,89,214)" stroke="rgb(143,71,171)" stroke-width="1" opacity="0.75" />
			</g>
		</g>
		<g>
			<title> (ctg2212_2)</title>
			<polygon class=" (ctg2212_2)" points="82,25 71,25 71,10 41,40 71,70 71,55 82,55" fill="rgb(255,255,255)" fill-opacity="1.0" stroke="rgb(0,0,0)" stroke-width="2"  />
			<g>
				<title>CoA_transf_3 (PF02515)
"CoA-transferase family III"</title>
				<polygon class="PF02515" points="45,40 57,28 81,28 81,52 57,52 45,40" stroke-linejoin="round" width="36" height="24" fill="rgb(226,102,90)" stroke="rgb(180,81,72)" stroke-width="1" opacity="0.75" />
			</g>
		</g>
		<g>
			<title> (ctg2212_3)</title>
			<polygon class=" (ctg2212_3)" points="114,25 112,25 112,10 82,40 112,70 112,55 114,55" fill="rgb(255,255,255)" fill-opacity="1.0" stroke="rgb(0,0,0)" stroke-width="2"  />
			<g>
				<title>Aldo_ket_red (PF00248)
"Aldo/keto reductase family"</title>
				<polygon class="PF00248" points="86,40 98,28 114,28 114,52 98,52" stroke-linejoin="round" width="29" height="24" fill="rgb(225,205,58)" stroke="rgb(180,164,46)" stroke-width="1" opacity="0.75" />
			</g>
		</g>
		<g>
			<title> (ctg2212_4)</title>
			<polygon class=" (ctg2212_4)" points="124,10 140,40 124,70" fill="rgb(255,255,255)" fill-opacity="1.0" stroke="rgb(0,0,0)" stroke-width="2"  />
			<g>
				<title>Flavin_Reduct (PF01613)
"Flavin reductase like domain"</title>
				<polygon class="PF01613" points="125,28 130,28 137,40 130,52 125,52" stroke-linejoin="round" width="14" height="24" fill="rgb(107,197,222)" stroke="rgb(85,157,177)" stroke-width="1" opacity="0.75" />
			</g>
		</g>
		<g>
			<title> (ctg2212_5)</title>
			<polygon class=" (ctg2212_5)" points="170,25 169,25 169,10 139,40 169,70 169,55 170,55" fill="rgb(255,255,255)" fill-opacity="1.0" stroke="rgb(0,0,0)" stroke-width="2"  />
			<g>
				<title>Fer4_16 (PF13484)
"4Fe-4S double cluster binding domain"</title>
				<polygon class="PF13484" points="152,31 155,28 158,28 158,52 155,52 152,49" stroke-linejoin="round" width="6" height="24" fill="rgb(155,190,93)" stroke="rgb(124,152,74)" stroke-width="1" opacity="0.75" />
			</g>
			<g>
				<title>DUF1730 (PF08331)
"Domain of unknown function (DUF1730)"</title>
				<rect class="PF08331" x="163" y="28" stroke-linejoin="round" width="6" height="24" fill="rgb(184,157,52)" stroke="rgb(147,125,41)" stroke-width="1" opacity="0.75" />
			</g>
		</g>
		<g>
			<title> (ctg2212_6)</title>
			<polygon class=" (ctg2212_6)" points="178,40 194,10 194,70" fill="rgb(255,255,255)" fill-opacity="1.0" stroke="rgb(0,0,0)" stroke-width="2"  />
			<g>
				<title>Urate_ox_N (PF06181)
"Urate oxidase N-terminal"</title>
				<polygon class="PF06181" points="181,40 186,31 186,49" stroke-linejoin="round" width="8" height="24" fill="rgb(215,88,150)" stroke="rgb(172,70,120)" stroke-width="1" opacity="0.75" />
			</g>
		</g>
		<g>
			<title> (ctg2212_7)</title>
			<polygon class=" (ctg2212_7)" points="204,40 231,10 231,70" fill="rgb(255,255,255)" fill-opacity="1.0" stroke="rgb(0,0,0)" stroke-width="2"  />
			<g>
				<title>SQS_PSY (PF00494)
"Squalene/phytoene synthase"</title>
				<polygon class="PF00494" points="208,40 219,28 229,28 229,52 219,52" stroke-linejoin="round" width="24" height="24" fill="rgb(178,91,49)" stroke="rgb(142,72,39)" stroke-width="1" opacity="0.75" />
			</g>
		</g>
		<g>
			<title> (ctg2212_8)</title>
			<polygon class=" (ctg2212_8)" points="231,40 241,10 241,70" fill="rgb(255,255,255)" fill-opacity="1.0" stroke="rgb(0,0,0)" stroke-width="2"  />
		</g>
		<g>
			<title> (ctg2212_9)</title>
			<polygon class=" (ctg2212_9)" points="242,10 256,40 242,70" fill="rgb(255,255,255)" fill-opacity="1.0" stroke="rgb(0,0,0)" stroke-width="2"  />
		</g>
		<g>
			<title> (ctg2212_10)</title>
			<polygon class=" (ctg2212_10)" points="256,25 265,25 265,10 295,40 265,70 265,55 256,55" fill="rgb(255,255,255)" fill-opacity="1.0" stroke="rgb(0,0,0)" stroke-width="2"  />
			<g>
				<title>Fe-ADH (PF00465)
"Iron-containing alcohol dehydrogenase"</title>
				<polygon class="PF00465" points="257,28 278,28 290,40 278,52 257,52" stroke-linejoin="round" width="36" height="24" fill="rgb(73,179,216)" stroke="rgb(58,143,172)" stroke-width="1" opacity="0.75" />
			</g>
		</g>
		<g>
			<title> (ctg2212_11)</title>
			<polygon class=" (ctg2212_11)" points="299,10 305,40 299,70" fill="rgb(255,255,255)" fill-opacity="1.0" stroke="rgb(0,0,0)" stroke-width="2"  />
		</g>
		<g>
			<title> (ctg2212_12)</title>
			<polygon class=" (ctg2212_12)" points="305,10 319,40 305,70" fill="rgb(255,255,255)" fill-opacity="1.0" stroke="rgb(0,0,0)" stroke-width="2"  />
			<g>
				<title>HTH_23 (PF13384)
"Homeodomain-like domain"</title>
				<polygon class="PF13384" points="307,28 310,28 311,30 311,50 310,52 307,52" stroke-linejoin="round" width="4" height="24" fill="rgb(77,216,116)" stroke="rgb(61,172,92)" stroke-width="1" opacity="0.75" />
			</g>
		</g>
		<g>
			<title> (ctg2212_13)</title>
			<polygon class=" (ctg2212_13)" points="328,25 332,25 332,10 362,40 332,70 332,55 328,55" fill="rgb(255,255,255)" fill-opacity="1.0" stroke="rgb(0,0,0)" stroke-width="2"  />
			<g>
				<title>Radical_SAM (PF04055)
"Radical SAM superfamily"</title>
				<polygon class="PF04055" points="330,28 345,28 346,29 346,51 345,52 330,52" stroke-linejoin="round" width="16" height="24" fill="rgb(149,56,222)" stroke="rgb(119,44,177)" stroke-width="1" opacity="0.75" />
			</g>
			<g>
				<title>Mob_synth_C (PF06463)
"Molybdenum Cofactor Synthesis C"</title>
				<polygon class="PF06463" points="347,30 357,40 347,50" stroke-linejoin="round" width="12" height="24" fill="rgb(149,103,225)" stroke="rgb(119,82,180)" stroke-width="1" opacity="0.75" />
			</g>
		</g>
		<g>
			<title> (ctg2212_14)</title>
			<polygon class=" (ctg2212_14)" points="363,10 388,40 363,70" fill="rgb(255,255,255)" fill-opacity="1.0" stroke="rgb(0,0,0)" stroke-width="2"  />
			<g>
				<title>NAD_kinase (PF01513)
"ATP-NAD kinase"</title>
				<polygon class="PF01513" points="363,28 374,28 383,39 383,41 374,52 363,52" stroke-linejoin="round" width="20" height="24" fill="rgb(214,129,96)" stroke="rgb(171,103,76)" stroke-width="1" opacity="0.75" />
			</g>
		</g>
		<g>
			<title> (ctg2212_15)</title>
			<polygon class=" (ctg2212_15)" points="389,25 394,25 394,10 424,40 394,70 394,55 389,55" fill="rgb(255,255,255)" fill-opacity="1.0" stroke="rgb(0,0,0)" stroke-width="2"  />
			<g>
				<title>AbrB (PF05145)
"Transition state regulatory protein AbrB"</title>
				<polygon class="PF05145" points="392,28 408,28 420,40 408,52 392,52" stroke-linejoin="round" width="31" height="24" fill="rgb(95,98,223)" stroke="rgb(76,78,178)" stroke-width="1" opacity="0.75" />
			</g>
		</g>
		<g>
			<title> (ctg2212_16)</title>
			<polygon class=" (ctg2212_16)" points="539,25 455,25 455,10 425,40 455,70 455,55 539,55" fill="rgb(255,255,255)" fill-opacity="1.0" stroke="rgb(0,0,0)" stroke-width="2"  />
			<g>
				<title>HHH_6 (PF14579)
"Helix-hairpin-helix motif"</title>
				<rect class="PF14579" x="450" y="28" stroke-linejoin="round" width="9" height="24" fill="rgb(166,180,62)" stroke="rgb(132,144,49)" stroke-width="1" opacity="0.75" />
			</g>
			<g>
				<title>DNA_pol3_finger (PF17657)
"Bacterial DNA polymerase III alpha subunit finger domain"</title>
				<rect class="PF17657" x="467" y="28" stroke-linejoin="round" width="16" height="24" fill="rgb(204,179,99)" stroke="rgb(163,143,79)" stroke-width="1" opacity="0.75" />
			</g>
			<g>
				<title>DNA_pol3_alpha (PF07733)
"Bacterial DNA polymerase III alpha NTPase domain"</title>
				<rect class="PF07733" x="483" y="28" stroke-linejoin="round" width="27" height="24" fill="rgb(190,187,47)" stroke="rgb(152,149,37)" stroke-width="1" opacity="0.75" />
			</g>
			<g>
				<title>PHP (PF02811)
"PHP domain"</title>
				<rect class="PF02811" x="522" y="28" stroke-linejoin="round" width="17" height="24" fill="rgb(167,87,219)" stroke="rgb(133,69,175)" stroke-width="1" opacity="0.75" />
			</g>
		</g>
		<g>
			<title> (ctg2212_17)</title>
			<polygon class=" (ctg2212_17)" points="539,10 548,40 539,70" fill="rgb(255,255,255)" fill-opacity="1.0" stroke="rgb(0,0,0)" stroke-width="2"  />
		</g>
	</g>
</svg>
