<svg version="1.1" baseProfile="full" xmlns="http://www.w3.org/2000/svg" width="794.3666666666667" height="80">
	<g>
		<line x1="10" y1="40.0" x2="784.3666666666667" y2="40.0" style="stroke:rgb(70,70,70); stroke-width:3 "/>
		<g>
			<title> (ctg575_5)</title>
			<polygon class=" (ctg575_5)" points="72,25 49,25 49,10 19,40 49,70 49,55 72,55" fill="rgb(255,255,255)" fill-opacity="1.0" stroke="rgb(0,0,0)" stroke-width="2"  />
			<g>
				<title>BPD_transp_2 (PF02653)
"Branched-chain amino acid transport system / permease component"</title>
				<polygon class="PF02653" points="23,40 35,28 47,28 47,52 35,52" stroke-linejoin="round" width="27" height="24" fill="rgb(69,130,196)" stroke="rgb(55,104,156)" stroke-width="1" opacity="0.75" />
			</g>
		</g>
		<g>
			<title> (ctg575_6)</title>
			<polygon class=" (ctg575_6)" points="119,25 106,25 106,10 76,40 106,70 106,55 119,55" fill="rgb(255,255,255)" fill-opacity="1.0" stroke="rgb(0,0,0)" stroke-width="2"  />
			<g>
				<title>Peripla_BP_5 (PF13433)
"Periplasmic binding protein domain"</title>
				<polygon class="PF13433" points="80,40 92,28 116,28 116,52 92,52" stroke-linejoin="round" width="37" height="24" fill="rgb(87,214,221)" stroke="rgb(69,171,176)" stroke-width="1" opacity="0.75" />
			</g>
		</g>
		<g>
			<title> (ctg575_7)</title>
			<polygon class=" (ctg575_7)" points="157,25 150,25 150,10 120,40 150,70 150,55 157,55" fill="rgb(255,255,255)" fill-opacity="1.0" stroke="rgb(0,0,0)" stroke-width="2"  />
			<g>
				<title>Porin_O_P (PF07396)
"Phosphate-selective porin O and P"</title>
				<polygon class="PF07396" points="124,40 136,28 154,28 154,52 136,52" stroke-linejoin="round" width="34" height="24" fill="rgb(188,70,220)" stroke="rgb(150,56,176)" stroke-width="1" opacity="0.75" />
			</g>
		</g>
		<g>
			<title> (ctg575_8)</title>
			<polygon class=" (ctg575_8)" points="159,25 173,25 173,10 203,40 173,70 173,55 159,55" fill="rgb(255,255,255)" fill-opacity="1.0" stroke="rgb(0,0,0)" stroke-width="2"  />
		</g>
		<g>
			<title> (ctg575_9)</title>
			<polygon class=" (ctg575_9)" points="212,10 220,40 212,70" fill="rgb(255,255,255)" fill-opacity="1.0" stroke="rgb(0,0,0)" stroke-width="2"  />
		</g>
		<g>
			<title> (ctg575_10)</title>
			<polygon class=" (ctg575_10)" points="223,10 234,40 223,70" fill="rgb(255,255,255)" fill-opacity="1.0" stroke="rgb(0,0,0)" stroke-width="2"  />
		</g>
		<g>
			<title> (ctg575_11)</title>
			<polygon class=" (ctg575_11)" points="238,10 258,40 238,70" fill="rgb(255,255,255)" fill-opacity="1.0" stroke="rgb(0,0,0)" stroke-width="2"  />
		</g>
		<g>
			<title> (ctg575_12)</title>
			<polygon class=" (ctg575_12)" points="267,40 273,10 273,70" fill="rgb(255,255,255)" fill-opacity="1.0" stroke="rgb(0,0,0)" stroke-width="2"  />
		</g>
		<g>
			<title> (ctg575_13)</title>
			<polygon class=" (ctg575_13)" points="286,40 291,10 291,70" fill="rgb(255,255,255)" fill-opacity="1.0" stroke="rgb(0,0,0)" stroke-width="2"  />
		</g>
		<g>
			<title> (ctg575_14)</title>
			<polygon class=" (ctg575_14)" points="297,10 316,40 297,70" fill="rgb(255,255,255)" fill-opacity="1.0" stroke="rgb(0,0,0)" stroke-width="2"  />
		</g>
		<g>
			<title> (ctg575_15)</title>
			<polygon class=" (ctg575_15)" points="450,25 373,25 373,10 343,40 373,70 373,55 450,55" fill="rgb(255,255,255)" fill-opacity="1.0" stroke="rgb(0,0,0)" stroke-width="2"  />
			<g>
				<title>SQHop_cyclase_C (PF13243)
"Squalene-hopene cyclase C-terminal domain"</title>
				<polygon class="PF13243" points="347,40 359,28 376,28 376,52 359,52" stroke-linejoin="round" width="32" height="24" fill="rgb(191,58,201)" stroke="rgb(152,46,160)" stroke-width="1" opacity="0.75" />
			</g>
			<g>
				<title>SQHop_cyclase_N (PF13249)
"Squalene-hopene cyclase N-terminal domain"</title>
				<rect class="PF13249" x="378" y="28" stroke-linejoin="round" width="29" height="24" fill="rgb(88,190,89)" stroke="rgb(70,152,71)" stroke-width="1" opacity="0.75" />
			</g>
			<g>
				<title>SE (PF08491)
"Squalene epoxidase"</title>
				<rect class="PF08491" x="414" y="28" stroke-linejoin="round" width="25" height="24" fill="rgb(93,72,221)" stroke="rgb(74,57,176)" stroke-width="1" opacity="0.75" />
			</g>
		</g>
		<g>
			<title> (ctg575_16)</title>
			<polygon class=" (ctg575_16)" points="455,40 477,10 477,70" fill="rgb(255,255,255)" fill-opacity="1.0" stroke="rgb(0,0,0)" stroke-width="2"  />
			<g>
				<title>p450 (PF00067)
"Cytochrome P450"</title>
				<polygon class="PF00067" points="459,40 468,28 476,28 476,52 468,52" stroke-linejoin="round" width="20" height="24" fill="rgb(85,216,107)" stroke="rgb(68,172,85)" stroke-width="1" opacity="0.75" />
			</g>
		</g>
		<g>
			<title> (ctg575_17)</title>
			<polygon class=" (ctg575_17)" points="486,40 513,10 513,70" fill="rgb(255,255,255)" fill-opacity="1.0" stroke="rgb(0,0,0)" stroke-width="2"  />
		</g>
		<g>
			<title> (ctg575_18)</title>
			<polygon class=" (ctg575_18)" points="561,25 552,25 552,10 522,40 552,70 552,55 561,55" fill="rgb(255,255,255)" fill-opacity="1.0" stroke="rgb(0,0,0)" stroke-width="2"  />
			<g>
				<title>Epimerase (PF01370)
"NAD dependent epimerase/dehydratase family"</title>
				<polygon class="PF01370" points="535,31 538,28 558,28 558,52 538,52 535,49" stroke-linejoin="round" width="23" height="24" fill="rgb(98,102,214)" stroke="rgb(78,81,171)" stroke-width="1" opacity="0.75" />
			</g>
		</g>
		<g>
			<title> (ctg575_19)</title>
			<polygon class=" (ctg575_19)" points="565,10 586,40 565,70" fill="rgb(255,255,255)" fill-opacity="1.0" stroke="rgb(0,0,0)" stroke-width="2"  />
		</g>
		<g>
			<title> (ctg575_20)</title>
			<polygon class=" (ctg575_20)" points="619,25 614,25 614,10 584,40 614,70 614,55 619,55" fill="rgb(255,255,255)" fill-opacity="1.0" stroke="rgb(0,0,0)" stroke-width="2"  />
			<g>
				<title>AP_endonuc_2_N (PF07582)
"AP endonuclease family 2 C terminus"</title>
				<polygon class="PF07582" points="588,40 590,38 590,42" stroke-linejoin="round" width="5" height="24" fill="rgb(64,103,179)" stroke="rgb(51,82,143)" stroke-width="1" opacity="0.75" />
			</g>
			<g>
				<title>AP_endonuc_2 (PF01261)
"Xylose isomerase-like TIM barrel"</title>
				<polygon class="PF01261" points="591,37 600,28 616,28 616,52 600,52 591,43" stroke-linejoin="round" width="25" height="24" fill="rgb(69,222,207)" stroke="rgb(55,177,165)" stroke-width="1" opacity="0.75" />
			</g>
		</g>
		<g>
			<title> (ctg575_21)</title>
			<polygon class=" (ctg575_21)" points="662,25 654,25 654,10 624,40 654,70 654,55 662,55" fill="rgb(255,255,255)" fill-opacity="1.0" stroke="rgb(0,0,0)" stroke-width="2"  />
			<g>
				<title>GFO_IDH_MocA_C (PF02894)
"Oxidoreductase family, C-terminal alpha/beta domain"</title>
				<polygon class="PF02894" points="635,33 640,28 647,28 647,52 640,52 635,47" stroke-linejoin="round" width="12" height="24" fill="rgb(195,223,82)" stroke="rgb(155,178,65)" stroke-width="1" opacity="0.75" />
			</g>
			<g>
				<title>GFO_IDH_MocA (PF01408)
"Oxidoreductase family, NAD-binding Rossmann fold"</title>
				<rect class="PF01408" x="648" y="28" stroke-linejoin="round" width="13" height="24" fill="rgb(76,117,190)" stroke="rgb(60,93,152)" stroke-width="1" opacity="0.75" />
			</g>
		</g>
		<g>
			<title> (ctg575_22)</title>
			<polygon class=" (ctg575_22)" points="670,40 683,10 683,70" fill="rgb(255,255,255)" fill-opacity="1.0" stroke="rgb(0,0,0)" stroke-width="2"  />
			<g>
				<title>PIN (PF01850)
"PIN domain"</title>
				<polygon class="PF01850" points="673,40 678,28 682,28 682,52 678,52" stroke-linejoin="round" width="12" height="24" fill="rgb(91,217,126)" stroke="rgb(72,173,100)" stroke-width="1" opacity="0.75" />
			</g>
		</g>
		<g>
			<title> (ctg575_23)</title>
			<polygon class=" (ctg575_23)" points="684,10 691,40 684,70" fill="rgb(255,255,255)" fill-opacity="1.0" stroke="rgb(0,0,0)" stroke-width="2"  />
		</g>
		<g>
			<title> (ctg575_24)</title>
			<polygon class=" (ctg575_24)" points="698,25 718,25 718,10 748,40 718,70 718,55 698,55" fill="rgb(255,255,255)" fill-opacity="1.0" stroke="rgb(0,0,0)" stroke-width="2"  />
			<g>
				<title>ATG22 (PF11700)
"Vacuole effluxer Atg22 like"</title>
				<polygon class="PF11700" points="703,28 731,28 743,40 731,52 703,52" stroke-linejoin="round" width="42" height="24" fill="rgb(187,76,115)" stroke="rgb(149,60,92)" stroke-width="1" opacity="0.75" />
			</g>
		</g>
	</g>
</svg>
