<svg version="1.1" baseProfile="full" xmlns="http://www.w3.org/2000/svg" width="834.6" height="80">
	<g>
		<line x1="10" y1="40.0" x2="824.6" y2="40.0" style="stroke:rgb(70,70,70); stroke-width:3 "/>
		<g>
			<title> (ctg1267_8)</title>
			<polygon class=" (ctg1267_8)" points="69,25 50,25 50,10 20,40 50,70 50,55 69,55" fill="rgb(255,255,255)" fill-opacity="1.0" stroke="rgb(0,0,0)" stroke-width="2"  />
			<g>
				<title>UPF0051 (PF01458)
"Uncharacterized protein family (UPF0051)"</title>
				<polygon class="PF01458" points="24,40 36,28 46,28 46,52 36,52" stroke-linejoin="round" width="23" height="24" fill="rgb(57,65,214)" stroke="rgb(45,52,171)" stroke-width="1" opacity="0.75" />
			</g>
		</g>
		<g>
			<title> (ctg1267_9)</title>
			<polygon class=" (ctg1267_9)" points="102,25 101,25 101,10 71,40 101,70 101,55 102,55" fill="rgb(255,255,255)" fill-opacity="1.0" stroke="rgb(0,0,0)" stroke-width="2"  />
			<g>
				<title>Epimerase (PF01370)
"NAD dependent epimerase/dehydratase family"</title>
				<polygon class="PF01370" points="79,36 87,28 101,28 101,52 87,52 79,44" stroke-linejoin="round" width="22" height="24" fill="rgb(98,102,214)" stroke="rgb(78,81,171)" stroke-width="1" opacity="0.75" />
			</g>
		</g>
		<g>
			<title> (ctg1267_10)</title>
			<polygon class=" (ctg1267_10)" points="106,40 110,10 110,70" fill="rgb(255,255,255)" fill-opacity="1.0" stroke="rgb(0,0,0)" stroke-width="2"  />
		</g>
		<g>
			<title> (ctg1267_11)</title>
			<polygon class=" (ctg1267_11)" points="113,25 115,25 115,10 145,40 115,70 115,55 113,55" fill="rgb(255,255,255)" fill-opacity="1.0" stroke="rgb(0,0,0)" stroke-width="2"  />
			<g>
				<title>Abhydrolase_1 (PF00561)
"alpha/beta hydrolase fold"</title>
				<polygon class="PF00561" points="116,28 129,28 140,39 140,41 129,52 116,52" stroke-linejoin="round" width="24" height="24" fill="rgb(86,180,151)" stroke="rgb(68,144,120)" stroke-width="1" opacity="0.75" />
			</g>
		</g>
		<g>
			<title> (ctg1267_12)</title>
			<polygon class=" (ctg1267_12)" points="146,40 158,10 158,70" fill="rgb(255,255,255)" fill-opacity="1.0" stroke="rgb(0,0,0)" stroke-width="2"  />
		</g>
		<g>
			<title> (ctg1267_13)</title>
			<polygon class=" (ctg1267_13)" points="158,40 179,10 179,70" fill="rgb(255,255,255)" fill-opacity="1.0" stroke="rgb(0,0,0)" stroke-width="2"  />
			<g>
				<title>Aldolase_II (PF00596)
"Class II Aldolase and Adducin N-terminal domain"</title>
				<polygon class="PF00596" points="162,40 171,28 178,28 178,52 171,52" stroke-linejoin="round" width="17" height="24" fill="rgb(208,130,90)" stroke="rgb(166,104,72)" stroke-width="1" opacity="0.75" />
			</g>
		</g>
		<g>
			<title> (ctg1267_14)</title>
			<polygon class=" (ctg1267_14)" points="214,25 212,25 212,10 182,40 212,70 212,55 214,55" fill="rgb(255,255,255)" fill-opacity="1.0" stroke="rgb(0,0,0)" stroke-width="2"  />
			<g>
				<title>ADH_zinc_N_2 (PF13602)
"Zinc-binding dehydrogenase"</title>
				<polygon class="PF13602" points="186,40 195,31 195,49" stroke-linejoin="round" width="13" height="24" fill="rgb(101,131,226)" stroke="rgb(80,104,180)" stroke-width="1" opacity="0.75" />
			</g>
			<g>
				<title>ADH_N (PF08240)
"Alcohol dehydrogenase GroES-like domain"</title>
				<rect class="PF08240" x="204" y="28" stroke-linejoin="round" width="6" height="24" fill="rgb(211,65,138)" stroke="rgb(168,51,110)" stroke-width="1" opacity="0.75" />
			</g>
		</g>
		<g>
			<title> (ctg1267_15)</title>
			<polygon class=" (ctg1267_15)" points="245,25 245,25 245,10 215,40 245,70 245,55 245,55" fill="rgb(255,255,255)" fill-opacity="1.0" stroke="rgb(0,0,0)" stroke-width="2"  />
			<g>
				<title>FGGY_C (PF02782)
"FGGY family of carbohydrate kinases, C-terminal domain"</title>
				<polygon class="PF02782" points="220,39 231,28 235,28 235,52 231,52 220,41" stroke-linejoin="round" width="15" height="24" fill="rgb(204,103,85)" stroke="rgb(163,82,68)" stroke-width="1" opacity="0.75" />
			</g>
		</g>
		<g>
			<title> (ctg1267_16)</title>
			<polygon class=" (ctg1267_16)" points="256,10 261,40 256,70" fill="rgb(255,255,255)" fill-opacity="1.0" stroke="rgb(0,0,0)" stroke-width="2"  />
		</g>
		<g>
			<title> (ctg1267_17)</title>
			<polygon class=" (ctg1267_17)" points="298,25 295,25 295,10 265,40 295,70 295,55 298,55" fill="rgb(255,255,255)" fill-opacity="1.0" stroke="rgb(0,0,0)" stroke-width="2"  />
			<g>
				<title>2-Hacid_dh_C (PF02826)
"D-isomer specific 2-hydroxyacid dehydrogenase, NAD binding domain"</title>
				<polygon class="PF02826" points="269,40 281,28 287,28 287,52 281,52 269,40" stroke-linejoin="round" width="18" height="24" fill="rgb(192,197,93)" stroke="rgb(153,157,74)" stroke-width="1" opacity="0.75" />
			</g>
		</g>
		<g>
			<title> (ctg1267_18)</title>
			<polygon class=" (ctg1267_18)" points="342,25 328,25 328,10 298,40 328,70 328,55 342,55" fill="rgb(255,255,255)" fill-opacity="1.0" stroke="rgb(0,0,0)" stroke-width="2"  />
			<g>
				<title>Amino_oxidase (PF01593)
"Flavin containing amine oxidoreductase"</title>
				<polygon class="PF01593" points="302,40 314,28 340,28 340,52 314,52" stroke-linejoin="round" width="42" height="24" fill="rgb(184,74,52)" stroke="rgb(147,59,41)" stroke-width="1" opacity="0.75" />
			</g>
		</g>
		<g>
			<title> (ctg1267_19)</title>
			<polygon class=" (ctg1267_19)" points="343,40 372,10 372,70" fill="rgb(255,255,255)" fill-opacity="1.0" stroke="rgb(0,0,0)" stroke-width="2"  />
			<g>
				<title>SQS_PSY (PF00494)
"Squalene/phytoene synthase"</title>
				<polygon class="PF00494" points="347,40 359,28 370,28 370,52 359,52" stroke-linejoin="round" width="25" height="24" fill="rgb(178,91,49)" stroke="rgb(142,72,39)" stroke-width="1" opacity="0.75" />
			</g>
		</g>
		<g>
			<title> (ctg1267_20)</title>
			<polygon class=" (ctg1267_20)" points="372,40 401,10 401,70" fill="rgb(255,255,255)" fill-opacity="1.0" stroke="rgb(0,0,0)" stroke-width="2"  />
			<g>
				<title>SQS_PSY (PF00494)
"Squalene/phytoene synthase"</title>
				<polygon class="PF00494" points="376,40 388,28 398,28 398,52 388,52" stroke-linejoin="round" width="25" height="24" fill="rgb(178,91,49)" stroke="rgb(142,72,39)" stroke-width="1" opacity="0.75" />
			</g>
		</g>
		<g>
			<title> (ctg1267_21)</title>
			<polygon class=" (ctg1267_21)" points="402,40 417,10 417,70" fill="rgb(255,255,255)" fill-opacity="1.0" stroke="rgb(0,0,0)" stroke-width="2"  />
			<g>
				<title>UPF0047 (PF01894)
"Uncharacterised protein family UPF0047"</title>
				<polygon class="PF01894" points="405,40 411,28 414,28 414,52 411,52" stroke-linejoin="round" width="12" height="24" fill="rgb(101,99,228)" stroke="rgb(80,79,182)" stroke-width="1" opacity="0.75" />
			</g>
		</g>
		<g>
			<title> (ctg1267_22)</title>
			<polygon class=" (ctg1267_22)" points="490,25 452,25 452,10 422,40 452,70 452,55 490,55" fill="rgb(255,255,255)" fill-opacity="1.0" stroke="rgb(0,0,0)" stroke-width="2"  />
			<g>
				<title>SQHop_cyclase_C (PF13243)
"Squalene-hopene cyclase C-terminal domain"</title>
				<polygon class="PF13243" points="429,37 438,28 459,28 459,52 438,52 429,43" stroke-linejoin="round" width="30" height="24" fill="rgb(191,58,201)" stroke="rgb(152,46,160)" stroke-width="1" opacity="0.75" />
			</g>
			<g>
				<title>SQHop_cyclase_N (PF13249)
"Squalene-hopene cyclase N-terminal domain"</title>
				<rect class="PF13249" x="460" y="28" stroke-linejoin="round" width="28" height="24" fill="rgb(88,190,89)" stroke="rgb(70,152,71)" stroke-width="1" opacity="0.75" />
			</g>
		</g>
		<g>
			<title> (ctg1267_23)</title>
			<polygon class=" (ctg1267_23)" points="529,25 526,25 526,10 496,40 526,70 526,55 529,55" fill="rgb(255,255,255)" fill-opacity="1.0" stroke="rgb(0,0,0)" stroke-width="2"  />
			<g>
				<title>Epimerase (PF01370)
"NAD dependent epimerase/dehydratase family"</title>
				<polygon class="PF01370" points="507,33 512,28 529,28 529,52 512,52 507,47" stroke-linejoin="round" width="22" height="24" fill="rgb(98,102,214)" stroke="rgb(78,81,171)" stroke-width="1" opacity="0.75" />
			</g>
		</g>
		<g>
			<title> (ctg1267_24)</title>
			<polygon class=" (ctg1267_24)" points="530,40 551,10 551,70" fill="rgb(255,255,255)" fill-opacity="1.0" stroke="rgb(0,0,0)" stroke-width="2"  />
			<g>
				<title>PNP_UDP_1 (PF01048)
"Phosphorylase superfamily"</title>
				<polygon class="PF01048" points="534,40 542,28 542,28 542,52 542,52" stroke-linejoin="round" width="10" height="24" fill="rgb(75,186,148)" stroke="rgb(60,148,118)" stroke-width="1" opacity="0.75" />
			</g>
		</g>
		<g>
			<title> (ctg1267_25)</title>
			<polygon class=" (ctg1267_25)" points="553,40 564,10 564,70" fill="rgb(255,255,255)" fill-opacity="1.0" stroke="rgb(0,0,0)" stroke-width="2"  />
		</g>
		<g>
			<title> (ctg1267_26)</title>
			<polygon class=" (ctg1267_26)" points="598,25 594,25 594,10 564,40 594,70 594,55 598,55" fill="rgb(255,255,255)" fill-opacity="1.0" stroke="rgb(0,0,0)" stroke-width="2"  />
			<g>
				<title>DUF3463 (PF11946)
"Domain of unknown function (DUF3463)"</title>
				<polygon class="PF11946" points="568,40 578,30 578,50" stroke-linejoin="round" width="13" height="24" fill="rgb(193,51,57)" stroke="rgb(154,40,45)" stroke-width="1" opacity="0.75" />
			</g>
			<g>
				<title>Radical_SAM (PF04055)
"Radical SAM superfamily"</title>
				<polygon class="PF04055" points="578,30 580,28 594,28 594,52 580,52 578,50" stroke-linejoin="round" width="16" height="24" fill="rgb(149,56,222)" stroke="rgb(119,44,177)" stroke-width="1" opacity="0.75" />
			</g>
		</g>
		<g>
			<title> (ctg1267_27)</title>
			<polygon class=" (ctg1267_27)" points="635,25 630,25 630,10 600,40 630,70 630,55 635,55" fill="rgb(255,255,255)" fill-opacity="1.0" stroke="rgb(0,0,0)" stroke-width="2"  />
			<g>
				<title>polyprenyl_synt (PF00348)
"Polyprenyl synthetase"</title>
				<polygon class="PF00348" points="605,39 616,28 629,28 629,52 616,52 605,41" stroke-linejoin="round" width="24" height="24" fill="rgb(61,206,65)" stroke="rgb(48,164,52)" stroke-width="1" opacity="0.75" />
			</g>
		</g>
		<g>
			<title> (ctg1267_28)</title>
			<polygon class=" (ctg1267_28)" points="680,25 665,25 665,10 635,40 665,70 665,55 680,55" fill="rgb(255,255,255)" fill-opacity="1.0" stroke="rgb(0,0,0)" stroke-width="2"  />
			<g>
				<title>Peptidase_M20 (PF01546)
"Peptidase family M20/M25/M40"</title>
				<polygon class="PF01546" points="639,40 651,28 671,28 671,52 651,52" stroke-linejoin="round" width="36" height="24" fill="rgb(88,213,108)" stroke="rgb(70,170,86)" stroke-width="1" opacity="0.75" />
			</g>
		</g>
		<g>
			<title> (ctg1267_29)</title>
			<polygon class=" (ctg1267_29)" points="688,10 699,40 688,70" fill="rgb(255,255,255)" fill-opacity="1.0" stroke="rgb(0,0,0)" stroke-width="2"  />
		</g>
		<g>
			<title> (ctg1267_30)</title>
			<polygon class=" (ctg1267_30)" points="703,10 728,40 703,70" fill="rgb(255,255,255)" fill-opacity="1.0" stroke="rgb(0,0,0)" stroke-width="2"  />
			<g>
				<title>Cation_efflux (PF01545)
"Cation efflux family"</title>
				<polygon class="PF01545" points="703,28 714,28 718,33 718,47 714,52 703,52" stroke-linejoin="round" width="15" height="24" fill="rgb(151,84,211)" stroke="rgb(120,67,168)" stroke-width="1" opacity="0.75" />
			</g>
		</g>
		<g>
			<title> (ctg1267_31)</title>
			<polygon class=" (ctg1267_31)" points="731,10 740,40 731,70" fill="rgb(255,255,255)" fill-opacity="1.0" stroke="rgb(0,0,0)" stroke-width="2"  />
		</g>
		<g>
			<title> (ctg1267_32)</title>
			<polygon class=" (ctg1267_32)" points="774,25 773,25 773,10 743,40 773,70 773,55 774,55" fill="rgb(255,255,255)" fill-opacity="1.0" stroke="rgb(0,0,0)" stroke-width="2"  />
			<g>
				<title>ZT_dimer (PF16916)
"Dimerisation domain of Zinc Transporter"</title>
				<polygon class="PF16916" points="747,40 752,35 752,45" stroke-linejoin="round" width="7" height="24" fill="rgb(78,228,68)" stroke="rgb(62,182,54)" stroke-width="1" opacity="0.75" />
			</g>
			<g>
				<title>Cation_efflux (PF01545)
"Cation efflux family"</title>
				<polygon class="PF01545" points="753,34 759,28 772,28 772,52 759,52 753,46" stroke-linejoin="round" width="19" height="24" fill="rgb(151,84,211)" stroke="rgb(120,67,168)" stroke-width="1" opacity="0.75" />
			</g>
		</g>
		<g>
			<title> (ctg1267_33)</title>
			<polygon class=" (ctg1267_33)" points="781,10 810,40 781,70" fill="rgb(255,255,255)" fill-opacity="1.0" stroke="rgb(0,0,0)" stroke-width="2"  />
			<g>
				<title>Glyoxalase (PF00903)
"Glyoxalase/Bleomycin resistance protein/Dioxygenase superfamily"</title>
				<polygon class="PF00903" points="795,29 806,40 806,40 795,51" stroke-linejoin="round" width="11" height="24" fill="rgb(50,162,189)" stroke="rgb(40,129,151)" stroke-width="1" opacity="0.75" />
			</g>
		</g>
	</g>
</svg>
