<svg version="1.1" baseProfile="full" xmlns="http://www.w3.org/2000/svg" width="430.6333333333333" height="80">
	<g>
		<line x1="10" y1="40.0" x2="420.6333333333333" y2="40.0" style="stroke:rgb(70,70,70); stroke-width:3 "/>
		<g>
			<title> (ctg1495_16)</title>
			<polygon class=" (ctg1495_16)" points="43,25 90,25 90,10 120,40 90,70 90,55 43,55" fill="rgb(255,255,255)" fill-opacity="1.0" stroke="rgb(0,0,0)" stroke-width="2"  />
			<g>
				<title>MMPL (PF03176)
"MMPL family"</title>
				<rect class="PF03176" x="49" y="28" stroke-linejoin="round" width="35" height="24" fill="rgb(228,109,193)" stroke="rgb(182,87,154)" stroke-width="1" opacity="0.75" />
			</g>
			<g>
				<title>MMPL (PF03176)
"MMPL family"</title>
				<polygon class="PF03176" points="92,28 104,28 116,40 104,52 92,52" stroke-linejoin="round" width="27" height="24" fill="rgb(228,109,193)" stroke="rgb(182,87,154)" stroke-width="1" opacity="0.75" />
			</g>
		</g>
		<g>
			<title> (ctg1495_17)</title>
			<polygon class=" (ctg1495_17)" points="119,40 136,10 136,70" fill="rgb(255,255,255)" fill-opacity="1.0" stroke="rgb(0,0,0)" stroke-width="2"  />
		</g>
		<g>
			<title> (ctg1495_18)</title>
			<polygon class=" (ctg1495_18)" points="176,25 169,25 169,10 139,40 169,70 169,55 176,55" fill="rgb(255,255,255)" fill-opacity="1.0" stroke="rgb(0,0,0)" stroke-width="2"  />
		</g>
		<g>
			<title> (ctg1495_19)</title>
			<polygon class=" (ctg1495_19)" points="253,25 206,25 206,10 176,40 206,70 206,55 253,55" fill="rgb(255,255,255)" fill-opacity="1.0" stroke="rgb(0,0,0)" stroke-width="2"  />
			<g>
				<title>YcaO (PF02624)
"YcaO cyclodehydratase, ATP-ad Mg2+-binding"</title>
				<polygon class="PF02624" points="180,40 192,28 212,28 212,52 192,52" stroke-linejoin="round" width="33" height="24" fill="rgb(76,84,185)" stroke="rgb(60,67,148)" stroke-width="1" opacity="0.75" />
			</g>
		</g>
		<g>
			<title> (ctg1495_20)</title>
			<polygon class=" (ctg1495_20)" points="327,25 285,25 285,10 255,40 285,70 285,55 327,55" fill="rgb(255,255,255)" fill-opacity="1.0" stroke="rgb(0,0,0)" stroke-width="2"  />
			<g>
				<title>GlnE (PF03710)
"Glutamate-ammonia ligase adenylyltransferase"</title>
				<rect class="PF03710" x="276" y="28" stroke-linejoin="round" width="18" height="24" fill="rgb(81,188,126)" stroke="rgb(64,150,100)" stroke-width="1" opacity="0.75" />
			</g>
			<g>
				<title>FA_desaturase (PF00487)
"Fatty acid desaturase"</title>
				<rect class="PF00487" x="300" y="28" stroke-linejoin="round" width="23" height="24" fill="rgb(104,51,205)" stroke="rgb(83,40,164)" stroke-width="1" opacity="0.75" />
			</g>
		</g>
		<g>
			<title> (ctg1495_21)</title>
			<polygon class=" (ctg1495_21)" points="330,10 341,40 330,70" fill="rgb(255,255,255)" fill-opacity="1.0" stroke="rgb(0,0,0)" stroke-width="2"  />
		</g>
		<g>
			<title> (ctg1495_22)</title>
			<polygon class=" (ctg1495_22)" points="375,25 367,25 367,10 337,40 367,70 367,55 375,55" fill="rgb(255,255,255)" fill-opacity="1.0" stroke="rgb(0,0,0)" stroke-width="2"  />
		</g>
	</g>
</svg>
