<svg version="1.1" baseProfile="full" xmlns="http://www.w3.org/2000/svg" width="316.6333333333333" height="80">
	<g>
		<line x1="10" y1="40.0" x2="306.6333333333333" y2="40.0" style="stroke:rgb(70,70,70); stroke-width:3 "/>
		<g>
			<title> (ctg9225_1)</title>
			<polygon class=" (ctg9225_1)" points="10,10 28,40 10,70" fill="rgb(255,255,255)" fill-opacity="1.0" stroke="rgb(0,0,0)" stroke-width="2"  />
			<g>
				<title>DUF2236 (PF09995)
"Uncharacterized protein conserved in bacteria (DUF2236)"</title>
				<polygon class="PF09995" points="10,28 17,28 23,37 23,43 17,52 10,52" stroke-linejoin="round" width="13" height="24" fill="rgb(194,179,92)" stroke="rgb(155,143,73)" stroke-width="1" opacity="0.75" />
			</g>
		</g>
		<g>
			<title> (ctg9225_2)</title>
			<polygon class=" (ctg9225_2)" points="59,25 59,25 59,10 29,40 59,70 59,55 59,55" fill="rgb(255,255,255)" fill-opacity="1.0" stroke="rgb(0,0,0)" stroke-width="2"  />
			<g>
				<title>SQS_PSY (PF00494)
"Squalene/phytoene synthase"</title>
				<polygon class="PF00494" points="35,38 45,28 58,28 58,52 45,52 35,42" stroke-linejoin="round" width="23" height="24" fill="rgb(178,91,49)" stroke="rgb(142,72,39)" stroke-width="1" opacity="0.75" />
			</g>
		</g>
		<g>
			<title> (ctg9225_3)</title>
			<polygon class=" (ctg9225_3)" points="64,25 138,25 138,10 168,40 138,70 138,55 64,55" fill="rgb(255,255,255)" fill-opacity="1.0" stroke="rgb(0,0,0)" stroke-width="2"  />
			<g>
				<title>ACR_tran (PF00873)
"AcrB/AcrD/AcrF family"</title>
				<rect class="PF00873" x="64" y="28" stroke-linejoin="round" width="60" height="24" fill="rgb(63,191,60)" stroke="rgb(50,152,48)" stroke-width="1" opacity="0.75" />
			</g>
			<g>
				<title>ACR_tran (PF00873)
"AcrB/AcrD/AcrF family"</title>
				<polygon class="PF00873" points="125,28 152,28 164,40 152,52 125,52" stroke-linejoin="round" width="41" height="24" fill="rgb(63,191,60)" stroke="rgb(50,152,48)" stroke-width="1" opacity="0.75" />
			</g>
		</g>
		<g>
			<title> (ctg9225_4)</title>
			<polygon class=" (ctg9225_4)" points="210,25 196,25 196,10 166,40 196,70 196,55 210,55" fill="rgb(255,255,255)" fill-opacity="1.0" stroke="rgb(0,0,0)" stroke-width="2"  />
			<g>
				<title>p450 (PF00067)
"Cytochrome P450"</title>
				<polygon class="PF00067" points="170,40 182,28 209,28 209,52 182,52" stroke-linejoin="round" width="41" height="24" fill="rgb(85,216,107)" stroke="rgb(68,172,85)" stroke-width="1" opacity="0.75" />
			</g>
		</g>
		<g>
			<title> (ctg9225_5)</title>
			<polygon class=" (ctg9225_5)" points="223,25 240,25 240,10 270,40 240,70 240,55 223,55" fill="rgb(255,255,255)" fill-opacity="1.0" stroke="rgb(0,0,0)" stroke-width="2"  />
			<g>
				<title>p450 (PF00067)
"Cytochrome P450"</title>
				<polygon class="PF00067" points="225,28 254,28 266,40 254,52 225,52" stroke-linejoin="round" width="44" height="24" fill="rgb(85,216,107)" stroke="rgb(68,172,85)" stroke-width="1" opacity="0.75" />
			</g>
		</g>
		<g>
			<title> (ctg9225_6)</title>
			<polygon class=" (ctg9225_6)" points="273,25 276,25 276,10 306,40 276,70 276,55 273,55" fill="rgb(255,255,255)" fill-opacity="1.0" stroke="rgb(0,0,0)" stroke-width="2"  />
			<g>
				<title>OEP (PF02321)
"Outer membrane efflux protein"</title>
				<polygon class="PF02321" points="279,28 289,28 299,38 299,42 289,52 279,52" stroke-linejoin="round" width="20" height="24" fill="rgb(205,57,201)" stroke="rgb(164,45,160)" stroke-width="1" opacity="0.75" />
			</g>
		</g>
	</g>
</svg>
