<svg version="1.1" baseProfile="full" xmlns="http://www.w3.org/2000/svg" width="331.5" height="80">
	<g>
		<line x1="10" y1="40.0" x2="321.5" y2="40.0" style="stroke:rgb(70,70,70); stroke-width:3 "/>
		<g>
			<title> (ctg8603_1)</title>
			<polygon class=" (ctg8603_1)" points="60,25 42,25 42,10 12,40 42,70 42,55 60,55" fill="rgb(255,255,255)" fill-opacity="1.0" stroke="rgb(0,0,0)" stroke-width="2"  />
			<g>
				<title>Flot (PF15975)
"Flotillin"</title>
				<polygon class="PF15975" points="16,40 25,31 25,49" stroke-linejoin="round" width="11" height="24" fill="rgb(211,172,58)" stroke="rgb(168,137,46)" stroke-width="1" opacity="0.75" />
			</g>
			<g>
				<title>Band_7 (PF01145)
"SPFH domain / Band 7 family"</title>
				<rect class="PF01145" x="42" y="28" stroke-linejoin="round" width="18" height="24" fill="rgb(218,155,102)" stroke="rgb(174,124,81)" stroke-width="1" opacity="0.75" />
			</g>
		</g>
		<g>
			<title> (ctg8603_2)</title>
			<polygon class=" (ctg8603_2)" points="108,25 92,25 92,10 62,40 92,70 92,55 108,55" fill="rgb(255,255,255)" fill-opacity="1.0" stroke="rgb(0,0,0)" stroke-width="2"  />
			<g>
				<title>NfeD (PF01957)
"NfeD-like C-terminal, partner-binding"</title>
				<polygon class="PF01957" points="66,40 71,35 71,45" stroke-linejoin="round" width="9" height="24" fill="rgb(90,229,87)" stroke="rgb(71,183,69)" stroke-width="1" opacity="0.75" />
			</g>
			<g>
				<title>CLP_protease (PF00574)
"Clp protease"</title>
				<rect class="PF00574" x="87" y="28" stroke-linejoin="round" width="16" height="24" fill="rgb(196,111,59)" stroke="rgb(156,88,47)" stroke-width="1" opacity="0.75" />
			</g>
		</g>
		<g>
			<title> (ctg8603_3)</title>
			<polygon class=" (ctg8603_3)" points="128,25 156,25 156,10 186,40 156,70 156,55 128,55" fill="rgb(255,255,255)" fill-opacity="1.0" stroke="rgb(0,0,0)" stroke-width="2"  />
			<g>
				<title>Xan_ur_permease (PF00860)
"Permease family"</title>
				<rect class="PF00860" x="130" y="28" stroke-linejoin="round" width="38" height="24" fill="rgb(216,88,217)" stroke="rgb(172,70,173)" stroke-width="1" opacity="0.75" />
			</g>
		</g>
		<g>
			<title> (ctg8603_4)</title>
			<polygon class=" (ctg8603_4)" points="217,25 217,25 217,10 187,40 217,70 217,55 217,55" fill="rgb(255,255,255)" fill-opacity="1.0" stroke="rgb(0,0,0)" stroke-width="2"  />
			<g>
				<title>Abhydrolase_6 (PF12697)
"Alpha/beta hydrolase family"</title>
				<polygon class="PF12697" points="191,40 203,28 213,28 213,52 203,52" stroke-linejoin="round" width="25" height="24" fill="rgb(113,71,219)" stroke="rgb(90,56,175)" stroke-width="1" opacity="0.75" />
			</g>
		</g>
		<g>
			<title> (ctg8603_5)</title>
			<polygon class=" (ctg8603_5)" points="221,40 245,10 245,70" fill="rgb(255,255,255)" fill-opacity="1.0" stroke="rgb(0,0,0)" stroke-width="2"  />
			<g>
				<title>ACPS (PF01648)
"4'-phosphopantetheinyl transferase superfamily"</title>
				<polygon class="PF01648" points="225,40 232,31 232,49" stroke-linejoin="round" width="10" height="24" fill="rgb(85,184,135)" stroke="rgb(68,147,108)" stroke-width="1" opacity="0.75" />
			</g>
		</g>
		<g>
			<title> (ctg8603_6)</title>
			<polygon class=" (ctg8603_6)" points="247,40 255,10 255,70" fill="rgb(255,255,255)" fill-opacity="1.0" stroke="rgb(0,0,0)" stroke-width="2"  />
			<g>
				<title>PP-binding (PF00550)
"Phosphopantetheine attachment site"</title>
				<polygon class="PF00550" points="250,40 253,28 254,28 254,52 253,52" stroke-linejoin="round" width="7" height="24" fill="rgb(103,191,88)" stroke="rgb(82,152,70)" stroke-width="1" opacity="0.75" />
			</g>
		</g>
		<g>
			<title> (ctg8603_7)</title>
			<polygon class=" (ctg8603_7)" points="321,25 296,25 296,10 266,40 296,70 296,55 321,55" fill="rgb(255,255,255)" fill-opacity="1.0" stroke="rgb(0,0,0)" stroke-width="2"  />
			<g>
				<title>Acyl_transf_1 (PF00698)
"Acyl transferase domain"</title>
				<polygon class="PF00698" points="280,30 282,28 294,28 294,52 282,52 280,50" stroke-linejoin="round" width="14" height="24" fill="rgb(59,176,209)" stroke="rgb(47,140,167)" stroke-width="1" opacity="0.75" />
			</g>
			<g>
				<title>KAsynt_C_assoc (PF16197)
"Ketoacyl-synthetase C-terminal extension"</title>
				<rect class="PF16197" x="298" y="28" stroke-linejoin="round" width="15" height="24" fill="rgb(240,150,172)" stroke="rgb(192,120,137)" stroke-width="1" opacity="0.75" />
			</g>
			<g>
				<title>Ketoacyl-synt_C (PF02801)
"Beta-ketoacyl synthase, C-terminal domain"</title>
				<rect class="PF02801" x="313" y="28" stroke-linejoin="round" width="7" height="24" fill="rgb(215,78,102)" stroke="rgb(172,62,81)" stroke-width="1" opacity="0.75" />
			</g>
		</g>
	</g>
</svg>
