<svg version="1.1" baseProfile="full" xmlns="http://www.w3.org/2000/svg" width="818.6333333333333" height="80">
	<g>
		<line x1="10" y1="40.0" x2="808.6333333333333" y2="40.0" style="stroke:rgb(70,70,70); stroke-width:3 "/>
		<g>
			<title> (ctg2197_1)</title>
			<polygon class=" (ctg2197_1)" points="10,10 13,40 10,70" fill="rgb(255,255,255)" fill-opacity="1.0" stroke="rgb(0,0,0)" stroke-width="2"  />
		</g>
		<g>
			<title> (ctg2197_2)</title>
			<polygon class=" (ctg2197_2)" points="49,25 44,25 44,10 14,40 44,70 44,55 49,55" fill="rgb(255,255,255)" fill-opacity="1.0" stroke="rgb(0,0,0)" stroke-width="2"  />
		</g>
		<g>
			<title> (ctg2197_3)</title>
			<polygon class=" (ctg2197_3)" points="105,25 81,25 81,10 51,40 81,70 81,55 105,55" fill="rgb(255,255,255)" fill-opacity="1.0" stroke="rgb(0,0,0)" stroke-width="2"  />
			<g>
				<title>TPR_8 (PF13181)
"Tetratricopeptide repeat"</title>
				<polygon class="PF13181" points="56,39 59,36 59,44 56,41" stroke-linejoin="round" width="3" height="24" fill="rgb(182,172,47)" stroke="rgb(145,137,37)" stroke-width="1" opacity="0.75" />
			</g>
			<g>
				<title>TPR_10 (PF13374)
"Tetratricopeptide repeat"</title>
				<rect class="PF13374" x="69" y="28" stroke-linejoin="round" width="3" height="24" fill="rgb(211,98,167)" stroke="rgb(168,78,133)" stroke-width="1" opacity="0.75" />
			</g>
		</g>
		<g>
			<title> (ctg2197_4)</title>
			<polygon class=" (ctg2197_4)" points="159,10 178,40 159,70" fill="rgb(255,255,255)" fill-opacity="1.0" stroke="rgb(0,0,0)" stroke-width="2"  />
		</g>
		<g>
			<title> (ctg2197_5)</title>
			<polygon class=" (ctg2197_5)" points="189,10 202,40 189,70" fill="rgb(255,255,255)" fill-opacity="1.0" stroke="rgb(0,0,0)" stroke-width="2"  />
		</g>
		<g>
			<title> (ctg2197_6)</title>
			<polygon class=" (ctg2197_6)" points="243,25 239,25 239,10 209,40 239,70 239,55 243,55" fill="rgb(255,255,255)" fill-opacity="1.0" stroke="rgb(0,0,0)" stroke-width="2"  />
		</g>
		<g>
			<title> (ctg2197_7)</title>
			<polygon class=" (ctg2197_7)" points="263,40 273,10 273,70" fill="rgb(255,255,255)" fill-opacity="1.0" stroke="rgb(0,0,0)" stroke-width="2"  />
		</g>
		<g>
			<title> (ctg2197_8)</title>
			<polygon class=" (ctg2197_8)" points="271,40 289,10 289,70" fill="rgb(255,255,255)" fill-opacity="1.0" stroke="rgb(0,0,0)" stroke-width="2"  />
			<g>
				<title>HAD (PF12710)
"haloacid dehalogenase-like hydrolase"</title>
				<polygon class="PF12710" points="275,40 283,28 289,28 289,52 283,52" stroke-linejoin="round" width="15" height="24" fill="rgb(181,59,119)" stroke="rgb(144,47,95)" stroke-width="1" opacity="0.75" />
			</g>
		</g>
		<g>
			<title> (ctg2197_9)</title>
			<polygon class=" (ctg2197_9)" points="442,25 326,25 326,10 296,40 326,70 326,55 442,55" fill="rgb(255,255,255)" fill-opacity="1.0" stroke="rgb(0,0,0)" stroke-width="2"  />
			<g>
				<title>Acyltransferase (PF01553)
"Acyltransferase"</title>
				<polygon class="PF01553" points="302,38 312,28 315,28 315,52 312,52 302,42" stroke-linejoin="round" width="13" height="24" fill="rgb(87,176,216)" stroke="rgb(69,140,172)" stroke-width="1" opacity="0.75" />
			</g>
			<g>
				<title>PP-binding (PF00550)
"Phosphopantetheine attachment site"</title>
				<rect class="PF00550" x="321" y="28" stroke-linejoin="round" width="6" height="24" fill="rgb(103,191,88)" stroke="rgb(82,152,70)" stroke-width="1" opacity="0.75" />
			</g>
			<g>
				<title>AMP-binding_C (PF13193)
"AMP-binding enzyme C-terminal domain"</title>
				<rect class="PF13193" x="333" y="28" stroke-linejoin="round" width="8" height="24" fill="rgb(182,50,118)" stroke="rgb(145,39,94)" stroke-width="1" opacity="0.75" />
			</g>
			<g>
				<title>AMP-binding (PF00501)
"AMP-binding enzyme"</title>
				<rect class="PF00501" x="342" y="28" stroke-linejoin="round" width="43" height="24" fill="rgb(60,217,223)" stroke="rgb(48,173,178)" stroke-width="1" opacity="0.75" />
			</g>
			<g>
				<title>Sterile (PF03015)
"Male sterility protein"</title>
				<rect class="PF03015" x="389" y="28" stroke-linejoin="round" width="8" height="24" fill="rgb(157,58,225)" stroke="rgb(125,46,180)" stroke-width="1" opacity="0.75" />
			</g>
			<g>
				<title>NAD_binding_4 (PF07993)
"Male sterility protein"</title>
				<rect class="PF07993" x="406" y="28" stroke-linejoin="round" width="34" height="24" fill="rgb(100,212,204)" stroke="rgb(80,169,163)" stroke-width="1" opacity="0.75" />
			</g>
		</g>
		<g>
			<title> (ctg2197_10)</title>
			<polygon class=" (ctg2197_10)" points="463,10 475,40 463,70" fill="rgb(255,255,255)" fill-opacity="1.0" stroke="rgb(0,0,0)" stroke-width="2"  />
			<g>
				<title>FolB (PF02152)
"Dihydroneopterin aldolase"</title>
				<polygon class="PF02152" points="463,28 466,28 472,40 466,52 463,52" stroke-linejoin="round" width="11" height="24" fill="rgb(113,204,65)" stroke="rgb(90,163,52)" stroke-width="1" opacity="0.75" />
			</g>
		</g>
		<g>
			<title> (ctg2197_11)</title>
			<polygon class=" (ctg2197_11)" points="489,25 525,25 525,10 555,40 525,70 525,55 489,55" fill="rgb(255,255,255)" fill-opacity="1.0" stroke="rgb(0,0,0)" stroke-width="2"  />
			<g>
				<title>SurA_N_2 (PF13623)
"SurA N-terminal domain"</title>
				<rect class="PF13623" x="489" y="28" stroke-linejoin="round" width="12" height="24" fill="rgb(197,93,133)" stroke="rgb(157,74,106)" stroke-width="1" opacity="0.75" />
			</g>
			<g>
				<title>Rotamase_3 (PF13616)
"PPIC-type PPIASE domain"</title>
				<rect class="PF13616" x="512" y="28" stroke-linejoin="round" width="13" height="24" fill="rgb(212,56,169)" stroke="rgb(169,44,135)" stroke-width="1" opacity="0.75" />
			</g>
		</g>
		<g>
			<title> (ctg2197_12)</title>
			<polygon class=" (ctg2197_12)" points="557,40 568,10 568,70" fill="rgb(255,255,255)" fill-opacity="1.0" stroke="rgb(0,0,0)" stroke-width="2"  />
		</g>
		<g>
			<title> (ctg2197_13)</title>
			<polygon class=" (ctg2197_13)" points="576,40 590,10 590,70" fill="rgb(255,255,255)" fill-opacity="1.0" stroke="rgb(0,0,0)" stroke-width="2"  />
		</g>
		<g>
			<title> (ctg2197_14)</title>
			<polygon class=" (ctg2197_14)" points="596,25 598,25 598,10 628,40 598,70 598,55 596,55" fill="rgb(255,255,255)" fill-opacity="1.0" stroke="rgb(0,0,0)" stroke-width="2"  />
			<g>
				<title>ADH_N (PF08240)
"Alcohol dehydrogenase GroES-like domain"</title>
				<rect class="PF08240" x="596" y="28" stroke-linejoin="round" width="9" height="24" fill="rgb(211,65,138)" stroke="rgb(168,51,110)" stroke-width="1" opacity="0.75" />
			</g>
			<g>
				<title>ADH_zinc_N (PF00107)
"Zinc-binding dehydrogenase"</title>
				<polygon class="PF00107" points="609,28 612,28 623,39 623,41 612,52 609,52" stroke-linejoin="round" width="14" height="24" fill="rgb(81,108,215)" stroke="rgb(64,86,172)" stroke-width="1" opacity="0.75" />
			</g>
		</g>
		<g>
			<title> (ctg2197_15)</title>
			<polygon class=" (ctg2197_15)" points="630,25 653,25 653,10 683,40 653,70 653,55 630,55" fill="rgb(255,255,255)" fill-opacity="1.0" stroke="rgb(0,0,0)" stroke-width="2"  />
			<g>
				<title>Lar_N (PF09861)
"Lactate racemase N-terminal domain"</title>
				<rect class="PF09861" x="632" y="28" stroke-linejoin="round" width="20" height="24" fill="rgb(183,68,131)" stroke="rgb(146,54,104)" stroke-width="1" opacity="0.75" />
			</g>
		</g>
		<g>
			<title> (ctg2197_16)</title>
			<polygon class=" (ctg2197_16)" points="685,25 770,25 770,10 800,40 770,70 770,55 685,55" fill="rgb(255,255,255)" fill-opacity="1.0" stroke="rgb(0,0,0)" stroke-width="2"  />
			<g>
				<title>TPR_16 (PF13432)
"Tetratricopeptide repeat"</title>
				<rect class="PF13432" x="689" y="28" stroke-linejoin="round" width="6" height="24" fill="rgb(154,205,86)" stroke="rgb(123,164,68)" stroke-width="1" opacity="0.75" />
			</g>
			<g>
				<title>VCBS (PF13517)
"Repeat domain in Vibrio, Colwellia, Bradyrhizobium and Shewanella"</title>
				<rect class="PF13517" x="730" y="28" stroke-linejoin="round" width="6" height="24" fill="rgb(77,199,76)" stroke="rgb(61,159,60)" stroke-width="1" opacity="0.75" />
			</g>
			<g>
				<title>VCBS (PF13517)
"Repeat domain in Vibrio, Colwellia, Bradyrhizobium and Shewanella"</title>
				<rect class="PF13517" x="741" y="28" stroke-linejoin="round" width="6" height="24" fill="rgb(77,199,76)" stroke="rgb(61,159,60)" stroke-width="1" opacity="0.75" />
			</g>
			<g>
				<title>UnbV_ASPIC (PF07593)
"ASPIC and UnbV"</title>
				<rect class="PF07593" x="751" y="28" stroke-linejoin="round" width="6" height="24" fill="rgb(157,212,86)" stroke="rgb(125,169,68)" stroke-width="1" opacity="0.75" />
			</g>
		</g>
		<g>
			<title> (ctg2197_17)</title>
			<polygon class=" (ctg2197_17)" points="801,40 808,10 808,70" fill="rgb(255,255,255)" fill-opacity="1.0" stroke="rgb(0,0,0)" stroke-width="2"  />
		</g>
	</g>
</svg>
