<svg version="1.1" baseProfile="full" xmlns="http://www.w3.org/2000/svg" width="564.7333333333333" height="80">
	<g>
		<line x1="10" y1="40.0" x2="554.7333333333333" y2="40.0" style="stroke:rgb(70,70,70); stroke-width:3 "/>
		<g>
			<title> (ctg3945_1)</title>
			<polygon class=" (ctg3945_1)" points="10,10 25,40 10,70" fill="rgb(255,255,255)" fill-opacity="1.0" stroke="rgb(0,0,0)" stroke-width="2"  />
			<g>
				<title>BNR_2 (PF13088)
"BNR repeat-like domain"</title>
				<polygon class="PF13088" points="10,28 15,28 21,40 15,52 10,52" stroke-linejoin="round" width="13" height="24" fill="rgb(196,211,74)" stroke="rgb(156,168,59)" stroke-width="1" opacity="0.75" />
			</g>
		</g>
		<g>
			<title> (ctg3945_2)</title>
			<polygon class=" (ctg3945_2)" points="33,25 85,25 85,10 115,40 85,70 85,55 33,55" fill="rgb(255,255,255)" fill-opacity="1.0" stroke="rgb(0,0,0)" stroke-width="2"  />
		</g>
		<g>
			<title> (ctg3945_3)</title>
			<polygon class=" (ctg3945_3)" points="117,25 121,25 121,10 151,40 121,70 121,55 117,55" fill="rgb(255,255,255)" fill-opacity="1.0" stroke="rgb(0,0,0)" stroke-width="2"  />
			<g>
				<title>GFO_IDH_MocA (PF01408)
"Oxidoreductase family, NAD-binding Rossmann fold"</title>
				<rect class="PF01408" x="117" y="28" stroke-linejoin="round" width="12" height="24" fill="rgb(76,117,190)" stroke="rgb(60,93,152)" stroke-width="1" opacity="0.75" />
			</g>
			<g>
				<title>GFO_IDH_MocA_C (PF02894)
"Oxidoreductase family, C-terminal alpha/beta domain"</title>
				<polygon class="PF02894" points="130,28 135,28 143,36 143,44 135,52 130,52" stroke-linejoin="round" width="13" height="24" fill="rgb(195,223,82)" stroke="rgb(155,178,65)" stroke-width="1" opacity="0.75" />
			</g>
		</g>
		<g>
			<title> (ctg3945_4)</title>
			<polygon class=" (ctg3945_4)" points="153,10 175,40 153,70" fill="rgb(255,255,255)" fill-opacity="1.0" stroke="rgb(0,0,0)" stroke-width="2"  />
			<g>
				<title>CBM9_1 (PF06452)
"Carbohydrate family 9 binding domain-like"</title>
				<polygon class="PF06452" points="155,28 162,28 171,40 162,52 155,52" stroke-linejoin="round" width="19" height="24" fill="rgb(73,155,206)" stroke="rgb(58,123,164)" stroke-width="1" opacity="0.75" />
			</g>
		</g>
		<g>
			<title> (ctg3945_5)</title>
			<polygon class=" (ctg3945_5)" points="209,25 206,25 206,10 176,40 206,70 206,55 209,55" fill="rgb(255,255,255)" fill-opacity="1.0" stroke="rgb(0,0,0)" stroke-width="2"  />
			<g>
				<title>DUF1080 (PF06439)
"Domain of Unknown Function (DUF1080)"</title>
				<polygon class="PF06439" points="180,40 192,28 194,28 194,52 192,52" stroke-linejoin="round" width="18" height="24" fill="rgb(136,84,203)" stroke="rgb(108,67,162)" stroke-width="1" opacity="0.75" />
			</g>
		</g>
		<g>
			<title> (ctg3945_6)</title>
			<polygon class=" (ctg3945_6)" points="242,25 240,25 240,10 210,40 240,70 240,55 242,55" fill="rgb(255,255,255)" fill-opacity="1.0" stroke="rgb(0,0,0)" stroke-width="2"  />
			<g>
				<title>2-Hacid_dh_C (PF02826)
"D-isomer specific 2-hydroxyacid dehydrogenase, NAD binding domain"</title>
				<polygon class="PF02826" points="214,40 226,28 230,28 230,52 226,52" stroke-linejoin="round" width="17" height="24" fill="rgb(192,197,93)" stroke="rgb(153,157,74)" stroke-width="1" opacity="0.75" />
			</g>
		</g>
		<g>
			<title> (ctg3945_7)</title>
			<polygon class=" (ctg3945_7)" points="298,25 275,25 275,10 245,40 275,70 275,55 298,55" fill="rgb(255,255,255)" fill-opacity="1.0" stroke="rgb(0,0,0)" stroke-width="2"  />
			<g>
				<title>CarboxypepD_reg (PF13620)
"Carboxypeptidase regulatory-like domain"</title>
				<polygon class="PF13620" points="249,40 254,35 254,45" stroke-linejoin="round" width="9" height="24" fill="rgb(201,63,96)" stroke="rgb(160,50,76)" stroke-width="1" opacity="0.75" />
			</g>
			<g>
				<title>CarboxypepD_reg (PF13620)
"Carboxypeptidase regulatory-like domain"</title>
				<rect class="PF13620" x="288" y="28" stroke-linejoin="round" width="9" height="24" fill="rgb(201,63,96)" stroke="rgb(160,50,76)" stroke-width="1" opacity="0.75" />
			</g>
		</g>
		<g>
			<title> (ctg3945_8)</title>
			<polygon class=" (ctg3945_8)" points="309,40 324,10 324,70" fill="rgb(255,255,255)" fill-opacity="1.0" stroke="rgb(0,0,0)" stroke-width="2"  />
			<g>
				<title>DinB_2 (PF12867)
"DinB superfamily"</title>
				<polygon class="PF12867" points="312,40 318,28 322,28 322,52 318,52" stroke-linejoin="round" width="12" height="24" fill="rgb(184,90,185)" stroke="rgb(147,72,148)" stroke-width="1" opacity="0.75" />
			</g>
		</g>
		<g>
			<title> (ctg3945_9)</title>
			<polygon class=" (ctg3945_9)" points="375,25 369,25 369,10 339,40 369,70 369,55 375,55" fill="rgb(255,255,255)" fill-opacity="1.0" stroke="rgb(0,0,0)" stroke-width="2"  />
			<g>
				<title>Chal_sti_synt_C (PF02797)
"Chalcone and stilbene synthases, C-terminal domain"</title>
				<polygon class="PF02797" points="343,40 353,30 353,50" stroke-linejoin="round" width="14" height="24" fill="rgb(139,212,63)" stroke="rgb(111,169,50)" stroke-width="1" opacity="0.75" />
			</g>
			<g>
				<title>Chal_sti_synt_N (PF00195)
"Chalcone and stilbene synthases, N-terminal domain"</title>
				<polygon class="PF00195" points="354,29 355,28 373,28 373,52 355,52 354,51" stroke-linejoin="round" width="19" height="24" fill="rgb(60,181,161)" stroke="rgb(47,144,128)" stroke-width="1" opacity="0.75" />
			</g>
		</g>
		<g>
			<title> (ctg3945_10)</title>
			<polygon class=" (ctg3945_10)" points="412,25 410,25 410,10 380,40 410,70 410,55 412,55" fill="rgb(255,255,255)" fill-opacity="1.0" stroke="rgb(0,0,0)" stroke-width="2"  />
			<g>
				<title>VWA_2 (PF13519)
"von Willebrand factor type A domain"</title>
				<polygon class="PF13519" points="392,32 396,28 401,28 401,52 396,52 392,48" stroke-linejoin="round" width="9" height="24" fill="rgb(58,213,93)" stroke="rgb(46,170,74)" stroke-width="1" opacity="0.75" />
			</g>
		</g>
		<g>
			<title> (ctg3945_11)</title>
			<polygon class=" (ctg3945_11)" points="415,40 439,10 439,70" fill="rgb(255,255,255)" fill-opacity="1.0" stroke="rgb(0,0,0)" stroke-width="2"  />
			<g>
				<title>MoaE (PF02391)
"MoaE protein"</title>
				<polygon class="PF02391" points="419,40 429,28 429,28 429,52 429,52" stroke-linejoin="round" width="11" height="24" fill="rgb(70,60,221)" stroke="rgb(56,48,176)" stroke-width="1" opacity="0.75" />
			</g>
			<g>
				<title>ThiS (PF02597)
"ThiS family"</title>
				<rect class="PF02597" x="431" y="28" stroke-linejoin="round" width="7" height="24" fill="rgb(73,117,196)" stroke="rgb(58,93,156)" stroke-width="1" opacity="0.75" />
			</g>
		</g>
		<g>
			<title> (ctg3945_12)</title>
			<polygon class=" (ctg3945_12)" points="446,10 455,40 446,70" fill="rgb(255,255,255)" fill-opacity="1.0" stroke="rgb(0,0,0)" stroke-width="2"  />
		</g>
		<g>
			<title> (ctg3945_13)</title>
			<polygon class=" (ctg3945_13)" points="471,10 480,40 471,70" fill="rgb(255,255,255)" fill-opacity="1.0" stroke="rgb(0,0,0)" stroke-width="2"  />
			<g>
				<title>Bac_DNA_binding (PF00216)
"Bacterial DNA-binding protein"</title>
				<polygon class="PF00216" points="471,28 473,28 477,40 473,52 471,52" stroke-linejoin="round" width="8" height="24" fill="rgb(73,205,204)" stroke="rgb(58,164,163)" stroke-width="1" opacity="0.75" />
			</g>
		</g>
		<g>
			<title> (ctg3945_14)</title>
			<polygon class=" (ctg3945_14)" points="481,25 482,25 482,10 512,40 482,70 482,55 481,55" fill="rgb(255,255,255)" fill-opacity="1.0" stroke="rgb(0,0,0)" stroke-width="2"  />
			<g>
				<title>VWA (PF00092)
"von Willebrand factor type A domain"</title>
				<polygon class="PF00092" points="490,28 496,28 506,38 506,42 496,52 490,52" stroke-linejoin="round" width="16" height="24" fill="rgb(199,215,59)" stroke="rgb(159,172,47)" stroke-width="1" opacity="0.75" />
			</g>
		</g>
		<g>
			<title> (ctg3945_15)</title>
			<polygon class=" (ctg3945_15)" points="554,25 552,25 552,10 522,40 552,70 552,55 554,55" fill="rgb(255,255,255)" fill-opacity="1.0" stroke="rgb(0,0,0)" stroke-width="2"  />
			<g>
				<title>zf-FPG_IleRS (PF06827)
"Zinc finger found in FPG and IleRS"</title>
				<polygon class="PF06827" points="526,40 524,42 524,38" stroke-linejoin="round" width="2" height="24" fill="rgb(167,86,192)" stroke="rgb(133,68,153)" stroke-width="1" opacity="0.75" />
			</g>
			<g>
				<title>H2TH (PF06831)
"Formamidopyrimidine-DNA glycosylase H2TH domain"</title>
				<polygon class="PF06831" points="527,39 536,30 536,50 527,41" stroke-linejoin="round" width="9" height="24" fill="rgb(57,227,194)" stroke="rgb(45,181,155)" stroke-width="1" opacity="0.75" />
			</g>
			<g>
				<title>Fapy_DNA_glyco (PF01149)
"Formamidopyrimidine-DNA glycosylase N-terminal domain"</title>
				<polygon class="PF01149" points="537,29 538,28 550,28 550,52 538,52 537,51" stroke-linejoin="round" width="13" height="24" fill="rgb(124,229,81)" stroke="rgb(99,183,64)" stroke-width="1" opacity="0.75" />
			</g>
		</g>
	</g>
</svg>
