<svg version="1.1" baseProfile="full" xmlns="http://www.w3.org/2000/svg" width="539.6666666666666" height="80">
	<g>
		<line x1="10" y1="40.0" x2="529.6666666666666" y2="40.0" style="stroke:rgb(70,70,70); stroke-width:3 "/>
		<g>
			<title> (ctg2805_1)</title>
			<polygon class=" (ctg2805_1)" points="10,10 13,40 10,70" fill="rgb(255,255,255)" fill-opacity="1.0" stroke="rgb(0,0,0)" stroke-width="2"  />
		</g>
		<g>
			<title> (ctg2805_2)</title>
			<polygon class=" (ctg2805_2)" points="13,40 18,10 18,70" fill="rgb(255,255,255)" fill-opacity="1.0" stroke="rgb(0,0,0)" stroke-width="2"  />
		</g>
		<g>
			<title> (ctg2805_3)</title>
			<polygon class=" (ctg2805_3)" points="19,10 36,40 19,70" fill="rgb(255,255,255)" fill-opacity="1.0" stroke="rgb(0,0,0)" stroke-width="2"  />
			<g>
				<title>Acetyltransf_3 (PF13302)
"Acetyltransferase (GNAT) domain"</title>
				<polygon class="PF13302" points="19,28 26,28 32,38 32,42 26,52 19,52" stroke-linejoin="round" width="13" height="24" fill="rgb(105,146,215)" stroke="rgb(84,116,172)" stroke-width="1" opacity="0.75" />
			</g>
		</g>
		<g>
			<title> (ctg2805_4)</title>
			<polygon class=" (ctg2805_4)" points="40,40 46,10 46,70" fill="rgb(255,255,255)" fill-opacity="1.0" stroke="rgb(0,0,0)" stroke-width="2"  />
		</g>
		<g>
			<title> (ctg2805_5)</title>
			<polygon class=" (ctg2805_5)" points="52,40 56,10 56,70" fill="rgb(255,255,255)" fill-opacity="1.0" stroke="rgb(0,0,0)" stroke-width="2"  />
		</g>
		<g>
			<title> (ctg2805_6)</title>
			<polygon class=" (ctg2805_6)" points="58,10 64,40 58,70" fill="rgb(255,255,255)" fill-opacity="1.0" stroke="rgb(0,0,0)" stroke-width="2"  />
		</g>
		<g>
			<title> (ctg2805_7)</title>
			<polygon class=" (ctg2805_7)" points="99,25 95,25 95,10 65,40 95,70 95,55 99,55" fill="rgb(255,255,255)" fill-opacity="1.0" stroke="rgb(0,0,0)" stroke-width="2"  />
			<g>
				<title>Cytidylate_kin2 (PF13189)
"Cytidylate kinase-like family"</title>
				<polygon class="PF13189" points="69,40 81,28 87,28 87,52 81,52" stroke-linejoin="round" width="19" height="24" fill="rgb(191,76,89)" stroke="rgb(152,60,71)" stroke-width="1" opacity="0.75" />
			</g>
			<g>
				<title>Acetyltransf_3 (PF13302)
"Acetyltransferase (GNAT) domain"</title>
				<rect class="PF13302" x="92" y="28" stroke-linejoin="round" width="6" height="24" fill="rgb(105,146,215)" stroke="rgb(84,116,172)" stroke-width="1" opacity="0.75" />
			</g>
		</g>
		<g>
			<title> (ctg2805_8)</title>
			<polygon class=" (ctg2805_8)" points="101,10 115,40 101,70" fill="rgb(255,255,255)" fill-opacity="1.0" stroke="rgb(0,0,0)" stroke-width="2"  />
		</g>
		<g>
			<title> (ctg2805_9)</title>
			<polygon class=" (ctg2805_9)" points="121,10 125,40 121,70" fill="rgb(255,255,255)" fill-opacity="1.0" stroke="rgb(0,0,0)" stroke-width="2"  />
		</g>
		<g>
			<title> (ctg2805_10)</title>
			<polygon class=" (ctg2805_10)" points="125,10 137,40 125,70" fill="rgb(255,255,255)" fill-opacity="1.0" stroke="rgb(0,0,0)" stroke-width="2"  />
			<g>
				<title>ABM (PF03992)
"Antibiotic biosynthesis monooxygenase"</title>
				<polygon class="PF03992" points="125,28 128,28 133,38 133,42 128,52 125,52" stroke-linejoin="round" width="8" height="24" fill="rgb(193,84,127)" stroke="rgb(154,67,101)" stroke-width="1" opacity="0.75" />
			</g>
		</g>
		<g>
			<title> (ctg2805_11)</title>
			<polygon class=" (ctg2805_11)" points="140,25 141,25 141,10 171,40 141,70 141,55 140,55" fill="rgb(255,255,255)" fill-opacity="1.0" stroke="rgb(0,0,0)" stroke-width="2"  />
			<g>
				<title>Aminotran_4 (PF01063)
"Amino-transferase class IV"</title>
				<polygon class="PF01063" points="142,28 154,28 165,39 165,41 154,52 142,52" stroke-linejoin="round" width="23" height="24" fill="rgb(52,144,188)" stroke="rgb(41,115,150)" stroke-width="1" opacity="0.75" />
			</g>
		</g>
		<g>
			<title> (ctg2805_12)</title>
			<polygon class=" (ctg2805_12)" points="172,40 195,10 195,70" fill="rgb(255,255,255)" fill-opacity="1.0" stroke="rgb(0,0,0)" stroke-width="2"  />
			<g>
				<title>SQS_PSY (PF00494)
"Squalene/phytoene synthase"</title>
				<polygon class="PF00494" points="176,40 185,28 195,28 195,52 185,52" stroke-linejoin="round" width="20" height="24" fill="rgb(178,91,49)" stroke="rgb(142,72,39)" stroke-width="1" opacity="0.75" />
			</g>
		</g>
		<g>
			<title> (ctg2805_13)</title>
			<polygon class=" (ctg2805_13)" points="201,10 209,40 201,70" fill="rgb(255,255,255)" fill-opacity="1.0" stroke="rgb(0,0,0)" stroke-width="2"  />
		</g>
		<g>
			<title> (ctg2805_14)</title>
			<polygon class=" (ctg2805_14)" points="210,10 223,40 210,70" fill="rgb(255,255,255)" fill-opacity="1.0" stroke="rgb(0,0,0)" stroke-width="2"  />
			<g>
				<title>Putative_PNPOx (PF01243)
"Pyridoxamine 5'-phosphate oxidase"</title>
				<polygon class="PF01243" points="211,28 214,28 219,37 219,43 214,52 211,52" stroke-linejoin="round" width="8" height="24" fill="rgb(177,193,67)" stroke="rgb(141,154,53)" stroke-width="1" opacity="0.75" />
			</g>
		</g>
		<g>
			<title> (ctg2805_15)</title>
			<polygon class=" (ctg2805_15)" points="226,10 229,40 226,70" fill="rgb(255,255,255)" fill-opacity="1.0" stroke="rgb(0,0,0)" stroke-width="2"  />
		</g>
		<g>
			<title> (ctg2805_16)</title>
			<polygon class=" (ctg2805_16)" points="270,25 259,25 259,10 229,40 259,70 259,55 270,55" fill="rgb(255,255,255)" fill-opacity="1.0" stroke="rgb(0,0,0)" stroke-width="2"  />
			<g>
				<title>SBP_bac_5 (PF00496)
"Bacterial extracellular solute-binding proteins, family 5 Middle"</title>
				<polygon class="PF00496" points="244,29 245,28 270,28 270,52 245,52 244,51" stroke-linejoin="round" width="26" height="24" fill="rgb(199,94,116)" stroke="rgb(159,75,92)" stroke-width="1" opacity="0.75" />
			</g>
		</g>
		<g>
			<title> (ctg2805_17)</title>
			<polygon class=" (ctg2805_17)" points="273,10 277,40 273,70" fill="rgb(255,255,255)" fill-opacity="1.0" stroke="rgb(0,0,0)" stroke-width="2"  />
		</g>
		<g>
			<title> (ctg2805_18)</title>
			<polygon class=" (ctg2805_18)" points="278,10 290,40 278,70" fill="rgb(255,255,255)" fill-opacity="1.0" stroke="rgb(0,0,0)" stroke-width="2"  />
		</g>
		<g>
			<title> (ctg2805_19)</title>
			<polygon class=" (ctg2805_19)" points="291,10 295,40 291,70" fill="rgb(255,255,255)" fill-opacity="1.0" stroke="rgb(0,0,0)" stroke-width="2"  />
		</g>
		<g>
			<title> (ctg2805_20)</title>
			<polygon class=" (ctg2805_20)" points="295,10 303,40 295,70" fill="rgb(255,255,255)" fill-opacity="1.0" stroke="rgb(0,0,0)" stroke-width="2"  />
		</g>
		<g>
			<title> (ctg2805_21)</title>
			<polygon class=" (ctg2805_21)" points="302,10 315,40 302,70" fill="rgb(255,255,255)" fill-opacity="1.0" stroke="rgb(0,0,0)" stroke-width="2"  />
		</g>
		<g>
			<title> (ctg2805_22)</title>
			<polygon class=" (ctg2805_22)" points="314,10 317,40 314,70" fill="rgb(255,255,255)" fill-opacity="1.0" stroke="rgb(0,0,0)" stroke-width="2"  />
		</g>
		<g>
			<title> (ctg2805_23)</title>
			<polygon class=" (ctg2805_23)" points="318,40 344,10 344,70" fill="rgb(255,255,255)" fill-opacity="1.0" stroke="rgb(0,0,0)" stroke-width="2"  />
			<g>
				<title>Peptidase_S9 (PF00326)
"Prolyl oligopeptidase family"</title>
				<polygon class="PF00326" points="322,40 332,29 332,51" stroke-linejoin="round" width="11" height="24" fill="rgb(77,97,209)" stroke="rgb(61,77,167)" stroke-width="1" opacity="0.75" />
			</g>
		</g>
		<g>
			<title> (ctg2805_24)</title>
			<polygon class=" (ctg2805_24)" points="348,10 372,40 348,70" fill="rgb(255,255,255)" fill-opacity="1.0" stroke="rgb(0,0,0)" stroke-width="2"  />
			<g>
				<title>RraA-like (PF03737)
"Aldolase/RraA"</title>
				<polygon class="PF03737" points="350,28 359,28 366,38 366,42 359,52 350,52" stroke-linejoin="round" width="16" height="24" fill="rgb(59,211,194)" stroke="rgb(47,168,155)" stroke-width="1" opacity="0.75" />
			</g>
		</g>
		<g>
			<title> (ctg2805_25)</title>
			<polygon class=" (ctg2805_25)" points="372,40 381,10 381,70" fill="rgb(255,255,255)" fill-opacity="1.0" stroke="rgb(0,0,0)" stroke-width="2"  />
		</g>
		<g>
			<title> (ctg2805_26)</title>
			<polygon class=" (ctg2805_26)" points="379,40 386,10 386,70" fill="rgb(255,255,255)" fill-opacity="1.0" stroke="rgb(0,0,0)" stroke-width="2"  />
		</g>
		<g>
			<title> (ctg2805_27)</title>
			<polygon class=" (ctg2805_27)" points="390,10 397,40 390,70" fill="rgb(255,255,255)" fill-opacity="1.0" stroke="rgb(0,0,0)" stroke-width="2"  />
			<g>
				<title>AsnC_trans_reg (PF01037)
"Lrp/AsnC ligand binding domain"</title>
				<polygon class="PF01037" points="390,28 391,28 394,40 391,52 390,52" stroke-linejoin="round" width="7" height="24" fill="rgb(134,72,182)" stroke="rgb(107,57,145)" stroke-width="1" opacity="0.75" />
			</g>
		</g>
		<g>
			<title> (ctg2805_28)</title>
			<polygon class=" (ctg2805_28)" points="399,40 421,10 421,70" fill="rgb(255,255,255)" fill-opacity="1.0" stroke="rgb(0,0,0)" stroke-width="2"  />
			<g>
				<title>G3P_acyltransf (PF02660)
"Glycerol-3-phosphate acyltransferase"</title>
				<polygon class="PF02660" points="403,40 412,28 419,28 419,52 412,52" stroke-linejoin="round" width="18" height="24" fill="rgb(204,58,153)" stroke="rgb(163,46,122)" stroke-width="1" opacity="0.75" />
			</g>
		</g>
		<g>
			<title> (ctg2805_29)</title>
			<polygon class=" (ctg2805_29)" points="422,40 426,10 426,70" fill="rgb(255,255,255)" fill-opacity="1.0" stroke="rgb(0,0,0)" stroke-width="2"  />
		</g>
		<g>
			<title> (ctg2805_30)</title>
			<polygon class=" (ctg2805_30)" points="427,40 431,10 431,70" fill="rgb(255,255,255)" fill-opacity="1.0" stroke="rgb(0,0,0)" stroke-width="2"  />
		</g>
		<g>
			<title> (ctg2805_31)</title>
			<polygon class=" (ctg2805_31)" points="433,40 443,10 443,70" fill="rgb(255,255,255)" fill-opacity="1.0" stroke="rgb(0,0,0)" stroke-width="2"  />
		</g>
		<g>
			<title> (ctg2805_32)</title>
			<polygon class=" (ctg2805_32)" points="445,10 470,40 445,70" fill="rgb(255,255,255)" fill-opacity="1.0" stroke="rgb(0,0,0)" stroke-width="2"  />
			<g>
				<title>S-methyl_trans (PF02574)
"Homocysteine S-methyltransferase"</title>
				<polygon class="PF02574" points="445,28 456,28 466,40 456,52 445,52" stroke-linejoin="round" width="24" height="24" fill="rgb(130,111,228)" stroke="rgb(103,88,182)" stroke-width="1" opacity="0.75" />
			</g>
		</g>
		<g>
			<title> (ctg2805_33)</title>
			<polygon class=" (ctg2805_33)" points="468,40 478,10 478,70" fill="rgb(255,255,255)" fill-opacity="1.0" stroke="rgb(0,0,0)" stroke-width="2"  />
		</g>
		<g>
			<title> (ctg2805_34)</title>
			<polygon class=" (ctg2805_34)" points="487,10 494,40 487,70" fill="rgb(255,255,255)" fill-opacity="1.0" stroke="rgb(0,0,0)" stroke-width="2"  />
		</g>
	</g>
</svg>
