<svg version="1.1" baseProfile="full" xmlns="http://www.w3.org/2000/svg" width="589.9666666666667" height="80">
	<g>
		<line x1="10" y1="40.0" x2="579.9666666666667" y2="40.0" style="stroke:rgb(70,70,70); stroke-width:3 "/>
		<g>
			<title> (ctg3694_1)</title>
			<polygon class=" (ctg3694_1)" points="58,25 44,25 44,10 14,40 44,70 44,55 58,55" fill="rgb(255,255,255)" fill-opacity="1.0" stroke="rgb(0,0,0)" stroke-width="2"  />
			<g>
				<title>Peptidase_M20 (PF01546)
"Peptidase family M20/M25/M40"</title>
				<polygon class="PF01546" points="18,40 30,28 46,28 46,52 30,52" stroke-linejoin="round" width="32" height="24" fill="rgb(88,213,108)" stroke="rgb(70,170,86)" stroke-width="1" opacity="0.75" />
			</g>
		</g>
		<g>
			<title> (ctg3694_2)</title>
			<polygon class=" (ctg3694_2)" points="62,25 68,25 68,10 98,40 68,70 68,55 62,55" fill="rgb(255,255,255)" fill-opacity="1.0" stroke="rgb(0,0,0)" stroke-width="2"  />
		</g>
		<g>
			<title> (ctg3694_3)</title>
			<polygon class=" (ctg3694_3)" points="103,10 129,40 103,70" fill="rgb(255,255,255)" fill-opacity="1.0" stroke="rgb(0,0,0)" stroke-width="2"  />
		</g>
		<g>
			<title> (ctg3694_4)</title>
			<polygon class=" (ctg3694_4)" points="132,40 145,10 145,70" fill="rgb(255,255,255)" fill-opacity="1.0" stroke="rgb(0,0,0)" stroke-width="2"  />
			<g>
				<title>OsmC (PF02566)
"OsmC-like protein"</title>
				<polygon class="PF02566" points="135,40 141,28 143,28 143,52 141,52" stroke-linejoin="round" width="10" height="24" fill="rgb(161,56,212)" stroke="rgb(128,44,169)" stroke-width="1" opacity="0.75" />
			</g>
		</g>
		<g>
			<title> (ctg3694_5)</title>
			<polygon class=" (ctg3694_5)" points="185,25 176,25 176,10 146,40 176,70 176,55 185,55" fill="rgb(255,255,255)" fill-opacity="1.0" stroke="rgb(0,0,0)" stroke-width="2"  />
			<g>
				<title>Ketoacyl-synt_C (PF02801)
"Beta-ketoacyl synthase, C-terminal domain"</title>
				<polygon class="PF02801" points="150,40 161,29 161,51 150,40" stroke-linejoin="round" width="11" height="24" fill="rgb(215,78,102)" stroke="rgb(172,62,81)" stroke-width="1" opacity="0.75" />
			</g>
			<g>
				<title>ketoacyl-synt (PF00109)
"Beta-ketoacyl synthase, N-terminal domain"</title>
				<polygon class="PF00109" points="162,28 162,28 183,28 183,52 162,52 162,52" stroke-linejoin="round" width="21" height="24" fill="rgb(112,116,228)" stroke="rgb(89,92,182)" stroke-width="1" opacity="0.75" />
			</g>
		</g>
		<g>
			<title> (ctg3694_6)</title>
			<polygon class=" (ctg3694_6)" points="192,25 201,25 201,10 231,40 201,70 201,55 192,55" fill="rgb(255,255,255)" fill-opacity="1.0" stroke="rgb(0,0,0)" stroke-width="2"  />
			<g>
				<title>Peptidase_M19 (PF01244)
"Membrane dipeptidase (Peptidase family M19)"</title>
				<polygon class="PF01244" points="204,28 215,28 227,40 215,52 204,52" stroke-linejoin="round" width="26" height="24" fill="rgb(178,227,92)" stroke="rgb(142,181,73)" stroke-width="1" opacity="0.75" />
			</g>
		</g>
		<g>
			<title> (ctg3694_7)</title>
			<polygon class=" (ctg3694_7)" points="233,25 237,25 237,10 267,40 237,70 237,55 233,55" fill="rgb(255,255,255)" fill-opacity="1.0" stroke="rgb(0,0,0)" stroke-width="2"  />
			<g>
				<title>TPR_19 (PF14559)
"Tetratricopeptide repeat"</title>
				<polygon class="PF14559" points="251,28 251,28 257,34 257,46 251,52 251,52" stroke-linejoin="round" width="6" height="24" fill="rgb(182,60,145)" stroke="rgb(145,48,115)" stroke-width="1" opacity="0.75" />
			</g>
		</g>
		<g>
			<title> (ctg3694_8)</title>
			<polygon class=" (ctg3694_8)" points="267,10 296,40 267,70" fill="rgb(255,255,255)" fill-opacity="1.0" stroke="rgb(0,0,0)" stroke-width="2"  />
			<g>
				<title>VWA_2 (PF13519)
"von Willebrand factor type A domain"</title>
				<polygon class="PF13519" points="275,28 280,28 284,32 284,48 280,52 275,52" stroke-linejoin="round" width="9" height="24" fill="rgb(58,213,93)" stroke="rgb(46,170,74)" stroke-width="1" opacity="0.75" />
			</g>
		</g>
		<g>
			<title> (ctg3694_9)</title>
			<polygon class=" (ctg3694_9)" points="297,25 304,25 304,10 334,40 304,70 304,55 297,55" fill="rgb(255,255,255)" fill-opacity="1.0" stroke="rgb(0,0,0)" stroke-width="2"  />
			<g>
				<title>Radical_SAM (PF04055)
"Radical SAM superfamily"</title>
				<polygon class="PF04055" points="304,28 317,28 322,33 322,47 317,52 304,52" stroke-linejoin="round" width="18" height="24" fill="rgb(149,56,222)" stroke="rgb(119,44,177)" stroke-width="1" opacity="0.75" />
			</g>
		</g>
		<g>
			<title> (ctg3694_10)</title>
			<polygon class=" (ctg3694_10)" points="334,25 344,25 344,10 374,40 344,70 344,55 334,55" fill="rgb(255,255,255)" fill-opacity="1.0" stroke="rgb(0,0,0)" stroke-width="2"  />
			<g>
				<title>Peptidase_S58 (PF03576)
"Peptidase family S58"</title>
				<polygon class="PF03576" points="338,28 358,28 370,40 358,52 338,52" stroke-linejoin="round" width="33" height="24" fill="rgb(222,70,152)" stroke="rgb(177,56,121)" stroke-width="1" opacity="0.75" />
			</g>
		</g>
		<g>
			<title> (ctg3694_11)</title>
			<polygon class=" (ctg3694_11)" points="376,10 398,40 376,70" fill="rgb(255,255,255)" fill-opacity="1.0" stroke="rgb(0,0,0)" stroke-width="2"  />
		</g>
		<g>
			<title> (ctg3694_12)</title>
			<polygon class=" (ctg3694_12)" points="451,25 429,25 429,10 399,40 429,70 429,55 451,55" fill="rgb(255,255,255)" fill-opacity="1.0" stroke="rgb(0,0,0)" stroke-width="2"  />
			<g>
				<title>MlrC_C (PF07171)
"MlrC C-terminus"</title>
				<polygon class="PF07171" points="403,40 415,28 415,28 415,52 415,52" stroke-linejoin="round" width="15" height="24" fill="rgb(192,174,73)" stroke="rgb(153,139,58)" stroke-width="1" opacity="0.75" />
			</g>
			<g>
				<title>DUF1485 (PF07364)
"Metallopeptidase family M81"</title>
				<rect class="PF07364" x="418" y="28" stroke-linejoin="round" width="29" height="24" fill="rgb(101,127,217)" stroke="rgb(80,101,173)" stroke-width="1" opacity="0.75" />
			</g>
		</g>
		<g>
			<title> (ctg3694_13)</title>
			<polygon class=" (ctg3694_13)" points="485,25 482,25 482,10 452,40 482,70 482,55 485,55" fill="rgb(255,255,255)" fill-opacity="1.0" stroke="rgb(0,0,0)" stroke-width="2"  />
			<g>
				<title>Fer4_7 (PF12838)
"4Fe-4S dicluster domain"</title>
				<polygon class="PF12838" points="456,40 460,36 460,44" stroke-linejoin="round" width="5" height="24" fill="rgb(138,229,96)" stroke="rgb(110,183,76)" stroke-width="1" opacity="0.75" />
			</g>
		</g>
		<g>
			<title> (ctg3694_14)</title>
			<polygon class=" (ctg3694_14)" points="485,40 492,10 492,70" fill="rgb(255,255,255)" fill-opacity="1.0" stroke="rgb(0,0,0)" stroke-width="2"  />
		</g>
		<g>
			<title> (ctg3694_15)</title>
			<polygon class=" (ctg3694_15)" points="563,25 523,25 523,10 493,40 523,70 523,55 563,55" fill="rgb(255,255,255)" fill-opacity="1.0" stroke="rgb(0,0,0)" stroke-width="2"  />
			<g>
				<title>Big_2 (PF02368)
"Bacterial Ig-like domain (group 2)"</title>
				<rect class="PF02368" x="551" y="28" stroke-linejoin="round" width="7" height="24" fill="rgb(76,217,178)" stroke="rgb(60,173,142)" stroke-width="1" opacity="0.75" />
			</g>
		</g>
		<g>
			<title> (ctg3694_16)</title>
			<polygon class=" (ctg3694_16)" points="567,10 579,40 567,70" fill="rgb(255,255,255)" fill-opacity="1.0" stroke="rgb(0,0,0)" stroke-width="2"  />
		</g>
	</g>
</svg>
