<svg version="1.1" baseProfile="full" xmlns="http://www.w3.org/2000/svg" width="1306.5333333333333" height="80">
	<g>
		<line x1="10" y1="40.0" x2="1296.5333333333333" y2="40.0" style="stroke:rgb(70,70,70); stroke-width:3 "/>
		<g>
			<title> (ctg1013_1)</title>
			<polygon class=" (ctg1013_1)" points="10,10 15,40 10,70" fill="rgb(255,255,255)" fill-opacity="1.0" stroke="rgb(0,0,0)" stroke-width="2"  />
		</g>
		<g>
			<title> (ctg1013_2)</title>
			<polygon class=" (ctg1013_2)" points="15,25 19,25 19,10 49,40 19,70 19,55 15,55" fill="rgb(255,255,255)" fill-opacity="1.0" stroke="rgb(0,0,0)" stroke-width="2"  />
			<g>
				<title>DHO_dh (PF01180)
"Dihydroorotate dehydrogenase"</title>
				<polygon class="PF01180" points="19,28 33,28 45,40 33,52 19,52" stroke-linejoin="round" width="28" height="24" fill="rgb(127,188,80)" stroke="rgb(101,150,64)" stroke-width="1" opacity="0.75" />
			</g>
		</g>
		<g>
			<title> (ctg1013_3)</title>
			<polygon class=" (ctg1013_3)" points="134,25 81,25 81,10 51,40 81,70 81,55 134,55" fill="rgb(255,255,255)" fill-opacity="1.0" stroke="rgb(0,0,0)" stroke-width="2"  />
			<g>
				<title>Acyltransferase (PF01553)
"Acyltransferase"</title>
				<polygon class="PF01553" points="55,40 67,28 68,28 68,52 67,52 55,40" stroke-linejoin="round" width="13" height="24" fill="rgb(87,176,216)" stroke="rgb(69,140,172)" stroke-width="1" opacity="0.75" />
			</g>
			<g>
				<title>PP-binding (PF00550)
"Phosphopantetheine attachment site"</title>
				<rect class="PF00550" x="73" y="28" stroke-linejoin="round" width="6" height="24" fill="rgb(103,191,88)" stroke="rgb(82,152,70)" stroke-width="1" opacity="0.75" />
			</g>
			<g>
				<title>AMP-binding (PF00501)
"AMP-binding enzyme"</title>
				<rect class="PF00501" x="91" y="28" stroke-linejoin="round" width="41" height="24" fill="rgb(60,217,223)" stroke="rgb(48,173,178)" stroke-width="1" opacity="0.75" />
			</g>
		</g>
		<g>
			<title> (ctg1013_4)</title>
			<polygon class=" (ctg1013_4)" points="137,40 160,10 160,70" fill="rgb(255,255,255)" fill-opacity="1.0" stroke="rgb(0,0,0)" stroke-width="2"  />
			<g>
				<title>Lactamase_B (PF00753)
"Metallo-beta-lactamase superfamily"</title>
				<polygon class="PF00753" points="141,40 151,28 158,28 158,52 151,52" stroke-linejoin="round" width="19" height="24" fill="rgb(206,198,96)" stroke="rgb(164,158,76)" stroke-width="1" opacity="0.75" />
			</g>
		</g>
		<g>
			<title> (ctg1013_5)</title>
			<polygon class=" (ctg1013_5)" points="164,40 171,10 171,70" fill="rgb(255,255,255)" fill-opacity="1.0" stroke="rgb(0,0,0)" stroke-width="2"  />
		</g>
		<g>
			<title> (ctg1013_6)</title>
			<polygon class=" (ctg1013_6)" points="200,25 232,25 232,10 262,40 232,70 232,55 200,55" fill="rgb(255,255,255)" fill-opacity="1.0" stroke="rgb(0,0,0)" stroke-width="2"  />
			<g>
				<title>Xan_ur_permease (PF00860)
"Permease family"</title>
				<rect class="PF00860" x="205" y="28" stroke-linejoin="round" width="38" height="24" fill="rgb(216,88,217)" stroke="rgb(172,70,173)" stroke-width="1" opacity="0.75" />
			</g>
		</g>
		<g>
			<title> (ctg1013_7)</title>
			<polygon class=" (ctg1013_7)" points="265,10 285,40 265,70" fill="rgb(255,255,255)" fill-opacity="1.0" stroke="rgb(0,0,0)" stroke-width="2"  />
			<g>
				<title>Peptidase_S24 (PF00717)
"Peptidase S24-like"</title>
				<polygon class="PF00717" points="268,28 273,28 277,34 277,46 273,52 268,52" stroke-linejoin="round" width="9" height="24" fill="rgb(180,76,105)" stroke="rgb(144,60,83)" stroke-width="1" opacity="0.75" />
			</g>
		</g>
		<g>
			<title> (ctg1013_8)</title>
			<polygon class=" (ctg1013_8)" points="292,40 305,10 305,70" fill="rgb(255,255,255)" fill-opacity="1.0" stroke="rgb(0,0,0)" stroke-width="2"  />
			<g>
				<title>DUF1801 (PF08818)
"Domain of unknown function (DU1801)"</title>
				<polygon class="PF08818" points="295,40 300,28 302,28 302,52 300,52" stroke-linejoin="round" width="9" height="24" fill="rgb(120,214,95)" stroke="rgb(96,171,76)" stroke-width="1" opacity="0.75" />
			</g>
		</g>
		<g>
			<title> (ctg1013_9)</title>
			<polygon class=" (ctg1013_9)" points="318,10 333,40 318,70" fill="rgb(255,255,255)" fill-opacity="1.0" stroke="rgb(0,0,0)" stroke-width="2"  />
		</g>
		<g>
			<title> (ctg1013_10)</title>
			<polygon class=" (ctg1013_10)" points="370,25 366,25 366,10 336,40 366,70 366,55 370,55" fill="rgb(255,255,255)" fill-opacity="1.0" stroke="rgb(0,0,0)" stroke-width="2"  />
			<g>
				<title>OpuAC (PF04069)
"Substrate binding domain of ABC-type glycine betaine transport system"</title>
				<polygon class="PF04069" points="340,40 352,28 365,28 365,52 352,52" stroke-linejoin="round" width="28" height="24" fill="rgb(81,218,80)" stroke="rgb(64,174,64)" stroke-width="1" opacity="0.75" />
			</g>
		</g>
		<g>
			<title> (ctg1013_11)</title>
			<polygon class=" (ctg1013_11)" points="439,25 405,25 405,10 375,40 405,70 405,55 439,55" fill="rgb(255,255,255)" fill-opacity="1.0" stroke="rgb(0,0,0)" stroke-width="2"  />
			<g>
				<title>BPD_transp_1 (PF00528)
"Binding-protein-dependent transport system inner membrane component"</title>
				<polygon class="PF00528" points="379,40 391,28 392,28 392,52 391,52" stroke-linejoin="round" width="16" height="24" fill="rgb(77,208,225)" stroke="rgb(61,166,180)" stroke-width="1" opacity="0.75" />
			</g>
			<g>
				<title>BPD_transp_1 (PF00528)
"Binding-protein-dependent transport system inner membrane component"</title>
				<rect class="PF00528" x="409" y="28" stroke-linejoin="round" width="16" height="24" fill="rgb(77,208,225)" stroke="rgb(61,166,180)" stroke-width="1" opacity="0.75" />
			</g>
		</g>
		<g>
			<title> (ctg1013_12)</title>
			<polygon class=" (ctg1013_12)" points="483,25 471,25 471,10 441,40 471,70 471,55 483,55" fill="rgb(255,255,255)" fill-opacity="1.0" stroke="rgb(0,0,0)" stroke-width="2"  />
			<g>
				<title>CBS (PF00571)
"CBS domain"</title>
				<polygon class="PF00571" points="447,38 452,33 452,47 447,42" stroke-linejoin="round" width="5" height="24" fill="rgb(220,56,105)" stroke="rgb(176,44,84)" stroke-width="1" opacity="0.75" />
			</g>
			<g>
				<title>ABC_tran (PF00005)
"ABC transporter"</title>
				<rect class="PF00005" x="461" y="28" stroke-linejoin="round" width="14" height="24" fill="rgb(129,201,63)" stroke="rgb(103,160,50)" stroke-width="1" opacity="0.75" />
			</g>
		</g>
		<g>
			<title> (ctg1013_13)</title>
			<polygon class=" (ctg1013_13)" points="556,25 532,25 532,10 502,40 532,70 532,55 556,55" fill="rgb(255,255,255)" fill-opacity="1.0" stroke="rgb(0,0,0)" stroke-width="2"  />
		</g>
		<g>
			<title> (ctg1013_14)</title>
			<polygon class=" (ctg1013_14)" points="561,10 567,40 561,70" fill="rgb(255,255,255)" fill-opacity="1.0" stroke="rgb(0,0,0)" stroke-width="2"  />
		</g>
		<g>
			<title> (ctg1013_15)</title>
			<polygon class=" (ctg1013_15)" points="571,25 640,25 640,10 670,40 640,70 640,55 571,55" fill="rgb(255,255,255)" fill-opacity="1.0" stroke="rgb(0,0,0)" stroke-width="2"  />
			<g>
				<title>Peptidase_M16 (PF00675)
"Insulinase (Peptidase family M16)"</title>
				<rect class="PF00675" x="580" y="28" stroke-linejoin="round" width="14" height="24" fill="rgb(70,225,127)" stroke="rgb(56,180,101)" stroke-width="1" opacity="0.75" />
			</g>
			<g>
				<title>Peptidase_M16_C (PF05193)
"Peptidase M16 inactive domain"</title>
				<rect class="PF05193" x="596" y="28" stroke-linejoin="round" width="19" height="24" fill="rgb(199,79,180)" stroke="rgb(159,63,144)" stroke-width="1" opacity="0.75" />
			</g>
			<g>
				<title>Peptidase_M16_C (PF05193)
"Peptidase M16 inactive domain"</title>
				<polygon class="PF05193" points="646,28 654,28 663,37 663,43 654,52 646,52" stroke-linejoin="round" width="17" height="24" fill="rgb(199,79,180)" stroke="rgb(159,63,144)" stroke-width="1" opacity="0.75" />
			</g>
		</g>
		<g>
			<title> (ctg1013_16)</title>
			<polygon class=" (ctg1013_16)" points="673,10 683,40 673,70" fill="rgb(255,255,255)" fill-opacity="1.0" stroke="rgb(0,0,0)" stroke-width="2"  />
		</g>
		<g>
			<title> (ctg1013_17)</title>
			<polygon class=" (ctg1013_17)" points="683,10 696,40 683,70" fill="rgb(255,255,255)" fill-opacity="1.0" stroke="rgb(0,0,0)" stroke-width="2"  />
		</g>
		<g>
			<title> (ctg1013_18)</title>
			<polygon class=" (ctg1013_18)" points="697,40 706,10 706,70" fill="rgb(255,255,255)" fill-opacity="1.0" stroke="rgb(0,0,0)" stroke-width="2"  />
		</g>
		<g>
			<title> (ctg1013_19)</title>
			<polygon class=" (ctg1013_19)" points="707,40 722,10 722,70" fill="rgb(255,255,255)" fill-opacity="1.0" stroke="rgb(0,0,0)" stroke-width="2"  />
			<g>
				<title>AhpC-TSA (PF00578)
"AhpC/TSA family"</title>
				<polygon class="PF00578" points="710,40 710,40 710,40" stroke-linejoin="round" width="3" height="24" fill="rgb(166,71,190)" stroke="rgb(132,56,152)" stroke-width="1" opacity="0.75" />
			</g>
		</g>
		<g>
			<title> (ctg1013_20)</title>
			<polygon class=" (ctg1013_20)" points="764,25 754,25 754,10 724,40 754,70 754,55 764,55" fill="rgb(255,255,255)" fill-opacity="1.0" stroke="rgb(0,0,0)" stroke-width="2"  />
			<g>
				<title>MFS_1 (PF07690)
"Major Facilitator Superfamily"</title>
				<polygon class="PF07690" points="740,28 740,28 763,28 763,52 740,52 740,52" stroke-linejoin="round" width="23" height="24" fill="rgb(193,224,74)" stroke="rgb(154,179,59)" stroke-width="1" opacity="0.75" />
			</g>
		</g>
		<g>
			<title> (ctg1013_21)</title>
			<polygon class=" (ctg1013_21)" points="856,25 807,25 807,10 777,40 807,70 807,55 856,55" fill="rgb(255,255,255)" fill-opacity="1.0" stroke="rgb(0,0,0)" stroke-width="2"  />
			<g>
				<title>Trans_reg_C (PF00486)
"Transcriptional regulatory protein, C terminal"</title>
				<polygon class="PF00486" points="781,40 785,36 785,44" stroke-linejoin="round" width="7" height="24" fill="rgb(204,153,57)" stroke="rgb(163,122,45)" stroke-width="1" opacity="0.75" />
			</g>
			<g>
				<title>Response_reg (PF00072)
"Response regulator receiver domain"</title>
				<polygon class="PF00072" points="789,32 793,28 799,28 799,52 793,52 789,48" stroke-linejoin="round" width="10" height="24" fill="rgb(100,107,203)" stroke="rgb(80,85,162)" stroke-width="1" opacity="0.75" />
			</g>
			<g>
				<title>HATPase_c (PF02518)
"Histidine kinase-, DNA gyrase B-, and HSP90-like ATPase"</title>
				<rect class="PF02518" x="803" y="28" stroke-linejoin="round" width="11" height="24" fill="rgb(80,94,225)" stroke="rgb(64,75,180)" stroke-width="1" opacity="0.75" />
			</g>
			<g>
				<title>HisKA (PF00512)
"His Kinase A (phospho-acceptor) domain"</title>
				<rect class="PF00512" x="818" y="28" stroke-linejoin="round" width="6" height="24" fill="rgb(193,125,62)" stroke="rgb(154,100,49)" stroke-width="1" opacity="0.75" />
			</g>
			<g>
				<title>PAS (PF00989)
"PAS fold"</title>
				<rect class="PF00989" x="826" y="28" stroke-linejoin="round" width="11" height="24" fill="rgb(205,221,64)" stroke="rgb(164,176,51)" stroke-width="1" opacity="0.75" />
			</g>
			<g>
				<title>GAF_2 (PF13185)
"GAF domain"</title>
				<rect class="PF13185" x="839" y="28" stroke-linejoin="round" width="14" height="24" fill="rgb(158,189,90)" stroke="rgb(126,151,72)" stroke-width="1" opacity="0.75" />
			</g>
		</g>
		<g>
			<title> (ctg1013_22)</title>
			<polygon class=" (ctg1013_22)" points="858,10 861,40 858,70" fill="rgb(255,255,255)" fill-opacity="1.0" stroke="rgb(0,0,0)" stroke-width="2"  />
		</g>
		<g>
			<title> (ctg1013_23)</title>
			<polygon class=" (ctg1013_23)" points="885,25 934,25 934,10 964,40 934,70 934,55 885,55" fill="rgb(255,255,255)" fill-opacity="1.0" stroke="rgb(0,0,0)" stroke-width="2"  />
			<g>
				<title>GAF_2 (PF13185)
"GAF domain"</title>
				<rect class="PF13185" x="888" y="28" stroke-linejoin="round" width="14" height="24" fill="rgb(158,189,90)" stroke="rgb(126,151,72)" stroke-width="1" opacity="0.75" />
			</g>
			<g>
				<title>PAS_9 (PF13426)
"PAS domain"</title>
				<rect class="PF13426" x="904" y="28" stroke-linejoin="round" width="11" height="24" fill="rgb(182,140,74)" stroke="rgb(145,112,59)" stroke-width="1" opacity="0.75" />
			</g>
			<g>
				<title>HisKA (PF00512)
"His Kinase A (phospho-acceptor) domain"</title>
				<rect class="PF00512" x="916" y="28" stroke-linejoin="round" width="6" height="24" fill="rgb(193,125,62)" stroke="rgb(154,100,49)" stroke-width="1" opacity="0.75" />
			</g>
			<g>
				<title>HATPase_c (PF02518)
"Histidine kinase-, DNA gyrase B-, and HSP90-like ATPase"</title>
				<rect class="PF02518" x="927" y="28" stroke-linejoin="round" width="11" height="24" fill="rgb(80,94,225)" stroke="rgb(64,75,180)" stroke-width="1" opacity="0.75" />
			</g>
			<g>
				<title>Response_reg (PF00072)
"Response regulator receiver domain"</title>
				<polygon class="PF00072" points="941,28 948,28 951,31 951,49 948,52 941,52" stroke-linejoin="round" width="10" height="24" fill="rgb(100,107,203)" stroke="rgb(80,85,162)" stroke-width="1" opacity="0.75" />
			</g>
			<g>
				<title>Trans_reg_C (PF00486)
"Transcriptional regulatory protein, C terminal"</title>
				<polygon class="PF00486" points="955,35 960,40 955,45" stroke-linejoin="round" width="7" height="24" fill="rgb(204,153,57)" stroke="rgb(163,122,45)" stroke-width="1" opacity="0.75" />
			</g>
		</g>
		<g>
			<title> (ctg1013_24)</title>
			<polygon class=" (ctg1013_24)" points="971,40 974,10 974,70" fill="rgb(255,255,255)" fill-opacity="1.0" stroke="rgb(0,0,0)" stroke-width="2"  />
		</g>
		<g>
			<title> (ctg1013_25)</title>
			<polygon class=" (ctg1013_25)" points="980,25 1043,25 1043,10 1073,40 1043,70 1043,55 980,55" fill="rgb(255,255,255)" fill-opacity="1.0" stroke="rgb(0,0,0)" stroke-width="2"  />
			<g>
				<title>AMP-binding (PF00501)
"AMP-binding enzyme"</title>
				<rect class="PF00501" x="980" y="28" stroke-linejoin="round" width="34" height="24" fill="rgb(60,217,223)" stroke="rgb(48,173,178)" stroke-width="1" opacity="0.75" />
			</g>
			<g>
				<title>AMP-binding_C (PF13193)
"AMP-binding enzyme C-terminal domain"</title>
				<rect class="PF13193" x="1015" y="28" stroke-linejoin="round" width="8" height="24" fill="rgb(182,50,118)" stroke="rgb(145,39,94)" stroke-width="1" opacity="0.75" />
			</g>
			<g>
				<title>PP-binding (PF00550)
"Phosphopantetheine attachment site"</title>
				<rect class="PF00550" x="1027" y="28" stroke-linejoin="round" width="6" height="24" fill="rgb(103,191,88)" stroke="rgb(82,152,70)" stroke-width="1" opacity="0.75" />
			</g>
			<g>
				<title>NAD_binding_4 (PF07993)
"Male sterility protein"</title>
				<polygon class="PF07993" points="1037,28 1056,28 1061,33 1061,47 1056,52 1037,52" stroke-linejoin="round" width="24" height="24" fill="rgb(100,212,204)" stroke="rgb(80,169,163)" stroke-width="1" opacity="0.75" />
			</g>
		</g>
		<g>
			<title> (ctg1013_26)</title>
			<polygon class=" (ctg1013_26)" points="1112,25 1111,25 1111,10 1081,40 1111,70 1111,55 1112,55" fill="rgb(255,255,255)" fill-opacity="1.0" stroke="rgb(0,0,0)" stroke-width="2"  />
			<g>
				<title>ABC_tran (PF00005)
"ABC transporter"</title>
				<polygon class="PF00005" points="1085,40 1091,34 1091,46" stroke-linejoin="round" width="10" height="24" fill="rgb(129,201,63)" stroke="rgb(103,160,50)" stroke-width="1" opacity="0.75" />
			</g>
			<g>
				<title>ABC_membrane (PF00664)
"ABC transporter transmembrane region"</title>
				<rect class="PF00664" x="1098" y="28" stroke-linejoin="round" width="14" height="24" fill="rgb(149,226,73)" stroke="rgb(119,180,58)" stroke-width="1" opacity="0.75" />
			</g>
		</g>
		<g>
			<title> (ctg1013_27)</title>
			<polygon class=" (ctg1013_27)" points="1119,40 1126,10 1126,70" fill="rgb(255,255,255)" fill-opacity="1.0" stroke="rgb(0,0,0)" stroke-width="2"  />
		</g>
		<g>
			<title> (ctg1013_28)</title>
			<polygon class=" (ctg1013_28)" points="1129,40 1144,10 1144,70" fill="rgb(255,255,255)" fill-opacity="1.0" stroke="rgb(0,0,0)" stroke-width="2"  />
		</g>
		<g>
			<title> (ctg1013_29)</title>
			<polygon class=" (ctg1013_29)" points="1164,10 1170,40 1164,70" fill="rgb(255,255,255)" fill-opacity="1.0" stroke="rgb(0,0,0)" stroke-width="2"  />
		</g>
		<g>
			<title> (ctg1013_30)</title>
			<polygon class=" (ctg1013_30)" points="1170,10 1189,40 1170,70" fill="rgb(255,255,255)" fill-opacity="1.0" stroke="rgb(0,0,0)" stroke-width="2"  />
		</g>
		<g>
			<title> (ctg1013_31)</title>
			<polygon class=" (ctg1013_31)" points="1189,10 1195,40 1189,70" fill="rgb(255,255,255)" fill-opacity="1.0" stroke="rgb(0,0,0)" stroke-width="2"  />
		</g>
		<g>
			<title> (ctg1013_32)</title>
			<polygon class=" (ctg1013_32)" points="1295,25 1252,25 1252,10 1222,40 1252,70 1252,55 1295,55" fill="rgb(255,255,255)" fill-opacity="1.0" stroke="rgb(0,0,0)" stroke-width="2"  />
			<g>
				<title>Cadherin (PF00028)
"Cadherin domain"</title>
				<rect class="PF00028" x="1243" y="28" stroke-linejoin="round" width="8" height="24" fill="rgb(169,219,78)" stroke="rgb(135,175,62)" stroke-width="1" opacity="0.75" />
			</g>
			<g>
				<title>DUF11 (PF01345)
"Domain of unknown function DUF11"</title>
				<rect class="PF01345" x="1269" y="28" stroke-linejoin="round" width="8" height="24" fill="rgb(83,216,100)" stroke="rgb(66,172,80)" stroke-width="1" opacity="0.75" />
			</g>
			<g>
				<title>DUF11 (PF01345)
"Domain of unknown function DUF11"</title>
				<rect class="PF01345" x="1281" y="28" stroke-linejoin="round" width="8" height="24" fill="rgb(83,216,100)" stroke="rgb(66,172,80)" stroke-width="1" opacity="0.75" />
			</g>
		</g>
	</g>
</svg>
