<svg version="1.1" baseProfile="full" xmlns="http://www.w3.org/2000/svg" width="606.8666666666667" height="80">
	<g>
		<line x1="10" y1="40.0" x2="596.8666666666667" y2="40.0" style="stroke:rgb(70,70,70); stroke-width:3 "/>
		<g>
			<title> (ctg2607_1)</title>
			<polygon class=" (ctg2607_1)" points="10,40 22,10 22,70" fill="rgb(255,255,255)" fill-opacity="1.0" stroke="rgb(0,0,0)" stroke-width="2"  />
		</g>
		<g>
			<title> (ctg2607_2)</title>
			<polygon class=" (ctg2607_2)" points="28,25 45,25 45,10 75,40 45,70 45,55 28,55" fill="rgb(255,255,255)" fill-opacity="1.0" stroke="rgb(0,0,0)" stroke-width="2"  />
			<g>
				<title>Amidohydro_1 (PF01979)
"Amidohydrolase family"</title>
				<polygon class="PF01979" points="39,28 59,28 71,40 59,52 39,52" stroke-linejoin="round" width="35" height="24" fill="rgb(210,93,184)" stroke="rgb(168,74,147)" stroke-width="1" opacity="0.75" />
			</g>
		</g>
		<g>
			<title> (ctg2607_3)</title>
			<polygon class=" (ctg2607_3)" points="116,25 107,25 107,10 77,40 107,70 107,55 116,55" fill="rgb(255,255,255)" fill-opacity="1.0" stroke="rgb(0,0,0)" stroke-width="2"  />
			<g>
				<title>DUF2236 (PF09995)
"Uncharacterized protein conserved in bacteria (DUF2236)"</title>
				<polygon class="PF09995" points="81,40 93,28 106,28 106,52 93,52 81,40" stroke-linejoin="round" width="25" height="24" fill="rgb(194,179,92)" stroke="rgb(155,143,73)" stroke-width="1" opacity="0.75" />
			</g>
		</g>
		<g>
			<title> (ctg2607_4)</title>
			<polygon class=" (ctg2607_4)" points="116,10 120,40 116,70" fill="rgb(255,255,255)" fill-opacity="1.0" stroke="rgb(0,0,0)" stroke-width="2"  />
		</g>
		<g>
			<title> (ctg2607_5)</title>
			<polygon class=" (ctg2607_5)" points="122,25 199,25 199,10 229,40 199,70 199,55 122,55" fill="rgb(255,255,255)" fill-opacity="1.0" stroke="rgb(0,0,0)" stroke-width="2"  />
			<g>
				<title>ACR_tran (PF00873)
"AcrB/AcrD/AcrF family"</title>
				<rect class="PF00873" x="124" y="28" stroke-linejoin="round" width="59" height="24" fill="rgb(63,191,60)" stroke="rgb(50,152,48)" stroke-width="1" opacity="0.75" />
			</g>
			<g>
				<title>ACR_tran (PF00873)
"AcrB/AcrD/AcrF family"</title>
				<polygon class="PF00873" points="189,28 213,28 225,40 213,52 189,52" stroke-linejoin="round" width="38" height="24" fill="rgb(63,191,60)" stroke="rgb(50,152,48)" stroke-width="1" opacity="0.75" />
			</g>
		</g>
		<g>
			<title> (ctg2607_6)</title>
			<polygon class=" (ctg2607_6)" points="263,25 260,25 260,10 230,40 260,70 260,55 263,55" fill="rgb(255,255,255)" fill-opacity="1.0" stroke="rgb(0,0,0)" stroke-width="2"  />
			<g>
				<title>SQS_PSY (PF00494)
"Squalene/phytoene synthase"</title>
				<polygon class="PF00494" points="234,40 246,28 261,28 261,52 246,52" stroke-linejoin="round" width="28" height="24" fill="rgb(178,91,49)" stroke="rgb(142,72,39)" stroke-width="1" opacity="0.75" />
			</g>
		</g>
		<g>
			<title> (ctg2607_7)</title>
			<polygon class=" (ctg2607_7)" points="308,25 293,25 293,10 263,40 293,70 293,55 308,55" fill="rgb(255,255,255)" fill-opacity="1.0" stroke="rgb(0,0,0)" stroke-width="2"  />
			<g>
				<title>Peptidase_M24 (PF00557)
"Metallopeptidase family M24"</title>
				<polygon class="PF00557" points="267,40 279,28 288,28 288,52 279,52" stroke-linejoin="round" width="23" height="24" fill="rgb(217,177,88)" stroke="rgb(173,141,70)" stroke-width="1" opacity="0.75" />
			</g>
		</g>
		<g>
			<title> (ctg2607_8)</title>
			<polygon class=" (ctg2607_8)" points="309,40 322,10 322,70" fill="rgb(255,255,255)" fill-opacity="1.0" stroke="rgb(0,0,0)" stroke-width="2"  />
			<g>
				<title>PIN (PF01850)
"PIN domain"</title>
				<polygon class="PF01850" points="312,40 318,28 322,28 322,52 318,52" stroke-linejoin="round" width="12" height="24" fill="rgb(91,217,126)" stroke="rgb(72,173,100)" stroke-width="1" opacity="0.75" />
			</g>
		</g>
		<g>
			<title> (ctg2607_9)</title>
			<polygon class=" (ctg2607_9)" points="323,40 332,10 332,70" fill="rgb(255,255,255)" fill-opacity="1.0" stroke="rgb(0,0,0)" stroke-width="2"  />
		</g>
		<g>
			<title> (ctg2607_10)</title>
			<polygon class=" (ctg2607_10)" points="333,25 349,25 349,10 379,40 349,70 349,55 333,55" fill="rgb(255,255,255)" fill-opacity="1.0" stroke="rgb(0,0,0)" stroke-width="2"  />
			<g>
				<title>Aminotran_1_2 (PF00155)
"Aminotransferase class I and II"</title>
				<polygon class="PF00155" points="339,28 363,28 375,40 363,52 339,52" stroke-linejoin="round" width="38" height="24" fill="rgb(89,113,198)" stroke="rgb(71,90,158)" stroke-width="1" opacity="0.75" />
			</g>
		</g>
		<g>
			<title> (ctg2607_11)</title>
			<polygon class=" (ctg2607_11)" points="380,25 382,25 382,10 412,40 382,70 382,55 380,55" fill="rgb(255,255,255)" fill-opacity="1.0" stroke="rgb(0,0,0)" stroke-width="2"  />
		</g>
		<g>
			<title> (ctg2607_12)</title>
			<polygon class=" (ctg2607_12)" points="477,25 443,25 443,10 413,40 443,70 443,55 477,55" fill="rgb(255,255,255)" fill-opacity="1.0" stroke="rgb(0,0,0)" stroke-width="2"  />
		</g>
		<g>
			<title> (ctg2607_13)</title>
			<polygon class=" (ctg2607_13)" points="522,25 508,25 508,10 478,40 508,70 508,55 522,55" fill="rgb(255,255,255)" fill-opacity="1.0" stroke="rgb(0,0,0)" stroke-width="2"  />
			<g>
				<title>DAO (PF01266)
"FAD dependent oxidoreductase"</title>
				<polygon class="PF01266" points="482,40 494,28 516,28 516,52 494,52" stroke-linejoin="round" width="35" height="24" fill="rgb(123,179,59)" stroke="rgb(98,143,47)" stroke-width="1" opacity="0.75" />
			</g>
		</g>
		<g>
			<title> (ctg2607_14)</title>
			<polygon class=" (ctg2607_14)" points="585,25 557,25 557,10 527,40 557,70 557,55 585,55" fill="rgb(255,255,255)" fill-opacity="1.0" stroke="rgb(0,0,0)" stroke-width="2"  />
			<g>
				<title>Peptidase_M1 (PF01433)
"Peptidase family M1 domain"</title>
				<polygon class="PF01433" points="537,34 543,28 557,28 557,52 543,52 537,46" stroke-linejoin="round" width="20" height="24" fill="rgb(173,57,219)" stroke="rgb(138,45,175)" stroke-width="1" opacity="0.75" />
			</g>
			<g>
				<title>Peptidase_M1_N (PF17900)
"Peptidase M1 N-terminal domain"</title>
				<rect class="PF17900" x="561" y="28" stroke-linejoin="round" width="17" height="24" fill="rgb(212,82,159)" stroke="rgb(169,65,127)" stroke-width="1" opacity="0.75" />
			</g>
		</g>
	</g>
</svg>
