<svg version="1.1" baseProfile="full" xmlns="http://www.w3.org/2000/svg" width="585.2666666666667" height="80">
	<g>
		<line x1="10" y1="40.0" x2="575.2666666666667" y2="40.0" style="stroke:rgb(70,70,70); stroke-width:3 "/>
		<g>
			<title> (ctg505_42)</title>
			<polygon class=" (ctg505_42)" points="70,40 97,10 97,70" fill="rgb(255,255,255)" fill-opacity="1.0" stroke="rgb(0,0,0)" stroke-width="2"  />
			<g>
				<title>Hydrolase_3 (PF08282)
"haloacid dehalogenase-like hydrolase"</title>
				<polygon class="PF08282" points="74,40 85,28 96,28 96,52 85,52" stroke-linejoin="round" width="25" height="24" fill="rgb(195,74,128)" stroke="rgb(156,59,102)" stroke-width="1" opacity="0.75" />
			</g>
		</g>
		<g>
			<title> (ctg505_43)</title>
			<polygon class=" (ctg505_43)" points="103,25 116,25 116,10 146,40 116,70 116,55 103,55" fill="rgb(255,255,255)" fill-opacity="1.0" stroke="rgb(0,0,0)" stroke-width="2"  />
			<g>
				<title>UPF0052 (PF01933)
"Uncharacterised protein family UPF0052"</title>
				<polygon class="PF01933" points="114,28 130,28 142,40 142,40 130,52 114,52" stroke-linejoin="round" width="28" height="24" fill="rgb(163,205,51)" stroke="rgb(130,164,40)" stroke-width="1" opacity="0.75" />
			</g>
		</g>
		<g>
			<title> (ctg505_44)</title>
			<polygon class=" (ctg505_44)" points="179,25 178,25 178,10 148,40 178,70 178,55 179,55" fill="rgb(255,255,255)" fill-opacity="1.0" stroke="rgb(0,0,0)" stroke-width="2"  />
			<g>
				<title>polyprenyl_synt (PF00348)
"Polyprenyl synthetase"</title>
				<polygon class="PF00348" points="152,40 164,28 176,28 176,52 164,52 152,40" stroke-linejoin="round" width="24" height="24" fill="rgb(61,206,65)" stroke="rgb(48,164,52)" stroke-width="1" opacity="0.75" />
			</g>
		</g>
		<g>
			<title> (ctg505_45)</title>
			<polygon class=" (ctg505_45)" points="243,25 213,25 213,10 183,40 213,70 213,55 243,55" fill="rgb(255,255,255)" fill-opacity="1.0" stroke="rgb(0,0,0)" stroke-width="2"  />
			<g>
				<title>Transketolase_C (PF02780)
"Transketolase, C-terminal domain"</title>
				<polygon class="PF02780" points="187,40 197,30 197,50" stroke-linejoin="round" width="12" height="24" fill="rgb(76,206,101)" stroke="rgb(60,164,80)" stroke-width="1" opacity="0.75" />
			</g>
			<g>
				<title>Transket_pyr (PF02779)
"Transketolase, pyrimidine binding domain"</title>
				<polygon class="PF02779" points="199,28 199,28 215,28 215,52 199,52 199,52" stroke-linejoin="round" width="16" height="24" fill="rgb(189,186,84)" stroke="rgb(151,148,67)" stroke-width="1" opacity="0.75" />
			</g>
			<g>
				<title>DXP_synthase_N (PF13292)
"1-deoxy-D-xylulose-5-phosphate synthase"</title>
				<rect class="PF13292" x="218" y="28" stroke-linejoin="round" width="25" height="24" fill="rgb(46,179,173)" stroke="rgb(36,143,138)" stroke-width="1" opacity="0.75" />
			</g>
		</g>
		<g>
			<title> (ctg505_46)</title>
			<polygon class=" (ctg505_46)" points="249,10 274,40 249,70" fill="rgb(255,255,255)" fill-opacity="1.0" stroke="rgb(0,0,0)" stroke-width="2"  />
			<g>
				<title>adh_short (PF00106)
"short chain dehydrogenase"</title>
				<polygon class="PF00106" points="249,28 260,28 267,37 267,43 260,52 249,52" stroke-linejoin="round" width="18" height="24" fill="rgb(182,219,73)" stroke="rgb(145,175,58)" stroke-width="1" opacity="0.75" />
			</g>
		</g>
		<g>
			<title> (ctg505_47)</title>
			<polygon class=" (ctg505_47)" points="306,25 304,25 304,10 274,40 304,70 304,55 306,55" fill="rgb(255,255,255)" fill-opacity="1.0" stroke="rgb(0,0,0)" stroke-width="2"  />
			<g>
				<title>DUF3463 (PF11946)
"Domain of unknown function (DUF3463)"</title>
				<polygon class="PF11946" points="278,40 287,31 287,49" stroke-linejoin="round" width="13" height="24" fill="rgb(193,51,57)" stroke="rgb(154,40,45)" stroke-width="1" opacity="0.75" />
			</g>
			<g>
				<title>Radical_SAM (PF04055)
"Radical SAM superfamily"</title>
				<polygon class="PF04055" points="289,29 290,28 304,28 304,52 290,52 289,51" stroke-linejoin="round" width="15" height="24" fill="rgb(149,56,222)" stroke="rgb(119,44,177)" stroke-width="1" opacity="0.75" />
			</g>
		</g>
		<g>
			<title> (ctg505_48)</title>
			<polygon class=" (ctg505_48)" points="308,10 323,40 308,70" fill="rgb(255,255,255)" fill-opacity="1.0" stroke="rgb(0,0,0)" stroke-width="2"  />
		</g>
		<g>
			<title> (ctg505_49)</title>
			<polygon class=" (ctg505_49)" points="322,40 329,10 329,70" fill="rgb(255,255,255)" fill-opacity="1.0" stroke="rgb(0,0,0)" stroke-width="2"  />
		</g>
		<g>
			<title> (ctg505_50)</title>
			<polygon class=" (ctg505_50)" points="331,40 340,10 340,70" fill="rgb(255,255,255)" fill-opacity="1.0" stroke="rgb(0,0,0)" stroke-width="2"  />
			<g>
				<title>HTH_3 (PF01381)
"Helix-turn-helix"</title>
				<polygon class="PF01381" points="334,40 337,31 337,49" stroke-linejoin="round" width="5" height="24" fill="rgb(105,79,202)" stroke="rgb(83,63,161)" stroke-width="1" opacity="0.75" />
			</g>
		</g>
		<g>
			<title> (ctg505_51)</title>
			<polygon class=" (ctg505_51)" points="406,25 373,25 373,10 343,40 373,70 373,55 406,55" fill="rgb(255,255,255)" fill-opacity="1.0" stroke="rgb(0,0,0)" stroke-width="2"  />
			<g>
				<title>SQHop_cyclase_C (PF13243)
"Squalene-hopene cyclase C-terminal domain"</title>
				<polygon class="PF13243" points="347,40 359,28 375,28 375,52 359,52" stroke-linejoin="round" width="31" height="24" fill="rgb(191,58,201)" stroke="rgb(152,46,160)" stroke-width="1" opacity="0.75" />
			</g>
			<g>
				<title>SQHop_cyclase_N (PF13249)
"Squalene-hopene cyclase N-terminal domain"</title>
				<rect class="PF13249" x="376" y="28" stroke-linejoin="round" width="28" height="24" fill="rgb(88,190,89)" stroke="rgb(70,152,71)" stroke-width="1" opacity="0.75" />
			</g>
		</g>
		<g>
			<title> (ctg505_52)</title>
			<polygon class=" (ctg505_52)" points="451,25 436,25 436,10 406,40 436,70 436,55 451,55" fill="rgb(255,255,255)" fill-opacity="1.0" stroke="rgb(0,0,0)" stroke-width="2"  />
			<g>
				<title>Amino_oxidase (PF01593)
"Flavin containing amine oxidoreductase"</title>
				<polygon class="PF01593" points="410,40 422,28 449,28 449,52 422,52" stroke-linejoin="round" width="42" height="24" fill="rgb(184,74,52)" stroke="rgb(147,59,41)" stroke-width="1" opacity="0.75" />
			</g>
		</g>
		<g>
			<title> (ctg505_53)</title>
			<polygon class=" (ctg505_53)" points="451,40 478,10 478,70" fill="rgb(255,255,255)" fill-opacity="1.0" stroke="rgb(0,0,0)" stroke-width="2"  />
			<g>
				<title>SQS_PSY (PF00494)
"Squalene/phytoene synthase"</title>
				<polygon class="PF00494" points="455,40 466,28 477,28 477,52 466,52" stroke-linejoin="round" width="25" height="24" fill="rgb(178,91,49)" stroke="rgb(142,72,39)" stroke-width="1" opacity="0.75" />
			</g>
		</g>
		<g>
			<title> (ctg505_54)</title>
			<polygon class=" (ctg505_54)" points="479,40 507,10 507,70" fill="rgb(255,255,255)" fill-opacity="1.0" stroke="rgb(0,0,0)" stroke-width="2"  />
			<g>
				<title>SQS_PSY (PF00494)
"Squalene/phytoene synthase"</title>
				<polygon class="PF00494" points="483,40 494,28 505,28 505,52 494,52" stroke-linejoin="round" width="25" height="24" fill="rgb(178,91,49)" stroke="rgb(142,72,39)" stroke-width="1" opacity="0.75" />
			</g>
		</g>
		<g>
			<title> (ctg505_55)</title>
			<polygon class=" (ctg505_55)" points="519,25 523,25 523,10 553,40 523,70 523,55 519,55" fill="rgb(255,255,255)" fill-opacity="1.0" stroke="rgb(0,0,0)" stroke-width="2"  />
			<g>
				<title>Gp_dh_N (PF00044)
"Glyceraldehyde 3-phosphate dehydrogenase, NAD binding domain"</title>
				<rect class="PF00044" x="519" y="28" stroke-linejoin="round" width="10" height="24" fill="rgb(212,98,148)" stroke="rgb(169,78,118)" stroke-width="1" opacity="0.75" />
			</g>
			<g>
				<title>Gp_dh_C (PF02800)
"Glyceraldehyde 3-phosphate dehydrogenase, C-terminal domain"</title>
				<polygon class="PF02800" points="534,28 536,28 548,40 536,52 534,52" stroke-linejoin="round" width="15" height="24" fill="rgb(160,186,82)" stroke="rgb(128,148,65)" stroke-width="1" opacity="0.75" />
			</g>
		</g>
		<g>
			<title> (ctg505_56)</title>
			<polygon class=" (ctg505_56)" points="558,10 575,40 558,70" fill="rgb(255,255,255)" fill-opacity="1.0" stroke="rgb(0,0,0)" stroke-width="2"  />
			<g>
				<title>PGK (PF00162)
"Phosphoglycerate kinase"</title>
				<polygon class="PF00162" points="558,28 564,28 571,40 564,52 558,52" stroke-linejoin="round" width="16" height="24" fill="rgb(63,212,81)" stroke="rgb(50,169,64)" stroke-width="1" opacity="0.75" />
			</g>
		</g>
	</g>
</svg>
