<svg version="1.1" baseProfile="full" xmlns="http://www.w3.org/2000/svg" width="726.3333333333334" height="80">
	<g>
		<line x1="10" y1="40.0" x2="716.3333333333334" y2="40.0" style="stroke:rgb(70,70,70); stroke-width:3 "/>
		<g>
			<title> (ctg1919_1)</title>
			<polygon class=" (ctg1919_1)" points="10,10 12,40 10,70" fill="rgb(255,255,255)" fill-opacity="1.0" stroke="rgb(0,0,0)" stroke-width="2"  />
		</g>
		<g>
			<title> (ctg1919_2)</title>
			<polygon class=" (ctg1919_2)" points="12,10 20,40 12,70" fill="rgb(255,255,255)" fill-opacity="1.0" stroke="rgb(0,0,0)" stroke-width="2"  />
		</g>
		<g>
			<title> (ctg1919_3)</title>
			<polygon class=" (ctg1919_3)" points="20,10 23,40 20,70" fill="rgb(255,255,255)" fill-opacity="1.0" stroke="rgb(0,0,0)" stroke-width="2"  />
		</g>
		<g>
			<title> (ctg1919_4)</title>
			<polygon class=" (ctg1919_4)" points="24,10 49,40 24,70" fill="rgb(255,255,255)" fill-opacity="1.0" stroke="rgb(0,0,0)" stroke-width="2"  />
		</g>
		<g>
			<title> (ctg1919_5)</title>
			<polygon class=" (ctg1919_5)" points="48,25 76,25 76,10 106,40 76,70 76,55 48,55" fill="rgb(255,255,255)" fill-opacity="1.0" stroke="rgb(0,0,0)" stroke-width="2"  />
			<g>
				<title>rve (PF00665)
"Integrase core domain"</title>
				<rect class="PF00665" x="67" y="28" stroke-linejoin="round" width="11" height="24" fill="rgb(93,64,200)" stroke="rgb(74,51,160)" stroke-width="1" opacity="0.75" />
			</g>
			<g>
				<title>Mu-transpos_C (PF09299)
"Mu transposase, C-terminal"</title>
				<polygon class="PF09299" points="88,28 90,28 94,32 94,48 90,52 88,52" stroke-linejoin="round" width="6" height="24" fill="rgb(73,158,216)" stroke="rgb(58,126,172)" stroke-width="1" opacity="0.75" />
			</g>
		</g>
		<g>
			<title> (ctg1919_6)</title>
			<polygon class=" (ctg1919_6)" points="107,25 110,25 110,10 140,40 110,70 110,55 107,55" fill="rgb(255,255,255)" fill-opacity="1.0" stroke="rgb(0,0,0)" stroke-width="2"  />
			<g>
				<title>AAA_22 (PF13401)
"AAA domain"</title>
				<polygon class="PF13401" points="117,28 123,28 129,34 129,46 123,52 117,52" stroke-linejoin="round" width="12" height="24" fill="rgb(174,224,73)" stroke="rgb(139,179,58)" stroke-width="1" opacity="0.75" />
			</g>
		</g>
		<g>
			<title> (ctg1919_7)</title>
			<polygon class=" (ctg1919_7)" points="140,10 147,40 140,70" fill="rgb(255,255,255)" fill-opacity="1.0" stroke="rgb(0,0,0)" stroke-width="2"  />
		</g>
		<g>
			<title> (ctg1919_8)</title>
			<polygon class=" (ctg1919_8)" points="147,10 164,40 147,70" fill="rgb(255,255,255)" fill-opacity="1.0" stroke="rgb(0,0,0)" stroke-width="2"  />
			<g>
				<title>Bac_DnaA_C (PF08299)
"Bacterial dnaA protein helix-turn-helix"</title>
				<rect class="PF08299" x="147" y="28" stroke-linejoin="round" width="6" height="24" fill="rgb(223,151,101)" stroke="rgb(178,120,80)" stroke-width="1" opacity="0.75" />
			</g>
		</g>
		<g>
			<title> (ctg1919_9)</title>
			<polygon class=" (ctg1919_9)" points="164,10 182,40 164,70" fill="rgb(255,255,255)" fill-opacity="1.0" stroke="rgb(0,0,0)" stroke-width="2"  />
		</g>
		<g>
			<title> (ctg1919_10)</title>
			<polygon class=" (ctg1919_10)" points="182,10 189,40 182,70" fill="rgb(255,255,255)" fill-opacity="1.0" stroke="rgb(0,0,0)" stroke-width="2"  />
		</g>
		<g>
			<title> (ctg1919_11)</title>
			<polygon class=" (ctg1919_11)" points="189,10 196,40 189,70" fill="rgb(255,255,255)" fill-opacity="1.0" stroke="rgb(0,0,0)" stroke-width="2"  />
		</g>
		<g>
			<title> (ctg1919_12)</title>
			<polygon class=" (ctg1919_12)" points="196,10 202,40 196,70" fill="rgb(255,255,255)" fill-opacity="1.0" stroke="rgb(0,0,0)" stroke-width="2"  />
		</g>
		<g>
			<title> (ctg1919_13)</title>
			<polygon class=" (ctg1919_13)" points="202,10 214,40 202,70" fill="rgb(255,255,255)" fill-opacity="1.0" stroke="rgb(0,0,0)" stroke-width="2"  />
			<g>
				<title>HTH_31 (PF13560)
"Helix-turn-helix domain"</title>
				<polygon class="PF13560" points="203,28 206,28 209,34 209,46 206,52 203,52" stroke-linejoin="round" width="6" height="24" fill="rgb(207,145,90)" stroke="rgb(165,116,72)" stroke-width="1" opacity="0.75" />
			</g>
		</g>
		<g>
			<title> (ctg1919_14)</title>
			<polygon class=" (ctg1919_14)" points="216,10 238,40 216,70" fill="rgb(255,255,255)" fill-opacity="1.0" stroke="rgb(0,0,0)" stroke-width="2"  />
			<g>
				<title>DUF1018 (PF06252)
"Protein of unknown function (DUF1018)"</title>
				<polygon class="PF06252" points="218,28 225,28 228,32 228,48 225,52 218,52" stroke-linejoin="round" width="10" height="24" fill="rgb(66,117,206)" stroke="rgb(52,93,164)" stroke-width="1" opacity="0.75" />
			</g>
		</g>
		<g>
			<title> (ctg1919_15)</title>
			<polygon class=" (ctg1919_15)" points="239,10 255,40 239,70" fill="rgb(255,255,255)" fill-opacity="1.0" stroke="rgb(0,0,0)" stroke-width="2"  />
		</g>
		<g>
			<title> (ctg1919_16)</title>
			<polygon class=" (ctg1919_16)" points="256,10 270,40 256,70" fill="rgb(255,255,255)" fill-opacity="1.0" stroke="rgb(0,0,0)" stroke-width="2"  />
		</g>
		<g>
			<title> (ctg1919_17)</title>
			<polygon class=" (ctg1919_17)" points="274,10 296,40 274,70" fill="rgb(255,255,255)" fill-opacity="1.0" stroke="rgb(0,0,0)" stroke-width="2"  />
		</g>
		<g>
			<title> (ctg1919_18)</title>
			<polygon class=" (ctg1919_18)" points="299,10 311,40 299,70" fill="rgb(255,255,255)" fill-opacity="1.0" stroke="rgb(0,0,0)" stroke-width="2"  />
		</g>
		<g>
			<title> (ctg1919_19)</title>
			<polygon class=" (ctg1919_19)" points="312,10 329,40 312,70" fill="rgb(255,255,255)" fill-opacity="1.0" stroke="rgb(0,0,0)" stroke-width="2"  />
		</g>
		<g>
			<title> (ctg1919_20)</title>
			<polygon class=" (ctg1919_20)" points="330,10 341,40 330,70" fill="rgb(255,255,255)" fill-opacity="1.0" stroke="rgb(0,0,0)" stroke-width="2"  />
		</g>
		<g>
			<title> (ctg1919_21)</title>
			<polygon class=" (ctg1919_21)" points="341,10 351,40 341,70" fill="rgb(255,255,255)" fill-opacity="1.0" stroke="rgb(0,0,0)" stroke-width="2"  />
		</g>
		<g>
			<title> (ctg1919_22)</title>
			<polygon class=" (ctg1919_22)" points="351,10 368,40 351,70" fill="rgb(255,255,255)" fill-opacity="1.0" stroke="rgb(0,0,0)" stroke-width="2"  />
			<g>
				<title>DUF3486 (PF11985)
"Protein of unknown function (DUF3486)"</title>
				<polygon class="PF11985" points="351,28 357,28 364,40 357,52 351,52" stroke-linejoin="round" width="16" height="24" fill="rgb(158,217,103)" stroke="rgb(126,173,82)" stroke-width="1" opacity="0.75" />
			</g>
		</g>
		<g>
			<title> (ctg1919_23)</title>
			<polygon class=" (ctg1919_23)" points="369,25 387,25 387,10 417,40 387,70 387,55 369,55" fill="rgb(255,255,255)" fill-opacity="1.0" stroke="rgb(0,0,0)" stroke-width="2"  />
			<g>
				<title>Terminase_6C (PF17289)
"Terminase RNaseH-like domain"</title>
				<polygon class="PF17289" points="396,28 400,28 411,39 411,41 400,52 396,52" stroke-linejoin="round" width="15" height="24" fill="rgb(134,103,210)" stroke="rgb(107,82,168)" stroke-width="1" opacity="0.75" />
			</g>
		</g>
		<g>
			<title> (ctg1919_24)</title>
			<polygon class=" (ctg1919_24)" points="417,25 442,25 442,10 472,40 442,70 442,55 417,55" fill="rgb(255,255,255)" fill-opacity="1.0" stroke="rgb(0,0,0)" stroke-width="2"  />
			<g>
				<title>DUF935 (PF06074)
"Protein of unknown function (DUF935)"</title>
				<polygon class="PF06074" points="417,28 456,28 468,40 456,52 417,52" stroke-linejoin="round" width="54" height="24" fill="rgb(227,155,64)" stroke="rgb(181,124,51)" stroke-width="1" opacity="0.75" />
			</g>
		</g>
		<g>
			<title> (ctg1919_25)</title>
			<polygon class=" (ctg1919_25)" points="472,10 478,40 472,70" fill="rgb(255,255,255)" fill-opacity="1.0" stroke="rgb(0,0,0)" stroke-width="2"  />
		</g>
		<g>
			<title> (ctg1919_26)</title>
			<polygon class=" (ctg1919_26)" points="478,10 506,40 478,70" fill="rgb(255,255,255)" fill-opacity="1.0" stroke="rgb(0,0,0)" stroke-width="2"  />
			<g>
				<title>Phage_Mu_F (PF04233)
"Phage Mu protein F like protein"</title>
				<polygon class="PF04233" points="483,28 490,28 496,34 496,46 490,52 483,52" stroke-linejoin="round" width="13" height="24" fill="rgb(190,165,64)" stroke="rgb(152,132,51)" stroke-width="1" opacity="0.75" />
			</g>
		</g>
		<g>
			<title> (ctg1919_27)</title>
			<polygon class=" (ctg1919_27)" points="514,10 537,40 514,70" fill="rgb(255,255,255)" fill-opacity="1.0" stroke="rgb(0,0,0)" stroke-width="2"  />
			<g>
				<title>BPD_transp_1 (PF00528)
"Binding-protein-dependent transport system inner membrane component"</title>
				<polygon class="PF00528" points="516,28 524,28 533,40 524,52 516,52" stroke-linejoin="round" width="19" height="24" fill="rgb(77,208,225)" stroke="rgb(61,166,180)" stroke-width="1" opacity="0.75" />
			</g>
		</g>
		<g>
			<title> (ctg1919_28)</title>
			<polygon class=" (ctg1919_28)" points="544,40 570,10 570,70" fill="rgb(255,255,255)" fill-opacity="1.0" stroke="rgb(0,0,0)" stroke-width="2"  />
			<g>
				<title>Phosphonate-bd (PF12974)
"ABC transporter, phosphonate, periplasmic substrate-binding protein"</title>
				<polygon class="PF12974" points="548,40 558,28 567,28 567,52 558,52" stroke-linejoin="round" width="23" height="24" fill="rgb(150,187,81)" stroke="rgb(120,149,64)" stroke-width="1" opacity="0.75" />
			</g>
		</g>
		<g>
			<title> (ctg1919_29)</title>
			<polygon class=" (ctg1919_29)" points="572,40 584,10 584,70" fill="rgb(255,255,255)" fill-opacity="1.0" stroke="rgb(0,0,0)" stroke-width="2"  />
		</g>
		<g>
			<title> (ctg1919_30)</title>
			<polygon class=" (ctg1919_30)" points="665,25 617,25 617,10 587,40 617,70 617,55 665,55" fill="rgb(255,255,255)" fill-opacity="1.0" stroke="rgb(0,0,0)" stroke-width="2"  />
			<g>
				<title>Laminin_G_3 (PF13385)
"Concanavalin A-like lectin/glucanases superfamily"</title>
				<rect class="PF13385" x="647" y="28" stroke-linejoin="round" width="11" height="24" fill="rgb(93,162,213)" stroke="rgb(74,129,170)" stroke-width="1" opacity="0.75" />
			</g>
		</g>
		<g>
			<title> (ctg1919_31)</title>
			<polygon class=" (ctg1919_31)" points="667,40 681,10 681,70" fill="rgb(255,255,255)" fill-opacity="1.0" stroke="rgb(0,0,0)" stroke-width="2"  />
		</g>
	</g>
</svg>
