<svg version="1.1" baseProfile="full" xmlns="http://www.w3.org/2000/svg" width="581.1333333333333" height="80">
	<g>
		<line x1="10" y1="40.0" x2="571.1333333333333" y2="40.0" style="stroke:rgb(70,70,70); stroke-width:3 "/>
		<g>
			<title> (ctg2651_1)</title>
			<polygon class=" (ctg2651_1)" points="99,25 49,25 49,10 19,40 49,70 49,55 99,55" fill="rgb(255,255,255)" fill-opacity="1.0" stroke="rgb(0,0,0)" stroke-width="2"  />
			<g>
				<title>DUF305 (PF03713)
"Domain of unknown function (DUF305)"</title>
				<rect class="PF03713" x="80" y="28" stroke-linejoin="round" width="15" height="24" fill="rgb(184,86,182)" stroke="rgb(147,68,145)" stroke-width="1" opacity="0.75" />
			</g>
		</g>
		<g>
			<title> (ctg2651_2)</title>
			<polygon class=" (ctg2651_2)" points="194,25 158,25 158,10 128,40 158,70 158,55 194,55" fill="rgb(255,255,255)" fill-opacity="1.0" stroke="rgb(0,0,0)" stroke-width="2"  />
			<g>
				<title>PQQ_2 (PF13360)
"PQQ-like domain"</title>
				<polygon class="PF13360" points="132,40 139,33 139,47" stroke-linejoin="round" width="11" height="24" fill="rgb(98,210,146)" stroke="rgb(78,168,116)" stroke-width="1" opacity="0.75" />
			</g>
			<g>
				<title>PQQ_2 (PF13360)
"PQQ-like domain"</title>
				<rect class="PF13360" x="154" y="28" stroke-linejoin="round" width="17" height="24" fill="rgb(98,210,146)" stroke="rgb(78,168,116)" stroke-width="1" opacity="0.75" />
			</g>
			<g>
				<title>PQQ_2 (PF13360)
"PQQ-like domain"</title>
				<rect class="PF13360" x="169" y="28" stroke-linejoin="round" width="18" height="24" fill="rgb(98,210,146)" stroke="rgb(78,168,116)" stroke-width="1" opacity="0.75" />
			</g>
		</g>
		<g>
			<title> (ctg2651_3)</title>
			<polygon class=" (ctg2651_3)" points="269,25 224,25 224,10 194,40 224,70 224,55 269,55" fill="rgb(255,255,255)" fill-opacity="1.0" stroke="rgb(0,0,0)" stroke-width="2"  />
			<g>
				<title>STAS (PF01740)
"STAS domain"</title>
				<polygon class="PF01740" points="210,28 210,28 220,28 220,52 210,52 210,52" stroke-linejoin="round" width="10" height="24" fill="rgb(219,58,116)" stroke="rgb(175,46,92)" stroke-width="1" opacity="0.75" />
			</g>
			<g>
				<title>Sulfate_transp (PF00916)
"Sulfate permease family"</title>
				<rect class="PF00916" x="227" y="28" stroke-linejoin="round" width="38" height="24" fill="rgb(189,61,212)" stroke="rgb(151,48,169)" stroke-width="1" opacity="0.75" />
			</g>
		</g>
		<g>
			<title> (ctg2651_4)</title>
			<polygon class=" (ctg2651_4)" points="318,10 338,40 318,70" fill="rgb(255,255,255)" fill-opacity="1.0" stroke="rgb(0,0,0)" stroke-width="2"  />
		</g>
		<g>
			<title> (ctg2651_5)</title>
			<polygon class=" (ctg2651_5)" points="351,10 368,40 351,70" fill="rgb(255,255,255)" fill-opacity="1.0" stroke="rgb(0,0,0)" stroke-width="2"  />
			<g>
				<title>Acetyltransf_7 (PF13508)
"Acetyltransferase (GNAT) domain"</title>
				<polygon class="PF13508" points="357,28 358,28 365,40 365,40 358,52 357,52" stroke-linejoin="round" width="8" height="24" fill="rgb(183,210,60)" stroke="rgb(146,168,48)" stroke-width="1" opacity="0.75" />
			</g>
		</g>
		<g>
			<title> (ctg2651_6)</title>
			<polygon class=" (ctg2651_6)" points="372,25 427,25 427,10 457,40 427,70 427,55 372,55" fill="rgb(255,255,255)" fill-opacity="1.0" stroke="rgb(0,0,0)" stroke-width="2"  />
			<g>
				<title>CarboxypepD_reg (PF13620)
"Carboxypeptidase regulatory-like domain"</title>
				<rect class="PF13620" x="377" y="28" stroke-linejoin="round" width="8" height="24" fill="rgb(201,63,96)" stroke="rgb(160,50,76)" stroke-width="1" opacity="0.75" />
			</g>
			<g>
				<title>TonB_dep_Rec (PF00593)
"TonB dependent receptor"</title>
				<polygon class="PF00593" points="400,28 441,28 453,40 441,52 400,52" stroke-linejoin="round" width="55" height="24" fill="rgb(171,200,51)" stroke="rgb(136,160,40)" stroke-width="1" opacity="0.75" />
			</g>
		</g>
		<g>
			<title> (ctg2651_7)</title>
			<polygon class=" (ctg2651_7)" points="461,25 515,25 515,10 545,40 515,70 515,55 461,55" fill="rgb(255,255,255)" fill-opacity="1.0" stroke="rgb(0,0,0)" stroke-width="2"  />
			<g>
				<title>AMP-binding (PF00501)
"AMP-binding enzyme"</title>
				<rect class="PF00501" x="462" y="28" stroke-linejoin="round" width="40" height="24" fill="rgb(60,217,223)" stroke="rgb(48,173,178)" stroke-width="1" opacity="0.75" />
			</g>
			<g>
				<title>PP-binding (PF00550)
"Phosphopantetheine attachment site"</title>
				<rect class="PF00550" x="513" y="28" stroke-linejoin="round" width="6" height="24" fill="rgb(103,191,88)" stroke="rgb(82,152,70)" stroke-width="1" opacity="0.75" />
			</g>
			<g>
				<title>Acyltransferase (PF01553)
"Acyltransferase"</title>
				<polygon class="PF01553" points="525,28 528,28 539,39 539,41 528,52 525,52" stroke-linejoin="round" width="14" height="24" fill="rgb(87,176,216)" stroke="rgb(69,140,172)" stroke-width="1" opacity="0.75" />
			</g>
		</g>
		<g>
			<title> (ctg2651_8)</title>
			<polygon class=" (ctg2651_8)" points="547,40 562,10 562,70" fill="rgb(255,255,255)" fill-opacity="1.0" stroke="rgb(0,0,0)" stroke-width="2"  />
			<g>
				<title>GyrI-like (PF06445)
"GyrI-like small molecule binding domain"</title>
				<polygon class="PF06445" points="550,40 556,28 562,28 562,52 556,52" stroke-linejoin="round" width="15" height="24" fill="rgb(61,183,118)" stroke="rgb(48,146,94)" stroke-width="1" opacity="0.75" />
			</g>
		</g>
	</g>
</svg>
