<svg version="1.1" baseProfile="full" xmlns="http://www.w3.org/2000/svg" width="387.43333333333334" height="80">
	<g>
		<line x1="10" y1="40.0" x2="377.43333333333334" y2="40.0" style="stroke:rgb(70,70,70); stroke-width:3 "/>
		<g>
			<title> (ctg4434_1)</title>
			<polygon class=" (ctg4434_1)" points="10,10 15,40 10,70" fill="rgb(255,255,255)" fill-opacity="1.0" stroke="rgb(0,0,0)" stroke-width="2"  />
		</g>
		<g>
			<title> (ctg4434_2)</title>
			<polygon class=" (ctg4434_2)" points="16,25 69,25 69,10 99,40 69,70 69,55 16,55" fill="rgb(255,255,255)" fill-opacity="1.0" stroke="rgb(0,0,0)" stroke-width="2"  />
			<g>
				<title>ketoacyl-synt (PF00109)
"Beta-ketoacyl synthase, N-terminal domain"</title>
				<rect class="PF00109" x="16" y="28" stroke-linejoin="round" width="23" height="24" fill="rgb(112,116,228)" stroke="rgb(89,92,182)" stroke-width="1" opacity="0.75" />
			</g>
			<g>
				<title>Ketoacyl-synt_C (PF02801)
"Beta-ketoacyl synthase, C-terminal domain"</title>
				<rect class="PF02801" x="40" y="28" stroke-linejoin="round" width="11" height="24" fill="rgb(215,78,102)" stroke="rgb(172,62,81)" stroke-width="1" opacity="0.75" />
			</g>
			<g>
				<title>KAsynt_C_assoc (PF16197)
"Ketoacyl-synthetase C-terminal extension"</title>
				<rect class="PF16197" x="52" y="28" stroke-linejoin="round" width="15" height="24" fill="rgb(240,150,172)" stroke="rgb(192,120,137)" stroke-width="1" opacity="0.75" />
			</g>
			<g>
				<title>Acyl_transf_1 (PF00698)
"Acyl transferase domain"</title>
				<polygon class="PF00698" points="71,28 82,28 84,30 84,50 82,52 71,52" stroke-linejoin="round" width="13" height="24" fill="rgb(59,176,209)" stroke="rgb(47,140,167)" stroke-width="1" opacity="0.75" />
			</g>
		</g>
		<g>
			<title> (ctg4434_3)</title>
			<polygon class=" (ctg4434_3)" points="100,25 129,25 129,10 159,40 129,70 129,55 100,55" fill="rgb(255,255,255)" fill-opacity="1.0" stroke="rgb(0,0,0)" stroke-width="2"  />
			<g>
				<title>Xan_ur_permease (PF00860)
"Permease family"</title>
				<rect class="PF00860" x="102" y="28" stroke-linejoin="round" width="38" height="24" fill="rgb(216,88,217)" stroke="rgb(172,70,173)" stroke-width="1" opacity="0.75" />
			</g>
		</g>
		<g>
			<title> (ctg4434_4)</title>
			<polygon class=" (ctg4434_4)" points="191,25 191,25 191,10 161,40 191,70 191,55 191,55" fill="rgb(255,255,255)" fill-opacity="1.0" stroke="rgb(0,0,0)" stroke-width="2"  />
			<g>
				<title>Abhydrolase_6 (PF12697)
"Alpha/beta hydrolase family"</title>
				<polygon class="PF12697" points="165,40 177,28 187,28 187,52 177,52" stroke-linejoin="round" width="25" height="24" fill="rgb(113,71,219)" stroke="rgb(90,56,175)" stroke-width="1" opacity="0.75" />
			</g>
		</g>
		<g>
			<title> (ctg4434_5)</title>
			<polygon class=" (ctg4434_5)" points="199,25 205,25 205,10 235,40 205,70 205,55 199,55" fill="rgb(255,255,255)" fill-opacity="1.0" stroke="rgb(0,0,0)" stroke-width="2"  />
			<g>
				<title>PhyH (PF05721)
"Phytanoyl-CoA dioxygenase (PhyH)"</title>
				<polygon class="PF05721" points="202,28 219,28 226,35 226,45 219,52 202,52" stroke-linejoin="round" width="24" height="24" fill="rgb(72,132,214)" stroke="rgb(57,105,171)" stroke-width="1" opacity="0.75" />
			</g>
		</g>
		<g>
			<title> (ctg4434_6)</title>
			<polygon class=" (ctg4434_6)" points="237,40 260,10 260,70" fill="rgb(255,255,255)" fill-opacity="1.0" stroke="rgb(0,0,0)" stroke-width="2"  />
			<g>
				<title>MIP (PF00230)
"Major intrinsic protein"</title>
				<polygon class="PF00230" points="241,40 250,28 259,28 259,52 250,52" stroke-linejoin="round" width="22" height="24" fill="rgb(105,207,228)" stroke="rgb(84,165,182)" stroke-width="1" opacity="0.75" />
			</g>
		</g>
		<g>
			<title> (ctg4434_7)</title>
			<polygon class=" (ctg4434_7)" points="319,25 299,25 299,10 269,40 299,70 299,55 319,55" fill="rgb(255,255,255)" fill-opacity="1.0" stroke="rgb(0,0,0)" stroke-width="2"  />
			<g>
				<title>Sulfatase (PF00884)
"Sulfatase"</title>
				<polygon class="PF00884" points="283,30 285,28 318,28 318,52 285,52 283,50" stroke-linejoin="round" width="35" height="24" fill="rgb(61,103,198)" stroke="rgb(48,82,158)" stroke-width="1" opacity="0.75" />
			</g>
		</g>
		<g>
			<title> (ctg4434_8)</title>
			<polygon class=" (ctg4434_8)" points="322,25 324,25 324,10 354,40 324,70 324,55 322,55" fill="rgb(255,255,255)" fill-opacity="1.0" stroke="rgb(0,0,0)" stroke-width="2"  />
			<g>
				<title>XdhC_CoxI (PF02625)
"XdhC and CoxI family"</title>
				<rect class="PF02625" x="323" y="28" stroke-linejoin="round" width="7" height="24" fill="rgb(206,94,146)" stroke="rgb(164,75,116)" stroke-width="1" opacity="0.75" />
			</g>
			<g>
				<title>XdhC_C (PF13478)
"XdhC Rossmann domain"</title>
				<polygon class="PF13478" points="339,30 349,40 339,50" stroke-linejoin="round" width="14" height="24" fill="rgb(79,186,134)" stroke="rgb(63,148,107)" stroke-width="1" opacity="0.75" />
			</g>
		</g>
		<g>
			<title> (ctg4434_9)</title>
			<polygon class=" (ctg4434_9)" points="354,10 376,40 354,70" fill="rgb(255,255,255)" fill-opacity="1.0" stroke="rgb(0,0,0)" stroke-width="2"  />
			<g>
				<title>Fer2 (PF00111)
"2Fe-2S iron-sulfur cluster binding domain"</title>
				<rect class="PF00111" x="354" y="28" stroke-linejoin="round" width="6" height="24" fill="rgb(60,59,191)" stroke="rgb(48,47,152)" stroke-width="1" opacity="0.75" />
			</g>
			<g>
				<title>Fer2_2 (PF01799)
"[2Fe-2S] binding domain"</title>
				<polygon class="PF01799" points="362,28 364,28 369,35 369,45 364,52 362,52" stroke-linejoin="round" width="7" height="24" fill="rgb(67,193,124)" stroke="rgb(53,154,99)" stroke-width="1" opacity="0.75" />
			</g>
		</g>
	</g>
</svg>
