<svg version="1.1" baseProfile="full" xmlns="http://www.w3.org/2000/svg" width="326.76666666666665" height="80">
	<g>
		<line x1="10" y1="40.0" x2="316.76666666666665" y2="40.0" style="stroke:rgb(70,70,70); stroke-width:3 "/>
		<g>
			<title> (ctg5517_1)</title>
			<polygon class=" (ctg5517_1)" points="123,25 40,25 40,10 10,40 40,70 40,55 123,55" fill="rgb(255,255,255)" fill-opacity="1.0" stroke="rgb(0,0,0)" stroke-width="2"  />
			<g>
				<title>PS-DH (PF14765)
"Polyketide synthase dehydratase"</title>
				<polygon class="PF14765" points="14,40 25,29 25,51" stroke-linejoin="round" width="15" height="24" fill="rgb(173,56,182)" stroke="rgb(138,44,145)" stroke-width="1" opacity="0.75" />
			</g>
			<g>
				<title>Acyl_transf_1 (PF00698)
"Acyl transferase domain"</title>
				<rect class="PF00698" x="34" y="28" stroke-linejoin="round" width="29" height="24" fill="rgb(59,176,209)" stroke="rgb(47,140,167)" stroke-width="1" opacity="0.75" />
			</g>
			<g>
				<title>KAsynt_C_assoc (PF16197)
"Ketoacyl-synthetase C-terminal extension"</title>
				<rect class="PF16197" x="66" y="28" stroke-linejoin="round" width="15" height="24" fill="rgb(240,150,172)" stroke="rgb(192,120,137)" stroke-width="1" opacity="0.75" />
			</g>
			<g>
				<title>Ketoacyl-synt_C (PF02801)
"Beta-ketoacyl synthase, C-terminal domain"</title>
				<rect class="PF02801" x="81" y="28" stroke-linejoin="round" width="11" height="24" fill="rgb(215,78,102)" stroke="rgb(172,62,81)" stroke-width="1" opacity="0.75" />
			</g>
			<g>
				<title>ketoacyl-synt (PF00109)
"Beta-ketoacyl synthase, N-terminal domain"</title>
				<rect class="PF00109" x="94" y="28" stroke-linejoin="round" width="25" height="24" fill="rgb(112,116,228)" stroke="rgb(89,92,182)" stroke-width="1" opacity="0.75" />
			</g>
		</g>
		<g>
			<title> (ctg5517_2)</title>
			<polygon class=" (ctg5517_2)" points="140,10 165,40 140,70" fill="rgb(255,255,255)" fill-opacity="1.0" stroke="rgb(0,0,0)" stroke-width="2"  />
			<g>
				<title>Amdase (PF17645)
"Arylmalonate decarboxylase"</title>
				<polygon class="PF17645" points="143,28 151,28 161,40 151,52 143,52" stroke-linejoin="round" width="21" height="24" fill="rgb(215,75,160)" stroke="rgb(172,60,127)" stroke-width="1" opacity="0.75" />
			</g>
		</g>
		<g>
			<title> (ctg5517_3)</title>
			<polygon class=" (ctg5517_3)" points="165,10 168,40 165,70" fill="rgb(255,255,255)" fill-opacity="1.0" stroke="rgb(0,0,0)" stroke-width="2"  />
		</g>
		<g>
			<title> (ctg5517_4)</title>
			<polygon class=" (ctg5517_4)" points="170,40 194,10 194,70" fill="rgb(255,255,255)" fill-opacity="1.0" stroke="rgb(0,0,0)" stroke-width="2"  />
			<g>
				<title>Amdase (PF17645)
"Arylmalonate decarboxylase"</title>
				<polygon class="PF17645" points="174,40 184,28 188,28 188,52 184,52" stroke-linejoin="round" width="18" height="24" fill="rgb(215,75,160)" stroke="rgb(172,60,127)" stroke-width="1" opacity="0.75" />
			</g>
		</g>
		<g>
			<title> (ctg5517_5)</title>
			<polygon class=" (ctg5517_5)" points="237,25 227,25 227,10 197,40 227,70 227,55 237,55" fill="rgb(255,255,255)" fill-opacity="1.0" stroke="rgb(0,0,0)" stroke-width="2"  />
			<g>
				<title>FAD_binding_3 (PF01494)
"FAD binding domain"</title>
				<polygon class="PF01494" points="202,39 213,28 236,28 236,52 213,52 202,41" stroke-linejoin="round" width="34" height="24" fill="rgb(182,175,59)" stroke="rgb(145,140,47)" stroke-width="1" opacity="0.75" />
			</g>
		</g>
		<g>
			<title> (ctg5517_6)</title>
			<polygon class=" (ctg5517_6)" points="244,40 259,10 259,70" fill="rgb(255,255,255)" fill-opacity="1.0" stroke="rgb(0,0,0)" stroke-width="2"  />
			<g>
				<title>DUF3237 (PF11578)
"Protein of unknown function (DUF3237)"</title>
				<polygon class="PF11578" points="247,40 253,28 258,28 258,52 253,52" stroke-linejoin="round" width="14" height="24" fill="rgb(56,141,215)" stroke="rgb(44,112,172)" stroke-width="1" opacity="0.75" />
			</g>
		</g>
		<g>
			<title> (ctg5517_7)</title>
			<polygon class=" (ctg5517_7)" points="268,25 286,25 286,10 316,40 286,70 286,55 268,55" fill="rgb(255,255,255)" fill-opacity="1.0" stroke="rgb(0,0,0)" stroke-width="2"  />
			<g>
				<title>Ald_Xan_dh_C (PF01315)
"Aldehyde oxidase and xanthine dehydrogenase, a/b hammerhead domain"</title>
				<rect class="PF01315" x="270" y="28" stroke-linejoin="round" width="11" height="24" fill="rgb(127,182,88)" stroke="rgb(101,145,70)" stroke-width="1" opacity="0.75" />
			</g>
			<g>
				<title>Ald_Xan_dh_C2 (PF02738)
"Molybdopterin-binding domain of aldehyde dehydrogenase"</title>
				<polygon class="PF02738" points="282,28 299,28 311,40 299,52 282,52" stroke-linejoin="round" width="32" height="24" fill="rgb(194,143,89)" stroke="rgb(155,114,71)" stroke-width="1" opacity="0.75" />
			</g>
		</g>
	</g>
</svg>
