<svg version="1.1" baseProfile="full" xmlns="http://www.w3.org/2000/svg" width="798.5666666666667" height="80">
	<g>
		<line x1="10" y1="40.0" x2="788.5666666666667" y2="40.0" style="stroke:rgb(70,70,70); stroke-width:3 "/>
		<g>
			<title> (ctg255_19)</title>
			<polygon class=" (ctg255_19)" points="149,40 171,10 171,70" fill="rgb(255,255,255)" fill-opacity="1.0" stroke="rgb(0,0,0)" stroke-width="2"  />
			<g>
				<title>TP_methylase (PF00590)
"Tetrapyrrole (Corrin/Porphyrin) Methylases"</title>
				<polygon class="PF00590" points="153,40 162,28 170,28 170,52 162,52" stroke-linejoin="round" width="19" height="24" fill="rgb(124,218,92)" stroke="rgb(99,174,73)" stroke-width="1" opacity="0.75" />
			</g>
		</g>
		<g>
			<title> (ctg255_20)</title>
			<polygon class=" (ctg255_20)" points="173,40 199,10 199,70" fill="rgb(255,255,255)" fill-opacity="1.0" stroke="rgb(0,0,0)" stroke-width="2"  />
			<g>
				<title>Peripla_BP_2 (PF01497)
"Periplasmic binding protein"</title>
				<polygon class="PF01497" points="177,40 187,28 197,28 197,52 187,52" stroke-linejoin="round" width="21" height="24" fill="rgb(183,226,104)" stroke="rgb(146,180,83)" stroke-width="1" opacity="0.75" />
			</g>
		</g>
		<g>
			<title> (ctg255_21)</title>
			<polygon class=" (ctg255_21)" points="199,10 213,40 199,70" fill="rgb(255,255,255)" fill-opacity="1.0" stroke="rgb(0,0,0)" stroke-width="2"  />
		</g>
		<g>
			<title> (ctg255_22)</title>
			<polygon class=" (ctg255_22)" points="216,10 226,40 216,70" fill="rgb(255,255,255)" fill-opacity="1.0" stroke="rgb(0,0,0)" stroke-width="2"  />
		</g>
		<g>
			<title> (ctg255_23)</title>
			<polygon class=" (ctg255_23)" points="233,25 238,25 238,10 268,40 238,70 238,55 233,55" fill="rgb(255,255,255)" fill-opacity="1.0" stroke="rgb(0,0,0)" stroke-width="2"  />
			<g>
				<title>Aminotran_1_2 (PF00155)
"Aminotransferase class I and II"</title>
				<polygon class="PF00155" points="235,28 251,28 263,40 251,52 235,52" stroke-linejoin="round" width="32" height="24" fill="rgb(89,113,198)" stroke="rgb(71,90,158)" stroke-width="1" opacity="0.75" />
			</g>
		</g>
		<g>
			<title> (ctg255_24)</title>
			<polygon class=" (ctg255_24)" points="271,40 300,10 300,70" fill="rgb(255,255,255)" fill-opacity="1.0" stroke="rgb(0,0,0)" stroke-width="2"  />
			<g>
				<title>GHMP_kinases_C (PF08544)
"GHMP kinases C terminal"</title>
				<polygon class="PF08544" points="275,40 281,34 281,46" stroke-linejoin="round" width="8" height="24" fill="rgb(95,112,219)" stroke="rgb(76,89,175)" stroke-width="1" opacity="0.75" />
			</g>
			<g>
				<title>GHMP_kinases_N (PF00288)
"GHMP kinases N terminal domain"</title>
				<polygon class="PF00288" points="286,29 287,28 291,28 291,52 287,52 286,51" stroke-linejoin="round" width="5" height="24" fill="rgb(190,54,91)" stroke="rgb(152,43,72)" stroke-width="1" opacity="0.75" />
			</g>
		</g>
		<g>
			<title> (ctg255_25)</title>
			<polygon class=" (ctg255_25)" points="314,10 341,40 314,70" fill="rgb(255,255,255)" fill-opacity="1.0" stroke="rgb(0,0,0)" stroke-width="2"  />
			<g>
				<title>Abhydrolase_6 (PF12697)
"Alpha/beta hydrolase family"</title>
				<polygon class="PF12697" points="316,28 325,28 337,40 325,52 316,52" stroke-linejoin="round" width="23" height="24" fill="rgb(113,71,219)" stroke="rgb(90,56,175)" stroke-width="1" opacity="0.75" />
			</g>
		</g>
		<g>
			<title> (ctg255_26)</title>
			<polygon class=" (ctg255_26)" points="454,25 373,25 373,10 343,40 373,70 373,55 454,55" fill="rgb(255,255,255)" fill-opacity="1.0" stroke="rgb(0,0,0)" stroke-width="2"  />
			<g>
				<title>SQHop_cyclase_C (PF13243)
"Squalene-hopene cyclase C-terminal domain"</title>
				<polygon class="PF13243" points="347,40 359,28 375,28 375,52 359,52" stroke-linejoin="round" width="32" height="24" fill="rgb(191,58,201)" stroke="rgb(152,46,160)" stroke-width="1" opacity="0.75" />
			</g>
			<g>
				<title>SQHop_cyclase_N (PF13249)
"Squalene-hopene cyclase N-terminal domain"</title>
				<rect class="PF13249" x="377" y="28" stroke-linejoin="round" width="29" height="24" fill="rgb(88,190,89)" stroke="rgb(70,152,71)" stroke-width="1" opacity="0.75" />
			</g>
			<g>
				<title>SE (PF08491)
"Squalene epoxidase"</title>
				<rect class="PF08491" x="415" y="28" stroke-linejoin="round" width="24" height="24" fill="rgb(93,72,221)" stroke="rgb(74,57,176)" stroke-width="1" opacity="0.75" />
			</g>
		</g>
		<g>
			<title> (ctg255_27)</title>
			<polygon class=" (ctg255_27)" points="501,25 485,25 485,10 455,40 485,70 485,55 501,55" fill="rgb(255,255,255)" fill-opacity="1.0" stroke="rgb(0,0,0)" stroke-width="2"  />
			<g>
				<title>p450 (PF00067)
"Cytochrome P450"</title>
				<polygon class="PF00067" points="459,40 471,28 499,28 499,52 471,52" stroke-linejoin="round" width="43" height="24" fill="rgb(85,216,107)" stroke="rgb(68,172,85)" stroke-width="1" opacity="0.75" />
			</g>
		</g>
		<g>
			<title> (ctg255_28)</title>
			<polygon class=" (ctg255_28)" points="536,25 532,25 532,10 502,40 532,70 532,55 536,55" fill="rgb(255,255,255)" fill-opacity="1.0" stroke="rgb(0,0,0)" stroke-width="2"  />
			<g>
				<title>ERG4_ERG24 (PF01222)
"Ergosterol biosynthesis ERG4/ERG24 family"</title>
				<polygon class="PF01222" points="506,40 518,28 536,28 536,52 518,52" stroke-linejoin="round" width="34" height="24" fill="rgb(99,195,207)" stroke="rgb(79,155,165)" stroke-width="1" opacity="0.75" />
			</g>
		</g>
		<g>
			<title> (ctg255_29)</title>
			<polygon class=" (ctg255_29)" points="575,25 568,25 568,10 538,40 568,70 568,55 575,55" fill="rgb(255,255,255)" fill-opacity="1.0" stroke="rgb(0,0,0)" stroke-width="2"  />
			<g>
				<title>Rieske (PF00355)
"Rieske [2Fe-2S] domain"</title>
				<rect class="PF00355" x="562" y="28" stroke-linejoin="round" width="8" height="24" fill="rgb(186,77,145)" stroke="rgb(148,61,115)" stroke-width="1" opacity="0.75" />
			</g>
		</g>
		<g>
			<title> (ctg255_30)</title>
			<polygon class=" (ctg255_30)" points="613,25 607,25 607,10 577,40 607,70 607,55 613,55" fill="rgb(255,255,255)" fill-opacity="1.0" stroke="rgb(0,0,0)" stroke-width="2"  />
			<g>
				<title>Epimerase (PF01370)
"NAD dependent epimerase/dehydratase family"</title>
				<polygon class="PF01370" points="588,33 593,28 611,28 611,52 593,52 588,47" stroke-linejoin="round" width="23" height="24" fill="rgb(98,102,214)" stroke="rgb(78,81,171)" stroke-width="1" opacity="0.75" />
			</g>
		</g>
		<g>
			<title> (ctg255_31)</title>
			<polygon class=" (ctg255_31)" points="619,10 643,40 619,70" fill="rgb(255,255,255)" fill-opacity="1.0" stroke="rgb(0,0,0)" stroke-width="2"  />
			<g>
				<title>EBP (PF05241)
"Emopamil binding protein"</title>
				<polygon class="PF05241" points="621,28 629,28 639,40 629,52 621,52" stroke-linejoin="round" width="20" height="24" fill="rgb(70,88,193)" stroke="rgb(56,70,154)" stroke-width="1" opacity="0.75" />
			</g>
		</g>
		<g>
			<title> (ctg255_32)</title>
			<polygon class=" (ctg255_32)" points="721,25 677,25 677,10 647,40 677,70 677,55 721,55" fill="rgb(255,255,255)" fill-opacity="1.0" stroke="rgb(0,0,0)" stroke-width="2"  />
		</g>
		<g>
			<title> (ctg255_33)</title>
			<polygon class=" (ctg255_33)" points="722,40 736,10 736,70" fill="rgb(255,255,255)" fill-opacity="1.0" stroke="rgb(0,0,0)" stroke-width="2"  />
		</g>
		<g>
			<title> (ctg255_34)</title>
			<polygon class=" (ctg255_34)" points="737,25 737,25 737,10 767,40 737,70 737,55 737,55" fill="rgb(255,255,255)" fill-opacity="1.0" stroke="rgb(0,0,0)" stroke-width="2"  />
			<g>
				<title>Pro_dh (PF01619)
"Proline dehydrogenase"</title>
				<polygon class="PF01619" points="741,28 751,28 763,40 751,52 741,52" stroke-linejoin="round" width="26" height="24" fill="rgb(103,199,72)" stroke="rgb(82,159,57)" stroke-width="1" opacity="0.75" />
			</g>
		</g>
	</g>
</svg>
