<svg version="1.1" baseProfile="full" xmlns="http://www.w3.org/2000/svg" width="828.2333333333333" height="80">
	<g>
		<line x1="10" y1="40.0" x2="818.2333333333333" y2="40.0" style="stroke:rgb(70,70,70); stroke-width:3 "/>
		<g>
			<title> (ctg1698_1)</title>
			<polygon class=" (ctg1698_1)" points="10,25 184,25 184,10 214,40 184,70 184,55 10,55" fill="rgb(255,255,255)" fill-opacity="1.0" stroke="rgb(0,0,0)" stroke-width="2"  />
			<g>
				<title>Ketoacyl-synt_C (PF02801)
"Beta-ketoacyl synthase, C-terminal domain"</title>
				<rect class="PF02801" x="10" y="28" stroke-linejoin="round" width="8" height="24" fill="rgb(215,78,102)" stroke="rgb(172,62,81)" stroke-width="1" opacity="0.75" />
			</g>
			<g>
				<title>KAsynt_C_assoc (PF16197)
"Ketoacyl-synthetase C-terminal extension"</title>
				<rect class="PF16197" x="18" y="28" stroke-linejoin="round" width="11" height="24" fill="rgb(240,150,172)" stroke="rgb(192,120,137)" stroke-width="1" opacity="0.75" />
			</g>
			<g>
				<title>Acyl_transf_1 (PF00698)
"Acyl transferase domain"</title>
				<rect class="PF00698" x="33" y="28" stroke-linejoin="round" width="32" height="24" fill="rgb(59,176,209)" stroke="rgb(47,140,167)" stroke-width="1" opacity="0.75" />
			</g>
			<g>
				<title>PS-DH (PF14765)
"Polyketide synthase dehydratase"</title>
				<rect class="PF14765" x="70" y="28" stroke-linejoin="round" width="28" height="24" fill="rgb(173,56,182)" stroke="rgb(138,44,145)" stroke-width="1" opacity="0.75" />
			</g>
			<g>
				<title>ADH_zinc_N (PF00107)
"Zinc-binding dehydrogenase"</title>
				<rect class="PF00107" x="155" y="28" stroke-linejoin="round" width="12" height="24" fill="rgb(81,108,215)" stroke="rgb(64,86,172)" stroke-width="1" opacity="0.75" />
			</g>
			<g>
				<title>KR (PF08659)
"KR domain"</title>
				<rect class="PF08659" x="175" y="28" stroke-linejoin="round" width="18" height="24" fill="rgb(66,209,188)" stroke="rgb(52,167,150)" stroke-width="1" opacity="0.75" />
			</g>
			<g>
				<title>PP-binding (PF00550)
"Phosphopantetheine attachment site"</title>
				<polygon class="PF00550" points="202,32 208,38 208,42 202,48" stroke-linejoin="round" width="6" height="24" fill="rgb(103,191,88)" stroke="rgb(82,152,70)" stroke-width="1" opacity="0.75" />
			</g>
		</g>
		<g>
			<title> (ctg1698_2)</title>
			<polygon class=" (ctg1698_2)" points="218,25 243,25 243,10 273,40 243,70 243,55 218,55" fill="rgb(255,255,255)" fill-opacity="1.0" stroke="rgb(0,0,0)" stroke-width="2"  />
			<g>
				<title>B12-binding (PF02310)
"B12 binding domain"</title>
				<rect class="PF02310" x="218" y="28" stroke-linejoin="round" width="10" height="24" fill="rgb(145,190,60)" stroke="rgb(115,152,48)" stroke-width="1" opacity="0.75" />
			</g>
			<g>
				<title>Radical_SAM (PF04055)
"Radical SAM superfamily"</title>
				<rect class="PF04055" x="232" y="28" stroke-linejoin="round" width="16" height="24" fill="rgb(149,56,222)" stroke="rgb(119,44,177)" stroke-width="1" opacity="0.75" />
			</g>
			<g>
				<title>DUF4070 (PF13282)
"Domain of unknown function (DUF4070)"</title>
				<polygon class="PF13282" points="251,28 257,28 264,35 264,45 257,52 251,52" stroke-linejoin="round" width="13" height="24" fill="rgb(104,216,68)" stroke="rgb(83,172,54)" stroke-width="1" opacity="0.75" />
			</g>
		</g>
		<g>
			<title> (ctg1698_3)</title>
			<polygon class=" (ctg1698_3)" points="275,25 304,25 304,10 334,40 304,70 304,55 275,55" fill="rgb(255,255,255)" fill-opacity="1.0" stroke="rgb(0,0,0)" stroke-width="2"  />
			<g>
				<title>B12-binding (PF02310)
"B12 binding domain"</title>
				<rect class="PF02310" x="277" y="28" stroke-linejoin="round" width="10" height="24" fill="rgb(145,190,60)" stroke="rgb(115,152,48)" stroke-width="1" opacity="0.75" />
			</g>
			<g>
				<title>Radical_SAM (PF04055)
"Radical SAM superfamily"</title>
				<rect class="PF04055" x="292" y="28" stroke-linejoin="round" width="17" height="24" fill="rgb(149,56,222)" stroke="rgb(119,44,177)" stroke-width="1" opacity="0.75" />
			</g>
			<g>
				<title>DUF4070 (PF13282)
"Domain of unknown function (DUF4070)"</title>
				<polygon class="PF13282" points="311,28 317,28 325,36 325,44 317,52 311,52" stroke-linejoin="round" width="14" height="24" fill="rgb(104,216,68)" stroke="rgb(83,172,54)" stroke-width="1" opacity="0.75" />
			</g>
		</g>
		<g>
			<title> (ctg1698_4)</title>
			<polygon class=" (ctg1698_4)" points="344,25 390,25 390,10 420,40 390,70 390,55 344,55" fill="rgb(255,255,255)" fill-opacity="1.0" stroke="rgb(0,0,0)" stroke-width="2"  />
			<g>
				<title>NAD_binding_4 (PF07993)
"Male sterility protein"</title>
				<rect class="PF07993" x="344" y="28" stroke-linejoin="round" width="22" height="24" fill="rgb(100,212,204)" stroke="rgb(80,169,163)" stroke-width="1" opacity="0.75" />
			</g>
			<g>
				<title>Sulfotransfer_3 (PF13469)
"Sulfotransferase family"</title>
				<polygon class="PF13469" points="388,28 404,28 413,37 413,43 404,52 388,52" stroke-linejoin="round" width="25" height="24" fill="rgb(59,182,84)" stroke="rgb(47,145,67)" stroke-width="1" opacity="0.75" />
			</g>
		</g>
		<g>
			<title> (ctg1698_5)</title>
			<polygon class=" (ctg1698_5)" points="424,40 447,10 447,70" fill="rgb(255,255,255)" fill-opacity="1.0" stroke="rgb(0,0,0)" stroke-width="2"  />
			<g>
				<title>STAS (PF01740)
"STAS domain"</title>
				<polygon class="PF01740" points="434,32 437,28 444,28 444,52 437,52 434,48" stroke-linejoin="round" width="10" height="24" fill="rgb(219,58,116)" stroke="rgb(175,46,92)" stroke-width="1" opacity="0.75" />
			</g>
		</g>
		<g>
			<title> (ctg1698_6)</title>
			<polygon class=" (ctg1698_6)" points="448,40 457,10 457,70" fill="rgb(255,255,255)" fill-opacity="1.0" stroke="rgb(0,0,0)" stroke-width="2"  />
		</g>
		<g>
			<title> (ctg1698_7)</title>
			<polygon class=" (ctg1698_7)" points="459,10 481,40 459,70" fill="rgb(255,255,255)" fill-opacity="1.0" stroke="rgb(0,0,0)" stroke-width="2"  />
			<g>
				<title>PhyH (PF05721)
"Phytanoyl-CoA dioxygenase (PhyH)"</title>
				<polygon class="PF05721" points="460,28 468,28 473,34 473,46 468,52 460,52" stroke-linejoin="round" width="13" height="24" fill="rgb(72,132,214)" stroke="rgb(57,105,171)" stroke-width="1" opacity="0.75" />
			</g>
		</g>
		<g>
			<title> (ctg1698_8)</title>
			<polygon class=" (ctg1698_8)" points="484,25 500,25 500,10 530,40 500,70 500,55 484,55" fill="rgb(255,255,255)" fill-opacity="1.0" stroke="rgb(0,0,0)" stroke-width="2"  />
			<g>
				<title>HXXSHH (PF07586)
"Protein of unknown function (DUF1552)"</title>
				<polygon class="PF07586" points="489,28 514,28 520,34 520,46 514,52 489,52" stroke-linejoin="round" width="31" height="24" fill="rgb(223,99,133)" stroke="rgb(178,79,106)" stroke-width="1" opacity="0.75" />
			</g>
		</g>
		<g>
			<title> (ctg1698_9)</title>
			<polygon class=" (ctg1698_9)" points="531,25 579,25 579,10 609,40 579,70 579,55 531,55" fill="rgb(255,255,255)" fill-opacity="1.0" stroke="rgb(0,0,0)" stroke-width="2"  />
			<g>
				<title>PSCyt1 (PF07635)
"Planctomycete cytochrome C"</title>
				<rect class="PF07635" x="536" y="28" stroke-linejoin="round" width="5" height="24" fill="rgb(198,62,63)" stroke="rgb(158,49,50)" stroke-width="1" opacity="0.75" />
			</g>
			<g>
				<title>PSD3 (PF07626)
"Protein of unknown function (DUF1587)"</title>
				<rect class="PF07626" x="557" y="28" stroke-linejoin="round" width="6" height="24" fill="rgb(62,218,224)" stroke="rgb(49,174,179)" stroke-width="1" opacity="0.75" />
			</g>
			<g>
				<title>PSD5 (PF07637)
"Protein of unknown function (DUF1595)"</title>
				<rect class="PF07637" x="566" y="28" stroke-linejoin="round" width="6" height="24" fill="rgb(196,184,54)" stroke="rgb(156,147,43)" stroke-width="1" opacity="0.75" />
			</g>
			<g>
				<title>PSD4 (PF07631)
"Protein of unknown function (DUF1592)"</title>
				<rect class="PF07631" x="575" y="28" stroke-linejoin="round" width="12" height="24" fill="rgb(219,128,62)" stroke="rgb(175,102,49)" stroke-width="1" opacity="0.75" />
			</g>
			<g>
				<title>PSCyt3 (PF07627)
"Protein of unknown function (DUF1588)"</title>
				<polygon class="PF07627" points="590,28 592,28 599,35 599,45 592,52 590,52" stroke-linejoin="round" width="9" height="24" fill="rgb(203,90,210)" stroke="rgb(162,72,168)" stroke-width="1" opacity="0.75" />
			</g>
			<g>
				<title>PSD2 (PF07624)
"Protein of unknown function (DUF1585)"</title>
				<polygon class="PF07624" points="601,37 604,40 601,43" stroke-linejoin="round" width="7" height="24" fill="rgb(83,184,175)" stroke="rgb(66,147,140)" stroke-width="1" opacity="0.75" />
			</g>
		</g>
		<g>
			<title> (ctg1698_10)</title>
			<polygon class=" (ctg1698_10)" points="610,40 618,10 618,70" fill="rgb(255,255,255)" fill-opacity="1.0" stroke="rgb(0,0,0)" stroke-width="2"  />
		</g>
		<g>
			<title> (ctg1698_11)</title>
			<polygon class=" (ctg1698_11)" points="619,10 633,40 619,70" fill="rgb(255,255,255)" fill-opacity="1.0" stroke="rgb(0,0,0)" stroke-width="2"  />
			<g>
				<title>PMSR (PF01625)
"Peptide methionine sulfoxide reductase"</title>
				<polygon class="PF01625" points="619,28 624,28 630,40 624,52 619,52" stroke-linejoin="round" width="12" height="24" fill="rgb(201,74,176)" stroke="rgb(160,59,140)" stroke-width="1" opacity="0.75" />
			</g>
		</g>
		<g>
			<title> (ctg1698_12)</title>
			<polygon class=" (ctg1698_12)" points="634,40 662,10 662,70" fill="rgb(255,255,255)" fill-opacity="1.0" stroke="rgb(0,0,0)" stroke-width="2"  />
			<g>
				<title>HpcH_HpaI (PF03328)
"HpcH/HpaI aldolase/citrate lyase family"</title>
				<polygon class="PF03328" points="638,40 649,28 657,28 657,52 649,52" stroke-linejoin="round" width="22" height="24" fill="rgb(81,183,94)" stroke="rgb(64,146,75)" stroke-width="1" opacity="0.75" />
			</g>
		</g>
		<g>
			<title> (ctg1698_13)</title>
			<polygon class=" (ctg1698_13)" points="668,40 672,10 672,70" fill="rgb(255,255,255)" fill-opacity="1.0" stroke="rgb(0,0,0)" stroke-width="2"  />
		</g>
		<g>
			<title> (ctg1698_14)</title>
			<polygon class=" (ctg1698_14)" points="680,10 707,40 680,70" fill="rgb(255,255,255)" fill-opacity="1.0" stroke="rgb(0,0,0)" stroke-width="2"  />
			<g>
				<title>BNR_2 (PF13088)
"BNR repeat-like domain"</title>
				<polygon class="PF13088" points="681,28 691,28 703,40 703,40 691,52 681,52" stroke-linejoin="round" width="22" height="24" fill="rgb(196,211,74)" stroke="rgb(156,168,59)" stroke-width="1" opacity="0.75" />
			</g>
		</g>
		<g>
			<title> (ctg1698_15)</title>
			<polygon class=" (ctg1698_15)" points="757,25 739,25 739,10 709,40 739,70 739,55 757,55" fill="rgb(255,255,255)" fill-opacity="1.0" stroke="rgb(0,0,0)" stroke-width="2"  />
			<g>
				<title>DUF1501 (PF07394)
"Protein of unknown function (DUF1501)"</title>
				<polygon class="PF07394" points="713,40 725,28 751,28 751,52 725,52" stroke-linejoin="round" width="42" height="24" fill="rgb(199,225,81)" stroke="rgb(159,180,64)" stroke-width="1" opacity="0.75" />
			</g>
		</g>
		<g>
			<title> (ctg1698_16)</title>
			<polygon class=" (ctg1698_16)" points="805,25 792,25 792,10 762,40 792,70 792,55 805,55" fill="rgb(255,255,255)" fill-opacity="1.0" stroke="rgb(0,0,0)" stroke-width="2"  />
			<g>
				<title>SCFA_trans (PF02667)
"Short chain fatty acid transporter"</title>
				<polygon class="PF02667" points="766,40 778,28 804,28 804,52 778,52" stroke-linejoin="round" width="42" height="24" fill="rgb(164,106,226)" stroke="rgb(131,84,180)" stroke-width="1" opacity="0.75" />
			</g>
		</g>
	</g>
</svg>
