<svg version="1.1" baseProfile="full" xmlns="http://www.w3.org/2000/svg" width="1050.6" height="80">
	<g>
		<line x1="10" y1="40.0" x2="1040.6" y2="40.0" style="stroke:rgb(70,70,70); stroke-width:3 "/>
		<g>
			<title> (ctg1052_1)</title>
			<polygon class=" (ctg1052_1)" points="10,40 20,10 20,70" fill="rgb(255,255,255)" fill-opacity="1.0" stroke="rgb(0,0,0)" stroke-width="2"  />
			<g>
				<title>HEM4 (PF02602)
"Uroporphyrinogen-III synthase HemD"</title>
				<polygon class="PF02602" points="13,40 17,28 18,28 18,52 17,52" stroke-linejoin="round" width="8" height="24" fill="rgb(191,152,50)" stroke="rgb(152,121,39)" stroke-width="1" opacity="0.75" />
			</g>
		</g>
		<g>
			<title> (ctg1052_2)</title>
			<polygon class=" (ctg1052_2)" points="21,40 44,10 44,70" fill="rgb(255,255,255)" fill-opacity="1.0" stroke="rgb(0,0,0)" stroke-width="2"  />
			<g>
				<title>Chlor_dismutase (PF06778)
"Chlorite dismutase"</title>
				<polygon class="PF06778" points="25,40 34,28 41,28 41,52 34,52" stroke-linejoin="round" width="19" height="24" fill="rgb(179,57,142)" stroke="rgb(143,45,113)" stroke-width="1" opacity="0.75" />
			</g>
		</g>
		<g>
			<title> (ctg1052_3)</title>
			<polygon class=" (ctg1052_3)" points="86,25 78,25 78,10 48,40 78,70 78,55 86,55" fill="rgb(255,255,255)" fill-opacity="1.0" stroke="rgb(0,0,0)" stroke-width="2"  />
			<g>
				<title>GCV_T_C (PF08669)
"Glycine cleavage T-protein C-terminal barrel domain"</title>
				<polygon class="PF08669" points="52,40 56,36 56,44" stroke-linejoin="round" width="8" height="24" fill="rgb(184,178,54)" stroke="rgb(147,142,43)" stroke-width="1" opacity="0.75" />
			</g>
			<g>
				<title>GCV_T (PF01571)
"Aminomethyltransferase folate-binding domain"</title>
				<polygon class="PF01571" points="59,33 64,28 83,28 83,52 64,52 59,47" stroke-linejoin="round" width="24" height="24" fill="rgb(112,228,161)" stroke="rgb(89,182,128)" stroke-width="1" opacity="0.75" />
			</g>
		</g>
		<g>
			<title> (ctg1052_4)</title>
			<polygon class=" (ctg1052_4)" points="145,25 119,25 119,10 89,40 119,70 119,55 145,55" fill="rgb(255,255,255)" fill-opacity="1.0" stroke="rgb(0,0,0)" stroke-width="2"  />
			<g>
				<title>Amino_oxidase (PF01593)
"Flavin containing amine oxidoreductase"</title>
				<polygon class="PF01593" points="93,40 105,28 120,28 120,52 105,52" stroke-linejoin="round" width="30" height="24" fill="rgb(184,74,52)" stroke="rgb(147,59,41)" stroke-width="1" opacity="0.75" />
			</g>
			<g>
				<title>NAD_binding_8 (PF13450)
"NAD(P)-binding Rossmann-like domain"</title>
				<rect class="PF13450" x="135" y="28" stroke-linejoin="round" width="6" height="24" fill="rgb(91,180,227)" stroke="rgb(72,144,181)" stroke-width="1" opacity="0.75" />
			</g>
		</g>
		<g>
			<title> (ctg1052_5)</title>
			<polygon class=" (ctg1052_5)" points="198,25 175,25 175,10 145,40 175,70 175,55 198,55" fill="rgb(255,255,255)" fill-opacity="1.0" stroke="rgb(0,0,0)" stroke-width="2"  />
			<g>
				<title>Amino_oxidase (PF01593)
"Flavin containing amine oxidoreductase"</title>
				<polygon class="PF01593" points="149,40 161,28 196,28 196,52 161,52" stroke-linejoin="round" width="50" height="24" fill="rgb(184,74,52)" stroke="rgb(147,59,41)" stroke-width="1" opacity="0.75" />
			</g>
		</g>
		<g>
			<title> (ctg1052_6)</title>
			<polygon class=" (ctg1052_6)" points="237,25 228,25 228,10 198,40 228,70 228,55 237,55" fill="rgb(255,255,255)" fill-opacity="1.0" stroke="rgb(0,0,0)" stroke-width="2"  />
			<g>
				<title>GCV_T_C (PF08669)
"Glycine cleavage T-protein C-terminal barrel domain"</title>
				<polygon class="PF08669" points="202,40 206,36 206,44" stroke-linejoin="round" width="8" height="24" fill="rgb(184,178,54)" stroke="rgb(147,142,43)" stroke-width="1" opacity="0.75" />
			</g>
			<g>
				<title>GCV_T (PF01571)
"Aminomethyltransferase folate-binding domain"</title>
				<polygon class="PF01571" points="211,31 214,28 236,28 236,52 214,52 211,49" stroke-linejoin="round" width="25" height="24" fill="rgb(112,228,161)" stroke="rgb(89,182,128)" stroke-width="1" opacity="0.75" />
			</g>
		</g>
		<g>
			<title> (ctg1052_7)</title>
			<polygon class=" (ctg1052_7)" points="239,40 257,10 257,70" fill="rgb(255,255,255)" fill-opacity="1.0" stroke="rgb(0,0,0)" stroke-width="2"  />
			<g>
				<title>His_Phos_1 (PF00300)
"Histidine phosphatase superfamily (branch 1)"</title>
				<polygon class="PF00300" points="244,38 250,28 251,28 251,52 250,52 244,42" stroke-linejoin="round" width="7" height="24" fill="rgb(135,184,63)" stroke="rgb(107,147,50)" stroke-width="1" opacity="0.75" />
			</g>
		</g>
		<g>
			<title> (ctg1052_8)</title>
			<polygon class=" (ctg1052_8)" points="262,10 288,40 262,70" fill="rgb(255,255,255)" fill-opacity="1.0" stroke="rgb(0,0,0)" stroke-width="2"  />
			<g>
				<title>5_nucleotid_C (PF02872)
"5'-nucleotidase, C-terminal domain"</title>
				<polygon class="PF02872" points="269,28 273,28 283,39 283,41 273,52 269,52" stroke-linejoin="round" width="14" height="24" fill="rgb(215,156,101)" stroke="rgb(172,124,80)" stroke-width="1" opacity="0.75" />
			</g>
		</g>
		<g>
			<title> (ctg1052_9)</title>
			<polygon class=" (ctg1052_9)" points="288,25 291,25 291,10 321,40 291,70 291,55 288,55" fill="rgb(255,255,255)" fill-opacity="1.0" stroke="rgb(0,0,0)" stroke-width="2"  />
			<g>
				<title>Metallophos (PF00149)
"Calcineurin-like phosphoesterase"</title>
				<polygon class="PF00149" points="293,28 305,28 314,37 314,43 305,52 293,52" stroke-linejoin="round" width="21" height="24" fill="rgb(181,197,58)" stroke="rgb(144,157,46)" stroke-width="1" opacity="0.75" />
			</g>
		</g>
		<g>
			<title> (ctg1052_10)</title>
			<polygon class=" (ctg1052_10)" points="322,40 326,10 326,70" fill="rgb(255,255,255)" fill-opacity="1.0" stroke="rgb(0,0,0)" stroke-width="2"  />
		</g>
		<g>
			<title> (ctg1052_11)</title>
			<polygon class=" (ctg1052_11)" points="326,40 338,10 338,70" fill="rgb(255,255,255)" fill-opacity="1.0" stroke="rgb(0,0,0)" stroke-width="2"  />
			<g>
				<title>ICMT (PF04140)
"Isoprenylcysteine carboxyl methyltransferase (ICMT) family"</title>
				<polygon class="PF04140" points="329,40 331,35 331,45" stroke-linejoin="round" width="5" height="24" fill="rgb(100,223,104)" stroke="rgb(80,178,83)" stroke-width="1" opacity="0.75" />
			</g>
		</g>
		<g>
			<title> (ctg1052_12)</title>
			<polygon class=" (ctg1052_12)" points="373,25 368,25 368,10 338,40 368,70 368,55 373,55" fill="rgb(255,255,255)" fill-opacity="1.0" stroke="rgb(0,0,0)" stroke-width="2"  />
			<g>
				<title>Chal_sti_synt_C (PF02797)
"Chalcone and stilbene synthases, C-terminal domain"</title>
				<polygon class="PF02797" points="342,40 350,32 350,48" stroke-linejoin="round" width="12" height="24" fill="rgb(139,212,63)" stroke="rgb(111,169,50)" stroke-width="1" opacity="0.75" />
			</g>
			<g>
				<title>Chal_sti_synt_N (PF00195)
"Chalcone and stilbene synthases, N-terminal domain"</title>
				<polygon class="PF00195" points="352,30 354,28 366,28 366,52 354,52 352,50" stroke-linejoin="round" width="14" height="24" fill="rgb(60,181,161)" stroke="rgb(47,144,128)" stroke-width="1" opacity="0.75" />
			</g>
		</g>
		<g>
			<title> (ctg1052_13)</title>
			<polygon class=" (ctg1052_13)" points="406,25 404,25 404,10 374,40 404,70 404,55 406,55" fill="rgb(255,255,255)" fill-opacity="1.0" stroke="rgb(0,0,0)" stroke-width="2"  />
			<g>
				<title>Beta-lactamase2 (PF13354)
"Beta-lactamase enzyme family"</title>
				<polygon class="PF13354" points="379,39 390,28 399,28 399,52 390,52 379,41" stroke-linejoin="round" width="20" height="24" fill="rgb(72,61,190)" stroke="rgb(57,48,152)" stroke-width="1" opacity="0.75" />
			</g>
		</g>
		<g>
			<title> (ctg1052_14)</title>
			<polygon class=" (ctg1052_14)" points="447,25 439,25 439,10 409,40 439,70 439,55 447,55" fill="rgb(255,255,255)" fill-opacity="1.0" stroke="rgb(0,0,0)" stroke-width="2"  />
			<g>
				<title>DAO (PF01266)
"FAD dependent oxidoreductase"</title>
				<polygon class="PF01266" points="413,40 425,28 436,28 436,52 425,52" stroke-linejoin="round" width="27" height="24" fill="rgb(123,179,59)" stroke="rgb(98,143,47)" stroke-width="1" opacity="0.75" />
			</g>
		</g>
		<g>
			<title> (ctg1052_15)</title>
			<polygon class=" (ctg1052_15)" points="465,10 472,40 465,70" fill="rgb(255,255,255)" fill-opacity="1.0" stroke="rgb(0,0,0)" stroke-width="2"  />
		</g>
		<g>
			<title> (ctg1052_16)</title>
			<polygon class=" (ctg1052_16)" points="473,40 493,10 493,70" fill="rgb(255,255,255)" fill-opacity="1.0" stroke="rgb(0,0,0)" stroke-width="2"  />
		</g>
		<g>
			<title> (ctg1052_17)</title>
			<polygon class=" (ctg1052_17)" points="530,25 526,25 526,10 496,40 526,70 526,55 530,55" fill="rgb(255,255,255)" fill-opacity="1.0" stroke="rgb(0,0,0)" stroke-width="2"  />
		</g>
		<g>
			<title> (ctg1052_18)</title>
			<polygon class=" (ctg1052_18)" points="531,10 537,40 531,70" fill="rgb(255,255,255)" fill-opacity="1.0" stroke="rgb(0,0,0)" stroke-width="2"  />
		</g>
		<g>
			<title> (ctg1052_19)</title>
			<polygon class=" (ctg1052_19)" points="542,25 552,25 552,10 582,40 552,70 552,55 542,55" fill="rgb(255,255,255)" fill-opacity="1.0" stroke="rgb(0,0,0)" stroke-width="2"  />
			<g>
				<title>HTH_31 (PF13560)
"Helix-turn-helix domain"</title>
				<rect class="PF13560" x="543" y="28" stroke-linejoin="round" width="6" height="24" fill="rgb(207,145,90)" stroke="rgb(165,116,72)" stroke-width="1" opacity="0.75" />
			</g>
			<g>
				<title>PBP_like (PF12727)
"PBP superfamily domain"</title>
				<polygon class="PF12727" points="560,28 565,28 577,40 565,52 560,52" stroke-linejoin="round" width="18" height="24" fill="rgb(153,200,50)" stroke="rgb(122,160,40)" stroke-width="1" opacity="0.75" />
			</g>
		</g>
		<g>
			<title> (ctg1052_20)</title>
			<polygon class=" (ctg1052_20)" points="582,10 609,40 582,70" fill="rgb(255,255,255)" fill-opacity="1.0" stroke="rgb(0,0,0)" stroke-width="2"  />
			<g>
				<title>SBP_bac_11 (PF13531)
"Bacterial extracellular solute-binding protein"</title>
				<polygon class="PF13531" points="586,28 593,28 605,40 593,52 586,52" stroke-linejoin="round" width="22" height="24" fill="rgb(202,228,104)" stroke="rgb(161,182,83)" stroke-width="1" opacity="0.75" />
			</g>
		</g>
		<g>
			<title> (ctg1052_21)</title>
			<polygon class=" (ctg1052_21)" points="610,10 638,40 610,70" fill="rgb(255,255,255)" fill-opacity="1.0" stroke="rgb(0,0,0)" stroke-width="2"  />
			<g>
				<title>BPD_transp_1 (PF00528)
"Binding-protein-dependent transport system inner membrane component"</title>
				<polygon class="PF00528" points="617,28 622,28 634,40 622,52 617,52" stroke-linejoin="round" width="18" height="24" fill="rgb(77,208,225)" stroke="rgb(61,166,180)" stroke-width="1" opacity="0.75" />
			</g>
		</g>
		<g>
			<title> (ctg1052_22)</title>
			<polygon class=" (ctg1052_22)" points="639,10 663,40 639,70" fill="rgb(255,255,255)" fill-opacity="1.0" stroke="rgb(0,0,0)" stroke-width="2"  />
			<g>
				<title>ABC_tran (PF00005)
"ABC transporter"</title>
				<polygon class="PF00005" points="639,28 649,28 653,33 653,47 649,52 639,52" stroke-linejoin="round" width="14" height="24" fill="rgb(129,201,63)" stroke="rgb(103,160,50)" stroke-width="1" opacity="0.75" />
			</g>
		</g>
		<g>
			<title> (ctg1052_23)</title>
			<polygon class=" (ctg1052_23)" points="663,40 673,10 673,70" fill="rgb(255,255,255)" fill-opacity="1.0" stroke="rgb(0,0,0)" stroke-width="2"  />
			<g>
				<title>FHA (PF00498)
"FHA domain"</title>
				<polygon class="PF00498" points="666,40 670,28 672,28 672,52 670,52 666,40" stroke-linejoin="round" width="6" height="24" fill="rgb(57,178,90)" stroke="rgb(45,142,72)" stroke-width="1" opacity="0.75" />
			</g>
		</g>
		<g>
			<title> (ctg1052_24)</title>
			<polygon class=" (ctg1052_24)" points="726,25 704,25 704,10 674,40 704,70 704,55 726,55" fill="rgb(255,255,255)" fill-opacity="1.0" stroke="rgb(0,0,0)" stroke-width="2"  />
			<g>
				<title>FHA (PF00498)
"FHA domain"</title>
				<polygon class="PF00498" points="678,40 681,37 681,43" stroke-linejoin="round" width="6" height="24" fill="rgb(57,178,90)" stroke="rgb(45,142,72)" stroke-width="1" opacity="0.75" />
			</g>
			<g>
				<title>Trypsin_2 (PF13365)
"Trypsin-like peptidase domain"</title>
				<rect class="PF13365" x="704" y="28" stroke-linejoin="round" width="14" height="24" fill="rgb(126,86,188)" stroke="rgb(100,68,150)" stroke-width="1" opacity="0.75" />
			</g>
		</g>
		<g>
			<title> (ctg1052_25)</title>
			<polygon class=" (ctg1052_25)" points="732,10 748,40 732,70" fill="rgb(255,255,255)" fill-opacity="1.0" stroke="rgb(0,0,0)" stroke-width="2"  />
		</g>
		<g>
			<title> (ctg1052_26)</title>
			<polygon class=" (ctg1052_26)" points="805,25 780,25 780,10 750,40 780,70 780,55 805,55" fill="rgb(255,255,255)" fill-opacity="1.0" stroke="rgb(0,0,0)" stroke-width="2"  />
			<g>
				<title>Amidase (PF01425)
"Amidase"</title>
				<polygon class="PF01425" points="754,40 766,28 773,28 773,52 766,52" stroke-linejoin="round" width="21" height="24" fill="rgb(195,142,64)" stroke="rgb(156,113,51)" stroke-width="1" opacity="0.75" />
			</g>
			<g>
				<title>Amidase (PF01425)
"Amidase"</title>
				<rect class="PF01425" x="775" y="28" stroke-linejoin="round" width="26" height="24" fill="rgb(195,142,64)" stroke="rgb(156,113,51)" stroke-width="1" opacity="0.75" />
			</g>
		</g>
		<g>
			<title> (ctg1052_27)</title>
			<polygon class=" (ctg1052_27)" points="867,25 836,25 836,10 806,40 836,70 836,55 867,55" fill="rgb(255,255,255)" fill-opacity="1.0" stroke="rgb(0,0,0)" stroke-width="2"  />
			<g>
				<title>TPP_enzyme_C (PF02775)
"Thiamine pyrophosphate enzyme, C-terminal TPP binding domain"</title>
				<polygon class="PF02775" points="810,40 822,28 825,28 825,52 822,52 810,40" stroke-linejoin="round" width="15" height="24" fill="rgb(156,179,45)" stroke="rgb(124,143,36)" stroke-width="1" opacity="0.75" />
			</g>
			<g>
				<title>TPP_enzyme_M (PF00205)
"Thiamine pyrophosphate enzyme, central domain"</title>
				<rect class="PF00205" x="831" y="28" stroke-linejoin="round" width="13" height="24" fill="rgb(149,194,69)" stroke="rgb(119,155,55)" stroke-width="1" opacity="0.75" />
			</g>
			<g>
				<title>TPP_enzyme_N (PF02776)
"Thiamine pyrophosphate enzyme, N-terminal TPP binding domain"</title>
				<rect class="PF02776" x="848" y="28" stroke-linejoin="round" width="17" height="24" fill="rgb(55,81,185)" stroke="rgb(44,64,148)" stroke-width="1" opacity="0.75" />
			</g>
		</g>
		<g>
			<title> (ctg1052_28)</title>
			<polygon class=" (ctg1052_28)" points="872,10 888,40 872,70" fill="rgb(255,255,255)" fill-opacity="1.0" stroke="rgb(0,0,0)" stroke-width="2"  />
			<g>
				<title>ACT_5 (PF13710)
"ACT domain"</title>
				<polygon class="PF13710" points="873,28 878,28 879,29 879,51 878,52 873,52" stroke-linejoin="round" width="6" height="24" fill="rgb(52,188,189)" stroke="rgb(41,150,151)" stroke-width="1" opacity="0.75" />
			</g>
			<g>
				<title>ALS_ss_C (PF10369)
"Small subunit of acetolactate synthase"</title>
				<polygon class="PF10369" points="880,31 885,40 880,49" stroke-linejoin="round" width="7" height="24" fill="rgb(93,227,61)" stroke="rgb(74,181,48)" stroke-width="1" opacity="0.75" />
			</g>
		</g>
		<g>
			<title> (ctg1052_29)</title>
			<polygon class=" (ctg1052_29)" points="983,25 919,25 919,10 889,40 919,70 919,55 983,55" fill="rgb(255,255,255)" fill-opacity="1.0" stroke="rgb(0,0,0)" stroke-width="2"  />
			<g>
				<title>Peptidase_S9 (PF00326)
"Prolyl oligopeptidase family"</title>
				<polygon class="PF00326" points="893,40 905,28 910,28 910,52 905,52" stroke-linejoin="round" width="18" height="24" fill="rgb(77,97,209)" stroke="rgb(61,77,167)" stroke-width="1" opacity="0.75" />
			</g>
		</g>
		<g>
			<title> (ctg1052_30)</title>
			<polygon class=" (ctg1052_30)" points="990,25 998,25 998,10 1028,40 998,70 998,55 990,55" fill="rgb(255,255,255)" fill-opacity="1.0" stroke="rgb(0,0,0)" stroke-width="2"  />
			<g>
				<title>FAA_hydrolase (PF01557)
"Fumarylacetoacetate (FAA) hydrolase family"</title>
				<polygon class="PF01557" points="1003,28 1012,28 1024,40 1012,52 1003,52" stroke-linejoin="round" width="22" height="24" fill="rgb(71,203,125)" stroke="rgb(56,162,100)" stroke-width="1" opacity="0.75" />
			</g>
		</g>
	</g>
</svg>
