<svg version="1.1" baseProfile="full" xmlns="http://www.w3.org/2000/svg" width="1429.7333333333333" height="80">
	<g>
		<line x1="10" y1="40.0" x2="1419.7333333333333" y2="40.0" style="stroke:rgb(70,70,70); stroke-width:3 "/>
		<g>
			<title> (ctg32_1)</title>
			<polygon class=" (ctg32_1)" points="69,25 71,25 71,10 101,40 71,70 71,55 69,55" fill="rgb(255,255,255)" fill-opacity="1.0" stroke="rgb(0,0,0)" stroke-width="2"  />
			<g>
				<title>GNAT_acetyltran (PF12746)
"GNAT acetyltransferase"</title>
				<polygon class="PF12746" points="90,33 97,40 90,47" stroke-linejoin="round" width="10" height="24" fill="rgb(199,158,93)" stroke="rgb(159,126,74)" stroke-width="1" opacity="0.75" />
			</g>
		</g>
		<g>
			<title> (ctg32_2)</title>
			<polygon class=" (ctg32_2)" points="108,10 131,40 108,70" fill="rgb(255,255,255)" fill-opacity="1.0" stroke="rgb(0,0,0)" stroke-width="2"  />
		</g>
		<g>
			<title> (ctg32_3)</title>
			<polygon class=" (ctg32_3)" points="155,10 169,40 155,70" fill="rgb(255,255,255)" fill-opacity="1.0" stroke="rgb(0,0,0)" stroke-width="2"  />
		</g>
		<g>
			<title> (ctg32_4)</title>
			<polygon class=" (ctg32_4)" points="172,10 185,40 172,70" fill="rgb(255,255,255)" fill-opacity="1.0" stroke="rgb(0,0,0)" stroke-width="2"  />
			<g>
				<title>Nuc_deoxyrib_tr (PF05014)
"Nucleoside 2-deoxyribosyltransferase"</title>
				<polygon class="PF05014" points="172,28 176,28 182,40 176,52 172,52" stroke-linejoin="round" width="12" height="24" fill="rgb(142,182,49)" stroke="rgb(113,145,39)" stroke-width="1" opacity="0.75" />
			</g>
		</g>
		<g>
			<title> (ctg32_5)</title>
			<polygon class=" (ctg32_5)" points="190,25 202,25 202,10 232,40 202,70 202,55 190,55" fill="rgb(255,255,255)" fill-opacity="1.0" stroke="rgb(0,0,0)" stroke-width="2"  />
			<g>
				<title>Oxidored_molyb (PF00174)
"Oxidoreductase molybdopterin binding domain"</title>
				<polygon class="PF00174" points="200,28 215,28 217,30 217,50 215,52 200,52" stroke-linejoin="round" width="17" height="24" fill="rgb(152,193,93)" stroke="rgb(121,154,74)" stroke-width="1" opacity="0.75" />
			</g>
			<g>
				<title>Mo-co_dimer (PF03404)
"Mo-co oxidoreductase dimerisation domain"</title>
				<polygon class="PF03404" points="220,33 227,40 220,47" stroke-linejoin="round" width="11" height="24" fill="rgb(105,224,154)" stroke="rgb(84,179,123)" stroke-width="1" opacity="0.75" />
			</g>
		</g>
		<g>
			<title> (ctg32_6)</title>
			<polygon class=" (ctg32_6)" points="236,25 240,25 240,10 270,40 240,70 240,55 236,55" fill="rgb(255,255,255)" fill-opacity="1.0" stroke="rgb(0,0,0)" stroke-width="2"  />
			<g>
				<title>ABC_tran (PF00005)
"ABC transporter"</title>
				<rect class="PF00005" x="238" y="28" stroke-linejoin="round" width="14" height="24" fill="rgb(129,201,63)" stroke="rgb(103,160,50)" stroke-width="1" opacity="0.75" />
			</g>
		</g>
		<g>
			<title> (ctg32_7)</title>
			<polygon class=" (ctg32_7)" points="270,10 296,40 270,70" fill="rgb(255,255,255)" fill-opacity="1.0" stroke="rgb(0,0,0)" stroke-width="2"  />
			<g>
				<title>ABC2_membrane_3 (PF12698)
"ABC-2 family transporter protein"</title>
				<polygon class="PF12698" points="274,28 282,28 292,40 282,52 274,52" stroke-linejoin="round" width="20" height="24" fill="rgb(151,189,55)" stroke="rgb(120,151,44)" stroke-width="1" opacity="0.75" />
			</g>
		</g>
		<g>
			<title> (ctg32_8)</title>
			<polygon class=" (ctg32_8)" points="338,25 330,25 330,10 300,40 330,70 330,55 338,55" fill="rgb(255,255,255)" fill-opacity="1.0" stroke="rgb(0,0,0)" stroke-width="2"  />
			<g>
				<title>Fe-ADH (PF00465)
"Iron-containing alcohol dehydrogenase"</title>
				<polygon class="PF00465" points="304,40 316,28 336,28 336,52 316,52" stroke-linejoin="round" width="36" height="24" fill="rgb(73,179,216)" stroke="rgb(58,143,172)" stroke-width="1" opacity="0.75" />
			</g>
		</g>
		<g>
			<title> (ctg32_9)</title>
			<polygon class=" (ctg32_9)" points="350,25 366,25 366,10 396,40 366,70 366,55 350,55" fill="rgb(255,255,255)" fill-opacity="1.0" stroke="rgb(0,0,0)" stroke-width="2"  />
			<g>
				<title>SBP_bac_1 (PF01547)
"Bacterial extracellular solute-binding protein"</title>
				<polygon class="PF01547" points="356,28 380,28 385,33 385,47 380,52 356,52" stroke-linejoin="round" width="29" height="24" fill="rgb(195,119,75)" stroke="rgb(156,95,60)" stroke-width="1" opacity="0.75" />
			</g>
		</g>
		<g>
			<title> (ctg32_10)</title>
			<polygon class=" (ctg32_10)" points="407,25 440,25 440,10 470,40 440,70 440,55 407,55" fill="rgb(255,255,255)" fill-opacity="1.0" stroke="rgb(0,0,0)" stroke-width="2"  />
			<g>
				<title>ketoacyl-synt (PF00109)
"Beta-ketoacyl synthase, N-terminal domain"</title>
				<rect class="PF00109" x="407" y="28" stroke-linejoin="round" width="25" height="24" fill="rgb(112,116,228)" stroke="rgb(89,92,182)" stroke-width="1" opacity="0.75" />
			</g>
			<g>
				<title>Ketoacyl-synt_C (PF02801)
"Beta-ketoacyl synthase, C-terminal domain"</title>
				<rect class="PF02801" x="434" y="28" stroke-linejoin="round" width="11" height="24" fill="rgb(215,78,102)" stroke="rgb(172,62,81)" stroke-width="1" opacity="0.75" />
			</g>
			<g>
				<title>KAsynt_C_assoc (PF16197)
"Ketoacyl-synthetase C-terminal extension"</title>
				<polygon class="PF16197" points="446,28 454,28 459,33 459,47 454,52 446,52" stroke-linejoin="round" width="13" height="24" fill="rgb(240,150,172)" stroke="rgb(192,120,137)" stroke-width="1" opacity="0.75" />
			</g>
			<g>
				<title>Acyl_transf_1 (PF00698)
"Acyl transferase domain"</title>
				<polygon class="PF00698" points="464,38 466,40 464,42" stroke-linejoin="round" width="5" height="24" fill="rgb(59,176,209)" stroke="rgb(47,140,167)" stroke-width="1" opacity="0.75" />
			</g>
		</g>
		<g>
			<title> (ctg32_11)</title>
			<polygon class=" (ctg32_11)" points="471,25 722,25 722,10 752,40 722,70 722,55 471,55" fill="rgb(255,255,255)" fill-opacity="1.0" stroke="rgb(0,0,0)" stroke-width="2"  />
			<g>
				<title>Acyl_transf_1 (PF00698)
"Acyl transferase domain"</title>
				<rect class="PF00698" x="471" y="28" stroke-linejoin="round" width="23" height="24" fill="rgb(59,176,209)" stroke="rgb(47,140,167)" stroke-width="1" opacity="0.75" />
			</g>
			<g>
				<title>PS-DH (PF14765)
"Polyketide synthase dehydratase"</title>
				<rect class="PF14765" x="502" y="28" stroke-linejoin="round" width="29" height="24" fill="rgb(173,56,182)" stroke="rgb(138,44,145)" stroke-width="1" opacity="0.75" />
			</g>
			<g>
				<title>Methyltransf_12 (PF08242)
"Methyltransferase domain"</title>
				<rect class="PF08242" x="555" y="28" stroke-linejoin="round" width="10" height="24" fill="rgb(187,59,115)" stroke="rgb(149,47,92)" stroke-width="1" opacity="0.75" />
			</g>
			<g>
				<title>ADH_N (PF08240)
"Alcohol dehydrogenase GroES-like domain"</title>
				<rect class="PF08240" x="598" y="28" stroke-linejoin="round" width="6" height="24" fill="rgb(211,65,138)" stroke="rgb(168,51,110)" stroke-width="1" opacity="0.75" />
			</g>
			<g>
				<title>ADH_zinc_N (PF00107)
"Zinc-binding dehydrogenase"</title>
				<rect class="PF00107" x="610" y="28" stroke-linejoin="round" width="10" height="24" fill="rgb(81,108,215)" stroke="rgb(64,86,172)" stroke-width="1" opacity="0.75" />
			</g>
			<g>
				<title>KR (PF08659)
"KR domain"</title>
				<rect class="PF08659" x="628" y="28" stroke-linejoin="round" width="17" height="24" fill="rgb(66,209,188)" stroke="rgb(52,167,150)" stroke-width="1" opacity="0.75" />
			</g>
			<g>
				<title>PP-binding (PF00550)
"Phosphopantetheine attachment site"</title>
				<rect class="PF00550" x="656" y="28" stroke-linejoin="round" width="6" height="24" fill="rgb(103,191,88)" stroke="rgb(82,152,70)" stroke-width="1" opacity="0.75" />
			</g>
			<g>
				<title>ketoacyl-synt (PF00109)
"Beta-ketoacyl synthase, N-terminal domain"</title>
				<rect class="PF00109" x="666" y="28" stroke-linejoin="round" width="24" height="24" fill="rgb(112,116,228)" stroke="rgb(89,92,182)" stroke-width="1" opacity="0.75" />
			</g>
			<g>
				<title>Ketoacyl-synt_C (PF02801)
"Beta-ketoacyl synthase, C-terminal domain"</title>
				<rect class="PF02801" x="692" y="28" stroke-linejoin="round" width="11" height="24" fill="rgb(215,78,102)" stroke="rgb(172,62,81)" stroke-width="1" opacity="0.75" />
			</g>
			<g>
				<title>KAsynt_C_assoc (PF16197)
"Ketoacyl-synthetase C-terminal extension"</title>
				<rect class="PF16197" x="704" y="28" stroke-linejoin="round" width="14" height="24" fill="rgb(240,150,172)" stroke="rgb(192,120,137)" stroke-width="1" opacity="0.75" />
			</g>
			<g>
				<title>Acyl_transf_1 (PF00698)
"Acyl transferase domain"</title>
				<polygon class="PF00698" points="723,28 735,28 737,30 737,50 735,52 723,52" stroke-linejoin="round" width="14" height="24" fill="rgb(59,176,209)" stroke="rgb(47,140,167)" stroke-width="1" opacity="0.75" />
			</g>
		</g>
		<g>
			<title> (ctg32_12)</title>
			<polygon class=" (ctg32_12)" points="758,10 766,40 758,70" fill="rgb(255,255,255)" fill-opacity="1.0" stroke="rgb(0,0,0)" stroke-width="2"  />
			<g>
				<title>PP-binding (PF00550)
"Phosphopantetheine attachment site"</title>
				<polygon class="PF00550" points="758,28 759,28 763,40 759,52 758,52" stroke-linejoin="round" width="7" height="24" fill="rgb(103,191,88)" stroke="rgb(82,152,70)" stroke-width="1" opacity="0.75" />
			</g>
		</g>
		<g>
			<title> (ctg32_13)</title>
			<polygon class=" (ctg32_13)" points="771,10 795,40 771,70" fill="rgb(255,255,255)" fill-opacity="1.0" stroke="rgb(0,0,0)" stroke-width="2"  />
			<g>
				<title>ACPS (PF01648)
"4'-phosphopantetheinyl transferase superfamily"</title>
				<polygon class="PF01648" points="783,30 791,40 783,50" stroke-linejoin="round" width="10" height="24" fill="rgb(85,184,135)" stroke="rgb(68,147,108)" stroke-width="1" opacity="0.75" />
			</g>
		</g>
		<g>
			<title> (ctg32_14)</title>
			<polygon class=" (ctg32_14)" points="796,25 796,25 796,10 826,40 796,70 796,55 796,55" fill="rgb(255,255,255)" fill-opacity="1.0" stroke="rgb(0,0,0)" stroke-width="2"  />
			<g>
				<title>Abhydrolase_6 (PF12697)
"Alpha/beta hydrolase family"</title>
				<polygon class="PF12697" points="800,28 810,28 822,40 810,52 800,52" stroke-linejoin="round" width="25" height="24" fill="rgb(113,71,219)" stroke="rgb(90,56,175)" stroke-width="1" opacity="0.75" />
			</g>
		</g>
		<g>
			<title> (ctg32_15)</title>
			<polygon class=" (ctg32_15)" points="890,25 863,25 863,10 833,40 863,70 863,55 890,55" fill="rgb(255,255,255)" fill-opacity="1.0" stroke="rgb(0,0,0)" stroke-width="2"  />
			<g>
				<title>Xan_ur_permease (PF00860)
"Permease family"</title>
				<rect class="PF00860" x="850" y="28" stroke-linejoin="round" width="38" height="24" fill="rgb(216,88,217)" stroke="rgb(172,70,173)" stroke-width="1" opacity="0.75" />
			</g>
		</g>
		<g>
			<title> (ctg32_16)</title>
			<polygon class=" (ctg32_16)" points="894,40 920,10 920,70" fill="rgb(255,255,255)" fill-opacity="1.0" stroke="rgb(0,0,0)" stroke-width="2"  />
			<g>
				<title>PhyH (PF05721)
"Phytanoyl-CoA dioxygenase (PhyH)"</title>
				<polygon class="PF05721" points="898,40 908,28 918,28 918,52 908,52" stroke-linejoin="round" width="21" height="24" fill="rgb(72,132,214)" stroke="rgb(57,105,171)" stroke-width="1" opacity="0.75" />
			</g>
		</g>
		<g>
			<title> (ctg32_17)</title>
			<polygon class=" (ctg32_17)" points="960,25 958,25 958,10 928,40 958,70 958,55 960,55" fill="rgb(255,255,255)" fill-opacity="1.0" stroke="rgb(0,0,0)" stroke-width="2"  />
		</g>
		<g>
			<title> (ctg32_18)</title>
			<polygon class=" (ctg32_18)" points="1013,25 997,25 997,10 967,40 997,70 997,55 1013,55" fill="rgb(255,255,255)" fill-opacity="1.0" stroke="rgb(0,0,0)" stroke-width="2"  />
		</g>
		<g>
			<title> (ctg32_19)</title>
			<polygon class=" (ctg32_19)" points="1017,40 1031,10 1031,70" fill="rgb(255,255,255)" fill-opacity="1.0" stroke="rgb(0,0,0)" stroke-width="2"  />
		</g>
		<g>
			<title> (ctg32_20)</title>
			<polygon class=" (ctg32_20)" points="1080,25 1065,25 1065,10 1035,40 1065,70 1065,55 1080,55" fill="rgb(255,255,255)" fill-opacity="1.0" stroke="rgb(0,0,0)" stroke-width="2"  />
			<g>
				<title>Ceramidase_alk (PF04734)
"Neutral/alkaline non-lysosomal ceramidase, N-terminal"</title>
				<polygon class="PF04734" points="1051,28 1051,28 1078,28 1078,52 1051,52 1051,52" stroke-linejoin="round" width="27" height="24" fill="rgb(178,159,60)" stroke="rgb(142,127,48)" stroke-width="1" opacity="0.75" />
			</g>
		</g>
		<g>
			<title> (ctg32_21)</title>
			<polygon class=" (ctg32_21)" points="1085,10 1112,40 1085,70" fill="rgb(255,255,255)" fill-opacity="1.0" stroke="rgb(0,0,0)" stroke-width="2"  />
			<g>
				<title>NIF3 (PF01784)
"NIF3 (NGG1p interacting factor 3)"</title>
				<polygon class="PF01784" points="1087,28 1096,28 1108,40 1096,52 1087,52" stroke-linejoin="round" width="23" height="24" fill="rgb(221,59,107)" stroke="rgb(176,47,85)" stroke-width="1" opacity="0.75" />
			</g>
		</g>
		<g>
			<title> (ctg32_22)</title>
			<polygon class=" (ctg32_22)" points="1114,10 1137,40 1114,70" fill="rgb(255,255,255)" fill-opacity="1.0" stroke="rgb(0,0,0)" stroke-width="2"  />
			<g>
				<title>HAD_2 (PF13419)
"Haloacid dehalogenase-like hydrolase"</title>
				<polygon class="PF13419" points="1119,28 1124,28 1133,40 1133,40 1124,52 1119,52" stroke-linejoin="round" width="14" height="24" fill="rgb(60,223,188)" stroke="rgb(48,178,150)" stroke-width="1" opacity="0.75" />
			</g>
		</g>
		<g>
			<title> (ctg32_23)</title>
			<polygon class=" (ctg32_23)" points="1141,40 1168,10 1168,70" fill="rgb(255,255,255)" fill-opacity="1.0" stroke="rgb(0,0,0)" stroke-width="2"  />
			<g>
				<title>ComA (PF02679)
"(2R)-phospho-3-sulfolactate synthase (ComA)"</title>
				<polygon class="PF02679" points="1145,40 1156,28 1167,28 1167,52 1156,52" stroke-linejoin="round" width="24" height="24" fill="rgb(167,194,96)" stroke="rgb(133,155,76)" stroke-width="1" opacity="0.75" />
			</g>
		</g>
		<g>
			<title> (ctg32_24)</title>
			<polygon class=" (ctg32_24)" points="1168,40 1196,10 1196,70" fill="rgb(255,255,255)" fill-opacity="1.0" stroke="rgb(0,0,0)" stroke-width="2"  />
			<g>
				<title>Amidohydro_2 (PF04909)
"Amidohydrolase"</title>
				<polygon class="PF04909" points="1172,40 1183,28 1195,28 1195,52 1183,52" stroke-linejoin="round" width="26" height="24" fill="rgb(95,225,123)" stroke="rgb(76,180,98)" stroke-width="1" opacity="0.75" />
			</g>
		</g>
		<g>
			<title> (ctg32_25)</title>
			<polygon class=" (ctg32_25)" points="1196,40 1200,10 1200,70" fill="rgb(255,255,255)" fill-opacity="1.0" stroke="rgb(0,0,0)" stroke-width="2"  />
		</g>
		<g>
			<title> (ctg32_26)</title>
			<polygon class=" (ctg32_26)" points="1203,40 1232,10 1232,70" fill="rgb(255,255,255)" fill-opacity="1.0" stroke="rgb(0,0,0)" stroke-width="2"  />
			<g>
				<title>AP_endonuc_2 (PF01261)
"Xylose isomerase-like TIM barrel"</title>
				<polygon class="PF01261" points="1207,40 1219,28 1229,28 1229,52 1219,52" stroke-linejoin="round" width="24" height="24" fill="rgb(69,222,207)" stroke="rgb(55,177,165)" stroke-width="1" opacity="0.75" />
			</g>
		</g>
		<g>
			<title> (ctg32_27)</title>
			<polygon class=" (ctg32_27)" points="1242,25 1257,25 1257,10 1287,40 1257,70 1257,55 1242,55" fill="rgb(255,255,255)" fill-opacity="1.0" stroke="rgb(0,0,0)" stroke-width="2"  />
			<g>
				<title>Sulfatase (PF00884)
"Sulfatase"</title>
				<polygon class="PF00884" points="1242,28 1271,28 1275,32 1275,48 1271,52 1242,52" stroke-linejoin="round" width="33" height="24" fill="rgb(61,103,198)" stroke="rgb(48,82,158)" stroke-width="1" opacity="0.75" />
			</g>
		</g>
		<g>
			<title> (ctg32_28)</title>
			<polygon class=" (ctg32_28)" points="1337,25 1325,25 1325,10 1295,40 1325,70 1325,55 1337,55" fill="rgb(255,255,255)" fill-opacity="1.0" stroke="rgb(0,0,0)" stroke-width="2"  />
			<g>
				<title>tRNA-synt_2b (PF00587)
"tRNA synthetase class II core domain (G, H, P, S and T)"</title>
				<polygon class="PF00587" points="1299,40 1311,28 1315,28 1315,52 1311,52" stroke-linejoin="round" width="18" height="24" fill="rgb(228,96,220)" stroke="rgb(182,76,176)" stroke-width="1" opacity="0.75" />
			</g>
			<g>
				<title>Seryl_tRNA_N (PF02403)
"Seryl-tRNA synthetase N-terminal domain"</title>
				<rect class="PF02403" x="1327" y="28" stroke-linejoin="round" width="10" height="24" fill="rgb(220,109,118)" stroke="rgb(176,87,94)" stroke-width="1" opacity="0.75" />
			</g>
		</g>
		<g>
			<title> (ctg32_29)</title>
			<polygon class=" (ctg32_29)" points="1386,25 1368,25 1368,10 1338,40 1368,70 1368,55 1386,55" fill="rgb(255,255,255)" fill-opacity="1.0" stroke="rgb(0,0,0)" stroke-width="2"  />
			<g>
				<title>tRNA-synt_2 (PF00152)
"tRNA synthetases class II (D, K and N)"</title>
				<polygon class="PF00152" points="1342,40 1354,28 1371,28 1371,52 1354,52" stroke-linejoin="round" width="33" height="24" fill="rgb(90,71,190)" stroke="rgb(72,56,152)" stroke-width="1" opacity="0.75" />
			</g>
			<g>
				<title>tRNA_anti-codon (PF01336)
"OB-fold nucleic acid binding domain"</title>
				<rect class="PF01336" x="1374" y="28" stroke-linejoin="round" width="7" height="24" fill="rgb(215,103,173)" stroke="rgb(172,82,138)" stroke-width="1" opacity="0.75" />
			</g>
		</g>
		<g>
			<title> (ctg32_30)</title>
			<polygon class=" (ctg32_30)" points="1389,40 1404,10 1404,70" fill="rgb(255,255,255)" fill-opacity="1.0" stroke="rgb(0,0,0)" stroke-width="2"  />
			<g>
				<title>GreA_GreB (PF01272)
"Transcription elongation factor, GreA/GreB, C-term"</title>
				<polygon class="PF01272" points="1392,40 1396,32 1396,48" stroke-linejoin="round" width="7" height="24" fill="rgb(196,189,58)" stroke="rgb(156,151,46)" stroke-width="1" opacity="0.75" />
			</g>
			<g>
				<title>GreA_GreB_N (PF03449)
"Transcription elongation factor, N-terminal"</title>
				<polygon class="PF03449" points="1396,32 1398,28 1403,28 1403,52 1398,52 1396,48" stroke-linejoin="round" width="7" height="24" fill="rgb(109,94,217)" stroke="rgb(87,75,173)" stroke-width="1" opacity="0.75" />
			</g>
		</g>
	</g>
</svg>
