<svg version="1.1" baseProfile="full" xmlns="http://www.w3.org/2000/svg" width="752.6333333333333" height="80">
	<g>
		<line x1="10" y1="40.0" x2="742.6333333333333" y2="40.0" style="stroke:rgb(70,70,70); stroke-width:3 "/>
		<g>
			<title> (ctg1_146)</title>
			<polygon class=" (ctg1_146)" points="21,25 95,25 95,10 125,40 95,70 95,55 21,55" fill="rgb(255,255,255)" fill-opacity="1.0" stroke="rgb(0,0,0)" stroke-width="2"  />
		</g>
		<g>
			<title> (ctg1_147)</title>
			<polygon class=" (ctg1_147)" points="124,25 165,25 165,10 195,40 165,70 165,55 124,55" fill="rgb(255,255,255)" fill-opacity="1.0" stroke="rgb(0,0,0)" stroke-width="2"  />
		</g>
		<g>
			<title> (ctg1_148)</title>
			<polygon class=" (ctg1_148)" points="196,10 217,40 196,70" fill="rgb(255,255,255)" fill-opacity="1.0" stroke="rgb(0,0,0)" stroke-width="2"  />
		</g>
		<g>
			<title> (ctg1_149)</title>
			<polygon class=" (ctg1_149)" points="218,40 231,10 231,70" fill="rgb(255,255,255)" fill-opacity="1.0" stroke="rgb(0,0,0)" stroke-width="2"  />
			<g>
				<title>rve (PF00665)
"Integrase core domain"</title>
				<polygon class="PF00665" points="221,40 225,31 225,49" stroke-linejoin="round" width="7" height="24" fill="rgb(93,64,200)" stroke="rgb(74,51,160)" stroke-width="1" opacity="0.75" />
			</g>
			<g>
				<title>HTH_21 (PF13276)
"HTH-like domain"</title>
				<rect class="PF13276" x="228" y="28" stroke-linejoin="round" width="3" height="24" fill="rgb(114,195,68)" stroke="rgb(91,156,54)" stroke-width="1" opacity="0.75" />
			</g>
		</g>
		<g>
			<title> (ctg1_150)</title>
			<polygon class=" (ctg1_150)" points="232,40 242,10 242,70" fill="rgb(255,255,255)" fill-opacity="1.0" stroke="rgb(0,0,0)" stroke-width="2"  />
			<g>
				<title>HTH_Tnp_1 (PF01527)
"Transposase"</title>
				<polygon class="PF01527" points="235,40 239,28 242,28 242,52 239,52" stroke-linejoin="round" width="9" height="24" fill="rgb(85,212,107)" stroke="rgb(68,169,85)" stroke-width="1" opacity="0.75" />
			</g>
		</g>
		<g>
			<title> (ctg1_151)</title>
			<polygon class=" (ctg1_151)" points="245,10 252,40 245,70" fill="rgb(255,255,255)" fill-opacity="1.0" stroke="rgb(0,0,0)" stroke-width="2"  />
		</g>
		<g>
			<title> (ctg1_152)</title>
			<polygon class=" (ctg1_152)" points="256,10 263,40 256,70" fill="rgb(255,255,255)" fill-opacity="1.0" stroke="rgb(0,0,0)" stroke-width="2"  />
			<g>
				<title>HicB_lk_antitox (PF15919)
"HicB_like antitoxin of bacterial toxin-antitoxin system"</title>
				<polygon class="PF15919" points="256,28 256,28 260,40 256,52 256,52" stroke-linejoin="round" width="6" height="24" fill="rgb(104,205,86)" stroke="rgb(83,164,68)" stroke-width="1" opacity="0.75" />
			</g>
		</g>
		<g>
			<title> (ctg1_153)</title>
			<polygon class=" (ctg1_153)" points="276,10 291,40 276,70" fill="rgb(255,255,255)" fill-opacity="1.0" stroke="rgb(0,0,0)" stroke-width="2"  />
		</g>
		<g>
			<title> (ctg1_154)</title>
			<polygon class=" (ctg1_154)" points="343,25 323,25 323,10 293,40 323,70 323,55 343,55" fill="rgb(255,255,255)" fill-opacity="1.0" stroke="rgb(0,0,0)" stroke-width="2"  />
			<g>
				<title>Amino_oxidase (PF01593)
"Flavin containing amine oxidoreductase"</title>
				<polygon class="PF01593" points="297,40 309,28 342,28 342,52 309,52" stroke-linejoin="round" width="46" height="24" fill="rgb(184,74,52)" stroke="rgb(147,59,41)" stroke-width="1" opacity="0.75" />
			</g>
		</g>
		<g>
			<title> (ctg1_155)</title>
			<polygon class=" (ctg1_155)" points="378,25 373,25 373,10 343,40 373,70 373,55 378,55" fill="rgb(255,255,255)" fill-opacity="1.0" stroke="rgb(0,0,0)" stroke-width="2"  />
			<g>
				<title>SQS_PSY (PF00494)
"Squalene/phytoene synthase"</title>
				<polygon class="PF00494" points="347,40 359,28 369,28 369,52 359,52" stroke-linejoin="round" width="25" height="24" fill="rgb(178,91,49)" stroke="rgb(142,72,39)" stroke-width="1" opacity="0.75" />
			</g>
			<g>
				<title>SQS_PSY (PF00494)
"Squalene/phytoene synthase"</title>
				<rect class="PF00494" x="371" y="28" stroke-linejoin="round" width="5" height="24" fill="rgb(178,91,49)" stroke="rgb(142,72,39)" stroke-width="1" opacity="0.75" />
			</g>
		</g>
		<g>
			<title> (ctg1_156)</title>
			<polygon class=" (ctg1_156)" points="409,25 408,25 408,10 378,40 408,70 408,55 409,55" fill="rgb(255,255,255)" fill-opacity="1.0" stroke="rgb(0,0,0)" stroke-width="2"  />
			<g>
				<title>SQS_PSY (PF00494)
"Squalene/phytoene synthase"</title>
				<polygon class="PF00494" points="382,40 394,28 404,28 404,52 394,52" stroke-linejoin="round" width="25" height="24" fill="rgb(178,91,49)" stroke="rgb(142,72,39)" stroke-width="1" opacity="0.75" />
			</g>
		</g>
		<g>
			<title> (ctg1_157)</title>
			<polygon class=" (ctg1_157)" points="413,40 434,10 434,70" fill="rgb(255,255,255)" fill-opacity="1.0" stroke="rgb(0,0,0)" stroke-width="2"  />
			<g>
				<title>DHBP_synthase (PF00926)
"3,4-dihydroxy-2-butanone 4-phosphate synthase"</title>
				<polygon class="PF00926" points="417,40 426,28 433,28 433,52 426,52" stroke-linejoin="round" width="19" height="24" fill="rgb(84,51,187)" stroke="rgb(67,40,149)" stroke-width="1" opacity="0.75" />
			</g>
		</g>
		<g>
			<title> (ctg1_158)</title>
			<polygon class=" (ctg1_158)" points="442,25 504,25 504,10 534,40 504,70 504,55 442,55" fill="rgb(255,255,255)" fill-opacity="1.0" stroke="rgb(0,0,0)" stroke-width="2"  />
			<g>
				<title>Trans_reg_C (PF00486)
"Transcriptional regulatory protein, C terminal"</title>
				<rect class="PF00486" x="444" y="28" stroke-linejoin="round" width="7" height="24" fill="rgb(204,153,57)" stroke="rgb(163,122,45)" stroke-width="1" opacity="0.75" />
			</g>
		</g>
		<g>
			<title> (ctg1_159)</title>
			<polygon class=" (ctg1_159)" points="541,25 551,25 551,10 581,40 551,70 551,55 541,55" fill="rgb(255,255,255)" fill-opacity="1.0" stroke="rgb(0,0,0)" stroke-width="2"  />
			<g>
				<title>AIRS (PF00586)
"AIR synthase related protein, N-terminal domain"</title>
				<rect class="PF00586" x="545" y="28" stroke-linejoin="round" width="13" height="24" fill="rgb(215,196,78)" stroke="rgb(172,156,62)" stroke-width="1" opacity="0.75" />
			</g>
			<g>
				<title>AIRS_C (PF02769)
"AIR synthase related protein, C-terminal domain"</title>
				<polygon class="PF02769" points="560,28 565,28 577,40 565,52 560,52" stroke-linejoin="round" width="19" height="24" fill="rgb(182,125,70)" stroke="rgb(145,100,56)" stroke-width="1" opacity="0.75" />
			</g>
		</g>
		<g>
			<title> (ctg1_160)</title>
			<polygon class=" (ctg1_160)" points="584,40 594,10 594,70" fill="rgb(255,255,255)" fill-opacity="1.0" stroke="rgb(0,0,0)" stroke-width="2"  />
			<g>
				<title>Rieske (PF00355)
"Rieske [2Fe-2S] domain"</title>
				<polygon class="PF00355" points="587,40 591,28 593,28 593,52 591,52" stroke-linejoin="round" width="8" height="24" fill="rgb(186,77,145)" stroke="rgb(148,61,115)" stroke-width="1" opacity="0.75" />
			</g>
		</g>
		<g>
			<title> (ctg1_161)</title>
			<polygon class=" (ctg1_161)" points="654,25 627,25 627,10 597,40 627,70 627,55 654,55" fill="rgb(255,255,255)" fill-opacity="1.0" stroke="rgb(0,0,0)" stroke-width="2"  />
			<g>
				<title>LysM (PF01476)
"LysM domain"</title>
				<polygon class="PF01476" points="601,40 601,40 601,40" stroke-linejoin="round" width="4" height="24" fill="rgb(200,86,203)" stroke="rgb(160,68,162)" stroke-width="1" opacity="0.75" />
			</g>
			<g>
				<title>LysM (PF01476)
"LysM domain"</title>
				<polygon class="PF01476" points="602,39 606,35 606,45 602,41" stroke-linejoin="round" width="4" height="24" fill="rgb(200,86,203)" stroke="rgb(160,68,162)" stroke-width="1" opacity="0.75" />
			</g>
			<g>
				<title>LysM (PF01476)
"LysM domain"</title>
				<polygon class="PF01476" points="609,32 613,28 613,28 613,52 613,52 609,48" stroke-linejoin="round" width="4" height="24" fill="rgb(200,86,203)" stroke="rgb(160,68,162)" stroke-width="1" opacity="0.75" />
			</g>
			<g>
				<title>SLT (PF01464)
"Transglycosylase SLT domain"</title>
				<rect class="PF01464" x="625" y="28" stroke-linejoin="round" width="11" height="24" fill="rgb(181,60,156)" stroke="rgb(144,47,124)" stroke-width="1" opacity="0.75" />
			</g>
		</g>
		<g>
			<title> (ctg1_162)</title>
			<polygon class=" (ctg1_162)" points="680,40 688,10 688,70" fill="rgb(255,255,255)" fill-opacity="1.0" stroke="rgb(0,0,0)" stroke-width="2"  />
		</g>
		<g>
			<title> (ctg1_163)</title>
			<polygon class=" (ctg1_163)" points="737,25 725,25 725,10 695,40 725,70 725,55 737,55" fill="rgb(255,255,255)" fill-opacity="1.0" stroke="rgb(0,0,0)" stroke-width="2"  />
			<g>
				<title>HEAT_2 (PF13646)
"HEAT repeats"</title>
				<polygon class="PF13646" points="699,40 702,37 702,43" stroke-linejoin="round" width="7" height="24" fill="rgb(161,180,58)" stroke="rgb(128,144,46)" stroke-width="1" opacity="0.75" />
			</g>
			<g>
				<title>Fer4_16 (PF13484)
"4Fe-4S double cluster binding domain"</title>
				<polygon class="PF13484" points="707,32 711,28 713,28 713,52 711,52 707,48" stroke-linejoin="round" width="6" height="24" fill="rgb(155,190,93)" stroke="rgb(124,152,74)" stroke-width="1" opacity="0.75" />
			</g>
			<g>
				<title>DUF1730 (PF08331)
"Domain of unknown function (DUF1730)"</title>
				<rect class="PF08331" x="719" y="28" stroke-linejoin="round" width="10" height="24" fill="rgb(184,157,52)" stroke="rgb(147,125,41)" stroke-width="1" opacity="0.75" />
			</g>
		</g>
	</g>
</svg>
