<svg version="1.1" baseProfile="full" xmlns="http://www.w3.org/2000/svg" width="262.8666666666667" height="80">
	<g>
		<line x1="10" y1="40.0" x2="252.86666666666667" y2="40.0" style="stroke:rgb(70,70,70); stroke-width:3 "/>
		<g>
			<title> (ctg7388_1)</title>
			<polygon class=" (ctg7388_1)" points="10,10 25,40 10,70" fill="rgb(255,255,255)" fill-opacity="1.0" stroke="rgb(0,0,0)" stroke-width="2"  />
			<g>
				<title>SQS_PSY (PF00494)
"Squalene/phytoene synthase"</title>
				<polygon class="PF00494" points="10,28 15,28 21,38 21,42 15,52 10,52" stroke-linejoin="round" width="11" height="24" fill="rgb(178,91,49)" stroke="rgb(142,72,39)" stroke-width="1" opacity="0.75" />
			</g>
		</g>
		<g>
			<title> (ctg7388_2)</title>
			<polygon class=" (ctg7388_2)" points="25,25 74,25 74,10 104,40 74,70 74,55 25,55" fill="rgb(255,255,255)" fill-opacity="1.0" stroke="rgb(0,0,0)" stroke-width="2"  />
			<g>
				<title>Ubie_methyltran (PF01209)
"ubiE/COQ5 methyltransferase family"</title>
				<rect class="PF01209" x="25" y="28" stroke-linejoin="round" width="23" height="24" fill="rgb(90,83,226)" stroke="rgb(72,66,180)" stroke-width="1" opacity="0.75" />
			</g>
			<g>
				<title>Amino_oxidase (PF01593)
"Flavin containing amine oxidoreductase"</title>
				<polygon class="PF01593" points="58,28 88,28 100,40 88,52 58,52" stroke-linejoin="round" width="44" height="24" fill="rgb(184,74,52)" stroke="rgb(147,59,41)" stroke-width="1" opacity="0.75" />
			</g>
		</g>
		<g>
			<title> (ctg7388_3)</title>
			<polygon class=" (ctg7388_3)" points="105,25 106,25 106,10 136,40 106,70 106,55 105,55" fill="rgb(255,255,255)" fill-opacity="1.0" stroke="rgb(0,0,0)" stroke-width="2"  />
			<g>
				<title>Rieske (PF00355)
"Rieske [2Fe-2S] domain"</title>
				<rect class="PF00355" x="109" y="28" stroke-linejoin="round" width="8" height="24" fill="rgb(186,77,145)" stroke="rgb(148,61,115)" stroke-width="1" opacity="0.75" />
			</g>
		</g>
		<g>
			<title> (ctg7388_4)</title>
			<polygon class=" (ctg7388_4)" points="169,25 167,25 167,10 137,40 167,70 167,55 169,55" fill="rgb(255,255,255)" fill-opacity="1.0" stroke="rgb(0,0,0)" stroke-width="2"  />
			<g>
				<title>DUF3500 (PF12006)
"Protein of unknown function (DUF3500)"</title>
				<polygon class="PF12006" points="141,40 153,28 168,28 168,52 153,52" stroke-linejoin="round" width="30" height="24" fill="rgb(85,197,158)" stroke="rgb(68,157,126)" stroke-width="1" opacity="0.75" />
			</g>
		</g>
		<g>
			<title> (ctg7388_5)</title>
			<polygon class=" (ctg7388_5)" points="170,40 184,10 184,70" fill="rgb(255,255,255)" fill-opacity="1.0" stroke="rgb(0,0,0)" stroke-width="2"  />
		</g>
		<g>
			<title> (ctg7388_6)</title>
			<polygon class=" (ctg7388_6)" points="186,10 201,40 186,70" fill="rgb(255,255,255)" fill-opacity="1.0" stroke="rgb(0,0,0)" stroke-width="2"  />
		</g>
		<g>
			<title> (ctg7388_7)</title>
			<polygon class=" (ctg7388_7)" points="235,25 227,25 227,10 197,40 227,70 227,55 235,55" fill="rgb(255,255,255)" fill-opacity="1.0" stroke="rgb(0,0,0)" stroke-width="2"  />
		</g>
	</g>
</svg>
