<svg version="1.1" baseProfile="full" xmlns="http://www.w3.org/2000/svg" width="747.4666666666667" height="80">
	<g>
		<line x1="10" y1="40.0" x2="737.4666666666667" y2="40.0" style="stroke:rgb(70,70,70); stroke-width:3 "/>
		<g>
			<title> (ctg716_13)</title>
			<polygon class=" (ctg716_13)" points="11,25 15,25 15,10 45,40 15,70 15,55 11,55" fill="rgb(255,255,255)" fill-opacity="1.0" stroke="rgb(0,0,0)" stroke-width="2"  />
		</g>
		<g>
			<title> (ctg716_14)</title>
			<polygon class=" (ctg716_14)" points="49,40 71,10 71,70" fill="rgb(255,255,255)" fill-opacity="1.0" stroke="rgb(0,0,0)" stroke-width="2"  />
			<g>
				<title>BPL_LplA_LipB (PF03099)
"Biotin/lipoate A/B protein ligase family"</title>
				<polygon class="PF03099" points="54,39 62,28 64,28 64,52 62,52 54,41" stroke-linejoin="round" width="10" height="24" fill="rgb(228,147,105)" stroke="rgb(182,117,84)" stroke-width="1" opacity="0.75" />
			</g>
		</g>
		<g>
			<title> (ctg716_15)</title>
			<polygon class=" (ctg716_15)" points="76,25 85,25 85,10 115,40 85,70 85,55 76,55" fill="rgb(255,255,255)" fill-opacity="1.0" stroke="rgb(0,0,0)" stroke-width="2"  />
			<g>
				<title>Aminotran_5 (PF00266)
"Aminotransferase class-V"</title>
				<polygon class="PF00266" points="77,28 98,28 110,40 98,52 77,52" stroke-linejoin="round" width="36" height="24" fill="rgb(214,54,122)" stroke="rgb(171,43,97)" stroke-width="1" opacity="0.75" />
			</g>
		</g>
		<g>
			<title> (ctg716_16)</title>
			<polygon class=" (ctg716_16)" points="115,10 131,40 115,70" fill="rgb(255,255,255)" fill-opacity="1.0" stroke="rgb(0,0,0)" stroke-width="2"  />
			<g>
				<title>GCV_H (PF01597)
"Glycine cleavage H-protein"</title>
				<polygon class="PF01597" points="117,28 121,28 127,40 121,52 117,52" stroke-linejoin="round" width="11" height="24" fill="rgb(77,190,144)" stroke="rgb(61,152,115)" stroke-width="1" opacity="0.75" />
			</g>
		</g>
		<g>
			<title> (ctg716_17)</title>
			<polygon class=" (ctg716_17)" points="131,25 138,25 138,10 168,40 138,70 138,55 131,55" fill="rgb(255,255,255)" fill-opacity="1.0" stroke="rgb(0,0,0)" stroke-width="2"  />
			<g>
				<title>cobW (PF02492)
"CobW/HypB/UreG, nucleotide-binding domain"</title>
				<rect class="PF02492" x="132" y="28" stroke-linejoin="round" width="18" height="24" fill="rgb(79,112,178)" stroke="rgb(63,89,142)" stroke-width="1" opacity="0.75" />
			</g>
		</g>
		<g>
			<title> (ctg716_18)</title>
			<polygon class=" (ctg716_18)" points="169,10 182,40 169,70" fill="rgb(255,255,255)" fill-opacity="1.0" stroke="rgb(0,0,0)" stroke-width="2"  />
		</g>
		<g>
			<title> (ctg716_19)</title>
			<polygon class=" (ctg716_19)" points="182,10 211,40 182,70" fill="rgb(255,255,255)" fill-opacity="1.0" stroke="rgb(0,0,0)" stroke-width="2"  />
		</g>
		<g>
			<title> (ctg716_20)</title>
			<polygon class=" (ctg716_20)" points="212,25 221,25 221,10 251,40 221,70 221,55 212,55" fill="rgb(255,255,255)" fill-opacity="1.0" stroke="rgb(0,0,0)" stroke-width="2"  />
			<g>
				<title>Radical_SAM (PF04055)
"Radical SAM superfamily"</title>
				<rect class="PF04055" x="217" y="28" stroke-linejoin="round" width="15" height="24" fill="rgb(149,56,222)" stroke="rgb(119,44,177)" stroke-width="1" opacity="0.75" />
			</g>
		</g>
		<g>
			<title> (ctg716_21)</title>
			<polygon class=" (ctg716_21)" points="254,25 282,25 282,10 312,40 282,70 282,55 254,55" fill="rgb(255,255,255)" fill-opacity="1.0" stroke="rgb(0,0,0)" stroke-width="2"  />
			<g>
				<title>DUF116 (PF01976)
"Protein of unknown function DUF116"</title>
				<rect class="PF01976" x="260" y="28" stroke-linejoin="round" width="15" height="24" fill="rgb(103,188,75)" stroke="rgb(82,150,60)" stroke-width="1" opacity="0.75" />
			</g>
			<g>
				<title>polyprenyl_synt (PF00348)
"Polyprenyl synthetase"</title>
				<polygon class="PF00348" points="279,28 295,28 304,37 304,43 295,52 279,52" stroke-linejoin="round" width="25" height="24" fill="rgb(61,206,65)" stroke="rgb(48,164,52)" stroke-width="1" opacity="0.75" />
			</g>
		</g>
		<g>
			<title> (ctg716_22)</title>
			<polygon class=" (ctg716_22)" points="311,10 339,40 311,70" fill="rgb(255,255,255)" fill-opacity="1.0" stroke="rgb(0,0,0)" stroke-width="2"  />
			<g>
				<title>Prenyltrans (PF00432)
"Prenyltransferase and squalene oxidase repeat"</title>
				<rect class="PF00432" x="312" y="28" stroke-linejoin="round" width="4" height="24" fill="rgb(218,215,79)" stroke="rgb(174,172,63)" stroke-width="1" opacity="0.75" />
			</g>
			<g>
				<title>Prenyltrans (PF00432)
"Prenyltransferase and squalene oxidase repeat"</title>
				<polygon class="PF00432" points="330,35 334,39 334,41 330,45" stroke-linejoin="round" width="4" height="24" fill="rgb(218,215,79)" stroke="rgb(174,172,63)" stroke-width="1" opacity="0.75" />
			</g>
			<g>
				<title>Prenyltrans (PF00432)
"Prenyltransferase and squalene oxidase repeat"</title>
				<polygon class="PF00432" points="335,40 335,40 335,40" stroke-linejoin="round" width="4" height="24" fill="rgb(218,215,79)" stroke="rgb(174,172,63)" stroke-width="1" opacity="0.75" />
			</g>
		</g>
		<g>
			<title> (ctg716_23)</title>
			<polygon class=" (ctg716_23)" points="343,25 373,25 373,10 403,40 373,70 373,55 343,55" fill="rgb(255,255,255)" fill-opacity="1.0" stroke="rgb(0,0,0)" stroke-width="2"  />
			<g>
				<title>SQHop_cyclase_N (PF13249)
"Squalene-hopene cyclase N-terminal domain"</title>
				<rect class="PF13249" x="343" y="28" stroke-linejoin="round" width="11" height="24" fill="rgb(88,190,89)" stroke="rgb(70,152,71)" stroke-width="1" opacity="0.75" />
			</g>
			<g>
				<title>SQHop_cyclase_C (PF13243)
"Squalene-hopene cyclase C-terminal domain"</title>
				<polygon class="PF13243" points="371,28 387,28 399,40 387,52 371,52" stroke-linejoin="round" width="31" height="24" fill="rgb(191,58,201)" stroke="rgb(152,46,160)" stroke-width="1" opacity="0.75" />
			</g>
		</g>
		<g>
			<title> (ctg716_24)</title>
			<polygon class=" (ctg716_24)" points="408,25 416,25 416,10 446,40 416,70 416,55 408,55" fill="rgb(255,255,255)" fill-opacity="1.0" stroke="rgb(0,0,0)" stroke-width="2"  />
			<g>
				<title>Fe-ADH (PF00465)
"Iron-containing alcohol dehydrogenase"</title>
				<polygon class="PF00465" points="408,28 429,28 441,40 429,52 408,52" stroke-linejoin="round" width="36" height="24" fill="rgb(73,179,216)" stroke="rgb(58,143,172)" stroke-width="1" opacity="0.75" />
			</g>
		</g>
		<g>
			<title> (ctg716_25)</title>
			<polygon class=" (ctg716_25)" points="445,25 453,25 453,10 483,40 453,70 453,55 445,55" fill="rgb(255,255,255)" fill-opacity="1.0" stroke="rgb(0,0,0)" stroke-width="2"  />
			<g>
				<title>PQQ_3 (PF13570)
"PQQ-like domain"</title>
				<rect class="PF13570" x="451" y="28" stroke-linejoin="round" width="3" height="24" fill="rgb(154,89,181)" stroke="rgb(123,71,144)" stroke-width="1" opacity="0.75" />
			</g>
			<g>
				<title>PQQ_2 (PF13360)
"PQQ-like domain"</title>
				<polygon class="PF13360" points="456,28 467,28 470,31 470,49 467,52 456,52" stroke-linejoin="round" width="14" height="24" fill="rgb(98,210,146)" stroke="rgb(78,168,116)" stroke-width="1" opacity="0.75" />
			</g>
			<g>
				<title>PQQ_2 (PF13360)
"PQQ-like domain"</title>
				<polygon class="PF13360" points="470,31 479,40 470,49" stroke-linejoin="round" width="13" height="24" fill="rgb(98,210,146)" stroke="rgb(78,168,116)" stroke-width="1" opacity="0.75" />
			</g>
		</g>
		<g>
			<title> (ctg716_26)</title>
			<polygon class=" (ctg716_26)" points="485,40 505,10 505,70" fill="rgb(255,255,255)" fill-opacity="1.0" stroke="rgb(0,0,0)" stroke-width="2"  />
			<g>
				<title>Uma2 (PF05685)
"Putative restriction endonuclease"</title>
				<polygon class="PF05685" points="489,40 497,28 502,28 502,52 497,52" stroke-linejoin="round" width="16" height="24" fill="rgb(123,107,219)" stroke="rgb(98,85,175)" stroke-width="1" opacity="0.75" />
			</g>
		</g>
		<g>
			<title> (ctg716_27)</title>
			<polygon class=" (ctg716_27)" points="508,25 522,25 522,10 552,40 522,70 522,55 508,55" fill="rgb(255,255,255)" fill-opacity="1.0" stroke="rgb(0,0,0)" stroke-width="2"  />
			<g>
				<title>Radical_SAM (PF04055)
"Radical SAM superfamily"</title>
				<rect class="PF04055" x="513" y="28" stroke-linejoin="round" width="17" height="24" fill="rgb(149,56,222)" stroke="rgb(119,44,177)" stroke-width="1" opacity="0.75" />
			</g>
		</g>
		<g>
			<title> (ctg716_28)</title>
			<polygon class=" (ctg716_28)" points="553,10 570,40 553,70" fill="rgb(255,255,255)" fill-opacity="1.0" stroke="rgb(0,0,0)" stroke-width="2"  />
		</g>
		<g>
			<title> (ctg716_29)</title>
			<polygon class=" (ctg716_29)" points="571,25 584,25 584,10 614,40 584,70 584,55 571,55" fill="rgb(255,255,255)" fill-opacity="1.0" stroke="rgb(0,0,0)" stroke-width="2"  />
			<g>
				<title>FAD_binding_3 (PF01494)
"FAD binding domain"</title>
				<polygon class="PF01494" points="571,28 598,28 602,32 602,48 598,52 571,52" stroke-linejoin="round" width="31" height="24" fill="rgb(182,175,59)" stroke="rgb(145,140,47)" stroke-width="1" opacity="0.75" />
			</g>
		</g>
		<g>
			<title> (ctg716_30)</title>
			<polygon class=" (ctg716_30)" points="618,10 631,40 618,70" fill="rgb(255,255,255)" fill-opacity="1.0" stroke="rgb(0,0,0)" stroke-width="2"  />
			<g>
				<title>4HBT (PF03061)
"Thioesterase superfamily"</title>
				<polygon class="PF03061" points="619,28 622,28 627,38 627,42 622,52 619,52" stroke-linejoin="round" width="8" height="24" fill="rgb(143,103,215)" stroke="rgb(114,82,172)" stroke-width="1" opacity="0.75" />
			</g>
		</g>
		<g>
			<title> (ctg716_31)</title>
			<polygon class=" (ctg716_31)" points="632,25 647,25 647,10 677,40 647,70 647,55 632,55" fill="rgb(255,255,255)" fill-opacity="1.0" stroke="rgb(0,0,0)" stroke-width="2"  />
			<g>
				<title>AMP-binding (PF00501)
"AMP-binding enzyme"</title>
				<polygon class="PF00501" points="636,28 660,28 662,30 662,50 660,52 636,52" stroke-linejoin="round" width="26" height="24" fill="rgb(60,217,223)" stroke="rgb(48,173,178)" stroke-width="1" opacity="0.75" />
			</g>
			<g>
				<title>AMP-binding_C_2 (PF14535)
"AMP-binding enzyme C-terminal domain"</title>
				<polygon class="PF14535" points="666,34 672,40 666,46" stroke-linejoin="round" width="8" height="24" fill="rgb(184,90,149)" stroke="rgb(147,72,119)" stroke-width="1" opacity="0.75" />
			</g>
		</g>
		<g>
			<title> (ctg716_32)</title>
			<polygon class=" (ctg716_32)" points="679,10 690,40 679,70" fill="rgb(255,255,255)" fill-opacity="1.0" stroke="rgb(0,0,0)" stroke-width="2"  />
			<g>
				<title>Glyoxalase (PF00903)
"Glyoxalase/Bleomycin resistance protein/Dioxygenase superfamily"</title>
				<polygon class="PF00903" points="679,28 682,28 687,40 682,52 679,52" stroke-linejoin="round" width="10" height="24" fill="rgb(50,162,189)" stroke="rgb(40,129,151)" stroke-width="1" opacity="0.75" />
			</g>
		</g>
		<g>
			<title> (ctg716_33)</title>
			<polygon class=" (ctg716_33)" points="691,25 695,25 695,10 725,40 695,70 695,55 691,55" fill="rgb(255,255,255)" fill-opacity="1.0" stroke="rgb(0,0,0)" stroke-width="2"  />
			<g>
				<title>NMT1_3 (PF16868)
"NMT1-like family"</title>
				<polygon class="PF16868" points="696,28 708,28 720,40 708,52 696,52" stroke-linejoin="round" width="28" height="24" fill="rgb(216,93,128)" stroke="rgb(172,74,102)" stroke-width="1" opacity="0.75" />
			</g>
		</g>
	</g>
</svg>
