<svg version="1.1" baseProfile="full" xmlns="http://www.w3.org/2000/svg" width="1695.6" height="80">
	<g>
		<line x1="10" y1="40.0" x2="1685.6" y2="40.0" style="stroke:rgb(70,70,70); stroke-width:3 "/>
		<g>
			<title> (ctg244_18)</title>
			<polygon class=" (ctg244_18)" points="25,25 66,25 66,10 96,40 66,70 66,55 25,55" fill="rgb(255,255,255)" fill-opacity="1.0" stroke="rgb(0,0,0)" stroke-width="2"  />
			<g>
				<title>GPP34 (PF05719)
"Golgi phosphoprotein 3 (GPP34)"</title>
				<rect class="PF05719" x="26" y="28" stroke-linejoin="round" width="18" height="24" fill="rgb(221,100,205)" stroke="rgb(176,80,163)" stroke-width="1" opacity="0.75" />
			</g>
			<g>
				<title>p450 (PF00067)
"Cytochrome P450"</title>
				<polygon class="PF00067" points="72,28 80,28 89,37 89,43 80,52 72,52" stroke-linejoin="round" width="17" height="24" fill="rgb(85,216,107)" stroke="rgb(68,172,85)" stroke-width="1" opacity="0.75" />
			</g>
		</g>
		<g>
			<title> (ctg244_19)</title>
			<polygon class=" (ctg244_19)" points="98,10 106,40 98,70" fill="rgb(255,255,255)" fill-opacity="1.0" stroke="rgb(0,0,0)" stroke-width="2"  />
		</g>
		<g>
			<title> (ctg244_20)</title>
			<polygon class=" (ctg244_20)" points="108,10 127,40 108,70" fill="rgb(255,255,255)" fill-opacity="1.0" stroke="rgb(0,0,0)" stroke-width="2"  />
		</g>
		<g>
			<title> (ctg244_21)</title>
			<polygon class=" (ctg244_21)" points="125,10 130,40 125,70" fill="rgb(255,255,255)" fill-opacity="1.0" stroke="rgb(0,0,0)" stroke-width="2"  />
		</g>
		<g>
			<title> (ctg244_22)</title>
			<polygon class=" (ctg244_22)" points="176,25 166,25 166,10 136,40 166,70 166,55 176,55" fill="rgb(255,255,255)" fill-opacity="1.0" stroke="rgb(0,0,0)" stroke-width="2"  />
			<g>
				<title>HlyD_D23 (PF16576)
"Barrel-sandwich domain of CusB or HlyD membrane-fusion"</title>
				<polygon class="PF16576" points="146,34 152,28 169,28 169,52 152,52 146,46" stroke-linejoin="round" width="23" height="24" fill="rgb(70,190,92)" stroke="rgb(56,152,73)" stroke-width="1" opacity="0.75" />
			</g>
		</g>
		<g>
			<title> (ctg244_23)</title>
			<polygon class=" (ctg244_23)" points="227,25 206,25 206,10 176,40 206,70 206,55 227,55" fill="rgb(255,255,255)" fill-opacity="1.0" stroke="rgb(0,0,0)" stroke-width="2"  />
			<g>
				<title>OEP (PF02321)
"Outer membrane efflux protein"</title>
				<polygon class="PF02321" points="180,40 192,28 196,28 196,52 192,52" stroke-linejoin="round" width="18" height="24" fill="rgb(205,57,201)" stroke="rgb(164,45,160)" stroke-width="1" opacity="0.75" />
			</g>
			<g>
				<title>OEP (PF02321)
"Outer membrane efflux protein"</title>
				<rect class="PF02321" x="199" y="28" stroke-linejoin="round" width="20" height="24" fill="rgb(205,57,201)" stroke="rgb(164,45,160)" stroke-width="1" opacity="0.75" />
			</g>
		</g>
		<g>
			<title> (ctg244_24)</title>
			<polygon class=" (ctg244_24)" points="237,25 272,25 272,10 302,40 272,70 272,55 237,55" fill="rgb(255,255,255)" fill-opacity="1.0" stroke="rgb(0,0,0)" stroke-width="2"  />
			<g>
				<title>SSF (PF00474)
"Sodium:solute symporter family"</title>
				<rect class="PF00474" x="240" y="28" stroke-linejoin="round" width="42" height="24" fill="rgb(49,186,178)" stroke="rgb(39,148,142)" stroke-width="1" opacity="0.75" />
			</g>
		</g>
		<g>
			<title> (ctg244_25)</title>
			<polygon class=" (ctg244_25)" points="384,25 337,25 337,10 307,40 337,70 337,55 384,55" fill="rgb(255,255,255)" fill-opacity="1.0" stroke="rgb(0,0,0)" stroke-width="2"  />
			<g>
				<title>Hepar_II_III (PF07940)
"Heparinase II/III-like protein"</title>
				<polygon class="PF07940" points="311,40 323,28 335,28 335,52 323,52" stroke-linejoin="round" width="25" height="24" fill="rgb(92,170,189)" stroke="rgb(73,136,151)" stroke-width="1" opacity="0.75" />
			</g>
			<g>
				<title>Hepar_II_III_N (PF16889)
"Heparinase II/III N-terminus"</title>
				<rect class="PF16889" x="338" y="28" stroke-linejoin="round" width="26" height="24" fill="rgb(73,128,205)" stroke="rgb(58,102,164)" stroke-width="1" opacity="0.75" />
			</g>
		</g>
		<g>
			<title> (ctg244_26)</title>
			<polygon class=" (ctg244_26)" points="394,10 410,40 394,70" fill="rgb(255,255,255)" fill-opacity="1.0" stroke="rgb(0,0,0)" stroke-width="2"  />
		</g>
		<g>
			<title> (ctg244_27)</title>
			<polygon class=" (ctg244_27)" points="416,40 421,10 421,70" fill="rgb(255,255,255)" fill-opacity="1.0" stroke="rgb(0,0,0)" stroke-width="2"  />
		</g>
		<g>
			<title> (ctg244_28)</title>
			<polygon class=" (ctg244_28)" points="424,25 427,25 427,10 457,40 427,70 427,55 424,55" fill="rgb(255,255,255)" fill-opacity="1.0" stroke="rgb(0,0,0)" stroke-width="2"  />
			<g>
				<title>ALAD (PF00490)
"Delta-aminolevulinic acid dehydratase"</title>
				<polygon class="PF00490" points="424,28 440,28 452,40 440,52 424,52" stroke-linejoin="round" width="32" height="24" fill="rgb(119,78,220)" stroke="rgb(95,62,176)" stroke-width="1" opacity="0.75" />
			</g>
		</g>
		<g>
			<title> (ctg244_29)</title>
			<polygon class=" (ctg244_29)" points="466,25 472,25 472,10 502,40 472,70 472,55 466,55" fill="rgb(255,255,255)" fill-opacity="1.0" stroke="rgb(0,0,0)" stroke-width="2"  />
			<g>
				<title>tRNA-synt_1b (PF00579)
"tRNA synthetases class I (W and Y)"</title>
				<polygon class="PF00579" points="466,28 486,28 494,36 494,44 486,52 466,52" stroke-linejoin="round" width="28" height="24" fill="rgb(82,63,204)" stroke="rgb(65,50,163)" stroke-width="1" opacity="0.75" />
			</g>
		</g>
		<g>
			<title> (ctg244_30)</title>
			<polygon class=" (ctg244_30)" points="542,25 539,25 539,10 509,40 539,70 539,55 542,55" fill="rgb(255,255,255)" fill-opacity="1.0" stroke="rgb(0,0,0)" stroke-width="2"  />
			<g>
				<title>ADP_ribosyl_GH (PF03747)
"ADP-ribosylglycohydrolase"</title>
				<polygon class="PF03747" points="513,40 525,28 538,28 538,52 525,52" stroke-linejoin="round" width="26" height="24" fill="rgb(215,124,105)" stroke="rgb(172,99,84)" stroke-width="1" opacity="0.75" />
			</g>
		</g>
		<g>
			<title> (ctg244_31)</title>
			<polygon class=" (ctg244_31)" points="643,25 575,25 575,10 545,40 575,70 575,55 643,55" fill="rgb(255,255,255)" fill-opacity="1.0" stroke="rgb(0,0,0)" stroke-width="2"  />
			<g>
				<title>TonB_dep_Rec (PF00593)
"TonB dependent receptor"</title>
				<polygon class="PF00593" points="549,40 561,28 577,28 577,52 561,52" stroke-linejoin="round" width="32" height="24" fill="rgb(171,200,51)" stroke="rgb(136,160,40)" stroke-width="1" opacity="0.75" />
			</g>
			<g>
				<title>TonB_dep_Rec (PF00593)
"TonB dependent receptor"</title>
				<rect class="PF00593" x="590" y="28" stroke-linejoin="round" width="23" height="24" fill="rgb(171,200,51)" stroke="rgb(136,160,40)" stroke-width="1" opacity="0.75" />
			</g>
			<g>
				<title>Plug (PF07715)
"TonB-dependent Receptor Plug Domain"</title>
				<rect class="PF07715" x="620" y="28" stroke-linejoin="round" width="11" height="24" fill="rgb(99,133,214)" stroke="rgb(79,106,171)" stroke-width="1" opacity="0.75" />
			</g>
			<g>
				<title>CarboxypepD_reg (PF13620)
"Carboxypeptidase regulatory-like domain"</title>
				<rect class="PF13620" x="633" y="28" stroke-linejoin="round" width="8" height="24" fill="rgb(201,63,96)" stroke="rgb(160,50,76)" stroke-width="1" opacity="0.75" />
			</g>
		</g>
		<g>
			<title> (ctg244_32)</title>
			<polygon class=" (ctg244_32)" points="647,40 651,10 651,70" fill="rgb(255,255,255)" fill-opacity="1.0" stroke="rgb(0,0,0)" stroke-width="2"  />
		</g>
		<g>
			<title> (ctg244_33)</title>
			<polygon class=" (ctg244_33)" points="662,10 671,40 662,70" fill="rgb(255,255,255)" fill-opacity="1.0" stroke="rgb(0,0,0)" stroke-width="2"  />
		</g>
		<g>
			<title> (ctg244_34)</title>
			<polygon class=" (ctg244_34)" points="676,25 785,25 785,10 815,40 785,70 785,55 676,55" fill="rgb(255,255,255)" fill-opacity="1.0" stroke="rgb(0,0,0)" stroke-width="2"  />
			<g>
				<title>ketoacyl-synt (PF00109)
"Beta-ketoacyl synthase, N-terminal domain"</title>
				<rect class="PF00109" x="678" y="28" stroke-linejoin="round" width="25" height="24" fill="rgb(112,116,228)" stroke="rgb(89,92,182)" stroke-width="1" opacity="0.75" />
			</g>
			<g>
				<title>Ketoacyl-synt_C (PF02801)
"Beta-ketoacyl synthase, C-terminal domain"</title>
				<rect class="PF02801" x="704" y="28" stroke-linejoin="round" width="11" height="24" fill="rgb(215,78,102)" stroke="rgb(172,62,81)" stroke-width="1" opacity="0.75" />
			</g>
			<g>
				<title>KAsynt_C_assoc (PF16197)
"Ketoacyl-synthetase C-terminal extension"</title>
				<rect class="PF16197" x="716" y="28" stroke-linejoin="round" width="15" height="24" fill="rgb(240,150,172)" stroke="rgb(192,120,137)" stroke-width="1" opacity="0.75" />
			</g>
			<g>
				<title>Acyl_transf_1 (PF00698)
"Acyl transferase domain"</title>
				<rect class="PF00698" x="734" y="28" stroke-linejoin="round" width="32" height="24" fill="rgb(59,176,209)" stroke="rgb(47,140,167)" stroke-width="1" opacity="0.75" />
			</g>
			<g>
				<title>PS-DH (PF14765)
"Polyketide synthase dehydratase"</title>
				<polygon class="PF14765" points="771,28 799,28 800,29 800,51 799,52 771,52" stroke-linejoin="round" width="29" height="24" fill="rgb(173,56,182)" stroke="rgb(138,44,145)" stroke-width="1" opacity="0.75" />
			</g>
		</g>
		<g>
			<title> (ctg244_35)</title>
			<polygon class=" (ctg244_35)" points="815,25 988,25 988,10 1018,40 988,70 988,55 815,55" fill="rgb(255,255,255)" fill-opacity="1.0" stroke="rgb(0,0,0)" stroke-width="2"  />
			<g>
				<title>Methyltransf_12 (PF08242)
"Methyltransferase domain"</title>
				<rect class="PF08242" x="823" y="28" stroke-linejoin="round" width="10" height="24" fill="rgb(187,59,115)" stroke="rgb(149,47,92)" stroke-width="1" opacity="0.75" />
			</g>
			<g>
				<title>ADH_zinc_N_2 (PF13602)
"Zinc-binding dehydrogenase"</title>
				<rect class="PF13602" x="881" y="28" stroke-linejoin="round" width="13" height="24" fill="rgb(101,131,226)" stroke="rgb(80,104,180)" stroke-width="1" opacity="0.75" />
			</g>
			<g>
				<title>KR (PF08659)
"KR domain"</title>
				<rect class="PF08659" x="896" y="28" stroke-linejoin="round" width="17" height="24" fill="rgb(66,209,188)" stroke="rgb(52,167,150)" stroke-width="1" opacity="0.75" />
			</g>
			<g>
				<title>PP-binding (PF00550)
"Phosphopantetheine attachment site"</title>
				<rect class="PF00550" x="924" y="28" stroke-linejoin="round" width="6" height="24" fill="rgb(103,191,88)" stroke="rgb(82,152,70)" stroke-width="1" opacity="0.75" />
			</g>
			<g>
				<title>ketoacyl-synt (PF00109)
"Beta-ketoacyl synthase, N-terminal domain"</title>
				<rect class="PF00109" x="934" y="28" stroke-linejoin="round" width="24" height="24" fill="rgb(112,116,228)" stroke="rgb(89,92,182)" stroke-width="1" opacity="0.75" />
			</g>
			<g>
				<title>Ketoacyl-synt_C (PF02801)
"Beta-ketoacyl synthase, C-terminal domain"</title>
				<rect class="PF02801" x="959" y="28" stroke-linejoin="round" width="11" height="24" fill="rgb(215,78,102)" stroke="rgb(172,62,81)" stroke-width="1" opacity="0.75" />
			</g>
			<g>
				<title>KAsynt_C_assoc (PF16197)
"Ketoacyl-synthetase C-terminal extension"</title>
				<rect class="PF16197" x="971" y="28" stroke-linejoin="round" width="14" height="24" fill="rgb(240,150,172)" stroke="rgb(192,120,137)" stroke-width="1" opacity="0.75" />
			</g>
			<g>
				<title>Acyl_transf_1 (PF00698)
"Acyl transferase domain"</title>
				<rect class="PF00698" x="989" y="28" stroke-linejoin="round" width="12" height="24" fill="rgb(59,176,209)" stroke="rgb(47,140,167)" stroke-width="1" opacity="0.75" />
			</g>
		</g>
		<g>
			<title> (ctg244_36)</title>
			<polygon class=" (ctg244_36)" points="1021,10 1028,40 1021,70" fill="rgb(255,255,255)" fill-opacity="1.0" stroke="rgb(0,0,0)" stroke-width="2"  />
			<g>
				<title>PP-binding (PF00550)
"Phosphopantetheine attachment site"</title>
				<polygon class="PF00550" points="1021,28 1022,28 1025,40 1022,52 1021,52" stroke-linejoin="round" width="5" height="24" fill="rgb(103,191,88)" stroke="rgb(82,152,70)" stroke-width="1" opacity="0.75" />
			</g>
		</g>
		<g>
			<title> (ctg244_37)</title>
			<polygon class=" (ctg244_37)" points="1034,25 1034,25 1034,10 1064,40 1034,70 1034,55 1034,55" fill="rgb(255,255,255)" fill-opacity="1.0" stroke="rgb(0,0,0)" stroke-width="2"  />
			<g>
				<title>Abhydrolase_6 (PF12697)
"Alpha/beta hydrolase family"</title>
				<polygon class="PF12697" points="1038,28 1048,28 1060,40 1048,52 1038,52" stroke-linejoin="round" width="25" height="24" fill="rgb(113,71,219)" stroke="rgb(90,56,175)" stroke-width="1" opacity="0.75" />
			</g>
		</g>
		<g>
			<title> (ctg244_38)</title>
			<polygon class=" (ctg244_38)" points="1064,10 1084,40 1064,70" fill="rgb(255,255,255)" fill-opacity="1.0" stroke="rgb(0,0,0)" stroke-width="2"  />
			<g>
				<title>Rhodanese (PF00581)
"Rhodanese-like domain"</title>
				<polygon class="PF00581" points="1070,28 1072,28 1079,38 1079,42 1072,52 1070,52" stroke-linejoin="round" width="9" height="24" fill="rgb(145,191,76)" stroke="rgb(116,152,60)" stroke-width="1" opacity="0.75" />
			</g>
		</g>
		<g>
			<title> (ctg244_39)</title>
			<polygon class=" (ctg244_39)" points="1085,10 1107,40 1085,70" fill="rgb(255,255,255)" fill-opacity="1.0" stroke="rgb(0,0,0)" stroke-width="2"  />
			<g>
				<title>SurE (PF01975)
"Survival protein SurE"</title>
				<polygon class="PF01975" points="1085,28 1095,28 1103,39 1103,41 1095,52 1085,52" stroke-linejoin="round" width="18" height="24" fill="rgb(55,201,204)" stroke="rgb(44,160,163)" stroke-width="1" opacity="0.75" />
			</g>
		</g>
		<g>
			<title> (ctg244_40)</title>
			<polygon class=" (ctg244_40)" points="1108,10 1114,40 1108,70" fill="rgb(255,255,255)" fill-opacity="1.0" stroke="rgb(0,0,0)" stroke-width="2"  />
		</g>
		<g>
			<title> (ctg244_41)</title>
			<polygon class=" (ctg244_41)" points="1115,10 1143,40 1115,70" fill="rgb(255,255,255)" fill-opacity="1.0" stroke="rgb(0,0,0)" stroke-width="2"  />
			<g>
				<title>HpcH_HpaI (PF03328)
"HpcH/HpaI aldolase/citrate lyase family"</title>
				<polygon class="PF03328" points="1119,28 1127,28 1139,40 1127,52 1119,52" stroke-linejoin="round" width="22" height="24" fill="rgb(81,183,94)" stroke="rgb(64,146,75)" stroke-width="1" opacity="0.75" />
			</g>
		</g>
		<g>
			<title> (ctg244_42)</title>
			<polygon class=" (ctg244_42)" points="1202,25 1174,25 1174,10 1144,40 1174,70 1174,55 1202,55" fill="rgb(255,255,255)" fill-opacity="1.0" stroke="rgb(0,0,0)" stroke-width="2"  />
			<g>
				<title>Xan_ur_permease (PF00860)
"Permease family"</title>
				<rect class="PF00860" x="1161" y="28" stroke-linejoin="round" width="38" height="24" fill="rgb(216,88,217)" stroke="rgb(172,70,173)" stroke-width="1" opacity="0.75" />
			</g>
		</g>
		<g>
			<title> (ctg244_43)</title>
			<polygon class=" (ctg244_43)" points="1213,40 1222,10 1222,70" fill="rgb(255,255,255)" fill-opacity="1.0" stroke="rgb(0,0,0)" stroke-width="2"  />
		</g>
		<g>
			<title> (ctg244_44)</title>
			<polygon class=" (ctg244_44)" points="1224,40 1235,10 1235,70" fill="rgb(255,255,255)" fill-opacity="1.0" stroke="rgb(0,0,0)" stroke-width="2"  />
			<g>
				<title>STAS (PF01740)
"STAS domain"</title>
				<polygon class="PF01740" points="1227,40 1232,28 1234,28 1234,52 1232,52" stroke-linejoin="round" width="10" height="24" fill="rgb(219,58,116)" stroke="rgb(175,46,92)" stroke-width="1" opacity="0.75" />
			</g>
		</g>
		<g>
			<title> (ctg244_45)</title>
			<polygon class=" (ctg244_45)" points="1250,40 1275,10 1275,70" fill="rgb(255,255,255)" fill-opacity="1.0" stroke="rgb(0,0,0)" stroke-width="2"  />
			<g>
				<title>DUF1828 (PF08861)
"Domain of unknown function DUF1828"</title>
				<polygon class="PF08861" points="1263,30 1264,28 1272,28 1272,52 1264,52 1263,50" stroke-linejoin="round" width="9" height="24" fill="rgb(218,102,174)" stroke="rgb(174,81,139)" stroke-width="1" opacity="0.75" />
			</g>
		</g>
		<g>
			<title> (ctg244_46)</title>
			<polygon class=" (ctg244_46)" points="1280,40 1300,10 1300,70" fill="rgb(255,255,255)" fill-opacity="1.0" stroke="rgb(0,0,0)" stroke-width="2"  />
			<g>
				<title>DUF4276 (PF14103)
"Domain of unknown function (DUF4276)"</title>
				<polygon class="PF14103" points="1284,40 1292,28 1299,28 1299,52 1292,52" stroke-linejoin="round" width="19" height="24" fill="rgb(162,226,93)" stroke="rgb(129,180,74)" stroke-width="1" opacity="0.75" />
			</g>
		</g>
		<g>
			<title> (ctg244_47)</title>
			<polygon class=" (ctg244_47)" points="1343,25 1331,25 1331,10 1301,40 1331,70 1331,55 1343,55" fill="rgb(255,255,255)" fill-opacity="1.0" stroke="rgb(0,0,0)" stroke-width="2"  />
			<g>
				<title>AAA_21 (PF13304)
"AAA domain, putative AbiEii toxin, Type IV TA system"</title>
				<polygon class="PF13304" points="1308,37 1317,28 1339,28 1339,52 1317,52 1308,43" stroke-linejoin="round" width="31" height="24" fill="rgb(215,121,101)" stroke="rgb(172,96,80)" stroke-width="1" opacity="0.75" />
			</g>
		</g>
		<g>
			<title> (ctg244_48)</title>
			<polygon class=" (ctg244_48)" points="1360,10 1371,40 1360,70" fill="rgb(255,255,255)" fill-opacity="1.0" stroke="rgb(0,0,0)" stroke-width="2"  />
		</g>
		<g>
			<title> (ctg244_49)</title>
			<polygon class=" (ctg244_49)" points="1372,40 1381,10 1381,70" fill="rgb(255,255,255)" fill-opacity="1.0" stroke="rgb(0,0,0)" stroke-width="2"  />
			<g>
				<title>DUF45 (PF01863)
"Protein of unknown function DUF45"</title>
				<polygon class="PF01863" points="1375,40 1379,28 1381,28 1381,52 1379,52" stroke-linejoin="round" width="8" height="24" fill="rgb(89,185,141)" stroke="rgb(71,148,112)" stroke-width="1" opacity="0.75" />
			</g>
		</g>
		<g>
			<title> (ctg244_50)</title>
			<polygon class=" (ctg244_50)" points="1469,25 1426,25 1426,10 1396,40 1426,70 1426,55 1469,55" fill="rgb(255,255,255)" fill-opacity="1.0" stroke="rgb(0,0,0)" stroke-width="2"  />
			<g>
				<title>SWI2_SNF2 (PF18766)
"SWI2/SNF2 ATPase"</title>
				<rect class="PF18766" x="1451" y="28" stroke-linejoin="round" width="17" height="24" fill="rgb(70,199,93)" stroke="rgb(56,159,74)" stroke-width="1" opacity="0.75" />
			</g>
		</g>
		<g>
			<title> (ctg244_51)</title>
			<polygon class=" (ctg244_51)" points="1501,25 1500,25 1500,10 1470,40 1500,70 1500,55 1501,55" fill="rgb(255,255,255)" fill-opacity="1.0" stroke="rgb(0,0,0)" stroke-width="2"  />
			<g>
				<title>HSDR_N (PF04313)
"Type I restriction enzyme R protein N terminus (HSDR_N)"</title>
				<polygon class="PF04313" points="1481,33 1486,28 1500,28 1500,52 1486,52 1481,47" stroke-linejoin="round" width="19" height="24" fill="rgb(67,217,209)" stroke="rgb(53,173,167)" stroke-width="1" opacity="0.75" />
			</g>
		</g>
		<g>
			<title> (ctg244_52)</title>
			<polygon class=" (ctg244_52)" points="1537,40 1559,10 1559,70" fill="rgb(255,255,255)" fill-opacity="1.0" stroke="rgb(0,0,0)" stroke-width="2"  />
		</g>
		<g>
			<title> (ctg244_53)</title>
			<polygon class=" (ctg244_53)" points="1657,25 1590,25 1590,10 1560,40 1590,70 1590,55 1657,55" fill="rgb(255,255,255)" fill-opacity="1.0" stroke="rgb(0,0,0)" stroke-width="2"  />
			<g>
				<title>N6_Mtase (PF02384)
"N-6 DNA Methylase"</title>
				<rect class="PF02384" x="1599" y="28" stroke-linejoin="round" width="30" height="24" fill="rgb(46,179,90)" stroke="rgb(36,143,72)" stroke-width="1" opacity="0.75" />
			</g>
		</g>
	</g>
</svg>
