<svg version="1.1" baseProfile="full" xmlns="http://www.w3.org/2000/svg" width="312.6333333333333" height="80">
	<g>
		<line x1="10" y1="40.0" x2="302.6333333333333" y2="40.0" style="stroke:rgb(70,70,70); stroke-width:3 "/>
		<g>
			<title> (ctg5843_1)</title>
			<polygon class=" (ctg5843_1)" points="10,25 12,25 12,10 42,40 12,70 12,55 10,55" fill="rgb(255,255,255)" fill-opacity="1.0" stroke="rgb(0,0,0)" stroke-width="2"  />
			<g>
				<title>DAO (PF01266)
"FAD dependent oxidoreductase"</title>
				<polygon class="PF01266" points="10,28 26,28 38,40 38,40 26,52 10,52" stroke-linejoin="round" width="28" height="24" fill="rgb(123,179,59)" stroke="rgb(98,143,47)" stroke-width="1" opacity="0.75" />
			</g>
		</g>
		<g>
			<title> (ctg5843_2)</title>
			<polygon class=" (ctg5843_2)" points="42,25 76,25 76,10 106,40 76,70 76,55 42,55" fill="rgb(255,255,255)" fill-opacity="1.0" stroke="rgb(0,0,0)" stroke-width="2"  />
		</g>
		<g>
			<title> (ctg5843_3)</title>
			<polygon class=" (ctg5843_3)" points="106,10 127,40 106,70" fill="rgb(255,255,255)" fill-opacity="1.0" stroke="rgb(0,0,0)" stroke-width="2"  />
			<g>
				<title>AHSA1 (PF08327)
"Activator of Hsp90 ATPase homolog 1-like protein"</title>
				<polygon class="PF08327" points="109,28 115,28 120,35 120,45 115,52 109,52" stroke-linejoin="round" width="11" height="24" fill="rgb(81,199,171)" stroke="rgb(64,159,136)" stroke-width="1" opacity="0.75" />
			</g>
		</g>
		<g>
			<title> (ctg5843_4)</title>
			<polygon class=" (ctg5843_4)" points="128,40 131,10 131,70" fill="rgb(255,255,255)" fill-opacity="1.0" stroke="rgb(0,0,0)" stroke-width="2"  />
		</g>
		<g>
			<title> (ctg5843_5)</title>
			<polygon class=" (ctg5843_5)" points="167,25 165,25 165,10 135,40 165,70 165,55 167,55" fill="rgb(255,255,255)" fill-opacity="1.0" stroke="rgb(0,0,0)" stroke-width="2"  />
		</g>
		<g>
			<title> (ctg5843_6)</title>
			<polygon class=" (ctg5843_6)" points="211,25 198,25 198,10 168,40 198,70 198,55 211,55" fill="rgb(255,255,255)" fill-opacity="1.0" stroke="rgb(0,0,0)" stroke-width="2"  />
			<g>
				<title>Aminotran_1_2 (PF00155)
"Aminotransferase class I and II"</title>
				<polygon class="PF00155" points="172,40 184,28 208,28 208,52 184,52" stroke-linejoin="round" width="38" height="24" fill="rgb(89,113,198)" stroke="rgb(71,90,158)" stroke-width="1" opacity="0.75" />
			</g>
		</g>
		<g>
			<title> (ctg5843_7)</title>
			<polygon class=" (ctg5843_7)" points="215,10 225,40 215,70" fill="rgb(255,255,255)" fill-opacity="1.0" stroke="rgb(0,0,0)" stroke-width="2"  />
		</g>
		<g>
			<title> (ctg5843_8)</title>
			<polygon class=" (ctg5843_8)" points="226,10 239,40 226,70" fill="rgb(255,255,255)" fill-opacity="1.0" stroke="rgb(0,0,0)" stroke-width="2"  />
			<g>
				<title>PIN (PF01850)
"PIN domain"</title>
				<polygon class="PF01850" points="226,28 230,28 235,40 230,52 226,52" stroke-linejoin="round" width="11" height="24" fill="rgb(91,217,126)" stroke="rgb(72,173,100)" stroke-width="1" opacity="0.75" />
			</g>
		</g>
		<g>
			<title> (ctg5843_9)</title>
			<polygon class=" (ctg5843_9)" points="240,10 244,40 240,70" fill="rgb(255,255,255)" fill-opacity="1.0" stroke="rgb(0,0,0)" stroke-width="2"  />
		</g>
		<g>
			<title> (ctg5843_10)</title>
			<polygon class=" (ctg5843_10)" points="246,25 248,25 248,10 278,40 248,70 248,55 246,55" fill="rgb(255,255,255)" fill-opacity="1.0" stroke="rgb(0,0,0)" stroke-width="2"  />
			<g>
				<title>SQS_PSY (PF00494)
"Squalene/phytoene synthase"</title>
				<polygon class="PF00494" points="246,28 262,28 274,40 274,40 262,52 246,52" stroke-linejoin="round" width="28" height="24" fill="rgb(178,91,49)" stroke="rgb(142,72,39)" stroke-width="1" opacity="0.75" />
			</g>
		</g>
		<g>
			<title> (ctg5843_11)</title>
			<polygon class=" (ctg5843_11)" points="279,40 302,10 302,70" fill="rgb(255,255,255)" fill-opacity="1.0" stroke="rgb(0,0,0)" stroke-width="2"  />
			<g>
				<title>ACR_tran (PF00873)
"AcrB/AcrD/AcrF family"</title>
				<polygon class="PF00873" points="283,40 292,28 301,28 301,52 292,52" stroke-linejoin="round" width="21" height="24" fill="rgb(63,191,60)" stroke="rgb(50,152,48)" stroke-width="1" opacity="0.75" />
			</g>
		</g>
	</g>
</svg>
