<svg version="1.1" baseProfile="full" xmlns="http://www.w3.org/2000/svg" width="612.0333333333333" height="80">
	<g>
		<line x1="10" y1="40.0" x2="602.0333333333333" y2="40.0" style="stroke:rgb(70,70,70); stroke-width:3 "/>
		<g>
			<title> (ctg2461_2)</title>
			<polygon class=" (ctg2461_2)" points="35,10 43,40 35,70" fill="rgb(255,255,255)" fill-opacity="1.0" stroke="rgb(0,0,0)" stroke-width="2"  />
			<g>
				<title>PhdYeFM_antitox (PF02604)
"Antitoxin Phd_YefM, type II toxin-antitoxin system"</title>
				<polygon class="PF02604" points="35,28 36,28 39,37 39,43 36,52 35,52" stroke-linejoin="round" width="4" height="24" fill="rgb(204,60,69)" stroke="rgb(163,48,55)" stroke-width="1" opacity="0.75" />
			</g>
		</g>
		<g>
			<title> (ctg2461_3)</title>
			<polygon class=" (ctg2461_3)" points="44,10 57,40 44,70" fill="rgb(255,255,255)" fill-opacity="1.0" stroke="rgb(0,0,0)" stroke-width="2"  />
			<g>
				<title>PIN (PF01850)
"PIN domain"</title>
				<polygon class="PF01850" points="44,28 48,28 53,40 48,52 44,52" stroke-linejoin="round" width="11" height="24" fill="rgb(91,217,126)" stroke="rgb(72,173,100)" stroke-width="1" opacity="0.75" />
			</g>
		</g>
		<g>
			<title> (ctg2461_4)</title>
			<polygon class=" (ctg2461_4)" points="80,25 89,25 89,10 119,40 89,70 89,55 80,55" fill="rgb(255,255,255)" fill-opacity="1.0" stroke="rgb(0,0,0)" stroke-width="2"  />
			<g>
				<title>AAA_14 (PF13173)
"AAA domain"</title>
				<rect class="PF13173" x="81" y="28" stroke-linejoin="round" width="11" height="24" fill="rgb(77,222,177)" stroke="rgb(61,177,141)" stroke-width="1" opacity="0.75" />
			</g>
			<g>
				<title>DUF4143 (PF13635)
"Domain of unknown function (DUF4143)"</title>
				<polygon class="PF13635" points="97,28 103,28 112,37 112,43 103,52 97,52" stroke-linejoin="round" width="15" height="24" fill="rgb(119,89,210)" stroke="rgb(95,71,168)" stroke-width="1" opacity="0.75" />
			</g>
		</g>
		<g>
			<title> (ctg2461_5)</title>
			<polygon class=" (ctg2461_5)" points="124,25 130,25 130,10 160,40 130,70 130,55 124,55" fill="rgb(255,255,255)" fill-opacity="1.0" stroke="rgb(0,0,0)" stroke-width="2"  />
			<g>
				<title>AAA (PF00004)
"ATPase family associated with various cellular activities (AAA)"</title>
				<rect class="PF00004" x="127" y="28" stroke-linejoin="round" width="15" height="24" fill="rgb(57,194,204)" stroke="rgb(45,155,163)" stroke-width="1" opacity="0.75" />
			</g>
		</g>
		<g>
			<title> (ctg2461_6)</title>
			<polygon class=" (ctg2461_6)" points="235,25 194,25 194,10 164,40 194,70 194,55 235,55" fill="rgb(255,255,255)" fill-opacity="1.0" stroke="rgb(0,0,0)" stroke-width="2"  />
			<g>
				<title>HlyD_3 (PF13437)
"HlyD family secretion protein"</title>
				<polygon class="PF13437" points="169,39 179,29 179,51 169,41" stroke-linejoin="round" width="10" height="24" fill="rgb(82,200,102)" stroke="rgb(65,160,81)" stroke-width="1" opacity="0.75" />
			</g>
		</g>
		<g>
			<title> (ctg2461_7)</title>
			<polygon class=" (ctg2461_7)" points="310,25 266,25 266,10 236,40 266,70 266,55 310,55" fill="rgb(255,255,255)" fill-opacity="1.0" stroke="rgb(0,0,0)" stroke-width="2"  />
			<g>
				<title>ABC_tran (PF00005)
"ABC transporter"</title>
				<polygon class="PF00005" points="244,36 252,28 258,28 258,52 252,52 244,44" stroke-linejoin="round" width="14" height="24" fill="rgb(129,201,63)" stroke="rgb(103,160,50)" stroke-width="1" opacity="0.75" />
			</g>
			<g>
				<title>ABC_membrane (PF00664)
"ABC transporter transmembrane region"</title>
				<rect class="PF00664" x="265" y="28" stroke-linejoin="round" width="26" height="24" fill="rgb(149,226,73)" stroke="rgb(119,180,58)" stroke-width="1" opacity="0.75" />
			</g>
			<g>
				<title>Peptidase_C39 (PF03412)
"Peptidase C39 family"</title>
				<rect class="PF03412" x="294" y="28" stroke-linejoin="round" width="13" height="24" fill="rgb(214,226,77)" stroke="rgb(171,180,61)" stroke-width="1" opacity="0.75" />
			</g>
		</g>
		<g>
			<title> (ctg2461_8)</title>
			<polygon class=" (ctg2461_8)" points="342,25 341,25 341,10 311,40 341,70 341,55 342,55" fill="rgb(255,255,255)" fill-opacity="1.0" stroke="rgb(0,0,0)" stroke-width="2"  />
			<g>
				<title>HlyD_D23 (PF16576)
"Barrel-sandwich domain of CusB or HlyD membrane-fusion"</title>
				<polygon class="PF16576" points="315,40 327,28 336,28 336,52 327,52 315,40" stroke-linejoin="round" width="21" height="24" fill="rgb(70,190,92)" stroke="rgb(56,152,73)" stroke-width="1" opacity="0.75" />
			</g>
		</g>
		<g>
			<title> (ctg2461_9)</title>
			<polygon class=" (ctg2461_9)" points="451,25 373,25 373,10 343,40 373,70 373,55 451,55" fill="rgb(255,255,255)" fill-opacity="1.0" stroke="rgb(0,0,0)" stroke-width="2"  />
			<g>
				<title>Lant_dehydr_C (PF14028)
"Lantibiotic biosynthesis dehydratase C-term"</title>
				<polygon class="PF14028" points="347,40 359,28 370,28 370,52 359,52" stroke-linejoin="round" width="27" height="24" fill="rgb(107,223,113)" stroke="rgb(85,178,90)" stroke-width="1" opacity="0.75" />
			</g>
			<g>
				<title>Lant_dehydr_N (PF04738)
"Lantibiotic dehydratase, N terminus"</title>
				<rect class="PF04738" x="378" y="28" stroke-linejoin="round" width="66" height="24" fill="rgb(219,60,229)" stroke="rgb(175,47,183)" stroke-width="1" opacity="0.75" />
			</g>
		</g>
		<g>
			<title> (ctg2461_10)</title>
			<polygon class=" (ctg2461_10)" points="487,25 483,25 483,10 453,40 483,70 483,55 487,55" fill="rgb(255,255,255)" fill-opacity="1.0" stroke="rgb(0,0,0)" stroke-width="2"  />
			<g>
				<title>LANC_like (PF05147)
"Lanthionine synthetase C-like protein"</title>
				<polygon class="PF05147" points="457,40 469,28 487,28 487,52 469,52" stroke-linejoin="round" width="34" height="24" fill="rgb(129,182,79)" stroke="rgb(103,145,63)" stroke-width="1" opacity="0.75" />
			</g>
		</g>
		<g>
			<title> (ctg2461_11)</title>
			<polygon class=" (ctg2461_11)" points="500,40 506,10 506,70" fill="rgb(255,255,255)" fill-opacity="1.0" stroke="rgb(0,0,0)" stroke-width="2"  />
		</g>
		<g>
			<title> (ctg2461_12)</title>
			<polygon class=" (ctg2461_12)" points="601,25 548,25 548,10 518,40 548,70 548,55 601,55" fill="rgb(255,255,255)" fill-opacity="1.0" stroke="rgb(0,0,0)" stroke-width="2"  />
		</g>
	</g>
</svg>
