<svg version="1.1" baseProfile="full" xmlns="http://www.w3.org/2000/svg" width="1499.9333333333334" height="80">
	<g>
		<line x1="10" y1="40.0" x2="1489.9333333333334" y2="40.0" style="stroke:rgb(70,70,70); stroke-width:3 "/>
		<g>
			<title> (ctg29_2)</title>
			<polygon class=" (ctg29_2)" points="29,40 54,10 54,70" fill="rgb(255,255,255)" fill-opacity="1.0" stroke="rgb(0,0,0)" stroke-width="2"  />
			<g>
				<title>Carb_anhydrase (PF00194)
"Eukaryotic-type carbonic anhydrase"</title>
				<polygon class="PF00194" points="33,40 43,28 52,28 52,52 43,52" stroke-linejoin="round" width="23" height="24" fill="rgb(47,185,72)" stroke="rgb(37,148,57)" stroke-width="1" opacity="0.75" />
			</g>
		</g>
		<g>
			<title> (ctg29_3)</title>
			<polygon class=" (ctg29_3)" points="66,40 79,10 79,70" fill="rgb(255,255,255)" fill-opacity="1.0" stroke="rgb(0,0,0)" stroke-width="2"  />
			<g>
				<title>PDDEXK_3 (PF13366)
"PD-(D/E)XK nuclease superfamily"</title>
				<polygon class="PF13366" points="69,40 74,28 77,28 77,52 74,52" stroke-linejoin="round" width="11" height="24" fill="rgb(207,84,155)" stroke="rgb(165,67,124)" stroke-width="1" opacity="0.75" />
			</g>
		</g>
		<g>
			<title> (ctg29_4)</title>
			<polygon class=" (ctg29_4)" points="153,25 115,25 115,10 85,40 115,70 115,55 153,55" fill="rgb(255,255,255)" fill-opacity="1.0" stroke="rgb(0,0,0)" stroke-width="2"  />
			<g>
				<title>TPR_11 (PF13414)
"TPR repeat"</title>
				<polygon class="PF13414" points="94,35 97,32 97,48 94,45" stroke-linejoin="round" width="3" height="24" fill="rgb(55,76,182)" stroke="rgb(44,60,145)" stroke-width="1" opacity="0.75" />
			</g>
			<g>
				<title>TPR_1 (PF00515)
"Tetratricopeptide repeat"</title>
				<polygon class="PF00515" points="99,30 101,28 102,28 102,52 101,52 99,50" stroke-linejoin="round" width="3" height="24" fill="rgb(193,73,189)" stroke="rgb(154,58,151)" stroke-width="1" opacity="0.75" />
			</g>
			<g>
				<title>TPR_1 (PF00515)
"Tetratricopeptide repeat"</title>
				<rect class="PF00515" x="102" y="28" stroke-linejoin="round" width="3" height="24" fill="rgb(193,73,189)" stroke="rgb(154,58,151)" stroke-width="1" opacity="0.75" />
			</g>
			<g>
				<title>TPR_11 (PF13414)
"TPR repeat"</title>
				<rect class="PF13414" x="108" y="28" stroke-linejoin="round" width="4" height="24" fill="rgb(55,76,182)" stroke="rgb(44,60,145)" stroke-width="1" opacity="0.75" />
			</g>
			<g>
				<title>TPR_1 (PF00515)
"Tetratricopeptide repeat"</title>
				<rect class="PF00515" x="112" y="28" stroke-linejoin="round" width="3" height="24" fill="rgb(193,73,189)" stroke="rgb(154,58,151)" stroke-width="1" opacity="0.75" />
			</g>
			<g>
				<title>TPR_1 (PF00515)
"Tetratricopeptide repeat"</title>
				<rect class="PF00515" x="116" y="28" stroke-linejoin="round" width="3" height="24" fill="rgb(193,73,189)" stroke="rgb(154,58,151)" stroke-width="1" opacity="0.75" />
			</g>
			<g>
				<title>TPR_1 (PF00515)
"Tetratricopeptide repeat"</title>
				<rect class="PF00515" x="119" y="28" stroke-linejoin="round" width="3" height="24" fill="rgb(193,73,189)" stroke="rgb(154,58,151)" stroke-width="1" opacity="0.75" />
			</g>
			<g>
				<title>TPR_1 (PF00515)
"Tetratricopeptide repeat"</title>
				<rect class="PF00515" x="123" y="28" stroke-linejoin="round" width="3" height="24" fill="rgb(193,73,189)" stroke="rgb(154,58,151)" stroke-width="1" opacity="0.75" />
			</g>
			<g>
				<title>TPR_1 (PF00515)
"Tetratricopeptide repeat"</title>
				<rect class="PF00515" x="130" y="28" stroke-linejoin="round" width="3" height="24" fill="rgb(193,73,189)" stroke="rgb(154,58,151)" stroke-width="1" opacity="0.75" />
			</g>
			<g>
				<title>TIR_2 (PF13676)
"TIR domain"</title>
				<rect class="PF13676" x="140" y="28" stroke-linejoin="round" width="12" height="24" fill="rgb(87,220,58)" stroke="rgb(69,176,46)" stroke-width="1" opacity="0.75" />
			</g>
		</g>
		<g>
			<title> (ctg29_5)</title>
			<polygon class=" (ctg29_5)" points="192,25 189,25 189,10 159,40 189,70 189,55 192,55" fill="rgb(255,255,255)" fill-opacity="1.0" stroke="rgb(0,0,0)" stroke-width="2"  />
			<g>
				<title>TPR_11 (PF13414)
"TPR repeat"</title>
				<polygon class="PF13414" points="164,39 167,36 167,44 164,41" stroke-linejoin="round" width="3" height="24" fill="rgb(55,76,182)" stroke="rgb(44,60,145)" stroke-width="1" opacity="0.75" />
			</g>
			<g>
				<title>FRG (PF08867)
"FRG domain"</title>
				<rect class="PF08867" x="179" y="28" stroke-linejoin="round" width="11" height="24" fill="rgb(207,88,63)" stroke="rgb(165,70,50)" stroke-width="1" opacity="0.75" />
			</g>
		</g>
		<g>
			<title> (ctg29_6)</title>
			<polygon class=" (ctg29_6)" points="319,25 227,25 227,10 197,40 227,70 227,55 319,55" fill="rgb(255,255,255)" fill-opacity="1.0" stroke="rgb(0,0,0)" stroke-width="2"  />
			<g>
				<title>Eco57I (PF07669)
"Eco57I restriction-modification methylase"</title>
				<rect class="PF07669" x="227" y="28" stroke-linejoin="round" width="11" height="24" fill="rgb(107,93,196)" stroke="rgb(85,74,156)" stroke-width="1" opacity="0.75" />
			</g>
		</g>
		<g>
			<title> (ctg29_7)</title>
			<polygon class=" (ctg29_7)" points="390,25 352,25 352,10 322,40 352,70 352,55 390,55" fill="rgb(255,255,255)" fill-opacity="1.0" stroke="rgb(0,0,0)" stroke-width="2"  />
			<g>
				<title>TPR_8 (PF13181)
"Tetratricopeptide repeat"</title>
				<polygon class="PF13181" points="327,39 329,37 329,43 327,41" stroke-linejoin="round" width="2" height="24" fill="rgb(182,172,47)" stroke="rgb(145,137,37)" stroke-width="1" opacity="0.75" />
			</g>
			<g>
				<title>TPR_16 (PF13432)
"Tetratricopeptide repeat"</title>
				<polygon class="PF13432" points="330,36 336,30 336,50 330,44" stroke-linejoin="round" width="6" height="24" fill="rgb(154,205,86)" stroke="rgb(123,164,68)" stroke-width="1" opacity="0.75" />
			</g>
			<g>
				<title>TPR_12 (PF13424)
"Tetratricopeptide repeat"</title>
				<rect class="PF13424" x="340" y="28" stroke-linejoin="round" width="6" height="24" fill="rgb(147,215,101)" stroke="rgb(117,172,80)" stroke-width="1" opacity="0.75" />
			</g>
		</g>
		<g>
			<title> (ctg29_8)</title>
			<polygon class=" (ctg29_8)" points="405,40 416,10 416,70" fill="rgb(255,255,255)" fill-opacity="1.0" stroke="rgb(0,0,0)" stroke-width="2"  />
		</g>
		<g>
			<title> (ctg29_9)</title>
			<polygon class=" (ctg29_9)" points="460,25 448,25 448,10 418,40 448,70 448,55 460,55" fill="rgb(255,255,255)" fill-opacity="1.0" stroke="rgb(0,0,0)" stroke-width="2"  />
			<g>
				<title>AAA_21 (PF13304)
"AAA domain, putative AbiEii toxin, Type IV TA system"</title>
				<polygon class="PF13304" points="423,39 434,28 457,28 457,52 434,52 423,41" stroke-linejoin="round" width="34" height="24" fill="rgb(215,121,101)" stroke="rgb(172,96,80)" stroke-width="1" opacity="0.75" />
			</g>
		</g>
		<g>
			<title> (ctg29_10)</title>
			<polygon class=" (ctg29_10)" points="495,25 492,25 492,10 462,40 492,70 492,55 495,55" fill="rgb(255,255,255)" fill-opacity="1.0" stroke="rgb(0,0,0)" stroke-width="2"  />
			<g>
				<title>AAA_31 (PF13614)
"AAA domain"</title>
				<polygon class="PF13614" points="475,31 478,28 494,28 494,52 478,52 475,49" stroke-linejoin="round" width="19" height="24" fill="rgb(144,187,62)" stroke="rgb(115,149,49)" stroke-width="1" opacity="0.75" />
			</g>
		</g>
		<g>
			<title> (ctg29_11)</title>
			<polygon class=" (ctg29_11)" points="536,25 526,25 526,10 496,40 526,70 526,55 536,55" fill="rgb(255,255,255)" fill-opacity="1.0" stroke="rgb(0,0,0)" stroke-width="2"  />
			<g>
				<title>HATPase_c_4 (PF13749)
"Putative ATP-dependent DNA helicase recG C-terminal"</title>
				<polygon class="PF13749" points="500,40 505,35 505,45" stroke-linejoin="round" width="8" height="24" fill="rgb(216,98,162)" stroke="rgb(172,78,129)" stroke-width="1" opacity="0.75" />
			</g>
			<g>
				<title>AlbA_2 (PF04326)
"Putative DNA-binding domain"</title>
				<rect class="PF04326" x="523" y="28" stroke-linejoin="round" width="11" height="24" fill="rgb(156,198,86)" stroke="rgb(124,158,68)" stroke-width="1" opacity="0.75" />
			</g>
		</g>
		<g>
			<title> (ctg29_12)</title>
			<polygon class=" (ctg29_12)" points="541,40 553,10 553,70" fill="rgb(255,255,255)" fill-opacity="1.0" stroke="rgb(0,0,0)" stroke-width="2"  />
			<g>
				<title>PemK_toxin (PF02452)
"PemK-like, MazF-like toxin of type II toxin-antitoxin system"</title>
				<polygon class="PF02452" points="544,40 549,28 551,28 551,52 549,52" stroke-linejoin="round" width="10" height="24" fill="rgb(81,193,221)" stroke="rgb(64,154,176)" stroke-width="1" opacity="0.75" />
			</g>
		</g>
		<g>
			<title> (ctg29_13)</title>
			<polygon class=" (ctg29_13)" points="553,40 561,10 561,70" fill="rgb(255,255,255)" fill-opacity="1.0" stroke="rgb(0,0,0)" stroke-width="2"  />
			<g>
				<title>MazE_antitoxin (PF04014)
"Antidote-toxin recognition MazE, bacterial antitoxin"</title>
				<polygon class="PF04014" points="556,40 559,28 560,28 560,52 559,52 556,40" stroke-linejoin="round" width="4" height="24" fill="rgb(226,108,170)" stroke="rgb(180,86,136)" stroke-width="1" opacity="0.75" />
			</g>
		</g>
		<g>
			<title> (ctg29_14)</title>
			<polygon class=" (ctg29_14)" points="567,40 582,10 582,70" fill="rgb(255,255,255)" fill-opacity="1.0" stroke="rgb(0,0,0)" stroke-width="2"  />
			<g>
				<title>Polyketide_cyc (PF03364)
"Polyketide cyclase / dehydrase and lipid transport"</title>
				<polygon class="PF03364" points="570,40 576,28 580,28 580,52 576,52" stroke-linejoin="round" width="11" height="24" fill="rgb(221,94,106)" stroke="rgb(176,75,84)" stroke-width="1" opacity="0.75" />
			</g>
		</g>
		<g>
			<title> (ctg29_15)</title>
			<polygon class=" (ctg29_15)" points="618,25 614,25 614,10 584,40 614,70 614,55 618,55" fill="rgb(255,255,255)" fill-opacity="1.0" stroke="rgb(0,0,0)" stroke-width="2"  />
		</g>
		<g>
			<title> (ctg29_16)</title>
			<polygon class=" (ctg29_16)" points="626,40 633,10 633,70" fill="rgb(255,255,255)" fill-opacity="1.0" stroke="rgb(0,0,0)" stroke-width="2"  />
		</g>
		<g>
			<title> (ctg29_17)</title>
			<polygon class=" (ctg29_17)" points="643,40 650,10 650,70" fill="rgb(255,255,255)" fill-opacity="1.0" stroke="rgb(0,0,0)" stroke-width="2"  />
		</g>
		<g>
			<title> (ctg29_18)</title>
			<polygon class=" (ctg29_18)" points="651,40 674,10 674,70" fill="rgb(255,255,255)" fill-opacity="1.0" stroke="rgb(0,0,0)" stroke-width="2"  />
			<g>
				<title>HAD (PF12710)
"haloacid dehalogenase-like hydrolase"</title>
				<polygon class="PF12710" points="655,40 664,28 672,28 672,52 664,52" stroke-linejoin="round" width="18" height="24" fill="rgb(181,59,119)" stroke="rgb(144,47,95)" stroke-width="1" opacity="0.75" />
			</g>
		</g>
		<g>
			<title> (ctg29_19)</title>
			<polygon class=" (ctg29_19)" points="822,25 706,25 706,10 676,40 706,70 706,55 822,55" fill="rgb(255,255,255)" fill-opacity="1.0" stroke="rgb(0,0,0)" stroke-width="2"  />
			<g>
				<title>Acyltransferase (PF01553)
"Acyltransferase"</title>
				<polygon class="PF01553" points="682,38 692,28 695,28 695,52 692,52 682,42" stroke-linejoin="round" width="13" height="24" fill="rgb(87,176,216)" stroke="rgb(69,140,172)" stroke-width="1" opacity="0.75" />
			</g>
			<g>
				<title>PP-binding (PF00550)
"Phosphopantetheine attachment site"</title>
				<rect class="PF00550" x="701" y="28" stroke-linejoin="round" width="6" height="24" fill="rgb(103,191,88)" stroke="rgb(82,152,70)" stroke-width="1" opacity="0.75" />
			</g>
			<g>
				<title>AMP-binding_C (PF13193)
"AMP-binding enzyme C-terminal domain"</title>
				<rect class="PF13193" x="713" y="28" stroke-linejoin="round" width="8" height="24" fill="rgb(182,50,118)" stroke="rgb(145,39,94)" stroke-width="1" opacity="0.75" />
			</g>
			<g>
				<title>AMP-binding (PF00501)
"AMP-binding enzyme"</title>
				<rect class="PF00501" x="722" y="28" stroke-linejoin="round" width="43" height="24" fill="rgb(60,217,223)" stroke="rgb(48,173,178)" stroke-width="1" opacity="0.75" />
			</g>
			<g>
				<title>Sterile (PF03015)
"Male sterility protein"</title>
				<rect class="PF03015" x="769" y="28" stroke-linejoin="round" width="8" height="24" fill="rgb(157,58,225)" stroke="rgb(125,46,180)" stroke-width="1" opacity="0.75" />
			</g>
			<g>
				<title>NAD_binding_4 (PF07993)
"Male sterility protein"</title>
				<rect class="PF07993" x="786" y="28" stroke-linejoin="round" width="34" height="24" fill="rgb(100,212,204)" stroke="rgb(80,169,163)" stroke-width="1" opacity="0.75" />
			</g>
		</g>
		<g>
			<title> (ctg29_20)</title>
			<polygon class=" (ctg29_20)" points="837,10 849,40 837,70" fill="rgb(255,255,255)" fill-opacity="1.0" stroke="rgb(0,0,0)" stroke-width="2"  />
			<g>
				<title>FolB (PF02152)
"Dihydroneopterin aldolase"</title>
				<polygon class="PF02152" points="837,28 840,28 846,40 840,52 837,52" stroke-linejoin="round" width="11" height="24" fill="rgb(113,204,65)" stroke="rgb(90,163,52)" stroke-width="1" opacity="0.75" />
			</g>
		</g>
		<g>
			<title> (ctg29_21)</title>
			<polygon class=" (ctg29_21)" points="868,25 904,25 904,10 934,40 904,70 904,55 868,55" fill="rgb(255,255,255)" fill-opacity="1.0" stroke="rgb(0,0,0)" stroke-width="2"  />
			<g>
				<title>SurA_N_2 (PF13623)
"SurA N-terminal domain"</title>
				<rect class="PF13623" x="868" y="28" stroke-linejoin="round" width="11" height="24" fill="rgb(197,93,133)" stroke="rgb(157,74,106)" stroke-width="1" opacity="0.75" />
			</g>
			<g>
				<title>Rotamase_3 (PF13616)
"PPIC-type PPIASE domain"</title>
				<rect class="PF13616" x="891" y="28" stroke-linejoin="round" width="13" height="24" fill="rgb(212,56,169)" stroke="rgb(169,44,135)" stroke-width="1" opacity="0.75" />
			</g>
		</g>
		<g>
			<title> (ctg29_22)</title>
			<polygon class=" (ctg29_22)" points="937,10 965,40 937,70" fill="rgb(255,255,255)" fill-opacity="1.0" stroke="rgb(0,0,0)" stroke-width="2"  />
			<g>
				<title>SGL (PF08450)
"SMP-30/Gluconolactonase/LRE-like region"</title>
				<polygon class="PF08450" points="939,28 949,28 961,40 949,52 939,52" stroke-linejoin="round" width="23" height="24" fill="rgb(210,60,225)" stroke="rgb(168,48,180)" stroke-width="1" opacity="0.75" />
			</g>
		</g>
		<g>
			<title> (ctg29_23)</title>
			<polygon class=" (ctg29_23)" points="967,25 977,25 977,10 1007,40 977,70 977,55 967,55" fill="rgb(255,255,255)" fill-opacity="1.0" stroke="rgb(0,0,0)" stroke-width="2"  />
			<g>
				<title>ADH_N (PF08240)
"Alcohol dehydrogenase GroES-like domain"</title>
				<rect class="PF08240" x="971" y="28" stroke-linejoin="round" width="12" height="24" fill="rgb(211,65,138)" stroke="rgb(168,51,110)" stroke-width="1" opacity="0.75" />
			</g>
			<g>
				<title>ADH_zinc_N (PF00107)
"Zinc-binding dehydrogenase"</title>
				<polygon class="PF00107" points="988,28 991,28 1002,39 1002,41 991,52 988,52" stroke-linejoin="round" width="14" height="24" fill="rgb(81,108,215)" stroke="rgb(64,86,172)" stroke-width="1" opacity="0.75" />
			</g>
		</g>
		<g>
			<title> (ctg29_24)</title>
			<polygon class=" (ctg29_24)" points="1009,25 1032,25 1032,10 1062,40 1032,70 1032,55 1009,55" fill="rgb(255,255,255)" fill-opacity="1.0" stroke="rgb(0,0,0)" stroke-width="2"  />
			<g>
				<title>Lar_N (PF09861)
"Lactate racemase N-terminal domain"</title>
				<rect class="PF09861" x="1011" y="28" stroke-linejoin="round" width="20" height="24" fill="rgb(183,68,131)" stroke="rgb(146,54,104)" stroke-width="1" opacity="0.75" />
			</g>
		</g>
		<g>
			<title> (ctg29_25)</title>
			<polygon class=" (ctg29_25)" points="1063,25 1150,25 1150,10 1180,40 1150,70 1150,55 1063,55" fill="rgb(255,255,255)" fill-opacity="1.0" stroke="rgb(0,0,0)" stroke-width="2"  />
			<g>
				<title>TPR_16 (PF13432)
"Tetratricopeptide repeat"</title>
				<rect class="PF13432" x="1069" y="28" stroke-linejoin="round" width="6" height="24" fill="rgb(154,205,86)" stroke="rgb(123,164,68)" stroke-width="1" opacity="0.75" />
			</g>
			<g>
				<title>VCBS (PF13517)
"Repeat domain in Vibrio, Colwellia, Bradyrhizobium and Shewanella"</title>
				<rect class="PF13517" x="1110" y="28" stroke-linejoin="round" width="6" height="24" fill="rgb(77,199,76)" stroke="rgb(61,159,60)" stroke-width="1" opacity="0.75" />
			</g>
			<g>
				<title>VCBS (PF13517)
"Repeat domain in Vibrio, Colwellia, Bradyrhizobium and Shewanella"</title>
				<rect class="PF13517" x="1120" y="28" stroke-linejoin="round" width="6" height="24" fill="rgb(77,199,76)" stroke="rgb(61,159,60)" stroke-width="1" opacity="0.75" />
			</g>
			<g>
				<title>UnbV_ASPIC (PF07593)
"ASPIC and UnbV"</title>
				<rect class="PF07593" x="1130" y="28" stroke-linejoin="round" width="6" height="24" fill="rgb(157,212,86)" stroke="rgb(125,169,68)" stroke-width="1" opacity="0.75" />
			</g>
		</g>
		<g>
			<title> (ctg29_26)</title>
			<polygon class=" (ctg29_26)" points="1185,25 1190,25 1190,10 1220,40 1190,70 1190,55 1185,55" fill="rgb(255,255,255)" fill-opacity="1.0" stroke="rgb(0,0,0)" stroke-width="2"  />
		</g>
		<g>
			<title> (ctg29_27)</title>
			<polygon class=" (ctg29_27)" points="1224,25 1229,25 1229,10 1259,40 1229,70 1229,55 1224,55" fill="rgb(255,255,255)" fill-opacity="1.0" stroke="rgb(0,0,0)" stroke-width="2"  />
			<g>
				<title>Inos-1-P_synth (PF01658)
"Myo-inositol-1-phosphate synthase"</title>
				<polygon class="PF01658" points="1243,28 1243,28 1253,38 1253,42 1243,52 1243,52" stroke-linejoin="round" width="10" height="24" fill="rgb(206,100,116)" stroke="rgb(164,80,92)" stroke-width="1" opacity="0.75" />
			</g>
		</g>
		<g>
			<title> (ctg29_28)</title>
			<polygon class=" (ctg29_28)" points="1266,10 1277,40 1266,70" fill="rgb(255,255,255)" fill-opacity="1.0" stroke="rgb(0,0,0)" stroke-width="2"  />
		</g>
		<g>
			<title> (ctg29_29)</title>
			<polygon class=" (ctg29_29)" points="1324,25 1324,25 1324,10 1294,40 1324,70 1324,55 1324,55" fill="rgb(255,255,255)" fill-opacity="1.0" stroke="rgb(0,0,0)" stroke-width="2"  />
		</g>
		<g>
			<title> (ctg29_30)</title>
			<polygon class=" (ctg29_30)" points="1335,40 1342,10 1342,70" fill="rgb(255,255,255)" fill-opacity="1.0" stroke="rgb(0,0,0)" stroke-width="2"  />
		</g>
		<g>
			<title> (ctg29_31)</title>
			<polygon class=" (ctg29_31)" points="1389,25 1376,25 1376,10 1346,40 1376,70 1376,55 1389,55" fill="rgb(255,255,255)" fill-opacity="1.0" stroke="rgb(0,0,0)" stroke-width="2"  />
			<g>
				<title>Sigma70_r4_2 (PF08281)
"Sigma-70, region 4"</title>
				<rect class="PF08281" x="1372" y="28" stroke-linejoin="round" width="5" height="24" fill="rgb(222,103,144)" stroke="rgb(177,82,115)" stroke-width="1" opacity="0.75" />
			</g>
			<g>
				<title>Sigma70_r2 (PF04542)
"Sigma-70 region 2"</title>
				<rect class="PF04542" x="1380" y="28" stroke-linejoin="round" width="6" height="24" fill="rgb(184,59,197)" stroke="rgb(147,47,157)" stroke-width="1" opacity="0.75" />
			</g>
		</g>
		<g>
			<title> (ctg29_32)</title>
			<polygon class=" (ctg29_32)" points="1397,40 1401,10 1401,70" fill="rgb(255,255,255)" fill-opacity="1.0" stroke="rgb(0,0,0)" stroke-width="2"  />
		</g>
		<g>
			<title> (ctg29_33)</title>
			<polygon class=" (ctg29_33)" points="1437,25 1434,25 1434,10 1404,40 1434,70 1434,55 1437,55" fill="rgb(255,255,255)" fill-opacity="1.0" stroke="rgb(0,0,0)" stroke-width="2"  />
			<g>
				<title>PD40 (PF07676)
"WD40-like Beta Propeller Repeat"</title>
				<polygon class="PF07676" points="1408,40 1411,37 1411,43 1408,40" stroke-linejoin="round" width="3" height="24" fill="rgb(49,78,191)" stroke="rgb(39,62,152)" stroke-width="1" opacity="0.75" />
			</g>
			<g>
				<title>PD40 (PF07676)
"WD40-like Beta Propeller Repeat"</title>
				<polygon class="PF07676" points="1413,35 1416,32 1416,48 1413,45" stroke-linejoin="round" width="3" height="24" fill="rgb(49,78,191)" stroke="rgb(39,62,152)" stroke-width="1" opacity="0.75" />
			</g>
			<g>
				<title>PD40 (PF07676)
"WD40-like Beta Propeller Repeat"</title>
				<polygon class="PF07676" points="1417,31 1420,28 1420,28 1420,52 1420,52 1417,49" stroke-linejoin="round" width="3" height="24" fill="rgb(49,78,191)" stroke="rgb(39,62,152)" stroke-width="1" opacity="0.75" />
			</g>
			<g>
				<title>PD40 (PF07676)
"WD40-like Beta Propeller Repeat"</title>
				<rect class="PF07676" x="1423" y="28" stroke-linejoin="round" width="3" height="24" fill="rgb(49,78,191)" stroke="rgb(39,62,152)" stroke-width="1" opacity="0.75" />
			</g>
			<g>
				<title>PD40 (PF07676)
"WD40-like Beta Propeller Repeat"</title>
				<rect class="PF07676" x="1427" y="28" stroke-linejoin="round" width="3" height="24" fill="rgb(49,78,191)" stroke="rgb(39,62,152)" stroke-width="1" opacity="0.75" />
			</g>
			<g>
				<title>PD40 (PF07676)
"WD40-like Beta Propeller Repeat"</title>
				<rect class="PF07676" x="1431" y="28" stroke-linejoin="round" width="2" height="24" fill="rgb(49,78,191)" stroke="rgb(39,62,152)" stroke-width="1" opacity="0.75" />
			</g>
		</g>
	</g>
</svg>
