<svg version="1.1" baseProfile="full" xmlns="http://www.w3.org/2000/svg" width="804.6666666666666" height="80">
	<g>
		<line x1="10" y1="40.0" x2="794.6666666666666" y2="40.0" style="stroke:rgb(70,70,70); stroke-width:3 "/>
		<g>
			<title> (ctg214_64)</title>
			<polygon class=" (ctg214_64)" points="53,25 43,25 43,10 13,40 43,70 43,55 53,55" fill="rgb(255,255,255)" fill-opacity="1.0" stroke="rgb(0,0,0)" stroke-width="2"  />
			<g>
				<title>Peripla_BP_6 (PF13458)
"Periplasmic binding protein"</title>
				<polygon class="PF13458" points="17,40 29,28 46,28 46,52 29,52" stroke-linejoin="round" width="32" height="24" fill="rgb(94,183,81)" stroke="rgb(75,146,64)" stroke-width="1" opacity="0.75" />
			</g>
		</g>
		<g>
			<title> (ctg214_65)</title>
			<polygon class=" (ctg214_65)" points="153,25 83,25 83,10 53,40 83,70 83,55 153,55" fill="rgb(255,255,255)" fill-opacity="1.0" stroke="rgb(0,0,0)" stroke-width="2"  />
			<g>
				<title>ABC_tran (PF00005)
"ABC transporter"</title>
				<polygon class="PF00005" points="60,37 69,28 74,28 74,52 69,52 60,43" stroke-linejoin="round" width="14" height="24" fill="rgb(129,201,63)" stroke="rgb(103,160,50)" stroke-width="1" opacity="0.75" />
			</g>
			<g>
				<title>ABC_membrane (PF00664)
"ABC transporter transmembrane region"</title>
				<rect class="PF00664" x="81" y="28" stroke-linejoin="round" width="27" height="24" fill="rgb(149,226,73)" stroke="rgb(119,180,58)" stroke-width="1" opacity="0.75" />
			</g>
		</g>
		<g>
			<title> (ctg214_66)</title>
			<polygon class=" (ctg214_66)" points="227,25 185,25 185,10 155,40 185,70 185,55 227,55" fill="rgb(255,255,255)" fill-opacity="1.0" stroke="rgb(0,0,0)" stroke-width="2"  />
			<g>
				<title>ABC_tran (PF00005)
"ABC transporter"</title>
				<polygon class="PF00005" points="161,38 171,28 175,28 175,52 171,52 161,42" stroke-linejoin="round" width="14" height="24" fill="rgb(129,201,63)" stroke="rgb(103,160,50)" stroke-width="1" opacity="0.75" />
			</g>
			<g>
				<title>ABC_membrane (PF00664)
"ABC transporter transmembrane region"</title>
				<rect class="PF00664" x="183" y="28" stroke-linejoin="round" width="26" height="24" fill="rgb(149,226,73)" stroke="rgb(119,180,58)" stroke-width="1" opacity="0.75" />
			</g>
			<g>
				<title>Peptidase_C39 (PF03412)
"Peptidase C39 family"</title>
				<rect class="PF03412" x="212" y="28" stroke-linejoin="round" width="13" height="24" fill="rgb(214,226,77)" stroke="rgb(171,180,61)" stroke-width="1" opacity="0.75" />
			</g>
		</g>
		<g>
			<title> (ctg214_67)</title>
			<polygon class=" (ctg214_67)" points="270,25 258,25 258,10 228,40 258,70 258,55 270,55" fill="rgb(255,255,255)" fill-opacity="1.0" stroke="rgb(0,0,0)" stroke-width="2"  />
			<g>
				<title>Biotin_lipoyl_2 (PF13533)
"Biotin-lipoyl like"</title>
				<rect class="PF13533" x="257" y="28" stroke-linejoin="round" width="5" height="24" fill="rgb(229,122,112)" stroke="rgb(183,97,89)" stroke-width="1" opacity="0.75" />
			</g>
		</g>
		<g>
			<title> (ctg214_68)</title>
			<polygon class=" (ctg214_68)" points="320,25 300,25 300,10 270,40 300,70 300,55 320,55" fill="rgb(255,255,255)" fill-opacity="1.0" stroke="rgb(0,0,0)" stroke-width="2"  />
			<g>
				<title>OEP (PF02321)
"Outer membrane efflux protein"</title>
				<polygon class="PF02321" points="274,40 286,28 291,28 291,52 286,52" stroke-linejoin="round" width="19" height="24" fill="rgb(205,57,201)" stroke="rgb(164,45,160)" stroke-width="1" opacity="0.75" />
			</g>
			<g>
				<title>OEP (PF02321)
"Outer membrane efflux protein"</title>
				<rect class="PF02321" x="295" y="28" stroke-linejoin="round" width="12" height="24" fill="rgb(205,57,201)" stroke="rgb(164,45,160)" stroke-width="1" opacity="0.75" />
			</g>
		</g>
		<g>
			<title> (ctg214_69)</title>
			<polygon class=" (ctg214_69)" points="343,10 352,40 343,70" fill="rgb(255,255,255)" fill-opacity="1.0" stroke="rgb(0,0,0)" stroke-width="2"  />
		</g>
		<g>
			<title> (ctg214_70)</title>
			<polygon class=" (ctg214_70)" points="354,25 431,25 431,10 461,40 431,70 431,55 354,55" fill="rgb(255,255,255)" fill-opacity="1.0" stroke="rgb(0,0,0)" stroke-width="2"  />
			<g>
				<title>DUF4135 (PF13575)
"Domain of unknown function (DUF4135)"</title>
				<rect class="PF13575" x="376" y="28" stroke-linejoin="round" width="37" height="24" fill="rgb(228,84,217)" stroke="rgb(182,67,173)" stroke-width="1" opacity="0.75" />
			</g>
			<g>
				<title>LANC_like (PF05147)
"Lanthionine synthetase C-like protein"</title>
				<polygon class="PF05147" points="425,28 444,28 456,40 444,52 425,52" stroke-linejoin="round" width="35" height="24" fill="rgb(129,182,79)" stroke="rgb(103,145,63)" stroke-width="1" opacity="0.75" />
			</g>
		</g>
		<g>
			<title> (ctg214_71)</title>
			<polygon class=" (ctg214_71)" points="461,25 468,25 468,10 498,40 468,70 468,55 461,55" fill="rgb(255,255,255)" fill-opacity="1.0" stroke="rgb(0,0,0)" stroke-width="2"  />
		</g>
		<g>
			<title> (ctg214_72)</title>
			<polygon class=" (ctg214_72)" points="499,10 517,40 499,70" fill="rgb(255,255,255)" fill-opacity="1.0" stroke="rgb(0,0,0)" stroke-width="2"  />
			<g>
				<title>NUDIX (PF00293)
"NUDIX domain"</title>
				<polygon class="PF00293" points="502,28 506,28 513,40 506,52 502,52" stroke-linejoin="round" width="13" height="24" fill="rgb(92,56,187)" stroke="rgb(73,44,149)" stroke-width="1" opacity="0.75" />
			</g>
		</g>
		<g>
			<title> (ctg214_73)</title>
			<polygon class=" (ctg214_73)" points="524,10 543,40 524,70" fill="rgb(255,255,255)" fill-opacity="1.0" stroke="rgb(0,0,0)" stroke-width="2"  />
		</g>
		<g>
			<title> (ctg214_74)</title>
			<polygon class=" (ctg214_74)" points="547,10 555,40 547,70" fill="rgb(255,255,255)" fill-opacity="1.0" stroke="rgb(0,0,0)" stroke-width="2"  />
		</g>
		<g>
			<title> (ctg214_75)</title>
			<polygon class=" (ctg214_75)" points="588,25 587,25 587,10 557,40 587,70 587,55 588,55" fill="rgb(255,255,255)" fill-opacity="1.0" stroke="rgb(0,0,0)" stroke-width="2"  />
			<g>
				<title>Peptidase_M28 (PF04389)
"Peptidase family M28"</title>
				<polygon class="PF04389" points="561,40 573,28 578,28 578,52 573,52" stroke-linejoin="round" width="21" height="24" fill="rgb(190,82,105)" stroke="rgb(152,65,84)" stroke-width="1" opacity="0.75" />
			</g>
		</g>
		<g>
			<title> (ctg214_76)</title>
			<polygon class=" (ctg214_76)" points="588,40 601,10 601,70" fill="rgb(255,255,255)" fill-opacity="1.0" stroke="rgb(0,0,0)" stroke-width="2"  />
		</g>
		<g>
			<title> (ctg214_77)</title>
			<polygon class=" (ctg214_77)" points="611,40 626,10 626,70" fill="rgb(255,255,255)" fill-opacity="1.0" stroke="rgb(0,0,0)" stroke-width="2"  />
			<g>
				<title>UPF0102 (PF02021)
"Uncharacterised protein family UPF0102"</title>
				<polygon class="PF02021" points="614,40 620,28 622,28 622,52 620,52" stroke-linejoin="round" width="9" height="24" fill="rgb(81,199,67)" stroke="rgb(64,159,53)" stroke-width="1" opacity="0.75" />
			</g>
		</g>
		<g>
			<title> (ctg214_78)</title>
			<polygon class=" (ctg214_78)" points="676,25 659,25 659,10 629,40 659,70 659,55 676,55" fill="rgb(255,255,255)" fill-opacity="1.0" stroke="rgb(0,0,0)" stroke-width="2"  />
			<g>
				<title>DALR_2 (PF09190)
"DALR domain"</title>
				<polygon class="PF09190" points="634,39 640,33 640,47 634,41" stroke-linejoin="round" width="6" height="24" fill="rgb(70,57,193)" stroke="rgb(56,45,154)" stroke-width="1" opacity="0.75" />
			</g>
			<g>
				<title>tRNA-synt_1e (PF01406)
"tRNA synthetases class I (C) catalytic domain"</title>
				<polygon class="PF01406" points="644,29 645,28 674,28 674,52 645,52 644,51" stroke-linejoin="round" width="30" height="24" fill="rgb(131,218,83)" stroke="rgb(104,174,66)" stroke-width="1" opacity="0.75" />
			</g>
		</g>
		<g>
			<title> (ctg214_79)</title>
			<polygon class=" (ctg214_79)" points="680,40 694,10 694,70" fill="rgb(255,255,255)" fill-opacity="1.0" stroke="rgb(0,0,0)" stroke-width="2"  />
		</g>
		<g>
			<title> (ctg214_80)</title>
			<polygon class=" (ctg214_80)" points="726,25 725,25 725,10 695,40 725,70 725,55 726,55" fill="rgb(255,255,255)" fill-opacity="1.0" stroke="rgb(0,0,0)" stroke-width="2"  />
			<g>
				<title>Flavokinase (PF01687)
"Riboflavin kinase"</title>
				<polygon class="PF01687" points="699,40 707,32 707,48" stroke-linejoin="round" width="12" height="24" fill="rgb(57,209,217)" stroke="rgb(45,167,173)" stroke-width="1" opacity="0.75" />
			</g>
			<g>
				<title>FAD_syn (PF06574)
"FAD synthetase"</title>
				<polygon class="PF06574" points="709,30 711,28 724,28 724,52 711,52 709,50" stroke-linejoin="round" width="15" height="24" fill="rgb(96,110,204)" stroke="rgb(76,88,163)" stroke-width="1" opacity="0.75" />
			</g>
		</g>
		<g>
			<title> (ctg214_81)</title>
			<polygon class=" (ctg214_81)" points="735,40 762,10 762,70" fill="rgb(255,255,255)" fill-opacity="1.0" stroke="rgb(0,0,0)" stroke-width="2"  />
			<g>
				<title>Lactamase_B_2 (PF12706)
"Beta-lactamase superfamily domain"</title>
				<polygon class="PF12706" points="739,40 750,28 757,28 757,52 750,52 739,40" stroke-linejoin="round" width="18" height="24" fill="rgb(62,169,197)" stroke="rgb(49,135,157)" stroke-width="1" opacity="0.75" />
			</g>
		</g>
		<g>
			<title> (ctg214_82)</title>
			<polygon class=" (ctg214_82)" points="763,40 773,10 773,70" fill="rgb(255,255,255)" fill-opacity="1.0" stroke="rgb(0,0,0)" stroke-width="2"  />
			<g>
				<title>DUF1844 (PF08899)
"Domain of unknown function (DUF1844)"</title>
				<polygon class="PF08899" points="766,40 770,28 772,28 772,52 770,52" stroke-linejoin="round" width="7" height="24" fill="rgb(86,55,205)" stroke="rgb(68,44,164)" stroke-width="1" opacity="0.75" />
			</g>
		</g>
	</g>
</svg>
