<svg version="1.1" baseProfile="full" xmlns="http://www.w3.org/2000/svg" width="1588.9333333333334" height="80">
	<g>
		<line x1="10" y1="40.0" x2="1578.9333333333334" y2="40.0" style="stroke:rgb(70,70,70); stroke-width:3 "/>
		<g>
			<title> (ctg49_63)</title>
			<polygon class=" (ctg49_63)" points="49,40 59,10 59,70" fill="rgb(255,255,255)" fill-opacity="1.0" stroke="rgb(0,0,0)" stroke-width="2"  />
			<g>
				<title>YCII (PF03795)
"YCII-related domain"</title>
				<polygon class="PF03795" points="52,40 56,28 58,28 58,52 56,52" stroke-linejoin="round" width="9" height="24" fill="rgb(54,71,186)" stroke="rgb(43,56,148)" stroke-width="1" opacity="0.75" />
			</g>
		</g>
		<g>
			<title> (ctg49_64)</title>
			<polygon class=" (ctg49_64)" points="66,25 68,25 68,10 98,40 68,70 68,55 66,55" fill="rgb(255,255,255)" fill-opacity="1.0" stroke="rgb(0,0,0)" stroke-width="2"  />
			<g>
				<title>FAA_hydrolase (PF01557)
"Fumarylacetoacetate (FAA) hydrolase family"</title>
				<polygon class="PF01557" points="77,28 82,28 94,40 82,52 77,52" stroke-linejoin="round" width="21" height="24" fill="rgb(71,203,125)" stroke="rgb(56,162,100)" stroke-width="1" opacity="0.75" />
			</g>
		</g>
		<g>
			<title> (ctg49_65)</title>
			<polygon class=" (ctg49_65)" points="112,10 135,40 112,70" fill="rgb(255,255,255)" fill-opacity="1.0" stroke="rgb(0,0,0)" stroke-width="2"  />
			<g>
				<title>RadC (PF04002)
"RadC-like JAB domain"</title>
				<polygon class="PF04002" points="123,29 131,40 123,51" stroke-linejoin="round" width="12" height="24" fill="rgb(114,211,73)" stroke="rgb(91,168,58)" stroke-width="1" opacity="0.75" />
			</g>
		</g>
		<g>
			<title> (ctg49_66)</title>
			<polygon class=" (ctg49_66)" points="139,25 156,25 156,10 186,40 156,70 156,55 139,55" fill="rgb(255,255,255)" fill-opacity="1.0" stroke="rgb(0,0,0)" stroke-width="2"  />
			<g>
				<title>Peptidase_M23 (PF01551)
"Peptidase family M23"</title>
				<polygon class="PF01551" points="174,32 182,40 174,48" stroke-linejoin="round" width="9" height="24" fill="rgb(65,169,193)" stroke="rgb(51,135,154)" stroke-width="1" opacity="0.75" />
			</g>
		</g>
		<g>
			<title> (ctg49_67)</title>
			<polygon class=" (ctg49_67)" points="194,25 195,25 195,10 225,40 195,70 195,55 194,55" fill="rgb(255,255,255)" fill-opacity="1.0" stroke="rgb(0,0,0)" stroke-width="2"  />
			<g>
				<title>Peptidase_U32 (PF01136)
"Peptidase family U32"</title>
				<polygon class="PF01136" points="206,28 208,28 216,36 216,44 208,52 206,52" stroke-linejoin="round" width="10" height="24" fill="rgb(181,49,59)" stroke="rgb(144,39,47)" stroke-width="1" opacity="0.75" />
			</g>
		</g>
		<g>
			<title> (ctg49_68)</title>
			<polygon class=" (ctg49_68)" points="228,25 230,25 230,10 260,40 230,70 230,55 228,55" fill="rgb(255,255,255)" fill-opacity="1.0" stroke="rgb(0,0,0)" stroke-width="2"  />
			<g>
				<title>OMP_b-brl (PF13505)
"Outer membrane protein beta-barrel domain"</title>
				<polygon class="PF13505" points="229,28 244,28 256,40 244,52 229,52" stroke-linejoin="round" width="30" height="24" fill="rgb(200,118,85)" stroke="rgb(160,94,67)" stroke-width="1" opacity="0.75" />
			</g>
		</g>
		<g>
			<title> (ctg49_69)</title>
			<polygon class=" (ctg49_69)" points="294,25 291,25 291,10 261,40 291,70 291,55 294,55" fill="rgb(255,255,255)" fill-opacity="1.0" stroke="rgb(0,0,0)" stroke-width="2"  />
			<g>
				<title>dCache_2 (PF08269)
"Cache domain"</title>
				<polygon class="PF08269" points="275,30 277,28 288,28 288,52 277,52 275,50" stroke-linejoin="round" width="13" height="24" fill="rgb(82,190,201)" stroke="rgb(65,152,160)" stroke-width="1" opacity="0.75" />
			</g>
		</g>
		<g>
			<title> (ctg49_70)</title>
			<polygon class=" (ctg49_70)" points="309,25 315,25 315,10 345,40 315,70 315,55 309,55" fill="rgb(255,255,255)" fill-opacity="1.0" stroke="rgb(0,0,0)" stroke-width="2"  />
			<g>
				<title>CCP_MauG (PF03150)
"Di-haem cytochrome c peroxidase"</title>
				<rect class="PF03150" x="309" y="28" stroke-linejoin="round" width="15" height="24" fill="rgb(214,79,187)" stroke="rgb(171,63,149)" stroke-width="1" opacity="0.75" />
			</g>
			<g>
				<title>Cytochrom_C (PF00034)
"Cytochrome c"</title>
				<polygon class="PF00034" points="325,28 329,28 340,39 340,41 329,52 325,52" stroke-linejoin="round" width="15" height="24" fill="rgb(130,184,61)" stroke="rgb(104,147,48)" stroke-width="1" opacity="0.75" />
			</g>
		</g>
		<g>
			<title> (ctg49_71)</title>
			<polygon class=" (ctg49_71)" points="346,10 368,40 346,70" fill="rgb(255,255,255)" fill-opacity="1.0" stroke="rgb(0,0,0)" stroke-width="2"  />
			<g>
				<title>Ank_2 (PF12796)
"Ankyrin repeats (3 copies)"</title>
				<polygon class="PF12796" points="352,28 356,28 361,35 361,45 356,52 352,52" stroke-linejoin="round" width="9" height="24" fill="rgb(151,90,191)" stroke="rgb(120,72,152)" stroke-width="1" opacity="0.75" />
			</g>
		</g>
		<g>
			<title> (ctg49_72)</title>
			<polygon class=" (ctg49_72)" points="437,25 411,25 411,10 381,40 411,70 411,55 437,55" fill="rgb(255,255,255)" fill-opacity="1.0" stroke="rgb(0,0,0)" stroke-width="2"  />
			<g>
				<title>MFS_1 (PF07690)
"Major Facilitator Superfamily"</title>
				<polygon class="PF07690" points="392,33 397,28 431,28 431,52 397,52 392,47" stroke-linejoin="round" width="39" height="24" fill="rgb(193,224,74)" stroke="rgb(154,179,59)" stroke-width="1" opacity="0.75" />
			</g>
		</g>
		<g>
			<title> (ctg49_73)</title>
			<polygon class=" (ctg49_73)" points="443,10 464,40 443,70" fill="rgb(255,255,255)" fill-opacity="1.0" stroke="rgb(0,0,0)" stroke-width="2"  />
			<g>
				<title>STAS (PF01740)
"STAS domain"</title>
				<polygon class="PF01740" points="443,28 452,28 453,30 453,50 452,52 443,52" stroke-linejoin="round" width="10" height="24" fill="rgb(219,58,116)" stroke="rgb(175,46,92)" stroke-width="1" opacity="0.75" />
			</g>
		</g>
		<g>
			<title> (ctg49_74)</title>
			<polygon class=" (ctg49_74)" points="555,25 502,25 502,10 472,40 502,70 502,55 555,55" fill="rgb(255,255,255)" fill-opacity="1.0" stroke="rgb(0,0,0)" stroke-width="2"  />
			<g>
				<title>Sulfotransfer_3 (PF13469)
"Sulfotransferase family"</title>
				<polygon class="PF13469" points="477,39 488,28 502,28 502,52 488,52 477,41" stroke-linejoin="round" width="25" height="24" fill="rgb(59,182,84)" stroke="rgb(47,145,67)" stroke-width="1" opacity="0.75" />
			</g>
			<g>
				<title>NAD_binding_4 (PF07993)
"Male sterility protein"</title>
				<rect class="PF07993" x="525" y="28" stroke-linejoin="round" width="25" height="24" fill="rgb(100,212,204)" stroke="rgb(80,169,163)" stroke-width="1" opacity="0.75" />
			</g>
		</g>
		<g>
			<title> (ctg49_75)</title>
			<polygon class=" (ctg49_75)" points="616,25 587,25 587,10 557,40 587,70 587,55 616,55" fill="rgb(255,255,255)" fill-opacity="1.0" stroke="rgb(0,0,0)" stroke-width="2"  />
			<g>
				<title>DUF4070 (PF13282)
"Domain of unknown function (DUF4070)"</title>
				<polygon class="PF13282" points="565,36 573,28 579,28 579,52 573,52 565,44" stroke-linejoin="round" width="14" height="24" fill="rgb(104,216,68)" stroke="rgb(83,172,54)" stroke-width="1" opacity="0.75" />
			</g>
			<g>
				<title>Radical_SAM (PF04055)
"Radical SAM superfamily"</title>
				<rect class="PF04055" x="581" y="28" stroke-linejoin="round" width="17" height="24" fill="rgb(149,56,222)" stroke="rgb(119,44,177)" stroke-width="1" opacity="0.75" />
			</g>
			<g>
				<title>B12-binding (PF02310)
"B12 binding domain"</title>
				<rect class="PF02310" x="603" y="28" stroke-linejoin="round" width="10" height="24" fill="rgb(145,190,60)" stroke="rgb(115,152,48)" stroke-width="1" opacity="0.75" />
			</g>
		</g>
		<g>
			<title> (ctg49_76)</title>
			<polygon class=" (ctg49_76)" points="675,25 647,25 647,10 617,40 647,70 647,55 675,55" fill="rgb(255,255,255)" fill-opacity="1.0" stroke="rgb(0,0,0)" stroke-width="2"  />
			<g>
				<title>DUF4070 (PF13282)
"Domain of unknown function (DUF4070)"</title>
				<polygon class="PF13282" points="625,36 633,28 638,28 638,52 633,52 625,44" stroke-linejoin="round" width="13" height="24" fill="rgb(104,216,68)" stroke="rgb(83,172,54)" stroke-width="1" opacity="0.75" />
			</g>
			<g>
				<title>Radical_SAM (PF04055)
"Radical SAM superfamily"</title>
				<rect class="PF04055" x="639" y="28" stroke-linejoin="round" width="18" height="24" fill="rgb(149,56,222)" stroke="rgb(119,44,177)" stroke-width="1" opacity="0.75" />
			</g>
			<g>
				<title>B12-binding (PF02310)
"B12 binding domain"</title>
				<rect class="PF02310" x="662" y="28" stroke-linejoin="round" width="10" height="24" fill="rgb(145,190,60)" stroke="rgb(115,152,48)" stroke-width="1" opacity="0.75" />
			</g>
		</g>
		<g>
			<title> (ctg49_77)</title>
			<polygon class=" (ctg49_77)" points="911,25 706,25 706,10 676,40 706,70 706,55 911,55" fill="rgb(255,255,255)" fill-opacity="1.0" stroke="rgb(0,0,0)" stroke-width="2"  />
			<g>
				<title>PP-binding (PF00550)
"Phosphopantetheine attachment site"</title>
				<polygon class="PF00550" points="682,38 688,32 688,48 682,42" stroke-linejoin="round" width="6" height="24" fill="rgb(103,191,88)" stroke="rgb(82,152,70)" stroke-width="1" opacity="0.75" />
			</g>
			<g>
				<title>KR (PF08659)
"KR domain"</title>
				<rect class="PF08659" x="697" y="28" stroke-linejoin="round" width="18" height="24" fill="rgb(66,209,188)" stroke="rgb(52,167,150)" stroke-width="1" opacity="0.75" />
			</g>
			<g>
				<title>ADH_zinc_N (PF00107)
"Zinc-binding dehydrogenase"</title>
				<rect class="PF00107" x="723" y="28" stroke-linejoin="round" width="12" height="24" fill="rgb(81,108,215)" stroke="rgb(64,86,172)" stroke-width="1" opacity="0.75" />
			</g>
			<g>
				<title>ADH_N (PF08240)
"Alcohol dehydrogenase GroES-like domain"</title>
				<rect class="PF08240" x="738" y="28" stroke-linejoin="round" width="9" height="24" fill="rgb(211,65,138)" stroke="rgb(168,51,110)" stroke-width="1" opacity="0.75" />
			</g>
			<g>
				<title>PS-DH (PF14765)
"Polyketide synthase dehydratase"</title>
				<rect class="PF14765" x="790" y="28" stroke-linejoin="round" width="29" height="24" fill="rgb(173,56,182)" stroke="rgb(138,44,145)" stroke-width="1" opacity="0.75" />
			</g>
			<g>
				<title>Acyl_transf_1 (PF00698)
"Acyl transferase domain"</title>
				<rect class="PF00698" x="824" y="28" stroke-linejoin="round" width="32" height="24" fill="rgb(59,176,209)" stroke="rgb(47,140,167)" stroke-width="1" opacity="0.75" />
			</g>
			<g>
				<title>KAsynt_C_assoc (PF16197)
"Ketoacyl-synthetase C-terminal extension"</title>
				<rect class="PF16197" x="860" y="28" stroke-linejoin="round" width="11" height="24" fill="rgb(240,150,172)" stroke="rgb(192,120,137)" stroke-width="1" opacity="0.75" />
			</g>
			<g>
				<title>Ketoacyl-synt_C (PF02801)
"Beta-ketoacyl synthase, C-terminal domain"</title>
				<rect class="PF02801" x="872" y="28" stroke-linejoin="round" width="12" height="24" fill="rgb(215,78,102)" stroke="rgb(172,62,81)" stroke-width="1" opacity="0.75" />
			</g>
			<g>
				<title>ketoacyl-synt (PF00109)
"Beta-ketoacyl synthase, N-terminal domain"</title>
				<rect class="PF00109" x="886" y="28" stroke-linejoin="round" width="24" height="24" fill="rgb(112,116,228)" stroke="rgb(89,92,182)" stroke-width="1" opacity="0.75" />
			</g>
		</g>
		<g>
			<title> (ctg49_78)</title>
			<polygon class=" (ctg49_78)" points="975,25 968,25 968,10 938,40 968,70 968,55 975,55" fill="rgb(255,255,255)" fill-opacity="1.0" stroke="rgb(0,0,0)" stroke-width="2"  />
			<g>
				<title>Rotamase_3 (PF13616)
"PPIC-type PPIASE domain"</title>
				<polygon class="PF13616" points="943,39 954,28 956,28 956,52 954,52 943,41" stroke-linejoin="round" width="13" height="24" fill="rgb(212,56,169)" stroke="rgb(169,44,135)" stroke-width="1" opacity="0.75" />
			</g>
			<g>
				<title>SurA_N_3 (PF13624)
"SurA N-terminal domain"</title>
				<rect class="PF13624" x="958" y="28" stroke-linejoin="round" width="13" height="24" fill="rgb(84,156,193)" stroke="rgb(67,124,154)" stroke-width="1" opacity="0.75" />
			</g>
		</g>
		<g>
			<title> (ctg49_79)</title>
			<polygon class=" (ctg49_79)" points="977,10 1006,40 977,70" fill="rgb(255,255,255)" fill-opacity="1.0" stroke="rgb(0,0,0)" stroke-width="2"  />
			<g>
				<title>Glyco_transf_9 (PF01075)
"Glycosyltransferase family 9 (heptosyltransferase)"</title>
				<polygon class="PF01075" points="987,28 990,28 1002,40 990,52 987,52" stroke-linejoin="round" width="18" height="24" fill="rgb(200,89,91)" stroke="rgb(160,71,72)" stroke-width="1" opacity="0.75" />
			</g>
		</g>
		<g>
			<title> (ctg49_80)</title>
			<polygon class=" (ctg49_80)" points="1007,25 1020,25 1020,10 1050,40 1020,70 1020,55 1007,55" fill="rgb(255,255,255)" fill-opacity="1.0" stroke="rgb(0,0,0)" stroke-width="2"  />
			<g>
				<title>SBD_N (PF07005)
"Sugar-binding N-terminal domain"</title>
				<rect class="PF07005" x="1008" y="28" stroke-linejoin="round" width="22" height="24" fill="rgb(217,82,111)" stroke="rgb(173,65,88)" stroke-width="1" opacity="0.75" />
			</g>
			<g>
				<title>NBD_C (PF17042)
"Nucleotide-binding C-terminal domain"</title>
				<polygon class="PF17042" points="1032,28 1033,28 1045,40 1033,52 1032,52" stroke-linejoin="round" width="15" height="24" fill="rgb(155,211,77)" stroke="rgb(124,168,61)" stroke-width="1" opacity="0.75" />
			</g>
		</g>
		<g>
			<title> (ctg49_81)</title>
			<polygon class=" (ctg49_81)" points="1052,25 1055,25 1055,10 1085,40 1055,70 1055,55 1052,55" fill="rgb(255,255,255)" fill-opacity="1.0" stroke="rgb(0,0,0)" stroke-width="2"  />
			<g>
				<title>PdxA (PF04166)
"Pyridoxal phosphate biosynthetic protein PdxA"</title>
				<polygon class="PF04166" points="1055,28 1069,28 1081,40 1069,52 1055,52" stroke-linejoin="round" width="29" height="24" fill="rgb(180,54,159)" stroke="rgb(144,43,127)" stroke-width="1" opacity="0.75" />
			</g>
		</g>
		<g>
			<title> (ctg49_82)</title>
			<polygon class=" (ctg49_82)" points="1086,40 1099,10 1099,70" fill="rgb(255,255,255)" fill-opacity="1.0" stroke="rgb(0,0,0)" stroke-width="2"  />
			<g>
				<title>DoxX (PF07681)
"DoxX"</title>
				<polygon class="PF07681" points="1090,38 1094,28 1097,28 1097,52 1094,52 1090,42" stroke-linejoin="round" width="7" height="24" fill="rgb(93,188,216)" stroke="rgb(74,150,172)" stroke-width="1" opacity="0.75" />
			</g>
		</g>
		<g>
			<title> (ctg49_83)</title>
			<polygon class=" (ctg49_83)" points="1133,25 1131,25 1131,10 1101,40 1131,70 1131,55 1133,55" fill="rgb(255,255,255)" fill-opacity="1.0" stroke="rgb(0,0,0)" stroke-width="2"  />
			<g>
				<title>2-Hacid_dh_C (PF02826)
"D-isomer specific 2-hydroxyacid dehydrogenase, NAD binding domain"</title>
				<polygon class="PF02826" points="1105,40 1117,28 1122,28 1122,52 1117,52 1105,40" stroke-linejoin="round" width="17" height="24" fill="rgb(192,197,93)" stroke="rgb(153,157,74)" stroke-width="1" opacity="0.75" />
			</g>
		</g>
		<g>
			<title> (ctg49_84)</title>
			<polygon class=" (ctg49_84)" points="1176,25 1165,25 1165,10 1135,40 1165,70 1165,55 1176,55" fill="rgb(255,255,255)" fill-opacity="1.0" stroke="rgb(0,0,0)" stroke-width="2"  />
			<g>
				<title>Lar_N (PF09861)
"Lactate racemase N-terminal domain"</title>
				<rect class="PF09861" x="1158" y="28" stroke-linejoin="round" width="16" height="24" fill="rgb(183,68,131)" stroke="rgb(146,54,104)" stroke-width="1" opacity="0.75" />
			</g>
		</g>
		<g>
			<title> (ctg49_85)</title>
			<polygon class=" (ctg49_85)" points="1189,25 1237,25 1237,10 1267,40 1237,70 1237,55 1189,55" fill="rgb(255,255,255)" fill-opacity="1.0" stroke="rgb(0,0,0)" stroke-width="2"  />
		</g>
		<g>
			<title> (ctg49_86)</title>
			<polygon class=" (ctg49_86)" points="1346,25 1299,25 1299,10 1269,40 1299,70 1299,55 1346,55" fill="rgb(255,255,255)" fill-opacity="1.0" stroke="rgb(0,0,0)" stroke-width="2"  />
			<g>
				<title>TonB_dep_Rec (PF00593)
"TonB dependent receptor"</title>
				<polygon class="PF00593" points="1273,40 1285,28 1316,28 1316,52 1285,52" stroke-linejoin="round" width="47" height="24" fill="rgb(171,200,51)" stroke="rgb(136,160,40)" stroke-width="1" opacity="0.75" />
			</g>
			<g>
				<title>Plug (PF07715)
"TonB-dependent Receptor Plug Domain"</title>
				<rect class="PF07715" x="1321" y="28" stroke-linejoin="round" width="11" height="24" fill="rgb(99,133,214)" stroke="rgb(79,106,171)" stroke-width="1" opacity="0.75" />
			</g>
			<g>
				<title>CarboxypepD_reg (PF13620)
"Carboxypeptidase regulatory-like domain"</title>
				<rect class="PF13620" x="1332" y="28" stroke-linejoin="round" width="9" height="24" fill="rgb(201,63,96)" stroke="rgb(160,50,76)" stroke-width="1" opacity="0.75" />
			</g>
		</g>
		<g>
			<title> (ctg49_87)</title>
			<polygon class=" (ctg49_87)" points="1349,40 1357,10 1357,70" fill="rgb(255,255,255)" fill-opacity="1.0" stroke="rgb(0,0,0)" stroke-width="2"  />
		</g>
		<g>
			<title> (ctg49_88)</title>
			<polygon class=" (ctg49_88)" points="1357,40 1370,10 1370,70" fill="rgb(255,255,255)" fill-opacity="1.0" stroke="rgb(0,0,0)" stroke-width="2"  />
		</g>
		<g>
			<title> (ctg49_89)</title>
			<polygon class=" (ctg49_89)" points="1374,10 1400,40 1374,70" fill="rgb(255,255,255)" fill-opacity="1.0" stroke="rgb(0,0,0)" stroke-width="2"  />
			<g>
				<title>Inositol_P (PF00459)
"Inositol monophosphatase family"</title>
				<polygon class="PF00459" points="1374,28 1386,28 1396,40 1386,52 1374,52" stroke-linejoin="round" width="25" height="24" fill="rgb(67,210,137)" stroke="rgb(53,168,109)" stroke-width="1" opacity="0.75" />
			</g>
		</g>
		<g>
			<title> (ctg49_90)</title>
			<polygon class=" (ctg49_90)" points="1403,25 1411,25 1411,10 1441,40 1411,70 1411,55 1403,55" fill="rgb(255,255,255)" fill-opacity="1.0" stroke="rgb(0,0,0)" stroke-width="2"  />
			<g>
				<title>HupE_UreJ_2 (PF13795)
"HupE / UreJ protein"</title>
				<polygon class="PF13795" points="1424,28 1425,28 1437,40 1425,52 1424,52" stroke-linejoin="round" width="14" height="24" fill="rgb(86,181,190)" stroke="rgb(68,144,152)" stroke-width="1" opacity="0.75" />
			</g>
		</g>
		<g>
			<title> (ctg49_91)</title>
			<polygon class=" (ctg49_91)" points="1444,25 1449,25 1449,10 1479,40 1449,70 1449,55 1444,55" fill="rgb(255,255,255)" fill-opacity="1.0" stroke="rgb(0,0,0)" stroke-width="2"  />
			<g>
				<title>PmoA (PF14100)
"Methane oxygenase PmoA"</title>
				<polygon class="PF14100" points="1450,28 1462,28 1474,40 1462,52 1450,52" stroke-linejoin="round" width="27" height="24" fill="rgb(215,92,184)" stroke="rgb(172,73,147)" stroke-width="1" opacity="0.75" />
			</g>
		</g>
		<g>
			<title> (ctg49_92)</title>
			<polygon class=" (ctg49_92)" points="1488,40 1514,10 1514,70" fill="rgb(255,255,255)" fill-opacity="1.0" stroke="rgb(0,0,0)" stroke-width="2"  />
		</g>
		<g>
			<title> (ctg49_93)</title>
			<polygon class=" (ctg49_93)" points="1551,25 1545,25 1545,10 1515,40 1545,70 1545,55 1551,55" fill="rgb(255,255,255)" fill-opacity="1.0" stroke="rgb(0,0,0)" stroke-width="2"  />
		</g>
	</g>
</svg>
