<svg version="1.1" baseProfile="full" xmlns="http://www.w3.org/2000/svg" width="1151.4666666666667" height="80">
	<g>
		<line x1="10" y1="40.0" x2="1141.4666666666667" y2="40.0" style="stroke:rgb(70,70,70); stroke-width:3 "/>
		<g>
			<title> (ctg988_4)</title>
			<polygon class=" (ctg988_4)" points="44,25 78,25 78,10 108,40 78,70 78,55 44,55" fill="rgb(255,255,255)" fill-opacity="1.0" stroke="rgb(0,0,0)" stroke-width="2"  />
		</g>
		<g>
			<title> (ctg988_5)</title>
			<polygon class=" (ctg988_5)" points="125,25 186,25 186,10 216,40 186,70 186,55 125,55" fill="rgb(255,255,255)" fill-opacity="1.0" stroke="rgb(0,0,0)" stroke-width="2"  />
			<g>
				<title>Helicase_C (PF00271)
"Helicase conserved C-terminal domain"</title>
				<polygon class="PF00271" points="195,28 199,28 203,32 203,48 199,52 195,52" stroke-linejoin="round" width="8" height="24" fill="rgb(104,224,158)" stroke="rgb(83,179,126)" stroke-width="1" opacity="0.75" />
			</g>
		</g>
		<g>
			<title> (ctg988_6)</title>
			<polygon class=" (ctg988_6)" points="218,10 230,40 218,70" fill="rgb(255,255,255)" fill-opacity="1.0" stroke="rgb(0,0,0)" stroke-width="2"  />
		</g>
		<g>
			<title> (ctg988_7)</title>
			<polygon class=" (ctg988_7)" points="288,25 262,25 262,10 232,40 262,70 262,55 288,55" fill="rgb(255,255,255)" fill-opacity="1.0" stroke="rgb(0,0,0)" stroke-width="2"  />
			<g>
				<title>DUF885 (PF05960)
"Bacterial protein of unknown function (DUF885)"</title>
				<polygon class="PF05960" points="236,40 248,28 249,28 249,52 248,52" stroke-linejoin="round" width="16" height="24" fill="rgb(208,54,141)" stroke="rgb(166,43,112)" stroke-width="1" opacity="0.75" />
			</g>
			<g>
				<title>DUF885 (PF05960)
"Bacterial protein of unknown function (DUF885)"</title>
				<rect class="PF05960" x="252" y="28" stroke-linejoin="round" width="30" height="24" fill="rgb(208,54,141)" stroke="rgb(166,43,112)" stroke-width="1" opacity="0.75" />
			</g>
		</g>
		<g>
			<title> (ctg988_8)</title>
			<polygon class=" (ctg988_8)" points="352,25 319,25 319,10 289,40 319,70 319,55 352,55" fill="rgb(255,255,255)" fill-opacity="1.0" stroke="rgb(0,0,0)" stroke-width="2"  />
			<g>
				<title>PepX_C (PF08530)
"X-Pro dipeptidyl-peptidase C-terminal non-catalytic domain"</title>
				<polygon class="PF08530" points="293,40 305,28 311,28 311,52 305,52" stroke-linejoin="round" width="22" height="24" fill="rgb(210,70,92)" stroke="rgb(168,56,73)" stroke-width="1" opacity="0.75" />
			</g>
			<g>
				<title>Peptidase_S15 (PF02129)
"X-Pro dipeptidyl-peptidase (S15 family)"</title>
				<rect class="PF02129" x="313" y="28" stroke-linejoin="round" width="30" height="24" fill="rgb(210,171,79)" stroke="rgb(168,136,63)" stroke-width="1" opacity="0.75" />
			</g>
		</g>
		<g>
			<title> (ctg988_9)</title>
			<polygon class=" (ctg988_9)" points="357,40 365,10 365,70" fill="rgb(255,255,255)" fill-opacity="1.0" stroke="rgb(0,0,0)" stroke-width="2"  />
		</g>
		<g>
			<title> (ctg988_10)</title>
			<polygon class=" (ctg988_10)" points="366,10 374,40 366,70" fill="rgb(255,255,255)" fill-opacity="1.0" stroke="rgb(0,0,0)" stroke-width="2"  />
		</g>
		<g>
			<title> (ctg988_11)</title>
			<polygon class=" (ctg988_11)" points="378,10 397,40 378,70" fill="rgb(255,255,255)" fill-opacity="1.0" stroke="rgb(0,0,0)" stroke-width="2"  />
			<g>
				<title>Hydrolase_like (PF13242)
"HAD-hyrolase-like"</title>
				<polygon class="PF13242" points="388,31 394,40 388,49" stroke-linejoin="round" width="7" height="24" fill="rgb(202,89,70)" stroke="rgb(161,71,56)" stroke-width="1" opacity="0.75" />
			</g>
		</g>
		<g>
			<title> (ctg988_12)</title>
			<polygon class=" (ctg988_12)" points="398,25 402,25 402,10 432,40 402,70 402,55 398,55" fill="rgb(255,255,255)" fill-opacity="1.0" stroke="rgb(0,0,0)" stroke-width="2"  />
			<g>
				<title>PfkB (PF00294)
"pfkB family carbohydrate kinase"</title>
				<polygon class="PF00294" points="400,28 415,28 427,40 415,52 400,52" stroke-linejoin="round" width="30" height="24" fill="rgb(153,96,212)" stroke="rgb(122,76,169)" stroke-width="1" opacity="0.75" />
			</g>
		</g>
		<g>
			<title> (ctg988_13)</title>
			<polygon class=" (ctg988_13)" points="431,40 444,10 444,70" fill="rgb(255,255,255)" fill-opacity="1.0" stroke="rgb(0,0,0)" stroke-width="2"  />
		</g>
		<g>
			<title> (ctg988_14)</title>
			<polygon class=" (ctg988_14)" points="502,25 475,25 475,10 445,40 475,70 475,55 502,55" fill="rgb(255,255,255)" fill-opacity="1.0" stroke="rgb(0,0,0)" stroke-width="2"  />
			<g>
				<title>Amidase (PF01425)
"Amidase"</title>
				<polygon class="PF01425" points="449,40 461,28 487,28 487,52 461,52" stroke-linejoin="round" width="42" height="24" fill="rgb(195,142,64)" stroke="rgb(156,113,51)" stroke-width="1" opacity="0.75" />
			</g>
		</g>
		<g>
			<title> (ctg988_15)</title>
			<polygon class=" (ctg988_15)" points="532,25 532,25 532,10 502,40 532,70 532,55 532,55" fill="rgb(255,255,255)" fill-opacity="1.0" stroke="rgb(0,0,0)" stroke-width="2"  />
			<g>
				<title>Pro_dh (PF01619)
"Proline dehydrogenase"</title>
				<polygon class="PF01619" points="506,40 518,28 528,28 528,52 518,52" stroke-linejoin="round" width="26" height="24" fill="rgb(103,199,72)" stroke="rgb(82,159,57)" stroke-width="1" opacity="0.75" />
			</g>
		</g>
		<g>
			<title> (ctg988_16)</title>
			<polygon class=" (ctg988_16)" points="539,10 564,40 539,70" fill="rgb(255,255,255)" fill-opacity="1.0" stroke="rgb(0,0,0)" stroke-width="2"  />
			<g>
				<title>Creatininase (PF02633)
"Creatinine amidohydrolase"</title>
				<polygon class="PF02633" points="539,28 550,28 560,40 550,52 539,52" stroke-linejoin="round" width="24" height="24" fill="rgb(216,60,128)" stroke="rgb(172,47,102)" stroke-width="1" opacity="0.75" />
			</g>
		</g>
		<g>
			<title> (ctg988_17)</title>
			<polygon class=" (ctg988_17)" points="567,25 569,25 569,10 599,40 569,70 569,55 567,55" fill="rgb(255,255,255)" fill-opacity="1.0" stroke="rgb(0,0,0)" stroke-width="2"  />
			<g>
				<title>PALP (PF00291)
"Pyridoxal-phosphate dependent enzyme"</title>
				<polygon class="PF00291" points="568,28 583,28 595,40 583,52 568,52" stroke-linejoin="round" width="28" height="24" fill="rgb(180,55,145)" stroke="rgb(144,44,116)" stroke-width="1" opacity="0.75" />
			</g>
		</g>
		<g>
			<title> (ctg988_18)</title>
			<polygon class=" (ctg988_18)" points="602,10 624,40 602,70" fill="rgb(255,255,255)" fill-opacity="1.0" stroke="rgb(0,0,0)" stroke-width="2"  />
			<g>
				<title>Peptidase_M50B (PF13398)
"Peptidase M50B-like"</title>
				<polygon class="PF13398" points="603,28 611,28 620,40 611,52 603,52" stroke-linejoin="round" width="20" height="24" fill="rgb(182,98,63)" stroke="rgb(145,78,50)" stroke-width="1" opacity="0.75" />
			</g>
		</g>
		<g>
			<title> (ctg988_19)</title>
			<polygon class=" (ctg988_19)" points="631,10 641,40 631,70" fill="rgb(255,255,255)" fill-opacity="1.0" stroke="rgb(0,0,0)" stroke-width="2"  />
		</g>
		<g>
			<title> (ctg988_20)</title>
			<polygon class=" (ctg988_20)" points="641,40 647,10 647,70" fill="rgb(255,255,255)" fill-opacity="1.0" stroke="rgb(0,0,0)" stroke-width="2"  />
		</g>
		<g>
			<title> (ctg988_21)</title>
			<polygon class=" (ctg988_21)" points="658,40 665,10 665,70" fill="rgb(255,255,255)" fill-opacity="1.0" stroke="rgb(0,0,0)" stroke-width="2"  />
		</g>
		<g>
			<title> (ctg988_22)</title>
			<polygon class=" (ctg988_22)" points="669,40 674,10 674,70" fill="rgb(255,255,255)" fill-opacity="1.0" stroke="rgb(0,0,0)" stroke-width="2"  />
		</g>
		<g>
			<title> (ctg988_23)</title>
			<polygon class=" (ctg988_23)" points="676,25 787,25 787,10 817,40 787,70 787,55 676,55" fill="rgb(255,255,255)" fill-opacity="1.0" stroke="rgb(0,0,0)" stroke-width="2"  />
			<g>
				<title>Ketoacyl-synt_C (PF02801)
"Beta-ketoacyl synthase, C-terminal domain"</title>
				<rect class="PF02801" x="676" y="28" stroke-linejoin="round" width="7" height="24" fill="rgb(215,78,102)" stroke="rgb(172,62,81)" stroke-width="1" opacity="0.75" />
			</g>
			<g>
				<title>KAsynt_C_assoc (PF16197)
"Ketoacyl-synthetase C-terminal extension"</title>
				<rect class="PF16197" x="683" y="28" stroke-linejoin="round" width="13" height="24" fill="rgb(240,150,172)" stroke="rgb(192,120,137)" stroke-width="1" opacity="0.75" />
			</g>
			<g>
				<title>Acyl_transf_1 (PF00698)
"Acyl transferase domain"</title>
				<rect class="PF00698" x="702" y="28" stroke-linejoin="round" width="31" height="24" fill="rgb(59,176,209)" stroke="rgb(47,140,167)" stroke-width="1" opacity="0.75" />
			</g>
			<g>
				<title>PS-DH (PF14765)
"Polyketide synthase dehydratase"</title>
				<rect class="PF14765" x="739" y="28" stroke-linejoin="round" width="29" height="24" fill="rgb(173,56,182)" stroke="rgb(138,44,145)" stroke-width="1" opacity="0.75" />
			</g>
			<g>
				<title>Methyltransf_12 (PF08242)
"Methyltransferase domain"</title>
				<polygon class="PF08242" points="792,28 801,28 802,29 802,51 801,52 792,52" stroke-linejoin="round" width="10" height="24" fill="rgb(187,59,115)" stroke="rgb(149,47,92)" stroke-width="1" opacity="0.75" />
			</g>
		</g>
		<g>
			<title> (ctg988_24)</title>
			<polygon class=" (ctg988_24)" points="816,25 958,25 958,10 988,40 958,70 958,55 816,55" fill="rgb(255,255,255)" fill-opacity="1.0" stroke="rgb(0,0,0)" stroke-width="2"  />
			<g>
				<title>ADH_zinc_N_2 (PF13602)
"Zinc-binding dehydrogenase"</title>
				<rect class="PF13602" x="850" y="28" stroke-linejoin="round" width="13" height="24" fill="rgb(101,131,226)" stroke="rgb(80,104,180)" stroke-width="1" opacity="0.75" />
			</g>
			<g>
				<title>KR (PF08659)
"KR domain"</title>
				<rect class="PF08659" x="865" y="28" stroke-linejoin="round" width="17" height="24" fill="rgb(66,209,188)" stroke="rgb(52,167,150)" stroke-width="1" opacity="0.75" />
			</g>
			<g>
				<title>PP-binding (PF00550)
"Phosphopantetheine attachment site"</title>
				<rect class="PF00550" x="893" y="28" stroke-linejoin="round" width="6" height="24" fill="rgb(103,191,88)" stroke="rgb(82,152,70)" stroke-width="1" opacity="0.75" />
			</g>
			<g>
				<title>ketoacyl-synt (PF00109)
"Beta-ketoacyl synthase, N-terminal domain"</title>
				<rect class="PF00109" x="903" y="28" stroke-linejoin="round" width="24" height="24" fill="rgb(112,116,228)" stroke="rgb(89,92,182)" stroke-width="1" opacity="0.75" />
			</g>
			<g>
				<title>Ketoacyl-synt_C (PF02801)
"Beta-ketoacyl synthase, C-terminal domain"</title>
				<rect class="PF02801" x="928" y="28" stroke-linejoin="round" width="11" height="24" fill="rgb(215,78,102)" stroke="rgb(172,62,81)" stroke-width="1" opacity="0.75" />
			</g>
			<g>
				<title>KAsynt_C_assoc (PF16197)
"Ketoacyl-synthetase C-terminal extension"</title>
				<rect class="PF16197" x="940" y="28" stroke-linejoin="round" width="14" height="24" fill="rgb(240,150,172)" stroke="rgb(192,120,137)" stroke-width="1" opacity="0.75" />
			</g>
			<g>
				<title>Acyl_transf_1 (PF00698)
"Acyl transferase domain"</title>
				<polygon class="PF00698" points="959,28 971,28 980,37 980,43 971,52 959,52" stroke-linejoin="round" width="21" height="24" fill="rgb(59,176,209)" stroke="rgb(47,140,167)" stroke-width="1" opacity="0.75" />
			</g>
		</g>
		<g>
			<title> (ctg988_25)</title>
			<polygon class=" (ctg988_25)" points="988,25 1016,25 1016,10 1046,40 1016,70 1016,55 988,55" fill="rgb(255,255,255)" fill-opacity="1.0" stroke="rgb(0,0,0)" stroke-width="2"  />
			<g>
				<title>Xan_ur_permease (PF00860)
"Permease family"</title>
				<rect class="PF00860" x="990" y="28" stroke-linejoin="round" width="38" height="24" fill="rgb(216,88,217)" stroke="rgb(172,70,173)" stroke-width="1" opacity="0.75" />
			</g>
		</g>
		<g>
			<title> (ctg988_26)</title>
			<polygon class=" (ctg988_26)" points="1050,10 1064,40 1050,70" fill="rgb(255,255,255)" fill-opacity="1.0" stroke="rgb(0,0,0)" stroke-width="2"  />
			<g>
				<title>DUF1761 (PF08570)
"Protein of unknown function (DUF1761)"</title>
				<polygon class="PF08570" points="1050,28 1055,28 1061,40 1055,52 1050,52" stroke-linejoin="round" width="13" height="24" fill="rgb(191,183,51)" stroke="rgb(152,146,40)" stroke-width="1" opacity="0.75" />
			</g>
		</g>
		<g>
			<title> (ctg988_27)</title>
			<polygon class=" (ctg988_27)" points="1100,25 1100,25 1100,10 1070,40 1100,70 1100,55 1100,55" fill="rgb(255,255,255)" fill-opacity="1.0" stroke="rgb(0,0,0)" stroke-width="2"  />
			<g>
				<title>Abhydrolase_6 (PF12697)
"Alpha/beta hydrolase family"</title>
				<polygon class="PF12697" points="1074,40 1086,28 1096,28 1096,52 1086,52" stroke-linejoin="round" width="25" height="24" fill="rgb(113,71,219)" stroke="rgb(90,56,175)" stroke-width="1" opacity="0.75" />
			</g>
		</g>
		<g>
			<title> (ctg988_28)</title>
			<polygon class=" (ctg988_28)" points="1103,40 1113,10 1113,70" fill="rgb(255,255,255)" fill-opacity="1.0" stroke="rgb(0,0,0)" stroke-width="2"  />
			<g>
				<title>PP-binding (PF00550)
"Phosphopantetheine attachment site"</title>
				<polygon class="PF00550" points="1106,40 1109,32 1109,48" stroke-linejoin="round" width="6" height="24" fill="rgb(103,191,88)" stroke="rgb(82,152,70)" stroke-width="1" opacity="0.75" />
			</g>
		</g>
		<g>
			<title> (ctg988_29)</title>
			<polygon class=" (ctg988_29)" points="1115,40 1140,10 1140,70" fill="rgb(255,255,255)" fill-opacity="1.0" stroke="rgb(0,0,0)" stroke-width="2"  />
			<g>
				<title>PD40 (PF07676)
"WD40-like Beta Propeller Repeat"</title>
				<polygon class="PF07676" points="1119,40 1118,41 1118,39" stroke-linejoin="round" width="2" height="24" fill="rgb(49,78,191)" stroke="rgb(39,62,152)" stroke-width="1" opacity="0.75" />
			</g>
			<g>
				<title>PD40 (PF07676)
"WD40-like Beta Propeller Repeat"</title>
				<polygon class="PF07676" points="1119,40 1122,36 1122,44 1119,40" stroke-linejoin="round" width="3" height="24" fill="rgb(49,78,191)" stroke="rgb(39,62,152)" stroke-width="1" opacity="0.75" />
			</g>
			<g>
				<title>PD40 (PF07676)
"WD40-like Beta Propeller Repeat"</title>
				<polygon class="PF07676" points="1129,28 1129,28 1133,28 1133,52 1129,52 1129,52" stroke-linejoin="round" width="4" height="24" fill="rgb(49,78,191)" stroke="rgb(39,62,152)" stroke-width="1" opacity="0.75" />
			</g>
		</g>
		<g>
			<title> (ctg988_30)</title>
			<polygon class=" (ctg988_30)" points="1138,40 1141,10 1141,70" fill="rgb(255,255,255)" fill-opacity="1.0" stroke="rgb(0,0,0)" stroke-width="2"  />
		</g>
	</g>
</svg>
