<svg version="1.1" baseProfile="full" xmlns="http://www.w3.org/2000/svg" width="719.2666666666667" height="80">
	<g>
		<line x1="10" y1="40.0" x2="709.2666666666667" y2="40.0" style="stroke:rgb(70,70,70); stroke-width:3 "/>
		<g>
			<title> (ctg155_40)</title>
			<polygon class=" (ctg155_40)" points="13,10 23,40 13,70" fill="rgb(255,255,255)" fill-opacity="1.0" stroke="rgb(0,0,0)" stroke-width="2"  />
		</g>
		<g>
			<title> (ctg155_41)</title>
			<polygon class=" (ctg155_41)" points="35,40 63,10 63,70" fill="rgb(255,255,255)" fill-opacity="1.0" stroke="rgb(0,0,0)" stroke-width="2"  />
			<g>
				<title>HTH_32 (PF13565)
"Homeodomain-like domain"</title>
				<polygon class="PF13565" points="50,28 50,28 57,28 57,52 50,52 50,52" stroke-linejoin="round" width="7" height="24" fill="rgb(89,225,112)" stroke="rgb(71,180,89)" stroke-width="1" opacity="0.75" />
			</g>
		</g>
		<g>
			<title> (ctg155_42)</title>
			<polygon class=" (ctg155_42)" points="104,40 121,10 121,70" fill="rgb(255,255,255)" fill-opacity="1.0" stroke="rgb(0,0,0)" stroke-width="2"  />
		</g>
		<g>
			<title> (ctg155_43)</title>
			<polygon class=" (ctg155_43)" points="127,10 136,40 127,70" fill="rgb(255,255,255)" fill-opacity="1.0" stroke="rgb(0,0,0)" stroke-width="2"  />
		</g>
		<g>
			<title> (ctg155_44)</title>
			<polygon class=" (ctg155_44)" points="136,40 146,10 146,70" fill="rgb(255,255,255)" fill-opacity="1.0" stroke="rgb(0,0,0)" stroke-width="2"  />
		</g>
		<g>
			<title> (ctg155_45)</title>
			<polygon class=" (ctg155_45)" points="153,10 157,40 153,70" fill="rgb(255,255,255)" fill-opacity="1.0" stroke="rgb(0,0,0)" stroke-width="2"  />
		</g>
		<g>
			<title> (ctg155_46)</title>
			<polygon class=" (ctg155_46)" points="215,25 200,25 200,10 170,40 200,70 200,55 215,55" fill="rgb(255,255,255)" fill-opacity="1.0" stroke="rgb(0,0,0)" stroke-width="2"  />
			<g>
				<title>SusD_RagB (PF07980)
"SusD family"</title>
				<polygon class="PF07980" points="174,40 185,29 185,51" stroke-linejoin="round" width="15" height="24" fill="rgb(226,135,61)" stroke="rgb(180,108,48)" stroke-width="1" opacity="0.75" />
			</g>
		</g>
		<g>
			<title> (ctg155_47)</title>
			<polygon class=" (ctg155_47)" points="314,25 246,25 246,10 216,40 246,70 246,55 314,55" fill="rgb(255,255,255)" fill-opacity="1.0" stroke="rgb(0,0,0)" stroke-width="2"  />
			<g>
				<title>TonB_dep_Rec (PF00593)
"TonB dependent receptor"</title>
				<polygon class="PF00593" points="228,32 232,28 275,28 275,52 232,52 228,48" stroke-linejoin="round" width="47" height="24" fill="rgb(171,200,51)" stroke="rgb(136,160,40)" stroke-width="1" opacity="0.75" />
			</g>
			<g>
				<title>Plug (PF07715)
"TonB-dependent Receptor Plug Domain"</title>
				<rect class="PF07715" x="288" y="28" stroke-linejoin="round" width="12" height="24" fill="rgb(99,133,214)" stroke="rgb(79,106,171)" stroke-width="1" opacity="0.75" />
			</g>
			<g>
				<title>CarbopepD_reg_2 (PF13715)
"CarboxypepD_reg-like domain"</title>
				<rect class="PF13715" x="301" y="28" stroke-linejoin="round" width="8" height="24" fill="rgb(198,51,128)" stroke="rgb(158,40,102)" stroke-width="1" opacity="0.75" />
			</g>
		</g>
		<g>
			<title> (ctg155_48)</title>
			<polygon class=" (ctg155_48)" points="322,40 339,10 339,70" fill="rgb(255,255,255)" fill-opacity="1.0" stroke="rgb(0,0,0)" stroke-width="2"  />
		</g>
		<g>
			<title> (ctg155_49)</title>
			<polygon class=" (ctg155_49)" points="343,25 345,25 345,10 375,40 345,70 345,55 343,55" fill="rgb(255,255,255)" fill-opacity="1.0" stroke="rgb(0,0,0)" stroke-width="2"  />
			<g>
				<title>SQS_PSY (PF00494)
"Squalene/phytoene synthase"</title>
				<polygon class="PF00494" points="343,28 359,28 371,40 371,40 359,52 343,52" stroke-linejoin="round" width="28" height="24" fill="rgb(178,91,49)" stroke="rgb(142,72,39)" stroke-width="1" opacity="0.75" />
			</g>
		</g>
		<g>
			<title> (ctg155_50)</title>
			<polygon class=" (ctg155_50)" points="375,25 383,25 383,10 413,40 383,70 383,55 375,55" fill="rgb(255,255,255)" fill-opacity="1.0" stroke="rgb(0,0,0)" stroke-width="2"  />
			<g>
				<title>Aminotran_5 (PF00266)
"Aminotransferase class-V"</title>
				<polygon class="PF00266" points="376,28 397,28 409,40 409,40 397,52 376,52" stroke-linejoin="round" width="33" height="24" fill="rgb(214,54,122)" stroke="rgb(171,43,97)" stroke-width="1" opacity="0.75" />
			</g>
		</g>
		<g>
			<title> (ctg155_51)</title>
			<polygon class=" (ctg155_51)" points="417,25 474,25 474,10 504,40 474,70 474,55 417,55" fill="rgb(255,255,255)" fill-opacity="1.0" stroke="rgb(0,0,0)" stroke-width="2"  />
			<g>
				<title>DUF5117 (PF17148)
"Domain of unknown function (DUF5117)"</title>
				<rect class="PF17148" x="427" y="28" stroke-linejoin="round" width="20" height="24" fill="rgb(105,217,142)" stroke="rgb(84,173,113)" stroke-width="1" opacity="0.75" />
			</g>
			<g>
				<title>DUF4953 (PF16313)
"Met-zincin"</title>
				<polygon class="PF16313" points="460,28 488,28 490,30 490,50 488,52 460,52" stroke-linejoin="round" width="30" height="24" fill="rgb(147,83,182)" stroke="rgb(117,66,145)" stroke-width="1" opacity="0.75" />
			</g>
		</g>
		<g>
			<title> (ctg155_52)</title>
			<polygon class=" (ctg155_52)" points="546,25 537,25 537,10 507,40 537,70 537,55 546,55" fill="rgb(255,255,255)" fill-opacity="1.0" stroke="rgb(0,0,0)" stroke-width="2"  />
			<g>
				<title>Plug (PF07715)
"TonB-dependent Receptor Plug Domain"</title>
				<polygon class="PF07715" points="523,28 523,28 533,28 533,52 523,52 523,52" stroke-linejoin="round" width="10" height="24" fill="rgb(99,133,214)" stroke="rgb(79,106,171)" stroke-width="1" opacity="0.75" />
			</g>
			<g>
				<title>CarbopepD_reg_2 (PF13715)
"CarboxypepD_reg-like domain"</title>
				<rect class="PF13715" x="535" y="28" stroke-linejoin="round" width="8" height="24" fill="rgb(198,51,128)" stroke="rgb(158,40,102)" stroke-width="1" opacity="0.75" />
			</g>
		</g>
		<g>
			<title> (ctg155_53)</title>
			<polygon class=" (ctg155_53)" points="601,25 584,25 584,10 554,40 584,70 584,55 601,55" fill="rgb(255,255,255)" fill-opacity="1.0" stroke="rgb(0,0,0)" stroke-width="2"  />
			<g>
				<title>MatE (PF01554)
"MatE"</title>
				<polygon class="PF01554" points="559,39 570,28 575,28 575,52 570,52 559,41" stroke-linejoin="round" width="16" height="24" fill="rgb(187,69,173)" stroke="rgb(149,55,138)" stroke-width="1" opacity="0.75" />
			</g>
			<g>
				<title>MatE (PF01554)
"MatE"</title>
				<rect class="PF01554" x="582" y="28" stroke-linejoin="round" width="16" height="24" fill="rgb(187,69,173)" stroke="rgb(149,55,138)" stroke-width="1" opacity="0.75" />
			</g>
		</g>
		<g>
			<title> (ctg155_54)</title>
			<polygon class=" (ctg155_54)" points="602,40 627,10 627,70" fill="rgb(255,255,255)" fill-opacity="1.0" stroke="rgb(0,0,0)" stroke-width="2"  />
			<g>
				<title>Fer4_8 (PF13183)
"4Fe-4S dicluster domain"</title>
				<polygon class="PF13183" points="606,40 612,33 612,47" stroke-linejoin="round" width="7" height="24" fill="rgb(180,196,91)" stroke="rgb(144,156,72)" stroke-width="1" opacity="0.75" />
			</g>
			<g>
				<title>Fer2_3 (PF13085)
"2Fe-2S iron-sulfur cluster binding domain"</title>
				<polygon class="PF13085" points="616,28 616,28 626,28 626,52 616,52 616,52" stroke-linejoin="round" width="10" height="24" fill="rgb(214,154,54)" stroke="rgb(171,123,43)" stroke-width="1" opacity="0.75" />
			</g>
		</g>
		<g>
			<title> (ctg155_55)</title>
			<polygon class=" (ctg155_55)" points="688,25 658,25 658,10 628,40 658,70 658,55 688,55" fill="rgb(255,255,255)" fill-opacity="1.0" stroke="rgb(0,0,0)" stroke-width="2"  />
			<g>
				<title>Succ_DH_flav_C (PF02910)
"Fumarate reductase flavoprotein C-term"</title>
				<polygon class="PF02910" points="632,40 640,32 640,48" stroke-linejoin="round" width="12" height="24" fill="rgb(140,80,199)" stroke="rgb(112,64,159)" stroke-width="1" opacity="0.75" />
			</g>
			<g>
				<title>FAD_binding_2 (PF00890)
"FAD binding domain"</title>
				<rect class="PF00890" x="646" y="28" stroke-linejoin="round" width="41" height="24" fill="rgb(63,199,116)" stroke="rgb(50,159,92)" stroke-width="1" opacity="0.75" />
			</g>
		</g>
	</g>
</svg>
