<svg version="1.1" baseProfile="full" xmlns="http://www.w3.org/2000/svg" width="722.1666666666666" height="80">
	<g>
		<line x1="10" y1="40.0" x2="712.1666666666666" y2="40.0" style="stroke:rgb(70,70,70); stroke-width:3 "/>
		<g>
			<title> (ctg1269_2)</title>
			<polygon class=" (ctg1269_2)" points="14,25 44,25 44,10 74,40 44,70 44,55 14,55" fill="rgb(255,255,255)" fill-opacity="1.0" stroke="rgb(0,0,0)" stroke-width="2"  />
			<g>
				<title>HATPase_c_3 (PF13589)
"Histidine kinase-, DNA gyrase B-, and HSP90-like ATPase"</title>
				<rect class="PF13589" x="16" y="28" stroke-linejoin="round" width="11" height="24" fill="rgb(220,68,225)" stroke="rgb(176,54,180)" stroke-width="1" opacity="0.75" />
			</g>
			<g>
				<title>DNA_mis_repair (PF01119)
"DNA mismatch repair protein, C-terminal domain"</title>
				<rect class="PF01119" x="35" y="28" stroke-linejoin="round" width="11" height="24" fill="rgb(124,63,207)" stroke="rgb(99,50,165)" stroke-width="1" opacity="0.75" />
			</g>
			<g>
				<title>MutL_C (PF08676)
"MutL C terminal dimerisation domain"</title>
				<polygon class="PF08676" points="55,28 58,28 69,39 69,41 58,52 55,52" stroke-linejoin="round" width="14" height="24" fill="rgb(206,165,100)" stroke="rgb(164,132,80)" stroke-width="1" opacity="0.75" />
			</g>
		</g>
		<g>
			<title> (ctg1269_3)</title>
			<polygon class=" (ctg1269_3)" points="87,25 120,25 120,10 150,40 120,70 120,55 87,55" fill="rgb(255,255,255)" fill-opacity="1.0" stroke="rgb(0,0,0)" stroke-width="2"  />
			<g>
				<title>PQQ_2 (PF13360)
"PQQ-like domain"</title>
				<rect class="PF13360" x="89" y="28" stroke-linejoin="round" width="19" height="24" fill="rgb(98,210,146)" stroke="rgb(78,168,116)" stroke-width="1" opacity="0.75" />
			</g>
			<g>
				<title>PQQ (PF01011)
"PQQ enzyme repeat"</title>
				<rect class="PF01011" x="114" y="28" stroke-linejoin="round" width="2" height="24" fill="rgb(223,77,129)" stroke="rgb(178,61,103)" stroke-width="1" opacity="0.75" />
			</g>
			<g>
				<title>PQQ (PF01011)
"PQQ enzyme repeat"</title>
				<polygon class="PF01011" points="136,30 139,33 139,47 136,50" stroke-linejoin="round" width="3" height="24" fill="rgb(223,77,129)" stroke="rgb(178,61,103)" stroke-width="1" opacity="0.75" />
			</g>
		</g>
		<g>
			<title> (ctg1269_4)</title>
			<polygon class=" (ctg1269_4)" points="151,25 159,25 159,10 189,40 159,70 159,55 151,55" fill="rgb(255,255,255)" fill-opacity="1.0" stroke="rgb(0,0,0)" stroke-width="2"  />
			<g>
				<title>DUF2236 (PF09995)
"Uncharacterized protein conserved in bacteria (DUF2236)"</title>
				<polygon class="PF09995" points="161,28 173,28 185,40 185,40 173,52 161,52" stroke-linejoin="round" width="24" height="24" fill="rgb(194,179,92)" stroke="rgb(155,143,73)" stroke-width="1" opacity="0.75" />
			</g>
		</g>
		<g>
			<title> (ctg1269_5)</title>
			<polygon class=" (ctg1269_5)" points="190,25 191,25 191,10 221,40 191,70 191,55 190,55" fill="rgb(255,255,255)" fill-opacity="1.0" stroke="rgb(0,0,0)" stroke-width="2"  />
			<g>
				<title>LolA_like (PF17131)
"Outer membrane lipoprotein-sorting protein"</title>
				<polygon class="PF17131" points="203,28 205,28 217,40 205,52 203,52" stroke-linejoin="round" width="18" height="24" fill="rgb(189,100,83)" stroke="rgb(151,80,66)" stroke-width="1" opacity="0.75" />
			</g>
		</g>
		<g>
			<title> (ctg1269_6)</title>
			<polygon class=" (ctg1269_6)" points="222,25 234,25 234,10 264,40 234,70 234,55 222,55" fill="rgb(255,255,255)" fill-opacity="1.0" stroke="rgb(0,0,0)" stroke-width="2"  />
		</g>
		<g>
			<title> (ctg1269_7)</title>
			<polygon class=" (ctg1269_7)" points="266,25 312,25 312,10 342,40 312,70 312,55 266,55" fill="rgb(255,255,255)" fill-opacity="1.0" stroke="rgb(0,0,0)" stroke-width="2"  />
			<g>
				<title>MMPL (PF03176)
"MMPL family"</title>
				<rect class="PF03176" x="272" y="28" stroke-linejoin="round" width="35" height="24" fill="rgb(228,109,193)" stroke="rgb(182,87,154)" stroke-width="1" opacity="0.75" />
			</g>
			<g>
				<title>MMPL (PF03176)
"MMPL family"</title>
				<polygon class="PF03176" points="310,28 326,28 338,40 326,52 310,52" stroke-linejoin="round" width="32" height="24" fill="rgb(228,109,193)" stroke="rgb(182,87,154)" stroke-width="1" opacity="0.75" />
			</g>
		</g>
		<g>
			<title> (ctg1269_8)</title>
			<polygon class=" (ctg1269_8)" points="378,25 373,25 373,10 343,40 373,70 373,55 378,55" fill="rgb(255,255,255)" fill-opacity="1.0" stroke="rgb(0,0,0)" stroke-width="2"  />
			<g>
				<title>SQS_PSY (PF00494)
"Squalene/phytoene synthase"</title>
				<polygon class="PF00494" points="347,40 359,28 376,28 376,52 359,52 347,40" stroke-linejoin="round" width="29" height="24" fill="rgb(178,91,49)" stroke="rgb(142,72,39)" stroke-width="1" opacity="0.75" />
			</g>
		</g>
		<g>
			<title> (ctg1269_9)</title>
			<polygon class=" (ctg1269_9)" points="383,25 422,25 422,10 452,40 422,70 422,55 383,55" fill="rgb(255,255,255)" fill-opacity="1.0" stroke="rgb(0,0,0)" stroke-width="2"  />
			<g>
				<title>PQQ_2 (PF13360)
"PQQ-like domain"</title>
				<rect class="PF13360" x="391" y="28" stroke-linejoin="round" width="21" height="24" fill="rgb(98,210,146)" stroke="rgb(78,168,116)" stroke-width="1" opacity="0.75" />
			</g>
		</g>
		<g>
			<title> (ctg1269_10)</title>
			<polygon class=" (ctg1269_10)" points="451,40 463,10 463,70" fill="rgb(255,255,255)" fill-opacity="1.0" stroke="rgb(0,0,0)" stroke-width="2"  />
			<g>
				<title>PIN (PF01850)
"PIN domain"</title>
				<polygon class="PF01850" points="454,40 459,28 462,28 462,52 459,52" stroke-linejoin="round" width="10" height="24" fill="rgb(91,217,126)" stroke="rgb(72,173,100)" stroke-width="1" opacity="0.75" />
			</g>
		</g>
		<g>
			<title> (ctg1269_11)</title>
			<polygon class=" (ctg1269_11)" points="464,40 472,10 472,70" fill="rgb(255,255,255)" fill-opacity="1.0" stroke="rgb(0,0,0)" stroke-width="2"  />
			<g>
				<title>RHH_1 (PF01402)
"Ribbon-helix-helix protein, copG family"</title>
				<polygon class="PF01402" points="467,40 470,28 470,28 470,52 470,52 467,40" stroke-linejoin="round" width="3" height="24" fill="rgb(104,197,67)" stroke="rgb(83,157,53)" stroke-width="1" opacity="0.75" />
			</g>
		</g>
		<g>
			<title> (ctg1269_12)</title>
			<polygon class=" (ctg1269_12)" points="516,25 504,25 504,10 474,40 504,70 504,55 516,55" fill="rgb(255,255,255)" fill-opacity="1.0" stroke="rgb(0,0,0)" stroke-width="2"  />
			<g>
				<title>PQQ_2 (PF13360)
"PQQ-like domain"</title>
				<polygon class="PF13360" points="481,37 490,28 503,28 503,52 490,52 481,43" stroke-linejoin="round" width="22" height="24" fill="rgb(98,210,146)" stroke="rgb(78,168,116)" stroke-width="1" opacity="0.75" />
			</g>
		</g>
		<g>
			<title> (ctg1269_13)</title>
			<polygon class=" (ctg1269_13)" points="518,10 529,40 518,70" fill="rgb(255,255,255)" fill-opacity="1.0" stroke="rgb(0,0,0)" stroke-width="2"  />
		</g>
		<g>
			<title> (ctg1269_14)</title>
			<polygon class=" (ctg1269_14)" points="532,10 540,40 532,70" fill="rgb(255,255,255)" fill-opacity="1.0" stroke="rgb(0,0,0)" stroke-width="2"  />
			<g>
				<title>RHH_1 (PF01402)
"Ribbon-helix-helix protein, copG family"</title>
				<polygon class="PF01402" points="532,28 533,28 535,32 535,48 533,52 532,52" stroke-linejoin="round" width="3" height="24" fill="rgb(104,197,67)" stroke="rgb(83,157,53)" stroke-width="1" opacity="0.75" />
			</g>
		</g>
		<g>
			<title> (ctg1269_15)</title>
			<polygon class=" (ctg1269_15)" points="541,10 555,40 541,70" fill="rgb(255,255,255)" fill-opacity="1.0" stroke="rgb(0,0,0)" stroke-width="2"  />
			<g>
				<title>PIN (PF01850)
"PIN domain"</title>
				<polygon class="PF01850" points="541,28 546,28 552,40 546,52 541,52" stroke-linejoin="round" width="13" height="24" fill="rgb(91,217,126)" stroke="rgb(72,173,100)" stroke-width="1" opacity="0.75" />
			</g>
		</g>
		<g>
			<title> (ctg1269_16)</title>
			<polygon class=" (ctg1269_16)" points="560,10 589,40 560,70" fill="rgb(255,255,255)" fill-opacity="1.0" stroke="rgb(0,0,0)" stroke-width="2"  />
			<g>
				<title>Lactamase_B (PF00753)
"Metallo-beta-lactamase superfamily"</title>
				<polygon class="PF00753" points="564,28 572,28 580,35 580,45 572,52 564,52" stroke-linejoin="round" width="16" height="24" fill="rgb(206,198,96)" stroke="rgb(164,158,76)" stroke-width="1" opacity="0.75" />
			</g>
		</g>
		<g>
			<title> (ctg1269_17)</title>
			<polygon class=" (ctg1269_17)" points="590,25 627,25 627,10 657,40 627,70 627,55 590,55" fill="rgb(255,255,255)" fill-opacity="1.0" stroke="rgb(0,0,0)" stroke-width="2"  />
			<g>
				<title>PQQ_2 (PF13360)
"PQQ-like domain"</title>
				<rect class="PF13360" x="596" y="28" stroke-linejoin="round" width="20" height="24" fill="rgb(98,210,146)" stroke="rgb(78,168,116)" stroke-width="1" opacity="0.75" />
			</g>
		</g>
		<g>
			<title> (ctg1269_18)</title>
			<polygon class=" (ctg1269_18)" points="662,25 672,25 672,10 702,40 672,70 672,55 662,55" fill="rgb(255,255,255)" fill-opacity="1.0" stroke="rgb(0,0,0)" stroke-width="2"  />
			<g>
				<title>DUF4143 (PF13635)
"Domain of unknown function (DUF4143)"</title>
				<polygon class="PF13635" points="675,28 686,28 697,39 697,41 686,52 675,52" stroke-linejoin="round" width="22" height="24" fill="rgb(119,89,210)" stroke="rgb(95,71,168)" stroke-width="1" opacity="0.75" />
			</g>
		</g>
	</g>
</svg>
