<svg version="1.1" baseProfile="full" xmlns="http://www.w3.org/2000/svg" width="659.3" height="80">
	<g>
		<line x1="10" y1="40.0" x2="649.3" y2="40.0" style="stroke:rgb(70,70,70); stroke-width:3 "/>
		<g>
			<title> (ctg2253_1)</title>
			<polygon class=" (ctg2253_1)" points="11,40 33,10 33,70" fill="rgb(255,255,255)" fill-opacity="1.0" stroke="rgb(0,0,0)" stroke-width="2"  />
			<g>
				<title>PD40 (PF07676)
"WD40-like Beta Propeller Repeat"</title>
				<polygon class="PF07676" points="21,32 22,31 22,49 21,48" stroke-linejoin="round" width="1" height="24" fill="rgb(49,78,191)" stroke="rgb(39,62,152)" stroke-width="1" opacity="0.75" />
			</g>
		</g>
		<g>
			<title> (ctg2253_2)</title>
			<polygon class=" (ctg2253_2)" points="184,25 65,25 65,10 35,40 65,70 65,55 184,55" fill="rgb(255,255,255)" fill-opacity="1.0" stroke="rgb(0,0,0)" stroke-width="2"  />
			<g>
				<title>DEAD_assoc (PF08494)
"DEAD/H associated"</title>
				<rect class="PF08494" x="93" y="28" stroke-linejoin="round" width="20" height="24" fill="rgb(106,184,217)" stroke="rgb(84,147,173)" stroke-width="1" opacity="0.75" />
			</g>
			<g>
				<title>Helicase_C (PF00271)
"Helicase conserved C-terminal domain"</title>
				<rect class="PF00271" x="140" y="28" stroke-linejoin="round" width="11" height="24" fill="rgb(104,224,158)" stroke="rgb(83,179,126)" stroke-width="1" opacity="0.75" />
			</g>
			<g>
				<title>DEAD (PF00270)
"DEAD/DEAH box helicase"</title>
				<rect class="PF00270" x="161" y="28" stroke-linejoin="round" width="19" height="24" fill="rgb(195,100,62)" stroke="rgb(156,80,49)" stroke-width="1" opacity="0.75" />
			</g>
		</g>
		<g>
			<title> (ctg2253_3)</title>
			<polygon class=" (ctg2253_3)" points="235,25 219,25 219,10 189,40 219,70 219,55 235,55" fill="rgb(255,255,255)" fill-opacity="1.0" stroke="rgb(0,0,0)" stroke-width="2"  />
			<g>
				<title>HATPase_c_4 (PF13749)
"Putative ATP-dependent DNA helicase recG C-terminal"</title>
				<polygon class="PF13749" points="197,36 205,28 205,28 205,52 205,52 197,44" stroke-linejoin="round" width="8" height="24" fill="rgb(216,98,162)" stroke="rgb(172,78,129)" stroke-width="1" opacity="0.75" />
			</g>
			<g>
				<title>AlbA_2 (PF04326)
"Putative DNA-binding domain"</title>
				<rect class="PF04326" x="222" y="28" stroke-linejoin="round" width="11" height="24" fill="rgb(156,198,86)" stroke="rgb(124,158,68)" stroke-width="1" opacity="0.75" />
			</g>
		</g>
		<g>
			<title> (ctg2253_4)</title>
			<polygon class=" (ctg2253_4)" points="241,25 277,25 277,10 307,40 277,70 277,55 241,55" fill="rgb(255,255,255)" fill-opacity="1.0" stroke="rgb(0,0,0)" stroke-width="2"  />
			<g>
				<title>PAS_3 (PF08447)
"PAS fold"</title>
				<rect class="PF08447" x="245" y="28" stroke-linejoin="round" width="8" height="24" fill="rgb(222,97,193)" stroke="rgb(177,77,154)" stroke-width="1" opacity="0.75" />
			</g>
			<g>
				<title>HisKA (PF00512)
"His Kinase A (phospho-acceptor) domain"</title>
				<rect class="PF00512" x="257" y="28" stroke-linejoin="round" width="6" height="24" fill="rgb(193,125,62)" stroke="rgb(154,100,49)" stroke-width="1" opacity="0.75" />
			</g>
			<g>
				<title>HATPase_c (PF02518)
"Histidine kinase-, DNA gyrase B-, and HSP90-like ATPase"</title>
				<rect class="PF02518" x="268" y="28" stroke-linejoin="round" width="11" height="24" fill="rgb(80,94,225)" stroke="rgb(64,75,180)" stroke-width="1" opacity="0.75" />
			</g>
			<g>
				<title>Response_reg (PF00072)
"Response regulator receiver domain"</title>
				<polygon class="PF00072" points="282,28 291,28 293,30 293,50 291,52 282,52" stroke-linejoin="round" width="11" height="24" fill="rgb(100,107,203)" stroke="rgb(80,85,162)" stroke-width="1" opacity="0.75" />
			</g>
			<g>
				<title>Hpt (PF01627)
"Hpt domain"</title>
				<polygon class="PF01627" points="298,35 303,40 298,45" stroke-linejoin="round" width="8" height="24" fill="rgb(164,204,94)" stroke="rgb(131,163,75)" stroke-width="1" opacity="0.75" />
			</g>
		</g>
		<g>
			<title> (ctg2253_5)</title>
			<polygon class=" (ctg2253_5)" points="309,25 309,25 309,10 339,40 309,70 309,55 309,55" fill="rgb(255,255,255)" fill-opacity="1.0" stroke="rgb(0,0,0)" stroke-width="2"  />
			<g>
				<title>Response_reg (PF00072)
"Response regulator receiver domain"</title>
				<rect class="PF00072" x="309" y="28" stroke-linejoin="round" width="11" height="24" fill="rgb(100,107,203)" stroke="rgb(80,85,162)" stroke-width="1" opacity="0.75" />
			</g>
			<g>
				<title>HATPase_c_2 (PF13581)
"Histidine kinase-like ATPase domain"</title>
				<polygon class="PF13581" points="323,29 334,40 323,51" stroke-linejoin="round" width="14" height="24" fill="rgb(86,179,88)" stroke="rgb(68,143,70)" stroke-width="1" opacity="0.75" />
			</g>
		</g>
		<g>
			<title> (ctg2253_6)</title>
			<polygon class=" (ctg2253_6)" points="377,25 369,25 369,10 339,40 369,70 369,55 377,55" fill="rgb(255,255,255)" fill-opacity="1.0" stroke="rgb(0,0,0)" stroke-width="2"  />
			<g>
				<title>SpoIIE (PF07228)
"Stage II sporulation protein E (SpoIIE)"</title>
				<polygon class="PF07228" points="343,40 355,28 358,28 358,52 355,52" stroke-linejoin="round" width="19" height="24" fill="rgb(85,195,217)" stroke="rgb(68,155,173)" stroke-width="1" opacity="0.75" />
			</g>
			<g>
				<title>Response_reg (PF00072)
"Response regulator receiver domain"</title>
				<rect class="PF00072" x="364" y="28" stroke-linejoin="round" width="11" height="24" fill="rgb(100,107,203)" stroke="rgb(80,85,162)" stroke-width="1" opacity="0.75" />
			</g>
		</g>
		<g>
			<title> (ctg2253_7)</title>
			<polygon class=" (ctg2253_7)" points="378,40 390,10 390,70" fill="rgb(255,255,255)" fill-opacity="1.0" stroke="rgb(0,0,0)" stroke-width="2"  />
			<g>
				<title>STAS (PF01740)
"STAS domain"</title>
				<polygon class="PF01740" points="381,40 386,28 388,28 388,52 386,52" stroke-linejoin="round" width="10" height="24" fill="rgb(219,58,116)" stroke="rgb(175,46,92)" stroke-width="1" opacity="0.75" />
			</g>
		</g>
		<g>
			<title> (ctg2253_8)</title>
			<polygon class=" (ctg2253_8)" points="502,25 423,25 423,10 393,40 423,70 423,55 502,55" fill="rgb(255,255,255)" fill-opacity="1.0" stroke="rgb(0,0,0)" stroke-width="2"  />
			<g>
				<title>DUF349 (PF03993)
"Domain of Unknown Function (DUF349)"</title>
				<rect class="PF03993" x="421" y="28" stroke-linejoin="round" width="5" height="24" fill="rgb(202,60,186)" stroke="rgb(161,47,148)" stroke-width="1" opacity="0.75" />
			</g>
			<g>
				<title>DUF349 (PF03993)
"Domain of Unknown Function (DUF349)"</title>
				<rect class="PF03993" x="427" y="28" stroke-linejoin="round" width="7" height="24" fill="rgb(202,60,186)" stroke="rgb(161,47,148)" stroke-width="1" opacity="0.75" />
			</g>
			<g>
				<title>DUF349 (PF03993)
"Domain of Unknown Function (DUF349)"</title>
				<rect class="PF03993" x="435" y="28" stroke-linejoin="round" width="7" height="24" fill="rgb(202,60,186)" stroke="rgb(161,47,148)" stroke-width="1" opacity="0.75" />
			</g>
		</g>
		<g>
			<title> (ctg2253_9)</title>
			<polygon class=" (ctg2253_9)" points="510,10 529,40 510,70" fill="rgb(255,255,255)" fill-opacity="1.0" stroke="rgb(0,0,0)" stroke-width="2"  />
			<g>
				<title>Pro_isomerase (PF00160)
"Cyclophilin type peptidyl-prolyl cis-trans isomerase/CLD"</title>
				<polygon class="PF00160" points="513,28 518,28 525,40 518,52 513,52" stroke-linejoin="round" width="16" height="24" fill="rgb(130,221,72)" stroke="rgb(103,176,57)" stroke-width="1" opacity="0.75" />
			</g>
		</g>
		<g>
			<title> (ctg2253_10)</title>
			<polygon class=" (ctg2253_10)" points="530,10 549,40 530,70" fill="rgb(255,255,255)" fill-opacity="1.0" stroke="rgb(0,0,0)" stroke-width="2"  />
			<g>
				<title>Pro_isomerase (PF00160)
"Cyclophilin type peptidyl-prolyl cis-trans isomerase/CLD"</title>
				<polygon class="PF00160" points="533,28 538,28 546,40 538,52 533,52" stroke-linejoin="round" width="16" height="24" fill="rgb(130,221,72)" stroke="rgb(103,176,57)" stroke-width="1" opacity="0.75" />
			</g>
		</g>
		<g>
			<title> (ctg2253_11)</title>
			<polygon class=" (ctg2253_11)" points="550,25 613,25 613,10 643,40 613,70 613,55 550,55" fill="rgb(255,255,255)" fill-opacity="1.0" stroke="rgb(0,0,0)" stroke-width="2"  />
			<g>
				<title>PP-binding (PF00550)
"Phosphopantetheine attachment site"</title>
				<rect class="PF00550" x="551" y="28" stroke-linejoin="round" width="7" height="24" fill="rgb(103,191,88)" stroke="rgb(82,152,70)" stroke-width="1" opacity="0.75" />
			</g>
			<g>
				<title>AMP-binding (PF00501)
"AMP-binding enzyme"</title>
				<rect class="PF00501" x="562" y="28" stroke-linejoin="round" width="44" height="24" fill="rgb(60,217,223)" stroke="rgb(48,173,178)" stroke-width="1" opacity="0.75" />
			</g>
			<g>
				<title>Acyltransferase (PF01553)
"Acyltransferase"</title>
				<polygon class="PF01553" points="624,28 626,28 636,38 636,42 626,52 624,52" stroke-linejoin="round" width="12" height="24" fill="rgb(87,176,216)" stroke="rgb(69,140,172)" stroke-width="1" opacity="0.75" />
			</g>
		</g>
		<g>
			<title> (ctg2253_12)</title>
			<polygon class=" (ctg2253_12)" points="644,10 649,40 644,70" fill="rgb(255,255,255)" fill-opacity="1.0" stroke="rgb(0,0,0)" stroke-width="2"  />
		</g>
	</g>
</svg>
