<svg version="1.1" baseProfile="full" xmlns="http://www.w3.org/2000/svg" width="427.43333333333334" height="80">
	<g>
		<line x1="10" y1="40.0" x2="417.43333333333334" y2="40.0" style="stroke:rgb(70,70,70); stroke-width:3 "/>
		<g>
			<title> (ctg3947_1)</title>
			<polygon class=" (ctg3947_1)" points="55,25 48,25 48,10 18,40 48,70 48,55 55,55" fill="rgb(255,255,255)" fill-opacity="1.0" stroke="rgb(0,0,0)" stroke-width="2"  />
			<g>
				<title>AAA_16 (PF13191)
"AAA ATPase domain"</title>
				<rect class="PF13191" x="37" y="28" stroke-linejoin="round" width="16" height="24" fill="rgb(186,102,77)" stroke="rgb(148,81,61)" stroke-width="1" opacity="0.75" />
			</g>
		</g>
		<g>
			<title> (ctg3947_2)</title>
			<polygon class=" (ctg3947_2)" points="62,40 91,10 91,70" fill="rgb(255,255,255)" fill-opacity="1.0" stroke="rgb(0,0,0)" stroke-width="2"  />
			<g>
				<title>RCC1_2 (PF13540)
"Regulator of chromosome condensation (RCC1) repeat"</title>
				<polygon class="PF13540" points="66,40 68,38 68,42 66,40" stroke-linejoin="round" width="2" height="24" fill="rgb(81,70,188)" stroke="rgb(64,56,150)" stroke-width="1" opacity="0.75" />
			</g>
			<g>
				<title>RCC1_2 (PF13540)
"Regulator of chromosome condensation (RCC1) repeat"</title>
				<polygon class="PF13540" points="70,36 72,34 72,46 70,44" stroke-linejoin="round" width="2" height="24" fill="rgb(81,70,188)" stroke="rgb(64,56,150)" stroke-width="1" opacity="0.75" />
			</g>
			<g>
				<title>RCC1_2 (PF13540)
"Regulator of chromosome condensation (RCC1) repeat"</title>
				<polygon class="PF13540" points="73,33 75,31 75,49 73,47" stroke-linejoin="round" width="2" height="24" fill="rgb(81,70,188)" stroke="rgb(64,56,150)" stroke-width="1" opacity="0.75" />
			</g>
			<g>
				<title>RCC1_2 (PF13540)
"Regulator of chromosome condensation (RCC1) repeat"</title>
				<polygon class="PF13540" points="77,29 78,28 79,28 79,52 78,52 77,51" stroke-linejoin="round" width="2" height="24" fill="rgb(81,70,188)" stroke="rgb(64,56,150)" stroke-width="1" opacity="0.75" />
			</g>
			<g>
				<title>RCC1_2 (PF13540)
"Regulator of chromosome condensation (RCC1) repeat"</title>
				<rect class="PF13540" x="81" y="28" stroke-linejoin="round" width="2" height="24" fill="rgb(81,70,188)" stroke="rgb(64,56,150)" stroke-width="1" opacity="0.75" />
			</g>
		</g>
		<g>
			<title> (ctg3947_3)</title>
			<polygon class=" (ctg3947_3)" points="95,40 117,10 117,70" fill="rgb(255,255,255)" fill-opacity="1.0" stroke="rgb(0,0,0)" stroke-width="2"  />
			<g>
				<title>RCC1_2 (PF13540)
"Regulator of chromosome condensation (RCC1) repeat"</title>
				<polygon class="PF13540" points="99,40 98,41 98,39" stroke-linejoin="round" width="2" height="24" fill="rgb(81,70,188)" stroke="rgb(64,56,150)" stroke-width="1" opacity="0.75" />
			</g>
		</g>
		<g>
			<title> (ctg3947_4)</title>
			<polygon class=" (ctg3947_4)" points="137,10 145,40 137,70" fill="rgb(255,255,255)" fill-opacity="1.0" stroke="rgb(0,0,0)" stroke-width="2"  />
		</g>
		<g>
			<title> (ctg3947_5)</title>
			<polygon class=" (ctg3947_5)" points="154,25 158,25 158,10 188,40 158,70 158,55 154,55" fill="rgb(255,255,255)" fill-opacity="1.0" stroke="rgb(0,0,0)" stroke-width="2"  />
			<g>
				<title>PDT (PF00800)
"Prephenate dehydratase"</title>
				<polygon class="PF00800" points="155,28 171,28 173,30 173,50 171,52 155,52" stroke-linejoin="round" width="18" height="24" fill="rgb(196,95,205)" stroke="rgb(156,76,164)" stroke-width="1" opacity="0.75" />
			</g>
		</g>
		<g>
			<title> (ctg3947_6)</title>
			<polygon class=" (ctg3947_6)" points="245,25 219,25 219,10 189,40 219,70 219,55 245,55" fill="rgb(255,255,255)" fill-opacity="1.0" stroke="rgb(0,0,0)" stroke-width="2"  />
			<g>
				<title>TPP_enzyme_C (PF02775)
"Thiamine pyrophosphate enzyme, C-terminal TPP binding domain"</title>
				<polygon class="PF02775" points="193,40 205,28 206,28 206,52 205,52" stroke-linejoin="round" width="14" height="24" fill="rgb(156,179,45)" stroke="rgb(124,143,36)" stroke-width="1" opacity="0.75" />
			</g>
			<g>
				<title>TPP_enzyme_M (PF00205)
"Thiamine pyrophosphate enzyme, central domain"</title>
				<rect class="PF00205" x="212" y="28" stroke-linejoin="round" width="13" height="24" fill="rgb(149,194,69)" stroke="rgb(119,155,55)" stroke-width="1" opacity="0.75" />
			</g>
			<g>
				<title>TPP_enzyme_N (PF02776)
"Thiamine pyrophosphate enzyme, N-terminal TPP binding domain"</title>
				<rect class="PF02776" x="227" y="28" stroke-linejoin="round" width="17" height="24" fill="rgb(55,81,185)" stroke="rgb(44,64,148)" stroke-width="1" opacity="0.75" />
			</g>
		</g>
		<g>
			<title> (ctg3947_7)</title>
			<polygon class=" (ctg3947_7)" points="302,25 284,25 284,10 254,40 284,70 284,55 302,55" fill="rgb(255,255,255)" fill-opacity="1.0" stroke="rgb(0,0,0)" stroke-width="2"  />
			<g>
				<title>Peripla_BP_6 (PF13458)
"Periplasmic binding protein"</title>
				<polygon class="PF13458" points="258,40 270,28 292,28 292,52 270,52" stroke-linejoin="round" width="35" height="24" fill="rgb(94,183,81)" stroke="rgb(75,146,64)" stroke-width="1" opacity="0.75" />
			</g>
		</g>
		<g>
			<title> (ctg3947_8)</title>
			<polygon class=" (ctg3947_8)" points="417,25 340,25 340,10 310,40 340,70 340,55 417,55" fill="rgb(255,255,255)" fill-opacity="1.0" stroke="rgb(0,0,0)" stroke-width="2"  />
			<g>
				<title>Acyl_transf_1 (PF00698)
"Acyl transferase domain"</title>
				<polygon class="PF00698" points="320,34 326,28 337,28 337,52 326,52 320,46" stroke-linejoin="round" width="17" height="24" fill="rgb(59,176,209)" stroke="rgb(47,140,167)" stroke-width="1" opacity="0.75" />
			</g>
			<g>
				<title>KAsynt_C_assoc (PF16197)
"Ketoacyl-synthetase C-terminal extension"</title>
				<rect class="PF16197" x="341" y="28" stroke-linejoin="round" width="15" height="24" fill="rgb(240,150,172)" stroke="rgb(192,120,137)" stroke-width="1" opacity="0.75" />
			</g>
			<g>
				<title>Ketoacyl-synt_C (PF02801)
"Beta-ketoacyl synthase, C-terminal domain"</title>
				<rect class="PF02801" x="357" y="28" stroke-linejoin="round" width="11" height="24" fill="rgb(215,78,102)" stroke="rgb(172,62,81)" stroke-width="1" opacity="0.75" />
			</g>
			<g>
				<title>ketoacyl-synt (PF00109)
"Beta-ketoacyl synthase, N-terminal domain"</title>
				<rect class="PF00109" x="369" y="28" stroke-linejoin="round" width="24" height="24" fill="rgb(112,116,228)" stroke="rgb(89,92,182)" stroke-width="1" opacity="0.75" />
			</g>
			<g>
				<title>PP-binding (PF00550)
"Phosphopantetheine attachment site"</title>
				<rect class="PF00550" x="397" y="28" stroke-linejoin="round" width="6" height="24" fill="rgb(103,191,88)" stroke="rgb(82,152,70)" stroke-width="1" opacity="0.75" />
			</g>
			<g>
				<title>KR (PF08659)
"KR domain"</title>
				<rect class="PF08659" x="414" y="28" stroke-linejoin="round" width="2" height="24" fill="rgb(66,209,188)" stroke="rgb(52,167,150)" stroke-width="1" opacity="0.75" />
			</g>
		</g>
	</g>
</svg>
