<svg version="1.1" baseProfile="full" xmlns="http://www.w3.org/2000/svg" width="744.2666666666667" height="80">
	<g>
		<line x1="10" y1="40.0" x2="734.2666666666667" y2="40.0" style="stroke:rgb(70,70,70); stroke-width:3 "/>
		<g>
			<title> (ctg464_19)</title>
			<polygon class=" (ctg464_19)" points="60,25 89,25 89,10 119,40 89,70 89,55 60,55" fill="rgb(255,255,255)" fill-opacity="1.0" stroke="rgb(0,0,0)" stroke-width="2"  />
			<g>
				<title>PilM_2 (PF11104)
"Type IV pilus assembly protein PilM;"</title>
				<rect class="PF11104" x="60" y="28" stroke-linejoin="round" width="34" height="24" fill="rgb(116,209,94)" stroke="rgb(92,167,75)" stroke-width="1" opacity="0.75" />
			</g>
		</g>
		<g>
			<title> (ctg464_20)</title>
			<polygon class=" (ctg464_20)" points="126,25 139,25 139,10 169,40 139,70 139,55 126,55" fill="rgb(255,255,255)" fill-opacity="1.0" stroke="rgb(0,0,0)" stroke-width="2"  />
		</g>
		<g>
			<title> (ctg464_21)</title>
			<polygon class=" (ctg464_21)" points="173,25 240,25 240,10 270,40 240,70 240,55 173,55" fill="rgb(255,255,255)" fill-opacity="1.0" stroke="rgb(0,0,0)" stroke-width="2"  />
			<g>
				<title>Secretin_N (PF03958)
"Bacterial type II/III secretion system short domain"</title>
				<rect class="PF03958" x="194" y="28" stroke-linejoin="round" width="10" height="24" fill="rgb(112,201,90)" stroke="rgb(89,160,72)" stroke-width="1" opacity="0.75" />
			</g>
			<g>
				<title>Secretin_N (PF03958)
"Bacterial type II/III secretion system short domain"</title>
				<rect class="PF03958" x="204" y="28" stroke-linejoin="round" width="9" height="24" fill="rgb(112,201,90)" stroke="rgb(89,160,72)" stroke-width="1" opacity="0.75" />
			</g>
			<g>
				<title>Secretin_N (PF03958)
"Bacterial type II/III secretion system short domain"</title>
				<rect class="PF03958" x="214" y="28" stroke-linejoin="round" width="9" height="24" fill="rgb(112,201,90)" stroke="rgb(89,160,72)" stroke-width="1" opacity="0.75" />
			</g>
			<g>
				<title>Secretin_N (PF03958)
"Bacterial type II/III secretion system short domain"</title>
				<rect class="PF03958" x="224" y="28" stroke-linejoin="round" width="8" height="24" fill="rgb(112,201,90)" stroke="rgb(89,160,72)" stroke-width="1" opacity="0.75" />
			</g>
			<g>
				<title>Secretin_N (PF03958)
"Bacterial type II/III secretion system short domain"</title>
				<rect class="PF03958" x="233" y="28" stroke-linejoin="round" width="9" height="24" fill="rgb(112,201,90)" stroke="rgb(89,160,72)" stroke-width="1" opacity="0.75" />
			</g>
			<g>
				<title>Secretin (PF00263)
"Bacterial type II and III secretion system protein"</title>
				<polygon class="PF00263" points="249,28 254,28 266,40 266,40 254,52 249,52" stroke-linejoin="round" width="17" height="24" fill="rgb(59,184,59)" stroke="rgb(47,147,47)" stroke-width="1" opacity="0.75" />
			</g>
		</g>
		<g>
			<title> (ctg464_22)</title>
			<polygon class=" (ctg464_22)" points="287,10 316,40 287,70" fill="rgb(255,255,255)" fill-opacity="1.0" stroke="rgb(0,0,0)" stroke-width="2"  />
		</g>
		<g>
			<title> (ctg464_23)</title>
			<polygon class=" (ctg464_23)" points="320,40 333,10 333,70" fill="rgb(255,255,255)" fill-opacity="1.0" stroke="rgb(0,0,0)" stroke-width="2"  />
		</g>
		<g>
			<title> (ctg464_24)</title>
			<polygon class=" (ctg464_24)" points="400,25 373,25 373,10 343,40 373,70 373,55 400,55" fill="rgb(255,255,255)" fill-opacity="1.0" stroke="rgb(0,0,0)" stroke-width="2"  />
			<g>
				<title>SQHop_cyclase_C (PF13243)
"Squalene-hopene cyclase C-terminal domain"</title>
				<polygon class="PF13243" points="347,40 359,28 372,28 372,52 359,52" stroke-linejoin="round" width="29" height="24" fill="rgb(191,58,201)" stroke="rgb(152,46,160)" stroke-width="1" opacity="0.75" />
			</g>
			<g>
				<title>Prenyltrans (PF00432)
"Prenyltransferase and squalene oxidase repeat"</title>
				<rect class="PF00432" x="391" y="28" stroke-linejoin="round" width="3" height="24" fill="rgb(218,215,79)" stroke="rgb(174,172,63)" stroke-width="1" opacity="0.75" />
			</g>
		</g>
		<g>
			<title> (ctg464_25)</title>
			<polygon class=" (ctg464_25)" points="408,25 445,25 445,10 475,40 445,70 445,55 408,55" fill="rgb(255,255,255)" fill-opacity="1.0" stroke="rgb(0,0,0)" stroke-width="2"  />
			<g>
				<title>Plug (PF07715)
"TonB-dependent Receptor Plug Domain"</title>
				<rect class="PF07715" x="412" y="28" stroke-linejoin="round" width="10" height="24" fill="rgb(99,133,214)" stroke="rgb(79,106,171)" stroke-width="1" opacity="0.75" />
			</g>
		</g>
		<g>
			<title> (ctg464_26)</title>
			<polygon class=" (ctg464_26)" points="486,10 493,40 486,70" fill="rgb(255,255,255)" fill-opacity="1.0" stroke="rgb(0,0,0)" stroke-width="2"  />
			<g>
				<title>Rhodanese (PF00581)
"Rhodanese-like domain"</title>
				<polygon class="PF00581" points="486,28 486,28 490,40 486,52 486,52" stroke-linejoin="round" width="6" height="24" fill="rgb(145,191,76)" stroke="rgb(116,152,60)" stroke-width="1" opacity="0.75" />
			</g>
		</g>
		<g>
			<title> (ctg464_27)</title>
			<polygon class=" (ctg464_27)" points="540,25 524,25 524,10 494,40 524,70 524,55 540,55" fill="rgb(255,255,255)" fill-opacity="1.0" stroke="rgb(0,0,0)" stroke-width="2"  />
			<g>
				<title>HTH_8 (PF02954)
"Bacterial regulatory protein, Fis family"</title>
				<polygon class="PF02954" points="498,40 499,39 499,41" stroke-linejoin="round" width="4" height="24" fill="rgb(168,63,200)" stroke="rgb(134,50,160)" stroke-width="1" opacity="0.75" />
			</g>
			<g>
				<title>Sigma54_activat (PF00158)
"Sigma-54 interaction domain"</title>
				<polygon class="PF00158" points="509,29 510,28 525,28 525,52 510,52 509,51" stroke-linejoin="round" width="16" height="24" fill="rgb(101,145,216)" stroke="rgb(80,115,172)" stroke-width="1" opacity="0.75" />
			</g>
			<g>
				<title>Response_reg (PF00072)
"Response regulator receiver domain"</title>
				<rect class="PF00072" x="528" y="28" stroke-linejoin="round" width="11" height="24" fill="rgb(100,107,203)" stroke="rgb(80,85,162)" stroke-width="1" opacity="0.75" />
			</g>
		</g>
		<g>
			<title> (ctg464_28)</title>
			<polygon class=" (ctg464_28)" points="593,25 572,25 572,10 542,40 572,70 572,55 593,55" fill="rgb(255,255,255)" fill-opacity="1.0" stroke="rgb(0,0,0)" stroke-width="2"  />
			<g>
				<title>HATPase_c (PF02518)
"Histidine kinase-, DNA gyrase B-, and HSP90-like ATPase"</title>
				<polygon class="PF02518" points="546,40 553,33 553,47" stroke-linejoin="round" width="11" height="24" fill="rgb(80,94,225)" stroke="rgb(64,75,180)" stroke-width="1" opacity="0.75" />
			</g>
			<g>
				<title>HisKA (PF00512)
"His Kinase A (phospho-acceptor) domain"</title>
				<polygon class="PF00512" points="558,28 558,28 565,28 565,52 558,52 558,52" stroke-linejoin="round" width="7" height="24" fill="rgb(193,125,62)" stroke="rgb(154,100,49)" stroke-width="1" opacity="0.75" />
			</g>
		</g>
		<g>
			<title> (ctg464_29)</title>
			<polygon class=" (ctg464_29)" points="645,25 624,25 624,10 594,40 624,70 624,55 645,55" fill="rgb(255,255,255)" fill-opacity="1.0" stroke="rgb(0,0,0)" stroke-width="2"  />
			<g>
				<title>FGGY_C (PF02782)
"FGGY family of carbohydrate kinases, C-terminal domain"</title>
				<polygon class="PF02782" points="599,39 610,28 618,28 618,52 610,52 599,41" stroke-linejoin="round" width="19" height="24" fill="rgb(204,103,85)" stroke="rgb(163,82,68)" stroke-width="1" opacity="0.75" />
			</g>
			<g>
				<title>FGGY_N (PF00370)
"FGGY family of carbohydrate kinases, N-terminal domain"</title>
				<rect class="PF00370" x="619" y="28" stroke-linejoin="round" width="25" height="24" fill="rgb(83,186,105)" stroke="rgb(66,148,83)" stroke-width="1" opacity="0.75" />
			</g>
		</g>
		<g>
			<title> (ctg464_30)</title>
			<polygon class=" (ctg464_30)" points="673,25 702,25 702,10 732,40 702,70 702,55 673,55" fill="rgb(255,255,255)" fill-opacity="1.0" stroke="rgb(0,0,0)" stroke-width="2"  />
		</g>
	</g>
</svg>
