<svg version="1.1" baseProfile="full" xmlns="http://www.w3.org/2000/svg" width="750.5666666666667" height="80">
	<g>
		<line x1="10" y1="40.0" x2="740.5666666666667" y2="40.0" style="stroke:rgb(70,70,70); stroke-width:3 "/>
		<g>
			<title> (ctg54_78)</title>
			<polygon class=" (ctg54_78)" points="23,40 51,10 51,70" fill="rgb(255,255,255)" fill-opacity="1.0" stroke="rgb(0,0,0)" stroke-width="2"  />
			<g>
				<title>CO_deh_flav_C (PF03450)
"CO dehydrogenase flavoprotein C-terminal domain"</title>
				<polygon class="PF03450" points="27,40 33,34 33,46" stroke-linejoin="round" width="10" height="24" fill="rgb(68,181,100)" stroke="rgb(54,144,80)" stroke-width="1" opacity="0.75" />
			</g>
			<g>
				<title>FAD_binding_5 (PF00941)
"FAD binding domain in molybdopterin dehydrogenase"</title>
				<polygon class="PF00941" points="33,34 38,28 49,28 49,52 38,52 33,46" stroke-linejoin="round" width="16" height="24" fill="rgb(67,160,198)" stroke="rgb(53,128,158)" stroke-width="1" opacity="0.75" />
			</g>
		</g>
		<g>
			<title> (ctg54_79)</title>
			<polygon class=" (ctg54_79)" points="128,25 81,25 81,10 51,40 81,70 81,55 128,55" fill="rgb(255,255,255)" fill-opacity="1.0" stroke="rgb(0,0,0)" stroke-width="2"  />
			<g>
				<title>Ald_Xan_dh_C2 (PF02738)
"Molybdopterin-binding domain of aldehyde dehydrogenase"</title>
				<polygon class="PF02738" points="57,38 67,28 112,28 112,52 67,52 57,42" stroke-linejoin="round" width="55" height="24" fill="rgb(194,143,89)" stroke="rgb(155,114,71)" stroke-width="1" opacity="0.75" />
			</g>
			<g>
				<title>Ald_Xan_dh_C (PF01315)
"Aldehyde oxidase and xanthine dehydrogenase, a/b hammerhead domain"</title>
				<rect class="PF01315" x="114" y="28" stroke-linejoin="round" width="11" height="24" fill="rgb(127,182,88)" stroke="rgb(101,145,70)" stroke-width="1" opacity="0.75" />
			</g>
		</g>
		<g>
			<title> (ctg54_80)</title>
			<polygon class=" (ctg54_80)" points="129,40 144,10 144,70" fill="rgb(255,255,255)" fill-opacity="1.0" stroke="rgb(0,0,0)" stroke-width="2"  />
			<g>
				<title>Fer2_2 (PF01799)
"[2Fe-2S] binding domain"</title>
				<polygon class="PF01799" points="132,40 136,32 136,48" stroke-linejoin="round" width="7" height="24" fill="rgb(67,193,124)" stroke="rgb(53,154,99)" stroke-width="1" opacity="0.75" />
			</g>
			<g>
				<title>Fer2 (PF00111)
"2Fe-2S iron-sulfur cluster binding domain"</title>
				<polygon class="PF00111" points="137,30 138,28 144,28 144,52 138,52 137,50" stroke-linejoin="round" width="7" height="24" fill="rgb(60,59,191)" stroke="rgb(48,47,152)" stroke-width="1" opacity="0.75" />
			</g>
		</g>
		<g>
			<title> (ctg54_81)</title>
			<polygon class=" (ctg54_81)" points="152,10 161,40 152,70" fill="rgb(255,255,255)" fill-opacity="1.0" stroke="rgb(0,0,0)" stroke-width="2"  />
			<g>
				<title>Acylphosphatase (PF00708)
"Acylphosphatase"</title>
				<polygon class="PF00708" points="152,28 154,28 158,40 154,52 152,52" stroke-linejoin="round" width="8" height="24" fill="rgb(79,219,111)" stroke="rgb(63,175,88)" stroke-width="1" opacity="0.75" />
			</g>
		</g>
		<g>
			<title> (ctg54_82)</title>
			<polygon class=" (ctg54_82)" points="161,10 177,40 161,70" fill="rgb(255,255,255)" fill-opacity="1.0" stroke="rgb(0,0,0)" stroke-width="2"  />
			<g>
				<title>YgbB (PF02542)
"YgbB family"</title>
				<polygon class="PF02542" points="161,28 167,28 173,40 167,52 161,52" stroke-linejoin="round" width="15" height="24" fill="rgb(183,87,193)" stroke="rgb(146,69,154)" stroke-width="1" opacity="0.75" />
			</g>
		</g>
		<g>
			<title> (ctg54_83)</title>
			<polygon class=" (ctg54_83)" points="179,10 191,40 179,70" fill="rgb(255,255,255)" fill-opacity="1.0" stroke="rgb(0,0,0)" stroke-width="2"  />
		</g>
		<g>
			<title> (ctg54_84)</title>
			<polygon class=" (ctg54_84)" points="226,25 220,25 220,10 190,40 220,70 220,55 226,55" fill="rgb(255,255,255)" fill-opacity="1.0" stroke="rgb(0,0,0)" stroke-width="2"  />
			<g>
				<title>FmdA_AmdA (PF03069)
"Acetamidase/Formamidase family"</title>
				<polygon class="PF03069" points="194,40 205,29 205,51" stroke-linejoin="round" width="14" height="24" fill="rgb(205,187,71)" stroke="rgb(164,149,56)" stroke-width="1" opacity="0.75" />
			</g>
			<g>
				<title>FmdA_AmdA (PF03069)
"Acetamidase/Formamidase family"</title>
				<polygon class="PF03069" points="206,28 206,28 222,28 222,52 206,52 206,52" stroke-linejoin="round" width="16" height="24" fill="rgb(205,187,71)" stroke="rgb(164,149,56)" stroke-width="1" opacity="0.75" />
			</g>
		</g>
		<g>
			<title> (ctg54_85)</title>
			<polygon class=" (ctg54_85)" points="238,25 260,25 260,10 290,40 260,70 260,55 238,55" fill="rgb(255,255,255)" fill-opacity="1.0" stroke="rgb(0,0,0)" stroke-width="2"  />
			<g>
				<title>Sulfatase (PF00884)
"Sulfatase"</title>
				<polygon class="PF00884" points="243,28 274,28 278,32 278,48 274,52 243,52" stroke-linejoin="round" width="35" height="24" fill="rgb(61,103,198)" stroke="rgb(48,82,158)" stroke-width="1" opacity="0.75" />
			</g>
		</g>
		<g>
			<title> (ctg54_86)</title>
			<polygon class=" (ctg54_86)" points="294,25 314,25 314,10 344,40 314,70 314,55 294,55" fill="rgb(255,255,255)" fill-opacity="1.0" stroke="rgb(0,0,0)" stroke-width="2"  />
			<g>
				<title>SSF (PF00474)
"Sodium:solute symporter family"</title>
				<polygon class="PF00474" points="297,28 328,28 338,38 338,42 328,52 297,52" stroke-linejoin="round" width="41" height="24" fill="rgb(49,186,178)" stroke="rgb(39,148,142)" stroke-width="1" opacity="0.75" />
			</g>
		</g>
		<g>
			<title> (ctg54_87)</title>
			<polygon class=" (ctg54_87)" points="406,25 373,25 373,10 343,40 373,70 373,55 406,55" fill="rgb(255,255,255)" fill-opacity="1.0" stroke="rgb(0,0,0)" stroke-width="2"  />
			<g>
				<title>SQHop_cyclase_C (PF13243)
"Squalene-hopene cyclase C-terminal domain"</title>
				<polygon class="PF13243" points="347,40 359,28 376,28 376,52 359,52" stroke-linejoin="round" width="32" height="24" fill="rgb(191,58,201)" stroke="rgb(152,46,160)" stroke-width="1" opacity="0.75" />
			</g>
			<g>
				<title>SQHop_cyclase_N (PF13249)
"Squalene-hopene cyclase N-terminal domain"</title>
				<rect class="PF13249" x="393" y="28" stroke-linejoin="round" width="12" height="24" fill="rgb(88,190,89)" stroke="rgb(70,152,71)" stroke-width="1" opacity="0.75" />
			</g>
		</g>
		<g>
			<title> (ctg54_88)</title>
			<polygon class=" (ctg54_88)" points="410,40 422,10 422,70" fill="rgb(255,255,255)" fill-opacity="1.0" stroke="rgb(0,0,0)" stroke-width="2"  />
			<g>
				<title>PIN (PF01850)
"PIN domain"</title>
				<polygon class="PF01850" points="413,40 418,28 421,28 421,52 418,52" stroke-linejoin="round" width="11" height="24" fill="rgb(91,217,126)" stroke="rgb(72,173,100)" stroke-width="1" opacity="0.75" />
			</g>
		</g>
		<g>
			<title> (ctg54_89)</title>
			<polygon class=" (ctg54_89)" points="423,40 432,10 432,70" fill="rgb(255,255,255)" fill-opacity="1.0" stroke="rgb(0,0,0)" stroke-width="2"  />
			<g>
				<title>RHH_1 (PF01402)
"Ribbon-helix-helix protein, copG family"</title>
				<polygon class="PF01402" points="427,37 430,28 430,28 430,52 430,52 427,43" stroke-linejoin="round" width="3" height="24" fill="rgb(104,197,67)" stroke="rgb(83,157,53)" stroke-width="1" opacity="0.75" />
			</g>
		</g>
		<g>
			<title> (ctg54_90)</title>
			<polygon class=" (ctg54_90)" points="437,40 465,10 465,70" fill="rgb(255,255,255)" fill-opacity="1.0" stroke="rgb(0,0,0)" stroke-width="2"  />
			<g>
				<title>Prenyltrans (PF00432)
"Prenyltransferase and squalene oxidase repeat"</title>
				<polygon class="PF00432" points="441,40 440,41 440,39" stroke-linejoin="round" width="3" height="24" fill="rgb(218,215,79)" stroke="rgb(174,172,63)" stroke-width="1" opacity="0.75" />
			</g>
			<g>
				<title>Prenyltrans (PF00432)
"Prenyltransferase and squalene oxidase repeat"</title>
				<polygon class="PF00432" points="442,39 445,36 445,44 442,41" stroke-linejoin="round" width="3" height="24" fill="rgb(218,215,79)" stroke="rgb(174,172,63)" stroke-width="1" opacity="0.75" />
			</g>
			<g>
				<title>Prenyltrans (PF00432)
"Prenyltransferase and squalene oxidase repeat"</title>
				<polygon class="PF00432" points="446,35 449,32 449,48 446,45" stroke-linejoin="round" width="3" height="24" fill="rgb(218,215,79)" stroke="rgb(174,172,63)" stroke-width="1" opacity="0.75" />
			</g>
			<g>
				<title>Prenyltrans (PF00432)
"Prenyltransferase and squalene oxidase repeat"</title>
				<rect class="PF00432" x="460" y="28" stroke-linejoin="round" width="4" height="24" fill="rgb(218,215,79)" stroke="rgb(174,172,63)" stroke-width="1" opacity="0.75" />
			</g>
		</g>
		<g>
			<title> (ctg54_91)</title>
			<polygon class=" (ctg54_91)" points="523,25 494,25 494,10 464,40 494,70 494,55 523,55" fill="rgb(255,255,255)" fill-opacity="1.0" stroke="rgb(0,0,0)" stroke-width="2"  />
			<g>
				<title>polyprenyl_synt (PF00348)
"Polyprenyl synthetase"</title>
				<polygon class="PF00348" points="471,37 480,28 496,28 496,52 480,52 471,43" stroke-linejoin="round" width="25" height="24" fill="rgb(61,206,65)" stroke="rgb(48,164,52)" stroke-width="1" opacity="0.75" />
			</g>
			<g>
				<title>DUF116 (PF01976)
"Protein of unknown function DUF116"</title>
				<rect class="PF01976" x="500" y="28" stroke-linejoin="round" width="15" height="24" fill="rgb(103,188,75)" stroke="rgb(82,150,60)" stroke-width="1" opacity="0.75" />
			</g>
		</g>
		<g>
			<title> (ctg54_92)</title>
			<polygon class=" (ctg54_92)" points="565,25 555,25 555,10 525,40 555,70 555,55 565,55" fill="rgb(255,255,255)" fill-opacity="1.0" stroke="rgb(0,0,0)" stroke-width="2"  />
			<g>
				<title>Radical_SAM (PF04055)
"Radical SAM superfamily"</title>
				<rect class="PF04055" x="543" y="28" stroke-linejoin="round" width="16" height="24" fill="rgb(149,56,222)" stroke="rgb(119,44,177)" stroke-width="1" opacity="0.75" />
			</g>
		</g>
		<g>
			<title> (ctg54_93)</title>
			<polygon class=" (ctg54_93)" points="565,40 594,10 594,70" fill="rgb(255,255,255)" fill-opacity="1.0" stroke="rgb(0,0,0)" stroke-width="2"  />
		</g>
		<g>
			<title> (ctg54_94)</title>
			<polygon class=" (ctg54_94)" points="595,40 608,10 608,70" fill="rgb(255,255,255)" fill-opacity="1.0" stroke="rgb(0,0,0)" stroke-width="2"  />
		</g>
		<g>
			<title> (ctg54_95)</title>
			<polygon class=" (ctg54_95)" points="646,25 638,25 638,10 608,40 638,70 638,55 646,55" fill="rgb(255,255,255)" fill-opacity="1.0" stroke="rgb(0,0,0)" stroke-width="2"  />
			<g>
				<title>cobW (PF02492)
"CobW/HypB/UreG, nucleotide-binding domain"</title>
				<rect class="PF02492" x="626" y="28" stroke-linejoin="round" width="18" height="24" fill="rgb(79,112,178)" stroke="rgb(63,89,142)" stroke-width="1" opacity="0.75" />
			</g>
		</g>
		<g>
			<title> (ctg54_96)</title>
			<polygon class=" (ctg54_96)" points="646,40 662,10 662,70" fill="rgb(255,255,255)" fill-opacity="1.0" stroke="rgb(0,0,0)" stroke-width="2"  />
			<g>
				<title>GCV_H (PF01597)
"Glycine cleavage H-protein"</title>
				<polygon class="PF01597" points="649,40 656,28 658,28 658,52 656,52" stroke-linejoin="round" width="11" height="24" fill="rgb(77,190,144)" stroke="rgb(61,152,115)" stroke-width="1" opacity="0.75" />
			</g>
		</g>
		<g>
			<title> (ctg54_97)</title>
			<polygon class=" (ctg54_97)" points="702,25 693,25 693,10 663,40 693,70 693,55 702,55" fill="rgb(255,255,255)" fill-opacity="1.0" stroke="rgb(0,0,0)" stroke-width="2"  />
			<g>
				<title>Aminotran_5 (PF00266)
"Aminotransferase class-V"</title>
				<polygon class="PF00266" points="667,40 679,28 702,28 702,52 679,52" stroke-linejoin="round" width="36" height="24" fill="rgb(214,54,122)" stroke="rgb(171,43,97)" stroke-width="1" opacity="0.75" />
			</g>
		</g>
		<g>
			<title> (ctg54_98)</title>
			<polygon class=" (ctg54_98)" points="707,40 722,10 722,70" fill="rgb(255,255,255)" fill-opacity="1.0" stroke="rgb(0,0,0)" stroke-width="2"  />
			<g>
				<title>OsmC (PF02566)
"OsmC-like protein"</title>
				<polygon class="PF02566" points="710,40 716,28 717,28 717,52 716,52" stroke-linejoin="round" width="9" height="24" fill="rgb(161,56,212)" stroke="rgb(128,44,169)" stroke-width="1" opacity="0.75" />
			</g>
		</g>
	</g>
</svg>
