<svg version="1.1" baseProfile="full" xmlns="http://www.w3.org/2000/svg" width="382.03333333333336" height="80">
	<g>
		<line x1="10" y1="40.0" x2="372.03333333333336" y2="40.0" style="stroke:rgb(70,70,70); stroke-width:3 "/>
		<g>
			<title> (ctg350_27)</title>
			<polygon class=" (ctg350_27)" points="18,10 37,40 18,70" fill="rgb(255,255,255)" fill-opacity="1.0" stroke="rgb(0,0,0)" stroke-width="2"  />
			<g>
				<title>LptE (PF04390)
"Lipopolysaccharide-assembly"</title>
				<polygon class="PF04390" points="23,28 26,28 34,40 26,52 23,52" stroke-linejoin="round" width="13" height="24" fill="rgb(199,204,70)" stroke="rgb(159,163,56)" stroke-width="1" opacity="0.75" />
			</g>
		</g>
		<g>
			<title> (ctg350_28)</title>
			<polygon class=" (ctg350_28)" points="38,25 41,25 41,10 71,40 41,70 41,55 38,55" fill="rgb(255,255,255)" fill-opacity="1.0" stroke="rgb(0,0,0)" stroke-width="2"  />
			<g>
				<title>DNA_pol3_delta (PF06144)
"DNA polymerase III, delta subunit"</title>
				<rect class="PF06144" x="39" y="28" stroke-linejoin="round" width="16" height="24" fill="rgb(196,60,53)" stroke="rgb(156,47,42)" stroke-width="1" opacity="0.75" />
			</g>
		</g>
		<g>
			<title> (ctg350_29)</title>
			<polygon class=" (ctg350_29)" points="80,40 93,10 93,70" fill="rgb(255,255,255)" fill-opacity="1.0" stroke="rgb(0,0,0)" stroke-width="2"  />
			<g>
				<title>CMD (PF02627)
"Carboxymuconolactone decarboxylase family"</title>
				<polygon class="PF02627" points="83,40 88,28 89,28 89,52 88,52" stroke-linejoin="round" width="8" height="24" fill="rgb(58,205,164)" stroke="rgb(46,164,131)" stroke-width="1" opacity="0.75" />
			</g>
		</g>
		<g>
			<title> (ctg350_30)</title>
			<polygon class=" (ctg350_30)" points="101,25 102,25 102,10 132,40 102,70 102,55 101,55" fill="rgb(255,255,255)" fill-opacity="1.0" stroke="rgb(0,0,0)" stroke-width="2"  />
			<g>
				<title>Ferrochelatase (PF00762)
"Ferrochelatase"</title>
				<polygon class="PF00762" points="101,28 115,28 127,40 115,52 101,52" stroke-linejoin="round" width="30" height="24" fill="rgb(46,104,183)" stroke="rgb(36,83,146)" stroke-width="1" opacity="0.75" />
			</g>
		</g>
		<g>
			<title> (ctg350_31)</title>
			<polygon class=" (ctg350_31)" points="137,40 145,10 145,70" fill="rgb(255,255,255)" fill-opacity="1.0" stroke="rgb(0,0,0)" stroke-width="2"  />
		</g>
		<g>
			<title> (ctg350_32)</title>
			<polygon class=" (ctg350_32)" points="149,40 177,10 177,70" fill="rgb(255,255,255)" fill-opacity="1.0" stroke="rgb(0,0,0)" stroke-width="2"  />
			<g>
				<title>DUF2063 (PF09836)
"Putative DNA-binding domain"</title>
				<rect class="PF09836" x="165" y="28" stroke-linejoin="round" width="10" height="24" fill="rgb(88,194,190)" stroke="rgb(70,155,152)" stroke-width="1" opacity="0.75" />
			</g>
		</g>
		<g>
			<title> (ctg350_33)</title>
			<polygon class=" (ctg350_33)" points="176,40 204,10 204,70" fill="rgb(255,255,255)" fill-opacity="1.0" stroke="rgb(0,0,0)" stroke-width="2"  />
			<g>
				<title>DUF692 (PF05114)
"Protein of unknown function (DUF692)"</title>
				<polygon class="PF05114" points="180,40 191,28 203,28 203,52 191,52" stroke-linejoin="round" width="26" height="24" fill="rgb(63,196,127)" stroke="rgb(50,156,101)" stroke-width="1" opacity="0.75" />
			</g>
		</g>
		<g>
			<title> (ctg350_34)</title>
			<polygon class=" (ctg350_34)" points="209,40 221,10 221,70" fill="rgb(255,255,255)" fill-opacity="1.0" stroke="rgb(0,0,0)" stroke-width="2"  />
		</g>
		<g>
			<title> (ctg350_35)</title>
			<polygon class=" (ctg350_35)" points="232,25 238,25 238,10 268,40 238,70 238,55 232,55" fill="rgb(255,255,255)" fill-opacity="1.0" stroke="rgb(0,0,0)" stroke-width="2"  />
			<g>
				<title>IF-2B (PF01008)
"Initiation factor 2 subunit family"</title>
				<polygon class="PF01008" points="236,28 251,28 263,40 251,52 236,52" stroke-linejoin="round" width="29" height="24" fill="rgb(195,91,90)" stroke="rgb(156,72,72)" stroke-width="1" opacity="0.75" />
			</g>
		</g>
		<g>
			<title> (ctg350_36)</title>
			<polygon class=" (ctg350_36)" points="269,40 283,10 283,70" fill="rgb(255,255,255)" fill-opacity="1.0" stroke="rgb(0,0,0)" stroke-width="2"  />
			<g>
				<title>4HBT_2 (PF13279)
"Thioesterase-like superfamily"</title>
				<polygon class="PF13279" points="272,40 278,28 281,28 281,52 278,52" stroke-linejoin="round" width="11" height="24" fill="rgb(213,114,82)" stroke="rgb(170,91,65)" stroke-width="1" opacity="0.75" />
			</g>
		</g>
		<g>
			<title> (ctg350_37)</title>
			<polygon class=" (ctg350_37)" points="322,25 316,25 316,10 286,40 316,70 316,55 322,55" fill="rgb(255,255,255)" fill-opacity="1.0" stroke="rgb(0,0,0)" stroke-width="2"  />
			<g>
				<title>GCV_T_C (PF08669)
"Glycine cleavage T-protein C-terminal barrel domain"</title>
				<polygon class="PF08669" points="290,40 293,37 293,43" stroke-linejoin="round" width="7" height="24" fill="rgb(184,178,54)" stroke="rgb(147,142,43)" stroke-width="1" opacity="0.75" />
			</g>
			<g>
				<title>GCV_T (PF01571)
"Aminomethyltransferase folate-binding domain"</title>
				<polygon class="PF01571" points="296,34 302,28 321,28 321,52 302,52 296,46" stroke-linejoin="round" width="25" height="24" fill="rgb(112,228,161)" stroke="rgb(89,182,128)" stroke-width="1" opacity="0.75" />
			</g>
		</g>
		<g>
			<title> (ctg350_38)</title>
			<polygon class=" (ctg350_38)" points="371,25 353,25 353,10 323,40 353,70 353,55 371,55" fill="rgb(255,255,255)" fill-opacity="1.0" stroke="rgb(0,0,0)" stroke-width="2"  />
			<g>
				<title>GatB_Yqey (PF02637)
"GatB domain"</title>
				<polygon class="PF02637" points="327,40 337,30 337,50" stroke-linejoin="round" width="14" height="24" fill="rgb(84,191,125)" stroke="rgb(67,152,99)" stroke-width="1" opacity="0.75" />
			</g>
			<g>
				<title>GatB_N (PF02934)
"GatB/GatE catalytic domain"</title>
				<rect class="PF02934" x="341" y="28" stroke-linejoin="round" width="28" height="24" fill="rgb(66,215,132)" stroke="rgb(52,172,105)" stroke-width="1" opacity="0.75" />
			</g>
		</g>
	</g>
</svg>
