<svg version="1.1" baseProfile="full" xmlns="http://www.w3.org/2000/svg" width="418.53333333333336" height="80">
	<g>
		<line x1="10" y1="40.0" x2="408.53333333333336" y2="40.0" style="stroke:rgb(70,70,70); stroke-width:3 "/>
		<g>
			<title> (ctg2880_2)</title>
			<polygon class=" (ctg2880_2)" points="127,25 120,25 120,10 90,40 120,70 120,55 127,55" fill="rgb(255,255,255)" fill-opacity="1.0" stroke="rgb(0,0,0)" stroke-width="2"  />
			<g>
				<title>HlyD_D23 (PF16576)
"Barrel-sandwich domain of CusB or HlyD membrane-fusion"</title>
				<polygon class="PF16576" points="99,35 106,28 122,28 122,52 106,52 99,45" stroke-linejoin="round" width="23" height="24" fill="rgb(70,190,92)" stroke="rgb(56,152,73)" stroke-width="1" opacity="0.75" />
			</g>
		</g>
		<g>
			<title> (ctg2880_3)</title>
			<polygon class=" (ctg2880_3)" points="132,40 155,10 155,70" fill="rgb(255,255,255)" fill-opacity="1.0" stroke="rgb(0,0,0)" stroke-width="2"  />
			<g>
				<title>DUF502 (PF04367)
"Protein of unknown function (DUF502)"</title>
				<polygon class="PF04367" points="138,37 145,28 148,28 148,52 145,52 138,43" stroke-linejoin="round" width="10" height="24" fill="rgb(56,223,87)" stroke="rgb(44,178,69)" stroke-width="1" opacity="0.75" />
			</g>
		</g>
		<g>
			<title> (ctg2880_4)</title>
			<polygon class=" (ctg2880_4)" points="160,10 170,40 160,70" fill="rgb(255,255,255)" fill-opacity="1.0" stroke="rgb(0,0,0)" stroke-width="2"  />
		</g>
		<g>
			<title> (ctg2880_5)</title>
			<polygon class=" (ctg2880_5)" points="241,25 206,25 206,10 176,40 206,70 206,55 241,55" fill="rgb(255,255,255)" fill-opacity="1.0" stroke="rgb(0,0,0)" stroke-width="2"  />
			<g>
				<title>B12-binding (PF02310)
"B12 binding domain"</title>
				<rect class="PF02310" x="217" y="28" stroke-linejoin="round" width="10" height="24" fill="rgb(145,190,60)" stroke="rgb(115,152,48)" stroke-width="1" opacity="0.75" />
			</g>
		</g>
		<g>
			<title> (ctg2880_6)</title>
			<polygon class=" (ctg2880_6)" points="241,40 252,10 252,70" fill="rgb(255,255,255)" fill-opacity="1.0" stroke="rgb(0,0,0)" stroke-width="2"  />
			<g>
				<title>Pterin_4a (PF01329)
"Pterin 4 alpha carbinolamine dehydratase"</title>
				<polygon class="PF01329" points="244,40 249,28 250,28 250,52 249,52" stroke-linejoin="round" width="9" height="24" fill="rgb(109,209,90)" stroke="rgb(87,167,72)" stroke-width="1" opacity="0.75" />
			</g>
		</g>
		<g>
			<title> (ctg2880_7)</title>
			<polygon class=" (ctg2880_7)" points="257,10 262,40 257,70" fill="rgb(255,255,255)" fill-opacity="1.0" stroke="rgb(0,0,0)" stroke-width="2"  />
		</g>
		<g>
			<title> (ctg2880_8)</title>
			<polygon class=" (ctg2880_8)" points="263,10 268,40 263,70" fill="rgb(255,255,255)" fill-opacity="1.0" stroke="rgb(0,0,0)" stroke-width="2"  />
		</g>
		<g>
			<title> (ctg2880_9)</title>
			<polygon class=" (ctg2880_9)" points="328,25 300,25 300,10 270,40 300,70 300,55 328,55" fill="rgb(255,255,255)" fill-opacity="1.0" stroke="rgb(0,0,0)" stroke-width="2"  />
			<g>
				<title>Xan_ur_permease (PF00860)
"Permease family"</title>
				<rect class="PF00860" x="287" y="28" stroke-linejoin="round" width="38" height="24" fill="rgb(216,88,217)" stroke="rgb(172,70,173)" stroke-width="1" opacity="0.75" />
			</g>
		</g>
		<g>
			<title> (ctg2880_10)</title>
			<polygon class=" (ctg2880_10)" points="367,10 394,40 367,70" fill="rgb(255,255,255)" fill-opacity="1.0" stroke="rgb(0,0,0)" stroke-width="2"  />
			<g>
				<title>DUF4007 (PF13182)
"Protein of unknown function (DUF4007)"</title>
				<polygon class="PF13182" points="367,28 378,28 390,40 378,52 367,52" stroke-linejoin="round" width="26" height="24" fill="rgb(65,198,129)" stroke="rgb(52,158,103)" stroke-width="1" opacity="0.75" />
			</g>
		</g>
	</g>
</svg>
