<svg version="1.1" baseProfile="full" xmlns="http://www.w3.org/2000/svg" width="416.06666666666666" height="80">
	<g>
		<line x1="10" y1="40.0" x2="406.06666666666666" y2="40.0" style="stroke:rgb(70,70,70); stroke-width:3 "/>
		<g>
			<title> (ctg4067_1)</title>
			<polygon class=" (ctg4067_1)" points="10,25 209,25 209,10 239,40 209,70 209,55 10,55" fill="rgb(255,255,255)" fill-opacity="1.0" stroke="rgb(0,0,0)" stroke-width="2"  />
			<g>
				<title>PS-DH (PF14765)
"Polyketide synthase dehydratase"</title>
				<rect class="PF14765" x="10" y="28" stroke-linejoin="round" width="10" height="24" fill="rgb(173,56,182)" stroke="rgb(138,44,145)" stroke-width="1" opacity="0.75" />
			</g>
			<g>
				<title>Methyltransf_12 (PF08242)
"Methyltransferase domain"</title>
				<rect class="PF08242" x="43" y="28" stroke-linejoin="round" width="10" height="24" fill="rgb(187,59,115)" stroke="rgb(149,47,92)" stroke-width="1" opacity="0.75" />
			</g>
			<g>
				<title>ADH_zinc_N_2 (PF13602)
"Zinc-binding dehydrogenase"</title>
				<rect class="PF13602" x="101" y="28" stroke-linejoin="round" width="13" height="24" fill="rgb(101,131,226)" stroke="rgb(80,104,180)" stroke-width="1" opacity="0.75" />
			</g>
			<g>
				<title>KR (PF08659)
"KR domain"</title>
				<rect class="PF08659" x="116" y="28" stroke-linejoin="round" width="17" height="24" fill="rgb(66,209,188)" stroke="rgb(52,167,150)" stroke-width="1" opacity="0.75" />
			</g>
			<g>
				<title>PP-binding (PF00550)
"Phosphopantetheine attachment site"</title>
				<rect class="PF00550" x="145" y="28" stroke-linejoin="round" width="6" height="24" fill="rgb(103,191,88)" stroke="rgb(82,152,70)" stroke-width="1" opacity="0.75" />
			</g>
			<g>
				<title>ketoacyl-synt (PF00109)
"Beta-ketoacyl synthase, N-terminal domain"</title>
				<rect class="PF00109" x="154" y="28" stroke-linejoin="round" width="24" height="24" fill="rgb(112,116,228)" stroke="rgb(89,92,182)" stroke-width="1" opacity="0.75" />
			</g>
			<g>
				<title>Ketoacyl-synt_C (PF02801)
"Beta-ketoacyl synthase, C-terminal domain"</title>
				<rect class="PF02801" x="180" y="28" stroke-linejoin="round" width="11" height="24" fill="rgb(215,78,102)" stroke="rgb(172,62,81)" stroke-width="1" opacity="0.75" />
			</g>
			<g>
				<title>KAsynt_C_assoc (PF16197)
"Ketoacyl-synthetase C-terminal extension"</title>
				<rect class="PF16197" x="192" y="28" stroke-linejoin="round" width="15" height="24" fill="rgb(240,150,172)" stroke="rgb(192,120,137)" stroke-width="1" opacity="0.75" />
			</g>
			<g>
				<title>Acyl_transf_1 (PF00698)
"Acyl transferase domain"</title>
				<rect class="PF00698" x="210" y="28" stroke-linejoin="round" width="11" height="24" fill="rgb(59,176,209)" stroke="rgb(47,140,167)" stroke-width="1" opacity="0.75" />
			</g>
		</g>
		<g>
			<title> (ctg4067_2)</title>
			<polygon class=" (ctg4067_2)" points="237,40 242,10 242,70" fill="rgb(255,255,255)" fill-opacity="1.0" stroke="rgb(0,0,0)" stroke-width="2"  />
		</g>
		<g>
			<title> (ctg4067_3)</title>
			<polygon class=" (ctg4067_3)" points="246,40 252,10 252,70" fill="rgb(255,255,255)" fill-opacity="1.0" stroke="rgb(0,0,0)" stroke-width="2"  />
		</g>
		<g>
			<title> (ctg4067_4)</title>
			<polygon class=" (ctg4067_4)" points="265,10 272,40 265,70" fill="rgb(255,255,255)" fill-opacity="1.0" stroke="rgb(0,0,0)" stroke-width="2"  />
		</g>
		<g>
			<title> (ctg4067_5)</title>
			<polygon class=" (ctg4067_5)" points="283,25 318,25 318,10 348,40 318,70 318,55 283,55" fill="rgb(255,255,255)" fill-opacity="1.0" stroke="rgb(0,0,0)" stroke-width="2"  />
			<g>
				<title>Cu_amine_oxidN2 (PF02727)
"Copper amine oxidase, N2 domain"</title>
				<rect class="PF02727" x="285" y="28" stroke-linejoin="round" width="8" height="24" fill="rgb(97,214,141)" stroke="rgb(77,171,112)" stroke-width="1" opacity="0.75" />
			</g>
			<g>
				<title>Cu_amine_oxidN3 (PF02728)
"Copper amine oxidase, N3 domain"</title>
				<rect class="PF02728" x="294" y="28" stroke-linejoin="round" width="10" height="24" fill="rgb(100,62,180)" stroke="rgb(80,49,144)" stroke-width="1" opacity="0.75" />
			</g>
			<g>
				<title>Cu_amine_oxid (PF01179)
"Copper amine oxidase, enzyme domain"</title>
				<polygon class="PF01179" points="306,28 331,28 343,40 331,52 306,52" stroke-linejoin="round" width="41" height="24" fill="rgb(197,95,110)" stroke="rgb(157,76,88)" stroke-width="1" opacity="0.75" />
			</g>
		</g>
		<g>
			<title> (ctg4067_6)</title>
			<polygon class=" (ctg4067_6)" points="364,10 372,40 364,70" fill="rgb(255,255,255)" fill-opacity="1.0" stroke="rgb(0,0,0)" stroke-width="2"  />
			<g>
				<title>DUF2442 (PF10387)
"Protein of unknown function (DUF2442)"</title>
				<polygon class="PF10387" points="364,28 365,28 369,40 365,52 364,52" stroke-linejoin="round" width="6" height="24" fill="rgb(196,147,55)" stroke="rgb(156,117,44)" stroke-width="1" opacity="0.75" />
			</g>
		</g>
		<g>
			<title> (ctg4067_7)</title>
			<polygon class=" (ctg4067_7)" points="394,10 405,40 394,70" fill="rgb(255,255,255)" fill-opacity="1.0" stroke="rgb(0,0,0)" stroke-width="2"  />
		</g>
	</g>
</svg>
