<svg version="1.1" baseProfile="full" xmlns="http://www.w3.org/2000/svg" width="256.7" height="80">
	<g>
		<line x1="10" y1="40.0" x2="246.7" y2="40.0" style="stroke:rgb(70,70,70); stroke-width:3 "/>
		<g>
			<title> (ctg7648_1)</title>
			<polygon class=" (ctg7648_1)" points="19,10 30,40 19,70" fill="rgb(255,255,255)" fill-opacity="1.0" stroke="rgb(0,0,0)" stroke-width="2"  />
			<g>
				<title>YajC (PF02699)
"Preprotein translocase subunit"</title>
				<polygon class="PF02699" points="20,28 22,28 27,40 27,40 22,52 20,52" stroke-linejoin="round" width="7" height="24" fill="rgb(83,176,198)" stroke="rgb(66,140,158)" stroke-width="1" opacity="0.75" />
			</g>
		</g>
		<g>
			<title> (ctg7648_2)</title>
			<polygon class=" (ctg7648_2)" points="31,25 53,25 53,10 83,40 53,70 53,55 31,55" fill="rgb(255,255,255)" fill-opacity="1.0" stroke="rgb(0,0,0)" stroke-width="2"  />
			<g>
				<title>Sec_GG (PF07549)
"SecD/SecF GG Motif"</title>
				<rect class="PF07549" x="34" y="28" stroke-linejoin="round" width="2" height="24" fill="rgb(195,145,79)" stroke="rgb(156,116,63)" stroke-width="1" opacity="0.75" />
			</g>
			<g>
				<title>SecD_SecF (PF02355)
"Protein export membrane protein"</title>
				<polygon class="PF02355" points="65,28 67,28 79,40 67,52 65,52" stroke-linejoin="round" width="17" height="24" fill="rgb(183,133,79)" stroke="rgb(146,106,63)" stroke-width="1" opacity="0.75" />
			</g>
		</g>
		<g>
			<title> (ctg7648_3)</title>
			<polygon class=" (ctg7648_3)" points="85,25 87,25 87,10 117,40 87,70 87,55 85,55" fill="rgb(255,255,255)" fill-opacity="1.0" stroke="rgb(0,0,0)" stroke-width="2"  />
			<g>
				<title>Sec_GG (PF07549)
"SecD/SecF GG Motif"</title>
				<rect class="PF07549" x="88" y="28" stroke-linejoin="round" width="2" height="24" fill="rgb(195,145,79)" stroke="rgb(156,116,63)" stroke-width="1" opacity="0.75" />
			</g>
			<g>
				<title>SecD_SecF (PF02355)
"Protein export membrane protein"</title>
				<polygon class="PF02355" points="96,28 101,28 113,40 101,52 96,52" stroke-linejoin="round" width="18" height="24" fill="rgb(183,133,79)" stroke="rgb(146,106,63)" stroke-width="1" opacity="0.75" />
			</g>
		</g>
		<g>
			<title> (ctg7648_4)</title>
			<polygon class=" (ctg7648_4)" points="117,10 129,40 117,70" fill="rgb(255,255,255)" fill-opacity="1.0" stroke="rgb(0,0,0)" stroke-width="2"  />
			<g>
				<title>DUF498 (PF04430)
"Protein of unknown function (DUF498/DUF598)"</title>
				<polygon class="PF04430" points="118,28 121,28 126,40 121,52 118,52" stroke-linejoin="round" width="10" height="24" fill="rgb(182,124,55)" stroke="rgb(145,99,44)" stroke-width="1" opacity="0.75" />
			</g>
		</g>
		<g>
			<title> (ctg7648_5)</title>
			<polygon class=" (ctg7648_5)" points="130,10 154,40 130,70" fill="rgb(255,255,255)" fill-opacity="1.0" stroke="rgb(0,0,0)" stroke-width="2"  />
			<g>
				<title>SQS_PSY (PF00494)
"Squalene/phytoene synthase"</title>
				<polygon class="PF00494" points="131,28 141,28 146,34 146,46 141,52 131,52" stroke-linejoin="round" width="15" height="24" fill="rgb(178,91,49)" stroke="rgb(142,72,39)" stroke-width="1" opacity="0.75" />
			</g>
		</g>
		<g>
			<title> (ctg7648_6)</title>
			<polygon class=" (ctg7648_6)" points="198,25 183,25 183,10 153,40 183,70 183,55 198,55" fill="rgb(255,255,255)" fill-opacity="1.0" stroke="rgb(0,0,0)" stroke-width="2"  />
			<g>
				<title>GIDA (PF01134)
"Glucose inhibited division protein A"</title>
				<polygon class="PF01134" points="160,37 169,28 197,28 197,52 169,52 160,43" stroke-linejoin="round" width="37" height="24" fill="rgb(180,78,98)" stroke="rgb(144,62,78)" stroke-width="1" opacity="0.75" />
			</g>
		</g>
		<g>
			<title> (ctg7648_7)</title>
			<polygon class=" (ctg7648_7)" points="239,25 229,25 229,10 199,40 229,70 229,55 239,55" fill="rgb(255,255,255)" fill-opacity="1.0" stroke="rgb(0,0,0)" stroke-width="2"  />
			<g>
				<title>CoA_transf_3 (PF02515)
"CoA-transferase family III"</title>
				<polygon class="PF02515" points="203,40 215,28 238,28 238,52 215,52" stroke-linejoin="round" width="36" height="24" fill="rgb(226,102,90)" stroke="rgb(180,81,72)" stroke-width="1" opacity="0.75" />
			</g>
		</g>
		<g>
			<title> (ctg7648_8)</title>
			<polygon class=" (ctg7648_8)" points="244,10 246,40 244,70" fill="rgb(255,255,255)" fill-opacity="1.0" stroke="rgb(0,0,0)" stroke-width="2"  />
		</g>
	</g>
</svg>
