<svg version="1.1" baseProfile="full" xmlns="http://www.w3.org/2000/svg" width="381.73333333333335" height="80">
	<g>
		<line x1="10" y1="40.0" x2="371.73333333333335" y2="40.0" style="stroke:rgb(70,70,70); stroke-width:3 "/>
		<g>
			<title> (ctg6_170)</title>
			<polygon class=" (ctg6_170)" points="15,10 27,40 15,70" fill="rgb(255,255,255)" fill-opacity="1.0" stroke="rgb(0,0,0)" stroke-width="2"  />
		</g>
		<g>
			<title> (ctg6_171)</title>
			<polygon class=" (ctg6_171)" points="28,25 125,25 125,10 155,40 125,70 125,55 28,55" fill="rgb(255,255,255)" fill-opacity="1.0" stroke="rgb(0,0,0)" stroke-width="2"  />
			<g>
				<title>DEAD (PF00270)
"DEAD/DEAH box helicase"</title>
				<rect class="PF00270" x="34" y="28" stroke-linejoin="round" width="15" height="24" fill="rgb(195,100,62)" stroke="rgb(156,80,49)" stroke-width="1" opacity="0.75" />
			</g>
			<g>
				<title>Helicase_C (PF00271)
"Helicase conserved C-terminal domain"</title>
				<rect class="PF00271" x="53" y="28" stroke-linejoin="round" width="13" height="24" fill="rgb(104,224,158)" stroke="rgb(83,179,126)" stroke-width="1" opacity="0.75" />
			</g>
			<g>
				<title>HA2 (PF04408)
"Helicase associated domain (HA2)"</title>
				<rect class="PF04408" x="72" y="28" stroke-linejoin="round" width="11" height="24" fill="rgb(142,68,179)" stroke="rgb(113,54,143)" stroke-width="1" opacity="0.75" />
			</g>
			<g>
				<title>OB_NTP_bind (PF07717)
"Oligonucleotide/oligosaccharide-binding (OB)-fold"</title>
				<rect class="PF07717" x="87" y="28" stroke-linejoin="round" width="7" height="24" fill="rgb(144,74,228)" stroke="rgb(115,59,182)" stroke-width="1" opacity="0.75" />
			</g>
			<g>
				<title>DUF3418 (PF11898)
"Domain of unknown function (DUF3418)"</title>
				<polygon class="PF11898" points="96,28 139,28 151,40 139,52 96,52" stroke-linejoin="round" width="58" height="24" fill="rgb(111,68,209)" stroke="rgb(88,54,167)" stroke-width="1" opacity="0.75" />
			</g>
		</g>
		<g>
			<title> (ctg6_172)</title>
			<polygon class=" (ctg6_172)" points="161,10 173,40 161,70" fill="rgb(255,255,255)" fill-opacity="1.0" stroke="rgb(0,0,0)" stroke-width="2"  />
		</g>
		<g>
			<title> (ctg6_173)</title>
			<polygon class=" (ctg6_173)" points="176,10 204,40 176,70" fill="rgb(255,255,255)" fill-opacity="1.0" stroke="rgb(0,0,0)" stroke-width="2"  />
			<g>
				<title>DUF692 (PF05114)
"Protein of unknown function (DUF692)"</title>
				<polygon class="PF05114" points="176,28 188,28 200,40 188,52 176,52" stroke-linejoin="round" width="26" height="24" fill="rgb(63,196,127)" stroke="rgb(50,156,101)" stroke-width="1" opacity="0.75" />
			</g>
		</g>
		<g>
			<title> (ctg6_174)</title>
			<polygon class=" (ctg6_174)" points="205,10 230,40 205,70" fill="rgb(255,255,255)" fill-opacity="1.0" stroke="rgb(0,0,0)" stroke-width="2"  />
			<g>
				<title>DUF2063 (PF09836)
"Putative DNA-binding domain"</title>
				<rect class="PF09836" x="206" y="28" stroke-linejoin="round" width="8" height="24" fill="rgb(88,194,190)" stroke="rgb(70,155,152)" stroke-width="1" opacity="0.75" />
			</g>
		</g>
		<g>
			<title> (ctg6_175)</title>
			<polygon class=" (ctg6_175)" points="230,40 245,10 245,70" fill="rgb(255,255,255)" fill-opacity="1.0" stroke="rgb(0,0,0)" stroke-width="2"  />
			<g>
				<title>TerB (PF05099)
"Tellurite resistance protein TerB"</title>
				<polygon class="PF05099" points="233,40 239,28 244,28 244,52 239,52" stroke-linejoin="round" width="14" height="24" fill="rgb(81,192,110)" stroke="rgb(64,153,88)" stroke-width="1" opacity="0.75" />
			</g>
		</g>
		<g>
			<title> (ctg6_176)</title>
			<polygon class=" (ctg6_176)" points="249,25 249,25 249,10 279,40 249,70 249,55 249,55" fill="rgb(255,255,255)" fill-opacity="1.0" stroke="rgb(0,0,0)" stroke-width="2"  />
			<g>
				<title>LpxC (PF03331)
"UDP-3-O-acyl N-acetylglycosamine deacetylase"</title>
				<polygon class="PF03331" points="249,28 263,28 275,40 263,52 249,52" stroke-linejoin="round" width="27" height="24" fill="rgb(189,181,50)" stroke="rgb(151,144,40)" stroke-width="1" opacity="0.75" />
			</g>
		</g>
		<g>
			<title> (ctg6_177)</title>
			<polygon class=" (ctg6_177)" points="283,25 302,25 302,10 332,40 302,70 302,55 283,55" fill="rgb(255,255,255)" fill-opacity="1.0" stroke="rgb(0,0,0)" stroke-width="2"  />
			<g>
				<title>tRNA-synt_1c (PF00749)
"tRNA synthetases class I (E and Q), catalytic domain"</title>
				<rect class="PF00749" x="283" y="28" stroke-linejoin="round" width="31" height="24" fill="rgb(218,142,61)" stroke="rgb(174,113,48)" stroke-width="1" opacity="0.75" />
			</g>
		</g>
	</g>
</svg>
