<svg version="1.1" baseProfile="full" xmlns="http://www.w3.org/2000/svg" width="745.4666666666667" height="80">
	<g>
		<line x1="10" y1="40.0" x2="735.4666666666667" y2="40.0" style="stroke:rgb(70,70,70); stroke-width:3 "/>
		<g>
			<title> (ctg42_166)</title>
			<polygon class=" (ctg42_166)" points="85,25 77,25 77,10 47,40 77,70 77,55 85,55" fill="rgb(255,255,255)" fill-opacity="1.0" stroke="rgb(0,0,0)" stroke-width="2"  />
			<g>
				<title>PUA (PF01472)
"PUA domain"</title>
				<polygon class="PF01472" points="51,40 55,36 55,44" stroke-linejoin="round" width="7" height="24" fill="rgb(203,171,67)" stroke="rgb(162,136,53)" stroke-width="1" opacity="0.75" />
			</g>
			<g>
				<title>AA_kinase (PF00696)
"Amino acid kinase family"</title>
				<polygon class="PF00696" points="60,31 63,28 82,28 82,52 63,52 60,49" stroke-linejoin="round" width="22" height="24" fill="rgb(148,78,224)" stroke="rgb(118,62,179)" stroke-width="1" opacity="0.75" />
			</g>
		</g>
		<g>
			<title> (ctg42_167)</title>
			<polygon class=" (ctg42_167)" points="127,25 114,25 114,10 84,40 114,70 114,55 127,55" fill="rgb(255,255,255)" fill-opacity="1.0" stroke="rgb(0,0,0)" stroke-width="2"  />
			<g>
				<title>DUF1967 (PF09269)
"Domain of unknown function (DUF1967)"</title>
				<polygon class="PF09269" points="88,40 90,38 90,42" stroke-linejoin="round" width="6" height="24" fill="rgb(50,182,62)" stroke="rgb(39,145,49)" stroke-width="1" opacity="0.75" />
			</g>
			<g>
				<title>MMR_HSR1 (PF01926)
"50S ribosome-binding GTPase"</title>
				<polygon class="PF01926" points="98,30 100,28 110,28 110,52 100,52 98,50" stroke-linejoin="round" width="12" height="24" fill="rgb(105,180,226)" stroke="rgb(83,143,180)" stroke-width="1" opacity="0.75" />
			</g>
			<g>
				<title>GTP1_OBG (PF01018)
"GTP1/OBG"</title>
				<rect class="PF01018" x="111" y="28" stroke-linejoin="round" width="15" height="24" fill="rgb(159,183,68)" stroke="rgb(127,146,54)" stroke-width="1" opacity="0.75" />
			</g>
		</g>
		<g>
			<title> (ctg42_168)</title>
			<polygon class=" (ctg42_168)" points="128,40 134,10 134,70" fill="rgb(255,255,255)" fill-opacity="1.0" stroke="rgb(0,0,0)" stroke-width="2"  />
			<g>
				<title>HMA (PF00403)
"Heavy-metal-associated domain"</title>
				<polygon class="PF00403" points="131,40 134,28 134,28 134,52 134,52" stroke-linejoin="round" width="6" height="24" fill="rgb(91,198,182)" stroke="rgb(72,158,145)" stroke-width="1" opacity="0.75" />
			</g>
		</g>
		<g>
			<title> (ctg42_169)</title>
			<polygon class=" (ctg42_169)" points="143,40 171,10 171,70" fill="rgb(255,255,255)" fill-opacity="1.0" stroke="rgb(0,0,0)" stroke-width="2"  />
			<g>
				<title>AP_endonuc_2 (PF01261)
"Xylose isomerase-like TIM barrel"</title>
				<polygon class="PF01261" points="147,40 158,28 169,28 169,52 158,52 147,40" stroke-linejoin="round" width="22" height="24" fill="rgb(69,222,207)" stroke="rgb(55,177,165)" stroke-width="1" opacity="0.75" />
			</g>
		</g>
		<g>
			<title> (ctg42_170)</title>
			<polygon class=" (ctg42_170)" points="222,25 219,25 219,10 189,40 219,70 219,55 222,55" fill="rgb(255,255,255)" fill-opacity="1.0" stroke="rgb(0,0,0)" stroke-width="2"  />
			<g>
				<title>ADH_zinc_N (PF00107)
"Zinc-binding dehydrogenase"</title>
				<polygon class="PF00107" points="193,40 205,28 205,28 205,52 205,52" stroke-linejoin="round" width="13" height="24" fill="rgb(81,108,215)" stroke="rgb(64,86,172)" stroke-width="1" opacity="0.75" />
			</g>
			<g>
				<title>ADH_N (PF08240)
"Alcohol dehydrogenase GroES-like domain"</title>
				<rect class="PF08240" x="210" y="28" stroke-linejoin="round" width="10" height="24" fill="rgb(211,65,138)" stroke="rgb(168,51,110)" stroke-width="1" opacity="0.75" />
			</g>
		</g>
		<g>
			<title> (ctg42_171)</title>
			<polygon class=" (ctg42_171)" points="266,25 259,25 259,10 229,40 259,70 259,55 266,55" fill="rgb(255,255,255)" fill-opacity="1.0" stroke="rgb(0,0,0)" stroke-width="2"  />
			<g>
				<title>OrfB_Zn_ribbon (PF07282)
"Putative transposase DNA-binding domain"</title>
				<polygon class="PF07282" points="233,40 237,36 237,44" stroke-linejoin="round" width="7" height="24" fill="rgb(188,84,136)" stroke="rgb(150,67,108)" stroke-width="1" opacity="0.75" />
			</g>
			<g>
				<title>OrfB_IS605 (PF01385)
"Probable transposase"</title>
				<polygon class="PF01385" points="238,35 245,28 250,28 250,52 245,52 238,45" stroke-linejoin="round" width="12" height="24" fill="rgb(95,115,208)" stroke="rgb(76,92,166)" stroke-width="1" opacity="0.75" />
			</g>
		</g>
		<g>
			<title> (ctg42_172)</title>
			<polygon class=" (ctg42_172)" points="310,25 306,25 306,10 276,40 306,70 306,55 310,55" fill="rgb(255,255,255)" fill-opacity="1.0" stroke="rgb(0,0,0)" stroke-width="2"  />
			<g>
				<title>GFO_IDH_MocA (PF01408)
"Oxidoreductase family, NAD-binding Rossmann fold"</title>
				<rect class="PF01408" x="297" y="28" stroke-linejoin="round" width="12" height="24" fill="rgb(76,117,190)" stroke="rgb(60,93,152)" stroke-width="1" opacity="0.75" />
			</g>
		</g>
		<g>
			<title> (ctg42_173)</title>
			<polygon class=" (ctg42_173)" points="328,10 337,40 328,70" fill="rgb(255,255,255)" fill-opacity="1.0" stroke="rgb(0,0,0)" stroke-width="2"  />
			<g>
				<title>DUF433 (PF04255)
"Protein of unknown function (DUF433)"</title>
				<polygon class="PF04255" points="329,28 330,28 334,40 334,40 330,52 329,52" stroke-linejoin="round" width="5" height="24" fill="rgb(205,68,213)" stroke="rgb(164,54,170)" stroke-width="1" opacity="0.75" />
			</g>
		</g>
		<g>
			<title> (ctg42_174)</title>
			<polygon class=" (ctg42_174)" points="343,25 371,25 371,10 401,40 371,70 371,55 343,55" fill="rgb(255,255,255)" fill-opacity="1.0" stroke="rgb(0,0,0)" stroke-width="2"  />
			<g>
				<title>Prenyltrans (PF00432)
"Prenyltransferase and squalene oxidase repeat"</title>
				<rect class="PF00432" x="348" y="28" stroke-linejoin="round" width="3" height="24" fill="rgb(218,215,79)" stroke="rgb(174,172,63)" stroke-width="1" opacity="0.75" />
			</g>
			<g>
				<title>Prenyltrans (PF00432)
"Prenyltransferase and squalene oxidase repeat"</title>
				<rect class="PF00432" x="363" y="28" stroke-linejoin="round" width="2" height="24" fill="rgb(218,215,79)" stroke="rgb(174,172,63)" stroke-width="1" opacity="0.75" />
			</g>
			<g>
				<title>Prenyltrans (PF00432)
"Prenyltransferase and squalene oxidase repeat"</title>
				<rect class="PF00432" x="368" y="28" stroke-linejoin="round" width="1" height="24" fill="rgb(218,215,79)" stroke="rgb(174,172,63)" stroke-width="1" opacity="0.75" />
			</g>
			<g>
				<title>SQHop_cyclase_C (PF13243)
"Squalene-hopene cyclase C-terminal domain"</title>
				<polygon class="PF13243" points="370,28 385,28 397,40 385,52 370,52" stroke-linejoin="round" width="30" height="24" fill="rgb(191,58,201)" stroke="rgb(152,46,160)" stroke-width="1" opacity="0.75" />
			</g>
		</g>
		<g>
			<title> (ctg42_175)</title>
			<polygon class=" (ctg42_175)" points="402,10 424,40 402,70" fill="rgb(255,255,255)" fill-opacity="1.0" stroke="rgb(0,0,0)" stroke-width="2"  />
			<g>
				<title>Glycos_transf_2 (PF00535)
"Glycosyl transferase family 2"</title>
				<polygon class="PF00535" points="402,28 412,28 416,34 416,46 412,52 402,52" stroke-linejoin="round" width="14" height="24" fill="rgb(224,122,96)" stroke="rgb(179,97,76)" stroke-width="1" opacity="0.75" />
			</g>
		</g>
		<g>
			<title> (ctg42_176)</title>
			<polygon class=" (ctg42_176)" points="428,40 456,10 456,70" fill="rgb(255,255,255)" fill-opacity="1.0" stroke="rgb(0,0,0)" stroke-width="2"  />
		</g>
		<g>
			<title> (ctg42_177)</title>
			<polygon class=" (ctg42_177)" points="467,40 491,10 491,70" fill="rgb(255,255,255)" fill-opacity="1.0" stroke="rgb(0,0,0)" stroke-width="2"  />
		</g>
		<g>
			<title> (ctg42_178)</title>
			<polygon class=" (ctg42_178)" points="496,25 496,25 496,10 526,40 496,70 496,55 496,55" fill="rgb(255,255,255)" fill-opacity="1.0" stroke="rgb(0,0,0)" stroke-width="2"  />
			<g>
				<title>FGE-sulfatase (PF03781)
"Sulfatase-modifying factor enzyme 1"</title>
				<polygon class="PF03781" points="500,28 510,28 522,40 510,52 500,52" stroke-linejoin="round" width="25" height="24" fill="rgb(206,81,170)" stroke="rgb(164,64,136)" stroke-width="1" opacity="0.75" />
			</g>
		</g>
		<g>
			<title> (ctg42_179)</title>
			<polygon class=" (ctg42_179)" points="582,25 556,25 556,10 526,40 556,70 556,55 582,55" fill="rgb(255,255,255)" fill-opacity="1.0" stroke="rgb(0,0,0)" stroke-width="2"  />
			<g>
				<title>UnbV_ASPIC (PF07593)
"ASPIC and UnbV"</title>
				<polygon class="PF07593" points="530,40 533,37 533,43" stroke-linejoin="round" width="6" height="24" fill="rgb(157,212,86)" stroke="rgb(125,169,68)" stroke-width="1" opacity="0.75" />
			</g>
			<g>
				<title>VCBS (PF13517)
"Repeat domain in Vibrio, Colwellia, Bradyrhizobium and Shewanella"</title>
				<polygon class="PF13517" points="537,33 542,28 543,28 543,52 542,52 537,47" stroke-linejoin="round" width="6" height="24" fill="rgb(77,199,76)" stroke="rgb(61,159,60)" stroke-width="1" opacity="0.75" />
			</g>
			<g>
				<title>VCBS (PF13517)
"Repeat domain in Vibrio, Colwellia, Bradyrhizobium and Shewanella"</title>
				<rect class="PF13517" x="549" y="28" stroke-linejoin="round" width="6" height="24" fill="rgb(77,199,76)" stroke="rgb(61,159,60)" stroke-width="1" opacity="0.75" />
			</g>
			<g>
				<title>VCBS (PF13517)
"Repeat domain in Vibrio, Colwellia, Bradyrhizobium and Shewanella"</title>
				<rect class="PF13517" x="563" y="28" stroke-linejoin="round" width="6" height="24" fill="rgb(77,199,76)" stroke="rgb(61,159,60)" stroke-width="1" opacity="0.75" />
			</g>
		</g>
		<g>
			<title> (ctg42_180)</title>
			<polygon class=" (ctg42_180)" points="609,25 641,25 641,10 671,40 641,70 641,55 609,55" fill="rgb(255,255,255)" fill-opacity="1.0" stroke="rgb(0,0,0)" stroke-width="2"  />
			<g>
				<title>TPR_16 (PF13432)
"Tetratricopeptide repeat"</title>
				<rect class="PF13432" x="612" y="28" stroke-linejoin="round" width="6" height="24" fill="rgb(154,205,86)" stroke="rgb(123,164,68)" stroke-width="1" opacity="0.75" />
			</g>
			<g>
				<title>TPR_11 (PF13414)
"TPR repeat"</title>
				<rect class="PF13414" x="621" y="28" stroke-linejoin="round" width="3" height="24" fill="rgb(55,76,182)" stroke="rgb(44,60,145)" stroke-width="1" opacity="0.75" />
			</g>
			<g>
				<title>TPR_16 (PF13432)
"Tetratricopeptide repeat"</title>
				<rect class="PF13432" x="636" y="28" stroke-linejoin="round" width="6" height="24" fill="rgb(154,205,86)" stroke="rgb(123,164,68)" stroke-width="1" opacity="0.75" />
			</g>
			<g>
				<title>TPR_19 (PF14559)
"Tetratricopeptide repeat"</title>
				<rect class="PF14559" x="647" y="28" stroke-linejoin="round" width="6" height="24" fill="rgb(182,60,145)" stroke="rgb(145,48,115)" stroke-width="1" opacity="0.75" />
			</g>
			<g>
				<title>TPR_16 (PF13432)
"Tetratricopeptide repeat"</title>
				<polygon class="PF13432" points="655,28 655,28 661,34 661,46 655,52 655,52" stroke-linejoin="round" width="6" height="24" fill="rgb(154,205,86)" stroke="rgb(123,164,68)" stroke-width="1" opacity="0.75" />
			</g>
			<g>
				<title>TPR_11 (PF13414)
"TPR repeat"</title>
				<polygon class="PF13414" points="663,36 666,39 666,41 663,44" stroke-linejoin="round" width="3" height="24" fill="rgb(55,76,182)" stroke="rgb(44,60,145)" stroke-width="1" opacity="0.75" />
			</g>
		</g>
	</g>
</svg>
