<svg version="1.1" baseProfile="full" xmlns="http://www.w3.org/2000/svg" width="1695.1" height="80">
	<g>
		<line x1="10" y1="40.0" x2="1685.1" y2="40.0" style="stroke:rgb(70,70,70); stroke-width:3 "/>
		<g>
			<title> (ctg6_467)</title>
			<polygon class=" (ctg6_467)" points="38,40 57,10 57,70" fill="rgb(255,255,255)" fill-opacity="1.0" stroke="rgb(0,0,0)" stroke-width="2"  />
			<g>
				<title>bPH_2 (PF03703)
"Bacterial PH domain"</title>
				<polygon class="PF03703" points="42,40 47,32 47,48" stroke-linejoin="round" width="7" height="24" fill="rgb(228,219,97)" stroke="rgb(182,175,77)" stroke-width="1" opacity="0.75" />
			</g>
		</g>
		<g>
			<title> (ctg6_468)</title>
			<polygon class=" (ctg6_468)" points="60,40 79,10 79,70" fill="rgb(255,255,255)" fill-opacity="1.0" stroke="rgb(0,0,0)" stroke-width="2"  />
			<g>
				<title>bPH_2 (PF03703)
"Bacterial PH domain"</title>
				<polygon class="PF03703" points="64,40 69,32 69,48" stroke-linejoin="round" width="7" height="24" fill="rgb(228,219,97)" stroke="rgb(182,175,77)" stroke-width="1" opacity="0.75" />
			</g>
		</g>
		<g>
			<title> (ctg6_469)</title>
			<polygon class=" (ctg6_469)" points="90,25 94,25 94,10 124,40 94,70 94,55 90,55" fill="rgb(255,255,255)" fill-opacity="1.0" stroke="rgb(0,0,0)" stroke-width="2"  />
			<g>
				<title>Aldo_ket_red (PF00248)
"Aldo/keto reductase family"</title>
				<polygon class="PF00248" points="91,28 108,28 120,40 108,52 91,52" stroke-linejoin="round" width="31" height="24" fill="rgb(225,205,58)" stroke="rgb(180,164,46)" stroke-width="1" opacity="0.75" />
			</g>
		</g>
		<g>
			<title> (ctg6_470)</title>
			<polygon class=" (ctg6_470)" points="128,25 130,25 130,10 160,40 130,70 130,55 128,55" fill="rgb(255,255,255)" fill-opacity="1.0" stroke="rgb(0,0,0)" stroke-width="2"  />
		</g>
		<g>
			<title> (ctg6_471)</title>
			<polygon class=" (ctg6_471)" points="161,25 166,25 166,10 196,40 166,70 166,55 161,55" fill="rgb(255,255,255)" fill-opacity="1.0" stroke="rgb(0,0,0)" stroke-width="2"  />
		</g>
		<g>
			<title> (ctg6_472)</title>
			<polygon class=" (ctg6_472)" points="198,40 224,10 224,70" fill="rgb(255,255,255)" fill-opacity="1.0" stroke="rgb(0,0,0)" stroke-width="2"  />
			<g>
				<title>HAGH_C (PF16123)
"Hydroxyacylglutathione hydrolase C-terminus"</title>
				<polygon class="PF16123" points="202,40 206,35 206,45" stroke-linejoin="round" width="8" height="24" fill="rgb(223,80,207)" stroke="rgb(178,64,165)" stroke-width="1" opacity="0.75" />
			</g>
			<g>
				<title>Lactamase_B (PF00753)
"Metallo-beta-lactamase superfamily"</title>
				<polygon class="PF00753" points="207,34 213,28 222,28 222,52 213,52 207,46" stroke-linejoin="round" width="15" height="24" fill="rgb(206,198,96)" stroke="rgb(164,158,76)" stroke-width="1" opacity="0.75" />
			</g>
		</g>
		<g>
			<title> (ctg6_473)</title>
			<polygon class=" (ctg6_473)" points="279,25 264,25 264,10 234,40 264,70 264,55 279,55" fill="rgb(255,255,255)" fill-opacity="1.0" stroke="rgb(0,0,0)" stroke-width="2"  />
			<g>
				<title>Amidohydro_1 (PF01979)
"Amidohydrolase family"</title>
				<polygon class="PF01979" points="238,40 250,28 273,28 273,52 250,52" stroke-linejoin="round" width="37" height="24" fill="rgb(210,93,184)" stroke="rgb(168,74,147)" stroke-width="1" opacity="0.75" />
			</g>
		</g>
		<g>
			<title> (ctg6_474)</title>
			<polygon class=" (ctg6_474)" points="282,25 292,25 292,10 322,40 292,70 292,55 282,55" fill="rgb(255,255,255)" fill-opacity="1.0" stroke="rgb(0,0,0)" stroke-width="2"  />
			<g>
				<title>Amidohydro_1 (PF01979)
"Amidohydrolase family"</title>
				<polygon class="PF01979" points="288,28 306,28 318,40 306,52 288,52" stroke-linejoin="round" width="34" height="24" fill="rgb(210,93,184)" stroke="rgb(168,74,147)" stroke-width="1" opacity="0.75" />
			</g>
		</g>
		<g>
			<title> (ctg6_475)</title>
			<polygon class=" (ctg6_475)" points="328,25 413,25 413,10 443,40 413,70 413,55 328,55" fill="rgb(255,255,255)" fill-opacity="1.0" stroke="rgb(0,0,0)" stroke-width="2"  />
			<g>
				<title>UvrB_inter (PF17757)
"UvrB interaction domain"</title>
				<rect class="PF17757" x="341" y="28" stroke-linejoin="round" width="8" height="24" fill="rgb(228,207,102)" stroke="rgb(182,165,81)" stroke-width="1" opacity="0.75" />
			</g>
			<g>
				<title>CarD_CdnL_TRCF (PF02559)
"CarD-like/TRCF domain"</title>
				<rect class="PF02559" x="376" y="28" stroke-linejoin="round" width="9" height="24" fill="rgb(216,93,82)" stroke="rgb(172,74,65)" stroke-width="1" opacity="0.75" />
			</g>
			<g>
				<title>DEAD (PF00270)
"DEAD/DEAH box helicase"</title>
				<rect class="PF00270" x="388" y="28" stroke-linejoin="round" width="16" height="24" fill="rgb(195,100,62)" stroke="rgb(156,80,49)" stroke-width="1" opacity="0.75" />
			</g>
			<g>
				<title>Helicase_C (PF00271)
"Helicase conserved C-terminal domain"</title>
				<rect class="PF00271" x="407" y="28" stroke-linejoin="round" width="11" height="24" fill="rgb(104,224,158)" stroke="rgb(83,179,126)" stroke-width="1" opacity="0.75" />
			</g>
			<g>
				<title>TRCF (PF03461)
"TRCF domain"</title>
				<polygon class="PF03461" points="428,30 437,39 437,41 428,50" stroke-linejoin="round" width="9" height="24" fill="rgb(60,201,111)" stroke="rgb(48,160,88)" stroke-width="1" opacity="0.75" />
			</g>
		</g>
		<g>
			<title> (ctg6_476)</title>
			<polygon class=" (ctg6_476)" points="443,25 453,25 453,10 483,40 453,70 453,55 443,55" fill="rgb(255,255,255)" fill-opacity="1.0" stroke="rgb(0,0,0)" stroke-width="2"  />
			<g>
				<title>CsiV (PF10972)
"Peptidoglycan-binding protein, CsiV"</title>
				<polygon class="PF10972" points="443,28 466,28 478,40 466,52 443,52" stroke-linejoin="round" width="38" height="24" fill="rgb(82,180,68)" stroke="rgb(65,144,54)" stroke-width="1" opacity="0.75" />
			</g>
		</g>
		<g>
			<title> (ctg6_477)</title>
			<polygon class=" (ctg6_477)" points="482,40 508,10 508,70" fill="rgb(255,255,255)" fill-opacity="1.0" stroke="rgb(0,0,0)" stroke-width="2"  />
			<g>
				<title>PNP_UDP_1 (PF01048)
"Phosphorylase superfamily"</title>
				<polygon class="PF01048" points="486,40 496,28 505,28 505,52 496,52" stroke-linejoin="round" width="23" height="24" fill="rgb(75,186,148)" stroke="rgb(60,148,118)" stroke-width="1" opacity="0.75" />
			</g>
		</g>
		<g>
			<title> (ctg6_478)</title>
			<polygon class=" (ctg6_478)" points="507,40 524,10 524,70" fill="rgb(255,255,255)" fill-opacity="1.0" stroke="rgb(0,0,0)" stroke-width="2"  />
			<g>
				<title>Pribosyltran (PF00156)
"Phosphoribosyl transferase domain"</title>
				<polygon class="PF00156" points="510,40 517,28 523,28 523,52 517,52 510,40" stroke-linejoin="round" width="13" height="24" fill="rgb(210,210,74)" stroke="rgb(168,168,59)" stroke-width="1" opacity="0.75" />
			</g>
		</g>
		<g>
			<title> (ctg6_479)</title>
			<polygon class=" (ctg6_479)" points="559,25 554,25 554,10 524,40 554,70 554,55 559,55" fill="rgb(255,255,255)" fill-opacity="1.0" stroke="rgb(0,0,0)" stroke-width="2"  />
			<g>
				<title>MS_channel (PF00924)
"Mechanosensitive ion channel"</title>
				<polygon class="PF00924" points="528,40 540,28 546,28 546,52 540,52" stroke-linejoin="round" width="20" height="24" fill="rgb(177,58,210)" stroke="rgb(141,46,168)" stroke-width="1" opacity="0.75" />
			</g>
		</g>
		<g>
			<title> (ctg6_480)</title>
			<polygon class=" (ctg6_480)" points="569,10 590,40 569,70" fill="rgb(255,255,255)" fill-opacity="1.0" stroke="rgb(0,0,0)" stroke-width="2"  />
			<g>
				<title>LexA_DNA_bind (PF01726)
"LexA DNA binding domain"</title>
				<rect class="PF01726" x="569" y="28" stroke-linejoin="round" width="6" height="24" fill="rgb(210,53,189)" stroke="rgb(168,42,151)" stroke-width="1" opacity="0.75" />
			</g>
			<g>
				<title>Peptidase_S24 (PF00717)
"Peptidase S24-like"</title>
				<polygon class="PF00717" points="581,32 586,40 581,48" stroke-linejoin="round" width="6" height="24" fill="rgb(180,76,105)" stroke="rgb(144,60,83)" stroke-width="1" opacity="0.75" />
			</g>
		</g>
		<g>
			<title> (ctg6_481)</title>
			<polygon class=" (ctg6_481)" points="616,10 639,40 616,70" fill="rgb(255,255,255)" fill-opacity="1.0" stroke="rgb(0,0,0)" stroke-width="2"  />
			<g>
				<title>ACPS (PF01648)
"4'-phosphopantetheinyl transferase superfamily"</title>
				<polygon class="PF01648" points="627,30 635,40 627,50" stroke-linejoin="round" width="10" height="24" fill="rgb(85,184,135)" stroke="rgb(68,147,108)" stroke-width="1" opacity="0.75" />
			</g>
		</g>
		<g>
			<title> (ctg6_482)</title>
			<polygon class=" (ctg6_482)" points="640,25 640,25 640,10 670,40 640,70 640,55 640,55" fill="rgb(255,255,255)" fill-opacity="1.0" stroke="rgb(0,0,0)" stroke-width="2"  />
			<g>
				<title>Abhydrolase_6 (PF12697)
"Alpha/beta hydrolase family"</title>
				<polygon class="PF12697" points="643,28 654,28 666,40 654,52 643,52" stroke-linejoin="round" width="26" height="24" fill="rgb(113,71,219)" stroke="rgb(90,56,175)" stroke-width="1" opacity="0.75" />
			</g>
		</g>
		<g>
			<title> (ctg6_483)</title>
			<polygon class=" (ctg6_483)" points="740,25 706,25 706,10 676,40 706,70 706,55 740,55" fill="rgb(255,255,255)" fill-opacity="1.0" stroke="rgb(0,0,0)" stroke-width="2"  />
			<g>
				<title>Acyl_transf_1 (PF00698)
"Acyl transferase domain"</title>
				<polygon class="PF00698" points="684,36 692,28 700,28 700,52 692,52 684,44" stroke-linejoin="round" width="16" height="24" fill="rgb(59,176,209)" stroke="rgb(47,140,167)" stroke-width="1" opacity="0.75" />
			</g>
			<g>
				<title>KAsynt_C_assoc (PF16197)
"Ketoacyl-synthetase C-terminal extension"</title>
				<rect class="PF16197" x="705" y="28" stroke-linejoin="round" width="14" height="24" fill="rgb(240,150,172)" stroke="rgb(192,120,137)" stroke-width="1" opacity="0.75" />
			</g>
			<g>
				<title>Ketoacyl-synt_C (PF02801)
"Beta-ketoacyl synthase, C-terminal domain"</title>
				<rect class="PF02801" x="719" y="28" stroke-linejoin="round" width="11" height="24" fill="rgb(215,78,102)" stroke="rgb(172,62,81)" stroke-width="1" opacity="0.75" />
			</g>
			<g>
				<title>ketoacyl-synt (PF00109)
"Beta-ketoacyl synthase, N-terminal domain"</title>
				<rect class="PF00109" x="732" y="28" stroke-linejoin="round" width="7" height="24" fill="rgb(112,116,228)" stroke="rgb(89,92,182)" stroke-width="1" opacity="0.75" />
			</g>
		</g>
		<g>
			<title> (ctg6_484)</title>
			<polygon class=" (ctg6_484)" points="1017,25 770,25 770,10 740,40 770,70 770,55 1017,55" fill="rgb(255,255,255)" fill-opacity="1.0" stroke="rgb(0,0,0)" stroke-width="2"  />
			<g>
				<title>ketoacyl-synt (PF00109)
"Beta-ketoacyl synthase, N-terminal domain"</title>
				<polygon class="PF00109" points="744,40 756,28 756,28 756,52 756,52" stroke-linejoin="round" width="16" height="24" fill="rgb(112,116,228)" stroke="rgb(89,92,182)" stroke-width="1" opacity="0.75" />
			</g>
			<g>
				<title>PP-binding (PF00550)
"Phosphopantetheine attachment site"</title>
				<rect class="PF00550" x="762" y="28" stroke-linejoin="round" width="6" height="24" fill="rgb(103,191,88)" stroke="rgb(82,152,70)" stroke-width="1" opacity="0.75" />
			</g>
			<g>
				<title>KR (PF08659)
"KR domain"</title>
				<rect class="PF08659" x="779" y="28" stroke-linejoin="round" width="17" height="24" fill="rgb(66,209,188)" stroke="rgb(52,167,150)" stroke-width="1" opacity="0.75" />
			</g>
			<g>
				<title>ADH_zinc_N (PF00107)
"Zinc-binding dehydrogenase"</title>
				<rect class="PF00107" x="805" y="28" stroke-linejoin="round" width="10" height="24" fill="rgb(81,108,215)" stroke="rgb(64,86,172)" stroke-width="1" opacity="0.75" />
			</g>
			<g>
				<title>Methyltransf_12 (PF08242)
"Methyltransferase domain"</title>
				<rect class="PF08242" x="860" y="28" stroke-linejoin="round" width="10" height="24" fill="rgb(187,59,115)" stroke="rgb(149,47,92)" stroke-width="1" opacity="0.75" />
			</g>
			<g>
				<title>PS-DH (PF14765)
"Polyketide synthase dehydratase"</title>
				<rect class="PF14765" x="893" y="28" stroke-linejoin="round" width="30" height="24" fill="rgb(173,56,182)" stroke="rgb(138,44,145)" stroke-width="1" opacity="0.75" />
			</g>
			<g>
				<title>Acyl_transf_1 (PF00698)
"Acyl transferase domain"</title>
				<rect class="PF00698" x="930" y="28" stroke-linejoin="round" width="30" height="24" fill="rgb(59,176,209)" stroke="rgb(47,140,167)" stroke-width="1" opacity="0.75" />
			</g>
			<g>
				<title>KAsynt_C_assoc (PF16197)
"Ketoacyl-synthetase C-terminal extension"</title>
				<rect class="PF16197" x="965" y="28" stroke-linejoin="round" width="13" height="24" fill="rgb(240,150,172)" stroke="rgb(192,120,137)" stroke-width="1" opacity="0.75" />
			</g>
			<g>
				<title>Ketoacyl-synt_C (PF02801)
"Beta-ketoacyl synthase, C-terminal domain"</title>
				<rect class="PF02801" x="979" y="28" stroke-linejoin="round" width="11" height="24" fill="rgb(215,78,102)" stroke="rgb(172,62,81)" stroke-width="1" opacity="0.75" />
			</g>
			<g>
				<title>ketoacyl-synt (PF00109)
"Beta-ketoacyl synthase, N-terminal domain"</title>
				<rect class="PF00109" x="991" y="28" stroke-linejoin="round" width="25" height="24" fill="rgb(112,116,228)" stroke="rgb(89,92,182)" stroke-width="1" opacity="0.75" />
			</g>
		</g>
		<g>
			<title> (ctg6_485)</title>
			<polygon class=" (ctg6_485)" points="1030,10 1036,40 1030,70" fill="rgb(255,255,255)" fill-opacity="1.0" stroke="rgb(0,0,0)" stroke-width="2"  />
			<g>
				<title>PP-binding (PF00550)
"Phosphopantetheine attachment site"</title>
				<polygon class="PF00550" points="1030,28 1030,28 1033,40 1030,52 1030,52" stroke-linejoin="round" width="6" height="24" fill="rgb(103,191,88)" stroke="rgb(82,152,70)" stroke-width="1" opacity="0.75" />
			</g>
		</g>
		<g>
			<title> (ctg6_486)</title>
			<polygon class=" (ctg6_486)" points="1141,25 1084,25 1084,10 1054,40 1084,70 1084,55 1141,55" fill="rgb(255,255,255)" fill-opacity="1.0" stroke="rgb(0,0,0)" stroke-width="2"  />
			<g>
				<title>zf-C4_Topoisom (PF01396)
"Topoisomerase DNA binding C4 zinc finger"</title>
				<polygon class="PF01396" points="1061,37 1064,34 1064,46 1061,43" stroke-linejoin="round" width="3" height="24" fill="rgb(63,193,76)" stroke="rgb(50,154,60)" stroke-width="1" opacity="0.75" />
			</g>
			<g>
				<title>zf-C4_Topoisom (PF01396)
"Topoisomerase DNA binding C4 zinc finger"</title>
				<polygon class="PF01396" points="1066,32 1069,29 1069,51 1066,48" stroke-linejoin="round" width="3" height="24" fill="rgb(63,193,76)" stroke="rgb(50,154,60)" stroke-width="1" opacity="0.75" />
			</g>
			<g>
				<title>zf-C4_Topoisom (PF01396)
"Topoisomerase DNA binding C4 zinc finger"</title>
				<rect class="PF01396" x="1077" y="28" stroke-linejoin="round" width="3" height="24" fill="rgb(63,193,76)" stroke="rgb(50,154,60)" stroke-width="1" opacity="0.75" />
			</g>
			<g>
				<title>Topoisom_bac (PF01131)
"DNA topoisomerase"</title>
				<rect class="PF01131" x="1084" y="28" stroke-linejoin="round" width="42" height="24" fill="rgb(136,196,98)" stroke="rgb(108,156,78)" stroke-width="1" opacity="0.75" />
			</g>
			<g>
				<title>Toprim (PF01751)
"Toprim domain"</title>
				<rect class="PF01751" x="1127" y="28" stroke-linejoin="round" width="13" height="24" fill="rgb(95,212,145)" stroke="rgb(76,169,116)" stroke-width="1" opacity="0.75" />
			</g>
		</g>
		<g>
			<title> (ctg6_487)</title>
			<polygon class=" (ctg6_487)" points="1145,40 1163,10 1163,70" fill="rgb(255,255,255)" fill-opacity="1.0" stroke="rgb(0,0,0)" stroke-width="2"  />
		</g>
		<g>
			<title> (ctg6_488)</title>
			<polygon class=" (ctg6_488)" points="1179,25 1213,25 1213,10 1243,40 1213,70 1213,55 1179,55" fill="rgb(255,255,255)" fill-opacity="1.0" stroke="rgb(0,0,0)" stroke-width="2"  />
			<g>
				<title>SLT_L (PF14718)
"Soluble lytic murein transglycosylase L domain"</title>
				<rect class="PF14718" x="1219" y="28" stroke-linejoin="round" width="6" height="24" fill="rgb(193,223,86)" stroke="rgb(154,178,68)" stroke-width="1" opacity="0.75" />
			</g>
			<g>
				<title>SLT (PF01464)
"Transglycosylase SLT domain"</title>
				<polygon class="PF01464" points="1227,28 1227,28 1238,39 1238,41 1227,52 1227,52" stroke-linejoin="round" width="11" height="24" fill="rgb(181,60,156)" stroke="rgb(144,47,124)" stroke-width="1" opacity="0.75" />
			</g>
		</g>
		<g>
			<title> (ctg6_489)</title>
			<polygon class=" (ctg6_489)" points="1244,10 1269,40 1244,70" fill="rgb(255,255,255)" fill-opacity="1.0" stroke="rgb(0,0,0)" stroke-width="2"  />
			<g>
				<title>TatD_DNase (PF01026)
"TatD related DNase"</title>
				<polygon class="PF01026" points="1244,28 1256,28 1265,40 1256,52 1244,52" stroke-linejoin="round" width="25" height="24" fill="rgb(91,81,210)" stroke="rgb(72,64,168)" stroke-width="1" opacity="0.75" />
			</g>
		</g>
		<g>
			<title> (ctg6_490)</title>
			<polygon class=" (ctg6_490)" points="1269,40 1277,10 1277,70" fill="rgb(255,255,255)" fill-opacity="1.0" stroke="rgb(0,0,0)" stroke-width="2"  />
		</g>
		<g>
			<title> (ctg6_491)</title>
			<polygon class=" (ctg6_491)" points="1338,25 1308,25 1308,10 1278,40 1308,70 1308,55 1338,55" fill="rgb(255,255,255)" fill-opacity="1.0" stroke="rgb(0,0,0)" stroke-width="2"  />
			<g>
				<title>AhpC-TSA (PF00578)
"AhpC/TSA family"</title>
				<polygon class="PF00578" points="1282,40 1293,29 1293,51" stroke-linejoin="round" width="12" height="24" fill="rgb(166,71,190)" stroke="rgb(132,56,152)" stroke-width="1" opacity="0.75" />
			</g>
		</g>
		<g>
			<title> (ctg6_492)</title>
			<polygon class=" (ctg6_492)" points="1344,10 1362,40 1344,70" fill="rgb(255,255,255)" fill-opacity="1.0" stroke="rgb(0,0,0)" stroke-width="2"  />
			<g>
				<title>Acetyltransf_3 (PF13302)
"Acetyltransferase (GNAT) domain"</title>
				<polygon class="PF13302" points="1345,28 1351,28 1358,39 1358,41 1351,52 1345,52" stroke-linejoin="round" width="13" height="24" fill="rgb(105,146,215)" stroke="rgb(84,116,172)" stroke-width="1" opacity="0.75" />
			</g>
		</g>
		<g>
			<title> (ctg6_493)</title>
			<polygon class=" (ctg6_493)" points="1363,25 1397,25 1397,10 1427,40 1397,70 1397,55 1363,55" fill="rgb(255,255,255)" fill-opacity="1.0" stroke="rgb(0,0,0)" stroke-width="2"  />
			<g>
				<title>Peptidase_S9 (PF00326)
"Prolyl oligopeptidase family"</title>
				<polygon class="PF00326" points="1405,28 1411,28 1423,40 1411,52 1405,52" stroke-linejoin="round" width="20" height="24" fill="rgb(77,97,209)" stroke="rgb(61,77,167)" stroke-width="1" opacity="0.75" />
			</g>
		</g>
		<g>
			<title> (ctg6_494)</title>
			<polygon class=" (ctg6_494)" points="1427,25 1429,25 1429,10 1459,40 1429,70 1429,55 1427,55" fill="rgb(255,255,255)" fill-opacity="1.0" stroke="rgb(0,0,0)" stroke-width="2"  />
			<g>
				<title>Dala_Dala_lig_N (PF01820)
"D-ala D-ala ligase N-terminus"</title>
				<rect class="PF01820" x="1427" y="28" stroke-linejoin="round" width="8" height="24" fill="rgb(55,160,179)" stroke="rgb(44,127,143)" stroke-width="1" opacity="0.75" />
			</g>
			<g>
				<title>Dala_Dala_lig_C (PF07478)
"D-ala D-ala ligase C-terminus"</title>
				<polygon class="PF07478" points="1437,28 1443,28 1455,40 1443,52 1437,52" stroke-linejoin="round" width="20" height="24" fill="rgb(202,54,160)" stroke="rgb(161,43,127)" stroke-width="1" opacity="0.75" />
			</g>
		</g>
		<g>
			<title> (ctg6_495)</title>
			<polygon class=" (ctg6_495)" points="1494,25 1490,25 1490,10 1460,40 1490,70 1490,55 1494,55" fill="rgb(255,255,255)" fill-opacity="1.0" stroke="rgb(0,0,0)" stroke-width="2"  />
			<g>
				<title>DHO_dh (PF01180)
"Dihydroorotate dehydrogenase"</title>
				<polygon class="PF01180" points="1464,40 1476,28 1489,28 1489,52 1476,52" stroke-linejoin="round" width="29" height="24" fill="rgb(127,188,80)" stroke="rgb(101,150,64)" stroke-width="1" opacity="0.75" />
			</g>
		</g>
		<g>
			<title> (ctg6_496)</title>
			<polygon class=" (ctg6_496)" points="1497,25 1498,25 1498,10 1528,40 1498,70 1498,55 1497,55" fill="rgb(255,255,255)" fill-opacity="1.0" stroke="rgb(0,0,0)" stroke-width="2"  />
			<g>
				<title>AAA_3 (PF07726)
"ATPase family associated with various cellular activities (AAA)"</title>
				<polygon class="PF07726" points="1500,28 1512,28 1513,29 1513,51 1512,52 1500,52" stroke-linejoin="round" width="13" height="24" fill="rgb(225,222,92)" stroke="rgb(180,177,73)" stroke-width="1" opacity="0.75" />
			</g>
			<g>
				<title>AAA_lid_2 (PF17863)
"AAA lid domain"</title>
				<polygon class="PF17863" points="1520,36 1524,40 1520,44" stroke-linejoin="round" width="7" height="24" fill="rgb(52,164,197)" stroke="rgb(41,131,157)" stroke-width="1" opacity="0.75" />
			</g>
		</g>
		<g>
			<title> (ctg6_497)</title>
			<polygon class=" (ctg6_497)" points="1529,25 1529,25 1529,10 1559,40 1529,70 1529,55 1529,55" fill="rgb(255,255,255)" fill-opacity="1.0" stroke="rgb(0,0,0)" stroke-width="2"  />
			<g>
				<title>DUF58 (PF01882)
"Protein of unknown function DUF58"</title>
				<rect class="PF01882" x="1533" y="28" stroke-linejoin="round" width="8" height="24" fill="rgb(190,218,84)" stroke="rgb(152,174,67)" stroke-width="1" opacity="0.75" />
			</g>
		</g>
		<g>
			<title> (ctg6_498)</title>
			<polygon class=" (ctg6_498)" points="1559,10 1575,40 1559,70" fill="rgb(255,255,255)" fill-opacity="1.0" stroke="rgb(0,0,0)" stroke-width="2"  />
			<g>
				<title>DUF4381 (PF14316)
"Domain of unknown function (DUF4381)"</title>
				<polygon class="PF14316" points="1559,28 1565,28 1572,40 1565,52 1559,52" stroke-linejoin="round" width="14" height="24" fill="rgb(57,98,224)" stroke="rgb(45,78,179)" stroke-width="1" opacity="0.75" />
			</g>
		</g>
		<g>
			<title> (ctg6_499)</title>
			<polygon class=" (ctg6_499)" points="1576,25 1578,25 1578,10 1608,40 1578,70 1578,55 1576,55" fill="rgb(255,255,255)" fill-opacity="1.0" stroke="rgb(0,0,0)" stroke-width="2"  />
			<g>
				<title>VWA (PF00092)
"von Willebrand factor type A domain"</title>
				<polygon class="PF00092" points="1585,28 1592,28 1604,40 1604,40 1592,52 1585,52" stroke-linejoin="round" width="19" height="24" fill="rgb(199,215,59)" stroke="rgb(159,172,47)" stroke-width="1" opacity="0.75" />
			</g>
		</g>
		<g>
			<title> (ctg6_500)</title>
			<polygon class=" (ctg6_500)" points="1608,25 1640,25 1640,10 1670,40 1640,70 1640,55 1608,55" fill="rgb(255,255,255)" fill-opacity="1.0" stroke="rgb(0,0,0)" stroke-width="2"  />
			<g>
				<title>VWA_2 (PF13519)
"von Willebrand factor type A domain"</title>
				<rect class="PF13519" x="1618" y="28" stroke-linejoin="round" width="10" height="24" fill="rgb(58,213,93)" stroke="rgb(46,170,74)" stroke-width="1" opacity="0.75" />
			</g>
		</g>
	</g>
</svg>
