<svg version="1.1" baseProfile="full" xmlns="http://www.w3.org/2000/svg" width="865.8333333333334" height="80">
	<g>
		<line x1="10" y1="40.0" x2="855.8333333333334" y2="40.0" style="stroke:rgb(70,70,70); stroke-width:3 "/>
		<g>
			<title> (ctg839_17)</title>
			<polygon class=" (ctg839_17)" points="27,10 32,40 27,70" fill="rgb(255,255,255)" fill-opacity="1.0" stroke="rgb(0,0,0)" stroke-width="2"  />
		</g>
		<g>
			<title> (ctg839_18)</title>
			<polygon class=" (ctg839_18)" points="34,10 39,40 34,70" fill="rgb(255,255,255)" fill-opacity="1.0" stroke="rgb(0,0,0)" stroke-width="2"  />
		</g>
		<g>
			<title> (ctg839_19)</title>
			<polygon class=" (ctg839_19)" points="45,40 63,10 63,70" fill="rgb(255,255,255)" fill-opacity="1.0" stroke="rgb(0,0,0)" stroke-width="2"  />
			<g>
				<title>Dioxygenase_C (PF00775)
"Dioxygenase"</title>
				<polygon class="PF00775" points="49,40 56,28 62,28 62,52 56,52" stroke-linejoin="round" width="16" height="24" fill="rgb(96,217,213)" stroke="rgb(76,173,170)" stroke-width="1" opacity="0.75" />
			</g>
		</g>
		<g>
			<title> (ctg839_20)</title>
			<polygon class=" (ctg839_20)" points="64,40 87,10 87,70" fill="rgb(255,255,255)" fill-opacity="1.0" stroke="rgb(0,0,0)" stroke-width="2"  />
			<g>
				<title>Dioxygenase_C (PF00775)
"Dioxygenase"</title>
				<polygon class="PF00775" points="68,40 77,28 82,28 82,52 77,52" stroke-linejoin="round" width="18" height="24" fill="rgb(96,217,213)" stroke="rgb(76,173,170)" stroke-width="1" opacity="0.75" />
			</g>
		</g>
		<g>
			<title> (ctg839_21)</title>
			<polygon class=" (ctg839_21)" points="87,40 100,10 100,70" fill="rgb(255,255,255)" fill-opacity="1.0" stroke="rgb(0,0,0)" stroke-width="2"  />
			<g>
				<title>CMD (PF02627)
"Carboxymuconolactone decarboxylase family"</title>
				<polygon class="PF02627" points="90,40 95,28 96,28 96,52 95,52" stroke-linejoin="round" width="8" height="24" fill="rgb(58,205,164)" stroke="rgb(46,164,131)" stroke-width="1" opacity="0.75" />
			</g>
		</g>
		<g>
			<title> (ctg839_22)</title>
			<polygon class=" (ctg839_22)" points="100,40 126,10 126,70" fill="rgb(255,255,255)" fill-opacity="1.0" stroke="rgb(0,0,0)" stroke-width="2"  />
			<g>
				<title>Abhydrolase_6 (PF12697)
"Alpha/beta hydrolase family"</title>
				<polygon class="PF12697" points="104,40 115,28 123,28 123,52 115,52" stroke-linejoin="round" width="22" height="24" fill="rgb(113,71,219)" stroke="rgb(90,56,175)" stroke-width="1" opacity="0.75" />
			</g>
		</g>
		<g>
			<title> (ctg839_23)</title>
			<polygon class=" (ctg839_23)" points="128,10 144,40 128,70" fill="rgb(255,255,255)" fill-opacity="1.0" stroke="rgb(0,0,0)" stroke-width="2"  />
			<g>
				<title>DDE_Tnp_IS1595 (PF12762)
"ISXO2-like transposase domain"</title>
				<polygon class="PF12762" points="134,28 134,28 140,40 134,52 134,52" stroke-linejoin="round" width="10" height="24" fill="rgb(211,88,85)" stroke="rgb(168,70,68)" stroke-width="1" opacity="0.75" />
			</g>
		</g>
		<g>
			<title> (ctg839_24)</title>
			<polygon class=" (ctg839_24)" points="144,10 152,40 144,70" fill="rgb(255,255,255)" fill-opacity="1.0" stroke="rgb(0,0,0)" stroke-width="2"  />
			<g>
				<title>DDE_Tnp_IS1595 (PF12762)
"ISXO2-like transposase domain"</title>
				<polygon class="PF12762" points="144,28 145,28 148,35 148,45 145,52 144,52" stroke-linejoin="round" width="4" height="24" fill="rgb(211,88,85)" stroke="rgb(168,70,68)" stroke-width="1" opacity="0.75" />
			</g>
		</g>
		<g>
			<title> (ctg839_25)</title>
			<polygon class=" (ctg839_25)" points="157,40 163,10 163,70" fill="rgb(255,255,255)" fill-opacity="1.0" stroke="rgb(0,0,0)" stroke-width="2"  />
		</g>
		<g>
			<title> (ctg839_26)</title>
			<polygon class=" (ctg839_26)" points="173,40 195,10 195,70" fill="rgb(255,255,255)" fill-opacity="1.0" stroke="rgb(0,0,0)" stroke-width="2"  />
		</g>
		<g>
			<title> (ctg839_27)</title>
			<polygon class=" (ctg839_27)" points="201,40 208,10 208,70" fill="rgb(255,255,255)" fill-opacity="1.0" stroke="rgb(0,0,0)" stroke-width="2"  />
		</g>
		<g>
			<title> (ctg839_28)</title>
			<polygon class=" (ctg839_28)" points="225,25 244,25 244,10 274,40 244,70 244,55 225,55" fill="rgb(255,255,255)" fill-opacity="1.0" stroke="rgb(0,0,0)" stroke-width="2"  />
			<g>
				<title>N6_Mtase (PF02384)
"N-6 DNA Methylase"</title>
				<polygon class="PF02384" points="227,28 257,28 258,29 258,51 257,52 227,52" stroke-linejoin="round" width="31" height="24" fill="rgb(46,179,90)" stroke="rgb(36,143,72)" stroke-width="1" opacity="0.75" />
			</g>
		</g>
		<g>
			<title> (ctg839_29)</title>
			<polygon class=" (ctg839_29)" points="275,10 297,40 275,70" fill="rgb(255,255,255)" fill-opacity="1.0" stroke="rgb(0,0,0)" stroke-width="2"  />
			<g>
				<title>HATPase_c_4 (PF13749)
"Putative ATP-dependent DNA helicase recG C-terminal"</title>
				<rect class="PF13749" x="276" y="28" stroke-linejoin="round" width="8" height="24" fill="rgb(216,98,162)" stroke="rgb(172,78,129)" stroke-width="1" opacity="0.75" />
			</g>
			<g>
				<title>HTH_24 (PF13412)
"Winged helix-turn-helix DNA-binding"</title>
				<polygon class="PF13412" points="291,37 293,40 291,43" stroke-linejoin="round" width="4" height="24" fill="rgb(222,79,68)" stroke="rgb(177,63,54)" stroke-width="1" opacity="0.75" />
			</g>
		</g>
		<g>
			<title> (ctg839_30)</title>
			<polygon class=" (ctg839_30)" points="299,10 315,40 299,70" fill="rgb(255,255,255)" fill-opacity="1.0" stroke="rgb(0,0,0)" stroke-width="2"  />
			<g>
				<title>HSDR_N (PF04313)
"Type I restriction enzyme R protein N terminus (HSDR_N)"</title>
				<polygon class="PF04313" points="299,28 305,28 312,40 305,52 299,52" stroke-linejoin="round" width="15" height="24" fill="rgb(67,217,209)" stroke="rgb(53,173,167)" stroke-width="1" opacity="0.75" />
			</g>
		</g>
		<g>
			<title> (ctg839_31)</title>
			<polygon class=" (ctg839_31)" points="338,40 350,10 350,70" fill="rgb(255,255,255)" fill-opacity="1.0" stroke="rgb(0,0,0)" stroke-width="2"  />
		</g>
		<g>
			<title> (ctg839_32)</title>
			<polygon class=" (ctg839_32)" points="364,25 373,25 373,10 403,40 373,70 373,55 364,55" fill="rgb(255,255,255)" fill-opacity="1.0" stroke="rgb(0,0,0)" stroke-width="2"  />
			<g>
				<title>p450 (PF00067)
"Cytochrome P450"</title>
				<polygon class="PF00067" points="389,31 398,40 389,49" stroke-linejoin="round" width="12" height="24" fill="rgb(85,216,107)" stroke="rgb(68,172,85)" stroke-width="1" opacity="0.75" />
			</g>
		</g>
		<g>
			<title> (ctg839_33)</title>
			<polygon class=" (ctg839_33)" points="403,10 409,40 403,70" fill="rgb(255,255,255)" fill-opacity="1.0" stroke="rgb(0,0,0)" stroke-width="2"  />
		</g>
		<g>
			<title> (ctg839_34)</title>
			<polygon class=" (ctg839_34)" points="410,25 428,25 428,10 458,40 428,70 428,55 410,55" fill="rgb(255,255,255)" fill-opacity="1.0" stroke="rgb(0,0,0)" stroke-width="2"  />
			<g>
				<title>SSF (PF00474)
"Sodium:solute symporter family"</title>
				<polygon class="PF00474" points="413,28 442,28 452,38 452,42 442,52 413,52" stroke-linejoin="round" width="39" height="24" fill="rgb(49,186,178)" stroke="rgb(39,148,142)" stroke-width="1" opacity="0.75" />
			</g>
		</g>
		<g>
			<title> (ctg839_35)</title>
			<polygon class=" (ctg839_35)" points="457,10 465,40 457,70" fill="rgb(255,255,255)" fill-opacity="1.0" stroke="rgb(0,0,0)" stroke-width="2"  />
		</g>
		<g>
			<title> (ctg839_36)</title>
			<polygon class=" (ctg839_36)" points="465,25 548,25 548,10 578,40 548,70 548,55 465,55" fill="rgb(255,255,255)" fill-opacity="1.0" stroke="rgb(0,0,0)" stroke-width="2"  />
			<g>
				<title>CarboxypepD_reg (PF13620)
"Carboxypeptidase regulatory-like domain"</title>
				<rect class="PF13620" x="467" y="28" stroke-linejoin="round" width="8" height="24" fill="rgb(201,63,96)" stroke="rgb(160,50,76)" stroke-width="1" opacity="0.75" />
			</g>
			<g>
				<title>Plug (PF07715)
"TonB-dependent Receptor Plug Domain"</title>
				<rect class="PF07715" x="478" y="28" stroke-linejoin="round" width="10" height="24" fill="rgb(99,133,214)" stroke="rgb(79,106,171)" stroke-width="1" opacity="0.75" />
			</g>
		</g>
		<g>
			<title> (ctg839_37)</title>
			<polygon class=" (ctg839_37)" points="588,40 609,10 609,70" fill="rgb(255,255,255)" fill-opacity="1.0" stroke="rgb(0,0,0)" stroke-width="2"  />
		</g>
		<g>
			<title> (ctg839_38)</title>
			<polygon class=" (ctg839_38)" points="610,25 636,25 636,10 666,40 636,70 636,55 610,55" fill="rgb(255,255,255)" fill-opacity="1.0" stroke="rgb(0,0,0)" stroke-width="2"  />
		</g>
		<g>
			<title> (ctg839_39)</title>
			<polygon class=" (ctg839_39)" points="668,40 675,10 675,70" fill="rgb(255,255,255)" fill-opacity="1.0" stroke="rgb(0,0,0)" stroke-width="2"  />
			<g>
				<title>Zn-ribbon_8 (PF09723)
"Zinc ribbon domain"</title>
				<polygon class="PF09723" points="671,40 674,28 674,28 674,52 674,52 671,40" stroke-linejoin="round" width="3" height="24" fill="rgb(100,194,213)" stroke="rgb(80,155,170)" stroke-width="1" opacity="0.75" />
			</g>
		</g>
		<g>
			<title> (ctg839_40)</title>
			<polygon class=" (ctg839_40)" points="767,25 706,25 706,10 676,40 706,70 706,55 767,55" fill="rgb(255,255,255)" fill-opacity="1.0" stroke="rgb(0,0,0)" stroke-width="2"  />
			<g>
				<title>AMP-binding (PF00501)
"AMP-binding enzyme"</title>
				<rect class="PF00501" x="711" y="28" stroke-linejoin="round" width="44" height="24" fill="rgb(60,217,223)" stroke="rgb(48,173,178)" stroke-width="1" opacity="0.75" />
			</g>
			<g>
				<title>PP-binding (PF00550)
"Phosphopantetheine attachment site"</title>
				<rect class="PF00550" x="759" y="28" stroke-linejoin="round" width="7" height="24" fill="rgb(103,191,88)" stroke="rgb(82,152,70)" stroke-width="1" opacity="0.75" />
			</g>
		</g>
		<g>
			<title> (ctg839_41)</title>
			<polygon class=" (ctg839_41)" points="777,10 802,40 777,70" fill="rgb(255,255,255)" fill-opacity="1.0" stroke="rgb(0,0,0)" stroke-width="2"  />
			<g>
				<title>MOSC_N (PF03476)
"MOSC N-terminal beta barrel domain"</title>
				<rect class="PF03476" x="777" y="28" stroke-linejoin="round" width="9" height="24" fill="rgb(209,103,209)" stroke="rgb(167,82,167)" stroke-width="1" opacity="0.75" />
			</g>
			<g>
				<title>MOSC (PF03473)
"MOSC domain"</title>
				<polygon class="PF03473" points="788,28 788,28 798,40 788,52 788,52" stroke-linejoin="round" width="13" height="24" fill="rgb(96,194,162)" stroke="rgb(76,155,129)" stroke-width="1" opacity="0.75" />
			</g>
		</g>
		<g>
			<title> (ctg839_42)</title>
			<polygon class=" (ctg839_42)" points="804,25 821,25 821,10 851,40 821,70 821,55 804,55" fill="rgb(255,255,255)" fill-opacity="1.0" stroke="rgb(0,0,0)" stroke-width="2"  />
			<g>
				<title>Sulfatase (PF00884)
"Sulfatase"</title>
				<polygon class="PF00884" points="806,28 834,28 837,31 837,49 834,52 806,52" stroke-linejoin="round" width="31" height="24" fill="rgb(61,103,198)" stroke="rgb(48,82,158)" stroke-width="1" opacity="0.75" />
			</g>
			<g>
				<title>DUF4976 (PF16347)
"Domain of unknown function (DUF4976)"</title>
				<polygon class="PF16347" points="842,36 846,40 842,44" stroke-linejoin="round" width="7" height="24" fill="rgb(122,75,207)" stroke="rgb(97,60,165)" stroke-width="1" opacity="0.75" />
			</g>
		</g>
		<g>
			<title> (ctg839_43)</title>
			<polygon class=" (ctg839_43)" points="852,40 855,10 855,70" fill="rgb(255,255,255)" fill-opacity="1.0" stroke="rgb(0,0,0)" stroke-width="2"  />
		</g>
	</g>
</svg>
