<svg version="1.1" baseProfile="full" xmlns="http://www.w3.org/2000/svg" width="273.5333333333333" height="80">
	<g>
		<line x1="10" y1="40.0" x2="263.5333333333333" y2="40.0" style="stroke:rgb(70,70,70); stroke-width:3 "/>
		<g>
			<title> (ctg6995_1)</title>
			<polygon class=" (ctg6995_1)" points="10,10 19,40 10,70" fill="rgb(255,255,255)" fill-opacity="1.0" stroke="rgb(0,0,0)" stroke-width="2"  />
		</g>
		<g>
			<title> (ctg6995_2)</title>
			<polygon class=" (ctg6995_2)" points="26,25 55,25 55,10 85,40 55,70 55,55 26,55" fill="rgb(255,255,255)" fill-opacity="1.0" stroke="rgb(0,0,0)" stroke-width="2"  />
			<g>
				<title>GATase_7 (PF13537)
"Glutamine amidotransferase domain"</title>
				<rect class="PF13537" x="28" y="28" stroke-linejoin="round" width="11" height="24" fill="rgb(200,63,57)" stroke="rgb(160,50,45)" stroke-width="1" opacity="0.75" />
			</g>
			<g>
				<title>Asn_synthase (PF00733)
"Asparagine synthase"</title>
				<polygon class="PF00733" points="47,28 69,28 81,40 69,52 47,52" stroke-linejoin="round" width="36" height="24" fill="rgb(97,201,176)" stroke="rgb(77,160,140)" stroke-width="1" opacity="0.75" />
			</g>
		</g>
		<g>
			<title> (ctg6995_3)</title>
			<polygon class=" (ctg6995_3)" points="86,25 86,25 86,10 116,40 86,70 86,55 86,55" fill="rgb(255,255,255)" fill-opacity="1.0" stroke="rgb(0,0,0)" stroke-width="2"  />
			<g>
				<title>Glyco_transf_8 (PF01501)
"Glycosyl transferase family 8"</title>
				<polygon class="PF01501" points="86,28 100,28 111,39 111,41 100,52 86,52" stroke-linejoin="round" width="25" height="24" fill="rgb(208,74,95)" stroke="rgb(166,59,76)" stroke-width="1" opacity="0.75" />
			</g>
		</g>
		<g>
			<title> (ctg6995_4)</title>
			<polygon class=" (ctg6995_4)" points="117,10 144,40 117,70" fill="rgb(255,255,255)" fill-opacity="1.0" stroke="rgb(0,0,0)" stroke-width="2"  />
			<g>
				<title>Sulfotransfer_3 (PF13469)
"Sulfotransferase family"</title>
				<polygon class="PF13469" points="118,28 128,28 137,37 137,43 128,52 118,52" stroke-linejoin="round" width="19" height="24" fill="rgb(59,182,84)" stroke="rgb(47,145,67)" stroke-width="1" opacity="0.75" />
			</g>
		</g>
		<g>
			<title> (ctg6995_5)</title>
			<polygon class=" (ctg6995_5)" points="144,10 164,40 144,70" fill="rgb(255,255,255)" fill-opacity="1.0" stroke="rgb(0,0,0)" stroke-width="2"  />
			<g>
				<title>Asp_Arg_Hydrox (PF05118)
"Aspartyl/Asparaginyl beta-hydroxylase"</title>
				<polygon class="PF05118" points="153,29 161,40 153,51" stroke-linejoin="round" width="10" height="24" fill="rgb(110,77,203)" stroke="rgb(88,61,162)" stroke-width="1" opacity="0.75" />
			</g>
		</g>
		<g>
			<title> (ctg6995_6)</title>
			<polygon class=" (ctg6995_6)" points="165,25 199,25 199,10 229,40 199,70 199,55 165,55" fill="rgb(255,255,255)" fill-opacity="1.0" stroke="rgb(0,0,0)" stroke-width="2"  />
			<g>
				<title>Sulfotransfer_1 (PF00685)
"Sulfotransferase domain"</title>
				<polygon class="PF00685" points="199,28 213,28 225,40 213,52 199,52" stroke-linejoin="round" width="27" height="24" fill="rgb(66,135,208)" stroke="rgb(52,107,166)" stroke-width="1" opacity="0.75" />
			</g>
		</g>
		<g>
			<title> (ctg6995_7)</title>
			<polygon class=" (ctg6995_7)" points="229,10 244,40 229,70" fill="rgb(255,255,255)" fill-opacity="1.0" stroke="rgb(0,0,0)" stroke-width="2"  />
			<g>
				<title>Transglut_core3 (PF13471)
"Transglutaminase-like superfamily"</title>
				<polygon class="PF13471" points="231,28 234,28 240,40 234,52 231,52" stroke-linejoin="round" width="11" height="24" fill="rgb(63,111,179)" stroke="rgb(50,88,143)" stroke-width="1" opacity="0.75" />
			</g>
		</g>
		<g>
			<title> (ctg6995_8)</title>
			<polygon class=" (ctg6995_8)" points="244,10 262,40 244,70" fill="rgb(255,255,255)" fill-opacity="1.0" stroke="rgb(0,0,0)" stroke-width="2"  />
		</g>
	</g>
</svg>
