<svg version="1.1" baseProfile="full" xmlns="http://www.w3.org/2000/svg" width="656.0666666666667" height="80">
	<g>
		<line x1="10" y1="40.0" x2="646.0666666666667" y2="40.0" style="stroke:rgb(70,70,70); stroke-width:3 "/>
		<g>
			<title> (ctg2091_4)</title>
			<polygon class=" (ctg2091_4)" points="97,25 74,25 74,10 44,40 74,70 74,55 97,55" fill="rgb(255,255,255)" fill-opacity="1.0" stroke="rgb(0,0,0)" stroke-width="2"  />
			<g>
				<title>CHB_HEX_C_1 (PF13290)
"Chitobiase/beta-hexosaminidase C-terminal domain"</title>
				<polygon class="PF13290" points="48,40 50,38 50,42" stroke-linejoin="round" width="6" height="24" fill="rgb(126,178,80)" stroke="rgb(100,142,64)" stroke-width="1" opacity="0.75" />
			</g>
			<g>
				<title>Sulfatase (PF00884)
"Sulfatase"</title>
				<rect class="PF00884" x="69" y="28" stroke-linejoin="round" width="15" height="24" fill="rgb(61,103,198)" stroke="rgb(48,82,158)" stroke-width="1" opacity="0.75" />
			</g>
			<g>
				<title>Sulfatase (PF00884)
"Sulfatase"</title>
				<rect class="PF00884" x="83" y="28" stroke-linejoin="round" width="12" height="24" fill="rgb(61,103,198)" stroke="rgb(48,82,158)" stroke-width="1" opacity="0.75" />
			</g>
		</g>
		<g>
			<title> (ctg2091_5)</title>
			<polygon class=" (ctg2091_5)" points="102,10 125,40 102,70" fill="rgb(255,255,255)" fill-opacity="1.0" stroke="rgb(0,0,0)" stroke-width="2"  />
			<g>
				<title>CMAS (PF02353)
"Mycolic acid cyclopropane synthetase"</title>
				<polygon class="PF02353" points="113,30 121,40 121,40 113,50" stroke-linejoin="round" width="8" height="24" fill="rgb(56,174,188)" stroke="rgb(44,139,150)" stroke-width="1" opacity="0.75" />
			</g>
		</g>
		<g>
			<title> (ctg2091_6)</title>
			<polygon class=" (ctg2091_6)" points="125,10 141,40 125,70" fill="rgb(255,255,255)" fill-opacity="1.0" stroke="rgb(0,0,0)" stroke-width="2"  />
			<g>
				<title>CMAS (PF02353)
"Mycolic acid cyclopropane synthetase"</title>
				<polygon class="PF02353" points="125,28 131,28 138,40 131,52 125,52" stroke-linejoin="round" width="14" height="24" fill="rgb(56,174,188)" stroke="rgb(44,139,150)" stroke-width="1" opacity="0.75" />
			</g>
		</g>
		<g>
			<title> (ctg2091_7)</title>
			<polygon class=" (ctg2091_7)" points="142,10 160,40 142,70" fill="rgb(255,255,255)" fill-opacity="1.0" stroke="rgb(0,0,0)" stroke-width="2"  />
		</g>
		<g>
			<title> (ctg2091_8)</title>
			<polygon class=" (ctg2091_8)" points="167,10 178,40 167,70" fill="rgb(255,255,255)" fill-opacity="1.0" stroke="rgb(0,0,0)" stroke-width="2"  />
		</g>
		<g>
			<title> (ctg2091_9)</title>
			<polygon class=" (ctg2091_9)" points="229,25 212,25 212,10 182,40 212,70 212,55 229,55" fill="rgb(255,255,255)" fill-opacity="1.0" stroke="rgb(0,0,0)" stroke-width="2"  />
			<g>
				<title>Sulfatase (PF00884)
"Sulfatase"</title>
				<polygon class="PF00884" points="192,34 198,28 228,28 228,52 198,52 192,46" stroke-linejoin="round" width="36" height="24" fill="rgb(61,103,198)" stroke="rgb(48,82,158)" stroke-width="1" opacity="0.75" />
			</g>
		</g>
		<g>
			<title> (ctg2091_10)</title>
			<polygon class=" (ctg2091_10)" points="231,40 235,10 235,70" fill="rgb(255,255,255)" fill-opacity="1.0" stroke="rgb(0,0,0)" stroke-width="2"  />
		</g>
		<g>
			<title> (ctg2091_11)</title>
			<polygon class=" (ctg2091_11)" points="235,40 255,10 255,70" fill="rgb(255,255,255)" fill-opacity="1.0" stroke="rgb(0,0,0)" stroke-width="2"  />
			<g>
				<title>SCO1-SenC (PF02630)
"SCO1/SenC"</title>
				<polygon class="PF02630" points="239,40 247,28 250,28 250,52 247,52" stroke-linejoin="round" width="13" height="24" fill="rgb(86,217,172)" stroke="rgb(68,173,137)" stroke-width="1" opacity="0.75" />
			</g>
		</g>
		<g>
			<title> (ctg2091_12)</title>
			<polygon class=" (ctg2091_12)" points="256,40 263,10 263,70" fill="rgb(255,255,255)" fill-opacity="1.0" stroke="rgb(0,0,0)" stroke-width="2"  />
			<g>
				<title>PCuAC (PF04314)
"Copper chaperone PCu(A)C"</title>
				<polygon class="PF04314" points="259,40 262,28 263,28 263,52 262,52" stroke-linejoin="round" width="6" height="24" fill="rgb(55,206,196)" stroke="rgb(44,164,156)" stroke-width="1" opacity="0.75" />
			</g>
		</g>
		<g>
			<title> (ctg2091_13)</title>
			<polygon class=" (ctg2091_13)" points="264,10 272,40 264,70" fill="rgb(255,255,255)" fill-opacity="1.0" stroke="rgb(0,0,0)" stroke-width="2"  />
		</g>
		<g>
			<title> (ctg2091_14)</title>
			<polygon class=" (ctg2091_14)" points="273,10 279,40 273,70" fill="rgb(255,255,255)" fill-opacity="1.0" stroke="rgb(0,0,0)" stroke-width="2"  />
		</g>
		<g>
			<title> (ctg2091_15)</title>
			<polygon class=" (ctg2091_15)" points="339,25 329,25 329,10 299,40 329,70 329,55 339,55" fill="rgb(255,255,255)" fill-opacity="1.0" stroke="rgb(0,0,0)" stroke-width="2"  />
			<g>
				<title>Amidohydro_1 (PF01979)
"Amidohydrolase family"</title>
				<polygon class="PF01979" points="303,40 313,30 313,50" stroke-linejoin="round" width="11" height="24" fill="rgb(210,93,184)" stroke="rgb(168,74,147)" stroke-width="1" opacity="0.75" />
			</g>
		</g>
		<g>
			<title> (ctg2091_16)</title>
			<polygon class=" (ctg2091_16)" points="373,25 373,25 373,10 343,40 373,70 373,55 373,55" fill="rgb(255,255,255)" fill-opacity="1.0" stroke="rgb(0,0,0)" stroke-width="2"  />
			<g>
				<title>SQS_PSY (PF00494)
"Squalene/phytoene synthase"</title>
				<polygon class="PF00494" points="347,40 359,28 372,28 372,52 359,52" stroke-linejoin="round" width="26" height="24" fill="rgb(178,91,49)" stroke="rgb(142,72,39)" stroke-width="1" opacity="0.75" />
			</g>
		</g>
		<g>
			<title> (ctg2091_17)</title>
			<polygon class=" (ctg2091_17)" points="383,10 404,40 383,70" fill="rgb(255,255,255)" fill-opacity="1.0" stroke="rgb(0,0,0)" stroke-width="2"  />
			<g>
				<title>Amidase_2 (PF01510)
"N-acetylmuramoyl-L-alanine amidase"</title>
				<polygon class="PF01510" points="385,28 392,28 400,40 392,52 385,52" stroke-linejoin="round" width="16" height="24" fill="rgb(122,192,71)" stroke="rgb(97,153,56)" stroke-width="1" opacity="0.75" />
			</g>
		</g>
		<g>
			<title> (ctg2091_18)</title>
			<polygon class=" (ctg2091_18)" points="404,25 406,25 406,10 436,40 406,70 406,55 404,55" fill="rgb(255,255,255)" fill-opacity="1.0" stroke="rgb(0,0,0)" stroke-width="2"  />
			<g>
				<title>ABC_tran (PF00005)
"ABC transporter"</title>
				<polygon class="PF00005" points="408,28 420,28 422,30 422,50 420,52 408,52" stroke-linejoin="round" width="14" height="24" fill="rgb(129,201,63)" stroke="rgb(103,160,50)" stroke-width="1" opacity="0.75" />
			</g>
		</g>
		<g>
			<title> (ctg2091_19)</title>
			<polygon class=" (ctg2091_19)" points="437,10 463,40 437,70" fill="rgb(255,255,255)" fill-opacity="1.0" stroke="rgb(0,0,0)" stroke-width="2"  />
			<g>
				<title>ABC2_membrane_6 (PF06182)
"ABC-2 family transporter protein"</title>
				<polygon class="PF06182" points="440,28 448,28 459,40 448,52 440,52" stroke-linejoin="round" width="23" height="24" fill="rgb(223,99,59)" stroke="rgb(178,79,47)" stroke-width="1" opacity="0.75" />
			</g>
		</g>
		<g>
			<title> (ctg2091_20)</title>
			<polygon class=" (ctg2091_20)" points="464,10 489,40 464,70" fill="rgb(255,255,255)" fill-opacity="1.0" stroke="rgb(0,0,0)" stroke-width="2"  />
			<g>
				<title>ABC2_membrane_6 (PF06182)
"ABC-2 family transporter protein"</title>
				<polygon class="PF06182" points="467,28 476,28 485,40 476,52 467,52" stroke-linejoin="round" width="22" height="24" fill="rgb(223,99,59)" stroke="rgb(178,79,47)" stroke-width="1" opacity="0.75" />
			</g>
		</g>
		<g>
			<title> (ctg2091_21)</title>
			<polygon class=" (ctg2091_21)" points="491,25 494,25 494,10 524,40 494,70 494,55 491,55" fill="rgb(255,255,255)" fill-opacity="1.0" stroke="rgb(0,0,0)" stroke-width="2"  />
			<g>
				<title>UxuA (PF03786)
"D-mannonate dehydratase (UxuA)"</title>
				<polygon class="PF03786" points="503,28 508,28 520,40 508,52 503,52" stroke-linejoin="round" width="20" height="24" fill="rgb(193,50,168)" stroke="rgb(154,39,134)" stroke-width="1" opacity="0.75" />
			</g>
		</g>
		<g>
			<title> (ctg2091_22)</title>
			<polygon class=" (ctg2091_22)" points="526,25 526,25 526,10 556,40 526,70 526,55 526,55" fill="rgb(255,255,255)" fill-opacity="1.0" stroke="rgb(0,0,0)" stroke-width="2"  />
		</g>
		<g>
			<title> (ctg2091_23)</title>
			<polygon class=" (ctg2091_23)" points="558,40 572,10 572,70" fill="rgb(255,255,255)" fill-opacity="1.0" stroke="rgb(0,0,0)" stroke-width="2"  />
			<g>
				<title>HSDR_N_2 (PF13588)
"Type I restriction enzyme R protein N terminus (HSDR_N)"</title>
				<polygon class="PF13588" points="561,40 567,28 568,28 568,52 567,52" stroke-linejoin="round" width="10" height="24" fill="rgb(59,182,76)" stroke="rgb(47,145,60)" stroke-width="1" opacity="0.75" />
			</g>
		</g>
		<g>
			<title> (ctg2091_24)</title>
			<polygon class=" (ctg2091_24)" points="645,25 602,25 602,10 572,40 602,70 602,55 645,55" fill="rgb(255,255,255)" fill-opacity="1.0" stroke="rgb(0,0,0)" stroke-width="2"  />
			<g>
				<title>FlgD_ig (PF13860)
"FlgD Ig-like domain"</title>
				<polygon class="PF13860" points="576,40 579,37 579,43" stroke-linejoin="round" width="6" height="24" fill="rgb(135,90,185)" stroke="rgb(108,72,148)" stroke-width="1" opacity="0.75" />
			</g>
			<g>
				<title>GSDH (PF07995)
"Glucose / Sorbosone dehydrogenase"</title>
				<rect class="PF07995" x="614" y="28" stroke-linejoin="round" width="21" height="24" fill="rgb(199,57,124)" stroke="rgb(159,45,99)" stroke-width="1" opacity="0.75" />
			</g>
		</g>
	</g>
</svg>
