<svg version="1.1" baseProfile="full" xmlns="http://www.w3.org/2000/svg" width="750.0666666666667" height="80">
	<g>
		<line x1="10" y1="40.0" x2="740.0666666666667" y2="40.0" style="stroke:rgb(70,70,70); stroke-width:3 "/>
		<g>
			<title> (ctg628_10)</title>
			<polygon class=" (ctg628_10)" points="12,25 22,25 22,10 52,40 22,70 22,55 12,55" fill="rgb(255,255,255)" fill-opacity="1.0" stroke="rgb(0,0,0)" stroke-width="2"  />
			<g>
				<title>MacB_PCD (PF12704)
"MacB-like periplasmic core domain"</title>
				<rect class="PF12704" x="14" y="28" stroke-linejoin="round" width="21" height="24" fill="rgb(79,76,190)" stroke="rgb(63,60,152)" stroke-width="1" opacity="0.75" />
			</g>
			<g>
				<title>FtsX (PF02687)
"FtsX-like permease family"</title>
				<polygon class="PF02687" points="41,33 48,40 41,47" stroke-linejoin="round" width="10" height="24" fill="rgb(126,55,214)" stroke="rgb(100,44,171)" stroke-width="1" opacity="0.75" />
			</g>
		</g>
		<g>
			<title> (ctg628_11)</title>
			<polygon class=" (ctg628_11)" points="54,10 77,40 54,70" fill="rgb(255,255,255)" fill-opacity="1.0" stroke="rgb(0,0,0)" stroke-width="2"  />
			<g>
				<title>ABC_tran (PF00005)
"ABC transporter"</title>
				<polygon class="PF00005" points="56,28 64,28 70,36 70,44 64,52 56,52" stroke-linejoin="round" width="14" height="24" fill="rgb(129,201,63)" stroke="rgb(103,160,50)" stroke-width="1" opacity="0.75" />
			</g>
		</g>
		<g>
			<title> (ctg628_12)</title>
			<polygon class=" (ctg628_12)" points="84,25 88,25 88,10 118,40 88,70 88,55 84,55" fill="rgb(255,255,255)" fill-opacity="1.0" stroke="rgb(0,0,0)" stroke-width="2"  />
		</g>
		<g>
			<title> (ctg628_13)</title>
			<polygon class=" (ctg628_13)" points="119,40 144,10 144,70" fill="rgb(255,255,255)" fill-opacity="1.0" stroke="rgb(0,0,0)" stroke-width="2"  />
		</g>
		<g>
			<title> (ctg628_14)</title>
			<polygon class=" (ctg628_14)" points="151,25 159,25 159,10 189,40 159,70 159,55 151,55" fill="rgb(255,255,255)" fill-opacity="1.0" stroke="rgb(0,0,0)" stroke-width="2"  />
			<g>
				<title>DUF2236 (PF09995)
"Uncharacterized protein conserved in bacteria (DUF2236)"</title>
				<polygon class="PF09995" points="160,28 173,28 184,39 184,41 173,52 160,52" stroke-linejoin="round" width="24" height="24" fill="rgb(194,179,92)" stroke="rgb(155,143,73)" stroke-width="1" opacity="0.75" />
			</g>
		</g>
		<g>
			<title> (ctg628_15)</title>
			<polygon class=" (ctg628_15)" points="193,25 239,25 239,10 269,40 239,70 239,55 193,55" fill="rgb(255,255,255)" fill-opacity="1.0" stroke="rgb(0,0,0)" stroke-width="2"  />
			<g>
				<title>MMPL (PF03176)
"MMPL family"</title>
				<rect class="PF03176" x="197" y="28" stroke-linejoin="round" width="35" height="24" fill="rgb(228,109,193)" stroke="rgb(182,87,154)" stroke-width="1" opacity="0.75" />
			</g>
			<g>
				<title>MMPL (PF03176)
"MMPL family"</title>
				<polygon class="PF03176" points="248,28 253,28 265,40 253,52 248,52" stroke-linejoin="round" width="21" height="24" fill="rgb(228,109,193)" stroke="rgb(182,87,154)" stroke-width="1" opacity="0.75" />
			</g>
		</g>
		<g>
			<title> (ctg628_16)</title>
			<polygon class=" (ctg628_16)" points="270,10 297,40 270,70" fill="rgb(255,255,255)" fill-opacity="1.0" stroke="rgb(0,0,0)" stroke-width="2"  />
			<g>
				<title>LolA_like (PF17131)
"Outer membrane lipoprotein-sorting protein"</title>
				<polygon class="PF17131" points="278,28 282,28 293,40 282,52 278,52" stroke-linejoin="round" width="18" height="24" fill="rgb(189,100,83)" stroke="rgb(151,80,66)" stroke-width="1" opacity="0.75" />
			</g>
		</g>
		<g>
			<title> (ctg628_17)</title>
			<polygon class=" (ctg628_17)" points="343,25 331,25 331,10 301,40 331,70 331,55 343,55" fill="rgb(255,255,255)" fill-opacity="1.0" stroke="rgb(0,0,0)" stroke-width="2"  />
			<g>
				<title>Amino_oxidase (PF01593)
"Flavin containing amine oxidoreductase"</title>
				<polygon class="PF01593" points="305,40 317,28 341,28 341,52 317,52" stroke-linejoin="round" width="40" height="24" fill="rgb(184,74,52)" stroke="rgb(147,59,41)" stroke-width="1" opacity="0.75" />
			</g>
		</g>
		<g>
			<title> (ctg628_18)</title>
			<polygon class=" (ctg628_18)" points="343,40 368,10 368,70" fill="rgb(255,255,255)" fill-opacity="1.0" stroke="rgb(0,0,0)" stroke-width="2"  />
			<g>
				<title>SQS_PSY (PF00494)
"Squalene/phytoene synthase"</title>
				<polygon class="PF00494" points="347,40 357,28 367,28 367,52 357,52" stroke-linejoin="round" width="24" height="24" fill="rgb(178,91,49)" stroke="rgb(142,72,39)" stroke-width="1" opacity="0.75" />
			</g>
		</g>
		<g>
			<title> (ctg628_19)</title>
			<polygon class=" (ctg628_19)" points="406,25 403,25 403,10 373,40 403,70 403,55 406,55" fill="rgb(255,255,255)" fill-opacity="1.0" stroke="rgb(0,0,0)" stroke-width="2"  />
			<g>
				<title>SQS_PSY (PF00494)
"Squalene/phytoene synthase"</title>
				<polygon class="PF00494" points="377,40 389,28 400,28 400,52 389,52" stroke-linejoin="round" width="25" height="24" fill="rgb(178,91,49)" stroke="rgb(142,72,39)" stroke-width="1" opacity="0.75" />
			</g>
		</g>
		<g>
			<title> (ctg628_20)</title>
			<polygon class=" (ctg628_20)" points="449,25 437,25 437,10 407,40 437,70 437,55 449,55" fill="rgb(255,255,255)" fill-opacity="1.0" stroke="rgb(0,0,0)" stroke-width="2"  />
			<g>
				<title>adh_short_C2 (PF13561)
"Enoyl-(Acyl carrier protein) reductase"</title>
				<polygon class="PF13561" points="412,39 423,28 435,28 435,52 423,52 412,41" stroke-linejoin="round" width="23" height="24" fill="rgb(73,205,127)" stroke="rgb(58,164,101)" stroke-width="1" opacity="0.75" />
			</g>
		</g>
		<g>
			<title> (ctg628_21)</title>
			<polygon class=" (ctg628_21)" points="451,25 474,25 474,10 504,40 474,70 474,55 451,55" fill="rgb(255,255,255)" fill-opacity="1.0" stroke="rgb(0,0,0)" stroke-width="2"  />
			<g>
				<title>G_glu_transpept (PF01019)
"Gamma-glutamyltranspeptidase"</title>
				<polygon class="PF01019" points="452,28 487,28 499,40 487,52 452,52" stroke-linejoin="round" width="51" height="24" fill="rgb(117,205,100)" stroke="rgb(93,164,80)" stroke-width="1" opacity="0.75" />
			</g>
		</g>
		<g>
			<title> (ctg628_22)</title>
			<polygon class=" (ctg628_22)" points="517,10 529,40 517,70" fill="rgb(255,255,255)" fill-opacity="1.0" stroke="rgb(0,0,0)" stroke-width="2"  />
			<g>
				<title>HSP20 (PF00011)
"Hsp20/alpha crystallin family"</title>
				<polygon class="PF00011" points="518,28 520,28 525,40 520,52 518,52" stroke-linejoin="round" width="10" height="24" fill="rgb(148,223,75)" stroke="rgb(118,178,60)" stroke-width="1" opacity="0.75" />
			</g>
		</g>
		<g>
			<title> (ctg628_23)</title>
			<polygon class=" (ctg628_23)" points="532,40 550,10 550,70" fill="rgb(255,255,255)" fill-opacity="1.0" stroke="rgb(0,0,0)" stroke-width="2"  />
			<g>
				<title>DUF1640 (PF07798)
"Protein of unknown function (DUF1640)"</title>
				<polygon class="PF07798" points="541,32 543,28 549,28 549,52 543,52 541,48" stroke-linejoin="round" width="8" height="24" fill="rgb(142,95,229)" stroke="rgb(113,76,183)" stroke-width="1" opacity="0.75" />
			</g>
		</g>
		<g>
			<title> (ctg628_24)</title>
			<polygon class=" (ctg628_24)" points="555,25 560,25 560,10 590,40 560,70 560,55 555,55" fill="rgb(255,255,255)" fill-opacity="1.0" stroke="rgb(0,0,0)" stroke-width="2"  />
			<g>
				<title>Bac_luciferase (PF00296)
"Luciferase-like monooxygenase"</title>
				<polygon class="PF00296" points="555,28 573,28 585,40 585,40 573,52 555,52" stroke-linejoin="round" width="30" height="24" fill="rgb(180,112,78)" stroke="rgb(144,89,62)" stroke-width="1" opacity="0.75" />
			</g>
		</g>
		<g>
			<title> (ctg628_25)</title>
			<polygon class=" (ctg628_25)" points="591,10 606,40 591,70" fill="rgb(255,255,255)" fill-opacity="1.0" stroke="rgb(0,0,0)" stroke-width="2"  />
			<g>
				<title>Fer2 (PF00111)
"2Fe-2S iron-sulfur cluster binding domain"</title>
				<polygon class="PF00111" points="591,28 596,28 598,30 598,50 596,52 591,52" stroke-linejoin="round" width="7" height="24" fill="rgb(60,59,191)" stroke="rgb(48,47,152)" stroke-width="1" opacity="0.75" />
			</g>
			<g>
				<title>Fer2_2 (PF01799)
"[2Fe-2S] binding domain"</title>
				<polygon class="PF01799" points="598,30 603,40 598,50" stroke-linejoin="round" width="7" height="24" fill="rgb(67,193,124)" stroke="rgb(53,154,99)" stroke-width="1" opacity="0.75" />
			</g>
		</g>
		<g>
			<title> (ctg628_26)</title>
			<polygon class=" (ctg628_26)" points="614,25 655,25 655,10 685,40 655,70 655,55 614,55" fill="rgb(255,255,255)" fill-opacity="1.0" stroke="rgb(0,0,0)" stroke-width="2"  />
			<g>
				<title>Ald_Xan_dh_C2 (PF02738)
"Molybdopterin-binding domain of aldehyde dehydrogenase"</title>
				<rect class="PF02738" x="614" y="28" stroke-linejoin="round" width="19" height="24" fill="rgb(194,143,89)" stroke="rgb(155,114,71)" stroke-width="1" opacity="0.75" />
			</g>
			<g>
				<title>Ald_Xan_dh_C2 (PF02738)
"Molybdopterin-binding domain of aldehyde dehydrogenase"</title>
				<polygon class="PF02738" points="643,28 669,28 672,31 672,49 669,52 643,52" stroke-linejoin="round" width="29" height="24" fill="rgb(194,143,89)" stroke="rgb(155,114,71)" stroke-width="1" opacity="0.75" />
			</g>
		</g>
		<g>
			<title> (ctg628_27)</title>
			<polygon class=" (ctg628_27)" points="687,40 700,10 700,70" fill="rgb(255,255,255)" fill-opacity="1.0" stroke="rgb(0,0,0)" stroke-width="2"  />
			<g>
				<title>PIN (PF01850)
"PIN domain"</title>
				<polygon class="PF01850" points="690,40 696,28 700,28 700,52 696,52" stroke-linejoin="round" width="12" height="24" fill="rgb(91,217,126)" stroke="rgb(72,173,100)" stroke-width="1" opacity="0.75" />
			</g>
		</g>
		<g>
			<title> (ctg628_28)</title>
			<polygon class=" (ctg628_28)" points="701,40 709,10 709,70" fill="rgb(255,255,255)" fill-opacity="1.0" stroke="rgb(0,0,0)" stroke-width="2"  />
			<g>
				<title>PhdYeFM_antitox (PF02604)
"Antitoxin Phd_YefM, type II toxin-antitoxin system"</title>
				<polygon class="PF02604" points="704,40 708,28 709,28 709,52 708,52" stroke-linejoin="round" width="7" height="24" fill="rgb(204,60,69)" stroke="rgb(163,48,55)" stroke-width="1" opacity="0.75" />
			</g>
		</g>
	</g>
</svg>
