<svg version="1.1" baseProfile="full" xmlns="http://www.w3.org/2000/svg" width="709.4333333333333" height="80">
	<g>
		<line x1="10" y1="40.0" x2="699.4333333333333" y2="40.0" style="stroke:rgb(70,70,70); stroke-width:3 "/>
		<g>
			<title> (ctg1356_1)</title>
			<polygon class=" (ctg1356_1)" points="10,40 20,10 20,70" fill="rgb(255,255,255)" fill-opacity="1.0" stroke="rgb(0,0,0)" stroke-width="2"  />
		</g>
		<g>
			<title> (ctg1356_2)</title>
			<polygon class=" (ctg1356_2)" points="50,25 50,25 50,10 20,40 50,70 50,55 50,55" fill="rgb(255,255,255)" fill-opacity="1.0" stroke="rgb(0,0,0)" stroke-width="2"  />
		</g>
		<g>
			<title> (ctg1356_3)</title>
			<polygon class=" (ctg1356_3)" points="54,40 77,10 77,70" fill="rgb(255,255,255)" fill-opacity="1.0" stroke="rgb(0,0,0)" stroke-width="2"  />
			<g>
				<title>DUF1499 (PF07386)
"Protein of unknown function (DUF1499)"</title>
				<polygon class="PF07386" points="58,40 67,28 67,28 67,52 67,52" stroke-linejoin="round" width="13" height="24" fill="rgb(62,130,189)" stroke="rgb(49,104,151)" stroke-width="1" opacity="0.75" />
			</g>
		</g>
		<g>
			<title> (ctg1356_4)</title>
			<polygon class=" (ctg1356_4)" points="84,10 103,40 84,70" fill="rgb(255,255,255)" fill-opacity="1.0" stroke="rgb(0,0,0)" stroke-width="2"  />
			<g>
				<title>NUDIX (PF00293)
"NUDIX domain"</title>
				<polygon class="PF00293" points="88,28 91,28 99,40 91,52 88,52" stroke-linejoin="round" width="13" height="24" fill="rgb(92,56,187)" stroke="rgb(73,44,149)" stroke-width="1" opacity="0.75" />
			</g>
		</g>
		<g>
			<title> (ctg1356_5)</title>
			<polygon class=" (ctg1356_5)" points="104,25 114,25 114,10 144,40 114,70 114,55 104,55" fill="rgb(255,255,255)" fill-opacity="1.0" stroke="rgb(0,0,0)" stroke-width="2"  />
			<g>
				<title>DUF2236 (PF09995)
"Uncharacterized protein conserved in bacteria (DUF2236)"</title>
				<polygon class="PF09995" points="115,28 128,28 139,39 139,41 128,52 115,52" stroke-linejoin="round" width="24" height="24" fill="rgb(194,179,92)" stroke="rgb(155,143,73)" stroke-width="1" opacity="0.75" />
			</g>
		</g>
		<g>
			<title> (ctg1356_6)</title>
			<polygon class=" (ctg1356_6)" points="145,25 192,25 192,10 222,40 192,70 192,55 145,55" fill="rgb(255,255,255)" fill-opacity="1.0" stroke="rgb(0,0,0)" stroke-width="2"  />
			<g>
				<title>MMPL (PF03176)
"MMPL family"</title>
				<rect class="PF03176" x="150" y="28" stroke-linejoin="round" width="36" height="24" fill="rgb(228,109,193)" stroke="rgb(182,87,154)" stroke-width="1" opacity="0.75" />
			</g>
			<g>
				<title>MMPL (PF03176)
"MMPL family"</title>
				<polygon class="PF03176" points="193,28 206,28 218,40 206,52 193,52" stroke-linejoin="round" width="29" height="24" fill="rgb(228,109,193)" stroke="rgb(182,87,154)" stroke-width="1" opacity="0.75" />
			</g>
		</g>
		<g>
			<title> (ctg1356_7)</title>
			<polygon class=" (ctg1356_7)" points="223,10 250,40 223,70" fill="rgb(255,255,255)" fill-opacity="1.0" stroke="rgb(0,0,0)" stroke-width="2"  />
			<g>
				<title>LolA_like (PF17131)
"Outer membrane lipoprotein-sorting protein"</title>
				<polygon class="PF17131" points="231,28 234,28 245,40 234,52 231,52" stroke-linejoin="round" width="18" height="24" fill="rgb(189,100,83)" stroke="rgb(151,80,66)" stroke-width="1" opacity="0.75" />
			</g>
		</g>
		<g>
			<title> (ctg1356_8)</title>
			<polygon class=" (ctg1356_8)" points="250,10 279,40 250,70" fill="rgb(255,255,255)" fill-opacity="1.0" stroke="rgb(0,0,0)" stroke-width="2"  />
		</g>
		<g>
			<title> (ctg1356_9)</title>
			<polygon class=" (ctg1356_9)" points="280,10 305,40 280,70" fill="rgb(255,255,255)" fill-opacity="1.0" stroke="rgb(0,0,0)" stroke-width="2"  />
		</g>
		<g>
			<title> (ctg1356_10)</title>
			<polygon class=" (ctg1356_10)" points="306,40 324,10 324,70" fill="rgb(255,255,255)" fill-opacity="1.0" stroke="rgb(0,0,0)" stroke-width="2"  />
		</g>
		<g>
			<title> (ctg1356_11)</title>
			<polygon class=" (ctg1356_11)" points="365,25 361,25 361,10 331,40 361,70 361,55 365,55" fill="rgb(255,255,255)" fill-opacity="1.0" stroke="rgb(0,0,0)" stroke-width="2"  />
			<g>
				<title>SQS_PSY (PF00494)
"Squalene/phytoene synthase"</title>
				<polygon class="PF00494" points="335,40 347,28 363,28 363,52 347,52" stroke-linejoin="round" width="29" height="24" fill="rgb(178,91,49)" stroke="rgb(142,72,39)" stroke-width="1" opacity="0.75" />
			</g>
		</g>
		<g>
			<title> (ctg1356_12)</title>
			<polygon class=" (ctg1356_12)" points="369,40 382,10 382,70" fill="rgb(255,255,255)" fill-opacity="1.0" stroke="rgb(0,0,0)" stroke-width="2"  />
		</g>
		<g>
			<title> (ctg1356_13)</title>
			<polygon class=" (ctg1356_13)" points="383,40 399,10 399,70" fill="rgb(255,255,255)" fill-opacity="1.0" stroke="rgb(0,0,0)" stroke-width="2"  />
			<g>
				<title>GRDB (PF07355)
"Glycine/sarcosine/betaine reductase selenoprotein B (GRDB)"</title>
				<polygon class="PF07355" points="386,40 393,28 395,28 395,52 393,52" stroke-linejoin="round" width="12" height="24" fill="rgb(168,200,54)" stroke="rgb(134,160,43)" stroke-width="1" opacity="0.75" />
			</g>
		</g>
		<g>
			<title> (ctg1356_14)</title>
			<polygon class=" (ctg1356_14)" points="400,40 411,10 411,70" fill="rgb(255,255,255)" fill-opacity="1.0" stroke="rgb(0,0,0)" stroke-width="2"  />
			<g>
				<title>Pterin_4a (PF01329)
"Pterin 4 alpha carbinolamine dehydratase"</title>
				<polygon class="PF01329" points="403,40 408,28 409,28 409,52 408,52" stroke-linejoin="round" width="9" height="24" fill="rgb(109,209,90)" stroke="rgb(87,167,72)" stroke-width="1" opacity="0.75" />
			</g>
		</g>
		<g>
			<title> (ctg1356_15)</title>
			<polygon class=" (ctg1356_15)" points="469,25 441,25 441,10 411,40 441,70 441,55 469,55" fill="rgb(255,255,255)" fill-opacity="1.0" stroke="rgb(0,0,0)" stroke-width="2"  />
			<g>
				<title>SSF (PF00474)
"Sodium:solute symporter family"</title>
				<polygon class="PF00474" points="418,37 427,28 430,28 430,52 427,52 418,43" stroke-linejoin="round" width="12" height="24" fill="rgb(49,186,178)" stroke="rgb(39,148,142)" stroke-width="1" opacity="0.75" />
			</g>
			<g>
				<title>SSF (PF00474)
"Sodium:solute symporter family"</title>
				<rect class="PF00474" x="438" y="28" stroke-linejoin="round" width="27" height="24" fill="rgb(49,186,178)" stroke="rgb(39,148,142)" stroke-width="1" opacity="0.75" />
			</g>
		</g>
		<g>
			<title> (ctg1356_16)</title>
			<polygon class=" (ctg1356_16)" points="469,40 476,10 476,70" fill="rgb(255,255,255)" fill-opacity="1.0" stroke="rgb(0,0,0)" stroke-width="2"  />
			<g>
				<title>DUF4212 (PF13937)
"Domain of unknown function (DUF4212)"</title>
				<polygon class="PF13937" points="472,40 475,28 475,28 475,52 475,52" stroke-linejoin="round" width="5" height="24" fill="rgb(93,193,79)" stroke="rgb(74,154,63)" stroke-width="1" opacity="0.75" />
			</g>
		</g>
		<g>
			<title> (ctg1356_17)</title>
			<polygon class=" (ctg1356_17)" points="483,25 556,25 556,10 586,40 556,70 556,55 483,55" fill="rgb(255,255,255)" fill-opacity="1.0" stroke="rgb(0,0,0)" stroke-width="2"  />
			<g>
				<title>Plug (PF07715)
"TonB-dependent Receptor Plug Domain"</title>
				<rect class="PF07715" x="491" y="28" stroke-linejoin="round" width="11" height="24" fill="rgb(99,133,214)" stroke="rgb(79,106,171)" stroke-width="1" opacity="0.75" />
			</g>
			<g>
				<title>TonB_dep_Rec (PF00593)
"TonB dependent receptor"</title>
				<polygon class="PF00593" points="528,28 569,28 581,40 569,52 528,52" stroke-linejoin="round" width="57" height="24" fill="rgb(171,200,51)" stroke="rgb(136,160,40)" stroke-width="1" opacity="0.75" />
			</g>
		</g>
		<g>
			<title> (ctg1356_18)</title>
			<polygon class=" (ctg1356_18)" points="592,25 618,25 618,10 648,40 618,70 618,55 592,55" fill="rgb(255,255,255)" fill-opacity="1.0" stroke="rgb(0,0,0)" stroke-width="2"  />
			<g>
				<title>DUF839 (PF05787)
"Bacterial protein of unknown function (DUF839)"</title>
				<polygon class="PF05787" points="630,28 632,28 640,36 640,44 632,52 630,52" stroke-linejoin="round" width="10" height="24" fill="rgb(62,203,65)" stroke="rgb(49,162,51)" stroke-width="1" opacity="0.75" />
			</g>
		</g>
	</g>
</svg>
