<svg version="1.1" baseProfile="full" xmlns="http://www.w3.org/2000/svg" width="742.3666666666667" height="80">
	<g>
		<line x1="10" y1="40.0" x2="732.3666666666667" y2="40.0" style="stroke:rgb(70,70,70); stroke-width:3 "/>
		<g>
			<title> (ctg197_24)</title>
			<polygon class=" (ctg197_24)" points="35,10 58,40 35,70" fill="rgb(255,255,255)" fill-opacity="1.0" stroke="rgb(0,0,0)" stroke-width="2"  />
			<g>
				<title>DUF4159 (PF13709)
"Domain of unknown function (DUF4159)"</title>
				<polygon class="PF13709" points="39,28 45,28 54,40 45,52 39,52" stroke-linejoin="round" width="19" height="24" fill="rgb(192,178,93)" stroke="rgb(153,142,74)" stroke-width="1" opacity="0.75" />
			</g>
		</g>
		<g>
			<title> (ctg197_25)</title>
			<polygon class=" (ctg197_25)" points="65,25 152,25 152,10 182,40 152,70 152,55 65,55" fill="rgb(255,255,255)" fill-opacity="1.0" stroke="rgb(0,0,0)" stroke-width="2"  />
		</g>
		<g>
			<title> (ctg197_26)</title>
			<polygon class=" (ctg197_26)" points="183,40 211,10 211,70" fill="rgb(255,255,255)" fill-opacity="1.0" stroke="rgb(0,0,0)" stroke-width="2"  />
			<g>
				<title>DUF4159 (PF13709)
"Domain of unknown function (DUF4159)"</title>
				<polygon class="PF13709" points="187,40 198,28 204,28 204,52 198,52" stroke-linejoin="round" width="20" height="24" fill="rgb(192,178,93)" stroke="rgb(153,142,74)" stroke-width="1" opacity="0.75" />
			</g>
		</g>
		<g>
			<title> (ctg197_27)</title>
			<polygon class=" (ctg197_27)" points="309,25 265,25 265,10 235,40 265,70 265,55 309,55" fill="rgb(255,255,255)" fill-opacity="1.0" stroke="rgb(0,0,0)" stroke-width="2"  />
			<g>
				<title>SLT (PF01464)
"Transglycosylase SLT domain"</title>
				<polygon class="PF01464" points="240,39 251,28 251,28 251,52 251,52 240,41" stroke-linejoin="round" width="11" height="24" fill="rgb(181,60,156)" stroke="rgb(144,47,124)" stroke-width="1" opacity="0.75" />
			</g>
			<g>
				<title>TPR_6 (PF13174)
"Tetratricopeptide repeat"</title>
				<rect class="PF13174" x="265" y="28" stroke-linejoin="round" width="2" height="24" fill="rgb(184,86,76)" stroke="rgb(147,68,60)" stroke-width="1" opacity="0.75" />
			</g>
			<g>
				<title>YfiO (PF13525)
"Outer membrane lipoprotein"</title>
				<rect class="PF13525" x="269" y="28" stroke-linejoin="round" width="13" height="24" fill="rgb(135,83,203)" stroke="rgb(108,66,162)" stroke-width="1" opacity="0.75" />
			</g>
			<g>
				<title>ANAPC3 (PF12895)
"Anaphase-promoting complex, cyclosome, subunit 3"</title>
				<rect class="PF12895" x="289" y="28" stroke-linejoin="round" width="8" height="24" fill="rgb(158,66,183)" stroke="rgb(126,52,146)" stroke-width="1" opacity="0.75" />
			</g>
		</g>
		<g>
			<title> (ctg197_28)</title>
			<polygon class=" (ctg197_28)" points="318,40 340,10 340,70" fill="rgb(255,255,255)" fill-opacity="1.0" stroke="rgb(0,0,0)" stroke-width="2"  />
			<g>
				<title>Glycos_transf_2 (PF00535)
"Glycosyl transferase family 2"</title>
				<polygon class="PF00535" points="323,39 331,28 339,28 339,52 331,52 323,41" stroke-linejoin="round" width="16" height="24" fill="rgb(224,122,96)" stroke="rgb(179,97,76)" stroke-width="1" opacity="0.75" />
			</g>
		</g>
		<g>
			<title> (ctg197_29)</title>
			<polygon class=" (ctg197_29)" points="398,25 373,25 373,10 343,40 373,70 373,55 398,55" fill="rgb(255,255,255)" fill-opacity="1.0" stroke="rgb(0,0,0)" stroke-width="2"  />
			<g>
				<title>SQHop_cyclase_C (PF13243)
"Squalene-hopene cyclase C-terminal domain"</title>
				<polygon class="PF13243" points="347,40 359,28 370,28 370,52 359,52" stroke-linejoin="round" width="27" height="24" fill="rgb(191,58,201)" stroke="rgb(152,46,160)" stroke-width="1" opacity="0.75" />
			</g>
			<g>
				<title>Prenyltrans (PF00432)
"Prenyltransferase and squalene oxidase repeat"</title>
				<rect class="PF00432" x="391" y="28" stroke-linejoin="round" width="2" height="24" fill="rgb(218,215,79)" stroke="rgb(174,172,63)" stroke-width="1" opacity="0.75" />
			</g>
		</g>
		<g>
			<title> (ctg197_30)</title>
			<polygon class=" (ctg197_30)" points="447,25 433,25 433,10 403,40 433,70 433,55 447,55" fill="rgb(255,255,255)" fill-opacity="1.0" stroke="rgb(0,0,0)" stroke-width="2"  />
			<g>
				<title>Xan_ur_permease (PF00860)
"Permease family"</title>
				<polygon class="PF00860" points="407,40 419,28 444,28 444,52 419,52" stroke-linejoin="round" width="38" height="24" fill="rgb(216,88,217)" stroke="rgb(172,70,173)" stroke-width="1" opacity="0.75" />
			</g>
		</g>
		<g>
			<title> (ctg197_31)</title>
			<polygon class=" (ctg197_31)" points="483,25 480,25 480,10 450,40 480,70 480,55 483,55" fill="rgb(255,255,255)" fill-opacity="1.0" stroke="rgb(0,0,0)" stroke-width="2"  />
			<g>
				<title>Aldo_ket_red (PF00248)
"Aldo/keto reductase family"</title>
				<polygon class="PF00248" points="454,40 466,28 481,28 481,52 466,52" stroke-linejoin="round" width="29" height="24" fill="rgb(225,205,58)" stroke="rgb(180,164,46)" stroke-width="1" opacity="0.75" />
			</g>
		</g>
		<g>
			<title> (ctg197_32)</title>
			<polygon class=" (ctg197_32)" points="496,10 504,40 496,70" fill="rgb(255,255,255)" fill-opacity="1.0" stroke="rgb(0,0,0)" stroke-width="2"  />
			<g>
				<title>Cyclophil_like (PF04126)
"Cyclophilin-like"</title>
				<polygon class="PF04126" points="496,28 497,28 501,40 497,52 496,52" stroke-linejoin="round" width="7" height="24" fill="rgb(206,185,57)" stroke="rgb(164,148,45)" stroke-width="1" opacity="0.75" />
			</g>
		</g>
		<g>
			<title> (ctg197_33)</title>
			<polygon class=" (ctg197_33)" points="505,10 509,40 505,70" fill="rgb(255,255,255)" fill-opacity="1.0" stroke="rgb(0,0,0)" stroke-width="2"  />
			<g>
				<title>Cyclophil_like (PF04126)
"Cyclophilin-like"</title>
				<polygon class="PF04126" points="505,31 506,40 505,49" stroke-linejoin="round" width="3" height="24" fill="rgb(206,185,57)" stroke="rgb(164,148,45)" stroke-width="1" opacity="0.75" />
			</g>
		</g>
		<g>
			<title> (ctg197_34)</title>
			<polygon class=" (ctg197_34)" points="509,10 528,40 509,70" fill="rgb(255,255,255)" fill-opacity="1.0" stroke="rgb(0,0,0)" stroke-width="2"  />
		</g>
		<g>
			<title> (ctg197_35)</title>
			<polygon class=" (ctg197_35)" points="531,10 555,40 531,70" fill="rgb(255,255,255)" fill-opacity="1.0" stroke="rgb(0,0,0)" stroke-width="2"  />
		</g>
		<g>
			<title> (ctg197_36)</title>
			<polygon class=" (ctg197_36)" points="555,25 597,25 597,10 627,40 597,70 597,55 555,55" fill="rgb(255,255,255)" fill-opacity="1.0" stroke="rgb(0,0,0)" stroke-width="2"  />
			<g>
				<title>Dockerin_1 (PF00404)
"Dockerin type I domain"</title>
				<polygon class="PF00404" points="621,38 623,40 621,42" stroke-linejoin="round" width="4" height="24" fill="rgb(89,54,205)" stroke="rgb(71,43,164)" stroke-width="1" opacity="0.75" />
			</g>
		</g>
		<g>
			<title> (ctg197_37)</title>
			<polygon class=" (ctg197_37)" points="634,25 638,25 638,10 668,40 638,70 638,55 634,55" fill="rgb(255,255,255)" fill-opacity="1.0" stroke="rgb(0,0,0)" stroke-width="2"  />
			<g>
				<title>Amidohydro_2 (PF04909)
"Amidohydrolase"</title>
				<polygon class="PF04909" points="636,28 651,28 663,40 651,52 636,52" stroke-linejoin="round" width="31" height="24" fill="rgb(95,225,123)" stroke="rgb(76,180,98)" stroke-width="1" opacity="0.75" />
			</g>
		</g>
		<g>
			<title> (ctg197_38)</title>
			<polygon class=" (ctg197_38)" points="672,25 677,25 677,10 707,40 677,70 677,55 672,55" fill="rgb(255,255,255)" fill-opacity="1.0" stroke="rgb(0,0,0)" stroke-width="2"  />
			<g>
				<title>Pyr_redox_2 (PF07992)
"Pyridine nucleotide-disulphide oxidoreductase"</title>
				<polygon class="PF07992" points="672,28 691,28 703,40 691,52 672,52" stroke-linejoin="round" width="33" height="24" fill="rgb(83,223,167)" stroke="rgb(66,178,133)" stroke-width="1" opacity="0.75" />
			</g>
		</g>
	</g>
</svg>
