<svg version="1.1" baseProfile="full" xmlns="http://www.w3.org/2000/svg" width="260.8" height="80">
	<g>
		<line x1="10" y1="40.0" x2="250.8" y2="40.0" style="stroke:rgb(70,70,70); stroke-width:3 "/>
		<g>
			<title> (ctg4338_1)</title>
			<polygon class=" (ctg4338_1)" points="43,10 55,40 43,70" fill="rgb(255,255,255)" fill-opacity="1.0" stroke="rgb(0,0,0)" stroke-width="2"  />
			<g>
				<title>DoxX (PF07681)
"DoxX"</title>
				<polygon class="PF07681" points="43,28 47,28 51,37 51,43 47,52 43,52" stroke-linejoin="round" width="8" height="24" fill="rgb(93,188,216)" stroke="rgb(74,150,172)" stroke-width="1" opacity="0.75" />
			</g>
		</g>
		<g>
			<title> (ctg4338_2)</title>
			<polygon class=" (ctg4338_2)" points="56,10 83,40 56,70" fill="rgb(255,255,255)" fill-opacity="1.0" stroke="rgb(0,0,0)" stroke-width="2"  />
			<g>
				<title>DUF692 (PF05114)
"Protein of unknown function (DUF692)"</title>
				<polygon class="PF05114" points="56,28 67,28 79,40 67,52 56,52" stroke-linejoin="round" width="26" height="24" fill="rgb(63,196,127)" stroke="rgb(50,156,101)" stroke-width="1" opacity="0.75" />
			</g>
		</g>
		<g>
			<title> (ctg4338_3)</title>
			<polygon class=" (ctg4338_3)" points="84,10 109,40 84,70" fill="rgb(255,255,255)" fill-opacity="1.0" stroke="rgb(0,0,0)" stroke-width="2"  />
			<g>
				<title>DUF2063 (PF09836)
"Putative DNA-binding domain"</title>
				<rect class="PF09836" x="84" y="28" stroke-linejoin="round" width="9" height="24" fill="rgb(88,194,190)" stroke="rgb(70,155,152)" stroke-width="1" opacity="0.75" />
			</g>
		</g>
		<g>
			<title> (ctg4338_4)</title>
			<polygon class=" (ctg4338_4)" points="108,40 127,10 127,70" fill="rgb(255,255,255)" fill-opacity="1.0" stroke="rgb(0,0,0)" stroke-width="2"  />
			<g>
				<title>FUR (PF01475)
"Ferric uptake regulator family"</title>
				<polygon class="PF01475" points="113,38 120,28 125,28 125,52 120,52 113,42" stroke-linejoin="round" width="12" height="24" fill="rgb(167,195,50)" stroke="rgb(133,156,40)" stroke-width="1" opacity="0.75" />
			</g>
		</g>
		<g>
			<title> (ctg4338_5)</title>
			<polygon class=" (ctg4338_5)" points="132,40 150,10 150,70" fill="rgb(255,255,255)" fill-opacity="1.0" stroke="rgb(0,0,0)" stroke-width="2"  />
			<g>
				<title>Pro_CA (PF00484)
"Carbonic anhydrase"</title>
				<polygon class="PF00484" points="136,40 143,28 146,28 146,52 143,52" stroke-linejoin="round" width="14" height="24" fill="rgb(215,92,126)" stroke="rgb(172,73,100)" stroke-width="1" opacity="0.75" />
			</g>
		</g>
		<g>
			<title> (ctg4338_6)</title>
			<polygon class=" (ctg4338_6)" points="153,40 161,10 161,70" fill="rgb(255,255,255)" fill-opacity="1.0" stroke="rgb(0,0,0)" stroke-width="2"  />
		</g>
		<g>
			<title> (ctg4338_7)</title>
			<polygon class=" (ctg4338_7)" points="161,40 170,10 170,70" fill="rgb(255,255,255)" fill-opacity="1.0" stroke="rgb(0,0,0)" stroke-width="2"  />
			<g>
				<title>BrnT_toxin (PF04365)
"Ribonuclease toxin, BrnT, of type II toxin-antitoxin system"</title>
				<polygon class="PF04365" points="164,40 168,28 169,28 169,52 168,52" stroke-linejoin="round" width="7" height="24" fill="rgb(81,152,189)" stroke="rgb(64,121,151)" stroke-width="1" opacity="0.75" />
			</g>
		</g>
		<g>
			<title> (ctg4338_8)</title>
			<polygon class=" (ctg4338_8)" points="173,40 183,10 183,70" fill="rgb(255,255,255)" fill-opacity="1.0" stroke="rgb(0,0,0)" stroke-width="2"  />
			<g>
				<title>DUF45 (PF01863)
"Protein of unknown function DUF45"</title>
				<polygon class="PF01863" points="176,40 180,28 182,28 182,52 180,52" stroke-linejoin="round" width="9" height="24" fill="rgb(89,185,141)" stroke="rgb(71,148,112)" stroke-width="1" opacity="0.75" />
			</g>
		</g>
	</g>
</svg>
